<svg width="186" height="48" viewBox="0 0 186 48" fill="none" xmlns="http://www.w3.org/2000/svg">
<path d="M171.978 0.00141098H13.4508C12.933 0.00141098 12.4222 0.00141098 11.9072 0.00423293C11.4741 0.00705488 11.0465 0.0155207 10.6105 0.0225756C9.67083 0.0451512 8.72124 0.103001 7.78294 0.270907C6.839 0.437403 5.96137 0.719598 5.10209 1.15559C4.25692 1.58876 3.48511 2.15033 2.81772 2.81913C2.14327 3.48652 1.58312 4.26115 1.15559 5.10632C0.716776 5.9642 0.438814 6.84606 0.273729 7.79141C0.104412 8.72548 0.0451512 9.66942 0.0211646 10.6148C0.00846586 11.0479 0.00705488 11.4811 0 11.9143C0 12.4251 0 12.9372 0 13.4551V34.5463C0 35.067 0 35.5764 0 36.0899C0.00705488 36.5273 0.00846586 36.9521 0.0211646 37.3909C0.0451512 38.3362 0.104412 39.2816 0.273729 40.2156C0.438814 41.161 0.716776 42.0471 1.15559 42.9021C1.58312 43.7431 2.14327 44.5163 2.81772 45.1795C3.48511 45.8525 4.25692 46.4141 5.10068 46.8416C5.95996 47.2818 6.83759 47.5612 7.78294 47.7319C8.71983 47.8998 9.67083 47.9548 10.6105 47.9817C11.0465 47.9915 11.4755 47.9972 11.9072 47.9972C12.4236 48 12.9344 48 13.4522 48H171.98C172.486 48 173.001 48 173.509 47.9972C173.939 47.9972 174.38 47.9915 174.81 47.9817C175.755 47.9563 176.704 47.8998 177.632 47.7319C178.577 47.5612 179.456 47.2832 180.324 46.8416C181.167 46.4126 181.938 45.8525 182.606 45.1795C183.277 44.5163 183.837 43.7431 184.272 42.9021C184.705 42.0471 184.986 41.161 185.145 40.2156C185.319 39.2816 185.374 38.3362 185.408 37.3909C185.414 36.9521 185.414 36.5288 185.414 36.0899C185.425 35.5778 185.425 35.0684 185.425 34.5463V13.4537C185.425 12.9372 185.425 12.4251 185.414 11.9129C185.414 11.4797 185.414 11.0465 185.408 10.6134C185.375 9.66801 185.32 8.72265 185.145 7.78859C184.986 6.84323 184.705 5.96137 184.272 5.1035C183.836 4.25833 183.277 3.48511 182.606 2.81631C181.938 2.14751 181.168 1.58594 180.324 1.15277C179.456 0.715365 178.577 0.43317 177.632 0.268085C176.704 0.100179 175.755 0.0423293 174.81 0.0183427C174.38 0.0112878 173.939 0.00282195 173.509 0C173.001 0.00141098 172.486 0.00141098 171.978 0.00141098Z" fill="#A6A6A6"/>
<path d="M171.979 0.918945C172.484 0.918945 172.998 0.918945 173.503 0.921767C173.85 0.924589 174.206 0.930233 174.556 0.935877L174.787 0.94011C175.533 0.958453 176.511 1.00219 177.473 1.17574C178.347 1.32813 179.144 1.59057 179.905 1.97294C180.665 2.36378 181.355 2.86609 181.957 3.46999C182.554 4.0626 183.058 4.75398 183.452 5.51873C183.834 6.27924 184.092 7.07221 184.242 7.95831C184.407 8.84722 184.458 9.77564 184.489 10.6265C184.494 11.0554 184.494 11.4857 184.494 11.933C184.506 12.4382 184.506 12.9433 184.506 13.4541V34.5453C184.506 35.0589 184.506 35.5626 184.494 36.0889C184.494 36.5235 184.494 36.944 184.489 37.3574C184.458 38.228 184.407 39.1564 184.239 40.0608C184.091 40.9385 183.833 41.7314 183.456 42.4778C183.055 43.2525 182.552 43.941 181.952 44.5322C181.355 45.1347 180.668 45.6356 179.907 46.0222C179.158 46.4032 178.36 46.6656 177.468 46.8279C176.544 46.9958 175.593 47.0409 174.79 47.0635C174.366 47.0734 173.933 47.079 173.504 47.079C172.999 47.0819 172.486 47.0819 171.98 47.0819H13.4517C12.9367 47.0819 12.4273 47.0819 11.9067 47.079C11.4819 47.079 11.0601 47.0734 10.6354 47.0649C9.82828 47.0423 8.8787 46.9972 7.94604 46.8293C7.05289 46.6684 6.25851 46.4046 5.51634 46.0236C4.75582 45.6384 4.06727 45.1361 3.46055 44.5238C2.86512 43.9382 2.36422 43.2525 1.97197 42.4821C1.59383 41.7441 1.3328 40.9498 1.17618 40.0495C1.00122 39.0887 0.957476 38.1109 0.937722 37.363C0.929257 37.0696 0.925024 36.7831 0.922202 36.4939L0.917969 36.0889V34.5453V13.4541V11.9288L0.923613 11.5069C0.926435 11.2191 0.930668 10.9312 0.939133 10.6392C0.957476 9.89416 1.00263 8.91636 1.179 7.94843C1.33421 7.05951 1.59383 6.26655 1.97479 5.52014C2.36281 4.75398 2.8637 4.06401 3.4676 3.46717C4.06868 2.86468 4.76006 2.36237 5.51775 1.97436C6.27403 1.58916 7.067 1.32813 7.94604 1.17433C8.91115 1.00078 9.89037 0.957042 10.6255 0.938699L10.9049 0.934466C11.2421 0.928822 11.5765 0.923178 11.9123 0.921767C12.4259 0.918945 12.9367 0.918945 13.4517 0.918945H171.979Z" fill="black"/>
<mask id="mask0_568_1647" style="mask-type:luminance" maskUnits="userSpaceOnUse" x="10" y="10" width="37" height="28">
<path d="M46.9374 32.5304V32.9043C46.9374 33.0835 46.9374 33.2627 46.936 33.4419C46.9346 33.5928 46.9332 33.7438 46.929 33.8948C46.9205 34.2235 46.9008 34.5551 46.8429 34.8796C46.7836 35.2098 46.6863 35.5174 46.5339 35.8165C46.3843 36.1114 46.1882 36.3809 45.954 36.6137C45.7198 36.8479 45.4503 37.0427 45.1568 37.1936C44.8577 37.346 44.5501 37.4434 44.2199 37.5026C43.8954 37.5605 43.5638 37.5802 43.235 37.5887C43.0841 37.5929 42.9331 37.5944 42.7821 37.5958C42.6029 37.5972 42.4237 37.5972 42.2445 37.5972L40.1859 37.5958L42.102 37.5972H15.4995L17.4156 37.5958L15.357 37.5972C15.1778 37.5972 14.9986 37.5972 14.8194 37.5958C14.6684 37.5944 14.5174 37.5929 14.3665 37.5887C14.0377 37.5802 13.7061 37.5605 13.3816 37.5026C13.0514 37.4434 12.7453 37.346 12.4447 37.1936C12.1498 37.0441 11.8803 36.8479 11.6475 36.6137C11.4133 36.3795 11.2186 36.11 11.0676 35.8165C10.9152 35.5174 10.8179 35.2098 10.7586 34.8796C10.7007 34.5551 10.681 34.2235 10.6725 33.8948C10.6683 33.7438 10.6669 33.5928 10.6655 33.4419C10.6641 33.2627 10.6641 33.0835 10.6641 32.9043V32.6108V15.3799V17.1437V15.0851C10.6641 14.9059 10.6641 14.7267 10.6655 14.5475C10.6669 14.3965 10.6683 14.2455 10.6725 14.0945C10.681 13.7658 10.7007 13.4342 10.7586 13.1097C10.8179 12.7795 10.9152 12.4719 11.0676 12.1728C11.2172 11.8779 11.4133 11.6084 11.6475 11.3756C11.8817 11.1428 12.1512 10.9467 12.4461 10.7971C12.7453 10.6447 13.0528 10.5474 13.383 10.4881C13.7075 10.4302 14.0391 10.4105 14.3679 10.402C14.5188 10.3978 14.6698 10.3964 14.8208 10.395C15 10.3936 15.1792 10.3936 15.3584 10.3936H17.417H42.1034H42.2445C42.4237 10.3936 42.6029 10.3936 42.7821 10.395C42.9331 10.3964 43.0841 10.3978 43.235 10.402C43.5638 10.4105 43.8954 10.4302 44.2199 10.4881C44.5501 10.5474 44.8562 10.6447 45.1568 10.7971C45.4517 10.9467 45.7212 11.1428 45.954 11.377C46.1882 11.6112 46.3829 11.8807 46.5339 12.1742C46.6863 12.4733 46.7836 12.7809 46.8429 13.1111C46.9008 13.4356 46.9205 13.7672 46.929 14.096C46.9332 14.2469 46.9346 14.3979 46.936 14.5489C46.9374 14.7281 46.9374 14.9073 46.9374 15.0865V15.4604V32.5304Z" fill="white"/>
</mask>
<g mask="url(#mask0_568_1647)">
<path d="M45.7858 11.5264H11.7812V35.204H45.7858V11.5264Z" fill="#DEDBCE"/>
<path d="M45.4254 11.9043H12.1758V26.0098H45.4254V11.9043Z" fill="#40A5D9"/>
<g filter="url(#filter0_d_568_1647)">
<path fill-rule="evenodd" clip-rule="evenodd" d="M45.4215 17.9044C45.4215 17.7901 45.4215 17.6772 45.4215 17.5629C45.4215 17.467 45.4201 17.371 45.4173 17.2751C45.4116 17.0662 45.399 16.856 45.3623 16.65C45.3242 16.4412 45.2635 16.2465 45.1661 16.056C45.0716 15.8697 44.9474 15.6976 44.7979 15.5494C44.6497 15.4013 44.479 15.2771 44.2913 15.1812C44.1009 15.0838 43.9061 15.0231 43.6973 14.985C43.4913 14.9484 43.2811 14.9357 43.0723 14.93C42.9763 14.9272 42.8804 14.9258 42.7844 14.9258C42.6701 14.9258 42.5572 14.9258 42.443 14.9258H42.3498H16.4556H15.1504C15.0362 14.9258 14.9233 14.9258 14.809 14.9258C14.713 14.9258 14.6171 14.9272 14.5212 14.93C14.3123 14.9357 14.1021 14.9484 13.8961 14.985C13.6873 15.0231 13.4925 15.0838 13.3021 15.1812C13.1158 15.2757 12.9437 15.3999 12.7955 15.5494C12.6474 15.6976 12.5232 15.8683 12.4273 16.056C12.3299 16.2465 12.2692 16.4412 12.2311 16.65C12.1945 16.856 12.1818 17.0662 12.1761 17.2751C12.1733 17.371 12.1719 17.467 12.1719 17.5629C12.1719 17.6772 12.1719 17.7901 12.1719 17.9044V19.2095V18.1837V29.0327H45.4215V18.2515V17.9044Z" fill="#FFB003"/>
</g>
<g filter="url(#filter1_d_568_1647)">
<path fill-rule="evenodd" clip-rule="evenodd" d="M45.4215 20.9258C45.4215 20.8115 45.4215 20.6987 45.4215 20.5844C45.4215 20.4884 45.4201 20.3925 45.4173 20.2965C45.4116 20.0877 45.399 19.8775 45.3623 19.6715C45.3242 19.4627 45.2635 19.2679 45.1661 19.0775C45.0716 18.8912 44.9474 18.7191 44.7979 18.5709C44.6497 18.4228 44.479 18.2986 44.2913 18.2027C44.1009 18.1053 43.9061 18.0446 43.6973 18.0065C43.4913 17.9698 43.2811 17.9571 43.0723 17.9515C42.9763 17.9487 42.8804 17.9473 42.7844 17.9473C42.6701 17.9473 42.5572 17.9473 42.443 17.9473H42.3484H16.4556H15.1504C15.0362 17.9473 14.9233 17.9473 14.809 17.9473C14.713 17.9473 14.6171 17.9487 14.5212 17.9515C14.3123 17.9571 14.1021 17.9698 13.8961 18.0065C13.6873 18.0446 13.4925 18.1053 13.3021 18.2027C13.1158 18.2972 12.9437 18.4214 12.7955 18.5709C12.6474 18.7191 12.5232 18.8898 12.4273 19.0775C12.3299 19.2679 12.2692 19.4627 12.2311 19.6715C12.1945 19.8775 12.1818 20.0877 12.1761 20.2965C12.1733 20.3925 12.1719 20.4884 12.1719 20.5844C12.1719 20.6987 12.1719 20.8115 12.1719 20.9258V22.231V21.2052V32.0542H45.4215V21.2729V20.9258Z" fill="#40C740"/>
</g>
<g filter="url(#filter2_d_568_1647)">
<path fill-rule="evenodd" clip-rule="evenodd" d="M45.4215 23.9483C45.4215 23.834 45.4215 23.7211 45.4215 23.6068C45.4215 23.5109 45.4201 23.4149 45.4173 23.319C45.4116 23.1102 45.399 22.8999 45.3623 22.6939C45.3242 22.4851 45.2635 22.2904 45.1661 22.0999C45.0716 21.9137 44.9474 21.7415 44.7979 21.5934C44.6497 21.4452 44.479 21.3211 44.2913 21.2251C44.1009 21.1278 43.9061 21.0671 43.6973 21.029C43.4913 20.9923 43.2811 20.9796 43.0723 20.974C42.9763 20.9711 42.8804 20.9697 42.7844 20.9697C42.6701 20.9697 42.5572 20.9697 42.443 20.9697H42.3484H16.4556H15.1504C15.0362 20.9697 14.9233 20.9697 14.809 20.9697C14.713 20.9697 14.6171 20.9711 14.5212 20.974C14.3123 20.9796 14.1021 20.9923 13.8961 21.029C13.6873 21.0671 13.4925 21.1278 13.3021 21.2251C13.1158 21.3196 12.9437 21.4438 12.7955 21.5934C12.6474 21.7415 12.5232 21.9123 12.4273 22.0999C12.3299 22.2904 12.2692 22.4851 12.2311 22.6939C12.1945 22.8999 12.1818 23.1102 12.1761 23.319C12.1733 23.4149 12.1719 23.5109 12.1719 23.6068C12.1719 23.7211 12.1719 23.834 12.1719 23.9483V25.2534V24.2277V35.0767H45.4215V24.2954V23.9483Z" fill="#F26D5F"/>
</g>
<path fill-rule="evenodd" clip-rule="evenodd" d="M10.1602 9.88965V25.5063H12.175V16.1868V14.8817C12.175 14.7674 12.175 14.6545 12.175 14.5402C12.175 14.4443 12.1764 14.3483 12.1793 14.2524C12.1849 14.0436 12.1976 13.8333 12.2343 13.6273C12.2724 13.4185 12.3331 13.2238 12.4304 13.0333C12.525 12.8471 12.6491 12.6749 12.7987 12.5268C12.9468 12.3786 13.1176 12.2544 13.3052 12.1585C13.4943 12.064 13.689 12.0019 13.8978 11.9652C14.1038 11.9285 14.3141 11.9158 14.5229 11.9102C14.6188 11.9073 14.7148 11.9059 14.8107 11.9059C14.925 11.9059 15.0379 11.9059 15.1522 11.9059H16.4573H42.3473H42.4475C42.5618 11.9059 42.6747 11.9059 42.789 11.9059C42.8849 11.9059 42.9809 11.9073 43.0768 11.9102C43.2856 11.9158 43.4959 11.9285 43.7019 11.9652C43.9107 12.0033 44.1054 12.064 44.2959 12.1613C44.4821 12.2559 44.6543 12.38 44.8024 12.5296C44.9506 12.6777 45.0748 12.8485 45.1707 13.0361C45.2681 13.2266 45.3287 13.4213 45.3668 13.6301C45.4035 13.8361 45.4162 14.0464 45.4219 14.2552C45.4247 14.3512 45.4261 14.4471 45.4261 14.543C45.4261 14.6573 45.4261 14.7702 45.4261 14.8845V16.1897V25.5092H47.441V9.88965H10.1602Z" fill="#D9D6CC"/>
<g filter="url(#filter3_d_568_1647)">
<path fill-rule="evenodd" clip-rule="evenodd" d="M38.0735 23.9951C37.8576 23.9951 37.6403 23.9951 37.4244 23.9965C37.2424 23.9979 37.0604 23.9994 36.8784 24.005C36.4819 24.0163 36.0812 24.0389 35.6889 24.1094C35.2911 24.1814 34.92 24.2985 34.5588 24.4819C34.5122 24.5059 33.5175 24.9574 32.6229 26.3486C31.9442 27.4054 30.6235 28.5258 28.7738 28.5258C26.9254 28.5258 25.6047 27.4054 24.9246 26.3486C23.9835 24.8826 22.9097 24.4424 22.9873 24.4819C22.6261 24.2971 22.255 24.18 21.8571 24.1094C21.4649 24.0389 21.0642 24.0149 20.6677 24.005C20.4857 24.0008 20.3037 23.9979 20.1216 23.9965C19.9058 23.9951 19.6885 23.9951 19.4726 23.9951H10.1602V38.1006H47.4396V23.9951H38.0735Z" fill="#DEDBCE"/>
</g>
</g>
<path d="M54.1406 30.6006V30.5921C54.1406 26.9828 56.1894 24.7295 59.412 24.7295C61.9179 24.7295 63.8016 26.2731 64.1557 28.5194L64.1713 28.5913H62.4216L62.3751 28.4333C61.9969 27.1028 60.9401 26.29 59.412 26.29C57.2998 26.29 55.9453 27.9606 55.9453 30.5921V30.6006C55.9453 33.232 57.3083 34.9196 59.412 34.9196C60.9246 34.9196 61.9729 34.1308 62.3991 32.6902L62.4231 32.6183H64.1727L64.1656 32.6973C63.8115 34.9605 61.9278 36.4801 59.4134 36.4801C56.1894 36.4787 54.1406 34.2098 54.1406 30.6006Z" fill="white"/>
<path d="M65.5859 33.9335V33.918C65.5859 32.476 66.7048 31.5941 68.6675 31.4756L70.9222 31.3416V30.7193C70.9222 29.805 70.331 29.2533 69.2756 29.2533C68.2908 29.2533 67.6841 29.7189 67.5415 30.3807L67.526 30.4512H65.9189L65.926 30.3652C66.0445 28.9373 67.2819 27.8438 69.3222 27.8438C71.347 27.8438 72.6324 28.9147 72.6324 30.5782V36.2913H70.9222V34.9833H70.8912C70.4101 35.8736 69.4492 36.4408 68.3543 36.4408C66.6978 36.4408 65.5859 35.4235 65.5859 33.9335ZM68.8171 35.0764C70.015 35.0764 70.9208 34.2651 70.9208 33.1857V32.5395L68.8947 32.6651C67.8703 32.7285 67.3031 33.1772 67.3031 33.8785V33.8954C67.3045 34.6207 67.9028 35.0764 68.8171 35.0764Z" fill="white"/>
<path d="M74.642 28.0004H76.3437V29.4184H76.3832C76.6499 28.4491 77.3441 27.8438 78.2894 27.8438C78.5335 27.8438 78.7466 27.8818 78.8806 27.9058V29.4904C78.7466 29.4353 78.4474 29.3958 78.1159 29.3958C77.0209 29.3958 76.3423 30.1126 76.3423 31.35V36.2913H74.6406L74.642 28.0004Z" fill="white"/>
<path d="M81.144 34.1073V29.3565H79.9531V28.0006H81.144V25.8418H82.8851V28.0006H84.4372V29.3565H82.8851V34.0057C82.8851 34.8481 83.2633 35.0992 83.9801 35.0992C84.1607 35.0992 84.3102 35.0837 84.4372 35.0696V36.386C84.2397 36.4171 83.918 36.4566 83.5709 36.4566C81.9313 36.4552 81.144 35.7624 81.144 34.1073Z" fill="white"/>
<path d="M85.6289 32.1769V32.1684C85.6289 29.5764 87.126 27.8438 89.4498 27.8438C91.7751 27.8438 93.2016 29.5143 93.2016 32.0033V32.5776H87.3305C87.3616 34.1452 88.2209 35.0609 89.5754 35.0609C90.5843 35.0609 91.2545 34.5402 91.4661 33.918L91.4901 33.8545H93.1057L93.0901 33.942C92.8221 35.2584 91.5451 36.4549 89.5359 36.4549C87.1034 36.4549 85.6289 34.7928 85.6289 32.1769ZM87.3545 31.374H91.5155C91.373 29.939 90.5701 29.2378 89.4583 29.2378C88.3563 29.2378 87.5041 29.9856 87.3545 31.374Z" fill="white"/>
<path d="M94.8842 28.0004H96.5859V29.4184H96.6254C96.892 28.4491 97.5862 27.8438 98.5316 27.8438C98.7757 27.8438 98.9887 27.8818 99.1228 27.9058V29.4904C98.9887 29.4353 98.6896 29.3958 98.358 29.3958C97.2631 29.3958 96.5845 30.1126 96.5845 31.35V36.2913H94.8828L94.8842 28.0004Z" fill="white"/>
<path d="M100.035 33.9335V33.918C100.035 32.476 101.154 31.5941 103.117 31.4756L105.37 31.3416V30.7193C105.37 29.805 104.779 29.2533 103.723 29.2533C102.739 29.2533 102.132 29.7189 101.989 30.3807L101.974 30.4512H100.367L100.374 30.3652C100.492 28.9373 101.728 27.8438 103.77 27.8438C105.795 27.8438 107.08 28.9147 107.08 30.5782V36.2913H105.37V34.9833H105.339C104.858 35.8736 103.897 36.4408 102.802 36.4408C101.146 36.4408 100.035 35.4235 100.035 33.9335ZM103.266 35.0764C104.464 35.0764 105.37 34.2651 105.37 33.1857V32.5395L103.344 32.6651C102.32 32.7285 101.752 33.1772 101.752 33.8785V33.8954C101.752 34.6207 102.352 35.0764 103.266 35.0764Z" fill="white"/>
<path d="M112.348 32.146V32.1375C112.348 29.4976 113.719 27.8439 115.799 27.8439C116.973 27.8439 117.918 28.4337 118.415 29.4115H118.446V24.9189H120.156V36.29H118.446V34.8875H118.415C117.918 35.8568 117.005 36.4551 115.814 36.4551C113.702 36.4551 112.348 34.7859 112.348 32.146ZM118.454 32.146V32.1375C118.454 30.4203 117.541 29.3 116.263 29.3C114.924 29.3 114.089 30.3879 114.089 32.1375V32.146C114.089 33.9111 114.916 34.9905 116.263 34.9905C117.549 34.9891 118.454 33.8702 118.454 32.146Z" fill="white"/>
<path d="M121.895 32.1769V32.1684C121.895 29.5764 123.392 27.8438 125.715 27.8438C128.039 27.8438 129.467 29.5143 129.467 32.0033V32.5776H123.596C123.627 34.1452 124.487 35.0609 125.842 35.0609C126.851 35.0609 127.52 34.5402 127.733 33.918L127.759 33.8545H129.374L129.359 33.942C129.091 35.2584 127.814 36.4549 125.803 36.4549C123.368 36.4549 121.895 34.7928 121.895 32.1769ZM123.62 31.374H127.781C127.639 29.939 126.836 29.2378 125.724 29.2378C124.622 29.2378 123.77 29.9856 123.62 31.374Z" fill="white"/>
<path d="M138.275 24.9189H140.182L144.311 36.29H142.46L141.421 33.2169H137.04L135.992 36.29H134.141L138.275 24.9189ZM137.51 31.7989H140.939L139.244 26.804H139.213L137.51 31.7989Z" fill="white"/>
<path d="M145.402 28.0004H147.104V29.4269H147.143C147.64 28.442 148.554 27.8438 149.735 27.8438C151.848 27.8438 153.204 29.4974 153.204 32.1458V32.1543C153.204 34.7928 151.839 36.4563 149.761 36.4563C148.587 36.4563 147.633 35.8567 147.145 34.8972H147.105V39.0497H145.404L145.402 28.0004ZM151.471 32.1543V32.1458C151.471 30.3807 150.627 29.2999 149.295 29.2999C148.003 29.2999 147.097 30.4202 147.097 32.1458V32.1543C147.097 33.8714 148.01 34.9903 149.295 34.9903C150.634 34.9889 151.471 33.9025 151.471 32.1543Z" fill="white"/>
<path d="M154.883 28.0004H156.584V29.4269H156.624C157.121 28.442 158.035 27.8438 159.216 27.8438C161.328 27.8438 162.684 29.4974 162.684 32.1458V32.1543C162.684 34.7928 161.32 36.4563 159.241 36.4563C158.067 36.4563 157.114 35.8567 156.625 34.8972H156.586V39.0497H154.884L154.883 28.0004ZM160.951 32.1543V32.1458C160.951 30.3807 160.108 29.2999 158.776 29.2999C157.483 29.2999 156.577 30.4202 156.577 32.1458V32.1543C156.577 33.8714 157.49 34.9903 158.776 34.9903C160.115 34.9889 160.951 33.9025 160.951 32.1543Z" fill="white"/>
<path d="M164.184 24.9189H165.887V36.29H164.184V24.9189Z" fill="white"/>
<path d="M167.543 32.1769V32.1684C167.543 29.5764 169.041 27.8438 171.365 27.8438C173.689 27.8438 175.116 29.5143 175.116 32.0033V32.5776H169.246C169.276 34.1452 170.136 35.0609 171.491 35.0609C172.5 35.0609 173.17 34.5402 173.383 33.918L173.407 33.8545H175.023L175.007 33.942C174.74 35.2584 173.462 36.4549 171.453 36.4549C169.017 36.4549 167.543 34.7928 167.543 32.1769ZM169.27 31.374H173.43C173.287 29.939 172.484 29.2378 171.374 29.2378C170.27 29.2378 169.42 29.9856 169.27 31.374Z" fill="white"/>
<path d="M57.3095 11.5166H58.3635L61.5128 20.0601H60.3939L59.536 17.6148H56.1369L55.2791 20.0601H54.1602L57.3095 11.5166ZM56.4516 16.709H59.2227L57.8837 12.8965H57.7892L56.4516 16.709Z" fill="white"/>
<path d="M62.8647 13.6773H63.8947V14.6367H63.9892C64.3095 13.9609 64.9064 13.5644 65.8475 13.5644C67.2811 13.5644 68.0797 14.4124 68.0797 15.9278V20.0605H67.0497V16.1761C67.0497 15.029 66.5756 14.4773 65.5568 14.4773C64.5381 14.4773 63.8933 15.163 63.8933 16.2833V20.0605H62.8633V13.6773H62.8647ZM65.2634 12.1986L65.1985 12.1322C64.9797 11.915 64.8556 11.8486 64.6961 11.8486C64.4111 11.8486 64.246 12.1449 64.246 12.7488V12.7742H63.4164V12.7065C63.4164 11.6878 63.8425 11.067 64.6002 11.067C65.0559 11.067 65.3649 11.2913 65.6895 11.6186L65.7544 11.6836C65.9731 11.9023 66.0972 11.9672 66.2567 11.9672C66.5417 11.9672 66.7068 11.6709 66.7068 11.067V11.043H67.535V11.1079C67.535 12.1266 67.1089 12.7474 66.3512 12.7474C65.8969 12.7474 65.5893 12.5231 65.2634 12.1986Z" fill="white"/>
<path d="M69.543 18.2781V18.2654C69.543 17.1281 70.3839 16.472 71.8697 16.3831L73.6983 16.2703V15.6904C73.6983 14.9016 73.2186 14.4769 72.2647 14.4769C71.5014 14.4769 70.9977 14.7605 70.8326 15.2586L70.827 15.2769H69.7969L69.8026 15.2417C69.9691 14.2413 70.9398 13.5654 72.3014 13.5654C73.8591 13.5654 74.7283 14.364 74.7283 15.6918V20.0616H73.6983V19.1204H73.6038C73.2002 19.8005 72.5314 20.1744 71.6735 20.1744C70.4615 20.173 69.543 19.4379 69.543 18.2781ZM71.888 19.2785C72.9364 19.2785 73.6997 18.5913 73.6997 17.6798V17.0999L71.9952 17.2057C71.0245 17.265 70.5984 17.6079 70.5984 18.2414V18.2527C70.597 18.9003 71.1487 19.2785 71.888 19.2785Z" fill="white"/>
<path d="M76.2773 16.874V16.8627C76.2773 14.8605 77.3313 13.5638 78.9526 13.5638C79.8288 13.5638 80.5935 14.0026 80.942 14.6827H81.0366V11.1426H82.0666V20.0585H81.0366V19.0398H80.942C80.5512 19.7509 79.8415 20.1714 78.9526 20.1714C77.337 20.1728 76.2773 18.8634 76.2773 16.874ZM81.0606 16.874V16.8627C81.0606 15.3882 80.3508 14.4767 79.1896 14.4767C78.0227 14.4767 77.3313 15.3769 77.3313 16.8627V16.874C77.3313 18.3611 78.0241 19.2599 79.1896 19.2599C80.3508 19.2599 81.0606 18.3484 81.0606 16.874Z" fill="white"/>
<path d="M83.8633 11.7355C83.8633 11.3447 84.1836 11.0244 84.573 11.0244C84.9624 11.0244 85.2827 11.3447 85.2827 11.7355C85.2827 12.125 84.9624 12.4453 84.573 12.4453C84.1836 12.4453 83.8633 12.1264 83.8633 11.7355ZM84.0538 13.6771H85.0838V20.0589H84.0538V13.6771Z" fill="white"/>
<path d="M87.0092 13.6773H88.0392V14.6241H88.1338C88.3765 13.9553 88.9747 13.5645 89.8382 13.5645C90.0344 13.5645 90.2531 13.5898 90.3532 13.6054V14.6072C90.1402 14.5719 89.9441 14.5479 89.7197 14.5479C88.7377 14.5479 88.0378 15.1687 88.0378 16.1056V20.0606H87.0078L87.0092 13.6773Z" fill="white"/>
<path d="M94.6328 18.2781V18.2654C94.6328 17.1281 95.4738 16.472 96.9595 16.3831L98.7881 16.2703V15.6904C98.7881 14.9016 98.3084 14.4769 97.3546 14.4769C96.5912 14.4769 96.0875 14.7605 95.9224 15.2586L95.9168 15.2769H94.8868L94.8924 15.2417C95.0589 14.2413 96.0297 13.5654 97.3913 13.5654C98.949 13.5654 99.8181 14.364 99.8181 15.6918V20.0616H98.7881V19.1204H98.6936C98.2901 19.8005 97.6213 20.1744 96.7634 20.1744C95.55 20.173 94.6328 19.4379 94.6328 18.2781ZM96.9764 19.2785C98.0248 19.2785 98.7881 18.5913 98.7881 17.6798V17.0999L97.0837 17.2057C96.1129 17.265 95.6868 17.6079 95.6868 18.2414V18.2527C95.6868 18.9003 96.2371 19.2785 96.9764 19.2785Z" fill="white"/>
<defs>
<filter id="filter0_d_568_1647" x="9.17188" y="11.7258" width="39.25" height="20.1074" filterUnits="userSpaceOnUse" color-interpolation-filters="sRGB">
<feFlood flood-opacity="0" result="BackgroundImageFix"/>
<feColorMatrix in="SourceAlpha" type="matrix" values="0 0 0 0 0 0 0 0 0 0 0 0 0 0 0 0 0 0 127 0" result="hardAlpha"/>
<feOffset dy="-0.2"/>
<feGaussianBlur stdDeviation="1.5"/>
<feComposite in2="hardAlpha" operator="out"/>
<feColorMatrix type="matrix" values="0 0 0 0 0 0 0 0 0 0 0 0 0 0 0 0 0 0 0.12 0"/>
<feBlend mode="normal" in2="BackgroundImageFix" result="effect1_dropShadow_568_1647"/>
<feBlend mode="normal" in="SourceGraphic" in2="effect1_dropShadow_568_1647" result="shape"/>
</filter>
<filter id="filter1_d_568_1647" x="9.17188" y="14.7473" width="39.25" height="20.1074" filterUnits="userSpaceOnUse" color-interpolation-filters="sRGB">
<feFlood flood-opacity="0" result="BackgroundImageFix"/>
<feColorMatrix in="SourceAlpha" type="matrix" values="0 0 0 0 0 0 0 0 0 0 0 0 0 0 0 0 0 0 127 0" result="hardAlpha"/>
<feOffset dy="-0.2"/>
<feGaussianBlur stdDeviation="1.5"/>
<feComposite in2="hardAlpha" operator="out"/>
<feColorMatrix type="matrix" values="0 0 0 0 0 0 0 0 0 0 0 0 0 0 0 0 0 0 0.12 0"/>
<feBlend mode="normal" in2="BackgroundImageFix" result="effect1_dropShadow_568_1647"/>
<feBlend mode="normal" in="SourceGraphic" in2="effect1_dropShadow_568_1647" result="shape"/>
</filter>
<filter id="filter2_d_568_1647" x="9.17188" y="17.7697" width="39.25" height="20.1074" filterUnits="userSpaceOnUse" color-interpolation-filters="sRGB">
<feFlood flood-opacity="0" result="BackgroundImageFix"/>
<feColorMatrix in="SourceAlpha" type="matrix" values="0 0 0 0 0 0 0 0 0 0 0 0 0 0 0 0 0 0 127 0" result="hardAlpha"/>
<feOffset dy="-0.2"/>
<feGaussianBlur stdDeviation="1.5"/>
<feComposite in2="hardAlpha" operator="out"/>
<feColorMatrix type="matrix" values="0 0 0 0 0 0 0 0 0 0 0 0 0 0 0 0 0 0 0.12 0"/>
<feBlend mode="normal" in2="BackgroundImageFix" result="effect1_dropShadow_568_1647"/>
<feBlend mode="normal" in="SourceGraphic" in2="effect1_dropShadow_568_1647" result="shape"/>
</filter>
<filter id="filter3_d_568_1647" x="7.16016" y="20.7951" width="43.2812" height="20.1055" filterUnits="userSpaceOnUse" color-interpolation-filters="sRGB">
<feFlood flood-opacity="0" result="BackgroundImageFix"/>
<feColorMatrix in="SourceAlpha" type="matrix" values="0 0 0 0 0 0 0 0 0 0 0 0 0 0 0 0 0 0 127 0" result="hardAlpha"/>
<feOffset dy="-0.2"/>
<feGaussianBlur stdDeviation="1.5"/>
<feComposite in2="hardAlpha" operator="out"/>
<feColorMatrix type="matrix" values="0 0 0 0 0 0 0 0 0 0 0 0 0 0 0 0 0 0 0.12 0"/>
<feBlend mode="normal" in2="BackgroundImageFix" result="effect1_dropShadow_568_1647"/>
<feBlend mode="normal" in="SourceGraphic" in2="effect1_dropShadow_568_1647" result="shape"/>
</filter>
</defs>
</svg>
