<svg width="176" height="48" viewBox="0 0 176 48" fill="none" xmlns="http://www.w3.org/2000/svg">
<path d="M162.021 0.00141098H13.4508C12.933 0.00141098 12.4222 0.00141098 11.9072 0.00423293C11.4741 0.00705488 11.0465 0.0155207 10.6105 0.0225756C9.67083 0.0451512 8.72124 0.103001 7.78294 0.270907C6.839 0.437403 5.96137 0.719598 5.10209 1.15559C4.25692 1.58876 3.48511 2.15033 2.81772 2.81913C2.14327 3.48652 1.58312 4.26115 1.15559 5.10632C0.716776 5.9642 0.438814 6.84606 0.273729 7.79141C0.104412 8.72548 0.0451512 9.66942 0.0211646 10.6148C0.00846586 11.0479 0.00705488 11.4811 0 11.9143C0 12.4251 0 12.9372 0 13.4551V34.5463C0 35.067 0 35.5764 0 36.0899C0.00705488 36.5273 0.00846586 36.9521 0.0211646 37.3909C0.0451512 38.3362 0.104412 39.2816 0.273729 40.2156C0.438814 41.161 0.716776 42.0471 1.15559 42.9021C1.58312 43.7431 2.14327 44.5163 2.81772 45.1795C3.48511 45.8525 4.25692 46.4141 5.10068 46.8416C5.95996 47.2818 6.83759 47.5612 7.78294 47.7319C8.71983 47.8998 9.67083 47.9548 10.6105 47.9817C11.0465 47.9915 11.4755 47.9972 11.9072 47.9972C12.4236 48 12.9344 48 13.4522 48H162.022C162.529 48 163.044 48 163.552 47.9972C163.982 47.9972 164.422 47.9915 164.853 47.9817C165.798 47.9563 166.746 47.8998 167.675 47.7319C168.62 47.5612 169.499 47.2832 170.367 46.8416C171.209 46.4126 171.981 45.8525 172.648 45.1795C173.32 44.5163 173.88 43.7431 174.315 42.9021C174.748 42.0471 175.029 41.161 175.188 40.2156C175.362 39.2816 175.417 38.3362 175.451 37.3909C175.456 36.9521 175.456 36.5288 175.456 36.0899C175.468 35.5778 175.468 35.0684 175.468 34.5463V13.4537C175.468 12.9372 175.468 12.4251 175.456 11.9129C175.456 11.4797 175.456 11.0465 175.451 10.6134C175.418 9.66801 175.363 8.72265 175.188 7.78859C175.029 6.84323 174.748 5.96137 174.315 5.1035C173.879 4.25833 173.32 3.48511 172.648 2.81631C171.981 2.14751 171.211 1.58594 170.367 1.15277C169.499 0.715365 168.62 0.43317 167.675 0.268085C166.746 0.100179 165.798 0.0423293 164.853 0.0183427C164.422 0.0112878 163.982 0.00282195 163.552 0C163.044 0.00141098 162.529 0.00141098 162.021 0.00141098Z" fill="#A6A6A6"/>
<path d="M162.022 0.918945C162.527 0.918945 163.041 0.918945 163.546 0.921767C163.893 0.924589 164.248 0.930233 164.598 0.935877L164.83 0.94011C165.576 0.958453 166.554 1.00219 167.516 1.17574C168.39 1.32813 169.187 1.59057 169.947 1.97294C170.708 2.36378 171.398 2.86609 172 3.46999C172.597 4.0626 173.101 4.75398 173.494 5.51873C173.877 6.27924 174.135 7.07221 174.285 7.95831C174.45 8.84722 174.5 9.77564 174.532 10.6265C174.537 11.0554 174.537 11.4857 174.537 11.933C174.548 12.4382 174.548 12.9433 174.548 13.4541V34.5453C174.548 35.0589 174.548 35.5626 174.537 36.0889C174.537 36.5235 174.537 36.944 174.532 37.3574C174.5 38.228 174.45 39.1564 174.282 40.0608C174.134 40.9385 173.875 41.7314 173.499 42.4778C173.098 43.2525 172.594 43.941 171.995 44.5322C171.398 45.1347 170.711 45.6356 169.95 46.0222C169.201 46.4032 168.402 46.6656 167.511 46.8279C166.586 46.9958 165.635 47.0409 164.832 47.0635C164.409 47.0734 163.976 47.079 163.547 47.079C163.042 47.0819 162.528 47.0819 162.023 47.0819H13.4517C12.9367 47.0819 12.4273 47.0819 11.9067 47.079C11.4819 47.079 11.0601 47.0734 10.6354 47.0649C9.82828 47.0423 8.8787 46.9972 7.94604 46.8293C7.05289 46.6684 6.25851 46.4046 5.51634 46.0236C4.75582 45.6384 4.06727 45.1361 3.46055 44.5238C2.86512 43.9382 2.36422 43.2525 1.97197 42.4821C1.59383 41.7441 1.3328 40.9498 1.17618 40.0495C1.00122 39.0887 0.957476 38.1109 0.937722 37.363C0.929257 37.0696 0.925024 36.7831 0.922202 36.4939L0.917969 36.0889V34.5453V13.4541V11.9288L0.923613 11.5069C0.926435 11.2191 0.930668 10.9312 0.939133 10.6392C0.957476 9.89416 1.00263 8.91636 1.179 7.94843C1.33421 7.05951 1.59383 6.26655 1.97479 5.52014C2.36281 4.75398 2.8637 4.06401 3.4676 3.46717C4.06868 2.86468 4.76006 2.36237 5.51775 1.97436C6.27403 1.58916 7.067 1.32813 7.94604 1.17433C8.91115 1.00078 9.89037 0.957042 10.6255 0.938699L10.9049 0.934466C11.2421 0.928822 11.5765 0.923178 11.9123 0.921767C12.4259 0.918945 12.9367 0.918945 13.4517 0.918945H162.022Z" fill="black"/>
<mask id="mask0_568_1291" style="mask-type:luminance" maskUnits="userSpaceOnUse" x="10" y="10" width="37" height="28">
<path d="M46.9374 32.5304V32.9043C46.9374 33.0835 46.9374 33.2627 46.936 33.4419C46.9346 33.5928 46.9332 33.7438 46.929 33.8948C46.9205 34.2235 46.9008 34.5551 46.8429 34.8796C46.7836 35.2098 46.6863 35.5174 46.5339 35.8165C46.3843 36.1114 46.1882 36.3809 45.954 36.6137C45.7198 36.8479 45.4503 37.0427 45.1568 37.1936C44.8577 37.346 44.5501 37.4434 44.2199 37.5026C43.8954 37.5605 43.5638 37.5802 43.235 37.5887C43.0841 37.5929 42.9331 37.5944 42.7821 37.5958C42.6029 37.5972 42.4237 37.5972 42.2445 37.5972L40.1859 37.5958L42.102 37.5972H15.4995L17.4156 37.5958L15.357 37.5972C15.1778 37.5972 14.9986 37.5972 14.8194 37.5958C14.6684 37.5944 14.5174 37.5929 14.3665 37.5887C14.0377 37.5802 13.7061 37.5605 13.3816 37.5026C13.0514 37.4434 12.7453 37.346 12.4447 37.1936C12.1498 37.0441 11.8803 36.8479 11.6475 36.6137C11.4133 36.3795 11.2186 36.11 11.0676 35.8165C10.9152 35.5174 10.8179 35.2098 10.7586 34.8796C10.7007 34.5551 10.681 34.2235 10.6725 33.8948C10.6683 33.7438 10.6669 33.5928 10.6655 33.4419C10.6641 33.2627 10.6641 33.0835 10.6641 32.9043V32.6108V15.3799V17.1437V15.0851C10.6641 14.9059 10.6641 14.7267 10.6655 14.5475C10.6669 14.3965 10.6683 14.2455 10.6725 14.0945C10.681 13.7658 10.7007 13.4342 10.7586 13.1097C10.8179 12.7795 10.9152 12.4719 11.0676 12.1728C11.2172 11.8779 11.4133 11.6084 11.6475 11.3756C11.8817 11.1428 12.1512 10.9467 12.4461 10.7971C12.7453 10.6447 13.0528 10.5474 13.383 10.4881C13.7075 10.4302 14.0391 10.4105 14.3679 10.402C14.5188 10.3978 14.6698 10.3964 14.8208 10.395C15 10.3936 15.1792 10.3936 15.3584 10.3936H17.417H42.1034H42.2445C42.4237 10.3936 42.6029 10.3936 42.7821 10.395C42.9331 10.3964 43.0841 10.3978 43.235 10.402C43.5638 10.4105 43.8954 10.4302 44.2199 10.4881C44.5501 10.5474 44.8562 10.6447 45.1568 10.7971C45.4517 10.9467 45.7212 11.1428 45.954 11.377C46.1882 11.6112 46.3829 11.8807 46.5339 12.1742C46.6863 12.4733 46.7836 12.7809 46.8429 13.1111C46.9008 13.4356 46.9205 13.7672 46.929 14.096C46.9332 14.2469 46.9346 14.3979 46.936 14.5489C46.9374 14.7281 46.9374 14.9073 46.9374 15.0865V15.4604V32.5304Z" fill="white"/>
</mask>
<g mask="url(#mask0_568_1291)">
<path d="M45.7858 11.5264H11.7812V35.204H45.7858V11.5264Z" fill="#DEDBCE"/>
<path d="M45.4254 11.9043H12.1758V26.0098H45.4254V11.9043Z" fill="#40A5D9"/>
<g filter="url(#filter0_d_568_1291)">
<path fill-rule="evenodd" clip-rule="evenodd" d="M45.4215 17.9044C45.4215 17.7901 45.4215 17.6772 45.4215 17.5629C45.4215 17.467 45.4201 17.371 45.4173 17.2751C45.4116 17.0662 45.399 16.856 45.3623 16.65C45.3242 16.4412 45.2635 16.2465 45.1661 16.056C45.0716 15.8697 44.9474 15.6976 44.7979 15.5494C44.6497 15.4013 44.479 15.2771 44.2913 15.1812C44.1009 15.0838 43.9061 15.0231 43.6973 14.985C43.4913 14.9484 43.2811 14.9357 43.0723 14.93C42.9763 14.9272 42.8804 14.9258 42.7844 14.9258C42.6701 14.9258 42.5572 14.9258 42.443 14.9258H42.3498H16.4556H15.1504C15.0362 14.9258 14.9233 14.9258 14.809 14.9258C14.713 14.9258 14.6171 14.9272 14.5212 14.93C14.3123 14.9357 14.1021 14.9484 13.8961 14.985C13.6873 15.0231 13.4925 15.0838 13.3021 15.1812C13.1158 15.2757 12.9437 15.3999 12.7955 15.5494C12.6474 15.6976 12.5232 15.8683 12.4273 16.056C12.3299 16.2465 12.2692 16.4412 12.2311 16.65C12.1945 16.856 12.1818 17.0662 12.1761 17.2751C12.1733 17.371 12.1719 17.467 12.1719 17.5629C12.1719 17.6772 12.1719 17.7901 12.1719 17.9044V19.2095V18.1837V29.0327H45.4215V18.2515V17.9044Z" fill="#FFB003"/>
</g>
<g filter="url(#filter1_d_568_1291)">
<path fill-rule="evenodd" clip-rule="evenodd" d="M45.4215 20.9258C45.4215 20.8115 45.4215 20.6987 45.4215 20.5844C45.4215 20.4884 45.4201 20.3925 45.4173 20.2965C45.4116 20.0877 45.399 19.8775 45.3623 19.6715C45.3242 19.4627 45.2635 19.2679 45.1661 19.0775C45.0716 18.8912 44.9474 18.7191 44.7979 18.5709C44.6497 18.4228 44.479 18.2986 44.2913 18.2027C44.1009 18.1053 43.9061 18.0446 43.6973 18.0065C43.4913 17.9698 43.2811 17.9571 43.0723 17.9515C42.9763 17.9487 42.8804 17.9473 42.7844 17.9473C42.6701 17.9473 42.5572 17.9473 42.443 17.9473H42.3484H16.4556H15.1504C15.0362 17.9473 14.9233 17.9473 14.809 17.9473C14.713 17.9473 14.6171 17.9487 14.5212 17.9515C14.3123 17.9571 14.1021 17.9698 13.8961 18.0065C13.6873 18.0446 13.4925 18.1053 13.3021 18.2027C13.1158 18.2972 12.9437 18.4214 12.7955 18.5709C12.6474 18.7191 12.5232 18.8898 12.4273 19.0775C12.3299 19.2679 12.2692 19.4627 12.2311 19.6715C12.1945 19.8775 12.1818 20.0877 12.1761 20.2965C12.1733 20.3925 12.1719 20.4884 12.1719 20.5844C12.1719 20.6987 12.1719 20.8115 12.1719 20.9258V22.231V21.2052V32.0542H45.4215V21.2729V20.9258Z" fill="#40C740"/>
</g>
<g filter="url(#filter2_d_568_1291)">
<path fill-rule="evenodd" clip-rule="evenodd" d="M45.4215 23.9483C45.4215 23.834 45.4215 23.7211 45.4215 23.6068C45.4215 23.5109 45.4201 23.4149 45.4173 23.319C45.4116 23.1102 45.399 22.8999 45.3623 22.6939C45.3242 22.4851 45.2635 22.2904 45.1661 22.0999C45.0716 21.9137 44.9474 21.7415 44.7979 21.5934C44.6497 21.4452 44.479 21.3211 44.2913 21.2251C44.1009 21.1278 43.9061 21.0671 43.6973 21.029C43.4913 20.9923 43.2811 20.9796 43.0723 20.974C42.9763 20.9711 42.8804 20.9697 42.7844 20.9697C42.6701 20.9697 42.5572 20.9697 42.443 20.9697H42.3484H16.4556H15.1504C15.0362 20.9697 14.9233 20.9697 14.809 20.9697C14.713 20.9697 14.6171 20.9711 14.5212 20.974C14.3123 20.9796 14.1021 20.9923 13.8961 21.029C13.6873 21.0671 13.4925 21.1278 13.3021 21.2251C13.1158 21.3196 12.9437 21.4438 12.7955 21.5934C12.6474 21.7415 12.5232 21.9123 12.4273 22.0999C12.3299 22.2904 12.2692 22.4851 12.2311 22.6939C12.1945 22.8999 12.1818 23.1102 12.1761 23.319C12.1733 23.4149 12.1719 23.5109 12.1719 23.6068C12.1719 23.7211 12.1719 23.834 12.1719 23.9483V25.2534V24.2277V35.0767H45.4215V24.2954V23.9483Z" fill="#F26D5F"/>
</g>
<path fill-rule="evenodd" clip-rule="evenodd" d="M10.1602 9.88965V25.5063H12.175V16.1868V14.8817C12.175 14.7674 12.175 14.6545 12.175 14.5402C12.175 14.4443 12.1764 14.3483 12.1793 14.2524C12.1849 14.0436 12.1976 13.8333 12.2343 13.6273C12.2724 13.4185 12.3331 13.2238 12.4304 13.0333C12.525 12.8471 12.6491 12.6749 12.7987 12.5268C12.9468 12.3786 13.1176 12.2544 13.3052 12.1585C13.4943 12.064 13.689 12.0019 13.8978 11.9652C14.1038 11.9285 14.3141 11.9158 14.5229 11.9102C14.6188 11.9073 14.7148 11.9059 14.8107 11.9059C14.925 11.9059 15.0379 11.9059 15.1522 11.9059H16.4573H42.3473H42.4475C42.5618 11.9059 42.6747 11.9059 42.789 11.9059C42.8849 11.9059 42.9809 11.9073 43.0768 11.9102C43.2856 11.9158 43.4959 11.9285 43.7019 11.9652C43.9107 12.0033 44.1054 12.064 44.2959 12.1613C44.4821 12.2559 44.6543 12.38 44.8024 12.5296C44.9506 12.6777 45.0748 12.8485 45.1707 13.0361C45.2681 13.2266 45.3287 13.4213 45.3668 13.6301C45.4035 13.8361 45.4162 14.0464 45.4219 14.2552C45.4247 14.3512 45.4261 14.4471 45.4261 14.543C45.4261 14.6573 45.4261 14.7702 45.4261 14.8845V16.1897V25.5092H47.441V9.88965H10.1602Z" fill="#D9D6CC"/>
<g filter="url(#filter3_d_568_1291)">
<path fill-rule="evenodd" clip-rule="evenodd" d="M38.0735 23.9951C37.8576 23.9951 37.6403 23.9951 37.4244 23.9965C37.2424 23.9979 37.0604 23.9994 36.8784 24.005C36.4819 24.0163 36.0812 24.0389 35.6889 24.1094C35.2911 24.1814 34.92 24.2985 34.5588 24.4819C34.5122 24.5059 33.5175 24.9574 32.6229 26.3486C31.9442 27.4054 30.6235 28.5258 28.7738 28.5258C26.9254 28.5258 25.6047 27.4054 24.9246 26.3486C23.9835 24.8826 22.9097 24.4424 22.9873 24.4819C22.6261 24.2971 22.255 24.18 21.8571 24.1094C21.4649 24.0389 21.0642 24.0149 20.6677 24.005C20.4857 24.0008 20.3037 23.9979 20.1216 23.9965C19.9058 23.9951 19.6885 23.9951 19.4726 23.9951H10.1602V38.1006H47.4396V23.9951H38.0735Z" fill="#DEDBCE"/>
</g>
</g>
<path d="M54.4727 30.6006V30.5921C54.4727 26.9828 56.5214 24.7295 59.7441 24.7295C62.25 24.7295 64.1336 26.2731 64.4878 28.5194L64.5033 28.5913H62.7537L62.7071 28.4333C62.329 27.1028 61.2722 26.29 59.7441 26.29C57.6318 26.29 56.2773 27.9606 56.2773 30.5921V30.6006C56.2773 33.232 57.6403 34.9196 59.7441 34.9196C61.2566 34.9196 62.305 34.1308 62.7311 32.6902L62.7551 32.6183H64.5047L64.4976 32.6973C64.1435 34.9605 62.2598 36.4801 59.7455 36.4801C56.5214 36.4787 54.4727 34.2098 54.4727 30.6006Z" fill="white"/>
<path d="M65.918 33.9335V33.918C65.918 32.476 67.0369 31.5941 68.9995 31.4756L71.2529 31.3416V30.7193C71.2529 29.805 70.6617 29.2533 69.6063 29.2533C68.6214 29.2533 68.0147 29.7189 67.8722 30.3807L67.8567 30.4512H66.2495L66.2566 30.3652C66.3751 28.9373 67.6111 27.8438 69.6528 27.8438C71.6776 27.8438 72.963 28.9147 72.963 30.5782V36.2913H71.2529V34.9833H71.2218C70.7407 35.8736 69.7798 36.4408 68.6849 36.4408C67.0298 36.4408 65.918 35.4235 65.918 33.9335ZM69.1505 35.0764C70.3484 35.0764 71.2543 34.2651 71.2543 33.1857V32.5395L69.2281 32.6651C68.2038 32.7285 67.6365 33.1772 67.6365 33.8785V33.8954C67.6365 34.6207 68.2362 35.0764 69.1505 35.0764Z" fill="white"/>
<path d="M74.9727 28.0004H76.6743V29.4184H76.7138C76.9819 28.4491 77.6761 27.8438 78.6214 27.8438C78.8655 27.8438 79.0786 27.8818 79.2126 27.9058V29.4904C79.0786 29.4353 78.7795 29.3958 78.4479 29.3958C77.353 29.3958 76.6743 30.1126 76.6743 31.35V36.2913H74.9727V28.0004Z" fill="white"/>
<path d="M81.4746 34.1073V29.3565H80.2852V28.0006H81.4746V25.8418H83.2158V28.0006H84.7678V29.3565H83.2158V34.0057C83.2158 34.8481 83.5939 35.0992 84.3107 35.0992C84.4913 35.0992 84.6408 35.0837 84.7678 35.0696V36.386C84.5703 36.4171 84.2472 36.4566 83.9015 36.4566C82.2633 36.4552 81.4746 35.7624 81.4746 34.1073Z" fill="white"/>
<path d="M85.9648 32.1769V32.1684C85.9648 29.5764 87.4619 27.8438 89.7858 27.8438C92.1096 27.8438 93.5376 29.5143 93.5376 32.0033V32.5776H87.6665C87.6975 34.1452 88.5568 35.0609 89.9128 35.0609C90.9216 35.0609 91.5904 34.5402 91.8035 33.918L91.8289 33.8545H93.4444L93.4289 33.942C93.1608 35.2584 91.8839 36.4549 89.8732 36.4549C87.4379 36.4549 85.9648 34.7928 85.9648 32.1769ZM87.6905 31.374H91.8514C91.7089 29.939 90.9061 29.2378 89.7942 29.2378C88.6909 29.2378 87.84 29.9856 87.6905 31.374Z" fill="white"/>
<path d="M95.2188 28.0004H96.9204V29.4184H96.9585C97.2266 28.4491 97.9208 27.8438 98.8661 27.8438C99.1116 27.8438 99.3233 27.8818 99.4573 27.9058V29.4904C99.3233 29.4353 99.0241 29.3958 98.694 29.3958C97.5991 29.3958 96.9204 30.1126 96.9204 31.35V36.2913H95.2188V28.0004Z" fill="white"/>
<path d="M100.367 33.9335V33.918C100.367 32.476 101.487 31.5941 103.449 31.4756L105.703 31.3416V30.7193C105.703 29.805 105.112 29.2533 104.057 29.2533C103.072 29.2533 102.465 29.7189 102.323 30.3807L102.306 30.4512H100.699L100.706 30.3652C100.824 28.9373 102.062 27.8438 104.102 27.8438C106.128 27.8438 107.412 28.9147 107.412 30.5782V36.2913H105.702V34.9833H105.671C105.19 35.8736 104.23 36.4408 103.134 36.4408C101.479 36.4408 100.367 35.4235 100.367 33.9335ZM103.598 35.0764C104.796 35.0764 105.702 34.2651 105.702 33.1857V32.5395L103.676 32.6651C102.652 32.7285 102.084 33.1772 102.084 33.8785V33.8954C102.086 34.6207 102.685 35.0764 103.598 35.0764Z" fill="white"/>
<path d="M112.684 32.146V32.1375C112.684 29.4976 114.055 27.8439 116.135 27.8439C117.309 27.8439 118.256 28.4337 118.751 29.4115H118.782V24.9189H120.492V36.29H118.782V34.8875H118.751C118.254 35.8568 117.34 36.4551 116.15 36.4551C114.04 36.4551 112.684 34.7859 112.684 32.146ZM118.79 32.146V32.1375C118.79 30.4203 117.877 29.3 116.6 29.3C115.26 29.3 114.425 30.3879 114.425 32.1375V32.146C114.425 33.9111 115.253 34.9905 116.6 34.9905C117.884 34.9891 118.79 33.8702 118.79 32.146Z" fill="white"/>
<path d="M123.037 24.9189H124.74L123.59 28.9543H122.391L123.037 24.9189Z" fill="white"/>
<path d="M128.615 24.9189H130.522L134.651 36.29H132.8L131.761 33.2169H127.38L126.332 36.29H124.48L128.615 24.9189ZM127.85 31.7989H131.279L129.584 26.804H129.553L127.85 31.7989Z" fill="white"/>
<path d="M135.738 28.0004H137.44V29.4269H137.479C137.976 28.442 138.89 27.8438 140.071 27.8438C142.184 27.8438 143.54 29.4974 143.54 32.1458V32.1543C143.54 34.7928 142.175 36.4563 140.097 36.4563C138.923 36.4563 137.969 35.8567 137.481 34.8972H137.441V39.0497H135.74V28.0004H135.738ZM141.807 32.1543V32.1458C141.807 30.3807 140.963 29.2999 139.631 29.2999C138.339 29.2999 137.433 30.4202 137.433 32.1458V32.1543C137.433 33.8714 138.346 34.9903 139.631 34.9903C140.97 34.9889 141.807 33.9025 141.807 32.1543Z" fill="white"/>
<path d="M145.223 28.0004H146.924V29.4269H146.964C147.46 28.442 148.375 27.8438 149.556 27.8438C151.668 27.8438 153.024 29.4974 153.024 32.1458V32.1543C153.024 34.7928 151.66 36.4563 149.581 36.4563C148.407 36.4563 147.453 35.8567 146.965 34.8972H146.926V39.0497H145.224L145.223 28.0004ZM151.291 32.1543V32.1458C151.291 30.3807 150.448 29.2999 149.116 29.2999C147.823 29.2999 146.917 30.4202 146.917 32.1458V32.1543C146.917 33.8714 147.83 34.9903 149.116 34.9903C150.455 34.9889 151.291 33.9025 151.291 32.1543Z" fill="white"/>
<path d="M154.523 24.9189H156.226V36.29H154.523V24.9189Z" fill="white"/>
<path d="M157.883 32.1769V32.1684C157.883 29.5764 159.381 27.8438 161.705 27.8438C164.029 27.8438 165.456 29.5143 165.456 32.0033V32.5776H159.586C159.615 34.1452 160.476 35.0609 161.831 35.0609C162.84 35.0609 163.51 34.5402 163.723 33.918L163.747 33.8545H165.362L165.347 33.942C165.08 35.2584 163.802 36.4549 161.793 36.4549C159.357 36.4549 157.883 34.7928 157.883 32.1769ZM159.608 31.374H163.768C163.625 29.939 162.823 29.2378 161.712 29.2378C160.609 29.2378 159.758 29.9856 159.608 31.374Z" fill="white"/>
<path d="M57.3095 11.5166H58.3635L61.5128 20.0601H60.3938L59.536 17.6148H56.1369L55.2791 20.0601H54.1602L57.3095 11.5166ZM56.4516 16.709H59.2227L57.8837 12.8965H57.7892L56.4516 16.709Z" fill="white"/>
<path d="M63.1143 14.531H62.0547V13.6774H63.1143V12.9662C63.1143 11.6949 63.7535 11.084 64.9669 11.084C65.2153 11.084 65.4396 11.1023 65.6541 11.1432V11.9658C65.5299 11.9419 65.3578 11.9362 65.1744 11.9362C64.4392 11.9362 64.1443 12.2974 64.1443 12.9959V13.6759H65.5948V14.5282H64.1443V20.0578H63.1143V14.531Z" fill="white"/>
<path d="M66.4727 16.8925V16.8869C66.4727 14.9157 67.5972 13.5654 69.3327 13.5654C71.0682 13.5654 72.1222 14.8565 72.1222 16.7641V17.1662H67.5281C67.5577 18.4869 68.2858 19.2559 69.423 19.2559C70.2865 19.2559 70.8199 18.8467 70.992 18.4629L71.016 18.4093H72.046L72.0347 18.4573C71.816 19.3208 70.9031 20.1744 69.399 20.1744C67.5732 20.173 66.4727 18.8947 66.4727 16.8925ZM67.5436 16.3422H71.071C70.9652 15.0794 70.2668 14.4826 69.3242 14.4826C68.3789 14.4826 67.6565 15.1288 67.5436 16.3422Z" fill="white"/>
<path d="M73.6509 20.5694L73.6622 20.5624H74.7275L74.7331 20.5694C74.846 21.0548 75.4146 21.3976 76.3318 21.3976C77.4746 21.3976 78.1547 20.8587 78.1547 19.9175V18.6265H78.0602C77.6581 19.3306 76.9356 19.7271 76.0594 19.7271C74.4072 19.7271 73.3828 18.4487 73.3828 16.661V16.6483C73.3828 14.8592 74.4128 13.5625 76.0834 13.5625C76.9836 13.5625 77.6821 14.007 78.0729 14.7294H78.1434V13.6768H79.1735V19.9712C79.1735 21.3977 78.0715 22.3091 76.3318 22.3091C74.7938 22.3106 73.8117 21.6164 73.6509 20.5694ZM78.1801 16.6624V16.6497C78.1801 15.3827 77.4634 14.4768 76.2852 14.4768C75.1014 14.4768 74.4382 15.3827 74.4382 16.6497V16.6624C74.4382 17.9281 75.1014 18.817 76.2852 18.817C77.469 18.817 78.1801 17.9281 78.1801 16.6624Z" fill="white"/>
<path d="M80.9102 11.7355C80.9102 11.3447 81.2305 11.0244 81.6199 11.0244C82.0093 11.0244 82.3296 11.3447 82.3296 11.7355C82.3296 12.125 82.0093 12.4453 81.6199 12.4453C81.2305 12.4453 80.9102 12.1264 80.9102 11.7355ZM81.0992 13.6771H82.1292V20.0589H81.0992V13.6771Z" fill="white"/>
<path d="M84.0586 13.6773H85.0886V14.6241H85.1831C85.4258 13.9553 86.0241 13.5645 86.8876 13.5645C87.0837 13.5645 87.3024 13.5898 87.4026 13.6054V14.6072C87.1895 14.5719 86.9934 14.5479 86.7691 14.5479C85.787 14.5479 85.0886 15.1687 85.0886 16.1056V20.0606H84.0586V13.6773Z" fill="white"/>
<path d="M91.6797 18.2781V18.2654C91.6797 17.1281 92.5206 16.472 94.0064 16.3831L95.835 16.2703V15.6904C95.835 14.9016 95.3553 14.4769 94.4015 14.4769C93.6381 14.4769 93.1358 14.7605 92.9693 15.2586L92.9623 15.2769H91.9337L91.9393 15.2417C92.1044 14.2413 93.0766 13.5654 94.4381 13.5654C95.9959 13.5654 96.8664 14.364 96.8664 15.6918V20.0616H95.8364V19.1204H95.7419C95.3398 19.8005 94.671 20.1744 93.8131 20.1744C92.5968 20.173 91.6797 19.4379 91.6797 18.2781ZM94.0233 19.2785C95.0717 19.2785 95.835 18.5913 95.835 17.6798V17.0999L94.1306 17.2057C93.1598 17.265 92.7337 17.6079 92.7337 18.2414V18.2527C92.7337 18.9003 93.284 19.2785 94.0233 19.2785Z" fill="white"/>
<path d="M102.188 11.1426H103.218V20.0585H102.188V11.1426Z" fill="white"/>
<path d="M104.805 18.2785V18.2658C104.805 17.1286 105.646 16.4725 107.131 16.3836L108.96 16.2707V15.6908C108.96 14.9021 108.48 14.4774 107.526 14.4774C106.763 14.4774 106.261 14.761 106.094 15.259L106.087 15.2774H105.059L105.064 15.2407C105.229 14.2403 106.202 13.5645 107.563 13.5645C109.121 13.5645 109.991 14.3631 109.991 15.6908V20.0606H108.961V19.1195H108.867C108.465 19.7996 107.796 20.1735 106.938 20.1735C105.722 20.1735 104.805 19.4383 104.805 18.2785ZM107.148 19.2789C108.197 19.2789 108.96 18.5918 108.96 17.6803V17.1004L107.256 17.2062C106.285 17.2654 105.859 17.6083 105.859 18.2418V18.2531C105.859 18.9008 106.408 19.2789 107.148 19.2789Z" fill="white"/>
<defs>
<filter id="filter0_d_568_1291" x="9.17188" y="11.7258" width="39.25" height="20.1074" filterUnits="userSpaceOnUse" color-interpolation-filters="sRGB">
<feFlood flood-opacity="0" result="BackgroundImageFix"/>
<feColorMatrix in="SourceAlpha" type="matrix" values="0 0 0 0 0 0 0 0 0 0 0 0 0 0 0 0 0 0 127 0" result="hardAlpha"/>
<feOffset dy="-0.2"/>
<feGaussianBlur stdDeviation="1.5"/>
<feComposite in2="hardAlpha" operator="out"/>
<feColorMatrix type="matrix" values="0 0 0 0 0 0 0 0 0 0 0 0 0 0 0 0 0 0 0.12 0"/>
<feBlend mode="normal" in2="BackgroundImageFix" result="effect1_dropShadow_568_1291"/>
<feBlend mode="normal" in="SourceGraphic" in2="effect1_dropShadow_568_1291" result="shape"/>
</filter>
<filter id="filter1_d_568_1291" x="9.17188" y="14.7473" width="39.25" height="20.1074" filterUnits="userSpaceOnUse" color-interpolation-filters="sRGB">
<feFlood flood-opacity="0" result="BackgroundImageFix"/>
<feColorMatrix in="SourceAlpha" type="matrix" values="0 0 0 0 0 0 0 0 0 0 0 0 0 0 0 0 0 0 127 0" result="hardAlpha"/>
<feOffset dy="-0.2"/>
<feGaussianBlur stdDeviation="1.5"/>
<feComposite in2="hardAlpha" operator="out"/>
<feColorMatrix type="matrix" values="0 0 0 0 0 0 0 0 0 0 0 0 0 0 0 0 0 0 0.12 0"/>
<feBlend mode="normal" in2="BackgroundImageFix" result="effect1_dropShadow_568_1291"/>
<feBlend mode="normal" in="SourceGraphic" in2="effect1_dropShadow_568_1291" result="shape"/>
</filter>
<filter id="filter2_d_568_1291" x="9.17188" y="17.7697" width="39.25" height="20.1074" filterUnits="userSpaceOnUse" color-interpolation-filters="sRGB">
<feFlood flood-opacity="0" result="BackgroundImageFix"/>
<feColorMatrix in="SourceAlpha" type="matrix" values="0 0 0 0 0 0 0 0 0 0 0 0 0 0 0 0 0 0 127 0" result="hardAlpha"/>
<feOffset dy="-0.2"/>
<feGaussianBlur stdDeviation="1.5"/>
<feComposite in2="hardAlpha" operator="out"/>
<feColorMatrix type="matrix" values="0 0 0 0 0 0 0 0 0 0 0 0 0 0 0 0 0 0 0.12 0"/>
<feBlend mode="normal" in2="BackgroundImageFix" result="effect1_dropShadow_568_1291"/>
<feBlend mode="normal" in="SourceGraphic" in2="effect1_dropShadow_568_1291" result="shape"/>
</filter>
<filter id="filter3_d_568_1291" x="7.16016" y="20.7951" width="43.2812" height="20.1055" filterUnits="userSpaceOnUse" color-interpolation-filters="sRGB">
<feFlood flood-opacity="0" result="BackgroundImageFix"/>
<feColorMatrix in="SourceAlpha" type="matrix" values="0 0 0 0 0 0 0 0 0 0 0 0 0 0 0 0 0 0 127 0" result="hardAlpha"/>
<feOffset dy="-0.2"/>
<feGaussianBlur stdDeviation="1.5"/>
<feComposite in2="hardAlpha" operator="out"/>
<feColorMatrix type="matrix" values="0 0 0 0 0 0 0 0 0 0 0 0 0 0 0 0 0 0 0.12 0"/>
<feBlend mode="normal" in2="BackgroundImageFix" result="effect1_dropShadow_568_1291"/>
<feBlend mode="normal" in="SourceGraphic" in2="effect1_dropShadow_568_1291" result="shape"/>
</filter>
</defs>
</svg>
