<svg width="155" height="48" viewBox="0 0 155 48" fill="none" xmlns="http://www.w3.org/2000/svg">
<path d="M141.395 0.00141098H13.4508C12.933 0.00141098 12.4222 0.00141098 11.9072 0.00423293C11.4741 0.00705488 11.0465 0.0155207 10.6105 0.0225756C9.67083 0.0451512 8.72124 0.103001 7.78294 0.270907C6.839 0.437403 5.96137 0.719598 5.10209 1.15559C4.25692 1.58876 3.48511 2.15033 2.81772 2.81913C2.14327 3.48652 1.58312 4.26115 1.15559 5.10632C0.716776 5.9642 0.438814 6.84606 0.273729 7.79141C0.104412 8.72548 0.0451512 9.66942 0.0211646 10.6148C0.00846586 11.0479 0.00705488 11.4811 0 11.9143C0 12.4251 0 12.9372 0 13.4551V34.5463C0 35.067 0 35.5764 0 36.0899C0.00705488 36.5273 0.00846586 36.9521 0.0211646 37.3909C0.0451512 38.3362 0.104412 39.2816 0.273729 40.2156C0.438814 41.161 0.716776 42.0471 1.15559 42.9021C1.58312 43.7431 2.14327 44.5163 2.81772 45.1795C3.48511 45.8525 4.25692 46.4141 5.10068 46.8416C5.95996 47.2818 6.83759 47.5612 7.78294 47.7319C8.71983 47.8998 9.67083 47.9548 10.6105 47.9817C11.0465 47.9915 11.4755 47.9972 11.9072 47.9972C12.4236 48 12.9344 48 13.4522 48H141.397C141.903 48 142.418 48 142.926 47.9972C143.357 47.9972 143.797 47.9915 144.227 47.9817C145.173 47.9563 146.121 47.8998 147.049 47.7319C147.994 47.5612 148.874 47.2832 149.741 46.8416C150.584 46.4126 151.355 45.8525 152.023 45.1795C152.694 44.5163 153.255 43.7431 153.689 42.9021C154.122 42.0471 154.403 41.161 154.563 40.2156C154.736 39.2816 154.791 38.3362 154.825 37.3909C154.831 36.9521 154.831 36.5288 154.831 36.0899C154.842 35.5778 154.842 35.0684 154.842 34.5463V13.4537C154.842 12.9372 154.842 12.4251 154.831 11.9129C154.831 11.4797 154.831 11.0465 154.825 10.6134C154.793 9.66801 154.738 8.72265 154.563 7.78859C154.403 6.84323 154.122 5.96137 153.689 5.1035C153.253 4.25833 152.694 3.48511 152.023 2.81631C151.355 2.14751 150.585 1.58594 149.741 1.15277C148.874 0.715365 147.994 0.43317 147.049 0.268085C146.121 0.100179 145.173 0.0423293 144.227 0.0183427C143.797 0.0112878 143.357 0.00282195 142.926 0C142.418 0.00141098 141.903 0.00141098 141.395 0.00141098Z" fill="#A6A6A6"/>
<path d="M141.396 0.918945C141.901 0.918945 142.415 0.918945 142.92 0.921767C143.267 0.924589 143.623 0.930233 143.973 0.935877L144.204 0.94011C144.95 0.958453 145.928 1.00219 146.891 1.17574C147.764 1.32813 148.561 1.59057 149.322 1.97294C150.082 2.36378 150.772 2.86609 151.375 3.46999C151.971 4.0626 152.475 4.75398 152.869 5.51873C153.251 6.27924 153.509 7.07221 153.659 7.95831C153.824 8.84722 153.875 9.77564 153.906 10.6265C153.912 11.0554 153.912 11.4857 153.912 11.933C153.923 12.4382 153.923 12.9433 153.923 13.4541V34.5453C153.923 35.0589 153.923 35.5626 153.912 36.0889C153.912 36.5235 153.912 36.944 153.906 37.3574C153.875 38.228 153.824 39.1564 153.656 40.0608C153.508 40.9385 153.25 41.7314 152.873 42.4778C152.472 43.2525 151.969 43.941 151.369 44.5322C150.772 45.1347 150.085 45.6356 149.324 46.0222C148.575 46.4032 147.777 46.6656 146.885 46.8279C145.961 46.9958 145.01 47.0409 144.207 47.0635C143.784 47.0734 143.35 47.079 142.921 47.079C142.416 47.0819 141.903 47.0819 141.398 47.0819H13.4517C12.9367 47.0819 12.4273 47.0819 11.9067 47.079C11.4819 47.079 11.0601 47.0734 10.6354 47.0649C9.82828 47.0423 8.8787 46.9972 7.94604 46.8293C7.05289 46.6684 6.25851 46.4046 5.51634 46.0236C4.75582 45.6384 4.06727 45.1361 3.46055 44.5238C2.86512 43.9382 2.36422 43.2525 1.97197 42.4821C1.59383 41.7441 1.3328 40.9498 1.17618 40.0495C1.00122 39.0887 0.957476 38.1109 0.937722 37.363C0.929257 37.0696 0.925024 36.7831 0.922202 36.4939L0.917969 36.0889V34.5453V13.4541V11.9288L0.923613 11.5069C0.926435 11.2191 0.930668 10.9312 0.939133 10.6392C0.957476 9.89416 1.00263 8.91636 1.179 7.94843C1.33421 7.05951 1.59383 6.26655 1.97479 5.52014C2.36281 4.75398 2.86371 4.06401 3.4676 3.46717C4.06868 2.86468 4.76006 2.36237 5.51775 1.97436C6.27404 1.58916 7.067 1.32813 7.94604 1.17433C8.91115 1.00078 9.89037 0.957042 10.6255 0.938699L10.9049 0.934466C11.2421 0.928822 11.5765 0.923178 11.9123 0.921767C12.4259 0.918945 12.9367 0.918945 13.4517 0.918945H141.396Z" fill="black"/>
<mask id="mask0_568_2336" style="mask-type:luminance" maskUnits="userSpaceOnUse" x="10" y="10" width="37" height="28">
<path d="M46.9374 32.5304V32.9043C46.9374 33.0835 46.9374 33.2627 46.936 33.4419C46.9346 33.5928 46.9332 33.7438 46.929 33.8948C46.9205 34.2235 46.9008 34.5551 46.8429 34.8796C46.7836 35.2098 46.6863 35.5174 46.5339 35.8165C46.3843 36.1114 46.1882 36.3809 45.954 36.6137C45.7198 36.8479 45.4503 37.0427 45.1568 37.1936C44.8577 37.346 44.5501 37.4434 44.2199 37.5026C43.8954 37.5605 43.5638 37.5802 43.235 37.5887C43.0841 37.5929 42.9331 37.5944 42.7821 37.5958C42.6029 37.5972 42.4237 37.5972 42.2445 37.5972L40.1859 37.5958L42.102 37.5972H15.4995L17.4156 37.5958L15.357 37.5972C15.1778 37.5972 14.9986 37.5972 14.8194 37.5958C14.6684 37.5944 14.5174 37.5929 14.3665 37.5887C14.0377 37.5802 13.7061 37.5605 13.3816 37.5026C13.0514 37.4434 12.7453 37.346 12.4447 37.1936C12.1498 37.0441 11.8803 36.8479 11.6475 36.6137C11.4133 36.3795 11.2186 36.11 11.0676 35.8165C10.9152 35.5174 10.8179 35.2098 10.7586 34.8796C10.7007 34.5551 10.681 34.2235 10.6725 33.8948C10.6683 33.7438 10.6669 33.5928 10.6655 33.4419C10.6641 33.2627 10.6641 33.0835 10.6641 32.9043V32.6108V15.3799V17.1437V15.0851C10.6641 14.9059 10.6641 14.7267 10.6655 14.5475C10.6669 14.3965 10.6683 14.2455 10.6725 14.0945C10.681 13.7658 10.7007 13.4342 10.7586 13.1097C10.8179 12.7795 10.9152 12.4719 11.0676 12.1728C11.2172 11.8779 11.4133 11.6084 11.6475 11.3756C11.8817 11.1428 12.1512 10.9467 12.4461 10.7971C12.7453 10.6447 13.0528 10.5474 13.383 10.4881C13.7075 10.4302 14.0391 10.4105 14.3679 10.402C14.5188 10.3978 14.6698 10.3964 14.8208 10.395C15 10.3936 15.1792 10.3936 15.3584 10.3936H17.417H42.1034H42.2445C42.4237 10.3936 42.6029 10.3936 42.7821 10.395C42.9331 10.3964 43.0841 10.3978 43.235 10.402C43.5638 10.4105 43.8954 10.4302 44.2199 10.4881C44.5501 10.5474 44.8562 10.6447 45.1568 10.7971C45.4517 10.9467 45.7212 11.1428 45.954 11.377C46.1882 11.6112 46.3829 11.8807 46.5339 12.1742C46.6863 12.4733 46.7836 12.7809 46.8429 13.1111C46.9008 13.4356 46.9205 13.7672 46.929 14.096C46.9332 14.2469 46.9346 14.3979 46.936 14.5489C46.9374 14.7281 46.9374 14.9073 46.9374 15.0865V15.4604V32.5304Z" fill="white"/>
</mask>
<g mask="url(#mask0_568_2336)">
<path d="M45.7858 11.5264H11.7812V35.204H45.7858V11.5264Z" fill="#DEDBCE"/>
<path d="M45.4254 11.9043H12.1758V26.0098H45.4254V11.9043Z" fill="#40A5D9"/>
<g filter="url(#filter0_d_568_2336)">
<path fill-rule="evenodd" clip-rule="evenodd" d="M45.4215 17.9044C45.4215 17.7901 45.4215 17.6772 45.4215 17.5629C45.4215 17.467 45.4201 17.371 45.4173 17.2751C45.4116 17.0662 45.399 16.856 45.3623 16.65C45.3242 16.4412 45.2635 16.2465 45.1661 16.056C45.0716 15.8697 44.9474 15.6976 44.7979 15.5494C44.6497 15.4013 44.479 15.2771 44.2913 15.1812C44.1009 15.0838 43.9061 15.0231 43.6973 14.985C43.4913 14.9484 43.2811 14.9357 43.0723 14.93C42.9763 14.9272 42.8804 14.9258 42.7844 14.9258C42.6701 14.9258 42.5572 14.9258 42.443 14.9258H42.3498H16.4556H15.1504C15.0362 14.9258 14.9233 14.9258 14.809 14.9258C14.713 14.9258 14.6171 14.9272 14.5212 14.93C14.3123 14.9357 14.1021 14.9484 13.8961 14.985C13.6873 15.0231 13.4925 15.0838 13.3021 15.1812C13.1158 15.2757 12.9437 15.3999 12.7955 15.5494C12.6474 15.6976 12.5232 15.8683 12.4273 16.056C12.3299 16.2465 12.2692 16.4412 12.2311 16.65C12.1945 16.856 12.1818 17.0662 12.1761 17.2751C12.1733 17.371 12.1719 17.467 12.1719 17.5629C12.1719 17.6772 12.1719 17.7901 12.1719 17.9044V19.2095V18.1837V29.0327H45.4215V18.2515V17.9044Z" fill="#FFB003"/>
</g>
<g filter="url(#filter1_d_568_2336)">
<path fill-rule="evenodd" clip-rule="evenodd" d="M45.4215 20.9258C45.4215 20.8115 45.4215 20.6987 45.4215 20.5844C45.4215 20.4884 45.4201 20.3925 45.4173 20.2965C45.4116 20.0877 45.399 19.8775 45.3623 19.6715C45.3242 19.4627 45.2635 19.2679 45.1661 19.0775C45.0716 18.8912 44.9474 18.7191 44.7979 18.5709C44.6497 18.4228 44.479 18.2986 44.2913 18.2027C44.1009 18.1053 43.9061 18.0446 43.6973 18.0065C43.4913 17.9698 43.2811 17.9571 43.0723 17.9515C42.9763 17.9487 42.8804 17.9473 42.7844 17.9473C42.6701 17.9473 42.5572 17.9473 42.443 17.9473H42.3484H16.4556H15.1504C15.0362 17.9473 14.9233 17.9473 14.809 17.9473C14.713 17.9473 14.6171 17.9487 14.5212 17.9515C14.3123 17.9571 14.1021 17.9698 13.8961 18.0065C13.6873 18.0446 13.4925 18.1053 13.3021 18.2027C13.1158 18.2972 12.9437 18.4214 12.7955 18.5709C12.6474 18.7191 12.5232 18.8898 12.4273 19.0775C12.3299 19.2679 12.2692 19.4627 12.2311 19.6715C12.1945 19.8775 12.1818 20.0877 12.1761 20.2965C12.1733 20.3925 12.1719 20.4884 12.1719 20.5844C12.1719 20.6987 12.1719 20.8115 12.1719 20.9258V22.231V21.2052V32.0542H45.4215V21.2729V20.9258Z" fill="#40C740"/>
</g>
<g filter="url(#filter2_d_568_2336)">
<path fill-rule="evenodd" clip-rule="evenodd" d="M45.4215 23.9483C45.4215 23.834 45.4215 23.7211 45.4215 23.6068C45.4215 23.5109 45.4201 23.4149 45.4173 23.319C45.4116 23.1102 45.399 22.8999 45.3623 22.6939C45.3242 22.4851 45.2635 22.2904 45.1661 22.0999C45.0716 21.9137 44.9474 21.7415 44.7979 21.5934C44.6497 21.4452 44.479 21.3211 44.2913 21.2251C44.1009 21.1278 43.9061 21.0671 43.6973 21.029C43.4913 20.9923 43.2811 20.9796 43.0723 20.974C42.9763 20.9711 42.8804 20.9697 42.7844 20.9697C42.6701 20.9697 42.5572 20.9697 42.443 20.9697H42.3484H16.4556H15.1504C15.0362 20.9697 14.9233 20.9697 14.809 20.9697C14.713 20.9697 14.6171 20.9711 14.5212 20.974C14.3123 20.9796 14.1021 20.9923 13.8961 21.029C13.6873 21.0671 13.4925 21.1278 13.3021 21.2251C13.1158 21.3196 12.9437 21.4438 12.7955 21.5934C12.6474 21.7415 12.5232 21.9123 12.4273 22.0999C12.3299 22.2904 12.2692 22.4851 12.2311 22.6939C12.1945 22.8999 12.1818 23.1102 12.1761 23.319C12.1733 23.4149 12.1719 23.5109 12.1719 23.6068C12.1719 23.7211 12.1719 23.834 12.1719 23.9483V25.2534V24.2277V35.0767H45.4215V24.2954V23.9483Z" fill="#F26D5F"/>
</g>
<path fill-rule="evenodd" clip-rule="evenodd" d="M10.1602 9.88965V25.5063H12.175V16.1868V14.8817C12.175 14.7674 12.175 14.6545 12.175 14.5402C12.175 14.4443 12.1764 14.3483 12.1793 14.2524C12.1849 14.0436 12.1976 13.8333 12.2343 13.6273C12.2724 13.4185 12.3331 13.2238 12.4304 13.0333C12.525 12.8471 12.6491 12.6749 12.7987 12.5268C12.9468 12.3786 13.1176 12.2544 13.3052 12.1585C13.4943 12.064 13.689 12.0019 13.8978 11.9652C14.1038 11.9285 14.3141 11.9158 14.5229 11.9102C14.6188 11.9073 14.7148 11.9059 14.8107 11.9059C14.925 11.9059 15.0379 11.9059 15.1522 11.9059H16.4573H42.3473H42.4475C42.5618 11.9059 42.6747 11.9059 42.789 11.9059C42.8849 11.9059 42.9809 11.9073 43.0768 11.9102C43.2856 11.9158 43.4959 11.9285 43.7019 11.9652C43.9107 12.0033 44.1054 12.064 44.2959 12.1613C44.4821 12.2559 44.6543 12.38 44.8024 12.5296C44.9506 12.6777 45.0748 12.8485 45.1707 13.0361C45.2681 13.2266 45.3287 13.4213 45.3668 13.6301C45.4035 13.8361 45.4162 14.0464 45.4219 14.2552C45.4247 14.3512 45.4261 14.4471 45.4261 14.543C45.4261 14.6573 45.4261 14.7702 45.4261 14.8845V16.1897V25.5092H47.441V9.88965H10.1602Z" fill="#D9D6CC"/>
<g filter="url(#filter3_d_568_2336)">
<path fill-rule="evenodd" clip-rule="evenodd" d="M38.0735 23.9951C37.8576 23.9951 37.6403 23.9951 37.4244 23.9965C37.2424 23.9979 37.0604 23.9994 36.8784 24.005C36.4819 24.0163 36.0812 24.0389 35.6889 24.1094C35.2911 24.1814 34.92 24.2985 34.5588 24.4819C34.5122 24.5059 33.5175 24.9574 32.6229 26.3486C31.9442 27.4054 30.6235 28.5258 28.7738 28.5258C26.9254 28.5258 25.6047 27.4054 24.9246 26.3486C23.9835 24.8826 22.9097 24.4424 22.9873 24.4819C22.6261 24.2971 22.255 24.18 21.8571 24.1094C21.4649 24.0389 21.0642 24.0149 20.6677 24.005C20.4857 24.0008 20.3037 23.9979 20.1216 23.9965C19.9058 23.9951 19.6885 23.9951 19.4726 23.9951H10.1602V38.1006H47.4396V23.9951H38.0735Z" fill="#DEDBCE"/>
</g>
</g>
<path d="M58.1757 24.918H60.0834L64.2133 36.289H62.3621L61.3222 33.2159H56.9411L55.8942 36.289H54.043L58.1757 24.918ZM57.411 31.7965H60.8396L59.1451 26.8016H59.1154L57.411 31.7965Z" fill="white"/>
<path d="M65.3047 27.9994H67.0063V29.4259H67.0458C67.5425 28.441 68.4554 27.8428 69.6378 27.8428C71.75 27.8428 73.1046 29.4964 73.1046 32.1448V32.1533C73.1046 34.7918 71.7416 36.4554 69.6618 36.4554C68.4878 36.4554 67.534 35.8557 67.0458 34.8962H67.0063V39.0487H65.3047V27.9994ZM71.3705 32.1519V32.1434C71.3705 30.3783 70.5267 29.2975 69.1962 29.2975C67.9037 29.2975 66.9964 30.4178 66.9964 32.1434V32.1519C66.9964 33.8691 67.9108 34.988 69.1962 34.988C70.5366 34.988 71.3705 33.9001 71.3705 32.1519Z" fill="white"/>
<path d="M74.7852 27.9994H76.4868V29.4259H76.5263C77.023 28.441 77.9359 27.8428 79.1183 27.8428C81.2305 27.8428 82.585 29.4964 82.585 32.1448V32.1533C82.585 34.7918 81.222 36.4554 79.1423 36.4554C77.9683 36.4554 77.0145 35.8557 76.5263 34.8962H76.4868V39.0487H74.7852V27.9994ZM80.8524 32.1519V32.1434C80.8524 30.3783 80.0086 29.2975 78.678 29.2975C77.3856 29.2975 76.4783 30.4178 76.4783 32.1434V32.1519C76.4783 33.8691 77.3926 34.988 78.678 34.988C80.0171 34.988 80.8524 33.9001 80.8524 32.1519Z" fill="white"/>
<path d="M84.0859 24.918H85.7876V36.289H84.0859V24.918Z" fill="white"/>
<path d="M87.4453 32.1759V32.1674C87.4453 29.5755 88.9438 27.8428 91.2676 27.8428C93.5915 27.8428 95.018 29.5134 95.018 32.0023V32.5766H89.1469C89.178 34.1442 90.0387 35.0599 91.3932 35.0599C92.4021 35.0599 93.0709 34.5393 93.2853 33.917L93.3093 33.8535H94.9249L94.9094 33.941C94.6413 35.2575 93.3644 36.454 91.3551 36.454C88.9198 36.454 87.4453 34.7904 87.4453 32.1759ZM89.1723 31.3716H93.3319C93.1894 29.9367 92.3866 29.2354 91.2747 29.2354C90.1727 29.2368 89.3205 29.9846 89.1723 31.3716Z" fill="white"/>
<path d="M100.43 24.918H102.265L104.385 33.8297H104.416L106.82 24.918H108.491L110.893 33.8297H110.933L113.052 24.918H114.889L111.815 36.289H110.122L107.679 27.7159H107.64L105.19 36.289H103.496L100.43 24.918Z" fill="white"/>
<path d="M115.375 33.9325V33.917C115.375 32.475 116.494 31.5931 118.457 31.4746L120.71 31.3406V30.7183C120.71 29.804 120.119 29.2523 119.063 29.2523C118.078 29.2523 117.472 29.718 117.329 30.3797L117.314 30.4503H115.705L115.714 30.3642C115.831 28.9363 117.068 27.8428 119.108 27.8428C121.135 27.8428 122.419 28.9137 122.419 30.5772V36.2903H120.708V34.9823H120.677C120.198 35.8726 119.237 36.4399 118.141 36.4399C116.485 36.4384 115.375 35.4225 115.375 33.9325ZM118.605 35.074C119.804 35.074 120.708 34.2627 120.708 33.1833V32.5385L118.684 32.6641C117.658 32.7276 117.091 33.1763 117.091 33.8775V33.8944C117.092 34.6183 117.69 35.074 118.605 35.074Z" fill="white"/>
<path d="M124.285 24.918H125.987V36.289H124.285V24.918Z" fill="white"/>
<path d="M128.383 24.918H130.084V36.289H128.383V24.918Z" fill="white"/>
<path d="M131.582 32.1759V32.1674C131.582 29.5755 133.08 27.8428 135.404 27.8428C137.728 27.8428 139.155 29.5134 139.155 32.0023V32.5766H133.284C133.315 34.1442 134.175 35.0599 135.53 35.0599C136.539 35.0599 137.208 34.5393 137.422 33.917L137.446 33.8535H139.062L139.046 33.941C138.778 35.2575 137.501 36.454 135.492 36.454C133.057 36.454 131.582 34.7904 131.582 32.1759ZM133.309 31.3716H137.469C137.326 29.9367 136.523 29.2354 135.411 29.2354C134.309 29.2368 133.457 29.9846 133.309 31.3716Z" fill="white"/>
<path d="M141.316 34.1063V29.3556H140.125V27.9996H141.316V25.8408H143.057V27.9996H144.609V29.3556H143.057V34.0047C143.057 34.8471 143.435 35.0982 144.151 35.0982C144.333 35.0982 144.482 35.0827 144.608 35.0686V36.385C144.41 36.4161 144.088 36.4556 143.741 36.4556C142.103 36.4542 141.316 35.7614 141.316 34.1063Z" fill="white"/>
<path d="M54.8398 11.5166H58.0597C59.6654 11.5166 60.8012 12.6228 60.8012 14.2454V14.2581C60.8012 15.8793 59.664 17.0109 58.0597 17.0109H55.9051V20.0601H54.8398V11.5166ZM55.9037 12.4634V16.0642H57.786C59.0065 16.0642 59.7105 15.394 59.7105 14.2708V14.2581C59.7105 13.1336 59.0065 12.4648 57.786 12.4648H55.9037V12.4634Z" fill="white"/>
<path d="M62.3945 13.6773H63.4245V14.6241H63.5177C63.7618 13.9553 64.36 13.5645 65.2235 13.5645C65.4197 13.5645 65.6384 13.5898 65.7385 13.6054V14.6072C65.5255 14.5719 65.3294 14.5479 65.105 14.5479C64.123 14.5479 63.4245 15.1687 63.4245 16.1056V20.0606H62.3945V13.6773Z" fill="white"/>
<path d="M66.832 11.7355C66.832 11.3447 67.1523 11.0244 67.5417 11.0244C67.9326 11.0244 68.2529 11.3447 68.2529 11.7355C68.2529 12.125 67.9326 12.4453 67.5417 12.4453C67.1509 12.4453 66.832 12.1264 66.832 11.7355ZM67.0197 13.6771H68.0497V20.0589H67.0197V13.6771Z" fill="white"/>
<path d="M69.6602 16.8745V16.8632C69.6602 14.861 70.7142 13.5644 72.3354 13.5644C73.2116 13.5644 73.9749 14.0032 74.3248 14.6833H74.4194V11.1445H75.448V20.0605H74.4194V19.0418H74.3248C73.934 19.7529 73.2243 20.1734 72.3354 20.1734C70.7198 20.1734 69.6602 18.864 69.6602 16.8745ZM74.4448 16.8745V16.8632C74.4448 15.3887 73.7336 14.4773 72.5738 14.4773C71.4084 14.4773 70.7156 15.3775 70.7156 16.8632V16.8745C70.7156 18.3617 71.4084 19.2605 72.5738 19.2605C73.7336 19.2605 74.4448 18.349 74.4448 16.8745Z" fill="white"/>
<path d="M77.0898 16.8927V16.887C77.0898 14.9159 78.2144 13.5656 79.9485 13.5656C81.6826 13.5656 82.738 14.8566 82.738 16.7643V17.1664H78.1438C78.1735 18.4871 78.9015 19.256 80.0388 19.256C80.9023 19.256 81.4357 18.8469 81.6078 18.4631L81.6318 18.4095H82.6604L82.6491 18.4574C82.4304 19.321 81.5175 20.1746 80.0148 20.1746C78.1904 20.1732 77.0898 18.8948 77.0898 16.8927ZM78.1622 16.3424H81.691C81.5838 15.0796 80.8854 14.4827 79.9442 14.4827C78.9975 14.4827 78.2737 15.1289 78.1622 16.3424ZM79.2571 11.7355C79.2571 11.3447 79.5774 11.0244 79.9668 11.0244C80.3577 11.0244 80.678 11.3447 80.678 11.7355C80.678 12.125 80.3577 12.4453 79.9668 12.4453C79.5774 12.4453 79.2571 12.1264 79.2571 11.7355Z" fill="white"/>
<path d="M84.7248 18.4026V14.5308H83.7188V13.6772H84.7248V12.0264H85.7915V13.6786H87.1883V14.5308H85.7915V18.1429C85.7915 18.895 86.0525 19.1969 86.7143 19.1969C86.8977 19.1969 86.9979 19.1899 87.1883 19.1716V20.0478C86.9866 20.083 86.7919 20.107 86.5901 20.107C85.2765 20.107 84.7248 19.6217 84.7248 18.4026Z" fill="white"/>
<path d="M88.5469 11.7355C88.5469 11.3447 88.8672 11.0244 89.2566 11.0244C89.6474 11.0244 89.9677 11.3447 89.9677 11.7355C89.9677 12.125 89.6474 12.4453 89.2566 12.4453C88.8672 12.4453 88.5469 12.1264 88.5469 11.7355ZM88.7359 13.6771H89.766V20.0589H88.7359V13.6771Z" fill="white"/>
<path d="M95.0898 13.6773H96.1199V14.6961H96.2144C96.6038 13.9849 97.315 13.5645 98.2025 13.5645C99.8194 13.5645 100.878 14.8738 100.878 16.8633V16.8746C100.878 18.8768 99.8251 20.1735 98.2025 20.1735C97.3262 20.1735 96.5629 19.7347 96.2144 19.0546H96.1199V22.1926H95.0898V13.6773ZM99.8265 16.8746V16.8633C99.8265 15.3761 99.1337 14.4774 97.9668 14.4774C96.807 14.4774 96.0973 15.3888 96.0973 16.8633V16.8746C96.0973 18.3491 96.807 19.2606 97.9668 19.2606C99.1337 19.2606 99.8265 18.3618 99.8265 16.8746Z" fill="white"/>
<path d="M102.473 13.6773H103.503V14.6241H103.596C103.84 13.9553 104.438 13.5645 105.302 13.5645C105.498 13.5645 105.716 13.5898 105.817 13.6054V14.6072C105.604 14.5719 105.407 14.5479 105.183 14.5479C104.201 14.5479 103.503 15.1687 103.503 16.1056V20.0606H102.473V13.6773Z" fill="white"/>
<path d="M106.914 11.7355C106.914 11.3447 107.234 11.0244 107.624 11.0244C108.015 11.0244 108.335 11.3447 108.335 11.7355C108.335 12.125 108.015 12.4453 107.624 12.4453C107.233 12.4453 106.914 12.1264 106.914 11.7355ZM107.103 13.6771H108.133V20.0589H107.103V13.6771Z" fill="white"/>
<path d="M109.742 16.8925V16.8869C109.742 14.9157 110.867 13.5654 112.601 13.5654C114.335 13.5654 115.39 14.8565 115.39 16.7641V17.1662H110.796C110.826 18.4869 111.554 19.2559 112.691 19.2559C113.555 19.2559 114.088 18.8467 114.26 18.4629L114.284 18.4093H115.313L115.301 18.4573C115.083 19.3208 114.17 20.1744 112.667 20.1744C110.843 20.173 109.742 18.8947 109.742 16.8925ZM110.813 16.3422H114.342C114.235 15.0794 113.536 14.4826 112.595 14.4826C111.648 14.4826 110.926 15.1288 110.813 16.3422Z" fill="white"/>
<defs>
<filter id="filter0_d_568_2336" x="9.17188" y="11.7258" width="39.25" height="20.1074" filterUnits="userSpaceOnUse" color-interpolation-filters="sRGB">
<feFlood flood-opacity="0" result="BackgroundImageFix"/>
<feColorMatrix in="SourceAlpha" type="matrix" values="0 0 0 0 0 0 0 0 0 0 0 0 0 0 0 0 0 0 127 0" result="hardAlpha"/>
<feOffset dy="-0.2"/>
<feGaussianBlur stdDeviation="1.5"/>
<feComposite in2="hardAlpha" operator="out"/>
<feColorMatrix type="matrix" values="0 0 0 0 0 0 0 0 0 0 0 0 0 0 0 0 0 0 0.12 0"/>
<feBlend mode="normal" in2="BackgroundImageFix" result="effect1_dropShadow_568_2336"/>
<feBlend mode="normal" in="SourceGraphic" in2="effect1_dropShadow_568_2336" result="shape"/>
</filter>
<filter id="filter1_d_568_2336" x="9.17188" y="14.7473" width="39.25" height="20.1074" filterUnits="userSpaceOnUse" color-interpolation-filters="sRGB">
<feFlood flood-opacity="0" result="BackgroundImageFix"/>
<feColorMatrix in="SourceAlpha" type="matrix" values="0 0 0 0 0 0 0 0 0 0 0 0 0 0 0 0 0 0 127 0" result="hardAlpha"/>
<feOffset dy="-0.2"/>
<feGaussianBlur stdDeviation="1.5"/>
<feComposite in2="hardAlpha" operator="out"/>
<feColorMatrix type="matrix" values="0 0 0 0 0 0 0 0 0 0 0 0 0 0 0 0 0 0 0.12 0"/>
<feBlend mode="normal" in2="BackgroundImageFix" result="effect1_dropShadow_568_2336"/>
<feBlend mode="normal" in="SourceGraphic" in2="effect1_dropShadow_568_2336" result="shape"/>
</filter>
<filter id="filter2_d_568_2336" x="9.17188" y="17.7697" width="39.25" height="20.1074" filterUnits="userSpaceOnUse" color-interpolation-filters="sRGB">
<feFlood flood-opacity="0" result="BackgroundImageFix"/>
<feColorMatrix in="SourceAlpha" type="matrix" values="0 0 0 0 0 0 0 0 0 0 0 0 0 0 0 0 0 0 127 0" result="hardAlpha"/>
<feOffset dy="-0.2"/>
<feGaussianBlur stdDeviation="1.5"/>
<feComposite in2="hardAlpha" operator="out"/>
<feColorMatrix type="matrix" values="0 0 0 0 0 0 0 0 0 0 0 0 0 0 0 0 0 0 0.12 0"/>
<feBlend mode="normal" in2="BackgroundImageFix" result="effect1_dropShadow_568_2336"/>
<feBlend mode="normal" in="SourceGraphic" in2="effect1_dropShadow_568_2336" result="shape"/>
</filter>
<filter id="filter3_d_568_2336" x="7.16016" y="20.7951" width="43.2812" height="20.1055" filterUnits="userSpaceOnUse" color-interpolation-filters="sRGB">
<feFlood flood-opacity="0" result="BackgroundImageFix"/>
<feColorMatrix in="SourceAlpha" type="matrix" values="0 0 0 0 0 0 0 0 0 0 0 0 0 0 0 0 0 0 127 0" result="hardAlpha"/>
<feOffset dy="-0.2"/>
<feGaussianBlur stdDeviation="1.5"/>
<feComposite in2="hardAlpha" operator="out"/>
<feColorMatrix type="matrix" values="0 0 0 0 0 0 0 0 0 0 0 0 0 0 0 0 0 0 0.12 0"/>
<feBlend mode="normal" in2="BackgroundImageFix" result="effect1_dropShadow_568_2336"/>
<feBlend mode="normal" in="SourceGraphic" in2="effect1_dropShadow_568_2336" result="shape"/>
</filter>
</defs>
</svg>
