<svg width="191" height="48" viewBox="0 0 191 48" fill="none" xmlns="http://www.w3.org/2000/svg">
<path d="M177.434 0.00141098H13.4508C12.933 0.00141098 12.4222 0.00141098 11.9072 0.00423293C11.4741 0.00705488 11.0465 0.0155207 10.6105 0.0225756C9.67083 0.0451512 8.72124 0.103001 7.78294 0.270907C6.839 0.437403 5.96137 0.719598 5.10209 1.15559C4.25692 1.58876 3.48511 2.15033 2.81772 2.81913C2.14327 3.48652 1.58312 4.26115 1.15559 5.10632C0.716776 5.9642 0.438814 6.84606 0.273729 7.79141C0.104412 8.72548 0.0451512 9.66942 0.0211646 10.6148C0.00846586 11.0479 0.00705488 11.4811 0 11.9143C0 12.4251 0 12.9372 0 13.4551V34.5463C0 35.067 0 35.5764 0 36.0899C0.00705488 36.5273 0.00846586 36.9521 0.0211646 37.3909C0.0451512 38.3362 0.104412 39.2816 0.273729 40.2156C0.438814 41.161 0.716776 42.0471 1.15559 42.9021C1.58312 43.7431 2.14327 44.5163 2.81772 45.1795C3.48511 45.8525 4.25692 46.4141 5.10068 46.8416C5.95996 47.2818 6.83759 47.5612 7.78294 47.7319C8.71983 47.8998 9.67083 47.9548 10.6105 47.9817C11.0465 47.9915 11.4755 47.9972 11.9072 47.9972C12.4236 48 12.9344 48 13.4522 48H177.436C177.942 48 178.457 48 178.965 47.9972C179.396 47.9972 179.836 47.9915 180.266 47.9817C181.212 47.9563 182.16 47.8998 183.088 47.7319C184.034 47.5612 184.913 47.2832 185.78 46.8416C186.623 46.4126 187.395 45.8525 188.062 45.1795C188.734 44.5163 189.294 43.7431 189.728 42.9021C190.161 42.0471 190.442 41.161 190.602 40.2156C190.775 39.2816 190.83 38.3362 190.864 37.3909C190.87 36.9521 190.87 36.5288 190.87 36.0899C190.881 35.5778 190.881 35.0684 190.881 34.5463V13.4537C190.881 12.9372 190.881 12.4251 190.87 11.9129C190.87 11.4797 190.87 11.0465 190.864 10.6134C190.832 9.66801 190.777 8.72265 190.602 7.78859C190.442 6.84323 190.161 5.96137 189.728 5.1035C189.292 4.25833 188.734 3.48511 188.062 2.81631C187.395 2.14751 186.624 1.58594 185.78 1.15277C184.913 0.715365 184.034 0.43317 183.088 0.268085C182.16 0.100179 181.212 0.0423293 180.266 0.0183427C179.836 0.0112878 179.396 0.00282195 178.965 0C178.457 0.00141098 177.942 0.00141098 177.434 0.00141098Z" fill="#A6A6A6"/>
<path d="M177.435 0.918945C177.94 0.918945 178.454 0.918945 178.959 0.921767C179.306 0.924589 179.662 0.930233 180.012 0.935877L180.243 0.94011C180.99 0.958453 181.967 1.00219 182.93 1.17574C183.803 1.32813 184.6 1.59057 185.361 1.97294C186.121 2.36378 186.811 2.86609 187.414 3.46999C188.011 4.0626 188.514 4.75398 188.908 5.51873C189.29 6.27924 189.549 7.07221 189.698 7.95831C189.863 8.84722 189.914 9.77564 189.945 10.6265C189.951 11.0554 189.951 11.4857 189.951 11.933C189.962 12.4382 189.962 12.9433 189.962 13.4541V34.5453C189.962 35.0589 189.962 35.5626 189.951 36.0889C189.951 36.5235 189.951 36.944 189.946 37.3574C189.915 38.228 189.865 39.1564 189.697 40.0608C189.549 40.9385 189.29 41.7314 188.914 42.4778C188.513 43.2525 188.009 43.941 187.41 44.5322C186.813 45.1347 186.126 45.6356 185.365 46.0222C184.616 46.4032 183.817 46.6656 182.925 46.8279C182.001 46.9958 181.05 47.0409 180.247 47.0635C179.824 47.0734 179.391 47.079 178.962 47.079C178.457 47.0819 177.943 47.0819 177.438 47.0819H13.4517C12.9367 47.0819 12.4273 47.0819 11.9067 47.079C11.4819 47.079 11.0601 47.0734 10.6354 47.0649C9.82828 47.0423 8.8787 46.9972 7.94604 46.8293C7.05289 46.6684 6.25851 46.4046 5.51634 46.0236C4.75582 45.6384 4.06727 45.1361 3.46055 44.5238C2.86512 43.9382 2.36422 43.2525 1.97197 42.4821C1.59383 41.7441 1.3328 40.9498 1.17618 40.0495C1.00122 39.0887 0.957476 38.1109 0.937722 37.363C0.929257 37.0696 0.925024 36.7831 0.922202 36.4939L0.917969 36.0889V34.5453V13.4541V11.9288L0.923613 11.5069C0.926435 11.2191 0.930668 10.9312 0.939133 10.6392C0.957476 9.89416 1.00263 8.91636 1.179 7.94843C1.33421 7.05951 1.59383 6.26655 1.97479 5.52014C2.36281 4.75398 2.8637 4.06401 3.4676 3.46717C4.06868 2.86468 4.76006 2.36237 5.51775 1.97436C6.27403 1.58916 7.067 1.32813 7.94604 1.17433C8.91115 1.00078 9.89037 0.957042 10.6255 0.938699L10.9049 0.934466C11.2421 0.928822 11.5765 0.923178 11.9123 0.921767C12.4259 0.918945 12.9367 0.918945 13.4517 0.918945H177.435Z" fill="black"/>
<mask id="mask0_568_2587" style="mask-type:luminance" maskUnits="userSpaceOnUse" x="10" y="10" width="37" height="28">
<path d="M46.9374 32.5304V32.9043C46.9374 33.0835 46.9374 33.2627 46.936 33.4419C46.9346 33.5928 46.9332 33.7438 46.929 33.8948C46.9205 34.2235 46.9008 34.5551 46.8429 34.8796C46.7836 35.2098 46.6863 35.5174 46.5339 35.8165C46.3843 36.1114 46.1882 36.3809 45.954 36.6137C45.7198 36.8479 45.4503 37.0427 45.1568 37.1936C44.8577 37.346 44.5501 37.4434 44.2199 37.5026C43.8954 37.5605 43.5638 37.5802 43.235 37.5887C43.0841 37.5929 42.9331 37.5944 42.7821 37.5958C42.6029 37.5972 42.4237 37.5972 42.2445 37.5972L40.1859 37.5958L42.102 37.5972H15.4995L17.4156 37.5958L15.357 37.5972C15.1778 37.5972 14.9986 37.5972 14.8194 37.5958C14.6684 37.5944 14.5174 37.5929 14.3665 37.5887C14.0377 37.5802 13.7061 37.5605 13.3816 37.5026C13.0514 37.4434 12.7453 37.346 12.4447 37.1936C12.1498 37.0441 11.8803 36.8479 11.6475 36.6137C11.4133 36.3795 11.2186 36.11 11.0676 35.8165C10.9152 35.5174 10.8179 35.2098 10.7586 34.8796C10.7007 34.5551 10.681 34.2235 10.6725 33.8948C10.6683 33.7438 10.6669 33.5928 10.6655 33.4419C10.6641 33.2627 10.6641 33.0835 10.6641 32.9043V32.6108V15.3799V17.1437V15.0851C10.6641 14.9059 10.6641 14.7267 10.6655 14.5475C10.6669 14.3965 10.6683 14.2455 10.6725 14.0945C10.681 13.7658 10.7007 13.4342 10.7586 13.1097C10.8179 12.7795 10.9152 12.4719 11.0676 12.1728C11.2172 11.8779 11.4133 11.6084 11.6475 11.3756C11.8817 11.1428 12.1512 10.9467 12.4461 10.7971C12.7453 10.6447 13.0528 10.5474 13.383 10.4881C13.7075 10.4302 14.0391 10.4105 14.3679 10.402C14.5188 10.3978 14.6698 10.3964 14.8208 10.395C15 10.3936 15.1792 10.3936 15.3584 10.3936H17.417H42.1034H42.2445C42.4237 10.3936 42.6029 10.3936 42.7821 10.395C42.9331 10.3964 43.0841 10.3978 43.235 10.402C43.5638 10.4105 43.8954 10.4302 44.2199 10.4881C44.5501 10.5474 44.8562 10.6447 45.1568 10.7971C45.4517 10.9467 45.7212 11.1428 45.954 11.377C46.1882 11.6112 46.3829 11.8807 46.5339 12.1742C46.6863 12.4733 46.7836 12.7809 46.8429 13.1111C46.9008 13.4356 46.9205 13.7672 46.929 14.096C46.9332 14.2469 46.9346 14.3979 46.936 14.5489C46.9374 14.7281 46.9374 14.9073 46.9374 15.0865V15.4604V32.5304Z" fill="white"/>
</mask>
<g mask="url(#mask0_568_2587)">
<path d="M45.7858 11.5264H11.7812V35.204H45.7858V11.5264Z" fill="#DEDBCE"/>
<path d="M45.4254 11.9043H12.1758V26.0098H45.4254V11.9043Z" fill="#40A5D9"/>
<g filter="url(#filter0_d_568_2587)">
<path fill-rule="evenodd" clip-rule="evenodd" d="M45.4215 17.9044C45.4215 17.7901 45.4215 17.6772 45.4215 17.5629C45.4215 17.467 45.4201 17.371 45.4173 17.2751C45.4116 17.0662 45.399 16.856 45.3623 16.65C45.3242 16.4412 45.2635 16.2465 45.1661 16.056C45.0716 15.8697 44.9474 15.6976 44.7979 15.5494C44.6497 15.4013 44.479 15.2771 44.2913 15.1812C44.1009 15.0838 43.9061 15.0231 43.6973 14.985C43.4913 14.9484 43.2811 14.9357 43.0723 14.93C42.9763 14.9272 42.8804 14.9258 42.7844 14.9258C42.6701 14.9258 42.5572 14.9258 42.443 14.9258H42.3498H16.4556H15.1504C15.0362 14.9258 14.9233 14.9258 14.809 14.9258C14.713 14.9258 14.6171 14.9272 14.5212 14.93C14.3123 14.9357 14.1021 14.9484 13.8961 14.985C13.6873 15.0231 13.4925 15.0838 13.3021 15.1812C13.1158 15.2757 12.9437 15.3999 12.7955 15.5494C12.6474 15.6976 12.5232 15.8683 12.4273 16.056C12.3299 16.2465 12.2692 16.4412 12.2311 16.65C12.1945 16.856 12.1818 17.0662 12.1761 17.2751C12.1733 17.371 12.1719 17.467 12.1719 17.5629C12.1719 17.6772 12.1719 17.7901 12.1719 17.9044V19.2095V18.1837V29.0327H45.4215V18.2515V17.9044Z" fill="#FFB003"/>
</g>
<g filter="url(#filter1_d_568_2587)">
<path fill-rule="evenodd" clip-rule="evenodd" d="M45.4215 20.9258C45.4215 20.8115 45.4215 20.6987 45.4215 20.5844C45.4215 20.4884 45.4201 20.3925 45.4173 20.2965C45.4116 20.0877 45.399 19.8775 45.3623 19.6715C45.3242 19.4627 45.2635 19.2679 45.1661 19.0775C45.0716 18.8912 44.9474 18.7191 44.7979 18.5709C44.6497 18.4228 44.479 18.2986 44.2913 18.2027C44.1009 18.1053 43.9061 18.0446 43.6973 18.0065C43.4913 17.9698 43.2811 17.9571 43.0723 17.9515C42.9763 17.9487 42.8804 17.9473 42.7844 17.9473C42.6701 17.9473 42.5572 17.9473 42.443 17.9473H42.3484H16.4556H15.1504C15.0362 17.9473 14.9233 17.9473 14.809 17.9473C14.713 17.9473 14.6171 17.9487 14.5212 17.9515C14.3123 17.9571 14.1021 17.9698 13.8961 18.0065C13.6873 18.0446 13.4925 18.1053 13.3021 18.2027C13.1158 18.2972 12.9437 18.4214 12.7955 18.5709C12.6474 18.7191 12.5232 18.8898 12.4273 19.0775C12.3299 19.2679 12.2692 19.4627 12.2311 19.6715C12.1945 19.8775 12.1818 20.0877 12.1761 20.2965C12.1733 20.3925 12.1719 20.4884 12.1719 20.5844C12.1719 20.6987 12.1719 20.8115 12.1719 20.9258V22.231V21.2052V32.0542H45.4215V21.2729V20.9258Z" fill="#40C740"/>
</g>
<g filter="url(#filter2_d_568_2587)">
<path fill-rule="evenodd" clip-rule="evenodd" d="M45.4215 23.9483C45.4215 23.834 45.4215 23.7211 45.4215 23.6068C45.4215 23.5109 45.4201 23.4149 45.4173 23.319C45.4116 23.1102 45.399 22.8999 45.3623 22.6939C45.3242 22.4851 45.2635 22.2904 45.1661 22.0999C45.0716 21.9137 44.9474 21.7415 44.7979 21.5934C44.6497 21.4452 44.479 21.3211 44.2913 21.2251C44.1009 21.1278 43.9061 21.0671 43.6973 21.029C43.4913 20.9923 43.2811 20.9796 43.0723 20.974C42.9763 20.9711 42.8804 20.9697 42.7844 20.9697C42.6701 20.9697 42.5572 20.9697 42.443 20.9697H42.3484H16.4556H15.1504C15.0362 20.9697 14.9233 20.9697 14.809 20.9697C14.713 20.9697 14.6171 20.9711 14.5212 20.974C14.3123 20.9796 14.1021 20.9923 13.8961 21.029C13.6873 21.0671 13.4925 21.1278 13.3021 21.2251C13.1158 21.3196 12.9437 21.4438 12.7955 21.5934C12.6474 21.7415 12.5232 21.9123 12.4273 22.0999C12.3299 22.2904 12.2692 22.4851 12.2311 22.6939C12.1945 22.8999 12.1818 23.1102 12.1761 23.319C12.1733 23.4149 12.1719 23.5109 12.1719 23.6068C12.1719 23.7211 12.1719 23.834 12.1719 23.9483V25.2534V24.2277V35.0767H45.4215V24.2954V23.9483Z" fill="#F26D5F"/>
</g>
<path fill-rule="evenodd" clip-rule="evenodd" d="M10.1602 9.88965V25.5063H12.175V16.1868V14.8817C12.175 14.7674 12.175 14.6545 12.175 14.5402C12.175 14.4443 12.1764 14.3483 12.1793 14.2524C12.1849 14.0436 12.1976 13.8333 12.2343 13.6273C12.2724 13.4185 12.3331 13.2238 12.4304 13.0333C12.525 12.8471 12.6491 12.6749 12.7987 12.5268C12.9468 12.3786 13.1176 12.2544 13.3052 12.1585C13.4943 12.064 13.689 12.0019 13.8978 11.9652C14.1038 11.9285 14.3141 11.9158 14.5229 11.9102C14.6188 11.9073 14.7148 11.9059 14.8107 11.9059C14.925 11.9059 15.0379 11.9059 15.1522 11.9059H16.4573H42.3473H42.4475C42.5618 11.9059 42.6747 11.9059 42.789 11.9059C42.8849 11.9059 42.9809 11.9073 43.0768 11.9102C43.2856 11.9158 43.4959 11.9285 43.7019 11.9652C43.9107 12.0033 44.1054 12.064 44.2959 12.1613C44.4821 12.2559 44.6543 12.38 44.8024 12.5296C44.9506 12.6777 45.0748 12.8485 45.1707 13.0361C45.2681 13.2266 45.3287 13.4213 45.3668 13.6301C45.4035 13.8361 45.4162 14.0464 45.4219 14.2552C45.4247 14.3512 45.4261 14.4471 45.4261 14.543C45.4261 14.6573 45.4261 14.7702 45.4261 14.8845V16.1897V25.5092H47.441V9.88965H10.1602Z" fill="#D9D6CC"/>
<g filter="url(#filter3_d_568_2587)">
<path fill-rule="evenodd" clip-rule="evenodd" d="M38.0735 23.9951C37.8576 23.9951 37.6403 23.9951 37.4244 23.9965C37.2424 23.9979 37.0604 23.9994 36.8784 24.005C36.4819 24.0163 36.0812 24.0389 35.6889 24.1094C35.2911 24.1814 34.92 24.2985 34.5588 24.4819C34.5122 24.5059 33.5175 24.9574 32.6229 26.3486C31.9442 27.4054 30.6235 28.5258 28.7738 28.5258C26.9254 28.5258 25.6047 27.4054 24.9246 26.3486C23.9835 24.8826 22.9097 24.4424 22.9873 24.4819C22.6261 24.2971 22.255 24.18 21.8571 24.1094C21.4649 24.0389 21.0642 24.0149 20.6677 24.005C20.4857 24.0008 20.3037 23.9979 20.1216 23.9965C19.9058 23.9951 19.6885 23.9951 19.4726 23.9951H10.1602V38.1006H47.4396V23.9951H38.0735Z" fill="#DEDBCE"/>
</g>
</g>
<path d="M58.1757 24.918H60.0834L64.2133 36.289H62.3621L61.3222 33.2159H56.9411L55.8942 36.289H54.043L58.1757 24.918ZM57.411 31.7965H60.8396L59.1451 26.8016H59.1154L57.411 31.7965Z" fill="white"/>
<path d="M65.3047 27.9998H67.0063V29.4263H67.0458C67.5425 28.4415 68.4554 27.8418 69.6378 27.8418C71.75 27.8418 73.1046 29.4969 73.1046 32.1453V32.1537C73.1046 34.7923 71.7416 36.4558 69.6618 36.4558C68.4878 36.4558 67.534 35.8561 67.0458 34.8967H67.0063V39.0492H65.3047V27.9998ZM71.3719 32.1523V32.1439C71.3719 30.3787 70.5281 29.2979 69.1976 29.2979C67.9051 29.2979 66.9979 30.4182 66.9979 32.1439V32.1523C66.9979 33.8695 67.9122 34.9884 69.1976 34.9884C70.5366 34.9884 71.3719 33.9005 71.3719 32.1523Z" fill="white"/>
<path d="M74.7852 27.9998H76.4868V29.4263H76.5263C77.023 28.4415 77.9359 27.8418 79.1183 27.8418C81.2305 27.8418 82.585 29.4969 82.585 32.1453V32.1537C82.585 34.7923 81.222 36.4558 79.1423 36.4558C77.9683 36.4558 77.0145 35.8561 76.5263 34.8967H76.4868V39.0492H74.7852V27.9998ZM80.8524 32.1523V32.1439C80.8524 30.3787 80.0086 29.2979 78.678 29.2979C77.3856 29.2979 76.4783 30.4182 76.4783 32.1439V32.1523C76.4783 33.8695 77.3926 34.9884 78.678 34.9884C80.0171 34.9884 80.8524 33.9005 80.8524 32.1523Z" fill="white"/>
<path d="M84.0898 24.918H85.7915V36.289H84.0898V24.918Z" fill="white"/>
<path d="M87.4492 32.1763V32.1678C87.4492 29.5759 88.9477 27.8418 91.2715 27.8418C93.5954 27.8418 95.0219 29.5138 95.0219 32.0028V32.577H89.1509C89.1819 34.146 90.0426 35.0603 91.3971 35.0603C92.406 35.0603 93.0748 34.5397 93.2892 33.9175L93.3132 33.854H94.9288L94.9133 33.9414C94.6452 35.2579 93.3683 36.4544 91.359 36.4544C88.9223 36.4544 87.4492 34.7909 87.4492 32.1763ZM89.1748 31.3706H93.3344C93.1919 29.9371 92.389 29.2358 91.2772 29.2358C90.1752 29.2373 89.3244 29.9851 89.1748 31.3706Z" fill="white"/>
<path d="M101.133 24.918H102.898V34.7666H108.193V36.2876H101.133V24.918Z" fill="white"/>
<path d="M109.297 32.1433V32.1278C109.297 29.4794 110.864 27.8398 113.221 27.8398C115.586 27.8398 117.16 29.4709 117.16 32.1278V32.1433C117.16 34.8157 115.601 36.4539 113.229 36.4539C110.85 36.4539 109.297 34.8072 109.297 32.1433ZM115.421 32.1433V32.1278C115.421 30.3147 114.554 29.2678 113.221 29.2678C111.913 29.2678 111.038 30.3147 111.038 32.1278V32.1433C111.038 33.979 111.904 35.0274 113.236 35.0274C114.568 35.0274 115.421 33.9719 115.421 32.1433Z" fill="white"/>
<path d="M118.841 27.9998H120.543V29.2838H120.582C120.937 28.4175 121.78 27.8418 122.867 27.8418C124.01 27.8418 124.845 28.433 125.177 29.4729H125.215C125.641 28.464 126.617 27.8418 127.8 27.8418C129.439 27.8418 130.51 28.9297 130.51 30.5918V36.2893H128.8V31.0024C128.8 29.9216 128.226 29.2993 127.217 29.2993C126.208 29.2993 125.507 30.0556 125.507 31.104V36.2893H123.836V30.8754C123.836 29.9145 123.228 29.2993 122.269 29.2993C121.26 29.2993 120.541 30.0951 120.541 31.1675V36.2893H118.84L118.841 27.9998Z" fill="white"/>
<path d="M132.52 27.9998H134.221V29.2838H134.261C134.615 28.4175 135.459 27.8418 136.545 27.8418C137.688 27.8418 138.523 28.433 138.855 29.4729H138.893C139.319 28.464 140.295 27.8418 141.478 27.8418C143.117 27.8418 144.188 28.9297 144.188 30.5918V36.2893H142.478V31.0024C142.478 29.9216 141.904 29.2993 140.895 29.2993C139.886 29.2993 139.185 30.0556 139.185 31.104V36.2893H137.516V30.8754C137.516 29.9145 136.908 29.2993 135.948 29.2993C134.939 29.2993 134.221 30.0951 134.221 31.1675V36.2893H132.52V27.9998Z" fill="white"/>
<path d="M145.828 32.1763V32.1678C145.828 29.5759 147.327 27.8418 149.65 27.8418C151.974 27.8418 153.401 29.5138 153.401 32.0028V32.577H147.53C147.561 34.146 148.422 35.0603 149.776 35.0603C150.785 35.0603 151.454 34.5397 151.668 33.9175L151.692 33.854H153.308L153.292 33.9414C153.024 35.2579 151.747 36.4544 149.738 36.4544C147.301 36.4544 145.828 34.7909 145.828 32.1763ZM147.554 31.3706H151.713C151.571 29.9371 150.768 29.2358 149.656 29.2358C148.554 29.2373 147.703 29.9851 147.554 31.3706Z" fill="white"/>
<path d="M156.882 34.8865H156.842V36.289H155.141V24.918H156.842V29.4105H156.882C157.378 28.4327 158.322 27.8415 159.498 27.8415C161.579 27.8415 162.949 29.4966 162.949 32.1365V32.145C162.949 34.7849 161.586 36.4555 159.482 36.4555C158.293 36.4541 157.37 35.8544 156.882 34.8865ZM161.208 32.1436V32.1351C161.208 30.3869 160.373 29.2976 159.034 29.2976C157.75 29.2976 156.834 30.418 156.834 32.1351V32.1436C156.834 33.8692 157.741 34.9881 159.034 34.9881C160.373 34.9881 161.208 33.9087 161.208 32.1436Z" fill="white"/>
<path d="M164.262 32.1433V32.1278C164.262 29.4794 165.829 27.8398 168.186 27.8398C170.55 27.8398 172.125 29.4709 172.125 32.1278V32.1433C172.125 34.8157 170.566 36.4539 168.194 36.4539C165.815 36.4539 164.262 34.8072 164.262 32.1433ZM170.385 32.1433V32.1278C170.385 30.3147 169.519 29.2678 168.186 29.2678C166.878 29.2678 166.003 30.3147 166.003 32.1278V32.1433C166.003 33.979 166.869 35.0274 168.203 35.0274C169.533 35.0274 170.385 33.9719 170.385 32.1433Z" fill="white"/>
<path d="M173.902 24.918H175.604V31.5369H175.642L178.968 27.9981H180.969L177.565 31.575L181.103 36.2876H179.126L176.312 32.6007L175.604 33.302V36.2876H173.902V24.918Z" fill="white"/>
<path d="M54.8398 11.5166H55.9051V19.1006H60.0266V20.0601H54.8398V11.5166Z" fill="white"/>
<path d="M60.9648 16.8925V16.8869C60.9648 14.9157 62.0894 13.5654 63.8235 13.5654C65.5576 13.5654 66.613 14.8565 66.613 16.7641V17.1662H62.0188C62.0485 18.4869 62.7765 19.2559 63.9138 19.2559C64.7773 19.2559 65.3107 18.8467 65.4828 18.4629L65.5068 18.4093H66.5354L66.5241 18.4573C66.3054 19.3208 65.3925 20.1744 63.8898 20.1744C62.0654 20.173 60.9648 18.8947 60.9648 16.8925ZM62.0372 16.3422H65.566C65.4588 15.0794 64.7604 14.4826 63.8192 14.4826C62.8725 14.4826 62.1487 15.1288 62.0372 16.3422Z" fill="white"/>
<path d="M68.1403 20.5694L68.153 20.5624H69.2182L69.2253 20.5694C69.3368 21.0548 69.9054 21.3976 70.8239 21.3976C71.9668 21.3976 72.6469 20.8587 72.6469 19.9175V18.6265H72.5524C72.1488 19.3306 71.4264 19.7271 70.5502 19.7271C68.898 19.7271 67.875 18.4487 67.875 16.661V16.6483C67.875 14.8592 68.905 13.5625 70.5742 13.5625C71.4758 13.5625 72.1742 14.007 72.5637 14.7294H72.6356V13.6768H73.6642V19.9712C73.6642 21.3977 72.5637 22.3091 70.8225 22.3091C69.2846 22.3091 68.2997 21.6164 68.1403 20.5694ZM72.6709 16.6624V16.6497C72.6709 15.3827 71.9541 14.4768 70.776 14.4768C69.5907 14.4768 68.9276 15.3827 68.9276 16.6497V16.6624C68.9276 17.9281 69.5907 18.817 70.776 18.817C71.9598 18.817 72.6709 17.9281 72.6709 16.6624Z" fill="white"/>
<path d="M75.5139 20.5694L75.5266 20.5624H76.5918L76.5989 20.5694C76.7104 21.0548 77.279 21.3976 78.1975 21.3976C79.3404 21.3976 80.0205 20.8587 80.0205 19.9175V18.6265H79.9274C79.5238 19.3306 78.8014 19.7271 77.9252 19.7271C76.273 19.7271 75.25 18.4487 75.25 16.661V16.6483C75.25 14.8592 76.28 13.5625 77.9492 13.5625C78.8508 13.5625 79.5492 14.007 79.9387 14.7294H80.0106V13.6768H81.0392V19.9712C81.0392 21.3977 79.9387 22.3091 78.1975 22.3091C76.6567 22.3091 75.6733 21.6164 75.5139 20.5694ZM80.0431 16.6624V16.6497C80.0431 15.3827 79.3263 14.4768 78.1481 14.4768C76.9629 14.4768 76.2998 15.3827 76.2998 16.6497V16.6624C76.2998 17.9281 76.9629 18.817 78.1481 18.817C79.3334 18.817 80.0431 17.9281 80.0431 16.6624Z" fill="white"/>
<path d="M86.7365 18.402V14.5303H85.7305V13.6767H86.7365V12.0244H87.8032V13.6767H89.2001V14.5289H87.8032V18.141C87.8032 18.893 88.0642 19.195 88.726 19.195C88.9094 19.195 89.0096 19.1879 89.2001 19.1696V20.0458C88.9983 20.0811 88.8036 20.1051 88.6018 20.1051C87.2868 20.1065 86.7365 19.6211 86.7365 18.402Z" fill="white"/>
<path d="M90.5586 11.7355C90.5586 11.3447 90.8789 11.0244 91.2683 11.0244C91.6592 11.0244 91.9795 11.3447 91.9795 11.7355C91.9795 12.125 91.6592 12.4453 91.2683 12.4453C90.8775 12.4453 90.5586 12.1264 90.5586 11.7355ZM90.7463 13.6771H91.7763V20.0589H90.7463V13.6771Z" fill="white"/>
<path d="M93.7656 11.1426H94.7956V20.0585H93.7656V11.1426Z" fill="white"/>
<path d="M99.9883 11.7355C99.9883 11.3447 100.309 11.0244 100.698 11.0244C101.089 11.0244 101.409 11.3447 101.409 11.7355C101.409 12.125 101.089 12.4453 100.698 12.4453C100.309 12.4453 99.9883 12.1264 99.9883 11.7355ZM100.177 13.6771H101.207V20.0589H100.177V13.6771Z" fill="white"/>
<defs>
<filter id="filter0_d_568_2587" x="9.17188" y="11.7258" width="39.25" height="20.1074" filterUnits="userSpaceOnUse" color-interpolation-filters="sRGB">
<feFlood flood-opacity="0" result="BackgroundImageFix"/>
<feColorMatrix in="SourceAlpha" type="matrix" values="0 0 0 0 0 0 0 0 0 0 0 0 0 0 0 0 0 0 127 0" result="hardAlpha"/>
<feOffset dy="-0.2"/>
<feGaussianBlur stdDeviation="1.5"/>
<feComposite in2="hardAlpha" operator="out"/>
<feColorMatrix type="matrix" values="0 0 0 0 0 0 0 0 0 0 0 0 0 0 0 0 0 0 0.12 0"/>
<feBlend mode="normal" in2="BackgroundImageFix" result="effect1_dropShadow_568_2587"/>
<feBlend mode="normal" in="SourceGraphic" in2="effect1_dropShadow_568_2587" result="shape"/>
</filter>
<filter id="filter1_d_568_2587" x="9.17188" y="14.7473" width="39.25" height="20.1074" filterUnits="userSpaceOnUse" color-interpolation-filters="sRGB">
<feFlood flood-opacity="0" result="BackgroundImageFix"/>
<feColorMatrix in="SourceAlpha" type="matrix" values="0 0 0 0 0 0 0 0 0 0 0 0 0 0 0 0 0 0 127 0" result="hardAlpha"/>
<feOffset dy="-0.2"/>
<feGaussianBlur stdDeviation="1.5"/>
<feComposite in2="hardAlpha" operator="out"/>
<feColorMatrix type="matrix" values="0 0 0 0 0 0 0 0 0 0 0 0 0 0 0 0 0 0 0.12 0"/>
<feBlend mode="normal" in2="BackgroundImageFix" result="effect1_dropShadow_568_2587"/>
<feBlend mode="normal" in="SourceGraphic" in2="effect1_dropShadow_568_2587" result="shape"/>
</filter>
<filter id="filter2_d_568_2587" x="9.17188" y="17.7697" width="39.25" height="20.1074" filterUnits="userSpaceOnUse" color-interpolation-filters="sRGB">
<feFlood flood-opacity="0" result="BackgroundImageFix"/>
<feColorMatrix in="SourceAlpha" type="matrix" values="0 0 0 0 0 0 0 0 0 0 0 0 0 0 0 0 0 0 127 0" result="hardAlpha"/>
<feOffset dy="-0.2"/>
<feGaussianBlur stdDeviation="1.5"/>
<feComposite in2="hardAlpha" operator="out"/>
<feColorMatrix type="matrix" values="0 0 0 0 0 0 0 0 0 0 0 0 0 0 0 0 0 0 0.12 0"/>
<feBlend mode="normal" in2="BackgroundImageFix" result="effect1_dropShadow_568_2587"/>
<feBlend mode="normal" in="SourceGraphic" in2="effect1_dropShadow_568_2587" result="shape"/>
</filter>
<filter id="filter3_d_568_2587" x="7.16016" y="20.7951" width="43.2812" height="20.1055" filterUnits="userSpaceOnUse" color-interpolation-filters="sRGB">
<feFlood flood-opacity="0" result="BackgroundImageFix"/>
<feColorMatrix in="SourceAlpha" type="matrix" values="0 0 0 0 0 0 0 0 0 0 0 0 0 0 0 0 0 0 127 0" result="hardAlpha"/>
<feOffset dy="-0.2"/>
<feGaussianBlur stdDeviation="1.5"/>
<feComposite in2="hardAlpha" operator="out"/>
<feColorMatrix type="matrix" values="0 0 0 0 0 0 0 0 0 0 0 0 0 0 0 0 0 0 0.12 0"/>
<feBlend mode="normal" in2="BackgroundImageFix" result="effect1_dropShadow_568_2587"/>
<feBlend mode="normal" in="SourceGraphic" in2="effect1_dropShadow_568_2587" result="shape"/>
</filter>
</defs>
</svg>
