<svg width="205" height="48" viewBox="0 0 205 48" fill="none" xmlns="http://www.w3.org/2000/svg">
<path d="M190.712 0.00141098H13.4508C12.933 0.00141098 12.4222 0.00141098 11.9072 0.00423293C11.4741 0.00705488 11.0465 0.0155207 10.6105 0.0225756C9.67083 0.0451512 8.72124 0.103001 7.78294 0.270907C6.839 0.437403 5.96137 0.719598 5.10209 1.15559C4.25692 1.58876 3.48511 2.15033 2.81772 2.81913C2.14327 3.48652 1.58312 4.26115 1.15559 5.10632C0.716776 5.9642 0.438814 6.84606 0.273729 7.79141C0.104412 8.72548 0.0451512 9.66942 0.0211646 10.6148C0.00846586 11.0479 0.00705488 11.4811 0 11.9143C0 12.4251 0 12.9372 0 13.4551V34.5463C0 35.067 0 35.5764 0 36.0899C0.00705488 36.5273 0.00846586 36.9521 0.0211646 37.3909C0.0451512 38.3362 0.104412 39.2816 0.273729 40.2156C0.438814 41.161 0.716776 42.0471 1.15559 42.9021C1.58312 43.7431 2.14327 44.5163 2.81772 45.1795C3.48511 45.8525 4.25692 46.4141 5.10068 46.8416C5.95996 47.2818 6.83759 47.5612 7.78294 47.7319C8.71983 47.8998 9.67083 47.9548 10.6105 47.9817C11.0465 47.9915 11.4755 47.9972 11.9072 47.9972C12.4236 48 12.9344 48 13.4522 48H190.713C191.22 48 191.735 48 192.243 47.9972C192.673 47.9972 193.113 47.9915 193.544 47.9817C194.489 47.9563 195.437 47.8998 196.366 47.7319C197.311 47.5612 198.19 47.2832 199.058 46.8416C199.9 46.4126 200.672 45.8525 201.339 45.1795C202.011 44.5163 202.571 43.7431 203.006 42.9021C203.439 42.0471 203.72 41.161 203.879 40.2156C204.053 39.2816 204.108 38.3362 204.141 37.3909C204.147 36.9521 204.147 36.5288 204.147 36.0899C204.158 35.5778 204.158 35.0684 204.158 34.5463V13.4537C204.158 12.9372 204.158 12.4251 204.147 11.9129C204.147 11.4797 204.147 11.0465 204.141 10.6134C204.109 9.66801 204.054 8.72265 203.879 7.78859C203.72 6.84323 203.439 5.96137 203.006 5.1035C202.57 4.25833 202.011 3.48511 201.339 2.81631C200.672 2.14751 199.901 1.58594 199.058 1.15277C198.19 0.715365 197.311 0.43317 196.366 0.268085C195.437 0.100179 194.489 0.0423293 193.544 0.0183427C193.113 0.0112878 192.673 0.00282195 192.243 0C191.735 0.00141098 191.22 0.00141098 190.712 0.00141098Z" fill="#A6A6A6"/>
<path d="M190.713 0.918945C191.218 0.918945 191.731 0.918945 192.236 0.921767C192.584 0.924589 192.939 0.930233 193.289 0.935877L193.52 0.94011C194.267 0.958453 195.245 1.00219 196.207 1.17574C197.08 1.32813 197.878 1.59057 198.638 1.97294C199.399 2.36378 200.089 2.86609 200.691 3.46999C201.288 4.0626 201.792 4.75398 202.185 5.51873C202.568 6.27924 202.826 7.07221 202.975 7.95831C203.14 8.84722 203.191 9.77564 203.222 10.6265C203.228 11.0554 203.228 11.4857 203.228 11.933C203.239 12.4382 203.239 12.9433 203.239 13.4541V34.5453C203.239 35.0589 203.239 35.5626 203.228 36.0889C203.228 36.5235 203.228 36.944 203.222 37.3574C203.191 38.228 203.141 39.1564 202.973 40.0608C202.824 40.9385 202.566 41.7314 202.189 42.4778C201.789 43.2525 201.285 43.941 200.685 44.5322C200.089 45.1347 199.401 45.6356 198.641 46.0222C197.892 46.4032 197.093 46.6656 196.201 46.8279C195.277 46.9958 194.326 47.0409 193.523 47.0635C193.1 47.0734 192.667 47.079 192.238 47.079C191.733 47.0819 191.219 47.0819 190.714 47.0819H13.4517C12.9367 47.0819 12.4273 47.0819 11.9067 47.079C11.4819 47.079 11.0601 47.0734 10.6354 47.0649C9.82828 47.0423 8.8787 46.9972 7.94604 46.8293C7.05289 46.6684 6.25851 46.4046 5.51634 46.0236C4.75582 45.6384 4.06727 45.1361 3.46055 44.5238C2.86512 43.9382 2.36422 43.2525 1.97197 42.4821C1.59383 41.7441 1.3328 40.9498 1.17618 40.0495C1.00122 39.0887 0.957476 38.1109 0.937722 37.363C0.929257 37.0696 0.925024 36.7831 0.922202 36.4939L0.917969 36.0889V34.5453V13.4541V11.9288L0.923613 11.5069C0.926435 11.2191 0.930668 10.9312 0.939133 10.6392C0.957476 9.89416 1.00263 8.91636 1.179 7.94843C1.33421 7.05951 1.59383 6.26655 1.97479 5.52014C2.36281 4.75398 2.8637 4.06401 3.4676 3.46717C4.06868 2.86468 4.76006 2.36237 5.51775 1.97436C6.27403 1.58916 7.067 1.32813 7.94604 1.17433C8.91115 1.00078 9.89037 0.957042 10.6255 0.938699L10.9049 0.934466C11.2421 0.928822 11.5765 0.923178 11.9123 0.921767C12.4259 0.918945 12.9367 0.918945 13.4517 0.918945H190.713Z" fill="black"/>
<path d="M54.8828 24.917H59.1143C61.3451 24.917 62.8887 26.414 62.8887 28.6434V28.6603C62.8887 30.8812 61.3437 32.4022 59.1143 32.4022H56.6479V36.2866H54.8828V24.917ZM56.6479 26.407V30.9221H58.6741C60.2107 30.9221 61.0925 30.0939 61.0925 28.6674V28.6518C61.0925 27.2324 60.2107 26.4056 58.6741 26.4056L56.6479 26.407Z" fill="white"/>
<path d="M63.8672 32.1429V32.1274C63.8672 29.479 65.4348 27.8408 67.7911 27.8408C70.1545 27.8408 71.7306 29.4719 71.7306 32.1274V32.1429C71.7306 34.8153 70.17 36.4534 67.7982 36.4534C65.4193 36.4534 63.8672 34.8068 63.8672 32.1429ZM69.9894 32.1429V32.1274C69.9894 30.3143 69.1231 29.2673 67.7911 29.2673C66.4831 29.2673 65.6083 30.3143 65.6083 32.1274V32.1429C65.6083 33.98 66.4747 35.0269 67.8066 35.0269C69.1386 35.0269 69.9894 33.9715 69.9894 32.1429Z" fill="white"/>
<path d="M73.4141 27.9974H75.1157V29.4169H75.1552C75.4233 28.4461 76.1175 27.8408 77.0629 27.8408C77.3069 27.8408 77.52 27.8789 77.654 27.9043V29.4874C77.52 29.4324 77.2209 29.3929 76.8893 29.3929C75.7944 29.3929 75.1157 30.1111 75.1157 31.3485V36.2883H73.4141V27.9974Z" fill="white"/>
<path d="M79.9121 34.1053V29.3546H78.7227V27.9986H79.9121V25.8398H81.6533V27.9986H83.2053V29.3546H81.6533V34.0038C81.6533 34.8475 82.0314 35.0987 82.7482 35.0987C82.9288 35.0987 83.0783 35.0817 83.2053 35.0676V36.3841C83.0078 36.4151 82.6847 36.4546 82.339 36.4546C80.6994 36.4532 79.9121 35.759 79.9121 34.1053Z" fill="white"/>
<path d="M84.4023 32.1739V32.1655C84.4023 29.5735 85.8994 27.8408 88.2233 27.8408C90.5471 27.8408 91.975 29.5114 91.975 32.0004V32.5761H86.104C86.135 34.1436 86.9943 35.058 88.3488 35.058C89.3577 35.058 90.0279 34.5387 90.2395 33.9151L90.2635 33.8516H91.8791L91.8636 33.9391C91.5955 35.2555 90.3186 36.452 88.3093 36.452C85.8754 36.4534 84.4023 34.7913 84.4023 32.1739ZM86.128 31.3711H90.2889C90.1464 29.9361 89.3436 29.2349 88.2317 29.2349C87.1283 29.2349 86.2775 29.9841 86.128 31.3711Z" fill="white"/>
<path d="M94.1507 29.3536H93.0078V27.9976H94.1507V27.1158C94.1507 25.5073 94.907 24.751 96.5931 24.751C96.9402 24.751 97.3183 24.782 97.5469 24.8215V26.0815C97.3818 26.0575 97.1688 26.0434 96.9557 26.0434C96.191 26.0434 95.8298 26.4145 95.8298 27.1468V27.9976H97.5159V29.3536H95.8608V36.2871H94.1507V29.3536Z" fill="white"/>
<path d="M98.1289 32.1739V32.1655C98.1289 29.5735 99.626 27.8408 101.95 27.8408C104.275 27.8408 105.702 29.5114 105.702 32.0004V32.5761H99.8305C99.8616 34.1436 100.721 35.058 102.075 35.058C103.084 35.058 103.754 34.5387 103.968 33.9151L103.992 33.8516H105.607L105.592 33.9391C105.325 35.2555 104.047 36.452 102.037 36.452C99.602 36.4534 98.1289 34.7913 98.1289 32.1739ZM99.8545 31.3711H104.016C103.873 29.9361 103.07 29.2349 101.958 29.2349C100.856 29.2349 100.004 29.9841 99.8545 31.3711Z" fill="white"/>
<path d="M107.34 33.3725V27.998H109.041V33.0409C109.041 34.2938 109.624 34.988 110.807 34.988C112.005 34.988 112.776 34.1287 112.776 32.8363V27.998H114.486V36.2875H112.776V35.0431H112.737C112.302 35.8783 111.46 36.4526 110.198 36.4526C108.378 36.454 107.34 35.2801 107.34 33.3725Z" fill="white"/>
<path d="M116.461 25.7456C116.461 25.201 116.901 24.7607 117.453 24.7607C118.012 24.7607 118.446 25.201 118.446 25.7456C118.446 26.2804 118.012 26.722 117.453 26.722C116.903 26.722 116.461 26.2804 116.461 25.7456ZM116.603 27.9975H118.305V36.287H116.603V27.9975Z" fill="white"/>
<path d="M120.484 24.917H122.187V36.2866H120.484V24.917Z" fill="white"/>
<path d="M124.355 24.917H126.059V36.2866H124.355V24.917Z" fill="white"/>
<path d="M127.797 32.1739V32.1655C127.797 29.5735 129.294 27.8408 131.618 27.8408C133.942 27.8408 135.37 29.5114 135.37 32.0004V32.5761H129.499C129.53 34.1436 130.389 35.058 131.745 35.058C132.754 35.058 133.422 34.5387 133.635 33.9151L133.661 33.8516H135.276L135.261 33.9391C134.993 35.2555 133.716 36.452 131.705 36.452C129.27 36.4534 127.797 34.7913 127.797 32.1739ZM129.522 31.3711H133.683C133.541 29.9361 132.738 29.2349 131.626 29.2349C130.524 29.2349 129.672 29.9841 129.522 31.3711Z" fill="white"/>
<path d="M140.309 32.1426V32.1341C140.309 29.4956 141.68 27.8405 143.76 27.8405C144.934 27.8405 145.879 28.4317 146.376 29.4081H146.407V24.917H148.117V36.2866H146.407V34.8841H146.376C145.879 35.8549 144.966 36.4517 143.775 36.4517C141.663 36.4531 140.309 34.7825 140.309 32.1426ZM146.417 32.1426V32.1341C146.417 30.417 145.504 29.2981 144.225 29.2981C142.886 29.2981 142.051 30.3859 142.051 32.1341V32.1426C142.051 33.9077 142.878 34.9885 144.225 34.9885C145.509 34.9885 146.417 33.8696 146.417 32.1426Z" fill="white"/>
<path d="M150.666 24.917H152.367L151.217 28.951H150.02L150.666 24.917Z" fill="white"/>
<path d="M156.238 24.917H158.146L162.276 36.2866H160.425L159.385 33.2135H155.004L153.957 36.2866H152.105L156.238 24.917ZM155.475 31.7969H158.902L157.209 26.8006H157.178L155.475 31.7969Z" fill="white"/>
<path d="M163.688 27.9974H165.389V29.4239H165.429C165.925 28.4391 166.84 27.8408 168.021 27.8408C170.133 27.8408 171.489 29.4959 171.489 32.1429V32.1514C171.489 34.7913 170.124 36.4534 168.046 36.4534C166.872 36.4534 165.918 35.8552 165.43 34.8943H165.391V39.0468H163.689L163.688 27.9974ZM169.756 32.1514V32.1429C169.756 30.3778 168.912 29.2984 167.58 29.2984C166.288 29.2984 165.382 30.4173 165.382 32.1429V32.1514C165.382 33.8699 166.295 34.9888 167.58 34.9888C168.919 34.9888 169.756 33.8995 169.756 32.1514Z" fill="white"/>
<path d="M173.172 27.9974H174.874V29.4239H174.912C175.41 28.4391 176.323 27.8408 177.505 27.8408C179.617 27.8408 180.972 29.4959 180.972 32.1429V32.1514C180.972 34.7913 179.609 36.4534 177.529 36.4534C176.355 36.4534 175.401 35.8552 174.913 34.8943H174.875V39.0468H173.173L173.172 27.9974ZM179.239 32.1514V32.1429C179.239 30.3778 178.395 29.2984 177.065 29.2984C175.772 29.2984 174.865 30.4173 174.865 32.1429V32.1514C174.865 33.8699 175.779 34.9888 177.065 34.9888C178.404 34.9888 179.239 33.8995 179.239 32.1514Z" fill="white"/>
<path d="M182.715 24.917H184.418V36.2866H182.715V24.917Z" fill="white"/>
<path d="M186.156 32.1739V32.1655C186.156 29.5735 187.653 27.8408 189.977 27.8408C192.301 27.8408 193.729 29.5114 193.729 32.0004V32.5761H187.858C187.889 34.1436 188.748 35.058 190.104 35.058C191.113 35.058 191.782 34.5387 191.995 33.9151L192.02 33.8516H193.636L193.62 33.9391C193.352 35.2555 192.075 36.452 190.065 36.452C187.629 36.4534 186.156 34.7913 186.156 32.1739ZM187.88 31.3711H192.041C191.899 29.9361 191.096 29.2349 189.984 29.2349C188.882 29.2349 188.031 29.9841 187.88 31.3711Z" fill="white"/>
<path d="M57.3095 11.5166H58.3635L61.5128 20.0601H60.3939L59.536 17.6148H56.1369L55.2791 20.0601H54.1602L57.3095 11.5166ZM56.4502 16.709H59.2213L57.8823 12.8965H57.7878L56.4502 16.709Z" fill="white"/>
<path d="M61.7734 22.2511V21.3396H61.9272C62.62 21.3396 62.8811 21.0969 62.8811 20.3929V13.678H63.9111V20.3745C63.9111 21.6895 63.2902 22.2525 61.9512 22.2525H61.7734V22.2511ZM62.6849 11.7351C62.6849 11.3443 63.0052 11.0254 63.3961 11.0254C63.7869 11.0254 64.1058 11.3457 64.1058 11.7351C64.1058 12.1245 63.7869 12.4462 63.3961 12.4462C63.0052 12.4462 62.6849 12.126 62.6849 11.7351Z" fill="white"/>
<path d="M65.5195 16.8746V16.8619C65.5195 14.8132 66.6441 13.5645 68.4614 13.5645C70.2802 13.5645 71.4033 14.8132 71.4033 16.8619V16.8746C71.4033 18.9163 70.2788 20.1721 68.4614 20.1721C66.6441 20.1721 65.5195 18.9163 65.5195 16.8746ZM70.3507 16.8746V16.8619C70.3507 15.3522 69.6692 14.4759 68.4614 14.4759C67.2536 14.4759 66.5735 15.3522 66.5735 16.8619V16.8746C66.5735 18.3773 67.2536 19.2606 68.4614 19.2606C69.6692 19.2606 70.3507 18.3773 70.3507 16.8746Z" fill="white"/>
<path d="M72.9258 17.8091V13.6777H73.9558V17.5607C73.9558 18.7093 74.3692 19.261 75.3879 19.261C76.5125 19.261 77.1107 18.5738 77.1107 17.4549V13.6777H78.1407V20.0596H77.1107V19.1058H77.0162C76.7016 19.7873 76.0567 20.171 75.1213 20.171C73.6722 20.1725 72.9258 19.3202 72.9258 17.8091Z" fill="white"/>
<path d="M80.4513 18.4016V14.5285H79.4453V13.6776H80.4513V12.0254H81.5166V13.6776H82.9149V14.5299H81.5166V18.142C81.5166 18.894 81.7777 19.196 82.4408 19.196C82.6242 19.196 82.7258 19.1903 82.9149 19.172V20.0482C82.7131 20.0835 82.5184 20.1075 82.3166 20.1075C81.0016 20.1075 80.4513 19.6207 80.4513 18.4016Z" fill="white"/>
<path d="M84.0273 16.8915V16.8859C84.0273 14.9148 85.1519 13.5645 86.8874 13.5645C88.6229 13.5645 89.6769 14.8555 89.6769 16.7617V17.1653H85.0813C85.111 18.4859 85.839 19.2549 86.9763 19.2549C87.8398 19.2549 88.3731 18.8457 88.5453 18.462L88.5693 18.4083H89.5993L89.588 18.4563C89.3693 19.3212 88.4564 20.1735 86.9523 20.1735C85.1279 20.1721 84.0273 18.8923 84.0273 16.8915ZM85.0983 16.3413H88.6257C88.5199 15.0798 87.8215 14.483 86.8789 14.483C85.9336 14.4816 85.2112 15.1264 85.0983 16.3413Z" fill="white"/>
<path d="M91.2592 13.6773H92.2892V14.6241H92.3838C92.6265 13.9553 93.2247 13.5645 94.0882 13.5645C94.2844 13.5645 94.5031 13.5884 94.6032 13.6054V14.6058C94.3902 14.5705 94.1941 14.5465 93.9697 14.5465C92.9877 14.5465 92.2878 15.1687 92.2878 16.1042V20.0592H91.2578L91.2592 13.6773Z" fill="white"/>
<path d="M98.8789 18.2776V18.2663C98.8789 17.129 99.7198 16.4729 101.206 16.384L103.034 16.2711V15.6912C103.034 14.9039 102.555 14.4778 101.601 14.4778C100.837 14.4778 100.334 14.7628 100.169 15.2595L100.163 15.2778H99.1329L99.1385 15.2425C99.305 14.2422 100.276 13.5663 101.637 13.5663C103.195 13.5663 104.064 14.3649 104.064 15.6912V20.061H103.034V19.1199H102.94C102.536 19.8 101.867 20.1739 101.009 20.1739C99.796 20.1725 98.8789 19.4388 98.8789 18.2776ZM99.8807 10.7754H101.1L102.148 12.7889H101.248L99.8807 10.7754ZM101.224 19.2779C102.272 19.2779 103.036 18.5908 103.036 17.6793V17.0994L101.331 17.2066C100.36 17.2659 99.9343 17.6087 99.9343 18.2423V18.2536C99.9329 18.8998 100.483 19.2779 101.224 19.2779Z" fill="white"/>
<path d="M109.387 11.1436H110.415V20.0595H109.387V11.1436Z" fill="white"/>
<path d="M112.89 11.5166H114.068L113.138 14.886H112.375L112.89 11.5166Z" fill="white"/>
<path d="M114.938 18.2777V18.2664C114.938 17.1291 115.778 16.473 117.264 16.3841L119.094 16.2712V15.6913C119.094 14.904 118.615 14.4779 117.661 14.4779C116.897 14.4779 116.394 14.7629 116.227 15.2596L116.221 15.2779H115.191L115.197 15.2426C115.364 14.2423 116.334 13.5664 117.696 13.5664C119.254 13.5664 120.123 14.365 120.123 15.6913V20.0611H119.094V19.12H119C118.598 19.8001 117.927 20.174 117.069 20.174C115.855 20.1726 114.938 19.4389 114.938 18.2777ZM117.283 19.278C118.329 19.278 119.094 18.5909 119.094 17.6794V17.0995L117.388 17.2067C116.418 17.266 115.992 17.6089 115.992 18.2424V18.2537C115.992 18.8999 116.543 19.278 117.283 19.278Z" fill="white"/>
<path d="M121.988 13.6779H123.017V14.6966H123.111C123.502 13.9869 124.212 13.5664 125.101 13.5664C126.718 13.5664 127.776 14.8744 127.776 16.8639V16.8766C127.776 18.8773 126.722 20.174 125.101 20.174C124.225 20.174 123.461 19.7352 123.111 19.0551H123.017V22.1931H121.988V13.6779ZM126.724 16.8751V16.8624C126.724 15.3767 126.032 14.4765 124.865 14.4765C123.705 14.4765 122.994 15.388 122.994 16.8624V16.8751C122.994 18.3482 123.705 19.2611 124.865 19.2611C126.032 19.2611 126.724 18.3609 126.724 16.8751Z" fill="white"/>
<path d="M129.375 13.6779H130.404V14.6966H130.498C130.889 13.9869 131.599 13.5664 132.488 13.5664C134.105 13.5664 135.163 14.8744 135.163 16.8639V16.8766C135.163 18.8773 134.109 20.174 132.488 20.174C131.611 20.174 130.848 19.7352 130.498 19.0551H130.404V22.1931H129.375V13.6779ZM134.112 16.8751V16.8624C134.112 15.3767 133.42 14.4765 132.253 14.4765C131.094 14.4765 130.382 15.388 130.382 16.8624V16.8751C130.382 18.3482 131.094 19.2611 132.253 19.2611C133.42 19.2611 134.112 18.3609 134.112 16.8751Z" fill="white"/>
<mask id="mask0_568_1489" style="mask-type:luminance" maskUnits="userSpaceOnUse" x="10" y="10" width="37" height="28">
<path d="M46.9374 32.5304V32.9043C46.9374 33.0835 46.9374 33.2627 46.936 33.4419C46.9346 33.5928 46.9332 33.7438 46.929 33.8948C46.9205 34.2235 46.9008 34.5551 46.8429 34.8796C46.7836 35.2098 46.6863 35.5174 46.5339 35.8165C46.3843 36.1114 46.1882 36.3809 45.954 36.6137C45.7198 36.8479 45.4503 37.0427 45.1568 37.1936C44.8577 37.346 44.5501 37.4434 44.2199 37.5026C43.8954 37.5605 43.5638 37.5802 43.235 37.5887C43.0841 37.5929 42.9331 37.5944 42.7821 37.5958C42.6029 37.5972 42.4237 37.5972 42.2445 37.5972L40.1859 37.5958L42.102 37.5972H15.4995L17.4156 37.5958L15.357 37.5972C15.1778 37.5972 14.9986 37.5972 14.8194 37.5958C14.6684 37.5944 14.5174 37.5929 14.3665 37.5887C14.0377 37.5802 13.7061 37.5605 13.3816 37.5026C13.0514 37.4434 12.7453 37.346 12.4447 37.1936C12.1498 37.0441 11.8803 36.8479 11.6475 36.6137C11.4133 36.3795 11.2186 36.11 11.0676 35.8165C10.9152 35.5174 10.8179 35.2098 10.7586 34.8796C10.7007 34.5551 10.681 34.2235 10.6725 33.8948C10.6683 33.7438 10.6669 33.5928 10.6655 33.4419C10.6641 33.2627 10.6641 33.0835 10.6641 32.9043V32.6108V15.3799V17.1437V15.0851C10.6641 14.9059 10.6641 14.7267 10.6655 14.5475C10.6669 14.3965 10.6683 14.2455 10.6725 14.0945C10.681 13.7658 10.7007 13.4342 10.7586 13.1097C10.8179 12.7795 10.9152 12.4719 11.0676 12.1728C11.2172 11.8779 11.4133 11.6084 11.6475 11.3756C11.8817 11.1428 12.1512 10.9467 12.4461 10.7971C12.7453 10.6447 13.0528 10.5474 13.383 10.4881C13.7075 10.4302 14.0391 10.4105 14.3679 10.402C14.5188 10.3978 14.6698 10.3964 14.8208 10.395C15 10.3936 15.1792 10.3936 15.3584 10.3936H17.417H42.1034H42.2445C42.4237 10.3936 42.6029 10.3936 42.7821 10.395C42.9331 10.3964 43.0841 10.3978 43.235 10.402C43.5638 10.4105 43.8954 10.4302 44.2199 10.4881C44.5501 10.5474 44.8562 10.6447 45.1568 10.7971C45.4517 10.9467 45.7212 11.1428 45.954 11.377C46.1882 11.6112 46.3829 11.8807 46.5339 12.1742C46.6863 12.4733 46.7836 12.7809 46.8429 13.1111C46.9008 13.4356 46.9205 13.7672 46.929 14.096C46.9332 14.2469 46.9346 14.3979 46.936 14.5489C46.9374 14.7281 46.9374 14.9073 46.9374 15.0865V15.4604V32.5304Z" fill="white"/>
</mask>
<g mask="url(#mask0_568_1489)">
<path d="M45.7858 11.5264H11.7812V35.204H45.7858V11.5264Z" fill="#DEDBCE"/>
<path d="M45.4254 11.9043H12.1758V26.0098H45.4254V11.9043Z" fill="#40A5D9"/>
<g filter="url(#filter0_d_568_1489)">
<path fill-rule="evenodd" clip-rule="evenodd" d="M45.4215 17.9044C45.4215 17.7901 45.4215 17.6772 45.4215 17.5629C45.4215 17.467 45.4201 17.371 45.4173 17.2751C45.4116 17.0662 45.399 16.856 45.3623 16.65C45.3242 16.4412 45.2635 16.2465 45.1661 16.056C45.0716 15.8697 44.9474 15.6976 44.7979 15.5494C44.6497 15.4013 44.479 15.2771 44.2913 15.1812C44.1009 15.0838 43.9061 15.0231 43.6973 14.985C43.4913 14.9484 43.2811 14.9357 43.0723 14.93C42.9763 14.9272 42.8804 14.9258 42.7844 14.9258C42.6701 14.9258 42.5572 14.9258 42.443 14.9258H42.3498H16.4556H15.1504C15.0362 14.9258 14.9233 14.9258 14.809 14.9258C14.713 14.9258 14.6171 14.9272 14.5212 14.93C14.3123 14.9357 14.1021 14.9484 13.8961 14.985C13.6873 15.0231 13.4925 15.0838 13.3021 15.1812C13.1158 15.2757 12.9437 15.3999 12.7955 15.5494C12.6474 15.6976 12.5232 15.8683 12.4273 16.056C12.3299 16.2465 12.2692 16.4412 12.2311 16.65C12.1945 16.856 12.1818 17.0662 12.1761 17.2751C12.1733 17.371 12.1719 17.467 12.1719 17.5629C12.1719 17.6772 12.1719 17.7901 12.1719 17.9044V19.2095V18.1837V29.0327H45.4215V18.2515V17.9044Z" fill="#FFB003"/>
</g>
<g filter="url(#filter1_d_568_1489)">
<path fill-rule="evenodd" clip-rule="evenodd" d="M45.4215 20.9258C45.4215 20.8115 45.4215 20.6987 45.4215 20.5844C45.4215 20.4884 45.4201 20.3925 45.4173 20.2965C45.4116 20.0877 45.399 19.8775 45.3623 19.6715C45.3242 19.4627 45.2635 19.2679 45.1661 19.0775C45.0716 18.8912 44.9474 18.7191 44.7979 18.5709C44.6497 18.4228 44.479 18.2986 44.2913 18.2027C44.1009 18.1053 43.9061 18.0446 43.6973 18.0065C43.4913 17.9698 43.2811 17.9571 43.0723 17.9515C42.9763 17.9487 42.8804 17.9473 42.7844 17.9473C42.6701 17.9473 42.5572 17.9473 42.443 17.9473H42.3484H16.4556H15.1504C15.0362 17.9473 14.9233 17.9473 14.809 17.9473C14.713 17.9473 14.6171 17.9487 14.5212 17.9515C14.3123 17.9571 14.1021 17.9698 13.8961 18.0065C13.6873 18.0446 13.4925 18.1053 13.3021 18.2027C13.1158 18.2972 12.9437 18.4214 12.7955 18.5709C12.6474 18.7191 12.5232 18.8898 12.4273 19.0775C12.3299 19.2679 12.2692 19.4627 12.2311 19.6715C12.1945 19.8775 12.1818 20.0877 12.1761 20.2965C12.1733 20.3925 12.1719 20.4884 12.1719 20.5844C12.1719 20.6987 12.1719 20.8115 12.1719 20.9258V22.231V21.2052V32.0542H45.4215V21.2729V20.9258Z" fill="#40C740"/>
</g>
<g filter="url(#filter2_d_568_1489)">
<path fill-rule="evenodd" clip-rule="evenodd" d="M45.4215 23.9483C45.4215 23.834 45.4215 23.7211 45.4215 23.6068C45.4215 23.5109 45.4201 23.4149 45.4173 23.319C45.4116 23.1102 45.399 22.8999 45.3623 22.6939C45.3242 22.4851 45.2635 22.2904 45.1661 22.0999C45.0716 21.9137 44.9474 21.7415 44.7979 21.5934C44.6497 21.4452 44.479 21.3211 44.2913 21.2251C44.1009 21.1278 43.9061 21.0671 43.6973 21.029C43.4913 20.9923 43.2811 20.9796 43.0723 20.974C42.9763 20.9711 42.8804 20.9697 42.7844 20.9697C42.6701 20.9697 42.5572 20.9697 42.443 20.9697H42.3484H16.4556H15.1504C15.0362 20.9697 14.9233 20.9697 14.809 20.9697C14.713 20.9697 14.6171 20.9711 14.5212 20.974C14.3123 20.9796 14.1021 20.9923 13.8961 21.029C13.6873 21.0671 13.4925 21.1278 13.3021 21.2251C13.1158 21.3196 12.9437 21.4438 12.7955 21.5934C12.6474 21.7415 12.5232 21.9123 12.4273 22.0999C12.3299 22.2904 12.2692 22.4851 12.2311 22.6939C12.1945 22.8999 12.1818 23.1102 12.1761 23.319C12.1733 23.4149 12.1719 23.5109 12.1719 23.6068C12.1719 23.7211 12.1719 23.834 12.1719 23.9483V25.2534V24.2277V35.0767H45.4215V24.2954V23.9483Z" fill="#F26D5F"/>
</g>
<path fill-rule="evenodd" clip-rule="evenodd" d="M10.1602 9.88965V25.5063H12.175V16.1868V14.8817C12.175 14.7674 12.175 14.6545 12.175 14.5402C12.175 14.4443 12.1764 14.3483 12.1793 14.2524C12.1849 14.0436 12.1976 13.8333 12.2343 13.6273C12.2724 13.4185 12.3331 13.2238 12.4304 13.0333C12.525 12.8471 12.6491 12.6749 12.7987 12.5268C12.9468 12.3786 13.1176 12.2544 13.3052 12.1585C13.4943 12.064 13.689 12.0019 13.8978 11.9652C14.1038 11.9285 14.3141 11.9158 14.5229 11.9102C14.6188 11.9073 14.7148 11.9059 14.8107 11.9059C14.925 11.9059 15.0379 11.9059 15.1522 11.9059H16.4573H42.3473H42.4475C42.5618 11.9059 42.6747 11.9059 42.789 11.9059C42.8849 11.9059 42.9809 11.9073 43.0768 11.9102C43.2856 11.9158 43.4959 11.9285 43.7019 11.9652C43.9107 12.0033 44.1054 12.064 44.2959 12.1613C44.4821 12.2559 44.6543 12.38 44.8024 12.5296C44.9506 12.6777 45.0748 12.8485 45.1707 13.0361C45.2681 13.2266 45.3287 13.4213 45.3668 13.6301C45.4035 13.8361 45.4162 14.0464 45.4219 14.2552C45.4247 14.3512 45.4261 14.4471 45.4261 14.543C45.4261 14.6573 45.4261 14.7702 45.4261 14.8845V16.1897V25.5092H47.441V9.88965H10.1602Z" fill="#D9D6CC"/>
<g filter="url(#filter3_d_568_1489)">
<path fill-rule="evenodd" clip-rule="evenodd" d="M38.0735 23.9951C37.8576 23.9951 37.6403 23.9951 37.4244 23.9965C37.2424 23.9979 37.0604 23.9994 36.8784 24.005C36.4819 24.0163 36.0812 24.0389 35.6889 24.1094C35.2911 24.1814 34.92 24.2985 34.5588 24.4819C34.5122 24.5059 33.5175 24.9574 32.6229 26.3486C31.9442 27.4054 30.6235 28.5258 28.7738 28.5258C26.9254 28.5258 25.6047 27.4054 24.9246 26.3486C23.9835 24.8826 22.9097 24.4424 22.9873 24.4819C22.6261 24.2971 22.255 24.18 21.8571 24.1094C21.4649 24.0389 21.0642 24.0149 20.6677 24.005C20.4857 24.0008 20.3037 23.9979 20.1216 23.9965C19.9058 23.9951 19.6885 23.9951 19.4726 23.9951H10.1602V38.1006H47.4396V23.9951H38.0735Z" fill="#DEDBCE"/>
</g>
</g>
<defs>
<filter id="filter0_d_568_1489" x="9.17188" y="11.7258" width="39.25" height="20.1074" filterUnits="userSpaceOnUse" color-interpolation-filters="sRGB">
<feFlood flood-opacity="0" result="BackgroundImageFix"/>
<feColorMatrix in="SourceAlpha" type="matrix" values="0 0 0 0 0 0 0 0 0 0 0 0 0 0 0 0 0 0 127 0" result="hardAlpha"/>
<feOffset dy="-0.2"/>
<feGaussianBlur stdDeviation="1.5"/>
<feComposite in2="hardAlpha" operator="out"/>
<feColorMatrix type="matrix" values="0 0 0 0 0 0 0 0 0 0 0 0 0 0 0 0 0 0 0.12 0"/>
<feBlend mode="normal" in2="BackgroundImageFix" result="effect1_dropShadow_568_1489"/>
<feBlend mode="normal" in="SourceGraphic" in2="effect1_dropShadow_568_1489" result="shape"/>
</filter>
<filter id="filter1_d_568_1489" x="9.17188" y="14.7473" width="39.25" height="20.1074" filterUnits="userSpaceOnUse" color-interpolation-filters="sRGB">
<feFlood flood-opacity="0" result="BackgroundImageFix"/>
<feColorMatrix in="SourceAlpha" type="matrix" values="0 0 0 0 0 0 0 0 0 0 0 0 0 0 0 0 0 0 127 0" result="hardAlpha"/>
<feOffset dy="-0.2"/>
<feGaussianBlur stdDeviation="1.5"/>
<feComposite in2="hardAlpha" operator="out"/>
<feColorMatrix type="matrix" values="0 0 0 0 0 0 0 0 0 0 0 0 0 0 0 0 0 0 0.12 0"/>
<feBlend mode="normal" in2="BackgroundImageFix" result="effect1_dropShadow_568_1489"/>
<feBlend mode="normal" in="SourceGraphic" in2="effect1_dropShadow_568_1489" result="shape"/>
</filter>
<filter id="filter2_d_568_1489" x="9.17188" y="17.7697" width="39.25" height="20.1074" filterUnits="userSpaceOnUse" color-interpolation-filters="sRGB">
<feFlood flood-opacity="0" result="BackgroundImageFix"/>
<feColorMatrix in="SourceAlpha" type="matrix" values="0 0 0 0 0 0 0 0 0 0 0 0 0 0 0 0 0 0 127 0" result="hardAlpha"/>
<feOffset dy="-0.2"/>
<feGaussianBlur stdDeviation="1.5"/>
<feComposite in2="hardAlpha" operator="out"/>
<feColorMatrix type="matrix" values="0 0 0 0 0 0 0 0 0 0 0 0 0 0 0 0 0 0 0.12 0"/>
<feBlend mode="normal" in2="BackgroundImageFix" result="effect1_dropShadow_568_1489"/>
<feBlend mode="normal" in="SourceGraphic" in2="effect1_dropShadow_568_1489" result="shape"/>
</filter>
<filter id="filter3_d_568_1489" x="7.16016" y="20.7951" width="43.2812" height="20.1055" filterUnits="userSpaceOnUse" color-interpolation-filters="sRGB">
<feFlood flood-opacity="0" result="BackgroundImageFix"/>
<feColorMatrix in="SourceAlpha" type="matrix" values="0 0 0 0 0 0 0 0 0 0 0 0 0 0 0 0 0 0 127 0" result="hardAlpha"/>
<feOffset dy="-0.2"/>
<feGaussianBlur stdDeviation="1.5"/>
<feComposite in2="hardAlpha" operator="out"/>
<feColorMatrix type="matrix" values="0 0 0 0 0 0 0 0 0 0 0 0 0 0 0 0 0 0 0.12 0"/>
<feBlend mode="normal" in2="BackgroundImageFix" result="effect1_dropShadow_568_1489"/>
<feBlend mode="normal" in="SourceGraphic" in2="effect1_dropShadow_568_1489" result="shape"/>
</filter>
</defs>
</svg>
