<svg width="166" height="48" viewBox="0 0 166 48" fill="none" xmlns="http://www.w3.org/2000/svg">
<path d="M151.872 0.00141098H13.4508C12.933 0.00141098 12.4222 0.00141098 11.9072 0.00423293C11.4741 0.00705488 11.0465 0.0155207 10.6105 0.0225756C9.67083 0.0451512 8.72124 0.103001 7.78294 0.270907C6.839 0.437403 5.96137 0.719598 5.10209 1.15559C4.25692 1.58876 3.48511 2.15033 2.81772 2.81913C2.14327 3.48652 1.58312 4.26115 1.15559 5.10632C0.716776 5.9642 0.438814 6.84606 0.273729 7.79141C0.104412 8.72548 0.0451512 9.66942 0.0211646 10.6148C0.00846586 11.0479 0.00705488 11.4811 0 11.9143C0 12.4251 0 12.9372 0 13.4551V34.5463C0 35.067 0 35.5764 0 36.0899C0.00705488 36.5273 0.00846586 36.9521 0.0211646 37.3909C0.0451512 38.3362 0.104412 39.2816 0.273729 40.2156C0.438814 41.161 0.716776 42.0471 1.15559 42.9021C1.58312 43.7431 2.14327 44.5163 2.81772 45.1795C3.48511 45.8525 4.25692 46.4141 5.10068 46.8416C5.95996 47.2818 6.83759 47.5612 7.78294 47.7319C8.71983 47.8998 9.67083 47.9548 10.6105 47.9817C11.0465 47.9915 11.4755 47.9972 11.9072 47.9972C12.4236 48 12.9344 48 13.4522 48H151.873C152.38 48 152.895 48 153.403 47.9972C153.833 47.9972 154.273 47.9915 154.704 47.9817C155.649 47.9563 156.597 47.8998 157.526 47.7319C158.471 47.5612 159.35 47.2832 160.218 46.8416C161.06 46.4126 161.832 45.8525 162.499 45.1795C163.171 44.5163 163.731 43.7431 164.166 42.9021C164.599 42.0471 164.88 41.161 165.039 40.2156C165.213 39.2816 165.268 38.3362 165.302 37.3909C165.307 36.9521 165.307 36.5288 165.307 36.0899C165.318 35.5778 165.318 35.0684 165.318 34.5463V13.4537C165.318 12.9372 165.318 12.4251 165.307 11.9129C165.307 11.4797 165.307 11.0465 165.302 10.6134C165.269 9.66801 165.214 8.72265 165.039 7.78859C164.88 6.84323 164.599 5.96137 164.166 5.1035C163.73 4.25833 163.171 3.48511 162.499 2.81631C161.832 2.14751 161.062 1.58594 160.218 1.15277C159.35 0.715365 158.471 0.43317 157.526 0.268085C156.597 0.100179 155.649 0.0423293 154.704 0.0183427C154.273 0.0112878 153.833 0.00282195 153.403 0C152.895 0.00141098 152.378 0.00141098 151.872 0.00141098Z" fill="#A6A6A6"/>
<path d="M151.873 0.918945C152.378 0.918945 152.891 0.918945 153.397 0.921767C153.744 0.924589 154.099 0.930233 154.449 0.935877L154.681 0.94011C155.427 0.958453 156.405 1.00219 157.367 1.17574C158.24 1.32813 159.038 1.59057 159.798 1.97294C160.559 2.36378 161.249 2.86609 161.851 3.46999C162.448 4.0626 162.952 4.75398 163.345 5.51873C163.728 6.27924 163.986 7.07221 164.135 7.95831C164.301 8.84722 164.351 9.77564 164.382 10.6265C164.388 11.0554 164.388 11.4857 164.388 11.933C164.399 12.4382 164.399 12.9433 164.399 13.4541V34.5453C164.399 35.0589 164.399 35.5626 164.388 36.0889C164.388 36.5235 164.388 36.944 164.382 37.3574C164.351 38.228 164.301 39.1564 164.133 40.0608C163.984 40.9385 163.726 41.7314 163.35 42.4778C162.949 43.2525 162.445 43.941 161.845 44.5322C161.249 45.1347 160.561 45.6356 159.801 46.0222C159.052 46.4032 158.253 46.6656 157.361 46.8279C156.437 46.9958 155.486 47.0409 154.683 47.0635C154.26 47.0734 153.827 47.079 153.398 47.079C152.893 47.0819 152.379 47.0819 151.874 47.0819H13.4517C12.9367 47.0819 12.4273 47.0819 11.9067 47.079C11.4819 47.079 11.0601 47.0734 10.6354 47.0649C9.82828 47.0423 8.8787 46.9972 7.94604 46.8293C7.05289 46.6684 6.25851 46.4046 5.51634 46.0236C4.75582 45.6384 4.06727 45.1361 3.46055 44.5238C2.86512 43.9382 2.36422 43.2525 1.97197 42.4821C1.59383 41.7441 1.3328 40.9498 1.17618 40.0495C1.00122 39.0887 0.957476 38.1109 0.937722 37.363C0.929257 37.0696 0.925024 36.7831 0.922202 36.4939L0.917969 36.0889V34.5453V13.4541V11.9288L0.923613 11.5069C0.926435 11.2191 0.930668 10.9312 0.939133 10.6392C0.957476 9.89416 1.00263 8.91636 1.179 7.94843C1.33421 7.05951 1.59383 6.26655 1.97479 5.52014C2.36281 4.75398 2.86371 4.06401 3.4676 3.46717C4.06868 2.86468 4.76006 2.36237 5.51775 1.97436C6.27404 1.58916 7.067 1.32813 7.94604 1.17433C8.91115 1.00078 9.89037 0.957042 10.6255 0.938699L10.9049 0.934466C11.2421 0.928822 11.5765 0.923178 11.9123 0.921767C12.4259 0.918945 12.9367 0.918945 13.4517 0.918945H151.873Z" fill="black"/>
<mask id="mask0_568_2688" style="mask-type:luminance" maskUnits="userSpaceOnUse" x="10" y="10" width="37" height="28">
<path d="M46.9374 32.5304V32.9043C46.9374 33.0835 46.9374 33.2627 46.936 33.4419C46.9346 33.5928 46.9332 33.7438 46.929 33.8948C46.9205 34.2235 46.9008 34.5551 46.8429 34.8796C46.7836 35.2098 46.6863 35.5174 46.5339 35.8165C46.3843 36.1114 46.1882 36.3809 45.954 36.6137C45.7198 36.8479 45.4503 37.0427 45.1568 37.1936C44.8577 37.346 44.5501 37.4434 44.2199 37.5026C43.8954 37.5605 43.5638 37.5802 43.235 37.5887C43.0841 37.5929 42.9331 37.5944 42.7821 37.5958C42.6029 37.5972 42.4237 37.5972 42.2445 37.5972L40.1859 37.5958L42.102 37.5972H15.4995L17.4156 37.5958L15.357 37.5972C15.1778 37.5972 14.9986 37.5972 14.8194 37.5958C14.6684 37.5944 14.5174 37.5929 14.3665 37.5887C14.0377 37.5802 13.7061 37.5605 13.3816 37.5026C13.0514 37.4434 12.7453 37.346 12.4447 37.1936C12.1498 37.0441 11.8803 36.8479 11.6475 36.6137C11.4133 36.3795 11.2186 36.11 11.0676 35.8165C10.9152 35.5174 10.8179 35.2098 10.7586 34.8796C10.7007 34.5551 10.681 34.2235 10.6725 33.8948C10.6683 33.7438 10.6669 33.5928 10.6655 33.4419C10.6641 33.2627 10.6641 33.0835 10.6641 32.9043V32.6108V15.3799V17.1437V15.0851C10.6641 14.9059 10.6641 14.7267 10.6655 14.5475C10.6669 14.3965 10.6683 14.2455 10.6725 14.0945C10.681 13.7658 10.7007 13.4342 10.7586 13.1097C10.8179 12.7795 10.9152 12.4719 11.0676 12.1728C11.2172 11.8779 11.4133 11.6084 11.6475 11.3756C11.8817 11.1428 12.1512 10.9467 12.4461 10.7971C12.7453 10.6447 13.0528 10.5474 13.383 10.4881C13.7075 10.4302 14.0391 10.4105 14.3679 10.402C14.5188 10.3978 14.6698 10.3964 14.8208 10.395C15 10.3936 15.1792 10.3936 15.3584 10.3936H17.417H42.1034H42.2445C42.4237 10.3936 42.6029 10.3936 42.7821 10.395C42.9331 10.3964 43.0841 10.3978 43.235 10.402C43.5638 10.4105 43.8954 10.4302 44.2199 10.4881C44.5501 10.5474 44.8562 10.6447 45.1568 10.7971C45.4517 10.9467 45.7212 11.1428 45.954 11.377C46.1882 11.6112 46.3829 11.8807 46.5339 12.1742C46.6863 12.4733 46.7836 12.7809 46.8429 13.1111C46.9008 13.4356 46.9205 13.7672 46.929 14.096C46.9332 14.2469 46.9346 14.3979 46.936 14.5489C46.9374 14.7281 46.9374 14.9073 46.9374 15.0865V15.4604V32.5304Z" fill="white"/>
</mask>
<g mask="url(#mask0_568_2688)">
<path d="M45.7858 11.5264H11.7812V35.204H45.7858V11.5264Z" fill="#DEDBCE"/>
<path d="M45.4254 11.9043H12.1758V26.0098H45.4254V11.9043Z" fill="#40A5D9"/>
<g filter="url(#filter0_d_568_2688)">
<path fill-rule="evenodd" clip-rule="evenodd" d="M45.4215 17.9044C45.4215 17.7901 45.4215 17.6772 45.4215 17.5629C45.4215 17.467 45.4201 17.371 45.4173 17.2751C45.4117 17.0662 45.399 16.856 45.3623 16.65C45.3242 16.4412 45.2635 16.2465 45.1661 16.056C45.0716 15.8697 44.9474 15.6976 44.7979 15.5494C44.6497 15.4013 44.479 15.2771 44.2913 15.1812C44.1009 15.0838 43.9061 15.0231 43.6973 14.985C43.4913 14.9484 43.2811 14.9357 43.0723 14.93C42.9763 14.9272 42.8804 14.9258 42.7844 14.9258C42.6701 14.9258 42.5573 14.9258 42.443 14.9258H42.3498H16.4556H15.1504C15.0362 14.9258 14.9233 14.9258 14.809 14.9258C14.713 14.9258 14.6171 14.9272 14.5212 14.93C14.3123 14.9357 14.1021 14.9484 13.8961 14.985C13.6873 15.0231 13.4925 15.0838 13.3021 15.1812C13.1158 15.2757 12.9437 15.3999 12.7955 15.5494C12.6474 15.6976 12.5232 15.8683 12.4273 16.056C12.3299 16.2465 12.2692 16.4412 12.2311 16.65C12.1945 16.856 12.1818 17.0662 12.1761 17.2751C12.1733 17.371 12.1719 17.467 12.1719 17.5629C12.1719 17.6772 12.1719 17.7901 12.1719 17.9044V19.2095V18.1837V29.0327H45.4215V18.2515V17.9044Z" fill="#FFB003"/>
</g>
<g filter="url(#filter1_d_568_2688)">
<path fill-rule="evenodd" clip-rule="evenodd" d="M45.4215 20.9258C45.4215 20.8115 45.4215 20.6987 45.4215 20.5844C45.4215 20.4884 45.4201 20.3925 45.4173 20.2965C45.4117 20.0877 45.399 19.8775 45.3623 19.6715C45.3242 19.4627 45.2635 19.2679 45.1661 19.0775C45.0716 18.8912 44.9474 18.7191 44.7979 18.5709C44.6497 18.4228 44.479 18.2986 44.2913 18.2027C44.1009 18.1053 43.9061 18.0446 43.6973 18.0065C43.4913 17.9698 43.2811 17.9571 43.0723 17.9515C42.9763 17.9487 42.8804 17.9473 42.7844 17.9473C42.6701 17.9473 42.5573 17.9473 42.443 17.9473H42.3484H16.4556H15.1504C15.0362 17.9473 14.9233 17.9473 14.809 17.9473C14.713 17.9473 14.6171 17.9487 14.5212 17.9515C14.3123 17.9571 14.1021 17.9698 13.8961 18.0065C13.6873 18.0446 13.4925 18.1053 13.3021 18.2027C13.1158 18.2972 12.9437 18.4214 12.7955 18.5709C12.6474 18.7191 12.5232 18.8898 12.4273 19.0775C12.3299 19.2679 12.2692 19.4627 12.2311 19.6715C12.1945 19.8775 12.1818 20.0877 12.1761 20.2965C12.1733 20.3925 12.1719 20.4884 12.1719 20.5844C12.1719 20.6987 12.1719 20.8115 12.1719 20.9258V22.231V21.2052V32.0542H45.4215V21.2729V20.9258Z" fill="#40C740"/>
</g>
<g filter="url(#filter2_d_568_2688)">
<path fill-rule="evenodd" clip-rule="evenodd" d="M45.4215 23.9483C45.4215 23.834 45.4215 23.7211 45.4215 23.6068C45.4215 23.5109 45.4201 23.4149 45.4173 23.319C45.4117 23.1102 45.399 22.8999 45.3623 22.6939C45.3242 22.4851 45.2635 22.2904 45.1661 22.0999C45.0716 21.9137 44.9474 21.7415 44.7979 21.5934C44.6497 21.4452 44.479 21.3211 44.2913 21.2251C44.1009 21.1278 43.9061 21.0671 43.6973 21.029C43.4913 20.9923 43.2811 20.9796 43.0723 20.974C42.9763 20.9711 42.8804 20.9697 42.7844 20.9697C42.6701 20.9697 42.5573 20.9697 42.443 20.9697H42.3484H16.4556H15.1504C15.0362 20.9697 14.9233 20.9697 14.809 20.9697C14.713 20.9697 14.6171 20.9711 14.5212 20.974C14.3123 20.9796 14.1021 20.9923 13.8961 21.029C13.6873 21.0671 13.4925 21.1278 13.3021 21.2251C13.1158 21.3196 12.9437 21.4438 12.7955 21.5934C12.6474 21.7415 12.5232 21.9123 12.4273 22.0999C12.3299 22.2904 12.2692 22.4851 12.2311 22.6939C12.1945 22.8999 12.1818 23.1102 12.1761 23.319C12.1733 23.4149 12.1719 23.5109 12.1719 23.6068C12.1719 23.7211 12.1719 23.834 12.1719 23.9483V25.2534V24.2277V35.0767H45.4215V24.2954V23.9483Z" fill="#F26D5F"/>
</g>
<path fill-rule="evenodd" clip-rule="evenodd" d="M10.1602 9.88965V25.5063H12.175V16.1868V14.8817C12.175 14.7674 12.175 14.6545 12.175 14.5402C12.175 14.4443 12.1764 14.3483 12.1793 14.2524C12.1849 14.0436 12.1976 13.8333 12.2343 13.6273C12.2724 13.4185 12.3331 13.2238 12.4304 13.0333C12.525 12.8471 12.6491 12.6749 12.7987 12.5268C12.9468 12.3786 13.1176 12.2544 13.3052 12.1585C13.4943 12.064 13.689 12.0019 13.8978 11.9652C14.1038 11.9285 14.3141 11.9158 14.5229 11.9102C14.6188 11.9073 14.7148 11.9059 14.8107 11.9059C14.925 11.9059 15.0379 11.9059 15.1522 11.9059H16.4573H42.3473H42.4475C42.5618 11.9059 42.6747 11.9059 42.789 11.9059C42.8849 11.9059 42.9809 11.9073 43.0768 11.9102C43.2856 11.9158 43.4959 11.9285 43.7019 11.9652C43.9107 12.0033 44.1054 12.064 44.2959 12.1613C44.4822 12.2559 44.6543 12.38 44.8024 12.5296C44.9506 12.6777 45.0748 12.8485 45.1707 13.0361C45.2681 13.2266 45.3287 13.4213 45.3668 13.6301C45.4035 13.8361 45.4162 14.0464 45.4219 14.2552C45.4247 14.3512 45.4261 14.4471 45.4261 14.543C45.4261 14.6573 45.4261 14.7702 45.4261 14.8845V16.1897V25.5092H47.441V9.88965H10.1602Z" fill="#D9D6CC"/>
<g filter="url(#filter3_d_568_2688)">
<path fill-rule="evenodd" clip-rule="evenodd" d="M38.0735 23.9951C37.8576 23.9951 37.6403 23.9951 37.4244 23.9965C37.2424 23.9979 37.0604 23.9994 36.8784 24.005C36.4819 24.0163 36.0812 24.0389 35.6889 24.1094C35.2911 24.1814 34.92 24.2985 34.5588 24.4819C34.5122 24.5059 33.5175 24.9574 32.6229 26.3486C31.9442 27.4054 30.6235 28.5258 28.7738 28.5258C26.9254 28.5258 25.6047 27.4054 24.9246 26.3486C23.9835 24.8826 22.9097 24.4424 22.9873 24.4819C22.6261 24.2971 22.255 24.18 21.8571 24.1094C21.4649 24.0389 21.0642 24.0149 20.6677 24.005C20.4857 24.0008 20.3037 23.9979 20.1216 23.9965C19.9058 23.9951 19.6885 23.9951 19.4726 23.9951H10.1602V38.1006H47.4396V23.9951H38.0735Z" fill="#DEDBCE"/>
</g>
</g>
<path d="M54.8789 24.918H59.1104C61.3398 24.918 62.8848 26.415 62.8848 28.6458V28.6613C62.8848 30.8836 61.3398 32.4046 59.1104 32.4046H56.644V36.289H54.8789V24.918ZM56.644 26.4065V30.9217H58.6688C60.2053 30.9217 61.0886 30.0948 61.0886 28.6683V28.6528C61.0886 27.2348 60.2053 26.4065 58.6688 26.4065H56.644Z" fill="white"/>
<path d="M63.8633 32.1429V32.1274C63.8633 29.4804 65.4309 27.8408 67.7872 27.8408C70.152 27.8408 71.7267 29.4719 71.7267 32.1274V32.1429C71.7267 34.8139 70.1675 36.4534 67.7957 36.4534C65.4168 36.4534 63.8633 34.8068 63.8633 32.1429ZM69.9869 32.1429V32.1274C69.9869 30.3143 69.1206 29.2673 67.7872 29.2673C66.4792 29.2673 65.6044 30.3157 65.6044 32.1274V32.1429C65.6044 33.9786 66.4708 35.0269 67.8041 35.0269C69.1347 35.0269 69.9869 33.9715 69.9869 32.1429Z" fill="white"/>
<path d="M73.4102 27.9988H75.1118V29.4169H75.1513C75.418 28.4475 76.1122 27.8408 77.0589 27.8408C77.303 27.8408 77.5147 27.8803 77.6501 27.9029V29.4874C77.5147 29.4324 77.2156 29.3929 76.8854 29.3929C75.7905 29.3929 75.1118 30.1097 75.1118 31.3471V36.2869H73.4102V27.9988Z" fill="white"/>
<path d="M79.5424 34.1063V29.3542H78.3516V27.9996H79.5424V25.8408H81.2836V27.9996H82.8356V29.3542H81.2836V34.0033C81.2836 34.8471 81.6617 35.0982 82.3771 35.0982C82.5591 35.0982 82.7087 35.0827 82.8342 35.0672V36.3836C82.6367 36.4147 82.315 36.4542 81.9679 36.4542C80.3312 36.4542 79.5424 35.7614 79.5424 34.1063Z" fill="white"/>
<path d="M85.096 29.3537H83.9531V27.9992H85.096V27.1173C85.096 25.5102 85.8523 24.7539 87.5384 24.7539C87.8855 24.7539 88.2637 24.7849 88.4922 24.8245V26.0859C88.3272 26.0619 88.1127 26.0464 87.901 26.0464C87.1363 26.0464 86.7737 26.4174 86.7737 27.1497V28.002H88.4598V29.3565H86.8047V36.2915H85.0946L85.096 29.3537Z" fill="white"/>
<path d="M89.0742 32.1753V32.1669C89.0742 29.5749 90.5727 27.8408 92.8966 27.8408C95.2204 27.8408 96.6469 29.5114 96.6469 32.0018V32.5775H90.7759C90.8069 34.1451 91.6676 35.0594 93.0221 35.0594C94.031 35.0594 94.6998 34.5387 94.9143 33.9165L94.9382 33.8544H96.5538L96.5383 33.9419C96.2702 35.2583 94.9933 36.4548 92.984 36.4548C90.5487 36.4534 89.0742 34.7913 89.0742 32.1753ZM90.8013 31.3711H94.9608C94.8183 29.9361 94.0155 29.2349 92.9036 29.2349C91.8016 29.2349 90.9494 29.9841 90.8013 31.3711Z" fill="white"/>
<path d="M98.3906 24.918H100.092V36.289H98.3906V24.918Z" fill="white"/>
<path d="M101.871 33.932V33.9165C101.871 32.4745 102.99 31.5926 104.953 31.4741L107.206 31.34V30.7178C107.206 29.8035 106.615 29.2518 105.559 29.2518C104.575 29.2518 103.968 29.7174 103.825 30.3792L103.81 30.4497H102.201L102.21 30.3622C102.327 28.9357 103.564 27.8408 105.605 27.8408C107.631 27.8408 108.915 28.9118 108.915 30.5753V36.2883H107.205V34.9804H107.174C106.694 35.8707 105.733 36.4379 104.637 36.4379C102.982 36.4379 101.871 35.422 101.871 33.932ZM105.101 35.0749C106.3 35.0749 107.205 34.2636 107.205 33.1842V32.538L105.18 32.6635C104.154 32.7256 103.587 33.1757 103.587 33.877V33.8925C103.587 34.6177 104.187 35.0749 105.101 35.0749Z" fill="white"/>
<path d="M118.051 24.918H119.958L124.088 36.289H122.237L121.197 33.2159H116.816L115.769 36.289H113.918L118.051 24.918ZM117.286 31.7979H120.715L119.02 26.8016H118.99L117.286 31.7979Z" fill="white"/>
<path d="M125.18 27.9988H126.881V29.4253H126.921C127.417 28.4405 128.33 27.8408 129.513 27.8408C131.625 27.8408 132.98 29.4959 132.98 32.1429V32.1499C132.98 34.7899 131.617 36.452 129.537 36.452C128.363 36.452 127.409 35.8538 126.921 34.8929H126.881V39.0454H125.18V27.9988ZM131.247 32.1513V32.1429C131.247 30.3778 130.403 29.2984 129.073 29.2984C127.78 29.2984 126.873 30.4173 126.873 32.1429V32.1499C126.873 33.8685 127.787 34.9874 129.073 34.9874C130.412 34.9874 131.247 33.8995 131.247 32.1513Z" fill="white"/>
<path d="M134.664 27.9988H136.366V29.4253H136.405C136.902 28.4405 137.815 27.8408 138.997 27.8408C141.109 27.8408 142.464 29.4959 142.464 32.1429V32.1499C142.464 34.7899 141.101 36.452 139.021 36.452C137.847 36.452 136.893 35.8538 136.405 34.8929H136.366V39.0454H134.664V27.9988ZM140.731 32.1513V32.1429C140.731 30.3778 139.887 29.2984 138.557 29.2984C137.264 29.2984 136.357 30.4173 136.357 32.1429V32.1499C136.357 33.8685 137.272 34.9874 138.557 34.9874C139.896 34.9874 140.731 33.8995 140.731 32.1513Z" fill="white"/>
<path d="M143.965 24.918H145.666V36.289H143.965V24.918Z" fill="white"/>
<path d="M147.324 32.1753V32.1669C147.324 29.5749 148.823 27.8408 151.147 27.8408C153.47 27.8408 154.897 29.5114 154.897 32.0018V32.5775H149.026C149.057 34.1451 149.918 35.0594 151.272 35.0594C152.281 35.0594 152.95 34.5387 153.164 33.9165L153.188 33.8544H154.804L154.788 33.9419C154.52 35.2583 153.243 36.4548 151.234 36.4548C148.799 36.4534 147.324 34.7913 147.324 32.1753ZM149.051 31.3711H153.211C153.068 29.9361 152.265 29.2349 151.154 29.2349C150.052 29.2349 149.201 29.9841 149.051 31.3711Z" fill="white"/>
<path d="M57.7704 11.5166C60.3046 11.5166 61.8016 13.0983 61.8016 15.7848C61.8016 18.4784 60.3088 20.0601 57.7704 20.0601H54.8398V11.5166H57.7704ZM55.9037 19.1006H57.6971C59.6047 19.1006 60.7109 17.8815 60.7109 15.7961C60.7109 13.7064 59.592 12.4747 57.6971 12.4747H55.9037V19.1006Z" fill="white"/>
<path d="M63.1797 16.8685C63.1797 14.8141 64.3042 13.5654 66.123 13.5654C67.9403 13.5654 69.0649 14.8141 69.0649 16.8685C69.0649 18.9173 67.9403 20.1716 66.123 20.1716C64.3042 20.1716 63.1797 18.9173 63.1797 16.8685ZM68.0109 16.8685C68.0109 15.3531 67.3308 14.4826 66.123 14.4826C64.9152 14.4826 64.2337 15.3531 64.2337 16.8685C64.2337 18.3783 64.9138 19.2545 66.123 19.2545C67.3294 19.2545 68.0109 18.3783 68.0109 16.8685Z" fill="white"/>
<path d="M70.3281 16.8679C70.3281 14.8671 71.3878 13.5648 73.0104 13.5648C73.8979 13.5648 74.6499 13.9853 75.0112 14.6837H75.0986V11.1436H76.1174V20.0595H75.148V19.0408H75.0535C74.6514 19.7505 73.8937 20.171 73.0118 20.171C71.3765 20.171 70.3281 18.8757 70.3281 16.8679ZM71.3821 16.8679C71.3821 18.3607 72.0806 19.2538 73.246 19.2538C74.4073 19.2538 75.124 18.3424 75.124 16.8679C75.124 15.4047 74.4002 14.4819 73.246 14.4819C72.0862 14.4819 71.3821 15.3821 71.3821 16.8679Z" fill="white"/>
<path d="M77.7031 18.2724C77.7031 17.1296 78.5441 16.472 80.0298 16.3831L81.8711 16.2703V15.6904C81.8711 14.903 81.3787 14.4713 80.4277 14.4713C79.663 14.4713 79.131 14.7619 78.9885 15.2642H77.9585C78.0954 14.2399 79.1014 13.5654 80.4616 13.5654C82.0193 13.5654 82.8899 14.364 82.8899 15.6904V20.0602H81.9191V19.119H81.826C81.4112 19.7991 80.7127 20.173 79.8591 20.173C78.6203 20.1716 77.7031 19.4379 77.7031 18.2724ZM81.8711 17.6798V17.0943L80.154 17.2072C79.1832 17.2721 78.7571 17.6093 78.7571 18.2485C78.7571 18.9003 79.3088 19.2785 80.0482 19.2785C81.0951 19.2785 81.8711 18.5913 81.8711 17.6798Z" fill="white"/>
<path d="M85.796 20.3731C85.796 21.6881 85.1795 22.2511 83.8418 22.2511H83.6641V21.3805H83.8179C84.5403 21.3805 84.7773 21.0969 84.7773 20.3914V13.6766H85.796V20.3731ZM84.5897 11.7351C84.5897 11.3443 84.91 11.0254 85.2994 11.0254C85.6902 11.0254 86.0105 11.3457 86.0105 11.7351C86.0105 12.1245 85.6902 12.4448 85.2994 12.4448C84.9085 12.4448 84.5897 12.126 84.5897 11.7351Z" fill="white"/>
<path d="M90.8125 16.8679C90.8125 14.8671 91.8721 13.5648 93.4948 13.5648C94.3823 13.5648 95.1343 13.9853 95.4955 14.6837H95.583V11.1436H96.6017V20.0595H95.631V19.0408H95.5364C95.1343 19.7505 94.3766 20.171 93.4948 20.171C91.8609 20.171 90.8125 18.8757 90.8125 16.8679ZM91.8665 16.8679C91.8665 18.3607 92.5649 19.2538 93.7304 19.2538C94.8916 19.2538 95.6084 18.3424 95.6084 16.8679C95.6084 15.4047 94.8846 14.4819 93.7304 14.4819C92.5706 14.4819 91.8665 15.3821 91.8665 16.8679Z" fill="white"/>
<path d="M98.2461 16.8685C98.2461 14.8141 99.3706 13.5654 101.189 13.5654C103.007 13.5654 104.131 14.8141 104.131 16.8685C104.131 18.9173 103.007 20.1716 101.189 20.1716C99.3706 20.1716 98.2461 18.9173 98.2461 16.8685ZM103.077 16.8685C103.077 15.3531 102.397 14.4826 101.189 14.4826C99.9816 14.4826 99.3001 15.3531 99.3001 16.8685C99.3001 18.3783 99.9802 19.2545 101.189 19.2545C102.397 19.2545 103.077 18.3783 103.077 16.8685Z" fill="white"/>
<defs>
<filter id="filter0_d_568_2688" x="9.17188" y="11.7258" width="39.25" height="20.1074" filterUnits="userSpaceOnUse" color-interpolation-filters="sRGB">
<feFlood flood-opacity="0" result="BackgroundImageFix"/>
<feColorMatrix in="SourceAlpha" type="matrix" values="0 0 0 0 0 0 0 0 0 0 0 0 0 0 0 0 0 0 127 0" result="hardAlpha"/>
<feOffset dy="-0.2"/>
<feGaussianBlur stdDeviation="1.5"/>
<feComposite in2="hardAlpha" operator="out"/>
<feColorMatrix type="matrix" values="0 0 0 0 0 0 0 0 0 0 0 0 0 0 0 0 0 0 0.12 0"/>
<feBlend mode="normal" in2="BackgroundImageFix" result="effect1_dropShadow_568_2688"/>
<feBlend mode="normal" in="SourceGraphic" in2="effect1_dropShadow_568_2688" result="shape"/>
</filter>
<filter id="filter1_d_568_2688" x="9.17188" y="14.7473" width="39.25" height="20.1074" filterUnits="userSpaceOnUse" color-interpolation-filters="sRGB">
<feFlood flood-opacity="0" result="BackgroundImageFix"/>
<feColorMatrix in="SourceAlpha" type="matrix" values="0 0 0 0 0 0 0 0 0 0 0 0 0 0 0 0 0 0 127 0" result="hardAlpha"/>
<feOffset dy="-0.2"/>
<feGaussianBlur stdDeviation="1.5"/>
<feComposite in2="hardAlpha" operator="out"/>
<feColorMatrix type="matrix" values="0 0 0 0 0 0 0 0 0 0 0 0 0 0 0 0 0 0 0.12 0"/>
<feBlend mode="normal" in2="BackgroundImageFix" result="effect1_dropShadow_568_2688"/>
<feBlend mode="normal" in="SourceGraphic" in2="effect1_dropShadow_568_2688" result="shape"/>
</filter>
<filter id="filter2_d_568_2688" x="9.17188" y="17.7697" width="39.25" height="20.1074" filterUnits="userSpaceOnUse" color-interpolation-filters="sRGB">
<feFlood flood-opacity="0" result="BackgroundImageFix"/>
<feColorMatrix in="SourceAlpha" type="matrix" values="0 0 0 0 0 0 0 0 0 0 0 0 0 0 0 0 0 0 127 0" result="hardAlpha"/>
<feOffset dy="-0.2"/>
<feGaussianBlur stdDeviation="1.5"/>
<feComposite in2="hardAlpha" operator="out"/>
<feColorMatrix type="matrix" values="0 0 0 0 0 0 0 0 0 0 0 0 0 0 0 0 0 0 0.12 0"/>
<feBlend mode="normal" in2="BackgroundImageFix" result="effect1_dropShadow_568_2688"/>
<feBlend mode="normal" in="SourceGraphic" in2="effect1_dropShadow_568_2688" result="shape"/>
</filter>
<filter id="filter3_d_568_2688" x="7.16016" y="20.7951" width="43.2812" height="20.1055" filterUnits="userSpaceOnUse" color-interpolation-filters="sRGB">
<feFlood flood-opacity="0" result="BackgroundImageFix"/>
<feColorMatrix in="SourceAlpha" type="matrix" values="0 0 0 0 0 0 0 0 0 0 0 0 0 0 0 0 0 0 127 0" result="hardAlpha"/>
<feOffset dy="-0.2"/>
<feGaussianBlur stdDeviation="1.5"/>
<feComposite in2="hardAlpha" operator="out"/>
<feColorMatrix type="matrix" values="0 0 0 0 0 0 0 0 0 0 0 0 0 0 0 0 0 0 0.12 0"/>
<feBlend mode="normal" in2="BackgroundImageFix" result="effect1_dropShadow_568_2688"/>
<feBlend mode="normal" in="SourceGraphic" in2="effect1_dropShadow_568_2688" result="shape"/>
</filter>
</defs>
</svg>
