<svg width="189" height="48" viewBox="0 0 189 48" fill="none" xmlns="http://www.w3.org/2000/svg">
<path d="M174.797 0.00141098H13.4508C12.933 0.00141098 12.4222 0.00141098 11.9072 0.00423293C11.4741 0.00705488 11.0465 0.0155207 10.6105 0.0225756C9.67083 0.0451512 8.72124 0.103001 7.78295 0.270907C6.839 0.437403 5.96138 0.719598 5.10209 1.15559C4.25692 1.58876 3.48511 2.15033 2.81772 2.81913C2.14327 3.48652 1.58312 4.26115 1.15559 5.10632C0.716776 5.9642 0.438814 6.84606 0.273729 7.79141C0.104412 8.72548 0.0451512 9.66942 0.0211646 10.6148C0.00846586 11.0479 0.00705488 11.4811 0 11.9143C0 12.4251 0 12.9372 0 13.4551V34.5463C0 35.067 0 35.5764 0 36.0899C0.00705488 36.5273 0.00846586 36.9521 0.0211646 37.3909C0.0451512 38.3362 0.104412 39.2816 0.273729 40.2156C0.438814 41.161 0.716776 42.0471 1.15559 42.9021C1.58312 43.7431 2.14327 44.5163 2.81772 45.1795C3.48511 45.8525 4.25692 46.4141 5.10068 46.8416C5.95996 47.2818 6.83759 47.5612 7.78295 47.7319C8.71983 47.8998 9.67083 47.9548 10.6105 47.9817C11.0465 47.9915 11.4755 47.9972 11.9072 47.9972C12.4236 48 12.9344 48 13.4522 48H174.799C175.305 48 175.82 48 176.328 47.9972C176.759 47.9972 177.199 47.9915 177.629 47.9817C178.575 47.9563 179.523 47.8998 180.451 47.7319C181.397 47.5612 182.276 47.2832 183.143 46.8416C183.987 46.4126 184.757 45.8525 185.425 45.1795C186.097 44.5163 186.657 43.7431 187.091 42.9021C187.524 42.0471 187.805 41.161 187.965 40.2156C188.138 39.2816 188.193 38.3362 188.227 37.3909C188.233 36.9521 188.233 36.5288 188.233 36.0899C188.244 35.5778 188.244 35.0684 188.244 34.5463V13.4537C188.244 12.9372 188.244 12.4251 188.233 11.9129C188.233 11.4797 188.233 11.0465 188.227 10.6134C188.195 9.66801 188.14 8.72265 187.965 7.78859C187.805 6.84323 187.524 5.96137 187.091 5.1035C186.655 4.25833 186.097 3.48511 185.425 2.81631C184.757 2.14751 183.987 1.58594 183.143 1.15277C182.276 0.715365 181.397 0.43317 180.451 0.268085C179.523 0.100179 178.575 0.0423293 177.629 0.0183427C177.199 0.0112878 176.759 0.00282195 176.328 0C175.819 0.00141098 175.304 0.00141098 174.797 0.00141098Z" fill="#A6A6A6"/>
<path d="M174.798 0.918945C175.303 0.918945 175.817 0.918945 176.322 0.921767C176.669 0.924589 177.025 0.930233 177.375 0.935877L177.606 0.94011C178.352 0.958453 179.33 1.00219 180.293 1.17574C181.166 1.32813 181.963 1.59057 182.724 1.97294C183.484 2.36378 184.174 2.86609 184.777 3.46999C185.373 4.0626 185.877 4.75398 186.271 5.51873C186.653 6.27924 186.911 7.07221 187.061 7.95831C187.226 8.84722 187.277 9.77564 187.308 10.6265C187.314 11.0554 187.314 11.4857 187.314 11.933C187.325 12.4382 187.325 12.9433 187.325 13.4541V34.5453C187.325 35.0589 187.325 35.5626 187.314 36.0889C187.314 36.5235 187.314 36.944 187.308 37.3574C187.277 38.228 187.226 39.1564 187.058 40.0608C186.91 40.9385 186.652 41.7314 186.275 42.4778C185.874 43.2525 185.371 43.941 184.771 44.5322C184.174 45.1347 183.487 45.6356 182.727 46.0222C181.977 46.4032 181.179 46.6656 180.287 46.8279C179.363 46.9958 178.412 47.0409 177.609 47.0635C177.186 47.0734 176.752 47.079 176.323 47.079C175.818 47.0819 175.305 47.0819 174.8 47.0819H13.4517C12.9367 47.0819 12.4273 47.0819 11.9067 47.079C11.4819 47.079 11.0601 47.0734 10.6354 47.0649C9.82828 47.0423 8.8787 46.9972 7.94604 46.8293C7.05289 46.6684 6.25851 46.4046 5.51634 46.0236C4.75582 45.6384 4.06727 45.1361 3.46055 44.5238C2.86512 43.9382 2.36422 43.2525 1.97197 42.4821C1.59383 41.7441 1.3328 40.9498 1.17618 40.0495C1.00122 39.0887 0.957476 38.1109 0.937722 37.363C0.929257 37.0696 0.925024 36.7831 0.922202 36.4939L0.917969 36.0889V34.5453V13.4541V11.9288L0.923613 11.5069C0.926435 11.2191 0.930668 10.9312 0.939133 10.6392C0.957476 9.89416 1.00263 8.91636 1.179 7.94843C1.33421 7.05951 1.59383 6.26655 1.97479 5.52014C2.36281 4.75398 2.86371 4.06401 3.4676 3.46717C4.06868 2.86468 4.76006 2.36237 5.51775 1.97436C6.27404 1.58916 7.067 1.32813 7.94604 1.17433C8.91115 1.00078 9.89037 0.957042 10.6255 0.938699L10.9049 0.934466C11.2421 0.928822 11.5765 0.923178 11.9123 0.921767C12.4259 0.918945 12.9367 0.918945 13.4517 0.918945H174.798Z" fill="black"/>
<mask id="mask0_568_1384" style="mask-type:luminance" maskUnits="userSpaceOnUse" x="10" y="10" width="37" height="28">
<path d="M46.9374 32.5304V32.9043C46.9374 33.0835 46.9374 33.2627 46.936 33.4419C46.9346 33.5928 46.9332 33.7438 46.929 33.8948C46.9205 34.2235 46.9008 34.5551 46.8429 34.8796C46.7837 35.2098 46.6863 35.5174 46.5339 35.8165C46.3843 36.1114 46.1882 36.3809 45.954 36.6137C45.7198 36.8479 45.4503 37.0427 45.1568 37.1936C44.8577 37.346 44.5501 37.4434 44.2199 37.5026C43.8954 37.5605 43.5638 37.5802 43.235 37.5887C43.0841 37.5929 42.9331 37.5944 42.7821 37.5958C42.6029 37.5972 42.4237 37.5972 42.2445 37.5972L40.1859 37.5958L42.102 37.5972H15.4995L17.4156 37.5958L15.357 37.5972C15.1778 37.5972 14.9986 37.5972 14.8194 37.5958C14.6684 37.5944 14.5174 37.5929 14.3665 37.5887C14.0377 37.5802 13.7061 37.5605 13.3816 37.5026C13.0514 37.4434 12.7453 37.346 12.4447 37.1936C12.1498 37.0441 11.8803 36.8479 11.6475 36.6137C11.4133 36.3795 11.2186 36.11 11.0676 35.8165C10.9152 35.5174 10.8179 35.2098 10.7586 34.8796C10.7007 34.5551 10.681 34.2235 10.6725 33.8948C10.6683 33.7438 10.6669 33.5928 10.6655 33.4419C10.6641 33.2627 10.6641 33.0835 10.6641 32.9043V32.6108V15.3799V17.1437V15.0851C10.6641 14.9059 10.6641 14.7267 10.6655 14.5475C10.6669 14.3965 10.6683 14.2455 10.6725 14.0945C10.681 13.7658 10.7007 13.4342 10.7586 13.1097C10.8179 12.7795 10.9152 12.4719 11.0676 12.1728C11.2172 11.8779 11.4133 11.6084 11.6475 11.3756C11.8817 11.1428 12.1512 10.9467 12.4461 10.7971C12.7453 10.6447 13.0528 10.5474 13.383 10.4881C13.7075 10.4302 14.0391 10.4105 14.3679 10.402C14.5189 10.3978 14.6698 10.3964 14.8208 10.395C15 10.3936 15.1792 10.3936 15.3584 10.3936H17.417H42.1034H42.2445C42.4237 10.3936 42.6029 10.3936 42.7821 10.395C42.9331 10.3964 43.0841 10.3978 43.235 10.402C43.5638 10.4105 43.8954 10.4302 44.2199 10.4881C44.5501 10.5474 44.8563 10.6447 45.1568 10.7971C45.4517 10.9467 45.7212 11.1428 45.954 11.377C46.1882 11.6112 46.3829 11.8807 46.5339 12.1742C46.6863 12.4733 46.7837 12.7809 46.8429 13.1111C46.9008 13.4356 46.9205 13.7672 46.929 14.096C46.9332 14.2469 46.9346 14.3979 46.936 14.5489C46.9374 14.7281 46.9374 14.9073 46.9374 15.0865V15.4604V32.5304Z" fill="white"/>
</mask>
<g mask="url(#mask0_568_1384)">
<path d="M45.7858 11.5264H11.7812V35.204H45.7858V11.5264Z" fill="#DEDBCE"/>
<path d="M45.4254 11.9043H12.1758V26.0098H45.4254V11.9043Z" fill="#40A5D9"/>
<g filter="url(#filter0_d_568_1384)">
<path fill-rule="evenodd" clip-rule="evenodd" d="M45.4215 17.9044C45.4215 17.7901 45.4215 17.6772 45.4215 17.5629C45.4215 17.467 45.4201 17.371 45.4173 17.2751C45.4117 17.0662 45.399 16.856 45.3623 16.65C45.3242 16.4412 45.2635 16.2465 45.1661 16.056C45.0716 15.8697 44.9474 15.6976 44.7979 15.5494C44.6497 15.4013 44.479 15.2771 44.2913 15.1812C44.1009 15.0838 43.9061 15.0231 43.6973 14.985C43.4913 14.9484 43.2811 14.9357 43.0723 14.93C42.9763 14.9272 42.8804 14.9258 42.7844 14.9258C42.6701 14.9258 42.5573 14.9258 42.443 14.9258H42.3498H16.4556H15.1504C15.0362 14.9258 14.9233 14.9258 14.809 14.9258C14.713 14.9258 14.6171 14.9272 14.5212 14.93C14.3123 14.9357 14.1021 14.9484 13.8961 14.985C13.6873 15.0231 13.4925 15.0838 13.3021 15.1812C13.1158 15.2757 12.9437 15.3999 12.7955 15.5494C12.6474 15.6976 12.5232 15.8683 12.4273 16.056C12.3299 16.2465 12.2692 16.4412 12.2311 16.65C12.1945 16.856 12.1818 17.0662 12.1761 17.2751C12.1733 17.371 12.1719 17.467 12.1719 17.5629C12.1719 17.6772 12.1719 17.7901 12.1719 17.9044V19.2095V18.1837V29.0327H45.4215V18.2515V17.9044Z" fill="#FFB003"/>
</g>
<g filter="url(#filter1_d_568_1384)">
<path fill-rule="evenodd" clip-rule="evenodd" d="M45.4215 20.9258C45.4215 20.8115 45.4215 20.6987 45.4215 20.5844C45.4215 20.4884 45.4201 20.3925 45.4173 20.2965C45.4117 20.0877 45.399 19.8775 45.3623 19.6715C45.3242 19.4627 45.2635 19.2679 45.1661 19.0775C45.0716 18.8912 44.9474 18.7191 44.7979 18.5709C44.6497 18.4228 44.479 18.2986 44.2913 18.2027C44.1009 18.1053 43.9061 18.0446 43.6973 18.0065C43.4913 17.9698 43.2811 17.9571 43.0723 17.9515C42.9763 17.9487 42.8804 17.9473 42.7844 17.9473C42.6701 17.9473 42.5573 17.9473 42.443 17.9473H42.3484H16.4556H15.1504C15.0362 17.9473 14.9233 17.9473 14.809 17.9473C14.713 17.9473 14.6171 17.9487 14.5212 17.9515C14.3123 17.9571 14.1021 17.9698 13.8961 18.0065C13.6873 18.0446 13.4925 18.1053 13.3021 18.2027C13.1158 18.2972 12.9437 18.4214 12.7955 18.5709C12.6474 18.7191 12.5232 18.8898 12.4273 19.0775C12.3299 19.2679 12.2692 19.4627 12.2311 19.6715C12.1945 19.8775 12.1818 20.0877 12.1761 20.2965C12.1733 20.3925 12.1719 20.4884 12.1719 20.5844C12.1719 20.6987 12.1719 20.8115 12.1719 20.9258V22.231V21.2052V32.0542H45.4215V21.2729V20.9258Z" fill="#40C740"/>
</g>
<g filter="url(#filter2_d_568_1384)">
<path fill-rule="evenodd" clip-rule="evenodd" d="M45.4215 23.9483C45.4215 23.834 45.4215 23.7211 45.4215 23.6068C45.4215 23.5109 45.4201 23.4149 45.4173 23.319C45.4117 23.1102 45.399 22.8999 45.3623 22.6939C45.3242 22.4851 45.2635 22.2904 45.1661 22.0999C45.0716 21.9137 44.9474 21.7415 44.7979 21.5934C44.6497 21.4452 44.479 21.3211 44.2913 21.2251C44.1009 21.1278 43.9061 21.0671 43.6973 21.029C43.4913 20.9923 43.2811 20.9796 43.0723 20.974C42.9763 20.9711 42.8804 20.9697 42.7844 20.9697C42.6701 20.9697 42.5573 20.9697 42.443 20.9697H42.3484H16.4556H15.1504C15.0362 20.9697 14.9233 20.9697 14.809 20.9697C14.713 20.9697 14.6171 20.9711 14.5212 20.974C14.3123 20.9796 14.1021 20.9923 13.8961 21.029C13.6873 21.0671 13.4925 21.1278 13.3021 21.2251C13.1158 21.3196 12.9437 21.4438 12.7955 21.5934C12.6474 21.7415 12.5232 21.9123 12.4273 22.0999C12.3299 22.2904 12.2692 22.4851 12.2311 22.6939C12.1945 22.8999 12.1818 23.1102 12.1761 23.319C12.1733 23.4149 12.1719 23.5109 12.1719 23.6068C12.1719 23.7211 12.1719 23.834 12.1719 23.9483V25.2534V24.2277V35.0767H45.4215V24.2954V23.9483Z" fill="#F26D5F"/>
</g>
<path fill-rule="evenodd" clip-rule="evenodd" d="M10.1602 9.88965V25.5063H12.175V16.1868V14.8817C12.175 14.7674 12.175 14.6545 12.175 14.5402C12.175 14.4443 12.1764 14.3483 12.1793 14.2524C12.1849 14.0436 12.1976 13.8333 12.2343 13.6273C12.2724 13.4185 12.3331 13.2238 12.4304 13.0333C12.525 12.8471 12.6491 12.6749 12.7987 12.5268C12.9468 12.3786 13.1176 12.2544 13.3052 12.1585C13.4943 12.064 13.689 12.0019 13.8978 11.9652C14.1038 11.9285 14.3141 11.9158 14.5229 11.9102C14.6188 11.9073 14.7148 11.9059 14.8107 11.9059C14.925 11.9059 15.0379 11.9059 15.1522 11.9059H16.4573H42.3474H42.4475C42.5618 11.9059 42.6747 11.9059 42.789 11.9059C42.8849 11.9059 42.9809 11.9073 43.0768 11.9102C43.2857 11.9158 43.4959 11.9285 43.7019 11.9652C43.9107 12.0033 44.1054 12.064 44.2959 12.1613C44.4822 12.2559 44.6543 12.38 44.8024 12.5296C44.9506 12.6777 45.0748 12.8485 45.1707 13.0361C45.2681 13.2266 45.3287 13.4213 45.3668 13.6301C45.4035 13.8361 45.4162 14.0464 45.4219 14.2552C45.4247 14.3512 45.4261 14.4471 45.4261 14.543C45.4261 14.6573 45.4261 14.7702 45.4261 14.8845V16.1897V25.5092H47.441V9.88965H10.1602Z" fill="#D9D6CC"/>
<g filter="url(#filter3_d_568_1384)">
<path fill-rule="evenodd" clip-rule="evenodd" d="M38.0735 23.9951C37.8576 23.9951 37.6403 23.9951 37.4245 23.9965C37.2424 23.9979 37.0604 23.9994 36.8784 24.005C36.4819 24.0163 36.0812 24.0389 35.689 24.1094C35.2911 24.1814 34.92 24.2985 34.5588 24.4819C34.5122 24.5059 33.5175 24.9574 32.6229 26.3486C31.9442 27.4054 30.6235 28.5258 28.7738 28.5258C26.9254 28.5258 25.6047 27.4054 24.9246 26.3486C23.9835 24.8826 22.9097 24.4424 22.9873 24.4819C22.6261 24.2971 22.255 24.18 21.8571 24.1094C21.4649 24.0389 21.0642 24.0149 20.6677 24.005C20.4857 24.0008 20.3037 23.9979 20.1216 23.9965C19.9058 23.9951 19.6885 23.9951 19.4726 23.9951H10.1602V38.1006H47.4396V23.9951H38.0735Z" fill="#DEDBCE"/>
</g>
</g>
<path d="M54.8789 24.918H59.1104C61.3412 24.918 62.8848 26.415 62.8848 28.6458V28.6613C62.8848 30.8836 61.3398 32.4032 59.1104 32.4032H56.644V36.289H54.8789V24.918ZM56.644 26.4065V30.9217H58.6702C60.2068 30.9217 61.0886 30.0948 61.0886 28.6683V28.6514C61.0886 27.2334 60.2068 26.4051 58.6702 26.4051H56.644V26.4065Z" fill="white"/>
<path d="M63.8633 32.1753V32.1669C63.8633 29.5735 65.3603 27.8408 67.6842 27.8408C70.0081 27.8408 71.436 29.5128 71.436 32.0018V32.5761H65.5649C65.596 34.1436 66.4552 35.0594 67.8098 35.0594C68.8186 35.0594 69.4888 34.5387 69.7005 33.9151L69.7245 33.853H71.34L71.3245 33.9405C71.0564 35.2569 69.7795 36.4534 67.7703 36.4534C65.3378 36.4534 63.8633 34.7913 63.8633 32.1753ZM65.5889 31.3711H69.7499C69.6074 29.9361 68.8045 29.2349 67.6927 29.2349C66.5907 29.2349 65.7385 29.9841 65.5889 31.3711Z" fill="white"/>
<path d="M73.1172 27.9988H74.8188V29.2518H74.8583C75.2929 28.408 76.1437 27.8408 77.3953 27.8408C79.2154 27.8408 80.2638 29.0148 80.2638 30.9224V36.2897H78.5537V31.2469C78.5537 30.001 77.9695 29.2998 76.7885 29.2998C75.5906 29.2998 74.8188 30.1661 74.8188 31.4586V36.2897H73.1172V27.9988Z" fill="white"/>
<path d="M81.8984 32.1758V32.1673C81.8984 29.574 83.3955 27.8413 85.7194 27.8413C88.0432 27.8413 89.4711 29.5133 89.4711 32.0022V32.5765H83.6001C83.6311 34.1441 84.4904 35.0598 85.8449 35.0598C86.8538 35.0598 87.524 34.5392 87.7356 33.9155L87.7596 33.8534H89.3752L89.3597 33.9409C89.0916 35.2574 87.8147 36.4539 85.8054 36.4539C83.3715 36.4539 81.8984 34.7917 81.8984 32.1758ZM86.5081 27.061H85.035L83.2149 24.5791H84.5708L85.7758 26.2582L86.9667 24.5791H88.3212L86.5081 27.061ZM83.6241 31.3715H87.785C87.6425 29.9366 86.8397 29.2353 85.7278 29.2353C84.6244 29.2353 83.7736 29.9846 83.6241 31.3715Z" fill="white"/>
<path d="M90.9766 35.1939L95.4042 29.3863V29.3553H91.0076V28.0007H97.3514V29.1662L93.0324 34.9103V34.9413H97.3979V36.2888H90.9766V35.1939ZM94.9174 27.061H93.4514L91.6228 24.5791H92.9773L94.1908 26.2582L95.3802 24.5791H96.7362L94.9174 27.061Z" fill="white"/>
<path d="M98.6523 32.1753V32.1669C98.6523 29.5735 100.149 27.8408 102.473 27.8408C104.799 27.8408 106.225 29.5128 106.225 32.0018V32.5761H100.354C100.385 34.1436 101.244 35.0594 102.6 35.0594C103.609 35.0594 104.278 34.5387 104.491 33.9151L104.516 33.853H106.132L106.116 33.9405C105.848 35.2569 104.571 36.4534 102.561 36.4534C100.125 36.4534 98.6523 34.7913 98.6523 32.1753ZM100.378 31.3711H104.539C104.396 29.9361 103.594 29.2349 102.482 29.2349C101.38 29.2349 100.528 29.9841 100.378 31.3711Z" fill="white"/>
<path d="M107.906 27.9988H109.608V29.2518H109.647C110.082 28.408 110.931 27.8408 112.184 27.8408C114.004 27.8408 115.053 29.0148 115.053 30.9224V36.2897H113.343V31.2469C113.343 30.001 112.76 29.2998 111.578 29.2998C110.38 29.2998 109.608 30.1661 109.608 31.4586V36.2897H107.906V27.9988Z" fill="white"/>
<path d="M117.148 24.918H118.851V31.5369H118.89L122.214 27.9995H124.216L120.813 31.5764L124.35 36.289H122.373L119.56 32.6007L118.851 33.302V36.289H117.148V24.918Z" fill="white"/>
<path d="M125.644 38.977V37.645C125.778 37.676 125.974 37.7085 126.203 37.7085C127.006 37.7085 127.449 37.4968 127.732 36.6912L127.874 36.2975L124.855 28.001H126.7L128.788 34.7454H128.843L130.93 28.001H132.726L129.637 36.6757C129.022 38.3942 128.156 39.056 126.533 39.056C126.203 39.0546 125.849 39.0151 125.644 38.977Z" fill="white"/>
<path d="M141.204 24.918H143.112L147.241 36.289H145.389L144.351 33.2145H139.97L138.922 36.289H137.07L141.204 24.918ZM140.44 31.7979H143.868L142.174 26.8016H142.143L140.44 31.7979Z" fill="white"/>
<path d="M148.332 27.9988H150.034V29.4253H150.073C150.57 28.4405 151.484 27.8408 152.665 27.8408C154.777 27.8408 156.133 29.4959 156.133 32.1443V32.1514C156.133 34.7913 154.769 36.4548 152.691 36.4548C151.517 36.4548 150.563 35.8552 150.075 34.8957H150.035V39.0468H148.333L148.332 27.9988ZM154.401 32.1514V32.1443C154.401 30.3792 153.557 29.2984 152.225 29.2984C150.932 29.2984 150.027 30.4173 150.027 32.1443V32.1514C150.027 33.8699 150.94 34.9888 152.225 34.9888C153.564 34.9874 154.401 33.901 154.401 32.1514Z" fill="white"/>
<path d="M157.816 27.9988H159.518V29.4253H159.558C160.054 28.4405 160.967 27.8408 162.15 27.8408C164.262 27.8408 165.616 29.4959 165.616 32.1443V32.1514C165.616 34.7913 164.253 36.4548 162.174 36.4548C161 36.4548 160.046 35.8552 159.558 34.8957H159.518V39.0468H157.816V27.9988ZM163.884 32.1514V32.1443C163.884 30.3792 163.04 29.2984 161.709 29.2984C160.417 29.2984 159.51 30.4173 159.51 32.1443V32.1514C159.51 33.8699 160.424 34.9888 161.709 34.9888C163.048 34.9874 163.884 33.901 163.884 32.1514Z" fill="white"/>
<path d="M167.117 24.918H168.819V36.289H167.117V24.918Z" fill="white"/>
<path d="M170.473 32.1753V32.1669C170.473 29.5735 171.971 27.8408 174.295 27.8408C176.619 27.8408 178.045 29.5128 178.045 32.0018V32.5761H172.176C172.207 34.1436 173.066 35.0594 174.421 35.0594C175.429 35.0594 176.1 34.5387 176.313 33.9151L176.337 33.853H177.952L177.937 33.9405C177.67 35.2569 176.392 36.4534 174.382 36.4534C171.947 36.4534 170.473 34.7913 170.473 32.1753ZM172.2 31.3711H176.359C176.217 29.9361 175.414 29.2349 174.303 29.2349C173.2 29.2349 172.348 29.9841 172.2 31.3711Z" fill="white"/>
<path d="M54.8398 11.5166H58.0611C59.6654 11.5166 60.8026 12.6242 60.8026 14.2468V14.2581C60.8026 15.8808 59.6654 17.0109 58.0611 17.0109H55.9065V20.0601H54.8413L54.8398 11.5166ZM55.9051 12.4634V16.0628H57.7874C59.0065 16.0628 59.7119 15.394 59.7119 14.2694V14.2581C59.7119 13.1336 59.0065 12.4648 57.7874 12.4648H55.9051V12.4634Z" fill="white"/>
<path d="M64.2977 12.7889H63.0546L61.6211 10.7754H62.7104L63.6275 12.1201H63.722L64.6392 10.7754H65.7284L64.2977 12.7889ZM62.3971 13.6764H63.4271V14.6231H63.5217C63.7644 13.9543 64.3626 13.5635 65.2261 13.5635C65.4223 13.5635 65.641 13.5875 65.7411 13.6044V14.6048C65.5281 14.5695 65.332 14.5455 65.1076 14.5455C64.1256 14.5455 63.4271 15.1678 63.4271 16.1032V20.0582H62.3971V13.6764Z" fill="white"/>
<path d="M66.832 11.7351C66.832 11.3443 67.1523 11.0254 67.5418 11.0254C67.9312 11.0254 68.2515 11.3457 68.2515 11.7351C68.2515 12.1245 67.9312 12.4448 67.5418 12.4448C67.1523 12.4448 66.832 12.126 66.832 11.7351ZM67.0225 13.6766H68.0525V20.0585H67.0225V13.6766Z" fill="white"/>
<path d="M69.6602 16.874V16.8627C69.6602 14.8619 70.7142 13.5652 72.3354 13.5652C73.2116 13.5652 73.9763 14.004 74.3248 14.6841H74.4194V11.1426H75.4494V20.0585H74.4194V19.0398H74.3248C73.934 19.7495 73.2243 20.17 72.3354 20.17C70.7198 20.1714 69.6602 18.8634 69.6602 16.874ZM74.4448 16.874V16.8627C74.4448 15.3896 73.7351 14.4767 72.5738 14.4767C71.4069 14.4767 70.7156 15.3769 70.7156 16.8627V16.8754C70.7156 18.3611 71.4084 19.2613 72.5738 19.2613C73.7336 19.2599 74.4448 18.3484 74.4448 16.874Z" fill="white"/>
<path d="M77.0312 18.2777V18.2664C77.0312 17.1291 77.8722 16.473 79.3579 16.3841L81.1866 16.2712V15.6913C81.1866 14.904 80.7068 14.4779 79.753 14.4779C78.9897 14.4779 78.486 14.7629 78.3209 15.2596L78.3152 15.2779H77.2852L77.2909 15.2426C77.4574 14.2423 78.4281 13.5664 79.7897 13.5664C81.3474 13.5664 82.2166 14.365 82.2166 15.6913V20.0611H81.1866V19.12H81.092C80.6899 19.8001 80.0211 20.174 79.1618 20.174C77.9498 20.1712 77.0312 19.4375 77.0312 18.2777ZM79.3763 19.278C80.4246 19.278 81.188 18.5909 81.188 17.6794V17.0995L79.4835 17.2067C78.5128 17.266 78.0867 17.6089 78.0867 18.2424V18.2537C78.0853 18.8999 78.6355 19.278 79.3763 19.278Z" fill="white"/>
<path d="M84.4904 18.402V14.5289H83.4844V13.6767H84.4904V12.0244H85.5557V13.6767H86.954V14.5289H85.5557V18.141C85.5557 18.893 85.8167 19.195 86.4799 19.195C86.6633 19.195 86.7649 19.1894 86.954 19.171V20.0472C86.7522 20.0825 86.5575 20.1065 86.3557 20.1065C85.0421 20.1065 84.4904 19.6211 84.4904 18.402Z" fill="white"/>
<path d="M91.5547 16.874V16.8627C91.5547 14.8619 92.6087 13.5652 94.2299 13.5652C95.1061 13.5652 95.8695 14.004 96.2194 14.6841H96.3139V11.1426H97.3425V20.0585H96.3139V19.0398H96.2194C95.8285 19.7495 95.1188 20.17 94.2299 20.17C92.6143 20.1714 91.5547 18.8634 91.5547 16.874ZM96.3379 16.874V16.8627C96.3379 15.3896 95.6268 14.4767 94.4669 14.4767C93.3001 14.4767 92.6087 15.3769 92.6087 16.8627V16.8754C92.6087 18.3611 93.3015 19.2613 94.4669 19.2613C95.6282 19.2599 96.3379 18.3484 96.3379 16.874Z" fill="white"/>
<path d="M98.9844 16.8732V16.8619C98.9844 14.8132 100.11 13.5645 101.928 13.5645C103.745 13.5645 104.87 14.8132 104.87 16.8619V16.8746C104.87 18.9163 103.745 20.1721 101.928 20.1721C100.11 20.1721 98.9844 18.9163 98.9844 16.8732ZM103.817 16.8732V16.8619C103.817 15.3522 103.135 14.4759 101.928 14.4759C100.72 14.4759 100.038 15.3522 100.038 16.8619V16.8746C100.038 18.3773 100.718 19.2606 101.928 19.2606C103.135 19.2592 103.817 18.3773 103.817 16.8732Z" fill="white"/>
<defs>
<filter id="filter0_d_568_1384" x="9.17188" y="11.7258" width="39.25" height="20.1074" filterUnits="userSpaceOnUse" color-interpolation-filters="sRGB">
<feFlood flood-opacity="0" result="BackgroundImageFix"/>
<feColorMatrix in="SourceAlpha" type="matrix" values="0 0 0 0 0 0 0 0 0 0 0 0 0 0 0 0 0 0 127 0" result="hardAlpha"/>
<feOffset dy="-0.2"/>
<feGaussianBlur stdDeviation="1.5"/>
<feComposite in2="hardAlpha" operator="out"/>
<feColorMatrix type="matrix" values="0 0 0 0 0 0 0 0 0 0 0 0 0 0 0 0 0 0 0.12 0"/>
<feBlend mode="normal" in2="BackgroundImageFix" result="effect1_dropShadow_568_1384"/>
<feBlend mode="normal" in="SourceGraphic" in2="effect1_dropShadow_568_1384" result="shape"/>
</filter>
<filter id="filter1_d_568_1384" x="9.17188" y="14.7473" width="39.25" height="20.1074" filterUnits="userSpaceOnUse" color-interpolation-filters="sRGB">
<feFlood flood-opacity="0" result="BackgroundImageFix"/>
<feColorMatrix in="SourceAlpha" type="matrix" values="0 0 0 0 0 0 0 0 0 0 0 0 0 0 0 0 0 0 127 0" result="hardAlpha"/>
<feOffset dy="-0.2"/>
<feGaussianBlur stdDeviation="1.5"/>
<feComposite in2="hardAlpha" operator="out"/>
<feColorMatrix type="matrix" values="0 0 0 0 0 0 0 0 0 0 0 0 0 0 0 0 0 0 0.12 0"/>
<feBlend mode="normal" in2="BackgroundImageFix" result="effect1_dropShadow_568_1384"/>
<feBlend mode="normal" in="SourceGraphic" in2="effect1_dropShadow_568_1384" result="shape"/>
</filter>
<filter id="filter2_d_568_1384" x="9.17188" y="17.7697" width="39.25" height="20.1074" filterUnits="userSpaceOnUse" color-interpolation-filters="sRGB">
<feFlood flood-opacity="0" result="BackgroundImageFix"/>
<feColorMatrix in="SourceAlpha" type="matrix" values="0 0 0 0 0 0 0 0 0 0 0 0 0 0 0 0 0 0 127 0" result="hardAlpha"/>
<feOffset dy="-0.2"/>
<feGaussianBlur stdDeviation="1.5"/>
<feComposite in2="hardAlpha" operator="out"/>
<feColorMatrix type="matrix" values="0 0 0 0 0 0 0 0 0 0 0 0 0 0 0 0 0 0 0.12 0"/>
<feBlend mode="normal" in2="BackgroundImageFix" result="effect1_dropShadow_568_1384"/>
<feBlend mode="normal" in="SourceGraphic" in2="effect1_dropShadow_568_1384" result="shape"/>
</filter>
<filter id="filter3_d_568_1384" x="7.16016" y="20.7951" width="43.2812" height="20.1055" filterUnits="userSpaceOnUse" color-interpolation-filters="sRGB">
<feFlood flood-opacity="0" result="BackgroundImageFix"/>
<feColorMatrix in="SourceAlpha" type="matrix" values="0 0 0 0 0 0 0 0 0 0 0 0 0 0 0 0 0 0 127 0" result="hardAlpha"/>
<feOffset dy="-0.2"/>
<feGaussianBlur stdDeviation="1.5"/>
<feComposite in2="hardAlpha" operator="out"/>
<feColorMatrix type="matrix" values="0 0 0 0 0 0 0 0 0 0 0 0 0 0 0 0 0 0 0.12 0"/>
<feBlend mode="normal" in2="BackgroundImageFix" result="effect1_dropShadow_568_1384"/>
<feBlend mode="normal" in="SourceGraphic" in2="effect1_dropShadow_568_1384" result="shape"/>
</filter>
</defs>
</svg>
