<svg width="178" height="48" viewBox="0 0 178 48" fill="none" xmlns="http://www.w3.org/2000/svg">
<path d="M163.607 0.00141098H13.4508C12.933 0.00141098 12.4222 0.00141098 11.9072 0.00423293C11.4741 0.00705488 11.0465 0.0155207 10.6105 0.0225756C9.67083 0.0451512 8.72124 0.103001 7.78294 0.270907C6.839 0.437403 5.96137 0.719598 5.10209 1.15559C4.25692 1.58876 3.48511 2.15033 2.81772 2.81913C2.14327 3.48652 1.58312 4.26115 1.15559 5.10632C0.716776 5.9642 0.438814 6.84606 0.273729 7.79141C0.104412 8.72548 0.0451512 9.66942 0.0211646 10.6148C0.00846586 11.0479 0.00705488 11.4811 0 11.9143C0 12.4251 0 12.9372 0 13.4551V34.5463C0 35.067 0 35.5764 0 36.0899C0.00705488 36.5273 0.00846586 36.9521 0.0211646 37.3909C0.0451512 38.3362 0.104412 39.2816 0.273729 40.2156C0.438814 41.161 0.716776 42.0471 1.15559 42.9021C1.58312 43.7431 2.14327 44.5163 2.81772 45.1795C3.48511 45.8525 4.25692 46.4141 5.10068 46.8416C5.95996 47.2818 6.83759 47.5612 7.78294 47.7319C8.71983 47.8998 9.67083 47.9548 10.6105 47.9817C11.0465 47.9915 11.4755 47.9972 11.9072 47.9972C12.4236 48 12.9344 48 13.4522 48H163.608C164.115 48 164.63 48 165.138 47.9972C165.568 47.9972 166.008 47.9915 166.439 47.9817C167.384 47.9563 168.332 47.8998 169.261 47.7319C170.206 47.5612 171.085 47.2832 171.953 46.8416C172.795 46.4126 173.567 45.8525 174.234 45.1795C174.906 44.5163 175.466 43.7431 175.901 42.9021C176.334 42.0471 176.615 41.161 176.774 40.2156C176.948 39.2816 177.003 38.3362 177.037 37.3909C177.042 36.9521 177.042 36.5288 177.042 36.0899C177.054 35.5778 177.054 35.0684 177.054 34.5463V13.4537C177.054 12.9372 177.054 12.4251 177.042 11.9129C177.042 11.4797 177.042 11.0465 177.037 10.6134C177.004 9.66801 176.949 8.72265 176.774 7.78859C176.615 6.84323 176.334 5.96137 175.901 5.1035C175.465 4.25833 174.906 3.48511 174.234 2.81631C173.567 2.14751 172.797 1.58594 171.953 1.15277C171.085 0.715365 170.206 0.43317 169.261 0.268085C168.332 0.100179 167.384 0.0423293 166.439 0.0183427C166.008 0.0112878 165.568 0.00282195 165.138 0C164.628 0.00141098 164.113 0.00141098 163.607 0.00141098Z" fill="#A6A6A6"/>
<path d="M163.608 0.918945C164.113 0.918945 164.626 0.918945 165.132 0.921767C165.479 0.924589 165.834 0.930233 166.184 0.935877L166.416 0.94011C167.162 0.958453 168.14 1.00219 169.102 1.17574C169.976 1.32813 170.773 1.59057 171.533 1.97294C172.294 2.36378 172.984 2.86609 173.586 3.46999C174.183 4.0626 174.687 4.75398 175.08 5.51873C175.463 6.27924 175.721 7.07221 175.871 7.95831C176.036 8.84722 176.086 9.77564 176.117 10.6265C176.123 11.0554 176.123 11.4857 176.123 11.933C176.134 12.4382 176.134 12.9433 176.134 13.4541V34.5453C176.134 35.0589 176.134 35.5626 176.123 36.0889C176.123 36.5235 176.123 36.944 176.117 37.3574C176.086 38.228 176.036 39.1564 175.868 40.0608C175.72 40.9385 175.461 41.7314 175.085 42.4778C174.684 43.2525 174.18 43.941 173.581 44.5322C172.984 45.1347 172.297 45.6356 171.536 46.0222C170.787 46.4032 169.988 46.6656 169.096 46.8279C168.172 46.9958 167.221 47.0409 166.418 47.0635C165.995 47.0734 165.562 47.079 165.133 47.079C164.628 47.0819 164.114 47.0819 163.609 47.0819H13.4517C12.9367 47.0819 12.4273 47.0819 11.9067 47.079C11.4819 47.079 11.0601 47.0734 10.6354 47.0649C9.82828 47.0423 8.8787 46.9972 7.94604 46.8293C7.05289 46.6684 6.25851 46.4046 5.51634 46.0236C4.75582 45.6384 4.06727 45.1361 3.46055 44.5238C2.86512 43.9382 2.36422 43.2525 1.97197 42.4821C1.59383 41.7441 1.3328 40.9498 1.17618 40.0495C1.00122 39.0887 0.957476 38.1109 0.937722 37.363C0.929257 37.0696 0.925024 36.7831 0.922202 36.4939L0.917969 36.0889V34.5453V13.4541V11.9288L0.923613 11.5069C0.926435 11.2191 0.930668 10.9312 0.939133 10.6392C0.957476 9.89416 1.00263 8.91636 1.179 7.94843C1.33421 7.05951 1.59383 6.26655 1.97479 5.52014C2.36281 4.75398 2.86371 4.06401 3.4676 3.46717C4.06868 2.86468 4.76006 2.36237 5.51775 1.97436C6.27404 1.58916 7.067 1.32813 7.94604 1.17433C8.91115 1.00078 9.89037 0.957042 10.6255 0.938699L10.9049 0.934466C11.2421 0.928822 11.5765 0.923178 11.9123 0.921767C12.4259 0.918945 12.9367 0.918945 13.4517 0.918945H163.608Z" fill="black"/>
<mask id="mask0_568_3151" style="mask-type:luminance" maskUnits="userSpaceOnUse" x="10" y="10" width="37" height="28">
<path d="M46.9374 32.5304V32.9043C46.9374 33.0835 46.9374 33.2627 46.936 33.4419C46.9346 33.5928 46.9332 33.7438 46.929 33.8948C46.9205 34.2235 46.9008 34.5551 46.8429 34.8796C46.7837 35.2098 46.6863 35.5174 46.5339 35.8165C46.3843 36.1114 46.1882 36.3809 45.954 36.6137C45.7198 36.8479 45.4503 37.0427 45.1568 37.1936C44.8577 37.346 44.5501 37.4434 44.2199 37.5026C43.8954 37.5605 43.5638 37.5802 43.235 37.5887C43.0841 37.5929 42.9331 37.5944 42.7821 37.5958C42.6029 37.5972 42.4237 37.5972 42.2445 37.5972L40.1859 37.5958L42.102 37.5972H15.4995L17.4156 37.5958L15.357 37.5972C15.1778 37.5972 14.9986 37.5972 14.8194 37.5958C14.6684 37.5944 14.5174 37.5929 14.3665 37.5887C14.0377 37.5802 13.7061 37.5605 13.3816 37.5026C13.0514 37.4434 12.7453 37.346 12.4447 37.1936C12.1498 37.0441 11.8803 36.8479 11.6475 36.6137C11.4133 36.3795 11.2186 36.11 11.0676 35.8165C10.9152 35.5174 10.8179 35.2098 10.7586 34.8796C10.7007 34.5551 10.681 34.2235 10.6725 33.8948C10.6683 33.7438 10.6669 33.5928 10.6655 33.4419C10.6641 33.2627 10.6641 33.0835 10.6641 32.9043V32.6108V15.3799V17.1437V15.0851C10.6641 14.9059 10.6641 14.7267 10.6655 14.5475C10.6669 14.3965 10.6683 14.2455 10.6725 14.0945C10.681 13.7658 10.7007 13.4342 10.7586 13.1097C10.8179 12.7795 10.9152 12.4719 11.0676 12.1728C11.2172 11.8779 11.4133 11.6084 11.6475 11.3756C11.8817 11.1428 12.1512 10.9467 12.4461 10.7971C12.7453 10.6447 13.0528 10.5474 13.383 10.4881C13.7075 10.4302 14.0391 10.4105 14.3679 10.402C14.5189 10.3978 14.6698 10.3964 14.8208 10.395C15 10.3936 15.1792 10.3936 15.3584 10.3936H17.417H42.1034H42.2445C42.4237 10.3936 42.6029 10.3936 42.7821 10.395C42.9331 10.3964 43.0841 10.3978 43.235 10.402C43.5638 10.4105 43.8954 10.4302 44.2199 10.4881C44.5501 10.5474 44.8563 10.6447 45.1568 10.7971C45.4517 10.9467 45.7212 11.1428 45.954 11.377C46.1882 11.6112 46.3829 11.8807 46.5339 12.1742C46.6863 12.4733 46.7837 12.7809 46.8429 13.1111C46.9008 13.4356 46.9205 13.7672 46.929 14.096C46.9332 14.2469 46.9346 14.3979 46.936 14.5489C46.9374 14.7281 46.9374 14.9073 46.9374 15.0865V15.4604V32.5304Z" fill="white"/>
</mask>
<g mask="url(#mask0_568_3151)">
<path d="M45.7858 11.5264H11.7812V35.204H45.7858V11.5264Z" fill="#DEDBCE"/>
<path d="M45.4254 11.9043H12.1758V26.0098H45.4254V11.9043Z" fill="#40A5D9"/>
<g filter="url(#filter0_d_568_3151)">
<path fill-rule="evenodd" clip-rule="evenodd" d="M45.4215 17.9044C45.4215 17.7901 45.4215 17.6772 45.4215 17.5629C45.4215 17.467 45.4201 17.371 45.4173 17.2751C45.4117 17.0662 45.399 16.856 45.3623 16.65C45.3242 16.4412 45.2635 16.2465 45.1661 16.056C45.0716 15.8697 44.9474 15.6976 44.7979 15.5494C44.6497 15.4013 44.479 15.2771 44.2913 15.1812C44.1009 15.0838 43.9061 15.0231 43.6973 14.985C43.4913 14.9484 43.2811 14.9357 43.0723 14.93C42.9763 14.9272 42.8804 14.9258 42.7844 14.9258C42.6701 14.9258 42.5573 14.9258 42.443 14.9258H42.3498H16.4556H15.1504C15.0362 14.9258 14.9233 14.9258 14.809 14.9258C14.713 14.9258 14.6171 14.9272 14.5212 14.93C14.3123 14.9357 14.1021 14.9484 13.8961 14.985C13.6873 15.0231 13.4925 15.0838 13.3021 15.1812C13.1158 15.2757 12.9437 15.3999 12.7955 15.5494C12.6474 15.6976 12.5232 15.8683 12.4273 16.056C12.3299 16.2465 12.2692 16.4412 12.2311 16.65C12.1945 16.856 12.1818 17.0662 12.1761 17.2751C12.1733 17.371 12.1719 17.467 12.1719 17.5629C12.1719 17.6772 12.1719 17.7901 12.1719 17.9044V19.2095V18.1837V29.0327H45.4215V18.2515V17.9044Z" fill="#FFB003"/>
</g>
<g filter="url(#filter1_d_568_3151)">
<path fill-rule="evenodd" clip-rule="evenodd" d="M45.4215 20.9258C45.4215 20.8115 45.4215 20.6987 45.4215 20.5844C45.4215 20.4884 45.4201 20.3925 45.4173 20.2965C45.4117 20.0877 45.399 19.8775 45.3623 19.6715C45.3242 19.4627 45.2635 19.2679 45.1661 19.0775C45.0716 18.8912 44.9474 18.7191 44.7979 18.5709C44.6497 18.4228 44.479 18.2986 44.2913 18.2027C44.1009 18.1053 43.9061 18.0446 43.6973 18.0065C43.4913 17.9698 43.2811 17.9571 43.0723 17.9515C42.9763 17.9487 42.8804 17.9473 42.7844 17.9473C42.6701 17.9473 42.5573 17.9473 42.443 17.9473H42.3484H16.4556H15.1504C15.0362 17.9473 14.9233 17.9473 14.809 17.9473C14.713 17.9473 14.6171 17.9487 14.5212 17.9515C14.3123 17.9571 14.1021 17.9698 13.8961 18.0065C13.6873 18.0446 13.4925 18.1053 13.3021 18.2027C13.1158 18.2972 12.9437 18.4214 12.7955 18.5709C12.6474 18.7191 12.5232 18.8898 12.4273 19.0775C12.3299 19.2679 12.2692 19.4627 12.2311 19.6715C12.1945 19.8775 12.1818 20.0877 12.1761 20.2965C12.1733 20.3925 12.1719 20.4884 12.1719 20.5844C12.1719 20.6987 12.1719 20.8115 12.1719 20.9258V22.231V21.2052V32.0542H45.4215V21.2729V20.9258Z" fill="#40C740"/>
</g>
<g filter="url(#filter2_d_568_3151)">
<path fill-rule="evenodd" clip-rule="evenodd" d="M45.4215 23.9483C45.4215 23.834 45.4215 23.7211 45.4215 23.6068C45.4215 23.5109 45.4201 23.4149 45.4173 23.319C45.4117 23.1102 45.399 22.8999 45.3623 22.6939C45.3242 22.4851 45.2635 22.2904 45.1661 22.0999C45.0716 21.9137 44.9474 21.7415 44.7979 21.5934C44.6497 21.4452 44.479 21.3211 44.2913 21.2251C44.1009 21.1278 43.9061 21.0671 43.6973 21.029C43.4913 20.9923 43.2811 20.9796 43.0723 20.974C42.9763 20.9711 42.8804 20.9697 42.7844 20.9697C42.6701 20.9697 42.5573 20.9697 42.443 20.9697H42.3484H16.4556H15.1504C15.0362 20.9697 14.9233 20.9697 14.809 20.9697C14.713 20.9697 14.6171 20.9711 14.5212 20.974C14.3123 20.9796 14.1021 20.9923 13.8961 21.029C13.6873 21.0671 13.4925 21.1278 13.3021 21.2251C13.1158 21.3196 12.9437 21.4438 12.7955 21.5934C12.6474 21.7415 12.5232 21.9123 12.4273 22.0999C12.3299 22.2904 12.2692 22.4851 12.2311 22.6939C12.1945 22.8999 12.1818 23.1102 12.1761 23.319C12.1733 23.4149 12.1719 23.5109 12.1719 23.6068C12.1719 23.7211 12.1719 23.834 12.1719 23.9483V25.2534V24.2277V35.0767H45.4215V24.2954V23.9483Z" fill="#F26D5F"/>
</g>
<path fill-rule="evenodd" clip-rule="evenodd" d="M10.1602 9.88965V25.5063H12.175V16.1868V14.8817C12.175 14.7674 12.175 14.6545 12.175 14.5402C12.175 14.4443 12.1764 14.3483 12.1793 14.2524C12.1849 14.0436 12.1976 13.8333 12.2343 13.6273C12.2724 13.4185 12.3331 13.2238 12.4304 13.0333C12.525 12.8471 12.6491 12.6749 12.7987 12.5268C12.9468 12.3786 13.1176 12.2544 13.3052 12.1585C13.4943 12.064 13.689 12.0019 13.8978 11.9652C14.1038 11.9285 14.3141 11.9158 14.5229 11.9102C14.6188 11.9073 14.7148 11.9059 14.8107 11.9059C14.925 11.9059 15.0379 11.9059 15.1522 11.9059H16.4573H42.3474H42.4475C42.5618 11.9059 42.6747 11.9059 42.789 11.9059C42.8849 11.9059 42.9809 11.9073 43.0768 11.9102C43.2857 11.9158 43.4959 11.9285 43.7019 11.9652C43.9107 12.0033 44.1054 12.064 44.2959 12.1613C44.4822 12.2559 44.6543 12.38 44.8024 12.5296C44.9506 12.6777 45.0748 12.8485 45.1707 13.0361C45.2681 13.2266 45.3287 13.4213 45.3668 13.6301C45.4035 13.8361 45.4162 14.0464 45.4219 14.2552C45.4247 14.3512 45.4261 14.4471 45.4261 14.543C45.4261 14.6573 45.4261 14.7702 45.4261 14.8845V16.1897V25.5092H47.441V9.88965H10.1602Z" fill="#D9D6CC"/>
<g filter="url(#filter3_d_568_3151)">
<path fill-rule="evenodd" clip-rule="evenodd" d="M38.0735 23.9951C37.8576 23.9951 37.6403 23.9951 37.4245 23.9965C37.2424 23.9979 37.0604 23.9994 36.8784 24.005C36.4819 24.0163 36.0812 24.0389 35.689 24.1094C35.2911 24.1814 34.92 24.2985 34.5588 24.4819C34.5122 24.5059 33.5175 24.9574 32.6229 26.3486C31.9442 27.4054 30.6235 28.5258 28.7738 28.5258C26.9254 28.5258 25.6047 27.4054 24.9246 26.3486C23.9835 24.8826 22.9097 24.4424 22.9873 24.4819C22.6261 24.2971 22.255 24.18 21.8571 24.1094C21.4649 24.0389 21.0642 24.0149 20.6677 24.005C20.4857 24.0008 20.3037 23.9979 20.1216 23.9965C19.9058 23.9951 19.6885 23.9951 19.4726 23.9951H10.1602V38.1006H47.4396V23.9951H38.0735Z" fill="#DEDBCE"/>
</g>
</g>
<path d="M58.1757 11.4678H60.0834L64.2133 22.8388H62.3621L61.3222 19.7657H56.9411L55.8942 22.8388H54.043L58.1757 11.4678ZM57.411 18.3463H60.8396L59.1451 13.3514H59.1154L57.411 18.3463Z" fill="white"/>
<path d="M65.3047 14.5477H67.0063V15.9742H67.0458C67.5425 14.9893 68.4554 14.3896 69.6378 14.3896C71.75 14.3896 73.1046 16.0447 73.1046 18.6931V18.7016C73.1046 21.3401 71.7416 23.0037 69.6618 23.0037C68.4878 23.0037 67.534 22.404 67.0458 21.4445H67.0063V25.597H65.3047V14.5477ZM71.3705 18.7016V18.6931C71.3705 16.928 70.5267 15.8472 69.1962 15.8472C67.9037 15.8472 66.9964 16.9675 66.9964 18.6931V18.7016C66.9964 20.4188 67.9108 21.5377 69.1962 21.5377C70.5366 21.5377 71.3705 20.4498 71.3705 18.7016Z" fill="white"/>
<path d="M74.7852 14.5477H76.4868V15.9742H76.5263C77.023 14.9893 77.9359 14.3896 79.1183 14.3896C81.2305 14.3896 82.585 16.0447 82.585 18.6931V18.7016C82.585 21.3401 81.222 23.0037 79.1423 23.0037C77.9683 23.0037 77.0145 22.404 76.5263 21.4445H76.4868V25.597H74.7852V14.5477ZM80.8524 18.7016V18.6931C80.8524 16.928 80.0086 15.8472 78.678 15.8472C77.3856 15.8472 76.4783 16.9675 76.4783 18.6931V18.7016C76.4783 20.4188 77.3926 21.5377 78.678 21.5377C80.0171 21.5377 80.8524 20.4498 80.8524 18.7016Z" fill="white"/>
<path d="M84.0859 11.4678H85.7876V22.8388H84.0859V11.4678Z" fill="white"/>
<path d="M87.4453 18.7242V18.7157C87.4453 16.1237 88.9438 14.3896 91.2676 14.3896C93.5915 14.3896 95.018 16.0617 95.018 18.5506V19.1249H89.1469C89.178 20.6939 90.0387 21.6082 91.3932 21.6082C92.4021 21.6082 93.0709 21.0876 93.2853 20.4653L93.3093 20.4018H94.9249L94.9094 20.4893C94.6413 21.8057 93.3644 23.0022 91.3551 23.0022C88.9198 23.0037 87.4453 21.3401 87.4453 18.7242ZM89.1723 17.9199H93.3319C93.1894 16.4864 92.3866 15.7851 91.2747 15.7851C90.1727 15.7851 89.3205 16.5343 89.1723 17.9199Z" fill="white"/>
<path d="M100.719 17.148V17.1395C100.719 13.5302 102.767 11.2783 105.99 11.2783C108.496 11.2783 110.378 12.8219 110.734 15.0682L110.749 15.1402H109.001L108.953 14.9821C108.575 13.6516 107.52 12.8389 105.99 12.8389C103.878 12.8389 102.523 14.5095 102.523 17.1409V17.1494C102.523 19.7809 103.886 21.4684 105.99 21.4684C107.503 21.4684 108.551 20.6797 108.976 19.239L109.001 19.1671H110.749L110.741 19.2461C110.387 21.5093 108.503 23.0289 105.99 23.0289C102.767 23.0261 100.719 20.7573 100.719 17.148Z" fill="white"/>
<path d="M112.473 19.9217V14.5473H114.176V19.5901C114.176 20.8431 114.758 21.5358 115.941 21.5358C117.139 21.5358 117.911 20.678 117.911 19.3855V14.5473H119.621V22.8368H117.911V21.5909H117.872C117.438 22.4276 116.596 23.0019 115.334 23.0019C113.514 23.0033 112.473 21.8293 112.473 19.9217ZM113.576 12.373C113.576 11.8763 113.978 11.4756 114.489 11.4756C115.001 11.4756 115.403 11.8763 115.403 12.373C115.403 12.8767 115.001 13.2802 114.489 13.2802C113.98 13.2788 113.576 12.8767 113.576 12.373ZM116.682 12.373C116.682 11.8763 117.092 11.4756 117.596 11.4756C118.115 11.4756 118.509 11.8763 118.509 12.373C118.509 12.8767 118.115 13.2802 117.596 13.2802C117.092 13.2788 116.682 12.8767 116.682 12.373Z" fill="white"/>
<path d="M121.492 21.742L125.921 15.9344V15.9034H121.525V14.5488H127.868V15.7143L123.549 21.4584V21.4894H127.915V22.8369H121.492V21.742Z" fill="white"/>
<path d="M129.164 18.6934V18.6849C129.164 16.045 130.536 14.3899 132.615 14.3899C133.789 14.3899 134.735 14.9811 135.231 15.9589H135.261V11.4678H136.971V22.8388H135.261V21.4349H135.231C134.733 22.4042 133.82 23.0025 132.629 23.0025C130.52 23.0039 129.164 21.3333 129.164 18.6934ZM135.271 18.6934V18.6849C135.271 16.9678 134.358 15.8474 133.08 15.8474C131.741 15.8474 130.905 16.9353 130.905 18.6849V18.6934C130.905 20.4585 131.732 21.5379 133.08 21.5379C134.365 21.5379 135.271 20.419 135.271 18.6934Z" fill="white"/>
<path d="M138.75 20.4818V20.4663C138.75 19.0243 139.869 18.1424 141.832 18.0239L144.085 17.8898V17.2676C144.085 16.3533 143.494 15.8016 142.438 15.8016C141.453 15.8016 140.847 16.2672 140.704 16.929L140.689 16.9995H139.08L139.089 16.912C139.206 15.4855 140.443 14.3906 142.483 14.3906C144.51 14.3906 145.794 15.463 145.794 17.1251V22.8381H144.083V21.5302H144.052C143.573 22.4205 142.612 22.9877 141.516 22.9877C139.86 22.9877 138.75 21.9704 138.75 20.4818ZM141.98 21.6233C143.179 21.6233 144.083 20.812 144.083 19.7326V19.0864L142.059 19.2119C141.033 19.2754 140.466 19.7241 140.466 20.4254V20.4409C140.467 21.1675 141.067 21.6233 141.98 21.6233Z" fill="white"/>
<path d="M147.805 14.5477H149.506V15.8006H149.546C149.979 14.9569 150.83 14.3896 152.083 14.3896C153.903 14.3896 154.951 15.565 154.951 17.4726V22.8386H153.241V17.7943C153.241 16.5484 152.658 15.8472 151.476 15.8472C150.278 15.8472 149.506 16.7149 149.506 18.006V22.8372H147.805V14.5477Z" fill="white"/>
<path d="M157.138 11.4678H158.84L157.69 15.5018H156.492L157.138 11.4678Z" fill="white"/>
<path d="M159.172 20.4818V20.4663C159.172 19.0243 160.291 18.1424 162.253 18.0239L164.507 17.8898V17.2676C164.507 16.3533 163.916 15.8016 162.86 15.8016C161.875 15.8016 161.269 16.2672 161.126 16.929L161.111 16.9995H159.502L159.511 16.912C159.628 15.4855 160.865 14.3906 162.905 14.3906C164.931 14.3906 166.215 15.463 166.215 17.1251V22.8381H164.505V21.5302H164.474C163.995 22.4205 163.034 22.9877 161.937 22.9877C160.282 22.9877 159.172 21.9704 159.172 20.4818ZM162.402 21.6233C163.601 21.6233 164.505 20.812 164.505 19.7326V19.0864L162.481 19.2119C161.455 19.2754 160.888 19.7241 160.888 20.4254V20.4409C160.889 21.1675 161.487 21.6233 162.402 21.6233Z" fill="white"/>
<path d="M54.8398 28.248H60.1324V29.2075H55.9051V31.9476H59.9137V32.8958H55.9051V35.832H60.1324V36.7915H54.8398V28.248Z" fill="white"/>
<path d="M61.9727 27.876H63.0027V33.1982H63.0958L65.8557 30.4087H67.1044L64.3219 33.0895L67.2892 36.7905H65.9925L63.6009 33.788L63.0027 34.3693V36.7905H61.9727V27.876Z" fill="white"/>
<path d="M68.543 27.876H69.573V36.7919H68.543V27.876Z" fill="white"/>
<path d="M71.2148 33.624V33.6183C71.2148 31.6472 72.3394 30.2969 74.0735 30.2969C75.8076 30.2969 76.863 31.5879 76.863 33.4956V33.8977H72.2688C72.2985 35.2184 73.0265 35.9873 74.1638 35.9873C75.0273 35.9873 75.5606 35.5782 75.7328 35.1944L75.7568 35.1408H76.7854L76.7741 35.1887C76.5554 36.0522 75.6425 36.9059 74.1398 36.9059C72.3154 36.9045 71.2148 35.6261 71.2148 33.624ZM72.2872 33.0737H75.816C75.7088 31.8109 75.0104 31.214 74.0693 31.214C73.1225 31.214 72.3987 31.8602 72.2872 33.0737Z" fill="white"/>
<defs>
<filter id="filter0_d_568_3151" x="9.17188" y="11.7258" width="39.25" height="20.1074" filterUnits="userSpaceOnUse" color-interpolation-filters="sRGB">
<feFlood flood-opacity="0" result="BackgroundImageFix"/>
<feColorMatrix in="SourceAlpha" type="matrix" values="0 0 0 0 0 0 0 0 0 0 0 0 0 0 0 0 0 0 127 0" result="hardAlpha"/>
<feOffset dy="-0.2"/>
<feGaussianBlur stdDeviation="1.5"/>
<feComposite in2="hardAlpha" operator="out"/>
<feColorMatrix type="matrix" values="0 0 0 0 0 0 0 0 0 0 0 0 0 0 0 0 0 0 0.12 0"/>
<feBlend mode="normal" in2="BackgroundImageFix" result="effect1_dropShadow_568_3151"/>
<feBlend mode="normal" in="SourceGraphic" in2="effect1_dropShadow_568_3151" result="shape"/>
</filter>
<filter id="filter1_d_568_3151" x="9.17188" y="14.7473" width="39.25" height="20.1074" filterUnits="userSpaceOnUse" color-interpolation-filters="sRGB">
<feFlood flood-opacity="0" result="BackgroundImageFix"/>
<feColorMatrix in="SourceAlpha" type="matrix" values="0 0 0 0 0 0 0 0 0 0 0 0 0 0 0 0 0 0 127 0" result="hardAlpha"/>
<feOffset dy="-0.2"/>
<feGaussianBlur stdDeviation="1.5"/>
<feComposite in2="hardAlpha" operator="out"/>
<feColorMatrix type="matrix" values="0 0 0 0 0 0 0 0 0 0 0 0 0 0 0 0 0 0 0.12 0"/>
<feBlend mode="normal" in2="BackgroundImageFix" result="effect1_dropShadow_568_3151"/>
<feBlend mode="normal" in="SourceGraphic" in2="effect1_dropShadow_568_3151" result="shape"/>
</filter>
<filter id="filter2_d_568_3151" x="9.17188" y="17.7697" width="39.25" height="20.1074" filterUnits="userSpaceOnUse" color-interpolation-filters="sRGB">
<feFlood flood-opacity="0" result="BackgroundImageFix"/>
<feColorMatrix in="SourceAlpha" type="matrix" values="0 0 0 0 0 0 0 0 0 0 0 0 0 0 0 0 0 0 127 0" result="hardAlpha"/>
<feOffset dy="-0.2"/>
<feGaussianBlur stdDeviation="1.5"/>
<feComposite in2="hardAlpha" operator="out"/>
<feColorMatrix type="matrix" values="0 0 0 0 0 0 0 0 0 0 0 0 0 0 0 0 0 0 0.12 0"/>
<feBlend mode="normal" in2="BackgroundImageFix" result="effect1_dropShadow_568_3151"/>
<feBlend mode="normal" in="SourceGraphic" in2="effect1_dropShadow_568_3151" result="shape"/>
</filter>
<filter id="filter3_d_568_3151" x="7.16016" y="20.7951" width="43.2812" height="20.1055" filterUnits="userSpaceOnUse" color-interpolation-filters="sRGB">
<feFlood flood-opacity="0" result="BackgroundImageFix"/>
<feColorMatrix in="SourceAlpha" type="matrix" values="0 0 0 0 0 0 0 0 0 0 0 0 0 0 0 0 0 0 127 0" result="hardAlpha"/>
<feOffset dy="-0.2"/>
<feGaussianBlur stdDeviation="1.5"/>
<feComposite in2="hardAlpha" operator="out"/>
<feColorMatrix type="matrix" values="0 0 0 0 0 0 0 0 0 0 0 0 0 0 0 0 0 0 0.12 0"/>
<feBlend mode="normal" in2="BackgroundImageFix" result="effect1_dropShadow_568_3151"/>
<feBlend mode="normal" in="SourceGraphic" in2="effect1_dropShadow_568_3151" result="shape"/>
</filter>
</defs>
</svg>
