<svg width="135" height="48" viewBox="0 0 135 48" fill="none" xmlns="http://www.w3.org/2000/svg">
<path d="M121.465 0.00141098H13.4508C12.933 0.00141098 12.4222 0.00141098 11.9072 0.00423293C11.4741 0.00705488 11.0465 0.0155207 10.6105 0.0225756C9.67083 0.0451512 8.72124 0.103001 7.78294 0.270907C6.839 0.437403 5.96137 0.719598 5.10209 1.15559C4.25692 1.58876 3.48511 2.15033 2.81772 2.81913C2.14327 3.48652 1.58312 4.26115 1.15559 5.10632C0.716776 5.9642 0.438814 6.84606 0.273729 7.79141C0.104412 8.72548 0.0451512 9.66942 0.0211646 10.6148C0.00846586 11.0479 0.00705488 11.4811 0 11.9143C0 12.4251 0 12.9372 0 13.4551V34.5463C0 35.067 0 35.5764 0 36.0899C0.00705488 36.5273 0.00846586 36.9521 0.0211646 37.3909C0.0451512 38.3362 0.104412 39.2816 0.273729 40.2156C0.438814 41.161 0.716776 42.0471 1.15559 42.9021C1.58312 43.7431 2.14327 44.5163 2.81772 45.1795C3.48511 45.8525 4.25692 46.4141 5.10068 46.8416C5.95996 47.2818 6.83759 47.5612 7.78294 47.7319C8.71983 47.8998 9.67083 47.9548 10.6105 47.9817C11.0465 47.9915 11.4755 47.9972 11.9072 47.9972C12.4236 48 12.9344 48 13.4522 48H121.467C121.973 48 122.488 48 122.996 47.9972C123.427 47.9972 123.867 47.9915 124.297 47.9817C125.242 47.9563 126.191 47.8998 127.119 47.7319C128.064 47.5612 128.943 47.2832 129.811 46.8416C130.654 46.4126 131.425 45.8525 132.093 45.1795C132.764 44.5163 133.325 43.7431 133.759 42.9021C134.192 42.0471 134.473 41.161 134.633 40.2156C134.806 39.2816 134.861 38.3362 134.895 37.3909C134.901 36.9521 134.901 36.5288 134.901 36.0899C134.912 35.5778 134.912 35.0684 134.912 34.5463V13.4537C134.912 12.9372 134.912 12.4251 134.901 11.9129C134.901 11.4797 134.901 11.0465 134.895 10.6134C134.863 9.66801 134.807 8.72265 134.633 7.78859C134.473 6.84323 134.192 5.96137 133.759 5.1035C133.323 4.25833 132.764 3.48511 132.093 2.81631C131.425 2.14751 130.655 1.58594 129.811 1.15277C128.943 0.715365 128.064 0.43317 127.119 0.268085C126.191 0.100179 125.242 0.0423293 124.297 0.0183427C123.867 0.0112878 123.427 0.00282195 122.996 0C122.487 0.00141098 121.972 0.00141098 121.465 0.00141098Z" fill="#A6A6A6"/>
<path d="M121.466 0.918945C121.971 0.918945 122.485 0.918945 122.99 0.921767C123.337 0.924589 123.693 0.930233 124.043 0.935877L124.274 0.94011C125.02 0.958453 125.998 1.00219 126.96 1.17574C127.834 1.32813 128.631 1.59057 129.392 1.97294C130.152 2.36378 130.842 2.86609 131.445 3.46999C132.041 4.0626 132.545 4.75398 132.939 5.51873C133.321 6.27924 133.579 7.07221 133.729 7.95831C133.894 8.84722 133.945 9.77564 133.976 10.6265C133.982 11.0554 133.981 11.4857 133.981 11.933C133.993 12.4382 133.993 12.9433 133.993 13.4541V34.5453C133.993 35.0589 133.993 35.5626 133.981 36.0889C133.981 36.5235 133.982 36.944 133.976 37.3574C133.945 38.228 133.894 39.1564 133.726 40.0608C133.578 40.9385 133.32 41.7314 132.943 42.4778C132.542 43.2525 132.039 43.941 131.439 44.5322C130.842 45.1347 130.155 45.6356 129.394 46.0222C128.645 46.4032 127.847 46.6656 126.955 46.8279C126.031 46.9958 125.08 47.0409 124.277 47.0635C123.854 47.0734 123.42 47.079 122.991 47.079C122.486 47.0819 121.973 47.0819 121.468 47.0819H13.4517C12.9367 47.0819 12.4273 47.0819 11.9067 47.079C11.4819 47.079 11.0601 47.0734 10.6354 47.0649C9.82828 47.0423 8.8787 46.9972 7.94604 46.8293C7.05289 46.6684 6.25851 46.4046 5.51634 46.0236C4.75582 45.6384 4.06727 45.1361 3.46055 44.5238C2.86512 43.9382 2.36422 43.2525 1.97197 42.4821C1.59383 41.7441 1.3328 40.9498 1.17618 40.0495C1.00122 39.0887 0.957476 38.1109 0.937722 37.363C0.929257 37.0696 0.925024 36.7831 0.922202 36.4939L0.917969 36.0889V34.5453V13.4541V11.9288L0.923613 11.5069C0.926435 11.2191 0.930668 10.9312 0.939133 10.6392C0.957476 9.89416 1.00263 8.91636 1.179 7.94843C1.33421 7.05951 1.59383 6.26655 1.97479 5.52014C2.36281 4.75398 2.86371 4.06401 3.4676 3.46717C4.06868 2.86468 4.76006 2.36237 5.51775 1.97436C6.27404 1.58916 7.067 1.32813 7.94604 1.17433C8.91115 1.00078 9.89037 0.957042 10.6255 0.938699L10.9049 0.934466C11.2421 0.928822 11.5765 0.923178 11.9123 0.921767C12.4259 0.918945 12.9367 0.918945 13.4517 0.918945H121.466Z" fill="black"/>
<mask id="mask0_568_1956" style="mask-type:luminance" maskUnits="userSpaceOnUse" x="10" y="10" width="37" height="28">
<path d="M46.9374 32.5304V32.9043C46.9374 33.0835 46.9374 33.2627 46.936 33.4419C46.9346 33.5928 46.9332 33.7438 46.929 33.8948C46.9205 34.2235 46.9008 34.5551 46.8429 34.8796C46.7836 35.2098 46.6863 35.5174 46.5339 35.8165C46.3843 36.1114 46.1882 36.3809 45.954 36.6137C45.7198 36.8479 45.4503 37.0427 45.1568 37.1936C44.8577 37.346 44.5501 37.4434 44.2199 37.5026C43.8954 37.5605 43.5638 37.5802 43.235 37.5887C43.0841 37.5929 42.9331 37.5944 42.7821 37.5958C42.6029 37.5972 42.4237 37.5972 42.2445 37.5972L40.1859 37.5958L42.102 37.5972H15.4995L17.4156 37.5958L15.357 37.5972C15.1778 37.5972 14.9986 37.5972 14.8194 37.5958C14.6684 37.5944 14.5174 37.5929 14.3665 37.5887C14.0377 37.5802 13.7061 37.5605 13.3816 37.5026C13.0514 37.4434 12.7453 37.346 12.4447 37.1936C12.1498 37.0441 11.8803 36.8479 11.6475 36.6137C11.4133 36.3795 11.2186 36.11 11.0676 35.8165C10.9152 35.5174 10.8179 35.2098 10.7586 34.8796C10.7007 34.5551 10.681 34.2235 10.6725 33.8948C10.6683 33.7438 10.6669 33.5928 10.6655 33.4419C10.6641 33.2627 10.6641 33.0835 10.6641 32.9043V32.6108V15.3799V17.1437V15.0851C10.6641 14.9059 10.6641 14.7267 10.6655 14.5475C10.6669 14.3965 10.6683 14.2455 10.6725 14.0945C10.681 13.7658 10.7007 13.4342 10.7586 13.1097C10.8179 12.7795 10.9152 12.4719 11.0676 12.1728C11.2172 11.8779 11.4133 11.6084 11.6475 11.3756C11.8817 11.1428 12.1512 10.9467 12.4461 10.7971C12.7453 10.6447 13.0528 10.5474 13.383 10.4881C13.7075 10.4302 14.0391 10.4105 14.3679 10.402C14.5188 10.3978 14.6698 10.3964 14.8208 10.395C15 10.3936 15.1792 10.3936 15.3584 10.3936H17.417H42.1034H42.2445C42.4237 10.3936 42.6029 10.3936 42.7821 10.395C42.9331 10.3964 43.0841 10.3978 43.235 10.402C43.5638 10.4105 43.8954 10.4302 44.2199 10.4881C44.5501 10.5474 44.8562 10.6447 45.1568 10.7971C45.4517 10.9467 45.7212 11.1428 45.954 11.377C46.1882 11.6112 46.3829 11.8807 46.5339 12.1742C46.6863 12.4733 46.7836 12.7809 46.8429 13.1111C46.9008 13.4356 46.9205 13.7672 46.929 14.096C46.9332 14.2469 46.9346 14.3979 46.936 14.5489C46.9374 14.7281 46.9374 14.9073 46.9374 15.0865V15.4604V32.5304Z" fill="white"/>
</mask>
<g mask="url(#mask0_568_1956)">
<path d="M45.7858 11.5264H11.7812V35.204H45.7858V11.5264Z" fill="#DEDBCE"/>
<path d="M45.4254 11.9043H12.1758V26.0098H45.4254V11.9043Z" fill="#40A5D9"/>
<g filter="url(#filter0_d_568_1956)">
<path fill-rule="evenodd" clip-rule="evenodd" d="M45.4215 17.9044C45.4215 17.7901 45.4215 17.6772 45.4215 17.5629C45.4215 17.467 45.4201 17.371 45.4173 17.2751C45.4116 17.0662 45.399 16.856 45.3623 16.65C45.3242 16.4412 45.2635 16.2465 45.1661 16.056C45.0716 15.8697 44.9474 15.6976 44.7979 15.5494C44.6497 15.4013 44.479 15.2771 44.2913 15.1812C44.1009 15.0838 43.9061 15.0231 43.6973 14.985C43.4913 14.9484 43.2811 14.9357 43.0723 14.93C42.9763 14.9272 42.8804 14.9258 42.7844 14.9258C42.6701 14.9258 42.5572 14.9258 42.443 14.9258H42.3498H16.4556H15.1504C15.0362 14.9258 14.9233 14.9258 14.809 14.9258C14.713 14.9258 14.6171 14.9272 14.5212 14.93C14.3123 14.9357 14.1021 14.9484 13.8961 14.985C13.6873 15.0231 13.4925 15.0838 13.3021 15.1812C13.1158 15.2757 12.9437 15.3999 12.7955 15.5494C12.6474 15.6976 12.5232 15.8683 12.4273 16.056C12.3299 16.2465 12.2692 16.4412 12.2311 16.65C12.1945 16.856 12.1818 17.0662 12.1761 17.2751C12.1733 17.371 12.1719 17.467 12.1719 17.5629C12.1719 17.6772 12.1719 17.7901 12.1719 17.9044V19.2095V18.1837V29.0327H45.4215V18.2515V17.9044Z" fill="#FFB003"/>
</g>
<g filter="url(#filter1_d_568_1956)">
<path fill-rule="evenodd" clip-rule="evenodd" d="M45.4215 20.9258C45.4215 20.8115 45.4215 20.6987 45.4215 20.5844C45.4215 20.4884 45.4201 20.3925 45.4173 20.2965C45.4116 20.0877 45.399 19.8775 45.3623 19.6715C45.3242 19.4627 45.2635 19.2679 45.1661 19.0775C45.0716 18.8912 44.9474 18.7191 44.7979 18.5709C44.6497 18.4228 44.479 18.2986 44.2913 18.2027C44.1009 18.1053 43.9061 18.0446 43.6973 18.0065C43.4913 17.9698 43.2811 17.9571 43.0723 17.9515C42.9763 17.9487 42.8804 17.9473 42.7844 17.9473C42.6701 17.9473 42.5572 17.9473 42.443 17.9473H42.3484H16.4556H15.1504C15.0362 17.9473 14.9233 17.9473 14.809 17.9473C14.713 17.9473 14.6171 17.9487 14.5212 17.9515C14.3123 17.9571 14.1021 17.9698 13.8961 18.0065C13.6873 18.0446 13.4925 18.1053 13.3021 18.2027C13.1158 18.2972 12.9437 18.4214 12.7955 18.5709C12.6474 18.7191 12.5232 18.8898 12.4273 19.0775C12.3299 19.2679 12.2692 19.4627 12.2311 19.6715C12.1945 19.8775 12.1818 20.0877 12.1761 20.2965C12.1733 20.3925 12.1719 20.4884 12.1719 20.5844C12.1719 20.6987 12.1719 20.8115 12.1719 20.9258V22.231V21.2052V32.0542H45.4215V21.2729V20.9258Z" fill="#40C740"/>
</g>
<g filter="url(#filter2_d_568_1956)">
<path fill-rule="evenodd" clip-rule="evenodd" d="M45.4215 23.9483C45.4215 23.834 45.4215 23.7211 45.4215 23.6068C45.4215 23.5109 45.4201 23.4149 45.4173 23.319C45.4116 23.1102 45.399 22.8999 45.3623 22.6939C45.3242 22.4851 45.2635 22.2904 45.1661 22.0999C45.0716 21.9137 44.9474 21.7415 44.7979 21.5934C44.6497 21.4452 44.479 21.3211 44.2913 21.2251C44.1009 21.1278 43.9061 21.0671 43.6973 21.029C43.4913 20.9923 43.2811 20.9796 43.0723 20.974C42.9763 20.9711 42.8804 20.9697 42.7844 20.9697C42.6701 20.9697 42.5572 20.9697 42.443 20.9697H42.3484H16.4556H15.1504C15.0362 20.9697 14.9233 20.9697 14.809 20.9697C14.713 20.9697 14.6171 20.9711 14.5212 20.974C14.3123 20.9796 14.1021 20.9923 13.8961 21.029C13.6873 21.0671 13.4925 21.1278 13.3021 21.2251C13.1158 21.3196 12.9437 21.4438 12.7955 21.5934C12.6474 21.7415 12.5232 21.9123 12.4273 22.0999C12.3299 22.2904 12.2692 22.4851 12.2311 22.6939C12.1945 22.8999 12.1818 23.1102 12.1761 23.319C12.1733 23.4149 12.1719 23.5109 12.1719 23.6068C12.1719 23.7211 12.1719 23.834 12.1719 23.9483V25.2534V24.2277V35.0767H45.4215V24.2954V23.9483Z" fill="#F26D5F"/>
</g>
<path fill-rule="evenodd" clip-rule="evenodd" d="M10.1602 9.88965V25.5063H12.175V16.1868V14.8817C12.175 14.7674 12.175 14.6545 12.175 14.5402C12.175 14.4443 12.1764 14.3483 12.1793 14.2524C12.1849 14.0436 12.1976 13.8333 12.2343 13.6273C12.2724 13.4185 12.3331 13.2238 12.4304 13.0333C12.525 12.8471 12.6491 12.6749 12.7987 12.5268C12.9468 12.3786 13.1176 12.2544 13.3052 12.1585C13.4943 12.064 13.689 12.0019 13.8978 11.9652C14.1038 11.9285 14.3141 11.9158 14.5229 11.9102C14.6188 11.9073 14.7148 11.9059 14.8107 11.9059C14.925 11.9059 15.0379 11.9059 15.1522 11.9059H16.4573H42.3473H42.4475C42.5618 11.9059 42.6747 11.9059 42.789 11.9059C42.8849 11.9059 42.9809 11.9073 43.0768 11.9102C43.2856 11.9158 43.4959 11.9285 43.7019 11.9652C43.9107 12.0033 44.1054 12.064 44.2959 12.1613C44.4822 12.2559 44.6543 12.38 44.8024 12.5296C44.9506 12.6777 45.0748 12.8485 45.1707 13.0361C45.2681 13.2266 45.3287 13.4213 45.3668 13.6301C45.4035 13.8361 45.4162 14.0464 45.4219 14.2552C45.4247 14.3512 45.4261 14.4471 45.4261 14.543C45.4261 14.6573 45.4261 14.7702 45.4261 14.8845V16.1897V25.5092H47.441V9.88965H10.1602Z" fill="#D9D6CC"/>
<g filter="url(#filter3_d_568_1956)">
<path fill-rule="evenodd" clip-rule="evenodd" d="M38.0735 23.9951C37.8576 23.9951 37.6403 23.9951 37.4244 23.9965C37.2424 23.9979 37.0604 23.9994 36.8784 24.005C36.4819 24.0163 36.0812 24.0389 35.6889 24.1094C35.2911 24.1814 34.92 24.2985 34.5588 24.4819C34.5122 24.5059 33.5175 24.9574 32.6229 26.3486C31.9442 27.4054 30.6235 28.5258 28.7738 28.5258C26.9254 28.5258 25.6047 27.4054 24.9246 26.3486C23.9835 24.8826 22.9097 24.4424 22.9873 24.4819C22.6261 24.2971 22.255 24.18 21.8571 24.1094C21.4649 24.0389 21.0642 24.0149 20.6677 24.005C20.4857 24.0008 20.3037 23.9979 20.1216 23.9965C19.9058 23.9951 19.6885 23.9951 19.4726 23.9951H10.1602V38.1006H47.4396V23.9951H38.0735Z" fill="#DEDBCE"/>
</g>
</g>
<path d="M58.1757 24.9189H60.0834L64.2133 36.29H62.3621L61.3222 33.2169H56.9411L55.8942 36.29H54.043L58.1757 24.9189ZM57.411 31.7975H60.8396L59.1451 26.8026H59.1154L57.411 31.7975Z" fill="white"/>
<path d="M65.3008 27.9988H67.0024V29.4253H67.0419C67.5386 28.4405 68.4515 27.8408 69.6339 27.8408C71.7461 27.8408 73.1007 29.4959 73.1007 32.1443V32.1528C73.1007 34.7913 71.7377 36.4548 69.6579 36.4548C68.4839 36.4548 67.5301 35.8552 67.0419 34.8957H67.0024V39.0482H65.3008V27.9988ZM71.368 32.1528V32.1443C71.368 30.3792 70.5242 29.2984 69.1937 29.2984C67.9012 29.2984 66.9939 30.4187 66.9939 32.1443V32.1528C66.9939 33.8699 67.9083 34.9888 69.1937 34.9888C70.5327 34.9874 71.368 33.901 71.368 32.1528Z" fill="white"/>
<path d="M74.7852 27.9988H76.4868V29.4253H76.5263C77.023 28.4405 77.9359 27.8408 79.1183 27.8408C81.2305 27.8408 82.585 29.4959 82.585 32.1443V32.1528C82.585 34.7913 81.222 36.4548 79.1423 36.4548C77.9683 36.4548 77.0145 35.8552 76.5263 34.8957H76.4868V39.0482H74.7852V27.9988ZM80.8524 32.1528V32.1443C80.8524 30.3792 80.0086 29.2984 78.678 29.2984C77.3856 29.2984 76.4783 30.4187 76.4783 32.1443V32.1528C76.4783 33.8699 77.3926 34.9888 78.678 34.9888C80.0171 34.9874 80.8524 33.901 80.8524 32.1528Z" fill="white"/>
<path d="M84.0859 24.9189H85.7876V36.29H84.0859V24.9189Z" fill="white"/>
<path d="M87.4453 32.1753V32.1669C87.4453 29.5749 88.9438 27.8408 91.2676 27.8408C93.5915 27.8408 95.018 29.5128 95.018 32.0018V32.5761H89.1469C89.178 34.1451 90.0387 35.0594 91.3932 35.0594C92.4021 35.0594 93.0709 34.5387 93.2853 33.9165L93.3093 33.853H94.9249L94.9094 33.9405C94.6413 35.2569 93.3644 36.4534 91.3551 36.4534C88.9198 36.4534 87.4453 34.7913 87.4453 32.1753ZM89.1709 31.3711H93.3305C93.188 29.9375 92.3851 29.2363 91.2733 29.2363C90.1713 29.2363 89.3205 29.9855 89.1709 31.3711Z" fill="white"/>
<path d="M98.6126 28.6036V28.2579C98.4546 28.447 98.305 28.6276 98.1569 28.8237L97.457 27.8417C98.322 26.8272 99.1163 25.649 99.8613 24.2832H100.726C101.59 25.2342 102.415 26.2402 103.201 27.2773L102.36 28.1733L102.03 27.6935V28.605H101.024V29.8396H102.596V31.0644H101.024V34.9008C101.567 34.7738 102.102 34.6398 102.637 34.4831V35.6938C101.198 36.0931 99.6342 36.4247 97.9918 36.6998L97.6687 35.4737C98.3925 35.3946 99.0839 35.2846 99.7908 35.1435V31.0644H98.0313V29.8396H99.7908V28.605L98.6126 28.6036ZM99.4917 34.4507L98.5802 34.6877C98.3742 33.7678 98.1089 32.8887 97.8098 32.0549L98.7283 31.7487C99.0049 32.5487 99.2645 33.4376 99.4917 34.4507ZM101.849 27.4339C101.277 26.6325 100.788 26.0032 100.396 25.5305C100.043 26.1993 99.6342 26.8272 99.2179 27.4339H101.849ZM102.84 31.7783C102.666 32.6827 102.439 33.4926 102.195 34.2151L101.315 33.8778C101.521 33.2584 101.715 32.4711 101.889 31.513L102.84 31.7783ZM104.529 35.0631C105.244 34.8669 105.96 34.6384 106.675 34.3646L106.981 35.5047C105.96 35.8814 104.695 36.2751 103.187 36.6278L102.896 35.5837C103.179 35.5047 103.313 35.3777 103.313 35.214V24.6994H109.206V30.7892H104.532V35.0631H104.529ZM107.979 25.8762H104.529V27.1969H107.979V25.8762ZM104.529 29.6181H107.979V28.3299H104.529V29.6181ZM110.125 32.0774C109.535 32.7928 108.883 33.3586 108.144 33.7438C108.75 34.5452 109.471 35.19 110.29 35.6684L109.567 36.7224C107.886 35.6853 106.675 34.074 105.905 31.8813L106.872 31.3381C107.06 31.8559 107.297 32.3526 107.548 32.8083C108.176 32.4457 108.766 31.9589 109.333 31.2915L110.125 32.0774Z" fill="white"/>
<path d="M119.903 32.7219H115.014V34.9611C115.014 35.3237 115.212 35.5043 115.643 35.5043H121.962C122.252 35.4733 122.448 35.3703 122.558 35.1417C122.637 34.9611 122.708 34.4658 122.787 33.6644L124.029 34.0567C123.941 34.8821 123.84 35.4719 123.706 35.8331C123.517 36.3918 123.061 36.698 122.378 36.722H115.101C114.174 36.722 113.703 36.2973 113.703 35.4719V28.7218C113.404 29.083 113.082 29.4287 112.768 29.7278L111.863 28.6272C113.074 27.5281 114.104 26.0183 114.959 24.0938L116.273 24.3915C116.099 24.8091 115.918 25.1929 115.738 25.571H123.258C123.258 29.1789 123.171 31.4097 123.038 32.2577C122.897 33.1141 122.331 33.5473 121.334 33.5473C121.169 33.5473 120.878 33.5233 120.469 33.4923L120.154 32.3296C120.532 32.3677 120.861 32.3917 121.136 32.3917C121.497 32.3917 121.718 32.1476 121.773 31.6848C121.86 31.1825 121.898 29.5796 121.921 26.8282H115.054C114.723 27.363 114.393 27.8582 114.031 28.314H119.902V32.7219H119.903ZM118.581 31.5423V29.4921H115.014V31.5423H118.581Z" fill="white"/>
<path d="M56.878 10.5977V12.7931H59.0918C59.0918 16.1781 59.0354 18.2677 58.9239 19.0677C58.8195 19.9538 58.2848 20.4138 57.3309 20.4138C57.1687 20.4138 56.895 20.3884 56.5055 20.3701L56.3136 19.6561C56.6607 19.6759 56.9641 19.6999 57.2181 19.6999C57.7768 19.6999 58.0999 19.3824 58.1916 18.763C58.2537 18.2056 58.2975 16.456 58.3158 13.5494H56.8766C56.8343 16.7495 56.1147 19.0804 54.7263 20.5563L54.1562 20.0484C55.4078 18.6896 56.0597 16.5209 56.0963 13.5508H54.3608V12.7931H56.0963V10.5977H56.878ZM63.6366 20.3503H62.8733V19.6251H60.8344V20.3503H60.0908V12.185H63.6366V20.3503ZM62.8733 18.8759V12.93H60.8344V18.8773H62.8733V18.8759Z" fill="white"/>
<path d="M70.5704 16.7612V15.5026H71.3761V16.7612H74.9346V17.5118H71.3761V19.3221H75.7417V20.077H66.1992V19.3221H70.5704V17.5118H66.9555V16.7612H70.5704ZM75.451 11.0947V11.8581H70.3715C69.721 12.9487 68.9774 13.8278 68.1393 14.5051C69.8946 14.3992 71.6117 14.2144 73.2612 13.9421C72.938 13.5512 72.598 13.166 72.2509 12.8006L72.876 12.4041C73.8876 13.4638 74.6566 14.3992 75.1885 15.188L74.5508 15.6395C74.3208 15.2994 74.0725 14.9453 73.8072 14.5925C71.5934 14.9396 69.3104 15.1626 66.9795 15.2867L66.7707 14.6052C67.8374 13.9971 68.7362 13.0743 69.4741 11.8595H66.4475V11.0947H75.451Z" fill="white"/>
<defs>
<filter id="filter0_d_568_1956" x="9.17188" y="11.7258" width="39.25" height="20.1074" filterUnits="userSpaceOnUse" color-interpolation-filters="sRGB">
<feFlood flood-opacity="0" result="BackgroundImageFix"/>
<feColorMatrix in="SourceAlpha" type="matrix" values="0 0 0 0 0 0 0 0 0 0 0 0 0 0 0 0 0 0 127 0" result="hardAlpha"/>
<feOffset dy="-0.2"/>
<feGaussianBlur stdDeviation="1.5"/>
<feComposite in2="hardAlpha" operator="out"/>
<feColorMatrix type="matrix" values="0 0 0 0 0 0 0 0 0 0 0 0 0 0 0 0 0 0 0.12 0"/>
<feBlend mode="normal" in2="BackgroundImageFix" result="effect1_dropShadow_568_1956"/>
<feBlend mode="normal" in="SourceGraphic" in2="effect1_dropShadow_568_1956" result="shape"/>
</filter>
<filter id="filter1_d_568_1956" x="9.17188" y="14.7473" width="39.25" height="20.1074" filterUnits="userSpaceOnUse" color-interpolation-filters="sRGB">
<feFlood flood-opacity="0" result="BackgroundImageFix"/>
<feColorMatrix in="SourceAlpha" type="matrix" values="0 0 0 0 0 0 0 0 0 0 0 0 0 0 0 0 0 0 127 0" result="hardAlpha"/>
<feOffset dy="-0.2"/>
<feGaussianBlur stdDeviation="1.5"/>
<feComposite in2="hardAlpha" operator="out"/>
<feColorMatrix type="matrix" values="0 0 0 0 0 0 0 0 0 0 0 0 0 0 0 0 0 0 0.12 0"/>
<feBlend mode="normal" in2="BackgroundImageFix" result="effect1_dropShadow_568_1956"/>
<feBlend mode="normal" in="SourceGraphic" in2="effect1_dropShadow_568_1956" result="shape"/>
</filter>
<filter id="filter2_d_568_1956" x="9.17188" y="17.7697" width="39.25" height="20.1074" filterUnits="userSpaceOnUse" color-interpolation-filters="sRGB">
<feFlood flood-opacity="0" result="BackgroundImageFix"/>
<feColorMatrix in="SourceAlpha" type="matrix" values="0 0 0 0 0 0 0 0 0 0 0 0 0 0 0 0 0 0 127 0" result="hardAlpha"/>
<feOffset dy="-0.2"/>
<feGaussianBlur stdDeviation="1.5"/>
<feComposite in2="hardAlpha" operator="out"/>
<feColorMatrix type="matrix" values="0 0 0 0 0 0 0 0 0 0 0 0 0 0 0 0 0 0 0.12 0"/>
<feBlend mode="normal" in2="BackgroundImageFix" result="effect1_dropShadow_568_1956"/>
<feBlend mode="normal" in="SourceGraphic" in2="effect1_dropShadow_568_1956" result="shape"/>
</filter>
<filter id="filter3_d_568_1956" x="7.16016" y="20.7951" width="43.2812" height="20.1055" filterUnits="userSpaceOnUse" color-interpolation-filters="sRGB">
<feFlood flood-opacity="0" result="BackgroundImageFix"/>
<feColorMatrix in="SourceAlpha" type="matrix" values="0 0 0 0 0 0 0 0 0 0 0 0 0 0 0 0 0 0 127 0" result="hardAlpha"/>
<feOffset dy="-0.2"/>
<feGaussianBlur stdDeviation="1.5"/>
<feComposite in2="hardAlpha" operator="out"/>
<feColorMatrix type="matrix" values="0 0 0 0 0 0 0 0 0 0 0 0 0 0 0 0 0 0 0.12 0"/>
<feBlend mode="normal" in2="BackgroundImageFix" result="effect1_dropShadow_568_1956"/>
<feBlend mode="normal" in="SourceGraphic" in2="effect1_dropShadow_568_1956" result="shape"/>
</filter>
</defs>
</svg>
