<svg width="176" height="48" viewBox="0 0 176 48" fill="none" xmlns="http://www.w3.org/2000/svg">
<path d="M161.605 0.00141098H13.4508C12.933 0.00141098 12.4222 0.00141098 11.9072 0.00423293C11.4741 0.00705488 11.0465 0.0155207 10.6105 0.0225756C9.67083 0.0451512 8.72124 0.103001 7.78294 0.270907C6.839 0.437403 5.96137 0.719598 5.10209 1.15559C4.25692 1.58876 3.48511 2.15033 2.81772 2.81913C2.14327 3.48652 1.58312 4.26115 1.15559 5.10632C0.716776 5.9642 0.438814 6.84606 0.273729 7.79141C0.104412 8.72548 0.0451512 9.66942 0.0211646 10.6148C0.00846586 11.0479 0.00705488 11.4811 0 11.9143C0 12.4251 0 12.9372 0 13.4551V34.5463C0 35.067 0 35.5764 0 36.0899C0.00705488 36.5273 0.00846586 36.9521 0.0211646 37.3909C0.0451512 38.3362 0.104412 39.2816 0.273729 40.2156C0.438814 41.161 0.716776 42.0471 1.15559 42.9021C1.58312 43.7431 2.14327 44.5163 2.81772 45.1795C3.48511 45.8525 4.25692 46.4141 5.10068 46.8416C5.95996 47.2818 6.83759 47.5612 7.78294 47.7319C8.71983 47.8998 9.67083 47.9548 10.6105 47.9817C11.0465 47.9915 11.4755 47.9972 11.9072 47.9972C12.4236 48 12.9344 48 13.4522 48H161.606C162.113 48 162.628 48 163.136 47.9972C163.566 47.9972 164.006 47.9915 164.437 47.9817C165.382 47.9563 166.33 47.8998 167.259 47.7319C168.204 47.5612 169.083 47.2832 169.951 46.8416C170.793 46.4126 171.565 45.8525 172.232 45.1795C172.904 44.5163 173.464 43.7431 173.899 42.9021C174.332 42.0471 174.613 41.161 174.772 40.2156C174.946 39.2816 175.001 38.3362 175.034 37.3909C175.04 36.9521 175.04 36.5288 175.04 36.0899C175.051 35.5778 175.051 35.0684 175.051 34.5463V13.4537C175.051 12.9372 175.051 12.4251 175.04 11.9129C175.04 11.4797 175.04 11.0465 175.034 10.6134C175.002 9.66801 174.947 8.72265 174.772 7.78859C174.613 6.84323 174.332 5.96137 173.899 5.1035C173.463 4.25833 172.904 3.48511 172.232 2.81631C171.565 2.14751 170.794 1.58594 169.951 1.15277C169.083 0.715365 168.204 0.43317 167.259 0.268085C166.33 0.100179 165.382 0.0423293 164.437 0.0183427C164.006 0.0112878 163.566 0.00282195 163.136 0C162.626 0.00141098 162.111 0.00141098 161.605 0.00141098Z" fill="#A6A6A6"/>
<path d="M161.606 0.918945C162.111 0.918945 162.624 0.918945 163.129 0.921767C163.477 0.924589 163.832 0.930233 164.182 0.935877L164.413 0.94011C165.16 0.958453 166.138 1.00219 167.1 1.17574C167.973 1.32813 168.771 1.59057 169.531 1.97294C170.292 2.36378 170.982 2.86609 171.584 3.46999C172.181 4.0626 172.685 4.75398 173.078 5.51873C173.461 6.27924 173.719 7.07221 173.868 7.95831C174.033 8.84722 174.084 9.77564 174.115 10.6265C174.121 11.0554 174.121 11.4857 174.121 11.933C174.132 12.4382 174.132 12.9433 174.132 13.4541V34.5453C174.132 35.0589 174.132 35.5626 174.121 36.0889C174.121 36.5235 174.121 36.944 174.115 37.3574C174.084 38.228 174.033 39.1564 173.866 40.0608C173.717 40.9385 173.459 41.7314 173.082 42.4778C172.682 43.2525 172.178 43.941 171.578 44.5322C170.982 45.1347 170.294 45.6356 169.534 46.0222C168.785 46.4032 167.986 46.6656 167.094 46.8279C166.17 46.9958 165.219 47.0409 164.416 47.0635C163.993 47.0734 163.56 47.079 163.131 47.079C162.626 47.0819 162.112 47.0819 161.607 47.0819H13.4517C12.9367 47.0819 12.4273 47.0819 11.9067 47.079C11.4819 47.079 11.0601 47.0734 10.6354 47.0649C9.82828 47.0423 8.8787 46.9972 7.94604 46.8293C7.05289 46.6684 6.25851 46.4046 5.51634 46.0236C4.75582 45.6384 4.06727 45.1361 3.46055 44.5238C2.86512 43.9382 2.36422 43.2525 1.97197 42.4821C1.59383 41.7441 1.3328 40.9498 1.17618 40.0495C1.00122 39.0887 0.957476 38.1109 0.937722 37.363C0.929257 37.0696 0.925024 36.7831 0.922202 36.4939L0.917969 36.0889V34.5453V13.4541V11.9288L0.923613 11.5069C0.926435 11.2191 0.930668 10.9312 0.939133 10.6392C0.957476 9.89416 1.00263 8.91636 1.179 7.94843C1.33421 7.05951 1.59383 6.26655 1.97479 5.52014C2.36281 4.75398 2.8637 4.06401 3.4676 3.46717C4.06868 2.86468 4.76006 2.36237 5.51775 1.97436C6.27403 1.58916 7.067 1.32813 7.94604 1.17433C8.91115 1.00078 9.89037 0.957042 10.6255 0.938699L10.9049 0.934466C11.2421 0.928822 11.5765 0.923178 11.9123 0.921767C12.4259 0.918945 12.9367 0.918945 13.4517 0.918945H161.606Z" fill="black"/>
<mask id="mask0_568_2044" style="mask-type:luminance" maskUnits="userSpaceOnUse" x="10" y="10" width="37" height="28">
<path d="M46.9374 32.5304V32.9043C46.9374 33.0835 46.9374 33.2627 46.936 33.4419C46.9346 33.5928 46.9332 33.7438 46.929 33.8948C46.9205 34.2235 46.9008 34.5551 46.8429 34.8796C46.7836 35.2098 46.6863 35.5174 46.5339 35.8165C46.3843 36.1114 46.1882 36.3809 45.954 36.6137C45.7198 36.8479 45.4503 37.0427 45.1568 37.1936C44.8577 37.346 44.5501 37.4434 44.2199 37.5026C43.8954 37.5605 43.5638 37.5802 43.235 37.5887C43.0841 37.5929 42.9331 37.5944 42.7821 37.5958C42.6029 37.5972 42.4237 37.5972 42.2445 37.5972L40.1859 37.5958L42.102 37.5972H15.4995L17.4156 37.5958L15.357 37.5972C15.1778 37.5972 14.9986 37.5972 14.8194 37.5958C14.6684 37.5944 14.5174 37.5929 14.3665 37.5887C14.0377 37.5802 13.7061 37.5605 13.3816 37.5026C13.0514 37.4434 12.7453 37.346 12.4447 37.1936C12.1498 37.0441 11.8803 36.8479 11.6475 36.6137C11.4133 36.3795 11.2186 36.11 11.0676 35.8165C10.9152 35.5174 10.8179 35.2098 10.7586 34.8796C10.7007 34.5551 10.681 34.2235 10.6725 33.8948C10.6683 33.7438 10.6669 33.5928 10.6655 33.4419C10.6641 33.2627 10.6641 33.0835 10.6641 32.9043V32.6108V15.3799V17.1437V15.0851C10.6641 14.9059 10.6641 14.7267 10.6655 14.5475C10.6669 14.3965 10.6683 14.2455 10.6725 14.0945C10.681 13.7658 10.7007 13.4342 10.7586 13.1097C10.8179 12.7795 10.9152 12.4719 11.0676 12.1728C11.2172 11.8779 11.4133 11.6084 11.6475 11.3756C11.8817 11.1428 12.1512 10.9467 12.4461 10.7971C12.7453 10.6447 13.0528 10.5474 13.383 10.4881C13.7075 10.4302 14.0391 10.4105 14.3679 10.402C14.5188 10.3978 14.6698 10.3964 14.8208 10.395C15 10.3936 15.1792 10.3936 15.3584 10.3936H17.417H42.1034H42.2445C42.4237 10.3936 42.6029 10.3936 42.7821 10.395C42.9331 10.3964 43.0841 10.3978 43.235 10.402C43.5638 10.4105 43.8954 10.4302 44.2199 10.4881C44.5501 10.5474 44.8562 10.6447 45.1568 10.7971C45.4517 10.9467 45.7212 11.1428 45.954 11.377C46.1882 11.6112 46.3829 11.8807 46.5339 12.1742C46.6863 12.4733 46.7836 12.7809 46.8429 13.1111C46.9008 13.4356 46.9205 13.7672 46.929 14.096C46.9332 14.2469 46.9346 14.3979 46.936 14.5489C46.9374 14.7281 46.9374 14.9073 46.9374 15.0865V15.4604V32.5304Z" fill="white"/>
</mask>
<g mask="url(#mask0_568_2044)">
<path d="M45.7858 11.5264H11.7812V35.204H45.7858V11.5264Z" fill="#DEDBCE"/>
<path d="M45.4254 11.9043H12.1758V26.0098H45.4254V11.9043Z" fill="#40A5D9"/>
<g filter="url(#filter0_d_568_2044)">
<path fill-rule="evenodd" clip-rule="evenodd" d="M45.4215 17.9044C45.4215 17.7901 45.4215 17.6772 45.4215 17.5629C45.4215 17.467 45.4201 17.371 45.4173 17.2751C45.4117 17.0662 45.399 16.856 45.3623 16.65C45.3242 16.4412 45.2635 16.2465 45.1661 16.056C45.0716 15.8697 44.9474 15.6976 44.7979 15.5494C44.6497 15.4013 44.479 15.2771 44.2913 15.1812C44.1009 15.0838 43.9061 15.0231 43.6973 14.985C43.4913 14.9484 43.2811 14.9357 43.0723 14.93C42.9763 14.9272 42.8804 14.9258 42.7844 14.9258C42.6701 14.9258 42.5573 14.9258 42.443 14.9258H42.3498H16.4556H15.1504C15.0362 14.9258 14.9233 14.9258 14.809 14.9258C14.713 14.9258 14.6171 14.9272 14.5212 14.93C14.3123 14.9357 14.1021 14.9484 13.8961 14.985C13.6873 15.0231 13.4925 15.0838 13.3021 15.1812C13.1158 15.2757 12.9437 15.3999 12.7955 15.5494C12.6474 15.6976 12.5232 15.8683 12.4273 16.056C12.3299 16.2465 12.2692 16.4412 12.2311 16.65C12.1945 16.856 12.1818 17.0662 12.1761 17.2751C12.1733 17.371 12.1719 17.467 12.1719 17.5629C12.1719 17.6772 12.1719 17.7901 12.1719 17.9044V19.2095V18.1837V29.0327H45.4215V18.2515V17.9044Z" fill="#FFB003"/>
</g>
<g filter="url(#filter1_d_568_2044)">
<path fill-rule="evenodd" clip-rule="evenodd" d="M45.4215 20.9258C45.4215 20.8115 45.4215 20.6987 45.4215 20.5844C45.4215 20.4884 45.4201 20.3925 45.4173 20.2965C45.4117 20.0877 45.399 19.8775 45.3623 19.6715C45.3242 19.4627 45.2635 19.2679 45.1661 19.0775C45.0716 18.8912 44.9474 18.7191 44.7979 18.5709C44.6497 18.4228 44.479 18.2986 44.2913 18.2027C44.1009 18.1053 43.9061 18.0446 43.6973 18.0065C43.4913 17.9698 43.2811 17.9571 43.0723 17.9515C42.9763 17.9487 42.8804 17.9473 42.7844 17.9473C42.6701 17.9473 42.5573 17.9473 42.443 17.9473H42.3484H16.4556H15.1504C15.0362 17.9473 14.9233 17.9473 14.809 17.9473C14.713 17.9473 14.6171 17.9487 14.5212 17.9515C14.3123 17.9571 14.1021 17.9698 13.8961 18.0065C13.6873 18.0446 13.4925 18.1053 13.3021 18.2027C13.1158 18.2972 12.9437 18.4214 12.7955 18.5709C12.6474 18.7191 12.5232 18.8898 12.4273 19.0775C12.3299 19.2679 12.2692 19.4627 12.2311 19.6715C12.1945 19.8775 12.1818 20.0877 12.1761 20.2965C12.1733 20.3925 12.1719 20.4884 12.1719 20.5844C12.1719 20.6987 12.1719 20.8115 12.1719 20.9258V22.231V21.2052V32.0542H45.4215V21.2729V20.9258Z" fill="#40C740"/>
</g>
<g filter="url(#filter2_d_568_2044)">
<path fill-rule="evenodd" clip-rule="evenodd" d="M45.4215 23.9483C45.4215 23.834 45.4215 23.7211 45.4215 23.6068C45.4215 23.5109 45.4201 23.4149 45.4173 23.319C45.4117 23.1102 45.399 22.8999 45.3623 22.6939C45.3242 22.4851 45.2635 22.2904 45.1661 22.0999C45.0716 21.9137 44.9474 21.7415 44.7979 21.5934C44.6497 21.4452 44.479 21.3211 44.2913 21.2251C44.1009 21.1278 43.9061 21.0671 43.6973 21.029C43.4913 20.9923 43.2811 20.9796 43.0723 20.974C42.9763 20.9711 42.8804 20.9697 42.7844 20.9697C42.6701 20.9697 42.5573 20.9697 42.443 20.9697H42.3484H16.4556H15.1504C15.0362 20.9697 14.9233 20.9697 14.809 20.9697C14.713 20.9697 14.6171 20.9711 14.5212 20.974C14.3123 20.9796 14.1021 20.9923 13.8961 21.029C13.6873 21.0671 13.4925 21.1278 13.3021 21.2251C13.1158 21.3196 12.9437 21.4438 12.7955 21.5934C12.6474 21.7415 12.5232 21.9123 12.4273 22.0999C12.3299 22.2904 12.2692 22.4851 12.2311 22.6939C12.1945 22.8999 12.1818 23.1102 12.1761 23.319C12.1733 23.4149 12.1719 23.5109 12.1719 23.6068C12.1719 23.7211 12.1719 23.834 12.1719 23.9483V25.2534V24.2277V35.0767H45.4215V24.2954V23.9483Z" fill="#F26D5F"/>
</g>
<path fill-rule="evenodd" clip-rule="evenodd" d="M10.1602 9.88965V25.5063H12.175V16.1868V14.8817C12.175 14.7674 12.175 14.6545 12.175 14.5402C12.175 14.4443 12.1764 14.3483 12.1793 14.2524C12.1849 14.0436 12.1976 13.8333 12.2343 13.6273C12.2724 13.4185 12.3331 13.2238 12.4304 13.0333C12.525 12.8471 12.6491 12.6749 12.7987 12.5268C12.9468 12.3786 13.1176 12.2544 13.3052 12.1585C13.4943 12.064 13.689 12.0019 13.8978 11.9652C14.1038 11.9285 14.3141 11.9158 14.5229 11.9102C14.6188 11.9073 14.7148 11.9059 14.8107 11.9059C14.925 11.9059 15.0379 11.9059 15.1522 11.9059H16.4573H42.3473H42.4475C42.5618 11.9059 42.6747 11.9059 42.789 11.9059C42.8849 11.9059 42.9809 11.9073 43.0768 11.9102C43.2856 11.9158 43.4959 11.9285 43.7019 11.9652C43.9107 12.0033 44.1054 12.064 44.2959 12.1613C44.4822 12.2559 44.6543 12.38 44.8024 12.5296C44.9506 12.6777 45.0748 12.8485 45.1707 13.0361C45.2681 13.2266 45.3287 13.4213 45.3668 13.6301C45.4035 13.8361 45.4162 14.0464 45.4219 14.2552C45.4247 14.3512 45.4261 14.4471 45.4261 14.543C45.4261 14.6573 45.4261 14.7702 45.4261 14.8845V16.1897V25.5092H47.441V9.88965H10.1602Z" fill="#D9D6CC"/>
<g filter="url(#filter3_d_568_2044)">
<path fill-rule="evenodd" clip-rule="evenodd" d="M38.0735 23.9951C37.8576 23.9951 37.6403 23.9951 37.4244 23.9965C37.2424 23.9979 37.0604 23.9994 36.8784 24.005C36.4819 24.0163 36.0812 24.0389 35.6889 24.1094C35.2911 24.1814 34.92 24.2985 34.5588 24.4819C34.5122 24.5059 33.5175 24.9574 32.6229 26.3486C31.9442 27.4054 30.6235 28.5258 28.7738 28.5258C26.9254 28.5258 25.6047 27.4054 24.9246 26.3486C23.9835 24.8826 22.9097 24.4424 22.9873 24.4819C22.6261 24.2971 22.255 24.18 21.8571 24.1094C21.4649 24.0389 21.0642 24.0149 20.6677 24.005C20.4857 24.0008 20.3037 23.9979 20.1216 23.9965C19.9058 23.9951 19.6885 23.9951 19.4726 23.9951H10.1602V38.1006H47.4396V23.9951H38.0735Z" fill="#DEDBCE"/>
</g>
</g>
<path d="M58.1746 24.9199H60.0823L64.2108 36.2896H62.3596L61.3197 33.2165H56.9386L55.8903 36.2896H54.0391L58.1746 24.9199ZM57.4099 31.797H60.8371L59.1426 26.8022H59.1115L57.4099 31.797Z" fill="white"/>
<path d="M65.3008 27.9998H67.0024V29.4263H67.0419C67.5386 28.4415 68.4529 27.8418 69.6339 27.8418C71.7461 27.8418 73.1021 29.4969 73.1021 32.1453V32.1537C73.1021 34.7923 71.7391 36.4558 69.6593 36.4558C68.4854 36.4558 67.5315 35.8561 67.0433 34.8967H67.0038V39.0492H65.3022L65.3008 27.9998ZM71.368 32.1523V32.1439C71.368 30.3787 70.5242 29.2979 69.1923 29.2979C67.8998 29.2979 66.9939 30.4182 66.9939 32.1439V32.1523C66.9939 33.8695 67.9083 34.9884 69.1923 34.9884C70.5327 34.9884 71.368 33.9005 71.368 32.1523Z" fill="white"/>
<path d="M74.7852 27.9998H76.4868V29.4263H76.5263C77.023 28.4415 77.9373 27.8418 79.1183 27.8418C81.2305 27.8418 82.5864 29.4969 82.5864 32.1453V32.1537C82.5864 34.7923 81.2234 36.4558 79.1437 36.4558C77.9697 36.4558 77.0159 35.8561 76.5277 34.8967H76.4882V39.0492H74.7866L74.7852 27.9998ZM80.8524 32.1523V32.1439C80.8524 30.3787 80.0086 29.2979 78.6766 29.2979C77.3842 29.2979 76.4783 30.4182 76.4783 32.1439V32.1523C76.4783 33.8695 77.3926 34.9884 78.6766 34.9884C80.0171 34.9884 80.8524 33.9005 80.8524 32.1523Z" fill="white"/>
<path d="M84.0859 24.9199H85.789V36.2896H84.0859V24.9199Z" fill="white"/>
<path d="M87.4453 32.1763V32.1678C87.4453 29.5759 88.9424 27.8418 91.2662 27.8418C93.5901 27.8418 95.0166 29.5138 95.0166 32.0028V32.577H89.147C89.178 34.146 90.0359 35.0603 91.3918 35.0603C92.4007 35.0603 93.0695 34.5397 93.2825 33.9175L93.3065 33.854H94.9235L94.9066 33.9414C94.6399 35.2579 93.3615 36.4544 91.3523 36.4544C88.9198 36.4544 87.4453 34.7909 87.4453 32.1763ZM89.1709 31.3706H93.3319C93.1894 29.9371 92.3851 29.2358 91.2747 29.2358C90.1727 29.2373 89.3205 29.9851 89.1709 31.3706Z" fill="white"/>
<path d="M103.949 26.4395H100.465V24.9199H109.189V26.441H105.714V36.2896H103.949V26.4395Z" fill="white"/>
<path d="M108.395 33.933V33.9175C108.395 32.4755 109.513 31.5936 111.476 31.4751L113.729 31.341V30.7188C113.729 29.8045 113.138 29.2528 112.083 29.2528C111.098 29.2528 110.491 29.7184 110.349 30.3802L110.333 30.4507H108.725L108.733 30.3632C108.85 28.9367 110.088 27.8418 112.128 27.8418C114.154 27.8418 115.438 28.9142 115.438 30.5763V36.2893H113.728V34.9814H113.697C113.217 35.8717 112.256 36.4389 111.16 36.4389C109.505 36.4389 108.395 35.4216 108.395 33.933ZM111.624 35.0745C112.824 35.0745 113.728 34.2632 113.728 33.1838V32.539L111.703 32.6645C110.677 32.728 110.11 33.1767 110.11 33.878V33.8935C110.112 34.6187 110.711 35.0745 111.624 35.0745ZM111.325 27.0616L112.705 24.5811H114.36L112.556 27.0616H111.325Z" fill="white"/>
<path d="M117.449 27.9998H119.151V29.4179H119.19C119.457 28.4485 120.151 27.8418 121.098 27.8418C121.342 27.8418 121.554 27.8813 121.689 27.9053V29.4898C121.554 29.4348 121.255 29.3953 120.924 29.3953C119.83 29.3953 119.151 30.1135 119.151 31.3495V36.2907H117.449V27.9998Z" fill="white"/>
<path d="M122.379 32.1354V32.1298C122.379 29.5053 123.924 27.8418 126.289 27.8418C128.424 27.8418 129.716 29.2147 129.857 30.7738L129.866 30.8288H128.243L128.226 30.7653C128.045 29.954 127.415 29.2683 126.304 29.2683C124.981 29.2683 124.121 30.3703 124.121 32.1439V32.1523C124.121 33.964 124.996 35.0279 126.313 35.0279C127.36 35.0279 128.03 34.4212 128.234 33.5238L128.243 33.4603H129.881L129.874 33.5153C129.692 35.1789 128.306 36.4544 126.313 36.4544C123.891 36.4544 122.379 34.7909 122.379 32.1354Z" fill="white"/>
<path d="M131.121 33.933V33.9175C131.121 32.4755 132.24 31.5936 134.203 31.4751L136.456 31.341V30.7188C136.456 29.8045 135.865 29.2528 134.809 29.2528C133.825 29.2528 133.218 29.7184 133.075 30.3802L133.06 30.4507H131.451L131.46 30.3632C131.577 28.9367 132.814 27.8418 134.855 27.8418C136.881 27.8418 138.165 28.9142 138.165 30.5763V36.2893H136.455V34.9814H136.424C135.944 35.8717 134.983 36.4389 133.887 36.4389C132.232 36.4389 131.121 35.4216 131.121 33.933ZM134.351 35.0745C135.55 35.0745 136.455 34.2632 136.455 33.1838V32.539L134.43 32.6645C133.404 32.728 132.837 33.1767 132.837 33.878V33.8935C132.838 34.6187 133.438 35.0745 134.351 35.0745ZM134.052 27.0616L135.432 24.5811H137.087L135.282 27.0616H134.052Z" fill="white"/>
<path d="M140.24 24.9199H141.941V29.3631H141.981C142.421 28.4022 143.311 27.8421 144.549 27.8421C146.322 27.8421 147.488 29.1655 147.488 31.1677V36.2896H145.786V31.4908C145.786 30.1194 145.092 29.2996 143.894 29.2996C142.72 29.2996 141.94 30.1984 141.94 31.4908V36.2896H140.238L140.24 24.9199Z" fill="white"/>
<path d="M149.129 32.1439V32.1298C149.129 29.4814 150.696 27.8418 153.053 27.8418C155.418 27.8418 156.992 29.4729 156.992 32.1298V32.1453C156.992 34.8177 155.433 36.4558 153.061 36.4558C150.682 36.4544 149.129 34.8078 149.129 32.1439ZM155.253 32.1439V32.1298C155.253 30.3166 154.386 29.2697 153.053 29.2697C151.745 29.2697 150.87 30.3166 150.87 32.1298V32.1453C150.87 33.981 151.736 35.0293 153.07 35.0293C154.4 35.0279 155.253 33.9725 155.253 32.1439Z" fill="white"/>
<path d="M158.238 35.1932L162.667 29.3856V29.3545H158.271V28H164.614V29.1655L160.295 34.9095V34.9406H164.661V36.2881H158.238V35.1932Z" fill="white"/>
<path d="M54.8398 11.5186H55.9051V15.2125H60.5938V11.5186H61.6591V20.062H60.5938V16.172H55.9051V20.062H54.8398V11.5186Z" fill="white"/>
<path d="M63.3711 16.8746V16.8633C63.3711 14.8146 64.4956 13.5645 66.313 13.5645C68.1303 13.5645 69.2549 14.8146 69.2549 16.8633V16.8746C69.2549 18.9177 68.1303 20.1735 66.313 20.1735C64.4956 20.1735 63.3711 18.9191 63.3711 16.8746ZM68.2023 16.8746V16.8633C68.2023 15.3536 67.5208 14.4774 66.313 14.4774C65.1052 14.4774 64.4251 15.3536 64.4251 16.8633V16.8746C64.4251 18.3787 65.1052 19.2606 66.313 19.2606C67.5208 19.2606 68.2023 18.3801 68.2023 16.8746Z" fill="white"/>
<path d="M70.5117 19.3156L74.1944 14.6255V14.5324H70.5188V13.6787H75.4092V14.442L71.7449 19.1152V19.2083H75.4276V20.0606H70.5131V19.3156H70.5117Z" fill="white"/>
<path d="M77.0312 19.3156L80.7139 14.6255V14.5324H77.0369V13.6787H81.9273V14.442L78.263 19.1152V19.2083H81.9457V20.0606H77.0312V19.3156Z" fill="white"/>
<path d="M83.3242 18.2795V18.2668C83.3242 17.1296 84.1652 16.4735 85.6509 16.3846L87.481 16.2717V15.6918C87.481 14.903 87.0012 14.4783 86.0474 14.4783C85.2841 14.4783 84.7803 14.7619 84.6153 15.26L84.6096 15.2784H83.5796L83.5852 15.2431C83.7517 14.2427 84.7225 13.5668 86.0841 13.5668C87.6418 13.5668 88.511 14.3655 88.511 15.6932V20.063H87.481V19.1219H87.3864C86.9829 19.8019 86.3141 20.1759 85.4562 20.1759C84.2414 20.173 83.3242 19.4393 83.3242 18.2795ZM85.6678 19.2799C86.7162 19.2799 87.4795 18.5927 87.4795 17.6812V17.1013L85.7751 17.2072C84.8043 17.2664 84.3782 17.6093 84.3782 18.2428V18.2541C84.3782 18.9003 84.9285 19.2799 85.6678 19.2799ZM85.5747 12.7894L86.6231 10.7773H87.8422L86.4749 12.7894H85.5747Z" fill="white"/>
<path d="M89.9961 18.2791V18.2664C89.9961 17.1291 90.837 16.473 92.3228 16.3841L94.1528 16.2712V15.6913C94.1528 14.9026 93.6717 14.4779 92.7193 14.4779C91.9545 14.4779 91.4522 14.7615 91.2857 15.2596L91.2801 15.2779H90.2501L90.2557 15.2426C90.4222 14.2423 91.393 13.5664 92.7545 13.5664C94.3123 13.5664 95.1828 14.365 95.1828 15.6927V20.0625H94.1528V19.1214H94.0583C93.6562 19.8015 92.9859 20.1754 92.1281 20.1754C90.9132 20.1726 89.9961 19.4389 89.9961 18.2791ZM92.3411 19.2794C93.3881 19.2794 94.1528 18.5923 94.1528 17.6808V17.1009L92.447 17.2067C91.4762 17.266 91.0501 17.6089 91.0501 18.2424V18.2537C91.0501 18.8999 91.6018 19.2794 92.3411 19.2794Z" fill="white"/>
<path d="M96.7305 16.8745V16.8632C96.7305 14.861 97.7845 13.5644 99.4057 13.5644C100.282 13.5644 101.045 14.0032 101.395 14.6833H101.49V11.1445H102.518V20.0605H101.491V19.0418H101.397C101.006 19.7529 100.296 20.1734 99.4071 20.1734C97.7901 20.1734 96.7305 18.8654 96.7305 16.8745ZM101.515 16.8745V16.8632C101.515 15.3887 100.804 14.4773 99.6441 14.4773C98.4787 14.4773 97.7859 15.3775 97.7859 16.8632V16.8745C97.7859 18.3617 98.4787 19.2605 99.6441 19.2605C100.804 19.2619 101.515 18.349 101.515 16.8745Z" fill="white"/>
<path d="M104.102 18.2795V18.2668C104.102 17.1296 104.943 16.4735 106.428 16.3846L108.257 16.2717V15.6918C108.257 14.903 107.777 14.4783 106.825 14.4783C106.06 14.4783 105.558 14.7619 105.391 15.26L105.386 15.2784H104.356L104.361 15.2431C104.526 14.2427 105.498 13.5668 106.86 13.5668C108.418 13.5668 109.288 14.3655 109.288 15.6932V20.063H108.258V19.1219H108.164C107.762 19.8019 107.091 20.1759 106.234 20.1759C105.019 20.173 104.102 19.4393 104.102 18.2795ZM106.447 19.2799C107.494 19.2799 108.257 18.5927 108.257 17.6812V17.1013L106.552 17.2072C105.582 17.2664 105.156 17.6093 105.156 18.2428V18.2541C105.156 18.9003 105.707 19.2799 106.447 19.2799ZM106.352 12.7894L107.399 10.7773H108.62L107.251 12.7894H106.352Z" fill="white"/>
<path d="M110.832 18.4319H111.886C112.057 18.9652 112.566 19.3152 113.384 19.3152C114.242 19.3152 114.852 18.906 114.852 18.3261V18.3134C114.852 17.8816 114.527 17.5797 113.74 17.3906L112.751 17.1535C111.554 16.8699 111.017 16.3493 111.017 15.4307V15.4251C111.017 14.364 112.036 13.5654 113.392 13.5654C114.729 13.5654 115.659 14.2356 115.801 15.2769H114.788C114.652 14.7746 114.155 14.4247 113.386 14.4247C112.628 14.4247 112.071 14.8156 112.071 15.3785V15.3912C112.071 15.823 112.391 16.0953 113.143 16.2787L114.125 16.5158C115.327 16.8064 115.907 17.3271 115.907 18.24V18.2513C115.907 19.3885 114.801 20.1759 113.351 20.1759C111.928 20.173 110.951 19.4859 110.832 18.4319Z" fill="white"/>
<path d="M120.504 18.2799V18.2672C120.504 17.13 121.345 16.4739 122.831 16.385L124.661 16.2721V15.6922C124.661 14.9035 124.179 14.4788 123.227 14.4788C122.462 14.4788 121.96 14.7624 121.794 15.2604L121.788 15.2788H120.758L120.765 15.2407C120.93 14.2403 121.902 13.5645 123.264 13.5645C124.821 13.5645 125.692 14.3631 125.692 15.6908V20.0606H124.663V19.1195H124.569C124.167 19.7996 123.497 20.1735 122.639 20.1735C121.421 20.1735 120.504 19.4398 120.504 18.2799ZM122.849 19.2803C123.896 19.2803 124.661 18.5932 124.661 17.6817V17.1018L122.955 17.2076C121.984 17.2669 121.558 17.6097 121.558 18.2433V18.2545C121.558 18.9008 122.11 19.2803 122.849 19.2803Z" fill="white"/>
<path d="M127.41 19.3156L131.091 14.6255V14.5324H127.416V13.6787H132.306V14.442L128.641 19.1152V19.2083H132.323V20.0606H127.41V19.3156Z" fill="white"/>
<defs>
<filter id="filter0_d_568_2044" x="9.17188" y="11.7258" width="39.25" height="20.1074" filterUnits="userSpaceOnUse" color-interpolation-filters="sRGB">
<feFlood flood-opacity="0" result="BackgroundImageFix"/>
<feColorMatrix in="SourceAlpha" type="matrix" values="0 0 0 0 0 0 0 0 0 0 0 0 0 0 0 0 0 0 127 0" result="hardAlpha"/>
<feOffset dy="-0.2"/>
<feGaussianBlur stdDeviation="1.5"/>
<feComposite in2="hardAlpha" operator="out"/>
<feColorMatrix type="matrix" values="0 0 0 0 0 0 0 0 0 0 0 0 0 0 0 0 0 0 0.12 0"/>
<feBlend mode="normal" in2="BackgroundImageFix" result="effect1_dropShadow_568_2044"/>
<feBlend mode="normal" in="SourceGraphic" in2="effect1_dropShadow_568_2044" result="shape"/>
</filter>
<filter id="filter1_d_568_2044" x="9.17188" y="14.7473" width="39.25" height="20.1074" filterUnits="userSpaceOnUse" color-interpolation-filters="sRGB">
<feFlood flood-opacity="0" result="BackgroundImageFix"/>
<feColorMatrix in="SourceAlpha" type="matrix" values="0 0 0 0 0 0 0 0 0 0 0 0 0 0 0 0 0 0 127 0" result="hardAlpha"/>
<feOffset dy="-0.2"/>
<feGaussianBlur stdDeviation="1.5"/>
<feComposite in2="hardAlpha" operator="out"/>
<feColorMatrix type="matrix" values="0 0 0 0 0 0 0 0 0 0 0 0 0 0 0 0 0 0 0.12 0"/>
<feBlend mode="normal" in2="BackgroundImageFix" result="effect1_dropShadow_568_2044"/>
<feBlend mode="normal" in="SourceGraphic" in2="effect1_dropShadow_568_2044" result="shape"/>
</filter>
<filter id="filter2_d_568_2044" x="9.17188" y="17.7697" width="39.25" height="20.1074" filterUnits="userSpaceOnUse" color-interpolation-filters="sRGB">
<feFlood flood-opacity="0" result="BackgroundImageFix"/>
<feColorMatrix in="SourceAlpha" type="matrix" values="0 0 0 0 0 0 0 0 0 0 0 0 0 0 0 0 0 0 127 0" result="hardAlpha"/>
<feOffset dy="-0.2"/>
<feGaussianBlur stdDeviation="1.5"/>
<feComposite in2="hardAlpha" operator="out"/>
<feColorMatrix type="matrix" values="0 0 0 0 0 0 0 0 0 0 0 0 0 0 0 0 0 0 0.12 0"/>
<feBlend mode="normal" in2="BackgroundImageFix" result="effect1_dropShadow_568_2044"/>
<feBlend mode="normal" in="SourceGraphic" in2="effect1_dropShadow_568_2044" result="shape"/>
</filter>
<filter id="filter3_d_568_2044" x="7.16016" y="20.7951" width="43.2812" height="20.1055" filterUnits="userSpaceOnUse" color-interpolation-filters="sRGB">
<feFlood flood-opacity="0" result="BackgroundImageFix"/>
<feColorMatrix in="SourceAlpha" type="matrix" values="0 0 0 0 0 0 0 0 0 0 0 0 0 0 0 0 0 0 127 0" result="hardAlpha"/>
<feOffset dy="-0.2"/>
<feGaussianBlur stdDeviation="1.5"/>
<feComposite in2="hardAlpha" operator="out"/>
<feColorMatrix type="matrix" values="0 0 0 0 0 0 0 0 0 0 0 0 0 0 0 0 0 0 0.12 0"/>
<feBlend mode="normal" in2="BackgroundImageFix" result="effect1_dropShadow_568_2044"/>
<feBlend mode="normal" in="SourceGraphic" in2="effect1_dropShadow_568_2044" result="shape"/>
</filter>
</defs>
</svg>
