<svg width="171" height="48" viewBox="0 0 171 48" fill="none" xmlns="http://www.w3.org/2000/svg">
<path d="M157.356 0.00141098H13.4508C12.933 0.00141098 12.4222 0.00141098 11.9072 0.00423293C11.4741 0.00705488 11.0465 0.0155207 10.6105 0.0225756C9.67083 0.0451512 8.72124 0.103001 7.78294 0.270907C6.839 0.437403 5.96137 0.719598 5.10209 1.15559C4.25692 1.58876 3.48511 2.15033 2.81772 2.81913C2.14327 3.48652 1.58312 4.26115 1.15559 5.10632C0.716776 5.9642 0.438814 6.84606 0.273729 7.79141C0.104412 8.72548 0.0451512 9.66942 0.0211646 10.6148C0.00846586 11.0479 0.00705488 11.4811 0 11.9143C0 12.4251 0 12.9372 0 13.4551V34.5463C0 35.067 0 35.5764 0 36.0899C0.00705488 36.5273 0.00846586 36.9521 0.0211646 37.3909C0.0451512 38.3362 0.104412 39.2816 0.273729 40.2156C0.438814 41.161 0.716776 42.0471 1.15559 42.9021C1.58312 43.7431 2.14327 44.5163 2.81772 45.1795C3.48511 45.8525 4.25692 46.4141 5.10068 46.8416C5.95996 47.2818 6.83759 47.5612 7.78294 47.7319C8.71983 47.8998 9.67083 47.9548 10.6105 47.9817C11.0465 47.9915 11.4755 47.9972 11.9072 47.9972C12.4236 48 12.9344 48 13.4522 48H157.358C157.864 48 158.379 48 158.887 47.9972C159.318 47.9972 159.758 47.9915 160.188 47.9817C161.133 47.9563 162.082 47.8998 163.01 47.7319C163.955 47.5612 164.834 47.2832 165.702 46.8416C166.545 46.4126 167.316 45.8525 167.984 45.1795C168.655 44.5163 169.216 43.7431 169.65 42.9021C170.083 42.0471 170.364 41.161 170.524 40.2156C170.697 39.2816 170.752 38.3362 170.786 37.3909C170.792 36.9521 170.792 36.5288 170.792 36.0899C170.803 35.5778 170.803 35.0684 170.803 34.5463V13.4537C170.803 12.9372 170.803 12.4251 170.792 11.9129C170.792 11.4797 170.792 11.0465 170.786 10.6134C170.754 9.66801 170.698 8.72265 170.524 7.78859C170.364 6.84323 170.083 5.96137 169.65 5.1035C169.214 4.25833 168.655 3.48511 167.984 2.81631C167.316 2.14751 166.546 1.58594 165.702 1.15277C164.834 0.715365 163.955 0.43317 163.01 0.268085C162.082 0.100179 161.133 0.0423293 160.188 0.0183427C159.758 0.0112878 159.318 0.00282195 158.887 0C158.379 0.00141098 157.864 0.00141098 157.356 0.00141098Z" fill="#A6A6A6"/>
<path d="M157.357 0.917969C157.862 0.917969 158.376 0.917969 158.881 0.920791C159.228 0.923613 159.584 0.929257 159.934 0.9349L160.165 0.939133C160.911 0.957476 161.889 1.00122 162.851 1.17477C163.725 1.32715 164.522 1.58959 165.283 1.97197C166.043 2.36281 166.733 2.86512 167.336 3.46901C167.932 4.06162 168.436 4.753 168.83 5.51775C169.212 6.27827 169.47 7.07124 169.62 7.95733C169.785 8.84624 169.836 9.77467 169.867 10.6255C169.872 11.0544 169.872 11.4848 169.872 11.932C169.884 12.4372 169.884 12.9423 169.884 13.4531V34.5444C169.884 35.0579 169.884 35.5617 169.872 36.088C169.872 36.5225 169.872 36.943 169.867 37.3564C169.836 38.227 169.785 39.1554 169.617 40.0599C169.469 40.9375 169.211 41.7305 168.834 42.4769C168.433 43.2515 167.93 43.94 167.33 44.5312C166.733 45.1337 166.046 45.6346 165.285 46.0212C164.536 46.4022 163.738 46.6646 162.846 46.8269C161.922 46.9948 160.971 47.04 160.168 47.0625C159.744 47.0724 159.311 47.0781 158.882 47.0781C158.377 47.0809 157.864 47.0809 157.359 47.0809H13.4517C12.9367 47.0809 12.4273 47.0809 11.9067 47.0781C11.4819 47.0781 11.0601 47.0724 10.6354 47.0639C9.82828 47.0414 8.8787 46.9962 7.94604 46.8283C7.05289 46.6675 6.25851 46.4036 5.51634 46.0226C4.75582 45.6374 4.06727 45.1351 3.46055 44.5228C2.86512 43.9372 2.36422 43.2515 1.97197 42.4811C1.59383 41.7432 1.3328 40.9488 1.17618 40.0486C1.00122 39.0877 0.957476 38.1099 0.937722 37.3621C0.929257 37.0686 0.925024 36.7822 0.922202 36.4929L0.917969 36.088V34.5444V13.4531V11.9278L0.923613 11.5059C0.926435 11.2181 0.930668 10.9303 0.939133 10.6382C0.957476 9.89319 1.00263 8.91538 1.179 7.94745C1.33421 7.05854 1.59383 6.26557 1.97479 5.51916C2.36281 4.753 2.8637 4.06303 3.4676 3.46619C4.06868 2.86371 4.76006 2.3614 5.51775 1.97338C6.27403 1.58818 7.067 1.32715 7.94604 1.17336C8.91115 0.999805 9.89037 0.956065 10.6255 0.937722L10.9049 0.93349C11.2421 0.927846 11.5765 0.922202 11.9123 0.920791C12.4259 0.917969 12.9367 0.917969 13.4517 0.917969H157.357Z" fill="black"/>
<mask id="mask0_568_1193" style="mask-type:luminance" maskUnits="userSpaceOnUse" x="10" y="10" width="37" height="28">
<path d="M46.9374 32.5304V32.9043C46.9374 33.0835 46.9374 33.2627 46.936 33.4419C46.9346 33.5928 46.9332 33.7438 46.929 33.8948C46.9205 34.2235 46.9008 34.5551 46.8429 34.8796C46.7836 35.2098 46.6863 35.5174 46.5339 35.8165C46.3843 36.1114 46.1882 36.3809 45.954 36.6137C45.7198 36.8479 45.4503 37.0427 45.1568 37.1936C44.8577 37.346 44.5501 37.4434 44.2199 37.5026C43.8954 37.5605 43.5638 37.5802 43.235 37.5887C43.0841 37.5929 42.9331 37.5944 42.7821 37.5958C42.6029 37.5972 42.4237 37.5972 42.2445 37.5972L40.1859 37.5958L42.102 37.5972H15.4995L17.4156 37.5958L15.357 37.5972C15.1778 37.5972 14.9986 37.5972 14.8194 37.5958C14.6684 37.5944 14.5174 37.5929 14.3665 37.5887C14.0377 37.5802 13.7061 37.5605 13.3816 37.5026C13.0514 37.4434 12.7453 37.346 12.4447 37.1936C12.1498 37.0441 11.8803 36.8479 11.6475 36.6137C11.4133 36.3795 11.2186 36.11 11.0676 35.8165C10.9152 35.5174 10.8179 35.2098 10.7586 34.8796C10.7007 34.5551 10.681 34.2235 10.6725 33.8948C10.6683 33.7438 10.6669 33.5928 10.6655 33.4419C10.6641 33.2627 10.6641 33.0835 10.6641 32.9043V32.6108V15.3799V17.1437V15.0851C10.6641 14.9059 10.6641 14.7267 10.6655 14.5475C10.6669 14.3965 10.6683 14.2455 10.6725 14.0945C10.681 13.7658 10.7007 13.4342 10.7586 13.1097C10.8179 12.7795 10.9152 12.4719 11.0676 12.1728C11.2172 11.8779 11.4133 11.6084 11.6475 11.3756C11.8817 11.1428 12.1512 10.9467 12.4461 10.7971C12.7453 10.6447 13.0528 10.5474 13.383 10.4881C13.7075 10.4302 14.0391 10.4105 14.3679 10.402C14.5188 10.3978 14.6698 10.3964 14.8208 10.395C15 10.3936 15.1792 10.3936 15.3584 10.3936H17.417H42.1034H42.2445C42.4237 10.3936 42.6029 10.3936 42.7821 10.395C42.9331 10.3964 43.0841 10.3978 43.235 10.402C43.5638 10.4105 43.8954 10.4302 44.2199 10.4881C44.5501 10.5474 44.8562 10.6447 45.1568 10.7971C45.4517 10.9467 45.7212 11.1428 45.954 11.377C46.1882 11.6112 46.3829 11.8807 46.5339 12.1742C46.6863 12.4733 46.7836 12.7809 46.8429 13.1111C46.9008 13.4356 46.9205 13.7672 46.929 14.096C46.9332 14.2469 46.9346 14.3979 46.936 14.5489C46.9374 14.7281 46.9374 14.9073 46.9374 15.0865V15.4604V32.5304Z" fill="white"/>
</mask>
<g mask="url(#mask0_568_1193)">
<path d="M45.7858 11.5264H11.7812V35.204H45.7858V11.5264Z" fill="#DEDBCE"/>
<path d="M45.4254 11.9043H12.1758V26.0098H45.4254V11.9043Z" fill="#40A5D9"/>
<g filter="url(#filter0_d_568_1193)">
<path fill-rule="evenodd" clip-rule="evenodd" d="M45.4215 17.9044C45.4215 17.7901 45.4215 17.6772 45.4215 17.5629C45.4215 17.467 45.4201 17.371 45.4173 17.2751C45.4116 17.0662 45.399 16.856 45.3623 16.65C45.3242 16.4412 45.2635 16.2465 45.1661 16.056C45.0716 15.8697 44.9474 15.6976 44.7979 15.5494C44.6497 15.4013 44.479 15.2771 44.2913 15.1812C44.1009 15.0838 43.9061 15.0231 43.6973 14.985C43.4913 14.9484 43.2811 14.9357 43.0723 14.93C42.9763 14.9272 42.8804 14.9258 42.7844 14.9258C42.6701 14.9258 42.5572 14.9258 42.443 14.9258H42.3498H16.4556H15.1504C15.0362 14.9258 14.9233 14.9258 14.809 14.9258C14.713 14.9258 14.6171 14.9272 14.5212 14.93C14.3123 14.9357 14.1021 14.9484 13.8961 14.985C13.6873 15.0231 13.4925 15.0838 13.3021 15.1812C13.1158 15.2757 12.9437 15.3999 12.7955 15.5494C12.6474 15.6976 12.5232 15.8683 12.4273 16.056C12.3299 16.2465 12.2692 16.4412 12.2311 16.65C12.1945 16.856 12.1818 17.0662 12.1761 17.2751C12.1733 17.371 12.1719 17.467 12.1719 17.5629C12.1719 17.6772 12.1719 17.7901 12.1719 17.9044V19.2095V18.1837V29.0327H45.4215V18.2515V17.9044Z" fill="#FFB003"/>
</g>
<g filter="url(#filter1_d_568_1193)">
<path fill-rule="evenodd" clip-rule="evenodd" d="M45.4215 20.9258C45.4215 20.8115 45.4215 20.6987 45.4215 20.5844C45.4215 20.4884 45.4201 20.3925 45.4173 20.2965C45.4116 20.0877 45.399 19.8775 45.3623 19.6715C45.3242 19.4627 45.2635 19.2679 45.1661 19.0775C45.0716 18.8912 44.9474 18.7191 44.7979 18.5709C44.6497 18.4228 44.479 18.2986 44.2913 18.2027C44.1009 18.1053 43.9061 18.0446 43.6973 18.0065C43.4913 17.9698 43.2811 17.9571 43.0723 17.9515C42.9763 17.9487 42.8804 17.9473 42.7844 17.9473C42.6701 17.9473 42.5572 17.9473 42.443 17.9473H42.3484H16.4556H15.1504C15.0362 17.9473 14.9233 17.9473 14.809 17.9473C14.713 17.9473 14.6171 17.9487 14.5212 17.9515C14.3123 17.9571 14.1021 17.9698 13.8961 18.0065C13.6873 18.0446 13.4925 18.1053 13.3021 18.2027C13.1158 18.2972 12.9437 18.4214 12.7955 18.5709C12.6474 18.7191 12.5232 18.8898 12.4273 19.0775C12.3299 19.2679 12.2692 19.4627 12.2311 19.6715C12.1945 19.8775 12.1818 20.0877 12.1761 20.2965C12.1733 20.3925 12.1719 20.4884 12.1719 20.5844C12.1719 20.6987 12.1719 20.8115 12.1719 20.9258V22.231V21.2052V32.0542H45.4215V21.2729V20.9258Z" fill="#40C740"/>
</g>
<g filter="url(#filter2_d_568_1193)">
<path fill-rule="evenodd" clip-rule="evenodd" d="M45.4215 23.9483C45.4215 23.834 45.4215 23.7211 45.4215 23.6068C45.4215 23.5109 45.4201 23.4149 45.4173 23.319C45.4116 23.1102 45.399 22.8999 45.3623 22.6939C45.3242 22.4851 45.2635 22.2904 45.1661 22.0999C45.0716 21.9137 44.9474 21.7415 44.7979 21.5934C44.6497 21.4452 44.479 21.3211 44.2913 21.2251C44.1009 21.1278 43.9061 21.0671 43.6973 21.029C43.4913 20.9923 43.2811 20.9796 43.0723 20.974C42.9763 20.9711 42.8804 20.9697 42.7844 20.9697C42.6701 20.9697 42.5572 20.9697 42.443 20.9697H42.3484H16.4556H15.1504C15.0362 20.9697 14.9233 20.9697 14.809 20.9697C14.713 20.9697 14.6171 20.9711 14.5212 20.974C14.3123 20.9796 14.1021 20.9923 13.8961 21.029C13.6873 21.0671 13.4925 21.1278 13.3021 21.2251C13.1158 21.3196 12.9437 21.4438 12.7955 21.5934C12.6474 21.7415 12.5232 21.9123 12.4273 22.0999C12.3299 22.2904 12.2692 22.4851 12.2311 22.6939C12.1945 22.8999 12.1818 23.1102 12.1761 23.319C12.1733 23.4149 12.1719 23.5109 12.1719 23.6068C12.1719 23.7211 12.1719 23.834 12.1719 23.9483V25.2534V24.2277V35.0767H45.4215V24.2954V23.9483Z" fill="#F26D5F"/>
</g>
<path fill-rule="evenodd" clip-rule="evenodd" d="M10.1602 9.88965V25.5063H12.175V16.1868V14.8817C12.175 14.7674 12.175 14.6545 12.175 14.5402C12.175 14.4443 12.1764 14.3483 12.1793 14.2524C12.1849 14.0436 12.1976 13.8333 12.2343 13.6273C12.2724 13.4185 12.3331 13.2238 12.4304 13.0333C12.525 12.8471 12.6491 12.6749 12.7987 12.5268C12.9468 12.3786 13.1176 12.2544 13.3052 12.1585C13.4943 12.064 13.689 12.0019 13.8978 11.9652C14.1038 11.9285 14.3141 11.9158 14.5229 11.9102C14.6188 11.9073 14.7148 11.9059 14.8107 11.9059C14.925 11.9059 15.0379 11.9059 15.1522 11.9059H16.4573H42.3473H42.4475C42.5618 11.9059 42.6747 11.9059 42.789 11.9059C42.8849 11.9059 42.9809 11.9073 43.0768 11.9102C43.2856 11.9158 43.4959 11.9285 43.7019 11.9652C43.9107 12.0033 44.1054 12.064 44.2959 12.1613C44.4821 12.2559 44.6543 12.38 44.8024 12.5296C44.9506 12.6777 45.0748 12.8485 45.1707 13.0361C45.2681 13.2266 45.3287 13.4213 45.3668 13.6301C45.4035 13.8361 45.4162 14.0464 45.4219 14.2552C45.4247 14.3512 45.4261 14.4471 45.4261 14.543C45.4261 14.6573 45.4261 14.7702 45.4261 14.8845V16.1897V25.5092H47.441V9.88965H10.1602Z" fill="#D9D6CC"/>
<g filter="url(#filter3_d_568_1193)">
<path fill-rule="evenodd" clip-rule="evenodd" d="M38.0735 23.9951C37.8576 23.9951 37.6403 23.9951 37.4244 23.9965C37.2424 23.9979 37.0604 23.9994 36.8784 24.005C36.4819 24.0163 36.0812 24.0389 35.6889 24.1094C35.2911 24.1814 34.92 24.2985 34.5588 24.4819C34.5122 24.5059 33.5175 24.9574 32.6229 26.3486C31.9442 27.4054 30.6235 28.5258 28.7738 28.5258C26.9254 28.5258 25.6047 27.4054 24.9246 26.3486C23.9835 24.8826 22.9097 24.4424 22.9873 24.4819C22.6261 24.2971 22.255 24.18 21.8571 24.1094C21.4649 24.0389 21.0642 24.0149 20.6677 24.005C20.4857 24.0008 20.3037 23.9979 20.1216 23.9965C19.9058 23.9951 19.6885 23.9951 19.4726 23.9951H10.1602V38.1006H47.4396V23.9951H38.0735Z" fill="#DEDBCE"/>
</g>
</g>
<path d="M58.1746 11.4668H60.0823L64.2108 22.8379H62.3596L61.3197 19.7633H56.9386L55.8903 22.8379H54.0391L58.1746 11.4668ZM57.4113 18.3453H60.8386L59.144 13.349H59.1129L57.4113 18.3453Z" fill="white"/>
<path d="M65.3008 14.5487H67.0024V15.9752H67.0419C67.5386 14.9903 68.4529 14.3906 69.6339 14.3906C71.7461 14.3906 73.1021 16.0457 73.1021 18.6941V18.7012C73.1021 21.3411 71.7391 23.0046 69.6593 23.0046C68.4854 23.0046 67.5315 22.405 67.0433 21.4455H67.0038V25.5966H65.3022L65.3008 14.5487ZM71.368 18.6997V18.6927C71.368 16.9276 70.5242 15.8468 69.1923 15.8468C67.8998 15.8468 66.9939 16.9657 66.9939 18.6927V18.6997C66.9939 20.4183 67.9083 21.5372 69.1923 21.5372C70.5327 21.5372 71.368 20.4494 71.368 18.6997Z" fill="white"/>
<path d="M74.7852 14.5487H76.4868V15.9752H76.5263C77.023 14.9903 77.9373 14.3906 79.1183 14.3906C81.2305 14.3906 82.5864 16.0457 82.5864 18.6941V18.7012C82.5864 21.3411 81.2234 23.0046 79.1437 23.0046C77.9697 23.0046 77.0159 22.405 76.5277 21.4455H76.4882V25.5966H74.7866L74.7852 14.5487ZM80.8524 18.6997V18.6927C80.8524 16.9276 80.0086 15.8468 78.6766 15.8468C77.3842 15.8468 76.4783 16.9657 76.4783 18.6927V18.6997C76.4783 20.4183 77.3926 21.5372 78.6766 21.5372C80.0171 21.5372 80.8524 20.4494 80.8524 18.6997Z" fill="white"/>
<path d="M84.0859 11.4668H85.789V22.8379H84.0859V11.4668Z" fill="white"/>
<path d="M87.4453 18.7251V18.7167C87.4453 16.1233 88.9424 14.3906 91.2662 14.3906C93.5915 14.3906 95.018 16.0626 95.018 18.5516V19.1259H89.147C89.178 20.6935 90.0373 21.6092 91.3918 21.6092C92.4007 21.6092 93.0709 21.0885 93.2825 20.4649L93.3065 20.4028H94.9221L94.9066 20.4903C94.6399 21.8067 93.3615 23.0032 91.3523 23.0032C88.9184 23.0032 87.4453 21.3397 87.4453 18.7251ZM89.1709 17.9195H93.3319C93.1894 16.4845 92.3866 15.7833 91.2747 15.7833C90.1727 15.7847 89.3205 16.5339 89.1709 17.9195Z" fill="white"/>
<path d="M100.43 11.4668H102.265L104.386 20.3771H104.417L106.82 11.4668H108.491L110.893 20.3771H110.933L113.052 11.4668H114.889L111.815 22.8379H110.122L107.679 14.2648H107.641L105.19 22.8379H103.496L100.43 11.4668Z" fill="white"/>
<path d="M115.375 20.4818V20.4649C115.375 19.0243 116.495 18.141 118.457 18.0239L120.711 17.8884V17.2676C120.711 16.3533 120.12 15.8016 119.065 15.8016C118.08 15.8016 117.473 16.2658 117.331 16.929L117.314 16.9995H115.707L115.714 16.912C115.832 15.4855 117.07 14.3906 119.11 14.3906C121.136 14.3906 122.42 15.463 122.42 17.1251V22.8381H120.71V21.5288H120.679C120.198 22.4205 119.238 22.9863 118.142 22.9863C116.487 22.9863 115.375 21.9704 115.375 20.4818ZM118.606 21.6233C119.804 21.6233 120.71 20.812 120.71 19.7326V19.0864L118.684 19.2119C117.659 19.2754 117.092 19.7241 117.092 20.4254V20.4409C117.094 21.1661 117.692 21.6233 118.606 21.6233Z" fill="white"/>
<path d="M124.281 11.4668H125.983V22.8379H124.281V11.4668Z" fill="white"/>
<path d="M128.383 11.4668H130.084V22.8379H128.383V11.4668Z" fill="white"/>
<path d="M131.582 18.7251V18.7167C131.582 16.1233 133.079 14.3906 135.403 14.3906C137.727 14.3906 139.155 16.0626 139.155 18.5516V19.1259H133.284C133.315 20.6935 134.174 21.6092 135.53 21.6092C136.539 21.6092 137.208 21.0885 137.421 20.4649L137.446 20.4028H139.062L139.046 20.4903C138.778 21.8067 137.501 23.0032 135.49 23.0032C133.055 23.0032 131.582 21.3397 131.582 18.7251ZM133.308 17.9195H137.469C137.326 16.4845 136.523 15.7833 135.411 15.7833C134.309 15.7847 133.457 16.5339 133.308 17.9195Z" fill="white"/>
<path d="M141.314 20.6551V15.903H140.125V14.5484H141.314V12.3896H143.056V14.5484H144.609V15.903H143.056V20.5521C143.056 21.3959 143.435 21.6471 144.151 21.6471C144.333 21.6471 144.481 21.6315 144.608 21.616V22.9325C144.41 22.9635 144.087 23.0044 143.741 23.0044C142.102 23.003 141.314 22.3102 141.314 20.6551Z" fill="white"/>
<path d="M146.449 17.4551H151.516V18.9916H146.449V17.4551Z" fill="white"/>
<path d="M153.352 20.4818V20.4649C153.352 19.0243 154.472 18.141 156.433 18.0239L158.688 17.8884V17.2676C158.688 16.3533 158.097 15.8016 157.041 15.8016C156.056 15.8016 155.45 16.2658 155.307 16.929L155.29 16.9995H153.683L153.69 16.912C153.809 15.4855 155.046 14.3906 157.086 14.3906C159.113 14.3906 160.397 15.463 160.397 17.1251V22.8381H158.686V21.5288H158.655C158.174 22.4205 157.215 22.9863 156.118 22.9863C154.463 22.9863 153.352 21.9704 153.352 20.4818ZM156.583 21.6233C157.781 21.6233 158.686 20.812 158.686 19.7326V19.0864L156.66 19.2119C155.636 19.2754 155.069 19.7241 155.069 20.4254V20.4409C155.07 21.1661 155.668 21.6233 156.583 21.6233Z" fill="white"/>
<path d="M60.0988 33.052V33.0576C60.0988 35.0288 58.9742 36.3791 57.2387 36.3791C55.5032 36.3791 54.4492 35.0895 54.4492 33.1818V32.7797H59.0434C59.0137 31.459 58.2857 30.69 57.1484 30.69C56.2835 30.69 55.7515 31.0992 55.5794 31.483L55.5554 31.5366H54.5254L54.5367 31.4886C54.7554 30.6251 55.6669 29.7715 57.171 29.7715C58.9968 29.7715 60.0988 31.0498 60.0988 33.052ZM59.0264 33.6023H55.4976C55.6048 34.8637 56.3032 35.4605 57.2444 35.4605C58.1925 35.4605 58.915 34.8157 59.0264 33.6023Z" fill="white"/>
<path d="M61.8008 27.3506H62.8308V36.2665H61.8008V27.3506Z" fill="white"/>
<path d="M64.4141 34.4847V34.4734C64.4141 33.3362 65.255 32.68 66.7408 32.5897L68.5694 32.4783V31.8984C68.5694 31.1096 68.0897 30.6849 67.1358 30.6849C66.3725 30.6849 65.8688 30.9685 65.7037 31.4666L65.6981 31.485H64.668L64.6737 31.4497C64.8402 30.4493 65.8109 29.7734 67.1725 29.7734C68.7302 29.7734 69.5994 30.572 69.5994 31.8998V36.2696H68.5694V35.3285H68.4763C68.0741 36.0085 67.4053 36.381 66.546 36.381C65.3326 36.3782 64.4141 35.6459 64.4141 34.4847ZM66.7591 35.4865C67.8075 35.4865 68.5708 34.7993 68.5708 33.8864V33.3065L66.8663 33.4138C65.8956 33.473 65.4695 33.8159 65.4695 34.4494V34.4607C65.4681 35.1069 66.0183 35.4865 66.7591 35.4865Z" fill="white"/>
<path d="M70.6758 29.8848H71.7651L73.5118 35.1421H73.6064L75.3532 29.8848H76.4424L74.0805 36.2666H73.0378L70.6758 29.8848Z" fill="white"/>
<path d="M83.1769 33.052V33.0576C83.1769 35.0288 82.0523 36.3791 80.3168 36.3791C78.5813 36.3791 77.5273 35.0895 77.5273 33.1818V32.7797H82.1215C82.0919 31.459 81.3638 30.69 80.2265 30.69C79.3616 30.69 78.8297 31.0992 78.6575 31.483L78.6335 31.5366H77.6035L77.6148 31.4886C77.8335 30.6251 78.745 29.7715 80.2491 29.7715C82.0749 29.7715 83.1769 31.0498 83.1769 33.052ZM82.1045 33.6023H78.5757C78.6829 34.8637 79.3814 35.4605 80.3225 35.4605C81.2693 35.4605 81.9917 34.8157 82.1045 33.6023Z" fill="white"/>
<path d="M87.8906 33.0986V33.0929C87.8906 31.1218 89.0152 29.7715 90.7507 29.7715C92.4862 29.7715 93.5402 31.0625 93.5402 32.9688V33.3723H88.946C88.9757 34.693 89.7037 35.4605 90.841 35.4605C91.7059 35.4605 92.2378 35.0528 92.41 34.6676L92.434 34.614H93.464L93.4527 34.6605C93.234 35.5254 92.3211 36.3777 90.817 36.3777C88.9926 36.3777 87.8906 35.0993 87.8906 33.0986ZM88.963 32.5483H92.4904C92.3846 31.2869 91.6862 30.69 90.7436 30.69C89.7969 30.6886 89.0744 31.3334 88.963 32.5483Z" fill="white"/>
<path d="M95.527 34.6091V30.7359H94.5195V29.8837H95.527V28.2314H96.5923V29.8837H97.9891V30.7359H96.5923V34.3494C96.5923 35.1001 96.8533 35.402 97.515 35.402C97.6985 35.402 97.8001 35.3964 97.9891 35.378V36.2543C97.7874 36.2895 97.5926 36.3135 97.3909 36.3135C96.0773 36.3135 95.527 35.8296 95.527 34.6091Z" fill="white"/>
<defs>
<filter id="filter0_d_568_1193" x="9.17188" y="11.7258" width="39.25" height="20.1074" filterUnits="userSpaceOnUse" color-interpolation-filters="sRGB">
<feFlood flood-opacity="0" result="BackgroundImageFix"/>
<feColorMatrix in="SourceAlpha" type="matrix" values="0 0 0 0 0 0 0 0 0 0 0 0 0 0 0 0 0 0 127 0" result="hardAlpha"/>
<feOffset dy="-0.2"/>
<feGaussianBlur stdDeviation="1.5"/>
<feComposite in2="hardAlpha" operator="out"/>
<feColorMatrix type="matrix" values="0 0 0 0 0 0 0 0 0 0 0 0 0 0 0 0 0 0 0.12 0"/>
<feBlend mode="normal" in2="BackgroundImageFix" result="effect1_dropShadow_568_1193"/>
<feBlend mode="normal" in="SourceGraphic" in2="effect1_dropShadow_568_1193" result="shape"/>
</filter>
<filter id="filter1_d_568_1193" x="9.17188" y="14.7473" width="39.25" height="20.1074" filterUnits="userSpaceOnUse" color-interpolation-filters="sRGB">
<feFlood flood-opacity="0" result="BackgroundImageFix"/>
<feColorMatrix in="SourceAlpha" type="matrix" values="0 0 0 0 0 0 0 0 0 0 0 0 0 0 0 0 0 0 127 0" result="hardAlpha"/>
<feOffset dy="-0.2"/>
<feGaussianBlur stdDeviation="1.5"/>
<feComposite in2="hardAlpha" operator="out"/>
<feColorMatrix type="matrix" values="0 0 0 0 0 0 0 0 0 0 0 0 0 0 0 0 0 0 0.12 0"/>
<feBlend mode="normal" in2="BackgroundImageFix" result="effect1_dropShadow_568_1193"/>
<feBlend mode="normal" in="SourceGraphic" in2="effect1_dropShadow_568_1193" result="shape"/>
</filter>
<filter id="filter2_d_568_1193" x="9.17188" y="17.7697" width="39.25" height="20.1074" filterUnits="userSpaceOnUse" color-interpolation-filters="sRGB">
<feFlood flood-opacity="0" result="BackgroundImageFix"/>
<feColorMatrix in="SourceAlpha" type="matrix" values="0 0 0 0 0 0 0 0 0 0 0 0 0 0 0 0 0 0 127 0" result="hardAlpha"/>
<feOffset dy="-0.2"/>
<feGaussianBlur stdDeviation="1.5"/>
<feComposite in2="hardAlpha" operator="out"/>
<feColorMatrix type="matrix" values="0 0 0 0 0 0 0 0 0 0 0 0 0 0 0 0 0 0 0.12 0"/>
<feBlend mode="normal" in2="BackgroundImageFix" result="effect1_dropShadow_568_1193"/>
<feBlend mode="normal" in="SourceGraphic" in2="effect1_dropShadow_568_1193" result="shape"/>
</filter>
<filter id="filter3_d_568_1193" x="7.16016" y="20.7951" width="43.2812" height="20.1055" filterUnits="userSpaceOnUse" color-interpolation-filters="sRGB">
<feFlood flood-opacity="0" result="BackgroundImageFix"/>
<feColorMatrix in="SourceAlpha" type="matrix" values="0 0 0 0 0 0 0 0 0 0 0 0 0 0 0 0 0 0 127 0" result="hardAlpha"/>
<feOffset dy="-0.2"/>
<feGaussianBlur stdDeviation="1.5"/>
<feComposite in2="hardAlpha" operator="out"/>
<feColorMatrix type="matrix" values="0 0 0 0 0 0 0 0 0 0 0 0 0 0 0 0 0 0 0.12 0"/>
<feBlend mode="normal" in2="BackgroundImageFix" result="effect1_dropShadow_568_1193"/>
<feBlend mode="normal" in="SourceGraphic" in2="effect1_dropShadow_568_1193" result="shape"/>
</filter>
</defs>
</svg>
