<svg width="203" height="48" viewBox="0 0 203 48" fill="none" xmlns="http://www.w3.org/2000/svg">
<path d="M188.697 0.00141098H13.4508C12.933 0.00141098 12.4222 0.00141098 11.9072 0.00423293C11.4741 0.00705488 11.0465 0.0155207 10.6105 0.0225756C9.67083 0.0451512 8.72124 0.103001 7.78294 0.270907C6.839 0.437403 5.96137 0.719598 5.10209 1.15559C4.25692 1.58876 3.48511 2.15033 2.81772 2.81913C2.14327 3.48652 1.58312 4.26115 1.15559 5.10632C0.716776 5.9642 0.438814 6.84606 0.273729 7.79141C0.104412 8.72548 0.0451512 9.66942 0.0211646 10.6148C0.00846586 11.0479 0.00705488 11.4811 0 11.9143C0 12.4251 0 12.9372 0 13.4551V34.5463C0 35.067 0 35.5764 0 36.0899C0.00705488 36.5273 0.00846586 36.9521 0.0211646 37.3909C0.0451512 38.3362 0.104412 39.2816 0.273729 40.2156C0.438814 41.161 0.716776 42.0471 1.15559 42.9021C1.58312 43.7431 2.14327 44.5163 2.81772 45.1795C3.48511 45.8525 4.25692 46.4141 5.10068 46.8416C5.95996 47.2818 6.83759 47.5612 7.78294 47.7319C8.71983 47.8998 9.67083 47.9548 10.6105 47.9817C11.0465 47.9915 11.4755 47.9972 11.9072 47.9972C12.4236 48 12.9344 48 13.4522 48H188.698C189.205 48 189.72 48 190.228 47.9972C190.658 47.9972 191.098 47.9915 191.529 47.9817C192.474 47.9563 193.422 47.8998 194.351 47.7319C195.296 47.5612 196.175 47.2832 197.043 46.8416C197.885 46.4126 198.657 45.8525 199.324 45.1795C199.996 44.5163 200.556 43.7431 200.991 42.9021C201.424 42.0471 201.705 41.161 201.864 40.2156C202.038 39.2816 202.093 38.3362 202.127 37.3909C202.132 36.9521 202.132 36.5288 202.132 36.0899C202.144 35.5778 202.144 35.0684 202.144 34.5463V13.4537C202.144 12.9372 202.144 12.4251 202.132 11.9129C202.132 11.4797 202.132 11.0465 202.127 10.6134C202.094 9.66801 202.039 8.72265 201.864 7.78859C201.705 6.84323 201.424 5.96137 200.991 5.1035C200.555 4.25833 199.996 3.48511 199.324 2.81631C198.657 2.14751 197.887 1.58594 197.043 1.15277C196.175 0.715365 195.296 0.43317 194.351 0.268085C193.422 0.100179 192.474 0.0423293 191.529 0.0183427C191.098 0.0112878 190.658 0.00282195 190.228 0C189.72 0.00141098 189.205 0.00141098 188.697 0.00141098Z" fill="#A6A6A6"/>
<path d="M188.698 0.918945C189.203 0.918945 189.716 0.918945 190.222 0.921767C190.569 0.924589 190.924 0.930233 191.274 0.935877L191.506 0.94011C192.252 0.958453 193.23 1.00219 194.192 1.17574C195.065 1.32813 195.863 1.59057 196.623 1.97294C197.384 2.36378 198.074 2.86609 198.676 3.46999C199.273 4.0626 199.777 4.75398 200.17 5.51873C200.553 6.27924 200.811 7.07221 200.961 7.95831C201.126 8.84722 201.176 9.77564 201.207 10.6265C201.213 11.0554 201.213 11.4857 201.213 11.933C201.224 12.4382 201.224 12.9433 201.224 13.4541V34.5453C201.224 35.0589 201.224 35.5626 201.213 36.0889C201.213 36.5235 201.213 36.944 201.207 37.3574C201.176 38.228 201.126 39.1564 200.958 40.0608C200.81 40.9385 200.551 41.7314 200.175 42.4778C199.774 43.2525 199.27 43.941 198.671 44.5322C198.074 45.1347 197.387 45.6356 196.626 46.0222C195.877 46.4032 195.078 46.6656 194.186 46.8279C193.262 46.9958 192.311 47.0409 191.508 47.0635C191.085 47.0734 190.652 47.079 190.223 47.079C189.718 47.0819 189.204 47.0819 188.699 47.0819H13.4517C12.9367 47.0819 12.4273 47.0819 11.9067 47.079C11.4819 47.079 11.0601 47.0734 10.6354 47.0649C9.82828 47.0423 8.8787 46.9972 7.94604 46.8293C7.05289 46.6684 6.25851 46.4046 5.51634 46.0236C4.75582 45.6384 4.06727 45.1361 3.46055 44.5238C2.86512 43.9382 2.36422 43.2525 1.97197 42.4821C1.59383 41.7441 1.3328 40.9498 1.17618 40.0495C1.00122 39.0887 0.957476 38.1109 0.937722 37.363C0.929257 37.0696 0.925024 36.7831 0.922202 36.4939L0.917969 36.0889V34.5453V13.4541V11.9288L0.923613 11.5069C0.926435 11.2191 0.930668 10.9312 0.939133 10.6392C0.957476 9.89416 1.00263 8.91636 1.179 7.94843C1.33421 7.05951 1.59383 6.26655 1.97479 5.52014C2.36281 4.75398 2.8637 4.06401 3.4676 3.46717C4.06868 2.86468 4.76006 2.36237 5.51775 1.97436C6.27403 1.58916 7.067 1.32813 7.94604 1.17433C8.91115 1.00078 9.89037 0.957042 10.6255 0.938699L10.9049 0.934466C11.2421 0.928822 11.5765 0.923178 11.9123 0.921767C12.4259 0.918945 12.9367 0.918945 13.4517 0.918945H188.698Z" fill="black"/>
<mask id="mask0_568_1747" style="mask-type:luminance" maskUnits="userSpaceOnUse" x="10" y="10" width="37" height="28">
<path d="M46.9374 32.5304V32.9043C46.9374 33.0835 46.9374 33.2627 46.936 33.4419C46.9346 33.5928 46.9332 33.7438 46.929 33.8948C46.9205 34.2235 46.9008 34.5551 46.8429 34.8796C46.7836 35.2098 46.6863 35.5174 46.5339 35.8165C46.3843 36.1114 46.1882 36.3809 45.954 36.6137C45.7198 36.8479 45.4503 37.0427 45.1568 37.1936C44.8577 37.346 44.5501 37.4434 44.2199 37.5026C43.8954 37.5605 43.5638 37.5802 43.235 37.5887C43.0841 37.5929 42.9331 37.5944 42.7821 37.5958C42.6029 37.5972 42.4237 37.5972 42.2445 37.5972L40.1859 37.5958L42.102 37.5972H15.4995L17.4156 37.5958L15.357 37.5972C15.1778 37.5972 14.9986 37.5972 14.8194 37.5958C14.6684 37.5944 14.5174 37.5929 14.3665 37.5887C14.0377 37.5802 13.7061 37.5605 13.3816 37.5026C13.0514 37.4434 12.7453 37.346 12.4447 37.1936C12.1498 37.0441 11.8803 36.8479 11.6475 36.6137C11.4133 36.3795 11.2186 36.11 11.0676 35.8165C10.9152 35.5174 10.8179 35.2098 10.7586 34.8796C10.7007 34.5551 10.681 34.2235 10.6725 33.8948C10.6683 33.7438 10.6669 33.5928 10.6655 33.4419C10.6641 33.2627 10.6641 33.0835 10.6641 32.9043V32.6108V15.3799V17.1437V15.0851C10.6641 14.9059 10.6641 14.7267 10.6655 14.5475C10.6669 14.3965 10.6683 14.2455 10.6725 14.0945C10.681 13.7658 10.7007 13.4342 10.7586 13.1097C10.8179 12.7795 10.9152 12.4719 11.0676 12.1728C11.2172 11.8779 11.4133 11.6084 11.6475 11.3756C11.8817 11.1428 12.1512 10.9467 12.4461 10.7971C12.7453 10.6447 13.0528 10.5474 13.383 10.4881C13.7075 10.4302 14.0391 10.4105 14.3679 10.402C14.5188 10.3978 14.6698 10.3964 14.8208 10.395C15 10.3936 15.1792 10.3936 15.3584 10.3936H17.417H42.1034H42.2445C42.4237 10.3936 42.6029 10.3936 42.7821 10.395C42.9331 10.3964 43.0841 10.3978 43.235 10.402C43.5638 10.4105 43.8954 10.4302 44.2199 10.4881C44.5501 10.5474 44.8562 10.6447 45.1568 10.7971C45.4517 10.9467 45.7212 11.1428 45.954 11.377C46.1882 11.6112 46.3829 11.8807 46.5339 12.1742C46.6863 12.4733 46.7836 12.7809 46.8429 13.1111C46.9008 13.4356 46.9205 13.7672 46.929 14.096C46.9332 14.2469 46.9346 14.3979 46.936 14.5489C46.9374 14.7281 46.9374 14.9073 46.9374 15.0865V15.4604V32.5304Z" fill="white"/>
</mask>
<g mask="url(#mask0_568_1747)">
<path d="M45.7858 11.5264H11.7812V35.204H45.7858V11.5264Z" fill="#DEDBCE"/>
<path d="M45.4254 11.9043H12.1758V26.0098H45.4254V11.9043Z" fill="#40A5D9"/>
<g filter="url(#filter0_d_568_1747)">
<path fill-rule="evenodd" clip-rule="evenodd" d="M45.4215 17.9044C45.4215 17.7901 45.4215 17.6772 45.4215 17.5629C45.4215 17.467 45.4201 17.371 45.4173 17.2751C45.4116 17.0662 45.399 16.856 45.3623 16.65C45.3242 16.4412 45.2635 16.2465 45.1661 16.056C45.0716 15.8697 44.9474 15.6976 44.7979 15.5494C44.6497 15.4013 44.479 15.2771 44.2913 15.1812C44.1009 15.0838 43.9061 15.0231 43.6973 14.985C43.4913 14.9484 43.2811 14.9357 43.0723 14.93C42.9763 14.9272 42.8804 14.9258 42.7844 14.9258C42.6701 14.9258 42.5572 14.9258 42.443 14.9258H42.3498H16.4556H15.1504C15.0362 14.9258 14.9233 14.9258 14.809 14.9258C14.713 14.9258 14.6171 14.9272 14.5212 14.93C14.3123 14.9357 14.1021 14.9484 13.8961 14.985C13.6873 15.0231 13.4925 15.0838 13.3021 15.1812C13.1158 15.2757 12.9437 15.3999 12.7955 15.5494C12.6474 15.6976 12.5232 15.8683 12.4273 16.056C12.3299 16.2465 12.2692 16.4412 12.2311 16.65C12.1945 16.856 12.1818 17.0662 12.1761 17.2751C12.1733 17.371 12.1719 17.467 12.1719 17.5629C12.1719 17.6772 12.1719 17.7901 12.1719 17.9044V19.2095V18.1837V29.0327H45.4215V18.2515V17.9044Z" fill="#FFB003"/>
</g>
<g filter="url(#filter1_d_568_1747)">
<path fill-rule="evenodd" clip-rule="evenodd" d="M45.4215 20.9258C45.4215 20.8115 45.4215 20.6987 45.4215 20.5844C45.4215 20.4884 45.4201 20.3925 45.4173 20.2965C45.4116 20.0877 45.399 19.8775 45.3623 19.6715C45.3242 19.4627 45.2635 19.2679 45.1661 19.0775C45.0716 18.8912 44.9474 18.7191 44.7979 18.5709C44.6497 18.4228 44.479 18.2986 44.2913 18.2027C44.1009 18.1053 43.9061 18.0446 43.6973 18.0065C43.4913 17.9698 43.2811 17.9571 43.0723 17.9515C42.9763 17.9487 42.8804 17.9473 42.7844 17.9473C42.6701 17.9473 42.5572 17.9473 42.443 17.9473H42.3484H16.4556H15.1504C15.0362 17.9473 14.9233 17.9473 14.809 17.9473C14.713 17.9473 14.6171 17.9487 14.5212 17.9515C14.3123 17.9571 14.1021 17.9698 13.8961 18.0065C13.6873 18.0446 13.4925 18.1053 13.3021 18.2027C13.1158 18.2972 12.9437 18.4214 12.7955 18.5709C12.6474 18.7191 12.5232 18.8898 12.4273 19.0775C12.3299 19.2679 12.2692 19.4627 12.2311 19.6715C12.1945 19.8775 12.1818 20.0877 12.1761 20.2965C12.1733 20.3925 12.1719 20.4884 12.1719 20.5844C12.1719 20.6987 12.1719 20.8115 12.1719 20.9258V22.231V21.2052V32.0542H45.4215V21.2729V20.9258Z" fill="#40C740"/>
</g>
<g filter="url(#filter2_d_568_1747)">
<path fill-rule="evenodd" clip-rule="evenodd" d="M45.4215 23.9483C45.4215 23.834 45.4215 23.7211 45.4215 23.6068C45.4215 23.5109 45.4201 23.4149 45.4173 23.319C45.4116 23.1102 45.399 22.8999 45.3623 22.6939C45.3242 22.4851 45.2635 22.2904 45.1661 22.0999C45.0716 21.9137 44.9474 21.7415 44.7979 21.5934C44.6497 21.4452 44.479 21.3211 44.2913 21.2251C44.1009 21.1278 43.9061 21.0671 43.6973 21.029C43.4913 20.9923 43.2811 20.9796 43.0723 20.974C42.9763 20.9711 42.8804 20.9697 42.7844 20.9697C42.6701 20.9697 42.5572 20.9697 42.443 20.9697H42.3484H16.4556H15.1504C15.0362 20.9697 14.9233 20.9697 14.809 20.9697C14.713 20.9697 14.6171 20.9711 14.5212 20.974C14.3123 20.9796 14.1021 20.9923 13.8961 21.029C13.6873 21.0671 13.4925 21.1278 13.3021 21.2251C13.1158 21.3196 12.9437 21.4438 12.7955 21.5934C12.6474 21.7415 12.5232 21.9123 12.4273 22.0999C12.3299 22.2904 12.2692 22.4851 12.2311 22.6939C12.1945 22.8999 12.1818 23.1102 12.1761 23.319C12.1733 23.4149 12.1719 23.5109 12.1719 23.6068C12.1719 23.7211 12.1719 23.834 12.1719 23.9483V25.2534V24.2277V35.0767H45.4215V24.2954V23.9483Z" fill="#F26D5F"/>
</g>
<path fill-rule="evenodd" clip-rule="evenodd" d="M10.1602 9.88965V25.5063H12.175V16.1868V14.8817C12.175 14.7674 12.175 14.6545 12.175 14.5402C12.175 14.4443 12.1764 14.3483 12.1793 14.2524C12.1849 14.0436 12.1976 13.8333 12.2343 13.6273C12.2724 13.4185 12.3331 13.2238 12.4304 13.0333C12.525 12.8471 12.6491 12.6749 12.7987 12.5268C12.9468 12.3786 13.1176 12.2544 13.3052 12.1585C13.4943 12.064 13.689 12.0019 13.8978 11.9652C14.1038 11.9285 14.3141 11.9158 14.5229 11.9102C14.6188 11.9073 14.7148 11.9059 14.8107 11.9059C14.925 11.9059 15.0379 11.9059 15.1522 11.9059H16.4573H42.3473H42.4475C42.5618 11.9059 42.6747 11.9059 42.789 11.9059C42.8849 11.9059 42.9809 11.9073 43.0768 11.9102C43.2856 11.9158 43.4959 11.9285 43.7019 11.9652C43.9107 12.0033 44.1054 12.064 44.2959 12.1613C44.4821 12.2559 44.6543 12.38 44.8024 12.5296C44.9506 12.6777 45.0748 12.8485 45.1707 13.0361C45.2681 13.2266 45.3287 13.4213 45.3668 13.6301C45.4035 13.8361 45.4162 14.0464 45.4219 14.2552C45.4247 14.3512 45.4261 14.4471 45.4261 14.543C45.4261 14.6573 45.4261 14.7702 45.4261 14.8845V16.1897V25.5092H47.441V9.88965H10.1602Z" fill="#D9D6CC"/>
<g filter="url(#filter3_d_568_1747)">
<path fill-rule="evenodd" clip-rule="evenodd" d="M38.0735 23.9951C37.8576 23.9951 37.6403 23.9951 37.4244 23.9965C37.2424 23.9979 37.0604 23.9994 36.8784 24.005C36.4819 24.0163 36.0812 24.0389 35.6889 24.1094C35.2911 24.1814 34.92 24.2985 34.5588 24.4819C34.5122 24.5059 33.5175 24.9574 32.6229 26.3486C31.9442 27.4054 30.6235 28.5258 28.7738 28.5258C26.9254 28.5258 25.6047 27.4054 24.9246 26.3486C23.9835 24.8826 22.9097 24.4424 22.9873 24.4819C22.6261 24.2971 22.255 24.18 21.8571 24.1094C21.4649 24.0389 21.0642 24.0149 20.6677 24.005C20.4857 24.0008 20.3037 23.9979 20.1216 23.9965C19.9058 23.9951 19.6885 23.9951 19.4726 23.9951H10.1602V38.1006H47.4396V23.9951H38.0735Z" fill="#DEDBCE"/>
</g>
</g>
<path d="M58.1746 24.918H60.0823L64.2108 36.289H62.3596L61.3197 33.2159H56.9386L55.8903 36.289H54.0391L58.1746 24.918ZM57.4099 31.7979H60.8371L59.1426 26.8016H59.1115L57.4099 31.7979Z" fill="white"/>
<path d="M65.625 27.9994H67.3266V29.4259H67.3661C67.8628 28.441 68.7771 27.8428 69.9581 27.8428C72.0703 27.8428 73.4263 29.4978 73.4263 32.1448V32.1533C73.4263 34.7932 72.0633 36.4554 69.9835 36.4554C68.8096 36.4554 67.8557 35.8571 67.3676 34.8962H67.328V39.0487H65.6264L65.625 27.9994ZM71.6922 32.1519V32.1434C71.6922 30.3783 70.8484 29.2989 69.5165 29.2989C68.224 29.2989 67.3182 30.4178 67.3182 32.1434V32.1519C67.3182 33.8705 68.2325 34.9894 69.5165 34.9894C70.8569 34.9894 71.6922 33.9001 71.6922 32.1519Z" fill="white"/>
<path d="M75.1055 27.9994H76.8071V29.4259H76.8466C77.3433 28.441 78.2576 27.8428 79.4386 27.8428C81.5508 27.8428 82.9068 29.4978 82.9068 32.1448V32.1533C82.9068 34.7932 81.5438 36.4554 79.464 36.4554C78.29 36.4554 77.3362 35.8571 76.848 34.8962H76.8085V39.0487H75.1069L75.1055 27.9994ZM81.1727 32.1519V32.1434C81.1727 30.3783 80.3289 29.2989 78.9969 29.2989C77.7045 29.2989 76.7986 30.4178 76.7986 32.1434V32.1519C76.7986 33.8705 77.713 34.9894 78.9969 34.9894C80.3374 34.9894 81.1727 33.9001 81.1727 32.1519Z" fill="white"/>
<path d="M84.6484 24.918H86.3515V36.289H84.6484V24.918Z" fill="white"/>
<path d="M88.0898 32.1759V32.1674C88.0898 29.5755 89.5869 27.8428 91.9108 27.8428C94.2361 27.8428 95.6626 29.5134 95.6626 32.0023V32.578H89.7929C89.8239 34.1456 90.6832 35.0599 92.0378 35.0599C93.0466 35.0599 93.7168 34.5407 93.9285 33.917L93.9524 33.8535H95.568L95.5525 33.941C95.2844 35.2575 94.0075 36.454 91.9983 36.454C89.5643 36.454 88.0898 34.7918 88.0898 32.1759ZM89.8155 31.3716H93.9764C93.8339 29.9367 93.0311 29.2354 91.9192 29.2354C90.8173 29.2368 89.965 29.9846 89.8155 31.3716Z" fill="white"/>
<path d="M97.4609 30.9062H102.528V32.4428H97.4609V30.9062Z" fill="white"/>
<path d="M104.758 24.918H106.459V36.289H104.758V24.918Z" fill="white"/>
<path d="M108.199 32.1439V32.1283C108.199 29.4799 109.767 27.8418 112.123 27.8418C114.488 27.8418 116.064 29.4729 116.064 32.1283V32.1439C116.064 34.8163 114.503 36.4544 112.132 36.4544C109.751 36.4544 108.199 34.8078 108.199 32.1439ZM114.323 32.1439V32.1283C114.323 30.3152 113.457 29.2683 112.123 29.2683C110.815 29.2683 109.94 30.3152 109.94 32.1283V32.1439C109.94 33.981 110.807 35.0279 112.14 35.0279C113.471 35.0279 114.323 33.9725 114.323 32.1439Z" fill="white"/>
<path d="M117.744 27.9994H119.445V29.2834H119.485C119.839 28.417 120.683 27.8428 121.769 27.8428C122.913 27.8428 123.747 28.434 124.079 29.4739H124.118C124.543 28.465 125.521 27.8428 126.702 27.8428C128.341 27.8428 129.414 28.9306 129.414 30.5928V36.2889H127.704V31.0019C127.704 29.9211 127.128 29.3003 126.119 29.3003C125.11 29.3003 124.409 30.0566 124.409 31.1035V36.2889H122.738V30.875C122.738 29.9141 122.13 29.3003 121.171 29.3003C120.162 29.3003 119.444 30.0947 119.444 31.167V36.2889H117.742L117.744 27.9994Z" fill="white"/>
<path d="M131.422 27.9994H133.124V29.4259H133.163C133.66 28.441 134.574 27.8428 135.755 27.8428C137.867 27.8428 139.223 29.4978 139.223 32.1448V32.1533C139.223 34.7932 137.859 36.4554 135.78 36.4554C134.606 36.4554 133.653 35.8571 133.164 34.8962H133.125V39.0487H131.423L131.422 27.9994ZM137.489 32.1519V32.1434C137.489 30.3783 136.645 29.2989 135.313 29.2989C134.021 29.2989 133.115 30.4178 133.115 32.1434V32.1519C133.115 33.8705 134.028 34.9894 135.313 34.9894C136.654 34.9894 137.489 33.9001 137.489 32.1519Z" fill="white"/>
<path d="M140.57 33.9325V33.917C140.57 32.475 141.689 31.5931 143.652 31.4746L145.907 31.3406V30.7183C145.907 29.8054 145.315 29.2523 144.259 29.2523C143.274 29.2523 142.667 29.718 142.525 30.3797L142.509 30.4517H140.9L140.909 30.3642C141.027 28.9377 142.263 27.8428 144.305 27.8428C146.33 27.8428 147.615 28.9137 147.615 30.5772V36.2903H145.905V34.9823H145.874C145.393 35.8726 144.432 36.4399 143.336 36.4399C141.681 36.4384 140.57 35.4211 140.57 33.9325ZM143.801 35.0754C144.999 35.0754 145.905 34.2641 145.905 33.1833V32.5371L143.879 32.6641C142.853 32.7262 142.287 33.1749 142.287 33.8761V33.893C142.289 34.6183 142.887 35.0754 143.801 35.0754Z" fill="white"/>
<path d="M149.719 24.918H151.422V31.5369H151.46L154.784 27.9981H156.786L153.382 31.575L156.92 36.2876H154.944L152.13 32.6007L151.422 33.302V36.2876H149.719V24.918Z" fill="white"/>
<path d="M158.227 24.918H159.928V31.5369H159.968L163.292 27.9981H165.293L161.889 31.575L165.428 36.2876H163.45L160.638 32.6007L159.928 33.302V36.2876H158.227V24.918Z" fill="white"/>
<path d="M165.871 32.1439V32.1283C165.871 29.4799 167.439 27.8418 169.795 27.8418C172.158 27.8418 173.734 29.4729 173.734 32.1283V32.1439C173.734 34.8163 172.175 36.4544 169.803 36.4544C167.422 36.4544 165.871 34.8078 165.871 32.1439ZM171.993 32.1439V32.1283C171.993 30.3152 171.127 29.2683 169.795 29.2683C168.486 29.2683 167.612 30.3152 167.612 32.1283V32.1439C167.612 33.981 168.479 35.0279 169.811 35.0279C171.143 35.0279 171.993 33.9725 171.993 32.1439Z" fill="white"/>
<path d="M175.043 32.1439V32.1283C175.043 29.4799 176.611 27.8418 178.967 27.8418C181.33 27.8418 182.906 29.4729 182.906 32.1283V32.1439C182.906 34.8163 181.347 36.4544 178.975 36.4544C176.594 36.4544 175.043 34.8078 175.043 32.1439ZM181.165 32.1439V32.1283C181.165 30.3152 180.299 29.2683 178.967 29.2683C177.658 29.2683 176.784 30.3152 176.784 32.1283V32.1439C176.784 33.981 177.65 35.0279 178.982 35.0279C180.314 35.0279 181.165 33.9725 181.165 32.1439Z" fill="white"/>
<path d="M184.59 27.9994H186.291V29.2523H186.33C186.764 28.4086 187.615 27.8428 188.868 27.8428C190.688 27.8428 191.736 29.0167 191.736 30.9243V36.2903H190.026V31.2475C190.026 30.003 189.442 29.3017 188.261 29.3017C187.062 29.3017 186.291 30.1681 186.291 31.4605V36.2903H184.59V27.9994Z" fill="white"/>
<path d="M54.8373 11.5166H55.9026V19.1006H60.0227V20.0601H54.8359L54.8373 11.5166Z" fill="white"/>
<path d="M61.4102 11.7351C61.4102 11.3443 61.7304 11.0254 62.1199 11.0254C62.5093 11.0254 62.8296 11.3457 62.8296 11.7351C62.8296 12.1245 62.5093 12.4448 62.1199 12.4448C61.7304 12.4448 61.4102 12.126 61.4102 11.7351ZM61.5992 13.6766H62.6292V20.0585H61.5992V13.6766Z" fill="white"/>
<path d="M64.2344 18.4319H65.2884C65.4605 18.9638 65.9699 19.3137 66.7868 19.3137C67.6461 19.3137 68.2557 18.9046 68.2557 18.3247V18.3134C68.2557 17.8816 67.9297 17.5782 67.1424 17.3892L66.1533 17.1521C64.9568 16.8685 64.4192 16.3479 64.4192 15.4293V15.4237C64.4192 14.364 65.4379 13.5654 66.7939 13.5654C68.1315 13.5654 69.0613 14.2342 69.2038 15.2755H68.1908C68.0539 14.7732 67.5572 14.4233 66.7868 14.4233C66.0291 14.4233 65.4732 14.8141 65.4732 15.3757V15.3884C65.4732 15.8202 65.7935 16.0925 66.5441 16.2759L67.5276 16.5115C68.7297 16.8022 69.3097 17.3229 69.3097 18.2343V18.2456C69.3097 19.3829 68.202 20.1702 66.753 20.1702C65.3293 20.1716 64.3515 19.4845 64.2344 18.4319Z" fill="white"/>
<path d="M70.5117 18.2778V18.2665C70.5117 17.1293 71.3527 16.4732 72.8384 16.3843L74.667 16.2714V15.6915C74.667 14.9041 74.1873 14.478 73.2335 14.478C72.4702 14.478 71.9664 14.763 71.8014 15.2597L71.7957 15.2781H70.7657L70.7713 15.2428C70.9378 14.2424 71.9086 13.5665 73.2702 13.5665C74.8279 13.5665 75.6971 14.3652 75.6971 15.6915V20.0613H74.667V19.1201H74.5725C74.1704 19.8002 73.5016 20.1741 72.6423 20.1741C71.4289 20.1713 70.5117 19.4376 70.5117 18.2778ZM71.3047 11.7407C71.3047 11.3852 71.5996 11.0889 71.9622 11.0889C72.3164 11.0889 72.6127 11.3852 72.6127 11.7407C72.6127 12.1019 72.3164 12.3983 71.9622 12.3983C71.601 12.3983 71.3047 12.1019 71.3047 11.7407ZM72.8554 19.2782C73.9037 19.2782 74.667 18.591 74.667 17.6795V17.0996L72.9626 17.2069C71.9918 17.2661 71.5657 17.609 71.5657 18.2425V18.2538C71.5657 18.8986 72.116 19.2782 72.8554 19.2782ZM73.922 11.7407C73.922 11.3852 74.2184 11.0889 74.5725 11.0889C74.9337 11.0889 75.23 11.3852 75.23 11.7407C75.23 12.1019 74.9351 12.3983 74.5725 12.3983C74.2184 12.3983 73.922 12.1019 73.922 11.7407Z" fill="white"/>
<path d="M77.1836 18.2778V18.2665C77.1836 17.1293 78.0245 16.4732 79.5103 16.3843L81.3389 16.2714V15.6915C81.3389 14.9041 80.8592 14.478 79.9054 14.478C79.142 14.478 78.6383 14.763 78.4732 15.2597L78.4676 15.2781H77.4376L77.4446 15.24C77.6111 14.2396 78.5819 13.5637 79.9435 13.5637C81.5012 13.5637 82.3703 14.3623 82.3703 15.6886V20.0584H81.3403V19.1173H81.2458C80.8437 19.7974 80.1749 20.1713 79.3156 20.1713C78.1021 20.1713 77.1836 19.4376 77.1836 18.2778ZM77.978 11.7407C77.978 11.3852 78.2729 11.0889 78.6355 11.0889C78.9896 11.0889 79.2859 11.3852 79.2859 11.7407C79.2859 12.1019 78.9896 12.3983 78.6355 12.3983C78.2729 12.3983 77.978 12.1019 77.978 11.7407ZM79.5286 19.2782C80.577 19.2782 81.3403 18.591 81.3403 17.6795V17.0996L79.6359 17.2069C78.6651 17.2661 78.239 17.609 78.239 18.2425V18.2538C78.2376 18.8986 78.7879 19.2782 79.5286 19.2782ZM80.5939 11.7407C80.5939 11.3852 80.8902 11.0889 81.2444 11.0889C81.6056 11.0889 81.9019 11.3852 81.9019 11.7407C81.9019 12.1019 81.607 12.3983 81.2444 12.3983C80.8902 12.3983 80.5939 12.1019 80.5939 11.7407Z" fill="white"/>
<defs>
<filter id="filter0_d_568_1747" x="9.17188" y="11.7258" width="39.25" height="20.1074" filterUnits="userSpaceOnUse" color-interpolation-filters="sRGB">
<feFlood flood-opacity="0" result="BackgroundImageFix"/>
<feColorMatrix in="SourceAlpha" type="matrix" values="0 0 0 0 0 0 0 0 0 0 0 0 0 0 0 0 0 0 127 0" result="hardAlpha"/>
<feOffset dy="-0.2"/>
<feGaussianBlur stdDeviation="1.5"/>
<feComposite in2="hardAlpha" operator="out"/>
<feColorMatrix type="matrix" values="0 0 0 0 0 0 0 0 0 0 0 0 0 0 0 0 0 0 0.12 0"/>
<feBlend mode="normal" in2="BackgroundImageFix" result="effect1_dropShadow_568_1747"/>
<feBlend mode="normal" in="SourceGraphic" in2="effect1_dropShadow_568_1747" result="shape"/>
</filter>
<filter id="filter1_d_568_1747" x="9.17188" y="14.7473" width="39.25" height="20.1074" filterUnits="userSpaceOnUse" color-interpolation-filters="sRGB">
<feFlood flood-opacity="0" result="BackgroundImageFix"/>
<feColorMatrix in="SourceAlpha" type="matrix" values="0 0 0 0 0 0 0 0 0 0 0 0 0 0 0 0 0 0 127 0" result="hardAlpha"/>
<feOffset dy="-0.2"/>
<feGaussianBlur stdDeviation="1.5"/>
<feComposite in2="hardAlpha" operator="out"/>
<feColorMatrix type="matrix" values="0 0 0 0 0 0 0 0 0 0 0 0 0 0 0 0 0 0 0.12 0"/>
<feBlend mode="normal" in2="BackgroundImageFix" result="effect1_dropShadow_568_1747"/>
<feBlend mode="normal" in="SourceGraphic" in2="effect1_dropShadow_568_1747" result="shape"/>
</filter>
<filter id="filter2_d_568_1747" x="9.17188" y="17.7697" width="39.25" height="20.1074" filterUnits="userSpaceOnUse" color-interpolation-filters="sRGB">
<feFlood flood-opacity="0" result="BackgroundImageFix"/>
<feColorMatrix in="SourceAlpha" type="matrix" values="0 0 0 0 0 0 0 0 0 0 0 0 0 0 0 0 0 0 127 0" result="hardAlpha"/>
<feOffset dy="-0.2"/>
<feGaussianBlur stdDeviation="1.5"/>
<feComposite in2="hardAlpha" operator="out"/>
<feColorMatrix type="matrix" values="0 0 0 0 0 0 0 0 0 0 0 0 0 0 0 0 0 0 0.12 0"/>
<feBlend mode="normal" in2="BackgroundImageFix" result="effect1_dropShadow_568_1747"/>
<feBlend mode="normal" in="SourceGraphic" in2="effect1_dropShadow_568_1747" result="shape"/>
</filter>
<filter id="filter3_d_568_1747" x="7.16016" y="20.7951" width="43.2812" height="20.1055" filterUnits="userSpaceOnUse" color-interpolation-filters="sRGB">
<feFlood flood-opacity="0" result="BackgroundImageFix"/>
<feColorMatrix in="SourceAlpha" type="matrix" values="0 0 0 0 0 0 0 0 0 0 0 0 0 0 0 0 0 0 127 0" result="hardAlpha"/>
<feOffset dy="-0.2"/>
<feGaussianBlur stdDeviation="1.5"/>
<feComposite in2="hardAlpha" operator="out"/>
<feColorMatrix type="matrix" values="0 0 0 0 0 0 0 0 0 0 0 0 0 0 0 0 0 0 0.12 0"/>
<feBlend mode="normal" in2="BackgroundImageFix" result="effect1_dropShadow_568_1747"/>
<feBlend mode="normal" in="SourceGraphic" in2="effect1_dropShadow_568_1747" result="shape"/>
</filter>
</defs>
</svg>
