<svg width="168" height="48" viewBox="0 0 168 48" fill="none" xmlns="http://www.w3.org/2000/svg">
<path d="M153.88 0.00141098H13.4508C12.933 0.00141098 12.4222 0.00141098 11.9072 0.00423293C11.4741 0.00705488 11.0465 0.0155207 10.6105 0.0225756C9.67083 0.0451512 8.72124 0.103001 7.78294 0.270907C6.839 0.437403 5.96137 0.719598 5.10209 1.15559C4.25692 1.58876 3.48511 2.15033 2.81772 2.81913C2.14327 3.48652 1.58312 4.26115 1.15559 5.10632C0.716776 5.9642 0.438814 6.84606 0.273729 7.79141C0.104412 8.72548 0.0451512 9.66942 0.0211646 10.6148C0.00846586 11.0479 0.00705488 11.4811 0 11.9143C0 12.4251 0 12.9372 0 13.4551V34.5463C0 35.067 0 35.5764 0 36.0899C0.00705488 36.5273 0.00846586 36.9521 0.0211646 37.3909C0.0451512 38.3362 0.104412 39.2816 0.273729 40.2156C0.438814 41.161 0.716776 42.0471 1.15559 42.9021C1.58312 43.7431 2.14327 44.5163 2.81772 45.1795C3.48511 45.8525 4.25692 46.4141 5.10068 46.8416C5.95996 47.2818 6.83759 47.5612 7.78294 47.7319C8.71983 47.8998 9.67083 47.9548 10.6105 47.9817C11.0465 47.9915 11.4755 47.9972 11.9072 47.9972C12.4236 48 12.9344 48 13.4522 48H153.881C154.388 48 154.903 48 155.411 47.9972C155.841 47.9972 156.281 47.9915 156.711 47.9817C157.657 47.9563 158.605 47.8998 159.533 47.7319C160.479 47.5612 161.358 47.2832 162.226 46.8416C163.068 46.4126 163.84 45.8525 164.507 45.1795C165.179 44.5163 165.739 43.7431 166.173 42.9021C166.607 42.0471 166.887 41.161 167.047 40.2156C167.22 39.2816 167.275 38.3362 167.309 37.3909C167.315 36.9521 167.315 36.5288 167.315 36.0899C167.326 35.5778 167.326 35.0684 167.326 34.5463V13.4537C167.326 12.9372 167.326 12.4251 167.315 11.9129C167.315 11.4797 167.315 11.0465 167.309 10.6134C167.277 9.66801 167.222 8.72265 167.047 7.78859C166.887 6.84323 166.607 5.96137 166.173 5.1035C165.737 4.25833 165.179 3.48511 164.507 2.81631C163.84 2.14751 163.069 1.58594 162.226 1.15277C161.358 0.715365 160.479 0.43317 159.533 0.268085C158.605 0.100179 157.657 0.0423293 156.711 0.0183427C156.281 0.0112878 155.841 0.00282195 155.411 0C154.903 0.00141098 154.388 0.00141098 153.88 0.00141098Z" fill="#A6A6A6"/>
<path d="M153.88 0.918945C154.386 0.918945 154.899 0.918945 155.404 0.921767C155.751 0.924589 156.107 0.930233 156.457 0.935877L156.688 0.94011C157.435 0.958453 158.413 1.00219 159.375 1.17574C160.248 1.32813 161.045 1.59057 161.806 1.97294C162.566 2.36378 163.256 2.86609 163.859 3.46999C164.456 4.0626 164.959 4.75398 165.353 5.51873C165.736 6.27924 165.994 7.07221 166.143 7.95831C166.308 8.84722 166.359 9.77564 166.39 10.6265C166.396 11.0554 166.396 11.4857 166.396 11.933C166.407 12.4382 166.407 12.9433 166.407 13.4541V34.5453C166.407 35.0589 166.407 35.5626 166.396 36.0889C166.396 36.5235 166.396 36.944 166.39 37.3574C166.359 38.228 166.308 39.1564 166.14 40.0608C165.992 40.9385 165.734 41.7314 165.357 42.4778C164.957 43.2525 164.453 43.941 163.853 44.5322C163.256 45.1347 162.569 45.6356 161.809 46.0222C161.06 46.4032 160.261 46.6656 159.369 46.8279C158.445 46.9958 157.494 47.0409 156.691 47.0635C156.268 47.0734 155.835 47.079 155.406 47.079C154.901 47.0819 154.387 47.0819 153.882 47.0819H13.4517C12.9367 47.0819 12.4273 47.0819 11.9067 47.079C11.4819 47.079 11.0601 47.0734 10.6354 47.0649C9.82828 47.0423 8.8787 46.9972 7.94604 46.8293C7.05289 46.6684 6.25851 46.4046 5.51634 46.0236C4.75582 45.6384 4.06727 45.1361 3.46055 44.5238C2.86512 43.9382 2.36422 43.2525 1.97197 42.4821C1.59383 41.7441 1.3328 40.9498 1.17618 40.0495C1.00122 39.0887 0.957476 38.1109 0.937722 37.363C0.929257 37.0696 0.925024 36.7831 0.922202 36.4939L0.917969 36.0889V34.5453V13.4541V11.9288L0.923613 11.5069C0.926435 11.2191 0.930668 10.9312 0.939133 10.6392C0.957476 9.89416 1.00263 8.91636 1.179 7.94843C1.33421 7.05951 1.59383 6.26655 1.97479 5.52014C2.36281 4.75398 2.86371 4.06401 3.4676 3.46717C4.06868 2.86468 4.76006 2.36237 5.51775 1.97436C6.27404 1.58916 7.067 1.32813 7.94604 1.17433C8.91115 1.00078 9.89037 0.957042 10.6255 0.938699L10.9049 0.934466C11.2421 0.928822 11.5765 0.923178 11.9123 0.921767C12.4259 0.918945 12.9367 0.918945 13.4517 0.918945H153.88Z" fill="black"/>
<mask id="mask0_568_2899" style="mask-type:luminance" maskUnits="userSpaceOnUse" x="10" y="10" width="37" height="28">
<path d="M46.9374 32.5304V32.9043C46.9374 33.0835 46.9374 33.2627 46.936 33.4419C46.9346 33.5928 46.9332 33.7438 46.929 33.8948C46.9205 34.2235 46.9008 34.5551 46.8429 34.8796C46.7836 35.2098 46.6863 35.5174 46.5339 35.8165C46.3843 36.1114 46.1882 36.3809 45.954 36.6137C45.7198 36.8479 45.4503 37.0427 45.1568 37.1936C44.8577 37.346 44.5501 37.4434 44.2199 37.5026C43.8954 37.5605 43.5638 37.5802 43.235 37.5887C43.0841 37.5929 42.9331 37.5944 42.7821 37.5958C42.6029 37.5972 42.4237 37.5972 42.2445 37.5972L40.1859 37.5958L42.102 37.5972H15.4995L17.4156 37.5958L15.357 37.5972C15.1778 37.5972 14.9986 37.5972 14.8194 37.5958C14.6684 37.5944 14.5174 37.5929 14.3665 37.5887C14.0377 37.5802 13.7061 37.5605 13.3816 37.5026C13.0514 37.4434 12.7453 37.346 12.4447 37.1936C12.1498 37.0441 11.8803 36.8479 11.6475 36.6137C11.4133 36.3795 11.2186 36.11 11.0676 35.8165C10.9152 35.5174 10.8179 35.2098 10.7586 34.8796C10.7007 34.5551 10.681 34.2235 10.6725 33.8948C10.6683 33.7438 10.6669 33.5928 10.6655 33.4419C10.6641 33.2627 10.6641 33.0835 10.6641 32.9043V32.6108V15.3799V17.1437V15.0851C10.6641 14.9059 10.6641 14.7267 10.6655 14.5475C10.6669 14.3965 10.6683 14.2455 10.6725 14.0945C10.681 13.7658 10.7007 13.4342 10.7586 13.1097C10.8179 12.7795 10.9152 12.4719 11.0676 12.1728C11.2172 11.8779 11.4133 11.6084 11.6475 11.3756C11.8817 11.1428 12.1512 10.9467 12.4461 10.7971C12.7453 10.6447 13.0528 10.5474 13.383 10.4881C13.7075 10.4302 14.0391 10.4105 14.3679 10.402C14.5188 10.3978 14.6698 10.3964 14.8208 10.395C15 10.3936 15.1792 10.3936 15.3584 10.3936H17.417H42.1034H42.2445C42.4237 10.3936 42.6029 10.3936 42.7821 10.395C42.9331 10.3964 43.0841 10.3978 43.235 10.402C43.5638 10.4105 43.8954 10.4302 44.2199 10.4881C44.5501 10.5474 44.8562 10.6447 45.1568 10.7971C45.4517 10.9467 45.7212 11.1428 45.954 11.377C46.1882 11.6112 46.3829 11.8807 46.5339 12.1742C46.6863 12.4733 46.7836 12.7809 46.8429 13.1111C46.9008 13.4356 46.9205 13.7672 46.929 14.096C46.9332 14.2469 46.9346 14.3979 46.936 14.5489C46.9374 14.7281 46.9374 14.9073 46.9374 15.0865V15.4604V32.5304Z" fill="white"/>
</mask>
<g mask="url(#mask0_568_2899)">
<path d="M45.7858 11.5264H11.7812V35.204H45.7858V11.5264Z" fill="#DEDBCE"/>
<path d="M45.4254 11.9043H12.1758V26.0098H45.4254V11.9043Z" fill="#40A5D9"/>
<g filter="url(#filter0_d_568_2899)">
<path fill-rule="evenodd" clip-rule="evenodd" d="M45.4215 17.9044C45.4215 17.7901 45.4215 17.6772 45.4215 17.5629C45.4215 17.467 45.4201 17.371 45.4173 17.2751C45.4116 17.0662 45.399 16.856 45.3623 16.65C45.3242 16.4412 45.2635 16.2465 45.1661 16.056C45.0716 15.8697 44.9474 15.6976 44.7979 15.5494C44.6497 15.4013 44.479 15.2771 44.2913 15.1812C44.1009 15.0838 43.9061 15.0231 43.6973 14.985C43.4913 14.9484 43.2811 14.9357 43.0723 14.93C42.9763 14.9272 42.8804 14.9258 42.7844 14.9258C42.6701 14.9258 42.5572 14.9258 42.443 14.9258H42.3498H16.4556H15.1504C15.0362 14.9258 14.9233 14.9258 14.809 14.9258C14.713 14.9258 14.6171 14.9272 14.5212 14.93C14.3123 14.9357 14.1021 14.9484 13.8961 14.985C13.6873 15.0231 13.4925 15.0838 13.3021 15.1812C13.1158 15.2757 12.9437 15.3999 12.7955 15.5494C12.6474 15.6976 12.5232 15.8683 12.4273 16.056C12.3299 16.2465 12.2692 16.4412 12.2311 16.65C12.1945 16.856 12.1818 17.0662 12.1761 17.2751C12.1733 17.371 12.1719 17.467 12.1719 17.5629C12.1719 17.6772 12.1719 17.7901 12.1719 17.9044V19.2095V18.1837V29.0327H45.4215V18.2515V17.9044Z" fill="#FFB003"/>
</g>
<g filter="url(#filter1_d_568_2899)">
<path fill-rule="evenodd" clip-rule="evenodd" d="M45.4215 20.9258C45.4215 20.8115 45.4215 20.6987 45.4215 20.5844C45.4215 20.4884 45.4201 20.3925 45.4173 20.2965C45.4116 20.0877 45.399 19.8775 45.3623 19.6715C45.3242 19.4627 45.2635 19.2679 45.1661 19.0775C45.0716 18.8912 44.9474 18.7191 44.7979 18.5709C44.6497 18.4228 44.479 18.2986 44.2913 18.2027C44.1009 18.1053 43.9061 18.0446 43.6973 18.0065C43.4913 17.9698 43.2811 17.9571 43.0723 17.9515C42.9763 17.9487 42.8804 17.9473 42.7844 17.9473C42.6701 17.9473 42.5572 17.9473 42.443 17.9473H42.3484H16.4556H15.1504C15.0362 17.9473 14.9233 17.9473 14.809 17.9473C14.713 17.9473 14.6171 17.9487 14.5212 17.9515C14.3123 17.9571 14.1021 17.9698 13.8961 18.0065C13.6873 18.0446 13.4925 18.1053 13.3021 18.2027C13.1158 18.2972 12.9437 18.4214 12.7955 18.5709C12.6474 18.7191 12.5232 18.8898 12.4273 19.0775C12.3299 19.2679 12.2692 19.4627 12.2311 19.6715C12.1945 19.8775 12.1818 20.0877 12.1761 20.2965C12.1733 20.3925 12.1719 20.4884 12.1719 20.5844C12.1719 20.6987 12.1719 20.8115 12.1719 20.9258V22.231V21.2052V32.0542H45.4215V21.2729V20.9258Z" fill="#40C740"/>
</g>
<g filter="url(#filter2_d_568_2899)">
<path fill-rule="evenodd" clip-rule="evenodd" d="M45.4215 23.9483C45.4215 23.834 45.4215 23.7211 45.4215 23.6068C45.4215 23.5109 45.4201 23.4149 45.4173 23.319C45.4116 23.1102 45.399 22.8999 45.3623 22.6939C45.3242 22.4851 45.2635 22.2904 45.1661 22.0999C45.0716 21.9137 44.9474 21.7415 44.7979 21.5934C44.6497 21.4452 44.479 21.3211 44.2913 21.2251C44.1009 21.1278 43.9061 21.0671 43.6973 21.029C43.4913 20.9923 43.2811 20.9796 43.0723 20.974C42.9763 20.9711 42.8804 20.9697 42.7844 20.9697C42.6701 20.9697 42.5572 20.9697 42.443 20.9697H42.3484H16.4556H15.1504C15.0362 20.9697 14.9233 20.9697 14.809 20.9697C14.713 20.9697 14.6171 20.9711 14.5212 20.974C14.3123 20.9796 14.1021 20.9923 13.8961 21.029C13.6873 21.0671 13.4925 21.1278 13.3021 21.2251C13.1158 21.3196 12.9437 21.4438 12.7955 21.5934C12.6474 21.7415 12.5232 21.9123 12.4273 22.0999C12.3299 22.2904 12.2692 22.4851 12.2311 22.6939C12.1945 22.8999 12.1818 23.1102 12.1761 23.319C12.1733 23.4149 12.1719 23.5109 12.1719 23.6068C12.1719 23.7211 12.1719 23.834 12.1719 23.9483V25.2534V24.2277V35.0767H45.4215V24.2954V23.9483Z" fill="#F26D5F"/>
</g>
<path fill-rule="evenodd" clip-rule="evenodd" d="M10.1602 9.88965V25.5063H12.175V16.1868V14.8817C12.175 14.7674 12.175 14.6545 12.175 14.5402C12.175 14.4443 12.1764 14.3483 12.1793 14.2524C12.1849 14.0436 12.1976 13.8333 12.2343 13.6273C12.2724 13.4185 12.3331 13.2238 12.4304 13.0333C12.525 12.8471 12.6491 12.6749 12.7987 12.5268C12.9468 12.3786 13.1176 12.2544 13.3052 12.1585C13.4943 12.064 13.689 12.0019 13.8978 11.9652C14.1038 11.9285 14.3141 11.9158 14.5229 11.9102C14.6188 11.9073 14.7148 11.9059 14.8107 11.9059C14.925 11.9059 15.0379 11.9059 15.1522 11.9059H16.4573H42.3473H42.4475C42.5618 11.9059 42.6747 11.9059 42.789 11.9059C42.8849 11.9059 42.9809 11.9073 43.0768 11.9102C43.2856 11.9158 43.4959 11.9285 43.7019 11.9652C43.9107 12.0033 44.1054 12.064 44.2959 12.1613C44.4821 12.2559 44.6543 12.38 44.8024 12.5296C44.9506 12.6777 45.0748 12.8485 45.1707 13.0361C45.2681 13.2266 45.3287 13.4213 45.3668 13.6301C45.4035 13.8361 45.4162 14.0464 45.4219 14.2552C45.4247 14.3512 45.4261 14.4471 45.4261 14.543C45.4261 14.6573 45.4261 14.7702 45.4261 14.8845V16.1897V25.5092H47.441V9.88965H10.1602Z" fill="#D9D6CC"/>
<g filter="url(#filter3_d_568_2899)">
<path fill-rule="evenodd" clip-rule="evenodd" d="M38.0735 23.9951C37.8576 23.9951 37.6403 23.9951 37.4244 23.9965C37.2424 23.9979 37.0604 23.9994 36.8784 24.005C36.4819 24.0163 36.0812 24.0389 35.6889 24.1094C35.2911 24.1814 34.92 24.2985 34.5588 24.4819C34.5122 24.5059 33.5175 24.9574 32.6229 26.3486C31.9442 27.4054 30.6235 28.5258 28.7738 28.5258C26.9254 28.5258 25.6047 27.4054 24.9246 26.3486C23.9835 24.8826 22.9097 24.4424 22.9873 24.4819C22.6261 24.2971 22.255 24.18 21.8571 24.1094C21.4649 24.0389 21.0642 24.0149 20.6677 24.005C20.4857 24.0008 20.3037 23.9979 20.1216 23.9965C19.9058 23.9951 19.6885 23.9951 19.4726 23.9951H10.1602V38.1006H47.4396V23.9951H38.0735Z" fill="#DEDBCE"/>
</g>
</g>
<path d="M54.7461 28H58.5134C60.129 28 61.1054 28.8113 61.1054 30.1278V30.1433C61.1054 31.0026 60.4902 31.7828 59.6958 31.9338V31.9959C60.7667 32.1384 61.4765 32.8792 61.4765 33.8965V33.912C61.4765 35.3611 60.3575 36.2923 58.5614 36.2923H54.7461V28ZM57.9857 31.4202C58.9466 31.4202 59.4207 31.0646 59.4207 30.3323V30.3154C59.4207 29.6311 58.979 29.26 58.1592 29.26H56.4322V31.4188L57.9857 31.4202ZM58.2453 35.0281C59.2076 35.0281 59.7283 34.6259 59.7283 33.8372V33.8231C59.7283 33.0273 59.1695 32.6576 58.0506 32.6576H56.4336V35.0295H58.2453V35.0281Z" fill="white"/>
<path d="M70.4023 24.918H72.3099L76.4398 36.289H74.5886L73.5488 33.2159H69.1677L68.1207 36.289H66.2695L70.4023 24.918ZM69.6375 31.7965H73.0662L71.3716 26.8016H71.342L69.6375 31.7965Z" fill="white"/>
<path d="M77.5273 27.9994H79.229V29.4259H79.2685C79.7652 28.441 80.6781 27.8428 81.8605 27.8428C83.9727 27.8428 85.3272 29.4964 85.3272 32.1448V32.1533C85.3272 34.7918 83.9642 36.4554 81.8844 36.4554C80.7105 36.4554 79.7567 35.8557 79.2685 34.8962H79.229V39.0487H77.5273V27.9994ZM83.5945 32.1519V32.1434C83.5945 30.3783 82.7508 29.2975 81.4202 29.2975C80.1278 29.2975 79.2205 30.4178 79.2205 32.1434V32.1519C79.2205 33.8691 80.1348 34.988 81.4202 34.988C82.7592 34.988 83.5945 33.9001 83.5945 32.1519Z" fill="white"/>
<path d="M87.0117 27.9994H88.7134V29.4259H88.7529C89.2495 28.441 90.1624 27.8428 91.3448 27.8428C93.4571 27.8428 94.8116 29.4964 94.8116 32.1448V32.1533C94.8116 34.7918 93.4486 36.4554 91.3688 36.4554C90.1949 36.4554 89.2411 35.8557 88.7529 34.8962H88.7134V39.0487H87.0117V27.9994ZM93.0789 32.1519V32.1434C93.0789 30.3783 92.2352 29.2975 90.9046 29.2975C89.6122 29.2975 88.7049 30.4178 88.7049 32.1434V32.1519C88.7049 33.8691 89.6192 34.988 90.9046 34.988C92.245 34.988 93.0789 33.9001 93.0789 32.1519Z" fill="white"/>
<path d="M96.3125 24.918H98.0141V36.289H96.3125V24.918Z" fill="white"/>
<path d="M99.6719 32.1759V32.1674C99.6719 29.5755 101.17 27.8428 103.494 27.8428C105.818 27.8428 107.245 29.5134 107.245 32.0023V32.5766H101.374C101.405 34.1442 102.265 35.0599 103.62 35.0599C104.629 35.0599 105.297 34.5393 105.512 33.917L105.536 33.8535H107.151L107.136 33.941C106.868 35.2575 105.591 36.454 103.582 36.454C101.146 36.454 99.6719 34.7904 99.6719 32.1759ZM101.399 31.3716H105.558C105.416 29.9367 104.613 29.2354 103.501 29.2354C102.399 29.2368 101.547 29.9846 101.399 31.3716Z" fill="white"/>
<path d="M112.656 24.918H114.492L116.611 33.8297H116.642L119.047 24.918H120.717L123.12 33.8297H123.16L125.279 24.918H127.116L124.041 36.289H122.348L119.906 27.7159H119.866L117.417 36.289H115.722L112.656 24.918Z" fill="white"/>
<path d="M127.602 33.9325V33.917C127.602 32.475 128.72 31.5931 130.683 31.4746L132.936 31.3406V30.7183C132.936 29.804 132.345 29.2523 131.29 29.2523C130.305 29.2523 129.698 29.718 129.556 30.3797L129.54 30.4503H127.932L127.94 30.3642C128.057 28.9363 129.295 27.8428 131.335 27.8428C133.361 27.8428 134.645 28.9137 134.645 30.5772V36.2903H132.935V34.9823H132.904C132.424 35.8726 131.463 36.4399 130.367 36.4399C128.712 36.4384 127.602 35.4211 127.602 33.9325ZM130.831 35.074C132.031 35.074 132.935 34.2627 132.935 33.1833V32.5371L130.91 32.6627C129.885 32.7262 129.317 33.1749 129.317 33.8761V33.893C129.319 34.6183 129.918 35.074 130.831 35.074Z" fill="white"/>
<path d="M136.512 24.918H138.213V36.289H136.512V24.918Z" fill="white"/>
<path d="M140.609 24.918H142.311V36.289H140.609V24.918Z" fill="white"/>
<path d="M143.809 32.1759V32.1674C143.809 29.5755 145.307 27.8428 147.631 27.8428C149.955 27.8428 151.381 29.5134 151.381 32.0023V32.5766H145.51C145.541 34.1442 146.402 35.0599 147.757 35.0599C148.765 35.0599 149.434 34.5393 149.649 33.917L149.673 33.8535H151.288L151.273 33.941C151.005 35.2575 149.728 36.454 147.718 36.454C145.283 36.454 143.809 34.7904 143.809 32.1759ZM145.536 31.3716H149.695C149.553 29.9367 148.75 29.2354 147.638 29.2354C146.536 29.2368 145.685 29.9846 145.536 31.3716Z" fill="white"/>
<path d="M153.542 34.1063V29.3556H152.352V27.9996H153.542V25.8408H155.284V27.9996H156.836V29.3556H155.284V34.0047C155.284 34.8471 155.662 35.0982 156.377 35.0982C156.559 35.0982 156.709 35.0827 156.834 35.0686V36.385C156.637 36.4161 156.315 36.4556 155.968 36.4556C154.33 36.4542 153.542 35.7614 153.542 34.1063Z" fill="white"/>
<path d="M53.9883 21.7466V19.0996H54.6218C55.2426 18.768 55.474 18.0103 55.5389 16.8914L55.8635 11.5156H61.2689V19.0996H62.3342V21.7466H61.3465V20.0591H54.9745V21.7466H53.9883ZM55.9425 19.0277V19.0996H60.205V12.4751H56.8187L56.5407 16.914C56.4815 17.8805 56.363 18.5254 55.9425 19.0277Z" fill="white"/>
<path d="M63.4336 16.8736V16.8623C63.4336 14.8136 64.5581 13.5635 66.3769 13.5635C68.1942 13.5635 69.3188 14.8136 69.3188 16.8623V16.8736C69.3188 18.9167 68.1942 20.1725 66.3769 20.1725C64.5567 20.1725 63.4336 18.9167 63.4336 16.8736ZM68.2634 16.8736V16.8623C68.2634 15.3526 67.5833 14.4764 66.3755 14.4764C65.1677 14.4764 64.4862 15.3526 64.4862 16.8623V16.8736C64.4862 18.3777 65.1663 19.2596 66.3755 19.2596C67.5833 19.2596 68.2634 18.3777 68.2634 16.8736Z" fill="white"/>
<path d="M70.6992 16.288V16.2753C70.6992 12.889 71.6403 11.4441 73.9205 11.3383L74.5596 11.3087C75.0676 11.2847 75.6715 11.1902 76.2232 10.9658V11.8773C76.0214 12.0664 75.347 12.2202 74.6062 12.2569L73.9543 12.2865C72.4686 12.3514 71.8224 13.0442 71.5867 14.7853L71.5684 14.9166H71.6615C72.0947 14.1532 72.858 13.7384 73.8231 13.7384C75.5403 13.7384 76.6408 14.9631 76.6408 16.8877V16.899C76.6408 18.9251 75.5092 20.1795 73.6693 20.1795C71.7179 20.1781 70.6992 18.8447 70.6992 16.288ZM75.5897 16.8976V16.8863C75.5897 15.4584 74.8912 14.6485 73.6721 14.6485C72.4531 14.6485 71.7546 15.4584 71.7546 16.8863V16.8976C71.7546 18.396 72.4531 19.2666 73.6721 19.2666C74.8912 19.2666 75.5897 18.396 75.5897 16.8976Z" fill="white"/>
<path d="M77.9648 18.2771V18.2644C77.9648 17.1272 78.8058 16.4711 80.2915 16.3822L82.1202 16.2693V15.6894C82.1202 14.9006 81.6404 14.4759 80.688 14.4759C79.9233 14.4759 79.421 14.7595 79.2545 15.2576L79.2474 15.276H78.2188L78.2245 15.2407C78.3895 14.2403 79.3617 13.5645 80.7233 13.5645C82.281 13.5645 83.1516 14.3631 83.1516 15.6908V20.0606H82.1216V19.1195H82.0285C81.6263 19.7996 80.9561 20.1735 80.0982 20.1735C78.8834 20.1721 77.9648 19.4369 77.9648 18.2771ZM80.3113 19.2775C81.3582 19.2775 82.1216 18.5904 82.1216 17.6789V17.0989L80.4171 17.2048C79.4464 17.264 79.0203 17.6069 79.0203 18.2404V18.2517C79.0188 18.8979 79.5705 19.2775 80.3113 19.2775Z" fill="white"/>
<path d="M85.1303 13.6768H87.8352C89.043 13.6768 89.747 14.3343 89.747 15.3347V15.3474C89.747 15.9795 89.304 16.5777 88.7057 16.7033V16.7964C89.517 16.9093 90.032 17.4779 90.032 18.2187V18.23C90.032 19.3376 89.2207 20.06 87.8464 20.06H85.1289L85.1303 13.6768ZM87.5219 16.376C88.3502 16.376 88.7241 16.0557 88.7241 15.4532V15.4405C88.7241 14.8958 88.4038 14.529 87.6884 14.529H86.1603V16.376H87.5219ZM87.8055 19.2064C88.5872 19.2064 88.9837 18.8508 88.9837 18.2116V18.2003C88.9837 17.5245 88.5279 17.2296 87.6094 17.2296H86.1589V19.2064H87.8055Z" fill="white"/>
<path d="M91.7578 13.6768H92.7864V18.4374H92.8809L96.0359 13.6768H97.0659V20.0586H96.0359V15.298H95.9428L92.7864 20.0586H91.7578V13.6768Z" fill="white"/>
<path d="M103.702 14.5304H101.635V20.06H100.605V14.5304H98.5391V13.6768H103.702V14.5304Z" fill="white"/>
<path d="M105.172 13.6768H106.2V15.7255H107.451C108.912 15.7255 109.848 16.5664 109.848 17.8857V17.8984C109.848 19.2191 108.912 20.0586 107.451 20.0586H105.172V13.6768ZM106.2 16.5777V19.2064H107.451C108.292 19.2064 108.819 18.6857 108.819 17.8984V17.8857C108.819 17.0927 108.286 16.5763 107.451 16.5763H106.2V16.5777Z" fill="white"/>
<defs>
<filter id="filter0_d_568_2899" x="9.17188" y="11.7258" width="39.25" height="20.1074" filterUnits="userSpaceOnUse" color-interpolation-filters="sRGB">
<feFlood flood-opacity="0" result="BackgroundImageFix"/>
<feColorMatrix in="SourceAlpha" type="matrix" values="0 0 0 0 0 0 0 0 0 0 0 0 0 0 0 0 0 0 127 0" result="hardAlpha"/>
<feOffset dy="-0.2"/>
<feGaussianBlur stdDeviation="1.5"/>
<feComposite in2="hardAlpha" operator="out"/>
<feColorMatrix type="matrix" values="0 0 0 0 0 0 0 0 0 0 0 0 0 0 0 0 0 0 0.12 0"/>
<feBlend mode="normal" in2="BackgroundImageFix" result="effect1_dropShadow_568_2899"/>
<feBlend mode="normal" in="SourceGraphic" in2="effect1_dropShadow_568_2899" result="shape"/>
</filter>
<filter id="filter1_d_568_2899" x="9.17188" y="14.7473" width="39.25" height="20.1074" filterUnits="userSpaceOnUse" color-interpolation-filters="sRGB">
<feFlood flood-opacity="0" result="BackgroundImageFix"/>
<feColorMatrix in="SourceAlpha" type="matrix" values="0 0 0 0 0 0 0 0 0 0 0 0 0 0 0 0 0 0 127 0" result="hardAlpha"/>
<feOffset dy="-0.2"/>
<feGaussianBlur stdDeviation="1.5"/>
<feComposite in2="hardAlpha" operator="out"/>
<feColorMatrix type="matrix" values="0 0 0 0 0 0 0 0 0 0 0 0 0 0 0 0 0 0 0.12 0"/>
<feBlend mode="normal" in2="BackgroundImageFix" result="effect1_dropShadow_568_2899"/>
<feBlend mode="normal" in="SourceGraphic" in2="effect1_dropShadow_568_2899" result="shape"/>
</filter>
<filter id="filter2_d_568_2899" x="9.17188" y="17.7697" width="39.25" height="20.1074" filterUnits="userSpaceOnUse" color-interpolation-filters="sRGB">
<feFlood flood-opacity="0" result="BackgroundImageFix"/>
<feColorMatrix in="SourceAlpha" type="matrix" values="0 0 0 0 0 0 0 0 0 0 0 0 0 0 0 0 0 0 127 0" result="hardAlpha"/>
<feOffset dy="-0.2"/>
<feGaussianBlur stdDeviation="1.5"/>
<feComposite in2="hardAlpha" operator="out"/>
<feColorMatrix type="matrix" values="0 0 0 0 0 0 0 0 0 0 0 0 0 0 0 0 0 0 0.12 0"/>
<feBlend mode="normal" in2="BackgroundImageFix" result="effect1_dropShadow_568_2899"/>
<feBlend mode="normal" in="SourceGraphic" in2="effect1_dropShadow_568_2899" result="shape"/>
</filter>
<filter id="filter3_d_568_2899" x="7.16016" y="20.7951" width="43.2812" height="20.1055" filterUnits="userSpaceOnUse" color-interpolation-filters="sRGB">
<feFlood flood-opacity="0" result="BackgroundImageFix"/>
<feColorMatrix in="SourceAlpha" type="matrix" values="0 0 0 0 0 0 0 0 0 0 0 0 0 0 0 0 0 0 127 0" result="hardAlpha"/>
<feOffset dy="-0.2"/>
<feGaussianBlur stdDeviation="1.5"/>
<feComposite in2="hardAlpha" operator="out"/>
<feColorMatrix type="matrix" values="0 0 0 0 0 0 0 0 0 0 0 0 0 0 0 0 0 0 0.12 0"/>
<feBlend mode="normal" in2="BackgroundImageFix" result="effect1_dropShadow_568_2899"/>
<feBlend mode="normal" in="SourceGraphic" in2="effect1_dropShadow_568_2899" result="shape"/>
</filter>
</defs>
</svg>
