<svg width="159" height="48" viewBox="0 0 159 48" fill="none" xmlns="http://www.w3.org/2000/svg">
<path d="M145.036 0.00141098H13.4508C12.933 0.00141098 12.4222 0.00141098 11.9072 0.00423293C11.4741 0.00705488 11.0465 0.0155207 10.6105 0.0225756C9.67083 0.0451512 8.72124 0.103001 7.78294 0.270907C6.839 0.437403 5.96137 0.719598 5.10209 1.15559C4.25692 1.58876 3.48511 2.15033 2.81772 2.81913C2.14327 3.48652 1.58312 4.26115 1.15559 5.10632C0.716776 5.9642 0.438814 6.84606 0.273729 7.79141C0.104412 8.72548 0.0451512 9.66942 0.0211646 10.6148C0.00846586 11.0479 0.00705488 11.4811 0 11.9143C0 12.4251 0 12.9372 0 13.4551V34.5463C0 35.067 0 35.5764 0 36.0899C0.00705488 36.5273 0.00846586 36.9521 0.0211646 37.3909C0.0451512 38.3362 0.104412 39.2816 0.273729 40.2156C0.438814 41.161 0.716776 42.0471 1.15559 42.9021C1.58312 43.7431 2.14327 44.5163 2.81772 45.1795C3.48511 45.8525 4.25692 46.4141 5.10068 46.8416C5.95996 47.2818 6.83759 47.5612 7.78294 47.7319C8.71983 47.8998 9.67083 47.9548 10.6105 47.9817C11.0465 47.9915 11.4755 47.9972 11.9072 47.9972C12.4236 48 12.9344 48 13.4522 48H145.037C145.544 48 146.059 48 146.567 47.9972C146.997 47.9972 147.437 47.9915 147.867 47.9817C148.813 47.9563 149.761 47.8998 150.689 47.7319C151.635 47.5612 152.514 47.2832 153.382 46.8416C154.224 46.4126 154.996 45.8525 155.663 45.1795C156.335 44.5163 156.895 43.7431 157.329 42.9021C157.763 42.0471 158.043 41.161 158.203 40.2156C158.376 39.2816 158.431 38.3362 158.465 37.3909C158.471 36.9521 158.471 36.5288 158.471 36.0899C158.482 35.5778 158.482 35.0684 158.482 34.5463V13.4537C158.482 12.9372 158.482 12.4251 158.471 11.9129C158.471 11.4797 158.471 11.0465 158.465 10.6134C158.433 9.66801 158.378 8.72265 158.203 7.78859C158.043 6.84323 157.763 5.96137 157.329 5.1035C156.893 4.25833 156.335 3.48511 155.663 2.81631C154.996 2.14751 154.225 1.58594 153.382 1.15277C152.514 0.715365 151.635 0.43317 150.689 0.268085C149.761 0.100179 148.813 0.0423293 147.867 0.0183427C147.437 0.0112878 146.997 0.00282195 146.567 0C146.059 0.00141098 145.544 0.00141098 145.036 0.00141098Z" fill="#A6A6A6"/>
<path d="M145.036 0.918945C145.542 0.918945 146.055 0.918945 146.56 0.921767C146.907 0.924589 147.263 0.930233 147.613 0.935877L147.844 0.94011C148.591 0.958453 149.569 1.00219 150.531 1.17574C151.404 1.32813 152.201 1.59057 152.962 1.97294C153.722 2.36378 154.412 2.86609 155.015 3.46999C155.612 4.0626 156.115 4.75398 156.509 5.51873C156.892 6.27924 157.15 7.07221 157.299 7.95831C157.464 8.84722 157.515 9.77564 157.546 10.6265C157.552 11.0554 157.552 11.4857 157.552 11.933C157.563 12.4382 157.563 12.9433 157.563 13.4541V34.5453C157.563 35.0589 157.563 35.5626 157.552 36.0889C157.552 36.5235 157.552 36.944 157.546 37.3574C157.515 38.228 157.464 39.1564 157.296 40.0608C157.148 40.9385 156.89 41.7314 156.513 42.4778C156.113 43.2525 155.609 43.941 155.009 44.5322C154.412 45.1347 153.725 45.6356 152.965 46.0222C152.216 46.4032 151.417 46.6656 150.525 46.8279C149.601 46.9958 148.65 47.0409 147.847 47.0635C147.424 47.0734 146.991 47.079 146.562 47.079C146.057 47.0819 145.543 47.0819 145.038 47.0819H13.4517C12.9367 47.0819 12.4273 47.0819 11.9067 47.079C11.4819 47.079 11.0601 47.0734 10.6354 47.0649C9.82828 47.0423 8.8787 46.9972 7.94604 46.8293C7.05289 46.6684 6.25851 46.4046 5.51634 46.0236C4.75582 45.6384 4.06727 45.1361 3.46055 44.5238C2.86512 43.9382 2.36422 43.2525 1.97197 42.4821C1.59383 41.7441 1.3328 40.9498 1.17618 40.0495C1.00122 39.0887 0.957476 38.1109 0.937722 37.363C0.929257 37.0696 0.925024 36.7831 0.922202 36.4939L0.917969 36.0889V34.5453V13.4541V11.9288L0.923613 11.5069C0.926435 11.2191 0.930668 10.9312 0.939133 10.6392C0.957476 9.89416 1.00263 8.91636 1.179 7.94843C1.33421 7.05951 1.59383 6.26655 1.97479 5.52014C2.36281 4.75398 2.86371 4.06401 3.4676 3.46717C4.06868 2.86468 4.76006 2.36237 5.51775 1.97436C6.27404 1.58916 7.067 1.32813 7.94604 1.17433C8.91115 1.00078 9.89037 0.957042 10.6255 0.938699L10.9049 0.934466C11.2421 0.928822 11.5765 0.923178 11.9123 0.921767C12.4259 0.918945 12.9367 0.918945 13.4517 0.918945H145.036Z" fill="black"/>
<mask id="mask0_568_1798" style="mask-type:luminance" maskUnits="userSpaceOnUse" x="10" y="10" width="37" height="28">
<path d="M46.9374 32.5304V32.9043C46.9374 33.0835 46.9374 33.2627 46.936 33.4419C46.9346 33.5928 46.9332 33.7438 46.929 33.8948C46.9205 34.2235 46.9008 34.5551 46.8429 34.8796C46.7836 35.2098 46.6863 35.5174 46.5339 35.8165C46.3843 36.1114 46.1882 36.3809 45.954 36.6137C45.7198 36.8479 45.4503 37.0427 45.1568 37.1936C44.8577 37.346 44.5501 37.4434 44.2199 37.5026C43.8954 37.5605 43.5638 37.5802 43.235 37.5887C43.0841 37.5929 42.9331 37.5944 42.7821 37.5958C42.6029 37.5972 42.4237 37.5972 42.2445 37.5972L40.1859 37.5958L42.102 37.5972H15.4995L17.4156 37.5958L15.357 37.5972C15.1778 37.5972 14.9986 37.5972 14.8194 37.5958C14.6684 37.5944 14.5174 37.5929 14.3665 37.5887C14.0377 37.5802 13.7061 37.5605 13.3816 37.5026C13.0514 37.4434 12.7453 37.346 12.4447 37.1936C12.1498 37.0441 11.8803 36.8479 11.6475 36.6137C11.4133 36.3795 11.2186 36.11 11.0676 35.8165C10.9152 35.5174 10.8179 35.2098 10.7586 34.8796C10.7007 34.5551 10.681 34.2235 10.6725 33.8948C10.6683 33.7438 10.6669 33.5928 10.6655 33.4419C10.6641 33.2627 10.6641 33.0835 10.6641 32.9043V32.6108V15.3799V17.1437V15.0851C10.6641 14.9059 10.6641 14.7267 10.6655 14.5475C10.6669 14.3965 10.6683 14.2455 10.6725 14.0945C10.681 13.7658 10.7007 13.4342 10.7586 13.1097C10.8179 12.7795 10.9152 12.4719 11.0676 12.1728C11.2172 11.8779 11.4133 11.6084 11.6475 11.3756C11.8817 11.1428 12.1512 10.9467 12.4461 10.7971C12.7453 10.6447 13.0528 10.5474 13.383 10.4881C13.7075 10.4302 14.0391 10.4105 14.3679 10.402C14.5188 10.3978 14.6698 10.3964 14.8208 10.395C15 10.3936 15.1792 10.3936 15.3584 10.3936H17.417H42.1034H42.2445C42.4237 10.3936 42.6029 10.3936 42.7821 10.395C42.9331 10.3964 43.0841 10.3978 43.235 10.402C43.5638 10.4105 43.8954 10.4302 44.2199 10.4881C44.5501 10.5474 44.8562 10.6447 45.1568 10.7971C45.4517 10.9467 45.7212 11.1428 45.954 11.377C46.1882 11.6112 46.3829 11.8807 46.5339 12.1742C46.6863 12.4733 46.7836 12.7809 46.8429 13.1111C46.9008 13.4356 46.9205 13.7672 46.929 14.096C46.9332 14.2469 46.9346 14.3979 46.936 14.5489C46.9374 14.7281 46.9374 14.9073 46.9374 15.0865V15.4604V32.5304Z" fill="white"/>
</mask>
<g mask="url(#mask0_568_1798)">
<path d="M45.7858 11.5264H11.7812V35.204H45.7858V11.5264Z" fill="#DEDBCE"/>
<path d="M45.4254 11.9043H12.1758V26.0098H45.4254V11.9043Z" fill="#40A5D9"/>
<g filter="url(#filter0_d_568_1798)">
<path fill-rule="evenodd" clip-rule="evenodd" d="M45.4215 17.9044C45.4215 17.7901 45.4215 17.6772 45.4215 17.5629C45.4215 17.467 45.4201 17.371 45.4173 17.2751C45.4116 17.0662 45.399 16.856 45.3623 16.65C45.3242 16.4412 45.2635 16.2465 45.1661 16.056C45.0716 15.8697 44.9474 15.6976 44.7979 15.5494C44.6497 15.4013 44.479 15.2771 44.2913 15.1812C44.1009 15.0838 43.9061 15.0231 43.6973 14.985C43.4913 14.9484 43.2811 14.9357 43.0723 14.93C42.9763 14.9272 42.8804 14.9258 42.7844 14.9258C42.6701 14.9258 42.5572 14.9258 42.443 14.9258H42.3498H16.4556H15.1504C15.0362 14.9258 14.9233 14.9258 14.809 14.9258C14.713 14.9258 14.6171 14.9272 14.5212 14.93C14.3123 14.9357 14.1021 14.9484 13.8961 14.985C13.6873 15.0231 13.4925 15.0838 13.3021 15.1812C13.1158 15.2757 12.9437 15.3999 12.7955 15.5494C12.6474 15.6976 12.5232 15.8683 12.4273 16.056C12.3299 16.2465 12.2692 16.4412 12.2311 16.65C12.1945 16.856 12.1818 17.0662 12.1761 17.2751C12.1733 17.371 12.1719 17.467 12.1719 17.5629C12.1719 17.6772 12.1719 17.7901 12.1719 17.9044V19.2095V18.1837V29.0327H45.4215V18.2515V17.9044Z" fill="#FFB003"/>
</g>
<g filter="url(#filter1_d_568_1798)">
<path fill-rule="evenodd" clip-rule="evenodd" d="M45.4215 20.9258C45.4215 20.8115 45.4215 20.6987 45.4215 20.5844C45.4215 20.4884 45.4201 20.3925 45.4173 20.2965C45.4116 20.0877 45.399 19.8775 45.3623 19.6715C45.3242 19.4627 45.2635 19.2679 45.1661 19.0775C45.0716 18.8912 44.9474 18.7191 44.7979 18.5709C44.6497 18.4228 44.479 18.2986 44.2913 18.2027C44.1009 18.1053 43.9061 18.0446 43.6973 18.0065C43.4913 17.9698 43.2811 17.9571 43.0723 17.9515C42.9763 17.9487 42.8804 17.9473 42.7844 17.9473C42.6701 17.9473 42.5572 17.9473 42.443 17.9473H42.3484H16.4556H15.1504C15.0362 17.9473 14.9233 17.9473 14.809 17.9473C14.713 17.9473 14.6171 17.9487 14.5212 17.9515C14.3123 17.9571 14.1021 17.9698 13.8961 18.0065C13.6873 18.0446 13.4925 18.1053 13.3021 18.2027C13.1158 18.2972 12.9437 18.4214 12.7955 18.5709C12.6474 18.7191 12.5232 18.8898 12.4273 19.0775C12.3299 19.2679 12.2692 19.4627 12.2311 19.6715C12.1945 19.8775 12.1818 20.0877 12.1761 20.2965C12.1733 20.3925 12.1719 20.4884 12.1719 20.5844C12.1719 20.6987 12.1719 20.8115 12.1719 20.9258V22.231V21.2052V32.0542H45.4215V21.2729V20.9258Z" fill="#40C740"/>
</g>
<g filter="url(#filter2_d_568_1798)">
<path fill-rule="evenodd" clip-rule="evenodd" d="M45.4215 23.9483C45.4215 23.834 45.4215 23.7211 45.4215 23.6068C45.4215 23.5109 45.4201 23.4149 45.4173 23.319C45.4116 23.1102 45.399 22.8999 45.3623 22.6939C45.3242 22.4851 45.2635 22.2904 45.1661 22.0999C45.0716 21.9137 44.9474 21.7415 44.7979 21.5934C44.6497 21.4452 44.479 21.3211 44.2913 21.2251C44.1009 21.1278 43.9061 21.0671 43.6973 21.029C43.4913 20.9923 43.2811 20.9796 43.0723 20.974C42.9763 20.9711 42.8804 20.9697 42.7844 20.9697C42.6701 20.9697 42.5572 20.9697 42.443 20.9697H42.3484H16.4556H15.1504C15.0362 20.9697 14.9233 20.9697 14.809 20.9697C14.713 20.9697 14.6171 20.9711 14.5212 20.974C14.3123 20.9796 14.1021 20.9923 13.8961 21.029C13.6873 21.0671 13.4925 21.1278 13.3021 21.2251C13.1158 21.3196 12.9437 21.4438 12.7955 21.5934C12.6474 21.7415 12.5232 21.9123 12.4273 22.0999C12.3299 22.2904 12.2692 22.4851 12.2311 22.6939C12.1945 22.8999 12.1818 23.1102 12.1761 23.319C12.1733 23.4149 12.1719 23.5109 12.1719 23.6068C12.1719 23.7211 12.1719 23.834 12.1719 23.9483V25.2534V24.2277V35.0767H45.4215V24.2954V23.9483Z" fill="#F26D5F"/>
</g>
<path fill-rule="evenodd" clip-rule="evenodd" d="M10.1602 9.88965V25.5063H12.175V16.1868V14.8817C12.175 14.7674 12.175 14.6545 12.175 14.5402C12.175 14.4443 12.1764 14.3483 12.1793 14.2524C12.1849 14.0436 12.1976 13.8333 12.2343 13.6273C12.2724 13.4185 12.3331 13.2238 12.4304 13.0333C12.525 12.8471 12.6491 12.6749 12.7987 12.5268C12.9468 12.3786 13.1176 12.2544 13.3052 12.1585C13.4943 12.064 13.689 12.0019 13.8978 11.9652C14.1038 11.9285 14.3141 11.9158 14.5229 11.9102C14.6188 11.9073 14.7148 11.9059 14.8107 11.9059C14.925 11.9059 15.0379 11.9059 15.1522 11.9059H16.4573H42.3473H42.4475C42.5618 11.9059 42.6747 11.9059 42.789 11.9059C42.8849 11.9059 42.9809 11.9073 43.0768 11.9102C43.2856 11.9158 43.4959 11.9285 43.7019 11.9652C43.9107 12.0033 44.1054 12.064 44.2959 12.1613C44.4822 12.2559 44.6543 12.38 44.8024 12.5296C44.9506 12.6777 45.0748 12.8485 45.1707 13.0361C45.2681 13.2266 45.3287 13.4213 45.3668 13.6301C45.4035 13.8361 45.4162 14.0464 45.4219 14.2552C45.4247 14.3512 45.4261 14.4471 45.4261 14.543C45.4261 14.6573 45.4261 14.7702 45.4261 14.8845V16.1897V25.5092H47.441V9.88965H10.1602Z" fill="#D9D6CC"/>
<g filter="url(#filter3_d_568_1798)">
<path fill-rule="evenodd" clip-rule="evenodd" d="M38.0735 23.9951C37.8576 23.9951 37.6403 23.9951 37.4244 23.9965C37.2424 23.9979 37.0604 23.9994 36.8784 24.005C36.4819 24.0163 36.0812 24.0389 35.6889 24.1094C35.2911 24.1814 34.92 24.2985 34.5588 24.4819C34.5122 24.5059 33.5175 24.9574 32.6229 26.3486C31.9442 27.4054 30.6235 28.5258 28.7738 28.5258C26.9254 28.5258 25.6047 27.4054 24.9246 26.3486C23.9835 24.8826 22.9097 24.4424 22.9873 24.4819C22.6261 24.2971 22.255 24.18 21.8571 24.1094C21.4649 24.0389 21.0642 24.0149 20.6677 24.005C20.4857 24.0008 20.3037 23.9979 20.1216 23.9965C19.9058 23.9951 19.6885 23.9951 19.4726 23.9951H10.1602V38.1006H47.4396V23.9951H38.0735Z" fill="#DEDBCE"/>
</g>
</g>
<path d="M54.4688 30.5996V30.5911C54.4688 26.9818 56.5175 24.7285 59.7402 24.7285C62.2461 24.7285 64.1297 26.2735 64.4839 28.5198L64.4994 28.5918H62.7498L62.7032 28.4337C62.3251 27.1032 61.2682 26.2905 59.7402 26.2905C57.6279 26.2905 56.2734 27.9611 56.2734 30.5925V30.601C56.2734 33.2325 57.6364 34.92 59.7402 34.92C61.2527 34.92 62.3011 34.1313 62.7272 32.6892L62.7512 32.6187H64.5008L64.4937 32.6977C64.1396 34.9595 62.2559 36.4805 59.7416 36.4805C56.5189 36.4777 54.4688 34.2089 54.4688 30.5996Z" fill="white"/>
<path d="M65.9141 33.934V33.917C65.9141 32.4764 67.033 31.5931 68.9956 31.476L71.2504 31.3406V30.7198C71.2504 29.8054 70.6592 29.2537 69.6038 29.2537C68.6189 29.2537 68.0122 29.718 67.8697 30.3811L67.8542 30.4517H66.2471L66.2541 30.3642C66.3726 28.9377 67.6101 27.8428 69.6503 27.8428C71.6751 27.8428 72.9605 28.9151 72.9605 30.5772V36.2903H71.2504V34.9809H71.2193C70.7382 35.8726 69.7773 36.4384 68.6824 36.4384C67.0245 36.4384 65.9141 35.4225 65.9141 33.934ZM69.1452 35.0754C70.3431 35.0754 71.249 34.2641 71.249 33.1847V32.5385L69.2228 32.6641C68.1984 32.7276 67.6312 33.1763 67.6312 33.8775V33.893C67.6326 34.6183 68.2309 35.0754 69.1452 35.0754Z" fill="white"/>
<path d="M74.9702 27.9988H76.6718V29.4169H76.7113C76.978 28.4475 77.6722 27.8408 78.6175 27.8408C78.8616 27.8408 79.0747 27.8803 79.2087 27.9043V29.4874C79.0747 29.4324 78.7756 29.3943 78.444 29.3943C77.3491 29.3943 76.6704 30.1111 76.6704 31.3485V36.2897H74.9688V27.9988H74.9702Z" fill="white"/>
<path d="M81.4721 34.1077V29.3556H80.2812V28.001H81.4721V25.8408H83.2119V28.001H84.7653V29.3556H83.2119V34.0047C83.2119 34.8485 83.5914 35.0996 84.3068 35.0996C84.4888 35.0996 84.6369 35.0841 84.7639 35.0686V36.385C84.5664 36.4161 84.2447 36.457 83.8976 36.457C82.258 36.4556 81.4721 35.7614 81.4721 34.1077Z" fill="white"/>
<path d="M85.9609 32.1753V32.1669C85.9609 29.5735 87.458 27.8408 89.7819 27.8408C92.1071 27.8408 93.5336 29.5128 93.5336 32.0018V32.5761H87.6626C87.6936 34.1436 88.5529 35.0594 89.9088 35.0594C90.9177 35.0594 91.5865 34.5387 91.7996 33.9151L91.825 33.853H93.4405L93.425 33.9405C93.1569 35.2569 91.88 36.4534 89.8693 36.4534C87.434 36.4548 85.9609 34.7913 85.9609 32.1753ZM87.6866 31.3711H91.8475C91.705 29.9361 90.9022 29.2349 89.7903 29.2349C88.6884 29.2349 87.8361 29.9855 87.6866 31.3711Z" fill="white"/>
<path d="M94.8586 33.9165L94.8516 33.8459H96.5363L96.5532 33.9249C96.7098 34.6897 97.2784 35.1384 98.3268 35.1384C99.3512 35.1384 99.9649 34.7123 99.9649 34.0435V34.035C99.9649 33.4988 99.6658 33.1912 98.7755 32.9796L97.4195 32.672C95.8435 32.3094 95.0632 31.5531 95.0632 30.3481V30.3397C95.0632 28.8581 96.3557 27.8408 98.2633 27.8408C100.226 27.8408 101.408 28.9357 101.494 30.3467L101.502 30.4398H99.9014L99.8944 30.3848C99.7914 29.6596 99.2242 29.1558 98.2633 29.1558C97.349 29.1558 96.7733 29.5904 96.7733 30.2508V30.2592C96.7733 30.7714 97.1119 31.1171 98.0023 31.3316L99.3498 31.6392C101.044 32.0328 101.689 32.703 101.689 33.8925V33.901C101.689 35.4135 100.271 36.4548 98.3169 36.4548C96.2456 36.4548 95.0322 35.429 94.8586 33.9165Z" fill="white"/>
<path d="M110.497 24.918H112.405L116.535 36.289H114.682L113.643 33.2145H109.261L108.214 36.289H106.363L110.497 24.918ZM109.734 31.7979H113.161L111.468 26.8016H111.437L109.734 31.7979Z" fill="white"/>
<path d="M117.945 27.9988H119.647V29.4253H119.686C120.183 28.4405 121.097 27.8408 122.278 27.8408C124.391 27.8408 125.747 29.4959 125.747 32.1443V32.1514C125.747 34.7913 124.382 36.4548 122.304 36.4548C121.13 36.4548 120.176 35.8552 119.688 34.8957H119.647V39.0468H117.945V27.9988ZM124.014 32.1514V32.1443C124.014 30.3792 123.17 29.2984 121.838 29.2984C120.546 29.2984 119.64 30.4173 119.64 32.1443V32.1514C119.64 33.8699 120.553 34.9888 121.838 34.9888C123.177 34.9888 124.014 33.901 124.014 32.1514Z" fill="white"/>
<path d="M127.43 27.9988H129.131V29.4253H129.171C129.667 28.4405 130.582 27.8408 131.763 27.8408C133.875 27.8408 135.231 29.4959 135.231 32.1443V32.1514C135.231 34.7913 133.867 36.4548 131.788 36.4548C130.614 36.4548 129.66 35.8552 129.172 34.8957H129.131V39.0468H127.43V27.9988ZM133.498 32.1514V32.1443C133.498 30.3792 132.655 29.2984 131.323 29.2984C130.03 29.2984 129.124 30.4173 129.124 32.1443V32.1514C129.124 33.8699 130.037 34.9888 131.323 34.9888C132.662 34.9888 133.498 33.901 133.498 32.1514Z" fill="white"/>
<path d="M136.973 24.918H138.676V36.289H136.973V24.918Z" fill="white"/>
<path d="M140.414 32.1753V32.1669C140.414 29.5735 141.911 27.8408 144.235 27.8408C146.56 27.8408 147.987 29.5128 147.987 32.0018V32.5761H142.116C142.147 34.1436 143.006 35.0594 144.362 35.0594C145.371 35.0594 146.04 34.5387 146.253 33.9151L146.278 33.853H147.894L147.878 33.9405C147.61 35.2569 146.333 36.4534 144.322 36.4534C141.887 36.4548 140.414 34.7913 140.414 32.1753ZM142.14 31.3711H146.301C146.158 29.9361 145.355 29.2349 144.243 29.2349C143.141 29.2349 142.289 29.9855 142.14 31.3711Z" fill="white"/>
<path d="M57.3095 11.5166H58.3635L61.5128 20.0601H60.3939L59.536 17.6148H56.1369L55.2791 20.0601H54.1602L57.3095 11.5166ZM56.4502 16.709H59.2213L57.8823 12.8965H57.7878L56.4502 16.709Z" fill="white"/>
<path d="M61.7734 22.2511V21.3396H61.9272C62.62 21.3396 62.8811 21.0969 62.8811 20.3929V13.678H63.9111V20.3745C63.9111 21.6895 63.2902 22.2525 61.9512 22.2525H61.7734V22.2511ZM62.6849 11.7351C62.6849 11.3443 63.0052 11.0254 63.3961 11.0254C63.7869 11.0254 64.1058 11.3457 64.1058 11.7351C64.1058 12.1245 63.7869 12.4462 63.3961 12.4462C63.0052 12.4462 62.6849 12.126 62.6849 11.7351Z" fill="white"/>
<path d="M65.5195 16.8746V16.8619C65.5195 14.8132 66.6441 13.5645 68.4614 13.5645C70.2802 13.5645 71.4033 14.8132 71.4033 16.8619V16.8746C71.4033 18.9163 70.2788 20.1721 68.4614 20.1721C66.6441 20.1721 65.5195 18.9163 65.5195 16.8746ZM70.3507 16.8746V16.8619C70.3507 15.3522 69.6692 14.4759 68.4614 14.4759C67.2536 14.4759 66.5735 15.3522 66.5735 16.8619V16.8746C66.5735 18.3773 67.2536 19.2606 68.4614 19.2606C69.6692 19.2606 70.3507 18.3773 70.3507 16.8746Z" fill="white"/>
<path d="M72.9258 17.8091V13.6777H73.9558V17.5607C73.9558 18.7093 74.3692 19.261 75.3879 19.261C76.5125 19.261 77.1107 18.5738 77.1107 17.4549V13.6777H78.1407V20.0596H77.1107V19.1058H77.0162C76.7016 19.7873 76.0567 20.171 75.1213 20.171C73.6722 20.1725 72.9258 19.3202 72.9258 17.8091Z" fill="white"/>
<path d="M80.4513 18.4016V14.5285H79.4453V13.6776H80.4513V12.0254H81.5166V13.6776H82.9135V14.5299H81.5166V18.142C81.5166 18.894 81.7777 19.196 82.4394 19.196C82.6228 19.196 82.7244 19.1903 82.9135 19.172V20.0482C82.7117 20.0835 82.517 20.1075 82.3152 20.1075C81.0016 20.1075 80.4513 19.6207 80.4513 18.4016Z" fill="white"/>
<path d="M84.0273 16.8915V16.8859C84.0273 14.9148 85.1519 13.5645 86.886 13.5645C88.6201 13.5645 89.6755 14.8555 89.6755 16.7617V17.1653H85.0813C85.111 18.4859 85.839 19.2549 86.9763 19.2549C87.8398 19.2549 88.3732 18.8457 88.5439 18.462L88.5693 18.4083H89.5979L89.5866 18.4563C89.3679 19.3212 88.455 20.1735 86.9509 20.1735C85.1279 20.1721 84.0273 18.8923 84.0273 16.8915ZM85.0997 16.3413H88.6271C88.5213 15.0798 87.8229 14.483 86.8817 14.483C85.9336 14.4816 85.2112 15.1264 85.0997 16.3413Z" fill="white"/>
<path d="M91.2578 13.6773H92.2878V14.6241H92.3824C92.625 13.9553 93.2233 13.5645 94.0868 13.5645C94.2829 13.5645 94.5016 13.5884 94.6018 13.6054V14.6058C94.3888 14.5705 94.1941 14.5465 93.9683 14.5465C92.9863 14.5465 92.2878 15.1687 92.2878 16.1042V20.0592H91.2578V13.6773Z" fill="white"/>
<path d="M98.8789 18.2776V18.2663C98.8789 17.129 99.7198 16.4729 101.206 16.384L103.034 16.2711V15.6912C103.034 14.9039 102.555 14.4778 101.601 14.4778C100.837 14.4778 100.335 14.7628 100.169 15.2595L100.161 15.2778H99.1329L99.1385 15.2425C99.3036 14.2422 100.276 13.5663 101.637 13.5663C103.195 13.5663 104.066 14.3649 104.066 15.6912V20.061H103.036V19.1199H102.943C102.539 19.8 101.87 20.1739 101.012 20.1739C99.796 20.1725 98.8789 19.4388 98.8789 18.2776ZM99.8793 10.7754H101.098L102.147 12.7889H101.247L99.8793 10.7754ZM101.223 19.2779C102.271 19.2779 103.034 18.5908 103.034 17.6793V17.0994L101.33 17.2066C100.359 17.2659 99.9329 17.6087 99.9329 18.2423V18.2536C99.9329 18.8998 100.482 19.2779 101.223 19.2779Z" fill="white"/>
<path d="M109.387 11.1436H110.417V20.0595H109.387V11.1436Z" fill="white"/>
<path d="M112.889 11.5166H114.067L113.138 14.886H112.375L112.889 11.5166Z" fill="white"/>
<path d="M114.938 18.2777V18.2664C114.938 17.1291 115.778 16.473 117.264 16.3841L119.093 16.2712V15.6913C119.093 14.904 118.613 14.4779 117.659 14.4779C116.896 14.4779 116.394 14.7629 116.227 15.2596L116.22 15.2779H115.193L115.199 15.2426C115.364 14.2423 116.336 13.5664 117.697 13.5664C119.255 13.5664 120.126 14.365 120.126 15.6913V20.0611H119.096V19.12H119.003C118.599 19.8001 117.93 20.174 117.072 20.174C115.856 20.1726 114.938 19.4389 114.938 18.2777ZM117.283 19.278C118.331 19.278 119.094 18.5909 119.094 17.6794V17.0995L117.39 17.2067C116.419 17.266 115.993 17.6089 115.993 18.2424V18.2537C115.993 18.8999 116.542 19.278 117.283 19.278Z" fill="white"/>
<path d="M121.988 13.6779H123.018V14.6966H123.113C123.502 13.9869 124.213 13.5664 125.102 13.5664C126.719 13.5664 127.778 14.8744 127.778 16.8639V16.8766C127.778 18.8773 126.724 20.174 125.102 20.174C124.226 20.174 123.461 19.7352 123.113 19.0551H123.018V22.1931H121.988V13.6779ZM126.725 16.8751V16.8624C126.725 15.3767 126.032 14.4765 124.867 14.4765C123.705 14.4765 122.996 15.388 122.996 16.8624V16.8751C122.996 18.3482 123.705 19.2611 124.867 19.2611C126.032 19.2611 126.725 18.3609 126.725 16.8751Z" fill="white"/>
<path d="M129.375 13.6779H130.405V14.6966H130.5C130.889 13.9869 131.6 13.5664 132.489 13.5664C134.106 13.5664 135.164 14.8744 135.164 16.8639V16.8766C135.164 18.8773 134.11 20.174 132.489 20.174C131.613 20.174 130.848 19.7352 130.5 19.0551H130.405V22.1931H129.375V13.6779ZM134.112 16.8751V16.8624C134.112 15.3767 133.419 14.4765 132.253 14.4765C131.092 14.4765 130.382 15.388 130.382 16.8624V16.8751C130.382 18.3482 131.092 19.2611 132.253 19.2611C133.419 19.2611 134.112 18.3609 134.112 16.8751Z" fill="white"/>
<defs>
<filter id="filter0_d_568_1798" x="9.17188" y="11.7258" width="39.25" height="20.1074" filterUnits="userSpaceOnUse" color-interpolation-filters="sRGB">
<feFlood flood-opacity="0" result="BackgroundImageFix"/>
<feColorMatrix in="SourceAlpha" type="matrix" values="0 0 0 0 0 0 0 0 0 0 0 0 0 0 0 0 0 0 127 0" result="hardAlpha"/>
<feOffset dy="-0.2"/>
<feGaussianBlur stdDeviation="1.5"/>
<feComposite in2="hardAlpha" operator="out"/>
<feColorMatrix type="matrix" values="0 0 0 0 0 0 0 0 0 0 0 0 0 0 0 0 0 0 0.12 0"/>
<feBlend mode="normal" in2="BackgroundImageFix" result="effect1_dropShadow_568_1798"/>
<feBlend mode="normal" in="SourceGraphic" in2="effect1_dropShadow_568_1798" result="shape"/>
</filter>
<filter id="filter1_d_568_1798" x="9.17188" y="14.7473" width="39.25" height="20.1074" filterUnits="userSpaceOnUse" color-interpolation-filters="sRGB">
<feFlood flood-opacity="0" result="BackgroundImageFix"/>
<feColorMatrix in="SourceAlpha" type="matrix" values="0 0 0 0 0 0 0 0 0 0 0 0 0 0 0 0 0 0 127 0" result="hardAlpha"/>
<feOffset dy="-0.2"/>
<feGaussianBlur stdDeviation="1.5"/>
<feComposite in2="hardAlpha" operator="out"/>
<feColorMatrix type="matrix" values="0 0 0 0 0 0 0 0 0 0 0 0 0 0 0 0 0 0 0.12 0"/>
<feBlend mode="normal" in2="BackgroundImageFix" result="effect1_dropShadow_568_1798"/>
<feBlend mode="normal" in="SourceGraphic" in2="effect1_dropShadow_568_1798" result="shape"/>
</filter>
<filter id="filter2_d_568_1798" x="9.17188" y="17.7697" width="39.25" height="20.1074" filterUnits="userSpaceOnUse" color-interpolation-filters="sRGB">
<feFlood flood-opacity="0" result="BackgroundImageFix"/>
<feColorMatrix in="SourceAlpha" type="matrix" values="0 0 0 0 0 0 0 0 0 0 0 0 0 0 0 0 0 0 127 0" result="hardAlpha"/>
<feOffset dy="-0.2"/>
<feGaussianBlur stdDeviation="1.5"/>
<feComposite in2="hardAlpha" operator="out"/>
<feColorMatrix type="matrix" values="0 0 0 0 0 0 0 0 0 0 0 0 0 0 0 0 0 0 0.12 0"/>
<feBlend mode="normal" in2="BackgroundImageFix" result="effect1_dropShadow_568_1798"/>
<feBlend mode="normal" in="SourceGraphic" in2="effect1_dropShadow_568_1798" result="shape"/>
</filter>
<filter id="filter3_d_568_1798" x="7.16016" y="20.7951" width="43.2812" height="20.1055" filterUnits="userSpaceOnUse" color-interpolation-filters="sRGB">
<feFlood flood-opacity="0" result="BackgroundImageFix"/>
<feColorMatrix in="SourceAlpha" type="matrix" values="0 0 0 0 0 0 0 0 0 0 0 0 0 0 0 0 0 0 127 0" result="hardAlpha"/>
<feOffset dy="-0.2"/>
<feGaussianBlur stdDeviation="1.5"/>
<feComposite in2="hardAlpha" operator="out"/>
<feColorMatrix type="matrix" values="0 0 0 0 0 0 0 0 0 0 0 0 0 0 0 0 0 0 0.12 0"/>
<feBlend mode="normal" in2="BackgroundImageFix" result="effect1_dropShadow_568_1798"/>
<feBlend mode="normal" in="SourceGraphic" in2="effect1_dropShadow_568_1798" result="shape"/>
</filter>
</defs>
</svg>
