<svg width="155" height="48" viewBox="0 0 155 48" fill="none" xmlns="http://www.w3.org/2000/svg">
<path d="M141.395 0.00141098H13.4508C12.933 0.00141098 12.4222 0.00141098 11.9072 0.00423293C11.4741 0.00705488 11.0465 0.0155207 10.6105 0.0225756C9.67083 0.0451512 8.72124 0.103001 7.78294 0.270907C6.839 0.437403 5.96137 0.719598 5.10209 1.15559C4.25692 1.58876 3.48511 2.15033 2.81772 2.81913C2.14327 3.48652 1.58312 4.26115 1.15559 5.10632C0.716776 5.9642 0.438814 6.84606 0.273729 7.79141C0.104412 8.72548 0.0451512 9.66942 0.0211646 10.6148C0.00846586 11.0479 0.00705488 11.4811 0 11.9143C0 12.4251 0 12.9372 0 13.4551V34.5463C0 35.067 0 35.5764 0 36.0899C0.00705488 36.5273 0.00846586 36.9521 0.0211646 37.3909C0.0451512 38.3362 0.104412 39.2816 0.273729 40.2156C0.438814 41.161 0.716776 42.0471 1.15559 42.9021C1.58312 43.7431 2.14327 44.5163 2.81772 45.1795C3.48511 45.8525 4.25692 46.4141 5.10068 46.8416C5.95996 47.2818 6.83759 47.5612 7.78294 47.7319C8.71983 47.8998 9.67083 47.9548 10.6105 47.9817C11.0465 47.9915 11.4755 47.9972 11.9072 47.9972C12.4236 48 12.9344 48 13.4522 48H141.397C141.903 48 142.418 48 142.926 47.9972C143.357 47.9972 143.797 47.9915 144.227 47.9817C145.173 47.9563 146.121 47.8998 147.049 47.7319C147.994 47.5612 148.874 47.2832 149.741 46.8416C150.584 46.4126 151.355 45.8525 152.023 45.1795C152.694 44.5163 153.255 43.7431 153.689 42.9021C154.122 42.0471 154.403 41.161 154.563 40.2156C154.736 39.2816 154.791 38.3362 154.825 37.3909C154.831 36.9521 154.831 36.5288 154.831 36.0899C154.842 35.5778 154.842 35.0684 154.842 34.5463V13.4537C154.842 12.9372 154.842 12.4251 154.831 11.9129C154.831 11.4797 154.831 11.0465 154.825 10.6134C154.793 9.66801 154.738 8.72265 154.563 7.78859C154.403 6.84323 154.122 5.96137 153.689 5.1035C153.253 4.25833 152.694 3.48511 152.023 2.81631C151.355 2.14751 150.585 1.58594 149.741 1.15277C148.874 0.715365 147.994 0.43317 147.049 0.268085C146.121 0.100179 145.173 0.0423293 144.227 0.0183427C143.797 0.0112878 143.357 0.00282195 142.926 0C142.418 0.00141098 141.903 0.00141098 141.395 0.00141098Z" fill="#A6A6A6"/>
<path d="M141.396 0.918945C141.901 0.918945 142.415 0.918945 142.92 0.921767C143.267 0.924589 143.623 0.930233 143.973 0.935877L144.204 0.94011C144.95 0.958453 145.928 1.00219 146.891 1.17574C147.764 1.32813 148.561 1.59057 149.322 1.97294C150.082 2.36378 150.772 2.86609 151.375 3.46999C151.971 4.0626 152.475 4.75398 152.869 5.51873C153.251 6.27924 153.509 7.07221 153.659 7.95831C153.824 8.84722 153.875 9.77564 153.906 10.6265C153.912 11.0554 153.912 11.4857 153.912 11.933C153.923 12.4382 153.923 12.9433 153.923 13.4541V34.5453C153.923 35.0589 153.923 35.5626 153.912 36.0889C153.912 36.5235 153.912 36.944 153.906 37.3574C153.875 38.228 153.824 39.1564 153.656 40.0608C153.508 40.9385 153.25 41.7314 152.873 42.4778C152.472 43.2525 151.969 43.941 151.369 44.5322C150.772 45.1347 150.085 45.6356 149.324 46.0222C148.575 46.4032 147.777 46.6656 146.885 46.8279C145.961 46.9958 145.01 47.0409 144.207 47.0635C143.784 47.0734 143.35 47.079 142.921 47.079C142.416 47.0819 141.903 47.0819 141.398 47.0819H13.4517C12.9367 47.0819 12.4273 47.0819 11.9067 47.079C11.4819 47.079 11.0601 47.0734 10.6354 47.0649C9.82828 47.0423 8.8787 46.9972 7.94604 46.8293C7.05289 46.6684 6.25851 46.4046 5.51634 46.0236C4.75582 45.6384 4.06727 45.1361 3.46055 44.5238C2.86512 43.9382 2.36422 43.2525 1.97197 42.4821C1.59383 41.7441 1.3328 40.9498 1.17618 40.0495C1.00122 39.0887 0.957476 38.1109 0.937722 37.363C0.929257 37.0696 0.925024 36.7831 0.922202 36.4939L0.917969 36.0889V34.5453V13.4541V11.9288L0.923613 11.5069C0.926435 11.2191 0.930668 10.9312 0.939133 10.6392C0.957476 9.89416 1.00263 8.91636 1.179 7.94843C1.33421 7.05951 1.59383 6.26655 1.97479 5.52014C2.36281 4.75398 2.86371 4.06401 3.4676 3.46717C4.06868 2.86468 4.76006 2.36237 5.51775 1.97436C6.27404 1.58916 7.067 1.32813 7.94604 1.17433C8.91115 1.00078 9.89037 0.957042 10.6255 0.938699L10.9049 0.934466C11.2421 0.928822 11.5765 0.923178 11.9123 0.921767C12.4259 0.918945 12.9367 0.918945 13.4517 0.918945H141.396Z" fill="black"/>
<mask id="mask0_568_1907" style="mask-type:luminance" maskUnits="userSpaceOnUse" x="107" y="10" width="38" height="28">
<path d="M144.176 32.5294V32.9033C144.176 33.0825 144.176 33.2617 144.174 33.4409C144.173 33.5919 144.171 33.7428 144.167 33.8938C144.159 34.2226 144.139 34.5541 144.081 34.8787C144.022 35.2088 143.925 35.5164 143.772 35.8155C143.623 36.1104 143.426 36.3799 143.192 36.6128C142.958 36.847 142.689 37.0417 142.395 37.1927C142.096 37.345 141.788 37.4424 141.458 37.5017C141.134 37.5595 140.802 37.5793 140.473 37.5877C140.322 37.592 140.171 37.5934 140.02 37.5948C139.841 37.5962 139.662 37.5962 139.483 37.5962L137.424 37.5948L139.34 37.5962H112.738L114.654 37.5948L112.595 37.5962C112.416 37.5962 112.237 37.5962 112.058 37.5948C111.907 37.5934 111.756 37.592 111.605 37.5877C111.276 37.5793 110.944 37.5595 110.62 37.5017C110.29 37.4424 109.984 37.345 109.683 37.1927C109.388 37.0431 109.119 36.847 108.886 36.6128C108.652 36.3785 108.457 36.109 108.306 35.8155C108.153 35.5164 108.056 35.2088 107.997 34.8787C107.939 34.5541 107.919 34.2226 107.911 33.8938C107.907 33.7428 107.905 33.5919 107.904 33.4409C107.902 33.2617 107.902 33.0825 107.902 32.9033V32.6098V15.379V17.1427V15.0841C107.902 14.9049 107.902 14.7257 107.904 14.5465C107.905 14.3955 107.907 14.2445 107.911 14.0936C107.919 13.7648 107.939 13.4332 107.997 13.1087C108.056 12.7785 108.153 12.4709 108.306 12.1718C108.455 11.8769 108.652 11.6074 108.886 11.3746C109.12 11.1418 109.39 10.9457 109.684 10.7961C109.984 10.6437 110.291 10.5464 110.621 10.4871C110.946 10.4293 111.277 10.4095 111.606 10.401C111.757 10.3968 111.908 10.3954 112.059 10.394C112.238 10.3926 112.417 10.3926 112.597 10.3926H114.655H139.342H139.483C139.662 10.3926 139.841 10.3926 140.02 10.394C140.171 10.3954 140.322 10.3968 140.473 10.401C140.802 10.4095 141.134 10.4293 141.458 10.4871C141.788 10.5464 142.095 10.6437 142.395 10.7961C142.69 10.9457 142.959 11.1418 143.192 11.376C143.426 11.6103 143.621 11.8797 143.772 12.1732C143.925 12.4724 144.022 12.78 144.081 13.1101C144.139 13.4346 144.159 13.7662 144.167 14.095C144.171 14.246 144.173 14.3969 144.174 14.5479C144.176 14.7271 144.176 14.9063 144.176 15.0855V15.4594V32.5294Z" fill="white"/>
</mask>
<g mask="url(#mask0_568_1907)">
<path d="M143.024 11.5254H109.02V35.203H143.024V11.5254Z" fill="#DEDBCE"/>
<path d="M142.664 11.9033H109.414V26.0089H142.664V11.9033Z" fill="#40A5D9"/>
<g filter="url(#filter0_d_568_1907)">
<path fill-rule="evenodd" clip-rule="evenodd" d="M142.66 17.9034C142.66 17.7891 142.66 17.6762 142.66 17.5619C142.66 17.466 142.658 17.37 142.656 17.2741C142.65 17.0653 142.637 16.855 142.601 16.649C142.562 16.4402 142.502 16.2455 142.404 16.055C142.31 15.8687 142.186 15.6966 142.036 15.5485C141.888 15.4003 141.717 15.2761 141.53 15.1802C141.339 15.0828 141.144 15.0222 140.936 14.9841C140.73 14.9474 140.519 14.9347 140.311 14.929C140.215 14.9262 140.119 14.9248 140.023 14.9248C139.908 14.9248 139.796 14.9248 139.681 14.9248H139.588H113.694H112.389C112.274 14.9248 112.162 14.9248 112.047 14.9248C111.951 14.9248 111.855 14.9262 111.759 14.929C111.551 14.9347 111.34 14.9474 111.134 14.9841C110.926 15.0222 110.731 15.0828 110.54 15.1802C110.354 15.2747 110.182 15.3989 110.034 15.5485C109.886 15.6966 109.761 15.8673 109.666 16.055C109.568 16.2455 109.508 16.4402 109.469 16.649C109.433 16.855 109.42 17.0653 109.414 17.2741C109.412 17.37 109.41 17.466 109.41 17.5619C109.41 17.6762 109.41 17.7891 109.41 17.9034V19.2085V18.1827V29.0317H142.66V18.2505V17.9034Z" fill="#FFB003"/>
</g>
<g filter="url(#filter1_d_568_1907)">
<path fill-rule="evenodd" clip-rule="evenodd" d="M142.66 20.9249C142.66 20.8106 142.66 20.6977 142.66 20.5834C142.66 20.4875 142.658 20.3915 142.656 20.2956C142.65 20.0867 142.637 19.8765 142.601 19.6705C142.562 19.4617 142.502 19.267 142.404 19.0765C142.31 18.8902 142.186 18.7181 142.036 18.5699C141.888 18.4218 141.717 18.2976 141.53 18.2017C141.339 18.1043 141.144 18.0436 140.936 18.0055C140.73 17.9689 140.519 17.9562 140.311 17.9505C140.215 17.9477 140.119 17.9463 140.023 17.9463C139.908 17.9463 139.796 17.9463 139.681 17.9463H139.587H113.694H112.389C112.274 17.9463 112.162 17.9463 112.047 17.9463C111.951 17.9463 111.855 17.9477 111.759 17.9505C111.551 17.9562 111.34 17.9689 111.134 18.0055C110.926 18.0436 110.731 18.1043 110.54 18.2017C110.354 18.2962 110.182 18.4204 110.034 18.5699C109.886 18.7181 109.761 18.8888 109.666 19.0765C109.568 19.267 109.508 19.4617 109.469 19.6705C109.433 19.8765 109.42 20.0867 109.414 20.2956C109.412 20.3915 109.41 20.4875 109.41 20.5834C109.41 20.6977 109.41 20.8106 109.41 20.9249V22.23V21.2042V32.0532H142.66V21.272V20.9249Z" fill="#40C740"/>
</g>
<g filter="url(#filter2_d_568_1907)">
<path fill-rule="evenodd" clip-rule="evenodd" d="M142.66 23.9473C142.66 23.833 142.66 23.7202 142.66 23.6059C142.66 23.5099 142.658 23.414 142.656 23.318C142.65 23.1092 142.637 22.899 142.601 22.693C142.562 22.4841 142.502 22.2894 142.404 22.0989C142.31 21.9127 142.186 21.7406 142.036 21.5924C141.888 21.4442 141.717 21.3201 141.53 21.2241C141.339 21.1268 141.144 21.0661 140.936 21.028C140.73 20.9913 140.519 20.9786 140.311 20.973C140.215 20.9702 140.119 20.9688 140.023 20.9688C139.908 20.9688 139.796 20.9688 139.681 20.9688H139.587H113.694H112.389C112.274 20.9688 112.162 20.9688 112.047 20.9688C111.951 20.9688 111.855 20.9702 111.759 20.973C111.551 20.9786 111.34 20.9913 111.134 21.028C110.926 21.0661 110.731 21.1268 110.54 21.2241C110.354 21.3187 110.182 21.4428 110.034 21.5924C109.886 21.7406 109.761 21.9113 109.666 22.0989C109.568 22.2894 109.508 22.4841 109.469 22.693C109.433 22.899 109.42 23.1092 109.414 23.318C109.412 23.414 109.41 23.5099 109.41 23.6059C109.41 23.7202 109.41 23.833 109.41 23.9473V25.2525V24.2267V35.0757H142.66V24.2944V23.9473Z" fill="#F26D5F"/>
</g>
<path fill-rule="evenodd" clip-rule="evenodd" d="M107.398 9.88867V25.5054H109.413V16.1859V14.8807C109.413 14.7664 109.413 14.6535 109.413 14.5392C109.413 14.4433 109.415 14.3474 109.418 14.2514C109.423 14.0426 109.436 13.8323 109.473 13.6263C109.511 13.4175 109.571 13.2228 109.669 13.0323C109.763 12.8461 109.887 12.6739 110.037 12.5258C110.185 12.3776 110.356 12.2535 110.544 12.1575C110.733 12.063 110.927 12.0009 111.136 11.9642C111.342 11.9275 111.552 11.9148 111.761 11.9092C111.857 11.9064 111.953 11.905 112.049 11.905C112.163 11.905 112.276 11.905 112.39 11.905H113.696H139.586H139.686C139.8 11.905 139.913 11.905 140.027 11.905C140.123 11.905 140.219 11.9064 140.315 11.9092C140.524 11.9148 140.734 11.9275 140.94 11.9642C141.149 12.0023 141.344 12.063 141.534 12.1603C141.72 12.2549 141.893 12.379 142.041 12.5286C142.189 12.6768 142.313 12.8475 142.409 13.0351C142.506 13.2256 142.567 13.4203 142.605 13.6292C142.642 13.8352 142.654 14.0454 142.66 14.2542C142.663 14.3502 142.664 14.4461 142.664 14.5421C142.664 14.6564 142.664 14.7692 142.664 14.8835V16.1887V25.5082H144.679V9.88867H107.398Z" fill="#D9D6CC"/>
<g filter="url(#filter3_d_568_1907)">
<path fill-rule="evenodd" clip-rule="evenodd" d="M135.312 23.9941C135.096 23.9941 134.879 23.9941 134.663 23.9956C134.481 23.997 134.299 23.9984 134.117 24.004C133.72 24.0153 133.319 24.0379 132.927 24.1084C132.529 24.1804 132.158 24.2975 131.797 24.4809C131.75 24.5049 130.756 24.9564 129.861 26.3477C129.182 27.4045 127.862 28.5248 126.012 28.5248C124.164 28.5248 122.843 27.4045 122.163 26.3477C121.222 24.8816 120.148 24.4414 120.226 24.4809C119.864 24.2961 119.493 24.179 119.095 24.1084C118.703 24.0379 118.302 24.0139 117.906 24.004C117.724 23.9998 117.542 23.997 117.36 23.9956C117.144 23.9941 116.927 23.9941 116.711 23.9941H107.398V38.0997H144.678V23.9941H135.312Z" fill="#DEDBCE"/>
</g>
</g>
<path d="M59.783 15.7706L59.625 17.3452C59.529 18.3216 59.1974 19.0454 58.6316 19.5139C58.1956 19.8779 57.5325 20.0599 56.6436 20.0599V19.14C57.112 19.1484 57.4563 19.0878 57.6736 18.958C58.142 18.6913 58.4129 18.1735 58.4863 17.4059L58.6189 16.0358C58.6683 15.5674 58.5667 15.2288 58.317 15.0171C58.1463 14.8718 57.9332 14.7998 57.6736 14.7998H55.0195V11.5771H56.1596V13.8799H57.6736C58.3367 13.8799 58.8743 14.0816 59.2863 14.4852C59.6659 14.8647 59.8324 15.2937 59.783 15.7706Z" fill="white"/>
<path d="M66.9226 13.8799L65.2986 17.7445C65.767 18.4402 66.2693 19.2105 66.8013 20.06H65.4157C65.0531 19.4942 64.4506 18.5714 63.6054 17.2944C63.4431 17.063 63.2879 16.8472 63.1412 16.6468L62.2819 20.06H61.0586L62.4047 15.621C61.9786 15.0397 61.544 14.4598 61.1023 13.8799H62.4893C62.9324 14.4612 63.6435 15.4235 64.6213 16.7639L65.688 13.8799H66.9226Z" fill="white"/>
<path d="M77.0638 20.0602H75.9252V16.2675C75.9252 15.7426 75.7559 15.3433 75.4158 15.0682C75.0772 14.793 74.6158 14.6562 74.0345 14.6562C73.6874 14.6562 73.3022 14.7126 72.8831 14.8255C72.4302 14.9468 72.0958 15.0992 71.8771 15.2855L71.8164 14.3147C72.0986 14.1454 72.4711 14.0057 72.9311 13.8971C73.3925 13.7884 73.82 13.7334 74.2165 13.7334C75.1124 13.7334 75.8109 13.9507 76.3132 14.3881C76.8141 14.8255 77.0638 15.459 77.0638 16.2915V20.0602ZM73.0171 20.0602H71.8785V16.9095L73.0171 16.5469V20.0602Z" fill="white"/>
<path d="M84.0662 17.0069C84.0662 17.9522 83.7572 18.7198 83.1392 19.3096C82.5212 19.8994 81.7367 20.1943 80.7829 20.1943C80.1677 20.1943 79.5468 20.0856 78.9161 19.8669L79.0022 18.8002C79.4876 19.1163 80.0647 19.2729 80.7363 19.2729C81.398 19.2729 81.9258 19.0598 82.3166 18.6309C82.7088 18.2034 82.905 17.6545 82.905 16.9829C82.905 16.2971 82.7046 15.7412 82.3053 15.3165C81.9046 14.8918 81.3966 14.6802 80.7843 14.6802C80.4767 14.6802 80.1776 14.7126 79.8869 14.7775V16.4735H81.1582V17.3455H78.8555V14.0495C79.4213 13.8547 80.0633 13.7588 80.7829 13.7588C81.7677 13.7588 82.5621 14.0537 83.1646 14.6435C83.7671 15.2333 84.0662 16.0206 84.0662 17.0069Z" fill="white"/>
<path d="M91.1717 16.9688C91.1717 17.8901 90.9205 18.6492 90.4211 19.2475C89.8877 19.8853 89.1723 20.2055 88.275 20.2055C87.3776 20.2055 86.6791 19.8853 86.1797 19.2475C85.7183 18.6662 85.4883 17.9071 85.4883 16.9688V14.4727C85.8608 14.2696 86.3193 14.096 86.864 13.9507C87.41 13.8054 87.8813 13.7334 88.2764 13.7334C89.1893 13.7334 89.9075 14.0368 90.4323 14.6435C90.9262 15.2248 91.1717 16.0008 91.1717 16.9688ZM89.9597 16.9688C89.9597 16.3141 89.8299 15.7807 89.5716 15.3687C89.2725 14.8932 88.8394 14.6548 88.275 14.6548C87.6936 14.6548 87.1688 14.8001 86.7003 15.0908V16.6061C86.7003 18.391 87.2252 19.2828 88.275 19.2828C89.3981 19.2842 89.9597 18.5124 89.9597 16.9688Z" fill="white"/>
<path d="M94.0762 20.06H92.9375V13.8799H94.0762V20.06Z" fill="white"/>
<path d="M101.422 20.0602H100.282V16.2675C100.282 15.7426 100.112 15.3433 99.7738 15.0682C99.4351 14.793 98.9752 14.6562 98.3924 14.6562C98.0453 14.6562 97.6615 14.7126 97.2425 14.8255C96.791 14.9468 96.4537 15.0992 96.2365 15.2855L96.1758 14.3147C96.458 14.1454 96.8305 14.0057 97.2904 13.8971C97.7504 13.7884 98.1794 13.7334 98.5744 13.7334C99.4718 13.7334 100.17 13.9507 100.671 14.3881C101.171 14.8255 101.422 15.459 101.422 16.2915V20.0602ZM97.3751 20.0602H96.235V16.9095L97.3751 16.5469V20.0602Z" fill="white"/>
<path d="M14.969 24.918H16.8767L21.0052 36.289H19.154L18.1141 33.2159H13.7316L12.6832 36.289H10.832L14.969 24.918ZM14.2057 31.7965H17.6329L15.9384 26.8016H15.9073L14.2057 31.7965Z" fill="white"/>
<path d="M22.0977 27.9998H23.7993V29.4263H23.8388C24.3355 28.4415 25.2498 27.8418 26.4308 27.8418C28.543 27.8418 29.8989 29.4969 29.8989 32.1453V32.1537C29.8989 34.7923 28.5359 36.4558 26.4562 36.4558C25.2822 36.4558 24.3284 35.8561 23.8402 34.8967H23.8007V39.0492H22.0991L22.0977 27.9998ZM28.1663 32.1523V32.1439C28.1663 30.3787 27.3225 29.2979 25.9905 29.2979C24.6981 29.2979 23.7922 30.4182 23.7922 32.1439V32.1523C23.7922 33.8695 24.7065 34.9884 25.9905 34.9884C27.3296 34.9884 28.1663 33.9005 28.1663 32.1523Z" fill="white"/>
<path d="M31.5781 27.9998H33.2798V29.4263H33.3193C33.8159 28.4415 34.7302 27.8418 35.9112 27.8418C38.0235 27.8418 39.3794 29.4969 39.3794 32.1453V32.1537C39.3794 34.7923 38.0164 36.4558 35.9366 36.4558C34.7627 36.4558 33.8089 35.8561 33.3207 34.8967H33.2812V39.0492H31.5781V27.9998ZM37.6453 32.1523V32.1439C37.6453 30.3787 36.8016 29.2979 35.4696 29.2979C34.1771 29.2979 33.2713 30.4182 33.2713 32.1439V32.1523C33.2713 33.8695 34.1856 34.9884 35.4696 34.9884C36.81 34.9884 37.6453 33.9005 37.6453 32.1523Z" fill="white"/>
<path d="M40.8789 24.918H42.582V36.289H40.8789V24.918Z" fill="white"/>
<path d="M44.2383 32.1763V32.1678C44.2383 29.5759 45.7353 27.8418 48.0592 27.8418C50.3845 27.8418 51.811 29.5138 51.811 32.0028V32.577H45.9399C45.971 34.146 46.8302 35.0603 48.1848 35.0603C49.1936 35.0603 49.8638 34.5397 50.0755 33.9175L50.0995 33.854H51.715L51.6995 33.9414C51.4314 35.2579 50.1545 36.4544 48.1453 36.4544C45.7113 36.4544 44.2383 34.7909 44.2383 32.1763ZM45.9639 31.3706H50.1249C49.9824 29.9371 49.1795 29.2358 48.0677 29.2358C46.9643 29.2373 46.1135 29.9851 45.9639 31.3706Z" fill="white"/>
<path d="M57.2227 24.918H59.0583L61.1776 33.8297H61.2087L63.6116 24.918H65.2821L67.685 33.8297H67.7246L69.8438 24.918H71.6795L68.6064 36.289H66.9118L64.4694 27.7159H64.4299L61.9791 36.289H60.2845L57.2227 24.918Z" fill="white"/>
<path d="M72.168 33.933V33.9175C72.168 32.4754 73.2869 31.5936 75.2495 31.4751L77.5043 31.341V30.7188C77.5043 29.8045 76.9131 29.2528 75.8577 29.2528C74.8728 29.2528 74.2661 29.7184 74.1236 30.3801L74.1081 30.4507H72.501L72.508 30.3632C72.6265 28.9367 73.864 27.8418 75.9042 27.8418C77.929 27.8418 79.2144 28.9141 79.2144 30.5763V36.2893H77.5043V34.9813H77.4732C76.9921 35.8717 76.0312 36.4389 74.9363 36.4389C73.2784 36.4389 72.168 35.4216 72.168 33.933ZM75.3991 35.0745C76.597 35.0745 77.5029 34.2631 77.5029 33.1838V32.5389L75.4767 32.6645C74.4523 32.728 73.8851 33.1767 73.8851 33.878V33.8935C73.8851 34.6187 74.4848 35.0745 75.3991 35.0745Z" fill="white"/>
<path d="M81.0742 24.918H82.7773V36.289H81.0742V24.918Z" fill="white"/>
<path d="M85.1758 24.918H86.8788V36.289H85.1758V24.918Z" fill="white"/>
<path d="M88.375 32.1763V32.1678C88.375 29.5759 89.8735 27.8418 92.1973 27.8418C94.5212 27.8418 95.9477 29.5138 95.9477 32.0028V32.577H90.078C90.1091 34.146 90.9684 35.0603 92.3243 35.0603C93.3332 35.0603 94.002 34.5397 94.215 33.9175L94.239 33.854H95.856L95.8391 33.9414C95.5724 35.2579 94.294 36.4544 92.2848 36.4544C89.8495 36.4544 88.375 34.7909 88.375 32.1763ZM90.102 31.3706H94.263C94.1205 29.9371 93.3162 29.2358 92.2058 29.2358C91.1024 29.2373 90.2502 29.9851 90.102 31.3706Z" fill="white"/>
<path d="M98.1088 34.1063V29.3542H96.918V27.9996H98.1088V25.8408H99.85V27.9996H101.402V29.3542H99.85V34.0047C99.85 34.8471 100.228 35.0982 100.943 35.0982C101.126 35.0982 101.275 35.0827 101.401 35.0686V36.385C101.203 36.4147 100.881 36.4556 100.534 36.4556C98.8976 36.4542 98.1088 35.7614 98.1088 34.1063Z" fill="white"/>
<defs>
<filter id="filter0_d_568_1907" x="106.41" y="11.7248" width="39.25" height="20.1074" filterUnits="userSpaceOnUse" color-interpolation-filters="sRGB">
<feFlood flood-opacity="0" result="BackgroundImageFix"/>
<feColorMatrix in="SourceAlpha" type="matrix" values="0 0 0 0 0 0 0 0 0 0 0 0 0 0 0 0 0 0 127 0" result="hardAlpha"/>
<feOffset dy="-0.2"/>
<feGaussianBlur stdDeviation="1.5"/>
<feComposite in2="hardAlpha" operator="out"/>
<feColorMatrix type="matrix" values="0 0 0 0 0 0 0 0 0 0 0 0 0 0 0 0 0 0 0.12 0"/>
<feBlend mode="normal" in2="BackgroundImageFix" result="effect1_dropShadow_568_1907"/>
<feBlend mode="normal" in="SourceGraphic" in2="effect1_dropShadow_568_1907" result="shape"/>
</filter>
<filter id="filter1_d_568_1907" x="106.41" y="14.7463" width="39.25" height="20.1074" filterUnits="userSpaceOnUse" color-interpolation-filters="sRGB">
<feFlood flood-opacity="0" result="BackgroundImageFix"/>
<feColorMatrix in="SourceAlpha" type="matrix" values="0 0 0 0 0 0 0 0 0 0 0 0 0 0 0 0 0 0 127 0" result="hardAlpha"/>
<feOffset dy="-0.2"/>
<feGaussianBlur stdDeviation="1.5"/>
<feComposite in2="hardAlpha" operator="out"/>
<feColorMatrix type="matrix" values="0 0 0 0 0 0 0 0 0 0 0 0 0 0 0 0 0 0 0.12 0"/>
<feBlend mode="normal" in2="BackgroundImageFix" result="effect1_dropShadow_568_1907"/>
<feBlend mode="normal" in="SourceGraphic" in2="effect1_dropShadow_568_1907" result="shape"/>
</filter>
<filter id="filter2_d_568_1907" x="106.41" y="17.7687" width="39.25" height="20.1074" filterUnits="userSpaceOnUse" color-interpolation-filters="sRGB">
<feFlood flood-opacity="0" result="BackgroundImageFix"/>
<feColorMatrix in="SourceAlpha" type="matrix" values="0 0 0 0 0 0 0 0 0 0 0 0 0 0 0 0 0 0 127 0" result="hardAlpha"/>
<feOffset dy="-0.2"/>
<feGaussianBlur stdDeviation="1.5"/>
<feComposite in2="hardAlpha" operator="out"/>
<feColorMatrix type="matrix" values="0 0 0 0 0 0 0 0 0 0 0 0 0 0 0 0 0 0 0.12 0"/>
<feBlend mode="normal" in2="BackgroundImageFix" result="effect1_dropShadow_568_1907"/>
<feBlend mode="normal" in="SourceGraphic" in2="effect1_dropShadow_568_1907" result="shape"/>
</filter>
<filter id="filter3_d_568_1907" x="104.398" y="20.7941" width="43.2812" height="20.1055" filterUnits="userSpaceOnUse" color-interpolation-filters="sRGB">
<feFlood flood-opacity="0" result="BackgroundImageFix"/>
<feColorMatrix in="SourceAlpha" type="matrix" values="0 0 0 0 0 0 0 0 0 0 0 0 0 0 0 0 0 0 127 0" result="hardAlpha"/>
<feOffset dy="-0.2"/>
<feGaussianBlur stdDeviation="1.5"/>
<feComposite in2="hardAlpha" operator="out"/>
<feColorMatrix type="matrix" values="0 0 0 0 0 0 0 0 0 0 0 0 0 0 0 0 0 0 0.12 0"/>
<feBlend mode="normal" in2="BackgroundImageFix" result="effect1_dropShadow_568_1907"/>
<feBlend mode="normal" in="SourceGraphic" in2="effect1_dropShadow_568_1907" result="shape"/>
</filter>
</defs>
</svg>
