<svg width="155" height="48" viewBox="0 0 155 48" fill="none" xmlns="http://www.w3.org/2000/svg">
<path d="M141.395 0.00141098H13.4508C12.933 0.00141098 12.4222 0.00141098 11.9072 0.00423293C11.4741 0.00705488 11.0465 0.0155207 10.6105 0.0225756C9.67083 0.0451512 8.72124 0.103001 7.78294 0.270907C6.839 0.437403 5.96137 0.719598 5.10209 1.15559C4.25692 1.58876 3.48511 2.15033 2.81772 2.81913C2.14327 3.48652 1.58312 4.26115 1.15559 5.10632C0.716776 5.9642 0.438814 6.84606 0.273729 7.79141C0.104412 8.72548 0.0451512 9.66942 0.0211646 10.6148C0.00846586 11.0479 0.00705488 11.4811 0 11.9143C0 12.4251 0 12.9372 0 13.4551V34.5463C0 35.067 0 35.5764 0 36.0899C0.00705488 36.5273 0.00846586 36.9521 0.0211646 37.3909C0.0451512 38.3362 0.104412 39.2816 0.273729 40.2156C0.438814 41.161 0.716776 42.0471 1.15559 42.9021C1.58312 43.7431 2.14327 44.5163 2.81772 45.1795C3.48511 45.8525 4.25692 46.4141 5.10068 46.8416C5.95996 47.2818 6.83759 47.5612 7.78294 47.7319C8.71983 47.8998 9.67083 47.9548 10.6105 47.9817C11.0465 47.9915 11.4755 47.9972 11.9072 47.9972C12.4236 48 12.9344 48 13.4522 48H141.397C141.903 48 142.418 48 142.926 47.9972C143.357 47.9972 143.797 47.9915 144.227 47.9817C145.173 47.9563 146.121 47.8998 147.049 47.7319C147.994 47.5612 148.874 47.2832 149.741 46.8416C150.584 46.4126 151.355 45.8525 152.023 45.1795C152.694 44.5163 153.255 43.7431 153.689 42.9021C154.122 42.0471 154.403 41.161 154.563 40.2156C154.736 39.2816 154.791 38.3362 154.825 37.3909C154.831 36.9521 154.831 36.5288 154.831 36.0899C154.842 35.5778 154.842 35.0684 154.842 34.5463V13.4537C154.842 12.9372 154.842 12.4251 154.831 11.9129C154.831 11.4797 154.831 11.0465 154.825 10.6134C154.793 9.66801 154.738 8.72265 154.563 7.78859C154.403 6.84323 154.122 5.96137 153.689 5.1035C153.253 4.25833 152.694 3.48511 152.023 2.81631C151.355 2.14751 150.585 1.58594 149.741 1.15277C148.874 0.715365 147.994 0.43317 147.049 0.268085C146.121 0.100179 145.173 0.0423293 144.227 0.0183427C143.797 0.0112878 143.357 0.00282195 142.926 0C142.418 0.00141098 141.903 0.00141098 141.395 0.00141098Z" fill="#A6A6A6"/>
<path d="M141.396 0.918945C141.901 0.918945 142.415 0.918945 142.92 0.921767C143.267 0.924589 143.623 0.930233 143.973 0.935877L144.204 0.94011C144.95 0.958453 145.928 1.00219 146.891 1.17574C147.764 1.32813 148.561 1.59057 149.322 1.97294C150.082 2.36378 150.772 2.86609 151.375 3.46999C151.971 4.0626 152.475 4.75398 152.869 5.51873C153.251 6.27924 153.509 7.07221 153.659 7.95831C153.824 8.84722 153.875 9.77564 153.906 10.6265C153.912 11.0554 153.912 11.4857 153.912 11.933C153.923 12.4382 153.923 12.9433 153.923 13.4541V34.5453C153.923 35.0589 153.923 35.5626 153.912 36.0889C153.912 36.5235 153.912 36.944 153.906 37.3574C153.875 38.228 153.824 39.1564 153.656 40.0608C153.508 40.9385 153.25 41.7314 152.873 42.4778C152.472 43.2525 151.969 43.941 151.369 44.5322C150.772 45.1347 150.085 45.6356 149.324 46.0222C148.575 46.4032 147.777 46.6656 146.885 46.8279C145.961 46.9958 145.01 47.0409 144.207 47.0635C143.784 47.0734 143.35 47.079 142.921 47.079C142.416 47.0819 141.903 47.0819 141.398 47.0819H13.4517C12.9367 47.0819 12.4273 47.0819 11.9067 47.079C11.4819 47.079 11.0601 47.0734 10.6354 47.0649C9.82828 47.0423 8.8787 46.9972 7.94604 46.8293C7.05289 46.6684 6.25851 46.4046 5.51634 46.0236C4.75582 45.6384 4.06727 45.1361 3.46055 44.5238C2.86512 43.9382 2.36422 43.2525 1.97197 42.4821C1.59383 41.7441 1.3328 40.9498 1.17618 40.0495C1.00122 39.0887 0.957476 38.1109 0.937722 37.363C0.929257 37.0696 0.925024 36.7831 0.922202 36.4939L0.917969 36.0889V34.5453V13.4541V11.9288L0.923613 11.5069C0.926435 11.2191 0.930668 10.9312 0.939133 10.6392C0.957476 9.89416 1.00263 8.91636 1.179 7.94843C1.33421 7.05951 1.59383 6.26655 1.97479 5.52014C2.36281 4.75398 2.86371 4.06401 3.4676 3.46717C4.06868 2.86468 4.76006 2.36237 5.51775 1.97436C6.27404 1.58916 7.067 1.32813 7.94604 1.17433C8.91115 1.00078 9.89037 0.957042 10.6255 0.938699L10.9049 0.934466C11.2421 0.928822 11.5765 0.923178 11.9123 0.921767C12.4259 0.918945 12.9367 0.918945 13.4517 0.918945H141.396Z" fill="black"/>
<mask id="mask0_568_1152" style="mask-type:luminance" maskUnits="userSpaceOnUse" x="107" y="10" width="38" height="28">
<path d="M144.176 32.5294V32.9033C144.176 33.0825 144.176 33.2617 144.174 33.4409C144.173 33.5919 144.171 33.7428 144.167 33.8938C144.159 34.2226 144.139 34.5541 144.081 34.8787C144.022 35.2088 143.925 35.5164 143.772 35.8155C143.623 36.1104 143.426 36.3799 143.192 36.6128C142.958 36.847 142.689 37.0417 142.395 37.1927C142.096 37.345 141.788 37.4424 141.458 37.5017C141.134 37.5595 140.802 37.5793 140.473 37.5877C140.322 37.592 140.171 37.5934 140.02 37.5948C139.841 37.5962 139.662 37.5962 139.483 37.5962L137.424 37.5948L139.34 37.5962H112.738L114.654 37.5948L112.595 37.5962C112.416 37.5962 112.237 37.5962 112.058 37.5948C111.907 37.5934 111.756 37.592 111.605 37.5877C111.276 37.5793 110.944 37.5595 110.62 37.5017C110.29 37.4424 109.984 37.345 109.683 37.1927C109.388 37.0431 109.119 36.847 108.886 36.6128C108.652 36.3785 108.457 36.109 108.306 35.8155C108.153 35.5164 108.056 35.2088 107.997 34.8787C107.939 34.5541 107.919 34.2226 107.911 33.8938C107.907 33.7428 107.905 33.5919 107.904 33.4409C107.902 33.2617 107.902 33.0825 107.902 32.9033V32.6098V15.379V17.1427V15.0841C107.902 14.9049 107.902 14.7257 107.904 14.5465C107.905 14.3955 107.907 14.2445 107.911 14.0936C107.919 13.7648 107.939 13.4332 107.997 13.1087C108.056 12.7785 108.153 12.4709 108.306 12.1718C108.455 11.8769 108.652 11.6074 108.886 11.3746C109.12 11.1418 109.39 10.9457 109.684 10.7961C109.984 10.6437 110.291 10.5464 110.621 10.4871C110.946 10.4293 111.277 10.4095 111.606 10.401C111.757 10.3968 111.908 10.3954 112.059 10.394C112.238 10.3926 112.417 10.3926 112.597 10.3926H114.655H139.342H139.483C139.662 10.3926 139.841 10.3926 140.02 10.394C140.171 10.3954 140.322 10.3968 140.473 10.401C140.802 10.4095 141.134 10.4293 141.458 10.4871C141.788 10.5464 142.095 10.6437 142.395 10.7961C142.69 10.9457 142.959 11.1418 143.192 11.376C143.426 11.6103 143.621 11.8797 143.772 12.1732C143.925 12.4724 144.022 12.78 144.081 13.1101C144.139 13.4346 144.159 13.7662 144.167 14.095C144.171 14.246 144.173 14.3969 144.174 14.5479C144.176 14.7271 144.176 14.9063 144.176 15.0855V15.4594V32.5294Z" fill="white"/>
</mask>
<g mask="url(#mask0_568_1152)">
<path d="M143.024 11.5254H109.02V35.203H143.024V11.5254Z" fill="#DEDBCE"/>
<path d="M142.664 11.9033H109.414V26.0089H142.664V11.9033Z" fill="#40A5D9"/>
<g filter="url(#filter0_d_568_1152)">
<path fill-rule="evenodd" clip-rule="evenodd" d="M142.66 17.9034C142.66 17.7891 142.66 17.6762 142.66 17.5619C142.66 17.466 142.658 17.37 142.656 17.2741C142.65 17.0653 142.637 16.855 142.601 16.649C142.562 16.4402 142.502 16.2455 142.404 16.055C142.31 15.8687 142.186 15.6966 142.036 15.5485C141.888 15.4003 141.717 15.2761 141.53 15.1802C141.339 15.0828 141.144 15.0222 140.936 14.9841C140.73 14.9474 140.519 14.9347 140.311 14.929C140.215 14.9262 140.119 14.9248 140.023 14.9248C139.908 14.9248 139.796 14.9248 139.681 14.9248H139.588H113.694H112.389C112.274 14.9248 112.162 14.9248 112.047 14.9248C111.951 14.9248 111.855 14.9262 111.759 14.929C111.551 14.9347 111.34 14.9474 111.134 14.9841C110.926 15.0222 110.731 15.0828 110.54 15.1802C110.354 15.2747 110.182 15.3989 110.034 15.5485C109.886 15.6966 109.761 15.8673 109.666 16.055C109.568 16.2455 109.508 16.4402 109.469 16.649C109.433 16.855 109.42 17.0653 109.414 17.2741C109.412 17.37 109.41 17.466 109.41 17.5619C109.41 17.6762 109.41 17.7891 109.41 17.9034V19.2085V18.1827V29.0317H142.66V18.2505V17.9034Z" fill="#FFB003"/>
</g>
<g filter="url(#filter1_d_568_1152)">
<path fill-rule="evenodd" clip-rule="evenodd" d="M142.66 20.9249C142.66 20.8106 142.66 20.6977 142.66 20.5834C142.66 20.4875 142.658 20.3915 142.656 20.2956C142.65 20.0867 142.637 19.8765 142.601 19.6705C142.562 19.4617 142.502 19.267 142.404 19.0765C142.31 18.8902 142.186 18.7181 142.036 18.5699C141.888 18.4218 141.717 18.2976 141.53 18.2017C141.339 18.1043 141.144 18.0436 140.936 18.0055C140.73 17.9689 140.519 17.9562 140.311 17.9505C140.215 17.9477 140.119 17.9463 140.023 17.9463C139.908 17.9463 139.796 17.9463 139.681 17.9463H139.587H113.694H112.389C112.274 17.9463 112.162 17.9463 112.047 17.9463C111.951 17.9463 111.855 17.9477 111.759 17.9505C111.551 17.9562 111.34 17.9689 111.134 18.0055C110.926 18.0436 110.731 18.1043 110.54 18.2017C110.354 18.2962 110.182 18.4204 110.034 18.5699C109.886 18.7181 109.761 18.8888 109.666 19.0765C109.568 19.267 109.508 19.4617 109.469 19.6705C109.433 19.8765 109.42 20.0867 109.414 20.2956C109.412 20.3915 109.41 20.4875 109.41 20.5834C109.41 20.6977 109.41 20.8106 109.41 20.9249V22.23V21.2042V32.0532H142.66V21.272V20.9249Z" fill="#40C740"/>
</g>
<g filter="url(#filter2_d_568_1152)">
<path fill-rule="evenodd" clip-rule="evenodd" d="M142.66 23.9473C142.66 23.833 142.66 23.7202 142.66 23.6059C142.66 23.5099 142.658 23.414 142.656 23.318C142.65 23.1092 142.637 22.899 142.601 22.693C142.562 22.4841 142.502 22.2894 142.404 22.0989C142.31 21.9127 142.186 21.7406 142.036 21.5924C141.888 21.4442 141.717 21.3201 141.53 21.2241C141.339 21.1268 141.144 21.0661 140.936 21.028C140.73 20.9913 140.519 20.9786 140.311 20.973C140.215 20.9702 140.119 20.9688 140.023 20.9688C139.908 20.9688 139.796 20.9688 139.681 20.9688H139.587H113.694H112.389C112.274 20.9688 112.162 20.9688 112.047 20.9688C111.951 20.9688 111.855 20.9702 111.759 20.973C111.551 20.9786 111.34 20.9913 111.134 21.028C110.926 21.0661 110.731 21.1268 110.54 21.2241C110.354 21.3187 110.182 21.4428 110.034 21.5924C109.886 21.7406 109.761 21.9113 109.666 22.0989C109.568 22.2894 109.508 22.4841 109.469 22.693C109.433 22.899 109.42 23.1092 109.414 23.318C109.412 23.414 109.41 23.5099 109.41 23.6059C109.41 23.7202 109.41 23.833 109.41 23.9473V25.2525V24.2267V35.0757H142.66V24.2944V23.9473Z" fill="#F26D5F"/>
</g>
<path fill-rule="evenodd" clip-rule="evenodd" d="M107.398 9.88867V25.5054H109.413V16.1859V14.8807C109.413 14.7664 109.413 14.6535 109.413 14.5392C109.413 14.4433 109.415 14.3474 109.418 14.2514C109.423 14.0426 109.436 13.8323 109.473 13.6263C109.511 13.4175 109.571 13.2228 109.669 13.0323C109.763 12.8461 109.887 12.6739 110.037 12.5258C110.185 12.3776 110.356 12.2535 110.544 12.1575C110.733 12.063 110.927 12.0009 111.136 11.9642C111.342 11.9275 111.552 11.9148 111.761 11.9092C111.857 11.9064 111.953 11.905 112.049 11.905C112.163 11.905 112.276 11.905 112.39 11.905H113.696H139.586H139.686C139.8 11.905 139.913 11.905 140.027 11.905C140.123 11.905 140.219 11.9064 140.315 11.9092C140.524 11.9148 140.734 11.9275 140.94 11.9642C141.149 12.0023 141.344 12.063 141.534 12.1603C141.72 12.2549 141.893 12.379 142.041 12.5286C142.189 12.6768 142.313 12.8475 142.409 13.0351C142.506 13.2256 142.567 13.4203 142.605 13.6292C142.642 13.8352 142.654 14.0454 142.66 14.2542C142.663 14.3502 142.664 14.4461 142.664 14.5421C142.664 14.6564 142.664 14.7692 142.664 14.8835V16.1887V25.5082H144.679V9.88867H107.398Z" fill="#D9D6CC"/>
<g filter="url(#filter3_d_568_1152)">
<path fill-rule="evenodd" clip-rule="evenodd" d="M135.312 23.9941C135.096 23.9941 134.879 23.9941 134.663 23.9956C134.481 23.997 134.299 23.9984 134.117 24.004C133.72 24.0153 133.319 24.0379 132.927 24.1084C132.529 24.1804 132.158 24.2975 131.797 24.4809C131.75 24.5049 130.756 24.9564 129.861 26.3477C129.182 27.4045 127.862 28.5248 126.012 28.5248C124.164 28.5248 122.843 27.4045 122.163 26.3477C121.222 24.8816 120.148 24.4414 120.226 24.4809C119.864 24.2961 119.493 24.179 119.095 24.1084C118.703 24.0379 118.302 24.0139 117.906 24.004C117.724 23.9998 117.542 23.997 117.36 23.9956C117.144 23.9941 116.927 23.9941 116.711 23.9941H107.398V38.0997H144.678V23.9941H135.312Z" fill="#DEDBCE"/>
</g>
</g>
<path d="M14.969 24.9189H16.8767L21.0052 36.29H19.154L18.1141 33.2155H13.7316L12.6832 36.29H10.832L14.969 24.9189ZM14.2043 31.7975H17.6315L15.9369 26.8012H15.9059L14.2043 31.7975Z" fill="white"/>
<path d="M22.0977 27.9988H23.7993V29.4253H23.8388C24.3355 28.4405 25.2498 27.8408 26.4308 27.8408C28.543 27.8408 29.8989 29.4959 29.8989 32.1443V32.1514C29.8989 34.7913 28.5359 36.4548 26.4562 36.4548C25.2822 36.4548 24.3284 35.8552 23.8402 34.8957H23.8007V39.0468H22.0991L22.0977 27.9988ZM28.1649 32.1514V32.1443C28.1649 30.3792 27.3211 29.2984 25.9891 29.2984C24.6967 29.2984 23.7908 30.4173 23.7908 32.1443V32.1514C23.7908 33.8699 24.7051 34.9888 25.9891 34.9888C27.3296 34.9874 28.1649 33.901 28.1649 32.1514Z" fill="white"/>
<path d="M31.5781 27.9988H33.2798V29.4253H33.3193C33.8159 28.4405 34.7302 27.8408 35.9112 27.8408C38.0235 27.8408 39.3794 29.4959 39.3794 32.1443V32.1514C39.3794 34.7913 38.0164 36.4548 35.9366 36.4548C34.7627 36.4548 33.8089 35.8552 33.3207 34.8957H33.2812V39.0468H31.5795L31.5781 27.9988ZM37.6467 32.1514V32.1443C37.6467 30.3792 36.803 29.2984 35.471 29.2984C34.1786 29.2984 33.2727 30.4173 33.2727 32.1443V32.1514C33.2727 33.8699 34.187 34.9888 35.471 34.9888C36.81 34.9874 37.6467 33.901 37.6467 32.1514Z" fill="white"/>
<path d="M40.8789 24.9189H42.582V36.29H40.8789V24.9189Z" fill="white"/>
<path d="M44.2383 32.1753V32.1669C44.2383 29.5735 45.7353 27.8408 48.0592 27.8408C50.3831 27.8408 51.811 29.5128 51.811 32.0018V32.5761H45.9399C45.971 34.1436 46.8302 35.0594 48.1848 35.0594C49.1936 35.0594 49.8638 34.5387 50.0755 33.9151L50.0995 33.853H51.715L51.6995 33.9405C51.4314 35.2569 50.1545 36.4534 48.1453 36.4534C45.7128 36.4534 44.2383 34.7913 44.2383 32.1753ZM45.9653 31.3711H50.1263C49.9838 29.9361 49.1809 29.2349 48.0691 29.2349C46.9657 29.2349 46.1149 29.9841 45.9653 31.3711Z" fill="white"/>
<path d="M57.2227 24.9189H59.0583L61.1776 33.8307H61.2087L63.6116 24.9189H65.2821L67.685 33.8307H67.7246L69.8438 24.9189H71.6795L68.6064 36.29H66.9118L64.4694 27.7169H64.4299L61.9791 36.29H60.2845L57.2227 24.9189Z" fill="white"/>
<path d="M72.168 33.932V33.9151C72.168 32.4745 73.2869 31.5912 75.2495 31.4741L77.5029 31.3386V30.7178C77.5029 29.8035 76.9117 29.2518 75.8563 29.2518C74.8714 29.2518 74.2647 29.716 74.1222 30.3792L74.1067 30.4497H72.4995L72.5066 30.3622C72.6251 28.9357 73.8611 27.8408 75.9028 27.8408C77.9276 27.8408 79.213 28.9132 79.213 30.5753V36.2883H77.5029V34.9789H77.4718C76.9907 35.8707 76.0298 36.4365 74.9349 36.4365C73.2798 36.4379 72.168 35.422 72.168 33.932ZM75.3991 35.0749C76.597 35.0749 77.5029 34.2636 77.5029 33.1842V32.538L75.4767 32.6635C74.4523 32.727 73.8851 33.1757 73.8851 33.877V33.8925C73.8865 34.6177 74.4862 35.0749 75.3991 35.0749Z" fill="white"/>
<path d="M81.0742 24.9189H82.7773V36.29H81.0742V24.9189Z" fill="white"/>
<path d="M85.1758 24.9189H86.8788V36.29H85.1758V24.9189Z" fill="white"/>
<path d="M88.375 32.1753V32.1669C88.375 29.5735 89.8735 27.8408 92.1973 27.8408C94.5212 27.8408 95.9477 29.5128 95.9477 32.0018V32.5761H90.078C90.1077 34.1436 90.9684 35.0594 92.3229 35.0594C93.3318 35.0594 94.002 34.5387 94.215 33.9151L94.239 33.853H95.8546L95.8391 33.9405C95.5724 35.2569 94.294 36.4534 92.2848 36.4534C89.8495 36.4534 88.375 34.7913 88.375 32.1753ZM90.1006 31.3711H94.2602C94.1177 29.9361 93.3148 29.2349 92.2044 29.2349C91.101 29.2349 90.2502 29.9841 90.1006 31.3711Z" fill="white"/>
<path d="M98.1049 34.1053V29.3532H96.9141V27.9986H98.1049V25.8398H99.8461V27.9986H101.398V29.3532H99.8461V34.0023C99.8461 34.8461 100.224 35.0973 100.941 35.0973C101.122 35.0973 101.271 35.0817 101.397 35.0662V36.3827C101.199 36.4137 100.877 36.4546 100.53 36.4546C98.8937 36.4532 98.1049 35.7604 98.1049 34.1053Z" fill="white"/>
<path d="M97.8656 23.123H100.525V22.5275H99.7351C99.2399 22.5275 98.8448 22.1974 98.8448 21.7966C98.8448 21.3607 99.1933 21.2181 99.57 21.2181C99.7591 21.2181 99.9171 21.2365 100.136 21.3V20.7398C99.9242 20.6749 99.7111 20.6453 99.4459 20.6453C98.715 20.6453 98.1844 21.0813 98.1844 21.7063C98.1844 21.9773 98.2903 22.2609 98.5555 22.4965V22.5261H97.8656V23.123ZM98.8208 19.992H99.9115V11.1113H98.8208V19.992ZM92.7889 14.3552C93.1543 14.3552 93.4492 14.0659 93.4492 13.7132C93.4492 13.3477 93.1543 13.0641 92.7889 13.0641C92.4291 13.0641 92.1342 13.3477 92.1342 13.7132C92.1342 14.0659 92.4291 14.3552 92.7889 14.3552ZM87.0222 19.992H94.5752C96.4264 19.992 97.3167 19.0255 97.3167 17.7274C97.3167 16.4533 96.4264 15.4755 94.5752 15.4755H89.569V14.8913H88.4783V19.0833H87.0222L86.8458 19.1426V19.9328L87.0222 19.992ZM94.5766 16.3827C95.7435 16.3827 96.2274 17.0191 96.2274 17.7274C96.2274 18.4357 95.7435 19.0833 94.5766 19.0833H89.5704V16.3827H94.5766ZM86.7922 19.992H87.0222L87.1986 19.9328V19.1426L87.0222 19.0833H86.9686C85.9075 19.0833 85.3827 18.5824 85.3827 17.3323V11.1113H84.292V17.3323C84.2934 19.1017 85.1414 19.992 86.7922 19.992ZM81.1794 19.0833C79.5045 19.0833 78.6678 18.1987 78.6678 17.0431C78.6678 16.0991 79.2985 15.333 80.1663 15.333C81.0383 15.333 81.652 16.0822 81.652 17.4325V19.0833H81.1794ZM80.1592 13.3054C80.5247 13.3054 80.8196 13.0161 80.8196 12.6634C80.8196 12.298 80.5247 12.0144 80.1592 12.0144C79.7994 12.0144 79.5045 12.298 79.5045 12.6634C79.5045 13.0161 79.7994 13.3054 80.1592 13.3054ZM76.4738 19.992H82.7413V17.4918C82.7413 15.522 81.621 14.4257 80.1578 14.4257C78.696 14.4257 77.5757 15.563 77.5757 16.9782C77.5757 18.0279 78.0823 18.6347 78.6721 19.0424V19.0833H76.4738L76.2974 19.1426V19.9328L76.4738 19.992ZM72.3057 19.1948C71.469 19.1948 70.796 18.4456 70.796 17.3309C70.796 16.2346 71.4563 15.4966 72.8602 15.4966H73.7802V17.3888C73.7788 18.6064 73.2313 19.1948 72.3057 19.1948ZM73.4133 13.4705C73.7788 13.4705 74.0737 13.1812 74.0737 12.8271C74.0737 12.4616 73.7788 12.178 73.4133 12.178C73.0535 12.178 72.7587 12.4616 72.7587 12.8271C72.7601 13.1812 73.055 13.4705 73.4133 13.4705ZM71.6976 13.4705C72.063 13.4705 72.3579 13.1812 72.3579 12.8271C72.3579 12.4616 72.063 12.178 71.6976 12.178C71.3378 12.178 71.0429 12.4616 71.0429 12.8271C71.0443 13.1812 71.3378 13.4705 71.6976 13.4705ZM72.0574 20.0978C73.0719 20.0978 73.7322 19.6266 74.0328 18.7066H74.0384C74.3926 19.556 75.1291 19.992 76.1549 19.992H76.4738L76.6501 19.9328V19.1539L76.4738 19.0833H76.4272C75.448 19.0833 74.8709 18.5288 74.8709 17.3916V14.5908H72.8602C70.7678 14.5908 69.7053 15.6702 69.7053 17.3323C69.7053 19.0128 70.7494 20.0978 72.0574 20.0978ZM62.7478 23.123H65.4075V22.5275H64.6173C64.1221 22.5275 63.727 22.1974 63.727 21.7966C63.727 21.3607 64.0755 21.2181 64.4522 21.2181C64.6413 21.2181 64.7993 21.2365 65.018 21.3V20.7398C64.8064 20.6749 64.5933 20.6453 64.3281 20.6453C63.5972 20.6453 63.0667 21.0813 63.0667 21.7063C63.0667 21.9773 63.1725 22.2609 63.4377 22.4965V22.5261H62.7478V23.123ZM63.703 19.992H64.7937V11.1113H63.703V19.992ZM59.4461 19.992H61.9111V11.1113H60.8147V19.0833H59.4475L59.2711 19.1426V19.9328L59.4461 19.992ZM50.159 19.992H55.9497V19.0833L55.0001 17.4918C54.5345 16.7073 54.3694 16.2473 54.3694 15.7577C54.3694 14.9323 55.0001 14.5019 56.0739 14.5019C56.2926 14.5019 56.5155 14.5202 56.7398 14.5485V17.3563C56.7398 19.1017 57.6118 19.992 59.2217 19.992H59.4461L59.6225 19.9328V19.1426L59.4475 19.0833H59.3925C58.3723 19.0833 57.8305 18.5824 57.8305 17.3563V13.7005C57.1942 13.6299 56.5748 13.5946 56.0739 13.5946C54.2043 13.5946 53.2787 14.3848 53.2787 15.7111C53.2787 16.3714 53.4494 17.0022 53.9983 17.9221L54.653 19.0184V19.0833H50.159C48.1301 19.0833 47.4345 18.1041 47.4345 16.2064H46.3438C46.3381 18.6586 47.4881 19.992 50.159 19.992Z" fill="white"/>
<defs>
<filter id="filter0_d_568_1152" x="106.41" y="11.7248" width="39.25" height="20.1074" filterUnits="userSpaceOnUse" color-interpolation-filters="sRGB">
<feFlood flood-opacity="0" result="BackgroundImageFix"/>
<feColorMatrix in="SourceAlpha" type="matrix" values="0 0 0 0 0 0 0 0 0 0 0 0 0 0 0 0 0 0 127 0" result="hardAlpha"/>
<feOffset dy="-0.2"/>
<feGaussianBlur stdDeviation="1.5"/>
<feComposite in2="hardAlpha" operator="out"/>
<feColorMatrix type="matrix" values="0 0 0 0 0 0 0 0 0 0 0 0 0 0 0 0 0 0 0.12 0"/>
<feBlend mode="normal" in2="BackgroundImageFix" result="effect1_dropShadow_568_1152"/>
<feBlend mode="normal" in="SourceGraphic" in2="effect1_dropShadow_568_1152" result="shape"/>
</filter>
<filter id="filter1_d_568_1152" x="106.41" y="14.7463" width="39.25" height="20.1074" filterUnits="userSpaceOnUse" color-interpolation-filters="sRGB">
<feFlood flood-opacity="0" result="BackgroundImageFix"/>
<feColorMatrix in="SourceAlpha" type="matrix" values="0 0 0 0 0 0 0 0 0 0 0 0 0 0 0 0 0 0 127 0" result="hardAlpha"/>
<feOffset dy="-0.2"/>
<feGaussianBlur stdDeviation="1.5"/>
<feComposite in2="hardAlpha" operator="out"/>
<feColorMatrix type="matrix" values="0 0 0 0 0 0 0 0 0 0 0 0 0 0 0 0 0 0 0.12 0"/>
<feBlend mode="normal" in2="BackgroundImageFix" result="effect1_dropShadow_568_1152"/>
<feBlend mode="normal" in="SourceGraphic" in2="effect1_dropShadow_568_1152" result="shape"/>
</filter>
<filter id="filter2_d_568_1152" x="106.41" y="17.7687" width="39.25" height="20.1074" filterUnits="userSpaceOnUse" color-interpolation-filters="sRGB">
<feFlood flood-opacity="0" result="BackgroundImageFix"/>
<feColorMatrix in="SourceAlpha" type="matrix" values="0 0 0 0 0 0 0 0 0 0 0 0 0 0 0 0 0 0 127 0" result="hardAlpha"/>
<feOffset dy="-0.2"/>
<feGaussianBlur stdDeviation="1.5"/>
<feComposite in2="hardAlpha" operator="out"/>
<feColorMatrix type="matrix" values="0 0 0 0 0 0 0 0 0 0 0 0 0 0 0 0 0 0 0.12 0"/>
<feBlend mode="normal" in2="BackgroundImageFix" result="effect1_dropShadow_568_1152"/>
<feBlend mode="normal" in="SourceGraphic" in2="effect1_dropShadow_568_1152" result="shape"/>
</filter>
<filter id="filter3_d_568_1152" x="104.398" y="20.7941" width="43.2812" height="20.1055" filterUnits="userSpaceOnUse" color-interpolation-filters="sRGB">
<feFlood flood-opacity="0" result="BackgroundImageFix"/>
<feColorMatrix in="SourceAlpha" type="matrix" values="0 0 0 0 0 0 0 0 0 0 0 0 0 0 0 0 0 0 127 0" result="hardAlpha"/>
<feOffset dy="-0.2"/>
<feGaussianBlur stdDeviation="1.5"/>
<feComposite in2="hardAlpha" operator="out"/>
<feColorMatrix type="matrix" values="0 0 0 0 0 0 0 0 0 0 0 0 0 0 0 0 0 0 0.12 0"/>
<feBlend mode="normal" in2="BackgroundImageFix" result="effect1_dropShadow_568_1152"/>
<feBlend mode="normal" in="SourceGraphic" in2="effect1_dropShadow_568_1152" result="shape"/>
</filter>
</defs>
</svg>
