<svg width="191" height="48" viewBox="0 0 191 48" fill="none" xmlns="http://www.w3.org/2000/svg">
<path d="M177.423 0.00141098H13.4508C12.933 0.00141098 12.4222 0.00141098 11.9072 0.00423293C11.4741 0.00705488 11.0465 0.0155207 10.6105 0.0225756C9.67083 0.0451512 8.72124 0.103001 7.78294 0.270907C6.839 0.437403 5.96137 0.719598 5.10209 1.15559C4.25692 1.58876 3.48511 2.15033 2.81772 2.81913C2.14327 3.48652 1.58312 4.26115 1.15559 5.10632C0.716776 5.9642 0.438814 6.84606 0.273729 7.79141C0.104412 8.72548 0.0451512 9.66942 0.0211646 10.6148C0.00846586 11.0479 0.00705488 11.4811 0 11.9143C0 12.4251 0 12.9372 0 13.4551V34.5463C0 35.067 0 35.5764 0 36.0899C0.00705488 36.5273 0.00846586 36.9521 0.0211646 37.3909C0.0451512 38.3362 0.104412 39.2816 0.273729 40.2156C0.438814 41.161 0.716776 42.0471 1.15559 42.9021C1.58312 43.7431 2.14327 44.5163 2.81772 45.1795C3.48511 45.8525 4.25692 46.4141 5.10068 46.8416C5.95996 47.2818 6.83759 47.5612 7.78294 47.7319C8.71983 47.8998 9.67083 47.9548 10.6105 47.9817C11.0465 47.9915 11.4755 47.9972 11.9072 47.9972C12.4236 48 12.9344 48 13.4522 48H177.425C177.931 48 178.446 48 178.954 47.9972C179.384 47.9972 179.825 47.9915 180.255 47.9817C181.2 47.9563 182.149 47.8998 183.077 47.7319C184.022 47.5612 184.901 47.2832 185.769 46.8416C186.611 46.4126 187.383 45.8525 188.051 45.1795C188.722 44.5163 189.282 43.7431 189.717 42.9021C190.15 42.0471 190.431 41.161 190.59 40.2156C190.764 39.2816 190.819 38.3362 190.853 37.3909C190.859 36.9521 190.859 36.5288 190.859 36.0899C190.87 35.5778 190.87 35.0684 190.87 34.5463V13.4537C190.87 12.9372 190.87 12.4251 190.859 11.9129C190.859 11.4797 190.859 11.0465 190.853 10.6134C190.82 9.66801 190.765 8.72265 190.59 7.78859C190.431 6.84323 190.15 5.96137 189.717 5.1035C189.281 4.25833 188.722 3.48511 188.051 2.81631C187.383 2.14751 186.613 1.58594 185.769 1.15277C184.901 0.715365 184.022 0.43317 183.077 0.268085C182.149 0.100179 181.2 0.0423293 180.255 0.0183427C179.825 0.0112878 179.384 0.00282195 178.954 0C178.445 0.00141098 177.93 0.00141098 177.423 0.00141098Z" fill="#A6A6A6"/>
<path d="M177.424 0.918945C177.929 0.918945 178.443 0.918945 178.948 0.921767C179.295 0.924589 179.651 0.930233 180 0.935877L180.232 0.94011C180.978 0.958453 181.956 1.00219 182.918 1.17574C183.792 1.32813 184.589 1.59057 185.349 1.97294C186.11 2.36378 186.8 2.86609 187.402 3.46999C187.999 4.0626 188.503 4.75398 188.897 5.51873C189.279 6.27924 189.537 7.07221 189.687 7.95831C189.852 8.84722 189.903 9.77564 189.934 10.6265C189.939 11.0554 189.939 11.4857 189.939 11.933C189.951 12.4382 189.951 12.9433 189.951 13.4541V34.5453C189.951 35.0589 189.951 35.5626 189.939 36.0889C189.939 36.5235 189.939 36.944 189.934 37.3574C189.903 38.228 189.852 39.1564 189.684 40.0608C189.536 40.9385 189.278 41.7314 188.901 42.4778C188.5 43.2525 187.996 43.941 187.397 44.5322C186.8 45.1347 186.113 45.6356 185.352 46.0222C184.603 46.4032 183.804 46.6656 182.913 46.8279C181.989 46.9958 181.038 47.0409 180.235 47.0635C179.811 47.0734 179.378 47.079 178.949 47.079C178.444 47.0819 177.931 47.0819 177.425 47.0819H13.4517C12.9367 47.0819 12.4273 47.0819 11.9067 47.079C11.4819 47.079 11.0601 47.0734 10.6354 47.0649C9.82828 47.0423 8.8787 46.9972 7.94604 46.8293C7.05289 46.6684 6.25851 46.4046 5.51634 46.0236C4.75582 45.6384 4.06727 45.1361 3.46055 44.5238C2.86512 43.9382 2.36422 43.2525 1.97197 42.4821C1.59383 41.7441 1.3328 40.9498 1.17618 40.0495C1.00122 39.0887 0.957476 38.1109 0.937722 37.363C0.929257 37.0696 0.925024 36.7831 0.922202 36.4939L0.917969 36.0889V34.5453V13.4541V11.9288L0.923613 11.5069C0.926435 11.2191 0.930668 10.9312 0.939133 10.6392C0.957476 9.89416 1.00263 8.91636 1.179 7.94843C1.33421 7.05951 1.59383 6.26655 1.97479 5.52014C2.36281 4.75398 2.8637 4.06401 3.4676 3.46717C4.06868 2.86468 4.76006 2.36237 5.51775 1.97436C6.27403 1.58916 7.067 1.32813 7.94604 1.17433C8.91115 1.00078 9.89037 0.957042 10.6255 0.938699L10.9049 0.934466C11.2421 0.928822 11.5765 0.923178 11.9123 0.921767C12.4259 0.918945 12.9367 0.918945 13.4517 0.918945H177.424Z" fill="black"/>
<mask id="mask0_568_1852" style="mask-type:luminance" maskUnits="userSpaceOnUse" x="10" y="10" width="37" height="28">
<path d="M46.9374 32.5304V32.9043C46.9374 33.0835 46.9374 33.2627 46.936 33.4419C46.9346 33.5928 46.9332 33.7438 46.929 33.8948C46.9205 34.2235 46.9008 34.5551 46.8429 34.8796C46.7836 35.2098 46.6863 35.5174 46.5339 35.8165C46.3843 36.1114 46.1882 36.3809 45.954 36.6137C45.7198 36.8479 45.4503 37.0427 45.1568 37.1936C44.8577 37.346 44.5501 37.4434 44.2199 37.5026C43.8954 37.5605 43.5638 37.5802 43.235 37.5887C43.0841 37.5929 42.9331 37.5944 42.7821 37.5958C42.6029 37.5972 42.4237 37.5972 42.2445 37.5972L40.1859 37.5958L42.102 37.5972H15.4995L17.4156 37.5958L15.357 37.5972C15.1778 37.5972 14.9986 37.5972 14.8194 37.5958C14.6684 37.5944 14.5174 37.5929 14.3665 37.5887C14.0377 37.5802 13.7061 37.5605 13.3816 37.5026C13.0514 37.4434 12.7453 37.346 12.4447 37.1936C12.1498 37.0441 11.8803 36.8479 11.6475 36.6137C11.4133 36.3795 11.2186 36.11 11.0676 35.8165C10.9152 35.5174 10.8179 35.2098 10.7586 34.8796C10.7007 34.5551 10.681 34.2235 10.6725 33.8948C10.6683 33.7438 10.6669 33.5928 10.6655 33.4419C10.6641 33.2627 10.6641 33.0835 10.6641 32.9043V32.6108V15.3799V17.1437V15.0851C10.6641 14.9059 10.6641 14.7267 10.6655 14.5475C10.6669 14.3965 10.6683 14.2455 10.6725 14.0945C10.681 13.7658 10.7007 13.4342 10.7586 13.1097C10.8179 12.7795 10.9152 12.4719 11.0676 12.1728C11.2172 11.8779 11.4133 11.6084 11.6475 11.3756C11.8817 11.1428 12.1512 10.9467 12.4461 10.7971C12.7453 10.6447 13.0528 10.5474 13.383 10.4881C13.7075 10.4302 14.0391 10.4105 14.3679 10.402C14.5188 10.3978 14.6698 10.3964 14.8208 10.395C15 10.3936 15.1792 10.3936 15.3584 10.3936H17.417H42.1034H42.2445C42.4237 10.3936 42.6029 10.3936 42.7821 10.395C42.9331 10.3964 43.0841 10.3978 43.235 10.402C43.5638 10.4105 43.8954 10.4302 44.2199 10.4881C44.5501 10.5474 44.8562 10.6447 45.1568 10.7971C45.4517 10.9467 45.7212 11.1428 45.954 11.377C46.1882 11.6112 46.3829 11.8807 46.5339 12.1742C46.6863 12.4733 46.7836 12.7809 46.8429 13.1111C46.9008 13.4356 46.9205 13.7672 46.929 14.096C46.9332 14.2469 46.9346 14.3979 46.936 14.5489C46.9374 14.7281 46.9374 14.9073 46.9374 15.0865V15.4604V32.5304Z" fill="white"/>
</mask>
<g mask="url(#mask0_568_1852)">
<path d="M45.7858 11.5264H11.7812V35.204H45.7858V11.5264Z" fill="#DEDBCE"/>
<path d="M45.4254 11.9043H12.1758V26.0098H45.4254V11.9043Z" fill="#40A5D9"/>
<g filter="url(#filter0_d_568_1852)">
<path fill-rule="evenodd" clip-rule="evenodd" d="M45.4215 17.9044C45.4215 17.7901 45.4215 17.6772 45.4215 17.5629C45.4215 17.467 45.4201 17.371 45.4173 17.2751C45.4116 17.0662 45.399 16.856 45.3623 16.65C45.3242 16.4412 45.2635 16.2465 45.1661 16.056C45.0716 15.8697 44.9474 15.6976 44.7979 15.5494C44.6497 15.4013 44.479 15.2771 44.2913 15.1812C44.1009 15.0838 43.9061 15.0231 43.6973 14.985C43.4913 14.9484 43.2811 14.9357 43.0723 14.93C42.9763 14.9272 42.8804 14.9258 42.7844 14.9258C42.6701 14.9258 42.5572 14.9258 42.443 14.9258H42.3498H16.4556H15.1504C15.0362 14.9258 14.9233 14.9258 14.809 14.9258C14.713 14.9258 14.6171 14.9272 14.5212 14.93C14.3123 14.9357 14.1021 14.9484 13.8961 14.985C13.6873 15.0231 13.4925 15.0838 13.3021 15.1812C13.1158 15.2757 12.9437 15.3999 12.7955 15.5494C12.6474 15.6976 12.5232 15.8683 12.4273 16.056C12.3299 16.2465 12.2692 16.4412 12.2311 16.65C12.1945 16.856 12.1818 17.0662 12.1761 17.2751C12.1733 17.371 12.1719 17.467 12.1719 17.5629C12.1719 17.6772 12.1719 17.7901 12.1719 17.9044V19.2095V18.1837V29.0327H45.4215V18.2515V17.9044Z" fill="#FFB003"/>
</g>
<g filter="url(#filter1_d_568_1852)">
<path fill-rule="evenodd" clip-rule="evenodd" d="M45.4215 20.9258C45.4215 20.8115 45.4215 20.6987 45.4215 20.5844C45.4215 20.4884 45.4201 20.3925 45.4173 20.2965C45.4116 20.0877 45.399 19.8775 45.3623 19.6715C45.3242 19.4627 45.2635 19.2679 45.1661 19.0775C45.0716 18.8912 44.9474 18.7191 44.7979 18.5709C44.6497 18.4228 44.479 18.2986 44.2913 18.2027C44.1009 18.1053 43.9061 18.0446 43.6973 18.0065C43.4913 17.9698 43.2811 17.9571 43.0723 17.9515C42.9763 17.9487 42.8804 17.9473 42.7844 17.9473C42.6701 17.9473 42.5572 17.9473 42.443 17.9473H42.3484H16.4556H15.1504C15.0362 17.9473 14.9233 17.9473 14.809 17.9473C14.713 17.9473 14.6171 17.9487 14.5212 17.9515C14.3123 17.9571 14.1021 17.9698 13.8961 18.0065C13.6873 18.0446 13.4925 18.1053 13.3021 18.2027C13.1158 18.2972 12.9437 18.4214 12.7955 18.5709C12.6474 18.7191 12.5232 18.8898 12.4273 19.0775C12.3299 19.2679 12.2692 19.4627 12.2311 19.6715C12.1945 19.8775 12.1818 20.0877 12.1761 20.2965C12.1733 20.3925 12.1719 20.4884 12.1719 20.5844C12.1719 20.6987 12.1719 20.8115 12.1719 20.9258V22.231V21.2052V32.0542H45.4215V21.2729V20.9258Z" fill="#40C740"/>
</g>
<g filter="url(#filter2_d_568_1852)">
<path fill-rule="evenodd" clip-rule="evenodd" d="M45.4215 23.9483C45.4215 23.834 45.4215 23.7211 45.4215 23.6068C45.4215 23.5109 45.4201 23.4149 45.4173 23.319C45.4116 23.1102 45.399 22.8999 45.3623 22.6939C45.3242 22.4851 45.2635 22.2904 45.1661 22.0999C45.0716 21.9137 44.9474 21.7415 44.7979 21.5934C44.6497 21.4452 44.479 21.3211 44.2913 21.2251C44.1009 21.1278 43.9061 21.0671 43.6973 21.029C43.4913 20.9923 43.2811 20.9796 43.0723 20.974C42.9763 20.9711 42.8804 20.9697 42.7844 20.9697C42.6701 20.9697 42.5572 20.9697 42.443 20.9697H42.3484H16.4556H15.1504C15.0362 20.9697 14.9233 20.9697 14.809 20.9697C14.713 20.9697 14.6171 20.9711 14.5212 20.974C14.3123 20.9796 14.1021 20.9923 13.8961 21.029C13.6873 21.0671 13.4925 21.1278 13.3021 21.2251C13.1158 21.3196 12.9437 21.4438 12.7955 21.5934C12.6474 21.7415 12.5232 21.9123 12.4273 22.0999C12.3299 22.2904 12.2692 22.4851 12.2311 22.6939C12.1945 22.8999 12.1818 23.1102 12.1761 23.319C12.1733 23.4149 12.1719 23.5109 12.1719 23.6068C12.1719 23.7211 12.1719 23.834 12.1719 23.9483V25.2534V24.2277V35.0767H45.4215V24.2954V23.9483Z" fill="#F26D5F"/>
</g>
<path fill-rule="evenodd" clip-rule="evenodd" d="M10.1602 9.88965V25.5063H12.175V16.1868V14.8817C12.175 14.7674 12.175 14.6545 12.175 14.5402C12.175 14.4443 12.1764 14.3483 12.1793 14.2524C12.1849 14.0436 12.1976 13.8333 12.2343 13.6273C12.2724 13.4185 12.3331 13.2238 12.4304 13.0333C12.525 12.8471 12.6491 12.6749 12.7987 12.5268C12.9468 12.3786 13.1176 12.2544 13.3052 12.1585C13.4943 12.064 13.689 12.0019 13.8978 11.9652C14.1038 11.9285 14.3141 11.9158 14.5229 11.9102C14.6188 11.9073 14.7148 11.9059 14.8107 11.9059C14.925 11.9059 15.0379 11.9059 15.1522 11.9059H16.4573H42.3473H42.4475C42.5618 11.9059 42.6747 11.9059 42.789 11.9059C42.8849 11.9059 42.9809 11.9073 43.0768 11.9102C43.2856 11.9158 43.4959 11.9285 43.7019 11.9652C43.9107 12.0033 44.1054 12.064 44.2959 12.1613C44.4821 12.2559 44.6543 12.38 44.8024 12.5296C44.9506 12.6777 45.0748 12.8485 45.1707 13.0361C45.2681 13.2266 45.3287 13.4213 45.3668 13.6301C45.4035 13.8361 45.4162 14.0464 45.4219 14.2552C45.4247 14.3512 45.4261 14.4471 45.4261 14.543C45.4261 14.6573 45.4261 14.7702 45.4261 14.8845V16.1897V25.5092H47.441V9.88965H10.1602Z" fill="#D9D6CC"/>
<g filter="url(#filter3_d_568_1852)">
<path fill-rule="evenodd" clip-rule="evenodd" d="M38.0735 23.9951C37.8576 23.9951 37.6403 23.9951 37.4244 23.9965C37.2424 23.9979 37.0604 23.9994 36.8784 24.005C36.4819 24.0163 36.0812 24.0389 35.6889 24.1094C35.2911 24.1814 34.92 24.2985 34.5588 24.4819C34.5122 24.5059 33.5175 24.9574 32.6229 26.3486C31.9442 27.4054 30.6235 28.5258 28.7738 28.5258C26.9254 28.5258 25.6047 27.4054 24.9246 26.3486C23.9835 24.8826 22.9097 24.4424 22.9873 24.4819C22.6261 24.2971 22.255 24.18 21.8571 24.1094C21.4649 24.0389 21.0642 24.0149 20.6677 24.005C20.4857 24.0008 20.3037 23.9979 20.1216 23.9965C19.9058 23.9951 19.6885 23.9951 19.4726 23.9951H10.1602V38.1006H47.4396V23.9951H38.0735Z" fill="#DEDBCE"/>
</g>
</g>
<path d="M62.3655 36.289V26.4404H56.644V36.289H54.8789V24.918H64.1307V36.289H62.3655Z" fill="white"/>
<path d="M66.0195 32.1434V32.1293C66.0195 29.4809 67.5871 27.8428 69.9435 27.8428C72.3068 27.8428 73.8829 29.4739 73.8829 32.1293V32.1448C73.8829 34.8172 72.3224 36.4554 69.9505 36.4554C67.5716 36.454 66.0195 34.8074 66.0195 32.1434ZM72.1418 32.1434V32.1293C72.1418 30.3162 71.2754 29.2693 69.9435 29.2693C68.6355 29.2693 67.7607 30.3162 67.7607 32.1293V32.1448C67.7607 33.9819 68.627 35.0289 69.959 35.0289C71.2909 35.0289 72.1418 33.9721 72.1418 32.1434Z" fill="white"/>
<path d="M75.4766 32.2148C75.4766 29.5199 76.9821 27.8408 79.3455 27.8408C81.7258 27.8408 83.2934 29.5029 83.2934 32.1514V32.1598C83.2934 34.7983 81.9219 36.4534 79.8421 36.4534C78.6682 36.4534 77.7144 35.8622 77.2262 34.8943H77.1867V39.0468H75.4766V32.2148ZM81.5508 32.1344V32.1189C81.5508 30.2903 80.6929 29.2673 79.337 29.2673C77.9895 29.2673 77.1782 30.3143 77.1782 32.1189V32.1344C77.1782 33.8685 78.0911 34.9874 79.3765 34.9874C80.7169 34.9888 81.5508 33.8996 81.5508 32.1344Z" fill="white"/>
<path d="M86.6895 34.0507V29.362H84.1836V27.999H91.1806V29.362H88.3996V33.9251C88.3996 34.6179 88.6747 35.02 89.503 35.02C89.7231 35.02 89.9432 35.0116 90.1012 34.9805V36.2885C89.8966 36.328 89.5255 36.3675 89.1629 36.3675C87.4528 36.3661 86.6895 35.6818 86.6895 34.0507Z" fill="white"/>
<path d="M92.3398 32.1434V32.1293C92.3398 29.4809 93.9074 27.8428 96.2638 27.8428C98.6272 27.8428 100.203 29.4739 100.203 32.1293V32.1448C100.203 34.8172 98.6441 36.4554 96.2722 36.4554C93.8933 36.454 92.3398 34.8074 92.3398 32.1434ZM98.4635 32.1434V32.1293C98.4635 30.3162 97.5971 29.2693 96.2652 29.2693C94.9572 29.2693 94.0824 30.3162 94.0824 32.1293V32.1448C94.0824 33.9819 94.9487 35.0289 96.2807 35.0289C97.6112 35.0275 98.4635 33.9721 98.4635 32.1434Z" fill="white"/>
<path d="M105.92 36.4217C103.256 36.3046 101.469 34.6495 101.469 32.1521V32.1437C101.469 29.6307 103.203 27.9361 105.92 27.874V25.8408H107.567V27.874C110.286 27.9361 112.019 29.6307 112.019 32.1437V32.1521C112.019 34.6566 110.229 36.3046 107.567 36.4217V39.0461H105.92V36.4217ZM105.936 29.2921C104.147 29.3796 103.162 30.4575 103.162 32.1437V32.1521C103.162 33.8227 104.219 34.8626 105.936 35.0037V29.2921ZM110.325 32.1521V32.1437C110.325 30.4575 109.332 29.3781 107.551 29.2921V35.0051C109.269 34.8626 110.325 33.8227 110.325 32.1521Z" fill="white"/>
<path d="M113.23 32.1433V32.1292C113.23 29.4808 114.798 27.8427 117.154 27.8427C119.519 27.8427 121.094 29.4738 121.094 32.1292V32.1448C121.094 34.8171 119.535 36.4553 117.163 36.4553C114.783 36.4539 113.23 34.8073 113.23 32.1433ZM119.353 32.1433V32.1292C119.353 30.3161 118.486 29.2692 117.153 29.2692C115.845 29.2692 114.97 30.3161 114.97 32.1292V32.1448C114.97 33.9818 115.837 35.0288 117.169 35.0288C118.502 35.0274 119.353 33.972 119.353 32.1433ZM116.572 27.0624L117.383 24.5791H119.014L117.815 27.0624H116.572Z" fill="white"/>
<path d="M127.124 34.7054L125.69 30.5204H125.65L123.437 36.2885H121.727L124.989 28.5027L124.609 27.4628C124.255 26.5175 124.026 26.2508 123.246 26.2508C123.081 26.2508 122.867 26.2805 122.718 26.3298V24.9499C122.971 24.8793 123.308 24.8398 123.569 24.8398C124.925 24.8398 125.453 25.2575 126.115 27.1256L128.574 34.1156C128.794 34.7534 129.062 34.9594 129.543 34.9594C129.732 34.9594 129.89 34.9354 130.04 34.8959V36.2589C129.835 36.3224 129.552 36.3689 129.182 36.3689C128.108 36.3661 127.567 36.0049 127.124 34.7054Z" fill="white"/>
<path d="M131.449 34.1372V27.998H133.159V33.9481C133.159 34.6564 133.475 34.957 134.168 34.957C134.333 34.957 134.57 34.933 134.735 34.9175V36.2565C134.546 36.3045 134.153 36.3665 133.782 36.3665C132.104 36.3665 131.449 35.7373 131.449 34.1372Z" fill="white"/>
<path d="M143.422 24.918H145.329L149.459 36.289H147.608L146.568 33.2159H142.187L141.14 36.289H139.289L143.422 24.918ZM142.657 31.7979H146.086L144.391 26.8016H144.362L142.657 31.7979Z" fill="white"/>
<path d="M150.547 27.9994H152.249V29.4259H152.288C152.785 28.441 153.698 27.8428 154.88 27.8428C156.992 27.8428 158.347 29.4978 158.347 32.1448V32.1533C158.347 34.7932 156.984 36.4554 154.904 36.4554C153.73 36.4554 152.776 35.8571 152.288 34.8962H152.249V39.0487H150.547V27.9994ZM156.614 32.1519V32.1434C156.614 30.3783 155.77 29.2989 154.44 29.2989C153.147 29.2989 152.24 30.4178 152.24 32.1434V32.1519C152.24 33.8705 153.154 34.9894 154.44 34.9894C155.779 34.9894 156.614 33.9001 156.614 32.1519Z" fill="white"/>
<path d="M160.031 27.9994H161.733V29.4259H161.772C162.269 28.441 163.182 27.8428 164.364 27.8428C166.477 27.8428 167.831 29.4978 167.831 32.1448V32.1533C167.831 34.7932 166.468 36.4554 164.388 36.4554C163.214 36.4554 162.261 35.8571 161.772 34.8962H161.733V39.0487H160.031V27.9994ZM166.098 32.1519V32.1434C166.098 30.3783 165.255 29.2989 163.924 29.2989C162.632 29.2989 161.724 30.4178 161.724 32.1434V32.1519C161.724 33.8705 162.639 34.9894 163.924 34.9894C165.263 34.9894 166.098 33.9001 166.098 32.1519Z" fill="white"/>
<path d="M169.332 24.918H171.034V36.289H169.332V24.918Z" fill="white"/>
<path d="M172.691 32.1759V32.1674C172.691 29.5755 174.19 27.8428 176.514 27.8428C178.838 27.8428 180.264 29.5134 180.264 32.0023V32.578H174.393C174.424 34.1456 175.285 35.0599 176.639 35.0599C177.648 35.0599 178.317 34.5407 178.531 33.917L178.555 33.8535H180.171L180.155 33.941C179.887 35.2575 178.61 36.454 176.601 36.454C174.166 36.454 172.691 34.7918 172.691 32.1759ZM174.418 31.3716H178.578C178.435 29.9367 177.633 29.2354 176.521 29.2354C175.419 29.2368 174.567 29.9846 174.418 31.3716Z" fill="white"/>
<path d="M60.4753 20.0601V12.4747H55.9051V20.0587H54.8398V11.5166H61.542V20.0601H60.4753Z" fill="white"/>
<path d="M63.5117 16.8438C63.5117 14.7654 64.6306 13.5576 66.3605 13.5576C68.1369 13.5576 69.2431 14.8134 69.2431 16.7718V16.7775C69.2431 18.8798 68.1722 20.1765 66.5496 20.1765C65.727 20.1765 64.9749 19.78 64.625 19.0985H64.5304V22.1886H63.5117V16.8438ZM68.1891 16.7732V16.7676C68.1891 15.3044 67.485 14.4705 66.3605 14.4705C65.2359 14.4705 64.5008 15.4004 64.5008 16.9581V16.9637C64.5008 18.3324 65.2825 19.2664 66.3196 19.2664C67.4723 19.265 68.1891 18.3606 68.1891 16.7732Z" fill="white"/>
<path d="M70.4492 16.8732V16.8619C70.4492 14.8132 71.5738 13.5645 73.3911 13.5645C75.2099 13.5645 76.333 14.8132 76.333 16.8619V16.8746C76.333 18.9163 75.2084 20.1721 73.3911 20.1721C71.5738 20.1706 70.4492 18.9163 70.4492 16.8732ZM75.2804 16.8732V16.8619C75.2804 15.3522 74.5989 14.4759 73.3911 14.4759C72.1833 14.4759 71.5032 15.3522 71.5032 16.8619V16.8746C71.5032 18.3773 72.1833 19.2606 73.3911 19.2606C74.5989 19.2606 75.2804 18.3773 75.2804 16.8732Z" fill="white"/>
<path d="M77.5352 16.9037V16.898C77.5352 14.9269 78.7669 13.6768 80.7084 13.6768H84.0539V14.5882H82.2718V14.6828C82.8588 15.1258 83.2129 15.9611 83.2129 16.8853V16.891C83.2129 18.8692 82.0348 20.1771 80.3769 20.1771C78.678 20.1785 77.5352 18.9002 77.5352 16.9037ZM82.1589 16.9037V16.898C82.1589 15.4588 81.3899 14.5882 80.4418 14.5882C79.3398 14.5882 78.5892 15.4941 78.5892 16.898V16.9037C78.5892 18.3951 79.3116 19.2656 80.3769 19.2656C81.4845 19.2656 82.1589 18.3725 82.1589 16.9037Z" fill="white"/>
<path d="M85.1406 15.6063V15.6006C85.1406 12.5868 86.2003 11.0234 88.0712 11.0234C89.9422 11.0234 91.0018 12.5868 91.0018 15.6006V15.6063C91.0018 18.5849 89.9549 20.1779 88.0712 20.1779C86.1876 20.1779 85.1406 18.5849 85.1406 15.6063ZM89.9436 15.9971H86.2017C86.2609 18.194 86.8775 19.2649 88.0726 19.2649C89.2677 19.2649 89.8843 18.194 89.9436 15.9971ZM86.2073 15.0856H89.9379C89.8603 12.9664 89.2508 11.9363 88.0726 11.9363C86.8945 11.9363 86.2835 12.9664 86.2073 15.0856Z" fill="white"/>
<path d="M97.0193 16.1752C97.0193 15.014 96.5283 14.4693 95.5631 14.4693C94.5275 14.4693 93.9236 15.1861 93.9236 16.281V20.0582H92.8936V15.2679C92.8936 14.7529 92.7229 14.5272 92.3024 14.5272C92.2022 14.5272 92.1119 14.5328 92.0117 14.5512V13.6764C92.1599 13.6354 92.3377 13.6171 92.5578 13.6171C93.2618 13.6171 93.7472 13.943 93.8545 14.5766L93.8714 14.6838H93.9659C94.2806 13.991 94.9663 13.5592 95.8552 13.5592C97.2464 13.5592 98.0507 14.4058 98.0507 15.9283V22.1916H97.0207L97.0193 16.1752ZM95.113 12.7889L95.6337 10.7754H96.7766L95.978 12.7889H95.113Z" fill="white"/>
<path d="M99.8906 13.6764H100.921V16.8681H101.015L102.866 14.6768C103.559 13.8599 103.961 13.6172 104.632 13.6172C104.828 13.6172 104.946 13.6285 105.117 13.6764V14.5343C105.011 14.516 104.905 14.5103 104.768 14.5103C104.318 14.5103 104.07 14.6754 103.513 15.3386L102.79 16.1965L105.343 20.0569H104.188L102.158 16.9076L100.921 18.2748V20.0569H99.8906V13.6764Z" fill="white"/>
<path d="M111.39 16.1755C111.39 15.0143 110.899 14.4696 109.934 14.4696C108.899 14.4696 108.295 15.1864 108.295 16.2813V20.0585H107.265V15.2683C107.265 14.7533 107.094 14.5275 106.673 14.5275C106.573 14.5275 106.483 14.5331 106.383 14.5515V13.6767C106.531 13.6358 106.709 13.6174 106.929 13.6174C107.633 13.6174 108.118 13.9434 108.226 14.5769L108.242 14.6841H108.337C108.652 13.9913 109.337 13.5596 110.226 13.5596C111.618 13.5596 112.423 14.4062 112.423 15.9286V22.1919H111.393V16.1755H111.39Z" fill="white"/>
<path d="M117.281 16.9037V16.898C117.281 14.9269 118.513 13.6768 120.455 13.6768H123.8V14.5882H122.018V14.6828C122.603 15.1258 122.959 15.9611 122.959 16.8853V16.891C122.959 18.8692 121.781 20.1771 120.123 20.1771C118.423 20.1785 117.281 18.9002 117.281 16.9037ZM121.905 16.9037V16.898C121.905 15.4588 121.135 14.5882 120.188 14.5882C119.087 14.5882 118.335 15.4941 118.335 16.898V16.9037C118.335 18.3951 119.058 19.2656 120.124 19.2656C121.231 19.2656 121.905 18.3725 121.905 16.9037Z" fill="white"/>
<path d="M126.743 18.4078V14.529H124.719V13.6768H129.959V14.529H127.774V18.1524C127.774 18.9397 128.039 19.2656 128.739 19.2656C128.887 19.2656 129.011 19.26 129.189 19.2416V20.0586C128.998 20.0939 128.822 20.1179 128.614 20.1179C127.259 20.1193 126.743 19.6339 126.743 18.4078Z" fill="white"/>
<path d="M130.688 16.8732V16.8619C130.688 14.8132 131.812 13.5645 133.631 13.5645C135.448 13.5645 136.573 14.8132 136.573 16.8619V16.8746C136.573 18.9163 135.448 20.1721 133.631 20.1721C131.812 20.1706 130.688 18.9163 130.688 16.8732ZM135.517 16.8732V16.8619C135.517 15.3522 134.837 14.4759 133.629 14.4759C132.422 14.4759 131.74 15.3522 131.74 16.8619V16.8746C131.74 18.3773 132.42 19.2606 133.629 19.2606C134.837 19.2592 135.517 18.3773 135.517 16.8732Z" fill="white"/>
<defs>
<filter id="filter0_d_568_1852" x="9.17188" y="11.7258" width="39.25" height="20.1074" filterUnits="userSpaceOnUse" color-interpolation-filters="sRGB">
<feFlood flood-opacity="0" result="BackgroundImageFix"/>
<feColorMatrix in="SourceAlpha" type="matrix" values="0 0 0 0 0 0 0 0 0 0 0 0 0 0 0 0 0 0 127 0" result="hardAlpha"/>
<feOffset dy="-0.2"/>
<feGaussianBlur stdDeviation="1.5"/>
<feComposite in2="hardAlpha" operator="out"/>
<feColorMatrix type="matrix" values="0 0 0 0 0 0 0 0 0 0 0 0 0 0 0 0 0 0 0.12 0"/>
<feBlend mode="normal" in2="BackgroundImageFix" result="effect1_dropShadow_568_1852"/>
<feBlend mode="normal" in="SourceGraphic" in2="effect1_dropShadow_568_1852" result="shape"/>
</filter>
<filter id="filter1_d_568_1852" x="9.17188" y="14.7473" width="39.25" height="20.1074" filterUnits="userSpaceOnUse" color-interpolation-filters="sRGB">
<feFlood flood-opacity="0" result="BackgroundImageFix"/>
<feColorMatrix in="SourceAlpha" type="matrix" values="0 0 0 0 0 0 0 0 0 0 0 0 0 0 0 0 0 0 127 0" result="hardAlpha"/>
<feOffset dy="-0.2"/>
<feGaussianBlur stdDeviation="1.5"/>
<feComposite in2="hardAlpha" operator="out"/>
<feColorMatrix type="matrix" values="0 0 0 0 0 0 0 0 0 0 0 0 0 0 0 0 0 0 0.12 0"/>
<feBlend mode="normal" in2="BackgroundImageFix" result="effect1_dropShadow_568_1852"/>
<feBlend mode="normal" in="SourceGraphic" in2="effect1_dropShadow_568_1852" result="shape"/>
</filter>
<filter id="filter2_d_568_1852" x="9.17188" y="17.7697" width="39.25" height="20.1074" filterUnits="userSpaceOnUse" color-interpolation-filters="sRGB">
<feFlood flood-opacity="0" result="BackgroundImageFix"/>
<feColorMatrix in="SourceAlpha" type="matrix" values="0 0 0 0 0 0 0 0 0 0 0 0 0 0 0 0 0 0 127 0" result="hardAlpha"/>
<feOffset dy="-0.2"/>
<feGaussianBlur stdDeviation="1.5"/>
<feComposite in2="hardAlpha" operator="out"/>
<feColorMatrix type="matrix" values="0 0 0 0 0 0 0 0 0 0 0 0 0 0 0 0 0 0 0.12 0"/>
<feBlend mode="normal" in2="BackgroundImageFix" result="effect1_dropShadow_568_1852"/>
<feBlend mode="normal" in="SourceGraphic" in2="effect1_dropShadow_568_1852" result="shape"/>
</filter>
<filter id="filter3_d_568_1852" x="7.16016" y="20.7951" width="43.2812" height="20.1055" filterUnits="userSpaceOnUse" color-interpolation-filters="sRGB">
<feFlood flood-opacity="0" result="BackgroundImageFix"/>
<feColorMatrix in="SourceAlpha" type="matrix" values="0 0 0 0 0 0 0 0 0 0 0 0 0 0 0 0 0 0 127 0" result="hardAlpha"/>
<feOffset dy="-0.2"/>
<feGaussianBlur stdDeviation="1.5"/>
<feComposite in2="hardAlpha" operator="out"/>
<feColorMatrix type="matrix" values="0 0 0 0 0 0 0 0 0 0 0 0 0 0 0 0 0 0 0.12 0"/>
<feBlend mode="normal" in2="BackgroundImageFix" result="effect1_dropShadow_568_1852"/>
<feBlend mode="normal" in="SourceGraphic" in2="effect1_dropShadow_568_1852" result="shape"/>
</filter>
</defs>
</svg>
