<svg width="136" height="48" viewBox="0 0 136 48" fill="none" xmlns="http://www.w3.org/2000/svg">
<path d="M121.876 0.00141098H13.4508C12.933 0.00141098 12.4222 0.00141098 11.9072 0.00423293C11.4741 0.00705488 11.0465 0.0155207 10.6105 0.0225756C9.67083 0.0451512 8.72124 0.103001 7.78294 0.270907C6.839 0.437403 5.96137 0.719598 5.10209 1.15559C4.25692 1.58876 3.48511 2.15033 2.81772 2.81913C2.14327 3.48652 1.58312 4.26115 1.15559 5.10632C0.716776 5.9642 0.438814 6.84606 0.273729 7.79141C0.104412 8.72548 0.0451512 9.66942 0.0211646 10.6148C0.00846586 11.0479 0.00705488 11.4811 0 11.9143C0 12.4251 0 12.9372 0 13.4551V34.5463C0 35.067 0 35.5764 0 36.0899C0.00705488 36.5273 0.00846586 36.9521 0.0211646 37.3909C0.0451512 38.3362 0.104412 39.2816 0.273729 40.2156C0.438814 41.161 0.716776 42.0471 1.15559 42.9021C1.58312 43.7431 2.14327 44.5163 2.81772 45.1795C3.48511 45.8525 4.25692 46.4141 5.10068 46.8416C5.95996 47.2818 6.83759 47.5612 7.78294 47.7319C8.71983 47.8998 9.67083 47.9548 10.6105 47.9817C11.0465 47.9915 11.4755 47.9972 11.9072 47.9972C12.4236 48 12.9344 48 13.4522 48H121.877C122.384 48 122.899 48 123.407 47.9972C123.837 47.9972 124.277 47.9915 124.708 47.9817C125.653 47.9563 126.601 47.8998 127.53 47.7319C128.475 47.5612 129.354 47.2832 130.222 46.8416C131.064 46.4126 131.836 45.8525 132.503 45.1795C133.175 44.5163 133.735 43.7431 134.17 42.9021C134.603 42.0471 134.884 41.161 135.043 40.2156C135.217 39.2816 135.272 38.3362 135.306 37.3909C135.311 36.9521 135.311 36.5288 135.311 36.0899C135.323 35.5778 135.322 35.0684 135.322 34.5463V13.4537C135.322 12.9372 135.323 12.4251 135.311 11.9129C135.311 11.4797 135.311 11.0465 135.306 10.6134C135.273 9.66801 135.218 8.72265 135.043 7.78859C134.884 6.84323 134.603 5.96137 134.17 5.1035C133.734 4.25833 133.175 3.48511 132.503 2.81631C131.836 2.14751 131.066 1.58594 130.222 1.15277C129.354 0.715365 128.475 0.43317 127.53 0.268085C126.601 0.100179 125.653 0.0423293 124.708 0.0183427C124.277 0.0112878 123.837 0.00282195 123.407 0C122.897 0.00141098 122.382 0.00141098 121.876 0.00141098Z" fill="#A6A6A6"/>
<path d="M121.877 0.918945C122.382 0.918945 122.895 0.918945 123.401 0.921767C123.748 0.924589 124.103 0.930233 124.453 0.935877L124.685 0.94011C125.431 0.958453 126.409 1.00219 127.371 1.17574C128.244 1.32813 129.042 1.59057 129.802 1.97294C130.563 2.36378 131.253 2.86609 131.855 3.46999C132.452 4.0626 132.956 4.75398 133.349 5.51873C133.732 6.27924 133.99 7.07221 134.14 7.95831C134.305 8.84722 134.355 9.77564 134.386 10.6265C134.392 11.0554 134.392 11.4857 134.392 11.933C134.403 12.4382 134.403 12.9433 134.403 13.4541V34.5453C134.403 35.0589 134.403 35.5626 134.392 36.0889C134.392 36.5235 134.392 36.944 134.386 37.3574C134.355 38.228 134.305 39.1564 134.137 40.0608C133.989 40.9385 133.73 41.7314 133.354 42.4778C132.953 43.2525 132.449 43.941 131.85 44.5322C131.253 45.1347 130.566 45.6356 129.805 46.0222C129.056 46.4032 128.257 46.6656 127.365 46.8279C126.441 46.9958 125.49 47.0409 124.687 47.0635C124.264 47.0734 123.831 47.079 123.402 47.079C122.897 47.0819 122.383 47.0819 121.878 47.0819H13.4517C12.9367 47.0819 12.4273 47.0819 11.9067 47.079C11.4819 47.079 11.0601 47.0734 10.6354 47.0649C9.82828 47.0423 8.8787 46.9972 7.94604 46.8293C7.05289 46.6684 6.25851 46.4046 5.51634 46.0236C4.75582 45.6384 4.06727 45.1361 3.46055 44.5238C2.86512 43.9382 2.36422 43.2525 1.97197 42.4821C1.59383 41.7441 1.3328 40.9498 1.17618 40.0495C1.00122 39.0887 0.957476 38.1109 0.937722 37.363C0.929257 37.0696 0.925024 36.7831 0.922202 36.4939L0.917969 36.0889V34.5453V13.4541V11.9288L0.923613 11.5069C0.926435 11.2191 0.930668 10.9312 0.939133 10.6392C0.957476 9.89416 1.00263 8.91636 1.179 7.94843C1.33421 7.05951 1.59383 6.26655 1.97479 5.52014C2.36281 4.75398 2.86371 4.06401 3.4676 3.46717C4.06868 2.86468 4.76006 2.36237 5.51775 1.97436C6.27404 1.58916 7.067 1.32813 7.94604 1.17433C8.91115 1.00078 9.89037 0.957042 10.6255 0.938699L10.9049 0.934466C11.2421 0.928822 11.5765 0.923178 11.9123 0.921767C12.4259 0.918945 12.9367 0.918945 13.4517 0.918945H121.877Z" fill="black"/>
<mask id="mask0_568_2289" style="mask-type:luminance" maskUnits="userSpaceOnUse" x="10" y="10" width="37" height="28">
<path d="M46.9374 32.5304V32.9043C46.9374 33.0835 46.9374 33.2627 46.936 33.4419C46.9346 33.5928 46.9332 33.7438 46.929 33.8948C46.9205 34.2235 46.9008 34.5551 46.8429 34.8796C46.7836 35.2098 46.6863 35.5174 46.5339 35.8165C46.3843 36.1114 46.1882 36.3809 45.954 36.6137C45.7198 36.8479 45.4503 37.0427 45.1568 37.1936C44.8577 37.346 44.5501 37.4434 44.2199 37.5026C43.8954 37.5605 43.5638 37.5802 43.235 37.5887C43.0841 37.5929 42.9331 37.5944 42.7821 37.5958C42.6029 37.5972 42.4237 37.5972 42.2445 37.5972L40.1859 37.5958L42.102 37.5972H15.4995L17.4156 37.5958L15.357 37.5972C15.1778 37.5972 14.9986 37.5972 14.8194 37.5958C14.6684 37.5944 14.5174 37.5929 14.3665 37.5887C14.0377 37.5802 13.7061 37.5605 13.3816 37.5026C13.0514 37.4434 12.7453 37.346 12.4447 37.1936C12.1498 37.0441 11.8803 36.8479 11.6475 36.6137C11.4133 36.3795 11.2186 36.11 11.0676 35.8165C10.9152 35.5174 10.8179 35.2098 10.7586 34.8796C10.7007 34.5551 10.681 34.2235 10.6725 33.8948C10.6683 33.7438 10.6669 33.5928 10.6655 33.4419C10.6641 33.2627 10.6641 33.0835 10.6641 32.9043V32.6108V15.3799V17.1437V15.0851C10.6641 14.9059 10.6641 14.7267 10.6655 14.5475C10.6669 14.3965 10.6683 14.2455 10.6725 14.0945C10.681 13.7658 10.7007 13.4342 10.7586 13.1097C10.8179 12.7795 10.9152 12.4719 11.0676 12.1728C11.2172 11.8779 11.4133 11.6084 11.6475 11.3756C11.8817 11.1428 12.1512 10.9467 12.4461 10.7971C12.7453 10.6447 13.0528 10.5474 13.383 10.4881C13.7075 10.4302 14.0391 10.4105 14.3679 10.402C14.5188 10.3978 14.6698 10.3964 14.8208 10.395C15 10.3936 15.1792 10.3936 15.3584 10.3936H17.417H42.1034H42.2445C42.4237 10.3936 42.6029 10.3936 42.7821 10.395C42.9331 10.3964 43.0841 10.3978 43.235 10.402C43.5638 10.4105 43.8954 10.4302 44.2199 10.4881C44.5501 10.5474 44.8562 10.6447 45.1568 10.7971C45.4517 10.9467 45.7212 11.1428 45.954 11.377C46.1882 11.6112 46.3829 11.8807 46.5339 12.1742C46.6863 12.4733 46.7836 12.7809 46.8429 13.1111C46.9008 13.4356 46.9205 13.7672 46.929 14.096C46.9332 14.2469 46.9346 14.3979 46.936 14.5489C46.9374 14.7281 46.9374 14.9073 46.9374 15.0865V15.4604V32.5304Z" fill="white"/>
</mask>
<g mask="url(#mask0_568_2289)">
<path d="M45.7858 11.5264H11.7812V35.204H45.7858V11.5264Z" fill="#DEDBCE"/>
<path d="M45.4254 11.9043H12.1758V26.0098H45.4254V11.9043Z" fill="#40A5D9"/>
<g filter="url(#filter0_d_568_2289)">
<path fill-rule="evenodd" clip-rule="evenodd" d="M45.4215 17.9044C45.4215 17.7901 45.4215 17.6772 45.4215 17.5629C45.4215 17.467 45.4201 17.371 45.4173 17.2751C45.4116 17.0662 45.399 16.856 45.3623 16.65C45.3242 16.4412 45.2635 16.2465 45.1661 16.056C45.0716 15.8697 44.9474 15.6976 44.7979 15.5494C44.6497 15.4013 44.479 15.2771 44.2913 15.1812C44.1009 15.0838 43.9061 15.0231 43.6973 14.985C43.4913 14.9484 43.2811 14.9357 43.0723 14.93C42.9763 14.9272 42.8804 14.9258 42.7844 14.9258C42.6701 14.9258 42.5572 14.9258 42.443 14.9258H42.3498H16.4556H15.1504C15.0362 14.9258 14.9233 14.9258 14.809 14.9258C14.713 14.9258 14.6171 14.9272 14.5212 14.93C14.3123 14.9357 14.1021 14.9484 13.8961 14.985C13.6873 15.0231 13.4925 15.0838 13.3021 15.1812C13.1158 15.2757 12.9437 15.3999 12.7955 15.5494C12.6474 15.6976 12.5232 15.8683 12.4273 16.056C12.3299 16.2465 12.2692 16.4412 12.2311 16.65C12.1945 16.856 12.1818 17.0662 12.1761 17.2751C12.1733 17.371 12.1719 17.467 12.1719 17.5629C12.1719 17.6772 12.1719 17.7901 12.1719 17.9044V19.2095V18.1837V29.0327H45.4215V18.2515V17.9044Z" fill="#FFB003"/>
</g>
<g filter="url(#filter1_d_568_2289)">
<path fill-rule="evenodd" clip-rule="evenodd" d="M45.4215 20.9258C45.4215 20.8115 45.4215 20.6987 45.4215 20.5844C45.4215 20.4884 45.4201 20.3925 45.4173 20.2965C45.4116 20.0877 45.399 19.8775 45.3623 19.6715C45.3242 19.4627 45.2635 19.2679 45.1661 19.0775C45.0716 18.8912 44.9474 18.7191 44.7979 18.5709C44.6497 18.4228 44.479 18.2986 44.2913 18.2027C44.1009 18.1053 43.9061 18.0446 43.6973 18.0065C43.4913 17.9698 43.2811 17.9571 43.0723 17.9515C42.9763 17.9487 42.8804 17.9473 42.7844 17.9473C42.6701 17.9473 42.5572 17.9473 42.443 17.9473H42.3484H16.4556H15.1504C15.0362 17.9473 14.9233 17.9473 14.809 17.9473C14.713 17.9473 14.6171 17.9487 14.5212 17.9515C14.3123 17.9571 14.1021 17.9698 13.8961 18.0065C13.6873 18.0446 13.4925 18.1053 13.3021 18.2027C13.1158 18.2972 12.9437 18.4214 12.7955 18.5709C12.6474 18.7191 12.5232 18.8898 12.4273 19.0775C12.3299 19.2679 12.2692 19.4627 12.2311 19.6715C12.1945 19.8775 12.1818 20.0877 12.1761 20.2965C12.1733 20.3925 12.1719 20.4884 12.1719 20.5844C12.1719 20.6987 12.1719 20.8115 12.1719 20.9258V22.231V21.2052V32.0542H45.4215V21.2729V20.9258Z" fill="#40C740"/>
</g>
<g filter="url(#filter2_d_568_2289)">
<path fill-rule="evenodd" clip-rule="evenodd" d="M45.4215 23.9483C45.4215 23.834 45.4215 23.7211 45.4215 23.6068C45.4215 23.5109 45.4201 23.4149 45.4173 23.319C45.4116 23.1102 45.399 22.8999 45.3623 22.6939C45.3242 22.4851 45.2635 22.2904 45.1661 22.0999C45.0716 21.9137 44.9474 21.7415 44.7979 21.5934C44.6497 21.4452 44.479 21.3211 44.2913 21.2251C44.1009 21.1278 43.9061 21.0671 43.6973 21.029C43.4913 20.9923 43.2811 20.9796 43.0723 20.974C42.9763 20.9711 42.8804 20.9697 42.7844 20.9697C42.6701 20.9697 42.5572 20.9697 42.443 20.9697H42.3484H16.4556H15.1504C15.0362 20.9697 14.9233 20.9697 14.809 20.9697C14.713 20.9697 14.6171 20.9711 14.5212 20.974C14.3123 20.9796 14.1021 20.9923 13.8961 21.029C13.6873 21.0671 13.4925 21.1278 13.3021 21.2251C13.1158 21.3196 12.9437 21.4438 12.7955 21.5934C12.6474 21.7415 12.5232 21.9123 12.4273 22.0999C12.3299 22.2904 12.2692 22.4851 12.2311 22.6939C12.1945 22.8999 12.1818 23.1102 12.1761 23.319C12.1733 23.4149 12.1719 23.5109 12.1719 23.6068C12.1719 23.7211 12.1719 23.834 12.1719 23.9483V25.2534V24.2277V35.0767H45.4215V24.2954V23.9483Z" fill="#F26D5F"/>
</g>
<path fill-rule="evenodd" clip-rule="evenodd" d="M10.1602 9.88965V25.5063H12.175V16.1868V14.8817C12.175 14.7674 12.175 14.6545 12.175 14.5402C12.175 14.4443 12.1764 14.3483 12.1793 14.2524C12.1849 14.0436 12.1976 13.8333 12.2343 13.6273C12.2724 13.4185 12.3331 13.2238 12.4304 13.0333C12.525 12.8471 12.6491 12.6749 12.7987 12.5268C12.9468 12.3786 13.1176 12.2544 13.3052 12.1585C13.4943 12.064 13.689 12.0019 13.8978 11.9652C14.1038 11.9285 14.3141 11.9158 14.5229 11.9102C14.6188 11.9073 14.7148 11.9059 14.8107 11.9059C14.925 11.9059 15.0379 11.9059 15.1522 11.9059H16.4573H42.3473H42.4475C42.5618 11.9059 42.6747 11.9059 42.789 11.9059C42.8849 11.9059 42.9809 11.9073 43.0768 11.9102C43.2856 11.9158 43.4959 11.9285 43.7019 11.9652C43.9107 12.0033 44.1054 12.064 44.2959 12.1613C44.4821 12.2559 44.6543 12.38 44.8024 12.5296C44.9506 12.6777 45.0748 12.8485 45.1707 13.0361C45.2681 13.2266 45.3287 13.4213 45.3668 13.6301C45.4035 13.8361 45.4162 14.0464 45.4219 14.2552C45.4247 14.3512 45.4261 14.4471 45.4261 14.543C45.4261 14.6573 45.4261 14.7702 45.4261 14.8845V16.1897V25.5092H47.441V9.88965H10.1602Z" fill="#D9D6CC"/>
<g filter="url(#filter3_d_568_2289)">
<path fill-rule="evenodd" clip-rule="evenodd" d="M38.0735 23.9951C37.8576 23.9951 37.6403 23.9951 37.4244 23.9965C37.2424 23.9979 37.0604 23.9994 36.8784 24.005C36.4819 24.0163 36.0812 24.0389 35.6889 24.1094C35.2911 24.1814 34.92 24.2985 34.5588 24.4819C34.5122 24.5059 33.5175 24.9574 32.6229 26.3486C31.9442 27.4054 30.6235 28.5258 28.7738 28.5258C26.9254 28.5258 25.6047 27.4054 24.9246 26.3486C23.9835 24.8826 22.9097 24.4424 22.9873 24.4819C22.6261 24.2971 22.255 24.18 21.8571 24.1094C21.4649 24.0389 21.0642 24.0149 20.6677 24.005C20.4857 24.0008 20.3037 23.9979 20.1216 23.9965C19.9058 23.9951 19.6885 23.9951 19.4726 23.9951H10.1602V38.1006H47.4396V23.9951H38.0735Z" fill="#DEDBCE"/>
</g>
</g>
<path d="M60.4475 28.2029V37.5167H59.488V32.7152H58.4284C58.3338 34.4803 57.6058 35.8475 56.3034 35.8475C54.9009 35.8475 54.1602 34.2672 54.1602 32.313C54.1602 30.3532 54.9009 28.7969 56.3034 28.7969C57.5832 28.7969 58.3112 30.0992 58.4227 31.8164H59.488V28.2043L60.4475 28.2029ZM57.4872 32.3116C57.4872 30.7722 57.0371 29.7493 56.3034 29.7493C55.5754 29.7493 55.1436 30.7737 55.1436 32.3116C55.1436 33.8581 55.5754 34.8683 56.3034 34.8683C57.0371 34.8697 57.4872 33.8581 57.4872 32.3116ZM62.4849 37.9964H61.5198V27.9785H62.4849V37.9964Z" fill="white"/>
<path d="M72.0212 34.8826V37.9839H70.9969V34.8826H66.9883V34.0656H76.0355V34.8826H72.0212ZM70.9023 30.5664H67.9647V29.7495H75.0647V30.5664H72.1398C72.3641 31.6599 73.7737 32.4077 75.4316 32.5855L75.0294 33.4138C73.6608 33.2543 72.0339 32.5192 71.5189 31.4539C71.0096 32.5319 69.4166 33.26 68.007 33.4307L67.6105 32.6081C69.2797 32.3894 70.6836 31.6726 70.9023 30.5664ZM69.9076 28.9847V28.1621H73.1458V28.9847H69.9076Z" fill="white"/>
<path d="M77.1477 36.1076L76.5664 35.309C78.9891 34.1492 80.4635 32.0708 80.6173 29.9106H77.0701V29.0527H81.6939C81.6403 32.1879 80.012 34.5809 77.1477 36.1076ZM85.821 31.9875V32.8398H84.2576V37.9898H83.2389V27.9775H84.2576V31.9861L85.821 31.9875Z" fill="white"/>
<path d="M61.2556 18.586H56.9224L55.8826 21.6591H54.0469L58.1514 10.2881H60.059L64.165 21.6591H62.2969L61.2556 18.586ZM57.3711 17.168H60.8069L59.1137 12.1802H59.0671L57.3711 17.168Z" fill="white"/>
<path d="M73.0779 17.5158C73.0779 20.1402 71.6979 21.8024 69.6196 21.8024C68.4287 21.8024 67.4834 21.2196 67.0107 20.2969H66.9712V24.4028H65.2695V13.3718H66.9161V14.7983H66.9472C67.4368 13.843 68.3906 13.2363 69.5871 13.2363C71.6923 13.2363 73.0779 14.8914 73.0779 17.5158ZM71.3297 17.5158C71.3297 15.7817 70.4859 14.6713 69.1384 14.6713C67.8375 14.6713 66.9627 15.8057 66.9627 17.5158C66.9627 19.2414 67.829 20.3603 69.1384 20.3603C70.4859 20.3603 71.3297 19.257 71.3297 17.5158Z" fill="white"/>
<path d="M82.5779 17.5154C82.5779 20.1398 81.1979 21.8019 79.1196 21.8019C77.9287 21.8019 76.9833 21.2192 76.5107 20.2964H76.4712V24.4024H74.7695V13.3713H76.4161V14.7978H76.4472C76.9368 13.844 77.8892 13.2373 79.0871 13.2373C81.1923 13.2359 82.5779 14.891 82.5779 17.5154ZM80.8297 17.5154C80.8297 15.7813 79.9859 14.6709 78.6384 14.6709C77.3375 14.6709 76.4627 15.8053 76.4627 17.5154C76.4627 19.241 77.3305 20.3599 78.6384 20.3599C79.9873 20.3599 80.8297 19.2565 80.8297 17.5154Z" fill="white"/>
<path d="M84.0898 10.29H85.7915V21.6611H84.0898V10.29Z" fill="white"/>
<path d="M94.9391 19.2258C94.7035 20.7384 93.2685 21.8178 91.3708 21.8178C88.9354 21.8178 87.4609 20.1712 87.4609 17.5552C87.4609 14.9548 88.9594 13.2207 91.2988 13.2207C93.6001 13.2207 95.0336 14.8447 95.0336 17.3577V17.9418H89.1795V18.0434C89.1795 19.4854 90.0459 20.4393 91.4089 20.4393C92.3796 20.4393 93.095 19.9511 93.3235 19.2258H94.9391ZM89.188 16.751H93.332C93.2925 15.4825 92.4882 14.5922 91.2988 14.5922C90.1093 14.5922 89.274 15.498 89.188 16.751Z" fill="white"/>
<path d="M107.533 18.1307L106.604 19.4471C105.43 18.7544 103.83 17.0838 103.419 15.6883C103.01 17.2093 101.544 18.99 100.165 19.7703L99.1875 18.4933C101.387 17.1938 102.529 15.1126 102.529 12.3231V11.873H99.7942V10.4874H106.989V11.8744H104.254V12.2681C104.256 15.0407 105.523 17.0499 107.533 18.1307ZM110.337 22.5979H108.652V9.18652H110.337V22.5979Z" fill="white"/>
<path d="M113.025 16.6012L112.41 15.2382C115.152 14.7105 117.114 13.1034 117.422 11.2988H113.001V9.92729H119.289C119.242 13.5761 116.523 15.8929 113.025 16.6012ZM121.299 18.5399V17.0428H122.937V22.4243H114.318V17.0428H115.98V18.5399H121.299ZM121.299 19.8323H115.979V21.1008H121.299V19.8323ZM124.876 12.2272V13.5986H122.937V16.2626H121.282V9.18652H122.937V12.2286H124.876V12.2272Z" fill="white"/>
<defs>
<filter id="filter0_d_568_2289" x="9.17188" y="11.7258" width="39.25" height="20.1074" filterUnits="userSpaceOnUse" color-interpolation-filters="sRGB">
<feFlood flood-opacity="0" result="BackgroundImageFix"/>
<feColorMatrix in="SourceAlpha" type="matrix" values="0 0 0 0 0 0 0 0 0 0 0 0 0 0 0 0 0 0 127 0" result="hardAlpha"/>
<feOffset dy="-0.2"/>
<feGaussianBlur stdDeviation="1.5"/>
<feComposite in2="hardAlpha" operator="out"/>
<feColorMatrix type="matrix" values="0 0 0 0 0 0 0 0 0 0 0 0 0 0 0 0 0 0 0.12 0"/>
<feBlend mode="normal" in2="BackgroundImageFix" result="effect1_dropShadow_568_2289"/>
<feBlend mode="normal" in="SourceGraphic" in2="effect1_dropShadow_568_2289" result="shape"/>
</filter>
<filter id="filter1_d_568_2289" x="9.17188" y="14.7473" width="39.25" height="20.1074" filterUnits="userSpaceOnUse" color-interpolation-filters="sRGB">
<feFlood flood-opacity="0" result="BackgroundImageFix"/>
<feColorMatrix in="SourceAlpha" type="matrix" values="0 0 0 0 0 0 0 0 0 0 0 0 0 0 0 0 0 0 127 0" result="hardAlpha"/>
<feOffset dy="-0.2"/>
<feGaussianBlur stdDeviation="1.5"/>
<feComposite in2="hardAlpha" operator="out"/>
<feColorMatrix type="matrix" values="0 0 0 0 0 0 0 0 0 0 0 0 0 0 0 0 0 0 0.12 0"/>
<feBlend mode="normal" in2="BackgroundImageFix" result="effect1_dropShadow_568_2289"/>
<feBlend mode="normal" in="SourceGraphic" in2="effect1_dropShadow_568_2289" result="shape"/>
</filter>
<filter id="filter2_d_568_2289" x="9.17188" y="17.7697" width="39.25" height="20.1074" filterUnits="userSpaceOnUse" color-interpolation-filters="sRGB">
<feFlood flood-opacity="0" result="BackgroundImageFix"/>
<feColorMatrix in="SourceAlpha" type="matrix" values="0 0 0 0 0 0 0 0 0 0 0 0 0 0 0 0 0 0 127 0" result="hardAlpha"/>
<feOffset dy="-0.2"/>
<feGaussianBlur stdDeviation="1.5"/>
<feComposite in2="hardAlpha" operator="out"/>
<feColorMatrix type="matrix" values="0 0 0 0 0 0 0 0 0 0 0 0 0 0 0 0 0 0 0.12 0"/>
<feBlend mode="normal" in2="BackgroundImageFix" result="effect1_dropShadow_568_2289"/>
<feBlend mode="normal" in="SourceGraphic" in2="effect1_dropShadow_568_2289" result="shape"/>
</filter>
<filter id="filter3_d_568_2289" x="7.16016" y="20.7951" width="43.2812" height="20.1055" filterUnits="userSpaceOnUse" color-interpolation-filters="sRGB">
<feFlood flood-opacity="0" result="BackgroundImageFix"/>
<feColorMatrix in="SourceAlpha" type="matrix" values="0 0 0 0 0 0 0 0 0 0 0 0 0 0 0 0 0 0 127 0" result="hardAlpha"/>
<feOffset dy="-0.2"/>
<feGaussianBlur stdDeviation="1.5"/>
<feComposite in2="hardAlpha" operator="out"/>
<feColorMatrix type="matrix" values="0 0 0 0 0 0 0 0 0 0 0 0 0 0 0 0 0 0 0.12 0"/>
<feBlend mode="normal" in2="BackgroundImageFix" result="effect1_dropShadow_568_2289"/>
<feBlend mode="normal" in="SourceGraphic" in2="effect1_dropShadow_568_2289" result="shape"/>
</filter>
</defs>
</svg>
