<svg width="168" height="48" viewBox="0 0 168 48" fill="none" xmlns="http://www.w3.org/2000/svg">
<path d="M154.103 0.00141098H13.4508C12.933 0.00141098 12.4222 0.00141098 11.9072 0.00423293C11.4741 0.00705488 11.0465 0.0155207 10.6105 0.0225756C9.67083 0.0451512 8.72124 0.103001 7.78294 0.270907C6.839 0.437403 5.96137 0.719598 5.10209 1.15559C4.25692 1.58876 3.48511 2.15033 2.81772 2.81913C2.14327 3.48652 1.58312 4.26115 1.15559 5.10632C0.716776 5.9642 0.438814 6.84606 0.273729 7.79141C0.104412 8.72548 0.0451512 9.66942 0.0211646 10.6148C0.00846586 11.0479 0.00705488 11.4811 0 11.9143C0 12.4251 0 12.9372 0 13.4551V34.5463C0 35.067 0 35.5764 0 36.0899C0.00705488 36.5273 0.00846586 36.9521 0.0211646 37.3909C0.0451512 38.3362 0.104412 39.2816 0.273729 40.2156C0.438814 41.161 0.716776 42.0471 1.15559 42.9021C1.58312 43.7431 2.14327 44.5163 2.81772 45.1795C3.48511 45.8525 4.25692 46.4141 5.10068 46.8416C5.95996 47.2818 6.83759 47.5612 7.78294 47.7319C8.71983 47.8998 9.67083 47.9548 10.6105 47.9817C11.0465 47.9915 11.4755 47.9972 11.9072 47.9972C12.4236 48 12.9344 48 13.4522 48H154.104C154.611 48 155.126 48 155.633 47.9972C156.064 47.9972 156.504 47.9915 156.934 47.9817C157.88 47.9563 158.828 47.8998 159.756 47.7319C160.702 47.5612 161.581 47.2832 162.449 46.8416C163.291 46.4126 164.063 45.8525 164.73 45.1795C165.402 44.5163 165.962 43.7431 166.396 42.9021C166.83 42.0471 167.11 41.161 167.27 40.2156C167.443 39.2816 167.498 38.3362 167.532 37.3909C167.538 36.9521 167.538 36.5288 167.538 36.0899C167.549 35.5778 167.549 35.0684 167.549 34.5463V13.4537C167.549 12.9372 167.549 12.4251 167.538 11.9129C167.538 11.4797 167.538 11.0465 167.532 10.6134C167.5 9.66801 167.445 8.72265 167.27 7.78859C167.11 6.84323 166.83 5.96137 166.396 5.1035C165.96 4.25833 165.402 3.48511 164.73 2.81631C164.063 2.14751 163.292 1.58594 162.449 1.15277C161.581 0.715365 160.702 0.43317 159.756 0.268085C158.828 0.100179 157.88 0.0423293 156.934 0.0183427C156.504 0.0112878 156.064 0.00282195 155.633 0C155.126 0.00141098 154.611 0.00141098 154.103 0.00141098Z" fill="#A6A6A6"/>
<path d="M154.103 0.918945C154.609 0.918945 155.122 0.918945 155.627 0.921767C155.974 0.924589 156.33 0.930233 156.68 0.935877L156.911 0.94011C157.658 0.958453 158.635 1.00219 159.598 1.17574C160.471 1.32813 161.268 1.59057 162.029 1.97294C162.789 2.36378 163.479 2.86609 164.082 3.46999C164.679 4.0626 165.182 4.75398 165.576 5.51873C165.958 6.27924 166.217 7.07221 166.366 7.95831C166.531 8.84722 166.582 9.77564 166.613 10.6265C166.619 11.0554 166.619 11.4857 166.619 11.933C166.63 12.4382 166.63 12.9433 166.63 13.4541V34.5453C166.63 35.0589 166.63 35.5626 166.619 36.0889C166.619 36.5235 166.619 36.944 166.613 37.3574C166.582 38.228 166.531 39.1564 166.363 40.0608C166.215 40.9385 165.957 41.7314 165.58 42.4778C165.18 43.2525 164.676 43.941 164.076 44.5322C163.479 45.1347 162.792 45.6356 162.032 46.0222C161.282 46.4032 160.484 46.6656 159.592 46.8279C158.668 46.9958 157.717 47.0409 156.914 47.0635C156.491 47.0734 156.058 47.079 155.629 47.079C155.124 47.0819 154.61 47.0819 154.105 47.0819H13.4517C12.9367 47.0819 12.4273 47.0819 11.9067 47.079C11.4819 47.079 11.0601 47.0734 10.6354 47.0649C9.82828 47.0423 8.8787 46.9972 7.94604 46.8293C7.05289 46.6684 6.25851 46.4046 5.51634 46.0236C4.75582 45.6384 4.06727 45.1361 3.46055 44.5238C2.86512 43.9382 2.36422 43.2525 1.97197 42.4821C1.59383 41.7441 1.3328 40.9498 1.17618 40.0495C1.00122 39.0887 0.957476 38.1109 0.937722 37.363C0.929257 37.0696 0.925024 36.7831 0.922202 36.4939L0.917969 36.0889V34.5453V13.4541V11.9288L0.923613 11.5069C0.926435 11.2191 0.930668 10.9312 0.939133 10.6392C0.957476 9.89416 1.00263 8.91636 1.179 7.94843C1.33421 7.05951 1.59383 6.26655 1.97479 5.52014C2.36281 4.75398 2.86371 4.06401 3.4676 3.46717C4.06868 2.86468 4.76006 2.36237 5.51775 1.97436C6.27404 1.58916 7.067 1.32813 7.94604 1.17433C8.91115 1.00078 9.89037 0.957042 10.6255 0.938699L10.9049 0.934466C11.2421 0.928822 11.5765 0.923178 11.9123 0.921767C12.4259 0.918945 12.9367 0.918945 13.4517 0.918945H154.103Z" fill="black"/>
<mask id="mask0_568_2738" style="mask-type:luminance" maskUnits="userSpaceOnUse" x="10" y="10" width="37" height="28">
<path d="M46.9374 32.5304V32.9043C46.9374 33.0835 46.9374 33.2627 46.936 33.4419C46.9346 33.5928 46.9332 33.7438 46.929 33.8948C46.9205 34.2235 46.9008 34.5551 46.8429 34.8796C46.7836 35.2098 46.6863 35.5174 46.5339 35.8165C46.3843 36.1114 46.1882 36.3809 45.954 36.6137C45.7198 36.8479 45.4503 37.0427 45.1568 37.1936C44.8577 37.346 44.5501 37.4434 44.2199 37.5026C43.8954 37.5605 43.5638 37.5802 43.235 37.5887C43.0841 37.5929 42.9331 37.5944 42.7821 37.5958C42.6029 37.5972 42.4237 37.5972 42.2445 37.5972L40.1859 37.5958L42.102 37.5972H15.4995L17.4156 37.5958L15.357 37.5972C15.1778 37.5972 14.9986 37.5972 14.8194 37.5958C14.6684 37.5944 14.5174 37.5929 14.3665 37.5887C14.0377 37.5802 13.7061 37.5605 13.3816 37.5026C13.0514 37.4434 12.7453 37.346 12.4447 37.1936C12.1498 37.0441 11.8803 36.8479 11.6475 36.6137C11.4133 36.3795 11.2186 36.11 11.0676 35.8165C10.9152 35.5174 10.8179 35.2098 10.7586 34.8796C10.7007 34.5551 10.681 34.2235 10.6725 33.8948C10.6683 33.7438 10.6669 33.5928 10.6655 33.4419C10.6641 33.2627 10.6641 33.0835 10.6641 32.9043V32.6108V15.3799V17.1437V15.0851C10.6641 14.9059 10.6641 14.7267 10.6655 14.5475C10.6669 14.3965 10.6683 14.2455 10.6725 14.0945C10.681 13.7658 10.7007 13.4342 10.7586 13.1097C10.8179 12.7795 10.9152 12.4719 11.0676 12.1728C11.2172 11.8779 11.4133 11.6084 11.6475 11.3756C11.8817 11.1428 12.1512 10.9467 12.4461 10.7971C12.7453 10.6447 13.0528 10.5474 13.383 10.4881C13.7075 10.4302 14.0391 10.4105 14.3679 10.402C14.5188 10.3978 14.6698 10.3964 14.8208 10.395C15 10.3936 15.1792 10.3936 15.3584 10.3936H17.417H42.1034H42.2445C42.4237 10.3936 42.6029 10.3936 42.7821 10.395C42.9331 10.3964 43.0841 10.3978 43.235 10.402C43.5638 10.4105 43.8954 10.4302 44.2199 10.4881C44.5501 10.5474 44.8562 10.6447 45.1568 10.7971C45.4517 10.9467 45.7212 11.1428 45.954 11.377C46.1882 11.6112 46.3829 11.8807 46.5339 12.1742C46.6863 12.4733 46.7836 12.7809 46.8429 13.1111C46.9008 13.4356 46.9205 13.7672 46.929 14.096C46.9332 14.2469 46.9346 14.3979 46.936 14.5489C46.9374 14.7281 46.9374 14.9073 46.9374 15.0865V15.4604V32.5304Z" fill="white"/>
</mask>
<g mask="url(#mask0_568_2738)">
<path d="M45.7858 11.5264H11.7812V35.204H45.7858V11.5264Z" fill="#DEDBCE"/>
<path d="M45.4254 11.9043H12.1758V26.0098H45.4254V11.9043Z" fill="#40A5D9"/>
<g filter="url(#filter0_d_568_2738)">
<path fill-rule="evenodd" clip-rule="evenodd" d="M45.4215 17.9044C45.4215 17.7901 45.4215 17.6772 45.4215 17.5629C45.4215 17.467 45.4201 17.371 45.4173 17.2751C45.4116 17.0662 45.399 16.856 45.3623 16.65C45.3242 16.4412 45.2635 16.2465 45.1661 16.056C45.0716 15.8697 44.9474 15.6976 44.7979 15.5494C44.6497 15.4013 44.479 15.2771 44.2913 15.1812C44.1009 15.0838 43.9061 15.0231 43.6973 14.985C43.4913 14.9484 43.2811 14.9357 43.0723 14.93C42.9763 14.9272 42.8804 14.9258 42.7844 14.9258C42.6701 14.9258 42.5572 14.9258 42.443 14.9258H42.3498H16.4556H15.1504C15.0362 14.9258 14.9233 14.9258 14.809 14.9258C14.713 14.9258 14.6171 14.9272 14.5212 14.93C14.3123 14.9357 14.1021 14.9484 13.8961 14.985C13.6873 15.0231 13.4925 15.0838 13.3021 15.1812C13.1158 15.2757 12.9437 15.3999 12.7955 15.5494C12.6474 15.6976 12.5232 15.8683 12.4273 16.056C12.3299 16.2465 12.2692 16.4412 12.2311 16.65C12.1945 16.856 12.1818 17.0662 12.1761 17.2751C12.1733 17.371 12.1719 17.467 12.1719 17.5629C12.1719 17.6772 12.1719 17.7901 12.1719 17.9044V19.2095V18.1837V29.0327H45.4215V18.2515V17.9044Z" fill="#FFB003"/>
</g>
<g filter="url(#filter1_d_568_2738)">
<path fill-rule="evenodd" clip-rule="evenodd" d="M45.4215 20.9258C45.4215 20.8115 45.4215 20.6987 45.4215 20.5844C45.4215 20.4884 45.4201 20.3925 45.4173 20.2965C45.4116 20.0877 45.399 19.8775 45.3623 19.6715C45.3242 19.4627 45.2635 19.2679 45.1661 19.0775C45.0716 18.8912 44.9474 18.7191 44.7979 18.5709C44.6497 18.4228 44.479 18.2986 44.2913 18.2027C44.1009 18.1053 43.9061 18.0446 43.6973 18.0065C43.4913 17.9698 43.2811 17.9571 43.0723 17.9515C42.9763 17.9487 42.8804 17.9473 42.7844 17.9473C42.6701 17.9473 42.5572 17.9473 42.443 17.9473H42.3484H16.4556H15.1504C15.0362 17.9473 14.9233 17.9473 14.809 17.9473C14.713 17.9473 14.6171 17.9487 14.5212 17.9515C14.3123 17.9571 14.1021 17.9698 13.8961 18.0065C13.6873 18.0446 13.4925 18.1053 13.3021 18.2027C13.1158 18.2972 12.9437 18.4214 12.7955 18.5709C12.6474 18.7191 12.5232 18.8898 12.4273 19.0775C12.3299 19.2679 12.2692 19.4627 12.2311 19.6715C12.1945 19.8775 12.1818 20.0877 12.1761 20.2965C12.1733 20.3925 12.1719 20.4884 12.1719 20.5844C12.1719 20.6987 12.1719 20.8115 12.1719 20.9258V22.231V21.2052V32.0542H45.4215V21.2729V20.9258Z" fill="#40C740"/>
</g>
<g filter="url(#filter2_d_568_2738)">
<path fill-rule="evenodd" clip-rule="evenodd" d="M45.4215 23.9483C45.4215 23.834 45.4215 23.7211 45.4215 23.6068C45.4215 23.5109 45.4201 23.4149 45.4173 23.319C45.4116 23.1102 45.399 22.8999 45.3623 22.6939C45.3242 22.4851 45.2635 22.2904 45.1661 22.0999C45.0716 21.9137 44.9474 21.7415 44.7979 21.5934C44.6497 21.4452 44.479 21.3211 44.2913 21.2251C44.1009 21.1278 43.9061 21.0671 43.6973 21.029C43.4913 20.9923 43.2811 20.9796 43.0723 20.974C42.9763 20.9711 42.8804 20.9697 42.7844 20.9697C42.6701 20.9697 42.5572 20.9697 42.443 20.9697H42.3484H16.4556H15.1504C15.0362 20.9697 14.9233 20.9697 14.809 20.9697C14.713 20.9697 14.6171 20.9711 14.5212 20.974C14.3123 20.9796 14.1021 20.9923 13.8961 21.029C13.6873 21.0671 13.4925 21.1278 13.3021 21.2251C13.1158 21.3196 12.9437 21.4438 12.7955 21.5934C12.6474 21.7415 12.5232 21.9123 12.4273 22.0999C12.3299 22.2904 12.2692 22.4851 12.2311 22.6939C12.1945 22.8999 12.1818 23.1102 12.1761 23.319C12.1733 23.4149 12.1719 23.5109 12.1719 23.6068C12.1719 23.7211 12.1719 23.834 12.1719 23.9483V25.2534V24.2277V35.0767H45.4215V24.2954V23.9483Z" fill="#F26D5F"/>
</g>
<path fill-rule="evenodd" clip-rule="evenodd" d="M10.1602 9.88965V25.5063H12.175V16.1868V14.8817C12.175 14.7674 12.175 14.6545 12.175 14.5402C12.175 14.4443 12.1764 14.3483 12.1793 14.2524C12.1849 14.0436 12.1976 13.8333 12.2343 13.6273C12.2724 13.4185 12.3331 13.2238 12.4304 13.0333C12.525 12.8471 12.6491 12.6749 12.7987 12.5268C12.9468 12.3786 13.1176 12.2544 13.3052 12.1585C13.4943 12.064 13.689 12.0019 13.8978 11.9652C14.1038 11.9285 14.3141 11.9158 14.5229 11.9102C14.6188 11.9073 14.7148 11.9059 14.8107 11.9059C14.925 11.9059 15.0379 11.9059 15.1522 11.9059H16.4573H42.3473H42.4475C42.5618 11.9059 42.6747 11.9059 42.789 11.9059C42.8849 11.9059 42.9809 11.9073 43.0768 11.9102C43.2856 11.9158 43.4959 11.9285 43.7019 11.9652C43.9107 12.0033 44.1054 12.064 44.2959 12.1613C44.4822 12.2559 44.6543 12.38 44.8024 12.5296C44.9506 12.6777 45.0748 12.8485 45.1707 13.0361C45.2681 13.2266 45.3287 13.4213 45.3668 13.6301C45.4035 13.8361 45.4162 14.0464 45.4219 14.2552C45.4247 14.3512 45.4261 14.4471 45.4261 14.543C45.4261 14.6573 45.4261 14.7702 45.4261 14.8845V16.1897V25.5092H47.441V9.88965H10.1602Z" fill="#D9D6CC"/>
<g filter="url(#filter3_d_568_2738)">
<path fill-rule="evenodd" clip-rule="evenodd" d="M38.0735 23.9951C37.8576 23.9951 37.6403 23.9951 37.4244 23.9965C37.2424 23.9979 37.0604 23.9994 36.8784 24.005C36.4819 24.0163 36.0812 24.0389 35.6889 24.1094C35.2911 24.1814 34.92 24.2985 34.5588 24.4819C34.5122 24.5059 33.5175 24.9574 32.6229 26.3486C31.9442 27.4054 30.6235 28.5258 28.7738 28.5258C26.9254 28.5258 25.6047 27.4054 24.9246 26.3486C23.9835 24.8826 22.9097 24.4424 22.9873 24.4819C22.6261 24.2971 22.255 24.18 21.8571 24.1094C21.4649 24.0389 21.0642 24.0149 20.6677 24.005C20.4857 24.0008 20.3037 23.9979 20.1216 23.9965C19.9058 23.9951 19.6885 23.9951 19.4726 23.9951H10.1602V38.1006H47.4396V23.9951H38.0735Z" fill="#DEDBCE"/>
</g>
</g>
<path d="M54.4727 30.5996V30.5911C54.4727 26.9818 56.5214 24.7285 59.7441 24.7285C62.25 24.7285 64.1322 26.2735 64.4878 28.5198L64.5033 28.5904H62.7551L62.7071 28.4323C62.329 27.1004 61.2722 26.2891 59.7441 26.2891C57.6318 26.2891 56.2773 27.9597 56.2773 30.5911V30.5982C56.2773 33.2296 57.6403 34.9172 59.7441 34.9172C61.2566 34.9172 62.305 34.1284 62.7297 32.6864L62.7551 32.6159H64.5033L64.4948 32.6949C64.1407 34.9567 62.257 36.4777 59.7441 36.4777C56.5214 36.4777 54.4727 34.2075 54.4727 30.5996Z" fill="white"/>
<path d="M65.918 33.932V33.9165C65.918 32.4745 67.0369 31.5926 68.9995 31.4741L71.2529 31.34V30.7178C71.2529 29.8035 70.6617 29.2518 69.6063 29.2518C68.6214 29.2518 68.0147 29.7174 67.8722 30.3792L67.8567 30.4497H66.2481L66.2566 30.3622C66.3737 28.9357 67.6111 27.8408 69.6514 27.8408C71.6776 27.8408 72.9616 28.9118 72.9616 30.5753V36.2883H71.2515V34.9804H71.2204C70.7407 35.8707 69.7798 36.4379 68.6835 36.4379C67.0284 36.4379 65.918 35.422 65.918 33.932ZM69.1477 35.0749C70.347 35.0749 71.2515 34.2636 71.2515 33.1842V32.538L69.2267 32.6635C68.2009 32.7256 67.6337 33.1757 67.6337 33.877V33.8925C67.6351 34.6177 68.2348 35.0749 69.1477 35.0749Z" fill="white"/>
<path d="M74.9727 27.9988H76.6743V29.4169H76.7138C76.9805 28.4475 77.6747 27.8408 78.6214 27.8408C78.8655 27.8408 79.0772 27.8803 79.2126 27.9029V29.4874C79.0772 29.4324 78.7781 29.3929 78.4479 29.3929C77.353 29.3929 76.6743 30.1097 76.6743 31.3471V36.2869H74.9727V27.9988Z" fill="white"/>
<path d="M81.1127 34.1063V29.3542H79.9219V27.9996H81.1127V25.8408H82.8539V27.9996H84.406V29.3542H82.8539V34.0033C82.8539 34.8471 83.232 35.0982 83.9474 35.0982C84.1294 35.0982 84.279 35.0827 84.4045 35.0672V36.3836C84.207 36.4147 83.8853 36.4542 83.5382 36.4542C81.9001 36.4542 81.1127 35.7614 81.1127 34.1063Z" fill="white"/>
<path d="M85.6016 32.1753V32.1669C85.6016 29.5749 87.1 27.8408 89.4239 27.8408C91.7478 27.8408 93.1743 29.5114 93.1743 32.0018V32.5775H87.3032C87.3342 34.1451 88.1949 35.0594 89.5495 35.0594C90.5583 35.0594 91.2271 34.5387 91.4416 33.9165L91.4656 33.8544H93.0812L93.0656 33.9419C92.7975 35.2583 91.5206 36.4548 89.5114 36.4548C87.076 36.4534 85.6016 34.7913 85.6016 32.1753ZM87.3286 31.3711H91.4882C91.3456 29.9361 90.5428 29.2349 89.431 29.2349C88.329 29.2363 87.4782 29.9841 87.3286 31.3711Z" fill="white"/>
<path d="M94.7812 25.7456C94.7812 25.201 95.2229 24.7607 95.7746 24.7607C96.3333 24.7607 96.7679 25.201 96.7679 25.7456C96.7679 26.2804 96.3333 26.722 95.7746 26.722C95.2243 26.722 94.7812 26.2804 94.7812 25.7456ZM94.9238 27.9989H96.6268V36.2884H94.9238V27.9989Z" fill="white"/>
<path d="M98.7422 27.9988H100.444V29.4169H100.483C100.75 28.4475 101.444 27.8408 102.391 27.8408C102.635 27.8408 102.847 27.8803 102.982 27.9029V29.4874C102.847 29.4324 102.548 29.3929 102.217 29.3929C101.123 29.3929 100.444 30.1097 100.444 31.3471V36.2869H98.7422V27.9988Z" fill="white"/>
<path d="M103.895 33.932V33.9165C103.895 32.4745 105.013 31.5926 106.976 31.4741L109.229 31.34V30.7178C109.229 29.8035 108.638 29.2518 107.583 29.2518C106.598 29.2518 105.991 29.7174 105.849 30.3792L105.833 30.4497H104.225L104.233 30.3622C104.35 28.9357 105.588 27.8408 107.628 27.8408C109.654 27.8408 110.938 28.9118 110.938 30.5753V36.2883H109.228V34.9804H109.197C108.717 35.8707 107.756 36.4379 106.66 36.4379C105.005 36.4379 103.895 35.422 103.895 33.932ZM107.124 35.0749C108.324 35.0749 109.228 34.2636 109.228 33.1842V32.538L107.203 32.6635C106.177 32.7256 105.61 33.1757 105.61 33.877V33.8925C105.612 34.6177 106.211 35.0749 107.124 35.0749Z" fill="white"/>
<path d="M120.076 24.918H121.983L126.113 36.289H124.262L123.221 33.2159H118.84L117.793 36.289H115.941L120.076 24.918ZM119.311 31.7979H122.739L121.045 26.8016H121.015L119.311 31.7979Z" fill="white"/>
<path d="M127.203 27.9988H128.905V29.4253H128.944C129.441 28.4405 130.354 27.8408 131.536 27.8408C133.648 27.8408 135.003 29.4959 135.003 32.1429V32.1499C135.003 34.7899 133.64 36.452 131.56 36.452C130.386 36.452 129.432 35.8538 128.944 34.8929H128.905V39.0454H127.203V27.9988ZM133.27 32.1513V32.1443C133.27 30.3792 132.427 29.2998 131.096 29.2998C129.804 29.2998 128.896 30.4187 128.896 32.1443V32.1513C128.896 33.8699 129.811 34.9888 131.096 34.9888C132.435 34.9888 133.27 33.901 133.27 32.1513Z" fill="white"/>
<path d="M136.684 27.9988H138.385V29.4253H138.425C138.921 28.4405 139.834 27.8408 141.017 27.8408C143.129 27.8408 144.483 29.4959 144.483 32.1429V32.1499C144.483 34.7899 143.12 36.452 141.041 36.452C139.867 36.452 138.913 35.8538 138.425 34.8929H138.385V39.0454H136.684V27.9988ZM142.751 32.1513V32.1443C142.751 30.3792 141.907 29.2998 140.576 29.2998C139.284 29.2998 138.377 30.4187 138.377 32.1443V32.1513C138.377 33.8699 139.291 34.9888 140.576 34.9888C141.917 34.9888 142.751 33.901 142.751 32.1513Z" fill="white"/>
<path d="M145.988 24.918H147.69V36.289H145.988V24.918Z" fill="white"/>
<path d="M149.348 32.1753V32.1669C149.348 29.5749 150.846 27.8408 153.17 27.8408C155.494 27.8408 156.92 29.5114 156.92 32.0018V32.5775H151.049C151.08 34.1451 151.941 35.0594 153.296 35.0594C154.304 35.0594 154.973 34.5387 155.188 33.9165L155.21 33.853H156.826L156.81 33.9405C156.542 35.2569 155.265 36.4534 153.256 36.4534C150.822 36.4534 149.348 34.7913 149.348 32.1753ZM151.075 31.3711H155.234C155.092 29.9361 154.289 29.2349 153.177 29.2349C152.075 29.2363 151.223 29.9841 151.075 31.3711Z" fill="white"/>
<path d="M59.536 17.6148H56.1383L55.2805 20.0601H54.1602L57.3095 11.5166H58.3635L61.5128 20.0601H60.3938L59.536 17.6148ZM56.4502 16.709H59.2213L57.8837 12.8965H57.7892L56.4502 16.709Z" fill="white"/>
<path d="M62.1914 16.8679C62.1914 14.8671 63.2511 13.5648 64.8737 13.5648C65.7612 13.5648 66.5132 13.9853 66.8744 14.6837H66.9619V11.1436H67.9806V20.0595H67.0099V19.0408H66.9154C66.5132 19.7505 65.7555 20.171 64.8737 20.171C63.2398 20.1724 62.1914 18.8757 62.1914 16.8679ZM63.2454 16.8679C63.2454 18.3607 63.9438 19.2538 65.1093 19.2538C66.2705 19.2538 66.9873 18.3424 66.9873 16.8679C66.9873 15.4047 66.2635 14.4819 65.1093 14.4819C63.9495 14.4819 63.2454 15.3821 63.2454 16.8679Z" fill="white"/>
<path d="M69.7617 11.7351C69.7617 11.3443 70.082 11.0254 70.4728 11.0254C70.8623 11.0254 71.1826 11.3457 71.1826 11.7351C71.1826 12.1245 70.8623 12.4462 70.4728 12.4462C70.0806 12.4462 69.7617 12.126 69.7617 11.7351ZM69.9621 13.678H70.9808V20.0599H69.9621V13.678Z" fill="white"/>
<path d="M77.1614 15.6306C76.9963 14.997 76.4333 14.482 75.5162 14.482C74.3677 14.482 73.6453 15.3992 73.6453 16.844C73.6453 18.3171 74.3804 19.2539 75.5162 19.2539C76.3741 19.2539 76.9723 18.8575 77.1614 18.135H78.1914C78.008 19.3076 77.0542 20.1711 75.5204 20.1711C73.7313 20.1711 72.5898 18.8744 72.5898 16.844C72.5898 14.8545 73.7271 13.5635 75.5148 13.5635C77.0669 13.5635 78.0136 14.4933 78.19 15.6291L77.1614 15.6306Z" fill="white"/>
<path d="M79.5 11.7351C79.5 11.3443 79.8203 11.0254 80.2111 11.0254C80.6006 11.0254 80.9209 11.3457 80.9209 11.7351C80.9209 12.1245 80.6006 12.4462 80.2111 12.4462C79.8203 12.4462 79.5 12.126 79.5 11.7351ZM79.7018 13.678H80.7205V20.0599H79.7018V13.678Z" fill="white"/>
<path d="M82.332 16.8675C82.332 14.8132 83.4566 13.5645 85.2753 13.5645C87.0927 13.5645 88.2172 14.8132 88.2172 16.8675C88.2172 18.9163 87.0927 20.1706 85.2753 20.1706C83.4566 20.1721 82.332 18.9163 82.332 16.8675ZM87.1632 16.8675C87.1632 15.3522 86.4831 14.4816 85.2753 14.4816C84.0675 14.4816 83.386 15.3522 83.386 16.8675C83.386 18.3773 84.0661 19.2535 85.2753 19.2535C86.4817 19.2535 87.1632 18.3773 87.1632 16.8675Z" fill="white"/>
<path d="M89.7958 13.6773H90.7665V14.6834H90.8611C91.1814 13.9779 91.8022 13.5645 92.7786 13.5645C94.2121 13.5645 95.0108 14.411 95.0108 15.9264V20.0592H93.992V16.1748C93.992 15.0262 93.5053 14.4816 92.4879 14.4816C91.4706 14.4816 90.8117 15.1617 90.8117 16.2806V20.0578H89.793V13.6773H89.7958Z" fill="white"/>
<path d="M96.4766 18.2715C96.4766 17.1286 97.3175 16.4711 98.8033 16.3822L100.645 16.2693V15.6894C100.645 14.9021 100.152 14.4703 99.2012 14.4703C98.4364 14.4703 97.9045 14.761 97.762 15.2633H96.7319C96.8688 14.2389 97.8748 13.5645 99.235 13.5645C100.793 13.5645 101.663 14.3631 101.663 15.6894V20.0592H100.693V19.1181H100.599C100.185 19.7981 99.4862 20.1721 98.6325 20.1721C97.3951 20.1721 96.4766 19.4383 96.4766 18.2715ZM100.646 17.6789V17.0933L98.9288 17.2062C97.9581 17.2711 97.532 17.6083 97.532 18.2475C97.532 18.8994 98.0837 19.2775 98.823 19.2775C99.87 19.2775 100.646 18.5918 100.646 17.6789Z" fill="white"/>
<path d="M103.53 13.6773H104.501V14.6241H104.595C104.785 14.0033 105.518 13.5645 106.365 13.5645C106.531 13.5645 106.744 13.5757 106.874 13.5941V14.6128C106.791 14.5888 106.424 14.5535 106.222 14.5535C105.252 14.5535 104.546 15.204 104.546 16.1042V20.0592H103.527V13.6773H103.53Z" fill="white"/>
<path d="M111.164 18.2719C111.164 17.129 112.005 16.4715 113.491 16.3826L115.332 16.2697V15.6898C115.332 14.9025 114.84 14.4707 113.889 14.4707C113.124 14.4707 112.592 14.7614 112.449 15.2637H111.419C111.556 14.2393 112.562 13.5649 113.923 13.5649C115.48 13.5649 116.351 14.3635 116.351 15.6898V20.0596H115.379V19.1185H115.286C114.871 19.7986 114.172 20.1725 113.319 20.1725C112.081 20.1725 111.164 19.4388 111.164 18.2719ZM112.094 10.7754H113.313L114.36 12.7889H113.46L112.094 10.7754ZM115.332 17.6793V17.0937L113.615 17.2066C112.644 17.2715 112.218 17.6087 112.218 18.2479C112.218 18.8998 112.77 19.2779 113.509 19.2779C114.556 19.2779 115.332 18.5922 115.332 17.6793Z" fill="white"/>
<defs>
<filter id="filter0_d_568_2738" x="9.17188" y="11.7258" width="39.25" height="20.1074" filterUnits="userSpaceOnUse" color-interpolation-filters="sRGB">
<feFlood flood-opacity="0" result="BackgroundImageFix"/>
<feColorMatrix in="SourceAlpha" type="matrix" values="0 0 0 0 0 0 0 0 0 0 0 0 0 0 0 0 0 0 127 0" result="hardAlpha"/>
<feOffset dy="-0.2"/>
<feGaussianBlur stdDeviation="1.5"/>
<feComposite in2="hardAlpha" operator="out"/>
<feColorMatrix type="matrix" values="0 0 0 0 0 0 0 0 0 0 0 0 0 0 0 0 0 0 0.12 0"/>
<feBlend mode="normal" in2="BackgroundImageFix" result="effect1_dropShadow_568_2738"/>
<feBlend mode="normal" in="SourceGraphic" in2="effect1_dropShadow_568_2738" result="shape"/>
</filter>
<filter id="filter1_d_568_2738" x="9.17188" y="14.7473" width="39.25" height="20.1074" filterUnits="userSpaceOnUse" color-interpolation-filters="sRGB">
<feFlood flood-opacity="0" result="BackgroundImageFix"/>
<feColorMatrix in="SourceAlpha" type="matrix" values="0 0 0 0 0 0 0 0 0 0 0 0 0 0 0 0 0 0 127 0" result="hardAlpha"/>
<feOffset dy="-0.2"/>
<feGaussianBlur stdDeviation="1.5"/>
<feComposite in2="hardAlpha" operator="out"/>
<feColorMatrix type="matrix" values="0 0 0 0 0 0 0 0 0 0 0 0 0 0 0 0 0 0 0.12 0"/>
<feBlend mode="normal" in2="BackgroundImageFix" result="effect1_dropShadow_568_2738"/>
<feBlend mode="normal" in="SourceGraphic" in2="effect1_dropShadow_568_2738" result="shape"/>
</filter>
<filter id="filter2_d_568_2738" x="9.17188" y="17.7697" width="39.25" height="20.1074" filterUnits="userSpaceOnUse" color-interpolation-filters="sRGB">
<feFlood flood-opacity="0" result="BackgroundImageFix"/>
<feColorMatrix in="SourceAlpha" type="matrix" values="0 0 0 0 0 0 0 0 0 0 0 0 0 0 0 0 0 0 127 0" result="hardAlpha"/>
<feOffset dy="-0.2"/>
<feGaussianBlur stdDeviation="1.5"/>
<feComposite in2="hardAlpha" operator="out"/>
<feColorMatrix type="matrix" values="0 0 0 0 0 0 0 0 0 0 0 0 0 0 0 0 0 0 0.12 0"/>
<feBlend mode="normal" in2="BackgroundImageFix" result="effect1_dropShadow_568_2738"/>
<feBlend mode="normal" in="SourceGraphic" in2="effect1_dropShadow_568_2738" result="shape"/>
</filter>
<filter id="filter3_d_568_2738" x="7.16016" y="20.7951" width="43.2812" height="20.1055" filterUnits="userSpaceOnUse" color-interpolation-filters="sRGB">
<feFlood flood-opacity="0" result="BackgroundImageFix"/>
<feColorMatrix in="SourceAlpha" type="matrix" values="0 0 0 0 0 0 0 0 0 0 0 0 0 0 0 0 0 0 127 0" result="hardAlpha"/>
<feOffset dy="-0.2"/>
<feGaussianBlur stdDeviation="1.5"/>
<feComposite in2="hardAlpha" operator="out"/>
<feColorMatrix type="matrix" values="0 0 0 0 0 0 0 0 0 0 0 0 0 0 0 0 0 0 0.12 0"/>
<feBlend mode="normal" in2="BackgroundImageFix" result="effect1_dropShadow_568_2738"/>
<feBlend mode="normal" in="SourceGraphic" in2="effect1_dropShadow_568_2738" result="shape"/>
</filter>
</defs>
</svg>
