<svg width="178" height="48" viewBox="0 0 178 48" fill="none" xmlns="http://www.w3.org/2000/svg">
<path d="M164.043 0.00141098H13.4508C12.933 0.00141098 12.4222 0.00141098 11.9072 0.00423293C11.4741 0.00705488 11.0465 0.0155207 10.6105 0.0225756C9.67083 0.0451512 8.72124 0.103001 7.78294 0.270907C6.839 0.437403 5.96137 0.719598 5.10209 1.15559C4.25692 1.58876 3.48511 2.15033 2.81772 2.81913C2.14327 3.48652 1.58312 4.26115 1.15559 5.10632C0.716776 5.9642 0.438814 6.84606 0.273729 7.79141C0.104412 8.72548 0.0451512 9.66942 0.0211646 10.6148C0.00846586 11.0479 0.00705488 11.4811 0 11.9143C0 12.4251 0 12.9372 0 13.4551V34.5463C0 35.067 0 35.5764 0 36.0899C0.00705488 36.5273 0.00846586 36.9521 0.0211646 37.3909C0.0451512 38.3362 0.104412 39.2816 0.273729 40.2156C0.438814 41.161 0.716776 42.0471 1.15559 42.9021C1.58312 43.7431 2.14327 44.5163 2.81772 45.1795C3.48511 45.8525 4.25692 46.4141 5.10068 46.8416C5.95996 47.2818 6.83759 47.5612 7.78294 47.7319C8.71983 47.8998 9.67083 47.9548 10.6105 47.9817C11.0465 47.9915 11.4755 47.9972 11.9072 47.9972C12.4236 48 12.9344 48 13.4522 48H164.044C164.551 48 165.066 48 165.574 47.9972C166.004 47.9972 166.444 47.9915 166.875 47.9817C167.82 47.9563 168.768 47.8998 169.697 47.7319C170.642 47.5612 171.521 47.2832 172.389 46.8416C173.231 46.4126 174.003 45.8525 174.67 45.1795C175.342 44.5163 175.902 43.7431 176.337 42.9021C176.77 42.0471 177.051 41.161 177.21 40.2156C177.384 39.2816 177.439 38.3362 177.473 37.3909C177.478 36.9521 177.478 36.5288 177.478 36.0899C177.49 35.5778 177.49 35.0684 177.49 34.5463V13.4537C177.49 12.9372 177.49 12.4251 177.478 11.9129C177.478 11.4797 177.478 11.0465 177.473 10.6134C177.44 9.66801 177.385 8.72265 177.21 7.78859C177.051 6.84323 176.77 5.96137 176.337 5.1035C175.901 4.25833 175.342 3.48511 174.67 2.81631C174.003 2.14751 173.233 1.58594 172.389 1.15277C171.521 0.715365 170.642 0.43317 169.697 0.268085C168.768 0.100179 167.82 0.0423293 166.875 0.0183427C166.444 0.0112878 166.004 0.00282195 165.574 0C165.066 0.00141098 164.551 0.00141098 164.043 0.00141098Z" fill="#A6A6A6"/>
<path d="M164.044 0.918945C164.549 0.918945 165.062 0.918945 165.568 0.921767C165.915 0.924589 166.27 0.930233 166.62 0.935877L166.852 0.94011C167.598 0.958453 168.576 1.00219 169.538 1.17574C170.411 1.32813 171.209 1.59057 171.969 1.97294C172.73 2.36378 173.42 2.86609 174.022 3.46999C174.619 4.0626 175.123 4.75398 175.516 5.51873C175.899 6.27924 176.157 7.07221 176.307 7.95831C176.472 8.84722 176.522 9.77564 176.553 10.6265C176.559 11.0554 176.559 11.4857 176.559 11.933C176.57 12.4382 176.57 12.9433 176.57 13.4541V34.5453C176.57 35.0589 176.57 35.5626 176.559 36.0889C176.559 36.5235 176.559 36.944 176.553 37.3574C176.522 38.228 176.472 39.1564 176.304 40.0608C176.156 40.9385 175.897 41.7314 175.521 42.4778C175.12 43.2525 174.616 43.941 174.017 44.5322C173.42 45.1347 172.733 45.6356 171.972 46.0222C171.223 46.4032 170.424 46.6656 169.532 46.8279C168.608 46.9958 167.657 47.0409 166.854 47.0635C166.431 47.0734 165.998 47.079 165.569 47.079C165.064 47.0819 164.55 47.0819 164.045 47.0819H13.4517C12.9367 47.0819 12.4273 47.0819 11.9067 47.079C11.4819 47.079 11.0601 47.0734 10.6354 47.0649C9.82828 47.0423 8.8787 46.9972 7.94604 46.8293C7.05289 46.6684 6.25851 46.4046 5.51634 46.0236C4.75582 45.6384 4.06727 45.1361 3.46055 44.5238C2.86512 43.9382 2.36422 43.2525 1.97197 42.4821C1.59383 41.7441 1.3328 40.9498 1.17618 40.0495C1.00122 39.0887 0.957476 38.1109 0.937722 37.363C0.929257 37.0696 0.925024 36.7831 0.922202 36.4939L0.917969 36.0889V34.5453V13.4541V11.9288L0.923613 11.5069C0.926435 11.2191 0.930668 10.9312 0.939133 10.6392C0.957476 9.89416 1.00263 8.91636 1.179 7.94843C1.33421 7.05951 1.59383 6.26655 1.97479 5.52014C2.36281 4.75398 2.86371 4.06401 3.4676 3.46717C4.06868 2.86468 4.76006 2.36237 5.51775 1.97436C6.27404 1.58916 7.067 1.32813 7.94604 1.17433C8.91115 1.00078 9.89037 0.957042 10.6255 0.938699L10.9049 0.934466C11.2421 0.928822 11.5765 0.923178 11.9123 0.921767C12.4259 0.918945 12.9367 0.918945 13.4517 0.918945H164.044Z" fill="black"/>
<mask id="mask0_568_1995" style="mask-type:luminance" maskUnits="userSpaceOnUse" x="10" y="10" width="37" height="28">
<path d="M46.9374 32.5304V32.9043C46.9374 33.0835 46.9374 33.2627 46.936 33.4419C46.9346 33.5928 46.9332 33.7438 46.929 33.8948C46.9205 34.2235 46.9008 34.5551 46.8429 34.8796C46.7837 35.2098 46.6863 35.5174 46.5339 35.8165C46.3843 36.1114 46.1882 36.3809 45.954 36.6137C45.7198 36.8479 45.4503 37.0427 45.1568 37.1936C44.8577 37.346 44.5501 37.4434 44.2199 37.5026C43.8954 37.5605 43.5638 37.5802 43.235 37.5887C43.0841 37.5929 42.9331 37.5944 42.7821 37.5958C42.6029 37.5972 42.4237 37.5972 42.2445 37.5972L40.1859 37.5958L42.102 37.5972H15.4995L17.4156 37.5958L15.357 37.5972C15.1778 37.5972 14.9986 37.5972 14.8194 37.5958C14.6684 37.5944 14.5174 37.5929 14.3665 37.5887C14.0377 37.5802 13.7061 37.5605 13.3816 37.5026C13.0514 37.4434 12.7453 37.346 12.4447 37.1936C12.1498 37.0441 11.8803 36.8479 11.6475 36.6137C11.4133 36.3795 11.2186 36.11 11.0676 35.8165C10.9152 35.5174 10.8179 35.2098 10.7586 34.8796C10.7007 34.5551 10.681 34.2235 10.6725 33.8948C10.6683 33.7438 10.6669 33.5928 10.6655 33.4419C10.6641 33.2627 10.6641 33.0835 10.6641 32.9043V32.6108V15.3799V17.1437V15.0851C10.6641 14.9059 10.6641 14.7267 10.6655 14.5475C10.6669 14.3965 10.6683 14.2455 10.6725 14.0945C10.681 13.7658 10.7007 13.4342 10.7586 13.1097C10.8179 12.7795 10.9152 12.4719 11.0676 12.1728C11.2172 11.8779 11.4133 11.6084 11.6475 11.3756C11.8817 11.1428 12.1512 10.9467 12.4461 10.7971C12.7453 10.6447 13.0528 10.5474 13.383 10.4881C13.7075 10.4302 14.0391 10.4105 14.3679 10.402C14.5189 10.3978 14.6698 10.3964 14.8208 10.395C15 10.3936 15.1792 10.3936 15.3584 10.3936H17.417H42.1034H42.2445C42.4237 10.3936 42.6029 10.3936 42.7821 10.395C42.9331 10.3964 43.0841 10.3978 43.235 10.402C43.5638 10.4105 43.8954 10.4302 44.2199 10.4881C44.5501 10.5474 44.8563 10.6447 45.1568 10.7971C45.4517 10.9467 45.7212 11.1428 45.954 11.377C46.1882 11.6112 46.3829 11.8807 46.5339 12.1742C46.6863 12.4733 46.7837 12.7809 46.8429 13.1111C46.9008 13.4356 46.9205 13.7672 46.929 14.096C46.9332 14.2469 46.9346 14.3979 46.936 14.5489C46.9374 14.7281 46.9374 14.9073 46.9374 15.0865V15.4604V32.5304Z" fill="white"/>
</mask>
<g mask="url(#mask0_568_1995)">
<path d="M45.7858 11.5264H11.7812V35.204H45.7858V11.5264Z" fill="#DEDBCE"/>
<path d="M45.4254 11.9043H12.1758V26.0098H45.4254V11.9043Z" fill="#40A5D9"/>
<g filter="url(#filter0_d_568_1995)">
<path fill-rule="evenodd" clip-rule="evenodd" d="M45.4215 17.9044C45.4215 17.7901 45.4215 17.6772 45.4215 17.5629C45.4215 17.467 45.4201 17.371 45.4173 17.2751C45.4117 17.0662 45.399 16.856 45.3623 16.65C45.3242 16.4412 45.2635 16.2465 45.1661 16.056C45.0716 15.8697 44.9474 15.6976 44.7979 15.5494C44.6497 15.4013 44.479 15.2771 44.2913 15.1812C44.1009 15.0838 43.9061 15.0231 43.6973 14.985C43.4913 14.9484 43.2811 14.9357 43.0723 14.93C42.9763 14.9272 42.8804 14.9258 42.7844 14.9258C42.6701 14.9258 42.5573 14.9258 42.443 14.9258H42.3498H16.4556H15.1504C15.0362 14.9258 14.9233 14.9258 14.809 14.9258C14.713 14.9258 14.6171 14.9272 14.5212 14.93C14.3123 14.9357 14.1021 14.9484 13.8961 14.985C13.6873 15.0231 13.4925 15.0838 13.3021 15.1812C13.1158 15.2757 12.9437 15.3999 12.7955 15.5494C12.6474 15.6976 12.5232 15.8683 12.4273 16.056C12.3299 16.2465 12.2692 16.4412 12.2311 16.65C12.1945 16.856 12.1818 17.0662 12.1761 17.2751C12.1733 17.371 12.1719 17.467 12.1719 17.5629C12.1719 17.6772 12.1719 17.7901 12.1719 17.9044V19.2095V18.1837V29.0327H45.4215V18.2515V17.9044Z" fill="#FFB003"/>
</g>
<g filter="url(#filter1_d_568_1995)">
<path fill-rule="evenodd" clip-rule="evenodd" d="M45.4215 20.9258C45.4215 20.8115 45.4215 20.6987 45.4215 20.5844C45.4215 20.4884 45.4201 20.3925 45.4173 20.2965C45.4117 20.0877 45.399 19.8775 45.3623 19.6715C45.3242 19.4627 45.2635 19.2679 45.1661 19.0775C45.0716 18.8912 44.9474 18.7191 44.7979 18.5709C44.6497 18.4228 44.479 18.2986 44.2913 18.2027C44.1009 18.1053 43.9061 18.0446 43.6973 18.0065C43.4913 17.9698 43.2811 17.9571 43.0723 17.9515C42.9763 17.9487 42.8804 17.9473 42.7844 17.9473C42.6701 17.9473 42.5573 17.9473 42.443 17.9473H42.3484H16.4556H15.1504C15.0362 17.9473 14.9233 17.9473 14.809 17.9473C14.713 17.9473 14.6171 17.9487 14.5212 17.9515C14.3123 17.9571 14.1021 17.9698 13.8961 18.0065C13.6873 18.0446 13.4925 18.1053 13.3021 18.2027C13.1158 18.2972 12.9437 18.4214 12.7955 18.5709C12.6474 18.7191 12.5232 18.8898 12.4273 19.0775C12.3299 19.2679 12.2692 19.4627 12.2311 19.6715C12.1945 19.8775 12.1818 20.0877 12.1761 20.2965C12.1733 20.3925 12.1719 20.4884 12.1719 20.5844C12.1719 20.6987 12.1719 20.8115 12.1719 20.9258V22.231V21.2052V32.0542H45.4215V21.2729V20.9258Z" fill="#40C740"/>
</g>
<g filter="url(#filter2_d_568_1995)">
<path fill-rule="evenodd" clip-rule="evenodd" d="M45.4215 23.9483C45.4215 23.834 45.4215 23.7211 45.4215 23.6068C45.4215 23.5109 45.4201 23.4149 45.4173 23.319C45.4117 23.1102 45.399 22.8999 45.3623 22.6939C45.3242 22.4851 45.2635 22.2904 45.1661 22.0999C45.0716 21.9137 44.9474 21.7415 44.7979 21.5934C44.6497 21.4452 44.479 21.3211 44.2913 21.2251C44.1009 21.1278 43.9061 21.0671 43.6973 21.029C43.4913 20.9923 43.2811 20.9796 43.0723 20.974C42.9763 20.9711 42.8804 20.9697 42.7844 20.9697C42.6701 20.9697 42.5573 20.9697 42.443 20.9697H42.3484H16.4556H15.1504C15.0362 20.9697 14.9233 20.9697 14.809 20.9697C14.713 20.9697 14.6171 20.9711 14.5212 20.974C14.3123 20.9796 14.1021 20.9923 13.8961 21.029C13.6873 21.0671 13.4925 21.1278 13.3021 21.2251C13.1158 21.3196 12.9437 21.4438 12.7955 21.5934C12.6474 21.7415 12.5232 21.9123 12.4273 22.0999C12.3299 22.2904 12.2692 22.4851 12.2311 22.6939C12.1945 22.8999 12.1818 23.1102 12.1761 23.319C12.1733 23.4149 12.1719 23.5109 12.1719 23.6068C12.1719 23.7211 12.1719 23.834 12.1719 23.9483V25.2534V24.2277V35.0767H45.4215V24.2954V23.9483Z" fill="#F26D5F"/>
</g>
<path fill-rule="evenodd" clip-rule="evenodd" d="M10.1602 9.88965V25.5063H12.175V16.1868V14.8817C12.175 14.7674 12.175 14.6545 12.175 14.5402C12.175 14.4443 12.1764 14.3483 12.1793 14.2524C12.1849 14.0436 12.1976 13.8333 12.2343 13.6273C12.2724 13.4185 12.3331 13.2238 12.4304 13.0333C12.525 12.8471 12.6491 12.6749 12.7987 12.5268C12.9468 12.3786 13.1176 12.2544 13.3052 12.1585C13.4943 12.064 13.689 12.0019 13.8978 11.9652C14.1038 11.9285 14.3141 11.9158 14.5229 11.9102C14.6188 11.9073 14.7148 11.9059 14.8107 11.9059C14.925 11.9059 15.0379 11.9059 15.1522 11.9059H16.4573H42.3474H42.4475C42.5618 11.9059 42.6747 11.9059 42.789 11.9059C42.8849 11.9059 42.9809 11.9073 43.0768 11.9102C43.2857 11.9158 43.4959 11.9285 43.7019 11.9652C43.9107 12.0033 44.1054 12.064 44.2959 12.1613C44.4822 12.2559 44.6543 12.38 44.8024 12.5296C44.9506 12.6777 45.0748 12.8485 45.1707 13.0361C45.2681 13.2266 45.3287 13.4213 45.3668 13.6301C45.4035 13.8361 45.4162 14.0464 45.4219 14.2552C45.4247 14.3512 45.4261 14.4471 45.4261 14.543C45.4261 14.6573 45.4261 14.7702 45.4261 14.8845V16.1897V25.5092H47.441V9.88965H10.1602Z" fill="#D9D6CC"/>
<g filter="url(#filter3_d_568_1995)">
<path fill-rule="evenodd" clip-rule="evenodd" d="M38.0735 23.9951C37.8576 23.9951 37.6403 23.9951 37.4245 23.9965C37.2424 23.9979 37.0604 23.9994 36.8784 24.005C36.4819 24.0163 36.0812 24.0389 35.689 24.1094C35.2911 24.1814 34.92 24.2985 34.5588 24.4819C34.5122 24.5059 33.5175 24.9574 32.6229 26.3486C31.9442 27.4054 30.6235 28.5258 28.7738 28.5258C26.9254 28.5258 25.6047 27.4054 24.9246 26.3486C23.9835 24.8826 22.9097 24.4424 22.9873 24.4819C22.6261 24.2971 22.255 24.18 21.8571 24.1094C21.4649 24.0389 21.0642 24.0149 20.6677 24.005C20.4857 24.0008 20.3037 23.9979 20.1216 23.9965C19.9058 23.9951 19.6885 23.9951 19.4726 23.9951H10.1602V38.1006H47.4396V23.9951H38.0735Z" fill="#DEDBCE"/>
</g>
</g>
<path d="M58.1746 24.9189H60.0823L64.2108 36.29H62.3596L61.3197 33.2169H56.9386L55.8903 36.29H54.0391L58.1746 24.9189ZM57.4099 31.7975H60.8371L59.1426 26.8026H59.1115L57.4099 31.7975Z" fill="white"/>
<path d="M65.3008 28.0004H67.0024V29.4269H67.0419C67.5386 28.442 68.4529 27.8438 69.6339 27.8438C71.7461 27.8438 73.1021 29.4974 73.1021 32.1458V32.1543C73.1021 34.7928 71.7391 36.4563 69.6593 36.4563C68.4854 36.4563 67.5315 35.8567 67.0433 34.8972H67.0038V39.0497H65.3022L65.3008 28.0004ZM71.368 32.1529V32.1444C71.368 30.3793 70.5242 29.2985 69.1923 29.2985C67.8998 29.2985 66.9939 30.4188 66.9939 32.1444V32.1529C66.9939 33.87 67.9083 34.9889 69.1923 34.9889C70.5327 34.9889 71.368 33.9011 71.368 32.1529Z" fill="white"/>
<path d="M74.7852 28.0004H76.4868V29.4269H76.5263C77.023 28.442 77.9373 27.8438 79.1183 27.8438C81.2305 27.8438 82.5864 29.4974 82.5864 32.1458V32.1543C82.5864 34.7928 81.2234 36.4563 79.1437 36.4563C77.9697 36.4563 77.0159 35.8567 76.5277 34.8972H76.4882V39.0497H74.7866L74.7852 28.0004ZM80.8524 32.1529V32.1444C80.8524 30.3793 80.0086 29.2985 78.6766 29.2985C77.3842 29.2985 76.4783 30.4188 76.4783 32.1444V32.1529C76.4783 33.87 77.3926 34.9889 78.6766 34.9889C80.0171 34.9889 80.8524 33.9011 80.8524 32.1529Z" fill="white"/>
<path d="M84.0859 24.9189H85.789V36.29H84.0859V24.9189Z" fill="white"/>
<path d="M87.4453 32.1769V32.1684C87.4453 29.5764 88.9424 27.8438 91.2662 27.8438C93.5901 27.8438 95.0166 29.5143 95.0166 32.0033V32.5776H89.147C89.178 34.1452 90.0373 35.0609 91.3918 35.0609C92.4007 35.0609 93.0695 34.5402 93.2825 33.918L93.3065 33.8545H94.9235L94.9066 33.942C94.6399 35.2584 93.3615 36.4549 91.3523 36.4549C88.9198 36.4549 87.4453 34.7914 87.4453 32.1769ZM89.1709 31.3726H93.3319C93.1894 29.9376 92.3851 29.2364 91.2747 29.2364C90.1727 29.2378 89.3205 29.9856 89.1709 31.3726Z" fill="white"/>
<path d="M101.129 24.9189H102.759L108.607 33.327H108.654V24.9189H110.403V36.29H108.779L102.925 27.8665H102.879V36.29H101.13V24.9189H101.129Z" fill="white"/>
<path d="M112.293 32.1439V32.1269C112.293 29.4799 113.861 27.8418 116.217 27.8418C118.582 27.8418 120.156 29.4715 120.156 32.1269V32.1439C120.156 34.8163 118.597 36.4544 116.225 36.4544C113.845 36.4544 112.293 34.8078 112.293 32.1439ZM118.415 32.1439V32.1269C118.415 30.3152 117.549 29.2683 116.215 29.2683C114.908 29.2683 114.033 30.3152 114.033 32.1269V32.1439C114.033 33.9795 114.899 35.0279 116.231 35.0279C117.564 35.0279 118.415 33.9725 118.415 32.1439Z" fill="white"/>
<path d="M120.82 28H122.633L124.713 34.6259H124.753L126.834 28H128.606L125.636 36.2895H123.809L120.82 28Z" fill="white"/>
<path d="M129.336 32.1359V32.1274C129.336 29.5044 130.881 27.8423 133.246 27.8423C135.381 27.8423 136.673 29.2137 136.814 30.7729L136.823 30.8279H135.2L135.183 30.7644C135.002 29.9531 134.372 29.2673 133.261 29.2673C131.938 29.2673 131.078 30.3693 131.078 32.1429V32.1514C131.078 33.9631 131.953 35.0269 133.27 35.0269C134.317 35.0269 134.987 34.4202 135.191 33.5228L135.2 33.4594H136.838L136.831 33.5144C136.649 35.1779 135.263 36.4534 133.27 36.4534C130.849 36.4549 129.336 34.7913 129.336 32.1359ZM134.001 27.062H132.535L130.706 24.5801H132.062L133.275 26.2577L134.465 24.5801H135.821L134.001 27.062Z" fill="white"/>
<path d="M138.078 33.9335V33.918C138.078 32.476 139.197 31.5941 141.16 31.4756L143.413 31.3416V30.7193C143.413 29.805 142.822 29.2533 141.766 29.2533C140.782 29.2533 140.175 29.7189 140.032 30.3807L140.017 30.4512H138.408L138.417 30.3652C138.534 28.9373 139.771 27.8438 141.812 27.8438C143.838 27.8438 145.122 28.9147 145.122 30.5782V36.2913H143.412V34.9833H143.381C142.901 35.8736 141.94 36.4408 140.844 36.4408C139.189 36.4394 138.078 35.4221 138.078 33.9335ZM141.308 35.075C142.507 35.075 143.412 34.2637 143.412 33.1843V32.5395L141.387 32.6651C140.361 32.7285 139.794 33.1772 139.794 33.8785V33.8954C139.795 34.6193 140.395 35.075 141.308 35.075Z" fill="white"/>
<path d="M147.133 28.0004H148.834V29.2533H148.874C149.307 28.4096 150.158 27.8438 151.411 27.8438C153.231 27.8438 154.279 29.0177 154.279 30.9253V36.2913H152.569V31.2484C152.569 30.0025 151.987 29.3013 150.804 29.3013C149.606 29.3013 148.834 30.169 148.834 31.4601V36.2913H147.133V28.0004Z" fill="white"/>
<path d="M156.211 25.7456C156.211 25.2024 156.653 24.7607 157.204 24.7607C157.763 24.7607 158.198 25.2024 158.198 25.7456C158.198 26.2818 157.763 26.722 157.204 26.722C156.653 26.722 156.211 26.2818 156.211 25.7456ZM156.352 28.0003H158.055V36.2898H156.352V28.0003Z" fill="white"/>
<path d="M160.27 24.9189H161.971V31.5378H162.009L165.335 27.9991H167.336L163.932 31.5759L167.47 36.2886H165.493L162.679 32.6017L161.971 33.303V36.2886H160.27V24.9189Z" fill="white"/>
<path d="M54.8398 11.5166H57.7704C60.3046 11.5166 61.803 13.0969 61.803 15.7792V15.7919C61.803 18.4798 60.3102 20.0601 57.7704 20.0601H54.8398V11.5166ZM57.6999 19.1006C59.6061 19.1006 60.7137 17.8815 60.7137 15.8031V15.7904C60.7137 13.705 59.5948 12.4747 57.6999 12.4747H55.9065V19.0992H57.6999V19.1006Z" fill="white"/>
<path d="M63.1797 16.8746V16.8633C63.1797 14.8146 64.3042 13.5645 66.1216 13.5645C67.9403 13.5645 69.0635 14.8146 69.0635 16.8633V16.8746C69.0635 18.9177 67.9389 20.1735 66.1216 20.1735C64.3056 20.1735 63.1797 18.9177 63.1797 16.8746ZM68.0123 16.8746V16.8633C68.0123 15.3536 67.3308 14.4774 66.123 14.4774C64.9152 14.4774 64.2351 15.3536 64.2351 16.8633V16.8746C64.2351 18.3787 64.9152 19.2606 66.123 19.2606C67.3308 19.2606 68.0123 18.3787 68.0123 16.8746Z" fill="white"/>
<path d="M70.3281 16.874V16.8627C70.3281 14.8605 71.3821 13.5638 73.0047 13.5638C73.881 13.5638 74.6443 14.0026 74.9942 14.6827H75.0888V11.1426H76.1188V20.0585H75.0888V19.0398H74.9942C74.6034 19.7509 73.8937 20.1714 73.0047 20.1714C71.3878 20.1728 70.3281 18.8634 70.3281 16.874ZM75.1127 16.874V16.8627C75.1127 15.3882 74.403 14.4767 73.2418 14.4767C72.0749 14.4767 71.3835 15.3769 71.3835 16.8627V16.874C71.3835 18.3611 72.0763 19.2599 73.2418 19.2599C74.403 19.2599 75.1127 18.3484 75.1127 16.874Z" fill="white"/>
<path d="M77.7031 18.2781V18.2654C77.7031 17.1281 78.5441 16.472 80.0298 16.3831L81.8585 16.2703V15.6904C81.8585 14.9016 81.3787 14.4769 80.4249 14.4769C79.6616 14.4769 79.1578 14.7605 78.9928 15.2586L78.9871 15.2769H77.9571L77.9627 15.2417C78.1292 14.2413 79.1 13.5654 80.4616 13.5654C82.0193 13.5654 82.8885 14.364 82.8885 15.6918V20.0616H81.8585V19.1204H81.7639C81.3604 19.8005 80.6916 20.1744 79.8337 20.1744C78.6217 20.173 77.7031 19.4379 77.7031 18.2781ZM80.0482 19.2785C81.0965 19.2785 81.8599 18.5913 81.8599 17.6798V17.0999L80.1554 17.2057C79.1846 17.265 78.7585 17.6079 78.7585 18.2414V18.2527C78.7571 18.9003 79.3088 19.2785 80.0482 19.2785Z" fill="white"/>
<path d="M83.668 22.2516V21.3401H83.8218C84.5146 21.3401 84.7756 21.0974 84.7756 20.3933V13.6771H85.8056V20.3735C85.8056 21.6886 85.1848 22.2501 83.8458 22.2501H83.668V22.2516ZM84.5795 11.7355C84.5795 11.3447 84.8997 11.0244 85.2906 11.0244C85.6814 11.0244 86.0003 11.3447 86.0003 11.7355C86.0003 12.125 85.68 12.4453 85.2906 12.4453C84.8997 12.4453 84.5795 12.1264 84.5795 11.7355Z" fill="white"/>
<path d="M91.0664 17.8095V13.6768H92.0964V17.5612C92.0964 18.7083 92.5112 19.26 93.53 19.26C94.6545 19.26 95.2528 18.5728 95.2528 17.4539V13.6768H96.2828V20.0586H95.2528V19.1062H95.1582C94.845 19.7863 94.1988 20.1729 93.2633 20.1729C91.8128 20.1729 91.0664 19.3193 91.0664 17.8095Z" fill="white"/>
<defs>
<filter id="filter0_d_568_1995" x="9.17188" y="11.7258" width="39.25" height="20.1074" filterUnits="userSpaceOnUse" color-interpolation-filters="sRGB">
<feFlood flood-opacity="0" result="BackgroundImageFix"/>
<feColorMatrix in="SourceAlpha" type="matrix" values="0 0 0 0 0 0 0 0 0 0 0 0 0 0 0 0 0 0 127 0" result="hardAlpha"/>
<feOffset dy="-0.2"/>
<feGaussianBlur stdDeviation="1.5"/>
<feComposite in2="hardAlpha" operator="out"/>
<feColorMatrix type="matrix" values="0 0 0 0 0 0 0 0 0 0 0 0 0 0 0 0 0 0 0.12 0"/>
<feBlend mode="normal" in2="BackgroundImageFix" result="effect1_dropShadow_568_1995"/>
<feBlend mode="normal" in="SourceGraphic" in2="effect1_dropShadow_568_1995" result="shape"/>
</filter>
<filter id="filter1_d_568_1995" x="9.17188" y="14.7473" width="39.25" height="20.1074" filterUnits="userSpaceOnUse" color-interpolation-filters="sRGB">
<feFlood flood-opacity="0" result="BackgroundImageFix"/>
<feColorMatrix in="SourceAlpha" type="matrix" values="0 0 0 0 0 0 0 0 0 0 0 0 0 0 0 0 0 0 127 0" result="hardAlpha"/>
<feOffset dy="-0.2"/>
<feGaussianBlur stdDeviation="1.5"/>
<feComposite in2="hardAlpha" operator="out"/>
<feColorMatrix type="matrix" values="0 0 0 0 0 0 0 0 0 0 0 0 0 0 0 0 0 0 0.12 0"/>
<feBlend mode="normal" in2="BackgroundImageFix" result="effect1_dropShadow_568_1995"/>
<feBlend mode="normal" in="SourceGraphic" in2="effect1_dropShadow_568_1995" result="shape"/>
</filter>
<filter id="filter2_d_568_1995" x="9.17188" y="17.7697" width="39.25" height="20.1074" filterUnits="userSpaceOnUse" color-interpolation-filters="sRGB">
<feFlood flood-opacity="0" result="BackgroundImageFix"/>
<feColorMatrix in="SourceAlpha" type="matrix" values="0 0 0 0 0 0 0 0 0 0 0 0 0 0 0 0 0 0 127 0" result="hardAlpha"/>
<feOffset dy="-0.2"/>
<feGaussianBlur stdDeviation="1.5"/>
<feComposite in2="hardAlpha" operator="out"/>
<feColorMatrix type="matrix" values="0 0 0 0 0 0 0 0 0 0 0 0 0 0 0 0 0 0 0.12 0"/>
<feBlend mode="normal" in2="BackgroundImageFix" result="effect1_dropShadow_568_1995"/>
<feBlend mode="normal" in="SourceGraphic" in2="effect1_dropShadow_568_1995" result="shape"/>
</filter>
<filter id="filter3_d_568_1995" x="7.16016" y="20.7951" width="43.2812" height="20.1055" filterUnits="userSpaceOnUse" color-interpolation-filters="sRGB">
<feFlood flood-opacity="0" result="BackgroundImageFix"/>
<feColorMatrix in="SourceAlpha" type="matrix" values="0 0 0 0 0 0 0 0 0 0 0 0 0 0 0 0 0 0 127 0" result="hardAlpha"/>
<feOffset dy="-0.2"/>
<feGaussianBlur stdDeviation="1.5"/>
<feComposite in2="hardAlpha" operator="out"/>
<feColorMatrix type="matrix" values="0 0 0 0 0 0 0 0 0 0 0 0 0 0 0 0 0 0 0.12 0"/>
<feBlend mode="normal" in2="BackgroundImageFix" result="effect1_dropShadow_568_1995"/>
<feBlend mode="normal" in="SourceGraphic" in2="effect1_dropShadow_568_1995" result="shape"/>
</filter>
</defs>
</svg>
