<svg width="155" height="48" viewBox="0 0 155 48" fill="none" xmlns="http://www.w3.org/2000/svg">
<path d="M141.395 0.00141098H13.4508C12.933 0.00141098 12.4222 0.00141098 11.9072 0.00423293C11.4741 0.00705488 11.0465 0.0155207 10.6105 0.0225756C9.67083 0.0451512 8.72124 0.103001 7.78294 0.270907C6.839 0.437403 5.96137 0.719598 5.10209 1.15559C4.25692 1.58876 3.48511 2.15033 2.81772 2.81913C2.14327 3.48652 1.58312 4.26115 1.15559 5.10632C0.716776 5.9642 0.438814 6.84606 0.273729 7.79141C0.104412 8.72548 0.0451512 9.66942 0.0211646 10.6148C0.00846586 11.0479 0.00705488 11.4811 0 11.9143C0 12.4251 0 12.9372 0 13.4551V34.5463C0 35.067 0 35.5764 0 36.0899C0.00705488 36.5273 0.00846586 36.9521 0.0211646 37.3909C0.0451512 38.3362 0.104412 39.2816 0.273729 40.2156C0.438814 41.161 0.716776 42.0471 1.15559 42.9021C1.58312 43.7431 2.14327 44.5163 2.81772 45.1795C3.48511 45.8525 4.25692 46.4141 5.10068 46.8416C5.95996 47.2818 6.83759 47.5612 7.78294 47.7319C8.71983 47.8998 9.67083 47.9548 10.6105 47.9817C11.0465 47.9915 11.4755 47.9972 11.9072 47.9972C12.4236 48 12.9344 48 13.4522 48H141.397C141.903 48 142.418 48 142.926 47.9972C143.357 47.9972 143.797 47.9915 144.227 47.9817C145.173 47.9563 146.121 47.8998 147.049 47.7319C147.994 47.5612 148.874 47.2832 149.741 46.8416C150.584 46.4126 151.355 45.8525 152.023 45.1795C152.694 44.5163 153.255 43.7431 153.689 42.9021C154.122 42.0471 154.403 41.161 154.563 40.2156C154.736 39.2816 154.791 38.3362 154.825 37.3909C154.831 36.9521 154.831 36.5288 154.831 36.0899C154.842 35.5778 154.842 35.0684 154.842 34.5463V13.4537C154.842 12.9372 154.842 12.4251 154.831 11.9129C154.831 11.4797 154.831 11.0465 154.825 10.6134C154.793 9.66801 154.738 8.72265 154.563 7.78859C154.403 6.84323 154.122 5.96137 153.689 5.1035C153.253 4.25833 152.694 3.48511 152.023 2.81631C151.355 2.14751 150.585 1.58594 149.741 1.15277C148.874 0.715365 147.994 0.43317 147.049 0.268085C146.121 0.100179 145.173 0.0423293 144.227 0.0183427C143.797 0.0112878 143.357 0.00282195 142.926 0C142.418 0.00141098 141.903 0.00141098 141.395 0.00141098Z" fill="#A6A6A6"/>
<path d="M141.396 0.918945C141.901 0.918945 142.415 0.918945 142.92 0.921767C143.267 0.924589 143.623 0.930233 143.973 0.935877L144.204 0.94011C144.95 0.958453 145.928 1.00219 146.891 1.17574C147.764 1.32813 148.561 1.59057 149.322 1.97294C150.082 2.36378 150.772 2.86609 151.375 3.46999C151.971 4.0626 152.475 4.75398 152.869 5.51873C153.251 6.27924 153.509 7.07221 153.659 7.95831C153.824 8.84722 153.875 9.77564 153.906 10.6265C153.912 11.0554 153.912 11.4857 153.912 11.933C153.923 12.4382 153.923 12.9433 153.923 13.4541V34.5453C153.923 35.0589 153.923 35.5626 153.912 36.0889C153.912 36.5235 153.912 36.944 153.906 37.3574C153.875 38.228 153.824 39.1564 153.656 40.0608C153.508 40.9385 153.25 41.7314 152.873 42.4778C152.472 43.2525 151.969 43.941 151.369 44.5322C150.772 45.1347 150.085 45.6356 149.324 46.0222C148.575 46.4032 147.777 46.6656 146.885 46.8279C145.961 46.9958 145.01 47.0409 144.207 47.0635C143.784 47.0734 143.35 47.079 142.921 47.079C142.416 47.0819 141.903 47.0819 141.398 47.0819H13.4517C12.9367 47.0819 12.4273 47.0819 11.9067 47.079C11.4819 47.079 11.0601 47.0734 10.6354 47.0649C9.82828 47.0423 8.8787 46.9972 7.94604 46.8293C7.05289 46.6684 6.25851 46.4046 5.51634 46.0236C4.75582 45.6384 4.06727 45.1361 3.46055 44.5238C2.86512 43.9382 2.36422 43.2525 1.97197 42.4821C1.59383 41.7441 1.3328 40.9498 1.17618 40.0495C1.00122 39.0887 0.957476 38.1109 0.937722 37.363C0.929257 37.0696 0.925024 36.7831 0.922202 36.4939L0.917969 36.0889V34.5453V13.4541V11.9288L0.923613 11.5069C0.926435 11.2191 0.930668 10.9312 0.939133 10.6392C0.957476 9.89416 1.00263 8.91636 1.179 7.94843C1.33421 7.05951 1.59383 6.26655 1.97479 5.52014C2.36281 4.75398 2.86371 4.06401 3.4676 3.46717C4.06868 2.86468 4.76006 2.36237 5.51775 1.97436C6.27404 1.58916 7.067 1.32813 7.94604 1.17433C8.91115 1.00078 9.89037 0.957042 10.6255 0.938699L10.9049 0.934466C11.2421 0.928822 11.5765 0.923178 11.9123 0.921767C12.4259 0.918945 12.9367 0.918945 13.4517 0.918945H141.396Z" fill="black"/>
<mask id="mask0_568_1436" style="mask-type:luminance" maskUnits="userSpaceOnUse" x="10" y="10" width="37" height="28">
<path d="M46.9374 32.5304V32.9043C46.9374 33.0835 46.9374 33.2627 46.936 33.4419C46.9346 33.5928 46.9332 33.7438 46.929 33.8948C46.9205 34.2235 46.9008 34.5551 46.8429 34.8796C46.7836 35.2098 46.6863 35.5174 46.5339 35.8165C46.3843 36.1114 46.1882 36.3809 45.954 36.6137C45.7198 36.8479 45.4503 37.0427 45.1568 37.1936C44.8577 37.346 44.5501 37.4434 44.2199 37.5026C43.8954 37.5605 43.5638 37.5802 43.235 37.5887C43.0841 37.5929 42.9331 37.5944 42.7821 37.5958C42.6029 37.5972 42.4237 37.5972 42.2445 37.5972L40.1859 37.5958L42.102 37.5972H15.4995L17.4156 37.5958L15.357 37.5972C15.1778 37.5972 14.9986 37.5972 14.8194 37.5958C14.6684 37.5944 14.5174 37.5929 14.3665 37.5887C14.0377 37.5802 13.7061 37.5605 13.3816 37.5026C13.0514 37.4434 12.7453 37.346 12.4447 37.1936C12.1498 37.0441 11.8803 36.8479 11.6475 36.6137C11.4133 36.3795 11.2186 36.11 11.0676 35.8165C10.9152 35.5174 10.8179 35.2098 10.7586 34.8796C10.7007 34.5551 10.681 34.2235 10.6725 33.8948C10.6683 33.7438 10.6669 33.5928 10.6655 33.4419C10.6641 33.2627 10.6641 33.0835 10.6641 32.9043V32.6108V15.3799V17.1437V15.0851C10.6641 14.9059 10.6641 14.7267 10.6655 14.5475C10.6669 14.3965 10.6683 14.2455 10.6725 14.0945C10.681 13.7658 10.7007 13.4342 10.7586 13.1097C10.8179 12.7795 10.9152 12.4719 11.0676 12.1728C11.2172 11.8779 11.4133 11.6084 11.6475 11.3756C11.8817 11.1428 12.1512 10.9467 12.4461 10.7971C12.7453 10.6447 13.0528 10.5474 13.383 10.4881C13.7075 10.4302 14.0391 10.4105 14.3679 10.402C14.5188 10.3978 14.6698 10.3964 14.8208 10.395C15 10.3936 15.1792 10.3936 15.3584 10.3936H17.417H42.1034H42.2445C42.4237 10.3936 42.6029 10.3936 42.7821 10.395C42.9331 10.3964 43.0841 10.3978 43.235 10.402C43.5638 10.4105 43.8954 10.4302 44.2199 10.4881C44.5501 10.5474 44.8562 10.6447 45.1568 10.7971C45.4517 10.9467 45.7212 11.1428 45.954 11.377C46.1882 11.6112 46.3829 11.8807 46.5339 12.1742C46.6863 12.4733 46.7836 12.7809 46.8429 13.1111C46.9008 13.4356 46.9205 13.7672 46.929 14.096C46.9332 14.2469 46.9346 14.3979 46.936 14.5489C46.9374 14.7281 46.9374 14.9073 46.9374 15.0865V15.4604V32.5304Z" fill="white"/>
</mask>
<g mask="url(#mask0_568_1436)">
<path d="M45.7858 11.5264H11.7812V35.204H45.7858V11.5264Z" fill="#DEDBCE"/>
<path d="M45.4254 11.9043H12.1758V26.0098H45.4254V11.9043Z" fill="#40A5D9"/>
<g filter="url(#filter0_d_568_1436)">
<path fill-rule="evenodd" clip-rule="evenodd" d="M45.4215 17.9044C45.4215 17.7901 45.4215 17.6772 45.4215 17.5629C45.4215 17.467 45.4201 17.371 45.4173 17.2751C45.4116 17.0662 45.399 16.856 45.3623 16.65C45.3242 16.4412 45.2635 16.2465 45.1661 16.056C45.0716 15.8697 44.9474 15.6976 44.7979 15.5494C44.6497 15.4013 44.479 15.2771 44.2913 15.1812C44.1009 15.0838 43.9061 15.0231 43.6973 14.985C43.4913 14.9484 43.2811 14.9357 43.0723 14.93C42.9763 14.9272 42.8804 14.9258 42.7844 14.9258C42.6701 14.9258 42.5572 14.9258 42.443 14.9258H42.3498H16.4556H15.1504C15.0362 14.9258 14.9233 14.9258 14.809 14.9258C14.713 14.9258 14.6171 14.9272 14.5212 14.93C14.3123 14.9357 14.1021 14.9484 13.8961 14.985C13.6873 15.0231 13.4925 15.0838 13.3021 15.1812C13.1158 15.2757 12.9437 15.3999 12.7955 15.5494C12.6474 15.6976 12.5232 15.8683 12.4273 16.056C12.3299 16.2465 12.2692 16.4412 12.2311 16.65C12.1945 16.856 12.1818 17.0662 12.1761 17.2751C12.1733 17.371 12.1719 17.467 12.1719 17.5629C12.1719 17.6772 12.1719 17.7901 12.1719 17.9044V19.2095V18.1837V29.0327H45.4215V18.2515V17.9044Z" fill="#FFB003"/>
</g>
<g filter="url(#filter1_d_568_1436)">
<path fill-rule="evenodd" clip-rule="evenodd" d="M45.4215 20.9258C45.4215 20.8115 45.4215 20.6987 45.4215 20.5844C45.4215 20.4884 45.4201 20.3925 45.4173 20.2965C45.4116 20.0877 45.399 19.8775 45.3623 19.6715C45.3242 19.4627 45.2635 19.2679 45.1661 19.0775C45.0716 18.8912 44.9474 18.7191 44.7979 18.5709C44.6497 18.4228 44.479 18.2986 44.2913 18.2027C44.1009 18.1053 43.9061 18.0446 43.6973 18.0065C43.4913 17.9698 43.2811 17.9571 43.0723 17.9515C42.9763 17.9487 42.8804 17.9473 42.7844 17.9473C42.6701 17.9473 42.5572 17.9473 42.443 17.9473H42.3484H16.4556H15.1504C15.0362 17.9473 14.9233 17.9473 14.809 17.9473C14.713 17.9473 14.6171 17.9487 14.5212 17.9515C14.3123 17.9571 14.1021 17.9698 13.8961 18.0065C13.6873 18.0446 13.4925 18.1053 13.3021 18.2027C13.1158 18.2972 12.9437 18.4214 12.7955 18.5709C12.6474 18.7191 12.5232 18.8898 12.4273 19.0775C12.3299 19.2679 12.2692 19.4627 12.2311 19.6715C12.1945 19.8775 12.1818 20.0877 12.1761 20.2965C12.1733 20.3925 12.1719 20.4884 12.1719 20.5844C12.1719 20.6987 12.1719 20.8115 12.1719 20.9258V22.231V21.2052V32.0542H45.4215V21.2729V20.9258Z" fill="#40C740"/>
</g>
<g filter="url(#filter2_d_568_1436)">
<path fill-rule="evenodd" clip-rule="evenodd" d="M45.4215 23.9483C45.4215 23.834 45.4215 23.7211 45.4215 23.6068C45.4215 23.5109 45.4201 23.4149 45.4173 23.319C45.4116 23.1102 45.399 22.8999 45.3623 22.6939C45.3242 22.4851 45.2635 22.2904 45.1661 22.0999C45.0716 21.9137 44.9474 21.7415 44.7979 21.5934C44.6497 21.4452 44.479 21.3211 44.2913 21.2251C44.1009 21.1278 43.9061 21.0671 43.6973 21.029C43.4913 20.9923 43.2811 20.9796 43.0723 20.974C42.9763 20.9711 42.8804 20.9697 42.7844 20.9697C42.6701 20.9697 42.5572 20.9697 42.443 20.9697H42.3484H16.4556H15.1504C15.0362 20.9697 14.9233 20.9697 14.809 20.9697C14.713 20.9697 14.6171 20.9711 14.5212 20.974C14.3123 20.9796 14.1021 20.9923 13.8961 21.029C13.6873 21.0671 13.4925 21.1278 13.3021 21.2251C13.1158 21.3196 12.9437 21.4438 12.7955 21.5934C12.6474 21.7415 12.5232 21.9123 12.4273 22.0999C12.3299 22.2904 12.2692 22.4851 12.2311 22.6939C12.1945 22.8999 12.1818 23.1102 12.1761 23.319C12.1733 23.4149 12.1719 23.5109 12.1719 23.6068C12.1719 23.7211 12.1719 23.834 12.1719 23.9483V25.2534V24.2277V35.0767H45.4215V24.2954V23.9483Z" fill="#F26D5F"/>
</g>
<path fill-rule="evenodd" clip-rule="evenodd" d="M10.1602 9.88965V25.5063H12.175V16.1868V14.8817C12.175 14.7674 12.175 14.6545 12.175 14.5402C12.175 14.4443 12.1764 14.3483 12.1793 14.2524C12.1849 14.0436 12.1976 13.8333 12.2343 13.6273C12.2724 13.4185 12.3331 13.2238 12.4304 13.0333C12.525 12.8471 12.6491 12.6749 12.7987 12.5268C12.9468 12.3786 13.1176 12.2544 13.3052 12.1585C13.4943 12.064 13.689 12.0019 13.8978 11.9652C14.1038 11.9285 14.3141 11.9158 14.5229 11.9102C14.6188 11.9073 14.7148 11.9059 14.8107 11.9059C14.925 11.9059 15.0379 11.9059 15.1522 11.9059H16.4573H42.3473H42.4475C42.5618 11.9059 42.6747 11.9059 42.789 11.9059C42.8849 11.9059 42.9809 11.9073 43.0768 11.9102C43.2856 11.9158 43.4959 11.9285 43.7019 11.9652C43.9107 12.0033 44.1054 12.064 44.2959 12.1613C44.4821 12.2559 44.6543 12.38 44.8024 12.5296C44.9506 12.6777 45.0748 12.8485 45.1707 13.0361C45.2681 13.2266 45.3287 13.4213 45.3668 13.6301C45.4035 13.8361 45.4162 14.0464 45.4219 14.2552C45.4247 14.3512 45.4261 14.4471 45.4261 14.543C45.4261 14.6573 45.4261 14.7702 45.4261 14.8845V16.1897V25.5092H47.441V9.88965H10.1602Z" fill="#D9D6CC"/>
<g filter="url(#filter3_d_568_1436)">
<path fill-rule="evenodd" clip-rule="evenodd" d="M38.0735 23.9951C37.8576 23.9951 37.6403 23.9951 37.4244 23.9965C37.2424 23.9979 37.0604 23.9994 36.8784 24.005C36.4819 24.0163 36.0812 24.0389 35.6889 24.1094C35.2911 24.1814 34.92 24.2985 34.5588 24.4819C34.5122 24.5059 33.5175 24.9574 32.6229 26.3486C31.9442 27.4054 30.6235 28.5258 28.7738 28.5258C26.9254 28.5258 25.6047 27.4054 24.9246 26.3486C23.9835 24.8826 22.9097 24.4424 22.9873 24.4819C22.6261 24.2971 22.255 24.18 21.8571 24.1094C21.4649 24.0389 21.0642 24.0149 20.6677 24.005C20.4857 24.0008 20.3037 23.9979 20.1216 23.9965C19.9058 23.9951 19.6885 23.9951 19.4726 23.9951H10.1602V38.1006H47.4396V23.9951H38.0735Z" fill="#DEDBCE"/>
</g>
</g>
<path d="M58.1746 24.9189H60.0823L64.2108 36.2886H62.3596L61.3197 33.2155H56.9386L55.8903 36.2886H54.0391L58.1746 24.9189ZM57.4113 31.7975H60.8386L59.144 26.8012H59.1129L57.4113 31.7975Z" fill="white"/>
<path d="M65.3047 27.9994H67.0063V29.4259H67.0458C67.5425 28.441 68.4568 27.8428 69.6378 27.8428C71.75 27.8428 73.106 29.4978 73.106 32.1448V32.1533C73.106 34.7932 71.743 36.4554 69.6632 36.4554C68.4893 36.4554 67.5354 35.8571 67.0472 34.8962H67.0077V39.0487H65.3061L65.3047 27.9994ZM71.3719 32.1519V32.1434C71.3719 30.3783 70.5281 29.2989 69.1962 29.2989C67.9037 29.2989 66.9979 30.4178 66.9979 32.1434V32.1519C66.9979 33.8705 67.9122 34.9894 69.1962 34.9894C70.5366 34.9894 71.3719 33.9001 71.3719 32.1519Z" fill="white"/>
<path d="M74.7852 27.9994H76.4868V29.4259H76.5263C77.023 28.441 77.9373 27.8428 79.1183 27.8428C81.2305 27.8428 82.5864 29.4978 82.5864 32.1448V32.1533C82.5864 34.7932 81.222 36.4554 79.1437 36.4554C77.9683 36.4554 77.0159 35.8571 76.5277 34.8962H76.4882V39.0487H74.7866L74.7852 27.9994ZM80.8538 32.1519V32.1434C80.8538 30.3783 80.01 29.2989 78.678 29.2989C77.3856 29.2989 76.4797 30.4178 76.4797 32.1434V32.1519C76.4797 33.8705 77.3941 34.9894 78.678 34.9894C80.0171 34.9894 80.8538 33.9001 80.8538 32.1519Z" fill="white"/>
<path d="M84.0859 24.9189H85.7876V36.2886H84.0859V24.9189Z" fill="white"/>
<path d="M87.4453 32.1759V32.1674C87.4453 29.5755 88.9424 27.8428 91.2662 27.8428C93.5901 27.8428 95.018 29.5134 95.018 32.0023V32.578H89.1469C89.178 34.1456 90.0373 35.0599 91.3932 35.0599C92.4021 35.0599 93.0709 34.5407 93.2839 33.917L93.3093 33.8535H94.9249L94.9094 33.941C94.6413 35.2575 93.3644 36.454 91.3537 36.454C88.917 36.454 87.4453 34.7918 87.4453 32.1759ZM89.1695 31.3716H93.3305C93.188 29.9367 92.3851 29.2354 91.2733 29.2354C90.1713 29.2368 89.3205 29.9846 89.1695 31.3716Z" fill="white"/>
<path d="M100.43 24.9189H102.267L104.386 33.8307H104.417L106.82 24.9189H108.492L110.895 33.8307H110.933L113.054 24.9189H114.889L111.816 36.2886H110.122L107.681 27.7155H107.641L105.19 36.2886H103.497L100.43 24.9189Z" fill="white"/>
<path d="M115.375 33.9325V33.917C115.375 32.475 116.494 31.5931 118.457 31.4746L120.711 31.3406V30.7183C120.711 29.8054 120.12 29.2523 119.063 29.2523C118.078 29.2523 117.472 29.718 117.329 30.3797L117.314 30.4517H115.705L115.714 30.3642C115.832 28.9377 117.068 27.8428 119.11 27.8428C121.135 27.8428 122.42 28.9137 122.42 30.5772V36.2903H120.71V34.9823H120.679C120.198 35.8726 119.237 36.4399 118.141 36.4399C116.487 36.4384 115.375 35.4211 115.375 33.9325ZM118.608 35.0754C119.805 35.0754 120.711 34.2641 120.711 33.1833V32.5371L118.685 32.6641C117.659 32.7262 117.094 33.1749 117.094 33.8761V33.893C117.094 34.6183 117.692 35.0754 118.608 35.0754Z" fill="white"/>
<path d="M124.281 24.9189H125.984V36.2886H124.281V24.9189Z" fill="white"/>
<path d="M128.383 24.9189H130.086V36.2886H128.383V24.9189Z" fill="white"/>
<path d="M131.582 32.1759V32.1674C131.582 29.5755 133.08 27.8428 135.404 27.8428C137.728 27.8428 139.155 29.5134 139.155 32.0023V32.578H133.285C133.315 34.1456 134.175 35.0599 135.53 35.0599C136.539 35.0599 137.209 34.5407 137.422 33.917L137.446 33.8535H139.062L139.046 33.941C138.779 35.2575 137.501 36.454 135.492 36.454C133.057 36.454 131.582 34.7918 131.582 32.1759ZM133.308 31.3716H137.467C137.325 29.9367 136.522 29.2354 135.411 29.2354C134.308 29.2368 133.457 29.9846 133.308 31.3716Z" fill="white"/>
<path d="M141.314 34.1053V29.3546H140.125V27.9986H141.316V25.8398H143.057V27.9986H144.609V29.3546H143.057V34.0038C143.057 34.8475 143.435 35.0987 144.152 35.0987C144.333 35.0987 144.482 35.0817 144.608 35.0676V36.3841C144.41 36.4151 144.088 36.4546 143.741 36.4546C142.103 36.4532 141.314 35.7604 141.314 34.1053Z" fill="white"/>
<path d="M54.8398 11.5166H55.9051V15.2119H60.5938V11.5166H61.6591V20.0601H60.5938V16.17H55.9051V20.0601H54.8398V11.5166Z" fill="white"/>
<path d="M63.5273 11.7351C63.5273 11.3443 63.8476 11.0254 64.2371 11.0254C64.6265 11.0254 64.9468 11.3457 64.9468 11.7351C64.9468 12.1245 64.6279 12.4462 64.2371 12.4462C63.8462 12.4462 63.5273 12.126 63.5273 11.7351ZM63.7164 13.678H64.7464V20.0599H63.7164V13.678Z" fill="white"/>
<path d="M66.6733 13.6779H67.7033V14.6373H67.7978C68.1181 13.9615 68.715 13.5664 69.6561 13.5664C71.0896 13.5664 71.8883 14.413 71.8883 15.9284V20.0611H70.8582V16.1767C70.8582 15.0282 70.3842 14.4779 69.3654 14.4779C68.3467 14.4779 67.7019 15.165 67.7019 16.2839V20.0611H66.6719L66.6733 13.6779Z" fill="white"/>
<path d="M73.582 19.3132L77.2647 14.6245V14.53H73.5877V13.6777H78.4781V14.4425L74.8138 19.1142V19.2088H78.4965V20.061H73.582V19.3132Z" fill="white"/>
<path d="M80.1953 17.8091V13.6777H81.2253V17.5607C81.2253 18.7093 81.6387 19.261 82.6575 19.261C83.7834 19.261 84.3817 18.5738 84.3817 17.4549V13.6777H85.4103V20.0596H84.3817V19.1058H84.2871C83.9725 19.7873 83.3277 20.171 82.3922 20.171C80.9403 20.1725 80.1953 19.3202 80.1953 17.8091Z" fill="white"/>
<path d="M87.9151 14.5306H86.8555V13.6783H87.9151V12.9672C87.9151 11.6945 88.5543 11.085 89.7677 11.085C90.0161 11.085 90.2404 11.1033 90.4535 11.1442V11.9668C90.3293 11.9428 90.1572 11.9372 89.9737 11.9372C89.2386 11.9372 88.9437 12.2984 88.9437 12.9968V13.6769H90.3942V14.5292H88.9437V20.0588H87.9151V14.5306Z" fill="white"/>
<path d="M91.8008 17.8089V13.6776H92.8308V17.5606C92.8308 18.7091 93.2442 19.2608 94.2629 19.2608C95.3889 19.2608 95.9871 18.5737 95.9871 17.4548V13.6776H97.0157V20.0594H95.9871V19.1056H95.8926C95.578 19.7871 94.9331 20.1709 93.9977 20.1709C92.5472 20.1723 91.8008 19.3201 91.8008 17.8089ZM92.4414 11.7417C92.4414 11.3861 92.7377 11.0898 93.0989 11.0898C93.4544 11.0898 93.7507 11.3861 93.7507 11.7417C93.7507 12.1029 93.4544 12.3992 93.0989 12.3992C92.7377 12.3992 92.4414 12.1029 92.4414 11.7417ZM95.0573 11.7417C95.0573 11.3861 95.3536 11.0898 95.7092 11.0898C96.0704 11.0898 96.3667 11.3861 96.3667 11.7417C96.3667 12.1029 96.0704 12.3992 95.7092 12.3992C95.3536 12.3992 95.0573 12.1029 95.0573 11.7417Z" fill="white"/>
<path d="M98.8654 20.5695L98.8781 20.5639H99.9434L99.949 20.5695C100.062 21.0549 100.631 21.3978 101.549 21.3978C102.692 21.3978 103.372 20.8588 103.372 19.9176V18.6266H103.278C102.875 19.3321 102.153 19.7286 101.277 19.7286C99.6245 19.7286 98.6016 18.4488 98.6016 16.6611V16.6498C98.6016 14.8621 99.6302 13.5654 101.301 13.5654C102.201 13.5654 102.899 14.0085 103.29 14.7323H103.361V13.6783H104.391V19.9713C104.391 21.3978 103.29 22.3107 101.549 22.3107C100.008 22.3107 99.0263 21.6179 98.8654 20.5695ZM103.395 16.6625V16.6512C103.395 15.3842 102.678 14.4783 101.5 14.4783C100.316 14.4783 99.6527 15.3842 99.6527 16.6512V16.6625C99.6527 17.9296 100.316 18.8171 101.5 18.8171C102.685 18.8171 103.395 17.9282 103.395 16.6625Z" fill="white"/>
<path d="M105.973 16.8925V16.8869C105.973 14.9157 107.099 13.5654 108.833 13.5654C110.567 13.5654 111.622 14.8565 111.622 16.7627V17.1662H107.027C107.056 18.4869 107.784 19.2559 108.922 19.2559C109.785 19.2559 110.318 18.8467 110.491 18.4629L110.515 18.4093H111.545L111.532 18.4573C111.313 19.3222 110.4 20.1744 108.898 20.1744C107.076 20.173 105.973 18.8947 105.973 16.8925ZM107.045 16.3422H110.574C110.468 15.0808 109.77 14.484 108.827 14.484C107.88 14.484 107.158 15.1288 107.045 16.3422Z" fill="white"/>
<path d="M113.205 13.6779H114.233V14.6373H114.328C114.648 13.9615 115.245 13.5664 116.186 13.5664C117.619 13.5664 118.418 14.413 118.418 15.9284V20.0611H117.389V16.1767C117.389 15.0282 116.915 14.4779 115.897 14.4779C114.878 14.4779 114.232 15.165 114.232 16.2839V20.0611H113.203L113.205 13.6779Z" fill="white"/>
<path d="M123.512 19.3132L127.194 14.6245V14.53H123.517V13.6777H128.408V14.4425L124.743 19.1142V19.2088H128.425V20.061H123.512V19.3132Z" fill="white"/>
<path d="M130.121 17.8091V13.6777H131.151V17.5607C131.151 18.7093 131.566 19.261 132.585 19.261C133.709 19.261 134.307 18.5738 134.307 17.4549V13.6777H135.337V20.0596H134.307V19.1058H134.213C133.898 19.7873 133.252 20.171 132.318 20.171C130.867 20.1725 130.121 19.3202 130.121 17.8091Z" fill="white"/>
<defs>
<filter id="filter0_d_568_1436" x="9.17188" y="11.7258" width="39.25" height="20.1074" filterUnits="userSpaceOnUse" color-interpolation-filters="sRGB">
<feFlood flood-opacity="0" result="BackgroundImageFix"/>
<feColorMatrix in="SourceAlpha" type="matrix" values="0 0 0 0 0 0 0 0 0 0 0 0 0 0 0 0 0 0 127 0" result="hardAlpha"/>
<feOffset dy="-0.2"/>
<feGaussianBlur stdDeviation="1.5"/>
<feComposite in2="hardAlpha" operator="out"/>
<feColorMatrix type="matrix" values="0 0 0 0 0 0 0 0 0 0 0 0 0 0 0 0 0 0 0.12 0"/>
<feBlend mode="normal" in2="BackgroundImageFix" result="effect1_dropShadow_568_1436"/>
<feBlend mode="normal" in="SourceGraphic" in2="effect1_dropShadow_568_1436" result="shape"/>
</filter>
<filter id="filter1_d_568_1436" x="9.17188" y="14.7473" width="39.25" height="20.1074" filterUnits="userSpaceOnUse" color-interpolation-filters="sRGB">
<feFlood flood-opacity="0" result="BackgroundImageFix"/>
<feColorMatrix in="SourceAlpha" type="matrix" values="0 0 0 0 0 0 0 0 0 0 0 0 0 0 0 0 0 0 127 0" result="hardAlpha"/>
<feOffset dy="-0.2"/>
<feGaussianBlur stdDeviation="1.5"/>
<feComposite in2="hardAlpha" operator="out"/>
<feColorMatrix type="matrix" values="0 0 0 0 0 0 0 0 0 0 0 0 0 0 0 0 0 0 0.12 0"/>
<feBlend mode="normal" in2="BackgroundImageFix" result="effect1_dropShadow_568_1436"/>
<feBlend mode="normal" in="SourceGraphic" in2="effect1_dropShadow_568_1436" result="shape"/>
</filter>
<filter id="filter2_d_568_1436" x="9.17188" y="17.7697" width="39.25" height="20.1074" filterUnits="userSpaceOnUse" color-interpolation-filters="sRGB">
<feFlood flood-opacity="0" result="BackgroundImageFix"/>
<feColorMatrix in="SourceAlpha" type="matrix" values="0 0 0 0 0 0 0 0 0 0 0 0 0 0 0 0 0 0 127 0" result="hardAlpha"/>
<feOffset dy="-0.2"/>
<feGaussianBlur stdDeviation="1.5"/>
<feComposite in2="hardAlpha" operator="out"/>
<feColorMatrix type="matrix" values="0 0 0 0 0 0 0 0 0 0 0 0 0 0 0 0 0 0 0.12 0"/>
<feBlend mode="normal" in2="BackgroundImageFix" result="effect1_dropShadow_568_1436"/>
<feBlend mode="normal" in="SourceGraphic" in2="effect1_dropShadow_568_1436" result="shape"/>
</filter>
<filter id="filter3_d_568_1436" x="7.16016" y="20.7951" width="43.2812" height="20.1055" filterUnits="userSpaceOnUse" color-interpolation-filters="sRGB">
<feFlood flood-opacity="0" result="BackgroundImageFix"/>
<feColorMatrix in="SourceAlpha" type="matrix" values="0 0 0 0 0 0 0 0 0 0 0 0 0 0 0 0 0 0 127 0" result="hardAlpha"/>
<feOffset dy="-0.2"/>
<feGaussianBlur stdDeviation="1.5"/>
<feComposite in2="hardAlpha" operator="out"/>
<feColorMatrix type="matrix" values="0 0 0 0 0 0 0 0 0 0 0 0 0 0 0 0 0 0 0.12 0"/>
<feBlend mode="normal" in2="BackgroundImageFix" result="effect1_dropShadow_568_1436"/>
<feBlend mode="normal" in="SourceGraphic" in2="effect1_dropShadow_568_1436" result="shape"/>
</filter>
</defs>
</svg>
