<svg width="155" height="48" viewBox="0 0 155 48" fill="none" xmlns="http://www.w3.org/2000/svg">
<path d="M141.395 0.00141098H13.4508C12.933 0.00141098 12.4222 0.00141098 11.9072 0.00423293C11.4741 0.00705488 11.0465 0.0155207 10.6105 0.0225756C9.67083 0.0451512 8.72124 0.103001 7.78294 0.270907C6.839 0.437403 5.96137 0.719598 5.10209 1.15559C4.25692 1.58876 3.48511 2.15033 2.81772 2.81913C2.14327 3.48652 1.58312 4.26115 1.15559 5.10632C0.716776 5.9642 0.438814 6.84606 0.273729 7.79141C0.104412 8.72548 0.0451512 9.66942 0.0211646 10.6148C0.00846586 11.0479 0.00705488 11.4811 0 11.9143C0 12.4251 0 12.9372 0 13.4551V34.5463C0 35.067 0 35.5764 0 36.0899C0.00705488 36.5273 0.00846586 36.9521 0.0211646 37.3909C0.0451512 38.3362 0.104412 39.2816 0.273729 40.2156C0.438814 41.161 0.716776 42.0471 1.15559 42.9021C1.58312 43.7431 2.14327 44.5163 2.81772 45.1795C3.48511 45.8525 4.25692 46.4141 5.10068 46.8416C5.95996 47.2818 6.83759 47.5612 7.78294 47.7319C8.71983 47.8998 9.67083 47.9548 10.6105 47.9817C11.0465 47.9915 11.4755 47.9972 11.9072 47.9972C12.4236 48 12.9344 48 13.4522 48H141.397C141.903 48 142.418 48 142.926 47.9972C143.357 47.9972 143.797 47.9915 144.227 47.9817C145.173 47.9563 146.121 47.8998 147.049 47.7319C147.994 47.5612 148.874 47.2832 149.741 46.8416C150.584 46.4126 151.355 45.8525 152.023 45.1795C152.694 44.5163 153.255 43.7431 153.689 42.9021C154.122 42.0471 154.403 41.161 154.563 40.2156C154.736 39.2816 154.791 38.3362 154.825 37.3909C154.831 36.9521 154.831 36.5288 154.831 36.0899C154.842 35.5778 154.842 35.0684 154.842 34.5463V13.4537C154.842 12.9372 154.842 12.4251 154.831 11.9129C154.831 11.4797 154.831 11.0465 154.825 10.6134C154.793 9.66801 154.738 8.72265 154.563 7.78859C154.403 6.84323 154.122 5.96137 153.689 5.1035C153.253 4.25833 152.694 3.48511 152.023 2.81631C151.355 2.14751 150.585 1.58594 149.741 1.15277C148.874 0.715365 147.994 0.43317 147.049 0.268085C146.121 0.100179 145.173 0.0423293 144.227 0.0183427C143.797 0.0112878 143.357 0.00282195 142.926 0C142.418 0.00141098 141.903 0.00141098 141.395 0.00141098Z" fill="#A6A6A6"/>
<path d="M141.396 0.918945C141.901 0.918945 142.415 0.918945 142.92 0.921767C143.267 0.924589 143.623 0.930233 143.973 0.935877L144.204 0.94011C144.95 0.958453 145.928 1.00219 146.891 1.17574C147.764 1.32813 148.561 1.59057 149.322 1.97294C150.082 2.36378 150.772 2.86609 151.375 3.46999C151.971 4.0626 152.475 4.75398 152.869 5.51873C153.251 6.27924 153.509 7.07221 153.659 7.95831C153.824 8.84722 153.875 9.77564 153.906 10.6265C153.912 11.0554 153.912 11.4857 153.912 11.933C153.923 12.4382 153.923 12.9433 153.923 13.4541V34.5453C153.923 35.0589 153.923 35.5626 153.912 36.0889C153.912 36.5235 153.912 36.944 153.906 37.3574C153.875 38.228 153.824 39.1564 153.656 40.0608C153.508 40.9385 153.25 41.7314 152.873 42.4778C152.472 43.2525 151.969 43.941 151.369 44.5322C150.772 45.1347 150.085 45.6356 149.324 46.0222C148.575 46.4032 147.777 46.6656 146.885 46.8279C145.961 46.9958 145.01 47.0409 144.207 47.0635C143.784 47.0734 143.35 47.079 142.921 47.079C142.416 47.0819 141.903 47.0819 141.398 47.0819H13.4517C12.9367 47.0819 12.4273 47.0819 11.9067 47.079C11.4819 47.079 11.0601 47.0734 10.6354 47.0649C9.82828 47.0423 8.8787 46.9972 7.94604 46.8293C7.05289 46.6684 6.25851 46.4046 5.51634 46.0236C4.75582 45.6384 4.06727 45.1361 3.46055 44.5238C2.86512 43.9382 2.36422 43.2525 1.97197 42.4821C1.59383 41.7441 1.3328 40.9498 1.17618 40.0495C1.00122 39.0887 0.957476 38.1109 0.937722 37.363C0.929257 37.0696 0.925024 36.7831 0.922202 36.4939L0.917969 36.0889V34.5453V13.4541V11.9288L0.923613 11.5069C0.926435 11.2191 0.930668 10.9312 0.939133 10.6392C0.957476 9.89416 1.00263 8.91636 1.179 7.94843C1.33421 7.05951 1.59383 6.26655 1.97479 5.52014C2.36281 4.75398 2.86371 4.06401 3.4676 3.46717C4.06868 2.86468 4.76006 2.36237 5.51775 1.97436C6.27404 1.58916 7.067 1.32813 7.94604 1.17433C8.91115 1.00078 9.89037 0.958453 10.6255 0.938699L10.9049 0.934466C11.2421 0.928822 11.5765 0.923178 11.9123 0.921767C12.4259 0.918945 12.9367 0.918945 13.4517 0.918945H141.396Z" fill="black"/>
<mask id="mask0_568_1107" style="mask-type:luminance" maskUnits="userSpaceOnUse" x="10" y="10" width="37" height="28">
<path d="M46.9374 32.5304V32.9043C46.9374 33.0835 46.9374 33.2627 46.936 33.4419C46.9346 33.5928 46.9332 33.7438 46.929 33.8948C46.9205 34.2235 46.9008 34.5551 46.8429 34.8796C46.7836 35.2098 46.6863 35.5174 46.5339 35.8165C46.3843 36.1114 46.1882 36.3809 45.954 36.6137C45.7198 36.8479 45.4503 37.0427 45.1568 37.1936C44.8577 37.346 44.5501 37.4434 44.2199 37.5026C43.8954 37.5605 43.5638 37.5802 43.235 37.5887C43.0841 37.5929 42.9331 37.5944 42.7821 37.5958C42.6029 37.5972 42.4237 37.5972 42.2445 37.5972L40.1859 37.5958L42.102 37.5972H15.4995L17.4156 37.5958L15.357 37.5972C15.1778 37.5972 14.9986 37.5972 14.8194 37.5958C14.6684 37.5944 14.5174 37.5929 14.3665 37.5887C14.0377 37.5802 13.7061 37.5605 13.3816 37.5026C13.0514 37.4434 12.7453 37.346 12.4447 37.1936C12.1498 37.0441 11.8803 36.8479 11.6475 36.6137C11.4133 36.3795 11.2186 36.11 11.0676 35.8165C10.9152 35.5174 10.8179 35.2098 10.7586 34.8796C10.7007 34.5551 10.681 34.2235 10.6725 33.8948C10.6683 33.7438 10.6669 33.5928 10.6655 33.4419C10.6641 33.2627 10.6641 33.0835 10.6641 32.9043V32.6108V15.3799V17.1437V15.0851C10.6641 14.9059 10.6641 14.7267 10.6655 14.5475C10.6669 14.3965 10.6683 14.2455 10.6725 14.0945C10.681 13.7658 10.7007 13.4342 10.7586 13.1097C10.8179 12.7795 10.9152 12.4719 11.0676 12.1728C11.2172 11.8779 11.4133 11.6084 11.6475 11.3756C11.8817 11.1428 12.1512 10.9467 12.4461 10.7971C12.7453 10.6447 13.0528 10.5474 13.383 10.4881C13.7075 10.4302 14.0391 10.4105 14.3679 10.402C14.5188 10.3978 14.6698 10.3964 14.8208 10.395C15 10.3936 15.1792 10.3936 15.3584 10.3936H17.417H42.1034H42.2445C42.4237 10.3936 42.6029 10.3936 42.7821 10.395C42.9331 10.3964 43.0841 10.3978 43.235 10.402C43.5638 10.4105 43.8954 10.4302 44.2199 10.4881C44.5501 10.5474 44.8562 10.6447 45.1568 10.7971C45.4517 10.9467 45.7212 11.1428 45.954 11.377C46.1882 11.6112 46.3829 11.8807 46.5339 12.1742C46.6863 12.4733 46.7836 12.7809 46.8429 13.1111C46.9008 13.4356 46.9205 13.7672 46.929 14.096C46.9332 14.2469 46.9346 14.3979 46.936 14.5489C46.9374 14.7281 46.9374 14.9073 46.9374 15.0865V15.4604V32.5304Z" fill="white"/>
</mask>
<g mask="url(#mask0_568_1107)">
<path d="M45.7858 11.5264H11.7812V35.204H45.7858V11.5264Z" fill="#DEDBCE"/>
<path d="M45.4254 11.9043H12.1758V26.0098H45.4254V11.9043Z" fill="#40A5D9"/>
<g filter="url(#filter0_d_568_1107)">
<path fill-rule="evenodd" clip-rule="evenodd" d="M45.4215 17.9044C45.4215 17.7901 45.4215 17.6772 45.4215 17.5629C45.4215 17.467 45.4201 17.371 45.4173 17.2751C45.4116 17.0662 45.399 16.856 45.3623 16.65C45.3242 16.4412 45.2635 16.2465 45.1661 16.056C45.0716 15.8697 44.9474 15.6976 44.7979 15.5494C44.6497 15.4013 44.479 15.2771 44.2913 15.1812C44.1009 15.0838 43.9061 15.0231 43.6973 14.985C43.4913 14.9484 43.2811 14.9357 43.0723 14.93C42.9763 14.9272 42.8804 14.9258 42.7844 14.9258C42.6701 14.9258 42.5572 14.9258 42.443 14.9258H42.3498H16.4556H15.1504C15.0362 14.9258 14.9233 14.9258 14.809 14.9258C14.713 14.9258 14.6171 14.9272 14.5212 14.93C14.3123 14.9357 14.1021 14.9484 13.8961 14.985C13.6873 15.0231 13.4925 15.0838 13.3021 15.1812C13.1158 15.2757 12.9437 15.3999 12.7955 15.5494C12.6474 15.6976 12.5232 15.8683 12.4273 16.056C12.3299 16.2465 12.2692 16.4412 12.2311 16.65C12.1945 16.856 12.1818 17.0662 12.1761 17.2751C12.1733 17.371 12.1719 17.467 12.1719 17.5629C12.1719 17.6772 12.1719 17.7901 12.1719 17.9044V19.2095V18.1837V29.0327H45.4215V18.2515V17.9044Z" fill="#FFB003"/>
</g>
<g filter="url(#filter1_d_568_1107)">
<path fill-rule="evenodd" clip-rule="evenodd" d="M45.4215 20.9258C45.4215 20.8115 45.4215 20.6987 45.4215 20.5844C45.4215 20.4884 45.4201 20.3925 45.4173 20.2965C45.4116 20.0877 45.399 19.8775 45.3623 19.6715C45.3242 19.4627 45.2635 19.2679 45.1661 19.0775C45.0716 18.8912 44.9474 18.7191 44.7979 18.5709C44.6497 18.4228 44.479 18.2986 44.2913 18.2027C44.1009 18.1053 43.9061 18.0446 43.6973 18.0065C43.4913 17.9698 43.2811 17.9571 43.0723 17.9515C42.9763 17.9487 42.8804 17.9473 42.7844 17.9473C42.6701 17.9473 42.5572 17.9473 42.443 17.9473H42.3484H16.4556H15.1504C15.0362 17.9473 14.9233 17.9473 14.809 17.9473C14.713 17.9473 14.6171 17.9487 14.5212 17.9515C14.3123 17.9571 14.1021 17.9698 13.8961 18.0065C13.6873 18.0446 13.4925 18.1053 13.3021 18.2027C13.1158 18.2972 12.9437 18.4214 12.7955 18.5709C12.6474 18.7191 12.5232 18.8898 12.4273 19.0775C12.3299 19.2679 12.2692 19.4627 12.2311 19.6715C12.1945 19.8775 12.1818 20.0877 12.1761 20.2965C12.1733 20.3925 12.1719 20.4884 12.1719 20.5844C12.1719 20.6987 12.1719 20.8115 12.1719 20.9258V22.231V21.2052V32.0542H45.4215V21.2729V20.9258Z" fill="#40C740"/>
</g>
<g filter="url(#filter2_d_568_1107)">
<path fill-rule="evenodd" clip-rule="evenodd" d="M45.4215 23.9483C45.4215 23.834 45.4215 23.7211 45.4215 23.6068C45.4215 23.5109 45.4201 23.4149 45.4173 23.319C45.4116 23.1102 45.399 22.8999 45.3623 22.6939C45.3242 22.4851 45.2635 22.2904 45.1661 22.0999C45.0716 21.9137 44.9474 21.7415 44.7979 21.5934C44.6497 21.4452 44.479 21.3211 44.2913 21.2251C44.1009 21.1278 43.9061 21.0671 43.6973 21.029C43.4913 20.9923 43.2811 20.9796 43.0723 20.974C42.9763 20.9711 42.8804 20.9697 42.7844 20.9697C42.6701 20.9697 42.5572 20.9697 42.443 20.9697H42.3484H16.4556H15.1504C15.0362 20.9697 14.9233 20.9697 14.809 20.9697C14.713 20.9697 14.6171 20.9711 14.5212 20.974C14.3123 20.9796 14.1021 20.9923 13.8961 21.029C13.6873 21.0671 13.4925 21.1278 13.3021 21.2251C13.1158 21.3196 12.9437 21.4438 12.7955 21.5934C12.6474 21.7415 12.5232 21.9123 12.4273 22.0999C12.3299 22.2904 12.2692 22.4851 12.2311 22.6939C12.1945 22.8999 12.1818 23.1102 12.1761 23.319C12.1733 23.4149 12.1719 23.5109 12.1719 23.6068C12.1719 23.7211 12.1719 23.834 12.1719 23.9483V25.2534V24.2277V35.0767H45.4215V24.2954V23.9483Z" fill="#F26D5F"/>
</g>
<path fill-rule="evenodd" clip-rule="evenodd" d="M10.1602 9.88965V25.5063H12.175V16.1868V14.8817C12.175 14.7674 12.175 14.6545 12.175 14.5402C12.175 14.4443 12.1764 14.3483 12.1793 14.2524C12.1849 14.0436 12.1976 13.8333 12.2343 13.6273C12.2724 13.4185 12.3331 13.2238 12.4304 13.0333C12.525 12.8471 12.6491 12.6749 12.7987 12.5268C12.9468 12.3786 13.1176 12.2544 13.3052 12.1585C13.4943 12.064 13.689 12.0019 13.8978 11.9652C14.1038 11.9285 14.3141 11.9158 14.5229 11.9102C14.6188 11.9073 14.7148 11.9059 14.8107 11.9059C14.925 11.9059 15.0379 11.9059 15.1522 11.9059H16.4573H42.3473H42.4475C42.5618 11.9059 42.6747 11.9059 42.789 11.9059C42.8849 11.9059 42.9809 11.9073 43.0768 11.9102C43.2856 11.9158 43.4959 11.9285 43.7019 11.9652C43.9107 12.0033 44.1054 12.064 44.2959 12.1613C44.4821 12.2559 44.6543 12.38 44.8024 12.5296C44.9506 12.6777 45.0748 12.8485 45.1707 13.0361C45.2681 13.2266 45.3287 13.4213 45.3668 13.6301C45.4035 13.8361 45.4162 14.0464 45.4219 14.2552C45.4247 14.3512 45.4261 14.4471 45.4261 14.543C45.4261 14.6573 45.4261 14.7702 45.4261 14.8845V16.1897V25.5092H47.441V9.88965H10.1602Z" fill="#D9D6CC"/>
<g filter="url(#filter3_d_568_1107)">
<path fill-rule="evenodd" clip-rule="evenodd" d="M38.0735 23.9951C37.8576 23.9951 37.6403 23.9951 37.4244 23.9965C37.2424 23.9979 37.0604 23.9994 36.8784 24.005C36.4819 24.0163 36.0812 24.0389 35.6889 24.1094C35.2911 24.1814 34.92 24.2985 34.5588 24.4819C34.5122 24.5059 33.5175 24.9574 32.6229 26.3486C31.9442 27.4054 30.6235 28.5258 28.7738 28.5258C26.9254 28.5258 25.6047 27.4054 24.9246 26.3486C23.9835 24.8826 22.9097 24.4424 22.9873 24.4819C22.6261 24.2971 22.255 24.18 21.8571 24.1094C21.4649 24.0389 21.0642 24.0149 20.6677 24.005C20.4857 24.0008 20.3037 23.9979 20.1216 23.9965C19.9058 23.9951 19.6885 23.9951 19.4726 23.9951H10.1602V38.1006H47.4396V23.9951H38.0735Z" fill="#DEDBCE"/>
</g>
</g>
<path d="M58.176 24.9199H60.0823L64.2108 36.2882H62.3596L61.3197 33.2165H56.9386L55.8903 36.2882H54.0391L58.176 24.9199ZM57.4113 31.7984H60.8386L59.1454 26.8036H59.1143L57.4113 31.7984Z" fill="white"/>
<path d="M65.3008 28.0004H67.0024V29.4269H67.0419C67.5386 28.442 68.4529 27.8438 69.6339 27.8438C71.7461 27.8438 73.1007 29.4988 73.1007 32.1444V32.1529C73.1007 34.7928 71.7377 36.4535 69.6579 36.4535C68.4839 36.4535 67.5301 35.8553 67.0419 34.8944H67.0024V39.0469H65.3008V28.0004ZM71.368 32.1529V32.1444C71.368 30.3793 70.5242 29.3013 69.1937 29.3013C67.9012 29.3013 66.9954 30.4202 66.9954 32.1444V32.1529C66.9954 33.8714 67.9097 34.9889 69.1937 34.9889C70.5313 34.9889 71.368 33.9011 71.368 32.1529Z" fill="white"/>
<path d="M74.7812 28.0004H76.4829V29.4269H76.5224C77.0191 28.442 77.932 27.8438 79.1144 27.8438C81.2266 27.8438 82.5811 29.4988 82.5811 32.1444V32.1529C82.5811 34.7928 81.2181 36.4535 79.1383 36.4535C77.9644 36.4535 77.0106 35.8553 76.5224 34.8944H76.4829V39.0469H74.7812V28.0004ZM80.847 32.1529V32.1444C80.847 30.3793 80.0033 29.3013 78.6727 29.3013C77.3803 29.3013 76.4744 30.4202 76.4744 32.1444V32.1529C76.4744 33.8714 77.3887 34.9889 78.6727 34.9889C80.0117 34.9889 80.847 33.9011 80.847 32.1529Z" fill="white"/>
<path d="M84.082 24.9199H85.7851V36.2882H84.082V24.9199Z" fill="white"/>
<path d="M87.4414 32.1749V32.1664C87.4414 29.5745 88.9385 27.8418 91.2637 27.8418C93.589 27.8418 95.0141 29.511 95.0141 32.0014V32.577H89.1459C89.1769 34.1446 90.0362 35.0575 91.3907 35.0575C92.3996 35.0575 93.0698 34.5383 93.2828 33.916L93.3068 33.8526H94.921L94.9055 33.94C94.6388 35.2551 93.3604 36.453 91.3526 36.453C88.9159 36.453 87.4414 34.7909 87.4414 32.1749ZM89.1684 31.3721H93.328C93.1855 29.9385 92.3826 29.2373 91.2722 29.2373C90.1674 29.2373 89.3166 29.9851 89.1684 31.3721Z" fill="white"/>
<path d="M100.422 24.9199H102.258L104.378 33.8302H104.409L106.812 24.9199H108.481L110.884 33.8302H110.924L113.043 24.9199H114.88L111.807 36.2882H110.114L107.671 27.7165H107.631L105.18 36.2882H103.485L100.422 24.9199Z" fill="white"/>
<path d="M115.363 33.9316V33.9161C115.363 32.474 116.484 31.5922 118.445 31.4736L120.697 31.3396V30.7174C120.697 29.8045 120.106 29.2514 119.05 29.2514C118.065 29.2514 117.459 29.717 117.317 30.3787L117.301 30.4507H115.695L115.702 30.3632C115.82 28.9367 117.058 27.8418 119.098 27.8418C121.123 27.8418 122.407 28.9141 122.407 30.5749V36.2865H120.697V34.9785H120.666C120.185 35.8688 119.225 36.4361 118.129 36.4361C116.475 36.4375 115.363 35.4216 115.363 33.9316ZM118.593 35.0759C119.79 35.0759 120.697 34.2646 120.697 33.1838V32.5375L118.672 32.6645C117.649 32.7266 117.08 33.1753 117.08 33.8765V33.8935C117.08 34.6173 117.68 35.0759 118.593 35.0759Z" fill="white"/>
<path d="M124.273 24.9199H125.975V36.2882H124.273V24.9199Z" fill="white"/>
<path d="M128.371 24.9199H130.073V36.2882H128.371V24.9199Z" fill="white"/>
<path d="M131.566 32.1749V32.1664C131.566 29.5745 133.062 27.8418 135.387 27.8418C137.713 27.8418 139.139 29.511 139.139 32.0014V32.577H133.269C133.3 34.1446 134.16 35.0575 135.516 35.0575C136.525 35.0575 137.193 34.5383 137.406 33.916L137.432 33.8526H139.046L139.03 33.94C138.762 35.2551 137.485 36.453 135.476 36.453C133.039 36.453 131.566 34.7909 131.566 32.1749ZM133.292 31.3721H137.453C137.31 29.9385 136.508 29.2373 135.396 29.2373C134.292 29.2373 133.442 29.9851 133.292 31.3721Z" fill="white"/>
<path d="M141.3 34.1053V29.3546H140.109V27.9986H141.3V25.8398H143.04V27.9986H144.592V29.3546H143.04V34.0023C143.04 34.8461 143.42 35.0973 144.135 35.0973C144.317 35.0973 144.465 35.0803 144.592 35.0662V36.3812C144.395 36.4123 144.073 36.4518 143.726 36.4518C142.088 36.4532 141.3 35.7604 141.3 34.1053Z" fill="white"/>
<path d="M59.5346 17.6144H56.1369L55.2791 20.0596H54.1602L57.3095 11.5176H58.3635L61.5128 20.0596H60.3938L59.5346 17.6144ZM56.4516 16.7086H59.2227L57.8837 12.8961H57.7892L56.4516 16.7086Z" fill="white"/>
<path d="M62.1875 16.8679C62.1875 14.8671 63.2471 13.5648 64.8698 13.5648C65.7573 13.5648 66.5093 13.9853 66.8705 14.6837H66.9594V11.1436H67.9781V20.0581H67.0074V19.0394H66.9129C66.5107 19.7491 65.753 20.1696 64.8698 20.1696C63.2359 20.171 62.1875 18.8743 62.1875 16.8679ZM63.2415 16.8679C63.2415 18.3593 63.9399 19.2538 65.1068 19.2538C66.2666 19.2538 66.9834 18.3424 66.9834 16.8679C66.9834 15.4061 66.261 14.4819 65.1068 14.4819C63.9456 14.4819 63.2415 15.3821 63.2415 16.8679Z" fill="white"/>
<path d="M69.6211 16.8679C69.6211 14.8671 70.6807 13.5648 72.3034 13.5648C73.1909 13.5648 73.9429 13.9853 74.3041 14.6837H74.393V11.1436H75.4117V20.0581H74.441V19.0394H74.345C73.9429 19.7491 73.1852 20.1696 72.302 20.1696C70.668 20.171 69.6211 18.8743 69.6211 16.8679ZM70.6737 16.8679C70.6737 18.3593 71.3721 19.2538 72.539 19.2538C73.6988 19.2538 74.4156 18.3424 74.4156 16.8679C74.4156 15.4061 73.6932 14.4819 72.539 14.4819C71.3778 14.4819 70.6737 15.3821 70.6737 16.8679Z" fill="white"/>
<path d="M82.2256 12.0254V13.6776H83.6479V14.5299H82.2256V18.142C82.2256 18.894 82.5106 19.2129 83.1738 19.2129C83.3572 19.2129 83.4574 19.2073 83.6479 19.1889V20.0468C83.4447 20.0821 83.2514 20.1061 83.0496 20.1061C81.736 20.1061 81.2083 19.6207 81.2083 18.4016V14.5299H80.1797V13.6776H81.2083V12.0254H82.2256Z" fill="white"/>
<path d="M84.7617 16.8675C84.7617 14.8132 85.8877 13.5645 87.705 13.5645C89.5224 13.5645 90.6469 14.8132 90.6469 16.8675C90.6469 18.9149 89.5224 20.1706 87.705 20.1706C85.8877 20.1706 84.7617 18.9149 84.7617 16.8675ZM89.5929 16.8675C89.5929 15.3522 88.9114 14.4816 87.7036 14.4816C86.4958 14.4816 85.8143 15.3522 85.8143 16.8675C85.8143 18.3773 86.4944 19.2535 87.7036 19.2535C88.9114 19.2535 89.5929 18.3773 89.5929 16.8675Z" fill="white"/>
<defs>
<filter id="filter0_d_568_1107" x="9.17188" y="11.7258" width="39.25" height="20.1074" filterUnits="userSpaceOnUse" color-interpolation-filters="sRGB">
<feFlood flood-opacity="0" result="BackgroundImageFix"/>
<feColorMatrix in="SourceAlpha" type="matrix" values="0 0 0 0 0 0 0 0 0 0 0 0 0 0 0 0 0 0 127 0" result="hardAlpha"/>
<feOffset dy="-0.2"/>
<feGaussianBlur stdDeviation="1.5"/>
<feComposite in2="hardAlpha" operator="out"/>
<feColorMatrix type="matrix" values="0 0 0 0 0 0 0 0 0 0 0 0 0 0 0 0 0 0 0.12 0"/>
<feBlend mode="normal" in2="BackgroundImageFix" result="effect1_dropShadow_568_1107"/>
<feBlend mode="normal" in="SourceGraphic" in2="effect1_dropShadow_568_1107" result="shape"/>
</filter>
<filter id="filter1_d_568_1107" x="9.17188" y="14.7473" width="39.25" height="20.1074" filterUnits="userSpaceOnUse" color-interpolation-filters="sRGB">
<feFlood flood-opacity="0" result="BackgroundImageFix"/>
<feColorMatrix in="SourceAlpha" type="matrix" values="0 0 0 0 0 0 0 0 0 0 0 0 0 0 0 0 0 0 127 0" result="hardAlpha"/>
<feOffset dy="-0.2"/>
<feGaussianBlur stdDeviation="1.5"/>
<feComposite in2="hardAlpha" operator="out"/>
<feColorMatrix type="matrix" values="0 0 0 0 0 0 0 0 0 0 0 0 0 0 0 0 0 0 0.12 0"/>
<feBlend mode="normal" in2="BackgroundImageFix" result="effect1_dropShadow_568_1107"/>
<feBlend mode="normal" in="SourceGraphic" in2="effect1_dropShadow_568_1107" result="shape"/>
</filter>
<filter id="filter2_d_568_1107" x="9.17188" y="17.7697" width="39.25" height="20.1074" filterUnits="userSpaceOnUse" color-interpolation-filters="sRGB">
<feFlood flood-opacity="0" result="BackgroundImageFix"/>
<feColorMatrix in="SourceAlpha" type="matrix" values="0 0 0 0 0 0 0 0 0 0 0 0 0 0 0 0 0 0 127 0" result="hardAlpha"/>
<feOffset dy="-0.2"/>
<feGaussianBlur stdDeviation="1.5"/>
<feComposite in2="hardAlpha" operator="out"/>
<feColorMatrix type="matrix" values="0 0 0 0 0 0 0 0 0 0 0 0 0 0 0 0 0 0 0.12 0"/>
<feBlend mode="normal" in2="BackgroundImageFix" result="effect1_dropShadow_568_1107"/>
<feBlend mode="normal" in="SourceGraphic" in2="effect1_dropShadow_568_1107" result="shape"/>
</filter>
<filter id="filter3_d_568_1107" x="7.16016" y="20.7951" width="43.2812" height="20.1055" filterUnits="userSpaceOnUse" color-interpolation-filters="sRGB">
<feFlood flood-opacity="0" result="BackgroundImageFix"/>
<feColorMatrix in="SourceAlpha" type="matrix" values="0 0 0 0 0 0 0 0 0 0 0 0 0 0 0 0 0 0 127 0" result="hardAlpha"/>
<feOffset dy="-0.2"/>
<feGaussianBlur stdDeviation="1.5"/>
<feComposite in2="hardAlpha" operator="out"/>
<feColorMatrix type="matrix" values="0 0 0 0 0 0 0 0 0 0 0 0 0 0 0 0 0 0 0.12 0"/>
<feBlend mode="normal" in2="BackgroundImageFix" result="effect1_dropShadow_568_1107"/>
<feBlend mode="normal" in="SourceGraphic" in2="effect1_dropShadow_568_1107" result="shape"/>
</filter>
</defs>
</svg>
