<svg width="189" height="48" viewBox="0 0 189 48" fill="none" xmlns="http://www.w3.org/2000/svg">
<path d="M174.684 0.00141098H13.4508C12.933 0.00141098 12.4222 0.00141098 11.9072 0.00423293C11.4741 0.00705488 11.0465 0.0155207 10.6105 0.0225756C9.67083 0.0451512 8.72124 0.103001 7.78294 0.270907C6.839 0.437403 5.96137 0.719598 5.10209 1.15559C4.25692 1.58876 3.48511 2.15033 2.81772 2.81913C2.14327 3.48652 1.58312 4.26115 1.15559 5.10632C0.716776 5.9642 0.438814 6.84606 0.273729 7.79141C0.104412 8.72548 0.0451512 9.66942 0.0211646 10.6148C0.00846586 11.0479 0.00705488 11.4811 0 11.9143C0 12.4251 0 12.9372 0 13.4551V34.5463C0 35.067 0 35.5764 0 36.0899C0.00705488 36.5273 0.00846586 36.9521 0.0211646 37.3909C0.0451512 38.3362 0.104412 39.2816 0.273729 40.2156C0.438814 41.161 0.716776 42.0471 1.15559 42.9021C1.58312 43.7431 2.14327 44.5163 2.81772 45.1795C3.48511 45.8525 4.25692 46.4141 5.10068 46.8416C5.95996 47.2818 6.83759 47.5612 7.78294 47.7319C8.71983 47.8998 9.67083 47.9548 10.6105 47.9817C11.0465 47.9915 11.4755 47.9972 11.9072 47.9972C12.4236 48 12.9344 48 13.4522 48H174.686C175.192 48 175.707 48 176.215 47.9972C176.646 47.9972 177.086 47.9915 177.516 47.9817C178.462 47.9563 179.41 47.8998 180.338 47.7319C181.284 47.5612 182.163 47.2832 183.03 46.8416C183.873 46.4126 184.645 45.8525 185.312 45.1795C185.984 44.5163 186.544 43.7431 186.978 42.9021C187.411 42.0471 187.692 41.161 187.852 40.2156C188.025 39.2816 188.08 38.3362 188.114 37.3909C188.12 36.9521 188.12 36.5288 188.12 36.0899C188.131 35.5778 188.131 35.0684 188.131 34.5463V13.4537C188.131 12.9372 188.131 12.4251 188.12 11.9129C188.12 11.4797 188.12 11.0465 188.114 10.6134C188.082 9.66801 188.027 8.72265 187.852 7.78859C187.692 6.84323 187.411 5.96137 186.978 5.1035C186.542 4.25833 185.984 3.48511 185.312 2.81631C184.645 2.14751 183.874 1.58594 183.03 1.15277C182.163 0.715365 181.284 0.43317 180.338 0.268085C179.41 0.100179 178.462 0.0423293 177.516 0.0183427C177.086 0.0112878 176.646 0.00282195 176.215 0C175.707 0.00141098 175.192 0.00141098 174.684 0.00141098Z" fill="#A6A6A6"/>
<path d="M174.685 0.918945C175.19 0.918945 175.704 0.918945 176.209 0.921767C176.556 0.924589 176.912 0.930233 177.262 0.935877L177.493 0.94011C178.24 0.958453 179.217 1.00219 180.18 1.17574C181.053 1.32813 181.85 1.59057 182.611 1.97294C183.371 2.36378 184.061 2.86609 184.664 3.46999C185.261 4.0626 185.764 4.75398 186.158 5.51873C186.54 6.27924 186.799 7.07221 186.948 7.95831C187.113 8.84722 187.164 9.77564 187.195 10.6265C187.201 11.0554 187.201 11.4857 187.201 11.933C187.212 12.4382 187.212 12.9433 187.212 13.4541V34.5453C187.212 35.0589 187.212 35.5626 187.201 36.0889C187.201 36.5235 187.201 36.944 187.195 37.3574C187.164 38.228 187.113 39.1564 186.945 40.0608C186.797 40.9385 186.539 41.7314 186.162 42.4778C185.762 43.2525 185.258 43.941 184.658 44.5322C184.061 45.1347 183.374 45.6356 182.614 46.0222C181.864 46.4032 181.066 46.6656 180.174 46.8279C179.25 46.9958 178.299 47.0409 177.496 47.0635C177.073 47.0734 176.64 47.079 176.211 47.079C175.705 47.0819 175.192 47.0819 174.687 47.0819H13.4517C12.9367 47.0819 12.4273 47.0819 11.9067 47.079C11.4819 47.079 11.0601 47.0734 10.6354 47.0649C9.82828 47.0423 8.8787 46.9972 7.94604 46.8293C7.05289 46.6684 6.25851 46.4046 5.51634 46.0236C4.75582 45.6384 4.06727 45.1361 3.46055 44.5238C2.86512 43.9382 2.36422 43.2525 1.97197 42.4821C1.59383 41.7441 1.3328 40.9498 1.17618 40.0495C1.00122 39.0887 0.957476 38.1109 0.937722 37.363C0.929257 37.0696 0.925024 36.7831 0.922202 36.4939L0.917969 36.0889V34.5453V13.4541V11.9288L0.923613 11.5069C0.926435 11.2191 0.930668 10.9312 0.939133 10.6392C0.957476 9.89416 1.00263 8.91636 1.179 7.94843C1.33421 7.05951 1.59383 6.26655 1.97479 5.52014C2.36281 4.75398 2.8637 4.06401 3.4676 3.46717C4.06868 2.86468 4.76006 2.36237 5.51775 1.97436C6.27403 1.58916 7.067 1.32813 7.94604 1.17433C8.91115 1.00078 9.89037 0.957042 10.6255 0.938699L10.9049 0.934466C11.2421 0.928822 11.5765 0.923178 11.9123 0.921767C12.4259 0.918945 12.9367 0.918945 13.4517 0.918945H174.685Z" fill="black"/>
<mask id="mask0_568_2996" style="mask-type:luminance" maskUnits="userSpaceOnUse" x="10" y="10" width="37" height="28">
<path d="M46.9374 32.5304V32.9043C46.9374 33.0835 46.9374 33.2627 46.936 33.4419C46.9346 33.5928 46.9332 33.7438 46.929 33.8948C46.9205 34.2235 46.9008 34.5551 46.8429 34.8796C46.7836 35.2098 46.6863 35.5174 46.5339 35.8165C46.3843 36.1114 46.1882 36.3809 45.954 36.6137C45.7198 36.8479 45.4503 37.0427 45.1568 37.1936C44.8577 37.346 44.5501 37.4434 44.2199 37.5026C43.8954 37.5605 43.5638 37.5802 43.235 37.5887C43.0841 37.5929 42.9331 37.5944 42.7821 37.5958C42.6029 37.5972 42.4237 37.5972 42.2445 37.5972L40.1859 37.5958L42.102 37.5972H15.4995L17.4156 37.5958L15.357 37.5972C15.1778 37.5972 14.9986 37.5972 14.8194 37.5958C14.6684 37.5944 14.5174 37.5929 14.3665 37.5887C14.0377 37.5802 13.7061 37.5605 13.3816 37.5026C13.0514 37.4434 12.7453 37.346 12.4447 37.1936C12.1498 37.0441 11.8803 36.8479 11.6475 36.6137C11.4133 36.3795 11.2186 36.11 11.0676 35.8165C10.9152 35.5174 10.8179 35.2098 10.7586 34.8796C10.7007 34.5551 10.681 34.2235 10.6725 33.8948C10.6683 33.7438 10.6669 33.5928 10.6655 33.4419C10.6641 33.2627 10.6641 33.0835 10.6641 32.9043V32.6108V15.3799V17.1437V15.0851C10.6641 14.9059 10.6641 14.7267 10.6655 14.5475C10.6669 14.3965 10.6683 14.2455 10.6725 14.0945C10.681 13.7658 10.7007 13.4342 10.7586 13.1097C10.8179 12.7795 10.9152 12.4719 11.0676 12.1728C11.2172 11.8779 11.4133 11.6084 11.6475 11.3756C11.8817 11.1428 12.1512 10.9467 12.4461 10.7971C12.7453 10.6447 13.0528 10.5474 13.383 10.4881C13.7075 10.4302 14.0391 10.4105 14.3679 10.402C14.5188 10.3978 14.6698 10.3964 14.8208 10.395C15 10.3936 15.1792 10.3936 15.3584 10.3936H17.417H42.1034H42.2445C42.4237 10.3936 42.6029 10.3936 42.7821 10.395C42.9331 10.3964 43.0841 10.3978 43.235 10.402C43.5638 10.4105 43.8954 10.4302 44.2199 10.4881C44.5501 10.5474 44.8562 10.6447 45.1568 10.7971C45.4517 10.9467 45.7212 11.1428 45.954 11.377C46.1882 11.6112 46.3829 11.8807 46.5339 12.1742C46.6863 12.4733 46.7836 12.7809 46.8429 13.1111C46.9008 13.4356 46.9205 13.7672 46.929 14.096C46.9332 14.2469 46.9346 14.3979 46.936 14.5489C46.9374 14.7281 46.9374 14.9073 46.9374 15.0865V15.4604V32.5304Z" fill="white"/>
</mask>
<g mask="url(#mask0_568_2996)">
<path d="M45.7858 11.5264H11.7812V35.204H45.7858V11.5264Z" fill="#DEDBCE"/>
<path d="M45.4254 11.9043H12.1758V26.0098H45.4254V11.9043Z" fill="#40A5D9"/>
<g filter="url(#filter0_d_568_2996)">
<path fill-rule="evenodd" clip-rule="evenodd" d="M45.4215 17.9044C45.4215 17.7901 45.4215 17.6772 45.4215 17.5629C45.4215 17.467 45.4201 17.371 45.4173 17.2751C45.4116 17.0662 45.399 16.856 45.3623 16.65C45.3242 16.4412 45.2635 16.2465 45.1661 16.056C45.0716 15.8697 44.9474 15.6976 44.7979 15.5494C44.6497 15.4013 44.479 15.2771 44.2913 15.1812C44.1009 15.0838 43.9061 15.0231 43.6973 14.985C43.4913 14.9484 43.2811 14.9357 43.0723 14.93C42.9763 14.9272 42.8804 14.9258 42.7844 14.9258C42.6701 14.9258 42.5572 14.9258 42.443 14.9258H42.3498H16.4556H15.1504C15.0362 14.9258 14.9233 14.9258 14.809 14.9258C14.713 14.9258 14.6171 14.9272 14.5212 14.93C14.3123 14.9357 14.1021 14.9484 13.8961 14.985C13.6873 15.0231 13.4925 15.0838 13.3021 15.1812C13.1158 15.2757 12.9437 15.3999 12.7955 15.5494C12.6474 15.6976 12.5232 15.8683 12.4273 16.056C12.3299 16.2465 12.2692 16.4412 12.2311 16.65C12.1945 16.856 12.1818 17.0662 12.1761 17.2751C12.1733 17.371 12.1719 17.467 12.1719 17.5629C12.1719 17.6772 12.1719 17.7901 12.1719 17.9044V19.2095V18.1837V29.0327H45.4215V18.2515V17.9044Z" fill="#FFB003"/>
</g>
<g filter="url(#filter1_d_568_2996)">
<path fill-rule="evenodd" clip-rule="evenodd" d="M45.4215 20.9258C45.4215 20.8115 45.4215 20.6987 45.4215 20.5844C45.4215 20.4884 45.4201 20.3925 45.4173 20.2965C45.4116 20.0877 45.399 19.8775 45.3623 19.6715C45.3242 19.4627 45.2635 19.2679 45.1661 19.0775C45.0716 18.8912 44.9474 18.7191 44.7979 18.5709C44.6497 18.4228 44.479 18.2986 44.2913 18.2027C44.1009 18.1053 43.9061 18.0446 43.6973 18.0065C43.4913 17.9698 43.2811 17.9571 43.0723 17.9515C42.9763 17.9487 42.8804 17.9473 42.7844 17.9473C42.6701 17.9473 42.5572 17.9473 42.443 17.9473H42.3484H16.4556H15.1504C15.0362 17.9473 14.9233 17.9473 14.809 17.9473C14.713 17.9473 14.6171 17.9487 14.5212 17.9515C14.3123 17.9571 14.1021 17.9698 13.8961 18.0065C13.6873 18.0446 13.4925 18.1053 13.3021 18.2027C13.1158 18.2972 12.9437 18.4214 12.7955 18.5709C12.6474 18.7191 12.5232 18.8898 12.4273 19.0775C12.3299 19.2679 12.2692 19.4627 12.2311 19.6715C12.1945 19.8775 12.1818 20.0877 12.1761 20.2965C12.1733 20.3925 12.1719 20.4884 12.1719 20.5844C12.1719 20.6987 12.1719 20.8115 12.1719 20.9258V22.231V21.2052V32.0542H45.4215V21.2729V20.9258Z" fill="#40C740"/>
</g>
<g filter="url(#filter2_d_568_2996)">
<path fill-rule="evenodd" clip-rule="evenodd" d="M45.4215 23.9483C45.4215 23.834 45.4215 23.7211 45.4215 23.6068C45.4215 23.5109 45.4201 23.4149 45.4173 23.319C45.4116 23.1102 45.399 22.8999 45.3623 22.6939C45.3242 22.4851 45.2635 22.2904 45.1661 22.0999C45.0716 21.9137 44.9474 21.7415 44.7979 21.5934C44.6497 21.4452 44.479 21.3211 44.2913 21.2251C44.1009 21.1278 43.9061 21.0671 43.6973 21.029C43.4913 20.9923 43.2811 20.9796 43.0723 20.974C42.9763 20.9711 42.8804 20.9697 42.7844 20.9697C42.6701 20.9697 42.5572 20.9697 42.443 20.9697H42.3484H16.4556H15.1504C15.0362 20.9697 14.9233 20.9697 14.809 20.9697C14.713 20.9697 14.6171 20.9711 14.5212 20.974C14.3123 20.9796 14.1021 20.9923 13.8961 21.029C13.6873 21.0671 13.4925 21.1278 13.3021 21.2251C13.1158 21.3196 12.9437 21.4438 12.7955 21.5934C12.6474 21.7415 12.5232 21.9123 12.4273 22.0999C12.3299 22.2904 12.2692 22.4851 12.2311 22.6939C12.1945 22.8999 12.1818 23.1102 12.1761 23.319C12.1733 23.4149 12.1719 23.5109 12.1719 23.6068C12.1719 23.7211 12.1719 23.834 12.1719 23.9483V25.2534V24.2277V35.0767H45.4215V24.2954V23.9483Z" fill="#F26D5F"/>
</g>
<path fill-rule="evenodd" clip-rule="evenodd" d="M10.1602 9.88965V25.5063H12.175V16.1868V14.8817C12.175 14.7674 12.175 14.6545 12.175 14.5402C12.175 14.4443 12.1764 14.3483 12.1793 14.2524C12.1849 14.0436 12.1976 13.8333 12.2343 13.6273C12.2724 13.4185 12.3331 13.2238 12.4304 13.0333C12.525 12.8471 12.6491 12.6749 12.7987 12.5268C12.9468 12.3786 13.1176 12.2544 13.3052 12.1585C13.4943 12.064 13.689 12.0019 13.8978 11.9652C14.1038 11.9285 14.3141 11.9158 14.5229 11.9102C14.6188 11.9073 14.7148 11.9059 14.8107 11.9059C14.925 11.9059 15.0379 11.9059 15.1522 11.9059H16.4573H42.3473H42.4475C42.5618 11.9059 42.6747 11.9059 42.789 11.9059C42.8849 11.9059 42.9809 11.9073 43.0768 11.9102C43.2856 11.9158 43.4959 11.9285 43.7019 11.9652C43.9107 12.0033 44.1054 12.064 44.2959 12.1613C44.4821 12.2559 44.6543 12.38 44.8024 12.5296C44.9506 12.6777 45.0748 12.8485 45.1707 13.0361C45.2681 13.2266 45.3287 13.4213 45.3668 13.6301C45.4035 13.8361 45.4162 14.0464 45.4219 14.2552C45.4247 14.3512 45.4261 14.4471 45.4261 14.543C45.4261 14.6573 45.4261 14.7702 45.4261 14.8845V16.1897V25.5092H47.441V9.88965H10.1602Z" fill="#D9D6CC"/>
<g filter="url(#filter3_d_568_2996)">
<path fill-rule="evenodd" clip-rule="evenodd" d="M38.0735 23.9951C37.8576 23.9951 37.6403 23.9951 37.4244 23.9965C37.2424 23.9979 37.0604 23.9994 36.8784 24.005C36.4819 24.0163 36.0812 24.0389 35.6889 24.1094C35.2911 24.1814 34.92 24.2985 34.5588 24.4819C34.5122 24.5059 33.5175 24.9574 32.6229 26.3486C31.9442 27.4054 30.6235 28.5258 28.7738 28.5258C26.9254 28.5258 25.6047 27.4054 24.9246 26.3486C23.9835 24.8826 22.9097 24.4424 22.9873 24.4819C22.6261 24.2971 22.255 24.18 21.8571 24.1094C21.4649 24.0389 21.0642 24.0149 20.6677 24.005C20.4857 24.0008 20.3037 23.9979 20.1216 23.9965C19.9058 23.9951 19.6885 23.9951 19.4726 23.9951H10.1602V38.1006H47.4396V23.9951H38.0735Z" fill="#DEDBCE"/>
</g>
</g>
<path d="M54.8828 24.918H59.1143C61.3437 24.918 62.8887 26.4164 62.8887 28.6458V28.6613C62.8887 30.8836 61.3437 32.4046 59.1143 32.4046H56.6479V36.289H54.8828V24.918ZM56.6479 26.408V30.9231H58.6727C60.2092 30.9231 61.0925 30.0948 61.0925 28.6683V28.6528C61.0925 27.2334 60.2092 26.4065 58.6727 26.4065L56.6479 26.408Z" fill="white"/>
<path d="M63.8672 32.1759V32.1674C63.8672 29.5755 65.3656 27.8428 67.6895 27.8428C70.0134 27.8428 71.4399 29.5134 71.4399 32.0023V32.578H65.5688C65.5999 34.1456 66.4606 35.0599 67.8151 35.0599C68.8239 35.0599 69.4927 34.5407 69.7072 33.917L69.7312 33.8535H71.3468L71.3313 33.941C71.0632 35.2575 69.7862 36.454 67.777 36.454C65.3417 36.454 63.8672 34.7918 63.8672 32.1759ZM65.5942 31.3716H69.7538C69.6113 29.9367 68.8084 29.2354 67.6966 29.2354C66.5946 29.2368 65.7424 29.9846 65.5942 31.3716Z" fill="white"/>
<path d="M73.1211 27.9999H74.8227V29.2528H74.8622C75.2954 28.409 76.1462 27.8432 77.3992 27.8432C79.2193 27.8432 80.2677 29.0172 80.2677 30.9248V36.2907H78.5576V31.2479C78.5576 30.0034 77.9748 29.3022 76.7925 29.3022C75.5945 29.3022 74.8227 30.1685 74.8227 31.461V36.2907H73.1211V27.9999ZM77.4217 27.063H75.9572L74.137 24.5811H75.4915L76.6965 26.2587L77.8874 24.5811H79.2419L77.4217 27.063Z" fill="white"/>
<path d="M81.9414 33.9325V33.917C81.9414 32.475 83.0603 31.5931 85.023 31.4746L87.2763 31.3406V30.7183C87.2763 29.8054 86.6851 29.2523 85.6297 29.2523C84.6448 29.2523 84.0381 29.718 83.8956 30.3797L83.8801 30.4517H82.2716L82.28 30.3642C82.3971 28.9377 83.6346 27.8428 85.6748 27.8428C87.701 27.8428 88.985 28.9137 88.985 30.5772V36.2903H87.2749V34.9823H87.2439C86.7641 35.8726 85.8032 36.4399 84.7069 36.4399C83.0518 36.4384 81.9414 35.4211 81.9414 33.9325ZM85.1711 35.0754C86.3705 35.0754 87.2749 34.2641 87.2749 33.1833V32.5371L85.2501 32.6641C84.2244 32.7262 83.6572 33.1749 83.6572 33.8761V33.893C83.6572 34.6183 84.2568 35.0754 85.1711 35.0754Z" fill="white"/>
<path d="M90.7578 35.193L95.1869 29.3868V29.3558H90.7903V27.9999H97.134V29.1653L92.815 34.9094V34.9404H97.1806V36.2879H90.7578V35.193ZM94.6973 27.063H93.2327L91.404 24.5811H92.76L93.972 26.2587L95.1629 24.5811H96.5174L94.6973 27.063Z" fill="white"/>
<path d="M98.4336 32.1759V32.1674C98.4336 29.5755 99.932 27.8428 102.256 27.8428C104.58 27.8428 106.006 29.5134 106.006 32.0023V32.578H100.135C100.166 34.1456 101.027 35.0599 102.382 35.0599C103.39 35.0599 104.059 34.5407 104.274 33.917L104.298 33.8535H105.913L105.898 33.941C105.63 35.2575 104.353 36.454 102.343 36.454C99.9081 36.454 98.4336 34.7918 98.4336 32.1759ZM100.161 31.3716H104.32C104.178 29.9367 103.375 29.2354 102.263 29.2354C101.161 29.2368 100.309 29.9846 100.161 31.3716Z" fill="white"/>
<path d="M107.688 27.9994H109.389V29.2523H109.429C109.862 28.4086 110.713 27.8428 111.966 27.8428C113.786 27.8428 114.834 29.0167 114.834 30.9243V36.2903H113.124V31.2475C113.124 30.003 112.541 29.3017 111.359 29.3017C110.161 29.3017 109.389 30.1681 109.389 31.4605V36.2903H107.688V27.9994Z" fill="white"/>
<path d="M116.934 24.918H118.635V31.5369H118.673L121.999 27.9981H124L120.596 31.575L124.134 36.2876H122.157L119.344 32.6007L118.635 33.302V36.2876H116.934V24.918Z" fill="white"/>
<path d="M125.425 38.976V37.6454C125.559 37.6765 125.756 37.7089 125.984 37.7089C126.787 37.7089 127.229 37.4959 127.512 36.6916L127.655 36.298L124.637 28H126.481L128.569 34.7445H128.624L130.711 28H132.507L129.419 36.6747C128.803 38.3932 127.937 39.0564 126.314 39.0564C125.984 39.0564 125.63 39.0155 125.425 38.976Z" fill="white"/>
<path d="M140.988 24.918H142.896L147.026 36.289H145.175L144.135 33.2159H139.754L138.707 36.289H136.855L140.988 24.918ZM140.223 31.7979H143.652L141.958 26.8016H141.928L140.223 31.7979Z" fill="white"/>
<path d="M148.113 27.9994H149.815V29.4259H149.854C150.351 28.441 151.264 27.8428 152.446 27.8428C154.559 27.8428 155.913 29.4978 155.913 32.1448V32.1533C155.913 34.7932 154.55 36.4554 152.47 36.4554C151.296 36.4554 150.343 35.8571 149.854 34.8962H149.815V39.0487H148.113V27.9994ZM154.18 32.1519V32.1434C154.18 30.3783 153.337 29.2989 152.006 29.2989C150.714 29.2989 149.806 30.4178 149.806 32.1434V32.1519C149.806 33.8705 150.721 34.9894 152.006 34.9894C153.345 34.9894 154.18 33.9001 154.18 32.1519Z" fill="white"/>
<path d="M157.598 27.9994H159.299V29.4259H159.339C159.835 28.441 160.748 27.8428 161.931 27.8428C164.043 27.8428 165.398 29.4978 165.398 32.1448V32.1533C165.398 34.7932 164.035 36.4554 161.955 36.4554C160.781 36.4554 159.827 35.8571 159.339 34.8962H159.299V39.0487H157.598V27.9994ZM163.663 32.1519V32.1434C163.663 30.3783 162.82 29.2989 161.489 29.2989C160.197 29.2989 159.289 30.4178 159.289 32.1434V32.1519C159.289 33.8705 160.204 34.9894 161.489 34.9894C162.83 34.9894 163.663 33.9001 163.663 32.1519Z" fill="white"/>
<path d="M166.898 24.918H168.6V36.289H166.898V24.918Z" fill="white"/>
<path d="M170.258 32.1759V32.1674C170.258 29.5755 171.756 27.8428 174.08 27.8428C176.404 27.8428 177.831 29.5134 177.831 32.0023V32.578H171.959C171.99 34.1456 172.851 35.0599 174.206 35.0599C175.215 35.0599 175.883 34.5407 176.098 33.917L176.122 33.8535H177.737L177.722 33.941C177.454 35.2575 176.177 36.454 174.168 36.454C171.732 36.454 170.258 34.7918 170.258 32.1759ZM171.985 31.3716H176.144C176.002 29.9367 175.199 29.2354 174.087 29.2354C172.985 29.2368 172.133 29.9846 171.985 31.3716Z" fill="white"/>
<path d="M54.8438 11.5166H58.0636C59.6693 11.5166 60.8051 12.6242 60.8051 14.2468V14.2581C60.8051 15.8808 59.6679 17.0109 58.0636 17.0109H55.909V20.0601H54.8438V11.5166ZM55.9076 12.4634V16.0628H57.7899C59.0104 16.0628 59.7144 15.394 59.7144 14.2694V14.2581C59.7144 13.1336 59.0104 12.4648 57.7899 12.4648H55.9076V12.4634Z" fill="white"/>
<path d="M62.3984 13.6783H63.4284V14.6251H63.523C63.7657 13.9563 64.3639 13.5654 65.2274 13.5654C65.4236 13.5654 65.6423 13.5894 65.7424 13.6063V14.6067C65.5294 14.5715 65.3333 14.5475 65.1089 14.5475C64.1269 14.5475 63.4284 15.1697 63.4284 16.1052V20.0602H62.3984V13.6783Z" fill="white"/>
<path d="M66.8359 11.7351C66.8359 11.3443 67.1562 11.0254 67.5457 11.0254C67.9365 11.0254 68.2568 11.3457 68.2568 11.7351C68.2568 12.1245 67.9365 12.4462 67.5442 12.4462C67.1548 12.4462 66.8359 12.126 66.8359 11.7351ZM67.0236 13.678H68.0536V20.0599H67.0236V13.678Z" fill="white"/>
<path d="M69.6641 16.8759V16.8632C69.6641 14.8625 70.7181 13.5658 72.3393 13.5658C73.2155 13.5658 73.9788 14.0046 74.3287 14.6847H74.4233V11.1445H75.4519V20.0605H74.4233V19.0418H74.3287C73.9379 19.7515 73.2282 20.172 72.3393 20.172C70.7237 20.1734 69.6641 18.8654 69.6641 16.8759ZM74.4487 16.8759V16.8632C74.4487 15.3902 73.7376 14.4773 72.5777 14.4773C71.4123 14.4773 70.7195 15.3775 70.7195 16.8632V16.8759C70.7195 18.3617 71.4123 19.2619 72.5777 19.2619C73.7376 19.2619 74.4487 18.349 74.4487 16.8759Z" fill="white"/>
<path d="M77.0352 18.2777V18.2664C77.0352 17.1291 77.8761 16.473 79.3619 16.3841L81.1905 16.2712V15.6913C81.1905 14.904 80.7107 14.4779 79.7583 14.4779C78.9936 14.4779 78.4913 14.7629 78.3248 15.2596L78.3191 15.2779H77.2891L77.2948 15.2426C77.4599 14.2423 78.432 13.5664 79.7936 13.5664C81.3513 13.5664 82.2219 14.365 82.2219 15.6913V20.0611H81.1919V19.12H81.0988C80.6966 19.8001 80.0264 20.174 79.1686 20.174C77.9523 20.1726 77.0352 19.4389 77.0352 18.2777ZM79.3802 19.2794C80.4271 19.2794 81.1905 18.5923 81.1905 17.6808V17.1009L79.486 17.2081C78.5153 17.2674 78.0892 17.6103 78.0892 18.2438V18.2551C78.0892 18.8999 78.6408 19.2794 79.3802 19.2794Z" fill="white"/>
<path d="M84.4904 18.4023V14.5291H83.4844V13.6783H84.4904V12.0261H85.5571V13.6783H86.954V14.5305H85.5571V18.1426C85.5571 18.8947 85.8181 19.1966 86.4799 19.1966C86.6633 19.1966 86.7635 19.191 86.954 19.1727V20.0489C86.7522 20.0841 86.5575 20.1081 86.3557 20.1081C85.0421 20.1081 84.4904 19.6228 84.4904 18.4023ZM86.7818 10.7773H87.8118L86.9892 12.7908H86.319L86.7818 10.7773Z" fill="white"/>
<path d="M91.5547 16.8759V16.8632C91.5547 14.8625 92.6087 13.5658 94.2299 13.5658C95.1061 13.5658 95.8695 14.0046 96.2194 14.6847H96.3139V11.1445H97.3425V20.0605H96.3139V19.0418H96.2194C95.8285 19.7515 95.1188 20.172 94.2299 20.172C92.6143 20.1734 91.5547 18.8654 91.5547 16.8759ZM96.3393 16.8759V16.8632C96.3393 15.3902 95.6282 14.4773 94.4684 14.4773C93.3029 14.4773 92.6101 15.3775 92.6101 16.8632V16.8759C92.6101 18.3617 93.3029 19.2619 94.4684 19.2619C95.6282 19.2619 96.3393 18.349 96.3393 16.8759Z" fill="white"/>
<path d="M98.9883 16.8756V16.8629C98.9883 14.8141 100.113 13.5654 101.932 13.5654C103.749 13.5654 104.873 14.8141 104.873 16.8629V16.8756C104.873 18.9173 103.749 20.173 101.932 20.173C100.113 20.173 98.9883 18.9173 98.9883 16.8756ZM103.818 16.8756V16.8629C103.818 15.3531 103.138 14.4769 101.93 14.4769C100.722 14.4769 100.041 15.3531 100.041 16.8629V16.8756C100.041 18.3783 100.721 19.2615 101.93 19.2615C103.138 19.2615 103.818 18.3783 103.818 16.8756Z" fill="white"/>
<defs>
<filter id="filter0_d_568_2996" x="9.17188" y="11.7258" width="39.25" height="20.1074" filterUnits="userSpaceOnUse" color-interpolation-filters="sRGB">
<feFlood flood-opacity="0" result="BackgroundImageFix"/>
<feColorMatrix in="SourceAlpha" type="matrix" values="0 0 0 0 0 0 0 0 0 0 0 0 0 0 0 0 0 0 127 0" result="hardAlpha"/>
<feOffset dy="-0.2"/>
<feGaussianBlur stdDeviation="1.5"/>
<feComposite in2="hardAlpha" operator="out"/>
<feColorMatrix type="matrix" values="0 0 0 0 0 0 0 0 0 0 0 0 0 0 0 0 0 0 0.12 0"/>
<feBlend mode="normal" in2="BackgroundImageFix" result="effect1_dropShadow_568_2996"/>
<feBlend mode="normal" in="SourceGraphic" in2="effect1_dropShadow_568_2996" result="shape"/>
</filter>
<filter id="filter1_d_568_2996" x="9.17188" y="14.7473" width="39.25" height="20.1074" filterUnits="userSpaceOnUse" color-interpolation-filters="sRGB">
<feFlood flood-opacity="0" result="BackgroundImageFix"/>
<feColorMatrix in="SourceAlpha" type="matrix" values="0 0 0 0 0 0 0 0 0 0 0 0 0 0 0 0 0 0 127 0" result="hardAlpha"/>
<feOffset dy="-0.2"/>
<feGaussianBlur stdDeviation="1.5"/>
<feComposite in2="hardAlpha" operator="out"/>
<feColorMatrix type="matrix" values="0 0 0 0 0 0 0 0 0 0 0 0 0 0 0 0 0 0 0.12 0"/>
<feBlend mode="normal" in2="BackgroundImageFix" result="effect1_dropShadow_568_2996"/>
<feBlend mode="normal" in="SourceGraphic" in2="effect1_dropShadow_568_2996" result="shape"/>
</filter>
<filter id="filter2_d_568_2996" x="9.17188" y="17.7697" width="39.25" height="20.1074" filterUnits="userSpaceOnUse" color-interpolation-filters="sRGB">
<feFlood flood-opacity="0" result="BackgroundImageFix"/>
<feColorMatrix in="SourceAlpha" type="matrix" values="0 0 0 0 0 0 0 0 0 0 0 0 0 0 0 0 0 0 127 0" result="hardAlpha"/>
<feOffset dy="-0.2"/>
<feGaussianBlur stdDeviation="1.5"/>
<feComposite in2="hardAlpha" operator="out"/>
<feColorMatrix type="matrix" values="0 0 0 0 0 0 0 0 0 0 0 0 0 0 0 0 0 0 0.12 0"/>
<feBlend mode="normal" in2="BackgroundImageFix" result="effect1_dropShadow_568_2996"/>
<feBlend mode="normal" in="SourceGraphic" in2="effect1_dropShadow_568_2996" result="shape"/>
</filter>
<filter id="filter3_d_568_2996" x="7.16016" y="20.7951" width="43.2812" height="20.1055" filterUnits="userSpaceOnUse" color-interpolation-filters="sRGB">
<feFlood flood-opacity="0" result="BackgroundImageFix"/>
<feColorMatrix in="SourceAlpha" type="matrix" values="0 0 0 0 0 0 0 0 0 0 0 0 0 0 0 0 0 0 127 0" result="hardAlpha"/>
<feOffset dy="-0.2"/>
<feGaussianBlur stdDeviation="1.5"/>
<feComposite in2="hardAlpha" operator="out"/>
<feColorMatrix type="matrix" values="0 0 0 0 0 0 0 0 0 0 0 0 0 0 0 0 0 0 0.12 0"/>
<feBlend mode="normal" in2="BackgroundImageFix" result="effect1_dropShadow_568_2996"/>
<feBlend mode="normal" in="SourceGraphic" in2="effect1_dropShadow_568_2996" result="shape"/>
</filter>
</defs>
</svg>
