<svg width="146" height="48" viewBox="0 0 146 48" fill="none" xmlns="http://www.w3.org/2000/svg">
<path d="M132.478 0.00141098H13.4508C12.933 0.00141098 12.4222 0.00141098 11.9072 0.00423293C11.4741 0.00705488 11.0465 0.0155207 10.6105 0.0225756C9.67083 0.0451512 8.72124 0.103001 7.78294 0.270907C6.839 0.437403 5.96137 0.719598 5.10209 1.15559C4.25692 1.58876 3.48511 2.15033 2.81772 2.81913C2.14327 3.48652 1.58312 4.26115 1.15559 5.10632C0.716776 5.9642 0.438814 6.84606 0.273729 7.79141C0.104412 8.72548 0.0451512 9.66942 0.0211646 10.6148C0.00846586 11.0479 0.00705488 11.4811 0 11.9143C0 12.4251 0 12.9372 0 13.4551V34.5463C0 35.067 0 35.5764 0 36.0899C0.00705488 36.5273 0.00846586 36.9521 0.0211646 37.3909C0.0451512 38.3362 0.104412 39.2816 0.273729 40.2156C0.438814 41.161 0.716776 42.0471 1.15559 42.9021C1.58312 43.7431 2.14327 44.5163 2.81772 45.1795C3.48511 45.8525 4.25692 46.4141 5.10068 46.8416C5.95996 47.2818 6.83759 47.5612 7.78294 47.7319C8.71983 47.8998 9.67083 47.9548 10.6105 47.9817C11.0465 47.9915 11.4755 47.9972 11.9072 47.9972C12.4236 48 12.9344 48 13.4522 48H132.479C132.986 48 133.501 48 134.009 47.9972C134.439 47.9972 134.879 47.9915 135.31 47.9817C136.255 47.9563 137.203 47.8998 138.132 47.7319C139.077 47.5612 139.956 47.2832 140.824 46.8416C141.666 46.4126 142.438 45.8525 143.105 45.1795C143.777 44.5163 144.337 43.7431 144.772 42.9021C145.205 42.0471 145.486 41.161 145.645 40.2156C145.819 39.2816 145.874 38.3362 145.908 37.3909C145.913 36.9521 145.913 36.5288 145.913 36.0899C145.925 35.5778 145.925 35.0684 145.925 34.5463V13.4537C145.925 12.9372 145.925 12.4251 145.913 11.9129C145.913 11.4797 145.913 11.0465 145.908 10.6134C145.875 9.66801 145.82 8.72265 145.645 7.78859C145.486 6.84323 145.205 5.96137 144.772 5.1035C144.336 4.25833 143.777 3.48511 143.105 2.81631C142.438 2.14751 141.668 1.58594 140.824 1.15277C139.956 0.715365 139.077 0.43317 138.132 0.268085C137.203 0.100179 136.255 0.0423293 135.31 0.0183427C134.879 0.0112878 134.439 0.00282195 134.009 0C133.5 0.00141098 132.985 0.00141098 132.478 0.00141098Z" fill="#A6A6A6"/>
<path d="M132.479 0.918945C132.984 0.918945 133.498 0.918945 134.003 0.921767C134.35 0.924589 134.705 0.930233 135.055 0.935877L135.287 0.94011C136.033 0.958453 137.011 1.00219 137.973 1.17574C138.847 1.32813 139.644 1.59057 140.404 1.97294C141.165 2.36378 141.855 2.86609 142.457 3.46999C143.054 4.0626 143.558 4.75398 143.951 5.51873C144.334 6.27924 144.592 7.07221 144.742 7.95831C144.907 8.84722 144.957 9.77564 144.989 10.6265C144.994 11.0554 144.994 11.4857 144.994 11.933C145.005 12.4382 145.005 12.9433 145.005 13.4541V34.5453C145.005 35.0589 145.005 35.5626 144.994 36.0889C144.994 36.5235 144.994 36.944 144.989 37.3574C144.957 38.228 144.907 39.1564 144.739 40.0608C144.591 40.9385 144.332 41.7314 143.956 42.4778C143.555 43.2525 143.051 43.941 142.452 44.5322C141.855 45.1347 141.168 45.6356 140.407 46.0222C139.658 46.4032 138.859 46.6656 137.968 46.8279C137.043 46.9958 136.092 47.0409 135.289 47.0635C134.866 47.0734 134.433 47.079 134.004 47.079C133.499 47.0819 132.985 47.0819 132.48 47.0819H13.4517C12.9367 47.0819 12.4273 47.0819 11.9067 47.079C11.4819 47.079 11.0601 47.0734 10.6354 47.0649C9.82828 47.0423 8.8787 46.9972 7.94604 46.8293C7.05289 46.6684 6.25851 46.4046 5.51634 46.0236C4.75582 45.6384 4.06727 45.1361 3.46055 44.5238C2.86512 43.9382 2.36422 43.2525 1.97197 42.4821C1.59383 41.7441 1.3328 40.9498 1.17618 40.0495C1.00122 39.0887 0.957476 38.1109 0.937722 37.363C0.929257 37.0696 0.925024 36.7831 0.922202 36.4939L0.917969 36.0889V34.5453V13.4541V11.9288L0.923613 11.5069C0.926435 11.2191 0.930668 10.9312 0.939133 10.6392C0.957476 9.89416 1.00263 8.91636 1.179 7.94843C1.33421 7.05951 1.59383 6.26655 1.97479 5.52014C2.36281 4.75398 2.86371 4.06401 3.4676 3.46717C4.06868 2.86468 4.76006 2.36237 5.51775 1.97436C6.27404 1.58916 7.067 1.32813 7.94604 1.17433C8.91115 1.00078 9.89037 0.957042 10.6255 0.938699L10.9049 0.934466C11.2421 0.928822 11.5765 0.923178 11.9123 0.921767C12.4259 0.918945 12.9367 0.918945 13.4517 0.918945H132.479Z" fill="black"/>
<mask id="mask0_568_2149" style="mask-type:luminance" maskUnits="userSpaceOnUse" x="10" y="10" width="37" height="28">
<path d="M46.9374 32.5304V32.9043C46.9374 33.0835 46.9374 33.2627 46.936 33.4419C46.9346 33.5928 46.9332 33.7438 46.929 33.8948C46.9205 34.2235 46.9008 34.5551 46.8429 34.8796C46.7836 35.2098 46.6863 35.5174 46.5339 35.8165C46.3843 36.1114 46.1882 36.3809 45.954 36.6137C45.7198 36.8479 45.4503 37.0427 45.1568 37.1936C44.8577 37.346 44.5501 37.4434 44.2199 37.5026C43.8954 37.5605 43.5638 37.5802 43.235 37.5887C43.0841 37.5929 42.9331 37.5944 42.7821 37.5958C42.6029 37.5972 42.4237 37.5972 42.2445 37.5972L40.1859 37.5958L42.102 37.5972H15.4995L17.4156 37.5958L15.357 37.5972C15.1778 37.5972 14.9986 37.5972 14.8194 37.5958C14.6684 37.5944 14.5174 37.5929 14.3665 37.5887C14.0377 37.5802 13.7061 37.5605 13.3816 37.5026C13.0514 37.4434 12.7453 37.346 12.4447 37.1936C12.1498 37.0441 11.8803 36.8479 11.6475 36.6137C11.4133 36.3795 11.2186 36.11 11.0676 35.8165C10.9152 35.5174 10.8179 35.2098 10.7586 34.8796C10.7007 34.5551 10.681 34.2235 10.6725 33.8948C10.6683 33.7438 10.6669 33.5928 10.6655 33.4419C10.6641 33.2627 10.6641 33.0835 10.6641 32.9043V32.6108V15.3799V17.1437V15.0851C10.6641 14.9059 10.6641 14.7267 10.6655 14.5475C10.6669 14.3965 10.6683 14.2455 10.6725 14.0945C10.681 13.7658 10.7007 13.4342 10.7586 13.1097C10.8179 12.7795 10.9152 12.4719 11.0676 12.1728C11.2172 11.8779 11.4133 11.6084 11.6475 11.3756C11.8817 11.1428 12.1512 10.9467 12.4461 10.7971C12.7453 10.6447 13.0528 10.5474 13.383 10.4881C13.7075 10.4302 14.0391 10.4105 14.3679 10.402C14.5188 10.3978 14.6698 10.3964 14.8208 10.395C15 10.3936 15.1792 10.3936 15.3584 10.3936H17.417H42.1034H42.2445C42.4237 10.3936 42.6029 10.3936 42.7821 10.395C42.9331 10.3964 43.0841 10.3978 43.235 10.402C43.5638 10.4105 43.8954 10.4302 44.2199 10.4881C44.5501 10.5474 44.8562 10.6447 45.1568 10.7971C45.4517 10.9467 45.7212 11.1428 45.954 11.377C46.1882 11.6112 46.3829 11.8807 46.5339 12.1742C46.6863 12.4733 46.7836 12.7809 46.8429 13.1111C46.9008 13.4356 46.9205 13.7672 46.929 14.096C46.9332 14.2469 46.9346 14.3979 46.936 14.5489C46.9374 14.7281 46.9374 14.9073 46.9374 15.0865V15.4604V32.5304Z" fill="white"/>
</mask>
<g mask="url(#mask0_568_2149)">
<path d="M45.7858 11.5264H11.7812V35.204H45.7858V11.5264Z" fill="#DEDBCE"/>
<path d="M45.4254 11.9043H12.1758V26.0098H45.4254V11.9043Z" fill="#40A5D9"/>
<g filter="url(#filter0_d_568_2149)">
<path fill-rule="evenodd" clip-rule="evenodd" d="M45.4215 17.9044C45.4215 17.7901 45.4215 17.6772 45.4215 17.5629C45.4215 17.467 45.4201 17.371 45.4173 17.2751C45.4116 17.0662 45.399 16.856 45.3623 16.65C45.3242 16.4412 45.2635 16.2465 45.1661 16.056C45.0716 15.8697 44.9474 15.6976 44.7979 15.5494C44.6497 15.4013 44.479 15.2771 44.2913 15.1812C44.1009 15.0838 43.9061 15.0231 43.6973 14.985C43.4913 14.9484 43.2811 14.9357 43.0723 14.93C42.9763 14.9272 42.8804 14.9258 42.7844 14.9258C42.6701 14.9258 42.5572 14.9258 42.443 14.9258H42.3498H16.4556H15.1504C15.0362 14.9258 14.9233 14.9258 14.809 14.9258C14.713 14.9258 14.6171 14.9272 14.5212 14.93C14.3123 14.9357 14.1021 14.9484 13.8961 14.985C13.6873 15.0231 13.4925 15.0838 13.3021 15.1812C13.1158 15.2757 12.9437 15.3999 12.7955 15.5494C12.6474 15.6976 12.5232 15.8683 12.4273 16.056C12.3299 16.2465 12.2692 16.4412 12.2311 16.65C12.1945 16.856 12.1818 17.0662 12.1761 17.2751C12.1733 17.371 12.1719 17.467 12.1719 17.5629C12.1719 17.6772 12.1719 17.7901 12.1719 17.9044V19.2095V18.1837V29.0327H45.4215V18.2515V17.9044Z" fill="#FFB003"/>
</g>
<g filter="url(#filter1_d_568_2149)">
<path fill-rule="evenodd" clip-rule="evenodd" d="M45.4215 20.9258C45.4215 20.8115 45.4215 20.6987 45.4215 20.5844C45.4215 20.4884 45.4201 20.3925 45.4173 20.2965C45.4116 20.0877 45.399 19.8775 45.3623 19.6715C45.3242 19.4627 45.2635 19.2679 45.1661 19.0775C45.0716 18.8912 44.9474 18.7191 44.7979 18.5709C44.6497 18.4228 44.479 18.2986 44.2913 18.2027C44.1009 18.1053 43.9061 18.0446 43.6973 18.0065C43.4913 17.9698 43.2811 17.9571 43.0723 17.9515C42.9763 17.9487 42.8804 17.9473 42.7844 17.9473C42.6701 17.9473 42.5572 17.9473 42.443 17.9473H42.3484H16.4556H15.1504C15.0362 17.9473 14.9233 17.9473 14.809 17.9473C14.713 17.9473 14.6171 17.9487 14.5212 17.9515C14.3123 17.9571 14.1021 17.9698 13.8961 18.0065C13.6873 18.0446 13.4925 18.1053 13.3021 18.2027C13.1158 18.2972 12.9437 18.4214 12.7955 18.5709C12.6474 18.7191 12.5232 18.8898 12.4273 19.0775C12.3299 19.2679 12.2692 19.4627 12.2311 19.6715C12.1945 19.8775 12.1818 20.0877 12.1761 20.2965C12.1733 20.3925 12.1719 20.4884 12.1719 20.5844C12.1719 20.6987 12.1719 20.8115 12.1719 20.9258V22.231V21.2052V32.0542H45.4215V21.2729V20.9258Z" fill="#40C740"/>
</g>
<g filter="url(#filter2_d_568_2149)">
<path fill-rule="evenodd" clip-rule="evenodd" d="M45.4215 23.9483C45.4215 23.834 45.4215 23.7211 45.4215 23.6068C45.4215 23.5109 45.4201 23.4149 45.4173 23.319C45.4116 23.1102 45.399 22.8999 45.3623 22.6939C45.3242 22.4851 45.2635 22.2904 45.1661 22.0999C45.0716 21.9137 44.9474 21.7415 44.7979 21.5934C44.6497 21.4452 44.479 21.3211 44.2913 21.2251C44.1009 21.1278 43.9061 21.0671 43.6973 21.029C43.4913 20.9923 43.2811 20.9796 43.0723 20.974C42.9763 20.9711 42.8804 20.9697 42.7844 20.9697C42.6701 20.9697 42.5572 20.9697 42.443 20.9697H42.3484H16.4556H15.1504C15.0362 20.9697 14.9233 20.9697 14.809 20.9697C14.713 20.9697 14.6171 20.9711 14.5212 20.974C14.3123 20.9796 14.1021 20.9923 13.8961 21.029C13.6873 21.0671 13.4925 21.1278 13.3021 21.2251C13.1158 21.3196 12.9437 21.4438 12.7955 21.5934C12.6474 21.7415 12.5232 21.9123 12.4273 22.0999C12.3299 22.2904 12.2692 22.4851 12.2311 22.6939C12.1945 22.8999 12.1818 23.1102 12.1761 23.319C12.1733 23.4149 12.1719 23.5109 12.1719 23.6068C12.1719 23.7211 12.1719 23.834 12.1719 23.9483V25.2534V24.2277V35.0767H45.4215V24.2954V23.9483Z" fill="#F26D5F"/>
</g>
<path fill-rule="evenodd" clip-rule="evenodd" d="M10.1602 9.88965V25.5063H12.175V16.1868V14.8817C12.175 14.7674 12.175 14.6545 12.175 14.5402C12.175 14.4443 12.1764 14.3483 12.1793 14.2524C12.1849 14.0436 12.1976 13.8333 12.2343 13.6273C12.2724 13.4185 12.3331 13.2238 12.4304 13.0333C12.525 12.8471 12.6491 12.6749 12.7987 12.5268C12.9468 12.3786 13.1176 12.2544 13.3052 12.1585C13.4943 12.064 13.689 12.0019 13.8978 11.9652C14.1038 11.9285 14.3141 11.9158 14.5229 11.9102C14.6188 11.9073 14.7148 11.9059 14.8107 11.9059C14.925 11.9059 15.0379 11.9059 15.1522 11.9059H16.4573H42.3473H42.4475C42.5618 11.9059 42.6747 11.9059 42.789 11.9059C42.8849 11.9059 42.9809 11.9073 43.0768 11.9102C43.2856 11.9158 43.4959 11.9285 43.7019 11.9652C43.9107 12.0033 44.1054 12.064 44.2959 12.1613C44.4821 12.2559 44.6543 12.38 44.8024 12.5296C44.9506 12.6777 45.0748 12.8485 45.1707 13.0361C45.2681 13.2266 45.3287 13.4213 45.3668 13.6301C45.4035 13.8361 45.4162 14.0464 45.4219 14.2552C45.4247 14.3512 45.4261 14.4471 45.4261 14.543C45.4261 14.6573 45.4261 14.7702 45.4261 14.8845V16.1897V25.5092H47.441V9.88965H10.1602Z" fill="#D9D6CC"/>
<g filter="url(#filter3_d_568_2149)">
<path fill-rule="evenodd" clip-rule="evenodd" d="M38.0735 23.9951C37.8576 23.9951 37.6403 23.9951 37.4244 23.9965C37.2424 23.9979 37.0604 23.9994 36.8784 24.005C36.4819 24.0163 36.0812 24.0389 35.6889 24.1094C35.2911 24.1814 34.92 24.2985 34.5588 24.4819C34.5122 24.5059 33.5175 24.9574 32.6229 26.3486C31.9442 27.4054 30.6235 28.5258 28.7738 28.5258C26.9254 28.5258 25.6047 27.4054 24.9246 26.3486C23.9835 24.8826 22.9097 24.4424 22.9873 24.4819C22.6261 24.2971 22.255 24.18 21.8571 24.1094C21.4649 24.0389 21.0642 24.0149 20.6677 24.005C20.4857 24.0008 20.3037 23.9979 20.1216 23.9965C19.9058 23.9951 19.6885 23.9951 19.4726 23.9951H10.1602V38.1006H47.4396V23.9951H38.0735Z" fill="#DEDBCE"/>
</g>
</g>
<path d="M61.257 18.7179H56.9224L55.8826 21.791H54.0469L58.1528 10.4199H60.0605L64.1664 21.791H62.2983L61.257 18.7179ZM57.3711 17.2998H60.8069L59.1123 12.312H59.0643L57.3711 17.2998Z" fill="white"/>
<path d="M73.0637 17.6467C73.0637 20.2711 71.6851 21.9332 69.6039 21.9332C68.4145 21.9332 67.4691 21.3491 66.995 20.4277H66.9555V24.5337H65.2539V13.5012H66.9005V14.9277H66.9316C67.4198 13.9739 68.3736 13.3672 69.5715 13.3672C71.6767 13.3672 73.0637 15.0223 73.0637 17.6467ZM71.314 17.6467C71.314 15.9126 70.4703 14.8022 69.1242 14.8022C67.8233 14.8022 66.9485 15.9366 66.9485 17.6467C66.9485 19.3723 67.8148 20.4912 69.1242 20.4912C70.4717 20.4912 71.314 19.3878 71.314 17.6467Z" fill="white"/>
<path d="M82.5466 17.6467C82.5466 20.2711 81.1667 21.9332 79.0869 21.9332C77.8975 21.9332 76.9521 21.3491 76.4794 20.4277H76.4399V24.5337H74.7383V13.5012H76.3849V14.9277H76.4159C76.9041 13.9739 77.8565 13.3672 79.0559 13.3672C81.1582 13.3672 82.5466 15.0223 82.5466 17.6467ZM80.797 17.6467C80.797 15.9126 79.9532 14.8022 78.6058 14.8022C77.3048 14.8022 76.4314 15.9366 76.4314 17.6467C76.4314 19.3723 77.2964 20.4912 78.6058 20.4912C79.9547 20.4912 80.797 19.3878 80.797 17.6467Z" fill="white"/>
<path d="M84.0391 10.4219H85.7407V21.7929H84.0391V10.4219Z" fill="white"/>
<path d="M94.8766 19.3567C94.6396 20.8692 93.206 21.9486 91.3082 21.9486C88.8715 21.9486 87.3984 20.302 87.3984 17.6861C87.3984 15.0857 88.8969 13.3516 91.2363 13.3516C93.5376 13.3516 94.9711 14.9756 94.9711 17.4885V18.0713H89.117V18.1743C89.117 19.6163 89.9833 20.5701 91.3463 20.5701C92.3171 20.5701 93.0325 20.0819 93.261 19.3567H94.8766ZM89.1255 16.8818H93.2709C93.2314 15.6134 92.4272 14.723 91.2377 14.723C90.0454 14.723 89.2101 15.6289 89.1255 16.8818Z" fill="white"/>
<path d="M107.738 21.7911H106.209V19.1568H106.145C105.983 19.3515 105.721 19.549 105.359 19.748C105 19.9483 104.527 20.0471 103.944 20.0471C103.397 20.0471 102.89 19.9229 102.426 19.676C101.96 19.4291 101.588 19.0792 101.31 18.6262C101.03 18.1747 100.892 17.64 100.892 17.0248C100.892 16.4406 101.005 15.9426 101.231 15.5292C101.457 15.1157 101.76 14.7856 102.142 14.5344C102.525 14.2847 102.945 14.1182 103.408 14.0335C103.871 13.9489 104.346 13.9489 104.836 14.0335L104.946 15.4064C104.547 15.3006 104.157 15.2907 103.783 15.3754C103.405 15.46 103.098 15.6392 102.856 15.9158C102.615 16.1923 102.494 16.5563 102.494 17.0079C102.494 17.5017 102.647 17.9081 102.959 18.2269C103.268 18.5458 103.69 18.7039 104.221 18.7039C104.847 18.7039 105.334 18.488 105.684 18.0576C106.034 17.6259 106.209 17.1024 106.209 16.4872V12.5308H99.8594V11.292H109.616V12.5308H107.738V21.7911Z" fill="white"/>
<path d="M111.834 9.75368C110.919 9.75368 110.177 9.54908 109.613 9.14131C109.048 8.73354 108.629 8.23264 108.355 7.63862L109.555 7.02344C109.738 7.44391 110.02 7.78678 110.403 8.04922C110.785 8.31166 111.261 8.44288 111.835 8.44288C112.413 8.44288 112.892 8.31166 113.271 8.04922C113.649 7.78536 113.933 7.44391 114.124 7.02344L115.292 7.63862C115.032 8.23264 114.622 8.73354 114.057 9.14131C113.487 9.5505 112.748 9.75368 111.834 9.75368ZM112.591 12.5305V21.7907H111.067V12.5305H109.199V11.2916H114.485V12.5305H112.591Z" fill="white"/>
<path d="M123.042 14.7954V12.5308H114.043V11.292H126.467V12.5308H124.575V21.7911H123.042V16.1034C122.943 16.0089 122.788 15.9129 122.578 15.8156C122.368 15.7182 122.143 15.6688 121.906 15.6688C121.534 15.6688 121.236 15.7958 121.016 16.0484C120.794 16.301 120.684 16.6847 120.684 17.1997V18.7377H119.242V17.1687C119.242 16.6847 119.134 16.3221 118.919 16.0808C118.703 15.8396 118.409 15.7182 118.036 15.7182C117.7 15.7182 117.4 15.8466 117.136 16.1048C116.872 16.363 116.742 16.8047 116.742 17.4297C116.742 18.0971 116.935 18.7321 117.322 19.3346C117.707 19.937 118.311 20.4577 119.132 20.8993L118.114 21.9491C117.551 21.6598 117.05 21.2859 116.611 20.8288C116.172 20.3716 115.822 19.8496 115.563 19.264C115.303 18.6785 115.173 18.0506 115.173 17.3832C115.173 16.7158 115.306 16.1584 115.57 15.7112C115.836 15.2639 116.176 14.9295 116.588 14.7094C117 14.4879 117.434 14.3778 117.886 14.3778C118.406 14.3778 118.839 14.4907 119.183 14.7164C119.527 14.9422 119.769 15.2498 119.906 15.6392H119.969C120.079 15.1976 120.296 14.866 120.62 14.6445C120.943 14.4229 121.295 14.3129 121.672 14.3129C121.951 14.3129 122.21 14.3595 122.447 14.4512C122.684 14.5429 122.859 14.6572 122.974 14.794L123.042 14.7954Z" fill="white"/>
<path d="M123.611 11.4656L123.508 11.4021C123.23 11.1975 122.927 10.9449 122.598 10.6444C122.269 10.3452 121.942 10.0306 121.62 9.70184C121.297 9.37308 121.011 9.0669 120.764 8.78329L119.438 7.25379L121.166 6.86719L124.834 11.3555L123.611 11.4656Z" fill="white"/>
<path d="M126.387 11.292H135.468V12.5308H133.265V15.2117L130.923 15.8748C130.397 16.0272 129.997 16.1965 129.724 16.38C129.45 16.5634 129.268 16.7722 129.175 17.0022C129.085 17.2336 129.037 17.5003 129.037 17.7994C129.037 18.1352 129.124 18.4598 129.302 18.7702C129.48 19.0806 129.741 19.3374 130.091 19.5434C130.44 19.7494 130.876 19.851 131.397 19.851C131.964 19.851 132.461 19.7579 132.888 19.5702C133.313 19.3839 133.7 19.106 134.047 18.7377L134.851 19.9681C134.388 20.421 133.875 20.7399 133.309 20.9261C132.743 21.1124 132.163 21.2069 131.571 21.2069C130.776 21.2069 130.072 21.0348 129.457 20.6905C128.84 20.3462 128.361 19.8919 128.016 19.3261C127.672 18.7617 127.501 18.155 127.501 17.5073C127.501 16.7666 127.706 16.1697 128.117 15.7168C128.527 15.2653 129.158 14.9154 130.01 14.667L131.722 14.1464V12.5308H126.39V11.292H126.387Z" fill="white"/>
<path d="M58.8614 37.9456V34.5776H56.3992V35.8729H55.444C55.183 35.6556 54.9784 35.3678 54.8302 35.0122C54.6821 34.6566 54.6031 34.3349 54.5946 34.0443L55.2451 33.5603V30.665H53.4531V29.6914H61.5267V30.665H60.0452V37.9456H58.8614ZM58.8614 30.665H56.4232V33.5109H58.86L58.8614 30.665Z" fill="white"/>
<path d="M59.1815 29.8278L59.101 29.7784C58.8823 29.6176 58.6439 29.4186 58.3857 29.183C58.1275 28.9474 57.8707 28.7004 57.6167 28.4422C57.3613 28.184 57.1384 27.9427 56.9436 27.7198L55.9023 26.5163L57.2597 26.2129L60.1423 29.7403L59.1815 29.8278Z" fill="white"/>
<path d="M58.9727 27.5955C58.9727 27.3472 59.0517 27.1426 59.2083 26.9789C59.3649 26.8152 59.5582 26.7334 59.7854 26.7334C60.0337 26.7334 60.2355 26.8152 60.3893 26.9789C60.5445 27.1426 60.6221 27.3472 60.6221 27.5955C60.6221 27.8142 60.5445 28.0033 60.3893 28.1599C60.2355 28.3165 60.0337 28.3955 59.7854 28.3955C59.5582 28.3955 59.3663 28.3165 59.2083 28.1599C59.0503 28.0033 58.9727 27.8142 58.9727 27.5955Z" fill="white"/>
<path d="M68.8293 33.1704L69.3259 32.2843H72.526V30.666H65.0859V29.6924H75.204V30.666H73.7338V37.9466H72.5246V33.2706H70.5027V33.3271C70.6395 33.4343 70.775 33.6008 70.9119 33.8265C71.0487 34.0523 71.1164 34.3416 71.1164 34.6971C71.1164 35.2375 70.9274 35.6961 70.5492 36.0672C70.1711 36.4397 69.666 36.6259 69.0338 36.6259C68.492 36.6259 68.0194 36.5032 67.6172 36.2577C67.2137 36.0107 66.8793 35.6919 66.6126 35.2982C66.3459 34.9059 66.1385 34.4911 65.989 34.0551C65.8408 33.6191 65.7406 33.2114 65.6912 32.8304L66.8327 32.3097C66.8539 32.6978 66.9117 33.0844 67.0091 33.4696C67.105 33.8534 67.2433 34.2033 67.4211 34.5179C67.5989 34.8326 67.8148 35.0837 68.0687 35.2742C68.3241 35.4647 68.6134 35.5592 68.9407 35.5592C69.2469 35.5592 69.4882 35.4703 69.666 35.294C69.8437 35.1148 69.9326 34.882 69.9326 34.5927C69.9326 34.2371 69.8141 33.9479 69.5771 33.725C69.3386 33.502 69.0903 33.3468 68.8293 33.2593V33.1704Z" fill="white"/>
<path d="M77.4406 37.9452H76.2427V30.6645H74.7725V29.6909H76.2173C76.0071 29.5216 75.7771 29.3241 75.533 29.0997C75.2861 28.874 75.0476 28.6398 74.8162 28.3957C74.5848 28.1516 74.376 27.9258 74.1897 27.7198L73.1484 26.5163L74.5058 26.2129L77.3532 29.6909H78.9278V30.6645H77.4392L77.4406 37.9452Z" fill="white"/>
<path d="M86.1011 30.6644H84.4574V32.7484H82.1504C81.7779 32.7484 81.531 32.8021 81.4068 32.9093C81.2827 33.0165 81.2206 33.1675 81.2206 33.3622C81.2206 33.54 81.2897 33.7192 81.4266 33.9012C81.5634 34.0832 81.7412 34.2074 81.9599 34.2737L84.0552 33.8278C84.3699 33.9562 84.6309 34.1806 84.8426 34.5037C85.0542 34.8268 85.16 35.2021 85.16 35.6325C85.16 36.0501 85.0528 36.4269 84.8369 36.7641C84.6224 37.1013 84.3191 37.3708 83.9282 37.5712C83.5374 37.7715 83.076 37.8717 82.5427 37.8717C81.9924 37.8717 81.5014 37.7673 81.0696 37.5571C80.6364 37.3496 80.2682 37.0759 79.9606 36.7387C79.6516 36.4029 79.3976 36.0417 79.1944 35.6565L80.0311 35.0483C80.2922 35.5817 80.6407 36.0163 81.0767 36.3507C81.5127 36.6851 82.0051 36.853 82.5554 36.853C82.997 36.853 83.3526 36.7457 83.6249 36.5327C83.8944 36.321 84.0312 36.0233 84.0312 35.6424C84.0312 35.3319 83.9212 35.0921 83.7025 34.9228L81.792 35.3503C81.2671 35.157 80.8424 34.8522 80.5193 34.436C80.1948 34.0212 80.0311 33.5781 80.0311 33.1068C80.0311 32.7061 80.1624 32.3816 80.4248 32.1333C80.6872 31.8849 81.0626 31.7608 81.5508 31.7608H83.2919V30.663H78.4805V29.6895H86.1011V30.6644Z" fill="white"/>
<path d="M81.7383 39.2276C81.7383 39.0174 81.806 38.8438 81.9429 38.707C82.0797 38.5701 82.2491 38.501 82.4508 38.501C82.6611 38.501 82.8346 38.5701 82.9687 38.707C83.1041 38.8438 83.1704 39.0174 83.1704 39.2276C83.1704 39.4308 83.1041 39.6001 82.9687 39.7356C82.8346 39.8724 82.6611 39.9402 82.4508 39.9402C82.2476 39.9402 82.0783 39.8724 81.9429 39.7356C81.8074 39.5987 81.7383 39.4308 81.7383 39.2276Z" fill="white"/>
<defs>
<filter id="filter0_d_568_2149" x="9.17188" y="11.7258" width="39.25" height="20.1074" filterUnits="userSpaceOnUse" color-interpolation-filters="sRGB">
<feFlood flood-opacity="0" result="BackgroundImageFix"/>
<feColorMatrix in="SourceAlpha" type="matrix" values="0 0 0 0 0 0 0 0 0 0 0 0 0 0 0 0 0 0 127 0" result="hardAlpha"/>
<feOffset dy="-0.2"/>
<feGaussianBlur stdDeviation="1.5"/>
<feComposite in2="hardAlpha" operator="out"/>
<feColorMatrix type="matrix" values="0 0 0 0 0 0 0 0 0 0 0 0 0 0 0 0 0 0 0.12 0"/>
<feBlend mode="normal" in2="BackgroundImageFix" result="effect1_dropShadow_568_2149"/>
<feBlend mode="normal" in="SourceGraphic" in2="effect1_dropShadow_568_2149" result="shape"/>
</filter>
<filter id="filter1_d_568_2149" x="9.17188" y="14.7473" width="39.25" height="20.1074" filterUnits="userSpaceOnUse" color-interpolation-filters="sRGB">
<feFlood flood-opacity="0" result="BackgroundImageFix"/>
<feColorMatrix in="SourceAlpha" type="matrix" values="0 0 0 0 0 0 0 0 0 0 0 0 0 0 0 0 0 0 127 0" result="hardAlpha"/>
<feOffset dy="-0.2"/>
<feGaussianBlur stdDeviation="1.5"/>
<feComposite in2="hardAlpha" operator="out"/>
<feColorMatrix type="matrix" values="0 0 0 0 0 0 0 0 0 0 0 0 0 0 0 0 0 0 0.12 0"/>
<feBlend mode="normal" in2="BackgroundImageFix" result="effect1_dropShadow_568_2149"/>
<feBlend mode="normal" in="SourceGraphic" in2="effect1_dropShadow_568_2149" result="shape"/>
</filter>
<filter id="filter2_d_568_2149" x="9.17188" y="17.7697" width="39.25" height="20.1074" filterUnits="userSpaceOnUse" color-interpolation-filters="sRGB">
<feFlood flood-opacity="0" result="BackgroundImageFix"/>
<feColorMatrix in="SourceAlpha" type="matrix" values="0 0 0 0 0 0 0 0 0 0 0 0 0 0 0 0 0 0 127 0" result="hardAlpha"/>
<feOffset dy="-0.2"/>
<feGaussianBlur stdDeviation="1.5"/>
<feComposite in2="hardAlpha" operator="out"/>
<feColorMatrix type="matrix" values="0 0 0 0 0 0 0 0 0 0 0 0 0 0 0 0 0 0 0.12 0"/>
<feBlend mode="normal" in2="BackgroundImageFix" result="effect1_dropShadow_568_2149"/>
<feBlend mode="normal" in="SourceGraphic" in2="effect1_dropShadow_568_2149" result="shape"/>
</filter>
<filter id="filter3_d_568_2149" x="7.16016" y="20.7951" width="43.2812" height="20.1055" filterUnits="userSpaceOnUse" color-interpolation-filters="sRGB">
<feFlood flood-opacity="0" result="BackgroundImageFix"/>
<feColorMatrix in="SourceAlpha" type="matrix" values="0 0 0 0 0 0 0 0 0 0 0 0 0 0 0 0 0 0 127 0" result="hardAlpha"/>
<feOffset dy="-0.2"/>
<feGaussianBlur stdDeviation="1.5"/>
<feComposite in2="hardAlpha" operator="out"/>
<feColorMatrix type="matrix" values="0 0 0 0 0 0 0 0 0 0 0 0 0 0 0 0 0 0 0.12 0"/>
<feBlend mode="normal" in2="BackgroundImageFix" result="effect1_dropShadow_568_2149"/>
<feBlend mode="normal" in="SourceGraphic" in2="effect1_dropShadow_568_2149" result="shape"/>
</filter>
</defs>
</svg>
