<svg width="169" height="48" viewBox="0 0 169 48" fill="none" xmlns="http://www.w3.org/2000/svg">
<path d="M154.996 0.00141098H13.4508C12.933 0.00141098 12.4222 0.00141098 11.9072 0.00423293C11.4741 0.00705488 11.0465 0.0155207 10.6105 0.0225756C9.67083 0.0451512 8.72124 0.103001 7.78294 0.270907C6.839 0.437403 5.96137 0.719598 5.10209 1.15559C4.25692 1.58876 3.48511 2.15033 2.81772 2.81913C2.14327 3.48652 1.58312 4.26115 1.15559 5.10632C0.716776 5.9642 0.438814 6.84606 0.273729 7.79141C0.104412 8.72548 0.0451512 9.66942 0.0211646 10.6148C0.00846586 11.0479 0.00705488 11.4811 0 11.9143C0 12.4251 0 12.9372 0 13.4551V34.5463C0 35.067 0 35.5764 0 36.0899C0.00705488 36.5273 0.00846586 36.9521 0.0211646 37.3909C0.0451512 38.3362 0.104412 39.2816 0.273729 40.2156C0.438814 41.161 0.716776 42.0471 1.15559 42.9021C1.58312 43.7431 2.14327 44.5163 2.81772 45.1795C3.48511 45.8525 4.25692 46.4141 5.10068 46.8416C5.95996 47.2818 6.83759 47.5612 7.78294 47.7319C8.71983 47.8998 9.67083 47.9548 10.6105 47.9817C11.0465 47.9915 11.4755 47.9972 11.9072 47.9972C12.4236 48 12.9344 48 13.4522 48H154.996C155.502 48 156.017 48 156.525 47.9972C156.956 47.9972 157.396 47.9915 157.826 47.9817C158.772 47.9563 159.72 47.8998 160.648 47.7319C161.593 47.5612 162.473 47.2832 163.34 46.8416C164.183 46.4126 164.954 45.8525 165.622 45.1795C166.293 44.5163 166.854 43.7431 167.288 42.9021C167.721 42.0471 168.002 41.161 168.162 40.2156C168.335 39.2816 168.39 38.3362 168.424 37.3909C168.43 36.9521 168.43 36.5288 168.43 36.0899C168.441 35.5778 168.441 35.0684 168.441 34.5463V13.4537C168.441 12.9372 168.441 12.4251 168.43 11.9129C168.43 11.4797 168.43 11.0465 168.424 10.6134C168.392 9.66801 168.337 8.72265 168.162 7.78859C168.002 6.84323 167.721 5.96137 167.288 5.1035C166.852 4.25833 166.293 3.48511 165.622 2.81631C164.954 2.14751 164.184 1.58594 163.34 1.15277C162.473 0.715365 161.593 0.43317 160.648 0.268085C159.72 0.100179 158.772 0.0423293 157.826 0.0183427C157.396 0.0112878 156.956 0.00282195 156.525 0C156.017 0.00141098 155.502 0.00141098 154.996 0.00141098Z" fill="#A6A6A6"/>
<path d="M154.997 0.918945C155.502 0.918945 156.015 0.918945 156.52 0.921767C156.868 0.924589 157.223 0.930233 157.573 0.935877L157.804 0.94011C158.551 0.958453 159.529 1.00219 160.491 1.17574C161.364 1.32813 162.162 1.59057 162.922 1.97294C163.683 2.36378 164.372 2.86609 164.975 3.46999C165.572 4.0626 166.076 4.75398 166.469 5.51873C166.852 6.27924 167.11 7.07221 167.259 7.95831C167.424 8.84722 167.475 9.77564 167.506 10.6265C167.512 11.0554 167.512 11.4857 167.512 11.933C167.523 12.4382 167.523 12.9433 167.523 13.4541V34.5453C167.523 35.0589 167.523 35.5626 167.512 36.0889C167.512 36.5235 167.512 36.944 167.506 37.3574C167.475 38.228 167.424 39.1564 167.257 40.0608C167.108 40.9385 166.85 41.7314 166.473 42.4778C166.073 43.2525 165.569 43.941 164.969 44.5322C164.373 45.1347 163.685 45.6356 162.925 46.0222C162.176 46.4032 161.377 46.6656 160.485 46.8279C159.561 46.9958 158.61 47.0409 157.807 47.0635C157.384 47.0734 156.951 47.079 156.522 47.079C156.017 47.0819 155.503 47.0819 154.998 47.0819H13.4517C12.9367 47.0819 12.4273 47.0819 11.9067 47.079C11.4819 47.079 11.0601 47.0734 10.6354 47.0649C9.82828 47.0423 8.8787 46.9972 7.94604 46.8293C7.05289 46.6684 6.25851 46.4046 5.51634 46.0236C4.75582 45.6384 4.06727 45.1361 3.46055 44.5238C2.86512 43.9382 2.36422 43.2525 1.97197 42.4821C1.59383 41.7441 1.3328 40.9498 1.17618 40.0495C1.00122 39.0887 0.957476 38.1109 0.937722 37.363C0.929257 37.0696 0.925024 36.7831 0.922202 36.4939L0.917969 36.0889V34.5453V13.4541V11.9288L0.923613 11.5069C0.926435 11.2191 0.930668 10.9312 0.939133 10.6392C0.957476 9.89416 1.00263 8.91636 1.179 7.94843C1.33421 7.05951 1.59383 6.26655 1.97479 5.52014C2.36281 4.75398 2.8637 4.06401 3.4676 3.46717C4.06868 2.86468 4.76006 2.36237 5.51775 1.97436C6.27403 1.58916 7.067 1.32813 7.94604 1.17433C8.91115 1.00078 9.89037 0.957042 10.6255 0.938699L10.9049 0.934466C11.2421 0.928822 11.5765 0.923178 11.9123 0.921767C12.4259 0.918945 12.9367 0.918945 13.4517 0.918945H154.997Z" fill="black"/>
<mask id="mask0_568_3100" style="mask-type:luminance" maskUnits="userSpaceOnUse" x="10" y="10" width="37" height="28">
<path d="M46.9374 32.5304V32.9043C46.9374 33.0835 46.9374 33.2627 46.936 33.4419C46.9346 33.5928 46.9332 33.7438 46.929 33.8948C46.9205 34.2235 46.9008 34.5551 46.8429 34.8796C46.7836 35.2098 46.6863 35.5174 46.5339 35.8165C46.3843 36.1114 46.1882 36.3809 45.954 36.6137C45.7198 36.8479 45.4503 37.0427 45.1568 37.1936C44.8577 37.346 44.5501 37.4434 44.2199 37.5026C43.8954 37.5605 43.5638 37.5802 43.235 37.5887C43.0841 37.5929 42.9331 37.5944 42.7821 37.5958C42.6029 37.5972 42.4237 37.5972 42.2445 37.5972L40.1859 37.5958L42.102 37.5972H15.4995L17.4156 37.5958L15.357 37.5972C15.1778 37.5972 14.9986 37.5972 14.8194 37.5958C14.6684 37.5944 14.5174 37.5929 14.3665 37.5887C14.0377 37.5802 13.7061 37.5605 13.3816 37.5026C13.0514 37.4434 12.7453 37.346 12.4447 37.1936C12.1498 37.0441 11.8803 36.8479 11.6475 36.6137C11.4133 36.3795 11.2186 36.11 11.0676 35.8165C10.9152 35.5174 10.8179 35.2098 10.7586 34.8796C10.7007 34.5551 10.681 34.2235 10.6725 33.8948C10.6683 33.7438 10.6669 33.5928 10.6655 33.4419C10.6641 33.2627 10.6641 33.0835 10.6641 32.9043V32.6108V15.3799V17.1437V15.0851C10.6641 14.9059 10.6641 14.7267 10.6655 14.5475C10.6669 14.3965 10.6683 14.2455 10.6725 14.0945C10.681 13.7658 10.7007 13.4342 10.7586 13.1097C10.8179 12.7795 10.9152 12.4719 11.0676 12.1728C11.2172 11.8779 11.4133 11.6084 11.6475 11.3756C11.8817 11.1428 12.1512 10.9467 12.4461 10.7971C12.7453 10.6447 13.0528 10.5474 13.383 10.4881C13.7075 10.4302 14.0391 10.4105 14.3679 10.402C14.5188 10.3978 14.6698 10.3964 14.8208 10.395C15 10.3936 15.1792 10.3936 15.3584 10.3936H17.417H42.1034H42.2445C42.4237 10.3936 42.6029 10.3936 42.7821 10.395C42.9331 10.3964 43.0841 10.3978 43.235 10.402C43.5638 10.4105 43.8954 10.4302 44.2199 10.4881C44.5501 10.5474 44.8562 10.6447 45.1568 10.7971C45.4517 10.9467 45.7212 11.1428 45.954 11.377C46.1882 11.6112 46.3829 11.8807 46.5339 12.1742C46.6863 12.4733 46.7836 12.7809 46.8429 13.1111C46.9008 13.4356 46.9205 13.7672 46.929 14.096C46.9332 14.2469 46.9346 14.3979 46.936 14.5489C46.9374 14.7281 46.9374 14.9073 46.9374 15.0865V15.4604V32.5304Z" fill="white"/>
</mask>
<g mask="url(#mask0_568_3100)">
<path d="M45.7858 11.5264H11.7812V35.204H45.7858V11.5264Z" fill="#DEDBCE"/>
<path d="M45.4254 11.9043H12.1758V26.0098H45.4254V11.9043Z" fill="#40A5D9"/>
<g filter="url(#filter0_d_568_3100)">
<path fill-rule="evenodd" clip-rule="evenodd" d="M45.4215 17.9044C45.4215 17.7901 45.4215 17.6772 45.4215 17.5629C45.4215 17.467 45.4201 17.371 45.4173 17.2751C45.4117 17.0662 45.399 16.856 45.3623 16.65C45.3242 16.4412 45.2635 16.2465 45.1661 16.056C45.0716 15.8697 44.9474 15.6976 44.7979 15.5494C44.6497 15.4013 44.479 15.2771 44.2913 15.1812C44.1009 15.0838 43.9061 15.0231 43.6973 14.985C43.4913 14.9484 43.2811 14.9357 43.0723 14.93C42.9763 14.9272 42.8804 14.9258 42.7844 14.9258C42.6701 14.9258 42.5573 14.9258 42.443 14.9258H42.3498H16.4556H15.1504C15.0362 14.9258 14.9233 14.9258 14.809 14.9258C14.713 14.9258 14.6171 14.9272 14.5212 14.93C14.3123 14.9357 14.1021 14.9484 13.8961 14.985C13.6873 15.0231 13.4925 15.0838 13.3021 15.1812C13.1158 15.2757 12.9437 15.3999 12.7955 15.5494C12.6474 15.6976 12.5232 15.8683 12.4273 16.056C12.3299 16.2465 12.2692 16.4412 12.2311 16.65C12.1945 16.856 12.1818 17.0662 12.1761 17.2751C12.1733 17.371 12.1719 17.467 12.1719 17.5629C12.1719 17.6772 12.1719 17.7901 12.1719 17.9044V19.2095V18.1837V29.0327H45.4215V18.2515V17.9044Z" fill="#FFB003"/>
</g>
<g filter="url(#filter1_d_568_3100)">
<path fill-rule="evenodd" clip-rule="evenodd" d="M45.4215 20.9258C45.4215 20.8115 45.4215 20.6987 45.4215 20.5844C45.4215 20.4884 45.4201 20.3925 45.4173 20.2965C45.4117 20.0877 45.399 19.8775 45.3623 19.6715C45.3242 19.4627 45.2635 19.2679 45.1661 19.0775C45.0716 18.8912 44.9474 18.7191 44.7979 18.5709C44.6497 18.4228 44.479 18.2986 44.2913 18.2027C44.1009 18.1053 43.9061 18.0446 43.6973 18.0065C43.4913 17.9698 43.2811 17.9571 43.0723 17.9515C42.9763 17.9487 42.8804 17.9473 42.7844 17.9473C42.6701 17.9473 42.5573 17.9473 42.443 17.9473H42.3484H16.4556H15.1504C15.0362 17.9473 14.9233 17.9473 14.809 17.9473C14.713 17.9473 14.6171 17.9487 14.5212 17.9515C14.3123 17.9571 14.1021 17.9698 13.8961 18.0065C13.6873 18.0446 13.4925 18.1053 13.3021 18.2027C13.1158 18.2972 12.9437 18.4214 12.7955 18.5709C12.6474 18.7191 12.5232 18.8898 12.4273 19.0775C12.3299 19.2679 12.2692 19.4627 12.2311 19.6715C12.1945 19.8775 12.1818 20.0877 12.1761 20.2965C12.1733 20.3925 12.1719 20.4884 12.1719 20.5844C12.1719 20.6987 12.1719 20.8115 12.1719 20.9258V22.231V21.2052V32.0542H45.4215V21.2729V20.9258Z" fill="#40C740"/>
</g>
<g filter="url(#filter2_d_568_3100)">
<path fill-rule="evenodd" clip-rule="evenodd" d="M45.4215 23.9483C45.4215 23.834 45.4215 23.7211 45.4215 23.6068C45.4215 23.5109 45.4201 23.4149 45.4173 23.319C45.4117 23.1102 45.399 22.8999 45.3623 22.6939C45.3242 22.4851 45.2635 22.2904 45.1661 22.0999C45.0716 21.9137 44.9474 21.7415 44.7979 21.5934C44.6497 21.4452 44.479 21.3211 44.2913 21.2251C44.1009 21.1278 43.9061 21.0671 43.6973 21.029C43.4913 20.9923 43.2811 20.9796 43.0723 20.974C42.9763 20.9711 42.8804 20.9697 42.7844 20.9697C42.6701 20.9697 42.5573 20.9697 42.443 20.9697H42.3484H16.4556H15.1504C15.0362 20.9697 14.9233 20.9697 14.809 20.9697C14.713 20.9697 14.6171 20.9711 14.5212 20.974C14.3123 20.9796 14.1021 20.9923 13.8961 21.029C13.6873 21.0671 13.4925 21.1278 13.3021 21.2251C13.1158 21.3196 12.9437 21.4438 12.7955 21.5934C12.6474 21.7415 12.5232 21.9123 12.4273 22.0999C12.3299 22.2904 12.2692 22.4851 12.2311 22.6939C12.1945 22.8999 12.1818 23.1102 12.1761 23.319C12.1733 23.4149 12.1719 23.5109 12.1719 23.6068C12.1719 23.7211 12.1719 23.834 12.1719 23.9483V25.2534V24.2277V35.0767H45.4215V24.2954V23.9483Z" fill="#F26D5F"/>
</g>
<path fill-rule="evenodd" clip-rule="evenodd" d="M10.1602 9.88965V25.5063H12.175V16.1868V14.8817C12.175 14.7674 12.175 14.6545 12.175 14.5402C12.175 14.4443 12.1764 14.3483 12.1793 14.2524C12.1849 14.0436 12.1976 13.8333 12.2343 13.6273C12.2724 13.4185 12.3331 13.2238 12.4304 13.0333C12.525 12.8471 12.6491 12.6749 12.7987 12.5268C12.9468 12.3786 13.1176 12.2544 13.3052 12.1585C13.4943 12.064 13.689 12.0019 13.8978 11.9652C14.1038 11.9285 14.3141 11.9158 14.5229 11.9102C14.6188 11.9073 14.7148 11.9059 14.8107 11.9059C14.925 11.9059 15.0379 11.9059 15.1522 11.9059H16.4573H42.3473H42.4475C42.5618 11.9059 42.6747 11.9059 42.789 11.9059C42.8849 11.9059 42.9809 11.9073 43.0768 11.9102C43.2856 11.9158 43.4959 11.9285 43.7019 11.9652C43.9107 12.0033 44.1054 12.064 44.2959 12.1613C44.4822 12.2559 44.6543 12.38 44.8024 12.5296C44.9506 12.6777 45.0748 12.8485 45.1707 13.0361C45.2681 13.2266 45.3287 13.4213 45.3668 13.6301C45.4035 13.8361 45.4162 14.0464 45.4219 14.2552C45.4247 14.3512 45.4261 14.4471 45.4261 14.543C45.4261 14.6573 45.4261 14.7702 45.4261 14.8845V16.1897V25.5092H47.441V9.88965H10.1602Z" fill="#D9D6CC"/>
<g filter="url(#filter3_d_568_3100)">
<path fill-rule="evenodd" clip-rule="evenodd" d="M38.0735 23.9951C37.8576 23.9951 37.6403 23.9951 37.4244 23.9965C37.2424 23.9979 37.0604 23.9994 36.8784 24.005C36.4819 24.0163 36.0812 24.0389 35.6889 24.1094C35.2911 24.1814 34.92 24.2985 34.5588 24.4819C34.5122 24.5059 33.5175 24.9574 32.6229 26.3486C31.9442 27.4054 30.6235 28.5258 28.7738 28.5258C26.9254 28.5258 25.6047 27.4054 24.9246 26.3486C23.9835 24.8826 22.9097 24.4424 22.9873 24.4819C22.6261 24.2971 22.255 24.18 21.8571 24.1094C21.4649 24.0389 21.0642 24.0149 20.6677 24.005C20.4857 24.0008 20.3037 23.9979 20.1216 23.9965C19.9058 23.9951 19.6885 23.9951 19.4726 23.9951H10.1602V38.1006H47.4396V23.9951H38.0735Z" fill="#DEDBCE"/>
</g>
</g>
<path d="M58.1757 24.9199H60.0834L64.2133 36.2896H62.3621L61.3222 33.2165H56.9411L55.8942 36.2896H54.043L58.1757 24.9199ZM57.411 31.797H60.8396L59.1451 26.8022H59.1154L57.411 31.797Z" fill="white"/>
<path d="M65.3047 27.9998H67.0063V29.4263H67.0458C67.5425 28.4415 68.4554 27.8418 69.6378 27.8418C71.75 27.8418 73.1046 29.4969 73.1046 32.1453V32.1537C73.1046 34.7923 71.7416 36.4558 69.6618 36.4558C68.4878 36.4558 67.534 35.8561 67.0458 34.8967H67.0063V39.0492H65.3047V27.9998ZM71.3719 32.1523V32.1439C71.3719 30.3787 70.5281 29.2979 69.1976 29.2979C67.9051 29.2979 66.9979 30.4182 66.9979 32.1439V32.1523C66.9979 33.8695 67.9122 34.9884 69.1976 34.9884C70.5366 34.9884 71.3719 33.9005 71.3719 32.1523Z" fill="white"/>
<path d="M74.7852 27.9998H76.4868V29.4263H76.5263C77.023 28.4415 77.9359 27.8418 79.1183 27.8418C81.2305 27.8418 82.585 29.4969 82.585 32.1453V32.1537C82.585 34.7923 81.222 36.4558 79.1423 36.4558C77.9683 36.4558 77.0145 35.8561 76.5263 34.8967H76.4868V39.0492H74.7852V27.9998ZM80.8524 32.1523V32.1439C80.8524 30.3787 80.0086 29.2979 78.678 29.2979C77.3856 29.2979 76.4783 30.4182 76.4783 32.1439V32.1523C76.4783 33.8695 77.3926 34.9884 78.678 34.9884C80.0171 34.9884 80.8524 33.9005 80.8524 32.1523Z" fill="white"/>
<path d="M84.0859 24.9199H85.7876V36.2896H84.0859V24.9199Z" fill="white"/>
<path d="M87.4453 32.1763V32.1678C87.4453 29.5759 88.9438 27.8418 91.2676 27.8418C93.5915 27.8418 95.018 29.5138 95.018 32.0028V32.577H89.147C89.178 34.146 90.0387 35.0603 91.3932 35.0603C92.4021 35.0603 93.0709 34.5397 93.2853 33.9175L93.3093 33.854H94.9249L94.9094 33.9414C94.6413 35.2579 93.3644 36.4544 91.3551 36.4544C88.9198 36.4544 87.4453 34.7909 87.4453 32.1763ZM89.1709 31.3706H93.3305C93.188 29.9371 92.3851 29.2358 91.2733 29.2358C90.1713 29.2373 89.3205 29.9851 89.1709 31.3706Z" fill="white"/>
<path d="M101.129 24.9199H105.36C107.59 24.9199 109.135 26.4156 109.135 28.6463V28.6618C109.135 30.8841 107.59 32.4052 105.36 32.4052H102.894V36.2896H101.129V24.9199ZM102.894 26.4085V30.9236H104.919C106.455 30.9236 107.339 30.0954 107.339 28.6689V28.6534C107.339 27.2339 106.455 26.4071 104.919 26.4071L102.894 26.4085Z" fill="white"/>
<path d="M110.902 24.9199H112.604V36.2896H110.902V24.9199Z" fill="white"/>
<path d="M114.383 33.9328V33.9173C114.383 32.4753 115.502 31.5934 117.464 31.4749L119.718 31.3409V30.7186C119.718 29.8043 119.127 29.2526 118.071 29.2526C117.086 29.2526 116.48 29.7182 116.337 30.38L116.321 30.4505H114.714L114.723 30.3631C114.84 28.9366 116.077 27.8416 118.118 27.8416C120.144 27.8416 121.428 28.914 121.428 30.5761V36.2892H119.718V34.9812H119.687C119.207 35.8715 118.246 36.4387 117.15 36.4387C115.495 36.4387 114.383 35.4214 114.383 33.9328ZM117.614 35.0743C118.813 35.0743 119.718 34.263 119.718 33.1836V32.5388L117.693 32.6644C116.667 32.7278 116.1 33.1765 116.1 33.8778V33.8933C116.1 34.6186 116.7 35.0743 117.614 35.0743ZM116.471 25.6433V25.6349C116.471 24.753 117.205 24.0518 118.102 24.0518C119 24.0518 119.733 24.753 119.733 25.6349V25.6433C119.733 26.5252 119 27.242 118.102 27.242C117.205 27.242 116.471 26.5252 116.471 25.6433ZM118.819 25.6433V25.6349C118.819 25.2497 118.504 24.9336 118.102 24.9336C117.708 24.9336 117.392 25.2497 117.392 25.6349V25.6433C117.392 26.037 117.708 26.3516 118.102 26.3516C118.504 26.3531 118.819 26.037 118.819 25.6433Z" fill="white"/>
<path d="M123.438 27.9998H125.139V29.2528H125.179C125.612 28.409 126.463 27.8418 127.716 27.8418C129.536 27.8418 130.584 29.0171 130.584 30.9248V36.2907H128.874V31.2479C128.874 30.002 128.291 29.3007 127.109 29.3007C125.911 29.3007 125.139 30.1685 125.139 31.4595V36.2907H123.438V27.9998Z" fill="white"/>
<path d="M134.393 34.8871H134.354V36.2896H132.652V24.9199H134.354V29.4111H134.393C134.89 28.4333 135.834 27.8421 137.009 27.8421C139.091 27.8421 140.461 29.4971 140.461 32.1371V32.1455C140.461 34.7855 139.098 36.4561 136.994 36.4561C135.803 36.4547 134.882 35.855 134.393 34.8871ZM138.718 32.1441V32.1357C138.718 30.3875 137.883 29.2982 136.544 29.2982C135.26 29.2982 134.344 30.4185 134.344 32.1357V32.1441C134.344 33.8697 135.251 34.9886 136.544 34.9886C137.884 34.9886 138.718 33.9093 138.718 32.1441Z" fill="white"/>
<path d="M141.773 32.1439V32.1298C141.773 29.4814 143.341 27.8418 145.697 27.8418C148.062 27.8418 149.637 29.4729 149.637 32.1298V32.1453C149.637 34.8177 148.078 36.4558 145.706 36.4558C143.326 36.4544 141.773 34.8078 141.773 32.1439ZM147.896 32.1439V32.1298C147.896 30.3166 147.029 29.2697 145.696 29.2697C144.388 29.2697 143.513 30.3166 143.513 32.1298V32.1453C143.513 33.981 144.38 35.0293 145.713 35.0293C147.045 35.0279 147.896 33.9725 147.896 32.1439Z" fill="white"/>
<path d="M151.41 24.9199H153.112V31.5388H153.15L156.476 28.0001H158.476L155.073 31.5769L158.61 36.2896H156.634L153.82 32.6027L153.112 33.3039V36.2896H151.41V24.9199Z" fill="white"/>
<path d="M54.8398 11.5176H55.9051V19.1016H60.0266V20.061H54.8398V11.5176Z" fill="white"/>
<path d="M61.1992 18.2788V18.2661C61.1992 17.1288 62.0402 16.4727 63.5259 16.3838L65.3545 16.2709V15.691C65.3545 14.9023 64.8748 14.4776 63.9224 14.4776C63.1577 14.4776 62.6553 14.7612 62.4888 15.2593L62.4832 15.2776H61.4532L61.4588 15.2423C61.6239 14.242 62.5961 13.5661 63.9577 13.5661C65.5154 13.5661 66.386 14.3647 66.386 15.6924V20.0622H65.356V19.1211H65.2628C64.8607 19.8012 64.1905 20.1751 63.3326 20.1751C62.1164 20.1723 61.1992 19.4386 61.1992 18.2788ZM61.9922 11.7417C61.9922 11.3861 62.2885 11.0898 62.6497 11.0898C63.0053 11.0898 63.3002 11.3861 63.3002 11.7417C63.3002 12.1029 63.0053 12.3992 62.6497 12.3992C62.2885 12.3992 61.9922 12.1029 61.9922 11.7417ZM63.5443 19.2791C64.5912 19.2791 65.3545 18.592 65.3545 17.6805V17.1006L63.6501 17.2064C62.6793 17.2657 62.2532 17.6086 62.2532 18.2421V18.2534C62.2532 18.8996 62.8035 19.2791 63.5443 19.2791ZM64.6095 11.7417C64.6095 11.3861 64.9059 11.0898 65.2614 11.0898C65.6226 11.0898 65.9189 11.3861 65.9189 11.7417C65.9189 12.1029 65.6226 12.3992 65.2614 12.3992C64.9059 12.3992 64.6095 12.1029 64.6095 11.7417Z" fill="white"/>
<path d="M68.1974 20.5704L68.2101 20.5633H69.2754L69.2825 20.5704C69.394 21.0558 69.9626 21.3986 70.8811 21.3986C72.024 21.3986 72.7041 20.8596 72.7041 19.9185V18.6275H72.611C72.2074 19.3315 71.485 19.728 70.6088 19.728C68.9566 19.728 67.9336 18.4497 67.9336 16.662V16.6493C67.9336 14.8602 68.9636 13.5635 70.6328 13.5635C71.5344 13.5635 72.2328 14.0079 72.6223 14.7304H72.6942V13.6778H73.7228V19.9721C73.7228 21.3986 72.6223 22.3101 70.8811 22.3101C69.3417 22.3101 68.3583 21.6173 68.1974 20.5704ZM72.7281 16.662V16.6493C72.7281 15.3822 72.0113 14.4764 70.8332 14.4764C69.6479 14.4764 68.9848 15.3822 68.9848 16.6493V16.662C68.9848 17.9276 69.6479 18.8165 70.8332 18.8165C72.0184 18.8165 72.7281 17.929 72.7281 16.662Z" fill="white"/>
<path d="M75.5724 20.5704L75.5851 20.5633H76.6504L76.6575 20.5704C76.769 21.0558 77.3376 21.3986 78.2561 21.3986C79.399 21.3986 80.0791 20.8596 80.0791 19.9185V18.6275H79.986C79.5824 19.3315 78.86 19.728 77.9838 19.728C76.3316 19.728 75.3086 18.4497 75.3086 16.662V16.6493C75.3086 14.8602 76.3386 13.5635 78.0078 13.5635C78.9094 13.5635 79.6078 14.0079 79.9973 14.7304H80.0692V13.6778H81.0978V19.9721C81.0978 21.3986 79.9973 22.3101 78.2561 22.3101C76.7167 22.3101 75.7319 21.6173 75.5724 20.5704ZM80.1031 16.662V16.6493C80.1031 15.3822 79.3863 14.4764 78.2082 14.4764C77.0229 14.4764 76.3598 15.3822 76.3598 16.6493V16.662C76.3598 17.9276 77.0229 18.8165 78.2082 18.8165C79.392 18.8165 80.1031 17.929 80.1031 16.662Z" fill="white"/>
<path d="M86.7976 18.4016V14.5299H85.793V13.6776H86.7976V12.0254H87.8643V13.6776H89.2611V14.5299H87.8643V18.142C87.8643 18.894 88.1253 19.196 88.7871 19.196C88.9705 19.196 89.0707 19.1889 89.2611 19.1706V20.0468C89.0594 20.0821 88.8647 20.1061 88.6629 20.1061C87.3479 20.1061 86.7976 19.6221 86.7976 18.4016Z" fill="white"/>
<path d="M90.6172 11.7365C90.6172 11.3457 90.9375 11.0254 91.3269 11.0254C91.7177 11.0254 92.038 11.3457 92.038 11.7365C92.038 12.126 91.7177 12.4462 91.3269 12.4462C90.9361 12.4462 90.6172 12.126 90.6172 11.7365ZM90.8049 13.678H91.8349V20.0599H90.8049V13.678Z" fill="white"/>
<path d="M93.8242 11.1436H94.8542V20.0595H93.8242V11.1436Z" fill="white"/>
<path d="M96.8789 11.1436H97.9089V20.0595H96.8789V11.1436Z" fill="white"/>
<path d="M103.102 11.7365C103.102 11.3457 103.422 11.0254 103.811 11.0254C104.202 11.0254 104.522 11.3457 104.522 11.7365C104.522 12.126 104.202 12.4462 103.811 12.4462C103.422 12.4462 103.102 12.126 103.102 11.7365ZM103.291 13.678H104.321V20.0599H103.291V13.678Z" fill="white"/>
<defs>
<filter id="filter0_d_568_3100" x="9.17188" y="11.7258" width="39.25" height="20.1074" filterUnits="userSpaceOnUse" color-interpolation-filters="sRGB">
<feFlood flood-opacity="0" result="BackgroundImageFix"/>
<feColorMatrix in="SourceAlpha" type="matrix" values="0 0 0 0 0 0 0 0 0 0 0 0 0 0 0 0 0 0 127 0" result="hardAlpha"/>
<feOffset dy="-0.2"/>
<feGaussianBlur stdDeviation="1.5"/>
<feComposite in2="hardAlpha" operator="out"/>
<feColorMatrix type="matrix" values="0 0 0 0 0 0 0 0 0 0 0 0 0 0 0 0 0 0 0.12 0"/>
<feBlend mode="normal" in2="BackgroundImageFix" result="effect1_dropShadow_568_3100"/>
<feBlend mode="normal" in="SourceGraphic" in2="effect1_dropShadow_568_3100" result="shape"/>
</filter>
<filter id="filter1_d_568_3100" x="9.17188" y="14.7473" width="39.25" height="20.1074" filterUnits="userSpaceOnUse" color-interpolation-filters="sRGB">
<feFlood flood-opacity="0" result="BackgroundImageFix"/>
<feColorMatrix in="SourceAlpha" type="matrix" values="0 0 0 0 0 0 0 0 0 0 0 0 0 0 0 0 0 0 127 0" result="hardAlpha"/>
<feOffset dy="-0.2"/>
<feGaussianBlur stdDeviation="1.5"/>
<feComposite in2="hardAlpha" operator="out"/>
<feColorMatrix type="matrix" values="0 0 0 0 0 0 0 0 0 0 0 0 0 0 0 0 0 0 0.12 0"/>
<feBlend mode="normal" in2="BackgroundImageFix" result="effect1_dropShadow_568_3100"/>
<feBlend mode="normal" in="SourceGraphic" in2="effect1_dropShadow_568_3100" result="shape"/>
</filter>
<filter id="filter2_d_568_3100" x="9.17188" y="17.7697" width="39.25" height="20.1074" filterUnits="userSpaceOnUse" color-interpolation-filters="sRGB">
<feFlood flood-opacity="0" result="BackgroundImageFix"/>
<feColorMatrix in="SourceAlpha" type="matrix" values="0 0 0 0 0 0 0 0 0 0 0 0 0 0 0 0 0 0 127 0" result="hardAlpha"/>
<feOffset dy="-0.2"/>
<feGaussianBlur stdDeviation="1.5"/>
<feComposite in2="hardAlpha" operator="out"/>
<feColorMatrix type="matrix" values="0 0 0 0 0 0 0 0 0 0 0 0 0 0 0 0 0 0 0.12 0"/>
<feBlend mode="normal" in2="BackgroundImageFix" result="effect1_dropShadow_568_3100"/>
<feBlend mode="normal" in="SourceGraphic" in2="effect1_dropShadow_568_3100" result="shape"/>
</filter>
<filter id="filter3_d_568_3100" x="7.16016" y="20.7951" width="43.2812" height="20.1055" filterUnits="userSpaceOnUse" color-interpolation-filters="sRGB">
<feFlood flood-opacity="0" result="BackgroundImageFix"/>
<feColorMatrix in="SourceAlpha" type="matrix" values="0 0 0 0 0 0 0 0 0 0 0 0 0 0 0 0 0 0 127 0" result="hardAlpha"/>
<feOffset dy="-0.2"/>
<feGaussianBlur stdDeviation="1.5"/>
<feComposite in2="hardAlpha" operator="out"/>
<feColorMatrix type="matrix" values="0 0 0 0 0 0 0 0 0 0 0 0 0 0 0 0 0 0 0.12 0"/>
<feBlend mode="normal" in2="BackgroundImageFix" result="effect1_dropShadow_568_3100"/>
<feBlend mode="normal" in="SourceGraphic" in2="effect1_dropShadow_568_3100" result="shape"/>
</filter>
</defs>
</svg>
