<svg width="165" height="48" viewBox="0 0 165 48" fill="none" xmlns="http://www.w3.org/2000/svg">
<path d="M150.953 0.00141098H13.4508C12.933 0.00141098 12.4222 0.00141098 11.9072 0.00423293C11.4741 0.00705488 11.0465 0.0155207 10.6105 0.0225756C9.67083 0.0451512 8.72124 0.103001 7.78294 0.270907C6.839 0.437403 5.96137 0.719598 5.10209 1.15559C4.25692 1.58876 3.48511 2.15033 2.81772 2.81913C2.14327 3.48652 1.58312 4.26115 1.15559 5.10632C0.716776 5.9642 0.438814 6.84606 0.273729 7.79141C0.104412 8.72548 0.0451512 9.66942 0.0211646 10.6148C0.00846586 11.0479 0.00705488 11.4811 0 11.9143C0 12.4251 0 12.9372 0 13.4551V34.5463C0 35.067 0 35.5764 0 36.0899C0.00705488 36.5273 0.00846586 36.9521 0.0211646 37.3909C0.0451512 38.3362 0.104412 39.2816 0.273729 40.2156C0.438814 41.161 0.716776 42.0471 1.15559 42.9021C1.58312 43.7431 2.14327 44.5163 2.81772 45.1795C3.48511 45.8525 4.25692 46.4141 5.10068 46.8416C5.95996 47.2818 6.83759 47.5612 7.78294 47.7319C8.71983 47.8998 9.67083 47.9548 10.6105 47.9817C11.0465 47.9915 11.4755 47.9972 11.9072 47.9972C12.4236 48 12.9344 48 13.4522 48H150.955C151.461 48 151.976 48 152.484 47.9972C152.915 47.9972 153.355 47.9915 153.785 47.9817C154.73 47.9563 155.679 47.8998 156.607 47.7319C157.552 47.5612 158.431 47.2832 159.299 46.8416C160.142 46.4126 160.913 45.8525 161.581 45.1795C162.252 44.5163 162.813 43.7431 163.247 42.9021C163.68 42.0471 163.961 41.161 164.121 40.2156C164.294 39.2816 164.349 38.3362 164.383 37.3909C164.389 36.9521 164.389 36.5288 164.389 36.0899C164.4 35.5778 164.4 35.0684 164.4 34.5463V13.4537C164.4 12.9372 164.4 12.4251 164.389 11.9129C164.389 11.4797 164.389 11.0465 164.383 10.6134C164.351 9.66801 164.295 8.72265 164.121 7.78859C163.961 6.84323 163.68 5.96137 163.247 5.1035C162.811 4.25833 162.252 3.48511 161.581 2.81631C160.913 2.14751 160.143 1.58594 159.299 1.15277C158.431 0.715365 157.552 0.43317 156.607 0.268085C155.679 0.100179 154.73 0.0423293 153.785 0.0183427C153.355 0.0112878 152.915 0.00282195 152.484 0C151.976 0.00141098 151.461 0.00141098 150.953 0.00141098Z" fill="#A6A6A6"/>
<path d="M150.954 0.918945C151.459 0.918945 151.973 0.918945 152.478 0.921767C152.825 0.924589 153.181 0.930233 153.531 0.935877L153.762 0.94011C154.508 0.958453 155.486 1.00219 156.448 1.17574C157.322 1.32813 158.119 1.59057 158.88 1.97294C159.64 2.36378 160.33 2.86609 160.933 3.46999C161.529 4.0626 162.033 4.75398 162.427 5.51873C162.809 6.27924 163.067 7.07221 163.217 7.95831C163.382 8.84722 163.433 9.77564 163.464 10.6265C163.469 11.0554 163.469 11.4857 163.469 11.933C163.481 12.4382 163.481 12.9433 163.481 13.4541V34.5453C163.481 35.0589 163.481 35.5626 163.469 36.0889C163.469 36.5235 163.469 36.944 163.464 37.3574C163.433 38.228 163.382 39.1564 163.214 40.0608C163.066 40.9385 162.808 41.7314 162.431 42.4778C162.03 43.2525 161.527 43.941 160.927 44.5322C160.33 45.1347 159.643 45.6356 158.882 46.0222C158.133 46.4032 157.335 46.6656 156.443 46.8279C155.519 46.9958 154.568 47.0409 153.765 47.0635C153.341 47.0734 152.908 47.079 152.479 47.079C151.974 47.0819 151.461 47.0819 150.956 47.0819H13.4517C12.9367 47.0819 12.4273 47.0819 11.9067 47.079C11.4819 47.079 11.0601 47.0734 10.6354 47.0649C9.82828 47.0423 8.8787 46.9972 7.94604 46.8293C7.05289 46.6684 6.25851 46.4046 5.51634 46.0236C4.75582 45.6384 4.06727 45.1361 3.46055 44.5238C2.86512 43.9382 2.36422 43.2525 1.97197 42.4821C1.59383 41.7441 1.3328 40.9498 1.17618 40.0495C1.00122 39.0887 0.957476 38.1109 0.937722 37.363C0.929257 37.0696 0.925024 36.7831 0.922202 36.4939L0.917969 36.0889V34.5453V13.4541V11.9288L0.923613 11.5069C0.926435 11.2191 0.930668 10.9312 0.939133 10.6392C0.957476 9.89416 1.00263 8.91636 1.179 7.94843C1.33421 7.05951 1.59383 6.26655 1.97479 5.52014C2.36281 4.75398 2.86371 4.06401 3.4676 3.46717C4.06868 2.86468 4.76006 2.36237 5.51775 1.97436C6.27404 1.58916 7.067 1.32813 7.94604 1.17433C8.91115 1.00078 9.89037 0.957042 10.6255 0.938699L10.9049 0.934466C11.2421 0.928822 11.5765 0.923178 11.9123 0.921767C12.4259 0.918945 12.9367 0.918945 13.4517 0.918945H150.954Z" fill="black"/>
<mask id="mask0_568_2246" style="mask-type:luminance" maskUnits="userSpaceOnUse" x="10" y="10" width="37" height="28">
<path d="M46.9374 32.5304V32.9043C46.9374 33.0835 46.9374 33.2627 46.936 33.4419C46.9346 33.5928 46.9332 33.7438 46.929 33.8948C46.9205 34.2235 46.9008 34.5551 46.8429 34.8796C46.7836 35.2098 46.6863 35.5174 46.5339 35.8165C46.3843 36.1114 46.1882 36.3809 45.954 36.6137C45.7198 36.8479 45.4503 37.0427 45.1568 37.1936C44.8577 37.346 44.5501 37.4434 44.2199 37.5026C43.8954 37.5605 43.5638 37.5802 43.235 37.5887C43.0841 37.5929 42.9331 37.5944 42.7821 37.5958C42.6029 37.5972 42.4237 37.5972 42.2445 37.5972L40.1859 37.5958L42.102 37.5972H15.4995L17.4156 37.5958L15.357 37.5972C15.1778 37.5972 14.9986 37.5972 14.8194 37.5958C14.6684 37.5944 14.5174 37.5929 14.3665 37.5887C14.0377 37.5802 13.7061 37.5605 13.3816 37.5026C13.0514 37.4434 12.7453 37.346 12.4447 37.1936C12.1498 37.0441 11.8803 36.8479 11.6475 36.6137C11.4133 36.3795 11.2186 36.11 11.0676 35.8165C10.9152 35.5174 10.8179 35.2098 10.7586 34.8796C10.7007 34.5551 10.681 34.2235 10.6725 33.8948C10.6683 33.7438 10.6669 33.5928 10.6655 33.4419C10.6641 33.2627 10.6641 33.0835 10.6641 32.9043V32.6108V15.3799V17.1437V15.0851C10.6641 14.9059 10.6641 14.7267 10.6655 14.5475C10.6669 14.3965 10.6683 14.2455 10.6725 14.0945C10.681 13.7658 10.7007 13.4342 10.7586 13.1097C10.8179 12.7795 10.9152 12.4719 11.0676 12.1728C11.2172 11.8779 11.4133 11.6084 11.6475 11.3756C11.8817 11.1428 12.1512 10.9467 12.4461 10.7971C12.7453 10.6447 13.0528 10.5474 13.383 10.4881C13.7075 10.4302 14.0391 10.4105 14.3679 10.402C14.5188 10.3978 14.6698 10.3964 14.8208 10.395C15 10.3936 15.1792 10.3936 15.3584 10.3936H17.417H42.1034H42.2445C42.4237 10.3936 42.6029 10.3936 42.7821 10.395C42.9331 10.3964 43.0841 10.3978 43.235 10.402C43.5638 10.4105 43.8954 10.4302 44.2199 10.4881C44.5501 10.5474 44.8562 10.6447 45.1568 10.7971C45.4517 10.9467 45.7212 11.1428 45.954 11.377C46.1882 11.6112 46.3829 11.8807 46.5339 12.1742C46.6863 12.4733 46.7836 12.7809 46.8429 13.1111C46.9008 13.4356 46.9205 13.7672 46.929 14.096C46.9332 14.2469 46.9346 14.3979 46.936 14.5489C46.9374 14.7281 46.9374 14.9073 46.9374 15.0865V15.4604V32.5304Z" fill="white"/>
</mask>
<g mask="url(#mask0_568_2246)">
<path d="M45.7858 11.5264H11.7812V35.204H45.7858V11.5264Z" fill="#DEDBCE"/>
<path d="M45.4254 11.9043H12.1758V26.0098H45.4254V11.9043Z" fill="#40A5D9"/>
<g filter="url(#filter0_d_568_2246)">
<path fill-rule="evenodd" clip-rule="evenodd" d="M45.4215 17.9044C45.4215 17.7901 45.4215 17.6772 45.4215 17.5629C45.4215 17.467 45.4201 17.371 45.4173 17.2751C45.4117 17.0662 45.399 16.856 45.3623 16.65C45.3242 16.4412 45.2635 16.2465 45.1661 16.056C45.0716 15.8697 44.9474 15.6976 44.7979 15.5494C44.6497 15.4013 44.479 15.2771 44.2913 15.1812C44.1009 15.0838 43.9061 15.0231 43.6973 14.985C43.4913 14.9484 43.2811 14.9357 43.0723 14.93C42.9763 14.9272 42.8804 14.9258 42.7844 14.9258C42.6701 14.9258 42.5573 14.9258 42.443 14.9258H42.3498H16.4556H15.1504C15.0362 14.9258 14.9233 14.9258 14.809 14.9258C14.713 14.9258 14.6171 14.9272 14.5212 14.93C14.3123 14.9357 14.1021 14.9484 13.8961 14.985C13.6873 15.0231 13.4925 15.0838 13.3021 15.1812C13.1158 15.2757 12.9437 15.3999 12.7955 15.5494C12.6474 15.6976 12.5232 15.8683 12.4273 16.056C12.3299 16.2465 12.2692 16.4412 12.2311 16.65C12.1945 16.856 12.1818 17.0662 12.1761 17.2751C12.1733 17.371 12.1719 17.467 12.1719 17.5629C12.1719 17.6772 12.1719 17.7901 12.1719 17.9044V19.2095V18.1837V29.0327H45.4215V18.2515V17.9044Z" fill="#FFB003"/>
</g>
<g filter="url(#filter1_d_568_2246)">
<path fill-rule="evenodd" clip-rule="evenodd" d="M45.4215 20.9258C45.4215 20.8115 45.4215 20.6987 45.4215 20.5844C45.4215 20.4884 45.4201 20.3925 45.4173 20.2965C45.4117 20.0877 45.399 19.8775 45.3623 19.6715C45.3242 19.4627 45.2635 19.2679 45.1661 19.0775C45.0716 18.8912 44.9474 18.7191 44.7979 18.5709C44.6497 18.4228 44.479 18.2986 44.2913 18.2027C44.1009 18.1053 43.9061 18.0446 43.6973 18.0065C43.4913 17.9698 43.2811 17.9571 43.0723 17.9515C42.9763 17.9487 42.8804 17.9473 42.7844 17.9473C42.6701 17.9473 42.5573 17.9473 42.443 17.9473H42.3484H16.4556H15.1504C15.0362 17.9473 14.9233 17.9473 14.809 17.9473C14.713 17.9473 14.6171 17.9487 14.5212 17.9515C14.3123 17.9571 14.1021 17.9698 13.8961 18.0065C13.6873 18.0446 13.4925 18.1053 13.3021 18.2027C13.1158 18.2972 12.9437 18.4214 12.7955 18.5709C12.6474 18.7191 12.5232 18.8898 12.4273 19.0775C12.3299 19.2679 12.2692 19.4627 12.2311 19.6715C12.1945 19.8775 12.1818 20.0877 12.1761 20.2965C12.1733 20.3925 12.1719 20.4884 12.1719 20.5844C12.1719 20.6987 12.1719 20.8115 12.1719 20.9258V22.231V21.2052V32.0542H45.4215V21.2729V20.9258Z" fill="#40C740"/>
</g>
<g filter="url(#filter2_d_568_2246)">
<path fill-rule="evenodd" clip-rule="evenodd" d="M45.4215 23.9483C45.4215 23.834 45.4215 23.7211 45.4215 23.6068C45.4215 23.5109 45.4201 23.4149 45.4173 23.319C45.4117 23.1102 45.399 22.8999 45.3623 22.6939C45.3242 22.4851 45.2635 22.2904 45.1661 22.0999C45.0716 21.9137 44.9474 21.7415 44.7979 21.5934C44.6497 21.4452 44.479 21.3211 44.2913 21.2251C44.1009 21.1278 43.9061 21.0671 43.6973 21.029C43.4913 20.9923 43.2811 20.9796 43.0723 20.974C42.9763 20.9711 42.8804 20.9697 42.7844 20.9697C42.6701 20.9697 42.5573 20.9697 42.443 20.9697H42.3484H16.4556H15.1504C15.0362 20.9697 14.9233 20.9697 14.809 20.9697C14.713 20.9697 14.6171 20.9711 14.5212 20.974C14.3123 20.9796 14.1021 20.9923 13.8961 21.029C13.6873 21.0671 13.4925 21.1278 13.3021 21.2251C13.1158 21.3196 12.9437 21.4438 12.7955 21.5934C12.6474 21.7415 12.5232 21.9123 12.4273 22.0999C12.3299 22.2904 12.2692 22.4851 12.2311 22.6939C12.1945 22.8999 12.1818 23.1102 12.1761 23.319C12.1733 23.4149 12.1719 23.5109 12.1719 23.6068C12.1719 23.7211 12.1719 23.834 12.1719 23.9483V25.2534V24.2277V35.0767H45.4215V24.2954V23.9483Z" fill="#F26D5F"/>
</g>
<path fill-rule="evenodd" clip-rule="evenodd" d="M10.1602 9.88965V25.5063H12.175V16.1868V14.8817C12.175 14.7674 12.175 14.6545 12.175 14.5402C12.175 14.4443 12.1764 14.3483 12.1793 14.2524C12.1849 14.0436 12.1976 13.8333 12.2343 13.6273C12.2724 13.4185 12.3331 13.2238 12.4304 13.0333C12.525 12.8471 12.6491 12.6749 12.7987 12.5268C12.9468 12.3786 13.1176 12.2544 13.3052 12.1585C13.4943 12.064 13.689 12.0019 13.8978 11.9652C14.1038 11.9285 14.3141 11.9158 14.5229 11.9102C14.6188 11.9073 14.7148 11.9059 14.8107 11.9059C14.925 11.9059 15.0379 11.9059 15.1522 11.9059H16.4573H42.3473H42.4475C42.5618 11.9059 42.6747 11.9059 42.789 11.9059C42.8849 11.9059 42.9809 11.9073 43.0768 11.9102C43.2856 11.9158 43.4959 11.9285 43.7019 11.9652C43.9107 12.0033 44.1054 12.064 44.2959 12.1613C44.4822 12.2559 44.6543 12.38 44.8024 12.5296C44.9506 12.6777 45.0748 12.8485 45.1707 13.0361C45.2681 13.2266 45.3287 13.4213 45.3668 13.6301C45.4035 13.8361 45.4162 14.0464 45.4219 14.2552C45.4247 14.3512 45.4261 14.4471 45.4261 14.543C45.4261 14.6573 45.4261 14.7702 45.4261 14.8845V16.1897V25.5092H47.441V9.88965H10.1602Z" fill="#D9D6CC"/>
<g filter="url(#filter3_d_568_2246)">
<path fill-rule="evenodd" clip-rule="evenodd" d="M38.0735 23.9951C37.8576 23.9951 37.6403 23.9951 37.4244 23.9965C37.2424 23.9979 37.0604 23.9994 36.8784 24.005C36.4819 24.0163 36.0812 24.0389 35.6889 24.1094C35.2911 24.1814 34.92 24.2985 34.5588 24.4819C34.5122 24.5059 33.5175 24.9574 32.6229 26.3486C31.9442 27.4054 30.6235 28.5258 28.7738 28.5258C26.9254 28.5258 25.6047 27.4054 24.9246 26.3486C23.9835 24.8826 22.9097 24.4424 22.9873 24.4819C22.6261 24.2971 22.255 24.18 21.8571 24.1094C21.4649 24.0389 21.0642 24.0149 20.6677 24.005C20.4857 24.0008 20.3037 23.9979 20.1216 23.9965C19.9058 23.9951 19.6885 23.9951 19.4726 23.9951H10.1602V38.1006H47.4396V23.9951H38.0735Z" fill="#DEDBCE"/>
</g>
</g>
<path d="M61.257 18.7179H56.9224L55.8826 21.791H54.0469L58.1528 10.4199H60.0605L64.1664 21.791H62.2983L61.257 18.7179ZM57.3711 17.2998H60.8069L59.1123 12.312H59.0643L57.3711 17.2998Z" fill="white"/>
<path d="M73.0637 17.6467C73.0637 20.2711 71.6851 21.9332 69.6039 21.9332C68.4145 21.9332 67.4691 21.3491 66.995 20.4277H66.9555V24.5337H65.2539V13.5012H66.9005V14.9277H66.9316C67.4198 13.9739 68.3736 13.3672 69.5715 13.3672C71.6767 13.3672 73.0637 15.0223 73.0637 17.6467ZM71.314 17.6467C71.314 15.9126 70.4703 14.8022 69.1242 14.8022C67.8233 14.8022 66.9485 15.9366 66.9485 17.6467C66.9485 19.3723 67.8148 20.4912 69.1242 20.4912C70.4703 20.4912 71.314 19.3878 71.314 17.6467Z" fill="white"/>
<path d="M82.5441 17.6467C82.5441 20.2711 81.1656 21.9332 79.0844 21.9332C77.895 21.9332 76.9496 21.3491 76.4755 20.4277H76.436V24.5337H74.7344V13.5012H76.381V14.9277H76.412C76.9002 13.9739 77.854 13.3672 79.052 13.3672C81.1571 13.3672 82.5441 15.0223 82.5441 17.6467ZM80.7945 17.6467C80.7945 15.9126 79.9508 14.8022 78.6047 14.8022C77.3038 14.8022 76.429 15.9366 76.429 17.6467C76.429 19.3723 77.2953 20.4912 78.6047 20.4912C79.9508 20.4912 80.7945 19.3878 80.7945 17.6467Z" fill="white"/>
<path d="M84.0391 10.4209H85.7421V21.792H84.0391V10.4209Z" fill="white"/>
<path d="M94.8766 19.3567C94.641 20.8692 93.206 21.9486 91.3082 21.9486C88.8729 21.9486 87.3984 20.302 87.3984 17.6861C87.3984 15.0857 88.8969 13.3516 91.2363 13.3516C93.5376 13.3516 94.9711 14.9756 94.9711 17.4885V18.0713H89.117V18.1743C89.117 19.6163 89.9833 20.5701 91.3463 20.5701C92.3171 20.5701 93.0325 20.0819 93.261 19.3567H94.8766ZM89.1255 16.8818H93.2709C93.2314 15.6134 92.4272 14.723 91.2377 14.723C90.0468 14.723 89.2115 15.6289 89.1255 16.8818Z" fill="white"/>
<path d="M101.621 22.004L100.794 20.696C105.118 19.6476 106.397 16.8031 106.474 13.5805H99.6975V16.8186H98.0664V12.2019H102.116V9.83008H103.747V12.2019H106.766L108.255 12.6266C108.059 17.2053 106.522 20.7115 101.621 22.004Z" fill="white"/>
<path d="M116.702 15.8491V20.2387C116.702 21.4196 116.158 21.9163 114.975 21.9163C114.432 21.9163 113.832 21.9008 113.172 21.7907L113.202 20.4672C113.738 20.5462 114.155 20.5618 114.573 20.5618C115.063 20.5618 115.25 20.3882 115.25 20.003V17.2601C114.14 18.695 112.572 20.1286 111.105 21.0189L110.184 19.9706C111.861 19.0167 113.557 17.4012 114.572 15.8491H110.412V14.5411H115.25V12.5234H116.701V14.5411H119.142V15.8491H116.702Z" fill="white"/>
<path d="M123.929 21.7758L122.637 21.0675V10.4922H124.268V19.8526C126.64 19.4039 129.352 17.6628 130.887 15.1724L131.675 16.6765C130.108 19.0342 127.27 20.9574 123.929 21.7758Z" fill="white"/>
<path d="M134.121 14.1714L135.367 13.6902C135.879 14.7231 136.336 15.9676 136.572 16.9524L135.216 17.418C135.044 16.5743 134.611 15.2197 134.121 14.1714ZM135.965 20.6957C139.48 19.6163 141.033 16.8184 141.254 13.6747L142.711 13.8003C142.483 17.2205 140.693 20.6492 136.785 21.8697L135.965 20.6957ZM136.912 13.6747L138.156 13.1865C138.66 14.2194 139.095 15.5104 139.356 16.4642L137.983 16.9369C137.802 16.079 137.385 14.6751 136.912 13.6747Z" fill="white"/>
<path d="M148.065 15.5978V21.9176H146.465V9.88477H148.065V13.9187C150.334 14.8796 152.454 15.9675 154.227 17.0003L153.305 18.4028C151.808 17.418 149.98 16.4331 148.065 15.5978Z" fill="white"/>
<path d="M54.9375 33.4973C54.9375 31.8056 55.1689 29.9812 55.5061 28.5547L56.5714 28.7494C56.1989 30.118 55.9802 31.8521 55.9802 33.4861C55.9802 34.9196 56.1227 36.1796 56.5488 37.2209L55.4948 37.5229C55.1026 36.435 54.9375 35.0903 54.9375 33.4973ZM57.5549 35.5235C57.5549 35.127 57.7016 34.6064 58.0162 33.9122L58.9517 34.0843C58.6794 34.605 58.5609 34.9422 58.5609 35.2216C58.5609 35.7888 59.3482 35.9609 60.8043 35.9609C61.4548 35.9609 62.1716 35.9016 62.8404 35.7888V36.8075C62.1829 36.8611 61.4435 36.9077 60.8269 36.9077C58.963 36.9077 57.5549 36.5958 57.5549 35.5235ZM57.6607 30.1054C58.6667 30.0348 59.9281 29.9939 61.095 29.9939C61.8936 29.9939 62.2972 29.9939 62.6231 30.0122L62.5991 30.9773C62.0897 30.9421 61.4336 30.9181 60.817 30.9181C59.787 30.9181 58.6328 30.9646 57.727 31.0648L57.6607 30.1054Z" fill="white"/>
<path d="M64.3633 36.9333C64.795 36.6779 65.2931 36.2997 65.8251 35.8666V33.3099H64.3859V32.4337H66.7605V35.7438C67.4533 36.5664 68.1052 36.7851 69.0759 36.8275C70.2075 36.8627 72.8009 36.8627 74.0976 36.7865L73.9382 37.6867C72.6768 37.722 70.1426 37.722 68.9236 37.6867C67.8046 37.6628 67.1119 37.3848 66.3598 36.5678C65.7785 37.1068 65.2578 37.516 64.7852 37.8829L64.3633 36.9333ZM64.565 28.8921L65.2818 28.3475C66.0339 28.9754 66.6321 29.5609 67.0286 30.1408L66.206 30.6982C65.8251 30.1183 65.2691 29.5017 64.565 28.8921ZM67.7793 29.2181H69.3906C69.55 28.8568 69.6982 28.4547 69.7814 28.1768L70.8594 28.3362C70.7409 28.6015 70.5815 28.9034 70.398 29.2181H73.0563V32.0485H68.7754V32.9303H73.3935V35.9851H67.7807V29.2181H67.7793ZM72.0729 31.2724V29.9941H68.7754V31.2724H72.0729ZM72.4087 35.1978V33.7163H68.774V35.1978H72.4087Z" fill="white"/>
<path d="M78.681 37.524C78.4256 37.524 78.0531 37.524 77.7639 37.5128L77.627 36.5829C77.905 36.6069 78.2732 36.6069 78.5145 36.6069C78.911 36.6069 79.0591 36.5194 79.1904 31.1013H77.8231C77.651 33.5521 77.1896 36.1455 75.9409 37.7103L75.0703 37.1769C76.295 35.7561 76.7339 33.3701 76.8876 31.1013H75.241V30.1898H76.9342C76.9695 29.5041 76.9878 28.8 76.9878 28.1777L77.9402 28.189C77.9289 28.8099 77.9162 29.5041 77.8697 30.1898H80.1611C80.0313 37.2701 79.8239 37.524 78.681 37.524ZM84.5775 37.6369H83.6067V37.0387H81.747V37.6722H80.7946V29.0864H84.5775V37.6369ZM83.6067 30.012H81.747V36.1215H83.6067V30.012Z" fill="white"/>
<defs>
<filter id="filter0_d_568_2246" x="9.17188" y="11.7258" width="39.25" height="20.1074" filterUnits="userSpaceOnUse" color-interpolation-filters="sRGB">
<feFlood flood-opacity="0" result="BackgroundImageFix"/>
<feColorMatrix in="SourceAlpha" type="matrix" values="0 0 0 0 0 0 0 0 0 0 0 0 0 0 0 0 0 0 127 0" result="hardAlpha"/>
<feOffset dy="-0.2"/>
<feGaussianBlur stdDeviation="1.5"/>
<feComposite in2="hardAlpha" operator="out"/>
<feColorMatrix type="matrix" values="0 0 0 0 0 0 0 0 0 0 0 0 0 0 0 0 0 0 0.12 0"/>
<feBlend mode="normal" in2="BackgroundImageFix" result="effect1_dropShadow_568_2246"/>
<feBlend mode="normal" in="SourceGraphic" in2="effect1_dropShadow_568_2246" result="shape"/>
</filter>
<filter id="filter1_d_568_2246" x="9.17188" y="14.7473" width="39.25" height="20.1074" filterUnits="userSpaceOnUse" color-interpolation-filters="sRGB">
<feFlood flood-opacity="0" result="BackgroundImageFix"/>
<feColorMatrix in="SourceAlpha" type="matrix" values="0 0 0 0 0 0 0 0 0 0 0 0 0 0 0 0 0 0 127 0" result="hardAlpha"/>
<feOffset dy="-0.2"/>
<feGaussianBlur stdDeviation="1.5"/>
<feComposite in2="hardAlpha" operator="out"/>
<feColorMatrix type="matrix" values="0 0 0 0 0 0 0 0 0 0 0 0 0 0 0 0 0 0 0.12 0"/>
<feBlend mode="normal" in2="BackgroundImageFix" result="effect1_dropShadow_568_2246"/>
<feBlend mode="normal" in="SourceGraphic" in2="effect1_dropShadow_568_2246" result="shape"/>
</filter>
<filter id="filter2_d_568_2246" x="9.17188" y="17.7697" width="39.25" height="20.1074" filterUnits="userSpaceOnUse" color-interpolation-filters="sRGB">
<feFlood flood-opacity="0" result="BackgroundImageFix"/>
<feColorMatrix in="SourceAlpha" type="matrix" values="0 0 0 0 0 0 0 0 0 0 0 0 0 0 0 0 0 0 127 0" result="hardAlpha"/>
<feOffset dy="-0.2"/>
<feGaussianBlur stdDeviation="1.5"/>
<feComposite in2="hardAlpha" operator="out"/>
<feColorMatrix type="matrix" values="0 0 0 0 0 0 0 0 0 0 0 0 0 0 0 0 0 0 0.12 0"/>
<feBlend mode="normal" in2="BackgroundImageFix" result="effect1_dropShadow_568_2246"/>
<feBlend mode="normal" in="SourceGraphic" in2="effect1_dropShadow_568_2246" result="shape"/>
</filter>
<filter id="filter3_d_568_2246" x="7.16016" y="20.7951" width="43.2812" height="20.1055" filterUnits="userSpaceOnUse" color-interpolation-filters="sRGB">
<feFlood flood-opacity="0" result="BackgroundImageFix"/>
<feColorMatrix in="SourceAlpha" type="matrix" values="0 0 0 0 0 0 0 0 0 0 0 0 0 0 0 0 0 0 127 0" result="hardAlpha"/>
<feOffset dy="-0.2"/>
<feGaussianBlur stdDeviation="1.5"/>
<feComposite in2="hardAlpha" operator="out"/>
<feColorMatrix type="matrix" values="0 0 0 0 0 0 0 0 0 0 0 0 0 0 0 0 0 0 0.12 0"/>
<feBlend mode="normal" in2="BackgroundImageFix" result="effect1_dropShadow_568_2246"/>
<feBlend mode="normal" in="SourceGraphic" in2="effect1_dropShadow_568_2246" result="shape"/>
</filter>
</defs>
</svg>
