<svg width="174" height="43" viewBox="0 0 174 43" fill="none" xmlns="http://www.w3.org/2000/svg">
<g clip-path="url(#clip0_568_978)">
<path d="M152.631 0.382812H21.0396C9.63117 0.382812 0.382812 9.63117 0.382812 21.0396C0.382812 32.448 9.63117 41.6964 21.0396 41.6964H152.631C164.039 41.6964 173.288 32.448 173.288 21.0396C173.288 9.63117 164.039 0.382812 152.631 0.382812Z" fill="#1F1F1F"/>
<path d="M43.6088 18.2018H16.0664V13.8827C16.0664 11.538 18.0879 9.56348 20.4883 9.56348H39.1869C41.5873 9.56348 43.6088 11.538 43.6088 13.8827V18.2018Z" fill="#34A853"/>
<path d="M43.6088 22.1867H16.0664V17.5963C16.0664 15.1044 18.0879 13.0059 20.4883 13.0059H39.1869C41.5873 13.0059 43.6088 15.1044 43.6088 17.5963V22.1867Z" fill="#FBBC04"/>
<path d="M43.6088 26.0118H16.0664V21.4215C16.0664 18.9296 18.0879 16.8311 20.4883 16.8311H39.1869C41.5873 16.8311 43.6088 18.9296 43.6088 21.4215V26.0118Z" fill="#EA4335"/>
<path d="M16.0664 19.3113L33.5476 23.2602C35.5599 23.7538 37.8237 23.2602 39.4585 22.0262L43.6088 19.0645V28.3198C43.6088 30.6645 41.5966 32.5155 39.2071 32.5155H20.4681C18.0786 32.5155 16.0664 30.6645 16.0664 28.3198V19.3113Z" fill="url(#paint0_linear_568_978)"/>
<path d="M53.1562 17.9611V15.415H53.7828C53.9353 15.1631 54.058 14.8381 54.1508 14.4403C54.2503 14.0358 54.3199 13.5916 54.3597 13.1076C54.4061 12.6235 54.4293 12.1361 54.4293 11.6455V9.32812H58.9945V15.415H59.8299V17.9611H58.7657V16.4494H54.2205V17.9611H53.1562ZM54.9763 15.415H57.9004V10.3625H55.4935V11.8046C55.4935 12.5274 55.4471 13.1938 55.3543 13.8038C55.2681 14.4137 55.1421 14.9309 54.9763 15.3553V15.415ZM63.1059 16.6085C62.582 16.6085 62.1212 16.4891 61.7234 16.2504C61.3255 16.0117 61.0139 15.6902 60.7885 15.2857C60.563 14.8812 60.4503 14.4237 60.4503 13.9132C60.4503 13.4092 60.563 12.9551 60.7885 12.5506C61.0139 12.1395 61.3255 11.8146 61.7234 11.5759C62.1212 11.3372 62.582 11.2178 63.1059 11.2178C63.623 11.2178 64.0805 11.3372 64.4784 11.5759C64.8762 11.8146 65.1878 12.1395 65.4133 12.5506C65.6387 12.9551 65.7515 13.4092 65.7515 13.9132C65.7515 14.4237 65.6387 14.8812 65.4133 15.2857C65.1878 15.6902 64.8762 16.0117 64.4784 16.2504C64.0805 16.4891 63.623 16.6085 63.1059 16.6085ZM63.1059 15.6239C63.3843 15.6239 63.6429 15.5575 63.8816 15.4249C64.1203 15.2857 64.3126 15.0901 64.4585 14.8381C64.611 14.5795 64.6872 14.2712 64.6872 13.9132C64.6872 13.5551 64.611 13.2501 64.4585 12.9981C64.3126 12.7396 64.1203 12.5439 63.8816 12.4113C63.6429 12.2721 63.3843 12.2025 63.1059 12.2025C62.8274 12.2025 62.5654 12.2721 62.3201 12.4113C62.0814 12.5439 61.8858 12.7396 61.7333 12.9981C61.5874 13.2501 61.5145 13.5551 61.5145 13.9132C61.5145 14.2712 61.5874 14.5795 61.7333 14.8381C61.8858 15.0901 62.0814 15.2857 62.3201 15.4249C62.5654 15.5575 62.8274 15.6239 63.1059 15.6239ZM66.1295 17.9611V15.5144H66.6864C66.7925 15.3884 66.8854 15.2094 66.9649 14.9774C67.0511 14.7387 67.1174 14.4701 67.1638 14.1718C67.2169 13.8734 67.2434 13.5717 67.2434 13.2667V11.377H71.0427V15.5144H71.7787V17.9611H70.7941V16.4494H67.1241V17.9611H66.1295ZM67.8402 15.5144H69.9785V12.3119H68.2579V13.3562C68.2579 13.8204 68.2247 14.2215 68.1584 14.5596C68.0921 14.8911 67.986 15.1895 67.8402 15.4548V15.5144ZM74.3249 16.6085C73.9602 16.6085 73.6352 16.5389 73.3502 16.3996C73.065 16.2537 72.8429 16.0515 72.6838 15.7929C72.5247 15.5343 72.4451 15.2393 72.4451 14.9078C72.4451 14.5497 72.5379 14.2447 72.7236 13.9927C72.9158 13.7341 73.1711 13.5385 73.4894 13.4059C73.8077 13.2733 74.1591 13.207 74.5437 13.207C74.8619 13.207 75.1404 13.2368 75.3791 13.2965C75.6244 13.3562 75.8101 13.4192 75.9361 13.4855V13.217C75.9361 12.8855 75.8167 12.6202 75.578 12.4213C75.3393 12.2224 75.031 12.1229 74.6531 12.1229C74.3945 12.1229 74.1491 12.1826 73.9171 12.3019C73.685 12.4146 73.4994 12.5705 73.3601 12.7694L72.6241 12.2025C72.8429 11.8974 73.1314 11.6587 73.4894 11.4864C73.854 11.3074 74.2519 11.2178 74.6829 11.2178C75.4189 11.2178 75.9858 11.4002 76.3837 11.7649C76.7815 12.1229 76.9804 12.6269 76.9804 13.2766V16.4494H75.9361V15.8228H75.8764C75.7438 16.0283 75.5448 16.2107 75.2797 16.3698C75.0144 16.5289 74.6961 16.6085 74.3249 16.6085ZM74.5138 15.7333C74.7923 15.7333 75.0376 15.6669 75.2498 15.5343C75.462 15.4018 75.6278 15.2293 75.7471 15.0172C75.873 14.7983 75.9361 14.5629 75.9361 14.311C75.7835 14.2248 75.6045 14.1552 75.399 14.1021C75.1934 14.0425 74.9746 14.0126 74.7426 14.0126C74.305 14.0126 73.9933 14.1021 73.8077 14.2812C73.622 14.4535 73.5292 14.6658 73.5292 14.9177C73.5292 15.1564 73.6187 15.352 73.7977 15.5045C73.9768 15.657 74.2155 15.7333 74.5138 15.7333ZM79.281 16.4494V12.3119H77.6101V11.377H82.0161V12.3119H80.3452V16.4494H79.281ZM82.8928 16.4494V11.377H83.967V13.9728L83.9073 14.9276H83.967L86.5032 11.377H87.5674V16.4494H86.5032V13.8634L86.5629 12.9086H86.5032L83.967 16.4494H82.8928ZM91.1487 16.4494V11.377H93.665C93.9633 11.377 94.2288 11.4366 94.4606 11.556C94.6993 11.6687 94.8852 11.8245 95.0176 12.0235C95.1568 12.2224 95.2265 12.4445 95.2265 12.6898C95.2265 12.9551 95.1668 13.1838 95.0474 13.3761C94.935 13.5683 94.7858 13.711 94.5999 13.8038V13.8634C94.8523 13.9629 95.0513 14.1121 95.1966 14.311C95.3496 14.5099 95.4254 14.7387 95.4254 14.9973C95.4254 15.2956 95.3458 15.5542 95.1867 15.773C95.0344 15.9918 94.8355 16.1609 94.5899 16.2803C94.3451 16.393 94.0827 16.4494 93.8042 16.4494H91.1487ZM92.2228 12.2522V13.4457H93.5357C93.7147 13.4457 93.8639 13.3893 93.9832 13.2766C94.1026 13.1639 94.1623 13.0213 94.1623 12.849C94.1623 12.6699 94.1026 12.5274 93.9832 12.4213C93.8639 12.3086 93.7147 12.2522 93.5357 12.2522H92.2228ZM92.2228 15.5542H93.6948C93.8876 15.5542 94.0467 15.4946 94.1722 15.3752C94.3053 15.2492 94.3711 15.0901 94.3711 14.8978C94.3711 14.7121 94.3053 14.5564 94.1722 14.4303C94.0467 14.3043 93.8876 14.2414 93.6948 14.2414H92.2228V15.5542Z" fill="white"/>
<path d="M58.2523 31.9581C57.5846 31.9581 56.956 31.8367 56.3664 31.5939C55.7855 31.3511 55.2695 31.013 54.8187 30.5794C54.3678 30.1372 54.0123 29.6213 53.7522 29.0317C53.5007 28.4334 53.375 27.7875 53.375 27.0938C53.375 26.4001 53.5007 25.7585 53.7522 25.1689C54.0123 24.5706 54.3635 24.0547 54.8057 23.6211C55.2565 23.1789 55.7768 22.8364 56.3664 22.5937C56.956 22.3509 57.5846 22.2295 58.2523 22.2295C58.9633 22.2295 59.6179 22.3552 60.2162 22.6067C60.8231 22.8581 61.3304 23.2093 61.7379 23.6602L60.7495 24.6356C60.446 24.2975 60.0818 24.0373 59.657 23.8553C59.2408 23.6732 58.7725 23.5821 58.2523 23.5821C57.6366 23.5821 57.0687 23.7296 56.5485 24.0243C56.0283 24.3105 55.6077 24.718 55.2869 25.2469C54.9748 25.7672 54.8187 26.3828 54.8187 27.0938C54.8187 27.8048 54.9791 28.4248 55.2999 28.9537C55.6207 29.4739 56.0413 29.8815 56.5615 30.1762C57.0817 30.4624 57.6497 30.6054 58.2653 30.6054C58.8289 30.6054 59.3405 30.5014 59.8 30.2933C60.2596 30.0765 60.6281 29.773 60.9055 29.3829C61.1917 28.9927 61.3651 28.5245 61.4258 27.9782H58.2393V26.7166H62.7654C62.8174 26.9507 62.8435 27.1978 62.8435 27.458V27.471C62.8435 28.3727 62.644 29.1618 62.2452 29.8381C61.855 30.5057 61.3131 31.026 60.6194 31.3988C59.9257 31.7716 59.1367 31.9581 58.2523 31.9581ZM67.0314 31.9581C66.3463 31.9581 65.7437 31.802 65.2235 31.4899C64.7033 31.1777 64.2957 30.7571 64.0009 30.2283C63.7061 29.6994 63.5587 29.1011 63.5587 28.4334C63.5587 27.7745 63.7061 27.1805 64.0009 26.6516C64.2957 26.114 64.7033 25.6891 65.2235 25.377C65.7437 25.0648 66.3463 24.9088 67.0314 24.9088C67.7077 24.9088 68.306 25.0648 68.8262 25.377C69.3464 25.6891 69.7539 26.114 70.0488 26.6516C70.3436 27.1805 70.491 27.7745 70.491 28.4334C70.491 29.1011 70.3436 29.6994 70.0488 30.2283C69.7539 30.7571 69.3464 31.1777 68.8262 31.4899C68.306 31.802 67.7077 31.9581 67.0314 31.9581ZM67.0314 30.6705C67.3955 30.6705 67.7337 30.5838 68.0458 30.4103C68.358 30.2283 68.6094 29.9725 68.8002 29.643C68.9996 29.3048 69.0993 28.9016 69.0993 28.4334C69.0993 27.9652 68.9996 27.5664 68.8002 27.2369C68.6094 26.8987 68.358 26.6429 68.0458 26.4695C67.7337 26.2874 67.3955 26.1964 67.0314 26.1964C66.6672 26.1964 66.3247 26.2874 66.0039 26.4695C65.6917 26.6429 65.4359 26.8987 65.2365 27.2369C65.0457 27.5664 64.9504 27.9652 64.9504 28.4334C64.9504 28.9016 65.0457 29.3048 65.2365 29.643C65.4359 29.9725 65.6917 30.2283 66.0039 30.4103C66.3247 30.5838 66.6672 30.6705 67.0314 30.6705ZM74.9061 31.9581C74.2211 31.9581 73.6185 31.802 73.0983 31.4899C72.578 31.1777 72.1705 30.7571 71.8757 30.2283C71.5809 29.6994 71.4335 29.1011 71.4335 28.4334C71.4335 27.7745 71.5809 27.1805 71.8757 26.6516C72.1705 26.114 72.578 25.6891 73.0983 25.377C73.6185 25.0648 74.2211 24.9088 74.9061 24.9088C75.5824 24.9088 76.1807 25.0648 76.7011 25.377C77.2213 25.6891 77.6291 26.114 77.9237 26.6516C78.2182 27.1805 78.3659 27.7745 78.3659 28.4334C78.3659 29.1011 78.2182 29.6994 77.9237 30.2283C77.6291 30.7571 77.2213 31.1777 76.7011 31.4899C76.1807 31.802 75.5824 31.9581 74.9061 31.9581ZM74.9061 30.6705C75.2703 30.6705 75.6084 30.5838 75.9206 30.4103C76.2327 30.2283 76.4842 29.9725 76.6751 29.643C76.8748 29.3048 76.9742 28.9016 76.9742 28.4334C76.9742 27.9652 76.8748 27.5664 76.6751 27.2369C76.4842 26.8987 76.2327 26.6429 75.9206 26.4695C75.6084 26.2874 75.2703 26.1964 74.9061 26.1964C74.5419 26.1964 74.1995 26.2874 73.8786 26.4695C73.5665 26.6429 73.3107 26.8987 73.1113 27.2369C72.9205 27.5664 72.8251 27.9652 72.8251 28.4334C72.8251 28.9016 72.9205 29.3048 73.1113 29.643C73.3107 29.9725 73.5665 30.2283 73.8786 30.4103C74.1995 30.5838 74.5419 30.6705 74.9061 30.6705ZM82.651 34.7674C82.0696 34.7674 81.5669 34.672 81.1423 34.4813C80.7261 34.2992 80.388 34.0607 80.1278 33.7659C79.8677 33.4798 79.681 33.185 79.5686 32.8815L80.8692 32.3352C81.0077 32.6821 81.2288 32.9639 81.5325 33.1806C81.8446 33.4061 82.2172 33.5188 82.651 33.5188C83.2577 33.5188 83.7344 33.3367 84.0817 32.9725C84.4367 32.6084 84.6149 32.0925 84.6149 31.4248V30.7875H84.5369C84.3288 31.0997 84.0381 31.3511 83.6655 31.5419C83.3013 31.724 82.8851 31.815 82.4169 31.815C81.8531 31.815 81.3374 31.6719 80.8692 31.3858C80.401 31.0997 80.0238 30.7008 79.7376 30.1892C79.4515 29.669 79.3084 29.0621 79.3084 28.3684C79.3084 27.6661 79.4515 27.0591 79.7376 26.5475C80.0238 26.0273 80.401 25.6241 80.8692 25.338C81.3374 25.0518 81.8531 24.9088 82.4169 24.9088C82.8851 24.9088 83.3013 25.0042 83.6655 25.1949C84.0381 25.3856 84.3288 25.6371 84.5369 25.9492H84.6149V25.1169H85.9546V31.3988C85.9546 32.1185 85.8115 32.7298 85.5254 33.2327C85.2477 33.7355 84.8621 34.1171 84.3678 34.3772C83.8736 34.6373 83.3013 34.7674 82.651 34.7674ZM82.664 30.5404C83.0106 30.5404 83.3312 30.458 83.6265 30.2933C83.921 30.1198 84.1597 29.8727 84.3418 29.5519C84.5239 29.2224 84.6149 28.828 84.6149 28.3684C84.6149 27.8915 84.5239 27.4926 84.3418 27.1718C84.1597 26.8423 83.921 26.5952 83.6265 26.4305C83.3312 26.2658 83.0106 26.1834 82.664 26.1834C82.3167 26.1834 81.9915 26.27 81.6886 26.4435C81.3933 26.6082 81.1553 26.851 80.9732 27.1718C80.7911 27.4926 80.7001 27.8915 80.7001 28.3684C80.7001 28.8366 80.7911 29.2354 80.9732 29.5649C81.1553 29.8857 81.3933 30.1286 81.6886 30.2933C81.9915 30.458 82.3167 30.5404 82.664 30.5404ZM87.6109 31.75V22.4376H89.0156V31.75H87.6109ZM93.6381 31.9581C92.9878 31.9581 92.4071 31.8064 91.8953 31.5029C91.3842 31.1994 90.9811 30.7832 90.6857 30.2543C90.3996 29.7254 90.2565 29.1227 90.2565 28.4464C90.2565 27.8135 90.3958 27.2282 90.6727 26.6906C90.9505 26.153 91.336 25.7238 91.8303 25.403C92.3337 25.0735 92.9098 24.9088 93.5601 24.9088C94.2456 24.9088 94.8263 25.0562 95.3029 25.351C95.7887 25.6457 96.1575 26.0489 96.4084 26.5605C96.6601 27.0721 96.7856 27.6487 96.7856 28.2903C96.7856 28.3857 96.7818 28.4724 96.7726 28.5505C96.7726 28.6285 96.7688 28.6892 96.7596 28.7326H91.6352C91.7048 29.3915 91.9343 29.8857 92.3245 30.2153C92.7239 30.5448 93.1745 30.7095 93.6772 30.7095C94.1285 30.7095 94.5011 30.6098 94.7957 30.4103C95.091 30.2022 95.3251 29.9465 95.498 29.643L96.6556 30.2022C96.3694 30.7225 95.9792 31.1473 95.485 31.4768C94.9908 31.7976 94.3757 31.9581 93.6381 31.9581ZM93.5731 26.1053C93.1049 26.1053 92.7063 26.2484 92.3765 26.5345C92.0476 26.8207 91.8265 27.2022 91.7132 27.6791H95.394C95.3771 27.4536 95.3029 27.2195 95.1729 26.9767C95.0428 26.734 94.8439 26.5302 94.5746 26.3654C94.3144 26.192 93.9809 26.1053 93.5731 26.1053ZM101.358 31.75V22.4376H106.795V23.7902H102.789V31.75H101.358ZM108.845 31.9581C108.368 31.9581 107.943 31.867 107.571 31.6849C107.197 31.4942 106.907 31.2297 106.699 30.8916C106.491 30.5534 106.387 30.1676 106.387 29.734C106.387 29.2658 106.508 28.867 106.751 28.5375C107.002 28.1993 107.337 27.9435 107.753 27.7701C108.169 27.5967 108.628 27.51 109.131 27.51C109.548 27.51 109.912 27.549 110.224 27.627C110.545 27.7051 110.787 27.7875 110.952 27.8741V27.523C110.952 27.0894 110.796 26.7426 110.484 26.4825C110.172 26.2224 109.769 26.0923 109.275 26.0923C108.936 26.0923 108.615 26.1703 108.312 26.3264C108.008 26.4738 107.766 26.6776 107.584 26.9377L106.621 26.1964C106.907 25.7975 107.285 25.4854 107.753 25.2599C108.229 25.0258 108.75 24.9088 109.314 24.9088C110.276 24.9088 111.017 25.1472 111.538 25.6241C112.058 26.0923 112.318 26.7513 112.318 27.601V31.75H110.952V30.9306H110.874C110.701 31.1994 110.441 31.4378 110.094 31.6459C109.747 31.854 109.33 31.9581 108.845 31.9581ZM109.092 30.8135C109.457 30.8135 109.777 30.7269 110.055 30.5534C110.332 30.38 110.549 30.1546 110.705 29.8771C110.87 29.591 110.952 29.2832 110.952 28.9537C110.753 28.841 110.519 28.7499 110.25 28.6805C109.981 28.6025 109.695 28.5635 109.392 28.5635C108.819 28.5635 108.412 28.6805 108.169 28.9146C107.926 29.1401 107.805 29.4175 107.805 29.747C107.805 30.0592 107.922 30.3149 108.156 30.5144C108.39 30.7138 108.702 30.8135 109.092 30.8135ZM113.864 31.75V25.1169H115.529L117.571 29.1748H117.636L119.691 25.1169H121.317V31.75H119.977V28.5245L120.042 27.2499H119.964L118.052 30.9046H117.129L115.217 27.2499H115.139L115.204 28.5245V31.75H113.864ZM124.976 31.9581C124.499 31.9581 124.074 31.867 123.701 31.6849C123.328 31.4942 123.038 31.2297 122.83 30.8916C122.622 30.5534 122.518 30.1676 122.518 29.734C122.518 29.2658 122.639 28.867 122.882 28.5375C123.133 28.1993 123.467 27.9435 123.883 27.7701C124.3 27.5967 124.759 27.51 125.262 27.51C125.678 27.51 126.043 27.549 126.355 27.627C126.675 27.7051 126.918 27.7875 127.083 27.8741V27.523C127.083 27.0894 126.927 26.7426 126.615 26.4825C126.303 26.2224 125.899 26.0923 125.405 26.0923C125.067 26.0923 124.746 26.1703 124.443 26.3264C124.139 26.4738 123.896 26.6776 123.714 26.9377L122.752 26.1964C123.038 25.7975 123.415 25.4854 123.883 25.2599C124.36 25.0258 124.88 24.9088 125.444 24.9088C126.407 24.9088 127.148 25.1472 127.668 25.6241C128.189 26.0923 128.449 26.7513 128.449 27.601V31.75H127.083V30.9306H127.005C126.831 31.1994 126.571 31.4378 126.225 31.6459C125.877 31.854 125.461 31.9581 124.976 31.9581ZM125.223 30.8135C125.587 30.8135 125.908 30.7269 126.186 30.5534C126.463 30.38 126.68 30.1546 126.836 29.8771C127 29.591 127.083 29.2832 127.083 28.9537C126.883 28.841 126.649 28.7499 126.381 28.6805C126.111 28.6025 125.825 28.5635 125.522 28.5635C124.95 28.5635 124.542 28.6805 124.3 28.9146C124.056 29.1401 123.936 29.4175 123.936 29.747C123.936 30.0592 124.053 30.3149 124.287 30.5144C124.521 30.7138 124.833 30.8135 125.223 30.8135ZM129.995 31.75V25.1169H131.399V27.7831H134.547V25.1169H135.952V31.75H134.547V29.0057H131.399V31.75H129.995ZM140.557 31.9581C139.907 31.9581 139.326 31.8064 138.815 31.5029C138.303 31.1994 137.9 30.7832 137.605 30.2543C137.319 29.7254 137.176 29.1227 137.176 28.4464C137.176 27.8135 137.314 27.2282 137.592 26.6906C137.869 26.153 138.255 25.7238 138.749 25.403C139.252 25.0735 139.829 24.9088 140.479 24.9088C141.164 24.9088 141.745 25.0562 142.222 25.351C142.707 25.6457 143.076 26.0489 143.328 26.5605C143.579 27.0721 143.705 27.6487 143.705 28.2903C143.705 28.3857 143.7 28.4724 143.692 28.5505C143.692 28.6285 143.687 28.6892 143.679 28.7326H138.554C138.623 29.3915 138.854 29.8857 139.244 30.2153C139.642 30.5448 140.093 30.7095 140.596 30.7095C141.047 30.7095 141.42 30.6098 141.715 30.4103C142.009 30.2022 142.244 29.9465 142.417 29.643L143.575 30.2022C143.289 30.7225 142.898 31.1473 142.404 31.4768C141.91 31.7976 141.294 31.9581 140.557 31.9581ZM140.492 26.1053C140.024 26.1053 139.625 26.2484 139.296 26.5345C138.966 26.8207 138.745 27.2022 138.632 27.6791H142.313C142.296 27.4536 142.222 27.2195 142.092 26.9767C141.962 26.734 141.762 26.5302 141.494 26.3654C141.234 26.192 140.899 26.1053 140.492 26.1053ZM150.379 33.7269V31.75H145.008V25.1169H146.412V30.5274H149.3V25.1169H150.704V30.5274H151.667V33.7269H150.379ZM154.325 25.1169V27.3279H155.847C156.298 27.3279 156.701 27.4233 157.057 27.614C157.421 27.8048 157.707 28.0692 157.915 28.4074C158.123 28.7369 158.227 29.1141 158.227 29.5389C158.227 29.9638 158.123 30.341 157.915 30.6705C157.707 31 157.421 31.2644 157.057 31.4638C156.701 31.6546 156.298 31.75 155.847 31.75H152.921V25.1169H154.325ZM154.325 30.5794H155.73C156.042 30.5794 156.302 30.4797 156.51 30.2803C156.719 30.0808 156.823 29.8337 156.823 29.5389C156.823 29.2442 156.719 28.997 156.51 28.7976C156.302 28.5895 156.042 28.4854 155.73 28.4854H154.325V30.5794Z" fill="white"/>
<path d="M152.631 0.382812H21.0396C9.63117 0.382812 0.382812 9.63117 0.382812 21.0396C0.382812 32.448 9.63117 41.6964 21.0396 41.6964H152.631C164.039 41.6964 173.288 32.448 173.288 21.0396C173.288 9.63117 164.039 0.382812 152.631 0.382812Z" stroke="#747775"/>
</g>
<defs>
<linearGradient id="paint0_linear_568_978" x1="28.525" y1="26.0468" x2="14.3697" y2="42.6319" gradientUnits="userSpaceOnUse">
<stop stop-color="#4285F4"/>
<stop offset="1" stop-color="#1B74E8"/>
</linearGradient>
<clipPath id="clip0_568_978">
<rect width="173.67" height="42.0786" fill="white"/>
</clipPath>
</defs>
</svg>
