<svg width="174" height="41" viewBox="0 0 174 41" fill="none" xmlns="http://www.w3.org/2000/svg">
<g clip-path="url(#clip0_568_186)">
<path d="M153.348 0.369141H20.3247C9.30461 0.369141 0.371094 9.30266 0.371094 20.3227C0.371094 31.3428 9.30461 40.2763 20.3247 40.2763H153.348C164.369 40.2763 173.302 31.3428 173.302 20.3227C173.302 9.30266 164.369 0.369141 153.348 0.369141Z" fill="#1F1F1F"/>
<path d="M42.1243 17.5825H15.5195V13.4104C15.5195 11.1455 17.4722 9.23828 19.7909 9.23828H37.8529C40.1717 9.23828 42.1243 11.1455 42.1243 13.4104V17.5825Z" fill="#34A853"/>
<path d="M42.1243 21.4317H15.5195V16.9976C15.5195 14.5905 17.4722 12.5635 19.7909 12.5635H37.8529C40.1717 12.5635 42.1243 14.5905 42.1243 16.9976V21.4317Z" fill="#FBBC04"/>
<path d="M42.1243 25.127H15.5195V20.6929C15.5195 18.2859 17.4722 16.2588 19.7909 16.2588H37.8529C40.1717 16.2588 42.1243 18.2859 42.1243 20.6929V25.127Z" fill="#EA4335"/>
<path d="M15.5195 18.6534L32.4057 22.468C34.3494 22.9448 36.5361 22.468 38.1153 21.2759L42.1243 18.415V27.3553C42.1243 29.6202 40.1806 31.4082 37.8724 31.4082H19.7714C17.4632 31.4082 15.5195 29.6202 15.5195 27.3553V18.6534Z" fill="url(#paint0_linear_568_186)"/>
<path d="M51.7695 15.8893V9.01051H54.1329C54.5492 9.01051 54.9271 9.10015 55.2666 9.27951C55.606 9.45887 55.875 9.70541 56.0736 10.0193C56.2785 10.3331 56.381 10.6982 56.381 11.1145C56.381 11.5308 56.2785 11.8991 56.0736 12.2193C55.875 12.5332 55.606 12.7797 55.2666 12.9591C54.9271 13.132 54.5492 13.2185 54.1329 13.2185H52.8263V15.8893H51.7695ZM54.1617 10.0097H52.8263V12.2193H54.1617C54.4115 12.2193 54.6229 12.1681 54.7958 12.0656C54.9688 11.9568 55.1001 11.819 55.1897 11.6525C55.2858 11.4796 55.3338 11.3002 55.3338 11.1145C55.3338 10.9288 55.2858 10.7526 55.1897 10.5861C55.1001 10.4196 54.9688 10.2818 54.7958 10.173C54.6229 10.0641 54.4115 10.0097 54.1617 10.0097ZM57.2916 15.8893V10.9896H58.2715V11.7101H58.3292C58.438 11.4604 58.6237 11.2554 58.8864 11.0953C59.1554 10.9288 59.4436 10.8455 59.751 10.8455C59.8855 10.8455 59.9976 10.8551 60.0873 10.8743C60.1834 10.8935 60.2698 10.9159 60.3467 10.9416V12.0176C60.225 11.9664 60.1001 11.9247 59.972 11.8927C59.8503 11.8607 59.7222 11.8447 59.5877 11.8447C59.3443 11.8447 59.1266 11.9119 58.9344 12.0464C58.7486 12.1745 58.6013 12.3507 58.4925 12.5748C58.3835 12.7926 58.3292 13.0328 58.3292 13.2953V15.8893H57.2916ZM58.3292 10.0481L57.3012 8.88561V8.81836H58.2907L58.7327 9.41401H58.8287L59.2803 8.81836H60.2794V8.88561L59.2418 10.0481H58.3292ZM61.7432 10.2691C61.5511 10.2691 61.3846 10.2018 61.2436 10.0673C61.1091 9.92637 61.0419 9.75987 61.0419 9.56773C61.0419 9.37558 61.1091 9.21226 61.2436 9.07776C61.3846 8.94325 61.5511 8.876 61.7432 8.876C61.9354 8.876 62.0987 8.94325 62.2332 9.07776C62.3741 9.21226 62.4445 9.37558 62.4445 9.56773C62.4445 9.75987 62.3741 9.92637 62.2332 10.0673C62.0987 10.2018 61.9354 10.2691 61.7432 10.2691ZM61.2244 15.8893V10.9896H62.262V15.8893H61.2244ZM65.5969 16.043C65.155 16.043 64.7546 15.9342 64.396 15.7164C64.0437 15.4922 63.7619 15.1848 63.5506 14.7941C63.3456 14.397 63.2431 13.9455 63.2431 13.4395C63.2431 12.9335 63.3456 12.4852 63.5506 12.0944C63.7619 11.7037 64.0437 11.3963 64.396 11.1721C64.7546 10.948 65.155 10.8359 65.5969 10.8359C65.9748 10.8359 66.2982 10.9192 66.5672 11.0857C66.8426 11.2522 67.0444 11.4411 67.1725 11.6525H67.2301L67.1725 10.9704V9.01051H68.2005V15.8893H67.2301V15.236H67.1725C67.0444 15.4474 66.8426 15.6363 66.5672 15.8028C66.2982 15.963 65.9748 16.043 65.5969 16.043ZM65.7506 15.0919C66.0068 15.0919 66.247 15.0247 66.4712 14.8902C66.7018 14.7557 66.8843 14.5667 67.0188 14.3233C67.1596 14.0735 67.2301 13.7789 67.2301 13.4395C67.2301 13.1 67.1596 12.8086 67.0188 12.5652C66.8843 12.3154 66.7018 12.1233 66.4712 11.9888C66.247 11.8543 66.0068 11.787 65.7506 11.787C65.4944 11.787 65.2542 11.8543 65.0301 11.9888C64.8059 12.1233 64.6233 12.3154 64.4825 12.5652C64.3415 12.8086 64.2711 13.1 64.2711 13.4395C64.2711 13.7789 64.3415 14.0735 64.4825 14.3233C64.6233 14.5667 64.8059 14.7557 65.0301 14.8902C65.2542 15.0247 65.4944 15.0919 65.7506 15.0919ZM70.9128 16.043C70.5606 16.043 70.2468 15.9758 69.9713 15.8413C69.696 15.7003 69.4814 15.505 69.3276 15.2552C69.1739 15.0054 69.0971 14.7204 69.0971 14.4002C69.0971 14.0543 69.1868 13.7597 69.3661 13.5163C69.5519 13.2665 69.7984 13.0776 70.1058 12.9495C70.4133 12.8214 70.7528 12.7573 71.1242 12.7573C71.4316 12.7573 71.7006 12.7862 71.9312 12.8438C72.1682 12.9015 72.3476 12.9623 72.4692 13.0263V12.7669C72.4692 12.4467 72.3539 12.1905 72.1234 11.9984C71.8928 11.8062 71.595 11.7101 71.2299 11.7101C70.9801 11.7101 70.7432 11.7678 70.5189 11.8831C70.2948 11.9919 70.1154 12.1425 69.9809 12.3346L69.27 11.787C69.4814 11.4924 69.76 11.2618 70.1058 11.0953C70.4581 10.9224 70.8424 10.8359 71.2587 10.8359C71.9696 10.8359 72.5173 11.012 72.9015 11.3643C73.2858 11.7101 73.478 12.1969 73.478 12.8246V15.8893H72.4692V15.2841H72.4116C72.2835 15.4826 72.0914 15.6587 71.8351 15.8125C71.579 15.9662 71.2716 16.043 70.9128 16.043ZM71.0954 15.1976C71.3644 15.1976 71.6014 15.1335 71.8063 15.0054C72.0113 14.8774 72.1714 14.7108 72.2867 14.5059C72.4084 14.2945 72.4692 14.0671 72.4692 13.8238C72.3219 13.7405 72.149 13.6732 71.9504 13.622C71.7519 13.5644 71.5406 13.5355 71.3163 13.5355C70.8936 13.5355 70.5926 13.622 70.4133 13.7949C70.234 13.9614 70.1443 14.1664 70.1443 14.4098C70.1443 14.6404 70.2307 14.8293 70.4037 14.9766C70.5766 15.1239 70.8072 15.1976 71.0954 15.1976ZM75.045 14.4674V11.8927H74.19V10.9896H75.045V9.60616H76.0826V10.9896H77.2835V11.8927H76.0826V14.2465C76.0826 14.4898 76.1306 14.6756 76.2267 14.8037C76.3294 14.9318 76.4994 14.9958 76.7359 14.9958C76.8578 14.9958 76.9605 14.9798 77.0433 14.9478C77.1335 14.9158 77.2229 14.8709 77.3123 14.8133V15.8221C77.2037 15.8669 77.0884 15.9021 76.9665 15.9277C76.8453 15.9534 76.7012 15.9662 76.5341 15.9662C76.0796 15.9662 75.7175 15.8348 75.4485 15.5723C75.1795 15.3033 75.045 14.935 75.045 14.4674ZM82.6163 16.043C82.1743 16.043 81.7738 15.9342 81.4154 15.7164C81.0629 15.4922 80.7813 15.1848 80.5699 14.7941C80.3645 14.397 80.2625 13.9455 80.2625 13.4395C80.2625 12.9335 80.3645 12.4852 80.5699 12.0944C80.7813 11.7037 81.0629 11.3963 81.4154 11.1721C81.7738 10.948 82.1743 10.8359 82.6163 10.8359C82.9939 10.8359 83.3176 10.9192 83.5866 11.0857C83.8615 11.2522 84.0633 11.4411 84.1919 11.6525H84.2495L84.1919 10.9704V9.01051H85.2199V15.8893H84.2495V15.236H84.1919C84.0633 15.4474 83.8615 15.6363 83.5866 15.8028C83.3176 15.963 82.9939 16.043 82.6163 16.043ZM82.77 15.0919C83.0257 15.0919 83.2659 15.0247 83.4905 14.8902C83.7211 14.7557 83.9037 14.5667 84.0382 14.3233C84.1786 14.0735 84.2495 13.7789 84.2495 13.4395C84.2495 13.1 84.1786 12.8086 84.0382 12.5652C83.9037 12.3154 83.7211 12.1233 83.4905 11.9888C83.2659 11.8543 83.0257 11.787 82.77 11.787C82.5136 11.787 82.2734 11.8543 82.0494 11.9888C81.8248 12.1233 81.6422 12.3154 81.5018 12.5652C81.3607 12.8086 81.2905 13.1 81.2905 13.4395C81.2905 13.7789 81.3607 14.0735 81.5018 14.3233C81.6422 14.5667 81.8248 14.7557 82.0494 14.8902C82.2734 15.0247 82.5136 15.0919 82.77 15.0919ZM88.7006 16.043C88.1944 16.043 87.7495 15.9277 87.3652 15.6972C86.9809 15.4666 86.6802 15.156 86.4621 14.7653C86.2441 14.3745 86.1355 13.9326 86.1355 13.4395C86.1355 12.9527 86.2441 12.514 86.4621 12.1233C86.6802 11.7262 86.9809 11.4123 87.3652 11.1817C87.7495 10.9512 88.1944 10.8359 88.7006 10.8359C89.2002 10.8359 89.6422 10.9512 90.0264 11.1817C90.4107 11.4123 90.7115 11.7262 90.9295 12.1233C91.1475 12.514 91.2562 12.9527 91.2562 13.4395C91.2562 13.9326 91.1475 14.3745 90.9295 14.7653C90.7115 15.156 90.4107 15.4666 90.0264 15.6972C89.6422 15.9277 89.2002 16.043 88.7006 16.043ZM88.7006 15.0919C88.9696 15.0919 89.2194 15.0278 89.45 14.8998C89.6806 14.7653 89.8661 14.5763 90.0072 14.3329C90.1543 14.0831 90.2282 13.7853 90.2282 13.4395C90.2282 13.0936 90.1543 12.7989 90.0072 12.5556C89.8661 12.3058 89.6806 12.1168 89.45 11.9888C89.2194 11.8543 88.9696 11.787 88.7006 11.787C88.4316 11.787 88.1789 11.8543 87.9417 11.9888C87.7111 12.1168 87.5219 12.3058 87.3748 12.5556C87.2337 12.7989 87.1635 13.0936 87.1635 13.4395C87.1635 13.7853 87.2337 14.0831 87.3748 14.3329C87.5219 14.5763 87.7111 14.7653 87.9417 14.8998C88.1789 15.0278 88.4316 15.0919 88.7006 15.0919Z" fill="white"/>
<path d="M52.0117 30.6695V21.6741H55.1023C55.6467 21.6741 56.1409 21.7914 56.5848 22.0259C57.0287 22.2604 57.3805 22.5829 57.6401 22.9933C57.9081 23.4037 58.0421 23.8811 58.0421 24.4255C58.0421 24.9699 57.9081 25.4515 57.6401 25.8703C57.3805 26.2807 57.0287 26.6032 56.5848 26.8377C56.1409 27.0638 55.6467 27.1769 55.1023 27.1769H53.3937V30.6695H52.0117ZM55.14 22.9807H53.3937V25.8703H55.14C55.4666 25.8703 55.743 25.8033 55.9692 25.6693C56.1953 25.5269 56.367 25.3468 56.4843 25.129C56.6099 24.9029 56.6727 24.6684 56.6727 24.4255C56.6727 24.1826 56.6099 23.9523 56.4843 23.7345C56.367 23.5167 56.1953 23.3367 55.9692 23.1943C55.743 23.0519 55.4666 22.9807 55.14 22.9807ZM61.7184 30.8705C61.0902 30.8705 60.5291 30.7239 60.0349 30.4308C59.5407 30.1376 59.1513 29.7356 58.8665 29.2247C58.5901 28.7138 58.4519 28.1317 58.4519 27.4784C58.4519 26.867 58.5859 26.3016 58.8539 25.7823C59.122 25.263 59.4947 24.8484 59.9721 24.5386C60.4578 24.2203 61.0148 24.0612 61.643 24.0612C62.3047 24.0612 62.8659 24.2036 63.3265 24.4883C63.7956 24.7731 64.1515 25.1625 64.3944 25.6567C64.6373 26.1509 64.7587 26.7078 64.7587 27.3276C64.7587 27.4198 64.7545 27.5035 64.7462 27.5789C64.7462 27.6543 64.742 27.7129 64.7336 27.7548H59.7836C59.8507 28.3913 60.0726 28.8687 60.4495 29.187C60.8347 29.5053 61.2703 29.6644 61.7561 29.6644C62.1916 29.6644 62.5518 29.5681 62.8365 29.3755C63.1213 29.1744 63.3474 28.9274 63.515 28.6342L64.6331 29.1744C64.3567 29.677 63.9798 30.0874 63.5024 30.4057C63.025 30.7155 62.4303 30.8705 61.7184 30.8705ZM61.6556 25.217C61.2033 25.217 60.818 25.3552 60.4998 25.6316C60.1815 25.908 59.9679 26.2765 59.859 26.7372H63.4145C63.3977 26.5194 63.3265 26.2932 63.2009 26.0587C63.0752 25.8242 62.8826 25.6274 62.623 25.4683C62.3717 25.3007 62.0493 25.217 61.6556 25.217ZM66.0175 30.6695V24.2622H67.299V25.1416H67.3743C67.5586 24.8317 67.8308 24.5763 68.191 24.3752C68.5595 24.1659 68.9615 24.0612 69.397 24.0612C70.1843 24.0612 70.7748 24.2956 71.1685 24.7647C71.5622 25.2338 71.759 25.8535 71.759 26.6241V30.6695H70.4147V26.8C70.4147 26.2807 70.2848 25.9038 70.0252 25.6693C69.7656 25.4264 69.4264 25.3049 69.0076 25.3049C68.6809 25.3049 68.3962 25.3971 68.1533 25.5813C67.9104 25.7572 67.7178 25.9917 67.5754 26.2849C67.4414 26.578 67.3743 26.8921 67.3743 27.2271V30.6695H66.0175ZM76.2324 30.8705C75.6042 30.8705 75.0433 30.7239 74.5489 30.4308C74.0545 30.1376 73.6654 29.7356 73.3806 29.2247C73.1042 28.7138 72.966 28.1317 72.966 27.4784C72.966 26.867 73.1001 26.3016 73.368 25.7823C73.6361 25.263 74.0087 24.8484 74.4861 24.5386C74.9716 24.2203 75.5289 24.0612 76.157 24.0612C76.8185 24.0612 77.3801 24.2036 77.8405 24.4883C78.3098 24.7731 78.6653 25.1625 78.9084 25.6567C79.1515 26.1509 79.2727 26.7078 79.2727 27.3276C79.2727 27.4198 79.2683 27.5035 79.2602 27.5789C79.2602 27.6543 79.2557 27.7129 79.2476 27.7548H74.2976C74.3649 28.3913 74.5866 28.8687 74.9635 29.187C75.3485 29.5053 75.7846 29.6644 76.2701 29.6644C76.7054 29.6644 77.066 29.5681 77.3505 29.3755C77.6351 29.1744 77.8612 28.9274 78.029 28.6342L79.1471 29.1744C78.8707 29.677 78.4938 30.0874 78.0164 30.4057C77.539 30.7155 76.9441 30.8705 76.2324 30.8705ZM76.1696 25.217C75.7173 25.217 75.3323 25.3552 75.0138 25.6316C74.6952 25.908 74.4817 26.2765 74.373 26.7372H77.9285C77.9115 26.5194 77.8405 26.2932 77.7149 26.0587C77.5892 25.8242 77.3964 25.6274 77.137 25.4683C76.8857 25.3007 76.5635 25.217 76.1696 25.217ZM75.5665 23.031L74.2223 21.5108V21.4229H75.5163L76.0942 22.2018H76.2198L76.8103 21.4229H78.1169V21.5108L76.7601 23.031H75.5665ZM80.1433 30.6695V29.5388L83.7113 25.4431H80.2564V24.2622H85.3697V25.3929L81.8142 29.4885H85.4702V30.6695H80.1433ZM82.2288 23.031L80.8845 21.5108V21.4229H82.1786L82.7565 22.2018H82.8821L83.4726 21.4229H84.7792V21.5108L83.4223 23.031H82.2288ZM89.5444 30.8705C88.9162 30.8705 88.3553 30.7239 87.8609 30.4308C87.3665 30.1376 86.977 29.7356 86.6925 29.2247C86.4161 28.7138 86.2779 28.1317 86.2779 27.4784C86.2779 26.867 86.4117 26.3016 86.6799 25.7823C86.9482 25.263 87.3207 24.8484 87.7981 24.5386C88.2836 24.2203 88.8408 24.0612 89.469 24.0612C90.1304 24.0612 90.6921 24.2036 91.1525 24.4883C91.6218 24.7731 91.9773 25.1625 92.2204 25.6567C92.4635 26.1509 92.5847 26.7078 92.5847 27.3276C92.5847 27.4198 92.5803 27.5035 92.5722 27.5789C92.5722 27.6543 92.5677 27.7129 92.5596 27.7548H87.6096C87.6769 28.3913 87.8986 28.8687 88.2755 29.187C88.6605 29.5053 89.0965 29.6644 89.5821 29.6644C90.0174 29.6644 90.378 29.5681 90.6625 29.3755C90.9471 29.1744 91.1732 28.9274 91.341 28.6342L92.4591 29.1744C92.1827 29.677 91.8058 30.0874 91.3284 30.4057C90.851 30.7155 90.2561 30.8705 89.5444 30.8705ZM89.4816 25.217C89.0293 25.217 88.6443 25.3552 88.3257 25.6316C88.0072 25.908 87.7937 26.2765 87.685 26.7372H91.2404C91.2235 26.5194 91.1525 26.2932 91.0269 26.0587C90.9012 25.8242 90.7084 25.6274 90.449 25.4683C90.1977 25.3007 89.8755 25.217 89.4816 25.217ZM93.8433 30.6695V24.2622H95.1247V25.1416H95.2001C95.3841 24.8317 95.6568 24.5763 96.0167 24.3752C96.3855 24.1659 96.7875 24.0612 97.2228 24.0612C98.0099 24.0612 98.6004 24.2956 98.9943 24.7647C99.3882 25.2338 99.5847 25.8535 99.5847 26.6241V30.6695H98.2405V26.8C98.2405 26.2807 98.1104 25.9038 97.851 25.6693C97.5916 25.4264 97.2524 25.3049 96.8334 25.3049C96.5067 25.3049 96.2222 25.3971 95.9791 25.5813C95.7359 25.7572 95.5438 25.9917 95.4011 26.2849C95.2674 26.578 95.2001 26.8921 95.2001 27.2271V30.6695H93.8433ZM101.131 30.6695V21.6741H102.488V26.9759L105.201 24.2622H106.885V24.3375L104.41 26.7874L106.973 30.5941V30.6695H105.365L103.455 27.7297L102.488 28.6845V30.6695H101.131ZM110.003 33.0691C109.978 33.1361 109.95 33.1989 109.916 33.2575C109.89 33.3161 109.874 33.358 109.865 33.3832H108.42C108.463 33.291 108.521 33.157 108.596 32.9811C108.681 32.8136 108.76 32.6503 108.835 32.4912C108.91 32.3321 108.99 32.152 109.074 31.9509C109.166 31.7499 109.259 31.5531 109.35 31.3605L109.828 30.3177L107.152 24.2622H108.659L110.493 28.6342H110.556L112.328 24.2622H113.823L110.506 31.9007C110.414 32.1185 110.314 32.3446 110.204 32.5791C110.104 32.822 110.037 32.9854 110.003 33.0691ZM121.897 30.8705C121.252 30.8705 120.645 30.7532 120.076 30.5187C119.514 30.2842 119.016 29.9576 118.581 29.5388C118.145 29.1116 117.802 28.6133 117.55 28.0437C117.307 27.4658 117.186 26.8419 117.186 26.1718C117.186 25.5017 117.307 24.882 117.55 24.3124C117.802 23.7345 118.141 23.2362 118.568 22.8174C119.003 22.3902 119.506 22.0594 120.076 21.8249C120.645 21.5904 121.252 21.4731 121.897 21.4731C122.584 21.4731 123.216 21.5945 123.794 21.8374C124.38 22.0804 124.87 22.4196 125.264 22.8551L124.309 23.7973C124.016 23.4707 123.664 23.2194 123.254 23.0435C122.852 22.8676 122.4 22.7797 121.897 22.7797C121.302 22.7797 120.754 22.9221 120.251 23.2068C119.749 23.4832 119.342 23.8769 119.033 24.3878C118.731 24.8903 118.581 25.485 118.581 26.1718C118.581 26.8586 118.735 27.4575 119.045 27.9684C119.355 28.4709 119.761 28.8646 120.264 29.1493C120.767 29.4257 121.315 29.5639 121.91 29.5639C122.454 29.5639 122.948 29.4634 123.392 29.2624C123.836 29.053 124.192 28.7599 124.46 28.383C124.737 28.0061 124.904 27.5538 124.963 27.0261H121.885V25.8075H126.257C126.307 26.0336 126.332 26.2723 126.332 26.5236V26.5361C126.332 27.4072 126.139 28.1694 125.754 28.8227C125.377 29.4676 124.853 29.9701 124.184 30.3303C123.514 30.6904 122.752 30.8705 121.897 30.8705ZM130.378 30.8705C129.715 30.8705 129.134 30.7197 128.631 30.4182C128.129 30.1167 127.735 29.7105 127.45 29.1996C127.165 28.6887 127.023 28.1108 127.023 27.4658C127.023 26.8293 127.165 26.2555 127.45 25.7446C127.735 25.2253 128.129 24.815 128.631 24.5134C129.134 24.2119 129.715 24.0612 130.378 24.0612C131.031 24.0612 131.609 24.2119 132.111 24.5134C132.614 24.815 133.007 25.2253 133.292 25.7446C133.577 26.2555 133.719 26.8293 133.719 27.4658C133.719 28.1108 133.577 28.6887 133.292 29.1996C133.007 29.7105 132.614 30.1167 132.111 30.4182C131.609 30.7197 131.031 30.8705 130.378 30.8705ZM130.378 29.6267C130.729 29.6267 131.056 29.543 131.357 29.3755C131.659 29.1996 131.901 28.9525 132.086 28.6342C132.278 28.3076 132.375 27.9181 132.375 27.4658C132.375 27.0135 132.278 26.6283 132.086 26.31C131.901 25.9834 131.659 25.7363 131.357 25.5688C131.056 25.3929 130.729 25.3049 130.378 25.3049C130.026 25.3049 129.695 25.3929 129.385 25.5688C129.084 25.7363 128.836 25.9834 128.644 26.31C128.459 26.6283 128.367 27.0135 128.367 27.4658C128.367 27.9181 128.459 28.3076 128.644 28.6342C128.836 28.9525 129.084 29.1996 129.385 29.3755C129.695 29.543 130.026 29.6267 130.378 29.6267ZM137.984 30.8705C137.322 30.8705 136.741 30.7197 136.238 30.4182C135.735 30.1167 135.342 29.7105 135.057 29.1996C134.772 28.6887 134.63 28.1108 134.63 27.4658C134.63 26.8293 134.772 26.2555 135.057 25.7446C135.342 25.2253 135.735 24.815 136.238 24.5134C136.741 24.2119 137.322 24.0612 137.984 24.0612C138.638 24.0612 139.215 24.2119 139.718 24.5134C140.221 24.815 140.614 25.2253 140.899 25.7446C141.184 26.2555 141.326 26.8293 141.326 27.4658C141.326 28.1108 141.184 28.6887 140.899 29.1996C140.614 29.7105 140.221 30.1167 139.718 30.4182C139.215 30.7197 138.638 30.8705 137.984 30.8705ZM137.984 29.6267C138.336 29.6267 138.663 29.543 138.964 29.3755C139.266 29.1996 139.508 28.9525 139.693 28.6342C139.885 28.3076 139.982 27.9181 139.982 27.4658C139.982 27.0135 139.885 26.6283 139.693 26.31C139.508 25.9834 139.266 25.7363 138.964 25.5688C138.663 25.3929 138.336 25.3049 137.984 25.3049C137.633 25.3049 137.301 25.3929 136.992 25.5688C136.69 25.7363 136.443 25.9834 136.251 26.31C136.066 26.6283 135.974 27.0135 135.974 27.4658C135.974 27.9181 136.066 28.3076 136.251 28.6342C136.443 28.9525 136.69 29.1996 136.992 29.3755C137.301 29.543 137.633 29.6267 137.984 29.6267ZM145.465 33.5842C144.904 33.5842 144.418 33.492 144.008 33.3078C143.606 33.1319 143.279 32.9015 143.028 32.6168C142.777 32.3404 142.597 32.0557 142.488 31.7625L143.744 31.2348C143.878 31.5698 144.092 31.8421 144.385 32.0515C144.686 32.2692 145.046 32.3781 145.465 32.3781C146.051 32.3781 146.512 32.2022 146.847 31.8504C147.19 31.4987 147.362 31.0003 147.362 30.3554V29.7398H147.287C147.086 30.0413 146.805 30.2842 146.445 30.4685C146.094 30.6444 145.692 30.7323 145.239 30.7323C144.695 30.7323 144.196 30.5941 143.744 30.3177C143.292 30.0413 142.928 29.6561 142.651 29.1619C142.375 28.6593 142.237 28.0731 142.237 27.403C142.237 26.7246 142.375 26.1383 142.651 25.6441C142.928 25.1416 143.292 24.7521 143.744 24.4757C144.196 24.1994 144.695 24.0612 145.239 24.0612C145.692 24.0612 146.094 24.1533 146.445 24.3375C146.805 24.5218 147.086 24.7647 147.287 25.0662H147.362V24.2622H148.656V30.3303C148.656 31.0255 148.518 31.6159 148.242 32.1017C147.974 32.5875 147.601 32.956 147.124 33.2073C146.646 33.4585 146.094 33.5842 145.465 33.5842ZM145.478 29.5011C145.813 29.5011 146.122 29.4215 146.408 29.2624C146.692 29.0949 146.923 28.8561 147.099 28.5463C147.275 28.228 147.362 27.8469 147.362 27.403C147.362 26.9424 147.275 26.5571 147.099 26.2472C146.923 25.9289 146.692 25.6902 146.408 25.5311C146.122 25.372 145.813 25.2924 145.478 25.2924C145.142 25.2924 144.828 25.3761 144.536 25.5436C144.25 25.7027 144.021 25.9373 143.845 26.2472C143.669 26.5571 143.581 26.9424 143.581 27.403C143.581 27.8553 143.669 28.2405 143.845 28.5588C144.021 28.8687 144.25 29.1033 144.536 29.2624C144.828 29.4215 145.142 29.5011 145.478 29.5011ZM150.256 30.6695V21.6741H151.613V30.6695H150.256ZM156.078 30.8705C155.45 30.8705 154.889 30.7239 154.395 30.4308C153.901 30.1376 153.511 29.7356 153.227 29.2247C152.95 28.7138 152.812 28.1317 152.812 27.4784C152.812 26.867 152.946 26.3016 153.214 25.7823C153.482 25.263 153.855 24.8484 154.332 24.5386C154.818 24.2203 155.375 24.0612 156.003 24.0612C156.665 24.0612 157.226 24.2036 157.687 24.4883C158.156 24.7731 158.511 25.1625 158.754 25.6567C158.998 26.1509 159.119 26.7078 159.119 27.3276C159.119 27.4198 159.114 27.5035 159.106 27.5789C159.106 27.6543 159.102 27.7129 159.094 27.7548H154.144C154.211 28.3913 154.433 28.8687 154.81 29.187C155.195 29.5053 155.631 29.6644 156.116 29.6644C156.551 29.6644 156.912 29.5681 157.197 29.3755C157.481 29.1744 157.707 28.9274 157.875 28.6342L158.993 29.1744C158.717 29.677 158.34 30.0874 157.862 30.4057C157.385 30.7155 156.79 30.8705 156.078 30.8705ZM156.016 25.217C155.563 25.217 155.178 25.3552 154.86 25.6316C154.541 25.908 154.328 26.2765 154.219 26.7372H157.775C157.758 26.5194 157.687 26.2932 157.561 26.0587C157.435 25.8242 157.242 25.6274 156.983 25.4683C156.732 25.3007 156.41 25.217 156.016 25.217Z" fill="white"/>
<path d="M153.348 0.369141H20.3247C9.30461 0.369141 0.371094 9.30266 0.371094 20.3227C0.371094 31.3428 9.30461 40.2763 20.3247 40.2763H153.348C164.369 40.2763 173.302 31.3428 173.302 20.3227C173.302 9.30266 164.369 0.369141 153.348 0.369141Z" stroke="#747775"/>
</g>
<defs>
<linearGradient id="paint0_linear_568_186" x1="27.554" y1="25.1597" x2="13.8806" y2="41.1801" gradientUnits="userSpaceOnUse">
<stop stop-color="#4285F4"/>
<stop offset="1" stop-color="#1B74E8"/>
</linearGradient>
<clipPath id="clip0_568_186">
<rect width="173.67" height="40.6462" fill="white"/>
</clipPath>
</defs>
</svg>
