<svg width="174" height="48" viewBox="0 0 174 48" fill="none" xmlns="http://www.w3.org/2000/svg">
<g clip-path="url(#clip0_568_313)">
<path d="M149.672 0.436523H24.0008C10.9871 0.436523 0.4375 10.9862 0.4375 23.9998C0.4375 37.0134 10.9871 47.563 24.0008 47.563H149.672C162.685 47.563 173.235 37.0134 173.235 23.9998C173.235 10.9862 162.685 0.436523 149.672 0.436523Z" fill="#1F1F1F"/>
<path d="M49.7458 20.7629H18.3281V15.8361C18.3281 13.1615 20.634 10.9092 23.3722 10.9092H44.7017C47.4399 10.9092 49.7458 13.1615 49.7458 15.8361V20.7629Z" fill="#34A853"/>
<path d="M49.7458 25.3085H18.3281V20.0722C18.3281 17.2297 20.634 14.8359 23.3722 14.8359H44.7017C47.4399 14.8359 49.7458 17.2297 49.7458 20.0722V25.3085Z" fill="#FBBC04"/>
<path d="M49.7458 29.6718H18.3281V24.4355C18.3281 21.593 20.634 19.1992 23.3722 19.1992H44.7017C47.4399 19.1992 49.7458 21.593 49.7458 24.4355V29.6718Z" fill="#EA4335"/>
<path d="M18.3281 22.0276L38.269 26.5322C40.5644 27.0953 43.1467 26.5322 45.0116 25.1245L49.7458 21.7461V32.3037C49.7458 34.9783 47.4505 37.0898 44.7247 37.0898H23.3492C20.6234 37.0898 18.3281 34.9783 18.3281 32.3037V22.0276Z" fill="url(#paint0_linear_568_313)"/>
<path d="M61.1367 18.7634V10.6402H62.3847V17.5835H65.879V18.7634H61.1367ZM67.652 12.1265C67.4251 12.1265 67.2284 12.047 67.0621 11.8882C66.9033 11.7218 66.8238 11.5252 66.8238 11.2982C66.8238 11.0713 66.9033 10.8785 67.0621 10.7196C67.2284 10.5608 67.4251 10.4814 67.652 10.4814C67.879 10.4814 68.0718 10.5608 68.2307 10.7196C68.397 10.8785 68.4803 11.0713 68.4803 11.2982C68.4803 11.5252 68.397 11.7218 68.2307 11.8882C68.0718 12.047 67.879 12.1265 67.652 12.1265ZM67.0394 18.7634V12.9773H68.2647V18.7634H67.0394ZM71.8952 18.945C71.1993 18.945 70.6434 18.7937 70.2274 18.4912C69.8114 18.1811 69.524 17.8142 69.3652 17.3907L70.4657 16.9142C70.6018 17.2242 70.7984 17.4625 71.0556 17.6289C71.3127 17.7877 71.604 17.8672 71.9292 17.8672C72.2317 17.8672 72.4926 17.8142 72.712 17.7083C72.9314 17.5949 73.0411 17.4133 73.0411 17.1638C73.0411 16.9218 72.9314 16.744 72.712 16.6305C72.4926 16.5171 72.2204 16.4187 71.8952 16.3355L71.2031 16.1767C70.9232 16.1086 70.6623 16.0028 70.4203 15.859C70.1782 15.7153 69.9816 15.53 69.8303 15.3031C69.679 15.0686 69.6034 14.7963 69.6034 14.4863C69.6034 14.1459 69.7055 13.8509 69.9098 13.6013C70.114 13.3441 70.3824 13.1475 70.7153 13.0114C71.0556 12.8676 71.4224 12.7958 71.8158 12.7958C72.3527 12.7958 72.8217 12.9017 73.2226 13.1135C73.631 13.3177 73.9297 13.6278 74.1189 14.0438L73.0637 14.5203C72.9276 14.2631 72.7498 14.0854 72.5305 13.9871C72.3187 13.8812 72.0842 13.8282 71.8271 13.8282C71.5396 13.8282 71.2976 13.8887 71.101 14.0098C70.9119 14.1308 70.8174 14.2821 70.8174 14.4636C70.8174 14.6602 70.9006 14.8153 71.067 14.9287C71.2409 15.0422 71.4527 15.1329 71.7023 15.201L72.5419 15.4052C73.1166 15.549 73.5478 15.7683 73.8352 16.0633C74.1226 16.3506 74.2663 16.7024 74.2663 17.1184C74.2663 17.489 74.1604 17.8142 73.9487 18.0941C73.7369 18.3664 73.4495 18.5782 73.0864 18.7294C72.7309 18.8731 72.3338 18.945 71.8952 18.945ZM77.2063 18.945C76.7903 18.945 76.4197 18.8655 76.0945 18.7067C75.7692 18.5403 75.5159 18.3096 75.3344 18.0146C75.1528 17.7197 75.0621 17.3831 75.0621 17.0049C75.0621 16.5965 75.1679 16.2485 75.3797 15.9612C75.5991 15.6662 75.8903 15.443 76.2533 15.2918C76.6164 15.1405 77.0172 15.0649 77.4559 15.0649C77.819 15.0649 78.1367 15.0989 78.4089 15.167C78.6887 15.2351 78.9005 15.3069 79.0443 15.3825V15.0762C79.0443 14.6981 78.9081 14.3955 78.6358 14.1686C78.3636 13.9417 78.0119 13.8282 77.5807 13.8282C77.2858 13.8282 77.0059 13.8963 76.7412 14.0325C76.4764 14.161 76.2647 14.3388 76.1058 14.5657L75.2663 13.919C75.5159 13.5711 75.8449 13.2988 76.2533 13.1021C76.6693 12.8979 77.1231 12.7958 77.6148 12.7958C78.4543 12.7958 79.101 13.0038 79.5548 13.4198C80.0086 13.8282 80.2355 14.4031 80.2355 15.1443V18.7634H79.0443V18.0487H78.9762C78.8249 18.2832 78.598 18.4912 78.2955 18.6727C77.9929 18.8542 77.6299 18.945 77.2063 18.945ZM77.4219 17.9466C77.7396 17.9466 78.0194 17.8709 78.2615 17.7197C78.5035 17.5684 78.6926 17.3717 78.8287 17.1297C78.9724 16.8801 79.0443 16.6116 79.0443 16.3242C78.8703 16.2258 78.666 16.1464 78.4316 16.086C78.1971 16.0179 77.9475 15.9838 77.6828 15.9838C77.1836 15.9838 76.8281 16.086 76.6164 16.2902C76.4046 16.4868 76.2987 16.7289 76.2987 17.0163C76.2987 17.2886 76.4008 17.5117 76.605 17.6856C76.8093 17.8596 77.0815 17.9466 77.4219 17.9466ZM78.6699 11.7974C78.4808 11.7974 78.3143 11.7294 78.1707 11.5932C78.0345 11.4495 77.9665 11.2793 77.9665 11.0827C77.9665 10.8861 78.0345 10.7234 78.1707 10.5948C78.3143 10.4587 78.4808 10.3906 78.6699 10.3906C78.8741 10.3906 79.0443 10.4587 79.1804 10.5948C79.3166 10.7234 79.3846 10.8861 79.3846 11.0827C79.3846 11.2793 79.3166 11.4495 79.1804 11.5932C79.0443 11.7294 78.8741 11.7974 78.6699 11.7974ZM76.6618 11.7974C76.4726 11.7974 76.3062 11.7294 76.1626 11.5932C76.0264 11.4495 75.9584 11.2793 75.9584 11.0827C75.9584 10.8861 76.0264 10.7234 76.1626 10.5948C76.3062 10.4587 76.4726 10.3906 76.6618 10.3906C76.866 10.3906 77.0323 10.4587 77.161 10.5948C77.2971 10.7234 77.3652 10.8861 77.3652 11.0827C77.3652 11.2793 77.2971 11.4495 77.161 11.5932C77.0323 11.7294 76.866 11.7974 76.6618 11.7974ZM83.3443 18.945C82.9283 18.945 82.5577 18.8655 82.2325 18.7067C81.9072 18.5403 81.6539 18.3096 81.4723 18.0146C81.2908 17.7197 81.2001 17.3831 81.2001 17.0049C81.2001 16.5965 81.3059 16.2485 81.5177 15.9612C81.737 15.6662 82.0283 15.443 82.3913 15.2918C82.7544 15.1405 83.1552 15.0649 83.5939 15.0649C83.957 15.0649 84.2746 15.0989 84.5469 15.167C84.8268 15.2351 85.0385 15.3069 85.1822 15.3825V15.0762C85.1822 14.6981 85.0461 14.3955 84.7738 14.1686C84.5015 13.9417 84.1498 13.8282 83.7187 13.8282C83.4237 13.8282 83.1438 13.8963 82.8792 14.0325C82.6145 14.161 82.4027 14.3388 82.2438 14.5657L81.4043 13.919C81.6539 13.5711 81.9829 13.2988 82.3913 13.1021C82.8073 12.8979 83.2611 12.7958 83.7527 12.7958C84.5923 12.7958 85.239 13.0038 85.6928 13.4198C86.1466 13.8282 86.3735 14.4031 86.3735 15.1443V18.7634H85.1822V18.0487H85.1142C84.9629 18.2832 84.736 18.4912 84.4335 18.6727C84.1309 18.8542 83.7678 18.945 83.3443 18.945ZM83.5599 17.9466C83.8775 17.9466 84.1574 17.8709 84.3994 17.7197C84.6414 17.5684 84.8305 17.3717 84.9667 17.1297C85.1104 16.8801 85.1822 16.6116 85.1822 16.3242C85.0083 16.2258 84.8041 16.1464 84.5696 16.086C84.3351 16.0179 84.0855 15.9838 83.8208 15.9838C83.3216 15.9838 82.9662 16.086 82.7544 16.2902C82.5425 16.4868 82.4367 16.7289 82.4367 17.0163C82.4367 17.2886 82.5388 17.5117 82.743 17.6856C82.9472 17.8596 83.2195 17.9466 83.5599 17.9466ZM84.8078 11.7974C84.6187 11.7974 84.4524 11.7294 84.3087 11.5932C84.1725 11.4495 84.1044 11.2793 84.1044 11.0827C84.1044 10.8861 84.1725 10.7234 84.3087 10.5948C84.4524 10.4587 84.6187 10.3906 84.8078 10.3906C85.0121 10.3906 85.1822 10.4587 85.3184 10.5948C85.4545 10.7234 85.5226 10.8861 85.5226 11.0827C85.5226 11.2793 85.4545 11.4495 85.3184 11.5932C85.1822 11.7294 85.0121 11.7974 84.8078 11.7974ZM82.7997 11.7974C82.6106 11.7974 82.4443 11.7294 82.3005 11.5932C82.1644 11.4495 82.0963 11.2793 82.0963 11.0827C82.0963 10.8861 82.1644 10.7234 82.3005 10.5948C82.4443 10.4587 82.6106 10.3906 82.7997 10.3906C83.004 10.3906 83.1704 10.4587 83.2989 10.5948C83.4351 10.7234 83.5031 10.8861 83.5031 11.0827C83.5031 11.2793 83.4351 11.4495 83.2989 11.5932C83.1704 11.7294 83.004 11.7974 82.7997 11.7974ZM90.3587 21.214V12.9773H91.5045V13.7602H91.5726C91.7245 13.5106 91.9583 13.2874 92.276 13.0908C92.6015 12.8942 92.9873 12.7958 93.4332 12.7958C93.963 12.7958 94.436 12.9282 94.8514 13.1929C95.2677 13.4576 95.5967 13.8207 95.8384 14.2821C96.088 14.7435 96.2128 15.2728 96.2128 15.8704C96.2128 16.4679 96.088 17.0012 95.8384 17.4701C95.5967 17.9315 95.2677 18.2945 94.8514 18.5592C94.436 18.8164 93.963 18.945 93.4332 18.945C92.9873 18.945 92.6015 18.8504 92.276 18.6613C91.9583 18.4647 91.7245 18.2416 91.5726 17.992H91.5045L91.5726 18.7975V21.214H90.3587ZM93.2517 17.8218C93.5545 17.8218 93.8382 17.7424 94.1026 17.5835C94.3679 17.4247 94.5835 17.2015 94.7493 16.9142C94.916 16.6192 94.9989 16.2712 94.9989 15.8704C94.9989 15.4696 94.916 15.1254 94.7493 14.838C94.5835 14.543 94.3679 14.3161 94.1026 14.1573C93.8382 13.9984 93.5545 13.919 93.2517 13.919C92.9497 13.919 92.6661 13.9984 92.4008 14.1573C92.1364 14.3161 91.9208 14.543 91.7541 14.838C91.5883 15.1254 91.5045 15.4696 91.5045 15.8704C91.5045 16.2712 91.5883 16.6192 91.7541 16.9142C91.9208 17.2015 92.1364 17.4247 92.4008 17.5835C92.6661 17.7424 92.9497 17.8218 93.2517 17.8218ZM99.1547 18.945C98.7384 18.945 98.3676 18.8655 98.0429 18.7067C97.7174 18.5403 97.4643 18.3096 97.2828 18.0146C97.1012 17.7197 97.0105 17.3831 97.0105 17.0049C97.0105 16.5965 97.1161 16.2485 97.3281 15.9612C97.5472 15.6662 97.8387 15.443 98.2017 15.2918C98.5648 15.1405 98.9654 15.0649 99.4043 15.0649C99.7674 15.0649 100.085 15.0989 100.357 15.167C100.637 15.2351 100.849 15.3069 100.993 15.3825V15.0762C100.993 14.6981 100.857 14.3955 100.584 14.1686C100.312 13.9417 99.9602 13.8282 99.5291 13.8282C99.2342 13.8282 98.954 13.8963 98.6896 14.0325C98.4243 14.161 98.2131 14.3388 98.0542 14.5657L97.2147 13.919C97.4643 13.5711 97.7933 13.2988 98.2017 13.1021C98.6171 12.8979 99.071 12.7958 99.5632 12.7958C100.403 12.7958 101.049 13.0038 101.503 13.4198C101.957 13.8282 102.184 14.4031 102.184 15.1443V18.7634H100.993V18.0487H100.925C100.773 18.2832 100.546 18.4912 100.244 18.6727C99.941 18.8542 99.578 18.945 99.1547 18.945ZM99.3703 17.9466C99.688 17.9466 99.9672 17.8709 100.21 17.7197C100.452 17.5684 100.641 17.3717 100.777 17.1297C100.92 16.8801 100.993 16.6116 100.993 16.3242C100.818 16.2258 100.614 16.1464 100.38 16.086C100.145 16.0179 99.8957 15.9838 99.6312 15.9838C99.132 15.9838 98.776 16.086 98.5648 16.2902C98.3527 16.4868 98.2471 16.7289 98.2471 17.0163C98.2471 17.2886 98.3492 17.5117 98.5534 17.6856C98.7577 17.8596 99.0299 17.9466 99.3703 17.9466ZM103.544 18.7634V10.6402H104.769V18.7634H103.544ZM107.973 18.7634L105.579 12.9773H106.94L108.563 17.1864H108.619L110.276 12.9773H111.614L109.198 18.7634H107.973ZM114.885 18.945C114.317 18.945 113.81 18.8126 113.364 18.5479C112.918 18.2832 112.567 17.9201 112.309 17.4587C112.06 16.9973 111.935 16.4717 111.935 15.8817C111.935 15.3296 112.056 14.819 112.298 14.3501C112.54 13.8812 112.876 13.5068 113.308 13.2269C113.746 12.9396 114.249 12.7958 114.816 12.7958C115.414 12.7958 115.92 12.9244 116.337 13.1816C116.76 13.4388 117.082 13.7905 117.301 14.2367C117.52 14.6829 117.63 15.1859 117.63 15.7456C117.63 15.8288 117.627 15.9044 117.619 15.9725C117.619 16.0406 117.615 16.0935 117.607 16.1313H113.137C113.198 16.7062 113.398 17.1373 113.739 17.4247C114.087 17.7121 114.48 17.8558 114.919 17.8558C115.312 17.8558 115.637 17.7688 115.894 17.5949C116.152 17.4133 116.356 17.1902 116.507 16.9255L117.517 17.4133C117.267 17.8672 116.927 18.2378 116.496 18.5252C116.064 18.8051 115.528 18.945 114.885 18.945ZM114.828 13.8396C114.419 13.8396 114.071 13.9644 113.784 14.214C113.497 14.4636 113.304 14.7963 113.205 15.2124H116.416C116.401 15.0157 116.337 14.8115 116.223 14.5997C116.11 14.3879 115.936 14.2102 115.701 14.0665C115.474 13.9153 115.183 13.8396 114.828 13.8396ZM118.779 18.7634V10.6402H120.004V18.7634H118.779ZM123.547 18.945C122.836 18.945 122.299 18.7332 121.936 18.3096C121.58 17.8785 121.403 17.2961 121.403 16.5625V12.9773H122.628V16.3923C122.628 16.8839 122.742 17.2469 122.968 17.4814C123.202 17.7083 123.494 17.8218 123.842 17.8218C124.152 17.8218 124.421 17.7424 124.648 17.5835C124.881 17.4171 125.059 17.2054 125.181 16.9482C125.309 16.6835 125.374 16.396 125.374 16.086V12.9773H126.588V18.7634H125.442V17.9806H125.374C125.207 18.2529 124.957 18.4836 124.625 18.6727C124.299 18.8542 123.94 18.945 123.547 18.945ZM130.128 18.945C129.417 18.945 128.88 18.7332 128.517 18.3096C128.161 17.8785 127.984 17.2961 127.984 16.5625V12.9773H129.209V16.3923C129.209 16.8839 129.323 17.2469 129.55 17.4814C129.783 17.7083 130.075 17.8218 130.423 17.8218C130.733 17.8218 131.002 17.7424 131.229 17.5835C131.463 17.4171 131.641 17.2054 131.762 16.9482C131.89 16.6835 131.955 16.396 131.955 16.086V12.9773H133.169V18.7634H132.023V17.9806H131.955C131.788 18.2529 131.539 18.4836 131.206 18.6727C130.88 18.8542 130.521 18.945 130.128 18.945ZM134.61 18.7634V12.9773H135.768V13.7715H135.836C136.002 13.4916 136.248 13.261 136.573 13.0795C136.906 12.8903 137.269 12.7958 137.662 12.7958C138.373 12.7958 138.906 13.0076 139.262 13.4312C139.617 13.8547 139.795 14.4144 139.795 15.1103V18.7634H138.581V15.2691C138.581 14.8002 138.463 14.4598 138.23 14.248C137.995 14.0287 137.689 13.919 137.311 13.919C137.016 13.919 136.758 14.0022 136.539 14.1686C136.319 14.3274 136.146 14.5392 136.017 14.8039C135.896 15.0686 135.836 15.3523 135.836 15.6548V18.7634H134.61Z" fill="white"/>
<path d="M66.4503 36.4548C65.6887 36.4548 64.9716 36.3163 64.299 36.0394C63.6364 35.7625 63.0478 35.3768 62.5335 34.8822C62.0192 34.3778 61.6137 33.7893 61.317 33.1167C61.0301 32.4343 60.8867 31.6974 60.8867 30.9061C60.8867 30.1148 61.0301 29.383 61.317 28.7104C61.6137 28.0279 62.0143 27.4395 62.5187 26.9449C63.033 26.4405 63.6264 26.0497 64.299 25.7728C64.9716 25.4959 65.6887 25.3574 66.4503 25.3574C67.2613 25.3574 68.0081 25.5008 68.6905 25.7877C69.3828 26.0745 69.9615 26.4751 70.4264 26.9894L69.2988 28.1021C68.9526 27.7164 68.5372 27.4196 68.0526 27.2119C67.5778 27.0042 67.0437 26.9004 66.4503 26.9004C65.748 26.9004 65.1002 27.0686 64.5067 27.4048C63.9133 27.7312 63.4336 28.1961 63.0676 28.7994C62.7116 29.3928 62.5335 30.0951 62.5335 30.9061C62.5335 31.7171 62.7165 32.4244 63.0825 33.0277C63.4484 33.6211 63.9281 34.086 64.5216 34.4223C65.115 34.7487 65.7628 34.9119 66.4651 34.9119C67.108 34.9119 67.6915 34.7932 68.2158 34.5558C68.74 34.3086 69.1603 33.9624 69.4768 33.5173C69.8032 33.0722 70.0011 32.5381 70.0703 31.915H66.4354V30.4759H71.5984C71.6578 30.7429 71.6874 31.0248 71.6874 31.3215V31.3364C71.6874 32.3651 71.4599 33.2651 71.005 34.0366C70.5599 34.7982 69.9417 35.3916 69.1504 35.8169C68.3592 36.2422 67.4591 36.4548 66.4503 36.4548ZM76.4646 36.4548C75.6831 36.4548 74.9958 36.2768 74.4023 35.9207C73.8089 35.5647 73.344 35.0849 73.0078 34.4816C72.6714 33.8783 72.5033 33.1959 72.5033 32.4343C72.5033 31.6826 72.6714 31.005 73.0078 30.4017C73.344 29.7884 73.8089 29.3038 74.4023 28.9478C74.9958 28.5917 75.6831 28.4137 76.4646 28.4137C77.236 28.4137 77.9185 28.5917 78.512 28.9478C79.1054 29.3038 79.5702 29.7884 79.9066 30.4017C80.2428 31.005 80.411 31.6826 80.411 32.4343C80.411 33.1959 80.2428 33.8783 79.9066 34.4816C79.5702 35.0849 79.1054 35.5647 78.512 35.9207C77.9185 36.2768 77.236 36.4548 76.4646 36.4548ZM76.4646 34.9861C76.88 34.9861 77.2657 34.8872 77.6218 34.6893C77.9779 34.4816 78.2646 34.1899 78.4823 33.814C78.7097 33.4283 78.8235 32.9684 78.8235 32.4343C78.8235 31.9002 78.7097 31.4452 78.4823 31.0693C78.2646 30.6836 77.9779 30.3918 77.6218 30.194C77.2657 29.9863 76.88 29.8824 76.4646 29.8824C76.0492 29.8824 75.6584 29.9863 75.2925 30.194C74.9364 30.3918 74.6446 30.6836 74.4172 31.0693C74.1995 31.4452 74.0908 31.9002 74.0908 32.4343C74.0908 32.9684 74.1995 33.4283 74.4172 33.814C74.6446 34.1899 74.9364 34.4816 75.2925 34.6893C75.6584 34.8872 76.0492 34.9861 76.4646 34.9861ZM85.4473 36.4548C84.666 36.4548 83.9785 36.2768 83.3851 35.9207C82.7917 35.5647 82.3268 35.0849 81.9905 34.4816C81.6542 33.8783 81.4861 33.1959 81.4861 32.4343C81.4861 31.6826 81.6542 31.005 81.9905 30.4017C82.3268 29.7884 82.7917 29.3038 83.3851 28.9478C83.9785 28.5917 84.666 28.4137 85.4473 28.4137C86.2188 28.4137 86.9013 28.5917 87.4949 28.9478C88.0883 29.3038 88.5535 29.7884 88.8895 30.4017C89.2255 31.005 89.3939 31.6826 89.3939 32.4343C89.3939 33.1959 89.2255 33.8783 88.8895 34.4816C88.5535 35.0849 88.0883 35.5647 87.4949 35.9207C86.9013 36.2768 86.2188 36.4548 85.4473 36.4548ZM85.4473 34.9861C85.8627 34.9861 86.2485 34.8872 86.6045 34.6893C86.9606 34.4816 87.2475 34.1899 87.4652 33.814C87.693 33.4283 87.8064 32.9684 87.8064 32.4343C87.8064 31.9002 87.693 31.4452 87.4652 31.0693C87.2475 30.6836 86.9606 30.3918 86.6045 30.194C86.2485 29.9863 85.8627 29.8824 85.4473 29.8824C85.0319 29.8824 84.6413 29.9863 84.2753 30.194C83.9192 30.3918 83.6275 30.6836 83.3999 31.0693C83.1824 31.4452 83.0735 31.9002 83.0735 32.4343C83.0735 32.9684 83.1824 33.4283 83.3999 33.814C83.6275 34.1899 83.9192 34.4816 84.2753 34.6893C84.6413 34.8872 85.0319 34.9861 85.4473 34.9861ZM94.282 39.6595C93.6187 39.6595 93.0453 39.5506 92.561 39.3331C92.0862 39.1253 91.7005 38.8533 91.4038 38.5171C91.107 38.1907 90.8941 37.8544 90.7658 37.5082L92.2494 36.8851C92.4074 37.2807 92.6596 37.6022 93.0061 37.8494C93.3621 38.1066 93.7871 38.2352 94.282 38.2352C94.974 38.2352 95.5177 38.0275 95.914 37.6121C96.3189 37.1967 96.5222 36.6082 96.5222 35.8466V35.1196H96.4332C96.1958 35.4757 95.8642 35.7625 95.4392 35.9801C95.0238 36.1878 94.549 36.2916 94.0149 36.2916C93.3717 36.2916 92.7835 36.1284 92.2494 35.8021C91.7153 35.4757 91.2851 35.0207 90.9587 34.4371C90.6323 33.8437 90.4691 33.1514 90.4691 32.3601C90.4691 31.5589 90.6323 30.8666 90.9587 30.283C91.2851 29.6896 91.7153 29.2297 92.2494 28.9033C92.7835 28.5769 93.3717 28.4137 94.0149 28.4137C94.549 28.4137 95.0238 28.5225 95.4392 28.7401C95.8642 28.9576 96.1958 29.2445 96.4332 29.6006H96.5222V28.651H98.0504V35.8169C98.0504 36.6379 97.8872 37.3352 97.5608 37.9088C97.244 38.4824 96.8041 38.9176 96.2403 39.2144C95.6766 39.5111 95.0238 39.6595 94.282 39.6595ZM94.2968 34.8377C94.6921 34.8377 95.0578 34.7437 95.3947 34.5558C95.7307 34.358 96.003 34.0761 96.2107 33.7102C96.4184 33.3343 96.5222 32.8843 96.5222 32.3601C96.5222 31.8161 96.4184 31.3611 96.2107 30.9951C96.003 30.6193 95.7307 30.3374 95.3947 30.1495C95.0578 29.9616 94.6921 29.8676 94.2968 29.8676C93.9006 29.8676 93.5297 29.9665 93.1841 30.1643C92.8472 30.3522 92.5758 30.6292 92.3681 30.9951C92.1604 31.3611 92.0566 31.8161 92.0566 32.3601C92.0566 32.8942 92.1604 33.3491 92.3681 33.725C92.5758 34.0909 92.8472 34.3679 93.1841 34.5558C93.5297 34.7437 93.9006 34.8377 94.2968 34.8377ZM99.9398 36.2175V25.5948H101.542V36.2175H99.9398ZM106.815 36.4548C106.073 36.4548 105.411 36.2818 104.827 35.9356C104.244 35.5894 103.784 35.1146 103.447 34.5113C103.121 33.908 102.958 33.2206 102.958 32.4491C102.958 31.7271 103.116 31.0595 103.432 30.4462C103.749 29.833 104.189 29.3434 104.753 28.9774C105.327 28.6016 105.984 28.4137 106.726 28.4137C107.508 28.4137 108.17 28.5818 108.714 28.9181C109.268 29.2544 109.689 29.7143 109.975 30.2979C110.262 30.8814 110.405 31.5391 110.405 32.2711C110.405 32.3799 110.401 32.4788 110.391 32.5678C110.391 32.6568 110.386 32.726 110.376 32.7755H104.53C104.61 33.5272 104.871 34.0909 105.317 34.4668C105.772 34.8427 106.286 35.0306 106.86 35.0306C107.374 35.0306 107.799 34.9169 108.135 34.6893C108.472 34.452 108.739 34.1602 108.937 33.814L110.257 34.452C109.931 35.0454 109.486 35.53 108.922 35.9059C108.358 36.2718 107.656 36.4548 106.815 36.4548ZM106.741 29.7786C106.207 29.7786 105.752 29.9418 105.376 30.2682C105.001 30.5946 104.748 31.0298 104.619 31.5738H108.818C108.799 31.3166 108.714 31.0495 108.566 30.7726C108.417 30.4957 108.19 30.2632 107.883 30.0753C107.586 29.8775 107.206 29.7786 106.741 29.7786ZM116.927 36.2175L114.079 25.5948H115.889L117.58 32.4936L117.758 33.4134H117.847L118.07 32.4936L120.206 25.5948H121.838L123.885 32.4936L124.108 33.3986H124.197L124.375 32.4936L126.066 25.5948H127.861L125.057 36.2175H123.336L121.304 29.1703L121.066 28.1763H120.977L120.725 29.1703L118.604 36.2175H116.927ZM130.841 36.4548C130.297 36.4548 129.812 36.351 129.387 36.1433C128.962 35.9257 128.63 35.624 128.393 35.2383C128.155 34.8525 128.037 34.4124 128.037 33.9179C128.037 33.3838 128.176 32.9288 128.452 32.5529C128.739 32.1672 129.12 31.8755 129.595 31.6776C130.069 31.4798 130.594 31.3809 131.167 31.3809C131.642 31.3809 132.057 31.4254 132.413 31.5144C132.779 31.6034 133.057 31.6974 133.244 31.7963V31.3957C133.244 30.9012 133.066 30.5056 132.71 30.2088C132.354 29.9121 131.894 29.7638 131.33 29.7638C130.945 29.7638 130.579 29.8528 130.233 30.0308C129.886 30.199 129.609 30.4314 129.402 30.7281L128.304 29.8824C128.63 29.4275 129.06 29.0714 129.595 28.8142C130.138 28.5472 130.732 28.4137 131.375 28.4137C132.473 28.4137 133.318 28.6857 133.912 29.2297C134.505 29.7638 134.802 30.5154 134.802 31.4847V36.2175H133.244V35.2828H133.155C132.957 35.5894 132.66 35.8614 132.265 36.0988C131.87 36.3362 131.395 36.4548 130.841 36.4548ZM131.123 35.1493C131.538 35.1493 131.904 35.0504 132.221 34.8525C132.537 34.6547 132.784 34.3976 132.962 34.0811C133.15 33.7547 133.244 33.4036 133.244 33.0277C133.016 32.8992 132.749 32.7953 132.443 32.7161C132.137 32.6271 131.81 32.5826 131.464 32.5826C130.811 32.5826 130.346 32.7161 130.069 32.9832C129.793 33.2404 129.654 33.5568 129.654 33.9327C129.654 34.2888 129.787 34.5805 130.055 34.808C130.322 35.0356 130.678 35.1493 131.123 35.1493ZM136.581 36.2175V25.5948H138.183V36.2175H136.581ZM140.087 36.2175V25.5948H141.69V36.2175H140.087ZM146.962 36.4548C146.221 36.4548 145.558 36.2818 144.974 35.9356C144.391 35.5894 143.932 35.1146 143.595 34.5113C143.268 33.908 143.105 33.2206 143.105 32.4491C143.105 31.7271 143.264 31.0595 143.58 30.4462C143.897 29.833 144.336 29.3434 144.9 28.9774C145.474 28.6016 146.132 28.4137 146.873 28.4137C147.655 28.4137 148.318 28.5818 148.861 28.9181C149.416 29.2544 149.836 29.7143 150.123 30.2979C150.41 30.8814 150.553 31.5391 150.553 32.2711C150.553 32.3799 150.548 32.4788 150.538 32.5678C150.538 32.6568 150.534 32.726 150.523 32.7755H144.678C144.757 33.5272 145.019 34.0909 145.464 34.4668C145.92 34.8427 146.434 35.0306 147.007 35.0306C147.522 35.0306 147.947 34.9169 148.283 34.6893C148.62 34.452 148.887 34.1602 149.084 33.814L150.404 34.452C150.078 35.0454 149.633 35.53 149.069 35.9059C148.505 36.2718 147.804 36.4548 146.962 36.4548ZM146.888 29.7786C146.354 29.7786 145.899 29.9418 145.523 30.2682C145.148 30.5946 144.896 31.0298 144.767 31.5738H148.965C148.946 31.3166 148.861 31.0495 148.713 30.7726C148.565 30.4957 148.338 30.2632 148.031 30.0753C147.734 29.8775 147.353 29.7786 146.888 29.7786ZM152.624 34.0217V30.0456H151.303V28.651H152.624V26.5146H154.226V28.651H156.081V30.0456H154.226V33.6805C154.226 34.0564 154.3 34.3431 154.449 34.541C154.607 34.7388 154.868 34.8377 155.235 34.8377C155.423 34.8377 155.581 34.813 155.71 34.7635C155.848 34.714 155.986 34.6448 156.125 34.5558V36.1136C155.957 36.1828 155.779 36.2373 155.591 36.2768C155.402 36.3163 155.18 36.3362 154.923 36.3362C154.221 36.3362 153.662 36.1334 153.247 35.7279C152.831 35.3125 152.624 34.7437 152.624 34.0217Z" fill="white"/>
<path d="M149.672 0.436523H24.0008C10.9871 0.436523 0.4375 10.9862 0.4375 23.9998C0.4375 37.0134 10.9871 47.563 24.0008 47.563H149.672C162.685 47.563 173.235 37.0134 173.235 23.9998C173.235 10.9862 162.685 0.436523 149.672 0.436523Z" stroke="#747775"/>
</g>
<defs>
<linearGradient id="paint0_linear_568_313" x1="32.5397" y1="29.7109" x2="16.3927" y2="48.6295" gradientUnits="userSpaceOnUse">
<stop stop-color="#4285F4"/>
<stop offset="1" stop-color="#1B74E8"/>
</linearGradient>
<clipPath id="clip0_568_313">
<rect width="173.67" height="47.9992" fill="white"/>
</clipPath>
</defs>
</svg>
