<svg width="174" height="27" viewBox="0 0 174 27" fill="none" xmlns="http://www.w3.org/2000/svg">
<g clip-path="url(#clip0_568_340)">
<path d="M160.186 0.269531H13.4836C6.18565 0.269531 0.269531 6.18565 0.269531 13.4836C0.269531 20.7815 6.18565 26.6976 13.4836 26.6976H160.186C167.484 26.6976 173.4 20.7815 173.4 13.4836C173.4 6.18565 167.484 0.269531 160.186 0.269531Z" fill="#1F1F1F"/>
<path d="M27.5086 11.8661H11.3281V9.1694C11.3281 7.70544 12.5157 6.47266 13.9259 6.47266H24.9108C26.321 6.47266 27.5086 7.70544 27.5086 9.1694V11.8661Z" fill="#34A853"/>
<path d="M27.5086 14.0517H11.3281V11.3549C11.3281 9.89099 12.5157 8.6582 13.9259 8.6582H24.9108C26.321 8.6582 27.5086 9.89099 27.5086 11.3549V14.0517Z" fill="#FBBC04"/>
<path d="M27.5086 16.3134H11.3281V13.6167C11.3281 12.1527 12.5157 10.9199 13.9259 10.9199H24.9108C26.321 10.9199 27.5086 12.1527 27.5086 13.6167V16.3134Z" fill="#EA4335"/>
<path d="M11.3281 12.5537L21.5979 14.9288C22.78 15.2257 24.1099 14.9288 25.0704 14.1866L27.5086 12.4053V17.9719C27.5086 19.3822 26.3264 20.4955 24.9227 20.4955H13.914C12.5103 20.4955 11.3281 19.3822 11.3281 17.9719V12.5537Z" fill="url(#paint0_linear_568_340)"/>
<path d="M34.8516 17.2596V9.53613H36.0381V17.2596H34.8516ZM39.8426 17.4322C39.3464 17.4322 38.897 17.3099 38.4943 17.0654C38.0988 16.8137 37.7823 16.4685 37.545 16.0299C37.3149 15.584 37.1998 15.077 37.1998 14.5089C37.1998 13.9408 37.3149 13.4374 37.545 12.9987C37.7823 12.5601 38.0988 12.2149 38.4943 11.9632C38.897 11.7115 39.3464 11.5857 39.8426 11.5857C40.2669 11.5857 40.6301 11.6791 40.9321 11.8661C41.2413 12.0531 41.4678 12.2652 41.6117 12.5025H41.6764L41.6117 11.7367V9.53613H42.7659V17.2596H41.6764V16.5261H41.6117C41.4678 16.7634 41.2413 16.9755 40.9321 17.1625C40.6301 17.3423 40.2669 17.4322 39.8426 17.4322ZM40.0152 16.3643C40.3029 16.3643 40.5725 16.2888 40.8242 16.1378C41.0831 15.9867 41.2881 15.7746 41.4391 15.5013C41.5973 15.2209 41.6764 14.8901 41.6764 14.5089C41.6764 14.1278 41.5973 13.8006 41.4391 13.5273C41.2881 13.2468 41.0831 13.0311 40.8242 12.8801C40.5725 12.7291 40.3029 12.6536 40.0152 12.6536C39.7276 12.6536 39.4579 12.7291 39.2062 12.8801C38.9545 13.0311 38.7495 13.2468 38.5913 13.5273C38.4332 13.8006 38.354 14.1278 38.354 14.5089C38.354 14.8901 38.4332 15.2209 38.5913 15.5013C38.7495 15.7746 38.9545 15.9867 39.2062 16.1378C39.4579 16.2888 39.7276 16.3643 40.0152 16.3643ZM45.8114 17.4322C45.4158 17.4322 45.0635 17.3567 44.7543 17.2057C44.445 17.0475 44.2041 16.8281 44.0315 16.5477C43.8589 16.2672 43.7726 15.9472 43.7726 15.5876C43.7726 15.1993 43.8733 14.8685 44.0747 14.5952C44.2832 14.3148 44.5601 14.1026 44.9053 13.9588C45.2505 13.8149 45.6316 13.743 46.0487 13.743C46.3939 13.743 46.6959 13.7754 46.9548 13.8401C47.2209 13.9048 47.4222 13.9732 47.5589 14.0451V13.7538C47.5589 13.3942 47.4294 13.1066 47.1705 12.8909C46.9116 12.6751 46.5773 12.5673 46.1673 12.5673C45.8869 12.5673 45.6208 12.632 45.3691 12.7614C45.1174 12.8837 44.9161 13.0527 44.765 13.2684L43.9668 12.6536C44.2041 12.3228 44.5169 12.0639 44.9053 11.8769C45.3008 11.6827 45.7323 11.5857 46.1997 11.5857C46.9979 11.5857 47.6128 11.7834 48.0443 12.1789C48.4758 12.5673 48.6915 13.1138 48.6915 13.8186V17.2596H47.5589V16.58H47.4941C47.3503 16.8029 47.1346 17.0007 46.8469 17.1733C46.5592 17.3459 46.2141 17.4322 45.8114 17.4322ZM46.0163 16.4829C46.3184 16.4829 46.5844 16.411 46.8146 16.2672C47.0447 16.1233 47.2245 15.9364 47.3539 15.7063C47.4905 15.469 47.5589 15.2137 47.5589 14.9404C47.3934 14.8469 47.1993 14.7714 46.9764 14.7139C46.7534 14.6492 46.5161 14.6168 46.2644 14.6168C45.7898 14.6168 45.4518 14.7139 45.2505 14.908C45.0491 15.095 44.9484 15.3251 44.9484 15.5984C44.9484 15.8573 45.0455 16.0694 45.2397 16.2348C45.4338 16.4003 45.6927 16.4829 46.0163 16.4829ZM52.4024 19.7622C51.9205 19.7622 51.5034 19.683 51.1511 19.5249C50.8059 19.3738 50.5254 19.1761 50.3097 18.9316C50.094 18.6943 49.9393 18.4498 49.8459 18.1981L50.9246 17.745C51.0396 18.0326 51.223 18.2664 51.4747 18.4462C51.7336 18.6332 52.0428 18.7266 52.4024 18.7266C52.9057 18.7266 53.3012 18.5756 53.5889 18.2736C53.8837 17.9715 54.0313 17.5437 54.0313 16.9899V16.4614H53.9666C53.7939 16.7202 53.553 16.9288 53.2438 17.087C52.9417 17.238 52.5965 17.3135 52.2082 17.3135C51.7408 17.3135 51.3129 17.1949 50.9246 16.9576C50.5362 16.7202 50.2234 16.3895 49.9861 15.9652C49.7488 15.5337 49.6301 15.0303 49.6301 14.455C49.6301 13.8725 49.7488 13.3691 49.9861 12.9448C50.2234 12.5133 50.5362 12.1789 50.9246 11.9416C51.3129 11.7043 51.7408 11.5857 52.2082 11.5857C52.5965 11.5857 52.9417 11.6648 53.2438 11.823C53.553 11.9812 53.7939 12.1897 53.9666 12.4486H54.0313V11.7582H55.1424V16.9683C55.1424 17.5652 55.0237 18.0722 54.7864 18.4893C54.5561 18.9064 54.2363 19.2228 53.8262 19.4386C53.4163 19.6543 52.9417 19.7622 52.4024 19.7622ZM52.4132 16.2564C52.7008 16.2564 52.9669 16.1881 53.2114 16.0515C53.4559 15.9076 53.6537 15.7027 53.8047 15.4366C53.9558 15.1633 54.0313 14.8361 54.0313 14.455C54.0313 14.0595 53.9558 13.7286 53.8047 13.4626C53.6537 13.1893 53.4559 12.9843 53.2114 12.8477C52.9669 12.7111 52.7008 12.6428 52.4132 12.6428C52.1255 12.6428 51.8558 12.7147 51.6041 12.8585C51.3596 12.9951 51.1619 13.1965 51.0109 13.4626C50.8598 13.7286 50.7843 14.0595 50.7843 14.455C50.7843 14.8433 50.8598 15.1741 51.0109 15.4474C51.1619 15.7134 51.3596 15.9148 51.6041 16.0515C51.8558 16.1881 52.1255 16.2564 52.4132 16.2564ZM58.804 17.4322C58.3078 17.4322 57.8585 17.3099 57.4556 17.0654C57.0603 16.8137 56.7437 16.4685 56.5064 16.0299C56.2761 15.584 56.1612 15.077 56.1612 14.5089C56.1612 13.9408 56.2761 13.4374 56.5064 12.9987C56.7437 12.5601 57.0603 12.2149 57.4556 11.9632C57.8585 11.7115 58.3078 11.5857 58.804 11.5857C59.2285 11.5857 59.5914 11.6791 59.8935 11.8661C60.2025 12.0531 60.4291 12.2652 60.5731 12.5025H60.6378L60.5731 11.7367V9.53613H61.7273V17.2596H60.6378V16.5261H60.5731C60.4291 16.7634 60.2025 16.9755 59.8935 17.1625C59.5914 17.3423 59.2285 17.4322 58.804 17.4322ZM58.9766 16.3643C59.2641 16.3643 59.5337 16.2888 59.7856 16.1378C60.0445 15.9867 60.2494 15.7746 60.4005 15.5013C60.5585 15.2209 60.6378 14.8901 60.6378 14.5089C60.6378 14.1278 60.5585 13.8006 60.4005 13.5273C60.2494 13.2468 60.0445 13.0311 59.7856 12.8801C59.5337 12.7291 59.2641 12.6536 58.9766 12.6536C58.6891 12.6536 58.4194 12.7291 58.1676 12.8801C57.9157 13.0311 57.7107 13.2468 57.5527 13.5273C57.3947 13.8006 57.3154 14.1278 57.3154 14.5089C57.3154 14.8901 57.3947 15.2209 57.5527 15.5013C57.7107 15.7746 57.9157 15.9867 58.1676 16.1378C58.4194 16.2888 58.6891 16.3643 58.9766 16.3643ZM64.773 17.4322C64.3771 17.4322 64.0249 17.3567 63.7158 17.2057C63.4063 17.0475 63.1657 16.8281 62.9931 16.5477C62.8205 16.2672 62.7342 15.9472 62.7342 15.5876C62.7342 15.1993 62.8345 14.8685 63.0363 14.5952C63.2444 14.3148 63.5217 14.1026 63.8669 13.9588C64.212 13.8149 64.5928 13.743 65.0103 13.743C65.3555 13.743 65.6575 13.7754 65.9164 13.8401C66.1823 13.9048 66.3835 13.9732 66.5204 14.0451V13.7538C66.5204 13.3942 66.391 13.1066 66.1321 12.8909C65.8732 12.6751 65.5388 12.5673 65.1289 12.5673C64.8485 12.5673 64.582 12.632 64.3307 12.7614C64.0788 12.8837 63.8776 13.0527 63.7266 13.2684L62.9284 12.6536C63.1657 12.3228 63.4785 12.0639 63.8669 11.8769C64.2622 11.6827 64.6937 11.5857 65.1613 11.5857C65.9595 11.5857 66.5744 11.7834 67.0059 12.1789C67.4373 12.5673 67.6531 13.1138 67.6531 13.8186V17.2596H66.5204V16.58H66.4557C66.3117 16.8029 66.096 17.0007 65.8085 17.1733C65.5205 17.3459 65.1753 17.4322 64.773 17.4322ZM64.9779 16.4829C65.2799 16.4829 65.5458 16.411 65.7761 16.2672C66.0059 16.1233 66.1861 15.9364 66.3155 15.7063C66.452 15.469 66.5204 15.2137 66.5204 14.9404C66.3549 14.8469 66.1607 14.7714 65.938 14.7139C65.7147 14.6492 65.4773 14.6168 65.226 14.6168C64.7514 14.6168 64.4132 14.7139 64.212 14.908C64.0103 15.095 63.91 15.3251 63.91 15.5984C63.91 15.8573 64.0071 16.0694 64.2013 16.2348C64.3954 16.4003 64.6543 16.4829 64.9779 16.4829ZM71.3638 19.7622C70.8822 19.7622 70.4647 19.683 70.1125 19.5249C69.7673 19.3738 69.4869 19.1761 69.2711 18.9316C69.0554 18.6943 68.9006 18.4498 68.8073 18.1981L69.886 17.745C70.0009 18.0326 70.1842 18.2664 70.4361 18.4462C70.695 18.6332 71.004 18.7266 71.3638 18.7266C71.867 18.7266 72.2629 18.5756 72.5504 18.2736C72.8454 17.9715 72.9926 17.5437 72.9926 16.9899V16.4614H72.9279C72.7553 16.7202 72.5142 16.9288 72.2052 17.087C71.9031 17.238 71.558 17.3135 71.1696 17.3135C70.702 17.3135 70.2743 17.1949 69.886 16.9576C69.4976 16.7202 69.1848 16.3895 68.9475 15.9652C68.7102 15.5337 68.5915 15.0303 68.5915 14.455C68.5915 13.8725 68.7102 13.3691 68.9475 12.9448C69.1848 12.5133 69.4976 12.1789 69.886 11.9416C70.2743 11.7043 70.702 11.5857 71.1696 11.5857C71.558 11.5857 71.9031 11.6648 72.2052 11.823C72.5142 11.9812 72.7553 12.1897 72.9279 12.4486H72.9926V11.7582H74.1037V16.9683C74.1037 17.5652 73.985 18.0722 73.7477 18.4893C73.5174 18.9064 73.1976 19.2228 72.7877 19.4386C72.3778 19.6543 71.9031 19.7622 71.3638 19.7622ZM71.3746 16.2564C71.6621 16.2564 71.9285 16.1881 72.1728 16.0515C72.4171 15.9076 72.6151 15.7027 72.7661 15.4366C72.9171 15.1633 72.9926 14.8361 72.9926 14.455C72.9926 14.0595 72.9171 13.7286 72.7661 13.4626C72.6151 13.1893 72.4171 12.9843 72.1728 12.8477C71.9285 12.7111 71.6621 12.6428 71.3746 12.6428C71.0871 12.6428 70.8174 12.7147 70.5656 12.8585C70.3212 12.9951 70.1233 13.1965 69.9723 13.4626C69.8213 13.7286 69.7457 14.0595 69.7457 14.455C69.7457 14.8433 69.8213 15.1741 69.9723 15.4474C70.1233 15.7134 70.3212 15.9148 70.5656 16.0515C70.8174 16.1881 71.0871 16.2564 71.3746 16.2564ZM79.9907 17.4322C79.3289 17.4322 78.8003 17.2883 78.405 17.0007C78.0096 16.7058 77.7362 16.3571 77.5852 15.9544L78.6315 15.5013C78.761 15.7962 78.9481 16.0227 79.1924 16.1809C79.4367 16.3319 79.714 16.4074 80.023 16.4074C80.3105 16.4074 80.5586 16.3571 80.7673 16.2564C80.976 16.1485 81.0801 15.9759 81.0801 15.7386C81.0801 15.5085 80.976 15.3395 80.7673 15.2316C80.5586 15.1238 80.2997 15.0303 79.9907 14.9512L79.3327 14.8002C79.0668 14.7354 78.8187 14.6347 78.5884 14.4981C78.3581 14.3615 78.1714 14.1853 78.0274 13.9696C77.8834 13.7467 77.8117 13.4878 77.8117 13.1929C77.8117 12.8693 77.9088 12.5888 78.1029 12.3515C78.2971 12.107 78.5522 11.9201 78.8688 11.7906C79.1924 11.654 79.5414 11.5857 79.9151 11.5857C80.4259 11.5857 80.8714 11.6864 81.2527 11.8877C81.6411 12.0819 81.9253 12.3767 82.1049 12.7722L81.1017 13.2253C80.9723 12.9808 80.8035 12.8118 80.5947 12.7183C80.3936 12.6176 80.1703 12.5673 79.9259 12.5673C79.6525 12.5673 79.4227 12.6248 79.2356 12.7399C79.056 12.8549 78.9659 12.9987 78.9659 13.1713C78.9659 13.3583 79.0452 13.5057 79.2032 13.6136C79.3688 13.7215 79.57 13.8078 79.8073 13.8725L80.6055 14.0667C81.1519 14.2033 81.5618 14.4118 81.8352 14.6923C82.1087 14.9656 82.2451 15.3 82.2451 15.6955C82.2451 16.0478 82.1443 16.3571 81.9431 16.6232C81.7419 16.882 81.4685 17.0834 81.1233 17.2272C80.7851 17.3638 80.4076 17.4322 79.9907 17.4322ZM85.0406 17.4322C84.6452 17.4322 84.2925 17.3567 83.9834 17.2057C83.6744 17.0475 83.4333 16.8281 83.2607 16.5477C83.0881 16.2672 83.0018 15.9472 83.0018 15.5876C83.0018 15.1993 83.1027 14.8685 83.3039 14.5952C83.5126 14.3148 83.7893 14.1026 84.1345 13.9588C84.4796 13.8149 84.861 13.743 85.2779 13.743C85.6231 13.743 85.9251 13.7754 86.184 13.8401C86.4499 13.9048 86.6516 13.9732 86.7881 14.0451V13.7538C86.7881 13.3942 86.6586 13.1066 86.3997 12.8909C86.1408 12.6751 85.8065 12.5673 85.3965 12.5673C85.1161 12.5673 84.8502 12.632 84.5983 12.7614C84.3464 12.8837 84.1453 13.0527 83.9942 13.2684L83.196 12.6536C83.4333 12.3228 83.7461 12.0639 84.1345 11.8769C84.5298 11.6827 84.9613 11.5857 85.4289 11.5857C86.2271 11.5857 86.842 11.7834 87.2735 12.1789C87.705 12.5673 87.9207 13.1138 87.9207 13.8186V17.2596H86.7881V16.58H86.7233C86.5793 16.8029 86.3636 17.0007 86.0761 17.1733C85.7886 17.3459 85.4435 17.4322 85.0406 17.4322ZM85.2455 16.4829C85.5476 16.4829 85.8135 16.411 86.0438 16.2672C86.2741 16.1233 86.4537 15.9364 86.5831 15.7063C86.7196 15.469 86.7881 15.2137 86.7881 14.9404C86.6225 14.8469 86.4283 14.7714 86.2056 14.7139C85.9828 14.6492 85.7455 14.6168 85.4936 14.6168C85.019 14.6168 84.6808 14.7139 84.4796 14.908C84.2785 15.095 84.1776 15.3251 84.1776 15.5984C84.1776 15.8573 84.2747 16.0694 84.4689 16.2348C84.663 16.4003 84.9219 16.4829 85.2455 16.4829Z" fill="white"/>
<path d="M96.2209 17.4319C95.667 17.4319 95.146 17.3312 94.6568 17.1299C94.1751 16.9286 93.7469 16.6481 93.3731 16.2885C92.9994 15.9218 92.7043 15.4939 92.4886 15.0049C92.2799 14.5087 92.1758 13.9729 92.1758 13.3976C92.1758 12.8223 92.2799 12.2902 92.4886 11.8011C92.7043 11.3049 92.9956 10.8771 93.3624 10.5175C93.7361 10.1507 94.1676 9.86665 94.6568 9.66532C95.146 9.46398 95.667 9.36328 96.2209 9.36328C96.8104 9.36328 97.3535 9.46754 97.8497 9.6761C98.3529 9.88467 98.7736 10.1759 99.1118 10.5498L98.292 11.3589C98.0401 11.0784 97.7381 10.8627 97.3859 10.7117C97.0407 10.5606 96.6524 10.4851 96.2209 10.4851C95.7101 10.4851 95.2393 10.6074 94.8078 10.8519C94.3763 11.0892 94.0274 11.4272 93.7615 11.8659C93.5026 12.2973 93.3731 12.8079 93.3731 13.3976C93.3731 13.9873 93.5064 14.5015 93.7723 14.9401C94.0382 15.3716 94.3871 15.7096 94.8186 15.9541C95.2501 16.1914 95.7209 16.3101 96.2317 16.3101C96.6993 16.3101 97.1232 16.2238 97.5045 16.0512C97.8859 15.8714 98.1911 15.6197 98.4214 15.2961C98.6587 14.9725 98.8028 14.5842 98.8529 14.1311H96.2101V13.0848H99.964C100.007 13.2789 100.029 13.4839 100.029 13.6996V13.7104C100.029 14.4583 99.8631 15.1127 99.5325 15.6737C99.2089 16.2274 98.7596 16.6589 98.1841 16.9681C97.6086 17.2773 96.9544 17.4319 96.2209 17.4319ZM103.502 17.4319C102.934 17.4319 102.434 17.3025 102.003 17.0436C101.571 16.7847 101.233 16.4359 100.989 15.9973C100.744 15.5586 100.622 15.0624 100.622 14.5087C100.622 13.9621 100.744 13.4695 100.989 13.0308C101.233 12.585 101.571 12.2326 102.003 11.9737C102.434 11.7148 102.934 11.5854 103.502 11.5854C104.063 11.5854 104.559 11.7148 104.991 11.9737C105.422 12.2326 105.76 12.585 106.005 13.0308C106.249 13.4695 106.371 13.9621 106.371 14.5087C106.371 15.0624 106.249 15.5586 106.005 15.9973C105.76 16.4359 105.422 16.7847 104.991 17.0436C104.559 17.3025 104.063 17.4319 103.502 17.4319ZM103.502 16.364C103.804 16.364 104.085 16.2921 104.343 16.1483C104.602 15.9973 104.811 15.7851 104.969 15.5118C105.135 15.2314 105.217 14.897 105.217 14.5087C105.217 14.1203 105.135 13.7895 104.969 13.5163C104.811 13.2358 104.602 13.0237 104.343 12.8798C104.085 12.7288 103.804 12.6533 103.502 12.6533C103.2 12.6533 102.916 12.7288 102.65 12.8798C102.391 13.0237 102.179 13.2358 102.013 13.5163C101.855 13.7895 101.776 14.1203 101.776 14.5087C101.776 14.897 101.855 15.2314 102.013 15.5118C102.179 15.7851 102.391 15.9973 102.65 16.1483C102.916 16.2921 103.2 16.364 103.502 16.364ZM110.033 17.4319C109.465 17.4319 108.965 17.3025 108.534 17.0436C108.102 16.7847 107.765 16.4359 107.52 15.9973C107.275 15.5586 107.153 15.0624 107.153 14.5087C107.153 13.9621 107.275 13.4695 107.52 13.0308C107.765 12.585 108.102 12.2326 108.534 11.9737C108.965 11.7148 109.465 11.5854 110.033 11.5854C110.594 11.5854 111.09 11.7148 111.522 11.9737C111.953 12.2326 112.291 12.585 112.536 13.0308C112.78 13.4695 112.902 13.9621 112.902 14.5087C112.902 15.0624 112.78 15.5586 112.536 15.9973C112.291 16.4359 111.953 16.7847 111.522 17.0436C111.09 17.3025 110.594 17.4319 110.033 17.4319ZM110.033 16.364C110.335 16.364 110.616 16.2921 110.874 16.1483C111.133 15.9973 111.342 15.7851 111.5 15.5118C111.666 15.2314 111.748 14.897 111.748 14.5087C111.748 14.1203 111.666 13.7895 111.5 13.5163C111.342 13.2358 111.133 13.0237 110.874 12.8798C110.616 12.7288 110.335 12.6533 110.033 12.6533C109.731 12.6533 109.447 12.7288 109.181 12.8798C108.922 13.0237 108.71 13.2358 108.544 13.5163C108.386 13.7895 108.307 14.1203 108.307 14.5087C108.307 14.897 108.386 15.2314 108.544 15.5118C108.71 15.7851 108.922 15.9973 109.181 16.1483C109.447 16.2921 109.731 16.364 110.033 16.364ZM116.457 19.7619C115.975 19.7619 115.558 19.6828 115.205 19.5246C114.86 19.3736 114.58 19.1758 114.364 18.9313C114.148 18.694 113.993 18.4495 113.9 18.1978L114.979 17.7447C115.094 18.0324 115.277 18.2661 115.529 18.4459C115.788 18.6329 116.097 18.7264 116.457 18.7264C116.96 18.7264 117.355 18.5753 117.643 18.2733C117.938 17.9713 118.086 17.5434 118.086 16.9897V16.4611H118.021C117.848 16.72 117.607 16.9286 117.298 17.0867C116.996 17.2378 116.651 17.3133 116.263 17.3133C115.795 17.3133 115.367 17.1946 114.979 16.9573C114.591 16.72 114.278 16.3892 114.04 15.9649C113.803 15.5334 113.684 15.03 113.684 14.4547C113.684 13.8722 113.803 13.3689 114.04 12.9446C114.278 12.5131 114.591 12.1787 114.979 11.9414C115.367 11.7041 115.795 11.5854 116.263 11.5854C116.651 11.5854 116.996 11.6645 117.298 11.8227C117.607 11.9809 117.848 12.1895 118.021 12.4484H118.086V11.758H119.197V16.9681C119.197 17.565 119.078 18.072 118.841 18.489C118.61 18.9061 118.29 19.2226 117.881 19.4383C117.471 19.654 116.996 19.7619 116.457 19.7619ZM116.467 16.2561C116.755 16.2561 117.021 16.1878 117.266 16.0512C117.51 15.9074 117.708 15.7024 117.859 15.4363C118.01 15.1631 118.086 14.8359 118.086 14.4547C118.086 14.0592 118.01 13.7284 117.859 13.4623C117.708 13.189 117.51 12.9841 117.266 12.8475C117.021 12.7109 116.755 12.6425 116.467 12.6425C116.179 12.6425 115.91 12.7144 115.658 12.8583C115.414 12.9949 115.216 13.1963 115.065 13.4623C114.914 13.7284 114.839 14.0592 114.839 14.4547C114.839 14.8431 114.914 15.1738 115.065 15.4471C115.216 15.7132 115.414 15.9146 115.658 16.0512C115.91 16.1878 116.179 16.2561 116.467 16.2561ZM120.57 17.2593V9.53587H121.735V17.2593H120.57ZM125.57 17.4319C125.03 17.4319 124.548 17.3061 124.124 17.0544C123.7 16.8027 123.365 16.4575 123.121 16.0188C122.884 15.5802 122.765 15.0804 122.765 14.5194C122.765 13.9945 122.88 13.5091 123.11 13.0632C123.34 12.6173 123.66 12.2614 124.07 11.9953C124.487 11.722 124.965 11.5854 125.505 11.5854C126.073 11.5854 126.554 11.7077 126.95 11.9522C127.353 12.1966 127.658 12.531 127.867 12.9553C128.075 13.3796 128.18 13.8578 128.18 14.39C128.18 14.4691 128.176 14.541 128.169 14.6057C128.169 14.6705 128.165 14.7208 128.158 14.7568H123.908C123.965 15.3033 124.156 15.7132 124.48 15.9865C124.811 16.2598 125.184 16.3964 125.602 16.3964C125.976 16.3964 126.285 16.3137 126.53 16.1483C126.774 15.9757 126.968 15.7636 127.112 15.5118L128.072 15.9757C127.835 16.4072 127.511 16.7595 127.101 17.0328C126.691 17.2989 126.181 17.4319 125.57 17.4319ZM125.516 12.5778C125.127 12.5778 124.796 12.6965 124.523 12.9338C124.25 13.1711 124.066 13.4875 123.973 13.883H127.026C127.011 13.696 126.95 13.5019 126.842 13.3005C126.734 13.0992 126.569 12.9301 126.346 12.7935C126.13 12.6497 125.853 12.5778 125.516 12.5778ZM132.921 17.2593L130.85 9.53587H132.166L133.396 14.5518L133.525 15.2206H133.59L133.752 14.5518L135.305 9.53587H136.492L137.98 14.5518L138.142 15.2098H138.207L138.336 14.5518L139.566 9.53587H140.871L138.833 17.2593H137.581L136.104 12.1355L135.931 11.4128H135.866L135.683 12.1355L134.14 17.2593H132.921ZM143.037 17.4319C142.642 17.4319 142.29 17.3564 141.98 17.2054C141.671 17.0472 141.43 16.8279 141.258 16.5474C141.085 16.2669 140.999 15.9469 140.999 15.5874C140.999 15.199 141.099 14.8682 141.301 14.595C141.509 14.3145 141.786 14.1024 142.131 13.9585C142.476 13.8147 142.858 13.7428 143.275 13.7428C143.62 13.7428 143.922 13.7751 144.181 13.8399C144.447 13.9046 144.648 13.9729 144.785 14.0448V13.7536C144.785 13.394 144.655 13.1064 144.397 12.8906C144.138 12.6749 143.803 12.567 143.393 12.567C143.113 12.567 142.847 12.6317 142.595 12.7612C142.344 12.8834 142.142 13.0524 141.991 13.2682L141.193 12.6533C141.43 12.3225 141.743 12.0636 142.131 11.8766C142.527 11.6825 142.959 11.5854 143.426 11.5854C144.224 11.5854 144.839 11.7832 145.27 12.1787C145.702 12.567 145.917 13.1135 145.917 13.8183V17.2593H144.785V16.5798H144.72C144.577 16.8027 144.361 17.0004 144.073 17.173C143.785 17.3456 143.44 17.4319 143.037 17.4319ZM143.242 16.4827C143.544 16.4827 143.811 16.4108 144.041 16.2669C144.271 16.1231 144.45 15.9362 144.58 15.706C144.717 15.4687 144.785 15.2134 144.785 14.9401C144.62 14.8467 144.426 14.7712 144.202 14.7136C143.98 14.6489 143.742 14.6165 143.49 14.6165C143.016 14.6165 142.678 14.7136 142.476 14.9078C142.275 15.0948 142.174 15.3249 142.174 15.5981C142.174 15.857 142.271 16.0692 142.466 16.2346C142.66 16.4 142.919 16.4827 143.242 16.4827ZM147.211 17.2593V9.53587H148.376V17.2593H147.211ZM149.76 17.2593V9.53587H150.925V17.2593H149.76ZM154.76 17.4319C154.22 17.4319 153.738 17.3061 153.314 17.0544C152.89 16.8027 152.555 16.4575 152.311 16.0188C152.074 15.5802 151.955 15.0804 151.955 14.5194C151.955 13.9945 152.07 13.5091 152.3 13.0632C152.53 12.6173 152.85 12.2614 153.26 11.9953C153.677 11.722 154.155 11.5854 154.695 11.5854C155.263 11.5854 155.744 11.7077 156.14 11.9522C156.543 12.1966 156.848 12.531 157.057 12.9553C157.265 13.3796 157.37 13.8578 157.37 14.39C157.37 14.4691 157.366 14.541 157.359 14.6057C157.359 14.6705 157.355 14.7208 157.348 14.7568H153.098C153.156 15.3033 153.346 15.7132 153.67 15.9865C154.001 16.2598 154.374 16.3964 154.792 16.3964C155.166 16.3964 155.475 16.3137 155.72 16.1483C155.964 15.9757 156.158 15.7636 156.302 15.5118L157.262 15.9757C157.025 16.4072 156.701 16.7595 156.291 17.0328C155.881 17.2989 155.371 17.4319 154.76 17.4319ZM154.706 12.5778C154.317 12.5778 153.986 12.6965 153.713 12.9338C153.44 13.1711 153.256 13.4875 153.163 13.883H156.216C156.201 13.696 156.14 13.5019 156.032 13.3005C155.925 13.0992 155.759 12.9301 155.536 12.7935C155.32 12.6497 155.043 12.5778 154.706 12.5778ZM158.875 15.6629V12.772H157.915V11.758H158.875V10.2047H160.04V11.758H161.389V12.772H160.04V15.4148C160.04 15.6881 160.094 15.8966 160.202 16.0404C160.317 16.1843 160.507 16.2561 160.774 16.2561C160.91 16.2561 161.025 16.2382 161.119 16.2022C161.219 16.1662 161.32 16.1159 161.421 16.0512V17.1838C161.299 17.2341 161.169 17.2737 161.033 17.3025C160.896 17.3312 160.734 17.3456 160.547 17.3456C160.037 17.3456 159.63 17.1982 159.328 16.9034C159.026 16.6013 158.875 16.1878 158.875 15.6629Z" fill="white"/>
<path d="M160.186 0.269531H13.4836C6.18565 0.269531 0.269531 6.18565 0.269531 13.4836C0.269531 20.7815 6.18565 26.6976 13.4836 26.6976H160.186C167.484 26.6976 173.4 20.7815 173.4 13.4836C173.4 6.18565 167.484 0.269531 160.186 0.269531Z" stroke="#747775"/>
</g>
<defs>
<linearGradient id="paint0_linear_568_340" x1="18.6472" y1="16.6049" x2="10.1043" y2="26.3816" gradientUnits="userSpaceOnUse">
<stop stop-color="#4285F4"/>
<stop offset="1" stop-color="#1B74E8"/>
</linearGradient>
<clipPath id="clip0_568_340">
<rect width="173.67" height="26.9674" fill="white"/>
</clipPath>
</defs>
</svg>
