<svg width="174" height="48" viewBox="0 0 174 48" fill="none" xmlns="http://www.w3.org/2000/svg">
<g clip-path="url(#clip0_568_385)">
<path d="M149.672 0.436523H24.0008C10.9871 0.436523 0.4375 10.9862 0.4375 23.9998C0.4375 37.0134 10.9871 47.563 24.0008 47.563H149.672C162.685 47.563 173.235 37.0134 173.235 23.9998C173.235 10.9862 162.685 0.436523 149.672 0.436523Z" fill="#1F1F1F"/>
<path d="M49.7458 20.7629H18.3281V15.8361C18.3281 13.1615 20.634 10.9092 23.3722 10.9092H44.7017C47.4399 10.9092 49.7458 13.1615 49.7458 15.8361V20.7629Z" fill="#34A853"/>
<path d="M49.7458 25.3085H18.3281V20.0722C18.3281 17.2297 20.634 14.8359 23.3722 14.8359H44.7017C47.4399 14.8359 49.7458 17.2297 49.7458 20.0722V25.3085Z" fill="#FBBC04"/>
<path d="M49.7458 29.6718H18.3281V24.4355C18.3281 21.593 20.634 19.1992 23.3722 19.1992H44.7017C47.4399 19.1992 49.7458 21.593 49.7458 24.4355V29.6718Z" fill="#EA4335"/>
<path d="M18.3281 22.0276L38.269 26.5322C40.5644 27.0953 43.1467 26.5322 45.0116 25.1245L49.7458 21.7461V32.3037C49.7458 34.9783 47.4505 37.0898 44.7247 37.0898H23.3492C20.6234 37.0898 18.3281 34.9783 18.3281 32.3037V22.0276Z" fill="url(#paint0_linear_568_385)"/>
<path d="M62.8042 18.7635L64.8804 13.0342H60.7734V9.80078H62.1235V11.8202H66.2872V13.0342L64.2337 18.7635H62.8042ZM67.3778 18.7635V17.1525C67.3778 16.4642 67.5291 15.8969 67.8316 15.4507C68.1418 15.0045 68.5956 14.6717 69.193 14.4523L67.2303 11.8883V11.8202H68.7506L71.1558 15.065C71.5567 14.9137 71.8441 14.7057 72.018 14.441C72.192 14.1687 72.2789 13.7716 72.2789 13.2497V11.8202H73.629V13.2724C73.629 14.0363 73.4702 14.6188 73.1525 15.0196C72.8349 15.4129 72.4037 15.7154 71.8592 15.9272L73.9467 18.6955V18.7635H72.4264L69.9191 15.3259C69.4578 15.4697 69.1439 15.689 68.9775 15.984C68.8111 16.2713 68.7279 16.6457 68.7279 17.1071V18.7635H67.3778ZM82.7197 18.7635V15.0196C82.7197 14.528 82.6554 14.1384 82.5269 13.851C82.4058 13.5561 82.2054 13.3481 81.9256 13.2271C81.6457 13.0985 81.2637 13.0342 80.7797 13.0342H77.8753V11.8202H80.7797C81.9369 11.8202 82.7726 12.0888 83.287 12.6258C83.8013 13.1627 84.0585 13.9607 84.0585 15.0196V18.7635H82.7197ZM77.8753 18.7635V14.9288H79.2254V18.7635H77.8753ZM85.8578 18.7635V17.5496H87.934C88.7282 17.5496 89.3373 17.3378 89.7606 16.9143C90.1917 16.4907 90.4073 15.9235 90.4073 15.2125C90.4073 14.7284 90.313 14.3086 90.1237 13.9532C89.9421 13.5901 89.6891 13.3141 89.3635 13.1249C89.0459 12.9283 88.675 12.83 88.2517 12.83C87.9646 12.83 87.715 12.864 87.5029 12.9321C87.2987 12.9926 87.1284 13.0758 86.9923 13.1817C86.8637 13.2951 86.7654 13.4237 86.6973 13.5674C86.6368 13.7111 86.6065 13.8586 86.6065 14.0099C86.6065 14.32 86.7049 14.562 86.9015 14.736C87.0981 14.9099 87.3816 14.9969 87.7525 14.9969H88.1042V16.1201H87.7185C86.9242 16.1201 86.3192 15.9272 85.9031 15.5415C85.4871 15.1558 85.2791 14.649 85.2791 14.0212C85.2791 13.6658 85.351 13.3443 85.4947 13.0569C85.6384 12.7619 85.8427 12.5085 86.1074 12.2967C86.3645 12.0849 86.6746 11.9223 87.0377 11.8089C87.4087 11.6879 87.8127 11.6274 88.2517 11.6274C88.9472 11.6274 89.5529 11.7862 90.0669 12.1039C90.5888 12.4139 90.9938 12.8413 91.2809 13.3859C91.568 13.9229 91.712 14.5318 91.712 15.2125C91.712 15.8856 91.561 16.4907 91.2582 17.0277C90.9554 17.5647 90.5207 17.9883 89.9535 18.2984C89.3941 18.6085 88.7203 18.7635 87.934 18.7635H85.8578ZM96.2754 18.9451C95.7535 18.9451 95.2735 18.8506 94.8346 18.6614C94.3956 18.4723 94.0142 18.2114 93.6887 17.8786C93.3632 17.5383 93.1101 17.1488 92.9286 16.7101C92.747 16.2638 92.6563 15.7873 92.6563 15.2806C92.6563 14.7965 92.7436 14.3313 92.9172 13.8851C93.0909 13.4313 93.3483 13.0342 93.6887 12.6938C94.0142 12.3611 94.3956 12.1001 94.8346 11.911C95.2735 11.7219 95.7535 11.6274 96.2754 11.6274C96.7973 11.6274 97.2773 11.7219 97.7163 11.911C98.1622 12.1001 98.548 12.3611 98.8735 12.6938C99.206 13.0266 99.4634 13.4162 99.645 13.8624C99.8265 14.3011 99.9173 14.7738 99.9173 15.2806C99.9173 15.7873 99.8265 16.2638 99.645 16.7101C99.4634 17.1488 99.206 17.5383 98.8735 17.8786C98.548 18.2114 98.1622 18.4723 97.7163 18.6614C97.2773 18.8506 96.7973 18.9451 96.2754 18.9451ZM96.2754 17.7311C96.7065 17.7311 97.0958 17.629 97.444 17.4248C97.7992 17.213 98.0793 16.9219 98.2835 16.5512C98.4956 16.1806 98.6012 15.7571 98.6012 15.2806C98.6012 14.804 98.4956 14.3843 98.2835 14.0212C98.0793 13.6506 97.7992 13.3632 97.444 13.159C97.0958 12.9472 96.7065 12.8413 96.2754 12.8413C95.9499 12.8413 95.6479 12.9018 95.3678 13.0228C95.0877 13.1363 94.8424 13.3027 94.6304 13.522C94.4113 13.7489 94.2446 14.0175 94.1312 14.3275C94.0177 14.6301 93.961 14.9478 93.961 15.2806C93.961 15.7571 94.0631 16.1806 94.2673 16.5512C94.4794 16.9219 94.7586 17.213 95.1069 17.4248C95.4551 17.629 95.8443 17.7311 96.2754 17.7311ZM101.21 18.7635V11.8202H102.56V18.7635H101.21ZM109.122 18.7635V15.0196C109.122 14.528 109.057 14.1384 108.929 13.851C108.808 13.5561 108.608 13.3481 108.328 13.2271C108.047 13.0985 107.666 13.0342 107.182 13.0342H104.277V11.8202H107.182C108.339 11.8202 109.175 12.0888 109.689 12.6258C110.203 13.1627 110.461 13.9607 110.461 15.0196V18.7635H109.122ZM104.277 18.7635V14.9288H105.627V18.7635H104.277Z" fill="white"/>
<path d="M66.4503 36.4548C65.6887 36.4548 64.9716 36.3163 64.299 36.0394C63.6364 35.7625 63.0478 35.3768 62.5335 34.8822C62.0192 34.3778 61.6137 33.7893 61.317 33.1167C61.0301 32.4343 60.8867 31.6974 60.8867 30.9061C60.8867 30.1148 61.0301 29.383 61.317 28.7104C61.6137 28.0279 62.0143 27.4395 62.5187 26.9449C63.033 26.4405 63.6264 26.0497 64.299 25.7728C64.9716 25.4959 65.6887 25.3574 66.4503 25.3574C67.2613 25.3574 68.0081 25.5008 68.6905 25.7877C69.3828 26.0745 69.9615 26.4751 70.4264 26.9894L69.2988 28.1021C68.9526 27.7164 68.5372 27.4196 68.0526 27.2119C67.5778 27.0042 67.0437 26.9004 66.4503 26.9004C65.748 26.9004 65.1002 27.0686 64.5067 27.4048C63.9133 27.7312 63.4336 28.1961 63.0676 28.7994C62.7116 29.3928 62.5335 30.0951 62.5335 30.9061C62.5335 31.7171 62.7165 32.4244 63.0825 33.0277C63.4484 33.6211 63.9281 34.086 64.5216 34.4223C65.115 34.7487 65.7628 34.9119 66.4651 34.9119C67.108 34.9119 67.6915 34.7932 68.2158 34.5558C68.74 34.3086 69.1603 33.9624 69.4768 33.5173C69.8032 33.0722 70.0011 32.5381 70.0703 31.915H66.4354V30.4759H71.5984C71.6578 30.7429 71.6874 31.0248 71.6874 31.3215V31.3364C71.6874 32.3651 71.4599 33.2651 71.005 34.0366C70.5599 34.7982 69.9417 35.3916 69.1504 35.8169C68.3592 36.2422 67.4591 36.4548 66.4503 36.4548ZM76.4646 36.4548C75.6831 36.4548 74.9958 36.2768 74.4023 35.9207C73.8089 35.5647 73.344 35.0849 73.0078 34.4816C72.6714 33.8783 72.5033 33.1959 72.5033 32.4343C72.5033 31.6826 72.6714 31.005 73.0078 30.4017C73.344 29.7884 73.8089 29.3038 74.4023 28.9478C74.9958 28.5917 75.6831 28.4137 76.4646 28.4137C77.236 28.4137 77.9185 28.5917 78.512 28.9478C79.1054 29.3038 79.5702 29.7884 79.9066 30.4017C80.2428 31.005 80.411 31.6826 80.411 32.4343C80.411 33.1959 80.2428 33.8783 79.9066 34.4816C79.5702 35.0849 79.1054 35.5647 78.512 35.9207C77.9185 36.2768 77.236 36.4548 76.4646 36.4548ZM76.4646 34.9861C76.88 34.9861 77.2657 34.8872 77.6218 34.6893C77.9779 34.4816 78.2646 34.1899 78.4823 33.814C78.7097 33.4283 78.8235 32.9684 78.8235 32.4343C78.8235 31.9002 78.7097 31.4452 78.4823 31.0693C78.2646 30.6836 77.9779 30.3918 77.6218 30.194C77.2657 29.9863 76.88 29.8824 76.4646 29.8824C76.0492 29.8824 75.6584 29.9863 75.2925 30.194C74.9364 30.3918 74.6446 30.6836 74.4172 31.0693C74.1995 31.4452 74.0908 31.9002 74.0908 32.4343C74.0908 32.9684 74.1995 33.4283 74.4172 33.814C74.6446 34.1899 74.9364 34.4816 75.2925 34.6893C75.6584 34.8872 76.0492 34.9861 76.4646 34.9861ZM85.4473 36.4548C84.666 36.4548 83.9785 36.2768 83.3851 35.9207C82.7917 35.5647 82.3268 35.0849 81.9905 34.4816C81.6542 33.8783 81.4861 33.1959 81.4861 32.4343C81.4861 31.6826 81.6542 31.005 81.9905 30.4017C82.3268 29.7884 82.7917 29.3038 83.3851 28.9478C83.9785 28.5917 84.666 28.4137 85.4473 28.4137C86.2188 28.4137 86.9013 28.5917 87.4949 28.9478C88.0883 29.3038 88.5535 29.7884 88.8895 30.4017C89.2255 31.005 89.3939 31.6826 89.3939 32.4343C89.3939 33.1959 89.2255 33.8783 88.8895 34.4816C88.5535 35.0849 88.0883 35.5647 87.4949 35.9207C86.9013 36.2768 86.2188 36.4548 85.4473 36.4548ZM85.4473 34.9861C85.8627 34.9861 86.2485 34.8872 86.6045 34.6893C86.9606 34.4816 87.2475 34.1899 87.4652 33.814C87.693 33.4283 87.8064 32.9684 87.8064 32.4343C87.8064 31.9002 87.693 31.4452 87.4652 31.0693C87.2475 30.6836 86.9606 30.3918 86.6045 30.194C86.2485 29.9863 85.8627 29.8824 85.4473 29.8824C85.0319 29.8824 84.6413 29.9863 84.2753 30.194C83.9192 30.3918 83.6275 30.6836 83.3999 31.0693C83.1824 31.4452 83.0735 31.9002 83.0735 32.4343C83.0735 32.9684 83.1824 33.4283 83.3999 33.814C83.6275 34.1899 83.9192 34.4816 84.2753 34.6893C84.6413 34.8872 85.0319 34.9861 85.4473 34.9861ZM94.282 39.6595C93.6187 39.6595 93.0453 39.5506 92.561 39.3331C92.0862 39.1253 91.7005 38.8533 91.4038 38.5171C91.107 38.1907 90.8941 37.8544 90.7658 37.5082L92.2494 36.8851C92.4074 37.2807 92.6596 37.6022 93.0061 37.8494C93.3621 38.1066 93.7871 38.2352 94.282 38.2352C94.974 38.2352 95.5177 38.0275 95.914 37.6121C96.3189 37.1967 96.5222 36.6082 96.5222 35.8466V35.1196H96.4332C96.1958 35.4757 95.8642 35.7625 95.4392 35.9801C95.0238 36.1878 94.549 36.2916 94.0149 36.2916C93.3717 36.2916 92.7835 36.1284 92.2494 35.8021C91.7153 35.4757 91.2851 35.0207 90.9587 34.4371C90.6323 33.8437 90.4691 33.1514 90.4691 32.3601C90.4691 31.5589 90.6323 30.8666 90.9587 30.283C91.2851 29.6896 91.7153 29.2297 92.2494 28.9033C92.7835 28.5769 93.3717 28.4137 94.0149 28.4137C94.549 28.4137 95.0238 28.5225 95.4392 28.7401C95.8642 28.9576 96.1958 29.2445 96.4332 29.6006H96.5222V28.651H98.0504V35.8169C98.0504 36.6379 97.8872 37.3352 97.5608 37.9088C97.244 38.4824 96.8041 38.9176 96.2403 39.2144C95.6766 39.5111 95.0238 39.6595 94.282 39.6595ZM94.2968 34.8377C94.6921 34.8377 95.0578 34.7437 95.3947 34.5558C95.7307 34.358 96.003 34.0761 96.2107 33.7102C96.4184 33.3343 96.5222 32.8843 96.5222 32.3601C96.5222 31.8161 96.4184 31.3611 96.2107 30.9951C96.003 30.6193 95.7307 30.3374 95.3947 30.1495C95.0578 29.9616 94.6921 29.8676 94.2968 29.8676C93.9006 29.8676 93.5297 29.9665 93.1841 30.1643C92.8472 30.3522 92.5758 30.6292 92.3681 30.9951C92.1604 31.3611 92.0566 31.8161 92.0566 32.3601C92.0566 32.8942 92.1604 33.3491 92.3681 33.725C92.5758 34.0909 92.8472 34.3679 93.1841 34.5558C93.5297 34.7437 93.9006 34.8377 94.2968 34.8377ZM99.9398 36.2175V25.5948H101.542V36.2175H99.9398ZM106.815 36.4548C106.073 36.4548 105.411 36.2818 104.827 35.9356C104.244 35.5894 103.784 35.1146 103.447 34.5113C103.121 33.908 102.958 33.2206 102.958 32.4491C102.958 31.7271 103.116 31.0595 103.432 30.4462C103.749 29.833 104.189 29.3434 104.753 28.9774C105.327 28.6016 105.984 28.4137 106.726 28.4137C107.508 28.4137 108.17 28.5818 108.714 28.9181C109.268 29.2544 109.689 29.7143 109.975 30.2979C110.262 30.8814 110.405 31.5391 110.405 32.2711C110.405 32.3799 110.401 32.4788 110.391 32.5678C110.391 32.6568 110.386 32.726 110.376 32.7755H104.53C104.61 33.5272 104.871 34.0909 105.317 34.4668C105.772 34.8427 106.286 35.0306 106.86 35.0306C107.374 35.0306 107.799 34.9169 108.135 34.6893C108.472 34.452 108.739 34.1602 108.937 33.814L110.257 34.452C109.931 35.0454 109.486 35.53 108.922 35.9059C108.358 36.2718 107.656 36.4548 106.815 36.4548ZM106.741 29.7786C106.207 29.7786 105.752 29.9418 105.376 30.2682C105.001 30.5946 104.748 31.0298 104.619 31.5738H108.818C108.799 31.3166 108.714 31.0495 108.566 30.7726C108.417 30.4957 108.19 30.2632 107.883 30.0753C107.586 29.8775 107.206 29.7786 106.741 29.7786ZM116.927 36.2175L114.079 25.5948H115.889L117.58 32.4936L117.758 33.4134H117.847L118.07 32.4936L120.206 25.5948H121.838L123.885 32.4936L124.108 33.3986H124.197L124.375 32.4936L126.066 25.5948H127.861L125.057 36.2175H123.336L121.304 29.1703L121.066 28.1763H120.977L120.725 29.1703L118.604 36.2175H116.927ZM130.841 36.4548C130.297 36.4548 129.812 36.351 129.387 36.1433C128.962 35.9257 128.63 35.624 128.393 35.2383C128.155 34.8525 128.037 34.4124 128.037 33.9179C128.037 33.3838 128.176 32.9288 128.452 32.5529C128.739 32.1672 129.12 31.8755 129.595 31.6776C130.069 31.4798 130.594 31.3809 131.167 31.3809C131.642 31.3809 132.057 31.4254 132.413 31.5144C132.779 31.6034 133.057 31.6974 133.244 31.7963V31.3957C133.244 30.9012 133.066 30.5056 132.71 30.2088C132.354 29.9121 131.894 29.7638 131.33 29.7638C130.945 29.7638 130.579 29.8528 130.233 30.0308C129.886 30.199 129.609 30.4314 129.402 30.7281L128.304 29.8824C128.63 29.4275 129.06 29.0714 129.595 28.8142C130.138 28.5472 130.732 28.4137 131.375 28.4137C132.473 28.4137 133.318 28.6857 133.912 29.2297C134.505 29.7638 134.802 30.5154 134.802 31.4847V36.2175H133.244V35.2828H133.155C132.957 35.5894 132.66 35.8614 132.265 36.0988C131.87 36.3362 131.395 36.4548 130.841 36.4548ZM131.123 35.1493C131.538 35.1493 131.904 35.0504 132.221 34.8525C132.537 34.6547 132.784 34.3976 132.962 34.0811C133.15 33.7547 133.244 33.4036 133.244 33.0277C133.016 32.8992 132.749 32.7953 132.443 32.7161C132.137 32.6271 131.81 32.5826 131.464 32.5826C130.811 32.5826 130.346 32.7161 130.069 32.9832C129.793 33.2404 129.654 33.5568 129.654 33.9327C129.654 34.2888 129.787 34.5805 130.055 34.808C130.322 35.0356 130.678 35.1493 131.123 35.1493ZM136.581 36.2175V25.5948H138.183V36.2175H136.581ZM140.087 36.2175V25.5948H141.69V36.2175H140.087ZM146.962 36.4548C146.221 36.4548 145.558 36.2818 144.974 35.9356C144.391 35.5894 143.932 35.1146 143.595 34.5113C143.268 33.908 143.105 33.2206 143.105 32.4491C143.105 31.7271 143.264 31.0595 143.58 30.4462C143.897 29.833 144.336 29.3434 144.9 28.9774C145.474 28.6016 146.132 28.4137 146.873 28.4137C147.655 28.4137 148.318 28.5818 148.861 28.9181C149.416 29.2544 149.836 29.7143 150.123 30.2979C150.41 30.8814 150.553 31.5391 150.553 32.2711C150.553 32.3799 150.548 32.4788 150.538 32.5678C150.538 32.6568 150.534 32.726 150.523 32.7755H144.678C144.757 33.5272 145.019 34.0909 145.464 34.4668C145.92 34.8427 146.434 35.0306 147.007 35.0306C147.522 35.0306 147.947 34.9169 148.283 34.6893C148.62 34.452 148.887 34.1602 149.084 33.814L150.404 34.452C150.078 35.0454 149.633 35.53 149.069 35.9059C148.505 36.2718 147.804 36.4548 146.962 36.4548ZM146.888 29.7786C146.354 29.7786 145.899 29.9418 145.523 30.2682C145.148 30.5946 144.896 31.0298 144.767 31.5738H148.965C148.946 31.3166 148.861 31.0495 148.713 30.7726C148.565 30.4957 148.338 30.2632 148.031 30.0753C147.734 29.8775 147.353 29.7786 146.888 29.7786ZM152.624 34.0217V30.0456H151.303V28.651H152.624V26.5146H154.226V28.651H156.081V30.0456H154.226V33.6805C154.226 34.0564 154.3 34.3431 154.449 34.541C154.607 34.7388 154.868 34.8377 155.235 34.8377C155.423 34.8377 155.581 34.813 155.71 34.7635C155.848 34.714 155.986 34.6448 156.125 34.5558V36.1136C155.957 36.1828 155.779 36.2373 155.591 36.2768C155.402 36.3163 155.18 36.3362 154.923 36.3362C154.221 36.3362 153.662 36.1334 153.247 35.7279C152.831 35.3125 152.624 34.7437 152.624 34.0217Z" fill="white"/>
<path d="M149.672 0.436523H24.0008C10.9871 0.436523 0.4375 10.9862 0.4375 23.9998C0.4375 37.0134 10.9871 47.563 24.0008 47.563H149.672C162.685 47.563 173.235 37.0134 173.235 23.9998C173.235 10.9862 162.685 0.436523 149.672 0.436523Z" stroke="#747775"/>
</g>
<defs>
<linearGradient id="paint0_linear_568_385" x1="32.5397" y1="29.7109" x2="16.3927" y2="48.6295" gradientUnits="userSpaceOnUse">
<stop stop-color="#4285F4"/>
<stop offset="1" stop-color="#1B74E8"/>
</linearGradient>
<clipPath id="clip0_568_385">
<rect width="173.67" height="47.9992" fill="white"/>
</clipPath>
</defs>
</svg>
