<svg width="174" height="29" viewBox="0 0 174 29" fill="none" xmlns="http://www.w3.org/2000/svg">
<g clip-path="url(#clip0_568_177)">
<path d="M159.526 0.283203H14.1409C6.48643 0.283203 0.28125 6.48838 0.28125 14.1429C0.28125 21.7973 6.48643 28.0025 14.1409 28.0025H159.526C167.18 28.0025 173.386 21.7973 173.386 14.1429C173.386 6.48838 167.18 0.283203 159.526 0.283203Z" fill="#1F1F1F"/>
<path d="M28.8499 12.4451H11.8789V9.61659C11.8789 8.08111 13.1245 6.78809 14.6036 6.78809H26.1252C27.6044 6.78809 28.8499 8.08111 28.8499 9.61659V12.4451Z" fill="#34A853"/>
<path d="M28.8499 14.739H11.8789V11.9105C11.8789 10.3751 13.1245 9.08203 14.6036 9.08203H26.1252C27.6044 9.08203 28.8499 10.3751 28.8499 11.9105V14.739Z" fill="#FBBC04"/>
<path d="M28.8499 17.1111H11.8789V14.2826C11.8789 12.7471 13.1245 11.4541 14.6036 11.4541H26.1252C27.6044 11.4541 28.8499 12.7471 28.8499 14.2826V17.1111Z" fill="#EA4335"/>
<path d="M11.8789 13.1664L22.6505 15.6576C23.8904 15.969 25.2852 15.6576 26.2927 14.8791L28.8499 13.0107V18.8494C28.8499 20.3285 27.61 21.4962 26.1377 21.4962H14.5912C13.1188 21.4962 11.8789 20.3285 11.8789 18.8494V13.1664Z" fill="url(#paint0_linear_568_177)"/>
<path d="M35.8086 18.102L38.8634 10.0012H40.2776L43.3437 18.102H41.9747L41.228 16.0202H37.9243L37.1776 18.102H35.8086ZM39.2367 12.3884L38.3429 14.8662H40.8094L39.9156 12.3884L39.6101 11.4607H39.5422L39.2367 12.3884ZM44.488 18.102V13.3954H43.4358V12.3319H44.488V11.8567C44.488 11.4494 44.5747 11.1024 44.7482 10.8158C44.9216 10.5216 45.1555 10.2991 45.4497 10.1483C45.7513 9.98986 46.0908 9.91066 46.4679 9.91066C46.6716 9.91066 46.845 9.92576 46.9884 9.95591C47.1392 9.97854 47.2636 10.0087 47.3617 10.0464V11.2344C47.2636 11.1967 47.1505 11.159 47.0223 11.1213C46.9016 11.076 46.7508 11.0534 46.5697 11.0534C46.3359 11.0534 46.1322 11.1326 45.9588 11.291C45.7853 11.4418 45.6986 11.6643 45.6986 11.9585V12.3319H47.1468V13.3954H45.6986V18.102H44.488ZM50.6001 18.283C50.0344 18.283 49.5291 18.151 49.0841 17.887C48.6391 17.623 48.2883 17.261 48.0319 16.8009C47.7829 16.3408 47.6585 15.8166 47.6585 15.2282C47.6585 14.6776 47.7792 14.1685 48.0205 13.7008C48.2619 13.2332 48.5975 12.8598 49.0275 12.5808C49.465 12.2941 49.9665 12.1508 50.5322 12.1508C51.1282 12.1508 51.6335 12.2791 52.0483 12.5355C52.4707 12.7919 52.7913 13.1427 53.01 13.5877C53.2288 14.0327 53.3381 14.5343 53.3381 15.0925C53.3381 15.1755 53.3344 15.2509 53.3268 15.3188C53.3268 15.3866 53.3231 15.4394 53.3155 15.4771H48.8578C48.9181 16.0504 49.118 16.4803 49.4574 16.7669C49.8044 17.0536 50.1966 17.1969 50.6341 17.1969C51.0263 17.1969 51.3506 17.1102 51.6071 16.9367C51.8636 16.7556 52.0672 16.5331 52.218 16.2691L53.225 16.7556C52.9761 17.2082 52.6367 17.5778 52.2067 17.8644C51.7768 18.1435 51.2413 18.283 50.6001 18.283ZM50.5436 13.1917C50.1363 13.1917 49.7893 13.3162 49.5027 13.5651C49.2161 13.814 49.0237 14.1459 48.9257 14.5607H52.1275C52.1125 14.3646 52.0483 14.1609 51.9352 13.9498C51.822 13.7386 51.6486 13.5613 51.4147 13.418C51.1885 13.2671 50.8981 13.1917 50.5436 13.1917ZM57.1293 20.7268C56.6241 20.7268 56.1864 20.6439 55.8168 20.4779C55.4547 20.3195 55.1606 20.1121 54.9343 19.8557C54.708 19.6068 54.5458 19.3503 54.4478 19.0863L55.5792 18.6111C55.6999 18.9128 55.8922 19.158 56.1562 19.3465C56.4277 19.5427 56.7519 19.6407 57.1293 19.6407C57.6571 19.6407 58.0723 19.4823 58.3738 19.1655C58.6833 18.8487 58.8377 18.4 58.8377 17.8191V17.2648H58.7698C58.5888 17.5363 58.3359 17.7551 58.0118 17.921C57.695 18.0794 57.3329 18.1586 56.9256 18.1586C56.4353 18.1586 55.9865 18.0341 55.5792 17.7852C55.1719 17.5363 54.8438 17.1894 54.5949 16.7443C54.346 16.2918 54.2215 15.7638 54.2215 15.1604C54.2215 14.5494 54.346 14.0214 54.5949 13.5764C54.8438 13.1238 55.1719 12.7731 55.5792 12.5242C55.9865 12.2753 56.4353 12.1508 56.9256 12.1508C57.3329 12.1508 57.695 12.2338 58.0118 12.3997C58.3359 12.5657 58.5888 12.7844 58.7698 13.056H58.8377V12.3319H60.003V17.7965C60.003 18.4226 59.8786 18.9543 59.6297 19.3918C59.3881 19.8293 59.0527 20.1611 58.6227 20.3874C58.1928 20.6137 57.695 20.7268 57.1293 20.7268ZM57.1406 17.0498C57.4421 17.0498 57.7216 16.9781 57.9778 16.8348C58.2341 16.684 58.4417 16.469 58.6001 16.1899C58.7585 15.9033 58.8377 15.5601 58.8377 15.1604C58.8377 14.7455 58.7585 14.3985 58.6001 14.1195C58.4417 13.8328 58.2341 13.6179 57.9778 13.4746C57.7216 13.3313 57.4421 13.2596 57.1406 13.2596C56.8391 13.2596 56.556 13.335 56.292 13.4859C56.0355 13.6292 55.8281 13.8404 55.6697 14.1195C55.5113 14.3985 55.4321 14.7455 55.4321 15.1604C55.4321 15.5677 55.5113 15.9146 55.6697 16.2012C55.8281 16.4803 56.0355 16.6915 56.292 16.8348C56.556 16.9781 56.8391 17.0498 57.1406 17.0498ZM64.0133 18.283C63.4476 18.283 62.9424 18.151 62.4972 17.887C62.0526 17.623 61.7018 17.261 61.445 16.8009C61.1961 16.3408 61.0716 15.8166 61.0716 15.2282C61.0716 14.6776 61.1927 14.1685 61.4337 13.7008C61.6752 13.2332 62.0107 12.8598 62.4406 12.5808C62.8785 12.2941 63.3797 12.1508 63.9454 12.1508C64.5416 12.1508 65.0468 12.2791 65.4615 12.5355C65.8841 12.7919 66.2048 13.1427 66.4232 13.5877C66.6421 14.0327 66.7513 14.5343 66.7513 15.0925C66.7513 15.1755 66.7479 15.2509 66.74 15.3188C66.74 15.3866 66.7366 15.4394 66.7286 15.4771H62.2709C62.3315 16.0504 62.5311 16.4803 62.8706 16.7669C63.2179 17.0536 63.6099 17.1969 64.0472 17.1969C64.4398 17.1969 64.764 17.1102 65.0202 16.9367C65.2771 16.7556 65.4807 16.5331 65.6312 16.2691L66.6381 16.7556C66.3892 17.2082 66.0498 17.5778 65.6199 17.8644C65.1899 18.1435 64.6548 18.283 64.0133 18.283ZM63.9567 13.1917C63.5494 13.1917 63.2026 13.3162 62.9158 13.5651C62.6296 13.814 62.4372 14.1459 62.3388 14.5607H65.5407C65.526 14.3646 65.4615 14.1609 65.3483 13.9498C65.2352 13.7386 65.0621 13.5613 64.8279 13.418C64.6016 13.2671 64.3114 13.1917 63.9567 13.1917ZM68.5864 11.4833C68.3601 11.4833 68.1644 11.4041 67.9981 11.2457C67.8397 11.0798 67.7605 10.8837 67.7605 10.6574C67.7605 10.4311 67.8397 10.2388 67.9981 10.0804C68.1644 9.92197 68.3601 9.84277 68.5864 9.84277C68.8127 9.84277 69.005 9.92197 69.1634 10.0804C69.3297 10.2388 69.4123 10.4311 69.4123 10.6574C69.4123 10.8837 69.3297 11.0798 69.1634 11.2457C69.005 11.4041 68.8127 11.4833 68.5864 11.4833ZM67.9754 18.102V12.3319H69.1974V18.102H67.9754ZM70.1477 18.102L72.1729 15.1717L70.1817 12.3319H71.5959L72.9084 14.2552L74.1529 12.3319H75.6237L73.5985 15.1717L75.635 18.102H74.2095L72.8857 16.122L71.5846 18.102H70.1477ZM80.943 18.283C80.5283 18.283 80.1584 18.2038 79.8342 18.0454C79.5101 17.8795 79.2572 17.6494 79.0762 17.3553C78.8952 17.0611 78.8046 16.7255 78.8046 16.3483C78.8046 15.941 78.9104 15.5941 79.1214 15.3074C79.3404 15.0133 79.6306 14.7908 79.9926 14.6399C80.3547 14.489 80.7546 14.4136 81.1919 14.4136C81.5539 14.4136 81.8707 14.4476 82.1423 14.5155C82.4212 14.5833 82.6327 14.655 82.7759 14.7304V14.4249C82.7759 14.0478 82.6401 13.7461 82.3686 13.5198C82.097 13.2935 81.7463 13.1804 81.3163 13.1804C81.0222 13.1804 80.7433 13.2483 80.4791 13.3841C80.2149 13.5123 80.0039 13.6895 79.8455 13.9158L79.0083 13.2709C79.2572 12.924 79.5853 12.6524 79.9926 12.4563C80.4073 12.2527 80.8598 12.1508 81.3503 12.1508C82.1875 12.1508 82.8324 12.3583 83.285 12.7731C83.7376 13.1804 83.9638 13.7536 83.9638 14.4928V18.102H82.7759V17.3892H82.708C82.5569 17.623 82.3307 17.8305 82.0291 18.0115C81.7276 18.1925 81.3656 18.283 80.943 18.283ZM81.158 17.2874C81.4747 17.2874 81.7536 17.212 81.9952 17.0611C82.2368 16.9102 82.4251 16.7142 82.5609 16.4728C82.704 16.2239 82.7759 15.9561 82.7759 15.6695C82.6022 15.5715 82.3985 15.4923 82.1649 15.4319C81.9313 15.364 81.6824 15.3301 81.4182 15.3301C80.9204 15.3301 80.5657 15.4319 80.3547 15.6355C80.1437 15.8317 80.0379 16.073 80.0379 16.3596C80.0379 16.6312 80.1397 16.8537 80.3433 17.0272C80.547 17.2007 80.8185 17.2874 81.158 17.2874Z" fill="white"/>
<path d="M92.4342 18.2832C91.8532 18.2832 91.3067 18.1776 90.7936 17.9664C90.2885 17.7552 89.8393 17.4611 89.4473 17.0839C89.0552 16.6992 88.7458 16.2505 88.5195 15.7375C88.3006 15.2171 88.1914 14.6552 88.1914 14.0518C88.1914 13.4483 88.3006 12.8902 88.5195 12.3773C88.7458 11.8568 89.0513 11.4081 89.436 11.0309C89.828 10.6462 90.2805 10.3483 90.7936 10.1371C91.3067 9.92593 91.8532 9.82031 92.4342 9.82031C93.0525 9.82031 93.6221 9.92966 94.1426 10.1484C94.6704 10.3672 95.1116 10.6727 95.4663 11.0649L94.6065 11.9134C94.3423 11.6192 94.0255 11.393 93.6561 11.2346C93.294 11.0762 92.8867 10.997 92.4342 10.997C91.8984 10.997 91.4046 11.1252 90.952 11.3816C90.4995 11.6306 90.1335 11.9851 89.8546 12.4452C89.583 12.8977 89.4473 13.4333 89.4473 14.0518C89.4473 14.6702 89.587 15.2096 89.8659 15.6697C90.1448 16.1222 90.5108 16.4767 90.9633 16.7332C91.4159 16.9821 91.9098 17.1065 92.4455 17.1065C92.9359 17.1065 93.3806 17.016 93.7805 16.835C94.1805 16.6464 94.5007 16.3824 94.7422 16.043C94.9911 15.7036 95.1422 15.2963 95.1948 14.8211H92.4229V13.7236H96.3601C96.4054 13.9273 96.428 14.1423 96.428 14.3685V14.3799C96.428 15.1643 96.2543 15.8507 95.9076 16.439C95.5681 17.0198 95.0969 17.4724 94.4933 17.7967C93.8897 18.121 93.2035 18.2832 92.4342 18.2832ZM100.071 18.2832C99.4754 18.2832 98.951 18.1474 98.4985 17.8759C98.0459 17.6043 97.6912 17.2385 97.435 16.7784C97.1787 16.3183 97.0503 15.7979 97.0503 15.2171C97.0503 14.6439 97.1787 14.1272 97.435 13.6671C97.6912 13.1994 98.0459 12.8298 98.4985 12.5583C98.951 12.2868 99.4754 12.151 100.071 12.151C100.659 12.151 101.18 12.2868 101.632 12.5583C102.085 12.8298 102.44 13.1994 102.696 13.6671C102.952 14.1272 103.081 14.6439 103.081 15.2171C103.081 15.7979 102.952 16.3183 102.696 16.7784C102.44 17.2385 102.085 17.6043 101.632 17.8759C101.18 18.1474 100.659 18.2832 100.071 18.2832ZM100.071 17.1631C100.388 17.1631 100.682 17.0877 100.954 16.9368C101.225 16.7784 101.444 16.5559 101.61 16.2693C101.783 15.9751 101.87 15.6244 101.87 15.2171C101.87 14.8098 101.783 14.4628 101.61 14.1762C101.444 13.882 101.225 13.6595 100.954 13.5087C100.682 13.3503 100.388 13.2711 100.071 13.2711C99.7543 13.2711 99.4562 13.3503 99.1773 13.5087C98.9058 13.6595 98.6835 13.882 98.5098 14.1762C98.344 14.4628 98.2609 14.8098 98.2609 15.2171C98.2609 15.6244 98.344 15.9751 98.5098 16.2693C98.6835 16.5559 98.9058 16.7784 99.1773 16.9368C99.4562 17.0877 99.7543 17.1631 100.071 17.1631ZM106.921 18.2832C106.325 18.2832 105.801 18.1474 105.349 17.8759C104.896 17.6043 104.542 17.2385 104.285 16.7784C104.029 16.3183 103.9 15.7979 103.9 15.2171C103.9 14.6439 104.029 14.1272 104.285 13.6671C104.542 13.1994 104.896 12.8298 105.349 12.5583C105.801 12.2868 106.325 12.151 106.921 12.151C107.51 12.151 108.03 12.2868 108.483 12.5583C108.935 12.8298 109.29 13.1994 109.546 13.6671C109.803 14.1272 109.931 14.6439 109.931 15.2171C109.931 15.7979 109.803 16.3183 109.546 16.7784C109.29 17.2385 108.935 17.6043 108.483 17.8759C108.03 18.1474 107.51 18.2832 106.921 18.2832ZM106.921 17.1631C107.238 17.1631 107.532 17.0877 107.804 16.9368C108.075 16.7784 108.294 16.5559 108.46 16.2693C108.634 15.9751 108.72 15.6244 108.72 15.2171C108.72 14.8098 108.634 14.4628 108.46 14.1762C108.294 13.882 108.075 13.6595 107.804 13.5087C107.532 13.3503 107.238 13.2711 106.921 13.2711C106.604 13.2711 106.307 13.3503 106.027 13.5087C105.756 13.6595 105.534 13.882 105.36 14.1762C105.194 14.4628 105.111 14.8098 105.111 15.2171C105.111 15.6244 105.194 15.9751 105.36 16.2693C105.534 16.5559 105.756 16.7784 106.027 16.9368C106.307 17.0877 106.604 17.1631 106.921 17.1631ZM113.659 20.727C113.153 20.727 112.716 20.644 112.346 20.4781C111.984 20.3197 111.69 20.1123 111.464 19.8558C111.237 19.6069 111.075 19.3505 110.977 19.0865L112.109 18.6113C112.229 18.913 112.421 19.1582 112.686 19.3467C112.957 19.5428 113.281 19.6409 113.659 19.6409C114.186 19.6409 114.601 19.4825 114.903 19.1657C115.212 18.8489 115.367 18.4001 115.367 17.8193V17.2649H115.299C115.118 17.5365 114.865 17.7552 114.541 17.9211C114.224 18.0795 113.862 18.1587 113.455 18.1587C112.965 18.1587 112.516 18.0343 112.109 17.7854C111.701 17.5365 111.373 17.1895 111.124 16.7445C110.875 16.2919 110.751 15.764 110.751 15.1605C110.751 14.5496 110.875 14.0216 111.124 13.5766C111.373 13.124 111.701 12.7733 112.109 12.5244C112.516 12.2755 112.965 12.151 113.455 12.151C113.862 12.151 114.224 12.234 114.541 12.3999C114.865 12.5658 115.118 12.7846 115.299 13.0561H115.367V12.332H116.532V17.7967C116.532 18.4227 116.408 18.9545 116.159 19.392C115.918 19.8294 115.582 20.1613 115.152 20.3876C114.722 20.6139 114.224 20.727 113.659 20.727ZM113.67 17.05C113.972 17.05 114.25 16.9783 114.507 16.835C114.763 16.6841 114.971 16.4692 115.129 16.1901C115.288 15.9035 115.367 15.5603 115.367 15.1605C115.367 14.7457 115.288 14.3987 115.129 14.1196C114.971 13.833 114.763 13.618 114.507 13.4747C114.25 13.3314 113.972 13.2598 113.67 13.2598C113.368 13.2598 113.085 13.3352 112.821 13.4861C112.565 13.6293 112.358 13.8406 112.199 14.1196C112.041 14.3987 111.962 14.7457 111.962 15.1605C111.962 15.5678 112.041 15.9148 112.199 16.2014C112.358 16.4805 112.565 16.6917 112.821 16.835C113.085 16.9783 113.368 17.05 113.67 17.05ZM117.973 18.1022V10.0013H119.195V18.1022H117.973ZM123.217 18.2832C122.651 18.2832 122.145 18.1512 121.701 17.8872C121.255 17.6232 120.905 17.2611 120.648 16.8011C120.4 16.341 120.275 15.8167 120.275 15.2284C120.275 14.6778 120.396 14.1687 120.637 13.701C120.878 13.2334 121.214 12.86 121.644 12.5809C122.081 12.2943 122.583 12.151 123.149 12.151C123.745 12.151 124.25 12.2792 124.665 12.5357C125.087 12.7921 125.408 13.1428 125.627 13.5879C125.845 14.0329 125.955 14.5345 125.955 15.0926C125.955 15.1756 125.951 15.251 125.943 15.3189C125.943 15.3868 125.939 15.4396 125.932 15.4773H121.474C121.534 16.0505 121.735 16.4805 122.074 16.7671C122.421 17.0538 122.813 17.197 123.251 17.197C123.643 17.197 123.967 17.1103 124.224 16.9368C124.48 16.7558 124.684 16.5333 124.835 16.2693L125.842 16.7558C125.593 17.2084 125.253 17.5779 124.823 17.8646C124.393 18.1436 123.858 18.2832 123.217 18.2832ZM123.16 13.1919C122.753 13.1919 122.406 13.3163 122.119 13.5652C121.832 13.8142 121.64 14.1461 121.542 14.5609H124.744C124.729 14.3648 124.665 14.1611 124.552 13.9499C124.439 13.7387 124.265 13.5615 124.031 13.4182C123.805 13.2673 123.514 13.1919 123.16 13.1919ZM130.928 18.1022L128.756 10.0013H130.136L131.426 15.2623L131.561 15.9638H131.629L131.799 15.2623L133.428 10.0013H134.673L136.234 15.2623L136.404 15.9525H136.472L136.607 15.2623L137.897 10.0013H139.266L137.128 18.1022H135.815L134.265 12.728L134.084 11.97H134.017L133.824 12.728L132.206 18.1022H130.928ZM141.538 18.2832C141.123 18.2832 140.754 18.204 140.429 18.0456C140.105 17.8797 139.852 17.6496 139.671 17.3554C139.49 17.0613 139.4 16.7256 139.4 16.3485C139.4 15.9412 139.506 15.5942 139.717 15.3076C139.935 15.0134 140.226 14.791 140.588 14.6401C140.95 14.4892 141.35 14.4138 141.787 14.4138C142.149 14.4138 142.466 14.4477 142.737 14.5156C143.017 14.5835 143.228 14.6552 143.371 14.7306V14.4251C143.371 14.048 143.235 13.7463 142.964 13.52C142.692 13.2937 142.341 13.1806 141.911 13.1806C141.617 13.1806 141.338 13.2485 141.074 13.3842C140.811 13.5125 140.599 13.6897 140.441 13.916L139.603 13.2711C139.852 12.9241 140.18 12.6526 140.588 12.4565C141.003 12.2528 141.455 12.151 141.945 12.151C142.783 12.151 143.428 12.3584 143.88 12.7733C144.333 13.1806 144.559 13.7538 144.559 14.493V18.1022H143.371V17.3894H143.303C143.153 17.6232 142.926 17.8306 142.624 18.0117C142.323 18.1927 141.961 18.2832 141.538 18.2832ZM141.753 17.2876C142.07 17.2876 142.349 17.2121 142.59 17.0613C142.832 16.9104 143.02 16.7143 143.156 16.4729C143.3 16.224 143.371 15.9563 143.371 15.6697C143.198 15.5716 142.994 15.4924 142.76 15.4321C142.526 15.3642 142.277 15.3302 142.013 15.3302C141.515 15.3302 141.161 15.4321 140.95 15.6357C140.739 15.8318 140.633 16.0732 140.633 16.3598C140.633 16.6313 140.735 16.8538 140.938 17.0273C141.142 17.2008 141.414 17.2876 141.753 17.2876ZM145.915 18.1022V10.0013H147.137V18.1022H145.915ZM148.59 18.1022V10.0013H149.811V18.1022H148.59ZM153.833 18.2832C153.267 18.2832 152.762 18.1512 152.317 17.8872C151.872 17.6232 151.521 17.2611 151.265 16.8011C151.016 16.341 150.891 15.8167 150.891 15.2284C150.891 14.6778 151.012 14.1687 151.253 13.701C151.494 13.2334 151.83 12.86 152.26 12.5809C152.698 12.2943 153.199 12.151 153.765 12.151C154.361 12.151 154.866 12.2792 155.281 12.5357C155.703 12.7921 156.024 13.1428 156.243 13.5879C156.461 14.0329 156.571 14.5345 156.571 15.0926C156.571 15.1756 156.567 15.251 156.56 15.3189C156.56 15.3868 156.556 15.4396 156.548 15.4773H152.091C152.151 16.0505 152.351 16.4805 152.69 16.7671C153.037 17.0538 153.429 17.197 153.867 17.197C154.259 17.197 154.583 17.1103 154.84 16.9368C155.096 16.7558 155.3 16.5333 155.451 16.2693L156.458 16.7558C156.209 17.2084 155.87 17.5779 155.44 17.8646C155.01 18.1436 154.474 18.2832 153.833 18.2832ZM153.776 13.1919C153.369 13.1919 153.022 13.3163 152.736 13.5652C152.449 13.8142 152.256 14.1461 152.159 14.5609H155.36C155.345 14.3648 155.281 14.1611 155.168 13.9499C155.055 13.7387 154.881 13.5615 154.648 13.4182C154.421 13.2673 154.131 13.1919 153.776 13.1919ZM158.15 16.4277V13.3955H157.143V12.332H158.15V10.7028H159.372V12.332H160.786V13.3955H159.372V16.1675C159.372 16.4541 159.428 16.6728 159.541 16.8237C159.662 16.9746 159.862 17.05 160.141 17.05C160.284 17.05 160.405 17.0311 160.503 16.9934C160.608 16.9557 160.714 16.9029 160.82 16.835V18.023C160.692 18.0757 160.556 18.1173 160.413 18.1474C160.269 18.1776 160.099 18.1927 159.904 18.1927C159.368 18.1927 158.942 18.0381 158.625 17.7288C158.308 17.412 158.15 16.9783 158.15 16.4277Z" fill="white"/>
<path d="M159.526 0.283203H14.1409C6.48643 0.283203 0.28125 6.48838 0.28125 14.1429C0.28125 21.7973 6.48643 28.0025 14.1409 28.0025H159.526C167.18 28.0025 173.386 21.7973 173.386 14.1429C173.386 6.48838 167.18 0.283203 159.526 0.283203Z" stroke="#747775"/>
</g>
<defs>
<linearGradient id="paint0_linear_568_177" x1="19.5556" y1="17.4155" x2="10.5953" y2="27.6699" gradientUnits="userSpaceOnUse">
<stop stop-color="#4285F4"/>
<stop offset="1" stop-color="#1B74E8"/>
</linearGradient>
<clipPath id="clip0_568_177">
<rect width="173.67" height="28.285" fill="white"/>
</clipPath>
</defs>
</svg>
