<svg width="174" height="31" viewBox="0 0 174 31" fill="none" xmlns="http://www.w3.org/2000/svg">
<g clip-path="url(#clip0_568_31)">
<path d="M158.33 0.306641H15.3436C7.04001 0.306641 0.308594 7.03806 0.308594 15.3417C0.308594 23.6453 7.04001 30.3767 15.3436 30.3767H158.33C166.633 30.3767 173.365 23.6453 173.365 15.3417C173.365 7.03806 166.633 0.306641 158.33 0.306641Z" fill="#1F1F1F"/>
<path d="M31.297 13.501H12.8867V10.4326C12.8867 8.76693 14.2379 7.36426 15.8425 7.36426H28.3412C29.9458 7.36426 31.297 8.76693 31.297 10.4326V13.501Z" fill="#34A853"/>
<path d="M31.297 15.9883H12.8867V12.9199C12.8867 11.2542 14.2379 9.85156 15.8425 9.85156H28.3412C29.9458 9.85156 31.297 11.2542 31.297 12.9199V15.9883Z" fill="#FBBC04"/>
<path d="M31.297 18.5616H12.8867V15.4932C12.8867 13.8275 14.2379 12.4248 15.8425 12.4248H28.3412C29.9458 12.4248 31.297 13.8275 31.297 15.4932V18.5616Z" fill="#EA4335"/>
<path d="M12.8867 14.2831L24.5718 16.9856C25.9168 17.3234 27.43 16.9856 28.5228 16.1411L31.297 14.1143V20.4481C31.297 22.0526 29.9519 23.3194 28.3547 23.3194H15.829C14.2318 23.3194 12.8867 22.0526 12.8867 20.4481V14.2831Z" fill="url(#paint0_linear_568_31)"/>
<path d="M38.8438 19.6374L42.1576 10.8496H43.6918L47.0179 19.6374H45.5328L44.7228 17.3791H41.1389L40.3288 19.6374H38.8438ZM42.5626 13.4393L41.593 16.1272H44.2686L43.299 13.4393L42.9676 12.4329H42.894L42.5626 13.4393ZM50.4746 19.8338C49.91 19.8338 49.3987 19.6947 48.9404 19.4165C48.4904 19.1301 48.1304 18.7374 47.8604 18.2383C47.5985 17.7309 47.4676 17.1541 47.4676 16.5077C47.4676 15.8613 47.5985 15.2885 47.8604 14.7894C48.1304 14.2903 48.4904 13.8975 48.9404 13.6111C49.3987 13.3247 49.91 13.1816 50.4746 13.1816C50.9574 13.1816 51.3706 13.2879 51.7142 13.5007C52.066 13.7134 52.3238 13.9548 52.4875 14.2248H52.5611L52.4875 13.3534V10.8496H53.8007V19.6374H52.5611V18.8028H52.4875C52.3238 19.0729 52.066 19.3142 51.7142 19.527C51.3706 19.7315 50.9574 19.8338 50.4746 19.8338ZM50.671 18.6187C50.9983 18.6187 51.3051 18.5328 51.5915 18.361C51.8861 18.1892 52.1193 17.9478 52.2911 17.6369C52.4711 17.3177 52.5611 16.9414 52.5611 16.5077C52.5611 16.074 52.4711 15.7018 52.2911 15.3908C52.1193 15.0717 51.8861 14.8262 51.5915 14.6544C51.3051 14.4826 50.9983 14.3966 50.671 14.3966C50.3437 14.3966 50.0369 14.4826 49.7505 14.6544C49.4641 14.8262 49.2309 15.0717 49.0509 15.3908C48.8709 15.7018 48.7809 16.074 48.7809 16.5077C48.7809 16.9414 48.8709 17.3177 49.0509 17.6369C49.2309 17.9478 49.4641 18.1892 49.7505 18.361C50.0369 18.5328 50.3437 18.6187 50.671 18.6187ZM57.9778 19.8338C57.4132 19.8338 56.9017 19.6947 56.4436 19.4165C55.9935 19.1301 55.6335 18.7374 55.3635 18.2383C55.1017 17.7309 54.9708 17.1541 54.9708 16.5077C54.9708 15.8613 55.1017 15.2885 55.3635 14.7894C55.6335 14.2903 55.9935 13.8975 56.4436 13.6111C56.9017 13.3247 57.4132 13.1816 57.9778 13.1816C58.4605 13.1816 58.8737 13.2879 59.2174 13.5007C59.5692 13.7134 59.827 13.9548 59.9906 14.2248H60.0643L59.9906 13.3534V10.8496H61.3039V19.6374H60.0643V18.8028H59.9906C59.827 19.0729 59.5692 19.3142 59.2174 19.527C58.8737 19.7315 58.4605 19.8338 57.9778 19.8338ZM58.1741 18.6187C58.5014 18.6187 58.8083 18.5328 59.0947 18.361C59.3892 18.1892 59.6224 17.9478 59.7942 17.6369C59.9742 17.3177 60.0643 16.9414 60.0643 16.5077C60.0643 16.074 59.9742 15.7018 59.7942 15.3908C59.6224 15.0717 59.3892 14.8262 59.0947 14.6544C58.8083 14.4826 58.5014 14.3966 58.1741 14.3966C57.8468 14.3966 57.54 14.4826 57.2536 14.6544C56.9672 14.8262 56.734 15.0717 56.554 15.3908C56.374 15.7018 56.284 16.074 56.284 16.5077C56.284 16.9414 56.374 17.3177 56.554 17.6369C56.734 17.9478 56.9672 18.1892 57.2536 18.361C57.54 18.5328 57.8468 18.6187 58.1741 18.6187ZM66.3928 17.821V14.5317H65.3005V13.3779H66.3928V11.6106H67.7184V13.3779H69.2526V14.5317H67.7184V17.5387C67.7184 17.8496 67.7798 18.0869 67.9025 18.2505C68.0332 18.4142 68.2498 18.496 68.553 18.496C68.7082 18.496 68.839 18.4756 68.9457 18.4346C69.0599 18.3937 69.1746 18.3364 69.2894 18.2628V19.5515C69.1501 19.6088 69.0028 19.6538 68.8475 19.6865C68.6917 19.7192 68.5076 19.7356 68.2952 19.7356C67.7141 19.7356 67.252 19.5679 66.9083 19.2324C66.5647 18.8888 66.3928 18.4182 66.3928 17.821ZM73.2298 19.8338C72.5836 19.8338 72.0147 19.6865 71.5238 19.392C71.0328 19.0974 70.6487 18.7005 70.3701 18.2014C70.0921 17.7023 69.9528 17.1378 69.9528 16.5077C69.9528 15.8859 70.0921 15.3253 70.3701 14.8262C70.6487 14.3189 71.0328 13.918 71.5238 13.6234C72.0147 13.3289 72.5836 13.1816 73.2298 13.1816C73.868 13.1816 74.4326 13.3289 74.9235 13.6234C75.4145 13.918 75.7993 14.3189 76.0772 14.8262C76.3559 15.3253 76.4945 15.8859 76.4945 16.5077C76.4945 17.1378 76.3559 17.7023 76.0772 18.2014C75.7993 18.7005 75.4145 19.0974 74.9235 19.392C74.4326 19.6865 73.868 19.8338 73.2298 19.8338ZM73.2298 18.6187C73.5735 18.6187 73.8926 18.5369 74.1871 18.3733C74.4817 18.2014 74.7192 17.9601 74.899 17.6491C75.0874 17.33 75.1813 16.9495 75.1813 16.5077C75.1813 16.0658 75.0874 15.6895 74.899 15.3785C74.7192 15.0594 74.4817 14.8181 74.1871 14.6544C73.8926 14.4826 73.5735 14.3966 73.2298 14.3966C72.8861 14.3966 72.5633 14.4826 72.2602 14.6544C71.9656 14.8181 71.7245 15.0594 71.5361 15.3785C71.3562 15.6895 71.266 16.0658 71.266 16.5077C71.266 16.9495 71.3562 17.33 71.5361 17.6491C71.7245 17.9601 71.9656 18.2014 72.2602 18.3733C72.5633 18.5369 72.8861 18.6187 73.2298 18.6187Z" fill="white"/>
<path d="M85.5479 19.8339C84.9176 19.8339 84.3248 19.7193 83.7682 19.4902C83.2202 19.2612 82.7329 18.942 82.3077 18.5329C81.8824 18.1156 81.5467 17.6288 81.3012 17.0724C81.0638 16.5078 80.9453 15.8982 80.9453 15.2436C80.9453 14.589 81.0638 13.9835 81.3012 13.4271C81.5467 12.8625 81.8781 12.3757 82.2954 11.9666C82.7207 11.5493 83.2116 11.2261 83.7682 10.997C84.3248 10.7679 84.9176 10.6533 85.5479 10.6533C86.2186 10.6533 86.8366 10.7719 87.4012 11.0093C87.9737 11.2466 88.4524 11.5779 88.8372 12.0034L87.9044 12.9239C87.6178 12.6048 87.2741 12.3593 86.8734 12.1875C86.4807 12.0157 86.0388 11.9298 85.5479 11.9298C84.9667 11.9298 84.431 12.0689 83.94 12.3471C83.4491 12.6171 83.0521 13.0017 82.7495 13.5008C82.455 13.9917 82.3077 14.5727 82.3077 15.2436C82.3077 15.9145 82.4593 16.4996 82.7618 16.9987C83.0643 17.4897 83.4614 17.8742 83.9523 18.1524C84.4433 18.4224 84.979 18.5575 85.5602 18.5575C86.0922 18.5575 86.5746 18.4593 87.0084 18.2629C87.4423 18.0584 87.7896 17.7719 88.0517 17.4037C88.3217 17.0355 88.4855 16.5937 88.5426 16.0782H85.5356V14.8877H89.8068C89.8559 15.1086 89.8804 15.3418 89.8804 15.5873V15.5995C89.8804 16.4505 89.692 17.1951 89.3158 17.8333C88.9476 18.4634 88.4364 18.9543 87.7817 19.3061C87.1269 19.658 86.3825 19.8339 85.5479 19.8339ZM93.8325 19.8339C93.1863 19.8339 92.6174 19.6866 92.1265 19.3921C91.6355 19.0975 91.2508 18.7006 90.9728 18.2015C90.6948 17.7024 90.5555 17.1378 90.5555 16.5078C90.5555 15.8859 90.6948 15.3254 90.9728 14.8263C91.2508 14.319 91.6355 13.9181 92.1265 13.6235C92.6174 13.3289 93.1863 13.1817 93.8325 13.1817C94.4707 13.1817 95.0353 13.3289 95.5262 13.6235C96.0172 13.9181 96.4019 14.319 96.6799 14.8263C96.9579 15.3254 97.0972 15.8859 97.0972 16.5078C97.0972 17.1378 96.9579 17.7024 96.6799 18.2015C96.4019 18.7006 96.0172 19.0975 95.5262 19.3921C95.0353 19.6866 94.4707 19.8339 93.8325 19.8339ZM93.8325 18.6188C94.1761 18.6188 94.4953 18.537 94.7898 18.3734C95.0844 18.2015 95.3219 17.9602 95.5017 17.6492C95.6901 17.3301 95.784 16.9496 95.784 16.5078C95.784 16.0659 95.6901 15.6896 95.5017 15.3786C95.3219 15.0595 95.0844 14.8181 94.7898 14.6545C94.4953 14.4827 94.1761 14.3967 93.8325 14.3967C93.4888 14.3967 93.1654 14.4827 92.8629 14.6545C92.5683 14.8181 92.3271 15.0595 92.1387 15.3786C91.9589 15.6896 91.8687 16.0659 91.8687 16.5078C91.8687 16.9496 91.9589 17.3301 92.1387 17.6492C92.3271 17.9602 92.5683 18.2015 92.8629 18.3734C93.1654 18.537 93.4888 18.6188 93.8325 18.6188ZM101.263 19.8339C100.617 19.8339 100.048 19.6866 99.5575 19.3921C99.0665 19.0975 98.6824 18.7006 98.4038 18.2015C98.1258 17.7024 97.9865 17.1378 97.9865 16.5078C97.9865 15.8859 98.1258 15.3254 98.4038 14.8263C98.6824 14.319 99.0665 13.9181 99.5575 13.6235C100.048 13.3289 100.617 13.1817 101.263 13.1817C101.902 13.1817 102.466 13.3289 102.957 13.6235C103.448 13.9181 103.833 14.319 104.111 14.8263C104.39 15.3254 104.528 15.8859 104.528 16.5078C104.528 17.1378 104.39 17.7024 104.111 18.2015C103.833 18.7006 103.448 19.0975 102.957 19.3921C102.466 19.6866 101.902 19.8339 101.263 19.8339ZM101.263 18.6188C101.607 18.6188 101.926 18.537 102.221 18.3734C102.515 18.2015 102.753 17.9602 102.933 17.6492C103.121 17.3301 103.215 16.9496 103.215 16.5078C103.215 16.0659 103.121 15.6896 102.933 15.3786C102.753 15.0595 102.515 14.8181 102.221 14.6545C101.926 14.4827 101.607 14.3967 101.263 14.3967C100.92 14.3967 100.597 14.4827 100.294 14.6545C99.9993 14.8181 99.7581 15.0595 99.5697 15.3786C99.3899 15.6896 99.2997 16.0659 99.2997 16.5078C99.2997 16.9496 99.3899 17.3301 99.5697 17.6492C99.7581 17.9602 99.9993 18.2015 100.294 18.3734C100.597 18.537 100.92 18.6188 101.263 18.6188ZM108.572 22.485C108.024 22.485 107.549 22.3949 107.149 22.215C106.756 22.0431 106.437 21.8181 106.191 21.5399C105.946 21.2699 105.77 20.9917 105.664 20.7053L106.891 20.1898C107.022 20.5171 107.23 20.7831 107.517 20.9876C107.811 21.2004 108.163 21.3067 108.572 21.3067C109.145 21.3067 109.595 21.1349 109.922 20.7912C110.257 20.4476 110.426 19.9607 110.426 19.3307V18.7293H110.352C110.156 19.0238 109.881 19.2612 109.53 19.4411C109.186 19.613 108.793 19.6989 108.351 19.6989C107.819 19.6989 107.333 19.5639 106.891 19.2939C106.449 19.0238 106.093 18.6475 105.823 18.1647C105.553 17.6738 105.418 17.101 105.418 16.4464C105.418 15.7836 105.553 15.2109 105.823 14.7281C106.093 14.2372 106.449 13.8567 106.891 13.5867C107.333 13.3167 107.819 13.1817 108.351 13.1817C108.793 13.1817 109.186 13.2717 109.53 13.4517C109.881 13.6317 110.156 13.869 110.352 14.1635H110.426V13.378H111.69V19.3061C111.69 19.9853 111.555 20.5621 111.285 21.0367C111.023 21.5113 110.659 21.8713 110.192 22.1168C109.726 22.3622 109.186 22.485 108.572 22.485ZM108.585 18.4961C108.912 18.4961 109.214 18.4183 109.493 18.2629C109.771 18.0992 109.996 17.866 110.168 17.5633C110.34 17.2524 110.426 16.8801 110.426 16.4464C110.426 15.9964 110.34 15.62 110.168 15.3172C109.996 15.0063 109.771 14.7731 109.493 14.6177C109.214 14.4622 108.912 14.3845 108.585 14.3845C108.257 14.3845 107.95 14.4663 107.664 14.6299C107.385 14.7854 107.161 15.0145 106.989 15.3172C106.817 15.62 106.731 15.9964 106.731 16.4464C106.731 16.8883 106.817 17.2646 106.989 17.5756C107.161 17.8783 107.385 18.1074 107.664 18.2629C107.95 18.4183 108.257 18.4961 108.585 18.4961ZM113.253 19.6375V10.8497H114.578V19.6375H113.253ZM118.941 19.8339C118.327 19.8339 117.779 19.6907 117.296 19.4043C116.813 19.1179 116.433 18.7252 116.155 18.2261C115.885 17.727 115.75 17.1583 115.75 16.5201C115.75 15.9228 115.881 15.3705 116.143 14.8631C116.404 14.3558 116.769 13.9508 117.235 13.6481C117.709 13.3371 118.254 13.1817 118.867 13.1817C119.514 13.1817 120.062 13.3208 120.512 13.599C120.97 13.8771 121.318 14.2576 121.555 14.7404C121.792 15.2232 121.911 15.7673 121.911 16.3728C121.911 16.4628 121.907 16.5446 121.899 16.6182C121.899 16.6919 121.895 16.7491 121.887 16.7901H117.051C117.116 17.4119 117.333 17.8783 117.701 18.1892C118.078 18.5002 118.503 18.6556 118.978 18.6556C119.403 18.6556 119.755 18.5616 120.033 18.3734C120.311 18.177 120.532 17.9356 120.696 17.6492L121.788 18.177C121.518 18.6679 121.15 19.0688 120.684 19.3798C120.217 19.6825 119.636 19.8339 118.941 19.8339ZM118.88 14.3108C118.438 14.3108 118.061 14.4458 117.75 14.7158C117.439 14.9859 117.231 15.3459 117.125 15.7959H120.598C120.581 15.5832 120.512 15.3622 120.389 15.1331C120.267 14.9041 120.078 14.7117 119.825 14.5563C119.579 14.3926 119.264 14.3108 118.88 14.3108ZM127.306 19.6375L124.949 10.8497H126.447L127.846 16.5569L127.993 17.3178H128.067L128.251 16.5569L130.018 10.8497H131.369L133.062 16.5569L133.246 17.3056H133.32L133.467 16.5569L134.866 10.8497H136.352L134.032 19.6375H132.608L130.927 13.8076L130.73 12.9853H130.657L130.448 13.8076L128.693 19.6375H127.306ZM138.816 19.8339C138.366 19.8339 137.966 19.748 137.613 19.5762C137.262 19.3962 136.987 19.1466 136.791 18.8275C136.595 18.5084 136.496 18.1443 136.496 17.7351C136.496 17.2933 136.611 16.9169 136.84 16.606C137.078 16.2869 137.392 16.0455 137.785 15.8818C138.178 15.7182 138.612 15.6364 139.086 15.6364C139.479 15.6364 139.823 15.6732 140.117 15.7468C140.42 15.8205 140.649 15.8982 140.804 15.98V15.6486C140.804 15.2395 140.657 14.9122 140.363 14.6668C140.068 14.4213 139.688 14.2985 139.221 14.2985C138.902 14.2985 138.599 14.3722 138.313 14.5195C138.027 14.6586 137.797 14.8509 137.626 15.0963L136.717 14.3967C136.987 14.0204 137.343 13.7258 137.785 13.513C138.236 13.2921 138.726 13.1817 139.258 13.1817C140.166 13.1817 140.866 13.4067 141.357 13.8567C141.848 14.2985 142.093 14.9204 142.093 15.7223V19.6375H140.804V18.8643H140.731C140.568 19.1179 140.322 19.343 139.994 19.5393C139.667 19.7357 139.274 19.8339 138.816 19.8339ZM139.049 18.7538C139.393 18.7538 139.696 18.672 139.958 18.5084C140.22 18.3447 140.424 18.132 140.571 17.8701C140.727 17.6001 140.804 17.3097 140.804 16.9987C140.617 16.8924 140.396 16.8065 140.142 16.741C139.888 16.6673 139.618 16.6305 139.332 16.6305C138.792 16.6305 138.407 16.741 138.178 16.9619C137.949 17.1747 137.834 17.4365 137.834 17.7474C137.834 18.042 137.945 18.2833 138.166 18.4715C138.387 18.6598 138.681 18.7538 139.049 18.7538ZM143.565 19.6375V10.8497H144.89V19.6375H143.565ZM146.466 19.6375V10.8497H147.791V19.6375H146.466ZM152.154 19.8339C151.54 19.8339 150.991 19.6907 150.509 19.4043C150.026 19.1179 149.646 18.7252 149.368 18.2261C149.098 17.727 148.963 17.1583 148.963 16.5201C148.963 15.9228 149.093 15.3705 149.355 14.8631C149.617 14.3558 149.981 13.9508 150.448 13.6481C150.922 13.3371 151.466 13.1817 152.08 13.1817C152.726 13.1817 153.274 13.3208 153.725 13.599C154.183 13.8771 154.53 14.2576 154.768 14.7404C155.005 15.2232 155.124 15.7673 155.124 16.3728C155.124 16.4628 155.12 16.5446 155.112 16.6182C155.112 16.6919 155.107 16.7491 155.099 16.7901H150.264C150.329 17.4119 150.546 17.8783 150.914 18.1892C151.29 18.5002 151.716 18.6556 152.191 18.6556C152.616 18.6556 152.967 18.5616 153.246 18.3734C153.524 18.177 153.745 17.9356 153.909 17.6492L155.001 18.177C154.731 18.6679 154.363 19.0688 153.897 19.3798C153.43 19.6825 152.849 19.8339 152.154 19.8339ZM152.092 14.3108C151.65 14.3108 151.274 14.4458 150.963 14.7158C150.652 14.9859 150.443 15.3459 150.337 15.7959H153.811C153.794 15.5832 153.725 15.3622 153.602 15.1331C153.479 14.9041 153.291 14.7117 153.037 14.5563C152.792 14.3926 152.476 14.3108 152.092 14.3108ZM156.837 17.821V14.5317H155.744V13.378H156.837V11.6107H158.162V13.378H159.696V14.5317H158.162V17.5388C158.162 17.8497 158.224 18.0869 158.346 18.2506C158.477 18.4143 158.694 18.4961 158.997 18.4961C159.152 18.4961 159.283 18.4757 159.39 18.4347C159.504 18.3938 159.618 18.3365 159.733 18.2629V19.5516C159.594 19.6089 159.447 19.6539 159.291 19.6866C159.135 19.7193 158.951 19.7357 158.739 19.7357C158.158 19.7357 157.696 19.568 157.352 19.2325C157.008 18.8888 156.837 18.4183 156.837 17.821Z" fill="white"/>
<path d="M158.33 0.306641H15.3436C7.04001 0.306641 0.308594 7.03806 0.308594 15.3417C0.308594 23.6453 7.04001 30.3767 15.3436 30.3767H158.33C166.633 30.3767 173.365 23.6453 173.365 15.3417C173.365 7.03806 166.633 0.306641 158.33 0.306641Z" stroke="#747775"/>
</g>
<defs>
<linearGradient id="paint0_linear_568_31" x1="21.2145" y1="18.8926" x2="11.4942" y2="30.0166" gradientUnits="userSpaceOnUse">
<stop stop-color="#4285F4"/>
<stop offset="1" stop-color="#1B74E8"/>
</linearGradient>
<clipPath id="clip0_568_31">
<rect width="173.67" height="30.6837" fill="white"/>
</clipPath>
</defs>
</svg>
