<svg width="174" height="30" viewBox="0 0 174 30" fill="none" xmlns="http://www.w3.org/2000/svg">
<g clip-path="url(#clip0_568_556)">
<path d="M158.852 0.295898H14.8188C6.79855 0.295898 0.296875 6.79757 0.296875 14.8178C0.296875 22.838 6.79855 29.3397 14.8188 29.3397H158.852C166.872 29.3397 173.374 22.838 173.374 14.8178C173.374 6.79757 166.872 0.295898 158.852 0.295898Z" fill="#1F1F1F"/>
<path d="M158.852 0.295898H14.8188C6.79855 0.295898 0.296875 6.79757 0.296875 14.8178C0.296875 22.838 6.79855 29.3397 14.8188 29.3397H158.852C166.872 29.3397 173.374 22.838 173.374 14.8178C173.374 6.79757 166.872 0.295898 158.852 0.295898Z" stroke="#747775"/>
<path d="M30.2311 13.0396H12.4492V10.076C12.4492 8.46711 13.7543 7.1123 15.3041 7.1123H27.3762C28.9261 7.1123 30.2311 8.46711 30.2311 10.076V13.0396Z" fill="#34A853"/>
<path d="M30.2311 15.4429H12.4492V12.4793C12.4492 10.8704 13.7543 9.51562 15.3041 9.51562H27.3762C28.9261 9.51562 30.2311 10.8704 30.2311 12.4793V15.4429Z" fill="#FBBC04"/>
<path d="M30.2311 17.9283H12.4492V14.9646C12.4492 13.3558 13.7543 12.001 15.3041 12.001H27.3762C28.9261 12.001 30.2311 13.3558 30.2311 14.9646V17.9283Z" fill="#EA4335"/>
<path d="M12.4492 13.7959L23.7355 16.4061C25.0346 16.7324 26.4961 16.4061 27.5517 15.5905L30.2311 13.6328V19.7504C30.2311 21.3003 28.932 22.5238 27.3893 22.5238H15.2911C13.7484 22.5238 12.4492 21.3003 12.4492 19.7504V13.7959Z" fill="#4285F4"/>
<path d="M43.8741 13.4428H43.2695C43.0166 13.4428 42.8902 13.5495 42.8902 13.7629C42.8902 13.8656 42.9257 13.9526 42.9969 14.0237C43.0759 14.087 43.1865 14.1581 43.3288 14.2371L43.6963 14.4386V16.525C43.6963 17.0388 43.5856 17.4892 43.3644 17.8765C43.151 18.2558 42.8467 18.5522 42.4516 18.7656C42.0643 18.9789 41.6059 19.0856 41.0764 19.0856C40.5548 19.0856 40.0965 18.9789 39.7013 18.7656C39.3141 18.5522 39.0098 18.2558 38.7885 17.8765C38.5751 17.4892 38.4684 17.0388 38.4684 16.525V14.6757C38.255 14.5413 38.093 14.3833 37.9824 14.2015C37.8717 14.0197 37.8164 13.8024 37.8164 13.5495C37.8164 13.1781 37.9389 12.8817 38.1839 12.6604C38.4289 12.4392 38.7806 12.3285 39.239 12.3285H39.891V13.4428H39.2864C39.0335 13.4428 38.907 13.5495 38.907 13.7629C38.907 13.8656 38.9426 13.9526 39.0137 14.0237C39.0848 14.087 39.1915 14.1581 39.3338 14.2371L39.7131 14.4386V16.525C39.7131 16.9597 39.8357 17.3114 40.0806 17.5801C40.3336 17.8409 40.6655 17.9713 41.0764 17.9713C41.4953 17.9713 41.8272 17.8409 42.0722 17.5801C42.3251 17.3114 42.4516 16.9597 42.4516 16.525V14.6757C42.2461 14.5413 42.0841 14.3833 41.9655 14.2015C41.8549 14.0197 41.7996 13.8024 41.7996 13.5495C41.7996 13.1781 41.9221 12.8817 42.167 12.6604C42.42 12.4392 42.7756 12.3285 43.234 12.3285H43.8741V13.4428ZM45.6884 13.8222C45.6884 13.3164 45.8188 12.9331 46.0796 12.6723C46.3483 12.4036 46.7158 12.2692 47.1821 12.2692H47.348L48.1897 12.9449L49.0314 12.2692H49.1974C49.4977 12.2692 49.7545 12.3364 49.9679 12.4708C50.1892 12.5972 50.3591 12.779 50.4777 13.0161H50.5132C50.7187 12.779 50.9598 12.5853 51.2364 12.4352C51.513 12.2851 51.837 12.21 52.2084 12.21C52.6589 12.21 53.0462 12.3088 53.3702 12.5063C53.7021 12.696 53.955 12.9687 54.1289 13.3243C54.3107 13.672 54.4015 14.079 54.4015 14.5453V18.9671H53.1568V14.5927C53.1568 14.2055 53.0462 13.8973 52.8249 13.6681C52.6036 13.4389 52.3072 13.3243 51.9358 13.3243C51.7145 13.3243 51.509 13.3717 51.3193 13.4665C51.1297 13.5614 50.9795 13.7036 50.8689 13.8933C50.7583 14.0751 50.7029 14.3043 50.7029 14.5809V18.9671H49.4582V13.9052C49.4582 13.7392 49.4187 13.6167 49.3396 13.5377C49.2606 13.4507 49.1539 13.4073 49.0195 13.4073L48.3083 13.9289H48.083L47.3718 13.4073C47.2453 13.4073 47.1386 13.4468 47.0517 13.5258C46.9727 13.6048 46.9331 13.7195 46.9331 13.8696V16.7503C46.9964 16.7344 47.0635 16.7266 47.1347 16.7266C47.4587 16.7266 47.7195 16.8333 47.9171 17.0466C48.1226 17.2521 48.2253 17.5248 48.2253 17.8646V17.9002C48.2253 18.2479 48.1067 18.5324 47.8696 18.7537C47.6405 18.975 47.3441 19.0856 46.9806 19.0856C46.5775 19.0856 46.2614 18.9671 46.0322 18.73C45.803 18.485 45.6884 18.161 45.6884 17.7579V13.8222ZM47.0043 18.3862C47.1308 18.3862 47.2335 18.3428 47.3125 18.2558C47.3994 18.161 47.4429 18.0464 47.4429 17.912V17.8528C47.4429 17.7105 47.3994 17.5959 47.3125 17.509C47.2335 17.4141 47.1268 17.3667 46.9924 17.3667C46.866 17.3667 46.7593 17.4141 46.6723 17.509C46.5933 17.5959 46.5538 17.7105 46.5538 17.8528V17.912C46.5538 18.0464 46.5933 18.161 46.6723 18.2558C46.7593 18.3428 46.8699 18.3862 47.0043 18.3862ZM51.6319 22.3931C51.1735 22.3931 50.7903 22.3101 50.482 22.1441C50.1738 21.986 49.9406 21.7845 49.7826 21.5395C49.6167 21.2946 49.5139 21.0495 49.4744 20.8045L50.3991 19.5598H51.549V19.6072L50.648 20.8164C50.7033 20.9902 50.8258 21.1523 51.0155 21.3024C51.1972 21.4526 51.4423 21.5277 51.7505 21.5277C52.0033 21.5277 52.2286 21.4842 52.4262 21.3973C52.5605 21.342 52.6712 21.2669 52.7581 21.172C52.6633 21.1325 52.5763 21.0772 52.4973 21.0061C52.3155 20.8401 52.2247 20.6228 52.2247 20.3541C52.2247 20.0933 52.3234 19.8759 52.521 19.7021C52.7107 19.5282 52.9438 19.4413 53.2205 19.4413C53.497 19.4413 53.7302 19.5282 53.9199 19.7021C54.1016 19.8839 54.1925 20.113 54.1925 20.3896C54.1925 20.5398 54.1649 20.686 54.1096 20.8283C54.1016 20.852 54.0937 20.8717 54.0858 20.8875L54.7141 21.0891V21.907H54.6549L53.6354 21.5751C53.4536 21.7727 53.2402 21.9386 52.9952 22.073C52.6159 22.2864 52.1614 22.3931 51.6319 22.3931ZM53.2086 20.7216C53.3113 20.7216 53.3983 20.686 53.4694 20.6149C53.5326 20.5437 53.5642 20.4568 53.5642 20.3541C53.5642 20.2592 53.5326 20.1763 53.4694 20.1051C53.3983 20.0419 53.3153 20.0103 53.2205 20.0103C53.1177 20.0103 53.0308 20.0419 52.9597 20.1051C52.8885 20.1763 52.853 20.2592 52.853 20.3541C52.853 20.4568 52.8885 20.5437 52.9597 20.6149C53.0308 20.686 53.1138 20.7216 53.2086 20.7216ZM52.8505 24.6573C52.4001 24.6573 52.0524 24.5506 51.8073 24.3372C51.5545 24.1238 51.428 23.8393 51.428 23.4837V23.3296H50.9775V22.6894H52.4475V23.4955C52.4475 23.622 52.487 23.7208 52.566 23.7919C52.6372 23.863 52.732 23.8986 52.8505 23.8986C52.9691 23.8986 53.0679 23.863 53.1469 23.7919C53.218 23.7208 53.2536 23.622 53.2536 23.4955V22.6894H54.2612V23.4837C54.2612 23.8393 54.1388 24.1238 53.8937 24.3372C53.6409 24.5506 53.2931 24.6573 52.8505 24.6573ZM56.3159 14.652C56.3159 14.162 56.4187 13.7352 56.6241 13.3717C56.8296 13.0002 57.122 12.7157 57.5013 12.5182C57.8807 12.3127 58.3193 12.21 58.8172 12.21C59.3307 12.21 59.7735 12.3127 60.1452 12.5182C60.5162 12.7157 60.8049 13.0002 61.0105 13.3717C61.2239 13.7352 61.3306 14.162 61.3306 14.652V16.6317C61.3306 17.0348 61.4409 17.3588 61.6625 17.6038C61.8913 17.8488 62.1877 17.9713 62.5516 17.9713C62.9227 17.9713 63.219 17.8488 63.4407 17.6038C63.6695 17.3588 63.7845 17.0348 63.7845 16.6317V14.6876C63.5628 14.5532 63.3815 14.3912 63.2392 14.2015C63.1047 14.0119 63.0377 13.7906 63.0377 13.5377C63.0377 13.1662 63.1681 12.8738 63.4289 12.6604C63.6897 12.4392 64.0572 12.3285 64.5314 12.3285H65.2071V13.4428H64.6025C64.3257 13.4428 64.1876 13.5495 64.1876 13.7629C64.1876 13.8736 64.2267 13.9605 64.3061 14.0237C64.3927 14.087 64.5076 14.1581 64.6499 14.2371L65.0292 14.4268V16.6317C65.0292 17.1217 64.9261 17.5524 64.721 17.9239C64.5154 18.2874 64.2267 18.5719 63.8556 18.7774C63.484 18.9829 63.0495 19.0856 62.5516 19.0856C62.0614 19.0856 61.6305 18.9829 61.2595 18.7774C60.8878 18.5719 60.5992 18.2874 60.3941 17.9239C60.1884 17.5524 60.0859 17.1217 60.0859 16.6317V14.6639C60.0859 14.2608 59.9709 13.9368 59.7421 13.6918C59.5127 13.4468 59.2045 13.3243 58.8172 13.3243C58.4379 13.3243 58.1336 13.4468 57.9044 13.6918C57.6752 13.9368 57.5606 14.2608 57.5606 14.6639V16.7503C57.6239 16.7344 57.691 16.7266 57.7621 16.7266C58.0862 16.7266 58.347 16.8333 58.5445 17.0466C58.75 17.2521 58.8528 17.5248 58.8528 17.8646V17.9002C58.8528 18.2479 58.7342 18.5324 58.4971 18.7537C58.268 18.975 57.9716 19.0856 57.608 19.0856C57.205 19.0856 56.8889 18.9671 56.6597 18.73C56.4305 18.485 56.3159 18.161 56.3159 17.7579V14.652ZM57.6317 18.3862C57.7582 18.3862 57.8609 18.3428 57.94 18.2558C58.0269 18.161 58.0704 18.0464 58.0704 17.912V17.8528C58.0704 17.7105 58.0269 17.5959 57.94 17.509C57.8609 17.4141 57.7543 17.3667 57.6199 17.3667C57.4935 17.3667 57.3868 17.4141 57.2998 17.509C57.2208 17.5959 57.1813 17.7105 57.1813 17.8528V17.912C57.1813 18.0464 57.2208 18.161 57.2998 18.2558C57.3868 18.3428 57.4974 18.3862 57.6317 18.3862ZM67.0244 13.7629C67.0244 13.2492 67.1548 12.8698 67.4156 12.6249C67.6764 12.372 68.0362 12.2455 68.4944 12.2455C68.7077 12.2455 68.8933 12.2692 69.0515 12.3166C69.2175 12.3641 69.3556 12.4155 69.4664 12.4708L69.1701 13.4784C69.1149 13.4389 69.0474 13.4073 68.9685 13.3836C68.8974 13.3599 68.8186 13.348 68.7314 13.348C68.6052 13.348 68.4944 13.3875 68.3995 13.4665C68.3124 13.5377 68.2691 13.6562 68.2691 13.8222V16.7384C68.3165 16.7384 68.364 16.7384 68.4114 16.7384C68.6959 16.7384 68.9288 16.8411 69.1108 17.0466C69.3005 17.2521 69.3953 17.5169 69.3953 17.8409V17.9002C69.3953 18.2637 69.2809 18.5522 69.0515 18.7656C68.8304 18.9789 68.5613 19.0856 68.2454 19.0856C67.8975 19.0856 67.6053 18.9789 67.3682 18.7656C67.1388 18.5522 67.0244 18.2281 67.0244 17.7935V13.7629ZM68.2454 18.3862C68.364 18.3862 68.4629 18.3428 68.5418 18.2558C68.6289 18.1689 68.6722 18.0543 68.6722 17.912V17.8409C68.6722 17.6986 68.6289 17.5841 68.5418 17.4971C68.4629 17.4102 68.3598 17.3667 68.2335 17.3667C68.115 17.3667 68.016 17.4102 67.9372 17.4971C67.8583 17.5841 67.8186 17.6986 67.8186 17.8409V17.912C67.8186 18.0543 67.8583 18.1689 67.9372 18.2558C68.016 18.3428 68.1192 18.3862 68.2454 18.3862ZM73.1473 19.0619C72.7365 19.0619 72.3726 18.9789 72.0567 18.813C71.7407 18.647 71.4918 18.4218 71.3098 18.1373C71.1361 17.8449 71.049 17.505 71.049 17.1178V16.9162H72.27V17.0941C72.27 17.3627 72.353 17.5841 72.519 17.7579C72.685 17.9239 72.8983 18.0069 73.1591 18.0069C73.4199 18.0069 73.6333 17.9239 73.7993 17.7579C73.9653 17.5841 74.0482 17.3627 74.0482 17.0941V16.5606L72.7679 16.3591C72.3489 16.2879 71.9778 16.1694 71.6536 16.0034C71.3294 15.8296 71.0727 15.6043 70.8831 15.3277C70.7011 15.0432 70.6104 14.7073 70.6104 14.3201C70.6104 13.8775 70.7171 13.4981 70.9305 13.182C71.1439 12.8659 71.4444 12.6209 71.8314 12.447C72.2268 12.2732 72.6808 12.1862 73.1947 12.1862C73.8188 12.1862 74.3446 12.3008 74.7714 12.53C75.2058 12.7513 75.5538 13.0042 75.8146 13.2887L74.9966 14.1067C74.8069 13.9012 74.558 13.7155 74.2498 13.5495C73.9492 13.3757 73.6019 13.2887 73.2066 13.2887C72.8035 13.2887 72.4793 13.3875 72.2345 13.5851C71.9897 13.7748 71.867 14.0316 71.867 14.3556C71.867 14.6876 71.9695 14.9325 72.1752 15.0906C72.3809 15.2408 72.6298 15.3435 72.922 15.3988L73.8586 15.553C73.8983 15.3633 73.989 15.1973 74.1312 15.0551C74.3286 14.8575 74.5698 14.7587 74.8543 14.7587C75.1389 14.7587 75.376 14.8575 75.5656 15.0551C75.7553 15.2447 75.8501 15.4779 75.8501 15.7545C75.8501 16.0232 75.7553 16.2524 75.5656 16.4421C75.4708 16.5369 75.3641 16.608 75.2455 16.6554V17.1059C75.2455 17.5011 75.1549 17.8449 74.9729 18.1373C74.7992 18.4218 74.5538 18.647 74.2379 18.813C73.922 18.9789 73.558 19.0619 73.1473 19.0619ZM78.1144 18.9671V14.6283C78.1144 14.2174 78.0077 13.917 77.7943 13.7273C77.5886 13.5377 77.2727 13.4428 76.8459 13.4428H76.3125V12.3285H76.9763C77.2768 12.3285 77.5216 12.3641 77.7113 12.4352C77.901 12.4984 78.0628 12.613 78.1973 12.779H78.2448V10.823C78.2448 10.5622 78.1144 10.4318 77.8536 10.4318H77.5335V9.4834H78.0077C78.4741 9.4834 78.8138 9.58612 79.0272 9.79162C79.2483 9.99712 79.3591 10.3251 79.3591 10.7756V18.9671H78.1144ZM74.8425 16.1338C74.9533 16.1338 75.0399 16.0983 75.1033 16.0271C75.1744 15.9481 75.21 15.8572 75.21 15.7545C75.21 15.6438 75.1744 15.553 75.1033 15.4818C75.0399 15.4107 74.9533 15.3751 74.8425 15.3751C74.7399 15.3751 74.6528 15.4107 74.5817 15.4818C74.5183 15.553 74.4869 15.6438 74.4869 15.7545C74.4869 15.8572 74.5183 15.9481 74.5817 16.0271C74.6528 16.0983 74.7399 16.1338 74.8425 16.1338Z" fill="white"/>
<path d="M88.5549 19.1573C87.9461 19.1573 87.3735 19.0466 86.8359 18.8254C86.2983 18.6041 85.8242 18.2959 85.4134 17.9007C85.0103 17.4976 84.6903 17.0274 84.4532 16.49C84.2238 15.9447 84.1094 15.3559 84.1094 14.7237C84.1094 14.0914 84.2238 13.5066 84.4532 12.9692C84.6903 12.4239 85.0103 11.9537 85.4134 11.5585C85.8242 11.1554 86.2983 10.8432 86.8359 10.622C87.3735 10.4007 87.9461 10.29 88.5549 10.29C89.2027 10.29 89.7996 10.4046 90.3449 10.6338C90.8979 10.863 91.3602 11.1831 91.7319 11.594L90.8309 12.4831C90.649 12.2776 90.4397 12.1038 90.2026 11.9615C89.9733 11.8193 89.7208 11.7126 89.4439 11.6415C89.1671 11.5625 88.8708 11.5229 88.5549 11.5229C88.1358 11.5229 87.7369 11.598 87.3575 11.7482C86.9782 11.8983 86.6421 12.1156 86.3499 12.4002C86.0654 12.6768 85.8401 13.0126 85.6742 13.4078C85.5082 13.795 85.4252 14.2337 85.4252 14.7237C85.4252 15.2137 85.5082 15.6562 85.6742 16.0514C85.8479 16.4386 86.0772 16.7745 86.3618 17.059C86.654 17.3356 86.99 17.549 87.3694 17.6992C87.7487 17.8493 88.1476 17.9244 88.5667 17.9244C88.9538 17.9244 89.3136 17.8691 89.6455 17.7584C89.9851 17.6478 90.2815 17.4898 90.5346 17.2843C90.7877 17.0788 90.9928 16.8298 91.151 16.5374C91.3093 16.2371 91.4077 15.9012 91.4474 15.5298H88.543V14.3799H92.6684C92.6844 14.4747 92.6998 14.5854 92.7158 14.7118C92.7318 14.8304 92.7395 14.9449 92.7395 15.0556V15.0674C92.7395 15.676 92.6328 16.2332 92.4195 16.7389C92.2138 17.2447 91.9257 17.6794 91.5541 18.043C91.1824 18.3986 90.7403 18.6752 90.2264 18.8728C89.7208 19.0624 89.1636 19.1573 88.5549 19.1573ZM96.5567 19.1573C95.9326 19.1573 95.3831 19.015 94.9089 18.7305C94.4347 18.446 94.0631 18.0627 93.7946 17.5806C93.5261 17.0906 93.3915 16.5453 93.3915 15.9447C93.3915 15.3441 93.5261 14.8027 93.7946 14.3206C94.0631 13.8306 94.4347 13.4434 94.9089 13.1589C95.3831 12.8743 95.9326 12.7321 96.5567 12.7321C97.1732 12.7321 97.7185 12.8783 98.1927 13.1707C98.6668 13.4552 99.0385 13.8385 99.307 14.3206C99.5755 14.8027 99.71 15.3441 99.71 15.9447C99.71 16.5453 99.5755 17.0906 99.307 17.5806C99.0385 18.0627 98.6668 18.446 98.1927 18.7305C97.7185 19.015 97.1732 19.1573 96.5567 19.1573ZM96.5567 17.9837C96.8886 17.9837 97.1969 17.9047 97.4814 17.7466C97.7659 17.5806 97.9953 17.3475 98.1689 17.0472C98.3509 16.7389 98.4416 16.3715 98.4416 15.9447C98.4416 15.5179 98.3509 15.1544 98.1689 14.8541C97.9953 14.5458 97.7659 14.3127 97.4814 14.1546C97.1969 13.9887 96.8886 13.9057 96.5567 13.9057C96.2248 13.9057 95.9124 13.9887 95.6202 14.1546C95.3357 14.3127 95.1027 14.5458 94.9208 14.8541C94.7471 15.1544 94.66 15.5179 94.66 15.9447C94.66 16.3715 94.7471 16.7389 94.9208 17.0472C95.1027 17.3475 95.3398 17.5806 95.6321 17.7466C95.9243 17.9047 96.2325 17.9837 96.5567 17.9837ZM103.734 19.1573C103.11 19.1573 102.56 19.015 102.086 18.7305C101.612 18.446 101.241 18.0627 100.972 17.5806C100.703 17.0906 100.569 16.5453 100.569 15.9447C100.569 15.3441 100.703 14.8027 100.972 14.3206C101.241 13.8306 101.612 13.4434 102.086 13.1589C102.56 12.8743 103.11 12.7321 103.734 12.7321C104.351 12.7321 104.896 12.8783 105.37 13.1707C105.844 13.4552 106.216 13.8385 106.484 14.3206C106.753 14.8027 106.887 15.3441 106.887 15.9447C106.887 16.5453 106.753 17.0906 106.484 17.5806C106.216 18.0627 105.844 18.446 105.37 18.7305C104.896 19.015 104.351 19.1573 103.734 19.1573ZM103.734 17.9837C104.066 17.9837 104.374 17.9047 104.659 17.7466C104.943 17.5806 105.173 17.3475 105.346 17.0472C105.528 16.7389 105.619 16.3715 105.619 15.9447C105.619 15.5179 105.528 15.1544 105.346 14.8541C105.173 14.5458 104.943 14.3127 104.659 14.1546C104.374 13.9887 104.066 13.9057 103.734 13.9057C103.402 13.9057 103.09 13.9887 102.798 14.1546C102.513 14.3127 102.28 14.5458 102.098 14.8541C101.924 15.1544 101.837 15.5179 101.837 15.9447C101.837 16.3715 101.924 16.7389 102.098 17.0472C102.28 17.3475 102.517 17.5806 102.809 17.7466C103.102 17.9047 103.41 17.9837 103.734 17.9837ZM110.794 21.7179C110.264 21.7179 109.805 21.6309 109.418 21.4571C109.039 21.2911 108.731 21.0738 108.494 20.8051C108.257 20.5443 108.087 20.2756 107.984 19.999L109.169 19.5011C109.296 19.8172 109.497 20.0741 109.774 20.2716C110.059 20.4771 110.398 20.5798 110.794 20.5798C111.354 20.5798 111.793 20.4139 112.109 20.0819C112.425 19.75 112.584 19.2798 112.584 18.6712V18.0904H112.512C112.323 18.367 112.062 18.5922 111.73 18.7661C111.398 18.9399 111.015 19.0269 110.58 19.0269C110.066 19.0269 109.592 18.8965 109.158 18.6357C108.731 18.3749 108.387 18.0114 108.126 17.5451C107.873 17.0709 107.747 16.5177 107.747 15.8854C107.747 15.2453 107.873 14.6921 108.126 14.2258C108.387 13.7516 108.731 13.3841 109.158 13.1233C109.592 12.8625 110.066 12.7321 110.58 12.7321C111.015 12.7321 111.398 12.819 111.73 12.9929C112.062 13.1589 112.323 13.3881 112.512 13.6805H112.584V12.9218H113.805V18.6475C113.805 19.3035 113.674 19.8607 113.413 20.319C113.16 20.7774 112.809 21.1251 112.358 21.3622C111.908 21.5993 111.386 21.7179 110.794 21.7179ZM110.805 17.8651C111.121 17.8651 111.414 17.79 111.683 17.6399C111.959 17.4818 112.176 17.2566 112.335 16.9642C112.501 16.6638 112.584 16.3043 112.584 15.8854C112.584 15.4428 112.501 15.0753 112.335 14.7829C112.176 14.4905 111.959 14.2692 111.683 14.1191C111.414 13.9689 111.121 13.8938 110.805 13.8938C110.489 13.8938 110.192 13.9689 109.916 14.1191C109.647 14.2692 109.43 14.4945 109.264 14.7948C109.098 15.0872 109.015 15.4508 109.015 15.8854C109.015 16.3122 109.098 16.6757 109.264 16.976C109.43 17.2684 109.647 17.4898 109.916 17.6399C110.192 17.79 110.489 17.8651 110.805 17.8651ZM115.314 18.9676V10.4797H116.595V18.9676H115.314ZM120.808 19.1573C120.216 19.1573 119.686 19.019 119.22 18.7424C118.753 18.4657 118.386 18.0864 118.117 17.6043C117.856 17.1223 117.726 16.573 117.726 15.9565C117.726 15.3796 117.852 14.8462 118.105 14.3562C118.358 13.8662 118.71 13.475 119.16 13.1826C119.619 12.8822 120.144 12.7321 120.737 12.7321C121.361 12.7321 121.891 12.8665 122.326 13.1351C122.768 13.4038 123.104 13.7713 123.333 14.2376C123.562 14.7039 123.677 15.2294 123.677 15.8143C123.677 15.9012 123.673 15.9802 123.665 16.0514C123.665 16.1225 123.661 16.1778 123.653 16.2173H118.983C119.014 16.5493 119.097 16.8378 119.232 17.0827C119.405 17.3909 119.635 17.6241 119.919 17.7821C120.204 17.9402 120.512 18.0192 120.844 18.0192C121.247 18.0192 121.582 17.9284 121.851 17.7466C122.128 17.5569 122.345 17.3238 122.503 17.0472L123.559 17.5569C123.298 18.0311 122.942 18.4183 122.492 18.7187C122.041 19.0111 121.48 19.1573 120.808 19.1573ZM119.054 15.2571H122.409C122.4 15.107 122.361 14.9489 122.29 14.7829C122.219 14.6091 122.116 14.451 121.982 14.3087C121.847 14.1665 121.677 14.0519 121.472 13.965C121.266 13.8701 121.025 13.8227 120.749 13.8227C120.401 13.8227 120.093 13.9136 119.824 14.0954C119.555 14.2692 119.346 14.5142 119.196 14.8304C119.133 14.9647 119.085 15.107 119.054 15.2571ZM128.888 18.9676L126.612 10.4797H128.058L129.409 15.9921L129.552 16.7271H129.623L129.801 15.9921L131.508 10.4797H132.812L134.448 15.9921L134.625 16.7152H134.697L134.839 15.9921L136.19 10.4797H137.625L135.384 18.9676H134.009L132.385 13.3367L132.195 12.5424H132.124L131.923 13.3367L130.227 18.9676H128.888ZM140.005 19.1573C139.571 19.1573 139.184 19.0703 138.843 18.8965C138.511 18.7226 138.247 18.4855 138.049 18.1852C137.859 17.877 137.765 17.5253 137.765 17.1301C137.765 16.6955 137.875 16.328 138.096 16.0277C138.326 15.7273 138.63 15.4982 139.009 15.3401C139.389 15.182 139.808 15.103 140.266 15.103C140.519 15.103 140.752 15.1227 140.965 15.1623C141.187 15.1939 141.377 15.2334 141.534 15.2808C141.7 15.3282 141.831 15.3796 141.925 15.4349V15.1149C141.925 14.7197 141.783 14.4036 141.499 14.1665C141.214 13.9294 140.847 13.8109 140.396 13.8109C140.088 13.8109 139.796 13.882 139.519 14.0242C139.243 14.1586 139.021 14.3443 138.855 14.5814L137.978 13.9057C138.152 13.6607 138.361 13.4512 138.606 13.2774C138.859 13.1036 139.14 12.9692 139.448 12.8743C139.764 12.7795 140.092 12.7321 140.432 12.7321C141.309 12.7321 141.985 12.9494 142.459 13.3841C142.933 13.8109 143.17 14.4115 143.17 15.186V18.9676H141.925V18.2208H141.854C141.752 18.3789 141.61 18.529 141.428 18.6712C141.254 18.8135 141.045 18.9281 140.799 19.015C140.562 19.1099 140.298 19.1573 140.005 19.1573ZM140.23 18.1141C140.562 18.1141 140.855 18.0351 141.108 17.877C141.368 17.7189 141.57 17.5135 141.712 17.2605C141.854 16.9997 141.925 16.7192 141.925 16.4189C141.752 16.3162 141.538 16.2332 141.285 16.1699C141.041 16.0988 140.78 16.0632 140.503 16.0632C139.981 16.0632 139.61 16.166 139.389 16.3715C139.168 16.577 139.057 16.8338 139.057 17.142C139.057 17.4265 139.163 17.6596 139.377 17.8414C139.59 18.0232 139.875 18.1141 140.23 18.1141ZM144.592 18.9676V10.4797H145.872V18.9676H144.592ZM147.393 18.9676V10.4797H148.674V18.9676H147.393ZM152.887 19.1573C152.295 19.1573 151.765 19.019 151.299 18.7424C150.832 18.4657 150.465 18.0864 150.196 17.6043C149.936 17.1223 149.805 16.573 149.805 15.9565C149.805 15.3796 149.931 14.8462 150.185 14.3562C150.437 13.8662 150.789 13.475 151.24 13.1826C151.698 12.8822 152.224 12.7321 152.816 12.7321C153.44 12.7321 153.97 12.8665 154.405 13.1351C154.847 13.4038 155.183 13.7713 155.412 14.2376C155.641 14.7039 155.756 15.2294 155.756 15.8143C155.756 15.9012 155.752 15.9802 155.744 16.0514C155.744 16.1225 155.74 16.1778 155.733 16.2173H151.062C151.093 16.5493 151.176 16.8378 151.311 17.0827C151.484 17.3909 151.714 17.6241 151.998 17.7821C152.283 17.9402 152.591 18.0192 152.923 18.0192C153.326 18.0192 153.662 17.9284 153.931 17.7466C154.207 17.5569 154.424 17.3238 154.583 17.0472L155.638 17.5569C155.377 18.0311 155.021 18.4183 154.571 18.7187C154.12 19.0111 153.559 19.1573 152.887 19.1573ZM151.133 15.2571H154.488C154.48 15.107 154.44 14.9489 154.369 14.7829C154.298 14.6091 154.195 14.451 154.061 14.3087C153.926 14.1665 153.756 14.0519 153.551 13.965C153.346 13.8701 153.104 13.8227 152.828 13.8227C152.48 13.8227 152.172 13.9136 151.904 14.0954C151.634 14.2692 151.425 14.5142 151.275 14.8304C151.212 14.9647 151.164 15.107 151.133 15.2571ZM156.355 12.9218H157.411V11.2147H158.691V12.9218H160.173V14.0361H158.691V16.9405C158.691 17.2408 158.75 17.47 158.869 17.628C158.995 17.7861 159.204 17.8651 159.497 17.8651C159.639 17.8651 159.765 17.8454 159.876 17.8059C159.987 17.7584 160.097 17.7031 160.208 17.6399V18.8846C160.074 18.9399 159.931 18.9834 159.781 19.015C159.631 19.0466 159.453 19.0624 159.248 19.0624C158.687 19.0624 158.24 18.9005 157.908 18.5764C157.577 18.2445 157.411 17.79 157.411 17.2131V14.0361H156.355V12.9218Z" fill="white"/>
</g>
<defs>
<clipPath id="clip0_568_556">
<rect width="173.67" height="29.6365" fill="white"/>
</clipPath>
</defs>
</svg>
