<svg width="174" height="50" viewBox="0 0 174 50" fill="none" xmlns="http://www.w3.org/2000/svg">
<g clip-path="url(#clip0_568_475)">
<path d="M148.664 0.455078H25.0033C11.4446 0.455078 0.453125 11.4466 0.453125 25.0053C0.453125 38.564 11.4446 49.5555 25.0033 49.5555H148.664C162.222 49.5555 173.214 38.564 173.214 25.0053C173.214 11.4466 162.222 0.455078 148.664 0.455078Z" fill="#1F1F1F"/>
<path d="M51.8274 21.6327H19.0938V16.4995C19.0938 13.7128 21.4962 11.3662 24.3491 11.3662H46.572C49.4249 11.3662 51.8274 13.7128 51.8274 16.4995V21.6327Z" fill="#34A853"/>
<path d="M51.8274 26.3692H19.0938V20.9136C19.0938 17.952 21.4962 15.458 24.3491 15.458H46.572C49.4249 15.458 51.8274 17.952 51.8274 20.9136V26.3692Z" fill="#FBBC04"/>
<path d="M51.8274 30.9151H19.0938V25.4595C19.0938 22.4979 21.4962 20.0039 24.3491 20.0039H46.572C49.4249 20.0039 51.8274 22.4979 51.8274 25.4595V30.9151Z" fill="#EA4335"/>
<path d="M19.0938 22.9506L39.8699 27.6438C42.2614 28.2305 44.9518 27.6438 46.8949 26.1772L51.8274 22.6572V33.657C51.8274 36.4436 49.4359 38.6436 46.596 38.6436H24.3251C21.4852 38.6436 19.0938 36.4436 19.0938 33.657V22.9506Z" fill="url(#paint0_linear_568_475)"/>
<path d="M63.6953 19.5489V11.0854H66.8632C67.3203 11.0854 67.7379 11.1839 68.1162 11.3809C68.5023 11.578 68.8057 11.8458 69.0263 12.1847C69.2548 12.5236 69.3691 12.9058 69.3691 13.3313C69.3691 13.7647 69.2588 14.1351 69.0382 14.4424C68.8254 14.7498 68.5535 14.9823 68.2225 15.1398V15.1989C68.6481 15.3487 68.9948 15.5969 69.2628 15.9436C69.5307 16.2825 69.6646 16.6922 69.6646 17.173C69.6646 17.6458 69.5425 18.0634 69.2982 18.4259C69.0618 18.7805 68.7387 19.0563 68.3289 19.2534C67.927 19.4504 67.4858 19.5489 67.005 19.5489H63.6953ZM66.8514 12.2793H64.9956V14.6434H66.8041C67.2139 14.6434 67.5331 14.5213 67.7616 14.2769C67.9901 14.0248 68.1043 13.7489 68.1043 13.4495C68.1043 13.1579 67.9941 12.89 67.7734 12.6457C67.5527 12.4014 67.2454 12.2793 66.8514 12.2793ZM64.9956 18.3432H67.005C67.4306 18.3432 67.7616 18.2171 67.998 17.9649C68.2423 17.7049 68.3644 17.4094 68.3644 17.0784C68.3644 16.7474 68.2423 16.4519 67.998 16.1919C67.7536 15.9318 67.4069 15.8018 66.9578 15.8018H64.9956V18.3432ZM72.8323 19.738C72.3752 19.738 71.9733 19.6552 71.6266 19.4898C71.2877 19.3164 71.0198 19.076 70.8228 18.7687C70.6337 18.4614 70.5391 18.1107 70.5391 17.7167C70.5391 17.2912 70.6494 16.9286 70.8701 16.6292C71.0986 16.3219 71.402 16.0894 71.7802 15.9318C72.1585 15.7742 72.5761 15.6954 73.0332 15.6954C73.4115 15.6954 73.7385 15.7309 74.0143 15.8018C74.298 15.8727 74.5187 15.9515 74.6763 16.0382V15.7427C74.6763 15.3329 74.5423 15.0098 74.2744 14.7734C74.0143 14.5291 73.6597 14.407 73.2105 14.407C72.9032 14.407 72.6392 14.4779 72.4185 14.6197C72.1979 14.7616 72.0324 14.9468 71.9221 15.1753L70.9173 14.7025C71.1222 14.2612 71.4335 13.9223 71.8512 13.6859C72.2688 13.4495 72.7259 13.3313 73.2223 13.3313C73.7661 13.3313 74.2232 13.4259 74.5935 13.615C74.9718 13.7962 75.2712 14.0563 75.4919 14.3951C75.7362 14.0642 76.0395 13.808 76.402 13.6268C76.7724 13.4377 77.1861 13.3431 77.6432 13.3431C78.2658 13.3431 78.7937 13.4771 79.2271 13.745C79.6684 14.013 80.0034 14.3794 80.2319 14.8443C80.4604 15.3014 80.5747 15.8215 80.5747 16.4046C80.5747 16.4913 80.5708 16.5701 80.5628 16.641C80.5628 16.712 80.5589 16.7671 80.551 16.8065H75.9056C75.9529 17.2478 76.0672 17.5985 76.2484 17.8585C76.4375 18.1186 76.666 18.3077 76.934 18.4259C77.2019 18.5441 77.4777 18.6032 77.7614 18.6032C78.1633 18.6032 78.4982 18.5126 78.7661 18.3314C79.0341 18.1422 79.2469 17.9097 79.4044 17.6339L80.4565 18.1422C80.1964 18.615 79.8418 19.0012 79.3926 19.3006C78.9434 19.5922 78.3879 19.738 77.7259 19.738C77.1586 19.738 76.6621 19.608 76.2366 19.3479C75.811 19.0879 75.4761 18.753 75.2318 18.3432C74.9088 18.8317 74.5501 19.1863 74.1562 19.407C73.77 19.6277 73.3287 19.738 72.8323 19.738ZM77.655 14.4306C77.2847 14.4306 76.934 14.5409 76.603 14.7616C76.272 14.9823 76.0513 15.3447 75.941 15.8491H79.2981C79.2823 15.6442 79.2153 15.4314 79.0971 15.2108C78.9868 14.9901 78.8095 14.8049 78.5652 14.6552C78.3288 14.5054 78.0254 14.4306 77.655 14.4306ZM72.9977 18.6978C73.3287 18.6978 73.6203 18.619 73.8725 18.4614C74.1246 18.3038 74.3216 18.0989 74.4635 17.8467C74.6053 17.5867 74.6763 17.3069 74.6763 17.0075C74.2664 16.7711 73.7976 16.6529 73.2696 16.6529C72.7495 16.6529 72.3792 16.7592 72.1585 16.972C71.9378 17.1769 71.8275 17.4291 71.8275 17.7285C71.8275 18.0122 71.9339 18.2447 72.1467 18.4259C72.3594 18.6071 72.6431 18.6978 72.9977 18.6978ZM82.221 17.7994V14.6315H81.169V13.5204H82.221V11.8183H83.4976V13.5204H84.9752V14.6315H83.4976V17.5276C83.4976 17.827 83.5567 18.0556 83.6749 18.2132C83.8009 18.3707 84.0098 18.4496 84.3014 18.4496C84.4511 18.4496 84.5772 18.4298 84.6796 18.3905C84.7899 18.3511 84.9002 18.2959 85.0106 18.225V19.4661C84.8766 19.5213 84.7347 19.5646 84.5851 19.5961C84.4353 19.6277 84.258 19.6434 84.0532 19.6434C83.4936 19.6434 83.0484 19.4819 82.7174 19.1588C82.3865 18.8278 82.221 18.3747 82.221 17.7994ZM87.9758 19.738C87.5425 19.738 87.1563 19.6552 86.8174 19.4898C86.4786 19.3164 86.2146 19.076 86.0255 18.7687C85.8363 18.4614 85.7418 18.1107 85.7418 17.7167C85.7418 17.2912 85.8521 16.9286 86.0727 16.6292C86.3013 16.3219 86.6047 16.0894 86.9829 15.9318C87.3612 15.7742 87.7789 15.6954 88.2359 15.6954C88.6141 15.6954 88.9451 15.7309 89.2288 15.8018C89.5204 15.8727 89.7411 15.9475 89.8907 16.0264V15.7072C89.8907 15.3132 89.7489 14.998 89.4652 14.7616C89.1815 14.5252 88.8151 14.407 88.3659 14.407C88.0586 14.407 87.7671 14.4779 87.4912 14.6197C87.2154 14.7537 86.9947 14.9389 86.8292 15.1753L85.9545 14.5015C86.2146 14.139 86.5574 13.8553 86.9829 13.6505C87.4164 13.4377 87.8892 13.3313 88.4014 13.3313C89.2761 13.3313 89.9499 13.548 90.4227 13.9814C90.8955 14.407 91.1315 15.0059 91.1315 15.7781V19.5489H89.8907V18.8042H89.8198C89.6623 19.0485 89.4258 19.2652 89.1106 19.4543C88.7954 19.6434 88.4172 19.738 87.9758 19.738ZM88.2004 18.6978C88.5314 18.6978 88.823 18.619 89.0751 18.4614C89.3274 18.3038 89.5243 18.0989 89.6662 17.8467C89.8159 17.5867 89.8907 17.3069 89.8907 17.0075C89.7095 16.905 89.4968 16.8222 89.2524 16.7592C89.0082 16.6883 88.7482 16.6529 88.4723 16.6529C87.9522 16.6529 87.5818 16.7592 87.3612 16.972C87.1406 17.1769 87.0302 17.4291 87.0302 17.7285C87.0302 18.0122 87.1366 18.2447 87.3493 18.4259C87.5621 18.6071 87.8458 18.6978 88.2004 18.6978ZM97.1281 19.5489L94.634 13.5204H96.0525L97.7428 17.9058H97.8019L99.5277 13.5204H100.923L98.4048 19.5489H97.1281ZM102.482 12.6339C102.246 12.6339 102.041 12.5511 101.867 12.3857C101.702 12.2123 101.619 12.0074 101.619 11.771C101.619 11.5346 101.702 11.3336 101.867 11.1682C102.041 11.0027 102.246 10.9199 102.482 10.9199C102.718 10.9199 102.919 11.0027 103.085 11.1682C103.258 11.3336 103.345 11.5346 103.345 11.771C103.345 12.0074 103.258 12.2123 103.085 12.3857C102.919 12.5511 102.718 12.6339 102.482 12.6339ZM101.844 19.5489V13.5204H103.12V19.5489H101.844ZM107.435 19.738C106.891 19.738 106.398 19.6041 105.957 19.3361C105.516 19.0603 105.162 18.6939 104.893 18.2368C104.633 17.7797 104.503 17.2754 104.503 16.7238C104.503 16.1485 104.637 15.6363 104.905 15.1871C105.173 14.7379 105.52 14.3872 105.945 14.1351C106.371 13.875 106.828 13.745 107.316 13.745C107.663 13.745 107.963 13.808 108.215 13.9341C108.467 14.0523 108.656 14.1745 108.782 14.3006L108.853 14.2533C108.767 14.009 108.625 13.7766 108.428 13.5559C108.238 13.3274 108.014 13.1185 107.754 12.9294L106.324 13.5677L105.969 12.7285L106.82 12.3502C106.394 12.1374 105.989 11.9956 105.603 11.9247L106.004 10.9199C106.359 10.9988 106.71 11.113 107.056 11.2627C107.411 11.4046 107.746 11.5858 108.061 11.8065L109.255 11.2745L109.61 12.102L108.853 12.4448C109.318 12.9019 109.696 13.4652 109.988 14.1351C110.28 14.8049 110.425 15.589 110.425 16.4874C110.425 17.1414 110.295 17.7128 110.035 18.2013C109.783 18.6821 109.432 19.0603 108.983 19.3361C108.534 19.6041 108.018 19.738 107.435 19.738ZM107.447 18.5678C107.769 18.5678 108.058 18.4929 108.309 18.3432C108.561 18.1856 108.762 17.9688 108.912 17.6931C109.07 17.4173 109.149 17.0941 109.149 16.7238C109.149 16.3692 109.07 16.0539 108.912 15.7781C108.762 15.5024 108.561 15.2856 108.309 15.128C108.058 14.9704 107.774 14.8916 107.458 14.8916C107.143 14.8916 106.855 14.9704 106.595 15.128C106.344 15.2778 106.138 15.4905 105.981 15.7663C105.831 16.0421 105.756 16.3612 105.756 16.7238C105.756 17.0941 105.831 17.4173 105.981 17.6931C106.138 17.9688 106.344 18.1856 106.595 18.3432C106.855 18.4929 107.139 18.5678 107.447 18.5678Z" fill="white"/>
<path d="M69.2302 37.9822C68.4367 37.9822 67.6896 37.8379 66.9888 37.5494C66.2984 37.2608 65.6852 36.8589 65.1494 36.3437C64.6136 35.8181 64.191 35.205 63.8819 34.5042C63.583 33.7932 63.4336 33.0255 63.4336 32.201C63.4336 31.3766 63.583 30.6141 63.8819 29.9133C64.191 29.2023 64.6084 28.5892 65.1339 28.0739C65.6698 27.5483 66.2881 27.1412 66.9888 26.8527C67.6896 26.5642 68.4367 26.4199 69.2302 26.4199C70.0752 26.4199 70.8532 26.5693 71.5643 26.8682C72.2856 27.1671 72.8884 27.5844 73.3728 28.1203L72.198 29.2796C71.8373 28.8777 71.4045 28.5685 70.8996 28.3521C70.4049 28.1357 69.8485 28.0275 69.2302 28.0275C68.4985 28.0275 67.8235 28.2027 67.2052 28.5531C66.5869 28.8931 66.0871 29.3775 65.7059 30.0061C65.3349 30.6244 65.1494 31.3561 65.1494 32.201C65.1494 33.046 65.3401 33.7829 65.7213 34.4115C66.1026 35.0298 66.6024 35.5141 67.2207 35.8645C67.839 36.2045 68.5139 36.3746 69.2456 36.3746C69.9155 36.3746 70.5234 36.2509 71.0696 36.0036C71.6158 35.746 72.0537 35.3853 72.3835 34.9216C72.7236 34.4578 72.9297 33.9014 73.0018 33.2522H69.2147V31.7528H74.5939C74.6558 32.031 74.6867 32.3247 74.6867 32.6339V32.6493C74.6867 33.7211 74.4496 34.6588 73.9756 35.4626C73.5119 36.2561 72.8679 36.8744 72.0434 37.3175C71.219 37.7606 70.2813 37.9822 69.2302 37.9822ZM79.6639 37.9822C78.8498 37.9822 78.1336 37.7967 77.5153 37.4257C76.897 37.0547 76.4127 36.5549 76.0623 35.9263C75.7119 35.2977 75.5368 34.5867 75.5368 33.7932C75.5368 33.01 75.7119 32.3041 76.0623 31.6755C76.4127 31.0365 76.897 30.5316 77.5153 30.1606C78.1336 29.7897 78.8498 29.6042 79.6639 29.6042C80.4677 29.6042 81.1788 29.7897 81.7971 30.1606C82.4154 30.5316 82.8996 31.0365 83.2501 31.6755C83.6004 32.3041 83.7756 33.01 83.7756 33.7932C83.7756 34.5867 83.6004 35.2977 83.2501 35.9263C82.8996 36.5549 82.4154 37.0547 81.7971 37.4257C81.1788 37.7967 80.4677 37.9822 79.6639 37.9822ZM79.6639 36.4519C80.0967 36.4519 80.4986 36.3488 80.8696 36.1427C81.2406 35.9263 81.5394 35.6223 81.7661 35.2307C82.0031 34.8288 82.1217 34.3496 82.1217 33.7932C82.1217 33.2367 82.0031 32.7627 81.7661 32.3711C81.5394 31.9692 81.2406 31.6652 80.8696 31.4591C80.4986 31.2427 80.0967 31.1345 79.6639 31.1345C79.2311 31.1345 78.824 31.2427 78.4428 31.4591C78.0718 31.6652 77.7677 31.9692 77.5308 32.3711C77.304 32.7627 77.1907 33.2367 77.1907 33.7932C77.1907 34.3496 77.304 34.8288 77.5308 35.2307C77.7677 35.6223 78.0718 35.9263 78.4428 36.1427C78.824 36.3488 79.2311 36.4519 79.6639 36.4519ZM89.0229 37.9822C88.2088 37.9822 87.4926 37.7967 86.8743 37.4257C86.256 37.0547 85.7717 36.5549 85.4213 35.9263C85.071 35.2977 84.8957 34.5867 84.8957 33.7932C84.8957 33.01 85.071 32.3041 85.4213 31.6755C85.7717 31.0365 86.256 30.5316 86.8743 30.1606C87.4926 29.7897 88.2088 29.6042 89.0229 29.6042C89.8267 29.6042 90.5378 29.7897 91.1562 30.1606C91.7745 30.5316 92.2592 31.0365 92.6092 31.6755C92.9593 32.3041 93.1348 33.01 93.1348 33.7932C93.1348 34.5867 92.9593 35.2977 92.6092 35.9263C92.2592 36.5549 91.7745 37.0547 91.1562 37.4257C90.5378 37.7967 89.8267 37.9822 89.0229 37.9822ZM89.0229 36.4519C89.4557 36.4519 89.8576 36.3488 90.2286 36.1427C90.5996 35.9263 90.8985 35.6223 91.1253 35.2307C91.3626 34.8288 91.4808 34.3496 91.4808 33.7932C91.4808 33.2367 91.3626 32.7627 91.1253 32.3711C90.8985 31.9692 90.5996 31.6652 90.2286 31.4591C89.8576 31.2427 89.4557 31.1345 89.0229 31.1345C88.5901 31.1345 88.1831 31.2427 87.8018 31.4591C87.4308 31.6652 87.1268 31.9692 86.8898 32.3711C86.6631 32.7627 86.5497 33.2367 86.5497 33.7932C86.5497 34.3496 86.6631 34.8288 86.8898 35.2307C87.1268 35.6223 87.4308 35.9263 87.8018 36.1427C88.1831 36.3488 88.5901 36.4519 89.0229 36.4519ZM98.2276 41.321C97.5366 41.321 96.9392 41.2076 96.4345 40.9809C95.9399 40.7645 95.538 40.4811 95.2288 40.1308C94.9197 39.7907 94.6978 39.4404 94.5642 39.0796L96.1099 38.4304C96.2745 38.8426 96.5373 39.1776 96.8983 39.4352C97.2692 39.7031 97.712 39.8371 98.2276 39.8371C98.9487 39.8371 99.5151 39.6207 99.9279 39.1878C100.35 38.755 100.562 38.1419 100.562 37.3484V36.591H100.469C100.222 36.962 99.8761 37.2608 99.4333 37.4875C99.0005 37.7039 98.5058 37.8121 97.9494 37.8121C97.2792 37.8121 96.6664 37.6421 96.1099 37.302C95.5535 36.962 95.1052 36.488 94.7651 35.8799C94.4251 35.2616 94.255 34.5403 94.255 33.7159C94.255 32.8812 94.4251 32.1599 94.7651 31.5518C95.1052 30.9335 95.5535 30.4543 96.1099 30.1143C96.6664 29.7742 97.2792 29.6042 97.9494 29.6042C98.5058 29.6042 99.0005 29.7176 99.4333 29.9442C99.8761 30.1709 100.222 30.4698 100.469 30.8408H100.562V29.8515H102.154V37.3175C102.154 38.1728 101.984 38.8993 101.644 39.497C101.314 40.0947 100.855 40.5481 100.268 40.8573C99.6806 41.1664 99.0005 41.321 98.2276 41.321ZM98.2431 36.2973C98.655 36.2973 99.0359 36.1994 99.3869 36.0036C99.737 35.7975 100.021 35.5038 100.237 35.1225C100.453 34.7309 100.562 34.2621 100.562 33.7159C100.562 33.1491 100.453 32.675 100.237 32.2938C100.021 31.9022 99.737 31.6085 99.3869 31.4127C99.0359 31.2169 98.655 31.119 98.2431 31.119C97.8303 31.119 97.4438 31.222 97.0838 31.4282C96.7328 31.6239 96.45 31.9125 96.2336 32.2938C96.0172 32.675 95.909 33.1491 95.909 33.7159C95.909 34.2724 96.0172 34.7464 96.2336 35.138C96.45 35.5192 96.7328 35.8078 97.0838 36.0036C97.4438 36.1994 97.8303 36.2973 98.2431 36.2973ZM104.122 37.7348V26.6672H105.792V37.7348H104.122ZM111.286 37.9822C110.513 37.9822 109.823 37.8019 109.214 37.4411C108.607 37.0804 108.128 36.5858 107.777 35.9572C107.437 35.3286 107.267 34.6124 107.267 33.8086C107.267 33.0564 107.432 32.3608 107.761 31.7219C108.091 31.0829 108.55 30.5728 109.137 30.1916C109.735 29.7999 110.42 29.6042 111.193 29.6042C112.008 29.6042 112.698 29.7794 113.264 30.1297C113.842 30.4801 114.28 30.9593 114.578 31.5673C114.877 32.1753 115.026 32.8605 115.026 33.6231C115.026 33.7365 115.022 33.8395 115.011 33.9323C115.011 34.025 115.006 34.0971 114.995 34.1487H108.905C108.988 34.9318 109.261 35.5192 109.724 35.9109C110.199 36.3025 110.735 36.4982 111.332 36.4982C111.868 36.4982 112.311 36.3798 112.661 36.1427C113.012 35.8954 113.291 35.5914 113.496 35.2307L114.872 35.8954C114.532 36.5137 114.068 37.0186 113.481 37.4102C112.893 37.7915 112.162 37.9822 111.286 37.9822ZM111.208 31.0263C110.652 31.0263 110.178 31.1963 109.786 31.5364C109.395 31.8764 109.132 32.3299 108.998 32.8966H113.372C113.352 32.6287 113.264 32.3504 113.11 32.0619C112.955 31.7734 112.719 31.5312 112.399 31.3354C112.089 31.1293 111.693 31.0263 111.208 31.0263ZM122.579 37.7348L119.317 29.8515H121.172L123.382 35.5862H123.46L125.717 29.8515H127.541L124.248 37.7348H122.579ZM131.997 37.9822C131.224 37.9822 130.533 37.8019 129.926 37.4411C129.317 37.0804 128.838 36.5858 128.488 35.9572C128.148 35.3286 127.978 34.6124 127.978 33.8086C127.978 33.0564 128.142 32.3608 128.473 31.7219C128.802 31.0829 129.261 30.5728 129.848 30.1916C130.446 29.7999 131.131 29.6042 131.904 29.6042C132.718 29.6042 133.408 29.7794 133.975 30.1297C134.552 30.4801 134.99 30.9593 135.289 31.5673C135.588 32.1753 135.738 32.8605 135.738 33.6231C135.738 33.7365 135.732 33.8395 135.722 33.9323C135.722 34.025 135.717 34.0971 135.707 34.1487H129.616C129.698 34.9318 129.972 35.5192 130.436 35.9109C130.909 36.3025 131.445 36.4982 132.043 36.4982C132.579 36.4982 133.022 36.3798 133.373 36.1427C133.723 35.8954 134.001 35.5914 134.207 35.2307L135.583 35.8954C135.243 36.5137 134.779 37.0186 134.192 37.4102C133.604 37.7915 132.872 37.9822 131.997 37.9822ZM131.92 31.0263C131.363 31.0263 130.888 31.1963 130.497 31.5364C130.106 31.8764 129.843 32.3299 129.709 32.8966H134.084C134.063 32.6287 133.975 32.3504 133.821 32.0619C133.666 31.7734 133.429 31.5312 133.11 31.3354C132.801 31.1293 132.403 31.0263 131.92 31.0263ZM140.237 37.9822C139.288 37.9822 138.531 37.776 137.964 37.3639C137.398 36.9413 137.006 36.4416 136.79 35.8645L138.289 35.2153C138.474 35.6378 138.743 35.9624 139.093 36.1891C139.443 36.4055 139.84 36.5137 140.283 36.5137C140.695 36.5137 141.05 36.4416 141.35 36.2973C141.649 36.1427 141.798 35.8954 141.798 35.5553C141.798 35.2255 141.649 34.9834 141.35 34.8288C141.05 34.6742 140.679 34.5403 140.237 34.4269L139.294 34.2105C138.913 34.1178 138.557 33.9735 138.227 33.7777C137.897 33.5819 137.63 33.3294 137.423 33.0203C137.217 32.7009 137.114 32.3299 137.114 31.9073C137.114 31.4436 137.253 31.0417 137.532 30.7017C137.81 30.3513 138.175 30.0834 138.629 29.8979C139.093 29.7021 139.593 29.6042 140.128 29.6042C140.86 29.6042 141.499 29.7485 142.045 30.037C142.602 30.3152 143.009 30.7378 143.266 31.3045L141.829 31.9537C141.643 31.6034 141.401 31.3612 141.102 31.2272C140.814 31.0829 140.494 31.0108 140.144 31.0108C139.752 31.0108 139.423 31.0933 139.155 31.2581C138.897 31.423 138.768 31.6291 138.768 31.8764C138.768 32.1444 138.882 32.3556 139.108 32.5102C139.346 32.6648 139.634 32.7884 139.974 32.8812L141.118 33.1594C141.901 33.3552 142.488 33.654 142.88 34.0559C143.272 34.4476 143.467 34.9268 143.467 35.4935C143.467 35.9984 143.323 36.4416 143.034 36.8228C142.746 37.1938 142.354 37.4823 141.86 37.6885C141.375 37.8842 140.834 37.9822 140.237 37.9822ZM144.924 37.7348V26.6672H146.593V33.1903L149.932 29.8515H152.003V29.9442L148.958 32.9585L152.112 37.6421V37.7348H150.133L147.784 34.1178L146.593 35.2925V37.7348H144.924ZM154.109 28.6922C153.8 28.6922 153.533 28.584 153.306 28.3676C153.089 28.1409 152.981 27.8729 152.981 27.5638C152.981 27.2546 153.089 26.9919 153.306 26.7754C153.533 26.559 153.8 26.4508 154.109 26.4508C154.418 26.4508 154.681 26.559 154.898 26.7754C155.125 26.9919 155.238 27.2546 155.238 27.5638C155.238 27.8729 155.125 28.1409 154.898 28.3676C154.681 28.584 154.418 28.6922 154.109 28.6922ZM153.275 37.7348V29.8515H154.944V37.7348H153.275Z" fill="white"/>
<path d="M148.664 0.455078H25.0033C11.4446 0.455078 0.453125 11.4466 0.453125 25.0053C0.453125 38.564 11.4446 49.5555 25.0033 49.5555H148.664C162.222 49.5555 173.214 38.564 173.214 25.0053C173.214 11.4466 162.222 0.455078 148.664 0.455078Z" stroke="#747775"/>
</g>
<defs>
<linearGradient id="paint0_linear_568_475" x1="33.9005" y1="30.9557" x2="17.0773" y2="50.6667" gradientUnits="userSpaceOnUse">
<stop stop-color="#4285F4"/>
<stop offset="1" stop-color="#1B74E8"/>
</linearGradient>
<clipPath id="clip0_568_475">
<rect width="173.67" height="50.0097" fill="white"/>
</clipPath>
</defs>
</svg>
