<svg width="174" height="30" viewBox="0 0 174 30" fill="none" xmlns="http://www.w3.org/2000/svg">
<g clip-path="url(#clip0_568_412)">
<path d="M158.748 0.298828H14.9186C6.84323 0.298828 0.296875 6.84519 0.296875 14.9205C0.296875 22.9959 6.84323 29.5422 14.9186 29.5422H158.748C166.824 29.5422 173.37 22.9959 173.37 14.9205C173.37 6.84519 166.824 0.298828 158.748 0.298828Z" fill="#1F1F1F"/>
<path d="M30.4354 13.1302H12.5312V10.1461C12.5312 8.52622 13.8453 7.16211 15.4058 7.16211H27.5609C29.1213 7.16211 30.4354 8.52622 30.4354 10.1461V13.1302Z" fill="#34A853"/>
<path d="M30.4354 15.5491H12.5312V12.5651C12.5312 10.9452 13.8453 9.58105 15.4058 9.58105H27.5609C29.1213 9.58105 30.4354 10.9452 30.4354 12.5651V15.5491Z" fill="#FBBC04"/>
<path d="M30.4354 18.051H12.5312V15.067C12.5312 13.4471 13.8453 12.083 15.4058 12.083H27.5609C29.1213 12.083 30.4354 13.4471 30.4354 15.067V18.051Z" fill="#EA4335"/>
<path d="M12.5312 13.8908L23.8951 16.5189C25.2031 16.8475 26.6747 16.5189 27.7375 15.6977L30.4354 13.7266V19.8862C30.4354 21.4467 29.1273 22.6786 27.574 22.6786H15.3926C13.8393 22.6786 12.5312 21.4467 12.5312 19.8862V13.8908Z" fill="url(#paint0_linear_568_412)"/>
<path d="M38.5664 19.0981V10.5519H41.2998C42.199 10.5519 42.9708 10.7349 43.6154 11.1009C44.2679 11.459 44.7692 11.9603 45.1193 12.6049C45.4774 13.2494 45.6564 13.9895 45.6564 14.825C45.6564 15.6685 45.4774 16.4125 45.1193 17.057C44.7692 17.6936 44.2679 18.195 43.6154 18.561C42.9708 18.9191 42.199 19.0981 41.2998 19.0981H38.5664ZM39.8794 17.8568H41.264C42.2348 17.8568 42.9868 17.5862 43.5199 17.0451C44.061 16.504 44.3315 15.7639 44.3315 14.825C44.3315 13.886 44.061 13.146 43.5199 12.6049C42.9868 12.0638 42.2348 11.7932 41.264 11.7932H39.8794V17.8568ZM49.6321 19.2891C49.0034 19.2891 48.4504 19.1459 47.973 18.8594C47.4955 18.5729 47.1215 18.187 46.851 17.7016C46.5804 17.2162 46.4452 16.6671 46.4452 16.0544C46.4452 15.4497 46.5804 14.9045 46.851 14.4192C47.1215 13.9258 47.4955 13.5359 47.973 13.2494C48.4504 12.963 49.0034 12.8197 49.6321 12.8197C50.2528 12.8197 50.8018 12.963 51.2793 13.2494C51.7567 13.5359 52.1307 13.9258 52.4013 14.4192C52.6718 14.9045 52.8071 15.4497 52.8071 16.0544C52.8071 16.6671 52.6718 17.2162 52.4013 17.7016C52.1307 18.187 51.7567 18.5729 51.2793 18.8594C50.8018 19.1459 50.2528 19.2891 49.6321 19.2891ZM49.6321 18.1074C49.9663 18.1074 50.2767 18.0279 50.5631 17.8687C50.8496 17.7016 51.0803 17.4669 51.2554 17.1645C51.4384 16.8541 51.5299 16.4841 51.5299 16.0544C51.5299 15.6247 51.4384 15.2587 51.2554 14.9563C51.0803 14.6459 50.8496 14.4112 50.5631 14.2521C50.2767 14.085 49.9663 14.0014 49.6321 14.0014C49.2979 14.0014 48.9836 14.085 48.6892 14.2521C48.4027 14.4112 48.1679 14.6459 47.9849 14.9563C47.8098 15.2587 47.7223 15.6247 47.7223 16.0544C47.7223 16.4841 47.8098 16.8541 47.9849 17.1645C48.1679 17.4669 48.4027 17.7016 48.6892 17.8687C48.9836 18.0279 49.2979 18.1074 49.6321 18.1074ZM56.5964 19.2891C56.0473 19.2891 55.55 19.1538 55.1044 18.8833C54.6667 18.6047 54.3166 18.2228 54.054 17.7374C53.7994 17.244 53.6721 16.683 53.6721 16.0544C53.6721 15.4258 53.7994 14.8687 54.054 14.3834C54.3166 13.898 54.6667 13.516 55.1044 13.2375C55.55 12.959 56.0473 12.8197 56.5964 12.8197C57.0659 12.8197 57.4677 12.9232 57.8019 13.1301C58.1441 13.337 58.3948 13.5717 58.5539 13.8343H58.6255L58.5539 12.9868V10.5519H59.8311V19.0981H58.6255V18.2865H58.5539C58.3948 18.549 58.1441 18.7838 57.8019 18.9907C57.4677 19.1896 57.0659 19.2891 56.5964 19.2891ZM56.7874 18.1074C57.1057 18.1074 57.4041 18.0239 57.6826 17.8568C57.969 17.6896 58.1958 17.4549 58.3629 17.1525C58.538 16.8422 58.6255 16.4762 58.6255 16.0544C58.6255 15.6326 58.538 15.2706 58.3629 14.9682C58.1958 14.6579 57.969 14.4192 57.6826 14.2521C57.4041 14.085 57.1057 14.0014 56.7874 14.0014C56.4691 14.0014 56.1707 14.085 55.8922 14.2521C55.6137 14.4192 55.3869 14.6579 55.2118 14.9682C55.0368 15.2706 54.9492 15.6326 54.9492 16.0544C54.9492 16.4762 55.0368 16.8422 55.2118 17.1525C55.3869 17.4549 55.6137 17.6896 55.8922 17.8568C56.1707 18.0239 56.4691 18.1074 56.7874 18.1074ZM63.2013 19.2891C62.7632 19.2891 62.3735 19.2055 62.0316 19.0384C61.689 18.8634 61.4228 18.6207 61.2318 18.3103C61.0409 18 60.9454 17.6459 60.9454 17.248C60.9454 16.8183 61.0564 16.4523 61.2796 16.1499C61.5099 15.8396 61.8167 15.6048 62.1987 15.4457C62.5806 15.2865 63.002 15.2069 63.4639 15.2069C63.8458 15.2069 64.18 15.2428 64.4665 15.3144C64.7607 15.386 64.9833 15.4616 65.1349 15.5412V15.2189C65.1349 14.821 64.9917 14.5027 64.7052 14.264C64.4188 14.0253 64.0487 13.9059 63.5952 13.9059C63.2848 13.9059 62.99 13.9775 62.7119 14.1208C62.4332 14.2561 62.2106 14.443 62.0435 14.6818L61.1602 14.0014C61.4228 13.6354 61.769 13.3489 62.1987 13.142C62.6361 12.9272 63.1136 12.8197 63.631 12.8197C64.5143 12.8197 65.1946 13.0386 65.6721 13.4762C66.1495 13.9059 66.3882 14.5107 66.3882 15.2905V19.0981H65.1349V18.3461H65.0633C64.904 18.5928 64.6652 18.8116 64.3472 19.0026C64.0285 19.1936 63.6465 19.2891 63.2013 19.2891ZM63.4281 18.2387C63.7623 18.2387 64.0565 18.1592 64.3113 18C64.5656 17.8408 64.7649 17.634 64.9081 17.3793C65.0591 17.1167 65.1349 16.8342 65.1349 16.5318C64.9517 16.4284 64.7369 16.3449 64.4904 16.2812C64.2433 16.2096 63.9807 16.1738 63.7026 16.1738C63.1774 16.1738 62.8032 16.2812 62.5806 16.496C62.3574 16.703 62.2464 16.9575 62.2464 17.2599C62.2464 17.5464 62.3538 17.7811 62.5687 17.9642C62.7835 18.1472 63.07 18.2387 63.4281 18.2387ZM68.5469 12.1155C68.3081 12.1155 68.1016 12.0319 67.9262 11.8648C67.7591 11.6898 67.6755 11.4829 67.6755 11.2442C67.6755 11.0054 67.7591 10.8025 67.9262 10.6354C68.1016 10.4683 68.3081 10.3848 68.5469 10.3848C68.7856 10.3848 68.9885 10.4683 69.1556 10.6354C69.3311 10.8025 69.4182 11.0054 69.4182 11.2442C69.4182 11.4829 69.3311 11.6898 69.1556 11.8648C68.9885 12.0319 68.7856 12.1155 68.5469 12.1155ZM67.3891 21.7957C67.1426 21.7957 66.92 21.7678 66.7206 21.7121V20.4708C66.8006 20.5185 66.8919 20.5543 66.9952 20.5782C67.0907 20.61 67.1861 20.6259 67.2816 20.6259C67.5126 20.6259 67.6719 20.5543 67.7591 20.4111C67.8546 20.2758 67.9023 20.0769 67.9023 19.8143V13.0107H69.1914V19.8262C69.1914 20.5264 69.0207 21.0278 68.6782 21.3302C68.3362 21.6405 67.9065 21.7957 67.3891 21.7957ZM75.7849 19.2891C75.0371 19.2891 74.4719 19.0663 74.09 18.6207C73.7164 18.1671 73.529 17.5544 73.529 16.7825V13.0107H74.8181V16.6035C74.8181 17.1207 74.9374 17.5027 75.1762 17.7493C75.4232 17.9881 75.7294 18.1074 76.0952 18.1074C76.4217 18.1074 76.704 18.0239 76.9427 17.8568C77.1898 17.6817 77.3766 17.4589 77.5037 17.1883C77.6392 16.9098 77.7066 16.6075 77.7066 16.2812V13.0107H78.9838V19.0981H77.7782V18.2745H77.7066C77.5317 18.561 77.2692 18.8037 76.9188 19.0026C76.5769 19.1936 76.1991 19.2891 75.7849 19.2891Z" fill="white"/>
<path d="M87.9682 19.2885C87.3553 19.2885 86.7788 19.1771 86.2375 18.9543C85.7045 18.7315 85.2307 18.4212 84.8171 18.0233C84.4035 17.6175 84.0771 17.144 83.8383 16.6029C83.6074 16.0539 83.4922 15.4611 83.4922 14.8244C83.4922 14.1878 83.6074 13.599 83.8383 13.0579C84.0771 12.5088 84.3993 12.0354 84.8052 11.6375C85.2187 11.2317 85.6962 10.9173 86.2375 10.6946C86.7788 10.4718 87.3553 10.3604 87.9682 10.3604C88.6205 10.3604 89.2215 10.4757 89.7706 10.7065C90.3274 10.9373 90.7929 11.2596 91.1671 11.6733L90.26 12.5685C89.9812 12.2582 89.647 12.0195 89.2573 11.8524C88.8754 11.6853 88.4457 11.6017 87.9682 11.6017C87.403 11.6017 86.882 11.737 86.4046 12.0075C85.9272 12.2701 85.541 12.6441 85.2468 13.1295C84.9603 13.607 84.8171 14.172 84.8171 14.8244C84.8171 15.4769 84.9645 16.0459 85.2587 16.5313C85.553 17.0087 85.9391 17.3828 86.4165 17.6533C86.894 17.9159 87.415 18.0472 87.9802 18.0472C88.4976 18.0472 88.9667 17.9517 89.3886 17.7607C89.8106 17.5618 90.1483 17.2833 90.4032 16.9252C90.6658 16.5671 90.8251 16.1374 90.8806 15.6361H87.9563V14.4783H92.11C92.1578 14.6931 92.1817 14.9199 92.1817 15.1587V15.1706C92.1817 15.9982 91.9984 16.7223 91.6326 17.343C91.2745 17.9557 90.7774 18.4331 90.1406 18.7753C89.5038 19.1174 88.7799 19.2885 87.9682 19.2885ZM96.0251 19.2885C95.3966 19.2885 94.8434 19.1453 94.366 18.8588C93.8885 18.5724 93.5143 18.1864 93.244 17.701C92.9736 17.2157 92.8381 16.6666 92.8381 16.0539C92.8381 15.4491 92.9736 14.904 93.244 14.4186C93.5143 13.9252 93.8885 13.5353 94.366 13.2489C94.8434 12.9624 95.3966 12.8192 96.0251 12.8192C96.6458 12.8192 97.1948 12.9624 97.6723 13.2489C98.1497 13.5353 98.5239 13.9252 98.7942 14.4186C99.0646 14.904 99.2001 15.4491 99.2001 16.0539C99.2001 16.6666 99.0646 17.2157 98.7942 17.701C98.5239 18.1864 98.1497 18.5724 97.6723 18.8588C97.1948 19.1453 96.6458 19.2885 96.0251 19.2885ZM96.0251 18.1069C96.3593 18.1069 96.6696 18.0273 96.9561 17.8681C97.2426 17.701 97.4735 17.4663 97.6484 17.1639C97.8316 16.8536 97.9229 16.4836 97.9229 16.0539C97.9229 15.6242 97.8316 15.2581 97.6484 14.9557C97.4735 14.6454 97.2426 14.4107 96.9561 14.2515C96.6696 14.0844 96.3593 14.0009 96.0251 14.0009C95.6909 14.0009 95.3764 14.0844 95.0821 14.2515C94.7957 14.4107 94.5611 14.6454 94.3779 14.9557C94.203 15.2581 94.1153 15.6242 94.1153 16.0539C94.1153 16.4836 94.203 16.8536 94.3779 17.1639C94.5611 17.4663 94.7957 17.701 95.0821 17.8681C95.3764 18.0273 95.6909 18.1069 96.0251 18.1069ZM103.252 19.2885C102.623 19.2885 102.07 19.1453 101.593 18.8588C101.115 18.5724 100.742 18.1864 100.471 17.701C100.2 17.2157 100.065 16.6666 100.065 16.0539C100.065 15.4491 100.2 14.904 100.471 14.4186C100.742 13.9252 101.115 13.5353 101.593 13.2489C102.07 12.9624 102.623 12.8192 103.252 12.8192C103.872 12.8192 104.422 12.9624 104.899 13.2489C105.376 13.5353 105.751 13.9252 106.021 14.4186C106.292 14.904 106.427 15.4491 106.427 16.0539C106.427 16.6666 106.292 17.2157 106.021 17.701C105.751 18.1864 105.376 18.5724 104.899 18.8588C104.422 19.1453 103.872 19.2885 103.252 19.2885ZM103.252 18.1069C103.586 18.1069 103.896 18.0273 104.183 17.8681C104.469 17.701 104.7 17.4663 104.875 17.1639C105.058 16.8536 105.15 16.4836 105.15 16.0539C105.15 15.6242 105.058 15.2581 104.875 14.9557C104.7 14.6454 104.469 14.4107 104.183 14.2515C103.896 14.0844 103.586 14.0009 103.252 14.0009C102.918 14.0009 102.604 14.0844 102.309 14.2515C102.022 14.4107 101.788 14.6454 101.605 14.9557C101.43 15.2581 101.342 15.6242 101.342 16.0539C101.342 16.4836 101.43 16.8536 101.605 17.1639C101.788 17.4663 102.022 17.701 102.309 17.8681C102.604 18.0273 102.918 18.1069 103.252 18.1069ZM110.36 21.8667C109.826 21.8667 109.365 21.7792 108.975 21.6041C108.593 21.437 108.283 21.2182 108.044 20.9477C107.805 20.6851 107.634 20.4145 107.531 20.136L108.724 19.6347C108.852 19.953 109.055 20.2116 109.333 20.4105C109.62 20.6174 109.962 20.7209 110.36 20.7209C110.917 20.7209 111.354 20.5538 111.673 20.2196C111.999 19.8853 112.162 19.4119 112.162 18.7992V18.2143H112.09C111.899 18.5008 111.633 18.7315 111.291 18.9066C110.957 19.0737 110.575 19.1572 110.145 19.1572C109.627 19.1572 109.154 19.0259 108.724 18.7634C108.295 18.5008 107.949 18.1347 107.686 17.6652C107.423 17.1878 107.292 16.6308 107.292 15.9942C107.292 15.3496 107.423 14.7926 107.686 14.3231C107.949 13.8457 108.295 13.4757 108.724 13.2131C109.154 12.9505 109.627 12.8192 110.145 12.8192C110.575 12.8192 110.957 12.9067 111.291 13.0818C111.633 13.2568 111.899 13.4876 112.09 13.7741H112.162V13.0102H113.391V18.7753C113.391 19.4358 113.26 19.9968 112.998 20.4583C112.743 20.9198 112.389 21.2699 111.935 21.5087C111.482 21.7474 110.957 21.8667 110.36 21.8667ZM110.372 17.9875C110.69 17.9875 110.984 17.9119 111.255 17.7607C111.525 17.6016 111.744 17.3748 111.911 17.0804C112.079 16.778 112.162 16.4159 112.162 15.9942C112.162 15.5565 112.079 15.1905 111.911 14.8961C111.744 14.5937 111.525 14.3669 111.255 14.2157C110.984 14.0645 110.69 13.9889 110.372 13.9889C110.053 13.9889 109.755 14.0685 109.476 14.2276C109.205 14.3788 108.987 14.6017 108.82 14.8961C108.653 15.1905 108.569 15.5565 108.569 15.9942C108.569 16.4239 108.653 16.7899 108.82 17.0923C108.987 17.3867 109.205 17.6096 109.476 17.7607C109.755 17.9119 110.053 17.9875 110.372 17.9875ZM114.912 19.0976V10.5513H116.201V19.0976H114.912ZM120.443 19.2885C119.847 19.2885 119.313 19.1493 118.844 18.8708C118.374 18.5923 118.004 18.2103 117.734 17.7249C117.471 17.2395 117.34 16.6865 117.34 16.0658C117.34 15.4849 117.467 14.9478 117.722 14.4544C117.976 13.961 118.331 13.5672 118.784 13.2728C119.246 12.9704 119.775 12.8192 120.372 12.8192C121 12.8192 121.533 12.9545 121.971 13.225C122.416 13.4955 122.755 13.8656 122.986 14.3351C123.216 14.8046 123.332 15.3337 123.332 15.9226C123.332 16.0101 123.328 16.0897 123.32 16.1613C123.32 16.2329 123.316 16.2886 123.308 16.3284H118.605C118.668 16.9331 118.88 17.3867 119.238 17.6891C119.604 17.9915 120.017 18.1427 120.479 18.1427C120.893 18.1427 121.235 18.0512 121.506 17.8681C121.776 17.6772 121.991 17.4424 122.15 17.1639L123.212 17.6772C122.95 18.1546 122.592 18.5445 122.138 18.8469C121.685 19.1413 121.12 19.2885 120.443 19.2885ZM120.384 13.9173C119.954 13.9173 119.588 14.0486 119.286 14.3112C118.983 14.5738 118.78 14.9239 118.677 15.3616H122.055C122.039 15.1547 121.971 14.9398 121.852 14.717C121.732 14.4942 121.549 14.3072 121.303 14.156C121.064 13.9969 120.757 13.9173 120.384 13.9173ZM128.578 19.0976L126.287 10.5513H127.743L129.104 16.1016L129.247 16.8416H129.318L129.497 16.1016L131.216 10.5513H132.529L134.176 16.1016L134.355 16.8297H134.427L134.57 16.1016L135.931 10.5513H137.375L135.119 19.0976H133.735L132.099 13.4279L131.909 12.6282H131.837L131.634 13.4279L129.927 19.0976H128.578ZM139.772 19.2885C139.335 19.2885 138.945 19.205 138.602 19.0379C138.26 18.8628 137.994 18.6201 137.803 18.3098C137.612 17.9994 137.516 17.6454 137.516 17.2475C137.516 16.8178 137.628 16.4518 137.85 16.1494C138.081 15.839 138.387 15.6043 138.769 15.4451C139.151 15.286 139.573 15.2064 140.035 15.2064C140.417 15.2064 140.751 15.2422 141.037 15.3138C141.332 15.3854 141.555 15.4611 141.706 15.5406V15.2183C141.706 14.8204 141.562 14.5022 141.276 14.2635C140.989 14.0247 140.619 13.9054 140.166 13.9054C139.856 13.9054 139.561 13.977 139.283 14.1202C139.005 14.2555 138.781 14.4425 138.614 14.6812L137.731 14.0009C137.994 13.6348 138.34 13.3484 138.769 13.1415C139.207 12.9266 139.685 12.8192 140.202 12.8192C141.085 12.8192 141.765 13.038 142.243 13.4757C142.72 13.9054 142.959 14.5101 142.959 15.29V19.0976H141.706V18.3456H141.634C141.475 18.5922 141.237 18.8111 140.918 19.0021C140.6 19.1931 140.218 19.2885 139.772 19.2885ZM139.999 18.2382C140.333 18.2382 140.628 18.1586 140.882 17.9994C141.137 17.8403 141.336 17.6334 141.479 17.3788C141.63 17.1162 141.706 16.8337 141.706 16.5313C141.523 16.4279 141.308 16.3443 141.061 16.2806C140.815 16.209 140.552 16.1732 140.273 16.1732C139.748 16.1732 139.375 16.2806 139.151 16.4955C138.929 16.7024 138.817 16.957 138.817 17.2594C138.817 17.5459 138.925 17.7806 139.139 17.9636C139.354 18.1467 139.641 18.2382 139.999 18.2382ZM144.39 19.0976V10.5513H145.679V19.0976H144.39ZM147.211 19.0976V10.5513H148.5V19.0976H147.211ZM152.743 19.2885C152.146 19.2885 151.613 19.1493 151.144 18.8708C150.674 18.5923 150.304 18.2103 150.033 17.7249C149.771 17.2395 149.64 16.6865 149.64 16.0658C149.64 15.4849 149.767 14.9478 150.022 14.4544C150.276 13.961 150.63 13.5672 151.084 13.2728C151.545 12.9704 152.075 12.8192 152.671 12.8192C153.3 12.8192 153.833 12.9545 154.271 13.225C154.716 13.4955 155.054 13.8656 155.285 14.3351C155.516 14.8046 155.631 15.3337 155.631 15.9226C155.631 16.0101 155.627 16.0897 155.62 16.1613C155.62 16.2329 155.615 16.2886 155.608 16.3284H150.905C150.968 16.9331 151.179 17.3867 151.537 17.6891C151.903 17.9915 152.317 18.1427 152.779 18.1427C153.192 18.1427 153.534 18.0512 153.805 17.8681C154.076 17.6772 154.29 17.4424 154.45 17.1639L155.512 17.6772C155.25 18.1546 154.891 18.5445 154.438 18.8469C153.984 19.1413 153.419 19.2885 152.743 19.2885ZM152.683 13.9173C152.254 13.9173 151.887 14.0486 151.585 14.3112C151.283 14.5738 151.08 14.9239 150.976 15.3616H154.354C154.338 15.1547 154.271 14.9398 154.151 14.717C154.032 14.4942 153.849 14.3072 153.602 14.156C153.364 13.9969 153.057 13.9173 152.683 13.9173ZM157.297 17.331V14.1322H156.235V13.0102H157.297V11.2914H158.586V13.0102H160.078V14.1322H158.586V17.0565C158.586 17.3589 158.646 17.5896 158.765 17.7488C158.892 17.908 159.103 17.9875 159.398 17.9875C159.549 17.9875 159.676 17.9676 159.78 17.9278C159.891 17.888 160.002 17.8323 160.114 17.7607V19.014C159.979 19.0697 159.835 19.1135 159.684 19.1453C159.533 19.1771 159.354 19.1931 159.147 19.1931C158.582 19.1931 158.133 19.0299 157.798 18.7037C157.464 18.3695 157.297 17.9119 157.297 17.331Z" fill="white"/>
<path d="M158.748 0.298828H14.9186C6.84323 0.298828 0.296875 6.84519 0.296875 14.9205C0.296875 22.9959 6.84323 29.5422 14.9186 29.5422H158.748C166.824 29.5422 173.37 22.9959 173.37 14.9205C173.37 6.84519 166.824 0.298828 158.748 0.298828Z" stroke="#747775"/>
</g>
<defs>
<linearGradient id="paint0_linear_568_412" x1="20.6301" y1="18.3735" x2="11.177" y2="29.1917" gradientUnits="userSpaceOnUse">
<stop stop-color="#4285F4"/>
<stop offset="1" stop-color="#1B74E8"/>
</linearGradient>
<clipPath id="clip0_568_412">
<rect width="173.67" height="29.8402" fill="white"/>
</clipPath>
</defs>
</svg>
