<svg width="174" height="33" viewBox="0 0 174 33" fill="none" xmlns="http://www.w3.org/2000/svg">
<g clip-path="url(#clip0_568_231)">
<path d="M157.588 0.321289H16.0793C7.37583 0.321289 0.320312 7.37681 0.320312 16.0802C0.320312 24.7837 7.37583 31.8392 16.0793 31.8392H157.588C166.292 31.8392 173.347 24.7837 173.347 16.0802C173.347 7.37681 166.292 0.321289 157.588 0.321289Z" fill="#1F1F1F"/>
<path d="M32.8045 14.151H13.5078V10.9349C13.5078 9.18896 14.9241 7.71875 16.6059 7.71875H29.7064C31.3882 7.71875 32.8045 9.18896 32.8045 10.9349V14.151Z" fill="#34A853"/>
<path d="M32.8045 16.7584H13.5078V13.5423C13.5078 11.7964 14.9241 10.3262 16.6059 10.3262H29.7064C31.3882 10.3262 32.8045 11.7964 32.8045 13.5423V16.7584Z" fill="#FBBC04"/>
<path d="M32.8045 19.4557H13.5078V16.2395C13.5078 14.4937 14.9241 13.0234 16.6059 13.0234H29.7064C31.3882 13.0234 32.8045 14.4937 32.8045 16.2395V19.4557Z" fill="#EA4335"/>
<path d="M13.5078 14.971L25.7555 17.8035C27.1653 18.1576 28.7513 17.8035 29.8968 16.9184L32.8045 14.7939V21.4327C32.8045 23.1145 31.3947 24.4423 29.7206 24.4423H16.5917C14.9176 24.4423 13.5078 23.1145 13.5078 21.4327V14.971Z" fill="url(#paint0_linear_568_231)"/>
<path d="M41.5664 20.5834V11.3725H47.1496V12.7104H42.9815V15.4119H46.7379V16.7498H42.9815V20.5834H41.5664ZM51.1309 20.7893C50.4534 20.7893 49.8573 20.6349 49.3428 20.3261C48.8282 20.0174 48.4251 19.6014 48.1335 19.0783C47.8419 18.5552 47.6961 17.9634 47.6961 17.303C47.6961 16.6512 47.8419 16.0637 48.1335 15.5406C48.4251 15.0088 48.8282 14.5886 49.3428 14.2798C49.8573 13.9711 50.4534 13.8167 51.1309 13.8167C51.7999 13.8167 52.3916 13.9711 52.9062 14.2798C53.4208 14.5886 53.8239 15.0088 54.1155 15.5406C54.407 16.0637 54.5529 16.6512 54.5529 17.303C54.5529 17.9634 54.407 18.5552 54.1155 19.0783C53.8239 19.6014 53.4208 20.0174 52.9062 20.3261C52.3916 20.6349 51.7999 20.7893 51.1309 20.7893ZM51.1309 19.5157C51.4911 19.5157 51.8256 19.4299 52.1344 19.2584C52.4431 19.0783 52.6918 18.8253 52.8805 18.4994C53.0778 18.1649 53.1764 17.7661 53.1764 17.303C53.1764 16.8399 53.0778 16.4454 52.8805 16.1195C52.6918 15.785 52.4431 15.532 52.1344 15.3605C51.8256 15.1804 51.4911 15.0903 51.1309 15.0903C50.7707 15.0903 50.4319 15.1804 50.1146 15.3605C49.8059 15.532 49.5529 15.785 49.3556 16.1195C49.167 16.4454 49.0726 16.8399 49.0726 17.303C49.0726 17.7661 49.167 18.1649 49.3556 18.4994C49.5529 18.8253 49.8059 19.0783 50.1146 19.2584C50.4319 19.4299 50.7707 19.5157 51.1309 19.5157ZM49.42 21.0594L48.4937 20.532L52.8548 13.5466L53.781 14.0612L49.42 21.0594ZM56.5672 13.0577C56.31 13.0577 56.087 12.9677 55.8983 12.7876C55.7182 12.5989 55.6281 12.3759 55.6281 12.1186C55.6281 11.8613 55.7182 11.6426 55.8983 11.4625C56.087 11.2824 56.31 11.1924 56.5672 11.1924C56.8245 11.1924 57.0432 11.2824 57.2233 11.4625C57.412 11.6426 57.5063 11.8613 57.5063 12.1186C57.5063 12.3759 57.412 12.5989 57.2233 12.7876C57.0432 12.9677 56.8245 13.0577 56.5672 13.0577ZM55.3194 23.4908C55.0536 23.4908 54.8134 23.4608 54.599 23.4007V22.0628C54.6847 22.1143 54.7834 22.1529 54.8949 22.1786C54.9978 22.2129 55.1007 22.2301 55.2036 22.2301C55.4524 22.2301 55.6238 22.1529 55.7182 21.9985C55.8211 21.8527 55.8726 21.6383 55.8726 21.3553V14.0226H57.2619V21.3682C57.2619 22.1229 57.0775 22.6632 56.7088 22.9891C56.34 23.3236 55.8769 23.4908 55.3194 23.4908ZM62.683 18.6795V15.2318H61.5381V14.0226H62.683V12.1701H64.0724V14.0226H65.6802V15.2318H64.0724V18.3836C64.0724 18.7095 64.1367 18.9582 64.2653 19.1297C64.4027 19.3013 64.6298 19.387 64.9469 19.387C65.1103 19.387 65.2473 19.3656 65.3586 19.3227C65.4788 19.2798 65.5991 19.2198 65.7188 19.1426V20.4934C65.5734 20.5534 65.419 20.6006 65.2556 20.6349C65.0929 20.6692 64.8999 20.6863 64.6767 20.6863C64.0681 20.6863 63.5835 20.5105 63.2233 20.1589C62.8631 19.7987 62.683 19.3055 62.683 18.6795ZM67.8742 13.0577C67.6169 13.0577 67.3937 12.9677 67.2052 12.7876C67.0251 12.5989 66.9351 12.3759 66.9351 12.1186C66.9351 11.8613 67.0251 11.6426 67.2052 11.4625C67.3937 11.2824 67.6169 11.1924 67.8742 11.1924C68.1315 11.1924 68.3502 11.2824 68.5303 11.4625C68.7187 11.6426 68.8133 11.8613 68.8133 12.1186C68.8133 12.3759 68.7187 12.5989 68.5303 12.7876C68.3502 12.9677 68.1315 13.0577 67.8742 13.0577ZM67.1795 20.5834V14.0226H68.5689V20.5834H67.1795ZM70.3056 20.5834V11.3725H71.6949V20.5834H70.3056Z" fill="white"/>
<path d="M81.3046 20.7886C80.644 20.7886 80.0227 20.6685 79.4393 20.4284C78.8649 20.1883 78.3542 19.8538 77.9084 19.425C77.4627 18.9876 77.1108 18.4773 76.8535 17.8941C76.6046 17.3024 76.4805 16.6634 76.4805 15.9773C76.4805 15.2912 76.6046 14.6566 76.8535 14.0734C77.1108 13.4816 77.4582 12.9713 77.8956 12.5425C78.3413 12.1051 78.8559 11.7663 79.4393 11.5262C80.0227 11.2861 80.644 11.166 81.3046 11.166C82.0077 11.166 82.6554 11.2904 83.2472 11.5391C83.8473 11.7878 84.349 12.1352 84.7523 12.5811L83.7746 13.5459C83.4742 13.2115 83.114 12.9542 82.694 12.7741C82.2823 12.594 81.8192 12.5039 81.3046 12.5039C80.6955 12.5039 80.134 12.6497 79.6194 12.9413C79.1048 13.2243 78.6886 13.6274 78.3715 14.1506C78.0628 14.6651 77.9084 15.2741 77.9084 15.9773C77.9084 16.6806 78.0673 17.2938 78.3844 17.8169C78.7015 18.3315 79.1177 18.7346 79.6323 19.0262C80.1468 19.3092 80.7084 19.4507 81.3175 19.4507C81.8752 19.4507 82.3807 19.3478 82.8355 19.142C83.2903 18.9276 83.6543 18.6274 83.929 18.2415C84.212 17.8555 84.3837 17.3924 84.4436 16.8521H81.2918V15.6042H85.7686C85.8201 15.8358 85.8458 16.0802 85.8458 16.3375V16.3504C85.8458 17.2423 85.6483 18.0228 85.254 18.6917C84.8681 19.3521 84.3323 19.8667 83.646 20.2354C82.9596 20.6042 82.1794 20.7886 81.3046 20.7886ZM89.9881 20.7886C89.3108 20.7886 88.7146 20.6342 88.2 20.3255C87.6854 20.0168 87.2821 19.6008 86.9907 19.0776C86.6993 18.5545 86.5533 17.9628 86.5533 17.3024C86.5533 16.6506 86.6993 16.0631 86.9907 15.5399C87.2821 15.0082 87.6854 14.588 88.2 14.2792C88.7146 13.9705 89.3108 13.8161 89.9881 13.8161C90.6571 13.8161 91.2489 13.9705 91.7634 14.2792C92.278 14.588 92.6813 15.0082 92.9727 15.5399C93.2641 16.0631 93.4101 16.6506 93.4101 17.3024C93.4101 17.9628 93.2641 18.5545 92.9727 19.0776C92.6813 19.6008 92.278 20.0168 91.7634 20.3255C91.2489 20.6342 90.6571 20.7886 89.9881 20.7886ZM89.9881 19.515C90.3483 19.515 90.6828 19.4293 90.9916 19.2578C91.3003 19.0776 91.5492 18.8247 91.7377 18.4987C91.9352 18.1643 92.0336 17.7655 92.0336 17.3024C92.0336 16.8392 91.9352 16.4447 91.7377 16.1188C91.5492 15.7843 91.3003 15.5314 90.9916 15.3598C90.6828 15.1797 90.3483 15.0897 89.9881 15.0897C89.6279 15.0897 89.289 15.1797 88.9718 15.3598C88.6631 15.5314 88.4103 15.7843 88.2128 16.1188C88.0244 16.4447 87.9298 16.8392 87.9298 17.3024C87.9298 17.7655 88.0244 18.1643 88.2128 18.4987C88.4103 18.8247 88.6631 19.0776 88.9718 19.2578C89.289 19.4293 89.6279 19.515 89.9881 19.515ZM97.7769 20.7886C97.0996 20.7886 96.5033 20.6342 95.9888 20.3255C95.4742 20.0168 95.0715 19.6008 94.7795 19.0776C94.4881 18.5545 94.3421 17.9628 94.3421 17.3024C94.3421 16.6506 94.4881 16.0631 94.7795 15.5399C95.0715 15.0082 95.4742 14.588 95.9888 14.2792C96.5033 13.9705 97.0996 13.8161 97.7769 13.8161C98.4459 13.8161 99.0376 13.9705 99.5522 14.2792C100.067 14.588 100.47 15.0082 100.761 15.5399C101.053 16.0631 101.199 16.6506 101.199 17.3024C101.199 17.9628 101.053 18.5545 100.761 19.0776C100.47 19.6008 100.067 20.0168 99.5522 20.3255C99.0376 20.6342 98.4459 20.7886 97.7769 20.7886ZM97.7769 19.515C98.1371 19.515 98.4716 19.4293 98.7803 19.2578C99.0891 19.0776 99.338 18.8247 99.5265 18.4987C99.7239 18.1643 99.8224 17.7655 99.8224 17.3024C99.8224 16.8392 99.7239 16.4447 99.5265 16.1188C99.338 15.7843 99.0891 15.5314 98.7803 15.3598C98.4716 15.1797 98.1371 15.0897 97.7769 15.0897C97.4167 15.0897 97.0784 15.1797 96.7606 15.3598C96.4519 15.5314 96.1991 15.7843 96.0016 16.1188C95.8132 16.4447 95.7186 16.8392 95.7186 17.3024C95.7186 17.7655 95.8132 18.1643 96.0016 18.4987C96.1991 18.8247 96.4519 19.0776 96.7606 19.2578C97.0784 19.4293 97.4167 19.515 97.7769 19.515ZM105.438 23.5673C104.863 23.5673 104.365 23.473 103.945 23.2843C103.534 23.1042 103.199 22.8683 102.942 22.5768C102.685 22.2938 102.5 22.0022 102.389 21.702L103.675 21.1617C103.812 21.5047 104.031 21.7835 104.331 21.9979C104.64 22.2209 105.009 22.3324 105.438 22.3324C106.038 22.3324 106.509 22.1523 106.853 21.792C107.204 21.4318 107.38 20.9216 107.38 20.2612V19.6308H107.303C107.097 19.9396 106.81 20.1883 106.441 20.377C106.081 20.5571 105.669 20.6471 105.206 20.6471C104.648 20.6471 104.138 20.5056 103.675 20.2226C103.212 19.9396 102.839 19.5451 102.556 19.0391C102.273 18.5245 102.132 17.9242 102.132 17.238C102.132 16.5434 102.273 15.943 102.556 15.437C102.839 14.9224 103.212 14.5236 103.675 14.2406C104.138 13.9576 104.648 13.8161 105.206 13.8161C105.669 13.8161 106.081 13.9105 106.441 14.0991C106.81 14.2878 107.097 14.5365 107.303 14.8452H107.38V14.0219H108.705V20.2354C108.705 20.9473 108.564 21.5519 108.281 22.0493C108.006 22.5467 107.625 22.9241 107.136 23.1814C106.647 23.4387 106.081 23.5673 105.438 23.5673ZM105.451 19.3864C105.793 19.3864 106.111 19.3049 106.403 19.142C106.694 18.9704 106.93 18.726 107.11 18.4087C107.29 18.0828 107.38 17.6926 107.38 17.238C107.38 16.7664 107.29 16.3718 107.11 16.0545C106.93 15.7286 106.694 15.4842 106.403 15.3212C106.111 15.1583 105.793 15.0768 105.451 15.0768C105.107 15.0768 104.785 15.1625 104.486 15.3341C104.194 15.497 103.958 15.7372 103.778 16.0545C103.598 16.3718 103.508 16.7664 103.508 17.238C103.508 17.7012 103.598 18.0956 103.778 18.4216C103.958 18.7389 104.194 18.979 104.486 19.142C104.785 19.3049 105.107 19.3864 105.451 19.3864ZM110.344 20.5828V11.3718H111.733V20.5828H110.344ZM116.306 20.7886C115.662 20.7886 115.087 20.6386 114.582 20.3384C114.076 20.0382 113.677 19.6265 113.385 19.1034C113.102 18.5802 112.961 17.9842 112.961 17.3152C112.961 16.6892 113.098 16.1103 113.372 15.5785C113.646 15.0468 114.029 14.6222 114.517 14.3049C115.015 13.979 115.585 13.8161 116.228 13.8161C116.906 13.8161 117.48 13.9619 117.952 14.2535C118.432 14.5451 118.797 14.9439 119.046 15.4499C119.294 15.9559 119.419 16.5262 119.419 17.1608C119.419 17.2552 119.414 17.3409 119.406 17.4181C119.406 17.4953 119.401 17.5553 119.393 17.5982H114.324C114.393 18.25 114.62 18.7389 115.006 19.0648C115.401 19.3907 115.846 19.5536 116.344 19.5536C116.79 19.5536 117.158 19.455 117.451 19.2578C117.742 19.0519 117.973 18.7989 118.145 18.4987L119.29 19.0519C119.007 19.5665 118.621 19.9867 118.132 20.3126C117.643 20.6299 117.034 20.7886 116.306 20.7886ZM116.241 14.9996C115.778 14.9996 115.383 15.1411 115.058 15.4241C114.732 15.7072 114.513 16.0845 114.402 16.5562H118.042C118.025 16.3332 117.952 16.1017 117.824 15.8615C117.695 15.6214 117.497 15.4198 117.232 15.2569C116.975 15.0854 116.644 14.9996 116.241 14.9996ZM125.073 20.5828L122.603 11.3718H124.173L125.639 17.3538L125.794 18.1514H125.871L126.064 17.3538L127.916 11.3718H129.331L131.107 17.3538L131.3 18.1385H131.377L131.531 17.3538L132.998 11.3718H134.554L132.123 20.5828H130.631L128.868 14.4722L128.663 13.6103H128.585L128.367 14.4722L126.527 20.5828H125.073ZM137.138 20.7886C136.666 20.7886 136.246 20.6986 135.877 20.5185C135.508 20.3298 135.221 20.0682 135.015 19.7337C134.809 19.3993 134.706 19.0176 134.706 18.5888C134.706 18.1257 134.827 17.7312 135.066 17.4053C135.315 17.0708 135.645 16.8178 136.057 16.6463C136.469 16.4747 136.923 16.389 137.421 16.389C137.832 16.389 138.192 16.4276 138.501 16.5048C138.819 16.5819 139.059 16.6634 139.222 16.7492V16.4018C139.222 15.973 139.067 15.63 138.759 15.3727C138.45 15.1154 138.051 14.9868 137.562 14.9868C137.228 14.9868 136.911 15.0639 136.61 15.2183C136.31 15.3641 136.07 15.5657 135.89 15.8229L134.938 15.0897C135.221 14.6952 135.594 14.3864 136.057 14.1634C136.529 13.9319 137.044 13.8161 137.601 13.8161C138.553 13.8161 139.286 14.052 139.801 14.5236C140.315 14.9868 140.572 15.6385 140.572 16.479V20.5828H139.222V19.7723H139.144C138.973 20.0382 138.716 20.274 138.373 20.4799C138.03 20.6857 137.618 20.7886 137.138 20.7886ZM137.382 19.6565C137.742 19.6565 138.06 19.5708 138.334 19.3993C138.609 19.2277 138.823 19.0048 138.977 18.7303C139.141 18.4473 139.222 18.1429 139.222 17.8169C139.025 17.7055 138.793 17.6154 138.527 17.5468C138.261 17.4696 137.978 17.431 137.678 17.431C137.112 17.431 136.709 17.5468 136.469 17.7783C136.229 18.0013 136.108 18.2757 136.108 18.6017C136.108 18.9104 136.224 19.1634 136.456 19.3607C136.687 19.5579 136.996 19.6565 137.382 19.6565ZM142.115 20.5828V11.3718H143.504V20.5828H142.115ZM145.155 20.5828V11.3718H146.545V20.5828H145.155ZM151.117 20.7886C150.474 20.7886 149.899 20.6386 149.394 20.3384C148.887 20.0382 148.489 19.6265 148.197 19.1034C147.914 18.5802 147.773 17.9842 147.773 17.3152C147.773 16.6892 147.91 16.1103 148.184 15.5785C148.458 15.0468 148.84 14.6222 149.329 14.3049C149.826 13.979 150.397 13.8161 151.04 13.8161C151.718 13.8161 152.292 13.9619 152.764 14.2535C153.244 14.5451 153.609 14.9439 153.858 15.4499C154.106 15.9559 154.231 16.5262 154.231 17.1608C154.231 17.2552 154.226 17.3409 154.218 17.4181C154.218 17.4953 154.213 17.5553 154.205 17.5982H149.136C149.204 18.25 149.432 18.7389 149.818 19.0648C150.212 19.3907 150.658 19.5536 151.156 19.5536C151.602 19.5536 151.97 19.455 152.262 19.2578C152.554 19.0519 152.785 18.7989 152.957 18.4987L154.102 19.0519C153.819 19.5665 153.433 19.9867 152.944 20.3126C152.455 20.6299 151.846 20.7886 151.117 20.7886ZM151.053 14.9996C150.59 14.9996 150.195 15.1411 149.87 15.4241C149.543 15.7072 149.325 16.0845 149.213 16.5562H152.854C152.837 16.3332 152.764 16.1017 152.635 15.8615C152.507 15.6214 152.309 15.4198 152.044 15.2569C151.786 15.0854 151.456 14.9996 151.053 14.9996ZM156.026 18.6789V15.2312H154.881V14.0219H156.026V12.1694H157.415V14.0219H159.023V15.2312H157.415V18.383C157.415 18.7089 157.48 18.9576 157.608 19.1291C157.745 19.3007 157.972 19.3864 158.29 19.3864C158.453 19.3864 158.59 19.365 158.702 19.3221C158.821 19.2792 158.942 19.2192 159.062 19.142V20.4927C158.916 20.5527 158.761 20.6 158.599 20.6342C158.435 20.6685 158.242 20.6857 158.02 20.6857C157.411 20.6857 156.926 20.5099 156.566 20.1583C156.206 19.7981 156.026 19.3049 156.026 18.6789Z" fill="white"/>
<path d="M157.588 0.321289H16.0793C7.37583 0.321289 0.320312 7.37681 0.320312 16.0802C0.320312 24.7837 7.37583 31.8392 16.0793 31.8392H157.588C166.292 31.8392 173.347 24.7837 173.347 16.0802C173.347 7.37681 166.292 0.321289 157.588 0.321289Z" stroke="#747775"/>
</g>
<defs>
<linearGradient id="paint0_linear_568_231" x1="22.2365" y1="19.8023" x2="12.0483" y2="31.462" gradientUnits="userSpaceOnUse">
<stop stop-color="#4285F4"/>
<stop offset="1" stop-color="#1B74E8"/>
</linearGradient>
<clipPath id="clip0_568_231">
<rect width="173.67" height="32.1611" fill="white"/>
</clipPath>
</defs>
</svg>
