<svg width="174" height="28" viewBox="0 0 174 28" fill="none" xmlns="http://www.w3.org/2000/svg">
<g clip-path="url(#clip0_568_718)">
<path d="M159.708 0.279297H13.9587C6.40272 0.279297 0.277344 6.40467 0.277344 13.9607C0.277344 21.5167 6.40272 27.6421 13.9587 27.6421H159.708C167.264 27.6421 173.389 21.5167 173.389 13.9607C173.389 6.40467 167.264 0.279297 159.708 0.279297Z" fill="#1F1F1F"/>
<path d="M159.708 0.279297H13.9587C6.40272 0.279297 0.277344 6.40467 0.277344 13.9607C0.277344 21.5167 6.40272 27.6421 13.9587 27.6421H159.708C167.264 27.6421 173.389 21.5167 173.389 13.9607C173.389 6.40467 167.264 0.279297 159.708 0.279297Z" stroke="#747775"/>
<path d="M28.4793 12.2854H11.7266V9.49329C11.7266 7.97756 12.9561 6.70117 14.4162 6.70117H25.7896C27.2498 6.70117 28.4793 7.97756 28.4793 9.49329V12.2854Z" fill="#34A853"/>
<path d="M28.4793 14.5491H11.7266V11.757C11.7266 10.2412 12.9561 8.96484 14.4162 8.96484H25.7896C27.2498 8.96484 28.4793 10.2412 28.4793 11.757V14.5491Z" fill="#FBBC04"/>
<path d="M28.4793 16.8909H11.7266V14.0988C11.7266 12.583 12.9561 11.3066 14.4162 11.3066H25.7896C27.2498 11.3066 28.4793 12.583 28.4793 14.0988V16.8909Z" fill="#EA4335"/>
<path d="M11.7266 12.9974L22.3596 15.4566C23.5835 15.764 24.9604 15.4566 25.9549 14.6881L28.4793 12.8438V18.6073C28.4793 20.0674 27.2553 21.2201 25.8019 21.2201H14.4039C12.9505 21.2201 11.7266 20.0674 11.7266 18.6073V12.9974Z" fill="#4285F4"/>
<path d="M39.8718 18.0486C39.2984 18.0486 38.7587 17.9443 38.2523 17.7359C37.746 17.5274 37.2993 17.237 36.9121 16.8647C36.5324 16.485 36.2309 16.042 36.0075 15.5357C35.7915 15.0219 35.6836 14.4672 35.6836 13.8716C35.6836 13.2759 35.7915 12.725 36.0075 12.2186C36.2309 11.7049 36.5324 11.2619 36.9121 10.8896C37.2993 10.5099 37.746 10.2157 38.2523 10.0073C38.7587 9.79881 39.2984 9.69455 39.8718 9.69455C40.4823 9.69455 41.0445 9.80249 41.5582 10.0184C42.0794 10.2344 42.515 10.5359 42.8649 10.9231L42.0161 11.7607C41.8449 11.5671 41.6476 11.4033 41.4242 11.2693C41.2083 11.1353 40.97 11.0348 40.7094 10.9678C40.4488 10.8933 40.1696 10.8561 39.8718 10.8561C39.4771 10.8561 39.1011 10.9268 38.7438 11.0683C38.3864 11.2097 38.0699 11.4145 37.7944 11.6825C37.5264 11.9432 37.3142 12.2596 37.1578 12.6319C37.0015 12.9967 36.9233 13.4099 36.9233 13.8716C36.9233 14.3332 37.0015 14.7501 37.1578 15.1224C37.3216 15.4873 37.5376 15.8037 37.8056 16.0718C38.0811 16.3324 38.3975 16.5334 38.7549 16.6749C39.1123 16.8163 39.4883 16.8871 39.8829 16.8871C40.2478 16.8871 40.5866 16.835 40.8993 16.7307C41.2194 16.6264 41.4986 16.4776 41.7369 16.284C41.9752 16.0904 42.1687 15.8558 42.3177 15.5803C42.4666 15.2974 42.5596 14.981 42.5969 14.631H39.8606V13.5477H43.7472C43.7621 13.637 43.777 13.7413 43.7919 13.8604C43.8068 13.9721 43.8143 14.08 43.8143 14.1843V14.1955C43.8143 14.7688 43.7137 15.2937 43.5127 15.7702C43.3191 16.2467 43.0474 16.6563 42.6974 16.9987C42.3474 17.3338 41.9305 17.5944 41.4465 17.7805C40.97 17.9592 40.4451 18.0486 39.8718 18.0486ZM47.4104 18.0486C46.8222 18.0486 46.3047 17.9146 45.858 17.6465C45.4112 17.3785 45.0613 17.0173 44.8081 16.5632C44.555 16.1015 44.4284 15.5878 44.4284 15.0219C44.4284 14.4561 44.555 13.946 44.8081 13.4918C45.0613 13.0302 45.4112 12.6654 45.858 12.3973C46.3047 12.1293 46.8222 11.9953 47.4104 11.9953C47.9912 11.9953 48.5049 12.133 48.9516 12.4085C49.3984 12.6765 49.7484 13.0377 50.0015 13.4918C50.2547 13.946 50.3812 14.4561 50.3812 15.0219C50.3812 15.5878 50.2547 16.1015 50.0015 16.5632C49.7484 17.0173 49.3984 17.3785 48.9516 17.6465C48.5049 17.9146 47.9912 18.0486 47.4104 18.0486ZM47.4104 16.9429C47.7231 16.9429 48.0135 16.8685 48.2815 16.7195C48.5496 16.5632 48.7655 16.3435 48.9293 16.0606C49.1006 15.7702 49.1862 15.424 49.1862 15.0219C49.1862 14.6199 49.1006 14.2774 48.9293 13.9944C48.7655 13.704 48.5496 13.4844 48.2815 13.3355C48.0135 13.1791 47.7231 13.1009 47.4104 13.1009C47.0977 13.1009 46.8036 13.1791 46.5281 13.3355C46.26 13.4844 46.0404 13.704 45.8691 13.9944C45.7054 14.2774 45.6234 14.6199 45.6234 15.0219C45.6234 15.424 45.7054 15.7702 45.8691 16.0606C46.0404 16.3435 46.2638 16.5632 46.5393 16.7195C46.8148 16.8685 47.1052 16.9429 47.4104 16.9429ZM54.1726 18.0486C53.5844 18.0486 53.0669 17.9146 52.6202 17.6465C52.1734 17.3785 51.8235 17.0173 51.5703 16.5632C51.3172 16.1015 51.1906 15.5878 51.1906 15.0219C51.1906 14.4561 51.3172 13.946 51.5703 13.4918C51.8235 13.0302 52.1734 12.6654 52.6202 12.3973C53.0669 12.1293 53.5844 11.9953 54.1726 11.9953C54.7533 11.9953 55.2671 12.133 55.7138 12.4085C56.1605 12.6765 56.5106 13.0377 56.7636 13.4918C57.0171 13.946 57.1433 14.4561 57.1433 15.0219C57.1433 15.5878 57.0171 16.1015 56.7636 16.5632C56.5106 17.0173 56.1605 17.3785 55.7138 17.6465C55.2671 17.9146 54.7533 18.0486 54.1726 18.0486ZM54.1726 16.9429C54.4853 16.9429 54.7757 16.8685 55.0437 16.7195C55.3118 16.5632 55.5277 16.3435 55.6915 16.0606C55.8628 15.7702 55.9483 15.424 55.9483 15.0219C55.9483 14.6199 55.8628 14.2774 55.6915 13.9944C55.5277 13.704 55.3118 13.4844 55.0437 13.3355C54.7757 13.1791 54.4853 13.1009 54.1726 13.1009C53.8599 13.1009 53.5658 13.1791 53.2903 13.3355C53.0222 13.4844 52.8026 13.704 52.6313 13.9944C52.4675 14.2774 52.3856 14.6199 52.3856 15.0219C52.3856 15.424 52.4675 15.7702 52.6313 16.0606C52.8026 16.3435 53.026 16.5632 53.3014 16.7195C53.577 16.8685 53.8673 16.9429 54.1726 16.9429ZM60.8233 20.461C60.3241 20.461 59.8924 20.3791 59.5278 20.2153C59.1704 20.0589 58.88 19.8541 58.6566 19.601C58.4332 19.3553 58.273 19.1022 58.1764 18.8415L59.2932 18.3725C59.4122 18.6703 59.602 18.9123 59.8628 19.0984C60.1309 19.292 60.4508 19.3888 60.8233 19.3888C61.3516 19.3888 61.7648 19.2324 62.063 18.9197C62.3606 18.607 62.5097 18.164 62.5097 17.5907V17.0434H62.4427C62.264 17.304 62.0183 17.5162 61.7056 17.68C61.3929 17.8438 61.0316 17.9257 60.6223 17.9257C60.1381 17.9257 59.6914 17.8029 59.282 17.5572C58.88 17.3115 58.5561 16.969 58.3104 16.5297C58.0719 16.0829 57.953 15.5617 57.953 14.9661C57.953 14.363 58.0719 13.8418 58.3104 13.4025C58.5561 12.9557 58.88 12.6095 59.282 12.3638C59.6914 12.1181 60.1381 11.9953 60.6223 11.9953C61.0316 11.9953 61.3929 12.0772 61.7056 12.241C62.0183 12.3973 62.264 12.6133 62.4427 12.8887H62.5097V12.174H63.6601V17.5683C63.6601 18.1863 63.5372 18.7113 63.2915 19.1431C63.0531 19.5749 62.7219 19.9026 62.2975 20.1259C61.8731 20.3493 61.3817 20.461 60.8233 20.461ZM60.8345 16.8312C61.1321 16.8312 61.4074 16.7605 61.6609 16.619C61.9212 16.4701 62.1261 16.2579 62.2752 15.9824C62.4316 15.6995 62.5097 15.3607 62.5097 14.9661C62.5097 14.5491 62.4316 14.2029 62.2752 13.9274C62.1261 13.6519 61.9212 13.4434 61.6609 13.302C61.4074 13.1605 61.1321 13.0898 60.8345 13.0898C60.5363 13.0898 60.2571 13.1605 59.9968 13.302C59.7433 13.4434 59.5389 13.6556 59.3826 13.9386C59.2262 14.214 59.148 14.5566 59.148 14.9661C59.148 15.3681 59.2262 15.7106 59.3826 15.9936C59.5389 16.269 59.7433 16.4776 59.9968 16.619C60.2571 16.7605 60.5363 16.8312 60.8345 16.8312ZM65.0824 17.8699V9.87325H66.2886V17.8699H65.0824ZM70.2584 18.0486C69.7 18.0486 69.2008 17.9183 68.7619 17.6577C68.3224 17.3971 67.9762 17.0397 67.7232 16.5855C67.4775 16.1313 67.3546 15.6139 67.3546 15.0331C67.3546 14.4896 67.4736 13.987 67.712 13.5253C67.9499 13.0637 68.2816 12.6951 68.706 12.4197C69.1377 12.1367 69.633 11.9953 70.1914 11.9953C70.7795 11.9953 71.2781 12.1219 71.688 12.375C72.1046 12.6281 72.4212 12.9743 72.6373 13.4137C72.8529 13.853 72.9612 14.3481 72.9612 14.8991C72.9612 14.981 72.9573 15.0554 72.95 15.1224C72.95 15.1894 72.9461 15.2415 72.9389 15.2788H68.5385C68.5681 15.5915 68.6463 15.8633 68.773 16.0941C68.9366 16.3845 69.1528 16.6041 69.4208 16.753C69.6888 16.902 69.9792 16.9764 70.2919 16.9764C70.6717 16.9764 70.9877 16.8908 71.2413 16.7195C71.5015 16.5408 71.7064 16.3212 71.8555 16.0606L72.8495 16.5408C72.6038 16.9876 72.2688 17.3524 71.8444 17.6353C71.42 17.9108 70.8911 18.0486 70.2584 18.0486ZM68.6055 14.3741H71.7662C71.7584 14.2327 71.7215 14.0838 71.6545 13.9274C71.5875 13.7636 71.4903 13.6147 71.3641 13.4807C71.2374 13.3466 71.0771 13.2387 70.8839 13.1568C70.6901 13.0674 70.4628 13.0228 70.2026 13.0228C69.8748 13.0228 69.5844 13.1084 69.3315 13.2796C69.0779 13.4434 68.8808 13.6743 68.7395 13.9721C68.6798 14.0987 68.6351 14.2327 68.6055 14.3741ZM77.8703 17.8699L75.726 9.87325H77.0885L78.3617 15.0666L78.4958 15.759H78.5628L78.7303 15.0666L80.3386 9.87325H81.5671L83.1083 15.0666L83.2759 15.7479H83.3429L83.4769 15.0666L84.7501 9.87325H86.1015L83.9907 17.8699H82.6951L81.165 12.5649L80.9863 11.8166H80.9193L80.7295 12.5649L79.1324 17.8699H77.8703ZM88.3441 18.0486C87.9348 18.0486 87.5702 17.9667 87.2496 17.8029C86.9369 17.6391 86.6878 17.4157 86.5013 17.1328C86.3226 16.8424 86.2333 16.5111 86.2333 16.1388C86.2333 15.7293 86.3377 15.3831 86.546 15.1001C86.7621 14.8171 87.0486 14.6013 87.406 14.4523C87.7634 14.3034 88.1582 14.229 88.5898 14.229C88.8283 14.229 89.0478 14.2476 89.2488 14.2848C89.4576 14.3146 89.6363 14.3518 89.7849 14.3965C89.9412 14.4412 90.0641 14.4896 90.1534 14.5417V14.2401C90.1534 13.8678 90.0194 13.57 89.7514 13.3466C89.4833 13.1233 89.1371 13.0116 88.7127 13.0116C88.4223 13.0116 88.147 13.0786 87.8862 13.2126C87.626 13.3392 87.4171 13.5142 87.2608 13.7375L86.4343 13.1009C86.5985 12.8701 86.7956 12.6728 87.0262 12.509C87.2647 12.3452 87.5288 12.2186 87.8192 12.1293C88.1174 12.0399 88.4262 11.9953 88.7462 11.9953C89.5727 11.9953 90.2093 12.2 90.656 12.6095C91.1027 13.0116 91.3261 13.5774 91.3261 14.3071V17.8699H90.1534V17.1663H90.0864C89.9898 17.3152 89.8558 17.4567 89.6844 17.5907C89.5207 17.7247 89.3236 17.8326 89.0924 17.9146C88.8691 18.0039 88.62 18.0486 88.3441 18.0486ZM88.5563 17.0658C88.8691 17.0658 89.1449 16.9913 89.3828 16.8424C89.6285 16.6935 89.8184 16.4999 89.9524 16.2616C90.0864 16.0159 90.1534 15.7516 90.1534 15.4687C89.9898 15.3719 89.7888 15.2937 89.5503 15.2341C89.3197 15.1671 89.074 15.1336 88.8132 15.1336C88.3218 15.1336 87.9722 15.2304 87.7634 15.424C87.5551 15.6176 87.4507 15.8596 87.4507 16.1499C87.4507 16.418 87.5512 16.6376 87.7522 16.8089C87.9532 16.9801 88.2213 17.0658 88.5563 17.0658ZM92.6652 17.8699V9.87325H93.8714V17.8699H92.6652ZM95.3049 17.8699V9.87325H96.5111V17.8699H95.3049ZM100.481 18.0486C99.9225 18.0486 99.4233 17.9183 98.9843 17.6577C98.5449 17.3971 98.1986 17.0397 97.9457 16.5855C97.7 16.1313 97.5771 15.6139 97.5771 15.0331C97.5771 14.4896 97.6961 13.987 97.9345 13.5253C98.1724 13.0637 98.5041 12.6951 98.9285 12.4197C99.3602 12.1367 99.8555 11.9953 100.414 11.9953C101.002 11.9953 101.501 12.1219 101.91 12.375C102.327 12.6281 102.644 12.9743 102.86 13.4137C103.075 13.853 103.184 14.3481 103.184 14.8991C103.184 14.981 103.18 15.0554 103.173 15.1224C103.173 15.1894 103.169 15.2415 103.161 15.2788H98.761C98.7906 15.5915 98.8688 15.8633 98.9955 16.0941C99.1591 16.3845 99.3753 16.6041 99.6433 16.753C99.9113 16.902 100.202 16.9764 100.514 16.9764C100.894 16.9764 101.21 16.8908 101.464 16.7195C101.724 16.5408 101.929 16.3212 102.078 16.0606L103.072 16.5408C102.826 16.9876 102.491 17.3524 102.067 17.6353C101.642 17.9108 101.114 18.0486 100.481 18.0486ZM98.828 14.3741H101.989C101.981 14.2327 101.944 14.0838 101.877 13.9274C101.81 13.7636 101.713 13.6147 101.587 13.4807C101.46 13.3466 101.3 13.2387 101.106 13.1568C100.913 13.0674 100.685 13.0228 100.425 13.0228C100.097 13.0228 99.8069 13.1084 99.5539 13.2796C99.3004 13.4434 99.1033 13.6743 98.962 13.9721C98.9023 14.0987 98.8576 14.2327 98.828 14.3741ZM103.748 12.174H104.742V10.5657H105.948V12.174H107.345V13.2238H105.948V15.9601C105.948 16.243 106.004 16.4589 106.116 16.6078C106.235 16.7568 106.432 16.8312 106.708 16.8312C106.842 16.8312 106.961 16.8126 107.065 16.7754C107.169 16.7307 107.274 16.6786 107.378 16.619V17.7917C107.251 17.8438 107.117 17.8848 106.976 17.9146C106.834 17.9443 106.667 17.9592 106.473 17.9592C105.945 17.9592 105.524 17.8066 105.211 17.5013C104.899 17.1886 104.742 16.7605 104.742 16.2169V13.2238H103.748V12.174ZM112.426 16.2951C112.27 16.2951 112.102 16.2467 111.924 16.1499C111.752 16.0457 111.589 15.9117 111.432 15.7479C111.276 15.5841 111.149 15.4128 111.052 15.2341C110.956 15.048 110.907 14.8693 110.907 14.698C110.907 14.497 110.967 14.3444 111.086 14.2401C111.213 14.1359 111.372 14.0838 111.566 14.0838H111.845V11.3587H110.181V10.4428H117.541V11.3587H116.536V17.8699H115.419V15.0666H112.951V15.7255C112.951 15.8968 112.903 16.0345 112.806 16.1388C112.717 16.243 112.59 16.2951 112.426 16.2951ZM115.419 14.0838V11.3587H112.951V14.0838H115.419ZM118.381 17.8699V11.3587H117.096V10.4428H120.503V11.3587H119.498V17.8699H118.381ZM126.847 19.8244C126.236 19.6382 125.7 19.3888 125.239 19.0761C124.784 18.7708 124.431 18.4171 124.178 18.0151C123.924 17.613 123.798 17.1737 123.798 16.6972C123.798 16.0271 124.04 15.4761 124.524 15.0443V14.9884C124.226 14.8618 123.991 14.6831 123.82 14.4523C123.656 14.214 123.575 13.946 123.575 13.6482C123.575 13.2089 123.727 12.8627 124.032 12.6095C124.345 12.3489 124.766 12.2186 125.295 12.2186H127.16V11.3587H122.659V10.4428H129.36V11.3587H128.232V13.1791H125.417C125.194 13.1791 125.015 13.235 124.881 13.3466C124.755 13.4509 124.691 13.5924 124.691 13.771C124.691 13.9572 124.755 14.1024 124.881 14.2066C125.015 14.3034 125.194 14.3518 125.417 14.3518H126.199C126.705 14.3518 127.145 14.4412 127.517 14.6199C127.897 14.7911 128.187 15.0331 128.388 15.3458C128.596 15.6511 128.701 16.0159 128.701 16.4403C128.701 17.0508 128.474 17.5944 128.02 18.0709L127.148 17.3896C127.283 17.2482 127.386 17.103 127.461 16.9541C127.535 16.7977 127.573 16.6339 127.573 16.4627C127.573 16.1425 127.457 15.8856 127.227 15.692C126.995 15.491 126.687 15.3905 126.3 15.3905C125.875 15.3905 125.54 15.5096 125.295 15.7479C125.049 15.9862 124.926 16.3063 124.926 16.7084C124.926 17.2147 125.13 17.6428 125.54 17.9927C125.95 18.3501 126.508 18.6293 127.216 18.8304L126.847 19.8244ZM130.192 17.8699V11.3587H128.908V10.4428H132.314V11.3587H131.309V17.8699H130.192ZM134.689 18.0486C134.071 17.5646 133.595 17.0472 133.26 16.4962C132.932 15.9452 132.768 15.3644 132.768 14.7539C132.768 14.3071 132.851 13.9162 133.014 13.5812C133.178 13.2461 133.409 12.9855 133.707 12.7994C134.004 12.6058 134.35 12.509 134.745 12.509C135.073 12.509 135.363 12.5723 135.616 12.6989C135.877 12.8255 136.093 13.0116 136.264 13.2573H136.331C136.503 13.019 136.707 12.8366 136.945 12.71C137.184 12.576 137.474 12.509 137.817 12.509C138.189 12.509 138.516 12.6021 138.799 12.7882C139.09 12.9743 139.347 13.2461 139.57 13.6035L138.833 14.1508C138.706 13.9423 138.569 13.7896 138.42 13.6929C138.271 13.5961 138.089 13.5477 137.872 13.5477C137.589 13.5477 137.37 13.637 137.214 13.8157C137.064 13.9944 136.99 14.2513 136.99 14.5863V15.7032H135.873V14.5863C135.873 14.2587 135.791 14.0056 135.628 13.8269C135.464 13.6408 135.233 13.5477 134.935 13.5477C134.615 13.5477 134.366 13.6556 134.187 13.8716C134.008 14.08 133.919 14.3741 133.919 14.7539C133.919 15.2006 134.046 15.6288 134.299 16.0383C134.552 16.4403 134.92 16.8275 135.404 17.1998L134.689 18.0486ZM131.864 11.3587V10.4428H138.174V11.3587H131.864ZM139.91 15.7032C139.746 15.7032 139.571 15.6511 139.385 15.5468C139.199 15.4352 139.023 15.2937 138.86 15.1224C138.703 14.9512 138.573 14.7688 138.469 14.5752C138.372 14.3741 138.324 14.188 138.324 14.0168C138.324 13.8232 138.383 13.6743 138.502 13.57C138.621 13.4583 138.782 13.4025 138.983 13.4025H142.523V11.3587H137.732V10.4428H144.645V11.3587H143.64V17.8699H142.523V14.3853H140.446V15.1224C140.446 15.3011 140.397 15.4426 140.3 15.5468C140.211 15.6511 140.081 15.7032 139.91 15.7032ZM142.759 21.0194C142.104 21.0194 141.505 20.8481 140.961 20.5056C140.425 20.1706 139.938 19.6568 139.498 18.9644L140.38 18.3836C140.753 18.9271 141.125 19.3292 141.497 19.5898C141.87 19.8579 142.283 19.9919 142.737 19.9919C143.027 19.9919 143.258 19.9249 143.429 19.7909C143.608 19.6568 143.697 19.4819 143.697 19.2659C143.697 19.0649 143.638 18.9048 143.519 18.7857C143.4 18.6666 143.236 18.607 143.027 18.607C142.745 18.607 142.447 18.7373 142.134 18.9979L141.475 18.2161C141.944 17.8215 142.462 17.6242 143.027 17.6242C143.393 17.6242 143.709 17.6986 143.977 17.8475C144.252 17.989 144.465 18.1826 144.613 18.4283C144.77 18.6814 144.848 18.9681 144.848 19.2883C144.848 19.8095 144.658 20.2264 144.278 20.5392C143.898 20.8593 143.392 21.0194 142.759 21.0194ZM148.388 19.8244C147.777 19.6382 147.241 19.3888 146.779 19.0761C146.325 18.7708 145.971 18.4171 145.718 18.0151C145.465 17.613 145.339 17.1737 145.339 16.6972C145.339 16.0271 145.58 15.4761 146.065 15.0443V14.9884C145.767 14.8618 145.532 14.6831 145.361 14.4523C145.197 14.214 145.115 13.946 145.115 13.6482C145.115 13.2089 145.268 12.8627 145.573 12.6095C145.886 12.3489 146.306 12.2186 146.835 12.2186H148.7V11.3587H144.199V10.4428H150.901V11.3587H149.772V13.1791H146.958C146.735 13.1791 146.556 13.235 146.422 13.3466C146.295 13.4509 146.232 13.5924 146.232 13.771C146.232 13.9572 146.295 14.1024 146.422 14.2066C146.556 14.3034 146.735 14.3518 146.958 14.3518H147.74C148.246 14.3518 148.685 14.4412 149.058 14.6199C149.437 14.7911 149.728 15.0331 149.929 15.3458C150.137 15.6511 150.242 16.0159 150.242 16.4403C150.242 17.0508 150.014 17.5944 149.56 18.0709L148.689 17.3896C148.823 17.2482 148.928 17.103 149.002 16.9541C149.076 16.7977 149.114 16.6339 149.114 16.4627C149.114 16.1425 148.998 15.8856 148.767 15.692C148.537 15.491 148.227 15.3905 147.84 15.3905C147.416 15.3905 147.081 15.5096 146.835 15.7479C146.589 15.9862 146.467 16.3063 146.467 16.7084C146.467 17.2147 146.672 17.6428 147.081 17.9927C147.49 18.3501 148.049 18.6293 148.756 18.8304L148.388 19.8244ZM151.733 17.8699V11.3587H150.449V10.4428H151.644L151.13 9.37067C150.989 9.08028 150.851 8.85317 150.717 8.68939C150.583 8.5256 150.43 8.41017 150.259 8.34316C150.088 8.26873 149.879 8.23148 149.633 8.23148H149.042V7.18164H149.589C149.879 7.18164 150.136 7.21141 150.359 7.27099C150.583 7.33057 150.788 7.43109 150.974 7.57254C151.167 7.70656 151.342 7.88526 151.499 8.10863C151.663 8.332 151.826 8.60747 151.99 8.93509L152.727 10.4428H153.855V11.3587H152.85V17.8699H151.733ZM157.045 18.0709L153.952 14.1955L154.778 13.503C154.883 13.6221 154.99 13.7115 155.102 13.771C155.222 13.8232 155.356 13.8492 155.504 13.8492C155.743 13.8492 155.925 13.7785 156.051 13.637C156.185 13.4881 156.252 13.2908 156.252 13.0451V11.3587H153.404V10.4428H161.77V11.3587H160.765V17.8699H159.648V14.8991H157.313L155.795 14.7986L155.75 14.8767L156.342 15.4352L157.95 17.3673L157.045 18.0709ZM157.347 11.3587V13.0451C157.347 13.3876 157.288 13.6854 157.168 13.9386H159.648V11.3587H157.347ZM161.813 20.8072L161.311 20.1594C161.11 19.9137 160.92 19.735 160.741 19.6233C160.57 19.5191 160.361 19.467 160.116 19.467C159.997 19.467 159.867 19.4781 159.725 19.5005C159.591 19.5302 159.457 19.5712 159.323 19.6233L159.021 18.5958C159.208 18.5363 159.394 18.4879 159.58 18.4506C159.773 18.4209 159.952 18.406 160.116 18.406C160.384 18.406 160.618 18.4395 160.819 18.5065C161.02 18.5809 161.218 18.7038 161.411 18.875C161.612 19.0463 161.832 19.2845 162.07 19.5898L162.584 20.2264L161.813 20.8072Z" fill="white"/>
</g>
<defs>
<clipPath id="clip0_568_718">
<rect width="173.67" height="27.9212" fill="white"/>
</clipPath>
</defs>
</svg>
