<svg width="174" height="31" viewBox="0 0 174 31" fill="none" xmlns="http://www.w3.org/2000/svg">
<g clip-path="url(#clip0_568_969)">
<path d="M158.33 0.306641H15.3436C7.04001 0.306641 0.308594 7.03806 0.308594 15.3417C0.308594 23.6453 7.04001 30.3767 15.3436 30.3767H158.33C166.633 30.3767 173.365 23.6453 173.365 15.3417C173.365 7.03806 166.633 0.306641 158.33 0.306641Z" fill="#1F1F1F"/>
<path d="M31.297 13.501H12.8867V10.4326C12.8867 8.76693 14.2379 7.36426 15.8425 7.36426H28.3412C29.9458 7.36426 31.297 8.76693 31.297 10.4326V13.501Z" fill="#34A853"/>
<path d="M31.297 15.9883H12.8867V12.9199C12.8867 11.2542 14.2379 9.85156 15.8425 9.85156H28.3412C29.9458 9.85156 31.297 11.2542 31.297 12.9199V15.9883Z" fill="#FBBC04"/>
<path d="M31.297 18.5616H12.8867V15.4932C12.8867 13.8275 14.2379 12.4248 15.8425 12.4248H28.3412C29.9458 12.4248 31.297 13.8275 31.297 15.4932V18.5616Z" fill="#EA4335"/>
<path d="M12.8867 14.2831L24.5718 16.9856C25.9168 17.3234 27.43 16.9856 28.5228 16.1411L31.297 14.1143V20.4481C31.297 22.0526 29.9519 23.3194 28.3547 23.3194H15.829C14.2318 23.3194 12.8867 22.0526 12.8867 20.4481V14.2831Z" fill="url(#paint0_linear_568_969)"/>
<path d="M43.8174 19.8343C43.1873 19.8343 42.5942 19.7197 42.0377 19.4906C41.4896 19.2616 41.0027 18.9424 40.5772 18.5333C40.1517 18.116 39.8162 17.6292 39.5708 17.0728C39.3335 16.5082 39.2148 15.8986 39.2148 15.244C39.2148 14.5894 39.3335 13.9839 39.5708 13.4275C39.8162 12.8629 40.1476 12.3761 40.5649 11.967C40.9904 11.5497 41.4813 11.2265 42.0377 10.9974C42.5942 10.7683 43.1873 10.6537 43.8174 10.6537C44.4883 10.6537 45.1061 10.7723 45.6707 11.0097C46.2434 11.247 46.7221 11.5783 47.1067 12.0038L46.1739 12.9243C45.8875 12.6052 45.5439 12.3597 45.1429 12.1879C44.7502 12.0161 44.3083 11.9302 43.8174 11.9302C43.2364 11.9302 42.7005 12.0693 42.2096 12.3475C41.7186 12.6175 41.3218 13.0021 41.019 13.5012C40.7245 13.9921 40.5772 14.5731 40.5772 15.244C40.5772 15.9149 40.7286 16.5 41.0313 16.9991C41.334 17.4901 41.7309 17.8746 42.2219 18.1528C42.7128 18.4228 43.2487 18.5579 43.8297 18.5579C44.3615 18.5579 44.8443 18.4597 45.2779 18.2633C45.7116 18.0588 46.0593 17.7723 46.3212 17.4041C46.5912 17.0359 46.7549 16.5941 46.8121 16.0786H43.8051V14.8881H48.0763C48.1254 15.109 48.1499 15.3422 48.1499 15.5877V15.5999C48.1499 16.4509 47.9617 17.1955 47.5854 17.8337C47.2172 18.4638 46.7058 18.9547 46.0512 19.3065C45.3966 19.6584 44.652 19.8343 43.8174 19.8343ZM52.1019 19.8343C51.4555 19.8343 50.8868 19.687 50.3959 19.3925C49.9049 19.0979 49.5204 18.701 49.2422 18.2019C48.964 17.7028 48.8249 17.1382 48.8249 16.5082C48.8249 15.8863 48.964 15.3258 49.2422 14.8267C49.5204 14.3194 49.9049 13.9185 50.3959 13.6239C50.8868 13.3293 51.4555 13.1821 52.1019 13.1821C52.7401 13.1821 53.3047 13.3293 53.7956 13.6239C54.2866 13.9185 54.6712 14.3194 54.9493 14.8267C55.2276 15.3258 55.3666 15.8863 55.3666 16.5082C55.3666 17.1382 55.2276 17.7028 54.9493 18.2019C54.6712 18.701 54.2866 19.0979 53.7956 19.3925C53.3047 19.687 52.7401 19.8343 52.1019 19.8343ZM52.1019 18.6192C52.4456 18.6192 52.7647 18.5374 53.0592 18.3738C53.3538 18.2019 53.5911 17.9606 53.7711 17.6496C53.9593 17.3305 54.0534 16.95 54.0534 16.5082C54.0534 16.0663 53.9593 15.69 53.7711 15.379C53.5911 15.0599 53.3538 14.8185 53.0592 14.6549C52.7647 14.4831 52.4456 14.3971 52.1019 14.3971C51.7582 14.3971 51.4351 14.4831 51.1323 14.6549C50.8377 14.8185 50.5964 15.0599 50.4082 15.379C50.2282 15.69 50.1381 16.0663 50.1381 16.5082C50.1381 16.95 50.2282 17.3305 50.4082 17.6496C50.5964 17.9606 50.8377 18.2019 51.1323 18.3738C51.4351 18.5374 51.7582 18.6192 52.1019 18.6192ZM59.5331 19.8343C58.8867 19.8343 58.3181 19.687 57.8271 19.3925C57.3362 19.0979 56.9516 18.701 56.6734 18.2019C56.3952 17.7028 56.2561 17.1382 56.2561 16.5082C56.2561 15.8863 56.3952 15.3258 56.6734 14.8267C56.9516 14.3194 57.3362 13.9185 57.8271 13.6239C58.3181 13.3293 58.8867 13.1821 59.5331 13.1821C60.1713 13.1821 60.7359 13.3293 61.2269 13.6239C61.7177 13.9185 62.1025 14.3194 62.3805 14.8267C62.6591 15.3258 62.7978 15.8863 62.7978 16.5082C62.7978 17.1382 62.6591 17.7028 62.3805 18.2019C62.1025 18.701 61.7177 19.0979 61.2269 19.3925C60.7359 19.687 60.1713 19.8343 59.5331 19.8343ZM59.5331 18.6192C59.8768 18.6192 60.1959 18.5374 60.4905 18.3738C60.785 18.2019 61.0223 17.9606 61.2023 17.6496C61.3906 17.3305 61.4845 16.95 61.4845 16.5082C61.4845 16.0663 61.3906 15.69 61.2023 15.379C61.0223 15.0599 60.785 14.8185 60.4905 14.6549C60.1959 14.4831 59.8768 14.3971 59.5331 14.3971C59.1895 14.3971 58.8663 14.4831 58.5635 14.6549C58.269 14.8185 58.0276 15.0599 57.8394 15.379C57.6594 15.69 57.5694 16.0663 57.5694 16.5082C57.5694 16.95 57.6594 17.3305 57.8394 17.6496C58.0276 17.9606 58.269 18.2019 58.5635 18.3738C58.8663 18.5374 59.1895 18.6192 59.5331 18.6192ZM66.8419 22.4854C66.2932 22.4854 65.8189 22.3953 65.4181 22.2154C65.0254 22.0435 64.7063 21.8185 64.4608 21.5403C64.2153 21.2703 64.0392 20.9921 63.9331 20.7057L65.1604 20.1902C65.2911 20.5175 65.4998 20.7835 65.7863 20.988C66.0809 21.2008 66.4326 21.3071 66.8419 21.3071C67.4144 21.3071 67.8643 21.1353 68.192 20.7916C68.527 20.448 68.6952 19.9611 68.6952 19.3311V18.7297H68.6215C68.4252 19.0242 68.1508 19.2616 67.7992 19.4415C67.4555 19.6134 67.0628 19.6993 66.6209 19.6993C66.0889 19.6993 65.6022 19.5643 65.1604 19.2943C64.7186 19.0242 64.3626 18.6479 64.0926 18.1651C63.8226 17.6742 63.6876 17.1014 63.6876 16.4468C63.6876 15.784 63.8226 15.2113 64.0926 14.7285C64.3626 14.2376 64.7186 13.8571 65.1604 13.5871C65.6022 13.3171 66.0889 13.1821 66.6209 13.1821C67.0628 13.1821 67.4555 13.2721 67.7992 13.4521C68.1508 13.6321 68.4252 13.8694 68.6215 14.1639H68.6952V13.3784H69.9593V19.3065C69.9593 19.9857 69.8243 20.5625 69.5543 21.0371C69.2923 21.5117 68.9284 21.8717 68.462 22.1172C67.9956 22.3626 67.4555 22.4854 66.8419 22.4854ZM66.8541 18.4965C67.1812 18.4965 67.4838 18.4187 67.7624 18.2633C68.0404 18.0996 68.2656 17.8664 68.4374 17.5637C68.6093 17.2528 68.6952 16.8805 68.6952 16.4468C68.6952 15.9968 68.6093 15.6204 68.4374 15.3176C68.2656 15.0067 68.0404 14.7735 67.7624 14.6181C67.4838 14.4626 67.1812 14.3849 66.8541 14.3849C66.5264 14.3849 66.2196 14.4667 65.9336 14.6303C65.655 14.7858 65.4304 15.0149 65.2586 15.3176C65.0868 15.6204 65.0008 15.9968 65.0008 16.4468C65.0008 16.8887 65.0868 17.265 65.2586 17.576C65.4304 17.8787 65.655 18.1078 65.9336 18.2633C66.2196 18.4187 66.5264 18.4965 66.8541 18.4965ZM71.5224 19.6379V10.8501H72.8479V19.6379H71.5224ZM77.2105 19.8343C76.5968 19.8343 76.0482 19.6911 75.5659 19.4047C75.0829 19.1183 74.7024 18.7256 74.4244 18.2265C74.1544 17.7274 74.0194 17.1587 74.0194 16.5205C74.0194 15.9232 74.1501 15.3709 74.4122 14.8635C74.6736 14.3562 75.0381 13.9512 75.5045 13.6485C75.9789 13.3375 76.5232 13.1821 77.1369 13.1821C77.7831 13.1821 78.3311 13.3212 78.7815 13.5994C79.2393 13.8775 79.5873 14.258 79.8248 14.7408C80.0617 15.2236 80.1807 15.7677 80.1807 16.3732C80.1807 16.4632 80.1764 16.545 80.1684 16.6186C80.1684 16.6923 80.1641 16.7495 80.1562 16.7905H75.3204C75.3855 17.4123 75.6027 17.8787 75.9709 18.1896C76.3471 18.5006 76.7724 18.656 77.2473 18.656C77.6726 18.656 78.0243 18.562 78.3029 18.3738C78.5809 18.1774 78.8018 17.936 78.9656 17.6496L80.058 18.1774C79.788 18.6683 79.4198 19.0692 78.9534 19.3802C78.487 19.6829 77.9058 19.8343 77.2105 19.8343ZM77.1492 14.3112C76.7073 14.3112 76.3305 14.4462 76.02 14.7162C75.7089 14.9863 75.5002 15.3463 75.394 15.7963H78.8674C78.8509 15.5836 78.7815 15.3626 78.6588 15.1335C78.5361 14.9045 78.3477 14.7121 78.0942 14.5567C77.8487 14.393 77.5333 14.3112 77.1492 14.3112ZM88.3923 19.8343C87.7455 19.8343 87.1441 19.7197 86.5881 19.4906C86.0315 19.2533 85.5448 18.9261 85.1275 18.5088C84.7182 18.0915 84.3948 17.6046 84.1579 17.0482C83.9284 16.4918 83.8143 15.8904 83.8143 15.244C83.8143 14.5976 83.9284 13.9962 84.1579 13.4398C84.3948 12.8834 84.7182 12.3966 85.1275 11.9793C85.5448 11.562 86.0315 11.2387 86.5881 11.0097C87.1441 10.7723 87.7455 10.6537 88.3923 10.6537C89.0796 10.6537 89.6933 10.7806 90.2333 11.0342C90.7733 11.2797 91.2434 11.6315 91.6448 12.0897L90.6997 13.0102C90.4051 12.6584 90.0695 12.3924 89.6933 12.2125C89.3251 12.0242 88.8955 11.9302 88.4046 11.9302C87.8154 11.9302 87.2754 12.0693 86.7845 12.3475C86.2935 12.6175 85.9008 13.0021 85.6062 13.5012C85.3196 13.9921 85.1766 14.5731 85.1766 15.244C85.1766 15.9149 85.3196 16.5 85.6062 16.9991C85.9008 17.4901 86.2935 17.8746 86.7845 18.1528C87.2754 18.4228 87.8154 18.5579 88.4046 18.5579C88.936 18.5579 89.4067 18.4474 89.816 18.2265C90.2333 18.0055 90.6015 17.7028 90.9206 17.3182L91.8902 18.251C91.4809 18.7338 90.9777 19.1183 90.3806 19.4047C89.7915 19.6911 89.1287 19.8343 88.3923 19.8343ZM95.271 19.8343C94.502 19.8343 93.9209 19.6052 93.5281 19.147C93.1434 18.6806 92.9513 18.0505 92.9513 17.2569V13.3784H94.2768V17.0728C94.2768 17.6046 94.3996 17.9974 94.645 18.251C94.8985 18.4965 95.2139 18.6192 95.5901 18.6192C95.9258 18.6192 96.216 18.5333 96.4615 18.3615C96.715 18.1815 96.9076 17.9523 97.0384 17.6742C97.1777 17.3878 97.247 17.0769 97.247 16.7414V13.3784H98.5603V19.6379H97.3207V18.791H97.247C97.0672 19.0856 96.7972 19.3352 96.437 19.5397C96.0853 19.7361 95.6962 19.8343 95.271 19.8343ZM96.842 12.102C96.6376 12.102 96.4572 12.0284 96.302 11.8811C96.1547 11.7256 96.081 11.5415 96.081 11.3288C96.081 11.116 96.1547 10.9401 96.302 10.801C96.4572 10.6537 96.6376 10.5801 96.842 10.5801C97.0629 10.5801 97.247 10.6537 97.3943 10.801C97.5416 10.9401 97.6152 11.116 97.6152 11.3288C97.6152 11.5415 97.5416 11.7256 97.3943 11.8811C97.247 12.0284 97.0629 12.102 96.842 12.102ZM94.6696 12.102C94.4652 12.102 94.2848 12.0284 94.1295 11.8811C93.9823 11.7256 93.9086 11.5415 93.9086 11.3288C93.9086 11.116 93.9823 10.9401 94.1295 10.801C94.2848 10.6537 94.4652 10.5801 94.6696 10.5801C94.8905 10.5801 95.0703 10.6537 95.2096 10.801C95.3569 10.9401 95.4305 11.116 95.4305 11.3288C95.4305 11.5415 95.3569 11.7256 95.2096 11.8811C95.0703 12.0284 94.8905 12.102 94.6696 12.102ZM99.9809 19.6379V18.5333L103.467 14.5321H100.091V13.3784H105.087V14.4831L101.613 18.4842H105.185V19.6379H99.9809ZM108.98 19.8343C108.416 19.8343 107.905 19.6952 107.446 19.417C106.996 19.1306 106.636 18.7378 106.366 18.2387C106.104 17.7314 105.973 17.1546 105.973 16.5082C105.973 15.8618 106.104 15.289 106.366 14.7899C106.636 14.2908 106.996 13.898 107.446 13.6116C107.905 13.3252 108.416 13.1821 108.98 13.1821C109.463 13.1821 109.876 13.2884 110.22 13.5012C110.572 13.7139 110.829 13.9553 110.993 14.2253H111.067L110.993 13.3539V10.8501H112.307V19.6379H111.067V18.8033H110.993C110.829 19.0733 110.572 19.3147 110.22 19.5275C109.876 19.732 109.463 19.8343 108.98 19.8343ZM109.177 18.6192C109.504 18.6192 109.811 18.5333 110.097 18.3615C110.392 18.1896 110.625 17.9483 110.797 17.6373C110.977 17.3182 111.067 16.9419 111.067 16.5082C111.067 16.0745 110.977 15.7022 110.797 15.3913C110.625 15.0722 110.392 14.8267 110.097 14.6549C109.811 14.4831 109.504 14.3971 109.177 14.3971C108.85 14.3971 108.543 14.4831 108.256 14.6549C107.97 14.8267 107.737 15.0722 107.557 15.3913C107.377 15.7022 107.287 16.0745 107.287 16.5082C107.287 16.9419 107.377 17.3182 107.557 17.6373C107.737 17.9483 107.97 18.1896 108.256 18.3615C108.543 18.5333 108.85 18.6192 109.177 18.6192ZM115.771 19.8343C115.322 19.8343 114.921 19.7484 114.569 19.5766C114.217 19.3966 113.943 19.147 113.746 18.8279C113.55 18.5088 113.452 18.1447 113.452 17.7355C113.452 17.2937 113.566 16.9173 113.795 16.6064C114.033 16.2873 114.348 16.0459 114.74 15.8822C115.133 15.7186 115.567 15.6368 116.041 15.6368C116.434 15.6368 116.778 15.6736 117.072 15.7472C117.376 15.8209 117.604 15.8986 117.76 15.9804V15.649C117.76 15.2399 117.612 14.9126 117.318 14.6672C117.023 14.4217 116.643 14.2989 116.176 14.2989C115.857 14.2989 115.555 14.3726 115.268 14.5199C114.982 14.659 114.753 14.8513 114.581 15.0967L113.673 14.3971C113.943 14.0208 114.299 13.7262 114.74 13.5134C115.191 13.2925 115.682 13.1821 116.213 13.1821C117.121 13.1821 117.821 13.4071 118.312 13.8571C118.803 14.2989 119.048 14.9208 119.048 15.7227V19.6379H117.76V18.8647H117.686C117.523 19.1183 117.277 19.3434 116.95 19.5397C116.623 19.7361 116.23 19.8343 115.771 19.8343ZM116.005 18.7542C116.348 18.7542 116.651 18.6724 116.913 18.5088C117.175 18.3451 117.379 18.1324 117.527 17.8705C117.682 17.6005 117.76 17.3101 117.76 16.9991C117.572 16.8928 117.351 16.8069 117.097 16.7414C116.843 16.6677 116.573 16.6309 116.287 16.6309C115.747 16.6309 115.363 16.7414 115.133 16.9623C114.904 17.1751 114.79 17.4369 114.79 17.7478C114.79 18.0424 114.9 18.2837 115.121 18.4719C115.342 18.6602 115.636 18.7542 116.005 18.7542ZM120.508 19.6379V13.3784H121.76V14.2376H121.833C122.014 13.9349 122.279 13.6853 122.631 13.4889C122.991 13.2844 123.384 13.1821 123.809 13.1821C124.579 13.1821 125.156 13.4111 125.54 13.8694C125.925 14.3276 126.117 14.9331 126.117 15.6859V19.6379H124.803V15.8577C124.803 15.3504 124.677 14.9822 124.423 14.7531C124.17 14.5158 123.838 14.3971 123.429 14.3971C123.11 14.3971 122.832 14.4872 122.594 14.6672C122.357 14.839 122.169 15.0681 122.03 15.3545C121.899 15.6409 121.833 15.9477 121.833 16.275V19.6379H120.508ZM129.531 19.8343C129.081 19.8343 128.681 19.7484 128.328 19.5766C127.977 19.3966 127.702 19.147 127.506 18.8279C127.31 18.5088 127.212 18.1447 127.212 17.7355C127.212 17.2937 127.326 16.9173 127.555 16.6064C127.793 16.2873 128.107 16.0459 128.5 15.8822C128.893 15.7186 129.327 15.6368 129.801 15.6368C130.194 15.6368 130.538 15.6736 130.832 15.7472C131.135 15.8209 131.364 15.8986 131.52 15.9804V15.649C131.52 15.2399 131.372 14.9126 131.078 14.6672C130.783 14.4217 130.403 14.2989 129.936 14.2989C129.617 14.2989 129.315 14.3726 129.028 14.5199C128.742 14.659 128.513 14.8513 128.341 15.0967L127.432 14.3971C127.702 14.0208 128.058 13.7262 128.5 13.5134C128.951 13.2925 129.442 13.1821 129.973 13.1821C130.881 13.1821 131.581 13.4071 132.072 13.8571C132.563 14.2989 132.808 14.9208 132.808 15.7227V19.6379H131.52V18.8647H131.446C131.283 19.1183 131.037 19.3434 130.709 19.5397C130.382 19.7361 129.99 19.8343 129.531 19.8343ZM129.764 18.7542C130.108 18.7542 130.411 18.6724 130.673 18.5088C130.935 18.3451 131.139 18.1324 131.286 17.8705C131.442 17.6005 131.52 17.3101 131.52 16.9991C131.332 16.8928 131.111 16.8069 130.857 16.7414C130.603 16.6677 130.333 16.6309 130.047 16.6309C129.507 16.6309 129.123 16.7414 128.893 16.9623C128.664 17.1751 128.549 17.4369 128.549 17.7478C128.549 18.0424 128.66 18.2837 128.881 18.4719C129.102 18.6602 129.396 18.7542 129.764 18.7542Z" fill="white"/>
<path d="M140.484 19.8338C139.87 19.8338 139.322 19.6906 138.839 19.4042C138.356 19.1178 137.976 18.7251 137.698 18.226C137.428 17.7269 137.293 17.1582 137.293 16.52C137.293 15.9227 137.424 15.3704 137.686 14.863C137.948 14.3557 138.312 13.9507 138.778 13.648C139.252 13.337 139.797 13.1816 140.41 13.1816C141.057 13.1816 141.605 13.3207 142.055 13.5989C142.513 13.8771 142.861 14.2575 143.098 14.7403C143.336 15.2231 143.454 15.7672 143.454 16.3727C143.454 16.4627 143.45 16.5445 143.442 16.6182C143.442 16.6918 143.438 16.7491 143.43 16.79H138.594C138.66 17.4118 138.876 17.8782 139.244 18.1892C139.621 18.5001 140.047 18.6556 140.521 18.6556C140.946 18.6556 141.298 18.5615 141.576 18.3733C141.854 18.1769 142.075 17.9355 142.239 17.6491L143.332 18.1769C143.062 18.6678 142.693 19.0687 142.227 19.3797C141.761 19.6824 141.179 19.8338 140.484 19.8338ZM140.423 14.3107C139.981 14.3107 139.605 14.4457 139.294 14.7158C138.982 14.9858 138.774 15.3458 138.668 15.7958H142.141C142.124 15.5831 142.055 15.3621 141.932 15.1331C141.81 14.904 141.621 14.7116 141.368 14.5562C141.122 14.3925 140.807 14.3107 140.423 14.3107ZM144.684 19.6374V10.8496H146.01V16.029L148.661 13.3779H150.305V13.4516L147.887 15.8449L150.391 19.5638V19.6374H148.82L146.955 16.7654L146.01 17.6982V19.6374H144.684ZM151.228 19.6374V10.8496H152.554V19.6374H151.228ZM156.916 19.8338C156.303 19.8338 155.755 19.6906 155.272 19.4042C154.789 19.1178 154.409 18.7251 154.13 18.226C153.86 17.7269 153.725 17.1582 153.725 16.52C153.725 15.9227 153.857 15.3704 154.118 14.863C154.38 14.3557 154.744 13.9507 155.21 13.648C155.685 13.337 156.229 13.1816 156.843 13.1816C157.49 13.1816 158.038 13.3207 158.487 13.5989C158.946 13.8771 159.294 14.2575 159.531 14.7403C159.768 15.2231 159.887 15.7672 159.887 16.3727C159.887 16.4627 159.883 16.5445 159.874 16.6182C159.874 16.6918 159.871 16.7491 159.862 16.79H155.026C155.092 17.4118 155.309 17.8782 155.677 18.1892C156.054 18.5001 156.479 18.6556 156.953 18.6556C157.379 18.6556 157.731 18.5615 158.009 18.3733C158.287 18.1769 158.508 17.9355 158.672 17.6491L159.764 18.1769C159.494 18.6678 159.126 19.0687 158.659 19.3797C158.193 19.6824 157.612 19.8338 156.916 19.8338ZM156.855 14.3107C156.413 14.3107 156.037 14.4457 155.726 14.7158C155.415 14.9858 155.207 15.3458 155.1 15.7958H158.573C158.557 15.5831 158.487 15.3621 158.365 15.1331C158.242 14.904 158.054 14.7116 157.8 14.5562C157.555 14.3925 157.24 14.3107 156.855 14.3107Z" fill="white"/>
<path d="M158.33 0.306641H15.3436C7.04001 0.306641 0.308594 7.03806 0.308594 15.3417C0.308594 23.6453 7.04001 30.3767 15.3436 30.3767H158.33C166.633 30.3767 173.365 23.6453 173.365 15.3417C173.365 7.03806 166.633 0.306641 158.33 0.306641Z" stroke="#747775"/>
</g>
<defs>
<linearGradient id="paint0_linear_568_969" x1="21.2145" y1="18.8926" x2="11.4942" y2="30.0166" gradientUnits="userSpaceOnUse">
<stop stop-color="#4285F4"/>
<stop offset="1" stop-color="#1B74E8"/>
</linearGradient>
<clipPath id="clip0_568_969">
<rect width="173.67" height="30.6837" fill="white"/>
</clipPath>
</defs>
</svg>
