<svg width="174" height="27" viewBox="0 0 174 27" fill="none" xmlns="http://www.w3.org/2000/svg">
<g clip-path="url(#clip0_568_87)">
<path d="M160.351 0.266602H13.3175C6.10915 0.266602 0.265625 6.11013 0.265625 13.3185C0.265625 20.5268 6.10915 26.3704 13.3175 26.3704H160.351C167.559 26.3704 173.403 20.5268 173.403 13.3185C173.403 6.11013 167.559 0.266602 160.351 0.266602Z" fill="#1F1F1F"/>
<path d="M27.1694 11.7199H11.1875V9.05623C11.1875 7.61024 12.3605 6.39258 13.7534 6.39258H24.6035C25.9964 6.39258 27.1694 7.61024 27.1694 9.05623V11.7199Z" fill="#34A853"/>
<path d="M27.1694 13.88H11.1875V11.2164C11.1875 9.7704 12.3605 8.55273 13.7534 8.55273H24.6035C25.9964 8.55273 27.1694 9.7704 27.1694 11.2164V13.88Z" fill="#FBBC04"/>
<path d="M27.1694 16.1134H11.1875V13.4498C11.1875 12.0038 12.3605 10.7861 13.7534 10.7861H24.6035C25.9964 10.7861 27.1694 12.0038 27.1694 13.4498V16.1134Z" fill="#EA4335"/>
<path d="M11.1875 12.3995L21.3313 14.7455C22.4989 15.0388 23.8125 14.7455 24.7612 14.0124L27.1694 12.2529V17.7513C27.1694 19.1442 26.0018 20.2439 24.6152 20.2439H13.7417C12.3551 20.2439 11.1875 19.1442 11.1875 17.7513V12.3995Z" fill="url(#paint0_linear_568_87)"/>
<path d="M38.0384 17.2177C37.4915 17.2177 36.9766 17.1182 36.4935 16.9194C36.0176 16.7205 35.595 16.4435 35.2256 16.0883C34.8563 15.726 34.565 15.3034 34.352 14.8204C34.1459 14.3303 34.043 13.8011 34.043 13.2329C34.043 12.6646 34.1459 12.139 34.352 11.656C34.565 11.1659 34.8527 10.7433 35.215 10.3881C35.5843 10.0258 36.0105 9.74524 36.4935 9.54638C36.9766 9.34751 37.4915 9.24805 38.0384 9.24805C38.6209 9.24805 39.1572 9.35102 39.6473 9.55703C40.1445 9.76304 40.56 10.0507 40.8939 10.4201L40.0841 11.2191C39.8355 10.9421 39.5372 10.729 39.1891 10.5799C38.8482 10.4307 38.4646 10.3561 38.0384 10.3561C37.5341 10.3561 37.0689 10.4769 36.6427 10.7184C36.2165 10.9528 35.872 11.2866 35.6092 11.7199C35.3535 12.1461 35.2256 12.6504 35.2256 13.2329C35.2256 13.8153 35.3571 14.3232 35.6198 14.7565C35.8826 15.1827 36.2272 15.5165 36.6533 15.758C37.0795 15.9924 37.5448 16.1096 38.0491 16.1096C38.5108 16.1096 38.9299 16.0244 39.3063 15.8539C39.6828 15.6763 39.9847 15.4277 40.212 15.1081C40.4464 14.7884 40.5885 14.4049 40.6382 13.9574H38.0278V12.9239H41.7356C41.7782 13.1157 41.7995 13.3181 41.7995 13.5312V13.5419C41.7995 14.2806 41.6361 14.9269 41.3094 15.481C40.9898 16.0279 40.5458 16.4541 39.9776 16.7595C39.4093 17.065 38.763 17.2177 38.0384 17.2177ZM45.2302 17.2177C44.6691 17.2177 44.1754 17.0898 43.7492 16.8341C43.323 16.5784 42.9892 16.2339 42.7477 15.8006C42.5062 15.3674 42.3854 14.8772 42.3854 14.3303C42.3854 13.7905 42.5062 13.3039 42.7477 12.8706C42.9892 12.4302 43.323 12.0822 43.7492 11.8265C44.1754 11.5708 44.6691 11.4429 45.2302 11.4429C45.7842 11.4429 46.2743 11.5708 46.7005 11.8265C47.1267 12.0822 47.4606 12.4302 47.7021 12.8706C47.9436 13.3039 48.0643 13.7905 48.0643 14.3303C48.0643 14.8772 47.9436 15.3674 47.7021 15.8006C47.4606 16.2339 47.1267 16.5784 46.7005 16.8341C46.2743 17.0898 45.7842 17.2177 45.2302 17.2177ZM45.2302 16.1629C45.5285 16.1629 45.8055 16.0919 46.0613 15.9498C46.317 15.8006 46.523 15.5911 46.6792 15.3212C46.8426 15.0442 46.9243 14.7139 46.9243 14.3303C46.9243 13.9467 46.8426 13.62 46.6792 13.3501C46.523 13.073 46.317 12.8635 46.0613 12.7214C45.8055 12.5723 45.5285 12.4977 45.2302 12.4977C44.9319 12.4977 44.6513 12.5723 44.3885 12.7214C44.1328 12.8635 43.9232 13.073 43.7599 13.3501C43.6036 13.62 43.5255 13.9467 43.5255 14.3303C43.5255 14.7139 43.6036 15.0442 43.7599 15.3212C43.9232 15.5911 44.1328 15.8006 44.3885 15.9498C44.6513 16.0919 44.9319 16.1629 45.2302 16.1629ZM51.6812 17.2177C51.1201 17.2177 50.6264 17.0898 50.2002 16.8341C49.7741 16.5784 49.4402 16.2339 49.1987 15.8006C48.9572 15.3674 48.8365 14.8772 48.8365 14.3303C48.8365 13.7905 48.9572 13.3039 49.1987 12.8706C49.4402 12.4302 49.7741 12.0822 50.2002 11.8265C50.6264 11.5708 51.1201 11.4429 51.6812 11.4429C52.2353 11.4429 52.7254 11.5708 53.1516 11.8265C53.5776 12.0822 53.9117 12.4302 54.153 12.8706C54.3949 13.3039 54.5153 13.7905 54.5153 14.3303C54.5153 14.8772 54.3949 15.3674 54.153 15.8006C53.9117 16.2339 53.5776 16.5784 53.1516 16.8341C52.7254 17.0898 52.2353 17.2177 51.6812 17.2177ZM51.6812 16.1629C51.9796 16.1629 52.2566 16.0919 52.5123 15.9498C52.768 15.8006 52.974 15.5911 53.1303 15.3212C53.2937 15.0442 53.3752 14.7139 53.3752 14.3303C53.3752 13.9467 53.2937 13.62 53.1303 13.3501C52.974 13.073 52.768 12.8635 52.5123 12.7214C52.2566 12.5723 51.9796 12.4977 51.6812 12.4977C51.3829 12.4977 51.1024 12.5723 50.8395 12.7214C50.5838 12.8635 50.3743 13.073 50.2109 13.3501C50.0546 13.62 49.9765 13.9467 49.9765 14.3303C49.9765 14.7139 50.0546 15.0442 50.2109 15.3212C50.3743 15.5911 50.5838 15.8006 50.8395 15.9498C51.1024 16.0919 51.3829 16.1629 51.6812 16.1629ZM58.0259 19.5191C57.5497 19.5191 57.1379 19.4409 56.79 19.2847C56.4491 19.1355 56.172 18.9402 55.9589 18.6987C55.7459 18.4643 55.593 18.2228 55.5008 17.9742L56.5663 17.5267C56.6797 17.8108 56.8609 18.0417 57.1096 18.2192C57.3654 18.4039 57.6706 18.4962 58.0259 18.4962C58.523 18.4962 58.9135 18.3471 59.1979 18.0487C59.4888 17.7504 59.6348 17.3278 59.6348 16.7809V16.2588H59.5709C59.4004 16.5145 59.1623 16.7205 58.857 16.8767C58.5587 17.0259 58.2177 17.1005 57.8342 17.1005C57.3723 17.1005 56.9498 16.9833 56.5663 16.7489C56.1827 16.5145 55.8737 16.1878 55.6393 15.7687C55.4049 15.3425 55.2877 14.8453 55.2877 14.277C55.2877 13.7017 55.4049 13.2045 55.6393 12.7854C55.8737 12.3592 56.1827 12.0289 56.5663 11.7945C56.9498 11.5601 57.3723 11.4429 57.8342 11.4429C58.2177 11.4429 58.5587 11.521 58.857 11.6773C59.1623 11.8335 59.4004 12.0396 59.5709 12.2953H59.6348V11.6134H60.7322V16.7595C60.7322 17.3491 60.615 17.8499 60.3806 18.2618C60.1531 18.6738 59.8372 18.9864 59.4323 19.1994C59.0275 19.4125 58.5587 19.5191 58.0259 19.5191ZM58.0366 16.0563C58.3205 16.0563 58.5832 15.9888 58.825 15.8539C59.0664 15.7118 59.2619 15.5094 59.411 15.2466C59.5602 14.9767 59.6348 14.6535 59.6348 14.277C59.6348 13.8864 59.5602 13.5596 59.411 13.2968C59.2619 13.0269 59.0664 12.8244 58.825 12.6895C58.5832 12.5545 58.3205 12.487 58.0366 12.487C57.7521 12.487 57.4858 12.5581 57.2375 12.7001C56.9956 12.8351 56.8007 13.034 56.6515 13.2968C56.5023 13.5596 56.4278 13.8864 56.4278 14.277C56.4278 14.6606 56.5023 14.9873 56.6515 15.2572C56.8007 15.52 56.9956 15.719 57.2375 15.8539C57.4858 15.9888 57.7521 16.0563 58.0366 16.0563ZM62.0891 17.0472V9.41852H63.2398V17.0472H62.0891ZM67.0269 17.2177C66.4942 17.2177 66.018 17.0934 65.5992 16.8448C65.18 16.5962 64.8497 16.2552 64.6084 15.8219C64.374 15.3887 64.2568 14.895 64.2568 14.3409C64.2568 13.8224 64.3702 13.343 64.5977 12.9026C64.8246 12.4622 65.1411 12.1106 65.546 11.8478C65.9578 11.5778 66.4303 11.4429 66.963 11.4429C67.524 11.4429 67.9997 11.5637 68.3907 11.8052C68.7882 12.0466 69.0902 12.3769 69.2964 12.796C69.502 13.2151 69.6054 13.6874 69.6054 14.2131C69.6054 14.2912 69.6016 14.3623 69.5947 14.4262C69.5947 14.4901 69.591 14.5398 69.5841 14.5753H65.3861C65.4426 15.1152 65.6312 15.52 65.9508 15.79C66.2774 16.0599 66.6466 16.1948 67.0589 16.1948C67.4281 16.1948 67.7333 16.1132 67.9752 15.9498C68.2165 15.7793 68.4083 15.5698 68.5506 15.3212L69.4988 15.7793C69.2644 16.2055 68.9448 16.5535 68.5399 16.8235C68.135 17.0863 67.6305 17.2177 67.0269 17.2177ZM66.9737 12.4231C66.5901 12.4231 66.263 12.5403 65.9935 12.7747C65.7234 13.0091 65.5422 13.3217 65.4501 13.7123H68.4653C68.4509 13.5276 68.3907 13.3358 68.2842 13.137C68.1776 12.9381 68.0141 12.7712 67.7941 12.6362C67.581 12.4941 67.3072 12.4231 66.9737 12.4231ZM73.351 17.0472V9.41852H75.972C76.4339 9.41852 76.8532 9.51798 77.2293 9.71685C77.6059 9.91572 77.9042 10.1892 78.1242 10.5373C78.3517 10.8853 78.4652 11.2902 78.4652 11.7519C78.4652 12.2136 78.3517 12.622 78.1242 12.9772C77.9042 13.3252 77.6059 13.5987 77.2293 13.7976C76.8532 13.9893 76.4339 14.0852 75.972 14.0852H74.523V17.0472H73.351ZM76.004 10.5266H74.523V12.9772H76.004C76.281 12.9772 76.5154 12.9203 76.7072 12.8067C76.899 12.6859 77.0449 12.5332 77.144 12.3485C77.2506 12.1568 77.3038 11.9579 77.3038 11.7519C77.3038 11.5459 77.2506 11.3506 77.144 11.1659C77.0449 10.9812 76.899 10.8285 76.7072 10.7077C76.5154 10.587 76.281 10.5266 76.004 10.5266ZM81.3425 17.2177C80.6744 17.2177 80.1705 17.0188 79.8295 16.621C79.4955 16.2162 79.3287 15.6692 79.3287 14.9802V11.6134H80.4794V14.8204C80.4794 15.2821 80.586 15.6231 80.7991 15.8432C81.0191 16.0563 81.2924 16.1629 81.6195 16.1629C81.9104 16.1629 82.1629 16.0883 82.376 15.9391C82.596 15.7829 82.7627 15.584 82.8767 15.3425C82.9971 15.0939 83.0579 14.824 83.0579 14.5327V11.6134H84.1979V17.0472H83.1218V16.312H83.0579C82.9012 16.5678 82.6668 16.7844 82.3547 16.962C82.0489 17.1325 81.7117 17.2177 81.3425 17.2177ZM85.5622 17.0472V9.41852H86.7129V17.0472H85.5622ZM92.0876 19.3486V17.0792L92.1516 16.3227H92.0876C91.9454 16.5571 91.7216 16.7666 91.4164 16.9513C91.1181 17.1289 90.7595 17.2177 90.3403 17.2177C89.8502 17.2177 89.4064 17.0969 89.0085 16.8554C88.618 16.6068 88.3053 16.2659 88.0709 15.8326C87.8434 15.3922 87.7299 14.8914 87.7299 14.3303C87.7299 13.7692 87.8434 13.2719 88.0709 12.8386C88.3053 12.4054 88.618 12.0644 89.0085 11.8158C89.4064 11.5672 89.8502 11.4429 90.3403 11.4429C90.7595 11.4429 91.1181 11.5352 91.4164 11.7199C91.7216 11.9046 91.9454 12.1141 92.0876 12.3485H92.1516V11.6134H93.2277V19.3486H92.0876ZM90.5108 16.1629C90.7947 16.1629 91.0611 16.0883 91.3099 15.9391C91.5656 15.79 91.768 15.5804 91.9172 15.3105C92.0733 15.0335 92.1516 14.7068 92.1516 14.3303C92.1516 13.9538 92.0733 13.6307 91.9172 13.3607C91.768 13.0837 91.5656 12.8706 91.3099 12.7214C91.0611 12.5723 90.7947 12.4977 90.5108 12.4977C90.2268 12.4977 89.9604 12.5723 89.7117 12.7214C89.4629 12.8706 89.2604 13.0837 89.1043 13.3607C88.9483 13.6307 88.8699 13.9538 88.8699 14.3303C88.8699 14.7068 88.9483 15.0335 89.1043 15.3105C89.2604 15.5804 89.4629 15.79 89.7117 15.9391C89.9604 16.0883 90.2268 16.1629 90.5108 16.1629ZM96.2152 17.2177C95.8242 17.2177 95.4763 17.1431 95.1711 16.9939C94.8653 16.8377 94.6277 16.621 94.4572 16.344C94.2867 16.067 94.2015 15.7509 94.2015 15.3958C94.2015 15.0122 94.3006 14.6855 94.4998 14.4155C94.7055 14.1385 94.9793 13.929 95.3202 13.7869C95.6612 13.6448 96.0373 13.5738 96.4496 13.5738C96.7906 13.5738 97.0889 13.6058 97.3446 13.6697C97.6073 13.7336 97.806 13.8011 97.9413 13.8721V13.5845C97.9413 13.2293 97.8134 12.9452 97.5577 12.7321C97.302 12.519 96.9717 12.4125 96.5668 12.4125C96.2898 12.4125 96.0266 12.4764 95.7784 12.6042C95.5296 12.725 95.3309 12.8919 95.1817 13.105L94.3933 12.4977C94.6277 12.171 94.9367 11.9153 95.3202 11.7306C95.7107 11.5388 96.1369 11.4429 96.5988 11.4429C97.3872 11.4429 97.9945 11.6382 98.4207 12.0289C98.8469 12.4125 99.06 12.9523 99.06 13.6484V17.0472H97.9413V16.376H97.8773C97.7351 16.5962 97.522 16.7915 97.2381 16.962C96.9536 17.1325 96.6126 17.2177 96.2152 17.2177ZM96.4177 16.2801C96.716 16.2801 96.9786 16.2091 97.2061 16.067C97.433 15.9249 97.611 15.7403 97.7388 15.513C97.8736 15.2786 97.9413 15.0264 97.9413 14.7565C97.7777 14.6642 97.5859 14.5896 97.3659 14.5327C97.1454 14.4688 96.911 14.4368 96.6627 14.4368C96.1939 14.4368 95.8599 14.5327 95.6612 14.7245C95.4619 14.9092 95.3629 15.1365 95.3629 15.4064C95.3629 15.6621 95.4587 15.8716 95.6505 16.035C95.8423 16.1984 96.098 16.2801 96.4177 16.2801ZM103.225 17.2177C102.806 17.2177 102.443 17.1289 102.138 16.9513C101.84 16.7666 101.619 16.5571 101.478 16.3227H101.414V17.0472H100.327V9.41852H101.478V11.5921L101.414 12.3485H101.478C101.619 12.1141 101.84 11.9046 102.138 11.7199C102.443 11.5352 102.806 11.4429 103.225 11.4429C103.722 11.4429 104.166 11.5672 104.557 11.8158C104.947 12.0644 105.256 12.4054 105.484 12.8386C105.718 13.2719 105.835 13.7692 105.835 14.3303C105.835 14.8914 105.718 15.3922 105.484 15.8326C105.256 16.2659 104.947 16.6068 104.557 16.8554C104.166 17.0969 103.722 17.2177 103.225 17.2177ZM103.054 16.1629C103.338 16.1629 103.605 16.0883 103.854 15.9391C104.102 15.79 104.304 15.5804 104.461 15.3105C104.617 15.0335 104.695 14.7068 104.695 14.3303C104.695 13.9538 104.617 13.6307 104.461 13.3607C104.304 13.0837 104.102 12.8706 103.854 12.7214C103.605 12.5723 103.338 12.4977 103.054 12.4977C102.77 12.4977 102.504 12.5723 102.255 12.7214C102.007 12.8706 101.804 13.0837 101.648 13.3607C101.491 13.6307 101.414 13.9538 101.414 14.3303C101.414 14.7068 101.491 15.0335 101.648 15.3105C101.804 15.5804 102.007 15.79 102.255 15.9391C102.504 16.0883 102.77 16.1629 103.054 16.1629ZM106.925 17.0472V11.6134H108.076V17.0472H106.925Z" fill="white"/>
<path d="M117.617 14.3198C117.617 14.8383 117.504 15.3178 117.276 15.7582C117.049 16.1986 116.729 16.5537 116.317 16.8236C115.912 17.0864 115.44 17.2179 114.9 17.2179C114.339 17.2179 113.863 17.0971 113.472 16.8556C113.082 16.6141 112.78 16.2838 112.567 15.8647C112.361 15.4456 112.258 14.9733 112.258 14.4477C112.258 14.3695 112.262 14.2985 112.268 14.2346C112.275 14.1706 112.283 14.1209 112.29 14.0854H116.488C116.452 13.7161 116.353 13.4142 116.189 13.1798C116.026 12.9383 115.82 12.7607 115.571 12.647C115.33 12.5263 115.078 12.4659 114.815 12.4659C114.446 12.4659 114.14 12.5511 113.899 12.7216C113.657 12.885 113.466 13.091 113.323 13.3396L112.375 12.8814C112.609 12.4553 112.929 12.1107 113.334 11.8479C113.739 11.578 114.24 11.4431 114.836 11.4431C115.376 11.4431 115.855 11.5674 116.275 11.816C116.694 12.0646 117.02 12.4056 117.255 12.8388C117.496 13.2721 117.617 13.7658 117.617 14.3198ZM114.9 16.2376C115.248 16.2376 115.564 16.1275 115.848 15.9073C116.132 15.6872 116.328 15.3675 116.434 14.9484H113.409C113.423 15.1331 113.483 15.3249 113.59 15.5238C113.696 15.7227 113.856 15.8931 114.069 16.0352C114.289 16.1701 114.566 16.2376 114.9 16.2376ZM118.632 17.0474V9.4187H119.783V17.0474H118.632ZM122.793 17.2179C122.402 17.2179 122.054 17.1433 121.748 16.9941C121.443 16.8379 121.205 16.6212 121.035 16.3442C120.864 16.0672 120.779 15.7511 120.779 15.3959C120.779 15.0124 120.878 14.6856 121.077 14.4157C121.283 14.1387 121.557 13.9292 121.898 13.7871C122.239 13.645 122.615 13.574 123.027 13.574C123.368 13.574 123.666 13.606 123.922 13.6699C124.185 13.7338 124.384 13.8013 124.519 13.8723V13.5846C124.519 13.2295 124.391 12.9454 124.135 12.7323C123.879 12.5192 123.549 12.4126 123.144 12.4126C122.867 12.4126 122.604 12.4766 122.356 12.6044C122.107 12.7252 121.908 12.8921 121.759 13.1052L120.971 12.4979C121.205 12.1712 121.514 11.9154 121.898 11.7307C122.288 11.539 122.714 11.4431 123.176 11.4431C123.965 11.4431 124.572 11.6384 124.998 12.0291C125.424 12.4126 125.637 12.9525 125.637 13.6486V17.0474H124.519V16.3762H124.455C124.312 16.5963 124.099 16.7917 123.815 16.9622C123.531 17.1326 123.19 17.2179 122.793 17.2179ZM122.995 16.2803C123.293 16.2803 123.556 16.2092 123.783 16.0672C124.011 15.9251 124.188 15.7404 124.316 15.5131C124.451 15.2787 124.519 15.0266 124.519 14.7567C124.355 14.6643 124.163 14.5897 123.943 14.5329C123.723 14.469 123.489 14.437 123.24 14.437C122.771 14.437 122.437 14.5329 122.239 14.7247C122.04 14.9094 121.94 15.1366 121.94 15.4066C121.94 15.6623 122.036 15.8718 122.228 16.0352C122.42 16.1986 122.675 16.2803 122.995 16.2803ZM128.452 17.0474L126.204 11.6135H127.482L129.006 15.5664H129.059L130.615 11.6135H131.872L129.602 17.0474H128.452ZM137.532 14.3198C137.532 14.8383 137.418 15.3178 137.191 15.7582C136.964 16.1986 136.644 16.5537 136.232 16.8236C135.827 17.0864 135.355 17.2179 134.815 17.2179C134.254 17.2179 133.778 17.0971 133.387 16.8556C132.996 16.6141 132.695 16.2838 132.482 15.8647C132.276 15.4456 132.173 14.9733 132.173 14.4477C132.173 14.3695 132.176 14.2985 132.184 14.2346C132.19 14.1706 132.197 14.1209 132.205 14.0854H136.403C136.367 13.7161 136.267 13.4142 136.104 13.1798C135.941 12.9383 135.735 12.7607 135.486 12.647C135.245 12.5263 134.993 12.4659 134.73 12.4659C134.36 12.4659 134.055 12.5511 133.814 12.7216C133.572 12.885 133.38 13.091 133.238 13.3396L132.29 12.8814C132.524 12.4553 132.844 12.1107 133.249 11.8479C133.654 11.578 134.155 11.4431 134.751 11.4431C135.291 11.4431 135.77 11.5674 136.19 11.816C136.608 12.0646 136.935 12.4056 137.17 12.8388C137.411 13.2721 137.532 13.7658 137.532 14.3198ZM134.815 16.2376C135.163 16.2376 135.479 16.1275 135.763 15.9073C136.047 15.6872 136.243 15.3675 136.349 14.9484H133.324C133.337 15.1331 133.398 15.3249 133.505 15.5238C133.611 15.7227 133.771 15.8931 133.984 16.0352C134.204 16.1701 134.481 16.2376 134.815 16.2376ZM143.558 17.2179C143.026 17.2179 142.549 17.0936 142.131 16.845C141.711 16.5963 141.381 16.2554 141.14 15.8221C140.905 15.3888 140.788 14.8952 140.788 14.3411C140.788 13.8226 140.902 13.3432 141.129 12.9028C141.356 12.4623 141.673 12.1107 142.077 11.8479C142.489 11.578 142.962 11.4431 143.494 11.4431C144.055 11.4431 144.531 11.5638 144.922 11.8053C145.32 12.0468 145.622 12.3771 145.828 12.7962C146.033 13.2153 146.137 13.6876 146.137 14.2133C146.137 14.2914 146.133 14.3624 146.126 14.4264C146.126 14.4903 146.122 14.54 146.115 14.5755H141.918C141.974 15.1153 142.163 15.5202 142.482 15.7901C142.809 16.0601 143.178 16.195 143.59 16.195C143.96 16.195 144.265 16.1134 144.507 15.95C144.748 15.7795 144.94 15.57 145.082 15.3213L146.03 15.7795C145.796 16.2057 145.476 16.5537 145.071 16.8236C144.666 17.0864 144.162 17.2179 143.558 17.2179ZM143.505 12.4233C143.122 12.4233 142.794 12.5405 142.525 12.7749C142.255 13.0093 142.074 13.3218 141.981 13.7125H144.997C144.982 13.5278 144.922 13.336 144.816 13.1372C144.709 12.9383 144.546 12.7713 144.326 12.6364C144.112 12.4943 143.839 12.4233 143.505 12.4233ZM149.579 17.2179C149.089 17.2179 148.645 17.0971 148.247 16.8556C147.856 16.607 147.544 16.266 147.309 15.8328C147.082 15.3924 146.968 14.8916 146.968 14.3305C146.968 13.7693 147.082 13.2721 147.309 12.8388C147.544 12.4056 147.856 12.0646 148.247 11.816C148.645 11.5674 149.089 11.4431 149.579 11.4431C149.998 11.4431 150.357 11.5354 150.655 11.7201C150.961 11.9048 151.184 12.1143 151.326 12.3487H151.39L151.326 11.5922V9.4187H152.466V17.0474H151.39V16.3229H151.326C151.184 16.5573 150.961 16.7668 150.655 16.9515C150.357 17.1291 149.998 17.2179 149.579 17.2179ZM149.749 16.1631C150.034 16.1631 150.3 16.0885 150.548 15.9393C150.804 15.7901 151.006 15.5806 151.156 15.3107C151.312 15.0337 151.39 14.7069 151.39 14.3305C151.39 13.954 151.312 13.6308 151.156 13.3609C151.006 13.0839 150.804 12.8708 150.548 12.7216C150.3 12.5725 150.034 12.4979 149.749 12.4979C149.465 12.4979 149.199 12.5725 148.95 12.7216C148.702 12.8708 148.499 13.0839 148.343 13.3609C148.187 13.6308 148.108 13.954 148.108 14.3305C148.108 14.7069 148.187 15.0337 148.343 15.3107C148.499 15.5806 148.702 15.7901 148.95 15.9393C149.199 16.0885 149.465 16.1631 149.749 16.1631ZM154.482 10.8144C154.269 10.8144 154.085 10.7399 153.928 10.5907C153.779 10.4345 153.704 10.2498 153.704 10.0367C153.704 9.82357 153.779 9.64244 153.928 9.49328C154.085 9.34411 154.269 9.26953 154.482 9.26953C154.695 9.26953 154.876 9.34411 155.025 9.49328C155.182 9.64244 155.26 9.82357 155.26 10.0367C155.26 10.2498 155.182 10.4345 155.025 10.5907C154.876 10.7399 154.695 10.8144 154.482 10.8144ZM153.907 17.0474V11.6135H155.057V17.0474H153.907ZM156.485 17.0474V11.6135H157.572V12.3594H157.636C157.792 12.0966 158.023 11.8799 158.328 11.7094C158.641 11.5319 158.982 11.4431 159.351 11.4431C160.019 11.4431 160.52 11.6419 160.853 12.0397C161.187 12.4375 161.354 12.9631 161.354 13.6166V17.0474H160.214V13.7658C160.214 13.3254 160.104 13.0057 159.884 12.8069C159.664 12.6009 159.376 12.4979 159.021 12.4979C158.744 12.4979 158.503 12.576 158.296 12.7323C158.091 12.8814 157.927 13.0803 157.806 13.3289C157.693 13.5776 157.636 13.8439 157.636 14.128V17.0474H156.485Z" fill="white"/>
<path d="M160.351 0.266602H13.3175C6.10915 0.266602 0.265625 6.11013 0.265625 13.3185C0.265625 20.5268 6.10915 26.3704 13.3175 26.3704H160.351C167.559 26.3704 173.403 20.5268 173.403 13.3185C173.403 6.11013 167.559 0.266602 160.351 0.266602Z" stroke="#747775"/>
</g>
<defs>
<linearGradient id="paint0_linear_568_87" x1="18.4168" y1="16.401" x2="9.97868" y2="26.0577" gradientUnits="userSpaceOnUse">
<stop stop-color="#4285F4"/>
<stop offset="1" stop-color="#1B74E8"/>
</linearGradient>
<clipPath id="clip0_568_87">
<rect width="173.67" height="26.6365" fill="white"/>
</clipPath>
</defs>
</svg>
