<svg width="174" height="29" viewBox="0 0 174 29" fill="none" xmlns="http://www.w3.org/2000/svg">
<g clip-path="url(#clip0_568_304)">
<path d="M159.573 0.282227H14.0959C6.46628 0.282227 0.28125 6.46726 0.28125 14.0969C0.28125 21.7265 6.46628 27.9115 14.0959 27.9115H159.573C167.202 27.9115 173.387 21.7265 173.387 14.0969C173.387 6.46726 167.202 0.282227 159.573 0.282227Z" fill="#1F1F1F"/>
<path d="M159.573 0.282227H14.0959C6.46628 0.282227 0.28125 6.46726 0.28125 14.0969C0.28125 21.7265 6.46628 27.9115 14.0959 27.9115H159.573C167.202 27.9115 173.387 21.7265 173.387 14.0969C173.387 6.46726 167.202 0.282227 159.573 0.282227Z" stroke="#747775"/>
<path d="M28.7558 12.4052H11.8398V9.58592C11.8398 8.05542 13.0814 6.7666 14.5557 6.7666H26.0399C27.5142 6.7666 28.7558 8.05542 28.7558 9.58592V12.4052Z" fill="#34A853"/>
<path d="M28.7558 14.6914H11.8398V11.8721C11.8398 10.3416 13.0814 9.05273 14.5557 9.05273H26.0399C27.5142 9.05273 28.7558 10.3416 28.7558 11.8721V14.6914Z" fill="#FBBC04"/>
<path d="M28.7558 17.0547H11.8398V14.2353C11.8398 12.7048 13.0814 11.416 14.5557 11.416H26.0399C27.5142 11.416 28.7558 12.7048 28.7558 14.2353V17.0547Z" fill="#EA4335"/>
<path d="M11.8398 13.1239L22.5764 15.607C23.8123 15.9174 25.2026 15.607 26.2068 14.8311L28.7558 12.9688V18.7884C28.7558 20.2628 27.5199 21.4267 26.0523 21.4267H14.5433C13.0757 21.4267 11.8398 20.2628 11.8398 18.7884V13.1239Z" fill="#4285F4"/>
<path d="M40.2602 18.2245C39.6813 18.2245 39.1363 18.1192 38.625 17.9087C38.1138 17.6982 37.6627 17.405 37.2717 17.0291C36.8883 16.6456 36.5838 16.1983 36.3583 15.6871C36.1402 15.1683 36.0312 14.6082 36.0312 14.0068C36.0312 13.4053 36.1402 12.849 36.3583 12.3377C36.5838 11.819 36.8883 11.3717 37.2717 10.9957C37.6627 10.6123 38.1138 10.3153 38.625 10.1048C39.1363 9.89434 39.6813 9.78906 40.2602 9.78906C40.8767 9.78906 41.4443 9.89806 41.9631 10.1161C42.4893 10.3341 42.9292 10.6386 43.2825 11.0296L42.4255 11.8754C42.2525 11.6799 42.0533 11.5145 41.8278 11.3792C41.6097 11.2438 41.3692 11.1423 41.106 11.0747C40.8429 10.9995 40.5609 10.9619 40.2602 10.9619C39.8617 10.9619 39.4821 11.0333 39.1212 11.1762C38.7603 11.319 38.4408 11.5258 38.1627 11.7964C37.892 12.0596 37.6777 12.3791 37.5198 12.755C37.362 13.1234 37.283 13.5406 37.283 14.0068C37.283 14.4729 37.362 14.8939 37.5198 15.2698C37.6852 15.6382 37.9033 15.9577 38.1739 16.2284C38.4521 16.4915 38.7716 16.6945 39.1325 16.8374C39.4934 16.9802 39.873 17.0516 40.2715 17.0516C40.6399 17.0516 40.982 16.999 41.2977 16.8937C41.621 16.7885 41.9029 16.6381 42.1435 16.4427C42.3841 16.2472 42.5796 16.0103 42.7299 15.7322C42.8803 15.4465 42.9743 15.127 43.0119 14.7736H40.2489V13.6797H44.1734C44.1885 13.7699 44.2035 13.8752 44.2185 13.9955C44.2336 14.1083 44.2411 14.2173 44.2411 14.3225V14.3338C44.2411 14.9127 44.1396 15.4428 43.9366 15.9239C43.7411 16.405 43.4667 16.8186 43.1134 17.1644C42.76 17.5027 42.339 17.7659 41.8503 17.9538C41.3692 18.1342 40.8391 18.2245 40.2602 18.2245ZM47.8723 18.2245C47.2784 18.2245 46.7558 18.0891 46.3047 17.8185C45.8536 17.5478 45.5003 17.1832 45.2447 16.7246C44.9891 16.2584 44.8612 15.7397 44.8612 15.1683C44.8612 14.597 44.9891 14.0819 45.2447 13.6233C45.5003 13.1572 45.8536 12.7888 46.3047 12.5182C46.7558 12.2475 47.2784 12.1122 47.8723 12.1122C48.4587 12.1122 48.9774 12.2513 49.4285 12.5294C49.8796 12.8001 50.233 13.1647 50.4886 13.6233C50.7443 14.0819 50.872 14.597 50.872 15.1683C50.872 15.7397 50.7443 16.2584 50.4886 16.7246C50.233 17.1832 49.8796 17.5478 49.4285 17.8185C48.9774 18.0891 48.4587 18.2245 47.8723 18.2245ZM47.8723 17.108C48.188 17.108 48.4812 17.0329 48.7519 16.8825C49.0226 16.7246 49.2406 16.5028 49.406 16.2171C49.5789 15.9239 49.6654 15.5743 49.6654 15.1683C49.6654 14.7623 49.5789 14.4165 49.406 14.1308C49.2406 13.8376 49.0226 13.6158 48.7519 13.4655C48.4812 13.3076 48.188 13.2286 47.8723 13.2286C47.5565 13.2286 47.2596 13.3076 46.9814 13.4655C46.7107 13.6158 46.4889 13.8376 46.316 14.1308C46.1506 14.4165 46.0679 14.7623 46.0679 15.1683C46.0679 15.5743 46.1506 15.9239 46.316 16.2171C46.4889 16.5028 46.7145 16.7246 46.9926 16.8825C47.2709 17.0329 47.5641 17.108 47.8723 17.108ZM54.7003 18.2245C54.1064 18.2245 53.5839 18.0891 53.1328 17.8185C52.6817 17.5478 52.3284 17.1832 52.0727 16.7246C51.8171 16.2584 51.6893 15.7397 51.6893 15.1683C51.6893 14.597 51.8171 14.0819 52.0727 13.6233C52.3284 13.1572 52.6817 12.7888 53.1328 12.5182C53.5839 12.2475 54.1064 12.1122 54.7003 12.1122C55.2867 12.1122 55.8055 12.2513 56.2566 12.5294C56.7076 12.8001 57.0611 13.1647 57.3165 13.6233C57.5725 14.0819 57.7 14.597 57.7 15.1683C57.7 15.7397 57.5725 16.2584 57.3165 16.7246C57.0611 17.1832 56.7076 17.5478 56.2566 17.8185C55.8055 18.0891 55.2867 18.2245 54.7003 18.2245ZM54.7003 17.108C55.0161 17.108 55.3093 17.0329 55.5799 16.8825C55.8506 16.7246 56.0687 16.5028 56.234 16.2171C56.407 15.9239 56.4933 15.5743 56.4933 15.1683C56.4933 14.7623 56.407 14.4165 56.234 14.1308C56.0687 13.8376 55.8506 13.6158 55.5799 13.4655C55.3093 13.3076 55.0161 13.2286 54.7003 13.2286C54.3846 13.2286 54.0876 13.3076 53.8094 13.4655C53.5388 13.6158 53.317 13.8376 53.1441 14.1308C52.9787 14.4165 52.896 14.7623 52.896 15.1683C52.896 15.5743 52.9787 15.9239 53.1441 16.2171C53.317 16.5028 53.5425 16.7246 53.8207 16.8825C54.0989 17.0329 54.3921 17.108 54.7003 17.108ZM61.4158 20.6604C60.9117 20.6604 60.4759 20.5776 60.1077 20.4123C59.7468 20.2544 59.4536 20.0476 59.228 19.792C59.0025 19.5439 58.8407 19.2883 58.7431 19.0252L59.8708 18.5515C59.9909 18.8522 60.1827 19.0966 60.446 19.2845C60.7166 19.48 61.0397 19.5777 61.4158 19.5777C61.9492 19.5777 62.3665 19.4199 62.6676 19.1041C62.9681 18.7883 63.1187 18.341 63.1187 17.7621V17.2095H63.051C62.8706 17.4727 62.6225 17.6869 62.3067 17.8523C61.991 18.0177 61.6261 18.1004 61.2128 18.1004C60.724 18.1004 60.2729 17.9764 59.8596 17.7283C59.4536 17.4802 59.1265 17.1343 58.8784 16.6908C58.6377 16.2397 58.5176 15.7134 58.5176 15.1119C58.5176 14.503 58.6377 13.9767 58.8784 13.5331C59.1265 13.082 59.4536 12.7324 59.8596 12.4843C60.2729 12.2362 60.724 12.1122 61.2128 12.1122C61.6261 12.1122 61.991 12.1949 62.3067 12.3603C62.6225 12.5182 62.8706 12.7362 63.051 13.0144H63.1187V12.2926H64.2803V17.7395C64.2803 18.3636 64.1562 18.8936 63.9081 19.3296C63.6673 19.7657 63.333 20.0965 62.9044 20.322C62.4759 20.5476 61.9797 20.6604 61.4158 20.6604ZM61.4271 16.9952C61.7276 16.9952 62.0056 16.9238 62.2616 16.781C62.5244 16.6306 62.7313 16.4163 62.8819 16.1382C63.0397 15.8525 63.1187 15.5104 63.1187 15.1119C63.1187 14.6909 63.0397 14.3413 62.8819 14.0631C62.7313 13.785 62.5244 13.5744 62.2616 13.4316C62.0056 13.2888 61.7276 13.2174 61.4271 13.2174C61.126 13.2174 60.8441 13.2888 60.5813 13.4316C60.3253 13.5744 60.1189 13.7887 59.9611 14.0744C59.8032 14.3526 59.7242 14.6985 59.7242 15.1119C59.7242 15.5179 59.8032 15.8637 59.9611 16.1494C60.1189 16.4276 60.3253 16.6381 60.5813 16.781C60.8441 16.9238 61.126 16.9952 61.4271 16.9952ZM65.7164 18.044V9.9695H66.9344V18.044H65.7164ZM70.9429 18.2245C70.379 18.2245 69.8749 18.0929 69.4317 17.8298C68.9879 17.5666 68.6384 17.2057 68.3829 16.7471C68.1348 16.2886 68.0108 15.766 68.0108 15.1796C68.0108 14.6308 68.1309 14.1233 68.3716 13.6572C68.6118 13.191 68.9468 12.8189 69.3753 12.5407C69.8112 12.255 70.3113 12.1122 70.8752 12.1122C71.4689 12.1122 71.9725 12.24 72.3864 12.4956C72.807 12.7512 73.1267 13.1008 73.3449 13.5444C73.5626 13.988 73.672 14.4879 73.672 15.0443C73.672 15.127 73.668 15.2022 73.6607 15.2698C73.6607 15.3375 73.6567 15.3901 73.6494 15.4277H69.2062C69.236 15.7435 69.315 16.0179 69.443 16.2509C69.6082 16.5441 69.8264 16.7659 70.0971 16.9163C70.3677 17.0667 70.6609 17.1418 70.9767 17.1418C71.3601 17.1418 71.6793 17.0554 71.9353 16.8825C72.198 16.702 72.405 16.4803 72.5555 16.2171L73.5592 16.702C73.3111 17.1531 72.9728 17.5215 72.5442 17.8072C72.1157 18.0854 71.5817 18.2245 70.9429 18.2245ZM69.2738 14.5142H72.4653C72.4574 14.3714 72.4202 14.221 72.3525 14.0631C72.2849 13.8978 72.1867 13.7474 72.0593 13.6121C71.9313 13.4767 71.7695 13.3677 71.5744 13.285C71.3787 13.1948 71.1492 13.1497 70.8865 13.1497C70.5555 13.1497 70.2623 13.2361 70.0068 13.4091C69.7509 13.5744 69.5518 13.8075 69.4092 14.1083C69.3488 14.2361 69.3037 14.3714 69.2738 14.5142Z" fill="white"/>
<path d="M77.5859 18.0545C77.5859 17.7838 77.6237 17.4831 77.6987 17.1523C77.7737 16.8215 77.8944 16.4569 78.0596 16.0584L78.8715 16.3741C78.7514 16.6899 78.6612 16.9793 78.6009 17.2425C78.5406 17.5057 78.5107 17.75 78.5107 17.9755C78.5107 18.5243 78.7176 18.9529 79.1309 19.2611C79.5521 19.5769 80.1008 19.7348 80.7774 19.7348C81.5065 19.7348 82.0703 19.5919 82.469 19.3062C82.8676 19.0281 83.1383 18.5995 83.281 18.0206C83.4236 17.4342 83.4766 16.6861 83.4388 15.7765L83.2246 9.99121H84.1606L84.3523 16.0133C84.3749 16.6448 84.3337 17.2425 84.2283 17.8064C84.1307 18.3627 83.9463 18.8551 83.6757 19.2837C83.4123 19.7122 83.0402 20.0468 82.5592 20.2874C82.0856 20.5355 81.4805 20.6595 80.7436 20.6595C80.3449 20.6595 79.9581 20.6069 79.582 20.5016C79.2059 20.3964 78.8676 20.2385 78.5671 20.028C78.2665 19.8175 78.0257 19.5468 77.8453 19.216C77.6722 18.8928 77.5859 18.5056 77.5859 18.0545ZM85.7428 20.637L85.5398 19.7122C86.0061 19.6521 86.4307 19.5618 86.8141 19.4416C87.2054 19.3288 87.5398 19.1671 87.8178 18.9566C88.0964 18.7462 88.3027 18.4604 88.438 18.0996H87.7163C87.378 18.0996 87.0622 18.0545 86.769 17.9642C86.4837 17.8665 86.2503 17.7124 86.0698 17.5019C85.8973 17.2914 85.8105 17.017 85.8105 16.6786C85.8105 16.2652 85.8933 15.8742 86.0586 15.5058C86.2243 15.1299 86.4499 14.8254 86.7352 14.5923C87.0211 14.3593 87.3442 14.2427 87.705 14.2427C88.2238 14.2427 88.6523 14.4721 88.9906 14.9307C89.3369 15.3817 89.5094 16.0772 89.5094 17.017C89.5094 17.0696 89.5094 17.1222 89.5094 17.1748H90.5244C90.6822 17.1748 90.795 17.2199 90.8627 17.3102C90.9382 17.3929 90.9754 17.4944 90.9754 17.6146C90.9754 17.7349 90.923 17.8477 90.8176 17.953C90.7127 18.0507 90.5773 18.0996 90.4116 18.0996H89.3741C88.9906 19.5581 87.7806 20.4039 85.7428 20.637ZM88.1448 17.1748H88.6185C88.6264 17.0997 88.6298 17.0245 88.6298 16.9493C88.6298 16.438 88.5362 16.0133 88.3478 15.675C88.1601 15.3366 87.9159 15.1675 87.6148 15.1675C87.4569 15.1675 87.3069 15.2276 87.1637 15.3479C87.0284 15.4682 86.9196 15.6298 86.8367 15.8328C86.7544 16.0358 86.7126 16.2576 86.7126 16.4982C86.7126 16.7614 86.8294 16.9418 87.0622 17.0395C87.303 17.1297 87.6639 17.1748 88.1448 17.1748ZM90.4082 18.0996L90.521 17.1748C90.9568 17.1748 91.2991 17.1598 91.5472 17.1297C91.8026 17.0921 91.9831 17.0057 92.0885 16.8703C92.194 16.735 92.2464 16.5133 92.2464 16.205C92.2464 15.9268 92.1787 15.5697 92.0434 15.1336C91.9154 14.6976 91.7688 14.2653 91.6036 13.8368L92.517 13.4984C92.6146 13.7465 92.7048 14.0247 92.7877 14.333C92.8779 14.6337 92.9529 14.9344 93.0132 15.2351C93.0736 15.5359 93.1035 15.799 93.1035 16.0246C93.1035 16.7839 92.8931 17.3214 92.4719 17.6372C92.0507 17.9455 91.3628 18.0996 90.4082 18.0996ZM90.9157 20.231C90.7578 20.231 90.6225 20.1746 90.5097 20.0618C90.4042 19.9565 90.3518 19.8288 90.3518 19.6784C90.3518 19.528 90.4042 19.3965 90.5097 19.2837C90.6225 19.1709 90.7578 19.1145 90.9157 19.1145C91.0662 19.1145 91.1937 19.1709 91.2991 19.2837C91.4119 19.3965 91.4683 19.528 91.4683 19.6784C91.4683 19.8288 91.4119 19.9565 91.2991 20.0618C91.1937 20.1746 91.0662 20.231 90.9157 20.231ZM92.4494 20.231C92.2915 20.231 92.1562 20.1746 92.0434 20.0618C91.938 19.9565 91.8855 19.8288 91.8855 19.6784C91.8855 19.528 91.938 19.3965 92.0434 19.2837C92.1562 19.1709 92.2915 19.1145 92.4494 19.1145C92.5999 19.1145 92.7274 19.1709 92.8328 19.2837C92.9456 19.3965 93.002 19.528 93.002 19.6784C93.002 19.8288 92.9456 19.9565 92.8328 20.0618C92.7274 20.1746 92.5999 20.231 92.4494 20.231ZM91.6825 21.4715C91.5246 21.4715 91.3893 21.4151 91.2765 21.3023C91.1711 21.197 91.1187 21.0693 91.1187 20.9189C91.1187 20.7685 91.1711 20.637 91.2765 20.5242C91.3893 20.4114 91.5246 20.355 91.6825 20.355C91.8331 20.355 91.9605 20.4114 92.066 20.5242C92.1787 20.637 92.2351 20.7685 92.2351 20.9189C92.2351 21.0693 92.1787 21.197 92.066 21.3023C91.9605 21.4151 91.8331 21.4715 91.6825 21.4715ZM100.808 18.28C99.47 18.28 98.459 18.1071 97.7745 17.7613C97.0905 17.4079 96.7483 16.8177 96.7483 15.9907C96.7483 15.7126 96.7821 15.4194 96.8498 15.1111C96.9174 14.7953 96.989 14.4983 97.064 14.2202L97.9098 14.4345C97.8647 14.5998 97.8123 14.8104 97.752 15.066C97.6995 15.3216 97.673 15.5434 97.673 15.7313C97.673 16.1223 97.7711 16.438 97.9662 16.6786C98.1692 16.9117 98.5188 17.0846 99.015 17.1974C99.5112 17.3027 100.207 17.3553 101.101 17.3553C101.928 17.3553 102.669 17.3327 103.323 17.2876C103.977 17.235 104.507 17.1748 104.913 17.1072C104.733 16.9568 104.556 16.7538 104.383 16.4982C104.21 16.235 104.124 15.9156 104.124 15.5396C104.124 15.1336 104.214 14.769 104.394 14.4457C104.583 14.1149 104.827 13.8518 105.127 13.6563C105.428 13.4608 105.751 13.3631 106.097 13.3631C106.466 13.3631 106.789 13.4684 107.067 13.6789C107.346 13.8819 107.56 14.145 107.71 14.4683C107.868 14.7916 107.947 15.1186 107.947 15.4494C107.947 15.8028 107.876 16.1185 107.732 16.3967C107.59 16.6674 107.394 16.9042 107.146 17.1072C107.454 17.1297 107.766 17.1485 108.082 17.1636C108.398 17.1711 108.672 17.1748 108.905 17.1748C109.063 17.1748 109.176 17.2199 109.243 17.3102C109.319 17.3929 109.356 17.4944 109.356 17.6146C109.356 17.7349 109.304 17.8477 109.198 17.953C109.094 18.0507 108.958 18.0996 108.792 18.0996C107.823 18.0996 106.913 17.9755 106.063 17.7274C105.943 17.7725 105.815 17.8139 105.68 17.8515C105.454 17.9191 105.093 17.9868 104.597 18.0545C104.109 18.1221 103.534 18.1747 102.872 18.2123C102.218 18.2575 101.53 18.28 100.808 18.28ZM105.048 15.5622C105.048 15.8629 105.143 16.1185 105.33 16.329C105.526 16.532 105.74 16.6974 105.973 16.8252C106.266 16.6899 106.514 16.517 106.717 16.3065C106.92 16.0884 107.022 15.8253 107.022 15.5171C107.022 15.3517 106.981 15.175 106.898 14.987C106.815 14.7916 106.699 14.6262 106.548 14.4908C106.406 14.3555 106.244 14.2879 106.063 14.2879C105.883 14.2879 105.714 14.3517 105.556 14.4796C105.406 14.6074 105.282 14.769 105.184 14.9645C105.093 15.16 105.048 15.3592 105.048 15.5622ZM105.996 12.2016C105.838 12.2016 105.702 12.1489 105.59 12.0437C105.485 11.9309 105.432 11.7994 105.432 11.649C105.432 11.4986 105.485 11.367 105.59 11.2543C105.702 11.1415 105.838 11.0851 105.996 11.0851C106.146 11.0851 106.274 11.1415 106.379 11.2543C106.492 11.367 106.548 11.4986 106.548 11.649C106.548 11.7994 106.492 11.9309 106.379 12.0437C106.274 12.1489 106.146 12.2016 105.996 12.2016ZM108.789 18.0996L108.902 17.1748C109.277 17.1748 109.571 17.1485 109.781 17.0959C109.992 17.0357 110.15 16.9267 110.255 16.7689C110.368 16.6035 110.458 16.3666 110.526 16.0584C110.593 15.7501 110.676 15.3479 110.774 14.8517L111.653 15.0209C111.608 15.2239 111.555 15.4569 111.496 15.7201C111.443 15.9832 111.417 16.205 111.417 16.3854C111.417 16.4982 111.424 16.6035 111.439 16.7012C111.454 16.7989 111.51 16.8816 111.608 16.9493C111.706 17.017 111.871 17.0733 112.104 17.1184C112.337 17.1561 112.672 17.1748 113.108 17.1748C113.266 17.1748 113.379 17.2199 113.447 17.3102C113.522 17.3929 113.559 17.4944 113.559 17.6146C113.559 17.7349 113.506 17.8477 113.401 17.953C113.296 18.0507 113.161 18.0996 112.995 18.0996C112.507 18.0996 112.123 18.0732 111.845 18.0206C111.575 17.9605 111.372 17.8778 111.236 17.7725C111.108 17.6598 111.014 17.5207 110.954 17.3553C110.736 17.6635 110.465 17.8665 110.142 17.9642C109.827 18.0545 109.375 18.0996 108.789 18.0996ZM111.631 20.231C111.473 20.231 111.338 20.1746 111.225 20.0618C111.119 19.9565 111.067 19.8288 111.067 19.6784C111.067 19.528 111.119 19.3965 111.225 19.2837C111.338 19.1709 111.473 19.1145 111.631 19.1145C111.781 19.1145 111.909 19.1709 112.014 19.2837C112.127 19.3965 112.183 19.528 112.183 19.6784C112.183 19.8288 112.127 19.9565 112.014 20.0618C111.909 20.1746 111.781 20.231 111.631 20.231ZM110.086 20.231C109.928 20.231 109.793 20.1746 109.68 20.0618C109.574 19.9565 109.522 19.8288 109.522 19.6784C109.522 19.528 109.574 19.3965 109.68 19.2837C109.793 19.1709 109.928 19.1145 110.086 19.1145C110.236 19.1145 110.364 19.1709 110.469 19.2837C110.582 19.3965 110.638 19.528 110.638 19.6784C110.638 19.8288 110.582 19.9565 110.469 20.0618C110.364 20.1746 110.236 20.231 110.086 20.231ZM112.995 18.0996L113.108 17.1748H114.168C114.605 17.1748 114.954 17.1523 115.217 17.1072C115.48 17.0546 115.672 16.9906 115.792 16.9155C115.92 16.8327 116.003 16.7463 116.04 16.6561C116.085 16.5584 116.108 16.4606 116.108 16.3629C116.108 16.1899 116.04 15.9757 115.905 15.7201C115.778 15.4645 115.51 15.1336 115.104 14.7277C114.826 14.442 114.548 14.1901 114.27 13.9721C113.992 13.754 113.762 13.5699 113.582 13.4195C113.401 13.2691 113.311 13.1601 113.311 13.0925C113.311 12.9195 113.33 12.7579 113.368 12.6075C113.405 12.4572 113.466 12.3407 113.548 12.2579C113.849 11.9347 114.319 11.6114 114.958 11.2881C115.604 10.9648 116.409 10.5589 117.371 10.0702L117.754 10.9047C117.07 11.2355 116.511 11.5099 116.074 11.7279C115.646 11.9384 115.289 12.1264 115.003 12.2918C114.725 12.4497 114.465 12.6113 114.225 12.7767C115.104 13.4909 115.778 14.1337 116.243 14.7051C116.717 15.269 116.954 15.8403 116.954 16.4193C116.954 16.5846 116.924 16.7651 116.864 16.9606C116.804 17.1561 116.676 17.3402 116.48 17.5132C116.285 17.6861 115.992 17.8289 115.6 17.9417C115.21 18.047 114.684 18.0996 114.022 18.0996H112.995ZM125.756 18.0996C125.267 18.0996 124.846 18.0169 124.493 17.8515C124.147 17.6861 123.903 17.3816 123.76 16.938C123.354 17.0357 122.963 17.0771 122.587 17.0621C122.219 17.0395 121.884 16.9681 121.584 16.8478C121.283 16.72 121.046 16.5471 120.873 16.329C120.7 16.1035 120.614 15.8366 120.614 15.5284C120.614 15.1224 120.741 14.754 120.997 14.4232C121.253 14.0849 121.598 13.7992 122.035 13.5661C122.471 13.3331 122.952 13.1714 123.478 13.0812L123.444 12.2241H124.358L124.538 15.9456C124.553 16.299 124.613 16.5659 124.719 16.7463C124.832 16.9192 124.981 17.0357 125.17 17.0959C125.365 17.1485 125.598 17.1748 125.869 17.1748C126.027 17.1748 126.14 17.2199 126.207 17.3102C126.282 17.3929 126.32 17.4944 126.32 17.6146C126.32 17.7349 126.267 17.8477 126.162 17.953C126.057 18.0507 125.921 18.0996 125.756 18.0996ZM121.505 15.3817C121.505 15.5547 121.572 15.6975 121.708 15.8103C121.85 15.9231 122.031 16.0058 122.249 16.0584C122.467 16.111 122.696 16.1373 122.937 16.1373C123.185 16.1373 123.414 16.1185 123.625 16.0809L123.523 14.0172C123.095 14.0623 122.73 14.16 122.429 14.3104C122.128 14.4532 121.899 14.6224 121.742 14.8179C121.584 15.0058 121.505 15.1938 121.505 15.3817ZM125.76 18.0996L125.872 17.1748C126.233 17.1748 126.523 17.1523 126.741 17.1072C126.966 17.0621 127.128 16.9718 127.226 16.8365C127.323 16.6937 127.372 16.4831 127.372 16.205C127.372 15.9268 127.305 15.5697 127.169 15.1336C127.041 14.6976 126.895 14.2653 126.729 13.8368L127.643 13.4984C127.74 13.7465 127.831 14.0247 127.914 14.333C128.004 14.6337 128.079 14.9344 128.139 15.2351C128.199 15.5359 128.229 15.799 128.229 16.0246C128.229 16.7839 128.026 17.3214 127.62 17.6372C127.222 17.9455 126.601 18.0996 125.76 18.0996ZM126.966 20.1971C126.808 20.1971 126.673 20.1408 126.56 20.028C126.455 19.9227 126.402 19.7949 126.402 19.6446C126.402 19.4942 126.455 19.3626 126.56 19.2499C126.673 19.1371 126.808 19.0807 126.966 19.0807C127.117 19.0807 127.244 19.1371 127.35 19.2499C127.462 19.3626 127.519 19.4942 127.519 19.6446C127.519 19.7949 127.462 19.9227 127.35 20.028C127.244 20.1408 127.117 20.1971 126.966 20.1971ZM131.759 18.0545C131.759 17.7838 131.796 17.4831 131.871 17.1523C131.947 16.8215 132.067 16.4569 132.232 16.0584L133.044 16.3741C132.924 16.6899 132.834 16.9793 132.774 17.2425C132.714 17.5057 132.683 17.75 132.683 17.9755C132.683 18.3664 132.785 18.6898 132.988 18.9454C133.191 19.201 133.469 19.3927 133.822 19.5205C134.176 19.6483 134.575 19.7122 135.018 19.7122C135.522 19.7122 135.942 19.6446 136.281 19.5092C136.627 19.3739 136.901 19.1935 137.104 18.9679C137.307 18.7499 137.45 18.5056 137.533 18.2349C137.623 17.9642 137.668 17.6974 137.668 17.4342C137.668 17.1485 137.611 16.8027 137.499 16.3967C137.394 15.9907 137.194 15.487 136.901 14.8855L137.747 14.457C137.965 14.893 138.157 15.3517 138.322 15.8328C138.495 16.314 138.581 16.8065 138.581 17.3102C138.581 17.671 138.525 18.047 138.412 18.4379C138.299 18.8288 138.108 19.1897 137.837 19.5205C137.566 19.8513 137.198 20.1182 136.732 20.3212C136.273 20.5317 135.698 20.637 135.006 20.637C134.42 20.637 133.879 20.5467 133.382 20.3663C132.894 20.1859 132.499 19.9039 132.198 19.5205C131.905 19.1371 131.759 18.6484 131.759 18.0545ZM135.164 13.5548C135.006 13.5548 134.871 13.5022 134.758 13.3969C134.653 13.2842 134.6 13.1526 134.6 13.0022C134.6 12.8519 134.653 12.7203 134.758 12.6075C134.871 12.4948 135.006 12.4384 135.164 12.4384C135.315 12.4384 135.443 12.4948 135.548 12.6075C135.661 12.7203 135.717 12.8519 135.717 13.0022C135.717 13.1526 135.661 13.2842 135.548 13.3969C135.443 13.5022 135.315 13.5548 135.164 13.5548ZM139.535 17.5357L139.986 16.7576C140.136 16.8628 140.347 16.9606 140.618 17.0508C140.889 17.1335 141.204 17.1748 141.565 17.1748C142.121 17.1748 142.516 17.0921 142.749 16.9267C142.982 16.7538 143.099 16.517 143.099 16.2163C143.099 16.0659 143.065 15.8817 142.998 15.6637C142.937 15.4381 142.802 15.1374 142.592 14.7615C142.381 14.3781 142.058 13.8781 141.622 13.2616L142.4 12.7541C142.994 13.5812 143.411 14.2841 143.652 14.863C143.892 15.4419 144.012 15.9118 144.012 16.2727C144.012 16.5809 143.937 16.8741 143.787 17.1523C143.636 17.4304 143.384 17.6598 143.031 17.8402C142.678 18.0206 142.189 18.1108 141.565 18.1108C141.151 18.1108 140.768 18.062 140.415 17.9642C140.061 17.859 139.768 17.7161 139.535 17.5357ZM145.169 20.637L144.966 19.7122C145.447 19.6521 145.883 19.5618 146.274 19.4416C146.665 19.3213 147 19.1484 147.278 18.9228C147.556 18.6973 147.763 18.3966 147.898 18.0206C147.763 18.0582 147.62 18.0845 147.469 18.0996C147.319 18.1221 147.172 18.1334 147.03 18.1334C146.451 18.1334 146.007 18.0169 145.699 17.7838C145.391 17.5508 145.237 17.1899 145.237 16.7012C145.237 16.4155 145.282 16.1298 145.372 15.8441C145.462 15.5509 145.59 15.284 145.755 15.0434C145.921 14.8028 146.12 14.6111 146.353 14.4683C146.586 14.3179 146.845 14.2427 147.131 14.2427C147.537 14.2427 147.872 14.3781 148.135 14.6487C148.406 14.9119 148.605 15.2539 148.733 15.675C148.868 16.096 148.936 16.5433 148.936 17.017C148.936 18.0695 148.616 18.9003 147.977 19.5092C147.345 20.1182 146.409 20.4941 145.169 20.637ZM146.128 16.4756C146.128 16.7087 146.203 16.8967 146.353 17.0395C146.504 17.1748 146.763 17.2425 147.131 17.2425C147.454 17.2425 147.763 17.1974 148.056 17.1072C148.056 17.0621 148.056 17.0095 148.056 16.9493C148.056 16.641 148.015 16.3516 147.932 16.0809C147.849 15.8028 147.733 15.581 147.582 15.4156C147.432 15.2502 147.251 15.1675 147.041 15.1675C146.861 15.1675 146.703 15.2351 146.567 15.3705C146.432 15.4983 146.323 15.6637 146.24 15.8667C146.165 16.0697 146.128 16.2727 146.128 16.4756ZM149.604 20.6595L149.277 19.8024C150.006 19.5618 150.574 19.2762 150.98 18.9454C151.393 18.6145 151.683 18.2687 151.848 17.9079C152.021 17.5395 152.107 17.1823 152.107 16.8365C152.107 16.4681 152.025 16.096 151.859 15.7201C151.701 15.3366 151.525 14.9758 151.329 14.6374L152.152 14.2202C152.363 14.6187 152.54 15.0021 152.682 15.3705C152.833 15.7388 152.95 16.0622 153.032 16.3403C153.137 16.6636 153.273 16.8854 153.438 17.0057C153.611 17.1184 153.844 17.1748 154.137 17.1748C154.295 17.1748 154.408 17.2199 154.476 17.3102C154.551 17.3929 154.588 17.4944 154.588 17.6146C154.588 17.7349 154.536 17.8477 154.43 17.953C154.326 18.0507 154.19 18.0996 154.024 18.0996C153.739 18.0996 153.498 18.0545 153.303 17.9642C153.115 17.874 152.961 17.7538 152.84 17.6034C152.765 18.0244 152.607 18.4078 152.367 18.7537C152.126 19.0995 151.845 19.4002 151.521 19.6558C151.198 19.919 150.867 20.1333 150.528 20.2986C150.19 20.464 149.882 20.5843 149.604 20.6595ZM151.397 12.9233C151.239 12.9233 151.104 12.8707 150.991 12.7654C150.886 12.6526 150.833 12.5211 150.833 12.3707C150.833 12.2203 150.886 12.0888 150.991 11.976C151.104 11.8632 151.239 11.8069 151.397 11.8069C151.547 11.8069 151.675 11.8632 151.78 11.976C151.893 12.0888 151.949 12.2203 151.949 12.3707C151.949 12.5211 151.893 12.6526 151.78 12.7654C151.675 12.8707 151.547 12.9233 151.397 12.9233ZM154.03 18.0996L154.143 17.1748C154.391 17.1748 154.673 17.1748 154.989 17.1748C155.312 17.1673 155.624 17.1523 155.925 17.1297C156.225 17.0997 156.462 17.0546 156.635 16.9944C156.876 16.9117 157.068 16.8065 157.21 16.6786C157.361 16.5433 157.474 16.3704 157.549 16.1599C157.413 16.205 157.267 16.2388 157.109 16.2614C156.958 16.2764 156.808 16.2839 156.658 16.2839C156.079 16.2839 155.635 16.1486 155.327 15.8779C155.018 15.6073 154.865 15.2652 154.865 14.8517C154.865 14.566 154.91 14.2804 155 13.9946C155.09 13.7014 155.218 13.4346 155.383 13.194C155.549 12.9534 155.748 12.7616 155.981 12.6188C156.214 12.4684 156.473 12.3933 156.759 12.3933C157.165 12.3933 157.5 12.5286 157.763 12.7993C158.033 13.0624 158.233 13.4044 158.361 13.8255C158.496 14.2465 158.564 14.6938 158.564 15.1675C158.564 15.7313 158.466 16.2163 158.27 16.6222C158.083 17.0207 157.767 17.3515 157.323 17.6146C157.09 17.75 156.797 17.8552 156.443 17.9304C156.098 17.9981 155.718 18.0432 155.304 18.0657C154.891 18.0883 154.466 18.0996 154.03 18.0996ZM155.755 14.6262C155.755 14.8592 155.83 15.0472 155.981 15.19C156.132 15.3254 156.391 15.393 156.759 15.393C157.082 15.393 157.391 15.3479 157.684 15.2577C157.684 15.2126 157.684 15.16 157.684 15.0998C157.684 14.7916 157.643 14.5021 157.56 14.2315C157.477 13.9533 157.361 13.7315 157.21 13.5661C157.06 13.4007 156.879 13.318 156.669 13.318C156.488 13.318 156.331 13.3857 156.195 13.521C156.06 13.6488 155.951 13.8142 155.868 14.0172C155.793 14.2202 155.755 14.4232 155.755 14.6262ZM156.545 11.2317C156.387 11.2317 156.252 11.1791 156.139 11.0738C156.033 10.9611 155.981 10.8295 155.981 10.6791C155.981 10.5287 156.033 10.3972 156.139 10.2844C156.252 10.1716 156.387 10.1153 156.545 10.1153C156.695 10.1153 156.823 10.1716 156.928 10.2844C157.041 10.3972 157.097 10.5287 157.097 10.6791C157.097 10.8295 157.041 10.9611 156.928 11.0738C156.823 11.1791 156.695 11.2317 156.545 11.2317ZM160.111 18.0432L159.886 9.99121H160.799L161.025 18.0432H160.111Z" fill="white"/>
</g>
<defs>
<clipPath id="clip0_568_304">
<rect width="173.67" height="28.1932" fill="white"/>
</clipPath>
</defs>
</svg>
