<svg width="174" height="44" viewBox="0 0 174 44" fill="none" xmlns="http://www.w3.org/2000/svg">
<g clip-path="url(#clip0_568_583)">
<path d="M151.762 0.398438H21.908C10.0286 0.398438 0.398438 10.0286 0.398438 21.908C0.398438 33.7874 10.0286 43.4176 21.908 43.4176H151.762C163.642 43.4176 173.272 33.7874 173.272 21.908C173.272 10.0286 163.642 0.398438 151.762 0.398438Z" fill="#1F1F1F"/>
<path d="M45.4099 18.9529H16.7305V14.4555C16.7305 12.014 18.8354 9.95801 21.335 9.95801H40.8054C43.305 9.95801 45.4099 12.014 45.4099 14.4555V18.9529Z" fill="#34A853"/>
<path d="M45.4099 23.1028H16.7305V18.3229C16.7305 15.7281 18.8354 13.543 21.335 13.543H40.8054C43.305 13.543 45.4099 15.7281 45.4099 18.3229V23.1028Z" fill="#FBBC04"/>
<path d="M45.4099 27.0862H16.7305V22.3063C16.7305 19.7115 18.8354 17.5264 21.335 17.5264H40.8054C43.305 17.5264 45.4099 19.7115 45.4099 22.3063V27.0862Z" fill="#EA4335"/>
<path d="M16.7305 20.1086L34.9334 24.2206C37.0287 24.7346 39.386 24.2206 41.0883 22.9356L45.4099 19.8516V29.489C45.4099 31.9305 43.3146 33.858 40.8265 33.858H21.3139C18.8257 33.858 16.7305 31.9305 16.7305 29.489V20.1086Z" fill="url(#paint0_linear_568_583)"/>
<path d="M57.3199 17.1281V10.79H55.2383V9.71289H60.5201V10.79H58.4488V17.1281H57.3199ZM63.0931 17.2938C62.5476 17.2938 62.0678 17.1695 61.6536 16.921C61.2393 16.6724 60.9148 16.3376 60.68 15.9164C60.4453 15.4952 60.3279 15.0188 60.3279 14.4872C60.3279 13.9625 60.4453 13.4896 60.68 13.0684C60.9148 12.6403 61.2393 12.302 61.6536 12.0535C62.0678 11.8049 62.5476 11.6806 63.0931 11.6806C63.6316 11.6806 64.108 11.8049 64.5223 12.0535C64.9366 12.302 65.261 12.6403 65.4958 13.0684C65.7306 13.4896 65.8479 13.9625 65.8479 14.4872C65.8479 15.0188 65.7306 15.4952 65.4958 15.9164C65.261 16.3376 64.9366 16.6724 64.5223 16.921C64.108 17.1695 63.6316 17.2938 63.0931 17.2938ZM63.0931 16.2996C63.3831 16.2996 63.6558 16.2305 63.9113 16.0925C64.1668 15.9475 64.3739 15.7404 64.5327 15.4711C64.6914 15.2018 64.7709 14.8738 64.7709 14.4872C64.7709 14.1075 64.6914 13.783 64.5327 13.5137C64.3807 13.2444 64.1771 13.0373 63.9216 12.8923C63.6661 12.7473 63.39 12.6748 63.0931 12.6748C62.7962 12.6748 62.5166 12.7473 62.2542 12.8923C61.9987 13.0373 61.7916 13.2444 61.6328 13.5137C61.4809 13.783 61.405 14.1075 61.405 14.4872C61.405 14.867 61.4809 15.1915 61.6328 15.4607C61.7916 15.73 61.9987 15.9371 62.2542 16.0821C62.5166 16.2271 62.7962 16.2996 63.0931 16.2996ZM60.8665 14.9118V14.0315H65.268V14.9118H60.8665ZM66.7769 17.1281V11.8463H68.1025L69.7285 15.0775H69.7803L71.4166 11.8463H72.7112V17.1281H71.6444V14.5597L71.6962 13.5448H71.6341L70.1117 16.455H69.3764L67.854 13.5448H67.7918L67.8436 14.5597V17.1281H66.7769ZM76.4533 17.2938C75.9079 17.2938 75.4281 17.1695 75.0138 16.921C74.5995 16.6724 74.2751 16.3376 74.0403 15.9164C73.8055 15.4952 73.6882 15.0188 73.6882 14.4872C73.6882 13.9625 73.8055 13.4896 74.0403 13.0684C74.2751 12.6403 74.5995 12.302 75.0138 12.0535C75.4281 11.8049 75.9079 11.6806 76.4533 11.6806C76.9919 11.6806 77.4683 11.8049 77.8825 12.0535C78.2968 12.302 78.6213 12.6403 78.856 13.0684C79.0908 13.4896 79.2082 13.9625 79.2082 14.4872C79.2082 15.0188 79.0908 15.4952 78.856 15.9164C78.6213 16.3376 78.2968 16.6724 77.8825 16.921C77.4683 17.1695 76.9919 17.2938 76.4533 17.2938ZM76.4533 16.2996C76.7433 16.2996 77.016 16.2305 77.2715 16.0925C77.527 15.9475 77.7341 15.7404 77.8929 15.4711C78.0517 15.2018 78.1311 14.8738 78.1311 14.4872C78.1311 14.1075 78.0517 13.783 77.8929 13.5137C77.741 13.2444 77.5374 13.0373 77.2819 12.8923C77.0264 12.7473 76.7503 12.6748 76.4533 12.6748C76.1564 12.6748 75.8768 12.7473 75.6145 12.8923C75.359 13.0373 75.1519 13.2444 74.9931 13.5137C74.8412 13.783 74.7652 14.1075 74.7652 14.4872C74.7652 14.867 74.8412 15.1915 74.9931 15.4607C75.1519 15.73 75.359 15.9371 75.6145 16.0821C75.8768 16.2271 76.1564 16.2996 76.4533 16.2996ZM74.2267 14.9118V14.0315H78.6282V14.9118H74.2267ZM80.1368 17.1281V11.8463H81.2553V13.9694H83.7616V11.8463H84.8801V17.1281H83.7616V14.9429H81.2553V17.1281H80.1368ZM86.185 17.1281V11.8463H87.3035V14.1869H87.3656L89.4369 11.8463H90.7211V11.9085L88.5152 14.3215L90.804 17.066V17.1281H89.4784L87.3656 14.5286H87.3035V17.1281H86.185ZM93.1493 19.3651V17.1281L91.0159 11.8463H92.2483L93.7189 15.7921H93.7293L95.2206 11.8463H96.4323L94.2678 17.1281V19.3651H93.1493ZM96.9278 17.211C96.7693 17.211 96.6172 17.1937 96.4722 17.1592V16.1235C96.5686 16.1719 96.6761 16.196 96.7932 16.196C97.0282 16.196 97.1939 16.1063 97.2903 15.9268C97.3867 15.7404 97.4457 15.5056 97.4664 15.2225C97.4871 14.9395 97.4975 14.646 97.4975 14.3422V11.8463H101.536V17.1281H100.428V12.8198H98.5538V14.5183C98.5538 14.8773 98.5299 15.2191 98.4813 15.5436C98.4399 15.8612 98.3602 16.1477 98.2431 16.4032C98.126 16.6517 97.9603 16.8485 97.746 16.9935C97.5389 17.1385 97.2664 17.211 96.9278 17.211ZM105.288 17.2938C104.742 17.2938 104.263 17.1695 103.848 16.921C103.434 16.6724 103.109 16.3376 102.875 15.9164C102.64 15.4952 102.523 15.0188 102.523 14.4872C102.523 13.9625 102.64 13.4896 102.875 13.0684C103.109 12.6403 103.434 12.302 103.848 12.0535C104.263 11.8049 104.742 11.6806 105.288 11.6806C105.826 11.6806 106.303 11.8049 106.717 12.0535C107.131 12.302 107.456 12.6403 107.691 13.0684C107.925 13.4896 108.043 13.9625 108.043 14.4872C108.043 15.0188 107.925 15.4952 107.691 15.9164C107.456 16.3376 107.131 16.6724 106.717 16.921C106.303 17.1695 105.826 17.2938 105.288 17.2938ZM105.288 16.2996C105.578 16.2996 105.85 16.2305 106.106 16.0925C106.361 15.9475 106.568 15.7404 106.727 15.4711C106.886 15.2018 106.966 14.8738 106.966 14.4872C106.966 14.1075 106.886 13.783 106.727 13.5137C106.575 13.2444 106.371 13.0373 106.116 12.8923C105.861 12.7473 105.584 12.6748 105.288 12.6748C104.991 12.6748 104.711 12.7473 104.449 12.8923C104.193 13.0373 103.986 13.2444 103.828 13.5137C103.675 13.783 103.6 14.1075 103.6 14.4872C103.6 14.867 103.675 15.1915 103.828 15.4607C103.986 15.73 104.193 15.9371 104.449 16.0821C104.711 16.2271 104.991 16.2996 105.288 16.2996ZM103.061 14.9118V14.0315H107.463V14.9118H103.061ZM109.011 19.3651V11.8463H110.057V12.5609H110.12C110.258 12.3331 110.472 12.1294 110.762 11.9499C111.059 11.7704 111.411 11.6806 111.818 11.6806C112.302 11.6806 112.733 11.8015 113.113 12.0431C113.493 12.2847 113.793 12.6161 114.014 13.0373C114.241 13.4585 114.355 13.9418 114.355 14.4872C114.355 15.0327 114.241 15.5194 114.014 15.9475C113.793 16.3687 113.493 16.7001 113.113 16.9417C112.733 17.1765 112.302 17.2938 111.818 17.2938C111.411 17.2938 111.059 17.2075 110.762 17.0349C110.472 16.8554 110.258 16.6517 110.12 16.4239H110.057L110.12 17.1592V19.3651H109.011ZM111.652 16.2685C111.929 16.2685 112.188 16.196 112.429 16.051C112.671 15.9061 112.868 15.7024 113.019 15.44C113.172 15.1707 113.247 14.8531 113.247 14.4872C113.247 14.1213 113.172 13.8071 113.019 13.5448C112.868 13.2755 112.671 13.0684 112.429 12.9234C112.188 12.7784 111.929 12.7059 111.652 12.7059C111.377 12.7059 111.118 12.7784 110.876 12.9234C110.634 13.0684 110.437 13.2755 110.285 13.5448C110.134 13.8071 110.057 14.1213 110.057 14.4872C110.057 14.8531 110.134 15.1707 110.285 15.44C110.437 15.7024 110.634 15.9061 110.876 16.051C111.118 16.196 111.377 16.2685 111.652 16.2685ZM115.313 17.1281V11.8463H118.772V12.8198H116.431V17.1281H115.313ZM121.864 17.2938C121.319 17.2938 120.839 17.1695 120.424 16.921C120.01 16.6724 119.686 16.3376 119.451 15.9164C119.217 15.4952 119.099 15.0188 119.099 14.4872C119.099 13.9625 119.217 13.4896 119.451 13.0684C119.686 12.6403 120.01 12.302 120.424 12.0535C120.839 11.8049 121.319 11.6806 121.864 11.6806C122.402 11.6806 122.879 11.8049 123.293 12.0535C123.707 12.302 124.032 12.6403 124.267 13.0684C124.502 13.4896 124.619 13.9625 124.619 14.4872C124.619 15.0188 124.502 15.4952 124.267 15.9164C124.032 16.3376 123.707 16.6724 123.293 16.921C122.879 17.1695 122.402 17.2938 121.864 17.2938ZM121.864 16.2996C122.154 16.2996 122.427 16.2305 122.682 16.0925C122.938 15.9475 123.145 15.7404 123.303 15.4711C123.463 15.2018 123.542 14.8738 123.542 14.4872C123.542 14.1075 123.463 13.783 123.303 13.5137C123.152 13.2444 122.948 13.0373 122.692 12.8923C122.437 12.7473 122.161 12.6748 121.864 12.6748C121.567 12.6748 121.288 12.7473 121.025 12.8923C120.77 13.0373 120.563 13.2444 120.404 13.5137C120.252 13.783 120.176 14.1075 120.176 14.4872C120.176 14.867 120.252 15.1915 120.404 15.4607C120.563 15.73 120.77 15.9371 121.025 16.0821C121.288 16.2271 121.567 16.2996 121.864 16.2996ZM119.637 14.9118V14.0315H124.039V14.9118H119.637ZM128.067 17.1281V11.8463H129.185V14.1869H129.247L131.318 11.8463H132.603V11.9085L130.397 14.3215L132.686 17.066V17.1281H131.36L129.247 14.5286H129.185V17.1281H128.067ZM135.761 17.2938C135.215 17.2938 134.735 17.1695 134.321 16.921C133.907 16.6724 133.582 16.3376 133.348 15.9164C133.113 15.4952 132.995 15.0188 132.995 14.4872C132.995 13.9625 133.113 13.4896 133.348 13.0684C133.582 12.6403 133.907 12.302 134.321 12.0535C134.735 11.8049 135.215 11.6806 135.761 11.6806C136.299 11.6806 136.776 11.8049 137.19 12.0535C137.604 12.302 137.928 12.6403 138.163 13.0684C138.398 13.4896 138.515 13.9625 138.515 14.4872C138.515 15.0188 138.398 15.4952 138.163 15.9164C137.928 16.3376 137.604 16.6724 137.19 16.921C136.776 17.1695 136.299 17.2938 135.761 17.2938ZM135.761 16.2685C136.051 16.2685 136.32 16.1995 136.568 16.0614C136.817 15.9164 137.017 15.7127 137.169 15.4504C137.328 15.1811 137.407 14.8601 137.407 14.4872C137.407 14.1144 137.328 13.7968 137.169 13.5344C137.017 13.2652 136.817 13.0615 136.568 12.9234C136.32 12.7784 136.051 12.7059 135.761 12.7059C135.471 12.7059 135.197 12.7784 134.942 12.9234C134.694 13.0615 134.49 13.2652 134.331 13.5344C134.179 13.7968 134.104 14.1144 134.104 14.4872C134.104 14.8601 134.179 15.1811 134.331 15.4504C134.49 15.7127 134.694 15.9164 134.942 16.0614C135.197 16.1995 135.471 16.2685 135.761 16.2685ZM139.444 17.1281V11.8463H140.552V16.1546H142.292V11.8463H143.401V16.1546H145.14V11.8463H146.249V17.1281H139.444ZM149.367 19.1062C149.347 19.1614 149.323 19.2132 149.295 19.2616C149.274 19.3099 149.261 19.3444 149.253 19.3651H148.063C148.097 19.2892 148.145 19.1787 148.207 19.0337C148.277 18.8957 148.342 18.761 148.404 18.6298C148.466 18.4986 148.532 18.3502 148.601 18.1845C148.677 18.0188 148.753 17.8565 148.829 17.6977L149.222 16.8381L147.017 11.8463H148.259L149.771 15.4504H149.823L151.283 11.8463H152.516L149.782 18.1431C149.706 18.3225 149.623 18.509 149.533 18.7023C149.45 18.9025 149.395 19.0371 149.367 19.1062ZM155.122 19.1062C155.102 19.1614 155.077 19.2132 155.05 19.2616C155.029 19.3099 155.015 19.3444 155.009 19.3651H153.818C153.852 19.2892 153.9 19.1787 153.963 19.0337C154.031 18.8957 154.097 18.761 154.159 18.6298C154.221 18.4986 154.287 18.3502 154.356 18.1845C154.432 18.0188 154.507 17.8565 154.584 17.6977L154.977 16.8381L152.772 11.8463H154.014L155.526 15.4504H155.578L157.038 11.8463H158.271L155.537 18.1431C155.46 18.3225 155.377 18.509 155.288 18.7023C155.205 18.9025 155.15 19.0371 155.122 19.1062Z" fill="white"/>
<path d="M60.6568 33.2777C59.9615 33.2777 59.307 33.1513 58.693 32.8985C58.0881 32.6457 57.5509 32.2936 57.0814 31.8421C56.6119 31.3816 56.2417 30.8445 55.9709 30.2305C55.709 29.6075 55.5781 28.9349 55.5781 28.2126C55.5781 27.4902 55.709 26.8222 55.9709 26.2082C56.2417 25.5852 56.6074 25.048 57.0679 24.5966C57.5373 24.1361 58.0791 23.7794 58.693 23.5267C59.307 23.2739 59.9615 23.1475 60.6568 23.1475C61.3971 23.1475 62.0788 23.2784 62.7018 23.5402C63.3338 23.8021 63.8619 24.1677 64.2863 24.6372L63.257 25.6529C62.941 25.3008 62.5618 25.0299 62.1194 24.8403C61.686 24.6507 61.1985 24.5559 60.6568 24.5559C60.0157 24.5559 59.4244 24.7095 58.8826 25.0164C58.3409 25.3144 57.903 25.7387 57.569 26.2895C57.2439 26.8312 57.0814 27.4722 57.0814 28.2126C57.0814 28.9529 57.2485 29.5985 57.5825 30.1492C57.9165 30.691 58.3545 31.1153 58.8962 31.4223C59.4379 31.7202 60.0293 31.8692 60.6703 31.8692C61.2572 31.8692 61.7899 31.7609 62.2684 31.5442C62.747 31.3185 63.1306 31.0024 63.4196 30.5961C63.7175 30.1899 63.8981 29.7023 63.9613 29.1335H60.6432V27.8198H65.3562C65.4104 28.0636 65.4375 28.3209 65.4375 28.5918V28.6053C65.4375 29.5443 65.2298 30.3659 64.8145 31.0702C64.4082 31.7654 63.8439 32.3071 63.1216 32.6953C62.3993 33.0835 61.5777 33.2777 60.6568 33.2777ZM69.7983 33.2777C69.0849 33.2777 68.4575 33.1152 67.9158 32.7901C67.3741 32.4651 66.9497 32.0272 66.6427 31.4765C66.3357 30.9257 66.1823 30.3027 66.1823 29.6075C66.1823 28.9214 66.3357 28.3028 66.6427 27.7521C66.9497 27.1923 67.3741 26.7499 67.9158 26.4249C68.4575 26.0998 69.0849 25.9373 69.7983 25.9373C70.5025 25.9373 71.1255 26.0998 71.6672 26.4249C72.2089 26.7499 72.6332 27.1923 72.9403 27.7521C73.2472 28.3028 73.4007 28.9214 73.4007 29.6075C73.4007 30.3027 73.2472 30.9257 72.9403 31.4765C72.6332 32.0272 72.2089 32.4651 71.6672 32.7901C71.1255 33.1152 70.5025 33.2777 69.7983 33.2777ZM69.7983 31.9369C70.1775 31.9369 70.5296 31.8467 70.8546 31.6661C71.1797 31.4765 71.4414 31.2101 71.6401 30.867C71.8477 30.5149 71.9516 30.0951 71.9516 29.6075C71.9516 29.12 71.8477 28.7047 71.6401 28.3615C71.4414 28.0094 71.1797 27.7431 70.8546 27.5625C70.5296 27.3729 70.1775 27.2781 69.7983 27.2781C69.4191 27.2781 69.0624 27.3729 68.7284 27.5625C68.4033 27.7431 68.1369 28.0094 67.9293 28.3615C67.7306 28.7047 67.6314 29.12 67.6314 29.6075C67.6314 30.0951 67.7306 30.5149 67.9293 30.867C68.1369 31.2101 68.4033 31.4765 68.7284 31.6661C69.0624 31.8467 69.4191 31.9369 69.7983 31.9369ZM77.9981 33.2777C77.2849 33.2777 76.6574 33.1152 76.1156 32.7901C75.5739 32.4651 75.1496 32.0272 74.8426 31.4765C74.5356 30.9257 74.3821 30.3027 74.3821 29.6075C74.3821 28.9214 74.5356 28.3028 74.8426 27.7521C75.1496 27.1923 75.5739 26.7499 76.1156 26.4249C76.6574 26.0998 77.2849 25.9373 77.9981 25.9373C78.7024 25.9373 79.3253 26.0998 79.8672 26.4249C80.409 26.7499 80.8336 27.1923 81.1403 27.7521C81.447 28.3028 81.6007 28.9214 81.6007 29.6075C81.6007 30.3027 81.447 30.9257 81.1403 31.4765C80.8336 32.0272 80.409 32.4651 79.8672 32.7901C79.3253 33.1152 78.7024 33.2777 77.9981 33.2777ZM77.9981 31.9369C78.3773 31.9369 78.7295 31.8467 79.0545 31.6661C79.3795 31.4765 79.6414 31.2101 79.8401 30.867C80.0481 30.5149 80.1516 30.0951 80.1516 29.6075C80.1516 29.12 80.0481 28.7047 79.8401 28.3615C79.6414 28.0094 79.3795 27.7431 79.0545 27.5625C78.7295 27.3729 78.3773 27.2781 77.9981 27.2781C77.6189 27.2781 77.2623 27.3729 76.9282 27.5625C76.6032 27.7431 76.3369 28.0094 76.1292 28.3615C75.9306 28.7047 75.8312 29.12 75.8312 29.6075C75.8312 30.0951 75.9306 30.5149 76.1292 30.867C76.3369 31.2101 76.6032 31.4765 76.9282 31.6661C77.2623 31.8467 77.6189 31.9369 77.9981 31.9369ZM86.0628 36.203C85.4573 36.203 84.9339 36.1036 84.4918 35.905C84.0584 35.7154 83.7063 35.4671 83.4354 35.1602C83.1646 34.8622 82.9702 34.5553 82.8531 34.2392L84.2074 33.6704C84.3516 34.0315 84.5818 34.325 84.8981 34.5507C85.2231 34.7855 85.6111 34.9028 86.0628 34.9028C86.6945 34.9028 87.1908 34.7132 87.5525 34.334C87.9222 33.9548 88.1078 33.4177 88.1078 32.7224V32.0588H88.0265C87.8098 32.3838 87.5071 32.6457 87.1191 32.8443C86.7399 33.0339 86.3066 33.1287 85.819 33.1287C85.2319 33.1287 84.6949 32.9797 84.2074 32.6818C83.7198 32.3838 83.3271 31.9685 83.0291 31.4358C82.7312 30.8941 82.5822 30.2621 82.5822 29.5398C82.5822 28.8085 82.7312 28.1765 83.0291 27.6438C83.3271 27.102 83.7198 26.6822 84.2074 26.3843C84.6949 26.0863 85.2319 25.9373 85.819 25.9373C86.3066 25.9373 86.7399 26.0367 87.1191 26.2353C87.5071 26.4339 87.8098 26.6957 88.0265 27.0208H88.1078V26.154H89.5027V32.6953C89.5027 33.4447 89.3538 34.0813 89.0558 34.6049C88.7666 35.1285 88.3651 35.5258 87.8505 35.7967C87.3358 36.0676 86.7399 36.203 86.0628 36.203ZM86.0763 31.8015C86.4372 31.8015 86.771 31.7157 87.0785 31.5442C87.3852 31.3636 87.6338 31.1062 87.8234 30.7722C88.013 30.4291 88.1078 30.0183 88.1078 29.5398C88.1078 29.0432 88.013 28.6279 87.8234 28.2938C87.6338 27.9507 87.3852 27.6934 87.0785 27.5219C86.771 27.3504 86.4372 27.2646 86.0763 27.2646C85.7146 27.2646 85.3761 27.3548 85.0606 27.5354C84.7531 27.7069 84.5053 27.9598 84.3157 28.2938C84.1261 28.6279 84.0313 29.0432 84.0313 29.5398C84.0313 30.0273 84.1261 30.4426 84.3157 30.7858C84.5053 31.1198 84.7531 31.3726 85.0606 31.5442C85.3761 31.7157 85.7146 31.8015 86.0763 31.8015ZM91.2275 33.061V23.3641H92.6901V33.061H91.2275ZM97.5035 33.2777C96.8263 33.2777 96.2217 33.1197 95.6887 32.8037C95.1566 32.4876 94.7367 32.0543 94.4292 31.5035C94.1313 30.9528 93.9823 30.3253 93.9823 29.621C93.9823 28.962 94.1273 28.3525 94.4157 27.7927C94.7049 27.2329 95.1064 26.786 95.621 26.452C96.1452 26.1089 96.7451 25.9373 97.4222 25.9373C98.136 25.9373 98.7407 26.0908 99.237 26.3978C99.7429 26.7047 100.127 27.1246 100.388 27.6573C100.65 28.19 100.781 28.7904 100.781 29.4585C100.781 29.5579 100.777 29.6481 100.767 29.7294C100.767 29.8107 100.763 29.8738 100.754 29.919H95.4179C95.4904 30.6052 95.7294 31.1198 96.1356 31.4629C96.5515 31.806 97.0207 31.9775 97.5441 31.9775C98.0142 31.9775 98.4021 31.8737 98.7088 31.6661C99.0163 31.4494 99.2601 31.183 99.4402 30.867L100.645 31.4494C100.348 31.9911 99.9412 32.4335 99.4266 32.7766C98.912 33.1106 98.2715 33.2777 97.5035 33.2777ZM97.4358 27.1833C96.9482 27.1833 96.5332 27.3323 96.1898 27.6302C95.8473 27.9282 95.617 28.3255 95.4991 28.822H99.3318C99.3143 28.5872 99.237 28.3435 99.1016 28.0907C98.9662 27.8379 98.759 27.6257 98.4786 27.4542C98.2077 27.2736 97.8604 27.1833 97.4358 27.1833ZM106.734 33.061L104.134 23.3641H105.786L107.33 29.6617L107.493 30.5013H107.574L107.777 29.6617L109.727 23.3641H111.217L113.086 29.6617L113.289 30.4878H113.37L113.533 29.6617L115.077 23.3641H116.716L114.156 33.061H112.585L110.73 26.628L110.513 25.7206H110.432L110.201 26.628L108.265 33.061H106.734ZM119.435 33.2777C118.939 33.2777 118.496 33.1829 118.108 32.9933C117.72 32.7947 117.417 32.5193 117.201 32.1671C116.984 31.815 116.876 31.4133 116.876 30.9618C116.876 30.4743 117.002 30.059 117.255 29.7159C117.517 29.3637 117.864 29.0974 118.298 28.9168C118.731 28.7362 119.21 28.6459 119.733 28.6459C120.167 28.6459 120.546 28.6866 120.871 28.7678C121.205 28.8491 121.458 28.9349 121.629 29.0252V28.6595C121.629 28.208 121.467 27.8469 121.142 27.576C120.817 27.3052 120.397 27.1698 119.882 27.1698C119.53 27.1698 119.196 27.251 118.88 27.4135C118.564 27.567 118.311 27.7792 118.122 28.0501L117.119 27.2781C117.417 26.8628 117.81 26.5378 118.298 26.303C118.794 26.0592 119.336 25.9373 119.923 25.9373C120.925 25.9373 121.697 26.1857 122.239 26.6822C122.78 27.1698 123.051 27.8559 123.051 28.7407V33.061H121.629V32.2078H121.548C121.367 32.4876 121.096 32.736 120.735 32.9526C120.375 33.1693 119.941 33.2777 119.435 33.2777ZM119.693 32.0859C120.072 32.0859 120.406 31.9956 120.695 31.815C120.984 31.6344 121.209 31.3997 121.372 31.1108C121.543 30.8128 121.629 30.4923 121.629 30.1492C121.421 30.0319 121.178 29.9371 120.898 29.8648C120.618 29.7836 120.32 29.7429 120.004 29.7429C119.408 29.7429 118.984 29.8648 118.731 30.1086C118.479 30.3434 118.352 30.6322 118.352 30.9754C118.352 31.3004 118.474 31.5667 118.718 31.7744C118.961 31.9821 119.286 32.0859 119.693 32.0859ZM124.675 33.061V23.3641H126.138V33.061H124.675ZM127.876 33.061V23.3641H129.338V33.061H127.876ZM134.152 33.2777C133.475 33.2777 132.87 33.1197 132.337 32.8037C131.805 32.4876 131.385 32.0543 131.078 31.5035C130.78 30.9528 130.631 30.3253 130.631 29.621C130.631 28.962 130.776 28.3525 131.064 27.7927C131.353 27.2329 131.755 26.786 132.269 26.452C132.794 26.1089 133.393 25.9373 134.071 25.9373C134.784 25.9373 135.389 26.0908 135.885 26.3978C136.391 26.7047 136.775 27.1246 137.037 27.6573C137.299 28.19 137.429 28.7904 137.429 29.4585C137.429 29.5579 137.425 29.6481 137.416 29.7294C137.416 29.8107 137.412 29.8738 137.402 29.919H132.066C132.139 30.6052 132.378 31.1198 132.784 31.4629C133.2 31.806 133.669 31.9775 134.192 31.9775C134.663 31.9775 135.05 31.8737 135.357 31.6661C135.665 31.4494 135.908 31.183 136.089 30.867L137.294 31.4494C136.996 31.9911 136.59 32.4335 136.075 32.7766C135.56 33.1106 134.92 33.2777 134.152 33.2777ZM134.084 27.1833C133.597 27.1833 133.182 27.3323 132.838 27.6302C132.496 27.9282 132.265 28.3255 132.147 28.822H135.98C135.963 28.5872 135.885 28.3435 135.75 28.0907C135.615 27.8379 135.407 27.6257 135.127 27.4542C134.856 27.2736 134.509 27.1833 134.084 27.1833ZM139.32 31.0566V27.4271H138.114V26.154H139.32V24.2038H140.782V26.154H142.475V27.4271H140.782V30.7451C140.782 31.0882 140.85 31.35 140.986 31.5306C141.13 31.7112 141.369 31.8015 141.703 31.8015C141.875 31.8015 142.019 31.7789 142.137 31.7338C142.263 31.6886 142.389 31.6254 142.516 31.5442V32.9662C142.362 33.0294 142.2 33.0791 142.028 33.1152C141.856 33.1513 141.653 33.1693 141.419 33.1693C140.778 33.1693 140.268 32.9843 139.889 32.6141C139.509 32.2349 139.32 31.7157 139.32 31.0566Z" fill="white"/>
<path d="M151.762 0.398438H21.908C10.0286 0.398438 0.398438 10.0286 0.398438 21.908C0.398438 33.7874 10.0286 43.4176 21.908 43.4176H151.762C163.642 43.4176 173.272 33.7874 173.272 21.908C173.272 10.0286 163.642 0.398438 151.762 0.398438Z" stroke="#747775"/>
</g>
<defs>
<linearGradient id="paint0_linear_568_583" x1="29.7034" y1="27.1222" x2="14.9637" y2="44.3919" gradientUnits="userSpaceOnUse">
<stop stop-color="#4285F4"/>
<stop offset="1" stop-color="#1B74E8"/>
</linearGradient>
<clipPath id="clip0_568_583">
<rect width="173.67" height="43.8158" fill="white"/>
</clipPath>
</defs>
</svg>
