<svg width="174" height="48" viewBox="0 0 174 48" fill="none" xmlns="http://www.w3.org/2000/svg">
<g clip-path="url(#clip0_568_726)">
<path d="M149.672 0.436523H24.0008C10.9871 0.436523 0.4375 10.9862 0.4375 23.9998C0.4375 37.0134 10.9871 47.563 24.0008 47.563H149.672C162.685 47.563 173.235 37.0134 173.235 23.9998C173.235 10.9862 162.685 0.436523 149.672 0.436523Z" fill="#1F1F1F"/>
<path d="M49.7458 20.7629H18.3281V15.8361C18.3281 13.1615 20.634 10.9092 23.3722 10.9092H44.7017C47.4399 10.9092 49.7458 13.1615 49.7458 15.8361V20.7629Z" fill="#34A853"/>
<path d="M49.7458 25.3085H18.3281V20.0722C18.3281 17.2297 20.634 14.8359 23.3722 14.8359H44.7017C47.4399 14.8359 49.7458 17.2297 49.7458 20.0722V25.3085Z" fill="#FBBC04"/>
<path d="M49.7458 29.6718H18.3281V24.4355C18.3281 21.593 20.634 19.1992 23.3722 19.1992H44.7017C47.4399 19.1992 49.7458 21.593 49.7458 24.4355V29.6718Z" fill="#EA4335"/>
<path d="M18.3281 22.0276L38.269 26.5322C40.5644 27.0953 43.1467 26.5322 45.0116 25.1245L49.7458 21.7461V32.3037C49.7458 34.9783 47.4505 37.0898 44.7247 37.0898H23.3492C20.6234 37.0898 18.3281 34.9783 18.3281 32.3037V22.0276Z" fill="url(#paint0_linear_568_726)"/>
<path d="M62.7921 18.7629V11.8196H60.5117V10.6396H66.2978V11.8196H64.0288V18.7629H62.7921ZM69.1165 18.9444C68.519 18.9444 67.9933 18.8082 67.5395 18.536C67.0857 18.2637 66.7302 17.8969 66.4731 17.4355C66.2159 16.9741 66.0873 16.4522 66.0873 15.8698C66.0873 15.295 66.2159 14.7769 66.4731 14.3155C66.7302 13.8466 67.0857 13.476 67.5395 13.2037C67.9933 12.9314 68.519 12.7953 69.1165 12.7953C69.7065 12.7953 70.2283 12.9314 70.6821 13.2037C71.136 13.476 71.4914 13.8466 71.7486 14.3155C72.0058 14.7769 72.1343 15.295 72.1343 15.8698C72.1343 16.4522 72.0058 16.9741 71.7486 17.4355C71.4914 17.8969 71.136 18.2637 70.6821 18.536C70.2283 18.8082 69.7065 18.9444 69.1165 18.9444ZM69.1165 17.8212C69.4342 17.8212 69.7291 17.7455 70.0014 17.5943C70.2737 17.4355 70.493 17.2123 70.6595 16.9249C70.8334 16.63 70.9204 16.2782 70.9204 15.8698C70.9204 15.4614 70.8334 15.1134 70.6595 14.8261C70.493 14.5311 70.2737 14.3079 70.0014 14.1567C69.7291 13.9978 69.4342 13.9184 69.1165 13.9184C68.7988 13.9184 68.5001 13.9978 68.2202 14.1567C67.9479 14.3079 67.7248 14.5311 67.5509 14.8261C67.3844 15.1134 67.3013 15.4614 67.3013 15.8698C67.3013 16.2782 67.3844 16.63 67.5509 16.9249C67.7248 17.2123 67.9479 17.4355 68.2202 17.5943C68.5001 17.7455 68.7988 17.8212 69.1165 17.8212ZM75.9063 18.9444C75.339 18.9444 74.8323 18.812 74.386 18.5473C73.9397 18.2826 73.588 17.9196 73.3309 17.4582C73.0813 16.9968 72.9565 16.4711 72.9565 15.8812C72.9565 15.329 73.0775 14.8185 73.3196 14.3496C73.5616 13.8806 73.8982 13.5063 74.3293 13.2264C74.7679 12.939 75.271 12.7953 75.8382 12.7953C76.4357 12.7953 76.9425 12.9238 77.3585 13.181C77.782 13.4382 78.1034 13.7899 78.3228 14.2361C78.5422 14.6823 78.6519 15.1854 78.6519 15.745C78.6519 15.8282 78.648 15.9039 78.6405 15.9719C78.6405 16.04 78.6367 16.093 78.6292 16.1308H74.1591C74.2196 16.7056 74.4201 17.1367 74.7604 17.4241C75.1083 17.7115 75.5016 17.8552 75.9403 17.8552C76.3336 17.8552 76.6588 17.7682 76.916 17.5943C77.1731 17.4128 77.3773 17.1896 77.5287 16.9249L78.5384 17.4128C78.2888 17.8666 77.9484 18.2372 77.5173 18.5246C77.0862 18.8045 76.5491 18.9444 75.9063 18.9444ZM75.8496 13.839C75.4411 13.839 75.0932 13.9638 74.8058 14.2134C74.5183 14.463 74.3255 14.7958 74.2272 15.2118H77.4379C77.4227 15.0152 77.3585 14.811 77.245 14.5991C77.1316 14.3873 76.9576 14.2097 76.7232 14.0659C76.4963 13.9147 76.205 13.839 75.8496 13.839ZM81.4363 18.7629L79.0425 12.9768H80.4039L82.0263 17.1859H82.083L83.7394 12.9768H85.0782L82.6616 18.7629H81.4363ZM88.4281 18.9444C87.8303 18.9444 87.3049 18.8082 86.8508 18.536C86.397 18.2637 86.0416 17.8969 85.7844 17.4355C85.5273 16.9741 85.3986 16.4522 85.3986 15.8698C85.3986 15.295 85.5273 14.7769 85.7844 14.3155C86.0416 13.8466 86.397 13.476 86.8508 13.2037C87.3049 12.9314 87.8303 12.7953 88.4281 12.7953C89.018 12.7953 89.5399 12.9314 89.9937 13.2037C90.4475 13.476 90.8027 13.8466 91.0602 14.3155C91.3168 14.7769 91.4459 15.295 91.4459 15.8698C91.4459 16.4522 91.3168 16.9741 91.0602 17.4355C90.8027 17.8969 90.4475 18.2637 89.9937 18.536C89.5399 18.8082 89.018 18.9444 88.4281 18.9444ZM88.4281 17.8212C88.7457 17.8212 89.0407 17.7455 89.313 17.5943C89.5853 17.4355 89.8044 17.2123 89.971 16.9249C90.1447 16.63 90.232 16.2782 90.232 15.8698C90.232 15.4614 90.1447 15.1134 89.971 14.8261C89.8044 14.5311 89.5853 14.3079 89.313 14.1567C89.0407 13.9978 88.7457 13.9184 88.4281 13.9184C88.1104 13.9184 87.8111 13.9978 87.5318 14.1567C87.2593 14.3079 87.0362 14.5311 86.8622 14.8261C86.6958 15.1134 86.6126 15.4614 86.6126 15.8698C86.6126 16.2782 86.6958 16.63 86.8622 16.9249C87.0362 17.2123 87.2593 17.4355 87.5318 17.5943C87.8111 17.7455 88.1104 17.8212 88.4281 17.8212ZM95.2178 18.9444C94.6505 18.9444 94.1435 18.812 93.6975 18.5473C93.2507 18.2826 92.899 17.9196 92.6424 17.4582C92.3928 16.9968 92.268 16.4711 92.268 15.8812C92.268 15.329 92.3885 14.8185 92.6311 14.3496C92.8728 13.8806 93.2097 13.5063 93.6408 13.2264C94.0789 12.939 94.5825 12.7953 95.1497 12.7953C95.7467 12.7953 96.2537 12.9238 96.67 13.181C97.0933 13.4382 97.4144 13.7899 97.6343 14.2361C97.8534 14.6823 97.9633 15.1854 97.9633 15.745C97.9633 15.8282 97.959 15.9039 97.952 15.9719C97.952 16.04 97.9476 16.093 97.9407 16.1308H93.4706C93.5308 16.7056 93.7316 17.1367 94.0719 17.4241C94.4193 17.7115 94.8129 17.8552 95.2518 17.8552C95.6445 17.8552 95.9701 17.7682 96.2275 17.5943C96.4841 17.4128 96.6883 17.1896 96.8402 16.9249L97.8499 17.4128C97.6003 17.8666 97.2599 18.2372 96.8288 18.5246C96.3977 18.8045 95.8601 18.9444 95.2178 18.9444ZM95.1611 13.839C94.7526 13.839 94.4044 13.9638 94.1173 14.2134C93.8293 14.463 93.6364 14.7958 93.5387 15.2118H96.7494C96.7337 15.0152 96.67 14.811 96.5565 14.5991C96.4431 14.3873 96.2685 14.2097 96.0347 14.0659C95.8077 13.9147 95.5163 13.839 95.1611 13.839ZM101.765 21.395C101.258 21.395 100.819 21.3118 100.449 21.1454C100.086 20.9865 99.7908 20.7786 99.5639 20.5214C99.337 20.2718 99.1738 20.0146 99.0761 19.7499L100.211 19.2734C100.331 19.576 100.524 19.8217 100.789 20.0108C101.061 20.2075 101.386 20.3058 101.765 20.3058C102.294 20.3058 102.71 20.147 103.013 19.8293C103.323 19.5117 103.478 19.0616 103.478 18.4792V17.9233H103.41C103.228 18.1956 102.974 18.4149 102.65 18.5813C102.332 18.7402 101.969 18.8196 101.561 18.8196C101.068 18.8196 100.619 18.6948 100.211 18.4452C99.8022 18.1956 99.4731 17.8477 99.2235 17.4014C98.974 16.9476 98.8492 16.4181 98.8492 15.8131C98.8492 15.2004 98.974 14.671 99.2235 14.2248C99.4731 13.7709 99.8022 13.4192 100.211 13.1696C100.619 12.92 101.068 12.7953 101.561 12.7953C101.969 12.7953 102.332 12.8784 102.65 13.0448C102.974 13.2113 103.228 13.4306 103.41 13.7029H103.478V12.9768H104.647V18.4565C104.647 19.0843 104.522 19.6175 104.272 20.0562C104.03 20.4949 103.694 20.8277 103.262 21.0546C102.831 21.2815 102.332 21.395 101.765 21.395ZM101.776 17.7078C102.078 17.7078 102.358 17.6359 102.616 17.4922C102.872 17.341 103.081 17.1254 103.24 16.8455C103.399 16.5581 103.478 16.2139 103.478 15.8131C103.478 15.3971 103.399 15.0492 103.24 14.7693C103.081 14.4819 102.872 14.2664 102.616 14.1226C102.358 13.9789 102.078 13.9071 101.776 13.9071C101.473 13.9071 101.19 13.9828 100.925 14.134C100.668 14.2777 100.46 14.4894 100.301 14.7693C100.143 15.0492 100.063 15.3971 100.063 15.8131C100.063 16.2215 100.143 16.5695 100.301 16.8569C100.46 17.1367 100.668 17.3485 100.925 17.4922C101.19 17.6359 101.473 17.7078 101.776 17.7078ZM108.668 18.9444C108.101 18.9444 107.594 18.812 107.148 18.5473C106.702 18.2826 106.35 17.9196 106.093 17.4582C105.843 16.9968 105.718 16.4711 105.718 15.8812C105.718 15.329 105.84 14.8185 106.081 14.3496C106.323 13.8806 106.66 13.5063 107.091 13.2264C107.53 12.939 108.033 12.7953 108.6 12.7953C109.198 12.7953 109.704 12.9238 110.12 13.181C110.544 13.4382 110.866 13.7899 111.085 14.2361C111.304 14.6823 111.414 15.1854 111.414 15.745C111.414 15.8282 111.41 15.9039 111.402 15.9719C111.402 16.04 111.399 16.093 111.391 16.1308H106.921C106.981 16.7056 107.182 17.1367 107.522 17.4241C107.87 17.7115 108.263 17.8552 108.702 17.8552C109.096 17.8552 109.42 17.7682 109.678 17.5943C109.935 17.4128 110.139 17.1896 110.29 16.9249L111.3 17.4128C111.051 17.8666 110.71 18.2372 110.279 18.5246C109.848 18.8045 109.311 18.9444 108.668 18.9444ZM108.611 13.839C108.203 13.839 107.855 13.9638 107.568 14.2134C107.28 14.463 107.088 14.7958 106.989 15.2118H110.2C110.185 15.0152 110.12 14.811 110.007 14.5991C109.893 14.3873 109.72 14.2097 109.485 14.0659C109.258 13.9147 108.967 13.839 108.611 13.839ZM112.55 18.7629V12.9768H113.707V13.7709H113.775C113.942 13.4911 114.188 13.2604 114.513 13.0789C114.846 12.8898 115.209 12.7953 115.602 12.7953C116.313 12.7953 116.846 13.0071 117.201 13.4306C117.558 13.8541 117.735 14.4139 117.735 15.1097V18.7629H116.521V15.2685C116.521 14.7996 116.404 14.4593 116.169 14.2474C115.935 14.0281 115.629 13.9184 115.25 13.9184C114.955 13.9184 114.699 14.0016 114.479 14.168C114.26 14.3269 114.086 14.5387 113.957 14.8034C113.836 15.0681 113.775 15.3517 113.775 15.6543V18.7629H112.55ZM123.595 18.9444C123.179 18.9444 122.808 18.865 122.483 18.7061C122.158 18.5397 121.905 18.3091 121.723 18.0141C121.541 17.7191 121.451 17.3825 121.451 17.0043C121.451 16.5959 121.556 16.248 121.768 15.9606C121.987 15.6656 122.279 15.4425 122.642 15.2912C123.005 15.14 123.406 15.0643 123.845 15.0643C124.208 15.0643 124.525 15.0983 124.798 15.1664C125.077 15.2345 125.289 15.3063 125.433 15.382V15.0757C125.433 14.6975 125.297 14.3949 125.024 14.168C124.752 13.9411 124.4 13.8277 123.969 13.8277C123.674 13.8277 123.394 13.8957 123.13 14.0319C122.864 14.1604 122.653 14.3382 122.494 14.5651L121.655 13.9184C121.905 13.5705 122.234 13.2982 122.642 13.1016C123.057 12.8974 123.511 12.7953 124.003 12.7953C124.843 12.7953 125.49 13.0032 125.943 13.4192C126.397 13.8277 126.624 14.4025 126.624 15.1437V18.7629H125.433V18.0481H125.365C125.213 18.2826 124.986 18.4906 124.684 18.6721C124.381 18.8536 124.018 18.9444 123.595 18.9444ZM123.811 17.946C124.128 17.946 124.407 17.8703 124.65 17.7191C124.892 17.5679 125.081 17.3711 125.217 17.1291C125.36 16.8795 125.433 16.611 125.433 16.3236C125.258 16.2253 125.054 16.1459 124.82 16.0854C124.585 16.0173 124.336 15.9833 124.071 15.9833C123.572 15.9833 123.216 16.0854 123.005 16.2896C122.793 16.4862 122.687 16.7283 122.687 17.0157C122.687 17.288 122.789 17.5111 122.994 17.6851C123.198 17.859 123.47 17.946 123.811 17.946ZM129.733 18.9444C129.316 18.9444 128.946 18.865 128.621 18.7061C128.295 18.5397 128.042 18.3091 127.861 18.0141C127.679 17.7191 127.588 17.3825 127.588 17.0043C127.588 16.5959 127.694 16.248 127.906 15.9606C128.125 15.6656 128.417 15.4425 128.78 15.2912C129.143 15.14 129.543 15.0643 129.982 15.0643C130.345 15.0643 130.663 15.0983 130.935 15.1664C131.215 15.2345 131.427 15.3063 131.571 15.382V15.0757C131.571 14.6975 131.435 14.3949 131.162 14.168C130.89 13.9411 130.538 13.8277 130.107 13.8277C129.812 13.8277 129.532 13.8957 129.268 14.0319C129.003 14.1604 128.791 14.3382 128.632 14.5651L127.793 13.9184C128.042 13.5705 128.371 13.2982 128.78 13.1016C129.196 12.8974 129.65 12.7953 130.141 12.7953C130.981 12.7953 131.627 13.0032 132.081 13.4192C132.535 13.8277 132.762 14.4025 132.762 15.1437V18.7629H131.571V18.0481H131.503C131.352 18.2826 131.125 18.4906 130.822 18.6721C130.519 18.8536 130.156 18.9444 129.733 18.9444ZM129.948 17.946C130.266 17.946 130.546 17.8703 130.788 17.7191C131.03 17.5679 131.219 17.3711 131.355 17.1291C131.499 16.8795 131.571 16.611 131.571 16.3236C131.397 16.2253 131.193 16.1459 130.958 16.0854C130.723 16.0173 130.474 15.9833 130.209 15.9833C129.71 15.9833 129.355 16.0854 129.143 16.2896C128.931 16.4862 128.825 16.7283 128.825 17.0157C128.825 17.288 128.927 17.5111 129.131 17.6851C129.336 17.859 129.608 17.946 129.948 17.946ZM134.111 18.7629V12.9768H135.268V13.7709H135.336C135.502 13.4911 135.748 13.2604 136.074 13.0789C136.406 12.8898 136.769 12.7953 137.163 12.7953C137.873 12.7953 138.407 13.0071 138.763 13.4306C139.118 13.8541 139.296 14.4139 139.296 15.1097V18.7629H138.082V15.2685C138.082 14.7996 137.964 14.4593 137.73 14.2474C137.496 14.0281 137.189 13.9184 136.811 13.9184C136.516 13.9184 136.259 14.0016 136.04 14.168C135.82 14.3269 135.646 14.5387 135.518 14.8034C135.397 15.0681 135.336 15.3517 135.336 15.6543V18.7629H134.111Z" fill="white"/>
<path d="M66.4503 36.4548C65.6887 36.4548 64.9716 36.3163 64.299 36.0394C63.6364 35.7625 63.0478 35.3768 62.5335 34.8822C62.0192 34.3778 61.6137 33.7893 61.317 33.1167C61.0301 32.4343 60.8867 31.6974 60.8867 30.9061C60.8867 30.1148 61.0301 29.383 61.317 28.7104C61.6137 28.0279 62.0143 27.4395 62.5187 26.9449C63.033 26.4405 63.6264 26.0497 64.299 25.7728C64.9716 25.4959 65.6887 25.3574 66.4503 25.3574C67.2613 25.3574 68.0081 25.5008 68.6905 25.7877C69.3828 26.0745 69.9615 26.4751 70.4264 26.9894L69.2988 28.1021C68.9526 27.7164 68.5372 27.4196 68.0526 27.2119C67.5778 27.0042 67.0437 26.9004 66.4503 26.9004C65.748 26.9004 65.1002 27.0686 64.5067 27.4048C63.9133 27.7312 63.4336 28.1961 63.0676 28.7994C62.7116 29.3928 62.5335 30.0951 62.5335 30.9061C62.5335 31.7171 62.7165 32.4244 63.0825 33.0277C63.4484 33.6211 63.9281 34.086 64.5216 34.4223C65.115 34.7487 65.7628 34.9119 66.4651 34.9119C67.108 34.9119 67.6915 34.7932 68.2158 34.5558C68.74 34.3086 69.1603 33.9624 69.4768 33.5173C69.8032 33.0722 70.0011 32.5381 70.0703 31.915H66.4354V30.4759H71.5984C71.6578 30.7429 71.6874 31.0248 71.6874 31.3215V31.3364C71.6874 32.3651 71.4599 33.2651 71.005 34.0366C70.5599 34.7982 69.9417 35.3916 69.1504 35.8169C68.3592 36.2422 67.4591 36.4548 66.4503 36.4548ZM76.4646 36.4548C75.6831 36.4548 74.9958 36.2768 74.4023 35.9207C73.8089 35.5647 73.344 35.0849 73.0078 34.4816C72.6714 33.8783 72.5033 33.1959 72.5033 32.4343C72.5033 31.6826 72.6714 31.005 73.0078 30.4017C73.344 29.7884 73.8089 29.3038 74.4023 28.9478C74.9958 28.5917 75.6831 28.4137 76.4646 28.4137C77.236 28.4137 77.9185 28.5917 78.512 28.9478C79.1054 29.3038 79.5702 29.7884 79.9066 30.4017C80.2428 31.005 80.411 31.6826 80.411 32.4343C80.411 33.1959 80.2428 33.8783 79.9066 34.4816C79.5702 35.0849 79.1054 35.5647 78.512 35.9207C77.9185 36.2768 77.236 36.4548 76.4646 36.4548ZM76.4646 34.9861C76.88 34.9861 77.2657 34.8872 77.6218 34.6893C77.9779 34.4816 78.2646 34.1899 78.4823 33.814C78.7097 33.4283 78.8235 32.9684 78.8235 32.4343C78.8235 31.9002 78.7097 31.4452 78.4823 31.0693C78.2646 30.6836 77.9779 30.3918 77.6218 30.194C77.2657 29.9863 76.88 29.8824 76.4646 29.8824C76.0492 29.8824 75.6584 29.9863 75.2925 30.194C74.9364 30.3918 74.6446 30.6836 74.4172 31.0693C74.1995 31.4452 74.0908 31.9002 74.0908 32.4343C74.0908 32.9684 74.1995 33.4283 74.4172 33.814C74.6446 34.1899 74.9364 34.4816 75.2925 34.6893C75.6584 34.8872 76.0492 34.9861 76.4646 34.9861ZM85.4473 36.4548C84.666 36.4548 83.9785 36.2768 83.3851 35.9207C82.7917 35.5647 82.3268 35.0849 81.9905 34.4816C81.6542 33.8783 81.4861 33.1959 81.4861 32.4343C81.4861 31.6826 81.6542 31.005 81.9905 30.4017C82.3268 29.7884 82.7917 29.3038 83.3851 28.9478C83.9785 28.5917 84.666 28.4137 85.4473 28.4137C86.2188 28.4137 86.9013 28.5917 87.4949 28.9478C88.0883 29.3038 88.5535 29.7884 88.8895 30.4017C89.2255 31.005 89.3939 31.6826 89.3939 32.4343C89.3939 33.1959 89.2255 33.8783 88.8895 34.4816C88.5535 35.0849 88.0883 35.5647 87.4949 35.9207C86.9013 36.2768 86.2188 36.4548 85.4473 36.4548ZM85.4473 34.9861C85.8627 34.9861 86.2485 34.8872 86.6045 34.6893C86.9606 34.4816 87.2475 34.1899 87.4652 33.814C87.693 33.4283 87.8064 32.9684 87.8064 32.4343C87.8064 31.9002 87.693 31.4452 87.4652 31.0693C87.2475 30.6836 86.9606 30.3918 86.6045 30.194C86.2485 29.9863 85.8627 29.8824 85.4473 29.8824C85.0319 29.8824 84.6413 29.9863 84.2753 30.194C83.9192 30.3918 83.6275 30.6836 83.3999 31.0693C83.1824 31.4452 83.0735 31.9002 83.0735 32.4343C83.0735 32.9684 83.1824 33.4283 83.3999 33.814C83.6275 34.1899 83.9192 34.4816 84.2753 34.6893C84.6413 34.8872 85.0319 34.9861 85.4473 34.9861ZM94.282 39.6595C93.6187 39.6595 93.0453 39.5506 92.561 39.3331C92.0862 39.1253 91.7005 38.8533 91.4038 38.5171C91.107 38.1907 90.8941 37.8544 90.7658 37.5082L92.2494 36.8851C92.4074 37.2807 92.6596 37.6022 93.0061 37.8494C93.3621 38.1066 93.7871 38.2352 94.282 38.2352C94.974 38.2352 95.5177 38.0275 95.914 37.6121C96.3189 37.1967 96.5222 36.6082 96.5222 35.8466V35.1196H96.4332C96.1958 35.4757 95.8642 35.7625 95.4392 35.9801C95.0238 36.1878 94.549 36.2916 94.0149 36.2916C93.3717 36.2916 92.7835 36.1284 92.2494 35.8021C91.7153 35.4757 91.2851 35.0207 90.9587 34.4371C90.6323 33.8437 90.4691 33.1514 90.4691 32.3601C90.4691 31.5589 90.6323 30.8666 90.9587 30.283C91.2851 29.6896 91.7153 29.2297 92.2494 28.9033C92.7835 28.5769 93.3717 28.4137 94.0149 28.4137C94.549 28.4137 95.0238 28.5225 95.4392 28.7401C95.8642 28.9576 96.1958 29.2445 96.4332 29.6006H96.5222V28.651H98.0504V35.8169C98.0504 36.6379 97.8872 37.3352 97.5608 37.9088C97.244 38.4824 96.8041 38.9176 96.2403 39.2144C95.6766 39.5111 95.0238 39.6595 94.282 39.6595ZM94.2968 34.8377C94.6921 34.8377 95.0578 34.7437 95.3947 34.5558C95.7307 34.358 96.003 34.0761 96.2107 33.7102C96.4184 33.3343 96.5222 32.8843 96.5222 32.3601C96.5222 31.8161 96.4184 31.3611 96.2107 30.9951C96.003 30.6193 95.7307 30.3374 95.3947 30.1495C95.0578 29.9616 94.6921 29.8676 94.2968 29.8676C93.9006 29.8676 93.5297 29.9665 93.1841 30.1643C92.8472 30.3522 92.5758 30.6292 92.3681 30.9951C92.1604 31.3611 92.0566 31.8161 92.0566 32.3601C92.0566 32.8942 92.1604 33.3491 92.3681 33.725C92.5758 34.0909 92.8472 34.3679 93.1841 34.5558C93.5297 34.7437 93.9006 34.8377 94.2968 34.8377ZM99.9398 36.2175V25.5948H101.542V36.2175H99.9398ZM106.815 36.4548C106.073 36.4548 105.411 36.2818 104.827 35.9356C104.244 35.5894 103.784 35.1146 103.447 34.5113C103.121 33.908 102.958 33.2206 102.958 32.4491C102.958 31.7271 103.116 31.0595 103.432 30.4462C103.749 29.833 104.189 29.3434 104.753 28.9774C105.327 28.6016 105.984 28.4137 106.726 28.4137C107.508 28.4137 108.17 28.5818 108.714 28.9181C109.268 29.2544 109.689 29.7143 109.975 30.2979C110.262 30.8814 110.405 31.5391 110.405 32.2711C110.405 32.3799 110.401 32.4788 110.391 32.5678C110.391 32.6568 110.386 32.726 110.376 32.7755H104.53C104.61 33.5272 104.871 34.0909 105.317 34.4668C105.772 34.8427 106.286 35.0306 106.86 35.0306C107.374 35.0306 107.799 34.9169 108.135 34.6893C108.472 34.452 108.739 34.1602 108.937 33.814L110.257 34.452C109.931 35.0454 109.486 35.53 108.922 35.9059C108.358 36.2718 107.656 36.4548 106.815 36.4548ZM106.741 29.7786C106.207 29.7786 105.752 29.9418 105.376 30.2682C105.001 30.5946 104.748 31.0298 104.619 31.5738H108.818C108.799 31.3166 108.714 31.0495 108.566 30.7726C108.417 30.4957 108.19 30.2632 107.883 30.0753C107.586 29.8775 107.206 29.7786 106.741 29.7786ZM116.927 36.2175L114.079 25.5948H115.889L117.58 32.4936L117.758 33.4134H117.847L118.07 32.4936L120.206 25.5948H121.838L123.885 32.4936L124.108 33.3986H124.197L124.375 32.4936L126.066 25.5948H127.861L125.057 36.2175H123.336L121.304 29.1703L121.066 28.1763H120.977L120.725 29.1703L118.604 36.2175H116.927ZM130.841 36.4548C130.297 36.4548 129.812 36.351 129.387 36.1433C128.962 35.9257 128.63 35.624 128.393 35.2383C128.155 34.8525 128.037 34.4124 128.037 33.9179C128.037 33.3838 128.176 32.9288 128.452 32.5529C128.739 32.1672 129.12 31.8755 129.595 31.6776C130.069 31.4798 130.594 31.3809 131.167 31.3809C131.642 31.3809 132.057 31.4254 132.413 31.5144C132.779 31.6034 133.057 31.6974 133.244 31.7963V31.3957C133.244 30.9012 133.066 30.5056 132.71 30.2088C132.354 29.9121 131.894 29.7638 131.33 29.7638C130.945 29.7638 130.579 29.8528 130.233 30.0308C129.886 30.199 129.609 30.4314 129.402 30.7281L128.304 29.8824C128.63 29.4275 129.06 29.0714 129.595 28.8142C130.138 28.5472 130.732 28.4137 131.375 28.4137C132.473 28.4137 133.318 28.6857 133.912 29.2297C134.505 29.7638 134.802 30.5154 134.802 31.4847V36.2175H133.244V35.2828H133.155C132.957 35.5894 132.66 35.8614 132.265 36.0988C131.87 36.3362 131.395 36.4548 130.841 36.4548ZM131.123 35.1493C131.538 35.1493 131.904 35.0504 132.221 34.8525C132.537 34.6547 132.784 34.3976 132.962 34.0811C133.15 33.7547 133.244 33.4036 133.244 33.0277C133.016 32.8992 132.749 32.7953 132.443 32.7161C132.137 32.6271 131.81 32.5826 131.464 32.5826C130.811 32.5826 130.346 32.7161 130.069 32.9832C129.793 33.2404 129.654 33.5568 129.654 33.9327C129.654 34.2888 129.787 34.5805 130.055 34.808C130.322 35.0356 130.678 35.1493 131.123 35.1493ZM136.581 36.2175V25.5948H138.183V36.2175H136.581ZM140.087 36.2175V25.5948H141.69V36.2175H140.087ZM146.962 36.4548C146.221 36.4548 145.558 36.2818 144.974 35.9356C144.391 35.5894 143.932 35.1146 143.595 34.5113C143.268 33.908 143.105 33.2206 143.105 32.4491C143.105 31.7271 143.264 31.0595 143.58 30.4462C143.897 29.833 144.336 29.3434 144.9 28.9774C145.474 28.6016 146.132 28.4137 146.873 28.4137C147.655 28.4137 148.318 28.5818 148.861 28.9181C149.416 29.2544 149.836 29.7143 150.123 30.2979C150.41 30.8814 150.553 31.5391 150.553 32.2711C150.553 32.3799 150.548 32.4788 150.538 32.5678C150.538 32.6568 150.534 32.726 150.523 32.7755H144.678C144.757 33.5272 145.019 34.0909 145.464 34.4668C145.92 34.8427 146.434 35.0306 147.007 35.0306C147.522 35.0306 147.947 34.9169 148.283 34.6893C148.62 34.452 148.887 34.1602 149.084 33.814L150.404 34.452C150.078 35.0454 149.633 35.53 149.069 35.9059C148.505 36.2718 147.804 36.4548 146.962 36.4548ZM146.888 29.7786C146.354 29.7786 145.899 29.9418 145.523 30.2682C145.148 30.5946 144.896 31.0298 144.767 31.5738H148.965C148.946 31.3166 148.861 31.0495 148.713 30.7726C148.565 30.4957 148.338 30.2632 148.031 30.0753C147.734 29.8775 147.353 29.7786 146.888 29.7786ZM152.624 34.0217V30.0456H151.303V28.651H152.624V26.5146H154.226V28.651H156.081V30.0456H154.226V33.6805C154.226 34.0564 154.3 34.3431 154.449 34.541C154.607 34.7388 154.868 34.8377 155.235 34.8377C155.423 34.8377 155.581 34.813 155.71 34.7635C155.848 34.714 155.986 34.6448 156.125 34.5558V36.1136C155.957 36.1828 155.779 36.2373 155.591 36.2768C155.402 36.3163 155.18 36.3362 154.923 36.3362C154.221 36.3362 153.662 36.1334 153.247 35.7279C152.831 35.3125 152.624 34.7437 152.624 34.0217Z" fill="white"/>
<path d="M149.672 0.436523H24.0008C10.9871 0.436523 0.4375 10.9862 0.4375 23.9998C0.4375 37.0134 10.9871 47.563 24.0008 47.563H149.672C162.685 47.563 173.235 37.0134 173.235 23.9998C173.235 10.9862 162.685 0.436523 149.672 0.436523Z" stroke="#747775"/>
</g>
<defs>
<linearGradient id="paint0_linear_568_726" x1="32.5397" y1="29.7109" x2="16.3927" y2="48.6295" gradientUnits="userSpaceOnUse">
<stop stop-color="#4285F4"/>
<stop offset="1" stop-color="#1B74E8"/>
</linearGradient>
<clipPath id="clip0_568_726">
<rect width="173.67" height="47.9992" fill="white"/>
</clipPath>
</defs>
</svg>
