<svg width="174" height="26" viewBox="0 0 174 26" fill="none" xmlns="http://www.w3.org/2000/svg">
<g clip-path="url(#clip0_568_141)">
<path d="M160.864 0.255859H12.8092C5.87725 0.255859 0.257812 5.8753 0.257812 12.8072C0.257812 19.7392 5.87725 25.3586 12.8092 25.3586H160.864C167.796 25.3586 173.416 19.7392 173.416 12.8072C173.416 5.8753 167.796 0.255859 160.864 0.255859Z" fill="#1F1F1F"/>
<path d="M26.1268 11.2705H10.7578V8.70897C10.7578 7.31843 11.8858 6.14746 13.2253 6.14746H23.6593C24.9989 6.14746 26.1268 7.31843 26.1268 8.70897V11.2705Z" fill="#34A853"/>
<path d="M26.1268 13.3476H10.7578V10.7861C10.7578 9.39558 11.8858 8.22461 13.2253 8.22461H23.6593C24.9989 8.22461 26.1268 9.39558 26.1268 10.7861V13.3476Z" fill="#FBBC04"/>
<path d="M26.1268 15.4951H10.7578V12.9336C10.7578 11.543 11.8858 10.3721 13.2253 10.3721H23.6593C24.9989 10.3721 26.1268 11.543 26.1268 12.9336V15.4951Z" fill="#EA4335"/>
<path d="M10.7578 11.9242L20.5126 14.1802C21.6354 14.4622 22.8986 14.1802 23.811 13.4752L26.1268 11.7832V17.0707C26.1268 18.4102 25.004 19.4677 23.6706 19.4677H13.214C11.8807 19.4677 10.7578 18.4102 10.7578 17.0707V11.9242Z" fill="url(#paint0_linear_568_141)"/>
<path d="M33.1055 16.3937V9.05751H35.4518C36.2237 9.05751 36.8862 9.21463 37.4395 9.52882C37.9996 9.8362 38.43 10.2665 38.7305 10.8198C39.0379 11.3731 39.1916 12.0084 39.1916 12.7256C39.1916 13.4496 39.0379 14.0883 38.7305 14.6416C38.43 15.1881 37.9996 15.6184 37.4395 15.9326C36.8862 16.24 36.2237 16.3937 35.4518 16.3937H33.1055ZM34.2325 15.3281H35.4211C36.2544 15.3281 36.8999 15.0958 37.3576 14.6313C37.8221 14.1668 38.0543 13.5316 38.0543 12.7256C38.0543 11.9196 37.8221 11.2843 37.3576 10.8198C36.8999 10.3553 36.2544 10.1231 35.4211 10.1231H34.2325V15.3281ZM42.6043 16.5576C42.0647 16.5576 41.59 16.4346 41.1801 16.1887C40.7703 15.9428 40.4493 15.6115 40.217 15.1949C39.9847 14.7782 39.8687 14.3069 39.8687 13.7809C39.8687 13.2618 39.9847 12.7939 40.217 12.3772C40.4493 11.9537 40.7703 11.619 41.1801 11.3731C41.59 11.1272 42.0647 11.0042 42.6043 11.0042C43.1371 11.0042 43.6085 11.1272 44.0183 11.3731C44.4281 11.619 44.7491 11.9537 44.9814 12.3772C45.2136 12.7939 45.3298 13.2618 45.3298 13.7809C45.3298 14.3069 45.2136 14.7782 44.9814 15.1949C44.7491 15.6115 44.4281 15.9428 44.0183 16.1887C43.6085 16.4346 43.1371 16.5576 42.6043 16.5576ZM42.6043 15.5432C42.8912 15.5432 43.1576 15.4749 43.4035 15.3383C43.6494 15.1949 43.8475 14.9934 43.9978 14.7338C44.1549 14.4674 44.2335 14.1498 44.2335 13.7809C44.2335 13.4121 44.1549 13.0979 43.9978 12.8383C43.8475 12.5719 43.6494 12.3704 43.4035 12.2338C43.1576 12.0903 42.8912 12.0186 42.6043 12.0186C42.3175 12.0186 42.0476 12.0903 41.7949 12.2338C41.549 12.3704 41.3475 12.5719 41.1904 12.8383C41.0401 13.0979 40.965 13.4121 40.965 13.7809C40.965 14.1498 41.0401 14.4674 41.1904 14.7338C41.3475 14.9934 41.549 15.1949 41.7949 15.3383C42.0476 15.4749 42.3175 15.5432 42.6043 15.5432ZM48.5825 16.5576C48.1112 16.5576 47.6843 16.4415 47.3018 16.2092C46.9261 15.9701 46.6255 15.6423 46.4001 15.2256C46.1816 14.8021 46.0723 14.3205 46.0723 13.7809C46.0723 13.2413 46.1816 12.7631 46.4001 12.3465C46.6255 11.9298 46.9261 11.602 47.3018 11.3629C47.6843 11.1238 48.1112 11.0042 48.5825 11.0042C48.9856 11.0042 49.3305 11.093 49.6174 11.2706C49.9111 11.4483 50.1263 11.6497 50.2629 11.8752H50.3244L50.2629 11.1477V9.05751H51.3593V16.3937H50.3244V15.6969H50.2629C50.1263 15.9223 49.9111 16.1238 49.6174 16.3014C49.3305 16.4722 48.9856 16.5576 48.5825 16.5576ZM48.7465 15.5432C49.0197 15.5432 49.2759 15.4715 49.5149 15.3281C49.7608 15.1846 49.9555 14.9831 50.099 14.7236C50.2493 14.4572 50.3244 14.143 50.3244 13.7809C50.3244 13.4189 50.2493 13.1081 50.099 12.8485C49.9555 12.5821 49.7608 12.3772 49.5149 12.2338C49.2759 12.0903 49.0197 12.0186 48.7465 12.0186C48.4733 12.0186 48.2171 12.0903 47.978 12.2338C47.739 12.3772 47.5443 12.5821 47.394 12.8485C47.2437 13.1081 47.1686 13.4189 47.1686 13.7809C47.1686 14.143 47.2437 14.4572 47.394 14.7236C47.5443 14.9831 47.739 15.1846 47.978 15.3281C48.2171 15.4715 48.4733 15.5432 48.7465 15.5432ZM54.2522 16.5576C53.8762 16.5576 53.5417 16.4859 53.2481 16.3424C52.9541 16.1922 52.7256 15.9838 52.5616 15.7174C52.3977 15.451 52.3157 15.1471 52.3157 14.8055C52.3157 14.4367 52.411 14.1225 52.6026 13.8629C52.8004 13.5965 53.0637 13.395 53.3916 13.2584C53.7194 13.1217 54.0811 13.0535 54.4776 13.0535C54.8055 13.0535 55.0924 13.0842 55.3383 13.1457C55.5909 13.2071 55.782 13.2721 55.9121 13.3403V13.0637C55.9121 12.7221 55.7891 12.4489 55.5432 12.244C55.2973 12.0391 54.9797 11.9366 54.5903 11.9366C54.3239 11.9366 54.0709 11.9981 53.8321 12.1211C53.5929 12.2372 53.4018 12.3977 53.2584 12.6026L52.5002 12.0186C52.7256 11.7044 53.0227 11.4585 53.3916 11.2809C53.7671 11.0965 54.1769 11.0042 54.6211 11.0042C55.3793 11.0042 55.9633 11.1921 56.3732 11.5678C56.783 11.9366 56.9879 12.4558 56.9879 13.1252V16.3937H55.9121V15.7482H55.8506C55.7138 15.9599 55.5089 16.1478 55.2358 16.3117C54.9623 16.4756 54.6344 16.5576 54.2522 16.5576ZM54.4469 15.6559C54.7338 15.6559 54.9864 15.5877 55.2051 15.451C55.4233 15.3144 55.5945 15.1368 55.7174 14.9182C55.847 14.6928 55.9121 14.4503 55.9121 14.1908C55.7548 14.102 55.5704 14.0303 55.3588 13.9756C55.1467 13.9141 54.9213 13.8834 54.6826 13.8834C54.2317 13.8834 53.9105 13.9756 53.7194 14.16C53.5278 14.3376 53.4325 14.5562 53.4325 14.8158C53.4325 15.0617 53.5248 15.2632 53.7092 15.4203C53.8936 15.5774 54.1395 15.6559 54.4469 15.6559ZM58.8409 10.3997C58.636 10.3997 58.4587 10.328 58.3081 10.1846C58.1647 10.0343 58.0929 9.8567 58.0929 9.65178C58.0929 9.44686 58.1647 9.27267 58.3081 9.12923C58.4587 8.98578 58.636 8.91406 58.8409 8.91406C59.0458 8.91406 59.22 8.98578 59.3635 9.12923C59.5141 9.27267 59.5889 9.44686 59.5889 9.65178C59.5889 9.8567 59.5141 10.0343 59.3635 10.1846C59.22 10.328 59.0458 10.3997 58.8409 10.3997ZM57.847 18.7093C57.6355 18.7093 57.4444 18.6853 57.2733 18.6375V17.5719C57.3419 17.6129 57.4203 17.6437 57.5089 17.6642C57.5909 17.6915 57.6729 17.7051 57.7548 17.7051C57.9531 17.7051 58.0899 17.6437 58.1647 17.5207C58.2466 17.4046 58.2876 17.2338 58.2876 17.0084V11.1682H59.3942V17.0187C59.3942 17.6197 59.2477 18.0501 58.9536 18.3097C58.6601 18.5761 58.2912 18.7093 57.847 18.7093ZM61.3204 14.8772V12.1313H60.4085V11.1682H61.3204V9.69276H62.427V11.1682H63.7078V12.1313H62.427V14.6416C62.427 14.9012 62.4782 15.0992 62.5807 15.2359C62.6903 15.3725 62.8712 15.4408 63.1237 15.4408C63.2539 15.4408 63.363 15.4237 63.4516 15.3895C63.5474 15.3554 63.6432 15.3076 63.7385 15.2461V16.3219C63.6227 16.3697 63.4998 16.4073 63.3696 16.4346C63.24 16.4619 63.0863 16.4756 62.9086 16.4756C62.4239 16.4756 62.0377 16.3356 61.7508 16.0555C61.4639 15.7686 61.3204 15.3759 61.3204 14.8772ZM66.9568 16.5576C66.4445 16.5576 65.987 16.4381 65.5838 16.199C65.1811 15.9599 64.8635 15.632 64.6309 15.2154C64.4055 14.7987 64.2928 14.324 64.2928 13.7912C64.2928 13.2925 64.4024 12.8315 64.6207 12.408C64.8394 11.9844 65.1432 11.6463 65.5326 11.3936C65.9291 11.134 66.383 11.0042 66.8953 11.0042C67.4353 11.0042 67.8928 11.1204 68.2683 11.3526C68.651 11.5848 68.9414 11.9025 69.1392 12.3055C69.3374 12.7085 69.4363 13.1627 69.4363 13.6682C69.4363 13.7434 69.4332 13.8117 69.4261 13.8731C69.4261 13.9346 69.423 13.9824 69.4158 14.0166H65.3789C65.4337 14.5357 65.6145 14.925 65.9219 15.1846C66.2365 15.4442 66.5915 15.574 66.9875 15.574C67.3431 15.574 67.6366 15.4954 67.8687 15.3383C68.1013 15.1744 68.2857 14.9729 68.422 14.7338L69.3339 15.1744C69.1084 15.5842 68.8011 15.9189 68.4117 16.1785C68.0224 16.4312 67.5377 16.5576 66.9568 16.5576ZM66.9055 11.9469C66.5367 11.9469 66.2226 12.0596 65.9629 12.285C65.7037 12.5104 65.5295 12.811 65.4404 13.1867H68.34C68.3267 13.009 68.2683 12.8246 68.1658 12.6334C68.0633 12.4421 67.9066 12.2816 67.6945 12.1518C67.4896 12.0152 67.2268 11.9469 66.9055 11.9469ZM74.7499 16.5576C74.108 16.5576 73.6228 16.3663 73.295 15.9838C72.9743 15.5945 72.8134 15.0685 72.8134 14.4059V11.1682H73.92V14.2522C73.92 14.6962 74.0224 15.0241 74.2274 15.2359C74.4394 15.4408 74.7023 15.5432 75.0163 15.5432C75.2965 15.5432 75.5388 15.4715 75.7438 15.3281C75.9559 15.1778 76.1162 14.9865 76.2253 14.7543C76.3416 14.5152 76.3995 14.2557 76.3995 13.9756V11.1682H77.4958V16.3937H76.461V15.6867H76.3995C76.2494 15.9326 76.024 16.1409 75.7233 16.3117C75.4297 16.4756 75.1054 16.5576 74.7499 16.5576Z" fill="white"/>
<path d="M85.2485 16.5575C84.7224 16.5575 84.2275 16.4619 83.7628 16.2707C83.3054 16.0794 82.8986 15.813 82.5436 15.4715C82.1885 15.1231 81.9083 14.7167 81.7034 14.2522C81.5051 13.7809 81.4062 13.272 81.4062 12.7255C81.4062 12.1791 81.5051 11.6736 81.7034 11.2091C81.9083 10.7378 82.185 10.3314 82.5333 9.98985C82.8883 9.64148 83.2982 9.37165 83.7628 9.18041C84.2275 8.98917 84.7224 8.89352 85.2485 8.89352C85.8085 8.89352 86.3243 8.99255 86.7957 9.19066C87.2736 9.38876 87.6732 9.66541 87.9944 10.0206L87.2157 10.789C86.9765 10.5226 86.6896 10.3177 86.3551 10.1743C86.0272 10.0308 85.6583 9.95911 85.2485 9.95911C84.7634 9.95911 84.3161 10.0752 83.9063 10.3075C83.4964 10.5329 83.165 10.8539 82.9124 11.2706C82.6665 11.6804 82.5436 12.1654 82.5436 12.7255C82.5436 13.2856 82.6701 13.7741 82.9227 14.1907C83.1752 14.6006 83.5067 14.9216 83.9165 15.1538C84.3264 15.3793 84.7736 15.492 85.2588 15.492C85.7029 15.492 86.1056 15.41 86.4678 15.2461C86.83 15.0753 87.1199 14.8362 87.3387 14.5288C87.5641 14.2215 87.7009 13.8526 87.7485 13.4223H85.2383V12.4284H88.8039C88.8449 12.6128 88.8654 12.8075 88.8654 13.0124V13.0227C88.8654 13.7331 88.7081 14.3546 88.394 14.8874C88.0867 15.4134 87.6599 15.8233 87.1133 16.117C86.5667 16.4107 85.9452 16.5575 85.2485 16.5575ZM92.1646 16.5575C91.6251 16.5575 91.1502 16.4346 90.7404 16.1887C90.3305 15.9428 90.0093 15.6115 89.7773 15.1948C89.5452 14.7782 89.4289 14.3069 89.4289 13.7809C89.4289 13.2618 89.5452 12.7938 89.7773 12.3772C90.0093 11.9536 90.3305 11.619 90.7404 11.3731C91.1502 11.1272 91.6251 11.0042 92.1646 11.0042C92.6974 11.0042 93.1687 11.1272 93.5785 11.3731C93.9884 11.619 94.3096 11.9536 94.5416 12.3772C94.7737 12.7938 94.89 13.2618 94.89 13.7809C94.89 14.3069 94.7737 14.7782 94.5416 15.1948C94.3096 15.6115 93.9884 15.9428 93.5785 16.1887C93.1687 16.4346 92.6974 16.5575 92.1646 16.5575ZM92.1646 15.5432C92.4515 15.5432 92.7179 15.4749 92.9638 15.3383C93.2097 15.1948 93.4079 14.9933 93.558 14.7338C93.7153 14.4674 93.7937 14.1497 93.7937 13.7809C93.7937 13.412 93.7153 13.0978 93.558 12.8382C93.4079 12.5718 93.2097 12.3704 92.9638 12.2337C92.7179 12.0903 92.4515 12.0186 92.1646 12.0186C91.8777 12.0186 91.6077 12.0903 91.3551 12.2337C91.1092 12.3704 90.9079 12.5718 90.7506 12.8382C90.6005 13.0978 90.5252 13.412 90.5252 13.7809C90.5252 14.1497 90.6005 14.4674 90.7506 14.7338C90.9079 14.9933 91.1092 15.1948 91.3551 15.3383C91.6077 15.4749 91.8777 15.5432 92.1646 15.5432ZM98.368 16.5575C97.8286 16.5575 97.3537 16.4346 96.9438 16.1887C96.534 15.9428 96.2133 15.6115 95.9807 15.1948C95.7486 14.7782 95.6323 14.3069 95.6323 13.7809C95.6323 13.2618 95.7486 12.7938 95.9807 12.3772C96.2133 11.9536 96.534 11.619 96.9438 11.3731C97.3537 11.1272 97.8286 11.0042 98.368 11.0042C98.9008 11.0042 99.3721 11.1272 99.782 11.3731C100.192 11.619 100.513 11.9536 100.745 12.3772C100.978 12.7938 101.093 13.2618 101.093 13.7809C101.093 14.3069 100.978 14.7782 100.745 15.1948C100.513 15.6115 100.192 15.9428 99.782 16.1887C99.3721 16.4346 98.9008 16.5575 98.368 16.5575ZM98.368 15.5432C98.6549 15.5432 98.9213 15.4749 99.1672 15.3383C99.4131 15.1948 99.6114 14.9933 99.7615 14.7338C99.9188 14.4674 99.9971 14.1497 99.9971 13.7809C99.9971 13.412 99.9188 13.0978 99.7615 12.8382C99.6114 12.5718 99.4131 12.3704 99.1672 12.2337C98.9213 12.0903 98.6549 12.0186 98.368 12.0186C98.0811 12.0186 97.8117 12.0903 97.5586 12.2337C97.3127 12.3704 97.1113 12.5718 96.9541 12.8382C96.804 13.0978 96.7287 13.412 96.7287 13.7809C96.7287 14.1497 96.804 14.4674 96.9541 14.7338C97.1113 14.9933 97.3127 15.1948 97.5586 15.3383C97.8117 15.4749 98.0811 15.5432 98.368 15.5432ZM104.47 18.7707C104.012 18.7707 103.616 18.6955 103.281 18.5453C102.953 18.4018 102.687 18.214 102.482 17.9817C102.277 17.7563 102.13 17.5241 102.041 17.285L103.066 16.8547C103.175 17.1279 103.349 17.3499 103.588 17.5207C103.834 17.6983 104.128 17.7871 104.47 17.7871C104.948 17.7871 105.323 17.6436 105.597 17.3567C105.876 17.0698 106.017 16.6634 106.017 16.1375V15.6354H105.955C105.791 15.8813 105.562 16.0794 105.269 16.2297C104.982 16.3731 104.654 16.4448 104.285 16.4448C103.841 16.4448 103.435 16.3321 103.066 16.1067C102.697 15.8813 102.4 15.5671 102.174 15.1641C101.949 14.7542 101.836 14.2761 101.836 13.7296C101.836 13.1764 101.949 12.6982 102.174 12.2952C102.4 11.8854 102.697 11.5677 103.066 11.3423C103.435 11.1169 103.841 11.0042 104.285 11.0042C104.654 11.0042 104.982 11.0794 105.269 11.2296C105.562 11.3799 105.791 11.578 105.955 11.8239H106.017V11.1681H107.072V16.117C107.072 16.6839 106.959 17.1655 106.734 17.5617C106.515 17.9578 106.211 18.2584 105.822 18.4633C105.433 18.6682 104.982 18.7707 104.47 18.7707ZM104.48 15.4407C104.753 15.4407 105.005 15.3758 105.238 15.2461C105.47 15.1094 105.658 14.9147 105.802 14.662C105.945 14.4024 106.017 14.0917 106.017 13.7296C106.017 13.354 105.945 13.0397 105.802 12.787C105.658 12.5274 105.47 12.3328 105.238 12.203C105.005 12.0732 104.753 12.0083 104.48 12.0083C104.206 12.0083 103.95 12.0766 103.711 12.2132C103.479 12.343 103.291 12.5343 103.148 12.787C103.004 13.0397 102.933 13.354 102.933 13.7296C102.933 14.0985 103.004 14.4127 103.148 14.6723C103.291 14.925 103.479 15.1163 103.711 15.2461C103.95 15.3758 104.206 15.4407 104.48 15.4407ZM108.377 16.3936V9.05746H109.483V16.3936H108.377ZM113.125 16.5575C112.613 16.5575 112.155 16.438 111.752 16.1989C111.349 15.9598 111.032 15.632 110.8 15.2153C110.574 14.7987 110.461 14.3239 110.461 13.7911C110.461 13.2925 110.571 12.8314 110.789 12.4079C111.008 11.9844 111.312 11.6463 111.701 11.3936C112.097 11.134 112.552 11.0042 113.064 11.0042C113.603 11.0042 114.061 11.1203 114.437 11.3526C114.819 11.5848 115.109 11.9024 115.308 12.3054C115.506 12.7085 115.605 13.1627 115.605 13.6682C115.605 13.7433 115.601 13.8116 115.595 13.8731C115.595 13.9346 115.591 13.9824 115.584 14.0165H111.547C111.602 14.5356 111.783 14.925 112.091 15.1846C112.405 15.4442 112.76 15.5739 113.156 15.5739C113.511 15.5739 113.805 15.4954 114.037 15.3383C114.269 15.1743 114.454 14.9728 114.591 14.7338L115.502 15.1743C115.277 15.5842 114.97 15.9189 114.58 16.1784C114.191 16.4312 113.706 16.5575 113.125 16.5575ZM113.074 11.9468C112.705 11.9468 112.391 12.0595 112.131 12.285C111.872 12.5104 111.698 12.8109 111.609 13.1866H114.509C114.495 13.009 114.437 12.8246 114.334 12.6333C114.232 12.4421 114.075 12.2815 113.863 12.1518C113.658 12.0151 113.395 11.9468 113.074 11.9468ZM119.207 16.3936V9.05746H120.539L123.859 14.4469H123.92L123.859 13.0329V9.05746H124.975V16.3936H123.807L120.324 10.7276H120.262L120.324 12.1415V16.3936H119.207ZM128.806 16.5575C128.266 16.5575 127.792 16.4346 127.382 16.1887C126.972 15.9428 126.651 15.6115 126.419 15.1948C126.186 14.7782 126.07 14.3069 126.07 13.7809C126.07 13.2618 126.186 12.7938 126.419 12.3772C126.651 11.9536 126.972 11.619 127.382 11.3731C127.792 11.1272 128.266 11.0042 128.806 11.0042C129.339 11.0042 129.81 11.1272 130.22 11.3731C130.63 11.619 130.951 11.9536 131.183 12.3772C131.416 12.7938 131.531 13.2618 131.531 13.7809C131.531 14.3069 131.416 14.7782 131.183 15.1948C130.951 15.6115 130.63 15.9428 130.22 16.1887C129.81 16.4346 129.339 16.5575 128.806 16.5575ZM128.806 15.5432C129.093 15.5432 129.359 15.4749 129.605 15.3383C129.851 15.1948 130.049 14.9933 130.199 14.7338C130.357 14.4674 130.435 14.1497 130.435 13.7809C130.435 13.412 130.357 13.0978 130.199 12.8382C130.049 12.5718 129.851 12.3704 129.605 12.2337C129.359 12.0903 129.093 12.0186 128.806 12.0186C128.519 12.0186 128.25 12.0903 127.996 12.2337C127.751 12.3704 127.549 12.5718 127.392 12.8382C127.242 13.0978 127.167 13.412 127.167 13.7809C127.167 14.1497 127.242 14.4674 127.392 14.7338C127.549 14.9933 127.751 15.1948 127.996 15.3383C128.25 15.4749 128.519 15.5432 128.806 15.5432ZM133.989 16.3936L131.827 11.1681H133.056L134.522 14.9694H134.573L136.069 11.1681H137.278L135.095 16.3936H133.989ZM140.262 16.5575C139.736 16.5575 139.271 16.438 138.868 16.1989C138.465 15.9598 138.148 15.632 137.916 15.2153C137.683 14.7918 137.567 14.3137 137.567 13.7809C137.567 13.2481 137.683 12.7733 137.916 12.3567C138.148 11.9332 138.465 11.6019 138.868 11.3628C139.271 11.1237 139.736 11.0042 140.262 11.0042C140.842 11.0042 141.331 11.134 141.727 11.3936C142.13 11.6531 142.417 12.0049 142.588 12.4489L141.584 12.8587C141.344 12.2986 140.897 12.0186 140.241 12.0186C139.955 12.0186 139.691 12.0937 139.452 12.244C139.213 12.3874 139.022 12.5923 138.879 12.8587C138.735 13.1183 138.664 13.4257 138.664 13.7809C138.664 14.1361 138.735 14.4469 138.879 14.7133C139.022 14.9797 139.213 15.1846 139.452 15.328C139.691 15.4715 139.955 15.5432 140.241 15.5432C140.576 15.5432 140.859 15.468 141.092 15.3178C141.324 15.1607 141.505 14.9489 141.635 14.6825L142.619 15.1129C142.434 15.5295 142.14 15.8745 141.737 16.1477C141.334 16.4209 140.842 16.5575 140.262 16.5575ZM139.78 10.164L138.684 8.92426V8.85254H139.739L140.211 9.48779H140.313L140.795 8.85254H141.86V8.92426L140.754 10.164H139.78ZM145.156 16.5575C144.781 16.5575 144.446 16.4858 144.152 16.3424C143.859 16.1921 143.63 15.9838 143.466 15.7174C143.302 15.451 143.22 15.147 143.22 14.8055C143.22 14.4366 143.316 14.1224 143.507 13.8628C143.705 13.5964 143.968 13.395 144.296 13.2583C144.624 13.1217 144.986 13.0534 145.382 13.0534C145.71 13.0534 145.997 13.0841 146.243 13.1456C146.495 13.2071 146.687 13.272 146.816 13.3403V13.0637C146.816 12.7221 146.693 12.4489 146.447 12.244C146.202 12.039 145.884 11.9366 145.495 11.9366C145.228 11.9366 144.976 11.9981 144.736 12.121C144.497 12.2372 144.306 12.3977 144.163 12.6026L143.404 12.0186C143.63 11.7044 143.927 11.4585 144.296 11.2808C144.671 11.0964 145.081 11.0042 145.525 11.0042C146.284 11.0042 146.868 11.1921 147.277 11.5677C147.687 11.9366 147.892 12.4557 147.892 13.1251V16.3936H146.816V15.7481H146.755C146.618 15.9598 146.413 16.1477 146.14 16.3116C145.867 16.4756 145.539 16.5575 145.156 16.5575ZM145.351 15.6559C145.638 15.6559 145.891 15.5876 146.109 15.451C146.328 15.3143 146.499 15.1368 146.622 14.9182C146.751 14.6928 146.816 14.4503 146.816 14.1907C146.659 14.1019 146.475 14.0302 146.263 13.9755C146.051 13.9141 145.826 13.8833 145.587 13.8833C145.136 13.8833 144.815 13.9755 144.624 14.16C144.433 14.3376 144.337 14.5561 144.337 14.8157C144.337 15.0616 144.429 15.2631 144.613 15.4202C144.798 15.5774 145.044 15.6559 145.351 15.6559ZM149.11 16.3936V11.1681H150.155V11.8854H150.217C150.367 11.6326 150.589 11.4243 150.883 11.2604C151.184 11.0896 151.512 11.0042 151.867 11.0042C152.508 11.0042 152.99 11.1954 153.311 11.578C153.632 11.9605 153.793 12.466 153.793 13.0944V16.3936H152.697V13.2378C152.697 12.8143 152.59 12.5069 152.379 12.3157C152.167 12.1176 151.891 12.0186 151.549 12.0186C151.283 12.0186 151.05 12.0937 150.852 12.244C150.654 12.3874 150.497 12.5787 150.381 12.8177C150.272 13.0568 150.217 13.313 150.217 13.5862V16.3936H149.11ZM155.689 10.3997C155.484 10.3997 155.307 10.328 155.156 10.1845C155.013 10.0343 154.941 9.85665 154.941 9.65173C154.941 9.44681 155.013 9.27263 155.156 9.12918C155.307 8.98574 155.484 8.91401 155.689 8.91401C155.894 8.91401 156.068 8.98574 156.211 9.12918C156.362 9.27263 156.437 9.44681 156.437 9.65173C156.437 9.85665 156.362 10.0343 156.211 10.1845C156.068 10.328 155.894 10.3997 155.689 10.3997ZM155.136 16.3936V11.1681H156.242V16.3936H155.136ZM157.615 16.3936V9.05746H158.722V13.3813L160.935 11.1681H162.308V11.2296L160.289 13.2276L162.38 16.3321V16.3936H161.068L159.511 13.996L158.722 14.7747V16.3936H157.615Z" fill="white"/>
<path d="M160.864 0.255859H12.8092C5.87725 0.255859 0.257812 5.8753 0.257812 12.8072C0.257812 19.7392 5.87725 25.3586 12.8092 25.3586H160.864C167.796 25.3586 173.416 19.7392 173.416 12.8072C173.416 5.8753 167.796 0.255859 160.864 0.255859Z" stroke="#747775"/>
</g>
<defs>
<linearGradient id="paint0_linear_568_141" x1="17.7099" y1="15.7722" x2="9.59535" y2="25.0586" gradientUnits="userSpaceOnUse">
<stop stop-color="#4285F4"/>
<stop offset="1" stop-color="#1B74E8"/>
</linearGradient>
<clipPath id="clip0_568_141">
<rect width="173.67" height="25.615" fill="white"/>
</clipPath>
</defs>
</svg>
