<svg width="174" height="29" viewBox="0 0 174 29" fill="none" xmlns="http://www.w3.org/2000/svg">
<g clip-path="url(#clip0_568_825)">
<path d="M159.339 0.286133H14.3278C6.57225 0.286133 0.285156 6.57323 0.285156 14.3288C0.285156 22.0843 6.57225 28.3714 14.3278 28.3714H159.339C167.095 28.3714 173.382 22.0843 173.382 14.3288C173.382 6.57323 167.095 0.286133 159.339 0.286133Z" fill="#1F1F1F"/>
<path d="M29.2302 12.6096H12.0352V9.74377C12.0352 8.18802 13.2972 6.87793 14.7958 6.87793H26.4695C27.9682 6.87793 29.2302 8.18802 29.2302 9.74377V12.6096Z" fill="#34A853"/>
<path d="M29.2302 14.9329H12.0352V12.067C12.0352 10.5113 13.2972 9.20117 14.7958 9.20117H26.4695C27.9682 9.20117 29.2302 10.5113 29.2302 12.067V14.9329Z" fill="#FBBC04"/>
<path d="M29.2302 17.3362H12.0352V14.4703C12.0352 12.9146 13.2972 11.6045 14.7958 11.6045H26.4695C27.9682 11.6045 29.2302 12.9146 29.2302 14.4703V17.3362Z" fill="#EA4335"/>
<path d="M12.0352 13.3404L22.9489 15.8644C24.2052 16.1799 25.6184 15.8644 26.6392 15.0757L29.2302 13.1826V19.0983C29.2302 20.597 27.9739 21.7801 26.4822 21.7801H14.7832C13.2914 21.7801 12.0352 20.597 12.0352 19.0983V13.3404Z" fill="url(#paint0_linear_568_825)"/>
<path d="M37.0391 18.3418V10.134H38.3V17.1496H41.8307V18.3418H37.0391ZM44.7456 18.5252C44.3252 18.5252 43.9508 18.445 43.6222 18.2845C43.2935 18.1164 43.0376 17.8833 42.8541 17.5852C42.6707 17.2872 42.579 16.9471 42.579 16.565C42.579 16.1523 42.686 15.8008 42.9 15.5103C43.1216 15.2123 43.4158 14.9869 43.7827 14.834C44.1495 14.6811 44.5545 14.6047 44.9978 14.6047C45.3646 14.6047 45.6856 14.6391 45.9607 14.7079C46.2435 14.7767 46.4574 14.8493 46.6027 14.9257V14.6162C46.6027 14.2341 46.4651 13.9284 46.19 13.6991C45.9149 13.4699 45.5595 13.3552 45.1239 13.3552C44.8258 13.3552 44.543 13.424 44.2756 13.5616C44.0081 13.6915 43.7941 13.8711 43.6337 14.1004L42.7854 13.4469C43.0376 13.0954 43.37 12.8203 43.7827 12.6216C44.203 12.4152 44.6615 12.3121 45.1583 12.3121C46.0066 12.3121 46.66 12.5223 47.1185 12.9426C47.577 13.3552 47.8063 13.936 47.8063 14.685V18.3418H46.6027V17.6196H46.5339C46.381 17.8565 46.1517 18.0667 45.8461 18.2501C45.5403 18.4335 45.1735 18.5252 44.7456 18.5252ZM44.9634 17.5164C45.2844 17.5164 45.5671 17.44 45.8117 17.2872C46.0562 17.1343 46.2473 16.9356 46.3849 16.6911C46.53 16.4389 46.6027 16.1676 46.6027 15.8772C46.4269 15.7778 46.2205 15.6976 45.9836 15.6364C45.7467 15.5677 45.4945 15.5333 45.2271 15.5333C44.7227 15.5333 44.3635 15.6364 44.1495 15.8428C43.9355 16.0415 43.8285 16.286 43.8285 16.5764C43.8285 16.8516 43.9317 17.077 44.138 17.2528C44.3444 17.4286 44.6195 17.5164 44.9634 17.5164ZM46.2244 11.3033C46.0333 11.3033 45.8652 11.2345 45.72 11.097C45.5824 10.9518 45.5136 10.7798 45.5136 10.5811C45.5136 10.3824 45.5824 10.2181 45.72 10.0882C45.8652 9.95062 46.0333 9.88184 46.2244 9.88184C46.4307 9.88184 46.6027 9.95062 46.7402 10.0882C46.8778 10.2181 46.9466 10.3824 46.9466 10.5811C46.9466 10.7798 46.8778 10.9518 46.7402 11.097C46.6027 11.2345 46.4307 11.3033 46.2244 11.3033ZM44.1954 11.3033C44.0043 11.3033 43.8362 11.2345 43.691 11.097C43.5534 10.9518 43.4846 10.7798 43.4846 10.5811C43.4846 10.3824 43.5534 10.2181 43.691 10.0882C43.8362 9.95062 44.0043 9.88184 44.1954 9.88184C44.4017 9.88184 44.5698 9.95062 44.6997 10.0882C44.8373 10.2181 44.9061 10.3824 44.9061 10.5811C44.9061 10.7798 44.8373 10.9518 44.6997 11.097C44.5698 11.2345 44.4017 11.3033 44.1954 11.3033ZM51.7499 21.0013C51.2378 21.0013 50.7946 20.9172 50.4201 20.7491C50.0533 20.5886 49.7553 20.3784 49.526 20.1186C49.2967 19.8664 49.1324 19.6066 49.0331 19.3391L50.1794 18.8577C50.3017 19.1633 50.4965 19.4117 50.764 19.6028C51.0392 19.8015 51.3678 19.9008 51.7499 19.9008C52.2848 19.9008 52.7051 19.7403 53.0109 19.4194C53.3241 19.0984 53.4809 18.6437 53.4809 18.0552V17.4935H53.4121C53.2287 17.7686 52.9726 17.9903 52.644 18.1584C52.3231 18.3189 51.9562 18.3991 51.5435 18.3991C51.0468 18.3991 50.5921 18.273 50.1794 18.0208C49.7667 17.7686 49.4343 17.4171 49.1821 16.9662C48.9299 16.5077 48.8038 15.9727 48.8038 15.3613C48.8038 14.7423 48.9299 14.2074 49.1821 13.7565C49.4343 13.2979 49.7667 12.9426 50.1794 12.6904C50.5921 12.4382 51.0468 12.3121 51.5435 12.3121C51.9562 12.3121 52.3231 12.3962 52.644 12.5643C52.9726 12.7324 53.2287 12.954 53.4121 13.2291H53.4809V12.4955H54.6616V18.0323C54.6616 18.6666 54.5355 19.2054 54.2833 19.6486C54.0387 20.0919 53.6987 20.4281 53.263 20.6574C52.8274 20.8867 52.323 21.0013 51.7499 21.0013ZM51.7613 17.2757C52.067 17.2757 52.3498 17.2031 52.6096 17.0579C52.8695 16.905 53.0796 16.6872 53.2401 16.4045C53.4006 16.1141 53.4809 15.7664 53.4809 15.3613C53.4809 14.941 53.4006 14.5894 53.2401 14.3067C53.0796 14.0163 52.8695 13.7985 52.6096 13.6533C52.3498 13.5081 52.067 13.4355 51.7613 13.4355C51.4556 13.4355 51.169 13.5119 50.9016 13.6647C50.6417 13.8099 50.4316 14.024 50.2711 14.3067C50.1106 14.5894 50.0304 14.941 50.0304 15.3613C50.0304 15.774 50.1106 16.1255 50.2711 16.416C50.4316 16.6987 50.6417 16.9127 50.9016 17.0579C51.169 17.2031 51.4556 17.2757 51.7613 17.2757ZM58.6905 21.0013C58.1787 21.0013 57.735 20.9172 57.3607 20.7491C56.994 20.5886 56.696 20.3784 56.4667 20.1186C56.2374 19.8664 56.0731 19.6066 55.9738 19.3391L57.1201 18.8577C57.2424 19.1633 57.437 19.4117 57.7046 19.6028C57.9798 19.8015 58.3082 19.9008 58.6905 19.9008C59.2253 19.9008 59.646 19.7403 59.9515 19.4194C60.265 19.0984 60.4215 18.6437 60.4215 18.0552V17.4935H60.3527C60.1693 17.7686 59.9131 17.9903 59.5846 18.1584C59.2637 18.3189 58.8968 18.3991 58.4842 18.3991C57.9872 18.3991 57.5327 18.273 57.1201 18.0208C56.7074 17.7686 56.375 17.4171 56.1228 16.9662C55.8706 16.5077 55.7445 15.9727 55.7445 15.3613C55.7445 14.7423 55.8706 14.2074 56.1228 13.7565C56.375 13.2979 56.7074 12.9426 57.1201 12.6904C57.5327 12.4382 57.9872 12.3121 58.4842 12.3121C58.8968 12.3121 59.2637 12.3962 59.5846 12.5643C59.9131 12.7324 60.1693 12.954 60.3527 13.2291H60.4215V12.4955H61.6022V18.0323C61.6022 18.6666 61.4761 19.2054 61.2239 19.6486C60.9792 20.0919 60.6393 20.4281 60.2037 20.6574C59.7681 20.8867 59.2637 21.0013 58.6905 21.0013ZM58.702 17.2757C59.0075 17.2757 59.2906 17.2031 59.5502 17.0579C59.8099 16.905 60.0202 16.6872 60.1807 16.4045C60.3412 16.1141 60.4215 15.7664 60.4215 15.3613C60.4215 14.941 60.3412 14.5894 60.1807 14.3067C60.0202 14.0163 59.8099 13.7985 59.5502 13.6533C59.2906 13.5081 59.0075 13.4355 58.702 13.4355C58.3965 13.4355 58.1099 13.5119 57.8422 13.6647C57.5826 13.8099 57.3722 14.024 57.2118 14.3067C57.0513 14.5894 56.9711 14.941 56.9711 15.3613C56.9711 15.774 57.0513 16.1255 57.2118 16.416C57.3722 16.6987 57.5826 16.9127 57.8422 17.0579C58.1099 17.2031 58.3965 17.2757 58.702 17.2757ZM66.3452 16.6452V13.573H65.3249V12.4955H66.3452V10.8448H67.5832V12.4955H69.0161V13.573H67.5832V16.3816C67.5832 16.672 67.6405 16.8936 67.7551 17.0464C67.8772 17.1993 68.0801 17.2757 68.3627 17.2757C68.5077 17.2757 68.6304 17.2566 68.7295 17.2184C68.8367 17.1802 68.9433 17.1267 69.0505 17.0579V18.2616C68.9204 18.315 68.7828 18.3571 68.6378 18.3877C68.4928 18.4182 68.3209 18.4335 68.122 18.4335C67.5792 18.4335 67.1476 18.2769 66.8266 17.9635C66.5056 17.6425 66.3452 17.2031 66.3452 16.6452ZM70.9706 11.6357C70.7414 11.6357 70.543 11.5555 70.3745 11.395C70.214 11.2269 70.1338 11.0282 70.1338 10.7989C70.1338 10.5696 70.214 10.3748 70.3745 10.2143C70.543 10.0538 70.7414 9.97354 70.9706 9.97354C71.1999 9.97354 71.3948 10.0538 71.5553 10.2143C71.7238 10.3748 71.8074 10.5696 71.8074 10.7989C71.8074 11.0282 71.7238 11.2269 71.5553 11.395C71.3948 11.5555 71.1999 11.6357 70.9706 11.6357ZM70.3516 18.3418V12.4955H71.5896V18.3418H70.3516ZM73.1372 18.3418V10.134H74.3752V18.3418H73.1372ZM75.8466 18.3418V10.134H77.0846V18.3418H75.8466ZM81.9302 11.6357C81.7009 11.6357 81.5026 11.5555 81.3341 11.395C81.1736 11.2269 81.0933 11.0282 81.0933 10.7989C81.0933 10.5696 81.1736 10.3748 81.3341 10.2143C81.5026 10.0538 81.7009 9.97354 81.9302 9.97354C82.1594 9.97354 82.3543 10.0538 82.5148 10.2143C82.6833 10.3748 82.767 10.5696 82.767 10.7989C82.767 11.0282 82.6833 11.2269 82.5148 11.395C82.3543 11.5555 82.1594 11.6357 81.9302 11.6357ZM81.3111 18.3418V12.4955H82.5492V18.3418H81.3111Z" fill="white"/>
<path d="M91.3613 18.5248C90.7726 18.5248 90.2189 18.4178 89.6991 18.2038C89.1872 17.9899 88.7321 17.6918 88.3349 17.3097C87.9377 16.9199 87.6242 16.4652 87.3949 15.9455C87.1731 15.4182 87.0625 14.8489 87.0625 14.2375C87.0625 13.6261 87.1731 13.0606 87.3949 12.5409C87.6242 12.0136 87.9337 11.5589 88.3235 11.1768C88.7207 10.787 89.1792 10.4851 89.6991 10.2712C90.2189 10.0572 90.7726 9.9502 91.3613 9.9502C91.9877 9.9502 92.5649 10.061 93.0922 10.2826C93.627 10.5043 94.0741 10.8138 94.4334 11.2112L93.5622 12.0709C93.2946 11.7729 92.9736 11.5436 92.5993 11.3831C92.2325 11.2226 91.8198 11.1424 91.3613 11.1424C90.8185 11.1424 90.3181 11.2723 89.8596 11.5321C89.401 11.7843 89.0302 12.1435 88.7476 12.6097C88.4725 13.0682 88.3349 13.6108 88.3349 14.2375C88.3349 14.8641 88.4765 15.4106 88.7591 15.8768C89.0417 16.3353 89.4125 16.6945 89.871 16.9543C90.3296 17.2065 90.8299 17.3326 91.3727 17.3326C91.8697 17.3326 92.3202 17.2409 92.7254 17.0575C93.1306 16.8664 93.455 16.5989 93.6998 16.255C93.952 15.9111 94.105 15.4985 94.1583 15.017H91.3498V13.9051H95.3391C95.3849 14.1114 95.4078 14.3292 95.4078 14.5585V14.5699C95.4078 15.3647 95.2319 16.0602 94.8805 16.6563C94.5366 17.2447 94.0592 17.7033 93.4476 18.0319C92.836 18.3605 92.1408 18.5248 91.3613 18.5248ZM99.099 18.5248C98.4955 18.5248 97.9642 18.3872 97.5056 18.1121C97.0471 17.837 96.6877 17.4663 96.4281 17.0002C96.1684 16.534 96.0383 16.0067 96.0383 15.4182C96.0383 14.8374 96.1684 14.3139 96.4281 13.8477C96.6877 13.3739 97.0471 12.9995 97.5056 12.7243C97.9642 12.4492 98.4955 12.3116 99.099 12.3116C99.6951 12.3116 100.222 12.4492 100.681 12.7243C101.14 12.9995 101.499 13.3739 101.759 13.8477C102.018 14.3139 102.148 14.8374 102.148 15.4182C102.148 16.0067 102.018 16.534 101.759 17.0002C101.499 17.4663 101.14 17.837 100.681 18.1121C100.222 18.3872 99.6951 18.5248 99.099 18.5248ZM99.099 17.3899C99.42 17.3899 99.7181 17.3135 99.9932 17.1607C100.268 17.0002 100.49 16.7747 100.658 16.4843C100.834 16.1863 100.922 15.8309 100.922 15.4182C100.922 15.0055 100.834 14.654 100.658 14.3636C100.49 14.0655 100.268 13.8401 99.9932 13.6873C99.7181 13.5268 99.42 13.4465 99.099 13.4465C98.7781 13.4465 98.476 13.5268 98.1934 13.6873C97.9183 13.8401 97.6931 14.0655 97.5171 14.3636C97.3492 14.654 97.2649 15.0055 97.2649 15.4182C97.2649 15.8309 97.3492 16.1863 97.5171 16.4843C97.6931 16.7747 97.9183 17.0002 98.1934 17.1607C98.476 17.3135 98.7781 17.3899 99.099 17.3899ZM106.04 18.5248C105.436 18.5248 104.905 18.3872 104.446 18.1121C103.988 17.837 103.629 17.4663 103.369 17.0002C103.109 16.534 102.979 16.0067 102.979 15.4182C102.979 14.8374 103.109 14.3139 103.369 13.8477C103.629 13.3739 103.988 12.9995 104.446 12.7243C104.905 12.4492 105.436 12.3116 106.04 12.3116C106.636 12.3116 107.163 12.4492 107.621 12.7243C108.08 12.9995 108.439 13.3739 108.699 13.8477C108.959 14.3139 109.089 14.8374 109.089 15.4182C109.089 16.0067 108.959 16.534 108.699 17.0002C108.439 17.4663 108.08 17.837 107.621 18.1121C107.163 18.3872 106.636 18.5248 106.04 18.5248ZM106.04 17.3899C106.361 17.3899 106.659 17.3135 106.934 17.1607C107.209 17.0002 107.431 16.7747 107.599 16.4843C107.775 16.1863 107.862 15.8309 107.862 15.4182C107.862 15.0055 107.775 14.654 107.599 14.3636C107.431 14.0655 107.209 13.8401 106.934 13.6873C106.659 13.5268 106.361 13.4465 106.04 13.4465C105.719 13.4465 105.417 13.5268 105.134 13.6873C104.859 13.8401 104.634 14.0655 104.458 14.3636C104.29 14.654 104.205 15.0055 104.205 15.4182C104.205 15.8309 104.29 16.1863 104.458 16.4843C104.634 16.7747 104.859 17.0002 105.134 17.1607C105.417 17.3135 105.719 17.3899 106.04 17.3899ZM112.866 21.0009C112.354 21.0009 111.91 20.9168 111.536 20.7487C111.169 20.5882 110.871 20.378 110.642 20.1182C110.413 19.866 110.248 19.6062 110.149 19.3387L111.295 18.8572C111.418 19.1629 111.612 19.4113 111.88 19.6024C112.155 19.8011 112.484 19.9004 112.866 19.9004C113.401 19.9004 113.821 19.7399 114.127 19.4189C114.44 19.098 114.597 18.6433 114.597 18.0548V17.4931H114.528C114.345 17.7682 114.089 17.9899 113.76 18.158C113.439 18.3185 113.072 18.3987 112.66 18.3987C112.163 18.3987 111.708 18.2726 111.295 18.0204C110.883 17.7682 110.55 17.4167 110.298 16.9658C110.046 16.5072 109.92 15.9723 109.92 15.3609C109.92 14.7419 110.046 14.2069 110.298 13.756C110.55 13.2975 110.883 12.9421 111.295 12.6899C111.708 12.4377 112.163 12.3116 112.66 12.3116C113.072 12.3116 113.439 12.3957 113.76 12.5638C114.089 12.732 114.345 12.9536 114.528 13.2287H114.597V12.4951H115.778V18.0319C115.778 18.6662 115.652 19.205 115.399 19.6482C115.155 20.0914 114.815 20.4277 114.379 20.657C113.944 20.8862 113.439 21.0009 112.866 21.0009ZM112.877 17.2753C113.183 17.2753 113.466 17.2027 113.726 17.0575C113.985 16.9046 114.196 16.6868 114.356 16.4041C114.517 16.1136 114.597 15.766 114.597 15.3609C114.597 14.9406 114.517 14.589 114.356 14.3063C114.196 14.0158 113.985 13.798 113.726 13.6529C113.466 13.5077 113.183 13.4351 112.877 13.4351C112.571 13.4351 112.285 13.5115 112.018 13.6643C111.757 13.8095 111.548 14.0235 111.387 14.3063C111.227 14.589 111.146 14.9406 111.146 15.3609C111.146 15.7736 111.227 16.1251 111.387 16.4155C111.548 16.6983 111.757 16.9123 112.018 17.0575C112.285 17.2027 112.571 17.2753 112.877 17.2753ZM117.238 18.3414V10.1336H118.476V18.3414H117.238ZM122.55 18.5248C121.977 18.5248 121.465 18.3911 121.014 18.1236C120.563 17.8561 120.208 17.4893 119.948 17.0231C119.696 16.5569 119.57 16.0258 119.57 15.4297C119.57 14.8718 119.692 14.356 119.937 13.8821C120.181 13.4083 120.521 13.03 120.957 12.7473C121.4 12.4568 121.908 12.3116 122.481 12.3116C123.085 12.3116 123.597 12.4416 124.018 12.7014C124.445 12.9612 124.77 13.3166 124.992 13.7675C125.213 14.2184 125.324 14.7266 125.324 15.2921C125.324 15.3762 125.32 15.4526 125.313 15.5214C125.313 15.5902 125.309 15.6436 125.301 15.6819H120.785C120.846 16.2627 121.049 16.6983 121.392 16.9887C121.744 17.2791 122.141 17.4243 122.585 17.4243C122.982 17.4243 123.31 17.3364 123.57 17.1607C123.83 16.9772 124.036 16.7518 124.189 16.4843L125.21 16.9772C124.958 17.4358 124.614 17.8102 124.178 18.1006C123.742 18.3834 123.2 18.5248 122.55 18.5248ZM122.493 13.3663C122.08 13.3663 121.728 13.4924 121.438 13.7446C121.148 13.9968 120.953 14.333 120.854 14.7533H124.098C124.082 14.5546 124.018 14.3483 123.903 14.1343C123.788 13.9204 123.612 13.7407 123.376 13.5955C123.146 13.4427 122.852 13.3663 122.493 13.3663ZM130.363 18.3414L128.162 10.1336H129.561L130.867 15.4641L131.005 16.1748H131.074L131.246 15.4641L132.896 10.1336H134.157L135.739 15.4641L135.911 16.1633H135.98L136.118 15.4641L137.425 10.1336H138.812L136.645 18.3414H135.315L133.745 12.8963L133.561 12.1282H133.493L133.298 12.8963L131.658 18.3414H130.363ZM141.113 18.5248C140.693 18.5248 140.319 18.4445 139.99 18.2841C139.662 18.116 139.405 17.8828 139.222 17.5848C139.039 17.2867 138.947 16.9467 138.947 16.5646C138.947 16.1519 139.054 15.8004 139.268 15.5099C139.49 15.2119 139.784 14.9865 140.151 14.8336C140.517 14.6807 140.923 14.6043 141.366 14.6043C141.732 14.6043 142.053 14.6387 142.329 14.7075C142.612 14.7763 142.825 14.8489 142.97 14.9253V14.6158C142.97 14.2337 142.833 13.928 142.558 13.6987C142.283 13.4694 141.927 13.3548 141.492 13.3548C141.194 13.3548 140.911 13.4236 140.643 13.5612C140.376 13.6911 140.162 13.8707 140.001 14.0999L139.153 13.4465C139.405 13.095 139.738 12.8199 140.151 12.6212C140.571 12.4148 141.03 12.3116 141.526 12.3116C142.374 12.3116 143.028 12.5218 143.486 12.9421C143.945 13.3548 144.174 13.9356 144.174 14.6846V18.3414H142.97V17.6192H142.902C142.749 17.8561 142.52 18.0663 142.214 18.2497C141.908 18.4331 141.542 18.5248 141.113 18.5248ZM141.331 17.516C141.652 17.516 141.935 17.4396 142.18 17.2867C142.424 17.1339 142.615 16.9352 142.753 16.6907C142.898 16.4385 142.97 16.1672 142.97 15.8768C142.795 15.7774 142.589 15.6972 142.351 15.636C142.115 15.5672 141.863 15.5329 141.595 15.5329C141.091 15.5329 140.732 15.636 140.517 15.8424C140.304 16.0411 140.196 16.2856 140.196 16.576C140.196 16.8511 140.3 17.0766 140.506 17.2524C140.712 17.4282 140.987 17.516 141.331 17.516ZM145.549 18.3414V10.1336H146.787V18.3414H145.549ZM148.258 18.3414V10.1336H149.496V18.3414H148.258ZM153.571 18.5248C152.997 18.5248 152.485 18.3911 152.035 18.1236C151.583 17.8561 151.228 17.4893 150.968 17.0231C150.716 16.5569 150.59 16.0258 150.59 15.4297C150.59 14.8718 150.712 14.356 150.957 13.8821C151.201 13.4083 151.542 13.03 151.977 12.7473C152.42 12.4568 152.929 12.3116 153.502 12.3116C154.105 12.3116 154.617 12.4416 155.038 12.7014C155.466 12.9612 155.791 13.3166 156.012 13.7675C156.234 14.2184 156.345 14.7266 156.345 15.2921C156.345 15.3762 156.341 15.4526 156.333 15.5214C156.333 15.5902 156.329 15.6436 156.322 15.6819H151.805C151.866 16.2627 152.069 16.6983 152.413 16.9887C152.764 17.2791 153.161 17.4243 153.605 17.4243C154.002 17.4243 154.331 17.3364 154.591 17.1607C154.851 16.9772 155.057 16.7518 155.21 16.4843L156.23 16.9772C155.978 17.4358 155.634 17.8102 155.198 18.1006C154.763 18.3834 154.22 18.5248 153.571 18.5248ZM153.513 13.3663C153.101 13.3663 152.749 13.4924 152.459 13.7446C152.168 13.9968 151.973 14.333 151.874 14.7533H155.118C155.103 14.5546 155.038 14.3483 154.923 14.1343C154.809 13.9204 154.633 13.7407 154.396 13.5955C154.167 13.4427 153.872 13.3663 153.513 13.3663ZM157.945 16.6448V13.5726H156.924V12.4951H157.945V10.8443H159.183V12.4951H160.615V13.5726H159.183V16.3811C159.183 16.6716 159.24 16.8932 159.355 17.046C159.477 17.1989 159.679 17.2753 159.962 17.2753C160.107 17.2753 160.229 17.2562 160.329 17.218C160.435 17.1797 160.543 17.1263 160.65 17.0575V18.2611C160.52 18.3146 160.382 18.3567 160.237 18.3872C160.092 18.4178 159.92 18.4331 159.721 18.4331C159.179 18.4331 158.747 18.2764 158.426 17.9631C158.105 17.6421 157.945 17.2027 157.945 16.6448Z" fill="white"/>
<path d="M159.339 0.286133H14.3278C6.57225 0.286133 0.285156 6.57323 0.285156 14.3288C0.285156 22.0843 6.57225 28.3714 14.3278 28.3714H159.339C167.095 28.3714 173.382 22.0843 173.382 14.3288C173.382 6.57323 167.095 0.286133 159.339 0.286133Z" stroke="#747775"/>
</g>
<defs>
<linearGradient id="paint0_linear_568_825" x1="19.8132" y1="17.6455" x2="10.7346" y2="28.0353" gradientUnits="userSpaceOnUse">
<stop stop-color="#4285F4"/>
<stop offset="1" stop-color="#1B74E8"/>
</linearGradient>
<clipPath id="clip0_568_825">
<rect width="173.67" height="28.6584" fill="white"/>
</clipPath>
</defs>
</svg>
