<svg width="174" height="48" viewBox="0 0 174 48" fill="none" xmlns="http://www.w3.org/2000/svg">
<g clip-path="url(#clip0_568_637)">
<path d="M149.672 0.436523H24.0008C10.9871 0.436523 0.4375 10.9862 0.4375 23.9998C0.4375 37.0134 10.9871 47.563 24.0008 47.563H149.672C162.685 47.563 173.235 37.0134 173.235 23.9998C173.235 10.9862 162.685 0.436523 149.672 0.436523Z" fill="#1F1F1F"/>
<path d="M49.7458 20.7629H18.3281V15.8361C18.3281 13.1615 20.634 10.9092 23.3722 10.9092H44.7017C47.4399 10.9092 49.7458 13.1615 49.7458 15.8361V20.7629Z" fill="#34A853"/>
<path d="M49.7458 25.3085H18.3281V20.0722C18.3281 17.2297 20.634 14.8359 23.3722 14.8359H44.7017C47.4399 14.8359 49.7458 17.2297 49.7458 20.0722V25.3085Z" fill="#FBBC04"/>
<path d="M49.7458 29.6718H18.3281V24.4355C18.3281 21.593 20.634 19.1992 23.3722 19.1992H44.7017C47.4399 19.1992 49.7458 21.593 49.7458 24.4355V29.6718Z" fill="#EA4335"/>
<path d="M18.3281 22.0276L38.269 26.5322C40.5644 27.0953 43.1467 26.5322 45.0116 25.1245L49.7458 21.7461V32.3037C49.7458 34.9783 47.4505 37.0898 44.7247 37.0898H23.3492C20.6234 37.0898 18.3281 34.9783 18.3281 32.3037V22.0276Z" fill="url(#paint0_linear_568_637)"/>
<path d="M61.1367 18.7635V10.6403H63.9277C64.4193 10.6403 64.8656 10.7461 65.2664 10.9579C65.6672 11.1698 65.9849 11.4609 66.2194 11.8315C66.4614 12.2022 66.5824 12.6333 66.5824 13.1249C66.5824 13.6165 66.4614 14.0515 66.2194 14.4296C65.9849 14.8002 65.6672 15.0914 65.2664 15.3032C64.8656 15.5074 64.4193 15.6095 63.9277 15.6095H62.3847V18.7635H61.1367ZM63.9617 11.8202H62.3847V14.4296H63.9617C64.2567 14.4296 64.5063 14.3691 64.7105 14.2481C64.9147 14.1195 65.0698 13.9569 65.1756 13.7602C65.2891 13.556 65.3458 13.3442 65.3458 13.1249C65.3458 12.9056 65.2891 12.6975 65.1756 12.5009C65.0698 12.3043 64.9147 12.1416 64.7105 12.0131C64.5063 11.8845 64.2567 11.8202 63.9617 11.8202ZM68.3611 12.1265C68.1342 12.1265 67.9375 12.0471 67.7712 11.8883C67.6123 11.7218 67.5329 11.5252 67.5329 11.2983C67.5329 11.0714 67.6123 10.8785 67.7712 10.7197C67.9375 10.5609 68.1342 10.4814 68.3611 10.4814C68.588 10.4814 68.7809 10.5609 68.9397 10.7197C69.1061 10.8785 69.1893 11.0714 69.1893 11.2983C69.1893 11.5252 69.1061 11.7218 68.9397 11.8883C68.7809 12.0471 68.588 12.1265 68.3611 12.1265ZM67.7485 18.7635V12.9774H68.9738V18.7635H67.7485ZM73.0821 18.945C72.5148 18.945 72.008 18.8126 71.5618 18.5479C71.1155 18.2832 70.7638 17.9202 70.5067 17.4588C70.2571 16.9974 70.1323 16.4718 70.1323 15.8818C70.1323 15.3296 70.2533 14.8191 70.4954 14.3502C70.7374 13.8813 71.074 13.5069 71.5051 13.227C71.9437 12.9396 72.4467 12.7959 73.014 12.7959C73.6115 12.7959 74.1182 12.9244 74.5343 13.1816C74.9578 13.4388 75.2792 13.7905 75.4986 14.2367C75.7179 14.6829 75.8276 15.186 75.8276 15.7457C75.8276 15.8288 75.8238 15.9045 75.8163 15.9726C75.8163 16.0406 75.8124 16.0936 75.8049 16.1314H71.3349C71.3954 16.7062 71.5958 17.1374 71.9362 17.4248C72.2841 17.7121 72.6774 17.8559 73.1161 17.8559C73.5094 17.8559 73.8346 17.7689 74.0918 17.5949C74.3489 17.4134 74.5531 17.1903 74.7044 16.9256L75.7142 17.4134C75.4646 17.8672 75.1242 18.2379 74.6931 18.5252C74.262 18.8051 73.7249 18.945 73.0821 18.945ZM73.0253 13.8396C72.6169 13.8396 72.269 13.9644 71.9816 14.214C71.6941 14.4636 71.5012 14.7964 71.403 15.2124H74.6137C74.5985 15.0158 74.5343 14.8116 74.4208 14.5998C74.3074 14.388 74.1333 14.2103 73.8989 14.0666C73.672 13.9153 73.3808 13.8396 73.0253 13.8396ZM78.6121 18.7635L76.2183 12.9774H77.5797L79.2021 17.1865H79.2588L80.9152 12.9774H82.2539L79.8374 18.7635H78.6121ZM83.7503 12.1265C83.5234 12.1265 83.3268 12.0471 83.1603 11.8883C83.0015 11.7218 82.9221 11.5252 82.9221 11.2983C82.9221 11.0714 83.0015 10.8785 83.1603 10.7197C83.3268 10.5609 83.5234 10.4814 83.7503 10.4814C83.9772 10.4814 84.1701 10.5609 84.3289 10.7197C84.4953 10.8785 84.5785 11.0714 84.5785 11.2983C84.5785 11.5252 84.4953 11.7218 84.3289 11.8883C84.1701 12.0471 83.9772 12.1265 83.7503 12.1265ZM83.1377 18.7635V12.9774H84.3629V18.7635H83.1377ZM88.471 18.945C87.9037 18.945 87.3975 18.8126 86.9511 18.5479C86.5048 18.2832 86.1531 17.9202 85.896 17.4588C85.6464 16.9974 85.5216 16.4718 85.5216 15.8818C85.5216 15.3296 85.6425 14.8191 85.8846 14.3502C86.1266 13.8813 86.4632 13.5069 86.8943 13.227C87.333 12.9396 87.8356 12.7959 88.4029 12.7959C89.0007 12.7959 89.5078 12.9244 89.9232 13.1816C90.3473 13.4388 90.6685 13.7905 90.8875 14.2367C91.1074 14.6829 91.2165 15.186 91.2165 15.7457C91.2165 15.8288 91.213 15.9045 91.2052 15.9726C91.2052 16.0406 91.2017 16.0936 91.1938 16.1314H86.7242C86.7846 16.7062 86.9851 17.1374 87.3251 17.4248C87.6733 17.7121 88.0669 17.8559 88.505 17.8559C88.8986 17.8559 89.2241 17.7689 89.4807 17.5949C89.7382 17.4134 89.9424 17.1903 90.0934 16.9256L91.1031 17.4134C90.8535 17.8672 90.5131 18.2379 90.082 18.5252C89.6509 18.8051 89.1142 18.945 88.471 18.945ZM88.4143 13.8396C88.0058 13.8396 87.6585 13.9644 87.3705 14.214C87.0834 14.4636 86.8905 14.7964 86.7922 15.2124H90.0026C89.9878 15.0158 89.9232 14.8116 89.8097 14.5998C89.6963 14.388 89.5226 14.2103 89.2878 14.0666C89.0609 13.9153 88.7703 13.8396 88.4143 13.8396ZM92.3537 18.7635V12.9774H93.5109V13.7716H93.579C93.7457 13.4917 93.9909 13.261 94.3164 13.0795C94.6489 12.8904 95.012 12.7959 95.4056 12.7959C96.1168 12.7959 96.6501 13.0077 97.0052 13.4312C97.3604 13.8547 97.5385 14.4145 97.5385 15.1103V18.7635H96.3245V15.2692C96.3245 14.8002 96.2076 14.4599 95.9728 14.2481C95.7381 14.0288 95.4317 13.9191 95.0539 13.9191C94.7589 13.9191 94.5014 14.0022 94.2824 14.1687C94.0633 14.3275 93.8888 14.5393 93.7605 14.804C93.6392 15.0687 93.579 15.3523 93.579 15.6549V18.7635H92.3537ZM101.658 18.945C101.06 18.945 100.535 18.8089 100.081 18.5366C99.6269 18.2643 99.2717 17.8975 99.0142 17.4361C98.7568 16.9747 98.6285 16.4528 98.6285 15.8705C98.6285 15.2956 98.7568 14.7776 99.0142 14.3161C99.2717 13.8472 99.6269 13.4766 100.081 13.2043C100.535 12.932 101.06 12.7959 101.658 12.7959C102.248 12.7959 102.77 12.932 103.223 13.2043C103.677 13.4766 104.032 13.8472 104.29 14.3161C104.547 14.7776 104.676 15.2956 104.676 15.8705C104.676 16.4528 104.547 16.9747 104.29 17.4361C104.032 17.8975 103.677 18.2643 103.223 18.5366C102.77 18.8089 102.248 18.945 101.658 18.945ZM101.658 17.8218C101.975 17.8218 102.27 17.7462 102.543 17.5949C102.815 17.4361 103.034 17.2129 103.201 16.9256C103.374 16.6306 103.462 16.2789 103.462 15.8705C103.462 15.462 103.374 15.1141 103.201 14.8267C103.034 14.5317 102.815 14.3086 102.543 14.1573C102.27 13.9985 101.975 13.9191 101.658 13.9191C101.34 13.9191 101.042 13.9985 100.761 14.1573C100.489 14.3086 100.266 14.5317 100.092 14.8267C99.9253 15.1141 99.8424 15.462 99.8424 15.8705C99.8424 16.2789 99.9253 16.6306 100.092 16.9256C100.266 17.2129 100.489 17.4361 100.761 17.5949C101.042 17.7462 101.34 17.8218 101.658 17.8218ZM106.251 17.0844V14.0439H105.241V12.9774H106.251V11.3437H107.476V12.9774H108.894V14.0439H107.476V16.8235C107.476 17.1108 107.533 17.3302 107.646 17.4815C107.767 17.6327 107.967 17.7084 108.248 17.7084C108.391 17.7084 108.512 17.6894 108.611 17.6517C108.716 17.6139 108.822 17.5609 108.928 17.4928V18.6841C108.799 18.7371 108.663 18.7786 108.52 18.8089C108.376 18.8392 108.206 18.8543 108.009 18.8543C107.472 18.8543 107.045 18.6992 106.727 18.3891C106.41 18.0714 106.251 17.6366 106.251 17.0844ZM112.729 18.7635V10.6403H113.954V18.7635H112.729ZM116.102 12.1265C115.875 12.1265 115.679 12.0471 115.512 11.8883C115.353 11.7218 115.274 11.5252 115.274 11.2983C115.274 11.0714 115.353 10.8785 115.512 10.7197C115.679 10.5609 115.875 10.4814 116.102 10.4814C116.329 10.4814 116.522 10.5609 116.681 10.7197C116.847 10.8785 116.93 11.0714 116.93 11.2983C116.93 11.5252 116.847 11.7218 116.681 11.8883C116.522 12.0471 116.329 12.1265 116.102 12.1265ZM115.489 18.7635V12.9774H116.715V18.7635H115.489ZM120.823 18.945C120.256 18.945 119.749 18.8126 119.303 18.5479C118.856 18.2832 118.505 17.9202 118.248 17.4588C117.998 16.9974 117.874 16.4718 117.874 15.8818C117.874 15.3296 117.994 14.8191 118.237 14.3502C118.478 13.8813 118.815 13.5069 119.246 13.227C119.684 12.9396 120.188 12.7959 120.755 12.7959C121.352 12.7959 121.859 12.9244 122.276 13.1816C122.699 13.4388 123.02 13.7905 123.24 14.2367C123.459 14.6829 123.569 15.186 123.569 15.7457C123.569 15.8288 123.565 15.9045 123.558 15.9726C123.558 16.0406 123.553 16.0936 123.546 16.1314H119.076C119.136 16.7062 119.337 17.1374 119.677 17.4248C120.025 17.7121 120.418 17.8559 120.857 17.8559C121.25 17.8559 121.576 17.7689 121.833 17.5949C122.09 17.4134 122.294 17.1903 122.446 16.9256L123.455 17.4134C123.206 17.8672 122.865 18.2379 122.434 18.5252C122.003 18.8051 121.466 18.945 120.823 18.945ZM120.767 13.8396C120.358 13.8396 120.01 13.9644 119.723 14.214C119.435 14.4636 119.242 14.7964 119.144 15.2124H122.355C122.339 15.0158 122.276 14.8116 122.162 14.5998C122.049 14.388 121.874 14.2103 121.64 14.0666C121.413 13.9153 121.122 13.8396 120.767 13.8396ZM125.152 17.0844V14.0439H124.142V12.9774H125.152V11.3437H126.377V12.9774H127.795V14.0439H126.377V16.8235C126.377 17.1108 126.434 17.3302 126.547 17.4815C126.668 17.6327 126.869 17.7084 127.149 17.7084C127.292 17.7084 127.413 17.6894 127.512 17.6517C127.617 17.6139 127.723 17.5609 127.829 17.4928V18.6841C127.7 18.7371 127.564 18.7786 127.421 18.8089C127.277 18.8392 127.107 18.8543 126.911 18.8543C126.373 18.8543 125.946 18.6992 125.629 18.3891C125.311 18.0714 125.152 17.6366 125.152 17.0844ZM131.472 18.945C130.874 18.945 130.349 18.8089 129.895 18.5366C129.441 18.2643 129.086 17.8975 128.829 17.4361C128.571 16.9747 128.443 16.4528 128.443 15.8705C128.443 15.2956 128.571 14.7776 128.829 14.3161C129.086 13.8472 129.441 13.4766 129.895 13.2043C130.349 12.932 130.874 12.7959 131.472 12.7959C132.062 12.7959 132.584 12.932 133.038 13.2043C133.492 13.4766 133.847 13.8472 134.104 14.3161C134.362 14.7776 134.49 15.2956 134.49 15.8705C134.49 16.4528 134.362 16.9747 134.104 17.4361C133.847 17.8975 133.492 18.2643 133.038 18.5366C132.584 18.8089 132.062 18.945 131.472 18.945ZM131.472 17.8218C131.79 17.8218 132.085 17.7462 132.357 17.5949C132.629 17.4361 132.848 17.2129 133.015 16.9256C133.189 16.6306 133.276 16.2789 133.276 15.8705C133.276 15.462 133.189 15.1141 133.015 14.8267C132.848 14.5317 132.629 14.3086 132.357 14.1573C132.085 13.9985 131.79 13.9191 131.472 13.9191C131.155 13.9191 130.856 13.9985 130.576 14.1573C130.304 14.3086 130.08 14.5317 129.907 14.8267C129.74 15.1141 129.657 15.462 129.657 15.8705C129.657 16.2789 129.74 16.6306 129.907 16.9256C130.08 17.2129 130.304 17.4361 130.576 17.5949C130.856 17.7462 131.155 17.8218 131.472 17.8218ZM136.065 17.0844V14.0439H135.056V12.9774H136.065V11.3437H137.291V12.9774H138.709V14.0439H137.291V16.8235C137.291 17.1108 137.347 17.3302 137.461 17.4815C137.581 17.6327 137.782 17.7084 138.062 17.7084C138.205 17.7084 138.326 17.6894 138.425 17.6517C138.531 17.6139 138.636 17.5609 138.743 17.4928V18.6841C138.614 18.7371 138.477 18.7786 138.334 18.8089C138.19 18.8392 138.02 18.8543 137.824 18.8543C137.286 18.8543 136.859 18.6992 136.542 18.3891C136.224 18.0714 136.065 17.6366 136.065 17.0844ZM139.939 18.7635V12.9774H141.096V13.7716H141.165C141.331 13.4917 141.577 13.261 141.902 13.0795C142.235 12.8904 142.598 12.7959 142.991 12.7959C143.702 12.7959 144.236 13.0077 144.591 13.4312C144.947 13.8547 145.124 14.4145 145.124 15.1103V18.7635H143.91V15.2692C143.91 14.8002 143.793 14.4599 143.558 14.2481C143.325 14.0288 143.018 13.9191 142.639 13.9191C142.344 13.9191 142.088 14.0022 141.868 14.1687C141.649 14.3275 141.475 14.5393 141.346 14.804C141.226 15.0687 141.165 15.3523 141.165 15.6549V18.7635H139.939ZM149.164 18.945C148.597 18.945 148.09 18.8126 147.644 18.5479C147.198 18.2832 146.846 17.9202 146.588 17.4588C146.339 16.9974 146.214 16.4718 146.214 15.8818C146.214 15.3296 146.335 14.8191 146.577 14.3502C146.82 13.8813 147.156 13.5069 147.587 13.227C148.026 12.9396 148.529 12.7959 149.096 12.7959C149.694 12.7959 150.201 12.9244 150.616 13.1816C151.04 13.4388 151.361 13.7905 151.58 14.2367C151.8 14.6829 151.909 15.186 151.909 15.7457C151.909 15.8288 151.906 15.9045 151.898 15.9726C151.898 16.0406 151.895 16.0936 151.887 16.1314H147.417C147.478 16.7062 147.678 17.1374 148.018 17.4248C148.366 17.7121 148.76 17.8559 149.198 17.8559C149.591 17.8559 149.917 17.7689 150.174 17.5949C150.431 17.4134 150.635 17.1903 150.786 16.9256L151.796 17.4134C151.546 17.8672 151.206 18.2379 150.775 18.5252C150.344 18.8051 149.807 18.945 149.164 18.945ZM149.107 13.8396C148.699 13.8396 148.351 13.9644 148.063 14.214C147.776 14.4636 147.583 14.7964 147.485 15.2124H150.695C150.681 15.0158 150.616 14.8116 150.503 14.5998C150.389 14.388 150.215 14.2103 149.981 14.0666C149.754 13.9153 149.463 13.8396 149.107 13.8396ZM153.75 12.1265C153.523 12.1265 153.326 12.0471 153.16 11.8883C153.001 11.7218 152.922 11.5252 152.922 11.2983C152.922 11.0714 153.001 10.8785 153.16 10.7197C153.326 10.5609 153.523 10.4814 153.75 10.4814C153.977 10.4814 154.17 10.5609 154.329 10.7197C154.494 10.8785 154.578 11.0714 154.578 11.2983C154.578 11.5252 154.494 11.7218 154.329 11.8883C154.17 12.0471 153.977 12.1265 153.75 12.1265ZM153.137 18.7635V12.9774H154.363V18.7635H153.137Z" fill="white"/>
<path d="M66.4503 36.4548C65.6887 36.4548 64.9716 36.3163 64.299 36.0394C63.6364 35.7625 63.0478 35.3768 62.5335 34.8822C62.0192 34.3778 61.6137 33.7893 61.317 33.1167C61.0301 32.4343 60.8867 31.6974 60.8867 30.9061C60.8867 30.1148 61.0301 29.383 61.317 28.7104C61.6137 28.0279 62.0143 27.4395 62.5187 26.9449C63.033 26.4405 63.6264 26.0497 64.299 25.7728C64.9716 25.4959 65.6887 25.3574 66.4503 25.3574C67.2613 25.3574 68.0081 25.5008 68.6905 25.7877C69.3828 26.0745 69.9615 26.4751 70.4264 26.9894L69.2988 28.1021C68.9526 27.7164 68.5372 27.4196 68.0526 27.2119C67.5778 27.0042 67.0437 26.9004 66.4503 26.9004C65.748 26.9004 65.1002 27.0686 64.5067 27.4048C63.9133 27.7312 63.4336 28.1961 63.0676 28.7994C62.7116 29.3928 62.5335 30.0951 62.5335 30.9061C62.5335 31.7171 62.7165 32.4244 63.0825 33.0277C63.4484 33.6211 63.9281 34.086 64.5216 34.4223C65.115 34.7487 65.7628 34.9119 66.4651 34.9119C67.108 34.9119 67.6915 34.7932 68.2158 34.5558C68.74 34.3086 69.1603 33.9624 69.4768 33.5173C69.8032 33.0722 70.0011 32.5381 70.0703 31.915H66.4354V30.4759H71.5984C71.6578 30.7429 71.6874 31.0248 71.6874 31.3215V31.3364C71.6874 32.3651 71.4599 33.2651 71.005 34.0366C70.5599 34.7982 69.9417 35.3916 69.1504 35.8169C68.3592 36.2422 67.4591 36.4548 66.4503 36.4548ZM76.4646 36.4548C75.6831 36.4548 74.9958 36.2768 74.4023 35.9207C73.8089 35.5647 73.344 35.0849 73.0078 34.4816C72.6714 33.8783 72.5033 33.1959 72.5033 32.4343C72.5033 31.6826 72.6714 31.005 73.0078 30.4017C73.344 29.7884 73.8089 29.3038 74.4023 28.9478C74.9958 28.5917 75.6831 28.4137 76.4646 28.4137C77.236 28.4137 77.9185 28.5917 78.512 28.9478C79.1054 29.3038 79.5702 29.7884 79.9066 30.4017C80.2428 31.005 80.411 31.6826 80.411 32.4343C80.411 33.1959 80.2428 33.8783 79.9066 34.4816C79.5702 35.0849 79.1054 35.5647 78.512 35.9207C77.9185 36.2768 77.236 36.4548 76.4646 36.4548ZM76.4646 34.9861C76.88 34.9861 77.2657 34.8872 77.6218 34.6893C77.9779 34.4816 78.2646 34.1899 78.4823 33.814C78.7097 33.4283 78.8235 32.9684 78.8235 32.4343C78.8235 31.9002 78.7097 31.4452 78.4823 31.0693C78.2646 30.6836 77.9779 30.3918 77.6218 30.194C77.2657 29.9863 76.88 29.8824 76.4646 29.8824C76.0492 29.8824 75.6584 29.9863 75.2925 30.194C74.9364 30.3918 74.6446 30.6836 74.4172 31.0693C74.1995 31.4452 74.0908 31.9002 74.0908 32.4343C74.0908 32.9684 74.1995 33.4283 74.4172 33.814C74.6446 34.1899 74.9364 34.4816 75.2925 34.6893C75.6584 34.8872 76.0492 34.9861 76.4646 34.9861ZM85.4473 36.4548C84.666 36.4548 83.9785 36.2768 83.3851 35.9207C82.7917 35.5647 82.3268 35.0849 81.9905 34.4816C81.6542 33.8783 81.4861 33.1959 81.4861 32.4343C81.4861 31.6826 81.6542 31.005 81.9905 30.4017C82.3268 29.7884 82.7917 29.3038 83.3851 28.9478C83.9785 28.5917 84.666 28.4137 85.4473 28.4137C86.2188 28.4137 86.9013 28.5917 87.4949 28.9478C88.0883 29.3038 88.5535 29.7884 88.8895 30.4017C89.2255 31.005 89.3939 31.6826 89.3939 32.4343C89.3939 33.1959 89.2255 33.8783 88.8895 34.4816C88.5535 35.0849 88.0883 35.5647 87.4949 35.9207C86.9013 36.2768 86.2188 36.4548 85.4473 36.4548ZM85.4473 34.9861C85.8627 34.9861 86.2485 34.8872 86.6045 34.6893C86.9606 34.4816 87.2475 34.1899 87.4652 33.814C87.693 33.4283 87.8064 32.9684 87.8064 32.4343C87.8064 31.9002 87.693 31.4452 87.4652 31.0693C87.2475 30.6836 86.9606 30.3918 86.6045 30.194C86.2485 29.9863 85.8627 29.8824 85.4473 29.8824C85.0319 29.8824 84.6413 29.9863 84.2753 30.194C83.9192 30.3918 83.6275 30.6836 83.3999 31.0693C83.1824 31.4452 83.0735 31.9002 83.0735 32.4343C83.0735 32.9684 83.1824 33.4283 83.3999 33.814C83.6275 34.1899 83.9192 34.4816 84.2753 34.6893C84.6413 34.8872 85.0319 34.9861 85.4473 34.9861ZM94.282 39.6595C93.6187 39.6595 93.0453 39.5506 92.561 39.3331C92.0862 39.1253 91.7005 38.8533 91.4038 38.5171C91.107 38.1907 90.8941 37.8544 90.7658 37.5082L92.2494 36.8851C92.4074 37.2807 92.6596 37.6022 93.0061 37.8494C93.3621 38.1066 93.7871 38.2352 94.282 38.2352C94.974 38.2352 95.5177 38.0275 95.914 37.6121C96.3189 37.1967 96.5222 36.6082 96.5222 35.8466V35.1196H96.4332C96.1958 35.4757 95.8642 35.7625 95.4392 35.9801C95.0238 36.1878 94.549 36.2916 94.0149 36.2916C93.3717 36.2916 92.7835 36.1284 92.2494 35.8021C91.7153 35.4757 91.2851 35.0207 90.9587 34.4371C90.6323 33.8437 90.4691 33.1514 90.4691 32.3601C90.4691 31.5589 90.6323 30.8666 90.9587 30.283C91.2851 29.6896 91.7153 29.2297 92.2494 28.9033C92.7835 28.5769 93.3717 28.4137 94.0149 28.4137C94.549 28.4137 95.0238 28.5225 95.4392 28.7401C95.8642 28.9576 96.1958 29.2445 96.4332 29.6006H96.5222V28.651H98.0504V35.8169C98.0504 36.6379 97.8872 37.3352 97.5608 37.9088C97.244 38.4824 96.8041 38.9176 96.2403 39.2144C95.6766 39.5111 95.0238 39.6595 94.282 39.6595ZM94.2968 34.8377C94.6921 34.8377 95.0578 34.7437 95.3947 34.5558C95.7307 34.358 96.003 34.0761 96.2107 33.7102C96.4184 33.3343 96.5222 32.8843 96.5222 32.3601C96.5222 31.8161 96.4184 31.3611 96.2107 30.9951C96.003 30.6193 95.7307 30.3374 95.3947 30.1495C95.0578 29.9616 94.6921 29.8676 94.2968 29.8676C93.9006 29.8676 93.5297 29.9665 93.1841 30.1643C92.8472 30.3522 92.5758 30.6292 92.3681 30.9951C92.1604 31.3611 92.0566 31.8161 92.0566 32.3601C92.0566 32.8942 92.1604 33.3491 92.3681 33.725C92.5758 34.0909 92.8472 34.3679 93.1841 34.5558C93.5297 34.7437 93.9006 34.8377 94.2968 34.8377ZM99.9398 36.2175V25.5948H101.542V36.2175H99.9398ZM106.815 36.4548C106.073 36.4548 105.411 36.2818 104.827 35.9356C104.244 35.5894 103.784 35.1146 103.447 34.5113C103.121 33.908 102.958 33.2206 102.958 32.4491C102.958 31.7271 103.116 31.0595 103.432 30.4462C103.749 29.833 104.189 29.3434 104.753 28.9774C105.327 28.6016 105.984 28.4137 106.726 28.4137C107.508 28.4137 108.17 28.5818 108.714 28.9181C109.268 29.2544 109.689 29.7143 109.975 30.2979C110.262 30.8814 110.405 31.5391 110.405 32.2711C110.405 32.3799 110.401 32.4788 110.391 32.5678C110.391 32.6568 110.386 32.726 110.376 32.7755H104.53C104.61 33.5272 104.871 34.0909 105.317 34.4668C105.772 34.8427 106.286 35.0306 106.86 35.0306C107.374 35.0306 107.799 34.9169 108.135 34.6893C108.472 34.452 108.739 34.1602 108.937 33.814L110.257 34.452C109.931 35.0454 109.486 35.53 108.922 35.9059C108.358 36.2718 107.656 36.4548 106.815 36.4548ZM106.741 29.7786C106.207 29.7786 105.752 29.9418 105.376 30.2682C105.001 30.5946 104.748 31.0298 104.619 31.5738H108.818C108.799 31.3166 108.714 31.0495 108.566 30.7726C108.417 30.4957 108.19 30.2632 107.883 30.0753C107.586 29.8775 107.206 29.7786 106.741 29.7786ZM116.927 36.2175L114.079 25.5948H115.889L117.58 32.4936L117.758 33.4134H117.847L118.07 32.4936L120.206 25.5948H121.838L123.885 32.4936L124.108 33.3986H124.197L124.375 32.4936L126.066 25.5948H127.861L125.057 36.2175H123.336L121.304 29.1703L121.066 28.1763H120.977L120.725 29.1703L118.604 36.2175H116.927ZM130.841 36.4548C130.297 36.4548 129.812 36.351 129.387 36.1433C128.962 35.9257 128.63 35.624 128.393 35.2383C128.155 34.8525 128.037 34.4124 128.037 33.9179C128.037 33.3838 128.176 32.9288 128.452 32.5529C128.739 32.1672 129.12 31.8755 129.595 31.6776C130.069 31.4798 130.594 31.3809 131.167 31.3809C131.642 31.3809 132.057 31.4254 132.413 31.5144C132.779 31.6034 133.057 31.6974 133.244 31.7963V31.3957C133.244 30.9012 133.066 30.5056 132.71 30.2088C132.354 29.9121 131.894 29.7638 131.33 29.7638C130.945 29.7638 130.579 29.8528 130.233 30.0308C129.886 30.199 129.609 30.4314 129.402 30.7281L128.304 29.8824C128.63 29.4275 129.06 29.0714 129.595 28.8142C130.138 28.5472 130.732 28.4137 131.375 28.4137C132.473 28.4137 133.318 28.6857 133.912 29.2297C134.505 29.7638 134.802 30.5154 134.802 31.4847V36.2175H133.244V35.2828H133.155C132.957 35.5894 132.66 35.8614 132.265 36.0988C131.87 36.3362 131.395 36.4548 130.841 36.4548ZM131.123 35.1493C131.538 35.1493 131.904 35.0504 132.221 34.8525C132.537 34.6547 132.784 34.3976 132.962 34.0811C133.15 33.7547 133.244 33.4036 133.244 33.0277C133.016 32.8992 132.749 32.7953 132.443 32.7161C132.137 32.6271 131.81 32.5826 131.464 32.5826C130.811 32.5826 130.346 32.7161 130.069 32.9832C129.793 33.2404 129.654 33.5568 129.654 33.9327C129.654 34.2888 129.787 34.5805 130.055 34.808C130.322 35.0356 130.678 35.1493 131.123 35.1493ZM136.581 36.2175V25.5948H138.183V36.2175H136.581ZM140.087 36.2175V25.5948H141.69V36.2175H140.087ZM146.962 36.4548C146.221 36.4548 145.558 36.2818 144.974 35.9356C144.391 35.5894 143.932 35.1146 143.595 34.5113C143.268 33.908 143.105 33.2206 143.105 32.4491C143.105 31.7271 143.264 31.0595 143.58 30.4462C143.897 29.833 144.336 29.3434 144.9 28.9774C145.474 28.6016 146.132 28.4137 146.873 28.4137C147.655 28.4137 148.318 28.5818 148.861 28.9181C149.416 29.2544 149.836 29.7143 150.123 30.2979C150.41 30.8814 150.553 31.5391 150.553 32.2711C150.553 32.3799 150.548 32.4788 150.538 32.5678C150.538 32.6568 150.534 32.726 150.523 32.7755H144.678C144.757 33.5272 145.019 34.0909 145.464 34.4668C145.92 34.8427 146.434 35.0306 147.007 35.0306C147.522 35.0306 147.947 34.9169 148.283 34.6893C148.62 34.452 148.887 34.1602 149.084 33.814L150.404 34.452C150.078 35.0454 149.633 35.53 149.069 35.9059C148.505 36.2718 147.804 36.4548 146.962 36.4548ZM146.888 29.7786C146.354 29.7786 145.899 29.9418 145.523 30.2682C145.148 30.5946 144.896 31.0298 144.767 31.5738H148.965C148.946 31.3166 148.861 31.0495 148.713 30.7726C148.565 30.4957 148.338 30.2632 148.031 30.0753C147.734 29.8775 147.353 29.7786 146.888 29.7786ZM152.624 34.0217V30.0456H151.303V28.651H152.624V26.5146H154.226V28.651H156.081V30.0456H154.226V33.6805C154.226 34.0564 154.3 34.3431 154.449 34.541C154.607 34.7388 154.868 34.8377 155.235 34.8377C155.423 34.8377 155.581 34.813 155.71 34.7635C155.848 34.714 155.986 34.6448 156.125 34.5558V36.1136C155.957 36.1828 155.779 36.2373 155.591 36.2768C155.402 36.3163 155.18 36.3362 154.923 36.3362C154.221 36.3362 153.662 36.1334 153.247 35.7279C152.831 35.3125 152.624 34.7437 152.624 34.0217Z" fill="white"/>
<path d="M149.672 0.436523H24.0008C10.9871 0.436523 0.4375 10.9862 0.4375 23.9998C0.4375 37.0134 10.9871 47.563 24.0008 47.563H149.672C162.685 47.563 173.235 37.0134 173.235 23.9998C173.235 10.9862 162.685 0.436523 149.672 0.436523Z" stroke="#747775"/>
</g>
<defs>
<linearGradient id="paint0_linear_568_637" x1="32.5397" y1="29.7109" x2="16.3927" y2="48.6295" gradientUnits="userSpaceOnUse">
<stop stop-color="#4285F4"/>
<stop offset="1" stop-color="#1B74E8"/>
</linearGradient>
<clipPath id="clip0_568_637">
<rect width="173.67" height="47.9992" fill="white"/>
</clipPath>
</defs>
</svg>
