<svg width="174" height="51" viewBox="0 0 174 51" fill="none" xmlns="http://www.w3.org/2000/svg">
<g clip-path="url(#clip0_568_960)">
<path d="M148.402 0.458984H25.2709C11.5688 0.458984 0.460938 11.5668 0.460938 25.269C0.460938 38.9712 11.5688 50.079 25.2709 50.079H148.402C162.104 50.079 173.212 38.9712 173.212 25.269C173.212 11.5668 162.104 0.458984 148.402 0.458984Z" fill="#1F1F1F"/>
<path d="M52.3769 21.8614H19.2969V16.6739C19.2969 13.8578 21.7248 11.4863 24.6079 11.4863H47.0659C49.949 11.4863 52.3769 13.8578 52.3769 16.6739V21.8614Z" fill="#34A853"/>
<path d="M52.3769 26.6478H19.2969V21.1344C19.2969 18.1415 21.7248 15.6211 24.6079 15.6211H47.0659C49.949 15.6211 52.3769 18.1415 52.3769 21.1344V26.6478Z" fill="#FBBC04"/>
<path d="M52.3769 31.2425H19.2969V25.7292C19.2969 22.7362 21.7248 20.2158 24.6079 20.2158H47.0659C49.949 20.2158 52.3769 22.7362 52.3769 25.7292V31.2425Z" fill="#EA4335"/>
<path d="M19.2969 23.1939L40.2928 27.9368C42.7097 28.5297 45.4286 27.9368 47.3922 26.4547L52.3769 22.8975V34.0136C52.3769 36.8297 49.9601 39.053 47.0901 39.053H24.5836C21.7136 39.053 19.2969 36.8297 19.2969 34.0136V23.1939Z" fill="url(#paint0_linear_568_960)"/>
<path d="M68.421 19.9474C67.8078 19.9474 67.2304 19.8359 66.6889 19.6129C66.1553 19.3899 65.6815 19.0793 65.2674 18.6812C64.8532 18.275 64.5267 17.8011 64.2878 17.2596C64.0569 16.7101 63.9414 16.1168 63.9414 15.4797C63.9414 14.8427 64.0569 14.2533 64.2878 13.7118C64.5267 13.1623 64.8493 12.6884 65.2554 12.2903C65.6696 11.8841 66.1474 11.5696 66.6889 11.3466C67.2304 11.1236 67.8078 11.0121 68.421 11.0121C69.074 11.0121 69.6753 11.1276 70.2248 11.3585C70.7823 11.5894 71.2481 11.912 71.6224 12.3261L70.7145 13.222C70.4358 12.9114 70.1014 12.6725 69.7111 12.5053C69.3289 12.3381 68.8988 12.2544 68.421 12.2544C67.8556 12.2544 67.3339 12.3898 66.8561 12.6606C66.3783 12.9234 65.9921 13.2977 65.6974 13.7835C65.4107 14.2613 65.2674 14.8267 65.2674 15.4797C65.2674 16.1328 65.4147 16.7021 65.7094 17.188C66.004 17.6658 66.3902 18.04 66.8681 18.3108C67.3459 18.5736 67.8675 18.705 68.4329 18.705C68.9505 18.705 69.4205 18.6095 69.8425 18.4183C70.2646 18.2192 70.6031 17.9405 70.8579 17.5822C71.1207 17.2238 71.2799 16.7938 71.3357 16.292H68.409V15.1333H72.5661C72.6139 15.3483 72.6378 15.5753 72.6378 15.8142V15.8262C72.6378 16.6544 72.4546 17.3791 72.0883 18.0003C71.7299 18.6134 71.2321 19.0913 70.5951 19.4337C69.958 19.7762 69.2333 19.9474 68.421 19.9474ZM76.4841 19.9474C75.855 19.9474 75.3015 19.804 74.8237 19.5173C74.3459 19.2306 73.9716 18.8444 73.7008 18.3586C73.43 17.8728 73.2947 17.3233 73.2947 16.7101C73.2947 16.1049 73.43 15.5594 73.7008 15.0736C73.9716 14.5799 74.3459 14.1896 74.8237 13.9029C75.3015 13.6162 75.855 13.4729 76.4841 13.4729C77.1053 13.4729 77.6548 13.6162 78.1326 13.9029C78.6105 14.1896 78.9847 14.5799 79.2555 15.0736C79.5263 15.5594 79.6617 16.1049 79.6617 16.7101C79.6617 17.3233 79.5263 17.8728 79.2555 18.3586C78.9847 18.8444 78.6105 19.2306 78.1326 19.5173C77.6548 19.804 77.1053 19.9474 76.4841 19.9474ZM76.4841 18.7648C76.8186 18.7648 77.1292 18.6851 77.4159 18.5259C77.7026 18.3586 77.9335 18.1237 78.1087 17.8211C78.2919 17.5105 78.3835 17.1402 78.3835 16.7101C78.3835 16.2801 78.2919 15.9137 78.1087 15.6111C77.9335 15.3006 77.7026 15.0656 77.4159 14.9064C77.1292 14.7391 76.8186 14.6555 76.4841 14.6555C76.1497 14.6555 75.8351 14.7391 75.5405 14.9064C75.2538 15.0656 75.0188 15.3006 74.8357 15.6111C74.6604 15.9137 74.5729 16.2801 74.5729 16.7101C74.5729 17.1402 74.6604 17.5105 74.8357 17.8211C75.0188 18.1237 75.2538 18.3586 75.5405 18.5259C75.8351 18.6851 76.1497 18.7648 76.4841 18.7648ZM83.7168 19.9474C83.0877 19.9474 82.5342 19.804 82.0564 19.5173C81.5786 19.2306 81.2043 18.8444 80.9335 18.3586C80.6627 17.8728 80.5274 17.3233 80.5274 16.7101C80.5274 16.1049 80.6627 15.5594 80.9335 15.0736C81.2043 14.5799 81.5786 14.1896 82.0564 13.9029C82.5342 13.6162 83.0877 13.4729 83.7168 13.4729C84.338 13.4729 84.8875 13.6162 85.3653 13.9029C85.8431 14.1896 86.2174 14.5799 86.4882 15.0736C86.759 15.5594 86.8943 16.1049 86.8943 16.7101C86.8943 17.3233 86.759 17.8728 86.4882 18.3586C86.2174 18.8444 85.8431 19.2306 85.3653 19.5173C84.8875 19.804 84.338 19.9474 83.7168 19.9474ZM83.7168 18.7648C84.0513 18.7648 84.3619 18.6851 84.6486 18.5259C84.9353 18.3586 85.1662 18.1237 85.3414 17.8211C85.5245 17.5105 85.6162 17.1402 85.6162 16.7101C85.6162 16.2801 85.5245 15.9137 85.3414 15.6111C85.1662 15.3006 84.9353 15.0656 84.6486 14.9064C84.3619 14.7391 84.0513 14.6555 83.7168 14.6555C83.3823 14.6555 83.0678 14.7391 82.7731 14.9064C82.4864 15.0656 82.2515 15.3006 82.0683 15.6111C81.8931 15.9137 81.8055 16.2801 81.8055 16.7101C81.8055 17.1402 81.8931 17.5105 82.0683 17.8211C82.2515 18.1237 82.4864 18.3586 82.7731 18.5259C83.0678 18.6851 83.3823 18.7648 83.7168 18.7648ZM90.83 22.5276C90.2964 22.5276 89.8346 22.44 89.4443 22.2648C89.0621 22.0976 88.7515 21.8786 88.5126 21.6078C88.2737 21.345 88.1025 21.0742 87.9989 20.7955L89.1935 20.2938C89.3209 20.6124 89.524 20.8711 89.8027 21.0703C90.0894 21.2773 90.4319 21.3808 90.83 21.3808C91.3875 21.3808 91.8255 21.2136 92.1439 20.8791C92.4702 20.5447 92.6337 20.0708 92.6337 19.4576V18.8723H92.562C92.3709 19.159 92.1044 19.3899 91.7618 19.5651C91.4273 19.7324 91.045 19.816 90.615 19.816C90.0974 19.816 89.6235 19.6846 89.1935 19.4218C88.7634 19.159 88.417 18.7926 88.1542 18.3228C87.8914 17.845 87.76 17.2875 87.76 16.6504C87.76 16.0053 87.8914 15.4479 88.1542 14.978C88.417 14.5002 88.7634 14.1299 89.1935 13.8671C89.6235 13.6043 90.0974 13.4729 90.615 13.4729C91.045 13.4729 91.4273 13.5605 91.7618 13.7357C92.1044 13.9109 92.3709 14.1418 92.562 14.4285H92.6337V13.664H93.8641V19.4337C93.8641 20.0947 93.7327 20.6561 93.4699 21.118C93.2154 21.58 92.8607 21.9303 92.4067 22.1693C91.9528 22.4082 91.4273 22.5276 90.83 22.5276ZM90.842 18.6453C91.1605 18.6453 91.4551 18.5697 91.7259 18.4183C91.9969 18.2591 92.2156 18.0321 92.3829 17.7375C92.5501 17.4349 92.6337 17.0725 92.6337 16.6504C92.6337 16.2124 92.5501 15.8461 92.3829 15.5514C92.2156 15.2488 91.9969 15.0219 91.7259 14.8705C91.4551 14.7192 91.1605 14.6436 90.842 14.6436C90.5234 14.6436 90.2248 14.7232 89.9461 14.8825C89.6753 15.0338 89.4563 15.2567 89.289 15.5514C89.1218 15.8461 89.0382 16.2124 89.0382 16.6504C89.0382 17.0804 89.1218 17.4468 89.289 17.7494C89.4563 18.0441 89.6753 18.267 89.9461 18.4183C90.2248 18.5697 90.5234 18.6453 90.842 18.6453ZM95.3858 19.7563V11.2032H96.6759V19.7563H95.3858ZM100.921 19.9474C100.324 19.9474 99.7909 19.808 99.3205 19.5293C98.8509 19.2506 98.4806 18.8683 98.2095 18.3825C97.9467 17.8967 97.8153 17.3432 97.8153 16.7221C97.8153 16.1407 97.943 15.6031 98.1976 15.1094C98.453 14.6157 98.8068 14.2215 99.2607 13.9268C99.7229 13.6242 100.252 13.4729 100.849 13.4729C101.479 13.4729 102.013 13.6082 102.45 13.879C102.897 14.1498 103.235 14.5201 103.466 14.99C103.697 15.4598 103.812 15.9894 103.812 16.5787C103.812 16.6663 103.808 16.746 103.8 16.8176C103.8 16.8893 103.796 16.9451 103.788 16.9849H99.0816C99.1459 17.5902 99.3563 18.0441 99.7147 18.3467C100.081 18.6493 100.496 18.8006 100.957 18.8006C101.371 18.8006 101.714 18.709 101.984 18.5259C102.255 18.3347 102.47 18.0998 102.629 17.8211L103.693 18.3347C103.43 18.8126 103.071 19.2028 102.617 19.5054C102.164 19.8001 101.598 19.9474 100.921 19.9474ZM100.861 14.5719C100.431 14.5719 100.066 14.7033 99.7625 14.9661C99.4601 15.2289 99.2571 15.5793 99.1532 16.0173H102.534C102.518 15.8103 102.45 15.5952 102.331 15.3722C102.211 15.1492 102.028 14.9621 101.781 14.8108C101.542 14.6515 101.236 14.5719 100.861 14.5719ZM111.804 19.9474C111.176 19.9474 110.591 19.8359 110.048 19.6129C109.507 19.382 109.033 19.0634 108.627 18.6573C108.229 18.2511 107.915 17.7772 107.683 17.2357C107.461 16.6942 107.349 16.1089 107.349 15.4797C107.349 14.8506 107.461 14.2652 107.683 13.7237C107.915 13.1822 108.229 12.7084 108.627 12.3022C109.033 11.8961 109.507 11.5815 110.048 11.3585C110.591 11.1276 111.176 11.0121 111.804 11.0121C112.473 11.0121 113.071 11.1355 113.596 11.3824C114.122 11.6213 114.58 11.9638 114.97 12.4097L114.05 13.3056C113.764 12.9632 113.437 12.7044 113.071 12.5292C112.712 12.3461 112.294 12.2544 111.816 12.2544C111.243 12.2544 110.717 12.3898 110.24 12.6606C109.762 12.9234 109.38 13.2977 109.093 13.7835C108.814 14.2613 108.675 14.8267 108.675 15.4797C108.675 16.1328 108.814 16.7021 109.093 17.188C109.38 17.6658 109.762 18.04 110.24 18.3108C110.717 18.5736 111.243 18.705 111.816 18.705C112.335 18.705 112.792 18.5975 113.19 18.3825C113.596 18.1675 113.955 17.8728 114.265 17.4985L115.209 18.4064C114.811 18.8762 114.321 19.2506 113.74 19.5293C113.166 19.808 112.521 19.9474 111.804 19.9474ZM118.5 19.9474C117.752 19.9474 117.186 19.7244 116.803 19.2784C116.429 18.8245 116.242 18.2113 116.242 17.4388V13.664H117.532V17.2596C117.532 17.7772 117.651 18.1595 117.89 18.4064C118.137 18.6453 118.444 18.7648 118.81 18.7648C119.137 18.7648 119.419 18.6812 119.658 18.5139C119.905 18.3387 120.093 18.1158 120.22 17.845C120.356 17.5663 120.423 17.2636 120.423 16.9371V13.664H121.701V19.7563H120.494V18.932H120.423C120.248 19.2187 119.985 19.4616 119.634 19.6607C119.293 19.8518 118.914 19.9474 118.5 19.9474ZM120.029 12.4217C119.83 12.4217 119.655 12.35 119.503 12.2067C119.36 12.0553 119.288 11.8761 119.288 11.6691C119.288 11.4621 119.36 11.2908 119.503 11.1554C119.655 11.0121 119.83 10.9404 120.029 10.9404C120.244 10.9404 120.423 11.0121 120.566 11.1554C120.709 11.2908 120.781 11.4621 120.781 11.6691C120.781 11.8761 120.709 12.0553 120.566 12.2067C120.423 12.35 120.244 12.4217 120.029 12.4217ZM117.914 12.4217C117.716 12.4217 117.54 12.35 117.389 12.2067C117.245 12.0553 117.174 11.8761 117.174 11.6691C117.174 11.4621 117.245 11.2908 117.389 11.1554C117.54 11.0121 117.716 10.9404 117.914 10.9404C118.129 10.9404 118.305 11.0121 118.44 11.1554C118.583 11.2908 118.655 11.4621 118.655 11.6691C118.655 11.8761 118.583 12.0553 118.44 12.2067C118.305 12.35 118.129 12.4217 117.914 12.4217ZM123.084 19.7563V18.6812L126.476 14.7869H123.191V13.664H128.053V14.7391L124.673 18.6334H128.149V19.7563H123.084ZM131.843 19.9474C131.293 19.9474 130.795 19.812 130.35 19.5412C129.911 19.2625 129.561 18.8803 129.298 18.3945C129.044 17.9007 128.916 17.3393 128.916 16.7101C128.916 16.081 129.044 15.5236 129.298 15.0378C129.561 14.5519 129.911 14.1697 130.35 13.891C130.795 13.6123 131.293 13.4729 131.843 13.4729C132.312 13.4729 132.715 13.5764 133.049 13.7835C133.392 13.9905 133.643 14.2255 133.802 14.4883H133.873L133.802 13.6401V11.2032H135.08V19.7563H133.873V18.944H133.802C133.643 19.2068 133.392 19.4417 133.049 19.6487C132.715 19.8479 132.312 19.9474 131.843 19.9474ZM132.034 18.7648C132.353 18.7648 132.651 18.6812 132.93 18.5139C133.216 18.3467 133.443 18.1117 133.611 17.8091C133.786 17.4985 133.873 17.1322 133.873 16.7101C133.873 16.2881 133.786 15.9257 133.611 15.6231C133.443 15.3125 133.216 15.0736 132.93 14.9064C132.651 14.7391 132.353 14.6555 132.034 14.6555C131.715 14.6555 131.416 14.7391 131.138 14.9064C130.859 15.0736 130.633 15.3125 130.457 15.6231C130.282 15.9257 130.194 16.2881 130.194 16.7101C130.194 17.1322 130.282 17.4985 130.457 17.8091C130.633 18.1117 130.859 18.3467 131.138 18.5139C131.416 18.6812 131.715 18.7648 132.034 18.7648ZM138.452 19.9474C138.015 19.9474 137.624 19.8638 137.282 19.6965C136.94 19.5213 136.672 19.2784 136.481 18.9678C136.29 18.6573 136.195 18.3028 136.195 17.9047C136.195 17.4746 136.307 17.1083 136.529 16.8057C136.761 16.4951 137.067 16.2602 137.449 16.1009C137.831 15.9417 138.254 15.862 138.715 15.862C139.097 15.862 139.432 15.8978 139.718 15.9695C140.013 16.0412 140.237 16.1168 140.387 16.1965V15.8739C140.387 15.4758 140.244 15.1572 139.957 14.9183C139.671 14.6794 139.3 14.5599 138.846 14.5599C138.536 14.5599 138.242 14.6316 137.962 14.775C137.684 14.9103 137.461 15.0975 137.294 15.3364L136.41 14.6555C136.672 14.2891 137.019 14.0024 137.449 13.7954C137.887 13.5804 138.365 13.4729 138.882 13.4729C139.766 13.4729 140.447 13.6919 140.925 14.1299C141.403 14.5599 141.642 15.1652 141.642 15.9456V19.7563H140.387V19.0037H140.316C140.157 19.2506 139.918 19.4696 139.599 19.6607C139.281 19.8518 138.899 19.9474 138.452 19.9474ZM138.679 18.8962C139.014 18.8962 139.309 18.8165 139.563 18.6573C139.819 18.498 140.017 18.2909 140.16 18.0361C140.312 17.7733 140.387 17.4905 140.387 17.188C140.205 17.0844 139.99 17.0008 139.742 16.9371C139.496 16.8654 139.233 16.8296 138.954 16.8296C138.428 16.8296 138.054 16.9371 137.831 17.1521C137.609 17.3591 137.497 17.614 137.497 17.9166C137.497 18.2033 137.604 18.4383 137.819 18.6214C138.034 18.8046 138.321 18.8962 138.679 18.8962ZM143.062 19.7563V13.664H144.281V14.5002H144.352C144.528 14.2055 144.786 13.9627 145.129 13.7715C145.479 13.5724 145.861 13.4729 146.276 13.4729C147.025 13.4729 147.586 13.6959 147.96 14.1418C148.334 14.5878 148.521 15.1772 148.521 15.9098V19.7563H147.243V16.077C147.243 15.5833 147.12 15.2249 146.873 15.0019C146.626 14.771 146.303 14.6555 145.905 14.6555C145.595 14.6555 145.324 14.7431 145.093 14.9183C144.862 15.0855 144.679 15.3086 144.544 15.5873C144.416 15.8659 144.352 16.1646 144.352 16.4832V19.7563H143.062ZM151.845 19.9474C151.407 19.9474 151.016 19.8638 150.674 19.6965C150.332 19.5213 150.065 19.2784 149.874 18.9678C149.683 18.6573 149.587 18.3028 149.587 17.9047C149.587 17.4746 149.699 17.1083 149.922 16.8057C150.152 16.4951 150.459 16.2602 150.842 16.1009C151.224 15.9417 151.646 15.862 152.108 15.862C152.49 15.862 152.825 15.8978 153.111 15.9695C153.405 16.0412 153.629 16.1168 153.78 16.1965V15.8739C153.78 15.4758 153.637 15.1572 153.35 14.9183C153.064 14.6794 152.693 14.5599 152.239 14.5599C151.929 14.5599 151.634 14.6316 151.355 14.775C151.076 14.9103 150.854 15.0975 150.686 15.3364L149.802 14.6555C150.065 14.2891 150.412 14.0024 150.842 13.7954C151.279 13.5804 151.757 13.4729 152.275 13.4729C153.159 13.4729 153.84 13.6919 154.318 14.1299C154.796 14.5599 155.035 15.1652 155.035 15.9456V19.7563H153.78V19.0037H153.709C153.549 19.2506 153.31 19.4696 152.992 19.6607C152.673 19.8518 152.291 19.9474 151.845 19.9474ZM152.072 18.8962C152.407 18.8962 152.701 18.8165 152.956 18.6573C153.211 18.498 153.41 18.2909 153.553 18.0361C153.704 17.7733 153.78 17.4905 153.78 17.188C153.596 17.0844 153.381 17.0008 153.135 16.9371C152.888 16.8654 152.625 16.8296 152.347 16.8296C151.821 16.8296 151.446 16.9371 151.224 17.1521C151.001 17.3591 150.889 17.614 150.889 17.9166C150.889 18.2033 150.997 18.4383 151.212 18.6214C151.427 18.8046 151.714 18.8962 152.072 18.8962Z" fill="white"/>
<path d="M68.0263 38.3839C67.2453 38.3839 66.5476 38.2017 65.9331 37.8371C65.3186 37.4726 64.8344 36.9727 64.4803 36.3375C64.1367 35.7023 63.9648 34.9785 63.9648 34.1662C63.9648 33.406 64.1314 32.703 64.4647 32.0573C64.798 31.4116 65.2614 30.8961 65.855 30.5108C66.459 30.1151 67.1516 29.9172 67.9326 29.9172C68.7553 29.9172 69.4531 30.0943 70.0258 30.4484C70.6091 30.8024 71.0516 31.2867 71.3536 31.9011C71.6557 32.5156 71.8066 33.208 71.8066 33.9787C71.8066 34.0933 71.8014 34.1974 71.791 34.2911C71.791 34.3849 71.7858 34.4577 71.7754 34.5098H65.6207C65.704 35.3013 65.98 35.8949 66.4486 36.2906C66.9276 36.6864 67.4692 36.8842 68.0732 36.8842C68.6147 36.8842 69.0626 36.7645 69.4166 36.525C69.7707 36.275 70.0518 35.9678 70.2601 35.6033L71.6504 36.275C71.3068 36.8999 70.8381 37.4101 70.2445 37.8059C69.6509 38.1912 68.9115 38.3839 68.0263 38.3839ZM67.9482 31.3544C67.3859 31.3544 66.9069 31.5262 66.5111 31.8699C66.1153 32.2135 65.8498 32.6718 65.7144 33.2445H70.1352C70.1143 32.9737 70.0258 32.6926 69.8696 32.401C69.7134 32.1094 69.4739 31.8646 69.151 31.6668C68.8386 31.4585 68.4377 31.3544 67.9482 31.3544ZM73.3718 38.1339V26.9492H75.0589V33.5413L78.433 30.1672H80.5263V30.2609L77.4489 33.307L80.6356 38.0402V38.1339H78.6361L76.2617 34.4786L75.0589 35.6658V38.1339H73.3718ZM81.7014 38.1339V26.9492H83.3885V38.1339H81.7014ZM88.9409 38.3839C88.1598 38.3839 87.4621 38.2017 86.8477 37.8371C86.2333 37.4726 85.749 36.9727 85.3949 36.3375C85.0512 35.7023 84.8794 34.9785 84.8794 34.1662C84.8794 33.406 85.0461 32.703 85.3793 32.0573C85.7126 31.4116 86.176 30.8961 86.7696 30.5108C87.3736 30.1151 88.0661 29.9172 88.8472 29.9172C89.6699 29.9172 90.3676 30.0943 90.9404 30.4484C91.5236 30.8024 91.9661 31.2867 92.2685 31.9011C92.5699 32.5156 92.7215 33.208 92.7215 33.9787C92.7215 34.0933 92.716 34.1974 92.7058 34.2911C92.7058 34.3849 92.7003 34.4577 92.6902 34.5098H86.5352C86.6186 35.3013 86.8945 35.8949 87.3632 36.2906C87.8423 36.6864 88.3838 36.8842 88.9877 36.8842C89.5293 36.8842 89.9771 36.7645 90.3312 36.525C90.6853 36.275 90.9665 35.9678 91.1747 35.6033L92.5653 36.275C92.2216 36.8999 91.7527 37.4101 91.1591 37.8059C90.5655 38.1912 89.8261 38.3839 88.9409 38.3839ZM88.8628 31.3544C88.3004 31.3544 87.8214 31.5262 87.4256 31.8699C87.03 32.2135 86.7644 32.6718 86.629 33.2445H91.0497C91.029 32.9737 90.9404 32.6926 90.7842 32.401C90.628 32.1094 90.3885 31.8646 90.0656 31.6668C89.7532 31.4585 89.3523 31.3544 88.8628 31.3544Z" fill="white"/>
<path d="M148.402 0.458984H25.2709C11.5688 0.458984 0.460938 11.5668 0.460938 25.269C0.460938 38.9712 11.5688 50.079 25.2709 50.079H148.402C162.104 50.079 173.212 38.9712 173.212 25.269C173.212 11.5668 162.104 0.458984 148.402 0.458984Z" stroke="#747775"/>
</g>
<defs>
<linearGradient id="paint0_linear_568_960" x1="34.2603" y1="31.2837" x2="17.2591" y2="51.2033" gradientUnits="userSpaceOnUse">
<stop stop-color="#4285F4"/>
<stop offset="1" stop-color="#1B74E8"/>
</linearGradient>
<clipPath id="clip0_568_960">
<rect width="173.67" height="50.5389" fill="white"/>
</clipPath>
</defs>
</svg>
