<svg width="174" height="45" viewBox="0 0 174 45" fill="none" xmlns="http://www.w3.org/2000/svg">
<g clip-path="url(#clip0_568_619)">
<path d="M151.246 0.407227H22.4208C10.2625 0.407227 0.40625 10.2635 0.40625 22.4217C0.40625 34.58 10.2625 44.4362 22.4208 44.4362H151.246C163.405 44.4362 173.261 34.58 173.261 22.4217C173.261 10.2635 163.405 0.407227 151.246 0.407227Z" fill="#1F1F1F"/>
<path d="M46.4738 19.3984H17.1211V14.7955C17.1211 12.2966 19.2754 10.1924 21.8337 10.1924H41.7612C44.3194 10.1924 46.4738 12.2966 46.4738 14.7955V19.3984Z" fill="#34A853"/>
<path d="M46.4738 23.6456H17.1211V18.7534C17.1211 16.0978 19.2754 13.8613 21.8337 13.8613H41.7612C44.3194 13.8613 46.4738 16.0978 46.4738 18.7534V23.6456Z" fill="#FBBC04"/>
<path d="M46.4738 27.7217H17.1211V22.8296C17.1211 20.1739 19.2754 17.9375 21.8337 17.9375H41.7612C44.3194 17.9375 46.4738 20.1739 46.4738 22.8296V27.7217Z" fill="#EA4335"/>
<path d="M17.1211 20.5804L35.7513 24.7889C37.8959 25.315 40.3084 24.7889 42.0507 23.4738L46.4738 20.3174V30.181C46.4738 32.6798 44.3293 34.6526 41.7827 34.6526H21.8121C19.2656 34.6526 17.1211 32.6798 17.1211 30.181V20.5804Z" fill="url(#paint0_linear_568_619)"/>
<path d="M57.1172 17.5304V9.94106H59.7247C60.184 9.94106 60.6009 10.04 60.9754 10.2378C61.3499 10.4357 61.6467 10.7077 61.8658 11.054C62.0919 11.4003 62.205 11.8031 62.205 12.2624C62.205 12.7217 62.0919 13.128 61.8658 13.4813C61.6467 13.8276 61.3499 14.0996 60.9754 14.2975C60.6009 14.4883 60.184 14.5837 59.7247 14.5837H58.2831V17.5304H57.1172ZM59.7565 11.0434H58.2831V13.4813H59.7565C60.0321 13.4813 60.2653 13.4248 60.4561 13.3117C60.6468 13.1916 60.7917 13.0396 60.8906 12.8559C60.9966 12.6651 61.0496 12.4673 61.0496 12.2624C61.0496 12.0575 60.9966 11.8631 60.8906 11.6794C60.7917 11.4957 60.6468 11.3437 60.4561 11.2236C60.2653 11.1035 60.0321 11.0434 59.7565 11.0434ZM63.2096 17.5304V12.1246H64.2907V12.9195H64.3543C64.4744 12.6439 64.6793 12.4179 64.9691 12.2412C65.2659 12.0575 65.5839 11.9656 65.9231 11.9656C66.0715 11.9656 66.1951 11.9762 66.2941 11.9974C66.4 12.0186 66.4955 12.0433 66.5802 12.0716V13.2587C66.446 13.2022 66.3082 13.1562 66.1669 13.1209C66.0326 13.0856 65.8913 13.0679 65.7429 13.0679C65.4743 13.0679 65.2341 13.1421 65.0221 13.2905C64.8171 13.4318 64.6546 13.6262 64.5345 13.8735C64.4143 14.1138 64.3543 14.3788 64.3543 14.6685V17.5304H63.2096ZM68.121 11.3296C67.909 11.3296 67.7253 11.2554 67.5698 11.107C67.4214 10.9515 67.3472 10.7678 67.3472 10.5558C67.3472 10.3438 67.4214 10.1636 67.5698 10.0153C67.7253 9.86686 67.909 9.79266 68.121 9.79266C68.333 9.79266 68.5132 9.86686 68.6616 10.0153C68.8171 10.1636 68.8948 10.3438 68.8948 10.5558C68.8948 10.7678 68.8171 10.9515 68.6616 11.107C68.5132 11.2554 68.333 11.3296 68.121 11.3296ZM67.5486 17.5304V12.1246H68.6934V17.5304H67.5486ZM72.3727 17.6999C71.8852 17.6999 71.4435 17.5798 71.0478 17.3396C70.6591 17.0923 70.3482 16.7531 70.115 16.322C69.8889 15.8839 69.7759 15.3857 69.7759 14.8275C69.7759 14.2692 69.8889 13.7746 70.115 13.3435C70.3482 12.9124 70.6591 12.5733 71.0478 12.326C71.4435 12.0787 71.8852 11.955 72.3727 11.955C72.7896 11.955 73.1465 12.0469 73.4433 12.2306C73.7471 12.4143 73.9697 12.6227 74.1111 12.8559H74.1747L74.1111 12.1034V9.94106H75.2452V17.5304H74.1747V16.8096H74.1111C73.9697 17.0428 73.7471 17.2513 73.4433 17.435C73.1465 17.6116 72.7896 17.6999 72.3727 17.6999ZM72.5423 16.6506C72.8249 16.6506 73.0899 16.5764 73.3373 16.428C73.5917 16.2796 73.7931 16.0711 73.9415 15.8026C74.0969 15.527 74.1747 15.202 74.1747 14.8275C74.1747 14.453 74.0969 14.1314 73.9415 13.8629C73.7931 13.5873 73.5917 13.3753 73.3373 13.2269C73.0899 13.0785 72.8249 13.0043 72.5423 13.0043C72.2597 13.0043 71.9947 13.0785 71.7474 13.2269C71.5 13.3753 71.2986 13.5873 71.1432 13.8629C70.9877 14.1314 70.91 14.453 70.91 14.8275C70.91 15.202 70.9877 15.527 71.1432 15.8026C71.2986 16.0711 71.5 16.2796 71.7474 16.428C71.9947 16.5764 72.2597 16.6506 72.5423 16.6506ZM79.0115 17.6999C78.4815 17.6999 78.0081 17.5763 77.5912 17.329C77.1743 17.0817 76.8457 16.7425 76.6054 16.3114C76.3722 15.8803 76.2556 15.3892 76.2556 14.8381C76.2556 14.3222 76.3687 13.8452 76.5948 13.4071C76.821 12.969 77.1354 12.6192 77.5382 12.3578C77.948 12.0893 78.4179 11.955 78.9479 11.955C79.5062 11.955 79.9797 12.0751 80.3683 12.3154C80.764 12.5556 81.0643 12.8842 81.2692 13.3011C81.4742 13.718 81.5769 14.188 81.5769 14.7109C81.5769 14.7886 81.5729 14.8593 81.5663 14.9229C81.5663 14.9865 81.5623 15.0359 81.5557 15.0713H77.3792C77.4358 15.6083 77.623 16.0111 77.941 16.2796C78.266 16.5481 78.6335 16.6824 79.0433 16.6824C79.4108 16.6824 79.7147 16.6011 79.9549 16.4386C80.1952 16.269 80.386 16.0605 80.5273 15.8132L81.4706 16.269C81.2374 16.693 80.9194 17.0393 80.5167 17.3078C80.1139 17.5692 79.6122 17.6999 79.0115 17.6999ZM78.9585 12.9301C78.5769 12.9301 78.2519 13.0467 77.9834 13.2799C77.7149 13.5131 77.5347 13.824 77.4428 14.2127H80.4425C80.4283 14.029 80.3683 13.8382 80.2623 13.6403C80.1563 13.4424 79.9938 13.2764 79.7747 13.1421C79.5627 13.0008 79.2907 12.9301 78.9585 12.9301ZM78.9479 11.0646C78.7642 11.0646 78.6052 10.9975 78.4709 10.8632C78.3367 10.7289 78.2695 10.5664 78.2695 10.3756C78.2695 10.1848 78.3367 10.0259 78.4709 9.89866C78.6052 9.76437 78.7642 9.69727 78.9479 9.69727C79.1458 9.69727 79.3083 9.76437 79.4355 9.89866C79.5627 10.0259 79.6263 10.1848 79.6263 10.3756C79.6263 10.5664 79.5627 10.7289 79.4355 10.8632C79.3083 10.9975 79.1458 11.0646 78.9479 11.0646ZM83.056 15.9616V13.1209H82.1126V12.1246H83.056V10.5982H84.2007V12.1246H85.5257V13.1209H84.2007V15.7178C84.2007 15.9863 84.2537 16.1913 84.3597 16.3326C84.4722 16.4739 84.6598 16.5446 84.9215 16.5446C85.0552 16.5446 85.1686 16.5269 85.2607 16.4916C85.3594 16.4563 85.458 16.4068 85.5575 16.3432V17.4562C85.4368 17.5056 85.3096 17.5445 85.1759 17.5728C85.0414 17.601 84.8824 17.6152 84.6989 17.6152C84.1967 17.6152 83.798 17.4703 83.5012 17.1806C83.2044 16.8838 83.056 16.4775 83.056 15.9616ZM87.3325 11.3296C87.1205 11.3296 86.9371 11.2554 86.7813 11.107C86.6329 10.9515 86.5587 10.7678 86.5587 10.5558C86.5587 10.3438 86.6329 10.1636 86.7813 10.0153C86.9371 9.86686 87.1205 9.79266 87.3325 9.79266C87.5445 9.79266 87.7247 9.86686 87.8731 10.0153C88.0288 10.1636 88.1063 10.3438 88.1063 10.5558C88.1063 10.7678 88.0288 10.9515 87.8731 11.107C87.7247 11.2554 87.5445 11.3296 87.3325 11.3296ZM86.7601 17.5304V12.1246H87.9049V17.5304H86.7601ZM91.7892 19.8199V12.1246H92.8598V12.8559H92.9234C93.0644 12.6227 93.2838 12.4143 93.5805 12.2306C93.8839 12.0469 94.2442 11.955 94.6617 11.955C95.1558 11.955 95.5977 12.0787 95.9866 12.326C96.3748 12.5733 96.6821 12.9124 96.9088 13.3435C97.142 13.7746 97.2586 14.2692 97.2586 14.8275C97.2586 15.3857 97.142 15.8839 96.9088 16.322C96.6821 16.7531 96.3748 17.0923 95.9866 17.3396C95.5977 17.5798 95.1558 17.6999 94.6617 17.6999C94.2442 17.6999 93.8839 17.6116 93.5805 17.435C93.2838 17.2513 93.0644 17.0428 92.9234 16.8096H92.8598L92.9234 17.5622V19.8199H91.7892ZM94.4921 16.6506C94.7742 16.6506 95.0392 16.5764 95.2871 16.428C95.5341 16.2796 95.7355 16.0711 95.8913 15.8026C96.0462 15.527 96.1244 15.202 96.1244 14.8275C96.1244 14.453 96.0462 14.1314 95.8913 13.8629C95.7355 13.5873 95.5341 13.3753 95.2871 13.2269C95.0392 13.0785 94.7742 13.0043 94.4921 13.0043C94.2092 13.0043 93.9442 13.0785 93.6971 13.2269C93.4493 13.3753 93.2479 13.5873 93.093 13.8629C92.9372 14.1314 92.8598 14.453 92.8598 14.8275C92.8598 15.202 92.9372 15.527 93.093 15.8026C93.2479 16.0711 93.4493 16.2796 93.6971 16.428C93.9442 16.5764 94.2092 16.6506 94.4921 16.6506ZM98.2582 17.5304V12.1246H99.3394V12.9195H99.403C99.5236 12.6439 99.7283 12.4179 100.018 12.2412C100.315 12.0575 100.633 11.9656 100.972 11.9656C101.12 11.9656 101.244 11.9762 101.343 11.9974C101.449 12.0186 101.544 12.0433 101.629 12.0716V13.2587C101.495 13.2022 101.357 13.1562 101.216 13.1209C101.082 13.0856 100.94 13.0679 100.792 13.0679C100.523 13.0679 100.283 13.1421 100.071 13.2905C99.8661 13.4318 99.7038 13.6262 99.5832 13.8735C99.4633 14.1138 99.403 14.3788 99.403 14.6685V17.5304H98.2582ZM103.17 11.3296C102.958 11.3296 102.774 11.2554 102.619 11.107C102.47 10.9515 102.396 10.7678 102.396 10.5558C102.396 10.3438 102.47 10.1636 102.619 10.0153C102.774 9.86686 102.958 9.79266 103.17 9.79266C103.382 9.79266 103.562 9.86686 103.71 10.0153C103.866 10.1636 103.944 10.3438 103.944 10.5558C103.944 10.7678 103.866 10.9515 103.71 11.107C103.562 11.2554 103.382 11.3296 103.17 11.3296ZM102.598 17.5304V12.1246H103.742V17.5304H102.598ZM107.581 17.6999C107.051 17.6999 106.577 17.5763 106.161 17.329C105.743 17.0817 105.415 16.7425 105.175 16.3114C104.942 15.8803 104.825 15.3892 104.825 14.8381C104.825 14.3222 104.938 13.8452 105.164 13.4071C105.39 12.969 105.705 12.6192 106.108 12.3578C106.517 12.0893 106.987 11.955 107.517 11.955C108.075 11.955 108.549 12.0751 108.938 12.3154C109.333 12.5556 109.633 12.8842 109.839 13.3011C110.043 13.718 110.146 14.188 110.146 14.7109C110.146 14.7886 110.142 14.8593 110.135 14.9229C110.135 14.9865 110.131 15.0359 110.125 15.0713H105.949C106.005 15.6083 106.192 16.0111 106.51 16.2796C106.835 16.5481 107.203 16.6824 107.613 16.6824C107.98 16.6824 108.284 16.6011 108.524 16.4386C108.764 16.269 108.955 16.0605 109.097 15.8132L110.04 16.269C109.807 16.693 109.489 17.0393 109.086 17.3078C108.683 17.5692 108.181 17.6999 107.581 17.6999ZM107.528 12.9301C107.146 12.9301 106.821 13.0467 106.553 13.2799C106.284 13.5131 106.104 13.824 106.012 14.2127H109.012C108.997 14.029 108.938 13.8382 108.832 13.6403C108.726 13.4424 108.563 13.2764 108.344 13.1421C108.132 13.0008 107.86 12.9301 107.528 12.9301Z" fill="white"/>
<path d="M62.0807 34.0588C61.3691 34.0588 60.6992 33.9294 60.0708 33.6707C59.4517 33.412 58.9019 33.0516 58.4214 32.5895C57.9409 32.1183 57.562 31.5685 57.2848 30.9401C57.0168 30.3025 56.8828 29.6141 56.8828 28.8748C56.8828 28.1355 57.0168 27.4518 57.2848 26.8234C57.562 26.1858 57.9362 25.636 58.4075 25.1739C58.888 24.7026 59.4425 24.3376 60.0708 24.0789C60.6992 23.8202 61.3691 23.6908 62.0807 23.6908C62.8384 23.6908 63.5361 23.8247 64.1737 24.0927C64.8205 24.3608 65.3611 24.735 65.7954 25.2155L64.742 26.2551C64.4185 25.8947 64.0304 25.6175 63.5777 25.4234C63.1341 25.2293 62.6351 25.1323 62.0807 25.1323C61.4246 25.1323 60.8193 25.2894 60.2649 25.6036C59.7105 25.9085 59.2623 26.3429 58.9204 26.9065C58.5877 27.461 58.4214 28.1171 58.4214 28.8748C58.4214 29.6325 58.5924 30.2933 58.9342 30.8569C59.2761 31.4113 59.7243 31.8457 60.2788 32.1598C60.8332 32.4648 61.4384 32.6173 62.0945 32.6173C62.6952 32.6173 63.2404 32.5064 63.7301 32.2846C64.2199 32.0536 64.6126 31.7301 64.9083 31.3143C65.2133 30.8985 65.3981 30.3995 65.4628 29.8173H62.0668V28.4728H66.8904C66.9459 28.7223 66.9736 28.9857 66.9736 29.2629V29.2768C66.9736 30.2378 66.761 31.0787 66.336 31.7995C65.9202 32.511 65.3427 33.0655 64.6034 33.4628C63.8641 33.8601 63.0232 34.0588 62.0807 34.0588ZM71.4368 34.0588C70.7067 34.0588 70.0645 33.8925 69.5101 33.5598C68.9557 33.2271 68.5213 32.7789 68.2072 32.2153C67.8929 31.6516 67.7359 31.014 67.7359 30.3025C67.7359 29.6002 67.8929 28.9672 68.2072 28.4035C68.5213 27.8306 68.9557 27.3778 69.5101 27.0451C70.0645 26.7125 70.7067 26.5461 71.4368 26.5461C72.1575 26.5461 72.7951 26.7125 73.3496 27.0451C73.904 27.3778 74.3383 27.8306 74.6525 28.4035C74.9667 28.9672 75.1238 29.6002 75.1238 30.3025C75.1238 31.014 74.9667 31.6516 74.6525 32.2153C74.3383 32.7789 73.904 33.2271 73.3496 33.5598C72.7951 33.8925 72.1575 34.0588 71.4368 34.0588ZM71.4368 32.6866C71.8249 32.6866 72.1853 32.5942 72.5179 32.4093C72.8506 32.2153 73.1185 31.9427 73.3219 31.5915C73.5343 31.2312 73.6407 30.8015 73.6407 30.3025C73.6407 29.8035 73.5343 29.3784 73.3219 29.0273C73.1185 28.6669 72.8506 28.3943 72.5179 28.2095C72.1853 28.0154 71.8249 27.9184 71.4368 27.9184C71.0487 27.9184 70.6836 28.0154 70.3417 28.2095C70.0091 28.3943 69.7364 28.6669 69.5239 29.0273C69.3206 29.3784 69.219 29.8035 69.219 30.3025C69.219 30.8015 69.3206 31.2312 69.5239 31.5915C69.7364 31.9427 70.0091 32.2153 70.3417 32.4093C70.6836 32.5942 71.0487 32.6866 71.4368 32.6866ZM79.8291 34.0588C79.0991 34.0588 78.4569 33.8925 77.9024 33.5598C77.348 33.2271 76.9137 32.7789 76.5995 32.2153C76.2853 31.6516 76.1282 31.014 76.1282 30.3025C76.1282 29.6002 76.2853 28.9672 76.5995 28.4035C76.9137 27.8306 77.348 27.3778 77.9024 27.0451C78.4569 26.7125 79.0991 26.5461 79.8291 26.5461C80.5499 26.5461 81.1875 26.7125 81.7421 27.0451C82.2965 27.3778 82.7311 27.8306 83.045 28.4035C83.3589 28.9672 83.5163 29.6002 83.5163 30.3025C83.5163 31.014 83.3589 31.6516 83.045 32.2153C82.7311 32.7789 82.2965 33.2271 81.7421 33.5598C81.1875 33.8925 80.5499 34.0588 79.8291 34.0588ZM79.8291 32.6866C80.2172 32.6866 80.5776 32.5942 80.9103 32.4093C81.2429 32.2153 81.5109 31.9427 81.7144 31.5915C81.9272 31.2312 82.0332 30.8015 82.0332 30.3025C82.0332 29.8035 81.9272 29.3784 81.7144 29.0273C81.5109 28.6669 81.2429 28.3943 80.9103 28.2095C80.5776 28.0154 80.2172 27.9184 79.8291 27.9184C79.441 27.9184 79.076 28.0154 78.7341 28.2095C78.4014 28.3943 78.1288 28.6669 77.9163 29.0273C77.713 29.3784 77.6113 29.8035 77.6113 30.3025C77.6113 30.8015 77.713 31.2312 77.9163 31.5915C78.1288 31.9427 78.4014 32.2153 78.7341 32.4093C79.076 32.5942 79.441 32.6866 79.8291 32.6866ZM88.0831 37.0528C87.4634 37.0528 86.9277 36.9511 86.4752 36.7478C86.0317 36.5538 85.6713 36.2996 85.394 35.9855C85.1168 35.6805 84.9179 35.3664 84.798 35.0429L86.1841 34.4608C86.3317 34.8304 86.5673 35.1307 86.891 35.3617C87.2237 35.602 87.6208 35.7221 88.0831 35.7221C88.7297 35.7221 89.2376 35.5281 89.6078 35.14C89.9861 34.7518 90.1761 34.2021 90.1761 33.4905V32.8113H90.0929C89.8711 33.144 89.5613 33.412 89.1642 33.6152C88.7761 33.8093 88.3326 33.9063 87.8336 33.9063C87.2327 33.9063 86.6831 33.7539 86.1841 33.4489C85.6851 33.144 85.2832 32.7189 84.9782 32.1737C84.6733 31.6193 84.5208 30.9724 84.5208 30.2332C84.5208 29.4847 84.6733 28.8379 84.9782 28.2926C85.2832 27.7382 85.6851 27.3085 86.1841 27.0036C86.6831 26.6986 87.2327 26.5461 87.8336 26.5461C88.3326 26.5461 88.7761 26.6478 89.1642 26.8511C89.5613 27.0543 89.8711 27.3224 90.0929 27.655H90.1761V26.7679H91.6038V33.4628C91.6038 34.2298 91.4513 34.8812 91.1464 35.4172C90.8504 35.9531 90.4394 36.3597 89.9127 36.6369C89.386 36.9142 88.7761 37.0528 88.0831 37.0528ZM88.0969 32.5479C88.4663 32.5479 88.8079 32.4601 89.1227 32.2846C89.4366 32.0997 89.691 31.8364 89.885 31.4945C90.0791 31.1433 90.1761 30.7229 90.1761 30.2332C90.1761 29.725 90.0791 29.2998 89.885 28.958C89.691 28.6068 89.4366 28.3434 89.1227 28.1679C88.8079 27.9923 88.4663 27.9045 88.0969 27.9045C87.7268 27.9045 87.3802 27.9969 87.0574 28.1817C86.7426 28.3573 86.4891 28.6161 86.295 28.958C86.101 29.2998 86.0039 29.725 86.0039 30.2332C86.0039 30.7322 86.101 31.1572 86.295 31.5084C86.4891 31.8503 86.7426 32.109 87.0574 32.2846C87.3802 32.4601 87.7268 32.5479 88.0969 32.5479ZM93.369 33.837V23.9126H94.866V33.837H93.369ZM99.7923 34.0588C99.0993 34.0588 98.4804 33.8971 97.935 33.5737C97.3903 33.2502 96.9606 32.8067 96.6459 32.243C96.341 31.6794 96.1885 31.0371 96.1885 30.3163C96.1885 29.6418 96.3369 29.018 96.632 28.4451C96.928 27.8721 97.339 27.4147 97.8657 27.0729C98.4022 26.7217 99.0161 26.5461 99.7092 26.5461C100.44 26.5461 101.059 26.7033 101.567 27.0174C102.084 27.3316 102.477 27.7613 102.745 28.3065C103.013 28.8517 103.147 29.4662 103.147 30.15C103.147 30.2517 103.143 30.3441 103.133 30.4272C103.133 30.5104 103.129 30.575 103.119 30.6213H97.6578C97.732 31.3235 97.9766 31.8502 98.3924 32.2014C98.818 32.5526 99.2982 32.7281 99.8339 32.7281C100.315 32.7281 100.712 32.6219 101.026 32.4093C101.341 32.1876 101.59 31.915 101.774 31.5915L103.008 32.1876C102.703 32.742 102.287 33.1948 101.761 33.5459C101.234 33.8878 100.578 34.0588 99.7923 34.0588ZM99.723 27.8214C99.224 27.8214 98.7992 27.9738 98.4478 28.2788C98.0972 28.5837 97.8616 28.9903 97.7409 29.4985H101.664C101.646 29.2582 101.567 29.0087 101.428 28.75C101.289 28.4913 101.077 28.2741 100.79 28.0986C100.513 27.9137 100.158 27.8214 99.723 27.8214ZM108.02 33.837V23.9126H111.43C112.031 23.9126 112.576 24.0419 113.065 24.3007C113.555 24.5594 113.944 24.9152 114.23 25.368C114.526 25.8207 114.673 26.3474 114.673 26.9481C114.673 27.5488 114.526 28.0801 114.23 28.5421C113.944 28.9949 113.555 29.3507 113.065 29.6094C112.576 29.8589 112.031 29.9837 111.43 29.9837H109.545V33.837H108.02ZM111.471 25.3541H109.545V28.5421H111.471C111.832 28.5421 112.137 28.4682 112.386 28.3203C112.636 28.1632 112.826 27.9646 112.955 27.7243C113.093 27.4748 113.162 27.2161 113.162 26.9481C113.162 26.6801 113.093 26.426 112.955 26.1858C112.826 25.9455 112.636 25.7469 112.386 25.5897C112.137 25.4326 111.832 25.3541 111.471 25.3541ZM116.847 25.7283C116.57 25.7283 116.329 25.6313 116.126 25.4373C115.932 25.234 115.835 24.9937 115.835 24.7165C115.835 24.4393 115.932 24.2036 116.126 24.0096C116.329 23.8155 116.57 23.7185 116.847 23.7185C117.124 23.7185 117.36 23.8155 117.554 24.0096C117.757 24.2036 117.859 24.4393 117.859 24.7165C117.859 24.9937 117.757 25.234 117.554 25.4373C117.36 25.6313 117.124 25.7283 116.847 25.7283ZM116.099 33.837V26.7679H117.596V33.837H116.099ZM119.453 33.837V26.7679H120.867V27.7382H120.95C121.153 27.3963 121.453 27.1144 121.851 26.8927C122.257 26.6617 122.7 26.5461 123.182 26.5461C124.05 26.5461 124.701 26.8048 125.136 27.3224C125.57 27.8399 125.787 28.5236 125.787 29.3738V33.837H124.304V29.5678C124.304 28.9949 124.161 28.5791 123.875 28.3203C123.588 28.0523 123.213 27.9184 122.752 27.9184C122.391 27.9184 122.077 28.0201 121.809 28.2233C121.541 28.4174 121.328 28.6761 121.172 28.9995C121.023 29.323 120.95 29.6695 120.95 30.0391V33.837H119.453ZM128.353 25.7283C128.075 25.7283 127.835 25.6313 127.632 25.4373C127.438 25.234 127.341 24.9937 127.341 24.7165C127.341 24.4393 127.438 24.2036 127.632 24.0096C127.835 23.8155 128.075 23.7185 128.353 23.7185C128.63 23.7185 128.865 23.8155 129.059 24.0096C129.262 24.2036 129.364 24.4393 129.364 24.7165C129.364 24.9937 129.262 25.234 129.059 25.4373C128.865 25.6313 128.63 25.7283 128.353 25.7283ZM127.604 33.837V26.7679H129.101V33.837H127.604ZM134.079 37.0528C133.46 37.0528 132.923 36.9511 132.471 36.7478C132.027 36.5538 131.667 36.2996 131.39 35.9855C131.112 35.6805 130.914 35.3664 130.794 35.0429L132.18 34.4608C132.327 34.8304 132.563 35.1307 132.887 35.3617C133.219 35.602 133.616 35.7221 134.079 35.7221C134.725 35.7221 135.234 35.5281 135.603 35.14C135.983 34.7518 136.172 34.2021 136.172 33.4905V32.8113H136.089C135.867 33.144 135.557 33.412 135.16 33.6152C134.772 33.8093 134.328 33.9063 133.829 33.9063C133.228 33.9063 132.679 33.7539 132.18 33.4489C131.681 33.144 131.279 32.7189 130.974 32.1737C130.669 31.6193 130.516 30.9724 130.516 30.2332C130.516 29.4847 130.669 28.8379 130.974 28.2926C131.279 27.7382 131.681 27.3085 132.18 27.0036C132.679 26.6986 133.228 26.5461 133.829 26.5461C134.328 26.5461 134.772 26.6478 135.16 26.8511C135.557 27.0543 135.867 27.3224 136.089 27.655H136.172V26.7679H137.599V33.4628C137.599 34.2298 137.447 34.8812 137.142 35.4172C136.846 35.9531 136.435 36.3597 135.908 36.6369C135.382 36.9142 134.772 37.0528 134.079 37.0528ZM134.093 32.5479C134.462 32.5479 134.804 32.4601 135.118 32.2846C135.432 32.0997 135.687 31.8364 135.881 31.4945C136.075 31.1433 136.172 30.7229 136.172 30.2332C136.172 29.725 136.075 29.2998 135.881 28.958C135.687 28.6068 135.432 28.3434 135.118 28.1679C134.804 27.9923 134.462 27.9045 134.093 27.9045C133.723 27.9045 133.377 27.9969 133.053 28.1817C132.739 28.3573 132.485 28.6161 132.291 28.958C132.097 29.2998 132 29.725 132 30.2332C132 30.7322 132.097 31.1572 132.291 31.5084C132.485 31.8503 132.739 32.109 133.053 32.2846C133.377 32.4601 133.723 32.5479 134.093 32.5479ZM140.21 25.7283C139.933 25.7283 139.692 25.6313 139.489 25.4373C139.295 25.234 139.198 24.9937 139.198 24.7165C139.198 24.4393 139.295 24.2036 139.489 24.0096C139.692 23.8155 139.933 23.7185 140.21 23.7185C140.487 23.7185 140.723 23.8155 140.917 24.0096C141.12 24.2036 141.222 24.4393 141.222 24.7165C141.222 24.9937 141.12 25.234 140.917 25.4373C140.723 25.6313 140.487 25.7283 140.21 25.7283ZM139.462 33.837V26.7679H140.959V33.837H139.462ZM142.816 33.837V26.7679H144.23V27.7382H144.313C144.516 27.3963 144.817 27.1144 145.214 26.8927C145.621 26.6617 146.064 26.5461 146.545 26.5461C147.413 26.5461 148.064 26.8048 148.499 27.3224C148.934 27.8399 149.151 28.5236 149.151 29.3738V33.837H147.667V29.5678C147.667 28.9949 147.524 28.5791 147.238 28.3203C146.952 28.0523 146.577 27.9184 146.115 27.9184C145.755 27.9184 145.441 28.0201 145.172 28.2233C144.904 28.4174 144.692 28.6761 144.535 28.9995C144.387 29.323 144.313 29.6695 144.313 30.0391V33.837H142.816ZM154.086 34.0588C153.393 34.0588 152.774 33.8971 152.228 33.5737C151.684 33.2502 151.254 32.8067 150.939 32.243C150.634 31.6794 150.482 31.0371 150.482 30.3163C150.482 29.6418 150.63 29.018 150.926 28.4451C151.221 27.8721 151.632 27.4147 152.159 27.0729C152.696 26.7217 153.31 26.5461 154.003 26.5461C154.733 26.5461 155.352 26.7033 155.86 27.0174C156.378 27.3316 156.771 27.7613 157.038 28.3065C157.306 28.8517 157.44 29.4662 157.44 30.15C157.44 30.2517 157.436 30.3441 157.426 30.4272C157.426 30.5104 157.422 30.575 157.412 30.6213H151.951C152.025 31.3235 152.27 31.8502 152.686 32.2014C153.111 32.5526 153.592 32.7281 154.127 32.7281C154.608 32.7281 155.006 32.6219 155.319 32.4093C155.634 32.1876 155.884 31.915 156.068 31.5915L157.302 32.1876C156.997 32.742 156.581 33.1948 156.054 33.5459C155.527 33.8878 154.872 34.0588 154.086 34.0588ZM154.017 27.8214C153.518 27.8214 153.093 27.9738 152.741 28.2788C152.391 28.5837 152.155 28.9903 152.034 29.4985H155.957C155.939 29.2582 155.86 29.0087 155.721 28.75C155.583 28.4913 155.371 28.2741 155.084 28.0986C154.807 27.9137 154.451 27.8214 154.017 27.8214ZM154.003 25.3818C153.763 25.3818 153.555 25.294 153.379 25.1185C153.204 24.9429 153.116 24.7304 153.116 24.4809C153.116 24.2314 153.204 24.0234 153.379 23.8571C153.555 23.6816 153.763 23.5938 154.003 23.5938C154.262 23.5938 154.474 23.6816 154.64 23.8571C154.807 24.0234 154.89 24.2314 154.89 24.4809C154.89 24.7304 154.807 24.9429 154.64 25.1185C154.474 25.294 154.262 25.3818 154.003 25.3818Z" fill="white"/>
<path d="M151.246 0.407227H22.4208C10.2625 0.407227 0.40625 10.2635 0.40625 22.4217C0.40625 34.58 10.2625 44.4362 22.4208 44.4362H151.246C163.405 44.4362 173.261 34.58 173.261 22.4217C173.261 10.2635 163.405 0.407227 151.246 0.407227Z" stroke="#747775"/>
</g>
<defs>
<linearGradient id="paint0_linear_568_619" x1="30.3985" y1="27.7587" x2="15.3129" y2="45.4338" gradientUnits="userSpaceOnUse">
<stop stop-color="#4285F4"/>
<stop offset="1" stop-color="#1B74E8"/>
</linearGradient>
<clipPath id="clip0_568_619">
<rect width="173.67" height="44.8444" fill="white"/>
</clipPath>
</defs>
</svg>
