<svg width="174" height="48" viewBox="0 0 174 48" fill="none" xmlns="http://www.w3.org/2000/svg">
<g clip-path="url(#clip0_568_96)">
<path d="M149.672 0.436523H24.0008C10.9871 0.436523 0.4375 10.9862 0.4375 23.9998C0.4375 37.0134 10.9871 47.563 24.0008 47.563H149.672C162.685 47.563 173.235 37.0134 173.235 23.9998C173.235 10.9862 162.685 0.436523 149.672 0.436523Z" fill="#1F1F1F"/>
<path d="M49.7458 20.7629H18.3281V15.8361C18.3281 13.1615 20.634 10.9092 23.3722 10.9092H44.7017C47.4399 10.9092 49.7458 13.1615 49.7458 15.8361V20.7629Z" fill="#34A853"/>
<path d="M49.7458 25.3085H18.3281V20.0722C18.3281 17.2297 20.634 14.8359 23.3722 14.8359H44.7017C47.4399 14.8359 49.7458 17.2297 49.7458 20.0722V25.3085Z" fill="#FBBC04"/>
<path d="M49.7458 29.6718H18.3281V24.4355C18.3281 21.593 20.634 19.1992 23.3722 19.1992H44.7017C47.4399 19.1992 49.7458 21.593 49.7458 24.4355V29.6718Z" fill="#EA4335"/>
<path d="M18.3281 22.0276L38.269 26.5322C40.5644 27.0953 43.1467 26.5322 45.0116 25.1245L49.7458 21.7461V32.3037C49.7458 34.9783 47.4505 37.0898 44.7247 37.0898H23.3492C20.6234 37.0898 18.3281 34.9783 18.3281 32.3037V22.0276Z" fill="url(#paint0_linear_568_96)"/>
<path d="M60.6367 20.4873V17.583H61.3515C61.5254 17.2956 61.6654 16.9249 61.7712 16.4711C61.8847 16.0097 61.9641 15.503 62.0095 14.9509C62.0625 14.3987 62.0889 13.8428 62.0889 13.2831V10.6396H67.2964V17.583H68.2494V20.4873H67.0355V18.7629H61.8507V20.4873H60.6367ZM62.7129 17.583H66.0484V11.8196H63.3029V13.4646C63.3029 14.2891 63.2499 15.0492 63.144 15.745C63.0457 16.4408 62.902 17.0308 62.7129 17.5149V17.583ZM71.9863 18.9444C71.3887 18.9444 70.8631 18.8082 70.4093 18.536C69.9555 18.2637 69.5999 17.8969 69.3428 17.4355C69.0856 16.9741 68.9571 16.4522 68.9571 15.8698C68.9571 15.295 69.0856 14.7769 69.3428 14.3155C69.5999 13.8466 69.9555 13.476 70.4093 13.2037C70.8631 12.9314 71.3887 12.7953 71.9863 12.7953C72.5762 12.7953 73.0981 12.9314 73.5519 13.2037C74.0057 13.476 74.3612 13.8466 74.6184 14.3155C74.8755 14.7769 75.0041 15.295 75.0041 15.8698C75.0041 16.4522 74.8755 16.9741 74.6184 17.4355C74.3612 17.8969 74.0057 18.2637 73.5519 18.536C73.0981 18.8082 72.5762 18.9444 71.9863 18.9444ZM71.9863 17.8212C72.3039 17.8212 72.5989 17.7455 72.8712 17.5943C73.1435 17.4355 73.3628 17.2123 73.5292 16.9249C73.7032 16.63 73.7902 16.2782 73.7902 15.8698C73.7902 15.4614 73.7032 15.1134 73.5292 14.8261C73.3628 14.5311 73.1435 14.3079 72.8712 14.1567C72.5989 13.9978 72.3039 13.9184 71.9863 13.9184C71.6686 13.9184 71.3698 13.9978 71.09 14.1567C70.8177 14.3079 70.5946 14.5311 70.4206 14.8261C70.2542 15.1134 70.171 15.4614 70.171 15.8698C70.171 16.2782 70.2542 16.63 70.4206 16.9249C70.5946 17.2123 70.8177 17.4355 71.09 17.5943C71.3698 17.7455 71.6686 17.8212 71.9863 17.8212ZM78.8782 18.9444C78.3109 18.9444 77.8079 18.8158 77.3693 18.5587C76.9381 18.294 76.5978 17.8969 76.3482 17.3674C76.0986 16.8304 75.9738 16.1572 75.9738 15.3479C75.9738 14.5235 76.057 13.8428 76.2234 13.3058C76.3897 12.7612 76.6658 12.3225 77.0516 11.9897C77.2936 11.7855 77.5923 11.6153 77.9479 11.4792C78.3109 11.3431 78.7609 11.2334 79.2979 11.1502C79.5777 11.1048 79.782 11.0594 79.9106 11.014C80.0391 10.9687 80.1186 10.9157 80.1488 10.8552C80.1866 10.7947 80.2056 10.7228 80.2056 10.6396H81.3174C81.3174 10.98 81.2644 11.2523 81.1586 11.4565C81.0602 11.6531 80.8787 11.8045 80.614 11.9103C80.3568 12.0162 79.99 12.1032 79.5135 12.1713C79.0143 12.2469 78.6323 12.3377 78.3676 12.4435C78.1104 12.5494 77.8986 12.6705 77.7323 12.8066C77.3617 13.1092 77.1348 13.5403 77.0516 14.1H77.1197C77.2936 13.8353 77.5508 13.6159 77.8911 13.4419C78.239 13.2604 78.6399 13.1696 79.0937 13.1696C79.6307 13.1696 80.1035 13.2944 80.5119 13.544C80.9203 13.786 81.238 14.1189 81.4649 14.5424C81.6993 14.966 81.8166 15.4463 81.8166 15.9833C81.8166 16.5429 81.6918 17.0497 81.4422 17.5035C81.2001 17.9498 80.856 18.3015 80.4098 18.5587C79.9711 18.8158 79.4605 18.9444 78.8782 18.9444ZM78.8895 17.8439C79.3735 17.8439 79.7782 17.6775 80.1035 17.3447C80.4286 17.0119 80.5913 16.5505 80.5913 15.9606C80.5913 15.4236 80.4286 15.0038 80.1035 14.7013C79.7782 14.3987 79.3735 14.2474 78.8895 14.2474C78.4205 14.2474 78.0197 14.3987 77.6869 14.7013C77.3617 15.0038 77.1991 15.4236 77.1991 15.9606C77.1991 16.5505 77.3579 17.0119 77.6756 17.3447C78.0007 17.6775 78.4054 17.8439 78.8895 17.8439ZM84.7506 18.9444C84.3346 18.9444 83.964 18.865 83.6387 18.7061C83.3135 18.5397 83.0601 18.3091 82.8786 18.0141C82.6971 17.7191 82.6063 17.3825 82.6063 17.0043C82.6063 16.5959 82.7122 16.248 82.924 15.9606C83.1433 15.6656 83.4345 15.4425 83.7976 15.2912C84.1606 15.14 84.5615 15.0643 85.0002 15.0643C85.3632 15.0643 85.6809 15.0983 85.9532 15.1664C86.2331 15.2345 86.4448 15.3063 86.5885 15.382V15.0757C86.5885 14.6975 86.4524 14.3949 86.1801 14.168C85.9078 13.9411 85.5561 13.8277 85.125 13.8277C84.83 13.8277 84.5501 13.8957 84.2854 14.0319C84.0207 14.1604 83.8089 14.3382 83.6501 14.5651L82.8105 13.9184C83.0601 13.5705 83.3891 13.2982 83.7976 13.1016C84.2136 12.8974 84.6674 12.7953 85.159 12.7953C85.9986 12.7953 86.6452 13.0032 87.0991 13.4192C87.553 13.8277 87.7799 14.4025 87.7799 15.1437V18.7629H86.5885V18.0481H86.5204C86.3692 18.2826 86.1423 18.4906 85.8397 18.6721C85.5372 18.8536 85.1741 18.9444 84.7506 18.9444ZM84.9661 17.946C85.2838 17.946 85.5637 17.8703 85.8057 17.7191C86.0477 17.5679 86.2368 17.3711 86.373 17.1291C86.5167 16.8795 86.5885 16.611 86.5885 16.3236C86.4146 16.2253 86.2104 16.1459 85.9759 16.0854C85.7414 16.0173 85.4918 15.9833 85.2271 15.9833C84.7279 15.9833 84.3724 16.0854 84.1606 16.2896C83.9488 16.4862 83.843 16.7283 83.843 17.0157C83.843 17.288 83.9451 17.5111 84.1493 17.6851C84.3535 17.859 84.6258 17.946 84.9661 17.946ZM89.1291 18.7629V12.9768H91.9994C92.3398 12.9768 92.6417 13.0448 92.907 13.181C93.1793 13.3095 93.3905 13.4873 93.5424 13.7142C93.7012 13.9411 93.7806 14.1945 93.7806 14.4744C93.7806 14.7769 93.7126 15.0379 93.5764 15.2572C93.4473 15.4765 93.2771 15.6392 93.0659 15.745V15.8131C93.353 15.9265 93.5799 16.0967 93.7466 16.3236C93.9203 16.5505 94.0075 16.8115 94.0075 17.1065C94.0075 17.4468 93.9168 17.7418 93.7352 17.9914C93.5607 18.241 93.3338 18.4339 93.0545 18.57C92.7744 18.6985 92.4759 18.7629 92.1583 18.7629H89.1291ZM90.3544 13.9752V15.3366H91.8519C92.0562 15.3366 92.2263 15.2723 92.3625 15.1437C92.4986 15.0152 92.5667 14.8525 92.5667 14.6559C92.5667 14.4517 92.4986 14.2891 92.3625 14.168C92.2263 14.0395 92.0562 13.9752 91.8519 13.9752H90.3544ZM90.3544 17.7418H92.0335C92.2525 17.7418 92.434 17.6737 92.578 17.5376C92.729 17.3938 92.8049 17.2123 92.8049 16.993C92.8049 16.7812 92.729 16.6035 92.578 16.4598C92.434 16.316 92.2525 16.2442 92.0335 16.2442H90.3544V17.7418ZM94.7371 18.7629V18.6948L96.2801 16.6867L96.2574 16.6186C95.8943 16.4749 95.5994 16.2518 95.3725 15.9492C95.1456 15.6467 95.0321 15.2988 95.0321 14.9055C95.0321 14.5348 95.1229 14.2058 95.3044 13.9184C95.4859 13.631 95.732 13.4041 96.0418 13.2377C96.3595 13.0638 96.7147 12.9768 97.1083 12.9768H99.5929V18.7629H98.3676V16.8001H97.5621L96.1099 18.7629H94.7371ZM97.1991 15.8244H98.3676V13.9979H97.1991C96.9346 13.9979 96.7077 14.0849 96.5183 14.2588C96.3368 14.4327 96.246 14.6483 96.246 14.9055C96.246 15.1702 96.3368 15.3896 96.5183 15.5635C96.7077 15.7374 96.9346 15.8244 97.1991 15.8244ZM101.028 18.7629V12.9768H102.253V15.3026H104.998V12.9768H106.224V18.7629H104.998V16.369H102.253V18.7629H101.028ZM110.242 18.9444C109.674 18.9444 109.167 18.812 108.721 18.5473C108.275 18.2826 107.923 17.9196 107.666 17.4582C107.417 16.9968 107.292 16.4711 107.292 15.8812C107.292 15.329 107.412 14.8185 107.655 14.3496C107.897 13.8806 108.234 13.5063 108.665 13.2264C109.103 12.939 109.606 12.7953 110.174 12.7953C110.771 12.7953 111.278 12.9238 111.694 13.181C112.117 13.4382 112.438 13.7899 112.658 14.2361C112.877 14.6823 112.987 15.1854 112.987 15.745C112.987 15.8282 112.983 15.9039 112.976 15.9719C112.976 16.04 112.972 16.093 112.965 16.1308H108.495C108.555 16.7056 108.756 17.1367 109.096 17.4241C109.443 17.7115 109.837 17.8552 110.276 17.8552C110.669 17.8552 110.994 17.7682 111.251 17.5943C111.508 17.4128 111.712 17.1896 111.864 16.9249L112.874 17.4128C112.624 17.8666 112.284 18.2372 111.853 18.5246C111.422 18.8045 110.884 18.9444 110.242 18.9444ZM110.185 13.839C109.777 13.839 109.428 13.9638 109.141 14.2134C108.853 14.463 108.66 14.7958 108.563 15.2118H111.773C111.758 15.0152 111.694 14.811 111.581 14.5991C111.467 14.3873 111.293 14.2097 111.059 14.0659C110.832 13.9147 110.54 13.839 110.185 13.839ZM116.771 18.7629V12.9768H117.997V15.5408H118.065L120.334 12.9768H121.741V13.0448L119.324 15.6883L121.831 18.6948V18.7629H120.379L118.065 15.9152H117.997V18.7629H116.771ZM124.937 12.9768V14.9055H126.162C126.555 14.9055 126.907 14.9886 127.217 15.1551C127.528 15.3215 127.773 15.5522 127.954 15.8471C128.136 16.1345 128.227 16.4635 128.227 16.8342C128.227 17.2048 128.136 17.5338 127.954 17.8212C127.773 18.1086 127.528 18.3393 127.217 18.5133C126.907 18.6797 126.555 18.7629 126.162 18.7629H123.723V14.0432H122.157V12.9768H124.937ZM124.937 17.7418H126.06C126.332 17.7418 126.559 17.6548 126.74 17.4808C126.922 17.3069 127.013 17.0914 127.013 16.8342C127.013 16.577 126.922 16.3614 126.74 16.1875C126.559 16.006 126.332 15.9152 126.06 15.9152H124.937V17.7418ZM129.247 18.7629V12.9768H130.699L132.48 16.5165H132.537L134.33 12.9768H135.748V18.7629H134.579V15.9492L134.636 14.8374H134.568L132.9 18.0254H132.094L130.427 14.8374H130.359L130.415 15.9492V18.7629H129.247Z" fill="white"/>
<path d="M66.4503 36.4548C65.6887 36.4548 64.9716 36.3163 64.299 36.0394C63.6364 35.7625 63.0478 35.3768 62.5335 34.8822C62.0192 34.3778 61.6137 33.7893 61.317 33.1167C61.0301 32.4343 60.8867 31.6974 60.8867 30.9061C60.8867 30.1148 61.0301 29.383 61.317 28.7104C61.6137 28.0279 62.0143 27.4395 62.5187 26.9449C63.033 26.4405 63.6264 26.0497 64.299 25.7728C64.9716 25.4959 65.6887 25.3574 66.4503 25.3574C67.2613 25.3574 68.0081 25.5008 68.6905 25.7877C69.3828 26.0745 69.9615 26.4751 70.4264 26.9894L69.2988 28.1021C68.9526 27.7164 68.5372 27.4196 68.0526 27.2119C67.5778 27.0042 67.0437 26.9004 66.4503 26.9004C65.748 26.9004 65.1002 27.0686 64.5067 27.4048C63.9133 27.7312 63.4336 28.1961 63.0676 28.7994C62.7116 29.3928 62.5335 30.0951 62.5335 30.9061C62.5335 31.7171 62.7165 32.4244 63.0825 33.0277C63.4484 33.6211 63.9281 34.086 64.5216 34.4223C65.115 34.7487 65.7628 34.9119 66.4651 34.9119C67.108 34.9119 67.6915 34.7932 68.2158 34.5558C68.74 34.3086 69.1603 33.9624 69.4768 33.5173C69.8032 33.0722 70.0011 32.5381 70.0703 31.915H66.4354V30.4759H71.5984C71.6578 30.7429 71.6874 31.0248 71.6874 31.3215V31.3364C71.6874 32.3651 71.4599 33.2651 71.005 34.0366C70.5599 34.7982 69.9417 35.3916 69.1504 35.8169C68.3592 36.2422 67.4591 36.4548 66.4503 36.4548ZM76.4646 36.4548C75.6831 36.4548 74.9958 36.2768 74.4023 35.9207C73.8089 35.5647 73.344 35.0849 73.0078 34.4816C72.6714 33.8783 72.5033 33.1959 72.5033 32.4343C72.5033 31.6826 72.6714 31.005 73.0078 30.4017C73.344 29.7884 73.8089 29.3038 74.4023 28.9478C74.9958 28.5917 75.6831 28.4137 76.4646 28.4137C77.236 28.4137 77.9185 28.5917 78.512 28.9478C79.1054 29.3038 79.5702 29.7884 79.9066 30.4017C80.2428 31.005 80.411 31.6826 80.411 32.4343C80.411 33.1959 80.2428 33.8783 79.9066 34.4816C79.5702 35.0849 79.1054 35.5647 78.512 35.9207C77.9185 36.2768 77.236 36.4548 76.4646 36.4548ZM76.4646 34.9861C76.88 34.9861 77.2657 34.8872 77.6218 34.6893C77.9779 34.4816 78.2646 34.1899 78.4823 33.814C78.7097 33.4283 78.8235 32.9684 78.8235 32.4343C78.8235 31.9002 78.7097 31.4452 78.4823 31.0693C78.2646 30.6836 77.9779 30.3918 77.6218 30.194C77.2657 29.9863 76.88 29.8824 76.4646 29.8824C76.0492 29.8824 75.6584 29.9863 75.2925 30.194C74.9364 30.3918 74.6446 30.6836 74.4172 31.0693C74.1995 31.4452 74.0908 31.9002 74.0908 32.4343C74.0908 32.9684 74.1995 33.4283 74.4172 33.814C74.6446 34.1899 74.9364 34.4816 75.2925 34.6893C75.6584 34.8872 76.0492 34.9861 76.4646 34.9861ZM85.4473 36.4548C84.666 36.4548 83.9785 36.2768 83.3851 35.9207C82.7917 35.5647 82.3268 35.0849 81.9905 34.4816C81.6542 33.8783 81.4861 33.1959 81.4861 32.4343C81.4861 31.6826 81.6542 31.005 81.9905 30.4017C82.3268 29.7884 82.7917 29.3038 83.3851 28.9478C83.9785 28.5917 84.666 28.4137 85.4473 28.4137C86.2188 28.4137 86.9013 28.5917 87.4949 28.9478C88.0883 29.3038 88.5535 29.7884 88.8895 30.4017C89.2255 31.005 89.3939 31.6826 89.3939 32.4343C89.3939 33.1959 89.2255 33.8783 88.8895 34.4816C88.5535 35.0849 88.0883 35.5647 87.4949 35.9207C86.9013 36.2768 86.2188 36.4548 85.4473 36.4548ZM85.4473 34.9861C85.8627 34.9861 86.2485 34.8872 86.6045 34.6893C86.9606 34.4816 87.2475 34.1899 87.4652 33.814C87.693 33.4283 87.8064 32.9684 87.8064 32.4343C87.8064 31.9002 87.693 31.4452 87.4652 31.0693C87.2475 30.6836 86.9606 30.3918 86.6045 30.194C86.2485 29.9863 85.8627 29.8824 85.4473 29.8824C85.0319 29.8824 84.6413 29.9863 84.2753 30.194C83.9192 30.3918 83.6275 30.6836 83.3999 31.0693C83.1824 31.4452 83.0735 31.9002 83.0735 32.4343C83.0735 32.9684 83.1824 33.4283 83.3999 33.814C83.6275 34.1899 83.9192 34.4816 84.2753 34.6893C84.6413 34.8872 85.0319 34.9861 85.4473 34.9861ZM94.282 39.6595C93.6187 39.6595 93.0453 39.5506 92.561 39.3331C92.0862 39.1253 91.7005 38.8533 91.4038 38.5171C91.107 38.1907 90.8941 37.8544 90.7658 37.5082L92.2494 36.8851C92.4074 37.2807 92.6596 37.6022 93.0061 37.8494C93.3621 38.1066 93.7871 38.2352 94.282 38.2352C94.974 38.2352 95.5177 38.0275 95.914 37.6121C96.3189 37.1967 96.5222 36.6082 96.5222 35.8466V35.1196H96.4332C96.1958 35.4757 95.8642 35.7625 95.4392 35.9801C95.0238 36.1878 94.549 36.2916 94.0149 36.2916C93.3717 36.2916 92.7835 36.1284 92.2494 35.8021C91.7153 35.4757 91.2851 35.0207 90.9587 34.4371C90.6323 33.8437 90.4691 33.1514 90.4691 32.3601C90.4691 31.5589 90.6323 30.8666 90.9587 30.283C91.2851 29.6896 91.7153 29.2297 92.2494 28.9033C92.7835 28.5769 93.3717 28.4137 94.0149 28.4137C94.549 28.4137 95.0238 28.5225 95.4392 28.7401C95.8642 28.9576 96.1958 29.2445 96.4332 29.6006H96.5222V28.651H98.0504V35.8169C98.0504 36.6379 97.8872 37.3352 97.5608 37.9088C97.244 38.4824 96.8041 38.9176 96.2403 39.2144C95.6766 39.5111 95.0238 39.6595 94.282 39.6595ZM94.2968 34.8377C94.6921 34.8377 95.0578 34.7437 95.3947 34.5558C95.7307 34.358 96.003 34.0761 96.2107 33.7102C96.4184 33.3343 96.5222 32.8843 96.5222 32.3601C96.5222 31.8161 96.4184 31.3611 96.2107 30.9951C96.003 30.6193 95.7307 30.3374 95.3947 30.1495C95.0578 29.9616 94.6921 29.8676 94.2968 29.8676C93.9006 29.8676 93.5297 29.9665 93.1841 30.1643C92.8472 30.3522 92.5758 30.6292 92.3681 30.9951C92.1604 31.3611 92.0566 31.8161 92.0566 32.3601C92.0566 32.8942 92.1604 33.3491 92.3681 33.725C92.5758 34.0909 92.8472 34.3679 93.1841 34.5558C93.5297 34.7437 93.9006 34.8377 94.2968 34.8377ZM99.9398 36.2175V25.5948H101.542V36.2175H99.9398ZM106.815 36.4548C106.073 36.4548 105.411 36.2818 104.827 35.9356C104.244 35.5894 103.784 35.1146 103.447 34.5113C103.121 33.908 102.958 33.2206 102.958 32.4491C102.958 31.7271 103.116 31.0595 103.432 30.4462C103.749 29.833 104.189 29.3434 104.753 28.9774C105.327 28.6016 105.984 28.4137 106.726 28.4137C107.508 28.4137 108.17 28.5818 108.714 28.9181C109.268 29.2544 109.689 29.7143 109.975 30.2979C110.262 30.8814 110.405 31.5391 110.405 32.2711C110.405 32.3799 110.401 32.4788 110.391 32.5678C110.391 32.6568 110.386 32.726 110.376 32.7755H104.53C104.61 33.5272 104.871 34.0909 105.317 34.4668C105.772 34.8427 106.286 35.0306 106.86 35.0306C107.374 35.0306 107.799 34.9169 108.135 34.6893C108.472 34.452 108.739 34.1602 108.937 33.814L110.257 34.452C109.931 35.0454 109.486 35.53 108.922 35.9059C108.358 36.2718 107.656 36.4548 106.815 36.4548ZM106.741 29.7786C106.207 29.7786 105.752 29.9418 105.376 30.2682C105.001 30.5946 104.748 31.0298 104.619 31.5738H108.818C108.799 31.3166 108.714 31.0495 108.566 30.7726C108.417 30.4957 108.19 30.2632 107.883 30.0753C107.586 29.8775 107.206 29.7786 106.741 29.7786ZM116.927 36.2175L114.079 25.5948H115.889L117.58 32.4936L117.758 33.4134H117.847L118.07 32.4936L120.206 25.5948H121.838L123.885 32.4936L124.108 33.3986H124.197L124.375 32.4936L126.066 25.5948H127.861L125.057 36.2175H123.336L121.304 29.1703L121.066 28.1763H120.977L120.725 29.1703L118.604 36.2175H116.927ZM130.841 36.4548C130.297 36.4548 129.812 36.351 129.387 36.1433C128.962 35.9257 128.63 35.624 128.393 35.2383C128.155 34.8525 128.037 34.4124 128.037 33.9179C128.037 33.3838 128.176 32.9288 128.452 32.5529C128.739 32.1672 129.12 31.8755 129.595 31.6776C130.069 31.4798 130.594 31.3809 131.167 31.3809C131.642 31.3809 132.057 31.4254 132.413 31.5144C132.779 31.6034 133.057 31.6974 133.244 31.7963V31.3957C133.244 30.9012 133.066 30.5056 132.71 30.2088C132.354 29.9121 131.894 29.7638 131.33 29.7638C130.945 29.7638 130.579 29.8528 130.233 30.0308C129.886 30.199 129.609 30.4314 129.402 30.7281L128.304 29.8824C128.63 29.4275 129.06 29.0714 129.595 28.8142C130.138 28.5472 130.732 28.4137 131.375 28.4137C132.473 28.4137 133.318 28.6857 133.912 29.2297C134.505 29.7638 134.802 30.5154 134.802 31.4847V36.2175H133.244V35.2828H133.155C132.957 35.5894 132.66 35.8614 132.265 36.0988C131.87 36.3362 131.395 36.4548 130.841 36.4548ZM131.123 35.1493C131.538 35.1493 131.904 35.0504 132.221 34.8525C132.537 34.6547 132.784 34.3976 132.962 34.0811C133.15 33.7547 133.244 33.4036 133.244 33.0277C133.016 32.8992 132.749 32.7953 132.443 32.7161C132.137 32.6271 131.81 32.5826 131.464 32.5826C130.811 32.5826 130.346 32.7161 130.069 32.9832C129.793 33.2404 129.654 33.5568 129.654 33.9327C129.654 34.2888 129.787 34.5805 130.055 34.808C130.322 35.0356 130.678 35.1493 131.123 35.1493ZM136.581 36.2175V25.5948H138.183V36.2175H136.581ZM140.087 36.2175V25.5948H141.69V36.2175H140.087ZM146.962 36.4548C146.221 36.4548 145.558 36.2818 144.974 35.9356C144.391 35.5894 143.932 35.1146 143.595 34.5113C143.268 33.908 143.105 33.2206 143.105 32.4491C143.105 31.7271 143.264 31.0595 143.58 30.4462C143.897 29.833 144.336 29.3434 144.9 28.9774C145.474 28.6016 146.132 28.4137 146.873 28.4137C147.655 28.4137 148.318 28.5818 148.861 28.9181C149.416 29.2544 149.836 29.7143 150.123 30.2979C150.41 30.8814 150.553 31.5391 150.553 32.2711C150.553 32.3799 150.548 32.4788 150.538 32.5678C150.538 32.6568 150.534 32.726 150.523 32.7755H144.678C144.757 33.5272 145.019 34.0909 145.464 34.4668C145.92 34.8427 146.434 35.0306 147.007 35.0306C147.522 35.0306 147.947 34.9169 148.283 34.6893C148.62 34.452 148.887 34.1602 149.084 33.814L150.404 34.452C150.078 35.0454 149.633 35.53 149.069 35.9059C148.505 36.2718 147.804 36.4548 146.962 36.4548ZM146.888 29.7786C146.354 29.7786 145.899 29.9418 145.523 30.2682C145.148 30.5946 144.896 31.0298 144.767 31.5738H148.965C148.946 31.3166 148.861 31.0495 148.713 30.7726C148.565 30.4957 148.338 30.2632 148.031 30.0753C147.734 29.8775 147.353 29.7786 146.888 29.7786ZM152.624 34.0217V30.0456H151.303V28.651H152.624V26.5146H154.226V28.651H156.081V30.0456H154.226V33.6805C154.226 34.0564 154.3 34.3431 154.449 34.541C154.607 34.7388 154.868 34.8377 155.235 34.8377C155.423 34.8377 155.581 34.813 155.71 34.7635C155.848 34.714 155.986 34.6448 156.125 34.5558V36.1136C155.957 36.1828 155.779 36.2373 155.591 36.2768C155.402 36.3163 155.18 36.3362 154.923 36.3362C154.221 36.3362 153.662 36.1334 153.247 35.7279C152.831 35.3125 152.624 34.7437 152.624 34.0217Z" fill="white"/>
<path d="M149.672 0.436523H24.0008C10.9871 0.436523 0.4375 10.9862 0.4375 23.9998C0.4375 37.0134 10.9871 47.563 24.0008 47.563H149.672C162.685 47.563 173.235 37.0134 173.235 23.9998C173.235 10.9862 162.685 0.436523 149.672 0.436523Z" stroke="#747775"/>
</g>
<defs>
<linearGradient id="paint0_linear_568_96" x1="32.5397" y1="29.7109" x2="16.3927" y2="48.6295" gradientUnits="userSpaceOnUse">
<stop stop-color="#4285F4"/>
<stop offset="1" stop-color="#1B74E8"/>
</linearGradient>
<clipPath id="clip0_568_96">
<rect width="173.67" height="47.9992" fill="white"/>
</clipPath>
</defs>
</svg>
