<svg width="174" height="48" viewBox="0 0 174 48" fill="none" xmlns="http://www.w3.org/2000/svg">
<g clip-path="url(#clip0_568_240)">
<path d="M149.672 0.436523H24.0008C10.9871 0.436523 0.4375 10.9862 0.4375 23.9998C0.4375 37.0134 10.9871 47.563 24.0008 47.563H149.672C162.685 47.563 173.235 37.0134 173.235 23.9998C173.235 10.9862 162.685 0.436523 149.672 0.436523Z" fill="#1F1F1F"/>
<path d="M49.7458 20.7629H18.3281V15.8361C18.3281 13.1615 20.634 10.9092 23.3722 10.9092H44.7017C47.4399 10.9092 49.7458 13.1615 49.7458 15.8361V20.7629Z" fill="#34A853"/>
<path d="M49.7458 25.3085H18.3281V20.0722C18.3281 17.2297 20.634 14.8359 23.3722 14.8359H44.7017C47.4399 14.8359 49.7458 17.2297 49.7458 20.0722V25.3085Z" fill="#FBBC04"/>
<path d="M49.7458 29.6718H18.3281V24.4355C18.3281 21.593 20.634 19.1992 23.3722 19.1992H44.7017C47.4399 19.1992 49.7458 21.593 49.7458 24.4355V29.6718Z" fill="#EA4335"/>
<path d="M18.3281 22.0276L38.269 26.5322C40.5644 27.0953 43.1467 26.5322 45.0116 25.1245L49.7458 21.7461V32.3037C49.7458 34.9783 47.4505 37.0898 44.7247 37.0898H23.3492C20.6234 37.0898 18.3281 34.9783 18.3281 32.3037V22.0276Z" fill="url(#paint0_linear_568_240)"/>
<path d="M60.3867 18.7635L63.4499 10.6403H64.8681L67.9427 18.7635H66.5699L65.8211 16.676H62.5083L61.7595 18.7635H60.3867ZM63.8243 13.0342L62.9281 15.5188H65.4013L64.5051 13.0342L64.1987 12.1038H64.1307L63.8243 13.0342ZM68.8309 18.7635V12.9774H69.9881V13.7716H70.0562C70.2226 13.4917 70.4684 13.2611 70.7937 13.0795C71.1264 12.8904 71.4895 12.7959 71.8828 12.7959C72.5937 12.7959 73.1269 13.0077 73.4825 13.4312C73.8379 13.8548 74.0157 14.4145 74.0157 15.1103V18.7635H72.8018V15.2692C72.8018 14.8003 72.6845 14.4599 72.4501 14.2481C72.2156 14.0288 71.9092 13.9191 71.5311 13.9191C71.2361 13.9191 70.9789 14.0023 70.7596 14.1687C70.5402 14.3275 70.3663 14.5393 70.2377 14.804C70.1167 15.0687 70.0562 15.3523 70.0562 15.6549V18.7635H68.8309ZM72.2345 11.7975C72.0681 11.7975 71.9055 11.7635 71.7467 11.6954C71.5878 11.6273 71.4441 11.5555 71.3155 11.4799C71.2323 11.4269 71.1529 11.3815 71.0773 11.3437C71.0092 11.3059 70.9411 11.287 70.8731 11.287C70.6613 11.287 70.5441 11.4118 70.5214 11.6614H69.6137C69.6137 11.3513 69.6742 11.0979 69.7953 10.9012C69.9238 10.7046 70.0827 10.5609 70.2718 10.4701C70.4684 10.3794 70.6689 10.334 70.8731 10.334C71.0546 10.334 71.2209 10.3718 71.3723 10.4474C71.5311 10.5155 71.6747 10.5873 71.8034 10.663C71.8866 10.7084 71.9622 10.75 72.0303 10.7878C72.1059 10.8256 72.1702 10.8445 72.2232 10.8445C72.4425 10.8445 72.5635 10.7197 72.5862 10.4701H73.5052C73.5052 10.7802 73.4409 11.0336 73.3123 11.2303C73.1913 11.4269 73.0324 11.5706 72.8358 11.6614C72.6391 11.7521 72.4387 11.7975 72.2345 11.7975ZM77.1719 18.945C76.7559 18.945 76.3853 18.8656 76.06 18.7068C75.7348 18.5404 75.4814 18.3097 75.2999 18.0147C75.1184 17.7198 75.0276 17.3832 75.0276 17.005C75.0276 16.5966 75.1335 16.2486 75.3453 15.9612C75.5646 15.6663 75.8558 15.4431 76.2189 15.2919C76.5819 15.1406 76.9828 15.065 77.4215 15.065C77.7845 15.065 78.1022 15.099 78.3745 15.1671C78.6544 15.2351 78.8661 15.307 79.0098 15.3826V15.0763C79.0098 14.6982 78.8737 14.3956 78.6014 14.1687C78.3291 13.9418 77.9774 13.8283 77.5463 13.8283C77.2513 13.8283 76.9714 13.8964 76.7067 14.0325C76.442 14.1611 76.2302 14.3389 76.0714 14.5658L75.2318 13.9191C75.4814 13.5711 75.8105 13.2989 76.2189 13.1022C76.6349 12.898 77.0887 12.7959 77.5803 12.7959C78.4199 12.7959 79.0665 13.0039 79.5204 13.4199C79.9742 13.8283 80.2011 14.4032 80.2011 15.1444V18.7635H79.0098V18.0488H78.9417C78.7905 18.2833 78.5636 18.4912 78.261 18.6728C77.9585 18.8543 77.5954 18.945 77.1719 18.945ZM77.3874 17.9467C77.7051 17.9467 77.985 17.871 78.227 17.7198C78.469 17.5685 78.6581 17.3718 78.7943 17.1298C78.938 16.8802 79.0098 16.6117 79.0098 16.3243C78.8359 16.2259 78.6317 16.1465 78.3972 16.086C78.1627 16.018 77.9131 15.9839 77.6484 15.9839C77.1492 15.9839 76.7937 16.086 76.5819 16.2903C76.3701 16.4869 76.2643 16.729 76.2643 17.0164C76.2643 17.2886 76.3664 17.5118 76.5706 17.6857C76.7748 17.8597 77.0471 17.9467 77.3874 17.9467ZM83.9679 18.945C83.446 18.945 82.9732 18.8165 82.5497 18.5593C82.1337 18.2946 81.8009 17.9316 81.5513 17.4702C81.3093 17.0013 81.1883 16.468 81.1883 15.8705C81.1883 15.2729 81.3093 14.7435 81.5513 14.2821C81.8009 13.8207 82.1337 13.4577 82.5497 13.193C82.9732 12.9283 83.446 12.7959 83.9679 12.7959C84.4141 12.7959 84.7961 12.8943 85.1138 13.0909C85.439 13.2875 85.6773 13.5107 85.8285 13.7603H85.8966L85.8285 12.9547V10.6403H87.0424V18.7635H85.8966V17.992H85.8285C85.6773 18.2416 85.439 18.4648 85.1138 18.6614C84.7961 18.8505 84.4141 18.945 83.9679 18.945ZM84.1494 17.8219C84.452 17.8219 84.7356 17.7424 85.0003 17.5836C85.2726 17.4248 85.4881 17.2016 85.647 16.9142C85.8134 16.6193 85.8966 16.2713 85.8966 15.8705C85.8966 15.4696 85.8134 15.1254 85.647 14.8381C85.4881 14.5431 85.2726 14.3162 85.0003 14.1573C84.7356 13.9985 84.452 13.9191 84.1494 13.9191C83.8468 13.9191 83.5632 13.9985 83.2985 14.1573C83.0338 14.3162 82.8182 14.5431 82.6518 14.8381C82.4854 15.1254 82.4022 15.4696 82.4022 15.8705C82.4022 16.2713 82.4854 16.6193 82.6518 16.9142C82.8182 17.2016 83.0338 17.4248 83.2985 17.5836C83.5632 17.7424 83.8468 17.8219 84.1494 17.8219ZM89.1889 12.1265C88.962 12.1265 88.7656 12.0471 88.5989 11.8883C88.4401 11.7219 88.3607 11.5252 88.3607 11.2983C88.3607 11.0714 88.4401 10.8786 88.5989 10.7197C88.7656 10.5609 88.962 10.4815 89.1889 10.4815C89.4158 10.4815 89.6087 10.5609 89.7675 10.7197C89.9342 10.8786 90.0171 11.0714 90.0171 11.2983C90.0171 11.5252 89.9342 11.7219 89.7675 11.8883C89.6087 12.0471 89.4158 12.1265 89.1889 12.1265ZM88.5762 18.7635V12.9774H89.8015V18.7635H88.5762ZM91.3218 18.7635V12.9774H92.479V13.8283H92.5471C92.6762 13.5334 92.8953 13.2913 93.2051 13.1022C93.5228 12.9056 93.8631 12.8073 94.2262 12.8073C94.385 12.8073 94.5177 12.8186 94.6233 12.8413C94.7367 12.864 94.8388 12.8904 94.9296 12.9207V14.1914C94.7865 14.1309 94.639 14.0817 94.4871 14.0439C94.344 14.0061 94.1922 13.9872 94.0333 13.9872C93.7462 13.9872 93.4887 14.0666 93.2618 14.2254C93.0428 14.3767 92.8691 14.5847 92.74 14.8494C92.6117 15.1066 92.5471 15.3902 92.5471 15.7003V18.7635H91.3218ZM100.339 18.945C99.9233 18.945 99.5524 18.8656 99.2268 18.7068C98.9022 18.5404 98.6482 18.3097 98.4667 18.0147C98.2852 17.7198 98.1944 17.3832 98.1944 17.005C98.1944 16.5966 98.3009 16.2486 98.5121 15.9612C98.732 15.6663 99.0226 15.4431 99.3857 15.2919C99.7487 15.1406 100.15 15.065 100.588 15.065C100.951 15.065 101.269 15.099 101.541 15.1671C101.821 15.2351 102.033 15.307 102.177 15.3826V15.0763C102.177 14.6982 102.04 14.3956 101.768 14.1687C101.496 13.9418 101.144 13.8283 100.713 13.8283C100.418 13.8283 100.139 13.8964 99.8735 14.0325C99.6091 14.1611 99.397 14.3389 99.2382 14.5658L98.3986 13.9191C98.6482 13.5711 98.9772 13.2989 99.3857 13.1022C99.802 12.898 100.256 12.7959 100.747 12.7959C101.587 12.7959 102.233 13.0039 102.687 13.4199C103.141 13.8283 103.368 14.4032 103.368 15.1444V18.7635H102.177V18.0488H102.109C101.958 18.2833 101.731 18.4912 101.428 18.6728C101.126 18.8543 100.763 18.945 100.339 18.945ZM100.554 17.9467C100.872 17.9467 101.152 17.871 101.394 17.7198C101.636 17.5685 101.825 17.3718 101.961 17.1298C102.105 16.8802 102.177 16.6117 102.177 16.3243C102.003 16.2259 101.799 16.1465 101.564 16.086C101.33 16.018 101.08 15.9839 100.815 15.9839C100.316 15.9839 99.9608 16.086 99.7487 16.2903C99.5375 16.4869 99.431 16.729 99.431 17.0164C99.431 17.2886 99.5332 17.5118 99.7374 17.6857C99.9416 17.8597 100.214 17.9467 100.554 17.9467Z" fill="white"/>
<path d="M66.4503 36.4548C65.6887 36.4548 64.9716 36.3163 64.299 36.0394C63.6364 35.7625 63.0478 35.3768 62.5335 34.8822C62.0192 34.3778 61.6137 33.7893 61.317 33.1167C61.0301 32.4343 60.8867 31.6974 60.8867 30.9061C60.8867 30.1148 61.0301 29.383 61.317 28.7104C61.6137 28.0279 62.0143 27.4395 62.5187 26.9449C63.033 26.4405 63.6264 26.0497 64.299 25.7728C64.9716 25.4959 65.6887 25.3574 66.4503 25.3574C67.2613 25.3574 68.0081 25.5008 68.6905 25.7877C69.3828 26.0745 69.9615 26.4751 70.4264 26.9894L69.2988 28.1021C68.9526 27.7164 68.5372 27.4196 68.0526 27.2119C67.5778 27.0042 67.0437 26.9004 66.4503 26.9004C65.748 26.9004 65.1002 27.0686 64.5067 27.4048C63.9133 27.7312 63.4336 28.1961 63.0676 28.7994C62.7116 29.3928 62.5335 30.0951 62.5335 30.9061C62.5335 31.7171 62.7165 32.4244 63.0825 33.0277C63.4484 33.6211 63.9281 34.086 64.5216 34.4223C65.115 34.7487 65.7628 34.9119 66.4651 34.9119C67.108 34.9119 67.6915 34.7932 68.2158 34.5558C68.74 34.3086 69.1603 33.9624 69.4768 33.5173C69.8032 33.0722 70.0011 32.5381 70.0703 31.915H66.4354V30.4759H71.5984C71.6578 30.7429 71.6874 31.0248 71.6874 31.3215V31.3364C71.6874 32.3651 71.4599 33.2651 71.005 34.0366C70.5599 34.7982 69.9417 35.3916 69.1504 35.8169C68.3592 36.2422 67.4591 36.4548 66.4503 36.4548ZM76.4646 36.4548C75.6831 36.4548 74.9958 36.2768 74.4023 35.9207C73.8089 35.5647 73.344 35.0849 73.0078 34.4816C72.6714 33.8783 72.5033 33.1959 72.5033 32.4343C72.5033 31.6826 72.6714 31.005 73.0078 30.4017C73.344 29.7884 73.8089 29.3038 74.4023 28.9478C74.9958 28.5917 75.6831 28.4137 76.4646 28.4137C77.236 28.4137 77.9185 28.5917 78.512 28.9478C79.1054 29.3038 79.5702 29.7884 79.9066 30.4017C80.2428 31.005 80.411 31.6826 80.411 32.4343C80.411 33.1959 80.2428 33.8783 79.9066 34.4816C79.5702 35.0849 79.1054 35.5647 78.512 35.9207C77.9185 36.2768 77.236 36.4548 76.4646 36.4548ZM76.4646 34.9861C76.88 34.9861 77.2657 34.8872 77.6218 34.6893C77.9779 34.4816 78.2646 34.1899 78.4823 33.814C78.7097 33.4283 78.8235 32.9684 78.8235 32.4343C78.8235 31.9002 78.7097 31.4452 78.4823 31.0693C78.2646 30.6836 77.9779 30.3918 77.6218 30.194C77.2657 29.9863 76.88 29.8824 76.4646 29.8824C76.0492 29.8824 75.6584 29.9863 75.2925 30.194C74.9364 30.3918 74.6446 30.6836 74.4172 31.0693C74.1995 31.4452 74.0908 31.9002 74.0908 32.4343C74.0908 32.9684 74.1995 33.4283 74.4172 33.814C74.6446 34.1899 74.9364 34.4816 75.2925 34.6893C75.6584 34.8872 76.0492 34.9861 76.4646 34.9861ZM85.4473 36.4548C84.666 36.4548 83.9785 36.2768 83.3851 35.9207C82.7917 35.5647 82.3268 35.0849 81.9905 34.4816C81.6542 33.8783 81.4861 33.1959 81.4861 32.4343C81.4861 31.6826 81.6542 31.005 81.9905 30.4017C82.3268 29.7884 82.7917 29.3038 83.3851 28.9478C83.9785 28.5917 84.666 28.4137 85.4473 28.4137C86.2188 28.4137 86.9013 28.5917 87.4949 28.9478C88.0883 29.3038 88.5535 29.7884 88.8895 30.4017C89.2255 31.005 89.3939 31.6826 89.3939 32.4343C89.3939 33.1959 89.2255 33.8783 88.8895 34.4816C88.5535 35.0849 88.0883 35.5647 87.4949 35.9207C86.9013 36.2768 86.2188 36.4548 85.4473 36.4548ZM85.4473 34.9861C85.8627 34.9861 86.2485 34.8872 86.6045 34.6893C86.9606 34.4816 87.2475 34.1899 87.4652 33.814C87.693 33.4283 87.8064 32.9684 87.8064 32.4343C87.8064 31.9002 87.693 31.4452 87.4652 31.0693C87.2475 30.6836 86.9606 30.3918 86.6045 30.194C86.2485 29.9863 85.8627 29.8824 85.4473 29.8824C85.0319 29.8824 84.6413 29.9863 84.2753 30.194C83.9192 30.3918 83.6275 30.6836 83.3999 31.0693C83.1824 31.4452 83.0735 31.9002 83.0735 32.4343C83.0735 32.9684 83.1824 33.4283 83.3999 33.814C83.6275 34.1899 83.9192 34.4816 84.2753 34.6893C84.6413 34.8872 85.0319 34.9861 85.4473 34.9861ZM94.282 39.6595C93.6187 39.6595 93.0453 39.5506 92.561 39.3331C92.0862 39.1253 91.7005 38.8533 91.4038 38.5171C91.107 38.1907 90.8941 37.8544 90.7658 37.5082L92.2494 36.8851C92.4074 37.2807 92.6596 37.6022 93.0061 37.8494C93.3621 38.1066 93.7871 38.2352 94.282 38.2352C94.974 38.2352 95.5177 38.0275 95.914 37.6121C96.3189 37.1967 96.5222 36.6082 96.5222 35.8466V35.1196H96.4332C96.1958 35.4757 95.8642 35.7625 95.4392 35.9801C95.0238 36.1878 94.549 36.2916 94.0149 36.2916C93.3717 36.2916 92.7835 36.1284 92.2494 35.8021C91.7153 35.4757 91.2851 35.0207 90.9587 34.4371C90.6323 33.8437 90.4691 33.1514 90.4691 32.3601C90.4691 31.5589 90.6323 30.8666 90.9587 30.283C91.2851 29.6896 91.7153 29.2297 92.2494 28.9033C92.7835 28.5769 93.3717 28.4137 94.0149 28.4137C94.549 28.4137 95.0238 28.5225 95.4392 28.7401C95.8642 28.9576 96.1958 29.2445 96.4332 29.6006H96.5222V28.651H98.0504V35.8169C98.0504 36.6379 97.8872 37.3352 97.5608 37.9088C97.244 38.4824 96.8041 38.9176 96.2403 39.2144C95.6766 39.5111 95.0238 39.6595 94.282 39.6595ZM94.2968 34.8377C94.6921 34.8377 95.0578 34.7437 95.3947 34.5558C95.7307 34.358 96.003 34.0761 96.2107 33.7102C96.4184 33.3343 96.5222 32.8843 96.5222 32.3601C96.5222 31.8161 96.4184 31.3611 96.2107 30.9951C96.003 30.6193 95.7307 30.3374 95.3947 30.1495C95.0578 29.9616 94.6921 29.8676 94.2968 29.8676C93.9006 29.8676 93.5297 29.9665 93.1841 30.1643C92.8472 30.3522 92.5758 30.6292 92.3681 30.9951C92.1604 31.3611 92.0566 31.8161 92.0566 32.3601C92.0566 32.8942 92.1604 33.3491 92.3681 33.725C92.5758 34.0909 92.8472 34.3679 93.1841 34.5558C93.5297 34.7437 93.9006 34.8377 94.2968 34.8377ZM99.9398 36.2175V25.5948H101.542V36.2175H99.9398ZM106.815 36.4548C106.073 36.4548 105.411 36.2818 104.827 35.9356C104.244 35.5894 103.784 35.1146 103.447 34.5113C103.121 33.908 102.958 33.2206 102.958 32.4491C102.958 31.7271 103.116 31.0595 103.432 30.4462C103.749 29.833 104.189 29.3434 104.753 28.9774C105.327 28.6016 105.984 28.4137 106.726 28.4137C107.508 28.4137 108.17 28.5818 108.714 28.9181C109.268 29.2544 109.689 29.7143 109.975 30.2979C110.262 30.8814 110.405 31.5391 110.405 32.2711C110.405 32.3799 110.401 32.4788 110.391 32.5678C110.391 32.6568 110.386 32.726 110.376 32.7755H104.53C104.61 33.5272 104.871 34.0909 105.317 34.4668C105.772 34.8427 106.286 35.0306 106.86 35.0306C107.374 35.0306 107.799 34.9169 108.135 34.6893C108.472 34.452 108.739 34.1602 108.937 33.814L110.257 34.452C109.931 35.0454 109.486 35.53 108.922 35.9059C108.358 36.2718 107.656 36.4548 106.815 36.4548ZM106.741 29.7786C106.207 29.7786 105.752 29.9418 105.376 30.2682C105.001 30.5946 104.748 31.0298 104.619 31.5738H108.818C108.799 31.3166 108.714 31.0495 108.566 30.7726C108.417 30.4957 108.19 30.2632 107.883 30.0753C107.586 29.8775 107.206 29.7786 106.741 29.7786ZM116.927 36.2175L114.079 25.5948H115.889L117.58 32.4936L117.758 33.4134H117.847L118.07 32.4936L120.206 25.5948H121.838L123.885 32.4936L124.108 33.3986H124.197L124.375 32.4936L126.066 25.5948H127.861L125.057 36.2175H123.336L121.304 29.1703L121.066 28.1763H120.977L120.725 29.1703L118.604 36.2175H116.927ZM130.841 36.4548C130.297 36.4548 129.812 36.351 129.387 36.1433C128.962 35.9257 128.63 35.624 128.393 35.2383C128.155 34.8525 128.037 34.4124 128.037 33.9179C128.037 33.3838 128.176 32.9288 128.452 32.5529C128.739 32.1672 129.12 31.8755 129.595 31.6776C130.069 31.4798 130.594 31.3809 131.167 31.3809C131.642 31.3809 132.057 31.4254 132.413 31.5144C132.779 31.6034 133.057 31.6974 133.244 31.7963V31.3957C133.244 30.9012 133.066 30.5056 132.71 30.2088C132.354 29.9121 131.894 29.7638 131.33 29.7638C130.945 29.7638 130.579 29.8528 130.233 30.0308C129.886 30.199 129.609 30.4314 129.402 30.7281L128.304 29.8824C128.63 29.4275 129.06 29.0714 129.595 28.8142C130.138 28.5472 130.732 28.4137 131.375 28.4137C132.473 28.4137 133.318 28.6857 133.912 29.2297C134.505 29.7638 134.802 30.5154 134.802 31.4847V36.2175H133.244V35.2828H133.155C132.957 35.5894 132.66 35.8614 132.265 36.0988C131.87 36.3362 131.395 36.4548 130.841 36.4548ZM131.123 35.1493C131.538 35.1493 131.904 35.0504 132.221 34.8525C132.537 34.6547 132.784 34.3976 132.962 34.0811C133.15 33.7547 133.244 33.4036 133.244 33.0277C133.016 32.8992 132.749 32.7953 132.443 32.7161C132.137 32.6271 131.81 32.5826 131.464 32.5826C130.811 32.5826 130.346 32.7161 130.069 32.9832C129.793 33.2404 129.654 33.5568 129.654 33.9327C129.654 34.2888 129.787 34.5805 130.055 34.808C130.322 35.0356 130.678 35.1493 131.123 35.1493ZM136.581 36.2175V25.5948H138.183V36.2175H136.581ZM140.087 36.2175V25.5948H141.69V36.2175H140.087ZM146.962 36.4548C146.221 36.4548 145.558 36.2818 144.974 35.9356C144.391 35.5894 143.932 35.1146 143.595 34.5113C143.268 33.908 143.105 33.2206 143.105 32.4491C143.105 31.7271 143.264 31.0595 143.58 30.4462C143.897 29.833 144.336 29.3434 144.9 28.9774C145.474 28.6016 146.132 28.4137 146.873 28.4137C147.655 28.4137 148.318 28.5818 148.861 28.9181C149.416 29.2544 149.836 29.7143 150.123 30.2979C150.41 30.8814 150.553 31.5391 150.553 32.2711C150.553 32.3799 150.548 32.4788 150.538 32.5678C150.538 32.6568 150.534 32.726 150.523 32.7755H144.678C144.757 33.5272 145.019 34.0909 145.464 34.4668C145.92 34.8427 146.434 35.0306 147.007 35.0306C147.522 35.0306 147.947 34.9169 148.283 34.6893C148.62 34.452 148.887 34.1602 149.084 33.814L150.404 34.452C150.078 35.0454 149.633 35.53 149.069 35.9059C148.505 36.2718 147.804 36.4548 146.962 36.4548ZM146.888 29.7786C146.354 29.7786 145.899 29.9418 145.523 30.2682C145.148 30.5946 144.896 31.0298 144.767 31.5738H148.965C148.946 31.3166 148.861 31.0495 148.713 30.7726C148.565 30.4957 148.338 30.2632 148.031 30.0753C147.734 29.8775 147.353 29.7786 146.888 29.7786ZM152.624 34.0217V30.0456H151.303V28.651H152.624V26.5146H154.226V28.651H156.081V30.0456H154.226V33.6805C154.226 34.0564 154.3 34.3431 154.449 34.541C154.607 34.7388 154.868 34.8377 155.235 34.8377C155.423 34.8377 155.581 34.813 155.71 34.7635C155.848 34.714 155.986 34.6448 156.125 34.5558V36.1136C155.957 36.1828 155.779 36.2373 155.591 36.2768C155.402 36.3163 155.18 36.3362 154.923 36.3362C154.221 36.3362 153.662 36.1334 153.247 35.7279C152.831 35.3125 152.624 34.7437 152.624 34.0217Z" fill="white"/>
<path d="M149.672 0.436523H24.0008C10.9871 0.436523 0.4375 10.9862 0.4375 23.9998C0.4375 37.0134 10.9871 47.563 24.0008 47.563H149.672C162.685 47.563 173.235 37.0134 173.235 23.9998C173.235 10.9862 162.685 0.436523 149.672 0.436523Z" stroke="#747775"/>
</g>
<defs>
<linearGradient id="paint0_linear_568_240" x1="32.5397" y1="29.7109" x2="16.3927" y2="48.6295" gradientUnits="userSpaceOnUse">
<stop stop-color="#4285F4"/>
<stop offset="1" stop-color="#1B74E8"/>
</linearGradient>
<clipPath id="clip0_568_240">
<rect width="173.67" height="47.9992" fill="white"/>
</clipPath>
</defs>
</svg>
