<svg width="174" height="48" viewBox="0 0 174 48" fill="none" xmlns="http://www.w3.org/2000/svg">
<g clip-path="url(#clip0_568_457)">
<path d="M149.672 0.436523H24.0008C10.9871 0.436523 0.4375 10.9862 0.4375 23.9998C0.4375 37.0134 10.9871 47.563 24.0008 47.563H149.672C162.685 47.563 173.235 37.0134 173.235 23.9998C173.235 10.9862 162.685 0.436523 149.672 0.436523Z" fill="#1F1F1F"/>
<path d="M49.7458 20.7629H18.3281V15.8361C18.3281 13.1615 20.634 10.9092 23.3722 10.9092H44.7017C47.4399 10.9092 49.7458 13.1615 49.7458 15.8361V20.7629Z" fill="#34A853"/>
<path d="M49.7458 25.3085H18.3281V20.0722C18.3281 17.2297 20.634 14.8359 23.3722 14.8359H44.7017C47.4399 14.8359 49.7458 17.2297 49.7458 20.0722V25.3085Z" fill="#FBBC04"/>
<path d="M49.7458 29.6718H18.3281V24.4355C18.3281 21.593 20.634 19.1992 23.3722 19.1992H44.7017C47.4399 19.1992 49.7458 21.593 49.7458 24.4355V29.6718Z" fill="#EA4335"/>
<path d="M18.3281 22.0276L38.269 26.5322C40.5644 27.0953 43.1467 26.5322 45.0116 25.1245L49.7458 21.7461V32.3037C49.7458 34.9783 47.4505 37.0898 44.7247 37.0898H23.3492C20.6234 37.0898 18.3281 34.9783 18.3281 32.3037V22.0276Z" fill="url(#paint0_linear_568_457)"/>
<path d="M62.7921 18.7629V11.8196H60.5117V10.6396H66.2978V11.8196H64.0288V18.7629H62.7921ZM68.2643 18.9444C67.8483 18.9444 67.4776 18.865 67.1525 18.7061C66.8272 18.5397 66.5739 18.3091 66.3923 18.0141C66.2108 17.7191 66.12 17.3825 66.12 17.0043C66.12 16.5959 66.2259 16.248 66.4377 15.9606C66.657 15.6656 66.9482 15.4425 67.3113 15.2912C67.6743 15.14 68.0752 15.0643 68.5139 15.0643C68.8769 15.0643 69.1946 15.0983 69.4669 15.1664C69.7467 15.2345 69.9585 15.3063 70.1022 15.382V15.0757C70.1022 14.6975 69.9661 14.3949 69.6938 14.168C69.4215 13.9411 69.0698 13.8277 68.6387 13.8277C68.3437 13.8277 68.0638 13.8957 67.7991 14.0319C67.5344 14.1604 67.3226 14.3382 67.1638 14.5651L66.3243 13.9184C66.5739 13.5705 66.9029 13.2982 67.3113 13.1016C67.7272 12.8974 68.181 12.7953 68.6727 12.7953C69.5123 12.7953 70.159 13.0032 70.6128 13.4192C71.0666 13.8277 71.2935 14.4025 71.2935 15.1437V18.7629H70.1022V18.0481H70.0342C69.8828 18.2826 69.6559 18.4906 69.3534 18.6721C69.0509 18.8536 68.6878 18.9444 68.2643 18.9444ZM68.4799 17.946C68.7975 17.946 69.0773 17.8703 69.3194 17.7191C69.5614 17.5679 69.7505 17.3711 69.8867 17.1291C70.0303 16.8796 70.1022 16.611 70.1022 16.3236C69.9282 16.2253 69.724 16.1459 69.4896 16.0854C69.2551 16.0173 69.0055 15.9833 68.7408 15.9833C68.2416 15.9833 67.8861 16.0854 67.6743 16.2896C67.4625 16.4862 67.3567 16.7283 67.3567 17.0157C67.3567 17.288 67.4588 17.5111 67.663 17.6851C67.8672 17.859 68.1395 17.946 68.4799 17.946ZM72.6424 18.7629V12.9768H73.7996V13.7709H73.8676C74.0341 13.4911 74.2761 13.2604 74.5937 13.0789C74.9114 12.8898 75.2631 12.7953 75.6489 12.7953C76.08 12.7953 76.4469 12.8974 76.7493 13.1016C77.0519 13.3058 77.2675 13.563 77.396 13.8731C77.5851 13.5705 77.8423 13.3171 78.1675 13.1129C78.4928 12.9011 78.8898 12.7953 79.3588 12.7953C80.0395 12.7953 80.5463 13.0032 80.879 13.4192C81.2119 13.8277 81.3782 14.3722 81.3782 15.053V18.7629H80.1643V15.2572C80.1643 14.7958 80.0622 14.4593 79.8579 14.2474C79.6613 14.0281 79.3853 13.9184 79.0297 13.9184C78.75 13.9184 78.5041 13.9979 78.2923 14.1567C78.0806 14.3079 77.9142 14.516 77.7931 14.7807C77.6797 15.0454 77.6229 15.3403 77.6229 15.6656V18.7629H76.409V15.2572C76.409 14.7958 76.3069 14.4593 76.1027 14.2474C75.8984 14.0281 75.6111 13.9184 75.2404 13.9184C74.9681 13.9184 74.7299 13.9979 74.5257 14.1567C74.3215 14.3155 74.1589 14.5273 74.0378 14.792C73.9244 15.0567 73.8676 15.3517 73.8676 15.677V18.7629H72.6424ZM85.8438 18.9444C85.3975 18.9444 85.0118 18.8499 84.6866 18.6608C84.3689 18.4641 84.1344 18.241 83.9832 17.9914H83.9151V18.7629H82.7579V10.6396H83.9832V12.9541L83.9151 13.7596H83.9832C84.1344 13.51 84.3689 13.2869 84.6866 13.0902C85.0118 12.8936 85.3975 12.7953 85.8438 12.7953C86.3732 12.7953 86.8459 12.9276 87.262 13.1923C87.6775 13.457 88.0066 13.8201 88.2492 14.2815C88.4988 14.7429 88.6236 15.2723 88.6236 15.8698C88.6236 16.4674 88.4988 17.0006 88.2492 17.4695C88.0066 17.9309 87.6775 18.294 87.262 18.5587C86.8459 18.8158 86.3732 18.9444 85.8438 18.9444ZM85.6623 17.8212C85.9648 17.8212 86.2484 17.7418 86.5132 17.583C86.7779 17.4241 86.9934 17.201 87.1599 16.9136C87.3258 16.6186 87.4096 16.2707 87.4096 15.8698C87.4096 15.469 87.3258 15.1248 87.1599 14.8374C86.9934 14.5424 86.7779 14.3155 86.5132 14.1567C86.2484 13.9979 85.9648 13.9184 85.6623 13.9184C85.3597 13.9184 85.0761 13.9979 84.8114 14.1567C84.5466 14.3155 84.331 14.5424 84.1647 14.8374C83.9983 15.1248 83.9151 15.469 83.9151 15.8698C83.9151 16.2707 83.9983 16.6186 84.1647 16.9136C84.331 17.201 84.5466 17.4241 84.8114 17.583C85.0761 17.7418 85.3597 17.8212 85.6623 17.8212ZM91.5646 18.9444C91.1483 18.9444 90.7774 18.865 90.4528 18.7061C90.1273 18.5397 89.8742 18.3091 89.6926 18.0141C89.5111 17.7191 89.4204 17.3825 89.4204 17.0043C89.4204 16.5959 89.526 16.248 89.738 15.9606C89.9571 15.6656 90.2486 15.4425 90.6116 15.2912C90.9747 15.14 91.3752 15.0643 91.8142 15.0643C92.1773 15.0643 92.4949 15.0983 92.7672 15.1664C93.0465 15.2345 93.2586 15.3063 93.4026 15.382V15.0757C93.4026 14.6975 93.2664 14.3949 92.9941 14.168C92.7218 13.9411 92.3701 13.8277 91.939 13.8277C91.644 13.8277 91.3639 13.8957 91.0995 14.0319C90.8342 14.1604 90.623 14.3382 90.4641 14.5651L89.6246 13.9184C89.8742 13.5705 90.2032 13.2982 90.6116 13.1016C91.027 12.8974 91.4808 12.7953 91.973 12.7953C92.8126 12.7953 93.4593 13.0032 93.9131 13.4192C94.3669 13.8277 94.5938 14.4025 94.5938 15.1437V18.7629H93.4026V18.0481H93.3345C93.1826 18.2826 92.9557 18.4906 92.6538 18.6721C92.3509 18.8536 91.9879 18.9444 91.5646 18.9444ZM91.7802 17.946C92.0978 17.946 92.3771 17.8703 92.6197 17.7191C92.8615 17.5679 93.0508 17.3711 93.187 17.1291C93.3301 16.8796 93.4026 16.611 93.4026 16.3236C93.228 16.2253 93.0238 16.1459 92.7899 16.0854C92.5551 16.0173 92.3056 15.9833 92.0411 15.9833C91.5419 15.9833 91.1859 16.0854 90.9747 16.2896C90.7626 16.4862 90.657 16.7283 90.657 17.0157C90.657 17.288 90.7591 17.5111 90.9633 17.6851C91.1675 17.859 91.4398 17.946 91.7802 17.946ZM95.9421 18.7629V10.6396H97.1674V12.8633L97.0994 13.7709H97.1674C97.3263 13.4911 97.5689 13.2604 97.8935 13.0789C98.2269 12.8898 98.5934 12.7953 98.994 12.7953C99.7131 12.7953 100.253 13.0108 100.616 13.4419C100.979 13.8655 101.161 14.4214 101.161 15.1097V18.7629H99.947V15.2685C99.947 14.7996 99.8222 14.4593 99.5726 14.2474C99.3309 14.0281 99.0324 13.9184 98.6764 13.9184C98.3814 13.9184 98.1204 14.0016 97.8935 14.168C97.6666 14.3345 97.4895 14.5538 97.3603 14.8261C97.232 15.0907 97.1674 15.3744 97.1674 15.677V18.7629H95.9421ZM102.556 18.7629V10.6396H103.782V15.4274L106.232 12.9768H107.753V13.0448L105.518 15.2572L107.832 18.6948V18.7629H106.38L104.655 16.1081L103.782 16.9703V18.7629H102.556ZM110.299 18.9444C109.884 18.9444 109.513 18.865 109.187 18.7061C108.863 18.5397 108.609 18.3091 108.427 18.0141C108.246 17.7191 108.155 17.3825 108.155 17.0043C108.155 16.5959 108.261 16.248 108.473 15.9606C108.692 15.6656 108.983 15.4425 109.346 15.2912C109.709 15.14 110.111 15.0643 110.549 15.0643C110.912 15.0643 111.229 15.0983 111.502 15.1664C111.782 15.2345 111.994 15.3063 112.137 15.382V15.0757C112.137 14.6975 112.001 14.3949 111.729 14.168C111.456 13.9411 111.105 13.8277 110.674 13.8277C110.379 13.8277 110.099 13.8957 109.834 14.0319C109.57 14.1604 109.357 14.3382 109.199 14.5651L108.359 13.9184C108.609 13.5705 108.938 13.2982 109.346 13.1016C109.762 12.8974 110.216 12.7953 110.708 12.7953C111.547 12.7953 112.194 13.0032 112.648 13.4192C113.101 13.8277 113.328 14.4025 113.328 15.1437V18.7629H112.137V18.0481H112.069C111.918 18.2826 111.691 18.4906 111.388 18.6721C111.086 18.8536 110.723 18.9444 110.299 18.9444ZM110.515 17.946C110.832 17.946 111.113 17.8703 111.354 17.7191C111.597 17.5679 111.785 17.3711 111.922 17.1291C112.066 16.8796 112.137 16.611 112.137 16.3236C111.963 16.2253 111.759 16.1459 111.524 16.0854C111.291 16.0173 111.041 15.9833 110.776 15.9833C110.276 15.9833 109.921 16.0854 109.709 16.2896C109.498 16.4862 109.392 16.7283 109.392 17.0157C109.392 17.288 109.494 17.5111 109.698 17.6851C109.902 17.859 110.174 17.946 110.515 17.946ZM114.678 18.7629V12.9768H115.835V13.7709H115.903C116.07 13.4911 116.315 13.2604 116.64 13.0789C116.973 12.8898 117.336 12.7953 117.729 12.7953C118.441 12.7953 118.974 13.0071 119.329 13.4306C119.684 13.8541 119.862 14.4139 119.862 15.1097V18.7629H118.648V15.2685C118.648 14.7996 118.531 14.4593 118.297 14.2474C118.062 14.0281 117.756 13.9184 117.378 13.9184C117.083 13.9184 116.825 14.0016 116.606 14.168C116.387 14.3269 116.213 14.5387 116.084 14.8034C115.963 15.0681 115.903 15.3517 115.903 15.6543V18.7629H114.678ZM123.907 18.7629V10.6396H125.132V15.4274L127.582 12.9768H129.103V13.0448L126.868 15.2572L129.182 18.6948V18.7629H127.73L126.005 16.1081L125.132 16.9703V18.7629H123.907ZM132.422 18.9444C131.855 18.9444 131.348 18.812 130.902 18.5473C130.455 18.2826 130.104 17.9196 129.847 17.4582C129.597 16.9968 129.473 16.4711 129.473 15.8812C129.473 15.329 129.593 14.8185 129.836 14.3496C130.077 13.8806 130.414 13.5063 130.845 13.2264C131.284 12.939 131.787 12.7953 132.354 12.7953C132.951 12.7953 133.458 12.9238 133.875 13.181C134.298 13.4382 134.619 13.7899 134.839 14.2361C135.058 14.6823 135.168 15.1854 135.168 15.745C135.168 15.8282 135.164 15.9039 135.157 15.9719C135.157 16.04 135.152 16.093 135.145 16.1308H130.675C130.735 16.7056 130.936 17.1367 131.277 17.4241C131.624 17.7115 132.018 17.8552 132.456 17.8552C132.849 17.8552 133.175 17.7682 133.432 17.5943C133.689 17.4128 133.893 17.1896 134.045 16.9249L135.055 17.4128C134.805 17.8666 134.465 18.2372 134.033 18.5246C133.602 18.8045 133.065 18.9444 132.422 18.9444ZM132.366 13.839C131.957 13.839 131.609 13.9638 131.322 14.2134C131.034 14.463 130.841 14.7958 130.743 15.2118H133.954C133.938 15.0152 133.875 14.811 133.761 14.5991C133.648 14.3873 133.473 14.2097 133.239 14.0659C133.012 13.9147 132.721 13.839 132.366 13.839Z" fill="white"/>
<path d="M66.4503 36.4548C65.6887 36.4548 64.9716 36.3163 64.299 36.0394C63.6364 35.7625 63.0478 35.3768 62.5335 34.8822C62.0192 34.3778 61.6137 33.7893 61.317 33.1167C61.0301 32.4343 60.8867 31.6974 60.8867 30.9061C60.8867 30.1148 61.0301 29.383 61.317 28.7104C61.6137 28.0279 62.0143 27.4395 62.5187 26.9449C63.033 26.4405 63.6264 26.0497 64.299 25.7728C64.9716 25.4959 65.6887 25.3574 66.4503 25.3574C67.2613 25.3574 68.0081 25.5008 68.6905 25.7877C69.3828 26.0745 69.9615 26.4751 70.4264 26.9894L69.2988 28.1021C68.9526 27.7164 68.5372 27.4196 68.0526 27.2119C67.5778 27.0042 67.0437 26.9004 66.4503 26.9004C65.748 26.9004 65.1002 27.0686 64.5067 27.4048C63.9133 27.7312 63.4336 28.1961 63.0676 28.7994C62.7116 29.3928 62.5335 30.0951 62.5335 30.9061C62.5335 31.7171 62.7165 32.4244 63.0825 33.0277C63.4484 33.6211 63.9281 34.086 64.5216 34.4223C65.115 34.7487 65.7628 34.9119 66.4651 34.9119C67.108 34.9119 67.6915 34.7932 68.2158 34.5558C68.74 34.3086 69.1603 33.9624 69.4768 33.5173C69.8032 33.0722 70.0011 32.5381 70.0703 31.915H66.4354V30.4759H71.5984C71.6578 30.7429 71.6874 31.0248 71.6874 31.3215V31.3364C71.6874 32.3651 71.4599 33.2651 71.005 34.0366C70.5599 34.7982 69.9417 35.3916 69.1504 35.8169C68.3592 36.2422 67.4591 36.4548 66.4503 36.4548ZM76.4646 36.4548C75.6831 36.4548 74.9958 36.2768 74.4023 35.9207C73.8089 35.5647 73.344 35.0849 73.0078 34.4816C72.6714 33.8783 72.5033 33.1959 72.5033 32.4343C72.5033 31.6826 72.6714 31.005 73.0078 30.4017C73.344 29.7884 73.8089 29.3038 74.4023 28.9478C74.9958 28.5917 75.6831 28.4137 76.4646 28.4137C77.236 28.4137 77.9185 28.5917 78.512 28.9478C79.1054 29.3038 79.5702 29.7884 79.9066 30.4017C80.2428 31.005 80.411 31.6826 80.411 32.4343C80.411 33.1959 80.2428 33.8783 79.9066 34.4816C79.5702 35.0849 79.1054 35.5647 78.512 35.9207C77.9185 36.2768 77.236 36.4548 76.4646 36.4548ZM76.4646 34.9861C76.88 34.9861 77.2657 34.8872 77.6218 34.6893C77.9779 34.4816 78.2646 34.1899 78.4823 33.814C78.7097 33.4283 78.8235 32.9684 78.8235 32.4343C78.8235 31.9002 78.7097 31.4452 78.4823 31.0693C78.2646 30.6836 77.9779 30.3918 77.6218 30.194C77.2657 29.9863 76.88 29.8824 76.4646 29.8824C76.0492 29.8824 75.6584 29.9863 75.2925 30.194C74.9364 30.3918 74.6446 30.6836 74.4172 31.0693C74.1995 31.4452 74.0908 31.9002 74.0908 32.4343C74.0908 32.9684 74.1995 33.4283 74.4172 33.814C74.6446 34.1899 74.9364 34.4816 75.2925 34.6893C75.6584 34.8872 76.0492 34.9861 76.4646 34.9861ZM85.4473 36.4548C84.666 36.4548 83.9785 36.2768 83.3851 35.9207C82.7917 35.5647 82.3268 35.0849 81.9905 34.4816C81.6542 33.8783 81.4861 33.1959 81.4861 32.4343C81.4861 31.6826 81.6542 31.005 81.9905 30.4017C82.3268 29.7884 82.7917 29.3038 83.3851 28.9478C83.9785 28.5917 84.666 28.4137 85.4473 28.4137C86.2188 28.4137 86.9013 28.5917 87.4949 28.9478C88.0883 29.3038 88.5535 29.7884 88.8895 30.4017C89.2255 31.005 89.3939 31.6826 89.3939 32.4343C89.3939 33.1959 89.2255 33.8783 88.8895 34.4816C88.5535 35.0849 88.0883 35.5647 87.4949 35.9207C86.9013 36.2768 86.2188 36.4548 85.4473 36.4548ZM85.4473 34.9861C85.8627 34.9861 86.2485 34.8872 86.6045 34.6893C86.9606 34.4816 87.2475 34.1899 87.4652 33.814C87.693 33.4283 87.8064 32.9684 87.8064 32.4343C87.8064 31.9002 87.693 31.4452 87.4652 31.0693C87.2475 30.6836 86.9606 30.3918 86.6045 30.194C86.2485 29.9863 85.8627 29.8824 85.4473 29.8824C85.0319 29.8824 84.6413 29.9863 84.2753 30.194C83.9192 30.3918 83.6275 30.6836 83.3999 31.0693C83.1824 31.4452 83.0735 31.9002 83.0735 32.4343C83.0735 32.9684 83.1824 33.4283 83.3999 33.814C83.6275 34.1899 83.9192 34.4816 84.2753 34.6893C84.6413 34.8872 85.0319 34.9861 85.4473 34.9861ZM94.282 39.6595C93.6187 39.6595 93.0453 39.5506 92.561 39.3331C92.0862 39.1253 91.7005 38.8533 91.4038 38.5171C91.107 38.1907 90.8941 37.8544 90.7658 37.5082L92.2494 36.8851C92.4074 37.2807 92.6596 37.6022 93.0061 37.8494C93.3621 38.1066 93.7871 38.2352 94.282 38.2352C94.974 38.2352 95.5177 38.0275 95.914 37.6121C96.3189 37.1967 96.5222 36.6082 96.5222 35.8466V35.1196H96.4332C96.1958 35.4757 95.8642 35.7625 95.4392 35.9801C95.0238 36.1878 94.549 36.2916 94.0149 36.2916C93.3717 36.2916 92.7835 36.1284 92.2494 35.8021C91.7153 35.4757 91.2851 35.0207 90.9587 34.4371C90.6323 33.8437 90.4691 33.1514 90.4691 32.3601C90.4691 31.5589 90.6323 30.8666 90.9587 30.283C91.2851 29.6896 91.7153 29.2297 92.2494 28.9033C92.7835 28.5769 93.3717 28.4137 94.0149 28.4137C94.549 28.4137 95.0238 28.5225 95.4392 28.7401C95.8642 28.9576 96.1958 29.2445 96.4332 29.6006H96.5222V28.651H98.0504V35.8169C98.0504 36.6379 97.8872 37.3352 97.5608 37.9088C97.244 38.4824 96.8041 38.9176 96.2403 39.2144C95.6766 39.5111 95.0238 39.6595 94.282 39.6595ZM94.2968 34.8377C94.6921 34.8377 95.0578 34.7437 95.3947 34.5558C95.7307 34.358 96.003 34.0761 96.2107 33.7102C96.4184 33.3343 96.5222 32.8843 96.5222 32.3601C96.5222 31.8161 96.4184 31.3611 96.2107 30.9951C96.003 30.6193 95.7307 30.3374 95.3947 30.1495C95.0578 29.9616 94.6921 29.8676 94.2968 29.8676C93.9006 29.8676 93.5297 29.9665 93.1841 30.1643C92.8472 30.3522 92.5758 30.6292 92.3681 30.9951C92.1604 31.3611 92.0566 31.8161 92.0566 32.3601C92.0566 32.8942 92.1604 33.3491 92.3681 33.725C92.5758 34.0909 92.8472 34.3679 93.1841 34.5558C93.5297 34.7437 93.9006 34.8377 94.2968 34.8377ZM99.9398 36.2175V25.5948H101.542V36.2175H99.9398ZM106.815 36.4548C106.073 36.4548 105.411 36.2818 104.827 35.9356C104.244 35.5894 103.784 35.1146 103.447 34.5113C103.121 33.908 102.958 33.2206 102.958 32.4491C102.958 31.7271 103.116 31.0595 103.432 30.4462C103.749 29.833 104.189 29.3434 104.753 28.9774C105.327 28.6016 105.984 28.4137 106.726 28.4137C107.508 28.4137 108.17 28.5818 108.714 28.9181C109.268 29.2544 109.689 29.7143 109.975 30.2979C110.262 30.8814 110.405 31.5391 110.405 32.2711C110.405 32.3799 110.401 32.4788 110.391 32.5678C110.391 32.6568 110.386 32.726 110.376 32.7755H104.53C104.61 33.5272 104.871 34.0909 105.317 34.4668C105.772 34.8427 106.286 35.0306 106.86 35.0306C107.374 35.0306 107.799 34.9169 108.135 34.6893C108.472 34.452 108.739 34.1602 108.937 33.814L110.257 34.452C109.931 35.0454 109.486 35.53 108.922 35.9059C108.358 36.2718 107.656 36.4548 106.815 36.4548ZM106.741 29.7786C106.207 29.7786 105.752 29.9418 105.376 30.2682C105.001 30.5946 104.748 31.0298 104.619 31.5738H108.818C108.799 31.3166 108.714 31.0495 108.566 30.7726C108.417 30.4957 108.19 30.2632 107.883 30.0753C107.586 29.8775 107.206 29.7786 106.741 29.7786ZM116.927 36.2175L114.079 25.5948H115.889L117.58 32.4936L117.758 33.4134H117.847L118.07 32.4936L120.206 25.5948H121.838L123.885 32.4936L124.108 33.3986H124.197L124.375 32.4936L126.066 25.5948H127.861L125.057 36.2175H123.336L121.304 29.1703L121.066 28.1763H120.977L120.725 29.1703L118.604 36.2175H116.927ZM130.841 36.4548C130.297 36.4548 129.812 36.351 129.387 36.1433C128.962 35.9257 128.63 35.624 128.393 35.2383C128.155 34.8525 128.037 34.4124 128.037 33.9179C128.037 33.3838 128.176 32.9288 128.452 32.5529C128.739 32.1672 129.12 31.8755 129.595 31.6776C130.069 31.4798 130.594 31.3809 131.167 31.3809C131.642 31.3809 132.057 31.4254 132.413 31.5144C132.779 31.6034 133.057 31.6974 133.244 31.7963V31.3957C133.244 30.9012 133.066 30.5056 132.71 30.2088C132.354 29.9121 131.894 29.7638 131.33 29.7638C130.945 29.7638 130.579 29.8528 130.233 30.0308C129.886 30.199 129.609 30.4314 129.402 30.7281L128.304 29.8824C128.63 29.4275 129.06 29.0714 129.595 28.8142C130.138 28.5472 130.732 28.4137 131.375 28.4137C132.473 28.4137 133.318 28.6857 133.912 29.2297C134.505 29.7638 134.802 30.5154 134.802 31.4847V36.2175H133.244V35.2828H133.155C132.957 35.5894 132.66 35.8614 132.265 36.0988C131.87 36.3362 131.395 36.4548 130.841 36.4548ZM131.123 35.1493C131.538 35.1493 131.904 35.0504 132.221 34.8525C132.537 34.6547 132.784 34.3976 132.962 34.0811C133.15 33.7547 133.244 33.4036 133.244 33.0277C133.016 32.8992 132.749 32.7953 132.443 32.7161C132.137 32.6271 131.81 32.5826 131.464 32.5826C130.811 32.5826 130.346 32.7161 130.069 32.9832C129.793 33.2404 129.654 33.5568 129.654 33.9327C129.654 34.2888 129.787 34.5805 130.055 34.808C130.322 35.0356 130.678 35.1493 131.123 35.1493ZM136.581 36.2175V25.5948H138.183V36.2175H136.581ZM140.087 36.2175V25.5948H141.69V36.2175H140.087ZM146.962 36.4548C146.221 36.4548 145.558 36.2818 144.974 35.9356C144.391 35.5894 143.932 35.1146 143.595 34.5113C143.268 33.908 143.105 33.2206 143.105 32.4491C143.105 31.7271 143.264 31.0595 143.58 30.4462C143.897 29.833 144.336 29.3434 144.9 28.9774C145.474 28.6016 146.132 28.4137 146.873 28.4137C147.655 28.4137 148.318 28.5818 148.861 28.9181C149.416 29.2544 149.836 29.7143 150.123 30.2979C150.41 30.8814 150.553 31.5391 150.553 32.2711C150.553 32.3799 150.548 32.4788 150.538 32.5678C150.538 32.6568 150.534 32.726 150.523 32.7755H144.678C144.757 33.5272 145.019 34.0909 145.464 34.4668C145.92 34.8427 146.434 35.0306 147.007 35.0306C147.522 35.0306 147.947 34.9169 148.283 34.6893C148.62 34.452 148.887 34.1602 149.084 33.814L150.404 34.452C150.078 35.0454 149.633 35.53 149.069 35.9059C148.505 36.2718 147.804 36.4548 146.962 36.4548ZM146.888 29.7786C146.354 29.7786 145.899 29.9418 145.523 30.2682C145.148 30.5946 144.896 31.0298 144.767 31.5738H148.965C148.946 31.3166 148.861 31.0495 148.713 30.7726C148.565 30.4957 148.338 30.2632 148.031 30.0753C147.734 29.8775 147.353 29.7786 146.888 29.7786ZM152.624 34.0217V30.0456H151.303V28.651H152.624V26.5146H154.226V28.651H156.081V30.0456H154.226V33.6805C154.226 34.0564 154.3 34.3431 154.449 34.541C154.607 34.7388 154.868 34.8377 155.235 34.8377C155.423 34.8377 155.581 34.813 155.71 34.7635C155.848 34.714 155.986 34.6448 156.125 34.5558V36.1136C155.957 36.1828 155.779 36.2373 155.591 36.2768C155.402 36.3163 155.18 36.3362 154.923 36.3362C154.221 36.3362 153.662 36.1334 153.247 35.7279C152.831 35.3125 152.624 34.7437 152.624 34.0217Z" fill="white"/>
<path d="M149.672 0.436523H24.0008C10.9871 0.436523 0.4375 10.9862 0.4375 23.9998C0.4375 37.0134 10.9871 47.563 24.0008 47.563H149.672C162.685 47.563 173.235 37.0134 173.235 23.9998C173.235 10.9862 162.685 0.436523 149.672 0.436523Z" stroke="#747775"/>
</g>
<defs>
<linearGradient id="paint0_linear_568_457" x1="32.5397" y1="29.7109" x2="16.3927" y2="48.6295" gradientUnits="userSpaceOnUse">
<stop stop-color="#4285F4"/>
<stop offset="1" stop-color="#1B74E8"/>
</linearGradient>
<clipPath id="clip0_568_457">
<rect width="173.67" height="47.9992" fill="white"/>
</clipPath>
</defs>
</svg>
