<svg width="174" height="30" viewBox="0 0 174 30" fill="none" xmlns="http://www.w3.org/2000/svg">
<g clip-path="url(#clip0_568_610)">
<path d="M159.002 0.292969H14.6677C6.72875 0.292969 0.292969 6.72875 0.292969 14.6677C0.292969 22.6066 6.72875 29.0424 14.6677 29.0424H159.002C166.94 29.0424 173.376 22.6066 173.376 14.6677C173.376 6.72875 166.94 0.292969 159.002 0.292969Z" fill="#1F1F1F"/>
<path d="M159.002 0.292969H14.6677C6.72875 0.292969 0.292969 6.72875 0.292969 14.6677C0.292969 22.6066 6.72875 29.0424 14.6677 29.0424H159.002C166.94 29.0424 173.376 22.6066 173.376 14.6677C173.376 6.72875 166.94 0.292969 159.002 0.292969Z" stroke="#747775"/>
<path d="M29.922 12.9082H12.3203V9.97463C12.3203 8.38209 13.6122 7.04102 15.1463 7.04102H27.096C28.6302 7.04102 29.922 8.38209 29.922 9.97463V12.9082Z" fill="#34A853"/>
<path d="M29.922 15.2872H12.3203V12.3535C12.3203 10.761 13.6122 9.41992 15.1463 9.41992H27.096C28.6302 9.41992 29.922 10.761 29.922 12.3535V15.2872Z" fill="#FBBC04"/>
<path d="M29.922 17.7461H12.3203V14.8125C12.3203 13.22 13.6122 11.8789 15.1463 11.8789H27.096C28.6302 11.8789 29.922 13.22 29.922 14.8125V17.7461Z" fill="#EA4335"/>
<path d="M12.3203 13.6556L23.4922 16.2394C24.7781 16.5623 26.2248 16.2394 27.2697 15.432L29.922 13.4941V19.5498C29.922 21.0839 28.636 22.295 27.109 22.295H15.1334C13.6063 22.295 12.3203 21.0839 12.3203 19.5498V13.6556Z" fill="#4285F4"/>
<path d="M39.1697 18.9161C38.7864 18.9161 38.4696 18.791 38.2193 18.5406C37.9689 18.2903 37.8438 17.9696 37.8438 17.5784V12.4387H39.0876V16.4871C39.158 16.4793 39.2284 16.4754 39.2988 16.4754C39.6509 16.4754 39.9364 16.5888 40.1554 16.8157C40.3823 17.0426 40.4957 17.332 40.4957 17.684C40.4957 18.0439 40.3706 18.3412 40.1202 18.5758C39.8699 18.8027 39.5531 18.9161 39.1697 18.9161ZM39.2049 18.1651C39.3536 18.1651 39.4709 18.1182 39.557 18.0243C39.6509 17.9305 39.6978 17.8131 39.6978 17.6723C39.6978 17.5315 39.6509 17.4141 39.557 17.3203C39.4709 17.2264 39.3536 17.1794 39.2049 17.1794C39.0641 17.1794 38.9468 17.2264 38.8529 17.3203C38.759 17.4141 38.7121 17.5315 38.7121 17.6723C38.7121 17.8131 38.759 17.9305 38.8529 18.0243C38.9468 18.1182 39.0641 18.1651 39.2049 18.1651ZM43.9093 18.9631C43.3226 18.9631 42.8649 18.7949 42.5364 18.4585C42.2156 18.1143 42.0552 17.6254 42.0552 16.9917V14.7269C41.977 14.7426 41.8988 14.7504 41.8206 14.7504C41.4763 14.7504 41.1908 14.637 40.9639 14.4101C40.7371 14.1754 40.6236 13.886 40.6236 13.5418C40.6236 13.1819 40.7488 12.8886 40.9991 12.6617C41.2494 12.427 41.5663 12.3096 41.9496 12.3096C42.3329 12.3096 42.6458 12.4348 42.8884 12.6851C43.1387 12.9355 43.2639 13.2562 43.2639 13.6474V17.0386C43.2639 17.3359 43.3343 17.5628 43.4751 17.7192C43.6159 17.8757 43.8154 17.9539 44.0736 17.9539C44.3552 17.9539 44.5742 17.8718 44.7307 17.7075C44.895 17.5354 44.9771 17.3007 44.9771 17.0034V12.4387H46.1154V17.0386C46.1154 17.3203 46.1975 17.5432 46.3618 17.7075C46.5339 17.8718 46.7568 17.9539 47.0307 17.9539C47.2888 17.9539 47.4844 17.8757 47.6174 17.7192C47.7582 17.555 47.8286 17.3163 47.8286 17.0034V12.4387H49.049V16.98C49.049 17.598 48.8808 18.083 48.5444 18.435C48.208 18.7871 47.7503 18.9631 47.1715 18.9631C46.4909 18.9631 45.9628 18.7167 45.5873 18.2238H45.5286C45.1453 18.7167 44.6055 18.9631 43.9093 18.9631ZM41.9144 14.0463C42.0552 14.0463 42.1726 13.9994 42.2665 13.9055C42.3603 13.8117 42.4073 13.6943 42.4073 13.5535C42.4073 13.4049 42.3603 13.2875 42.2665 13.2015C42.1726 13.1076 42.0552 13.0607 41.9144 13.0607C41.7736 13.0607 41.6563 13.1076 41.5624 13.2015C41.4685 13.2875 41.4216 13.4049 41.4216 13.5535C41.4216 13.6943 41.4685 13.8117 41.5624 13.9055C41.6563 13.9994 41.7736 14.0463 41.9144 14.0463ZM43.2838 11.5469C43.1665 11.4374 43.0766 11.3083 43.014 11.1597C42.9514 11.0032 42.9201 10.8546 42.9201 10.7138C42.9201 10.2913 43.1548 9.95882 43.6241 9.71633C44.0857 9.46598 44.7116 9.34083 45.5017 9.34083C46.2527 9.34083 46.8511 9.46598 47.297 9.71633C47.7429 9.95882 47.9659 10.2913 47.9659 10.7138C47.9659 10.745 47.962 10.7802 47.9542 10.8194C47.9776 10.8116 48.005 10.8037 48.0363 10.7959C48.1928 10.749 48.3453 10.7255 48.4939 10.7255H48.8929V11.5469H46.8277C46.8668 11.453 46.902 11.3552 46.9333 11.2535C46.9567 11.1519 46.9685 11.058 46.9685 10.9719C46.9685 10.7216 46.8394 10.5221 46.5812 10.3735C46.3153 10.217 45.9554 10.1388 45.5017 10.1388C45.0557 10.1388 44.6998 10.217 44.4338 10.3735C44.1679 10.5221 44.0349 10.7216 44.0349 10.9719C44.0349 11.0423 44.0505 11.1284 44.0818 11.2301C44.1053 11.3318 44.1366 11.4374 44.1757 11.5469H43.2838ZM45.1144 8.93012L44.9971 7.14648H46.1001L45.9828 8.93012H45.1144ZM51.3354 18.9161C50.9521 18.9161 50.6353 18.8027 50.385 18.5758C50.1346 18.3412 50.0095 18.0439 50.0095 17.684C50.0095 17.332 50.1229 17.0426 50.3498 16.8157C50.5844 16.5888 50.8739 16.4754 51.2181 16.4754C51.2807 16.4754 51.3432 16.4793 51.4059 16.4871V12.4387H52.6497V16.6983C52.6497 17.0816 52.7827 17.3867 53.0487 17.6136C53.3225 17.8405 53.6706 17.9539 54.093 17.9539C54.4763 17.9539 54.7776 17.8483 54.9966 17.6371C55.2235 17.4259 55.3369 17.1247 55.3369 16.7335V12.4387H56.5807V16.7453C56.5807 17.465 56.3578 18.0165 55.9119 18.3998C55.4738 18.7753 54.8675 18.9631 54.093 18.9631C53.4359 18.9631 52.9039 18.7636 52.4972 18.3646C52.4815 18.349 52.4659 18.3334 52.4502 18.3177C52.4033 18.3959 52.3446 18.4702 52.2742 18.5406C52.0238 18.791 51.7109 18.9161 51.3354 18.9161ZM51.3002 18.1651C51.4411 18.1651 51.5584 18.1182 51.6523 18.0243C51.7462 17.9305 51.7931 17.8131 51.7931 17.6723C51.7931 17.5315 51.7462 17.4141 51.6523 17.3203C51.5584 17.2264 51.4411 17.1794 51.3002 17.1794C51.1594 17.1794 51.0421 17.2264 50.9482 17.3203C50.8543 17.4141 50.8074 17.5315 50.8074 17.6723C50.8074 17.8131 50.8543 17.9305 50.9482 18.0243C51.0421 18.1182 51.1594 18.1651 51.3002 18.1651ZM60.1439 18.9161C59.7602 18.9161 59.4434 18.791 59.1934 18.5406C58.9429 18.2903 58.8179 17.9696 58.8179 17.5784V12.826C58.8179 12.5131 58.8883 12.2118 59.0291 11.9224C59.17 11.6251 59.3653 11.3083 59.6159 10.9719C59.8189 10.6903 59.9714 10.4478 60.0735 10.2444C60.1826 10.0332 60.2378 9.83368 60.2378 9.64592C60.2378 9.35649 60.1357 9.1218 59.9327 8.94186C59.7291 8.75411 59.4668 8.66023 59.1465 8.66023C59.0526 8.66023 58.947 8.6759 58.8297 8.70717C58.7827 8.71497 58.7434 8.7267 58.7123 8.74237C58.9153 8.80497 59.0878 8.92232 59.2286 9.0944C59.3929 9.29782 59.4751 9.53251 59.4751 9.79847C59.4751 10.1427 59.3577 10.4282 59.123 10.6551C58.8883 10.8741 58.5869 10.9837 58.2192 10.9837C57.8437 10.9837 57.5308 10.8585 57.2804 10.6081C57.0301 10.35 56.9049 10.0254 56.9049 9.63419C56.9049 9.25869 56.9988 8.93012 57.1865 8.64849C57.3743 8.35906 57.6364 8.13611 57.9727 7.97963C58.317 7.82315 58.7082 7.74494 59.1465 7.74494C59.5766 7.74494 59.9562 7.82708 60.2847 7.99137C60.6209 8.14784 60.8832 8.3708 61.0709 8.66023C61.2663 8.94186 61.3643 9.27042 61.3643 9.64592C61.3643 9.91975 61.3056 10.1779 61.1883 10.4204C61.0786 10.6629 60.9184 10.9406 60.7072 11.2535C60.574 11.4491 60.4607 11.633 60.3669 11.8051C60.273 11.9772 60.1985 12.1454 60.1439 12.3096C60.0888 12.4739 60.0618 12.6499 60.0618 12.8377V16.4871C60.1322 16.4793 60.2026 16.4754 60.273 16.4754C60.625 16.4754 60.9102 16.5888 61.1296 16.8157C61.3561 17.0426 61.4699 17.332 61.4699 17.684C61.4699 18.0439 61.3444 18.3412 61.0944 18.5758C60.8515 18.8027 60.5347 18.9161 60.1439 18.9161ZM58.2309 10.3265C58.3795 10.3265 58.5008 10.2796 58.5947 10.1857C58.6965 10.084 58.7475 9.95882 58.7475 9.81021C58.7475 9.66159 58.6965 9.54031 58.5947 9.44644C58.5008 9.34476 58.3757 9.29389 58.2192 9.29389C58.0706 9.29389 57.9453 9.34476 57.8437 9.44644C57.7498 9.54031 57.7029 9.66159 57.7029 9.81021C57.7029 9.95882 57.7537 10.084 57.8554 10.1857C57.9571 10.2796 58.0823 10.3265 58.2309 10.3265ZM60.1791 18.1651C60.3276 18.1651 60.4449 18.1182 60.5312 18.0243C60.625 17.9305 60.672 17.8131 60.672 17.6723C60.672 17.5315 60.625 17.4141 60.5312 17.3203C60.4449 17.2264 60.3276 17.1794 60.1791 17.1794C60.0383 17.1794 59.921 17.2264 59.8271 17.3203C59.7332 17.4141 59.6863 17.5315 59.6863 17.6723C59.6863 17.8131 59.7332 17.9305 59.8271 18.0243C59.921 18.1182 60.0383 18.1651 60.1791 18.1651ZM63.7012 18.9161C63.3257 18.9161 63.013 18.7949 62.7625 18.5524C62.5201 18.302 62.3987 17.9813 62.3987 17.5902V16.7453C62.3987 16.229 62.5747 15.83 62.9267 15.5484C63.2788 15.2667 63.7405 15.1259 64.3114 15.1259C64.6951 15.1259 65.012 15.1768 65.2619 15.2785C65.5124 15.3801 65.716 15.5288 65.8721 15.7244C66.0288 15.9121 66.1578 16.1351 66.2593 16.3932L66.7874 17.7075C66.8191 17.7779 66.8619 17.8366 66.9165 17.8835C66.9792 17.9226 67.0538 17.9422 67.1394 17.9422C67.2333 17.9422 67.3119 17.9148 67.3741 17.86C67.4369 17.8053 67.468 17.731 67.468 17.6371V14.7152C67.468 14.5509 67.4445 14.3984 67.3976 14.2576C67.1946 14.3592 66.9751 14.4453 66.7404 14.5157C66.2241 14.6643 65.6415 14.7387 64.992 14.7387C64.1864 14.7387 63.541 14.6487 63.0558 14.4688C62.5788 14.281 62.34 13.9955 62.34 13.6122C62.34 13.3462 62.4574 13.1115 62.6921 12.9081C62.935 12.7047 63.267 12.5443 63.6895 12.427C64.1119 12.3096 64.593 12.251 65.1328 12.251C65.8604 12.251 66.4864 12.3527 67.0103 12.5561C67.245 12.6499 67.4527 12.7556 67.6323 12.8729C67.8124 12.6617 67.9767 12.427 68.1251 12.1688L69.1695 12.6147C68.9348 12.998 68.6649 13.3266 68.3598 13.6004C68.571 13.9368 68.6766 14.324 68.6766 14.7621V17.6958C68.6766 18.0791 68.544 18.3803 68.2777 18.5993C68.0195 18.8105 67.6792 18.9161 67.2568 18.9161C66.8578 18.9161 66.5568 18.834 66.3532 18.6697C66.1502 18.5054 65.9935 18.2864 65.8838 18.0126L65.3206 16.6045C65.2349 16.3854 65.1176 16.2212 64.9685 16.1116C64.8201 15.9943 64.6247 15.9356 64.3818 15.9356C64.1553 15.9356 63.9676 15.9825 63.8186 16.0764C63.6778 16.1703 63.6073 16.3072 63.6073 16.4871V16.5341C63.6778 16.5184 63.7482 16.5106 63.8186 16.5106C64.163 16.5106 64.4446 16.624 64.6634 16.8509C64.8905 17.0778 65.0037 17.3633 65.0037 17.7075C65.0037 18.0595 64.8788 18.349 64.6282 18.5758C64.3859 18.8027 64.0767 18.9161 63.7012 18.9161ZM66.8695 13.5652C66.7211 13.4557 66.5451 13.3618 66.3415 13.2836C65.9818 13.1506 65.5711 13.0841 65.1094 13.0841C64.6717 13.0841 64.3079 13.1389 64.018 13.2484C63.7364 13.3501 63.5956 13.4674 63.5956 13.6004C63.5956 13.7256 63.7288 13.8312 63.9946 13.9173C64.261 13.9955 64.6089 14.0346 65.0389 14.0346C65.5635 14.0346 66.017 13.9564 66.4001 13.7999C66.5644 13.7373 66.7211 13.6591 66.8695 13.5652ZM63.7364 18.1886C63.8772 18.1886 63.9946 18.1417 64.0885 18.0478C64.1823 17.9539 64.2293 17.8366 64.2293 17.6958C64.2293 17.5549 64.1823 17.4376 64.0885 17.3437C63.9946 17.2499 63.8772 17.2029 63.7364 17.2029C63.5956 17.2029 63.4783 17.2499 63.3844 17.3437C63.2905 17.4376 63.2436 17.5549 63.2436 17.6958C63.2436 17.8366 63.2905 17.9539 63.3844 18.0478C63.4783 18.1417 63.5956 18.1886 63.7364 18.1886ZM64.914 11.629L64.7966 9.51684H66.0874L65.9818 11.629H64.914ZM72.4164 18.9161C72.0333 18.9161 71.7164 18.791 71.4659 18.5406C71.216 18.2903 71.0904 17.9696 71.0904 17.5784V12.826C71.0904 12.5131 71.1608 12.2118 71.3016 11.9224C71.4424 11.6251 71.6384 11.3083 71.8884 10.9719C72.0919 10.6903 72.2445 10.4478 72.346 10.2444C72.4557 10.0332 72.5103 9.83368 72.5103 9.64592C72.5103 9.35649 72.4088 9.1218 72.2052 8.94186C72.0022 8.75411 71.7399 8.66023 71.419 8.66023C71.3251 8.66023 71.2195 8.6759 71.1021 8.70717C71.0552 8.71497 71.0165 8.7267 70.9848 8.74237C71.1884 8.80497 71.3603 8.92232 71.5011 9.0944C71.6654 9.29782 71.7475 9.53251 71.7475 9.79847C71.7475 10.1427 71.6302 10.4282 71.3955 10.6551C71.1608 10.8741 70.8598 10.9837 70.4919 10.9837C70.1164 10.9837 69.8037 10.8585 69.5532 10.6081C69.3032 10.35 69.1777 10.0254 69.1777 9.63419C69.1777 9.25869 69.2716 8.93012 69.4593 8.64849C69.6471 8.35906 69.9093 8.13611 70.2455 7.97963C70.5899 7.82315 70.9813 7.74494 71.419 7.74494C71.8496 7.74494 72.2287 7.82708 72.5572 7.99137C72.894 8.14784 73.1557 8.3708 73.3434 8.66023C73.5394 8.94186 73.6368 9.27042 73.6368 9.64592C73.6368 9.91975 73.5781 10.1779 73.4608 10.4204C73.3516 10.6629 73.1909 10.9406 72.9797 11.2535C72.8471 11.4491 72.7332 11.633 72.6394 11.8051C72.5455 11.9772 72.4716 12.1454 72.4164 12.3096C72.3618 12.4739 72.3343 12.6499 72.3343 12.8377V16.4871C72.4047 16.4793 72.4751 16.4754 72.5455 16.4754C72.8975 16.4754 73.1832 16.5888 73.4021 16.8157C73.6292 17.0426 73.7424 17.332 73.7424 17.684C73.7424 18.0439 73.6174 18.3412 73.3669 18.5758C73.1246 18.8027 72.8077 18.9161 72.4164 18.9161ZM70.5037 10.3265C70.6527 10.3265 70.7736 10.2796 70.8675 10.1857C70.9695 10.084 71.02 9.95882 71.02 9.81021C71.02 9.66159 70.9695 9.54031 70.8675 9.44644C70.7736 9.34476 70.6486 9.29389 70.4919 9.29389C70.3435 9.29389 70.2185 9.34476 70.1164 9.44644C70.0226 9.54031 69.9756 9.66159 69.9756 9.81021C69.9756 9.95882 70.0267 10.084 70.1282 10.1857C70.2303 10.2796 70.3552 10.3265 70.5037 10.3265ZM72.4516 18.1651C72.6006 18.1651 72.718 18.1182 72.8036 18.0243C72.8975 17.9305 72.9444 17.8131 72.9444 17.6723C72.9444 17.5315 72.8975 17.4141 72.8036 17.3203C72.718 17.2264 72.6006 17.1794 72.4516 17.1794C72.3108 17.1794 72.1934 17.2264 72.0996 17.3203C72.0057 17.4141 71.9588 17.5315 71.9588 17.6723C71.9588 17.8131 72.0057 17.9305 72.0996 18.0243C72.1934 18.1182 72.3108 18.1651 72.4516 18.1651ZM78.462 18.9631C78.0396 18.9631 77.6564 18.877 77.312 18.7049C77.0773 18.5798 76.8702 18.4155 76.6901 18.2121C76.5651 18.4155 76.4049 18.5758 76.209 18.6932C75.9825 18.8418 75.732 18.9161 75.458 18.9161C75.2467 18.9161 75.0631 18.9005 74.9065 18.8692C74.758 18.8379 74.6213 18.7949 74.4957 18.7401V17.731C74.6917 17.817 74.8754 17.86 75.0473 17.86C75.2902 17.86 75.4662 17.7857 75.5753 17.6371C75.685 17.4806 75.7396 17.2499 75.7396 16.9448V14.7387C75.6692 14.7465 75.6029 14.7504 75.5401 14.7504C75.1963 14.7504 74.9106 14.637 74.6835 14.4101C74.457 14.1832 74.3432 13.8938 74.3432 13.5418C74.3432 13.1819 74.4688 12.8886 74.7187 12.6617C74.9692 12.427 75.2861 12.3096 75.6692 12.3096C76.0447 12.3096 76.358 12.4348 76.608 12.6851C76.8585 12.9355 76.9835 13.2562 76.9835 13.6474V16.6983C76.9835 17.0895 77.1008 17.3985 77.3355 17.6254C77.5702 17.8444 77.8911 17.9539 78.2977 17.9539C78.6497 17.9539 78.9237 17.8483 79.1191 17.6371C79.3151 17.4259 79.4125 17.1247 79.4125 16.7335V12.4387H80.6563V16.7453C80.6563 17.2381 80.5625 17.6488 80.3747 17.9774C80.187 18.306 79.9288 18.5524 79.6002 18.7167C79.2717 18.8809 78.8927 18.9631 78.462 18.9631ZM75.634 14.0463C75.7748 14.0463 75.8921 13.9994 75.986 13.9055C76.0799 13.8117 76.1268 13.6943 76.1268 13.5535C76.1268 13.4049 76.0799 13.2875 75.986 13.2015C75.8921 13.1076 75.7748 13.0607 75.634 13.0607C75.4932 13.0607 75.3758 13.1076 75.282 13.2015C75.1881 13.2875 75.1411 13.4049 75.1411 13.5535C75.1411 13.6943 75.1881 13.8117 75.282 13.9055C75.3758 13.9994 75.4932 14.0463 75.634 14.0463Z" fill="white"/>
<path d="M89.416 18.9629C88.8135 18.9629 88.2467 18.8534 87.7146 18.6344C87.1824 18.4153 86.713 18.1102 86.3064 17.7191C85.9075 17.3201 85.5906 16.8547 85.3559 16.3227C85.1289 15.7829 85.0156 15.2001 85.0156 14.5742C85.0156 13.9484 85.1289 13.3695 85.3559 12.8375C85.5906 12.2977 85.9075 11.8323 86.3064 11.4411C86.713 11.0422 87.1824 10.7331 87.7146 10.5141C88.2467 10.2951 88.8135 10.1855 89.416 10.1855C90.0573 10.1855 90.6482 10.299 91.188 10.5258C91.7354 10.7527 92.193 11.0696 92.5609 11.4763L91.6691 12.3564C91.4889 12.153 91.2818 11.9809 91.0471 11.8401C90.8201 11.6993 90.5701 11.5937 90.2961 11.5233C90.0221 11.4451 89.7288 11.4059 89.416 11.4059C89.0012 11.4059 88.6064 11.4803 88.2309 11.6289C87.8554 11.7775 87.5227 11.9927 87.2334 12.2743C86.9518 12.5481 86.7289 12.8805 86.5646 13.2717C86.4003 13.655 86.3182 14.0892 86.3182 14.5742C86.3182 15.0593 86.4003 15.4973 86.5646 15.8885C86.7365 16.2718 86.9635 16.6043 87.2452 16.8859C87.5344 17.1597 87.8671 17.371 88.2426 17.5196C88.6181 17.6682 89.013 17.7425 89.4278 17.7425C89.8109 17.7425 90.1671 17.6878 90.4956 17.5783C90.8318 17.4687 91.1252 17.3123 91.3757 17.1089C91.6262 16.9055 91.8292 16.659 91.9859 16.3696C92.1426 16.0723 92.2399 15.7399 92.2793 15.3722H89.4043V14.2339H93.4879C93.5037 14.3278 93.519 14.4374 93.5348 14.5625C93.5507 14.6798 93.5583 14.7933 93.5583 14.9028V14.9145C93.5583 15.5169 93.4527 16.0684 93.2415 16.5691C93.0379 17.0697 92.7527 17.5 92.3849 17.8599C92.017 18.2119 91.5793 18.4857 91.0706 18.6813C90.5701 18.869 90.0186 18.9629 89.416 18.9629ZM97.3368 18.9629C96.719 18.9629 96.1751 18.8221 95.7057 18.5405C95.2363 18.2589 94.8685 17.8794 94.6027 17.4022C94.3369 16.9172 94.2037 16.3774 94.2037 15.7829C94.2037 15.1884 94.3369 14.6524 94.6027 14.1753C94.8685 13.6902 95.2363 13.3069 95.7057 13.0253C96.1751 12.7437 96.719 12.6028 97.3368 12.6028C97.947 12.6028 98.4868 12.7476 98.9562 13.037C99.4255 13.3186 99.7934 13.6981 100.059 14.1753C100.325 14.6524 100.458 15.1884 100.458 15.7829C100.458 16.3774 100.325 16.9172 100.059 17.4022C99.7934 17.8794 99.4255 18.2589 98.9562 18.5405C98.4868 18.8221 97.947 18.9629 97.3368 18.9629ZM97.3368 17.8012C97.6654 17.8012 97.9705 17.723 98.2521 17.5665C98.5337 17.4022 98.7608 17.1715 98.9327 16.8742C99.1128 16.5691 99.2026 16.2053 99.2026 15.7829C99.2026 15.3604 99.1128 15.0006 98.9327 14.7033C98.7608 14.3982 98.5337 14.1675 98.2521 14.011C97.9705 13.8467 97.6654 13.7646 97.3368 13.7646C97.0082 13.7646 96.699 13.8467 96.4098 14.011C96.1282 14.1675 95.8976 14.3982 95.7175 14.7033C95.5455 15.0006 95.4593 15.3604 95.4593 15.7829C95.4593 16.2053 95.5455 16.5691 95.7175 16.8742C95.8976 17.1715 96.1323 17.4022 96.4215 17.5665C96.7108 17.723 97.0159 17.8012 97.3368 17.8012ZM104.441 18.9629C103.824 18.9629 103.28 18.8221 102.81 18.5405C102.341 18.2589 101.974 17.8794 101.707 17.4022C101.442 16.9172 101.308 16.3774 101.308 15.7829C101.308 15.1884 101.442 14.6524 101.707 14.1753C101.974 13.6902 102.341 13.3069 102.81 13.0253C103.28 12.7437 103.824 12.6028 104.441 12.6028C105.052 12.6028 105.591 12.7476 106.061 13.037C106.53 13.3186 106.898 13.6981 107.164 14.1753C107.43 14.6524 107.563 15.1884 107.563 15.7829C107.563 16.3774 107.43 16.9172 107.164 17.4022C106.898 17.8794 106.53 18.2589 106.061 18.5405C105.591 18.8221 105.052 18.9629 104.441 18.9629ZM104.441 17.8012C104.77 17.8012 105.075 17.723 105.357 17.5665C105.638 17.4022 105.865 17.1715 106.037 16.8742C106.217 16.5691 106.307 16.2053 106.307 15.7829C106.307 15.3604 106.217 15.0006 106.037 14.7033C105.865 14.3982 105.638 14.1675 105.357 14.011C105.075 13.8467 104.77 13.7646 104.441 13.7646C104.113 13.7646 103.804 13.8467 103.514 14.011C103.233 14.1675 103.002 14.3982 102.822 14.7033C102.65 15.0006 102.564 15.3604 102.564 15.7829C102.564 16.2053 102.65 16.5691 102.822 16.8742C103.002 17.1715 103.237 17.4022 103.526 17.5665C103.816 17.723 104.121 17.8012 104.441 17.8012ZM111.429 21.4976C110.905 21.4976 110.451 21.4115 110.068 21.2394C109.693 21.0751 109.388 20.86 109.153 20.594C108.918 20.3359 108.75 20.0699 108.648 19.7961L109.822 19.3032C109.947 19.6161 110.146 19.8704 110.42 20.066C110.702 20.2694 111.038 20.3711 111.429 20.3711C111.984 20.3711 112.419 20.2068 112.732 19.8782C113.045 19.5496 113.201 19.0842 113.201 18.4818V17.9068H113.131C112.943 18.1806 112.685 18.4036 112.356 18.5757C112.028 18.7478 111.648 18.8338 111.218 18.8338C110.709 18.8338 110.24 18.7048 109.81 18.4466C109.388 18.1884 109.047 17.8286 108.789 17.367C108.539 16.8977 108.414 16.3501 108.414 15.7242C108.414 15.0906 108.539 14.543 108.789 14.0814C109.047 13.612 109.388 13.2482 109.81 12.9901C110.24 12.7319 110.709 12.6028 111.218 12.6028C111.648 12.6028 112.028 12.6889 112.356 12.861C112.685 13.0253 112.943 13.2522 113.131 13.5416H113.201V12.7906H114.41V18.4583C114.41 19.1077 114.281 19.6592 114.023 20.1129C113.772 20.5666 113.424 20.9108 112.978 21.1455C112.532 21.3802 112.016 21.4976 111.429 21.4976ZM111.441 17.6839C111.754 17.6839 112.043 17.6095 112.309 17.4609C112.583 17.3044 112.798 17.0815 112.955 16.792C113.119 16.4948 113.201 16.1388 113.201 15.7242C113.201 15.2861 113.119 14.9223 112.955 14.6329C112.798 14.3435 112.583 14.1244 112.309 13.9758C112.043 13.8272 111.754 13.7528 111.441 13.7528C111.128 13.7528 110.834 13.8272 110.561 13.9758C110.295 14.1244 110.08 14.3473 109.916 14.6446C109.751 14.9341 109.669 15.294 109.669 15.7242C109.669 16.1467 109.751 16.5065 109.916 16.8038C110.08 17.0932 110.295 17.3123 110.561 17.4609C110.834 17.6095 111.128 17.6839 111.441 17.6839ZM115.904 18.7752V10.3733H117.172V18.7752H115.904ZM121.343 18.9629C120.756 18.9629 120.231 18.826 119.77 18.5522C119.308 18.2784 118.945 17.9029 118.679 17.4257C118.421 16.9485 118.292 16.4048 118.292 15.7946C118.292 15.2236 118.417 14.6955 118.667 14.2105C118.917 13.7254 119.266 13.3382 119.711 13.0488C120.165 12.7515 120.685 12.6028 121.272 12.6028C121.89 12.6028 122.414 12.7359 122.845 13.0018C123.282 13.2678 123.615 13.6315 123.842 14.0931C124.068 14.5547 124.182 15.0749 124.182 15.6538C124.182 15.7399 124.178 15.8181 124.171 15.8885C124.171 15.9589 124.166 16.0136 124.159 16.0528H119.535C119.567 16.3813 119.649 16.6669 119.782 16.9094C119.954 17.2145 120.181 17.4452 120.462 17.6017C120.744 17.7582 121.049 17.8364 121.378 17.8364C121.777 17.8364 122.109 17.7465 122.375 17.5665C122.649 17.3788 122.864 17.148 123.021 16.8742L124.065 17.3788C123.807 17.8481 123.455 18.2315 123.009 18.5287C122.563 18.8182 122.007 18.9629 121.343 18.9629ZM119.606 15.1023H122.927C122.919 14.9537 122.88 14.7972 122.809 14.6329C122.739 14.4608 122.637 14.3043 122.504 14.1635C122.371 14.0227 122.203 13.9093 122 13.8232C121.796 13.7294 121.557 13.6824 121.284 13.6824C120.94 13.6824 120.634 13.7724 120.369 13.9523C120.102 14.1244 119.895 14.3669 119.747 14.6798C119.684 14.8129 119.637 14.9537 119.606 15.1023ZM129.34 18.7752L127.087 10.3733H128.519L129.857 15.8298L129.997 16.5574H130.068L130.244 15.8298L131.934 10.3733H133.224L134.844 15.8298L135.02 16.5456H135.09L135.231 15.8298L136.569 10.3733H137.989L135.771 18.7752H134.409L132.802 13.2013L132.614 12.4151H132.544L132.344 13.2013L130.666 18.7752H129.34ZM140.345 18.9629C139.915 18.9629 139.532 18.8768 139.195 18.7048C138.866 18.5327 138.605 18.298 138.409 18.0007C138.221 17.6956 138.127 17.3475 138.127 16.9563C138.127 16.5261 138.237 16.1623 138.456 15.865C138.683 15.5677 138.984 15.3409 139.359 15.1844C139.735 15.0279 140.149 14.9497 140.603 14.9497C140.853 14.9497 141.084 14.9693 141.295 15.0084C141.515 15.0397 141.702 15.0788 141.859 15.1258C142.023 15.1727 142.152 15.2236 142.246 15.2783V14.9615C142.246 14.5703 142.105 14.2574 141.823 14.0227C141.542 13.788 141.178 13.6707 140.732 13.6707C140.427 13.6707 140.138 13.7411 139.864 13.8819C139.59 14.0149 139.371 14.1987 139.207 14.4334L138.338 13.7646C138.511 13.5221 138.718 13.3147 138.96 13.1426C139.211 12.9705 139.488 12.8375 139.793 12.7437C140.107 12.6498 140.431 12.6028 140.767 12.6028C141.636 12.6028 142.304 12.818 142.774 13.2482C143.243 13.6707 143.478 14.2652 143.478 15.0319V18.7752H142.246V18.0359H142.175C142.074 18.1924 141.933 18.341 141.753 18.4818C141.581 18.6226 141.374 18.736 141.131 18.8221C140.896 18.916 140.635 18.9629 140.345 18.9629ZM140.568 17.9303C140.896 17.9303 141.186 17.8521 141.436 17.6956C141.694 17.5391 141.894 17.3358 142.035 17.0854C142.175 16.8273 142.246 16.5496 142.246 16.2523C142.074 16.1506 141.863 16.0684 141.612 16.0058C141.37 15.9354 141.112 15.9002 140.838 15.9002C140.321 15.9002 139.954 16.0019 139.735 16.2053C139.516 16.4087 139.406 16.663 139.406 16.9681C139.406 17.2497 139.512 17.4804 139.723 17.6604C139.934 17.8403 140.216 17.9303 140.568 17.9303ZM144.885 18.7752V10.3733H146.152V18.7752H144.885ZM147.658 18.7752V10.3733H148.926V18.7752H147.658ZM153.097 18.9629C152.51 18.9629 151.985 18.826 151.524 18.5522C151.062 18.2784 150.699 17.9029 150.433 17.4257C150.175 16.9485 150.046 16.4048 150.046 15.7946C150.046 15.2236 150.171 14.6955 150.421 14.2105C150.671 13.7254 151.02 13.3382 151.466 13.0488C151.919 12.7515 152.439 12.6028 153.026 12.6028C153.644 12.6028 154.168 12.7359 154.599 13.0018C155.036 13.2678 155.369 13.6315 155.596 14.0931C155.823 14.5547 155.936 15.0749 155.936 15.6538C155.936 15.7399 155.932 15.8181 155.925 15.8885C155.925 15.9589 155.921 16.0136 155.913 16.0528H151.29C151.321 16.3813 151.403 16.6669 151.536 16.9094C151.708 17.2145 151.935 17.4452 152.217 17.6017C152.498 17.7582 152.803 17.8364 153.132 17.8364C153.531 17.8364 153.863 17.7465 154.129 17.5665C154.403 17.3788 154.618 17.148 154.775 16.8742L155.819 17.3788C155.561 17.8481 155.209 18.2315 154.763 18.5287C154.317 18.8182 153.761 18.9629 153.097 18.9629ZM151.36 15.1023H154.681C154.673 14.9537 154.634 14.7972 154.563 14.6329C154.493 14.4608 154.391 14.3043 154.258 14.1635C154.125 14.0227 153.957 13.9093 153.754 13.8232C153.55 13.7294 153.311 13.6824 153.038 13.6824C152.694 13.6824 152.388 13.7724 152.123 13.9523C151.856 14.1244 151.649 14.3669 151.501 14.6798C151.438 14.8129 151.391 14.9537 151.36 15.1023ZM156.53 12.7906H157.574V11.1008H158.841V12.7906H160.308V13.8936H158.841V16.7686C158.841 17.0659 158.9 17.2927 159.017 17.4492C159.142 17.6057 159.349 17.6839 159.639 17.6839C159.78 17.6839 159.905 17.6643 160.015 17.6252C160.124 17.5783 160.234 17.5235 160.343 17.4609V18.693C160.21 18.7478 160.069 18.7908 159.921 18.8221C159.772 18.8534 159.596 18.869 159.393 18.869C158.837 18.869 158.395 18.7087 158.067 18.3879C157.738 18.0594 157.574 17.6095 157.574 17.0385V13.8936H156.53V12.7906Z" fill="white"/>
</g>
<defs>
<clipPath id="clip0_568_610">
<rect width="173.67" height="29.3361" fill="white"/>
</clipPath>
</defs>
</svg>
