<svg width="174" height="27" viewBox="0 0 174 27" fill="none" xmlns="http://www.w3.org/2000/svg">
<g clip-path="url(#clip0_568_879)">
<path d="M160.393 0.265625H13.2776C6.09128 0.265625 0.265625 6.09128 0.265625 13.2776C0.265625 20.4639 6.09128 26.2896 13.2776 26.2896H160.393C167.579 26.2896 173.405 20.4639 173.405 13.2776C173.405 6.09128 167.579 0.265625 160.393 0.265625Z" fill="#1F1F1F"/>
<path d="M27.0854 11.6841H11.1523V9.02855C11.1523 7.58698 12.3217 6.37305 13.7104 6.37305H24.5273C25.916 6.37305 27.0854 7.58698 27.0854 9.02855V11.6841Z" fill="#34A853"/>
<path d="M27.0854 13.8374H11.1523V11.1819C11.1523 9.7403 12.3217 8.52637 13.7104 8.52637H24.5273C25.916 8.52637 27.0854 9.7403 27.0854 11.1819V13.8374Z" fill="#FBBC04"/>
<path d="M27.0854 16.0639H11.1523V13.4084C11.1523 11.9669 12.3217 10.7529 13.7104 10.7529H24.5273C25.916 10.7529 27.0854 11.9669 27.0854 13.4084V16.0639Z" fill="#EA4335"/>
<path d="M11.1523 12.361L21.2651 14.6998C22.4292 14.9922 23.7387 14.6998 24.6845 13.969L27.0854 12.2148V17.6964C27.0854 19.0851 25.9213 20.1814 24.539 20.1814H13.6987C12.3164 20.1814 11.1523 19.0851 11.1523 17.6964V12.361Z" fill="url(#paint0_linear_568_879)"/>
<path d="M34.3203 16.9953V9.38992H36.7528C37.553 9.38992 38.2398 9.55281 38.8134 9.87853C39.3941 10.1972 39.8402 10.6433 40.1518 11.2169C40.4705 11.7905 40.6298 12.4491 40.6298 13.1926C40.6298 13.9432 40.4705 14.6053 40.1518 15.1789C39.8402 15.7454 39.3941 16.1916 38.8134 16.5173C38.2398 16.836 37.553 16.9953 36.7528 16.9953H34.3203ZM35.4887 15.8906H36.7209C37.5848 15.8906 38.254 15.6498 38.7284 15.1683C39.21 14.6867 39.4507 14.0282 39.4507 13.1926C39.4507 12.357 39.21 11.6985 38.7284 11.2169C38.254 10.7354 37.5848 10.4946 36.7209 10.4946H35.4887V15.8906ZM44.1678 17.1652C43.6083 17.1652 43.1162 17.0378 42.6913 16.7828C42.2664 16.5279 41.9336 16.1845 41.6928 15.7525C41.452 15.3206 41.3317 14.832 41.3317 14.2867C41.3317 13.7485 41.452 13.2634 41.6928 12.8315C41.9336 12.3924 42.2664 12.0454 42.6913 11.7905C43.1162 11.5356 43.6083 11.4081 44.1678 11.4081C44.7201 11.4081 45.2087 11.5356 45.6336 11.7905C46.0585 12.0454 46.3913 12.3924 46.6321 12.8315C46.8728 13.2634 46.9932 13.7485 46.9932 14.2867C46.9932 14.832 46.8728 15.3206 46.6321 15.7525C46.3913 16.1845 46.0585 16.5279 45.6336 16.7828C45.2087 17.0378 44.7201 17.1652 44.1678 17.1652ZM44.1678 16.1137C44.4652 16.1137 44.7414 16.0429 44.9963 15.9012C45.2512 15.7525 45.4565 15.5436 45.6124 15.2745C45.7752 14.9983 45.8567 14.6691 45.8567 14.2867C45.8567 13.9043 45.7752 13.5786 45.6124 13.3094C45.4565 13.0333 45.2512 12.8244 44.9963 12.6827C44.7414 12.534 44.4652 12.4597 44.1678 12.4597C43.8704 12.4597 43.5906 12.534 43.3286 12.6827C43.0737 12.8244 42.8648 13.0333 42.7019 13.3094C42.5461 13.5786 42.4682 13.9043 42.4682 14.2867C42.4682 14.6691 42.5461 14.9983 42.7019 15.2745C42.8648 15.5436 43.0737 15.7525 43.3286 15.9012C43.5906 16.0429 43.8704 16.1137 44.1678 16.1137ZM50.3653 17.1652C49.8767 17.1652 49.4342 17.0448 49.0376 16.8041C48.6481 16.5562 48.3365 16.2163 48.1029 15.7844C47.8763 15.3453 47.763 14.8461 47.763 14.2867C47.763 13.7273 47.8763 13.2315 48.1029 12.7996C48.3365 12.3676 48.6481 12.0277 49.0376 11.7799C49.4342 11.532 49.8767 11.4081 50.3653 11.4081C50.7832 11.4081 51.1408 11.5001 51.4382 11.6843C51.7427 11.8684 51.9658 12.0773 52.1074 12.311H52.1711L52.1074 11.5568V9.38992H53.244V16.9953H52.1711V16.273H52.1074C51.9658 16.5067 51.7427 16.7156 51.4382 16.8997C51.1408 17.0767 50.7832 17.1652 50.3653 17.1652ZM50.5353 16.1137C50.8186 16.1137 51.0841 16.0393 51.332 15.8906C51.5869 15.7419 51.7887 15.533 51.9374 15.2639C52.0932 14.9877 52.1711 14.662 52.1711 14.2867C52.1711 13.9113 52.0932 13.5892 51.9374 13.3201C51.7887 13.0439 51.5869 12.8315 51.332 12.6827C51.0841 12.534 50.8186 12.4597 50.5353 12.4597C50.2521 12.4597 49.9865 12.534 49.7386 12.6827C49.4908 12.8315 49.289 13.0439 49.1332 13.3201C48.9774 13.5892 48.8995 13.9113 48.8995 14.2867C48.8995 14.662 48.9774 14.9877 49.1332 15.2639C49.289 15.533 49.4908 15.7419 49.7386 15.8906C49.9865 16.0393 50.2521 16.1137 50.5353 16.1137ZM56.2431 17.1652C55.8533 17.1652 55.5065 17.0909 55.2021 16.9422C54.8973 16.7864 54.6604 16.5704 54.4905 16.2942C54.3205 16.0181 54.2355 15.703 54.2355 15.3489C54.2355 14.9665 54.3343 14.6408 54.5329 14.3716C54.738 14.0955 55.0109 13.8866 55.3508 13.7449C55.6907 13.6033 56.0657 13.5325 56.4768 13.5325C56.8167 13.5325 57.1141 13.5644 57.369 13.6281C57.6309 13.6918 57.829 13.7591 57.9639 13.8299V13.5431C57.9639 13.189 57.8364 12.9058 57.5815 12.6934C57.3265 12.4809 56.9973 12.3747 56.5936 12.3747C56.3174 12.3747 56.0551 12.4384 55.8076 12.5659C55.5596 12.6863 55.3615 12.8527 55.2128 13.0651L54.4267 12.4597C54.6604 12.134 54.9685 11.879 55.3508 11.6949C55.7401 11.5037 56.165 11.4081 56.6255 11.4081C57.4115 11.4081 58.017 11.6029 58.4419 11.9923C58.8667 12.3747 59.0792 12.9129 59.0792 13.6069V16.9953H57.9639V16.3261H57.9001C57.7583 16.5456 57.5459 16.7404 57.2628 16.9103C56.9792 17.0803 56.6393 17.1652 56.2431 17.1652ZM56.4449 16.2305C56.7423 16.2305 57.0042 16.1597 57.2309 16.0181C57.4572 15.8764 57.6346 15.6923 57.762 15.4657C57.8964 15.232 57.9639 14.9807 57.9639 14.7116C57.8008 14.6195 57.6096 14.5452 57.3903 14.4885C57.1704 14.4248 56.9367 14.3929 56.6892 14.3929C56.2218 14.3929 55.8888 14.4885 55.6907 14.6797C55.4921 14.8638 55.3933 15.0904 55.3933 15.3595C55.3933 15.6144 55.4889 15.8233 55.6801 15.9862C55.8713 16.1491 56.1263 16.2305 56.4449 16.2305ZM61.0002 10.7814C60.7877 10.7814 60.604 10.707 60.4478 10.5583C60.2991 10.4026 60.2248 10.2184 60.2248 10.006C60.2248 9.79356 60.2991 9.61298 60.4478 9.46427C60.604 9.31557 60.7877 9.24121 61.0002 9.24121C61.2126 9.24121 61.3932 9.31557 61.5419 9.46427C61.698 9.61298 61.7756 9.79356 61.7756 10.006C61.7756 10.2184 61.698 10.4026 61.5419 10.5583C61.3932 10.707 61.2126 10.7814 61.0002 10.7814ZM59.9698 19.3959C59.7505 19.3959 59.5524 19.3711 59.375 19.3215V18.2168C59.4462 18.2593 59.5274 18.2912 59.6193 18.3124C59.7043 18.3407 59.7893 18.3549 59.8742 18.3549C60.0798 18.3549 60.2216 18.2912 60.2991 18.1637C60.3841 18.0433 60.4266 17.8663 60.4266 17.6326V11.5781H61.5738V17.6432C61.5738 18.2664 61.4219 18.7125 61.117 18.9816C60.8127 19.2578 60.4303 19.3959 59.9698 19.3959ZM67.1227 16.9953L64.8814 11.5781H66.1561L67.675 15.5188H67.7282L69.279 11.5781H70.5324L68.2699 16.9953H67.1227Z" fill="white"/>
<path d="M77.7528 17.165C77.2073 17.165 76.6943 17.0658 76.2126 16.8676C75.7383 16.6693 75.3166 16.3931 74.9486 16.0391C74.5805 15.6779 74.29 15.2566 74.0776 14.775C73.872 14.2864 73.7695 13.7589 73.7695 13.1924C73.7695 12.6258 73.872 12.1019 74.0776 11.6203C74.29 11.1317 74.5768 10.7104 74.938 10.3563C75.306 9.99513 75.7309 9.7154 76.2126 9.51714C76.6943 9.31888 77.2073 9.21973 77.7528 9.21973C78.3333 9.21973 78.8681 9.32239 79.3567 9.52777C79.8522 9.73314 80.2665 10.0199 80.5995 10.3881L79.7922 11.1848C79.5442 10.9086 79.2468 10.6962 78.9 10.5475C78.5601 10.3988 78.1777 10.3244 77.7528 10.3244C77.2498 10.3244 76.7862 10.4448 76.3613 10.6856C75.9364 10.9192 75.5928 11.2521 75.331 11.684C75.076 12.1089 74.9486 12.6117 74.9486 13.1924C74.9486 13.773 75.0798 14.2794 75.3416 14.7113C75.6034 15.1362 75.947 15.469 76.3719 15.7098C76.7968 15.9435 77.2605 16.0603 77.7634 16.0603C78.2239 16.0603 78.6413 15.9753 79.0168 15.8054C79.3923 15.6284 79.6929 15.3805 79.9197 15.0618C80.1534 14.7432 80.2952 14.3608 80.3446 13.9147H77.7422V12.8843H81.4386C81.4811 13.0755 81.5024 13.2773 81.5024 13.4898V13.5004C81.5024 14.2369 81.3393 14.8813 81.0137 15.4336C80.6951 15.9789 80.2527 16.4038 79.686 16.7082C79.1193 17.0127 78.4751 17.165 77.7528 17.165ZM84.9227 17.165C84.3634 17.165 83.8711 17.0375 83.4462 16.7826C83.0213 16.5277 82.6883 16.1842 82.4477 15.7523C82.2071 15.3203 82.0866 14.8317 82.0866 14.2864C82.0866 13.7483 82.2071 13.2632 82.4477 12.8312C82.6883 12.3922 83.0213 12.0452 83.4462 11.7903C83.8711 11.5353 84.3634 11.4079 84.9227 11.4079C85.475 11.4079 85.9636 11.5353 86.3885 11.7903C86.8134 12.0452 87.1464 12.3922 87.387 12.8312C87.6275 13.2632 87.7481 13.7483 87.7481 14.2864C87.7481 14.8317 87.6275 15.3203 87.387 15.7523C87.1464 16.1842 86.8134 16.5277 86.3885 16.7826C85.9636 17.0375 85.475 17.165 84.9227 17.165ZM84.9227 16.1134C85.2201 16.1134 85.4962 16.0426 85.7512 15.901C86.0061 15.7523 86.2116 15.5434 86.3672 15.2743C86.5303 14.9981 86.6116 14.6688 86.6116 14.2864C86.6116 13.904 86.5303 13.5783 86.3672 13.3092C86.2116 13.033 86.0061 12.8241 85.7512 12.6825C85.4962 12.5338 85.2201 12.4594 84.9227 12.4594C84.6252 12.4594 84.3454 12.5338 84.0835 12.6825C83.8286 12.8241 83.6199 13.033 83.4568 13.3092C83.3012 13.5783 83.2231 13.904 83.2231 14.2864C83.2231 14.6688 83.3012 14.9981 83.4568 15.2743C83.6199 15.5434 83.8286 15.7523 84.0835 15.901C84.3454 16.0426 84.6252 16.1134 84.9227 16.1134ZM91.3538 17.165C90.7945 17.165 90.3022 17.0375 89.8773 16.7826C89.4524 16.5277 89.1199 16.1842 88.8788 15.7523C88.6382 15.3203 88.5177 14.8317 88.5177 14.2864C88.5177 13.7483 88.6382 13.2632 88.8788 12.8312C89.1199 12.3922 89.4524 12.0452 89.8773 11.7903C90.3022 11.5353 90.7945 11.4079 91.3538 11.4079C91.9061 11.4079 92.3947 11.5353 92.8196 11.7903C93.2445 12.0452 93.5775 12.3922 93.8181 12.8312C94.0592 13.2632 94.1792 13.7483 94.1792 14.2864C94.1792 14.8317 94.0592 15.3203 93.8181 15.7523C93.5775 16.1842 93.2445 16.5277 92.8196 16.7826C92.3947 17.0375 91.9061 17.165 91.3538 17.165ZM91.3538 16.1134C91.6512 16.1134 91.9273 16.0426 92.1823 15.901C92.4372 15.7523 92.6427 15.5434 92.7984 15.2743C92.9614 14.9981 93.0427 14.6688 93.0427 14.2864C93.0427 13.904 92.9614 13.5783 92.7984 13.3092C92.6427 13.033 92.4372 12.8241 92.1823 12.6825C91.9273 12.5338 91.6512 12.4594 91.3538 12.4594C91.0563 12.4594 90.777 12.5338 90.5146 12.6825C90.2597 12.8241 90.051 13.033 89.8879 13.3092C89.7323 13.5783 89.6542 13.904 89.6542 14.2864C89.6542 14.6688 89.7323 14.9981 89.8879 15.2743C90.051 15.5434 90.2597 15.7523 90.5146 15.901C90.777 16.0426 91.0563 16.1134 91.3538 16.1134ZM97.6792 19.4594C97.2044 19.4594 96.7938 19.3814 96.447 19.2257C96.1071 19.077 95.8309 18.8822 95.6185 18.6415C95.4061 18.4078 95.2536 18.167 95.1617 17.9192L96.224 17.473C96.3371 17.7563 96.5177 17.9865 96.7657 18.1635C97.0206 18.3476 97.3249 18.4396 97.6792 18.4396C98.1747 18.4396 98.564 18.2909 98.8476 17.9935C99.1376 17.6961 99.2831 17.2748 99.2831 16.7295V16.209H99.2194C99.0494 16.4639 98.812 16.6693 98.5077 16.8251C98.2103 16.9738 97.8704 17.0482 97.488 17.0482C97.0275 17.0482 96.6063 16.9313 96.224 16.6976C95.8416 16.4639 95.5335 16.1382 95.2998 15.7204C95.0661 15.2955 94.9493 14.7998 94.9493 14.2333C94.9493 13.6597 95.0661 13.1641 95.2998 12.7462C95.5335 12.3214 95.8416 11.9921 96.224 11.7584C96.6063 11.5247 97.0275 11.4079 97.488 11.4079C97.8704 11.4079 98.2103 11.4858 98.5077 11.6415C98.812 11.7973 99.0494 12.0027 99.2194 12.2576H99.2831V11.5778H100.377V16.7082C100.377 17.296 100.26 17.7953 100.027 18.206C99.7999 18.6167 99.4849 18.9283 99.0813 19.1407C98.6776 19.3531 98.2103 19.4594 97.6792 19.4594ZM97.6898 16.0072C97.9729 16.0072 98.2347 15.9399 98.4758 15.8054C98.7164 15.6637 98.9113 15.4619 99.06 15.1999C99.2087 14.9308 99.2831 14.6086 99.2831 14.2333C99.2831 13.8439 99.2087 13.5181 99.06 13.2561C98.9113 12.987 98.7164 12.7852 98.4758 12.6506C98.2347 12.5161 97.9729 12.4488 97.6898 12.4488C97.4062 12.4488 97.1406 12.5196 96.8931 12.6613C96.652 12.7958 96.4576 12.9941 96.3089 13.2561C96.1602 13.5181 96.0859 13.8439 96.0859 14.2333C96.0859 14.6157 96.1602 14.9414 96.3089 15.2105C96.4576 15.4725 96.652 15.6709 96.8931 15.8054C97.1406 15.9399 97.4062 16.0072 97.6898 16.0072ZM101.73 16.995V9.38968H102.877V16.995H101.73ZM106.653 17.165C106.122 17.165 105.647 17.0411 105.229 16.7932C104.811 16.5454 104.482 16.2055 104.241 15.7735C104.008 15.3416 103.891 14.8494 103.891 14.2971C103.891 13.7801 104.004 13.3021 104.231 12.8631C104.457 12.424 104.773 12.0735 105.176 11.8115C105.587 11.5424 106.058 11.4079 106.589 11.4079C107.148 11.4079 107.622 11.5283 108.012 11.769C108.408 12.0098 108.71 12.339 108.915 12.7569C109.12 13.1747 109.223 13.6455 109.223 14.1696C109.223 14.2475 109.219 14.3183 109.213 14.382C109.213 14.4458 109.209 14.4953 109.202 14.5307H105.017C105.073 15.0689 105.261 15.4725 105.58 15.7416C105.905 16.0108 106.273 16.1453 106.685 16.1453C107.053 16.1453 107.357 16.0639 107.598 15.901C107.839 15.731 108.03 15.5221 108.172 15.2743L109.117 15.731C108.883 16.1559 108.565 16.5029 108.161 16.772C107.757 17.034 107.254 17.165 106.653 17.165ZM106.6 12.3851C106.217 12.3851 105.891 12.5019 105.622 12.7356C105.353 12.9693 105.172 13.2809 105.081 13.6704H108.087C108.072 13.4862 108.012 13.295 107.906 13.0968C107.8 12.8985 107.637 12.7321 107.417 12.5975C107.205 12.4559 106.932 12.3851 106.6 12.3851ZM112.957 16.995V9.38968H115.39C116.19 9.38968 116.877 9.55257 117.45 9.87829C118.031 10.197 118.478 10.6431 118.789 11.2167C119.107 11.7903 119.267 12.4488 119.267 13.1924C119.267 13.943 119.107 14.6051 118.789 15.1787C118.478 15.7452 118.031 16.1913 117.45 16.5171C116.877 16.8357 116.19 16.995 115.39 16.995H112.957ZM114.126 15.8904H115.358C116.222 15.8904 116.891 15.6496 117.365 15.1681C117.847 14.6865 118.088 14.0279 118.088 13.1924C118.088 12.3568 117.847 11.6982 117.365 11.2167C116.891 10.7351 116.222 10.4944 115.358 10.4944H114.126V15.8904ZM122.731 17.165C122.2 17.165 121.725 17.0411 121.307 16.7932C120.889 16.5454 120.56 16.2055 120.319 15.7735C120.086 15.3416 119.969 14.8494 119.969 14.2971C119.969 13.7801 120.082 13.3021 120.309 12.8631C120.536 12.424 120.851 12.0735 121.254 11.8115C121.665 11.5424 122.136 11.4079 122.667 11.4079C123.226 11.4079 123.701 11.5283 124.09 11.769C124.487 12.0098 124.788 12.339 124.993 12.7569C125.199 13.1747 125.301 13.6455 125.301 14.1696C125.301 14.2475 125.297 14.3183 125.291 14.382C125.291 14.4458 125.287 14.4953 125.28 14.5307H121.095C121.152 15.0689 121.339 15.4725 121.658 15.7416C121.983 16.0108 122.352 16.1453 122.763 16.1453C123.131 16.1453 123.435 16.0639 123.676 15.901C123.917 15.731 124.108 15.5221 124.25 15.2743L125.195 15.731C124.961 16.1559 124.643 16.5029 124.239 16.772C123.835 17.034 123.332 17.165 122.731 17.165ZM122.678 12.3851C122.295 12.3851 121.97 12.5019 121.7 12.7356C121.431 12.9693 121.25 13.2809 121.159 13.6704H124.165C124.15 13.4862 124.09 13.295 123.984 13.0968C123.878 12.8985 123.715 12.7321 123.495 12.5975C123.283 12.4559 123.011 12.3851 122.678 12.3851ZM126.366 16.995V11.5778H127.449V12.3214H127.513C127.668 12.0594 127.899 11.8434 128.203 11.6734C128.515 11.4964 128.855 11.4079 129.223 11.4079C129.888 11.4079 130.388 11.6061 130.721 12.0027C131.054 12.3993 131.22 12.9233 131.22 13.5748V16.995H130.083V13.7235C130.083 13.2844 129.973 12.9657 129.754 12.7675C129.535 12.5621 129.248 12.4594 128.894 12.4594C128.617 12.4594 128.377 12.5374 128.171 12.6931C127.966 12.8418 127.803 13.0401 127.683 13.288C127.57 13.5358 127.513 13.8014 127.513 14.0846V16.995H126.366ZM134.175 17.165C133.785 17.165 133.438 17.0906 133.134 16.9419C132.829 16.7862 132.592 16.5702 132.422 16.294C132.252 16.0178 132.167 15.7027 132.167 15.3486C132.167 14.9662 132.266 14.6405 132.465 14.3714C132.67 14.0952 132.943 13.8864 133.283 13.7447C133.622 13.6031 133.997 13.5323 134.409 13.5323C134.748 13.5323 135.046 13.5641 135.301 13.6279C135.563 13.6916 135.761 13.7589 135.896 13.8297V13.5429C135.896 13.1888 135.768 12.9056 135.513 12.6931C135.258 12.4807 134.929 12.3745 134.525 12.3745C134.249 12.3745 133.987 12.4382 133.739 12.5657C133.491 12.6861 133.293 12.8525 133.144 13.0649L132.358 12.4594C132.592 12.1337 132.9 11.8788 133.283 11.6947C133.672 11.5035 134.097 11.4079 134.557 11.4079C135.343 11.4079 135.949 11.6026 136.374 11.9921C136.798 12.3745 137.011 12.9126 137.011 13.6066V16.995H135.896V16.3259H135.832C135.69 16.5454 135.478 16.7401 135.195 16.9101C134.911 17.08 134.571 17.165 134.175 17.165ZM134.377 16.2303C134.674 16.2303 134.936 16.1595 135.163 16.0178C135.389 15.8762 135.566 15.6921 135.694 15.4655C135.828 15.2318 135.896 14.9804 135.896 14.7113C135.733 14.6193 135.541 14.5449 135.322 14.4882C135.102 14.4245 134.868 14.3926 134.621 14.3926C134.154 14.3926 133.821 14.4882 133.622 14.6794C133.424 14.8636 133.325 15.0901 133.325 15.3593C133.325 15.6142 133.421 15.8231 133.612 15.986C133.803 16.1488 134.058 16.2303 134.377 16.2303ZM138.274 16.995V11.5778H139.357V12.3745H139.421C139.541 12.0983 139.747 11.8717 140.037 11.6947C140.335 11.5105 140.653 11.4185 140.993 11.4185C141.142 11.4185 141.266 11.4291 141.365 11.4503C141.471 11.4716 141.567 11.4964 141.652 11.5247V12.7144C141.517 12.6577 141.379 12.6117 141.237 12.5763C141.103 12.5409 140.961 12.5232 140.813 12.5232C140.543 12.5232 140.303 12.5975 140.09 12.7462C139.885 12.8879 139.722 13.0826 139.602 13.3304C139.481 13.5712 139.421 13.8367 139.421 14.1271V16.995H138.274ZM142.537 16.995V11.5778H143.62V12.3214H143.684C143.84 12.0594 144.07 11.8434 144.375 11.6734C144.686 11.4964 145.026 11.4079 145.394 11.4079C146.06 11.4079 146.559 11.6061 146.892 12.0027C147.225 12.3993 147.391 12.9233 147.391 13.5748V16.995H146.255V13.7235C146.255 13.2844 146.145 12.9657 145.925 12.7675C145.706 12.5621 145.419 12.4594 145.065 12.4594C144.789 12.4594 144.548 12.5374 144.343 12.6931C144.137 12.8418 143.975 13.0401 143.854 13.288C143.741 13.5358 143.684 13.8014 143.684 14.0846V16.995H142.537ZM149.357 10.7812C149.145 10.7812 148.961 10.7068 148.805 10.5581C148.656 10.4023 148.582 10.2182 148.582 10.0058C148.582 9.79332 148.656 9.61274 148.805 9.46403C148.961 9.31532 149.145 9.24097 149.357 9.24097C149.57 9.24097 149.75 9.31532 149.899 9.46403C150.055 9.61274 150.133 9.79332 150.133 10.0058C150.133 10.2182 150.055 10.4023 149.899 10.5581C149.75 10.7068 149.57 10.7812 149.357 10.7812ZM148.784 16.995V11.5778H149.931V16.995H148.784ZM153.809 17.165C153.264 17.165 152.782 17.0411 152.365 16.7932C151.947 16.5454 151.617 16.2055 151.377 15.7735C151.136 15.3345 151.016 14.8388 151.016 14.2864C151.016 13.7341 151.136 13.2419 151.377 12.81C151.617 12.3709 151.947 12.0275 152.365 11.7796C152.782 11.5318 153.264 11.4079 153.809 11.4079C154.411 11.4079 154.918 11.5424 155.328 11.8115C155.746 12.0806 156.043 12.4453 156.22 12.9056L155.179 13.3304C154.931 12.7498 154.468 12.4594 153.788 12.4594C153.49 12.4594 153.218 12.5374 152.97 12.6931C152.722 12.8418 152.524 13.0543 152.375 13.3304C152.226 13.5996 152.152 13.9182 152.152 14.2864C152.152 14.6546 152.226 14.9769 152.375 15.253C152.524 15.5292 152.722 15.7416 152.97 15.8904C153.218 16.0391 153.49 16.1134 153.788 16.1134C154.135 16.1134 154.429 16.0355 154.669 15.8797C154.91 15.7168 155.098 15.4973 155.232 15.2212L156.252 15.6673C156.061 16.0992 155.757 16.4569 155.339 16.7401C154.921 17.0234 154.411 17.165 153.809 17.165ZM158.883 17.165C158.494 17.165 158.147 17.0906 157.842 16.9419C157.538 16.7862 157.301 16.5702 157.131 16.294C156.961 16.0178 156.876 15.7027 156.876 15.3486C156.876 14.9662 156.975 14.6405 157.173 14.3714C157.379 14.0952 157.651 13.8864 157.991 13.7447C158.331 13.6031 158.706 13.5323 159.117 13.5323C159.457 13.5323 159.754 13.5641 160.009 13.6279C160.272 13.6916 160.47 13.7589 160.604 13.8297V13.5429C160.604 13.1888 160.477 12.9056 160.222 12.6931C159.967 12.4807 159.637 12.3745 159.234 12.3745C158.958 12.3745 158.696 12.4382 158.448 12.5657C158.2 12.6861 158.002 12.8525 157.853 13.0649L157.067 12.4594C157.301 12.1337 157.609 11.8788 157.991 11.6947C158.381 11.5035 158.806 11.4079 159.266 11.4079C160.052 11.4079 160.657 11.6026 161.082 11.9921C161.507 12.3745 161.719 12.9126 161.719 13.6066V16.995H160.604V16.3259H160.54C160.399 16.5454 160.187 16.7401 159.903 16.9101C159.62 17.08 159.28 17.165 158.883 17.165ZM159.085 16.2303C159.382 16.2303 159.645 16.1595 159.871 16.0178C160.098 15.8762 160.275 15.6921 160.402 15.4655C160.537 15.2318 160.604 14.9804 160.604 14.7113C160.441 14.6193 160.25 14.5449 160.03 14.4882C159.811 14.4245 159.577 14.3926 159.329 14.3926C158.862 14.3926 158.53 14.4882 158.331 14.6794C158.133 14.8636 158.033 15.0901 158.033 15.3593C158.033 15.6142 158.129 15.8231 158.32 15.986C158.511 16.1488 158.766 16.2303 159.085 16.2303Z" fill="white"/>
<path d="M160.393 0.265625H13.2776C6.09128 0.265625 0.265625 6.09128 0.265625 13.2776C0.265625 20.4639 6.09128 26.2896 13.2776 26.2896H160.393C167.579 26.2896 173.405 20.4639 173.405 13.2776C173.405 6.09128 167.579 0.265625 160.393 0.265625Z" stroke="#747775"/>
</g>
<defs>
<linearGradient id="paint0_linear_568_879" x1="18.3595" y1="16.3502" x2="9.94722" y2="25.9774" gradientUnits="userSpaceOnUse">
<stop stop-color="#4285F4"/>
<stop offset="1" stop-color="#1B74E8"/>
</linearGradient>
<clipPath id="clip0_568_879">
<rect width="173.67" height="26.555" fill="white"/>
</clipPath>
</defs>
</svg>
