<svg width="174" height="24" viewBox="0 0 174 24" fill="none" xmlns="http://www.w3.org/2000/svg">
<g clip-path="url(#clip0_568_789)">
<path d="M162 0.233398H11.6723C5.35532 0.233398 0.234375 5.35434 0.234375 11.6713C0.234375 17.9883 5.35532 23.1093 11.6723 23.1093H162C168.317 23.1093 173.438 17.9883 173.438 11.6713C173.438 5.35434 168.317 0.233398 162 0.233398Z" fill="#1F1F1F"/>
<path d="M23.8103 10.2711H9.80469V7.93681C9.80469 6.66963 10.8326 5.60254 12.0533 5.60254H21.5617C22.7824 5.60254 23.8103 6.66963 23.8103 7.93681V10.2711Z" fill="#34A853"/>
<path d="M23.8103 12.1637H9.80469V9.82939C9.80469 8.56221 10.8326 7.49512 12.0533 7.49512H21.5617C22.7824 7.49512 23.8103 8.56221 23.8103 9.82939V12.1637Z" fill="#FBBC04"/>
<path d="M23.8103 14.1207H9.80469V11.7864C9.80469 10.5192 10.8326 9.45215 12.0533 9.45215H21.5617C22.7824 9.45215 23.8103 10.5192 23.8103 11.7864V14.1207Z" fill="#EA4335"/>
<path d="M9.80469 10.8658L18.6941 12.9217C19.7174 13.1787 20.8685 12.9217 21.6999 12.2792L23.8103 10.7373V15.5558C23.8103 16.7764 22.7871 17.7401 21.572 17.7401H12.043C10.8279 17.7401 9.80469 16.7764 9.80469 15.5558V10.8658Z" fill="url(#paint0_linear_568_789)"/>
<path d="M29.5508 14.9391L32.0718 8.25377H33.2389L35.7693 14.9391H34.6395L34.0232 13.2211H31.2968L30.6806 14.9391H29.5508ZM32.3799 10.2239L31.6423 12.2687H33.6778L32.9401 10.2239L32.688 9.45825H32.632L32.3799 10.2239ZM38.399 15.0885C37.9695 15.0885 37.5805 14.9827 37.2319 14.7711C36.8895 14.5532 36.6156 14.2544 36.4102 13.8747C36.211 13.4887 36.1114 13.0499 36.1114 12.5582C36.1114 12.0664 36.211 11.6307 36.4102 11.251C36.6156 10.8713 36.8895 10.5725 37.2319 10.3546C37.5805 10.1367 37.9695 10.0278 38.399 10.0278C38.7663 10.0278 39.0806 10.1087 39.342 10.2706C39.6097 10.4324 39.8058 10.6161 39.9303 10.8215H39.9863L39.9303 10.1585V8.25377H40.9293V14.9391H39.9863V14.3042H39.9303C39.8058 14.5096 39.6097 14.6932 39.342 14.8551C39.0806 15.0107 38.7663 15.0885 38.399 15.0885ZM38.5484 14.1641C38.7974 14.1641 39.0308 14.0988 39.2487 13.9681C39.4728 13.8373 39.6502 13.6537 39.7809 13.4172C39.9178 13.1744 39.9863 12.8881 39.9863 12.5582C39.9863 12.2282 39.9178 11.945 39.7809 11.7085C39.6502 11.4657 39.4728 11.279 39.2487 11.1483C39.0308 11.0175 38.7974 10.9522 38.5484 10.9522C38.2994 10.9522 38.066 11.0175 37.8481 11.1483C37.6302 11.279 37.4528 11.4657 37.3159 11.7085C37.179 11.945 37.1105 12.2282 37.1105 12.5582C37.1105 12.8881 37.179 13.1744 37.3159 13.4172C37.4528 13.6537 37.6302 13.8373 37.8481 13.9681C38.066 14.0988 38.2994 14.1641 38.5484 14.1641ZM42.696 9.47693C42.5093 9.47693 42.3475 9.41157 42.2105 9.28085C42.0798 9.14392 42.0144 8.98206 42.0144 8.79532C42.0144 8.60858 42.0798 8.44985 42.2105 8.31913C42.3475 8.18841 42.5093 8.12305 42.696 8.12305C42.8828 8.12305 43.0415 8.18841 43.1722 8.31913C43.3092 8.44985 43.3776 8.60858 43.3776 8.79532C43.3776 8.98206 43.3092 9.14392 43.1722 9.28085C43.0415 9.41157 42.8828 9.47693 42.696 9.47693ZM42.1918 14.9391V10.1772H43.2002V14.9391H42.1918ZM46.6094 15.0885C46.1301 15.0885 45.7068 14.9796 45.3395 14.7617C44.9723 14.5438 44.6828 14.2451 44.4712 13.8654C44.2595 13.4794 44.1537 13.0437 44.1537 12.5582C44.1537 12.0726 44.2595 11.64 44.4712 11.2603C44.6828 10.8744 44.9723 10.5725 45.3395 10.3546C45.7068 10.1367 46.1301 10.0278 46.6094 10.0278C47.1386 10.0278 47.5835 10.1461 47.9444 10.3826C48.3118 10.6192 48.5732 10.9397 48.7287 11.3443L47.8137 11.7178C47.5961 11.2074 47.1881 10.9522 46.5907 10.9522C46.3293 10.9522 46.0896 11.0207 45.8717 11.1576C45.6539 11.2883 45.4796 11.4751 45.3489 11.7178C45.2181 11.9544 45.1528 12.2345 45.1528 12.5582C45.1528 12.8818 45.2181 13.1651 45.3489 13.4078C45.4796 13.6506 45.6539 13.8373 45.8717 13.9681C46.0896 14.0988 46.3293 14.1641 46.5907 14.1641C46.8958 14.1641 47.154 14.0957 47.3655 13.9587C47.5774 13.8155 47.7422 13.6226 47.8604 13.3798L48.7567 13.772C48.5887 14.1517 48.3211 14.4661 47.9537 14.715C47.5868 14.964 47.1386 15.0885 46.6094 15.0885ZM50.2002 9.47693C50.0135 9.47693 49.852 9.41157 49.7147 9.28085C49.584 9.14392 49.5186 8.98206 49.5186 8.79532C49.5186 8.60858 49.584 8.44985 49.7147 8.31913C49.852 8.18841 50.0135 8.12305 50.2002 8.12305C50.387 8.12305 50.5457 8.18841 50.6764 8.31913C50.8137 8.44985 50.8818 8.60858 50.8818 8.79532C50.8818 8.98206 50.8137 9.14392 50.6764 9.28085C50.5457 9.41157 50.387 9.47693 50.2002 9.47693ZM49.696 14.9391V10.1772H50.7044V14.9391H49.696ZM54.1512 15.0885C53.6592 15.0885 53.2269 14.9765 52.8534 14.7524C52.4799 14.5283 52.1872 14.2264 51.9757 13.8467C51.7637 13.467 51.6582 13.0375 51.6582 12.5582C51.6582 12.0851 51.7637 11.6587 51.9757 11.279C52.1872 10.893 52.4799 10.588 52.8534 10.364C53.2269 10.1399 53.6592 10.0278 54.1512 10.0278C54.6368 10.0278 55.0663 10.1399 55.4397 10.364C55.8132 10.588 56.1055 10.893 56.3174 11.279C56.5289 11.6587 56.6349 12.0851 56.6349 12.5582C56.6349 13.0375 56.5289 13.467 56.3174 13.8467C56.1055 14.2264 55.8132 14.5283 55.4397 14.7524C55.0663 14.9765 54.6368 15.0885 54.1512 15.0885ZM54.1512 14.1641C54.4127 14.1641 54.6554 14.1019 54.8795 13.9774C55.1036 13.8467 55.2838 13.6631 55.4211 13.4265C55.5639 13.1838 55.6358 12.8943 55.6358 12.5582C55.6358 12.222 55.5639 11.9357 55.4211 11.6992C55.2838 11.4564 55.1036 11.2728 54.8795 11.1483C54.6554 11.0175 54.4127 10.9522 54.1512 10.9522C53.8898 10.9522 53.6438 11.0175 53.4136 11.1483C53.1895 11.2728 53.0056 11.4564 52.8627 11.6992C52.7255 11.9357 52.6573 12.222 52.6573 12.5582C52.6573 12.8943 52.7255 13.1838 52.8627 13.4265C53.0056 13.6631 53.1895 13.8467 53.4136 13.9774C53.6438 14.1019 53.8898 14.1641 54.1512 14.1641ZM57.4724 14.9391V10.1772H58.4248V10.8308H58.4808C58.6176 10.6005 58.8198 10.4106 59.0878 10.2612C59.3613 10.1056 59.6601 10.0278 59.9841 10.0278C60.5691 10.0278 61.0079 10.2021 61.3006 10.5507C61.5929 10.8993 61.7395 11.3599 61.7395 11.9326V14.9391H60.7404V12.0633C60.7404 11.6774 60.6438 11.3972 60.451 11.223C60.2577 11.0424 60.0056 10.9522 59.6947 10.9522C59.4519 10.9522 59.2399 11.0207 59.0597 11.1576C58.8791 11.2883 58.7357 11.4626 58.6302 11.6805C58.5303 11.8984 58.4808 12.1318 58.4808 12.3808V14.9391H57.4724ZM64.3371 15.0885C63.9944 15.0885 63.6895 15.0232 63.422 14.8924C63.1541 14.7555 62.9458 14.5656 62.7964 14.3229C62.6471 14.0801 62.5724 13.8031 62.5724 13.4919C62.5724 13.1557 62.6592 12.8694 62.8338 12.6329C63.014 12.3901 63.254 12.2065 63.5528 12.082C63.8515 11.9575 64.1811 11.8952 64.5425 11.8952C64.8413 11.8952 65.1027 11.9232 65.3268 11.9793C65.557 12.0353 65.7311 12.0944 65.8497 12.1567V11.9046C65.8497 11.5933 65.7376 11.3443 65.5135 11.1576C65.2895 10.9709 65 10.8775 64.6452 10.8775C64.4024 10.8775 64.1718 10.9335 63.9542 11.0456C63.7362 11.1514 63.5621 11.2977 63.4314 11.4844L62.7404 10.9522C62.9458 10.6659 63.2166 10.4418 63.5528 10.2799C63.895 10.1118 64.2684 10.0278 64.6732 10.0278C65.3641 10.0278 65.8964 10.199 66.2698 10.5414C66.6433 10.8775 66.8301 11.3506 66.8301 11.9606V14.9391H65.8497V14.3509H65.7937C65.669 14.5438 65.4823 14.715 65.2334 14.8644C64.9841 15.0138 64.6853 15.0885 64.3371 15.0885ZM64.5145 14.2669C64.7759 14.2669 65.0061 14.2046 65.2054 14.0801C65.4043 13.9556 65.5602 13.7938 65.6723 13.5946C65.7904 13.3892 65.8497 13.1682 65.8497 12.9317C65.7064 12.8507 65.5383 12.7854 65.3455 12.7356C65.1522 12.6796 64.9468 12.6515 64.7292 12.6515C64.3184 12.6515 64.0257 12.7356 63.8515 12.9036C63.6769 13.0655 63.5901 13.2647 63.5901 13.5012C63.5901 13.7253 63.6741 13.9089 63.8422 14.0521C64.0103 14.1953 64.2344 14.2669 64.5145 14.2669ZM67.9403 14.9391V10.1772H68.8926V10.8775H68.9487C69.0542 10.6347 69.2348 10.4355 69.4902 10.2799C69.7517 10.1181 70.0318 10.0372 70.3305 10.0372C70.4613 10.0372 70.57 10.0465 70.6574 10.0652C70.7507 10.0838 70.8348 10.1056 70.9094 10.1305V11.1763C70.7909 11.1265 70.6695 11.086 70.5453 11.0549C70.4267 11.0238 70.3025 11.0082 70.1718 11.0082C69.9351 11.0082 69.7236 11.0736 69.5369 11.2043C69.3562 11.3288 69.2129 11.4999 69.1074 11.7178C69.0014 11.9295 68.9487 12.1629 68.9487 12.4181V14.9391H67.9403ZM75.3609 15.0885C75.0187 15.0885 74.7134 15.0232 74.4459 14.8924C74.1784 14.7555 73.9697 14.5656 73.8203 14.3229C73.6709 14.0801 73.5962 13.8031 73.5962 13.4919C73.5962 13.1557 73.6835 12.8694 73.8576 12.6329C74.0383 12.3901 74.2778 12.2065 74.5766 12.082C74.8754 11.9575 75.2055 11.8952 75.5663 11.8952C75.8651 11.8952 76.1266 11.9232 76.3506 11.9793C76.5808 12.0353 76.7554 12.0944 76.8735 12.1567V11.9046C76.8735 11.5933 76.7615 11.3443 76.5374 11.1576C76.3133 10.9709 76.0238 10.8775 75.669 10.8775C75.4263 10.8775 75.1961 10.9335 74.9781 11.0456C74.7601 11.1514 74.5859 11.2977 74.4552 11.4844L73.7643 10.9522C73.9697 10.6659 74.2405 10.4418 74.5766 10.2799C74.9188 10.1118 75.2923 10.0278 75.697 10.0278C76.388 10.0278 76.9202 10.199 77.2937 10.5414C77.6672 10.8775 77.8539 11.3506 77.8539 11.9606V14.9391H76.8735V14.3509H76.8175C76.6928 14.5438 76.5061 14.715 76.2573 14.8644C76.0084 15.0138 75.7097 15.0885 75.3609 15.0885ZM75.5383 14.2669C75.7998 14.2669 76.0299 14.2046 76.2293 14.0801C76.4286 13.9556 76.5841 13.7938 76.6961 13.5946C76.8142 13.3892 76.8735 13.1682 76.8735 12.9317C76.7302 12.8507 76.5621 12.7854 76.3693 12.7356C76.1765 12.6796 75.9711 12.6515 75.7531 12.6515C75.3422 12.6515 75.0495 12.7356 74.8754 12.9036C74.7012 13.0655 74.6139 13.2647 74.6139 13.5012C74.6139 13.7253 74.698 13.9089 74.866 14.0521C75.0341 14.1953 75.2582 14.2669 75.5383 14.2669Z" fill="white"/>
<path d="M84.6702 15.0886C84.1786 15.0886 83.7211 15.0015 83.2977 14.8272C82.8742 14.6467 82.504 14.3977 82.1866 14.0802C81.8752 13.7628 81.6296 13.3924 81.4489 12.9691C81.2748 12.5458 81.1875 12.0883 81.1875 11.5966C81.1875 11.1048 81.2748 10.6473 81.4489 10.224C81.6296 9.80072 81.8752 9.43036 82.1866 9.1129C82.504 8.79544 82.8742 8.54954 83.2977 8.37527C83.7211 8.19474 84.1786 8.10449 84.6702 8.10449C85.1931 8.10449 85.66 8.20099 86.0708 8.39394C86.4816 8.58068 86.8397 8.84833 87.1446 9.19693L86.4256 9.89721C86.2015 9.62957 85.9462 9.42723 85.66 9.2903C85.3799 9.14712 85.0531 9.07555 84.6796 9.07555C84.2314 9.07555 83.8206 9.18139 83.4471 9.39301C83.0736 9.59843 82.7748 9.89101 82.5507 10.2707C82.3327 10.6442 82.2239 11.0862 82.2239 11.5966C82.2239 12.107 82.3327 12.5521 82.5507 12.9318C82.7748 13.3053 83.0736 13.5978 83.4471 13.8095C83.8206 14.0149 84.2314 14.1176 84.6796 14.1176C85.0843 14.1176 85.4419 14.0335 85.7533 13.8655C86.0708 13.6974 86.3509 13.4671 86.5937 13.1745L87.3313 13.8842C87.0199 14.2514 86.6371 14.544 86.1829 14.7618C85.7347 14.9797 85.2305 15.0886 84.6702 15.0886ZM89.6245 15.0886C89.2818 15.0886 88.977 15.0233 88.7095 14.8926C88.4415 14.7556 88.2333 14.5658 88.0839 14.323C87.9345 14.0802 87.8598 13.8032 87.8598 13.492C87.8598 13.1559 87.9466 12.8695 88.1212 12.633C88.3014 12.3902 88.5414 12.2066 88.8402 12.0821C89.139 11.9576 89.4686 11.8954 89.8299 11.8954C90.1287 11.8954 90.3901 11.9234 90.6142 11.9794C90.8444 12.0354 91.0185 12.0946 91.1371 12.1568V11.9047C91.1371 11.5934 91.0251 11.3445 90.801 11.1577C90.5769 10.971 90.2874 10.8776 89.9326 10.8776C89.6899 10.8776 89.4592 10.9336 89.2417 11.0457C89.0237 11.1515 88.8495 11.2978 88.7188 11.4845L88.0279 10.9523C88.2333 10.666 88.5041 10.4419 88.8402 10.28C89.1824 10.112 89.5559 10.0279 89.9606 10.0279C90.6516 10.0279 91.1838 10.1991 91.5573 10.5415C91.9308 10.8776 92.1175 11.3507 92.1175 11.9607V14.9392H91.1371V14.351H91.0811C90.9564 14.544 90.7697 14.7152 90.5209 14.8645C90.2716 15.0139 89.9728 15.0886 89.6245 15.0886ZM89.8019 14.267C90.0633 14.267 90.2935 14.2047 90.4929 14.0802C90.6917 13.9557 90.8477 13.7939 90.9597 13.5947C91.0778 13.3893 91.1371 13.1683 91.1371 12.9318C90.9938 12.8509 90.8257 12.7855 90.6329 12.7357C90.4396 12.6797 90.2342 12.6517 90.0167 12.6517C89.6058 12.6517 89.3131 12.7357 89.139 12.9038C88.9644 13.0656 88.8775 13.2648 88.8775 13.5013C88.8775 13.7254 88.9616 13.909 89.1296 14.0522C89.2977 14.1954 89.5218 14.267 89.8019 14.267ZM97.5134 13.5574V11.055H96.6824V10.1773H97.5134V8.83279H98.5218V10.1773H99.689V11.055H98.5218V13.3426C98.5218 13.5792 98.5685 13.7596 98.6619 13.8842C98.7613 14.0087 98.9261 14.0709 99.1567 14.0709C99.2749 14.0709 99.3743 14.0554 99.4555 14.0242C99.5424 13.9931 99.6297 13.9495 99.717 13.8935V14.8739C99.611 14.9174 99.4989 14.9517 99.3808 14.9766C99.2623 15.0015 99.1255 15.0139 98.97 15.0139C98.5218 15.0139 98.167 14.8864 97.9056 14.6311C97.6441 14.3697 97.5134 14.0117 97.5134 13.5574ZM93.2277 14.9392V10.1773H94.1801V10.8776H94.2361C94.3603 10.6162 94.5536 10.4139 94.815 10.2707C95.0764 10.1213 95.3594 10.0466 95.6647 10.0466C95.8388 10.0466 95.9695 10.0591 96.0568 10.084V11.0924C95.9196 11.0488 95.7515 11.027 95.5526 11.027C95.1539 11.027 94.8337 11.1546 94.5909 11.4098C94.3542 11.6651 94.2361 12.0105 94.2361 12.4462V14.9392H93.2277ZM102.661 15.0886C102.195 15.0886 101.777 14.9797 101.41 14.7618C101.043 14.544 100.753 14.2452 100.542 13.8655C100.336 13.4858 100.234 13.0532 100.234 12.5676C100.234 12.1132 100.333 11.6931 100.533 11.3071C100.731 10.9212 101.009 10.613 101.364 10.3827C101.724 10.1462 102.139 10.0279 102.605 10.0279C103.097 10.0279 103.514 10.1338 103.857 10.3454C104.205 10.557 104.47 10.8465 104.65 11.2137C104.83 11.581 104.921 11.9949 104.921 12.4556C104.921 12.5241 104.918 12.5863 104.912 12.6423C104.912 12.6983 104.908 12.7419 104.902 12.773H101.224C101.273 13.2461 101.438 13.6009 101.718 13.8375C102.005 14.074 102.328 14.1923 102.689 14.1923C103.013 14.1923 103.28 14.1207 103.492 13.9775C103.704 13.8281 103.872 13.6445 103.997 13.4266L104.828 13.8281C104.622 14.2016 104.342 14.5066 103.987 14.7432C103.632 14.9735 103.19 15.0886 102.661 15.0886ZM102.615 10.8869C102.279 10.8869 101.992 10.9897 101.756 11.1951C101.519 11.4005 101.36 11.6744 101.28 12.0167H103.922C103.909 11.8549 103.857 11.6868 103.763 11.5125C103.67 11.3383 103.527 11.1919 103.334 11.0737C103.147 10.9492 102.907 10.8869 102.615 10.8869ZM106.435 9.47704C106.248 9.47704 106.087 9.41168 105.949 9.28097C105.819 9.14404 105.753 8.98218 105.753 8.79544C105.753 8.6087 105.819 8.44996 105.949 8.31924C106.087 8.18853 106.248 8.12317 106.435 8.12317C106.622 8.12317 106.78 8.18853 106.911 8.31924C107.048 8.44996 107.117 8.6087 107.117 8.79544C107.117 8.98218 107.048 9.14404 106.911 9.28097C106.78 9.41168 106.622 9.47704 106.435 9.47704ZM105.931 14.9392V10.1773H106.939V14.9392H105.931ZM108.19 14.9392V10.1773H109.143V10.8776H109.199C109.305 10.6348 109.485 10.4356 109.74 10.28C110.002 10.1182 110.282 10.0373 110.581 10.0373C110.711 10.0373 110.821 10.0466 110.907 10.0653C111.001 10.084 111.085 10.1058 111.16 10.1306V11.1764C111.041 11.1266 110.92 11.0862 110.795 11.055C110.677 11.0239 110.553 11.0083 110.422 11.0083C110.186 11.0083 109.974 11.0737 109.787 11.2044C109.607 11.3289 109.464 11.5001 109.358 11.7179C109.252 11.9296 109.199 12.163 109.199 12.4182V14.9392H108.19ZM113.268 15.0886C112.926 15.0886 112.621 15.0233 112.353 14.8926C112.085 14.7556 111.877 14.5658 111.727 14.323C111.578 14.0802 111.503 13.8032 111.503 13.492C111.503 13.1559 111.59 12.8695 111.765 12.633C111.945 12.3902 112.185 12.2066 112.484 12.0821C112.782 11.9576 113.112 11.8954 113.473 11.8954C113.772 11.8954 114.034 11.9234 114.258 11.9794C114.488 12.0354 114.662 12.0946 114.781 12.1568V11.9047C114.781 11.5934 114.668 11.3445 114.444 11.1577C114.22 10.971 113.931 10.8776 113.576 10.8776C113.333 10.8776 113.103 10.9336 112.885 11.0457C112.668 11.1515 112.493 11.2978 112.362 11.4845L111.671 10.9523C111.877 10.666 112.147 10.4419 112.484 10.28C112.826 10.112 113.2 10.0279 113.604 10.0279C114.295 10.0279 114.827 10.1991 115.201 10.5415C115.574 10.8776 115.761 11.3507 115.761 11.9607V14.9392H114.781V14.351H114.724C114.6 14.544 114.414 14.7152 114.164 14.8645C113.915 15.0139 113.617 15.0886 113.268 15.0886ZM113.445 14.267C113.707 14.267 113.937 14.2047 114.136 14.0802C114.336 13.9557 114.491 13.7939 114.603 13.5947C114.722 13.3893 114.781 13.1683 114.781 12.9318C114.638 12.8509 114.47 12.7855 114.276 12.7357C114.083 12.6797 113.878 12.6517 113.66 12.6517C113.249 12.6517 112.957 12.7357 112.782 12.9038C112.608 13.0656 112.521 13.2648 112.521 13.5013C112.521 13.7254 112.605 13.909 112.773 14.0522C112.941 14.1954 113.165 14.267 113.445 14.267ZM121.086 15.0886C120.656 15.0886 120.267 14.9828 119.919 14.7712C119.577 14.5533 119.302 14.2545 119.097 13.8748C118.898 13.4889 118.798 13.05 118.798 12.5583C118.798 12.0665 118.898 11.6308 119.097 11.2511C119.302 10.8714 119.577 10.5726 119.919 10.3547C120.267 10.1369 120.656 10.0279 121.086 10.0279C121.453 10.0279 121.767 10.1088 122.029 10.2707C122.297 10.4326 122.493 10.6162 122.617 10.8216H122.673L122.617 10.1587V8.25389H123.616V14.9392H122.673V14.3043H122.617C122.493 14.5097 122.297 14.6934 122.029 14.8552C121.767 15.0108 121.453 15.0886 121.086 15.0886ZM121.235 14.1643C121.485 14.1643 121.718 14.0989 121.936 13.9682C122.16 13.8375 122.337 13.6539 122.468 13.4173C122.605 13.1745 122.673 12.8882 122.673 12.5583C122.673 12.2284 122.605 11.9452 122.468 11.7086C122.337 11.4658 122.16 11.2791 121.936 11.1484C121.718 11.0177 121.485 10.9523 121.235 10.9523C120.986 10.9523 120.753 11.0177 120.535 11.1484C120.317 11.2791 120.14 11.4658 120.003 11.7086C119.866 11.9452 119.797 12.2284 119.797 12.5583C119.797 12.8882 119.866 13.1745 120.003 13.4173C120.14 13.6539 120.317 13.8375 120.535 13.9682C120.753 14.0989 120.986 14.1643 121.235 14.1643ZM126.999 15.0886C126.507 15.0886 126.075 14.9766 125.702 14.7525C125.328 14.5284 125.035 14.2265 124.824 13.8468C124.612 13.4671 124.506 13.0376 124.506 12.5583C124.506 12.0852 124.612 11.6588 124.824 11.2791C125.035 10.8932 125.328 10.5882 125.702 10.3641C126.075 10.14 126.507 10.0279 126.999 10.0279C127.485 10.0279 127.915 10.14 128.288 10.3641C128.662 10.5882 128.954 10.8932 129.166 11.2791C129.377 11.6588 129.483 12.0852 129.483 12.5583C129.483 13.0376 129.377 13.4671 129.166 13.8468C128.954 14.2265 128.662 14.5284 128.288 14.7525C127.915 14.9766 127.485 15.0886 126.999 15.0886ZM126.999 14.1643C127.261 14.1643 127.504 14.102 127.728 13.9775C127.952 13.8468 128.132 13.6632 128.269 13.4266C128.412 13.1839 128.484 12.8944 128.484 12.5583C128.484 12.2222 128.412 11.9358 128.269 11.6993C128.132 11.4565 127.952 11.2729 127.728 11.1484C127.504 11.0177 127.261 10.9523 126.999 10.9523C126.738 10.9523 126.492 11.0177 126.262 11.1484C126.038 11.2729 125.854 11.4565 125.711 11.6993C125.574 11.9358 125.506 12.2222 125.506 12.5583C125.506 12.8944 125.574 13.1839 125.711 13.4266C125.854 13.6632 126.038 13.8468 126.262 13.9775C126.492 14.102 126.738 14.1643 126.999 14.1643ZM135.742 15.0886C135.263 15.0886 134.811 15.0015 134.388 14.8272C133.971 14.6529 133.601 14.4102 133.277 14.0989C132.953 13.7814 132.698 13.4111 132.511 12.9878C132.331 12.5583 132.24 12.0946 132.24 11.5966C132.24 11.0986 132.331 10.638 132.511 10.2147C132.698 9.78517 132.95 9.41481 133.267 9.10356C133.591 8.7861 133.965 8.54021 134.388 8.36593C134.811 8.19165 135.263 8.10449 135.742 8.10449C136.253 8.10449 136.722 8.19474 137.152 8.37527C137.588 8.5558 137.952 8.8079 138.244 9.13157L137.535 9.83185C137.317 9.58909 137.056 9.40235 136.75 9.27163C136.451 9.14091 136.115 9.07555 135.742 9.07555C135.3 9.07555 134.892 9.18139 134.519 9.39301C134.145 9.59843 133.844 9.89101 133.613 10.2707C133.389 10.6442 133.277 11.0862 133.277 11.5966C133.277 12.107 133.392 12.5521 133.622 12.9318C133.853 13.3053 134.155 13.5978 134.528 13.8095C134.901 14.0149 135.31 14.1176 135.751 14.1176C136.156 14.1176 136.523 14.0429 136.853 13.8935C137.183 13.7379 137.448 13.52 137.647 13.2399C137.852 12.9598 137.977 12.6236 138.02 12.2315H135.732V11.3258H138.982C139.019 11.4939 139.038 11.6713 139.038 11.858V11.8673C139.038 12.5147 138.895 13.0812 138.608 13.5667C138.328 14.046 137.939 14.4195 137.441 14.6871C136.944 14.9548 136.377 15.0886 135.742 15.0886ZM142.044 15.0886C141.553 15.0886 141.12 14.9766 140.747 14.7525C140.373 14.5284 140.081 14.2265 139.869 13.8468C139.657 13.4671 139.551 13.0376 139.551 12.5583C139.551 12.0852 139.657 11.6588 139.869 11.2791C140.081 10.8932 140.373 10.5882 140.747 10.3641C141.12 10.14 141.553 10.0279 142.044 10.0279C142.53 10.0279 142.959 10.14 143.333 10.3641C143.706 10.5882 143.999 10.8932 144.211 11.2791C144.423 11.6588 144.528 12.0852 144.528 12.5583C144.528 13.0376 144.423 13.4671 144.211 13.8468C143.999 14.2265 143.706 14.5284 143.333 14.7525C142.959 14.9766 142.53 15.0886 142.044 15.0886ZM142.044 14.1643C142.306 14.1643 142.549 14.102 142.773 13.9775C142.997 13.8468 143.177 13.6632 143.314 13.4266C143.458 13.1839 143.529 12.8944 143.529 12.5583C143.529 12.2222 143.458 11.9358 143.314 11.6993C143.177 11.4565 142.997 11.2729 142.773 11.1484C142.549 11.0177 142.306 10.9523 142.044 10.9523C141.783 10.9523 141.537 11.0177 141.307 11.1484C141.083 11.2729 140.899 11.4565 140.756 11.6993C140.619 11.9358 140.55 12.2222 140.55 12.5583C140.55 12.8944 140.619 13.1839 140.756 13.4266C140.899 13.6632 141.083 13.8468 141.307 13.9775C141.537 14.102 141.783 14.1643 142.044 14.1643ZM147.698 15.0886C147.206 15.0886 146.774 14.9766 146.4 14.7525C146.027 14.5284 145.734 14.2265 145.522 13.8468C145.31 13.4671 145.205 13.0376 145.205 12.5583C145.205 12.0852 145.31 11.6588 145.522 11.2791C145.734 10.8932 146.027 10.5882 146.4 10.3641C146.774 10.14 147.206 10.0279 147.698 10.0279C148.184 10.0279 148.613 10.14 148.986 10.3641C149.36 10.5882 149.652 10.8932 149.864 11.2791C150.076 11.6588 150.182 12.0852 150.182 12.5583C150.182 13.0376 150.076 13.4671 149.864 13.8468C149.652 14.2265 149.36 14.5284 148.986 14.7525C148.613 14.9766 148.184 15.0886 147.698 15.0886ZM147.698 14.1643C147.959 14.1643 148.202 14.102 148.426 13.9775C148.65 13.8468 148.831 13.6632 148.968 13.4266C149.111 13.1839 149.183 12.8944 149.183 12.5583C149.183 12.2222 149.111 11.9358 148.968 11.6993C148.831 11.4565 148.65 11.2729 148.426 11.1484C148.202 11.0177 147.959 10.9523 147.698 10.9523C147.437 10.9523 147.191 11.0177 146.96 11.1484C146.736 11.2729 146.552 11.4565 146.409 11.6993C146.272 11.9358 146.204 12.2222 146.204 12.5583C146.204 12.8944 146.272 13.1839 146.409 13.4266C146.552 13.6632 146.736 13.8468 146.96 13.9775C147.191 14.102 147.437 14.1643 147.698 14.1643ZM153.258 17.1055C152.841 17.1055 152.48 17.037 152.175 16.9C151.876 16.7693 151.633 16.5981 151.446 16.3865C151.26 16.1811 151.126 15.9695 151.045 15.7516L151.979 15.3594C152.078 15.6084 152.237 15.8107 152.455 15.9663C152.679 16.1282 152.946 16.2091 153.258 16.2091C153.693 16.2091 154.036 16.0784 154.285 15.8169C154.54 15.5555 154.668 15.1851 154.668 14.7058V14.2483H154.612C154.462 14.4724 154.254 14.6529 153.986 14.7899C153.725 14.9206 153.426 14.9859 153.09 14.9859C152.685 14.9859 152.315 14.8832 151.979 14.6778C151.642 14.4724 151.372 14.1861 151.166 13.8188C150.961 13.4453 150.858 13.0096 150.858 12.5116C150.858 12.0074 150.961 11.5717 151.166 11.2044C151.372 10.8309 151.642 10.5415 151.979 10.3361C152.315 10.1306 152.685 10.0279 153.09 10.0279C153.426 10.0279 153.725 10.0964 153.986 10.2333C154.254 10.3703 154.462 10.5508 154.612 10.7749H154.668V10.1773H155.629V14.6871C155.629 15.2038 155.527 15.6427 155.321 16.0037C155.122 16.3647 154.845 16.6386 154.49 16.8253C154.135 17.0121 153.725 17.1055 153.258 17.1055ZM153.267 14.0709C153.516 14.0709 153.747 14.0117 153.958 13.8935C154.17 13.769 154.341 13.5916 154.472 13.3613C154.602 13.1247 154.668 12.8415 154.668 12.5116C154.668 12.1693 154.602 11.8829 154.472 11.6526C154.341 11.416 154.17 11.2386 153.958 11.1204C153.747 11.0021 153.516 10.943 153.267 10.943C153.018 10.943 152.785 11.0052 152.567 11.1297C152.355 11.248 152.184 11.4223 152.053 11.6526C151.923 11.8829 151.857 12.1693 151.857 12.5116C151.857 12.8477 151.923 13.1341 152.053 13.3706C152.184 13.6009 152.355 13.7752 152.567 13.8935C152.785 14.0117 153.018 14.0709 153.267 14.0709ZM156.818 14.9392V8.25389H157.827V14.9392H156.818ZM161.146 15.0886C160.679 15.0886 160.262 14.9797 159.895 14.7618C159.527 14.544 159.238 14.2452 159.026 13.8655C158.821 13.4858 158.718 13.0532 158.718 12.5676C158.718 12.1132 158.818 11.6931 159.017 11.3071C159.216 10.9212 159.493 10.613 159.848 10.3827C160.209 10.1462 160.623 10.0279 161.09 10.0279C161.581 10.0279 161.999 10.1338 162.341 10.3454C162.69 10.557 162.954 10.8465 163.135 11.2137C163.315 11.581 163.405 11.9949 163.405 12.4556C163.405 12.5241 163.402 12.5863 163.396 12.6423C163.396 12.6983 163.393 12.7419 163.387 12.773H159.708C159.758 13.2461 159.923 13.6009 160.203 13.8375C160.489 14.074 160.813 14.1923 161.174 14.1923C161.497 14.1923 161.765 14.1207 161.977 13.9775C162.188 13.8281 162.356 13.6445 162.481 13.4266L163.312 13.8281C163.107 14.2016 162.826 14.5066 162.472 14.7432C162.117 14.9735 161.675 15.0886 161.146 15.0886ZM161.099 10.8869C160.763 10.8869 160.477 10.9897 160.24 11.1951C160.003 11.4005 159.845 11.6744 159.764 12.0167H162.406C162.394 11.8549 162.341 11.6868 162.248 11.5125C162.154 11.3383 162.011 11.1919 161.818 11.0737C161.631 10.9492 161.392 10.8869 161.099 10.8869Z" fill="white"/>
<path d="M162 0.233398H11.6723C5.35532 0.233398 0.234375 5.35434 0.234375 11.6713C0.234375 17.9883 5.35532 23.1093 11.6723 23.1093H162C168.317 23.1093 173.438 17.9883 173.438 11.6713C173.438 5.35434 168.317 0.233398 162 0.233398Z" stroke="#747775"/>
</g>
<defs>
<linearGradient id="paint0_linear_568_789" x1="16.14" y1="14.3724" x2="8.74535" y2="22.8351" gradientUnits="userSpaceOnUse">
<stop stop-color="#4285F4"/>
<stop offset="1" stop-color="#1B74E8"/>
</linearGradient>
<clipPath id="clip0_568_789">
<rect width="173.67" height="23.3427" fill="white"/>
</clipPath>
</defs>
</svg>
