<svg width="174" height="48" viewBox="0 0 174 48" fill="none" xmlns="http://www.w3.org/2000/svg">
<g clip-path="url(#clip0_568_709)">
<path d="M149.672 0.436523H24.0008C10.9871 0.436523 0.4375 10.9862 0.4375 23.9998C0.4375 37.0134 10.9871 47.563 24.0008 47.563H149.672C162.685 47.563 173.235 37.0134 173.235 23.9998C173.235 10.9862 162.685 0.436523 149.672 0.436523Z" fill="#1F1F1F"/>
<path d="M149.672 0.436523H24.0008C10.9871 0.436523 0.4375 10.9862 0.4375 23.9998C0.4375 37.0134 10.9871 47.563 24.0008 47.563H149.672C162.685 47.563 173.235 37.0134 173.235 23.9998C173.235 10.9862 162.685 0.436523 149.672 0.436523Z" stroke="#747775"/>
<path d="M49.7458 20.763H18.3281V15.8361C18.3281 13.1615 20.634 10.9092 23.3722 10.9092H44.7017C47.4399 10.9092 49.7458 13.1615 49.7458 15.8361V20.763Z" fill="#34A853"/>
<path d="M49.7458 25.3085H18.3281V20.0722C18.3281 17.2297 20.634 14.8359 23.3722 14.8359H44.7017C47.4399 14.8359 49.7458 17.2297 49.7458 20.0722V25.3085Z" fill="#FBBC04"/>
<path d="M49.7458 29.6718H18.3281V24.4355C18.3281 21.593 20.634 19.1992 23.3722 19.1992H44.7017C47.4399 19.1992 49.7458 21.593 49.7458 24.4355V29.6718Z" fill="#EA4335"/>
<path d="M18.3281 22.0276L38.269 26.5322C40.5644 27.0952 43.1467 26.5322 45.0116 25.1245L49.7458 21.7461V32.3037C49.7458 34.9783 47.4505 37.0898 44.7247 37.0898H23.3492C20.6234 37.0898 18.3281 34.9783 18.3281 32.3037V22.0276Z" fill="#4285F4"/>
<path d="M66.4503 22.492C65.6887 22.492 64.9716 22.3535 64.299 22.0765C63.6264 21.7996 63.033 21.4139 62.5187 20.9193C62.0143 20.4149 61.6137 19.8264 61.317 19.1538C61.0301 18.4714 60.8867 17.7345 60.8867 16.9432C60.8867 16.152 61.0301 15.4201 61.317 14.7475C61.6137 14.065 62.0143 13.4766 62.5187 12.982C63.033 12.4776 63.6264 12.0869 64.299 11.8099C64.9716 11.533 65.6887 11.3945 66.4503 11.3945C67.2613 11.3945 68.0081 11.5379 68.6905 11.8248C69.3828 12.1116 69.9615 12.5122 70.4264 13.0265L69.2988 14.1392C69.0713 13.882 68.8092 13.6645 68.5125 13.4864C68.2256 13.3084 67.9092 13.1749 67.563 13.0859C67.2168 12.987 66.8459 12.9375 66.4503 12.9375C65.926 12.9375 65.4266 13.0315 64.9518 13.2194C64.4771 13.4073 64.0567 13.6793 63.6907 14.0354C63.3347 14.3816 63.0528 14.8019 62.8451 15.2964C62.6374 15.7811 62.5335 16.33 62.5335 16.9432C62.5335 17.5565 62.6374 18.1103 62.8451 18.6049C63.0627 19.0895 63.3495 19.5099 63.7056 19.866C64.0715 20.2122 64.4919 20.4792 64.9667 20.6671C65.4414 20.855 65.9409 20.949 66.4651 20.949C66.9497 20.949 67.3998 20.8798 67.8152 20.7413C68.2405 20.6028 68.6114 20.405 68.9279 20.1478C69.2444 19.8907 69.5015 19.5791 69.6994 19.2132C69.8972 18.8373 70.0208 18.417 70.0703 17.9521H66.4354V16.513H71.5984C71.6182 16.6317 71.6379 16.7702 71.6578 16.9284C71.6776 17.0768 71.6874 17.2202 71.6874 17.3587V17.3735C71.6874 18.1351 71.5539 18.8324 71.2868 19.4654C71.0297 20.0984 70.6687 20.6424 70.2038 21.0974C69.7389 21.5424 69.1851 21.8886 68.5422 22.1359C67.9092 22.3733 67.2119 22.492 66.4503 22.492ZM76.4646 22.492C75.6831 22.492 74.9958 22.3139 74.4023 21.9579C73.8089 21.6018 73.344 21.1221 73.0078 20.5188C72.6714 19.9055 72.5033 19.223 72.5033 18.4714C72.5033 17.7197 72.6714 17.0421 73.0078 16.4388C73.344 15.8256 73.8089 15.3409 74.4023 14.9849C74.9958 14.6288 75.6831 14.4508 76.4646 14.4508C77.236 14.4508 77.9185 14.6338 78.512 14.9997C79.1054 15.3558 79.5702 15.8355 79.9066 16.4388C80.2428 17.0421 80.411 17.7197 80.411 18.4714C80.411 19.223 80.2428 19.9055 79.9066 20.5188C79.5702 21.1221 79.1054 21.6018 78.512 21.9579C77.9185 22.3139 77.236 22.492 76.4646 22.492ZM76.4646 21.0232C76.88 21.0232 77.2657 20.9243 77.6218 20.7265C77.9779 20.5188 78.2646 20.227 78.4823 19.8511C78.7097 19.4654 78.8235 19.0055 78.8235 18.4714C78.8235 17.9373 78.7097 17.4823 78.4823 17.1064C78.2646 16.7207 77.9779 16.429 77.6218 16.2311C77.2657 16.0234 76.88 15.9196 76.4646 15.9196C76.0492 15.9196 75.6584 16.0234 75.2925 16.2311C74.9364 16.429 74.6446 16.7207 74.4172 17.1064C74.1995 17.4823 74.0908 17.9373 74.0908 18.4714C74.0908 19.0055 74.1995 19.4654 74.4172 19.8511C74.6446 20.227 74.9413 20.5188 75.3074 20.7265C75.6733 20.9243 76.059 21.0232 76.4646 21.0232ZM85.4473 22.492C84.666 22.492 83.9785 22.3139 83.3851 21.9579C82.7917 21.6018 82.3268 21.1221 81.9905 20.5188C81.6542 19.9055 81.4861 19.223 81.4861 18.4714C81.4861 17.7197 81.6542 17.0421 81.9905 16.4388C82.3268 15.8256 82.7917 15.3409 83.3851 14.9849C83.9785 14.6288 84.666 14.4508 85.4473 14.4508C86.2188 14.4508 86.9013 14.6338 87.4949 14.9997C88.0883 15.3558 88.5535 15.8355 88.8895 16.4388C89.2255 17.0421 89.3939 17.7197 89.3939 18.4714C89.3939 19.223 89.2255 19.9055 88.8895 20.5188C88.5535 21.1221 88.0883 21.6018 87.4949 21.9579C86.9013 22.3139 86.2188 22.492 85.4473 22.492ZM85.4473 21.0232C85.8627 21.0232 86.2485 20.9243 86.6045 20.7265C86.9606 20.5188 87.2475 20.227 87.4652 19.8511C87.693 19.4654 87.8064 19.0055 87.8064 18.4714C87.8064 17.9373 87.693 17.4823 87.4652 17.1064C87.2475 16.7207 86.9606 16.429 86.6045 16.2311C86.2485 16.0234 85.8627 15.9196 85.4473 15.9196C85.0319 15.9196 84.6413 16.0234 84.2753 16.2311C83.9192 16.429 83.6275 16.7207 83.3999 17.1064C83.1824 17.4823 83.0735 17.9373 83.0735 18.4714C83.0735 19.0055 83.1824 19.4654 83.3999 19.8511C83.6275 20.227 83.9242 20.5188 84.2901 20.7265C84.6561 20.9243 85.0419 21.0232 85.4473 21.0232ZM94.282 25.6966C93.6187 25.6966 93.0453 25.5877 92.561 25.3702C92.0862 25.1625 91.7005 24.8904 91.4038 24.5542C91.107 24.2278 90.8941 23.8915 90.7658 23.5453L92.2494 22.9222C92.4074 23.3178 92.6596 23.6393 93.0061 23.8866C93.3621 24.1437 93.7871 24.2723 94.282 24.2723C94.9836 24.2723 95.5326 24.0646 95.9288 23.6492C96.3241 23.2338 96.5222 22.6453 96.5222 21.8837V21.1567H96.4332C96.1958 21.5029 95.8694 21.7848 95.454 22.0024C95.0386 22.2199 94.5586 22.3288 94.0149 22.3288C93.3717 22.3288 92.7783 22.1656 92.2346 21.8392C91.7005 21.5128 91.2702 21.0578 90.9438 20.4742C90.6271 19.8808 90.4691 19.1885 90.4691 18.3972C90.4691 17.596 90.6271 16.9037 90.9438 16.3201C91.2702 15.7267 91.7005 15.2668 92.2346 14.9404C92.7783 14.614 93.3717 14.4508 94.0149 14.4508C94.5586 14.4508 95.0386 14.5596 95.454 14.7772C95.8694 14.9849 96.1958 15.2717 96.4332 15.6377H96.5222V14.6882H98.0504V21.854C98.0504 22.675 97.8872 23.3723 97.5608 23.9459C97.244 24.5195 96.8041 24.9548 96.2403 25.2515C95.6766 25.5482 95.0238 25.6966 94.282 25.6966ZM94.2968 20.8748C94.6921 20.8748 95.0578 20.7808 95.3947 20.5929C95.7403 20.3951 96.0126 20.1132 96.2107 19.7473C96.4184 19.3714 96.5222 18.9214 96.5222 18.3972C96.5222 17.8433 96.4184 17.3834 96.2107 17.0174C96.0126 16.6515 95.7403 16.3745 95.3947 16.1866C95.0578 15.9987 94.6921 15.9047 94.2968 15.9047C93.9006 15.9047 93.5297 15.9987 93.1841 16.1866C92.8472 16.3745 92.5758 16.6564 92.3681 17.0323C92.1604 17.3982 92.0566 17.8532 92.0566 18.3972C92.0566 18.9313 92.1604 19.3862 92.3681 19.7621C92.5758 20.128 92.8472 20.405 93.1841 20.5929C93.5297 20.7808 93.9006 20.8748 94.2968 20.8748ZM99.9398 22.2546V11.6319H101.542V22.2546H99.9398ZM106.815 22.492C106.073 22.492 105.411 22.3189 104.827 21.9727C104.244 21.6265 103.784 21.1517 103.447 20.5484C103.121 19.9451 102.958 19.2577 102.958 18.4862C102.958 17.7642 103.116 17.0966 103.432 16.4833C103.749 15.8701 104.189 15.3805 104.753 15.0145C105.327 14.6387 105.984 14.4508 106.726 14.4508C107.508 14.4508 108.17 14.6189 108.714 14.9552C109.268 15.2915 109.689 15.7514 109.975 16.335C110.262 16.9185 110.405 17.5762 110.405 18.3082C110.405 18.417 110.401 18.5159 110.391 18.6049C110.391 18.6939 110.386 18.7631 110.376 18.8126H104.53C104.57 19.228 104.674 19.589 104.842 19.8956C105.06 20.2814 105.346 20.5731 105.702 20.771C106.058 20.9688 106.444 21.0677 106.86 21.0677C107.364 21.0677 107.785 20.954 108.121 20.7265C108.467 20.4891 108.739 20.1973 108.937 19.8511L110.257 20.4891C109.931 21.0825 109.486 21.5671 108.922 21.943C108.358 22.3089 107.656 22.492 106.815 22.492ZM104.619 17.6109H108.818C108.808 17.423 108.759 17.2251 108.67 17.0174C108.581 16.7999 108.452 16.602 108.284 16.424C108.116 16.2459 107.903 16.1026 107.646 15.9937C107.389 15.875 107.087 15.8157 106.741 15.8157C106.306 15.8157 105.92 15.9294 105.584 16.1569C105.248 16.3745 104.986 16.6812 104.797 17.0768C104.719 17.2449 104.659 17.423 104.619 17.6109ZM116.927 22.2546L114.079 11.6319H115.889L117.58 18.5307L117.758 19.4505H117.847L118.07 18.5307L120.206 11.6319H121.838L123.885 18.5307L124.108 19.4357H124.197L124.375 18.5307L126.066 11.6319H127.861L125.057 22.2546H123.336L121.304 15.2074L121.066 14.2134H120.977L120.725 15.2074L118.604 22.2546H116.927ZM130.841 22.492C130.297 22.492 129.812 22.3831 129.387 22.1656C128.971 21.948 128.64 21.6513 128.393 21.2754C128.155 20.8897 128.037 20.4495 128.037 19.955C128.037 19.411 128.176 18.9511 128.452 18.5752C128.739 18.1993 129.12 17.9126 129.595 17.7147C130.069 17.5169 130.594 17.418 131.167 17.418C131.484 17.418 131.775 17.4427 132.043 17.4922C132.319 17.5317 132.557 17.5812 132.755 17.6405C132.962 17.6999 133.126 17.7642 133.244 17.8334V17.4328C133.244 16.9383 133.066 16.5427 132.71 16.2459C132.354 15.9492 131.894 15.8009 131.33 15.8009C130.945 15.8009 130.579 15.8899 130.233 16.0679C129.886 16.2361 129.609 16.4685 129.402 16.7652L128.304 15.9196C128.521 15.613 128.784 15.3508 129.09 15.1332C129.407 14.9157 129.758 14.7475 130.144 14.6288C130.539 14.5101 130.95 14.4508 131.375 14.4508C132.473 14.4508 133.318 14.7228 133.912 15.2668C134.505 15.8009 134.802 16.5525 134.802 17.5219V22.2546H133.244V21.3199H133.155C133.027 21.5177 132.849 21.7056 132.621 21.8837C132.404 22.0617 132.141 22.2051 131.835 22.3139C131.538 22.4326 131.206 22.492 130.841 22.492ZM131.123 21.1864C131.538 21.1864 131.904 21.0875 132.221 20.8897C132.547 20.6918 132.799 20.4347 132.977 20.1182C133.155 19.7918 133.244 19.4407 133.244 19.0648C133.027 18.9363 132.76 18.8324 132.443 18.7533C132.137 18.6642 131.81 18.6197 131.464 18.6197C130.811 18.6197 130.346 18.7483 130.069 19.0055C129.793 19.2627 129.654 19.5841 129.654 19.9698C129.654 20.3259 129.787 20.6176 130.055 20.8451C130.322 21.0727 130.678 21.1864 131.123 21.1864ZM136.581 22.2546V11.6319H138.183V22.2546H136.581ZM140.087 22.2546V11.6319H141.69V22.2546H140.087ZM146.962 22.492C146.221 22.492 145.558 22.3189 144.974 21.9727C144.391 21.6265 143.932 21.1517 143.595 20.5484C143.268 19.9451 143.105 19.2577 143.105 18.4862C143.105 17.7642 143.264 17.0966 143.58 16.4833C143.897 15.8701 144.336 15.3805 144.9 15.0145C145.474 14.6387 146.132 14.4508 146.873 14.4508C147.655 14.4508 148.318 14.6189 148.861 14.9552C149.416 15.2915 149.836 15.7514 150.123 16.335C150.41 16.9185 150.553 17.5762 150.553 18.3082C150.553 18.417 150.548 18.5159 150.538 18.6049C150.538 18.6939 150.534 18.7631 150.523 18.8126H144.678C144.718 19.228 144.822 19.589 144.989 19.8956C145.207 20.2814 145.494 20.5731 145.85 20.771C146.206 20.9688 146.592 21.0677 147.007 21.0677C147.511 21.0677 147.932 20.954 148.268 20.7265C148.615 20.4891 148.887 20.1973 149.084 19.8511L150.404 20.4891C150.078 21.0825 149.633 21.5671 149.069 21.943C148.505 22.3089 147.804 22.492 146.962 22.492ZM144.767 17.6109H148.965C148.956 17.423 148.906 17.2251 148.817 17.0174C148.728 16.7999 148.6 16.602 148.431 16.424C148.264 16.2459 148.051 16.1026 147.793 15.9937C147.537 15.875 147.235 15.8157 146.888 15.8157C146.454 15.8157 146.068 15.9294 145.731 16.1569C145.395 16.3745 145.133 16.6812 144.945 17.0768C144.866 17.2449 144.807 17.423 144.767 17.6109ZM151.303 14.6882H152.624V12.5517H154.226V14.6882H156.081V16.0827H154.226V19.7176C154.226 20.0935 154.3 20.3803 154.449 20.5781C154.607 20.7759 154.868 20.8748 155.235 20.8748C155.413 20.8748 155.571 20.8501 155.71 20.8006C155.848 20.7413 155.986 20.6721 156.125 20.5929V22.1507C155.957 22.2199 155.779 22.2744 155.591 22.3139C155.402 22.3535 155.18 22.3733 154.923 22.3733C154.221 22.3733 153.662 22.1705 153.247 21.765C152.831 21.3496 152.624 20.7808 152.624 20.0588V16.0827H151.303V14.6882Z" fill="white"/>
<path d="M62.2726 34.6181C62.1138 34.6181 61.9436 34.569 61.7621 34.4706C61.5881 34.3647 61.4217 34.2286 61.2629 34.0622C61.104 33.8957 60.9755 33.7218 60.8771 33.5403C60.7788 33.3512 60.7296 33.1697 60.7296 32.9957C60.7296 32.7915 60.7901 32.6364 60.9112 32.5306C61.0397 32.4247 61.2024 32.3717 61.399 32.3717H61.6826V29.6035H59.9922V28.6732H67.4687V29.6035H66.4477V36.2178H65.3131V33.3701H62.8058V34.0395C62.8058 34.2134 62.7567 34.3534 62.6583 34.4593C62.5676 34.5651 62.439 34.6181 62.2726 34.6181ZM65.3131 32.3717V29.6035H62.8058V32.3717H65.3131ZM68.3212 36.2178V29.6035H67.0165V28.6732H70.4768V29.6035H69.4557V36.2178H68.3212ZM76.9214 38.2032C76.3013 38.0141 75.7567 37.7607 75.2877 37.4431C74.8264 37.133 74.4671 36.7737 74.2099 36.3653C73.9528 35.9568 73.8242 35.5106 73.8242 35.0265C73.8242 34.3458 74.07 33.7861 74.5616 33.3474V33.2907C74.2591 33.1621 74.0209 32.9806 73.8469 32.7461C73.6805 32.5041 73.5973 32.2318 73.5973 31.9293C73.5973 31.483 73.7523 31.1313 74.0624 30.8742C74.3801 30.6095 74.8075 30.4771 75.3444 30.4771H77.2391V29.6035H72.667V28.6732H79.4741V29.6035H78.3282V31.4528H75.4692C75.2423 31.4528 75.0608 31.5095 74.9247 31.6229C74.7961 31.7288 74.7318 31.8725 74.7318 32.0541C74.7318 32.2432 74.7961 32.3907 74.9247 32.4965C75.0608 32.5949 75.2423 32.644 75.4692 32.644H76.2634C76.7778 32.644 77.224 32.7348 77.6022 32.9163C77.9879 33.0902 78.2829 33.3361 78.4871 33.6537C78.6989 33.9638 78.8048 34.3345 78.8048 34.7656C78.8048 35.3858 78.5741 35.9379 78.1127 36.422L77.2278 35.7299C77.3639 35.5862 77.4699 35.4387 77.5454 35.2875C77.6211 35.1286 77.6589 34.9622 77.6589 34.7883C77.6589 34.463 77.5417 34.2021 77.3072 34.0055C77.0728 33.8012 76.7589 33.6991 76.3655 33.6991C75.9344 33.6991 75.594 33.8202 75.3444 34.0622C75.0948 34.3042 74.97 34.6294 74.97 35.0379C74.97 35.5522 75.1781 35.9871 75.594 36.3426C76.0101 36.7056 76.5773 36.9893 77.2958 37.1935L76.9214 38.2032ZM80.3202 36.2178V29.6035H79.0155V28.6732H82.4758V29.6035H81.4547V36.2178H80.3202ZM84.8884 36.3993C84.2605 35.9077 83.7765 35.382 83.4362 34.8223C83.1033 34.2626 82.937 33.6727 82.937 33.0524C82.937 32.5986 83.0201 32.2016 83.1866 31.8612C83.3529 31.5208 83.5874 31.2561 83.89 31.067C84.1924 30.8704 84.5442 30.772 84.9451 30.772C85.2778 30.772 85.5728 30.8364 85.83 30.9649C86.0947 31.0935 86.314 31.2826 86.488 31.5322H86.5561C86.73 31.2902 86.938 31.1048 87.1801 30.9763C87.4225 30.8401 87.7174 30.772 88.0648 30.772C88.4435 30.772 88.776 30.8666 89.0632 31.0557C89.3581 31.2448 89.6191 31.5208 89.846 31.8839L89.0972 32.4398C88.9689 32.228 88.8293 32.073 88.6774 31.9746C88.5264 31.8763 88.3414 31.8272 88.1215 31.8272C87.8344 31.8272 87.611 31.9179 87.4521 32.0994C87.3011 32.281 87.2255 32.5419 87.2255 32.8823V34.0168H86.091V32.8823C86.091 32.5495 86.0077 32.2923 85.8414 32.1108C85.6749 31.9217 85.4404 31.8272 85.1379 31.8272C84.8127 31.8272 84.5593 31.9369 84.3778 32.1562C84.1963 32.368 84.1055 32.6667 84.1055 33.0524C84.1055 33.5063 84.2341 33.9411 84.4913 34.3572C84.7484 34.7656 85.1228 35.1589 85.6144 35.5371L84.8884 36.3993ZM82.018 29.6035V28.6732H88.4278V29.6035H82.018ZM90.1907 34.0168C90.0249 34.0168 89.8468 33.9638 89.6575 33.858C89.469 33.7445 89.2909 33.6008 89.1242 33.4268C88.9654 33.2529 88.8336 33.0675 88.7272 32.8709C88.6294 32.6667 88.5797 32.4776 88.5797 32.3037C88.5797 32.107 88.6408 31.9557 88.7612 31.8498C88.8825 31.7364 89.0448 31.6797 89.249 31.6797H92.8455V29.6035H87.9784V28.6732H95.0011V29.6035H93.98V36.2178H92.8455V32.6781H90.7353V33.4268C90.7353 33.6084 90.6864 33.7521 90.5878 33.858C90.497 33.9638 90.3652 34.0168 90.1907 34.0168ZM93.0855 39.4171C92.4205 39.4171 91.8113 39.2432 91.2589 38.8953C90.7143 38.5549 90.2195 38.033 89.7727 37.3296L90.6689 36.7397C91.0477 37.2918 91.4256 37.7003 91.8035 37.965C92.1822 38.2372 92.602 38.3734 93.0628 38.3734C93.3578 38.3734 93.5925 38.3053 93.7662 38.1692C93.9477 38.033 94.0385 37.8553 94.0385 37.6359C94.0385 37.4317 93.9783 37.2691 93.857 37.1481C93.7365 37.027 93.5698 36.9666 93.3578 36.9666C93.0707 36.9666 92.7678 37.099 92.4502 37.3637L91.7808 36.5695C92.2573 36.1686 92.7835 35.9682 93.3578 35.9682C93.7287 35.9682 94.0498 36.0438 94.3221 36.1951C94.6023 36.3388 94.8178 36.5354 94.9688 36.785C95.1276 37.0422 95.2071 37.3334 95.2071 37.6586C95.2071 38.1881 95.0142 38.6116 94.6284 38.9293C94.2427 39.2546 93.7287 39.4171 93.0855 39.4171ZM98.8035 38.2032C98.183 38.0141 97.6384 37.7607 97.1698 37.4431C96.7081 37.133 96.3486 36.7737 96.092 36.3653C95.8345 35.9568 95.7062 35.5106 95.7062 35.0265C95.7062 34.3458 95.9515 33.7861 96.4437 33.3474V33.2907C96.1409 33.1621 95.9026 32.9806 95.7289 32.7461C95.5623 32.5041 95.4793 32.2318 95.4793 31.9293C95.4793 31.483 95.6338 31.1313 95.9445 30.8742C96.2622 30.6095 96.6889 30.4771 97.2265 30.4771H99.1212V29.6035H94.549V28.6732H101.356V29.6035H100.21V31.4528H97.3513C97.1244 31.4528 96.9429 31.5095 96.8067 31.6229C96.6776 31.7288 96.6139 31.8725 96.6139 32.0541C96.6139 32.2432 96.6776 32.3907 96.8067 32.4965C96.9429 32.5949 97.1244 32.644 97.3513 32.644H98.1455C98.6595 32.644 99.1055 32.7348 99.4842 32.9163C99.87 33.0902 100.165 33.3361 100.369 33.6537C100.58 33.9638 100.687 34.3345 100.687 34.7656C100.687 35.3858 100.456 35.9379 99.9948 36.422L99.1098 35.7299C99.246 35.5862 99.3516 35.4387 99.4275 35.2875C99.5026 35.1286 99.5409 34.9622 99.5409 34.7883C99.5409 34.463 99.4231 34.2021 99.1892 34.0055C98.9545 33.8012 98.6403 33.6991 98.2476 33.6991C97.8165 33.6991 97.4761 33.8202 97.2265 34.0622C96.9769 34.3042 96.8521 34.6294 96.8521 35.0379C96.8521 35.5522 97.0598 35.9871 97.4761 36.3426C97.8915 36.7056 98.4588 36.9893 99.1779 37.1935L98.8035 38.2032ZM102.202 36.2178V29.6035H100.897V28.6732H102.111L101.589 27.584C101.445 27.289 101.306 27.0584 101.169 26.892C101.033 26.7255 100.878 26.6083 100.704 26.5403C100.531 26.4646 100.319 26.4268 100.069 26.4268H99.4676V25.3604H100.024C100.319 25.3604 100.579 25.3906 100.806 25.4511C101.033 25.5116 101.241 25.6137 101.43 25.7574C101.627 25.8936 101.805 26.0751 101.964 26.302C102.13 26.5289 102.296 26.8088 102.463 27.1416L103.212 28.6732H104.357V29.6035H103.336V36.2178H102.202ZM107.599 36.422L104.456 32.4852L105.296 31.7818C105.401 31.9028 105.511 31.9936 105.625 32.0541C105.745 32.107 105.881 32.1335 106.033 32.1335C106.275 32.1335 106.46 32.0617 106.589 31.9179C106.725 31.7667 106.793 31.5662 106.793 31.3166V29.6035H103.9V28.6732H112.398V29.6035H111.377V36.2178H110.242V33.1999H107.871L106.328 33.0978L106.283 33.1772L106.884 33.7445L108.518 35.7072L107.599 36.422ZM107.905 29.6035V31.3166C107.905 31.6646 107.844 31.9671 107.724 32.2242H110.242V29.6035H107.905ZM112.441 39.2016L111.931 38.5436C111.727 38.294 111.534 38.1124 111.352 37.999C111.179 37.8931 110.967 37.8402 110.717 37.8402C110.596 37.8402 110.464 37.8515 110.32 37.8742C110.184 37.9045 110.048 37.946 109.911 37.999L109.605 36.9552C109.794 36.8947 109.983 36.8455 110.172 36.8077C110.369 36.7774 110.55 36.7624 110.717 36.7624C110.989 36.7624 111.227 36.7964 111.432 36.8645C111.636 36.9401 111.837 37.0649 112.033 37.2389C112.237 37.4128 112.461 37.6549 112.702 37.965L113.224 38.6116L112.441 39.2016Z" fill="white"/>
</g>
<defs>
<clipPath id="clip0_568_709">
<rect width="173.67" height="47.9992" fill="white"/>
</clipPath>
</defs>
</svg>
