<svg width="174" height="33" viewBox="0 0 174 33" fill="none" xmlns="http://www.w3.org/2000/svg">
<g clip-path="url(#clip0_568_1043)">
<path d="M157.649 0.320312H16.0211C7.3498 0.320312 0.320312 7.3498 0.320312 16.0211C0.320312 24.6924 7.3498 31.7219 16.0211 31.7219H157.649C166.32 31.7219 173.349 24.6924 173.349 16.0211C173.349 7.3498 166.32 0.320312 157.649 0.320312Z" fill="#1F1F1F"/>
<path d="M32.6825 14.0989H13.457V10.8947C13.457 9.15522 14.8681 7.69043 16.5437 7.69043H29.5958C31.2715 7.69043 32.6825 9.15522 32.6825 10.8947V14.0989Z" fill="#34A853"/>
<path d="M32.6825 16.6966H13.457V13.4923C13.457 11.7529 14.8681 10.2881 16.5437 10.2881H29.5958C31.2715 10.2881 32.6825 11.7529 32.6825 13.4923V16.6966Z" fill="#FBBC04"/>
<path d="M32.6825 19.3841H13.457V16.1798C13.457 14.4404 14.8681 12.9756 16.5437 12.9756H29.5958C31.2715 12.9756 32.6825 14.4404 32.6825 16.1798V19.3841Z" fill="#EA4335"/>
<path d="M13.457 14.9156L25.6595 17.7377C27.0641 18.0905 28.6442 17.7377 29.7855 16.8559L32.6825 14.7393V21.3535C32.6825 23.0291 31.2779 24.352 29.6099 24.352H16.5296C14.8616 24.352 13.457 23.0291 13.457 21.3535V14.9156Z" fill="url(#paint0_linear_568_1043)"/>
<path d="M43.2832 20.5075V12.6635H40.707V11.3306H47.2437V12.6635H44.6803V20.5075H43.2832ZM48.5035 20.5075V11.3306H49.8877V13.8427L49.8108 14.868H49.8877C50.0671 14.5519 50.3405 14.2913 50.708 14.0862C51.0839 13.8726 51.4983 13.7658 51.9512 13.7658C52.7629 13.7658 53.3739 14.0093 53.7841 14.4964C54.1942 14.9749 54.3993 15.6029 54.3993 16.3804V20.5075H53.0279V16.5599C53.0279 16.0301 52.8869 15.6456 52.6049 15.4064C52.3314 15.1585 51.9939 15.0347 51.5924 15.0347C51.2591 15.0347 50.9643 15.1287 50.708 15.3166C50.4516 15.5046 50.2508 15.7524 50.1056 16.06C49.9603 16.3591 49.8877 16.6795 49.8877 17.0213V20.5075H48.5035ZM58.9622 20.7126C58.3213 20.7126 57.7489 20.5631 57.2447 20.264C56.7406 19.9649 56.3433 19.5548 56.0527 19.0336C55.7708 18.5124 55.6298 17.9185 55.6298 17.252C55.6298 16.6283 55.7665 16.0515 56.0399 15.5217C56.3134 14.9919 56.6936 14.569 57.1806 14.2528C57.6763 13.9281 58.2444 13.7658 58.8853 13.7658C59.5604 13.7658 60.1328 13.9111 60.6028 14.2016C61.0813 14.4921 61.4444 14.8894 61.6922 15.3935C61.94 15.8977 62.0639 16.4659 62.0639 17.0982C62.0639 17.1922 62.0597 17.2776 62.0511 17.3545C62.0511 17.4314 62.0468 17.4912 62.0383 17.534H56.9884C57.0567 18.1833 57.2832 18.6704 57.6677 18.9951C58.0608 19.3198 58.5051 19.4822 59.0006 19.4822C59.445 19.4822 59.8124 19.3839 60.1029 19.1874C60.3935 18.9823 60.6242 18.7302 60.795 18.4312L61.9357 18.9823C61.6537 19.495 61.2692 19.9136 60.7822 20.2384C60.2951 20.5545 59.6885 20.7126 58.9622 20.7126ZM58.8981 14.9449C58.4367 14.9449 58.0437 15.0859 57.7189 15.3679C57.3943 15.6499 57.1764 16.0259 57.0653 16.4958H60.6925C60.6754 16.2736 60.6028 16.0429 60.4746 15.8037C60.3464 15.5645 60.1499 15.3636 59.885 15.2013C59.6287 15.0304 59.2997 14.9449 58.8981 14.9449ZM56.9115 12.7148V12.6251L58.2829 11.0742H59.5005L60.8847 12.6251V12.7148H59.5518L58.9494 11.9201H58.8212L58.2316 12.7148H56.9115ZM63.3481 20.5075V13.9709H64.6555V14.868H64.7324C64.9202 14.5519 65.1939 14.2913 65.5527 14.0862C65.9116 13.8726 66.3089 13.7658 66.7447 13.7658C67.2318 13.7658 67.6464 13.8811 67.988 14.1118C68.3295 14.3425 68.5731 14.633 68.7185 14.9834C68.9319 14.6416 69.2229 14.3554 69.5901 14.1247C69.9573 13.8854 70.4059 13.7658 70.9359 13.7658C71.7049 13.7658 72.2772 14.0008 72.6533 14.4707C73.0295 14.9321 73.2173 15.5473 73.2173 16.3164V20.5075H71.8459V16.5471C71.8459 16.0259 71.7305 15.6456 71.4998 15.4064C71.2774 15.1585 70.966 15.0347 70.5642 15.0347C70.2482 15.0347 69.9701 15.1244 69.7311 15.3038C69.492 15.4747 69.3036 15.7097 69.1671 16.0088C69.0389 16.3078 68.9749 16.6411 68.9749 17.0085V20.5075H67.6034V16.5471C67.6034 16.0259 67.4881 15.6456 67.2574 15.4064C67.0267 15.1585 66.7018 15.0347 66.2833 15.0347C65.9757 15.0347 65.7065 15.1244 65.4758 15.3038C65.2451 15.4833 65.0612 15.7225 64.9247 16.0216C64.7965 16.3207 64.7324 16.6539 64.7324 17.0213V20.5075H63.3481ZM79.7539 20.5075L77.0496 13.9709H78.5876L80.4204 18.726H80.4845L82.3558 13.9709H83.8682L81.1382 20.5075H79.7539ZM86.6898 20.7126C86.2195 20.7126 85.801 20.6229 85.4331 20.4434C85.0659 20.2555 84.7801 19.9948 84.575 19.6616C84.37 19.3283 84.2674 18.9481 84.2674 18.5209C84.2674 18.0595 84.3866 17.6664 84.6263 17.3417C84.8737 17.0085 85.2031 16.7564 85.6132 16.5855C86.0234 16.4146 86.4758 16.3292 86.9718 16.3292C87.382 16.3292 87.7408 16.3676 88.0484 16.4445C88.3644 16.5214 88.6034 16.6026 88.7662 16.6881V16.342C88.7662 15.9147 88.6124 15.573 88.3048 15.3166C87.9972 15.0603 87.5998 14.9321 87.1128 14.9321C86.7796 14.9321 86.463 15.009 86.1643 15.1628C85.8651 15.3081 85.626 15.5089 85.4466 15.7652L84.4981 15.0347C84.7801 14.6416 85.1518 14.334 85.6132 14.1118C86.083 13.8811 86.5956 13.7658 87.1512 13.7658C88.0997 13.7658 88.8303 14.0008 89.343 14.4707C89.8556 14.9321 90.112 15.5815 90.112 16.4189V20.5075H88.7662V19.7H88.6893C88.5182 19.9649 88.2618 20.1999 87.9203 20.405C87.5781 20.61 87.1679 20.7126 86.6898 20.7126ZM86.9334 19.5847C87.2922 19.5847 87.6082 19.4993 87.8818 19.3283C88.1548 19.1574 88.3689 18.9353 88.5227 18.6619C88.6848 18.3799 88.7662 18.0766 88.7662 17.7519C88.5695 17.6408 88.3387 17.5511 88.0741 17.4827C87.8088 17.4058 87.5268 17.3674 87.2282 17.3674C86.6642 17.3674 86.2624 17.4827 86.0234 17.7134C85.7837 17.9356 85.6645 18.209 85.6645 18.5337C85.6645 18.8413 85.7798 19.0934 86.0105 19.2899C86.2412 19.4864 86.5489 19.5847 86.9334 19.5847ZM86.6386 12.7148L85.6132 11.0742H87.1897L87.7921 12.7148H86.6386ZM94.6492 20.7126C93.9737 20.7126 93.3803 20.5588 92.8676 20.2512C92.3549 19.9436 91.9531 19.5291 91.6628 19.0079C91.3719 18.4867 91.227 17.8971 91.227 17.2392C91.227 16.5898 91.3719 16.0045 91.6628 15.4833C91.9531 14.9535 92.3549 14.5348 92.8676 14.2272C93.3803 13.9196 93.9737 13.7658 94.6492 13.7658C95.3157 13.7658 95.9052 13.9196 96.4179 14.2272C96.9306 14.5348 97.3318 14.9535 97.6227 15.4833C97.913 16.0045 98.0585 16.5898 98.0585 17.2392C98.0585 17.8971 97.913 18.4867 97.6227 19.0079C97.3318 19.5291 96.9306 19.9436 96.4179 20.2512C95.9052 20.5588 95.3157 20.7126 94.6492 20.7126ZM94.6492 19.4437C95.0081 19.4437 95.3413 19.3583 95.6489 19.1874C95.9565 19.0079 96.2039 18.7559 96.3923 18.4312C96.5884 18.0979 96.6871 17.7006 96.6871 17.2392C96.6871 16.7778 96.5884 16.3847 96.3923 16.06C96.2039 15.7268 95.9565 15.4747 95.6489 15.3038C95.3413 15.1244 95.0081 15.0347 94.6492 15.0347C94.2903 15.0347 93.9526 15.1244 93.6366 15.3038C93.329 15.4747 93.0765 15.7268 92.8804 16.06C92.692 16.3847 92.5985 16.7778 92.5985 17.2392C92.5985 17.7006 92.692 18.0979 92.8804 18.4312C93.0765 18.7559 93.329 19.0079 93.6366 19.1874C93.9526 19.3583 94.2903 19.4437 94.6492 19.4437Z" fill="white"/>
<path d="M105.33 20.5075L102.074 11.3306H103.612L105.689 17.4314L106.009 18.4696H106.086L106.432 17.4314L108.598 11.3306H110.136L106.791 20.5075H105.33ZM110.978 20.5075V13.9709H112.362V20.5075H110.978ZM111.106 12.7148L111.709 11.0742H113.272L112.247 12.7148H111.106ZM121.396 20.7126C120.739 20.7126 120.119 20.5929 119.538 20.3537C118.966 20.1145 118.458 19.7812 118.013 19.354C117.569 18.9182 117.218 18.4098 116.962 17.8288C116.714 17.2392 116.59 16.6026 116.59 15.919C116.59 15.2354 116.714 14.6032 116.962 14.0221C117.218 13.4325 117.564 12.9242 118 12.4969C118.445 12.0611 118.957 11.7236 119.538 11.4844C120.119 11.2451 120.739 11.1255 121.396 11.1255C122.098 11.1255 122.742 11.2494 123.332 11.4972C123.93 11.745 124.43 12.0911 124.831 12.5354L123.857 13.4966C123.559 13.1634 123.2 12.907 122.781 12.7276C122.371 12.5482 121.909 12.4585 121.396 12.4585C120.79 12.4585 120.23 12.6037 119.717 12.8942C119.205 13.1762 118.791 13.5778 118.474 14.099C118.167 14.6117 118.013 15.2184 118.013 15.919C118.013 16.6197 118.171 17.2307 118.487 17.7519C118.804 18.2645 119.218 18.6662 119.73 18.9567C120.243 19.2386 120.803 19.3796 121.409 19.3796C121.965 19.3796 122.469 19.2771 122.922 19.072C123.375 18.8584 123.738 18.5593 124.011 18.1748C124.293 17.7903 124.464 17.3289 124.524 16.7906H121.384V15.5473H125.844C125.895 15.778 125.921 16.0216 125.921 16.2779V16.2907C125.921 17.1794 125.725 17.9569 125.331 18.6234C124.947 19.2814 124.413 19.7941 123.729 20.1615C123.046 20.5289 122.268 20.7126 121.396 20.7126ZM130.048 20.7126C129.373 20.7126 128.779 20.5588 128.266 20.2512C127.754 19.9436 127.352 19.5291 127.062 19.0079C126.771 18.4867 126.626 17.8971 126.626 17.2392C126.626 16.5898 126.771 16.0045 127.062 15.4833C127.352 14.9535 127.754 14.5348 128.266 14.2272C128.779 13.9196 129.373 13.7658 130.048 13.7658C130.714 13.7658 131.304 13.9196 131.817 14.2272C132.329 14.5348 132.731 14.9535 133.021 15.4833C133.312 16.0045 133.457 16.5898 133.457 17.2392C133.457 17.8971 133.312 18.4867 133.021 19.0079C132.731 19.5291 132.329 19.9436 131.817 20.2512C131.304 20.5588 130.714 20.7126 130.048 20.7126ZM130.048 19.4437C130.407 19.4437 130.74 19.3583 131.048 19.1874C131.355 19.0079 131.603 18.7559 131.791 18.4312C131.988 18.0979 132.086 17.7006 132.086 17.2392C132.086 16.7778 131.988 16.3847 131.791 16.06C131.603 15.7268 131.355 15.4747 131.048 15.3038C130.74 15.1244 130.407 15.0347 130.048 15.0347C129.689 15.0347 129.351 15.1244 129.035 15.3038C128.728 15.4747 128.476 15.7268 128.279 16.06C128.091 16.3847 127.997 16.7778 127.997 17.2392C127.997 17.7006 128.091 18.0979 128.279 18.4312C128.476 18.7559 128.728 19.0079 129.035 19.1874C129.351 19.3583 129.689 19.4437 130.048 19.4437ZM137.808 20.7126C137.133 20.7126 136.539 20.5588 136.026 20.2512C135.514 19.9436 135.113 19.5291 134.822 19.0079C134.531 18.4867 134.386 17.8971 134.386 17.2392C134.386 16.5898 134.531 16.0045 134.822 15.4833C135.113 14.9535 135.514 14.5348 136.026 14.2272C136.539 13.9196 137.133 13.7658 137.808 13.7658C138.474 13.7658 139.064 13.9196 139.577 14.2272C140.089 14.5348 140.491 14.9535 140.781 15.4833C141.072 16.0045 141.217 16.5898 141.217 17.2392C141.217 17.8971 141.072 18.4867 140.781 19.0079C140.491 19.5291 140.089 19.9436 139.577 20.2512C139.064 20.5588 138.474 20.7126 137.808 20.7126ZM137.808 19.4437C138.167 19.4437 138.5 19.3583 138.808 19.1874C139.115 19.0079 139.363 18.7559 139.551 18.4312C139.748 18.0979 139.846 17.7006 139.846 17.2392C139.846 16.7778 139.748 16.3847 139.551 16.06C139.363 15.7268 139.115 15.4747 138.808 15.3038C138.5 15.1244 138.167 15.0347 137.808 15.0347C137.449 15.0347 137.112 15.1244 136.795 15.3038C136.488 15.4747 136.236 15.7268 136.039 16.06C135.851 16.3847 135.757 16.7778 135.757 17.2392C135.757 17.7006 135.851 18.0979 136.039 18.4312C136.236 18.7559 136.488 19.0079 136.795 19.1874C137.112 19.3583 137.449 19.4437 137.808 19.4437ZM145.44 23.481C144.868 23.481 144.372 23.387 143.954 23.1991C143.544 23.0196 143.21 22.7846 142.954 22.4941C142.698 22.2122 142.514 21.9217 142.403 21.6226L143.685 21.0843C143.821 21.426 144.039 21.7038 144.338 21.9174C144.646 22.1396 145.013 22.2506 145.44 22.2506C146.038 22.2506 146.509 22.0712 146.85 21.7123C147.201 21.3534 147.376 20.845 147.376 20.1871V19.5591H147.299C147.094 19.8667 146.807 20.1145 146.44 20.3024C146.081 20.4819 145.671 20.5716 145.21 20.5716C144.654 20.5716 144.146 20.4306 143.685 20.1486C143.223 19.8667 142.851 19.4736 142.569 18.9695C142.287 18.4568 142.146 17.8587 142.146 17.1751C142.146 16.483 142.287 15.8849 142.569 15.3807C142.851 14.868 143.223 14.4707 143.685 14.1887C144.146 13.9068 144.654 13.7658 145.21 13.7658C145.671 13.7658 146.081 13.8598 146.44 14.0478C146.807 14.2357 147.094 14.4835 147.299 14.7911H147.376V13.9709H148.696V20.1615C148.696 20.8707 148.555 21.4731 148.273 21.9686C147.999 22.4642 147.619 22.8402 147.132 23.0965C146.645 23.3529 146.081 23.481 145.44 23.481ZM145.453 19.3155C145.795 19.3155 146.111 19.2343 146.402 19.072C146.692 18.9011 146.927 18.6576 147.107 18.3414C147.286 18.0167 147.376 17.628 147.376 17.1751C147.376 16.7052 147.286 16.3121 147.107 15.9959C146.927 15.6712 146.692 15.4277 146.402 15.2654C146.111 15.103 145.795 15.0218 145.453 15.0218C145.112 15.0218 144.791 15.1073 144.492 15.2782C144.202 15.4405 143.966 15.6798 143.787 15.9959C143.608 16.3121 143.518 16.7052 143.518 17.1751C143.518 17.6365 143.608 18.0295 143.787 18.3543C143.966 18.6704 144.202 18.9097 144.492 19.072C144.791 19.2343 145.112 19.3155 145.453 19.3155ZM150.328 20.5075V11.3306H151.712V20.5075H150.328ZM156.268 20.7126C155.627 20.7126 155.054 20.5631 154.551 20.264C154.046 19.9649 153.649 19.5548 153.359 19.0336C153.077 18.5124 152.936 17.9185 152.936 17.252C152.936 16.6283 153.072 16.0515 153.346 15.5217C153.619 14.9919 154 14.569 154.487 14.2528C154.982 13.9281 155.55 13.7658 156.191 13.7658C156.866 13.7658 157.438 13.9111 157.909 14.2016C158.387 14.4921 158.75 14.8894 158.998 15.3935C159.246 15.8977 159.37 16.4659 159.37 17.0982C159.37 17.1922 159.365 17.2776 159.357 17.3545C159.357 17.4314 159.353 17.4912 159.344 17.534H154.294C154.362 18.1833 154.589 18.6704 154.974 18.9951C155.367 19.3198 155.811 19.4822 156.307 19.4822C156.751 19.4822 157.118 19.3839 157.409 19.1874C157.699 18.9823 157.93 18.7302 158.101 18.4312L159.242 18.9823C158.96 19.495 158.575 19.9136 158.088 20.2384C157.601 20.5545 156.994 20.7126 156.268 20.7126ZM156.204 14.9449C155.743 14.9449 155.349 15.0859 155.025 15.3679C154.7 15.6499 154.482 16.0259 154.371 16.4958H157.999C157.981 16.2736 157.909 16.0429 157.781 15.8037C157.652 15.5645 157.456 15.3636 157.191 15.2013C156.935 15.0304 156.605 14.9449 156.204 14.9449Z" fill="white"/>
<path d="M157.649 0.320312H16.0211C7.3498 0.320312 0.320312 7.3498 0.320312 16.0211C0.320312 24.6924 7.3498 31.7219 16.0211 31.7219H157.649C166.32 31.7219 173.349 24.6924 173.349 16.0211C173.349 7.3498 166.32 0.320312 157.649 0.320312Z" stroke="#747775"/>
</g>
<defs>
<linearGradient id="paint0_linear_568_1043" x1="22.1535" y1="19.7292" x2="12.0029" y2="31.3458" gradientUnits="userSpaceOnUse">
<stop stop-color="#4285F4"/>
<stop offset="1" stop-color="#1B74E8"/>
</linearGradient>
<clipPath id="clip0_568_1043">
<rect width="173.67" height="32.0424" fill="white"/>
</clipPath>
</defs>
</svg>
