<svg width="174" height="48" viewBox="0 0 174 48" fill="none" xmlns="http://www.w3.org/2000/svg">
<g clip-path="url(#clip0_568_276)">
<path d="M149.79 0.43457H23.879C10.9305 0.43457 0.433594 10.9315 0.433594 23.88C0.433594 36.8286 10.9305 47.3255 23.879 47.3255H149.79C162.738 47.3255 173.235 36.8286 173.235 23.88C173.235 10.9315 162.738 0.43457 149.79 0.43457Z" fill="#1F1F1F"/>
<path d="M49.495 20.6589H18.2344V15.7568C18.2344 13.0955 20.5287 10.8545 23.2533 10.8545H44.4761C47.2006 10.8545 49.495 13.0955 49.495 15.7568V20.6589Z" fill="#34A853"/>
<path d="M49.495 25.1819H18.2344V19.9718C18.2344 17.1435 20.5287 14.7617 23.2533 14.7617H44.4761C47.2006 14.7617 49.495 17.1435 49.495 19.9718V25.1819Z" fill="#FBBC04"/>
<path d="M49.495 29.5237H18.2344V24.3136C18.2344 21.4853 20.5287 19.1035 23.2533 19.1035H44.4761C47.2006 19.1035 49.495 21.4853 49.495 24.3136V29.5237Z" fill="#EA4335"/>
<path d="M18.2344 21.9178L38.0756 26.3999C40.3595 26.9602 42.9289 26.3999 44.7844 24.9993L49.495 21.6377V32.1425C49.495 34.8037 47.2111 36.9047 44.499 36.9047H23.2303C20.5182 36.9047 18.2344 34.8037 18.2344 32.1425V21.9178Z" fill="url(#paint0_linear_568_276)"/>
<path d="M60.832 18.6694V10.5868H62.0738V17.4953H65.5506V18.6694H60.832ZM67.3148 12.0656C67.089 12.0656 66.8933 11.9865 66.7278 11.8285C66.5697 11.6629 66.4907 11.4673 66.4907 11.2415C66.4907 11.0157 66.5697 10.8238 66.7278 10.6658C66.8933 10.5077 67.089 10.4287 67.3148 10.4287C67.5406 10.4287 67.7325 10.5077 67.8905 10.6658C68.056 10.8238 68.1388 11.0157 68.1388 11.2415C68.1388 11.4673 68.056 11.6629 67.8905 11.8285C67.7325 11.9865 67.5406 12.0656 67.3148 12.0656ZM66.7052 18.6694V12.9122H67.9244V18.6694H66.7052ZM71.5367 18.85C70.8443 18.85 70.2911 18.6995 69.8773 18.3984C69.4633 18.0899 69.1774 17.7248 69.0194 17.3034L70.1143 16.8293C70.2498 17.1378 70.4454 17.3749 70.7013 17.5405C70.9572 17.6985 71.2469 17.7776 71.5706 17.7776C71.8715 17.7776 72.1312 17.7248 72.3495 17.6195C72.5677 17.5066 72.6768 17.326 72.6768 17.0777C72.6768 16.8369 72.5677 16.66 72.3495 16.5471C72.1312 16.4342 71.8602 16.3364 71.5367 16.2536L70.8481 16.0956C70.5696 16.0278 70.31 15.9225 70.0692 15.7795C69.8283 15.6365 69.6327 15.4521 69.4822 15.2263C69.3316 14.993 69.2564 14.7221 69.2564 14.4136C69.2564 14.0749 69.358 13.7814 69.5612 13.5331C69.7644 13.2772 70.0315 13.0815 70.3627 12.9461C70.7014 12.803 71.0663 12.7316 71.4577 12.7316C71.992 12.7316 72.4585 12.8369 72.8575 13.0477C73.2639 13.2508 73.5611 13.5594 73.7493 13.9733L72.6994 14.4474C72.564 14.1915 72.3871 14.0147 72.1689 13.9169C71.9581 13.8115 71.7248 13.7588 71.469 13.7588C71.1829 13.7588 70.9421 13.819 70.7465 13.9394C70.5583 14.0599 70.4643 14.2104 70.4643 14.391C70.4643 14.5866 70.547 14.7409 70.7126 14.8538C70.8857 14.9667 71.0964 15.057 71.3448 15.1247L72.1801 15.3279C72.752 15.471 73.181 15.6892 73.467 15.9827C73.753 16.2686 73.896 16.6186 73.896 17.0325C73.896 17.4013 73.7906 17.7248 73.5799 18.0033C73.3692 18.2743 73.0832 18.485 72.722 18.6355C72.3682 18.7785 71.9731 18.85 71.5367 18.85ZM76.8213 18.85C76.4074 18.85 76.0386 18.7709 75.715 18.6129C75.3914 18.4473 75.1393 18.2178 74.9587 17.9243C74.7781 17.6308 74.6878 17.2959 74.6878 16.9196C74.6878 16.5132 74.7931 16.167 75.0038 15.8811C75.2221 15.5876 75.5118 15.3655 75.8731 15.2151C76.2343 15.0646 76.6331 14.9893 77.0697 14.9893C77.4309 14.9893 77.747 15.0232 78.0179 15.0909C78.2963 15.1586 78.507 15.2301 78.6501 15.3054V15.0006C78.6501 14.6243 78.5146 14.3233 78.2437 14.0975C77.9727 13.8717 77.6228 13.7588 77.1938 13.7588C76.9003 13.7588 76.6218 13.8266 76.3585 13.962C76.095 14.0899 75.8844 14.2668 75.7263 14.4926L74.891 13.8491C75.1393 13.5029 75.4667 13.232 75.8731 13.0364C76.2869 12.8332 76.7385 12.7316 77.2277 12.7316C78.063 12.7316 78.7065 12.9385 79.158 13.3524C79.6096 13.7588 79.8353 14.3308 79.8353 15.0683V18.6694H78.6501V17.9582H78.5823C78.4317 18.1915 78.206 18.3984 77.905 18.579C77.6039 18.7597 77.2427 18.85 76.8213 18.85ZM77.0358 17.8566C77.3519 17.8566 77.6303 17.7813 77.8711 17.6308C78.1119 17.4803 78.3001 17.2846 78.4356 17.0438C78.5785 16.7955 78.6501 16.5283 78.6501 16.2423C78.4769 16.1445 78.2737 16.0654 78.0405 16.0053C77.8071 15.9375 77.5588 15.9037 77.2954 15.9037C76.7987 15.9037 76.445 16.0053 76.2343 16.2084C76.0235 16.4041 75.9182 16.645 75.9182 16.9309C75.9182 17.2018 76.0198 17.4239 76.223 17.5969C76.4262 17.77 76.6971 17.8566 77.0358 17.8566ZM81.1776 18.6694V12.9122H82.329V13.7024H82.3967C82.5622 13.4239 82.8031 13.1944 83.1192 13.0138C83.4353 12.8256 83.7852 12.7316 84.169 12.7316C84.598 12.7316 84.963 12.8332 85.264 13.0364C85.565 13.2396 85.7795 13.4955 85.9075 13.804C86.0955 13.5029 86.3514 13.2508 86.6751 13.0477C86.9989 12.8369 87.394 12.7316 87.8603 12.7316C88.5376 12.7316 89.0421 12.9385 89.373 13.3524C89.7038 13.7588 89.8696 14.3007 89.8696 14.978V18.6694H88.6618V15.1812C88.6618 14.7221 88.5602 14.3873 88.357 14.1765C88.1616 13.9583 87.8863 13.8491 87.5329 13.8491C87.2542 13.8491 87.0102 13.9282 86.7993 14.0862C86.5885 14.2367 86.4229 14.4437 86.3026 14.7071C86.1897 14.9704 86.1332 15.2639 86.1332 15.5876V18.6694H84.9254V15.1812C84.9254 14.7221 84.8238 14.3873 84.6206 14.1765C84.4174 13.9583 84.1313 13.8491 83.7626 13.8491C83.4917 13.8491 83.2546 13.9282 83.0515 14.0862C82.8483 14.2442 82.6864 14.455 82.566 14.7184C82.4532 14.9817 82.3967 15.2752 82.3967 15.5989V18.6694H81.1776ZM91.9424 12.0656C91.7166 12.0656 91.5213 11.9865 91.3554 11.8285C91.1974 11.6629 91.1183 11.4673 91.1183 11.2415C91.1183 11.0157 91.1974 10.8238 91.3554 10.6658C91.5213 10.5077 91.7166 10.4287 91.9424 10.4287C92.1682 10.4287 92.3601 10.5077 92.5181 10.6658C92.684 10.8238 92.7665 11.0157 92.7665 11.2415C92.7665 11.4673 92.684 11.6629 92.5181 11.8285C92.3601 11.9865 92.1682 12.0656 91.9424 12.0656ZM91.3328 18.6694V12.9122H92.552V18.6694H91.3328ZM94.0646 18.6694V12.9122H95.2161V13.7024H95.2838C95.4497 13.4239 95.6937 13.1944 96.0176 13.0138C96.3484 12.8256 96.7096 12.7316 97.1013 12.7316C97.809 12.7316 98.3395 12.9423 98.693 13.3637C99.0464 13.7851 99.2235 14.3421 99.2235 15.0344V18.6694H98.0156V15.1925C98.0156 14.7259 97.8993 14.3873 97.6657 14.1765C97.4321 13.9583 97.1273 13.8491 96.7513 13.8491C96.4578 13.8491 96.2017 13.9319 95.9837 14.0975C95.7657 14.2555 95.5921 14.4663 95.4644 14.7296C95.3437 14.993 95.2838 15.2752 95.2838 15.5763V18.6694H94.0646ZM103.243 18.85C102.679 18.85 102.174 18.7182 101.73 18.4549C101.287 18.1915 100.937 17.8303 100.681 17.3712C100.432 16.9121 100.308 16.3891 100.308 15.8021C100.308 15.2527 100.429 14.7447 100.669 14.2781C100.91 13.8115 101.245 13.439 101.674 13.1605C102.111 12.8746 102.611 12.7316 103.175 12.7316C103.77 12.7316 104.274 12.8595 104.688 13.1154C105.109 13.3713 105.43 13.7212 105.648 14.1652C105.866 14.6092 105.975 15.1097 105.975 15.6666C105.975 15.7494 105.971 15.8246 105.964 15.8924C105.964 15.9601 105.96 16.0128 105.952 16.0504H101.505C101.565 16.6224 101.764 17.0514 102.103 17.3373C102.449 17.6233 102.84 17.7663 103.277 17.7663C103.669 17.7663 103.992 17.6797 104.248 17.5066C104.504 17.326 104.707 17.104 104.857 16.8406L105.862 17.326C105.614 17.7776 105.275 18.1463 104.846 18.4323C104.417 18.7108 103.883 18.85 103.243 18.85ZM103.187 13.7701C102.78 13.7701 102.434 13.8943 102.148 14.1426C101.862 14.391 101.671 14.7221 101.572 15.136H104.767C104.752 14.9404 104.688 14.7372 104.575 14.5265C104.462 14.3157 104.289 14.1389 104.056 13.9959C103.83 13.8454 103.54 13.7701 103.187 13.7701ZM111.547 18.85C111.133 18.85 110.764 18.7709 110.441 18.6129C110.117 18.4473 109.865 18.2178 109.685 17.9243C109.504 17.6308 109.414 17.2959 109.414 16.9196C109.414 16.5132 109.519 16.167 109.73 15.8811C109.948 15.5876 110.238 15.3655 110.599 15.2151C110.96 15.0646 111.359 14.9893 111.795 14.9893C112.157 14.9893 112.473 15.0232 112.744 15.0909C113.022 15.1586 113.233 15.2301 113.376 15.3054V15.0006C113.376 14.6243 113.24 14.3233 112.969 14.0975C112.699 13.8717 112.349 13.7588 111.92 13.7588C111.626 13.7588 111.347 13.8266 111.084 13.962C110.82 14.0899 110.61 14.2668 110.452 14.4926L109.617 13.8491C109.865 13.5029 110.193 13.232 110.599 13.0364C111.012 12.8332 111.464 12.7316 111.954 12.7316C112.789 12.7316 113.432 12.9385 113.884 13.3524C114.335 13.7588 114.561 14.3308 114.561 15.0683V18.6694H113.376V17.9582H113.308C113.157 18.1915 112.931 18.3984 112.631 18.579C112.33 18.7597 111.968 18.85 111.547 18.85ZM111.762 17.8566C112.078 17.8566 112.356 17.7813 112.597 17.6308C112.838 17.4803 113.026 17.2846 113.161 17.0438C113.304 16.7955 113.376 16.5283 113.376 16.2423C113.202 16.1445 112.999 16.0654 112.766 16.0053C112.533 15.9375 112.284 15.9037 112.021 15.9037C111.525 15.9037 111.17 16.0053 110.96 16.2084C110.749 16.4041 110.644 16.645 110.644 16.9309C110.644 17.2018 110.746 17.4239 110.949 17.5969C111.152 17.77 111.423 17.8566 111.762 17.8566ZM117.948 18.85C117.255 18.85 116.702 18.6995 116.288 18.3984C115.874 18.0899 115.588 17.7248 115.43 17.3034L116.525 16.8293C116.661 17.1378 116.856 17.3749 117.112 17.5405C117.368 17.6985 117.658 17.7776 117.982 17.7776C118.282 17.7776 118.542 17.7248 118.761 17.6195C118.978 17.5066 119.088 17.326 119.088 17.0777C119.088 16.8369 118.978 16.66 118.761 16.5471C118.542 16.4342 118.271 16.3364 117.948 16.2536L117.259 16.0956C116.98 16.0278 116.721 15.9225 116.48 15.7795C116.239 15.6365 116.043 15.4521 115.893 15.2263C115.742 14.993 115.667 14.7221 115.667 14.4136C115.667 14.0749 115.769 13.7814 115.972 13.5331C116.175 13.2772 116.442 13.0815 116.774 12.9461C117.112 12.803 117.477 12.7316 117.869 12.7316C118.403 12.7316 118.869 12.8369 119.269 13.0477C119.675 13.2508 119.972 13.5594 120.16 13.9733L119.11 14.4474C118.975 14.1915 118.798 14.0147 118.58 13.9169C118.369 13.8115 118.135 13.7588 117.88 13.7588C117.593 13.7588 117.353 13.819 117.158 13.9394C116.969 14.0599 116.875 14.2104 116.875 14.391C116.875 14.5866 116.958 14.7409 117.124 14.8538C117.296 14.9667 117.507 15.057 117.756 15.1247L118.591 15.3279C119.163 15.471 119.592 15.6892 119.878 15.9827C120.164 16.2686 120.307 16.6186 120.307 17.0325C120.307 17.4013 120.201 17.7248 119.991 18.0033C119.78 18.2743 119.494 18.485 119.133 18.6355C118.779 18.7785 118.384 18.85 117.948 18.85ZM123.459 18.85C122.752 18.85 122.217 18.6392 121.856 18.2178C121.503 17.7888 121.326 17.2094 121.326 16.4794V12.9122H122.545V16.31C122.545 16.7992 122.658 17.1604 122.883 17.3937C123.117 17.6195 123.407 17.7324 123.753 17.7324C124.062 17.7324 124.328 17.6534 124.554 17.4953C124.788 17.3297 124.965 17.1191 125.085 16.8632C125.213 16.5998 125.277 16.3138 125.277 16.0053V12.9122H126.484V18.6694H125.344V17.8904H125.277C125.112 18.1614 124.863 18.3909 124.532 18.579C124.209 18.7597 123.851 18.85 123.459 18.85ZM127.919 18.6694V10.5868H129.138V15.3505L131.576 12.9122H133.089V12.9799L130.865 15.1812L133.168 18.6016V18.6694H131.723L130.007 16.0278L129.138 16.8858V18.6694H127.919ZM136.471 18.85C135.877 18.85 135.354 18.7145 134.902 18.4436C134.451 18.1727 134.096 17.8077 133.841 17.3486C133.585 16.8895 133.457 16.3702 133.457 15.7908C133.457 15.2188 133.585 14.7033 133.841 14.2442C134.096 13.7777 134.451 13.4089 134.902 13.138C135.354 12.867 135.877 12.7316 136.471 12.7316C137.058 12.7316 137.578 12.867 138.029 13.138C138.481 13.4089 138.834 13.7777 139.09 14.2442C139.346 14.7033 139.474 15.2188 139.474 15.7908C139.474 16.3702 139.346 16.8895 139.09 17.3486C138.834 17.8077 138.481 18.1727 138.029 18.4436C137.578 18.7145 137.058 18.85 136.471 18.85ZM136.471 17.7324C136.787 17.7324 137.081 17.6571 137.352 17.5066C137.623 17.3486 137.841 17.1266 138.007 16.8406C138.179 16.5471 138.266 16.1972 138.266 15.7908C138.266 15.3844 138.179 15.0382 138.007 14.7522C137.841 14.4587 137.623 14.2367 137.352 14.0862C137.081 13.9282 136.787 13.8491 136.471 13.8491C136.155 13.8491 135.857 13.9282 135.58 14.0862C135.309 14.2367 135.086 14.4587 134.914 14.7522C134.748 15.0382 134.665 15.3844 134.665 15.7908C134.665 16.1972 134.748 16.5471 134.914 16.8406C135.086 17.1266 135.309 17.3486 135.58 17.5066C135.857 17.6571 136.155 17.7324 136.471 17.7324ZM140.541 18.6694V10.5868H141.761V12.7993L141.693 13.7024H141.761C141.919 13.4239 142.16 13.1944 142.483 13.0138C142.815 12.8256 143.179 12.7316 143.578 12.7316C144.293 12.7316 144.831 12.9461 145.192 13.375C145.553 13.7964 145.734 14.3496 145.734 15.0344V18.6694H144.526V15.1925C144.526 14.7259 144.402 14.3873 144.154 14.1765C143.913 13.9583 143.616 13.8491 143.262 13.8491C142.968 13.8491 142.709 13.9319 142.483 14.0975C142.257 14.2631 142.081 14.4813 141.952 14.7522C141.825 15.0156 141.761 15.2978 141.761 15.5989V18.6694H140.541ZM147.446 16.9986V13.9733H146.441V12.9122H147.446V11.2866H148.665V12.9122H150.076V13.9733H148.665V16.739C148.665 17.025 148.721 17.2433 148.834 17.3937C148.955 17.5442 149.155 17.6195 149.432 17.6195C149.576 17.6195 149.696 17.6007 149.794 17.5631C149.9 17.5255 150.005 17.4728 150.11 17.405V18.5903C149.982 18.643 149.847 18.6844 149.703 18.7145C149.561 18.7446 149.392 18.7597 149.195 18.7597C148.661 18.7597 148.236 18.6054 147.92 18.2968C147.604 17.9807 147.446 17.5481 147.446 16.9986ZM152.942 18.85C152.528 18.85 152.159 18.7709 151.836 18.6129C151.512 18.4473 151.26 18.2178 151.08 17.9243C150.899 17.6308 150.809 17.2959 150.809 16.9196C150.809 16.5132 150.914 16.167 151.125 15.8811C151.343 15.5876 151.633 15.3655 151.994 15.2151C152.355 15.0646 152.754 14.9893 153.191 14.9893C153.552 14.9893 153.868 15.0232 154.139 15.0909C154.417 15.1586 154.628 15.2301 154.771 15.3054V15.0006C154.771 14.6243 154.636 14.3233 154.365 14.0975C154.094 13.8717 153.744 13.7588 153.315 13.7588C153.021 13.7588 152.743 13.8266 152.479 13.962C152.215 14.0899 152.005 14.2668 151.847 14.4926L151.012 13.8491C151.26 13.5029 151.588 13.232 151.994 13.0364C152.407 12.8332 152.859 12.7316 153.349 12.7316C154.184 12.7316 154.827 12.9385 155.279 13.3524C155.731 13.7588 155.956 14.3308 155.956 15.0683V18.6694H154.771V17.9582H154.703C154.552 18.1915 154.326 18.3984 154.026 18.579C153.725 18.7597 153.363 18.85 152.942 18.85ZM153.157 17.8566C153.473 17.8566 153.751 17.7813 153.992 17.6308C154.233 17.4803 154.421 17.2846 154.557 17.0438C154.699 16.7955 154.771 16.5283 154.771 16.2423C154.597 16.1445 154.394 16.0654 154.161 16.0053C153.928 15.9375 153.679 15.9037 153.416 15.9037C152.92 15.9037 152.565 16.0053 152.355 16.2084C152.144 16.4041 152.039 16.645 152.039 16.9309C152.039 17.2018 152.141 17.4239 152.344 17.5969C152.547 17.77 152.818 17.8566 153.157 17.8566Z" fill="white"/>
<path d="M66.1178 36.2724C65.36 36.2724 64.6465 36.1346 63.9773 35.8591C63.3179 35.5835 62.7323 35.1997 62.2206 34.7076C61.7089 34.2057 61.3054 33.6202 61.0101 32.951C60.7247 32.2719 60.582 31.5388 60.582 30.7514C60.582 29.9641 60.7247 29.2359 61.0101 28.5667C61.3054 27.8876 61.7039 27.3021 62.2058 26.81C62.7176 26.3081 63.308 25.9193 63.9773 25.6438C64.6465 25.3683 65.36 25.2305 66.1178 25.2305C66.9247 25.2305 67.6678 25.3731 68.3468 25.6586C69.0357 25.944 69.6114 26.3426 70.074 26.8543L68.9521 27.9614C68.6076 27.5776 68.1942 27.2824 67.7121 27.0757C67.2397 26.869 66.7082 26.7657 66.1178 26.7657C65.419 26.7657 64.7744 26.933 64.1839 27.2676C63.5935 27.5924 63.1161 28.055 62.752 28.6552C62.3978 29.2457 62.2206 29.9445 62.2206 30.7514C62.2206 31.5584 62.4027 32.2621 62.7668 32.8624C63.1309 33.4529 63.6082 33.9154 64.1987 34.25C64.7892 34.5748 65.4338 34.7372 66.1325 34.7372C66.7722 34.7372 67.3528 34.6191 67.8744 34.3829C68.3961 34.1369 68.8143 33.7924 69.1292 33.3495C69.454 32.9067 69.6508 32.3753 69.7197 31.7553H66.103V30.3233H71.2402C71.2992 30.5891 71.3287 30.8695 71.3287 31.1648V31.1795C71.3287 32.2031 71.1024 33.0986 70.6497 33.8662C70.2068 34.624 69.5918 35.2145 68.8044 35.6376C68.0171 36.0608 67.1216 36.2724 66.1178 36.2724ZM76.082 36.2724C75.3045 36.2724 74.6206 36.0953 74.0301 35.741C73.4396 35.3867 72.977 34.9094 72.6425 34.3091C72.3078 33.7088 72.1405 33.0297 72.1405 32.2719C72.1405 31.524 72.3078 30.8498 72.6425 30.2495C72.977 29.6393 73.4396 29.1571 74.0301 28.8029C74.6206 28.4486 75.3045 28.2714 76.082 28.2714C76.8496 28.2714 77.5287 28.4486 78.1191 28.8029C78.7096 29.1571 79.1721 29.6393 79.5068 30.2495C79.8413 30.8498 80.0087 31.524 80.0087 32.2719C80.0087 33.0297 79.8413 33.7088 79.5068 34.3091C79.1721 34.9094 78.7096 35.3867 78.1191 35.741C77.5287 36.0953 76.8496 36.2724 76.082 36.2724ZM76.082 34.811C76.4953 34.811 76.8791 34.7126 77.2334 34.5157C77.5877 34.3091 77.8731 34.0188 78.0896 33.6448C78.3159 33.261 78.4291 32.8034 78.4291 32.2719C78.4291 31.7405 78.3159 31.2878 78.0896 30.9138C77.8731 30.53 77.5877 30.2397 77.2334 30.0429C76.8791 29.8362 76.4953 29.7329 76.082 29.7329C75.6687 29.7329 75.2799 29.8362 74.9158 30.0429C74.5615 30.2397 74.2711 30.53 74.0448 30.9138C73.8283 31.2878 73.7201 31.7405 73.7201 32.2719C73.7201 32.8034 73.8283 33.261 74.0448 33.6448C74.2711 34.0188 74.5615 34.3091 74.9158 34.5157C75.2799 34.7126 75.6687 34.811 76.082 34.811ZM85.0198 36.2724C84.2424 36.2724 83.5584 36.0953 82.9679 35.741C82.3774 35.3867 81.915 34.9094 81.5803 34.3091C81.2457 33.7088 81.0784 33.0297 81.0784 32.2719C81.0784 31.524 81.2457 30.8498 81.5803 30.2495C81.915 29.6393 82.3774 29.1571 82.9679 28.8029C83.5584 28.4486 84.2424 28.2714 85.0198 28.2714C85.7875 28.2714 86.4665 28.4486 87.0572 28.8029C87.6476 29.1571 88.1105 29.6393 88.4448 30.2495C88.7791 30.8498 88.9467 31.524 88.9467 32.2719C88.9467 33.0297 88.7791 33.7088 88.4448 34.3091C88.1105 34.9094 87.6476 35.3867 87.0572 35.741C86.4665 36.0953 85.7875 36.2724 85.0198 36.2724ZM85.0198 34.811C85.4332 34.811 85.817 34.7126 86.1713 34.5157C86.5256 34.3091 86.811 34.0188 87.0276 33.6448C87.2543 33.261 87.3672 32.8034 87.3672 32.2719C87.3672 31.7405 87.2543 31.2878 87.0276 30.9138C86.811 30.53 86.5256 30.2397 86.1713 30.0429C85.817 29.8362 85.4332 29.7329 85.0198 29.7329C84.6065 29.7329 84.2178 29.8362 83.8536 30.0429C83.4993 30.2397 83.2091 30.53 82.9827 30.9138C82.7662 31.2878 82.6579 31.7405 82.6579 32.2719C82.6579 32.8034 82.7662 33.261 82.9827 33.6448C83.2091 34.0188 83.4993 34.3091 83.8536 34.5157C84.2178 34.7126 84.6065 34.811 85.0198 34.811ZM93.8103 39.461C93.1504 39.461 92.5799 39.3527 92.0979 39.1362C91.6255 38.9296 91.2417 38.6589 90.9465 38.3243C90.6513 37.9996 90.4394 37.665 90.3117 37.3205L91.7879 36.7005C91.9451 37.0941 92.196 37.414 92.5408 37.66C92.8951 37.9159 93.318 38.0438 93.8103 38.0438C94.4989 38.0438 95.0399 37.8372 95.4341 37.4238C95.837 37.0105 96.0394 36.425 96.0394 35.6672V34.9438H95.9508C95.7146 35.2981 95.3846 35.5835 94.9617 35.8C94.5484 36.0067 94.076 36.11 93.5446 36.11C92.9046 36.11 92.3194 35.9476 91.7879 35.6229C91.2565 35.2981 90.8284 34.8454 90.5036 34.2648C90.1789 33.6743 90.0165 32.9854 90.0165 32.1981C90.0165 31.401 90.1789 30.7121 90.5036 30.1314C90.8284 29.541 91.2565 29.0833 91.7879 28.7586C92.3194 28.4338 92.9046 28.2714 93.5446 28.2714C94.076 28.2714 94.5484 28.3797 94.9617 28.5962C95.3846 28.8127 95.7146 29.0981 95.9508 29.4524H96.0394V28.5076H97.5598V35.6376C97.5598 36.4545 97.3975 37.1483 97.0727 37.7191C96.7575 38.2898 96.3198 38.7229 95.7589 39.0181C95.1979 39.3134 94.5484 39.461 93.8103 39.461ZM93.8251 34.6634C94.2184 34.6634 94.5823 34.5698 94.9175 34.3829C95.2518 34.186 95.5227 33.9055 95.7294 33.5414C95.936 33.1674 96.0394 32.7197 96.0394 32.1981C96.0394 31.6569 95.936 31.2041 95.7294 30.84C95.5227 30.466 95.2518 30.1855 94.9175 29.9986C94.5823 29.8116 94.2184 29.7181 93.8251 29.7181C93.4308 29.7181 93.0618 29.8165 92.7179 30.0133C92.3827 30.2003 92.1127 30.4759 91.906 30.84C91.6994 31.2041 91.596 31.6569 91.596 32.1981C91.596 32.7295 91.6994 33.1822 91.906 33.5562C92.1127 33.9203 92.3827 34.1959 92.7179 34.3829C93.0618 34.5698 93.4308 34.6634 93.8251 34.6634ZM99.4398 36.0362V25.4667H101.034V36.0362H99.4398ZM106.281 36.2724C105.543 36.2724 104.884 36.1002 104.303 35.7557C103.723 35.4113 103.265 34.9389 102.93 34.3386C102.605 33.7383 102.443 33.0543 102.443 32.2867C102.443 31.5683 102.601 30.904 102.915 30.2938C103.23 29.6836 103.668 29.1965 104.229 28.8324C104.8 28.4584 105.454 28.2714 106.192 28.2714C106.97 28.2714 107.629 28.4388 108.17 28.7733C108.722 29.1079 109.14 29.5655 109.425 30.1462C109.711 30.7269 109.853 31.3813 109.853 32.1095C109.853 32.2178 109.849 32.3162 109.838 32.4048C109.838 32.4933 109.834 32.5622 109.824 32.6114H104.007C104.086 33.3594 104.347 33.9203 104.79 34.2943C105.243 34.6683 105.754 34.8553 106.325 34.8553C106.837 34.8553 107.26 34.7421 107.594 34.5157C107.93 34.2795 108.195 33.9893 108.392 33.6448L109.705 34.2795C109.381 34.87 108.938 35.3522 108.377 35.7262C107.816 36.0903 107.118 36.2724 106.281 36.2724ZM106.207 29.6295C105.675 29.6295 105.223 29.7919 104.849 30.1167C104.475 30.4414 104.224 30.8745 104.096 31.4157H108.274C108.254 31.1598 108.17 30.8941 108.023 30.6186C107.875 30.3431 107.649 30.1117 107.344 29.9248C107.048 29.7279 106.67 29.6295 106.207 29.6295ZM116.342 36.0362L113.508 25.4667H115.309L116.992 32.331L117.169 33.2462H117.258L117.479 32.331L119.605 25.4667H121.228L123.266 32.331L123.487 33.2314H123.576L123.753 32.331L125.436 25.4667H127.222L124.432 36.0362H122.719L120.697 29.0243L120.461 28.0352H120.372L120.121 29.0243L118.01 36.0362H116.342ZM130.186 36.2724C129.645 36.2724 129.163 36.1691 128.74 35.9624C128.317 35.7459 127.987 35.4457 127.751 35.0619C127.514 34.6781 127.396 34.2402 127.396 33.7481C127.396 33.2167 127.534 32.764 127.81 32.39C128.095 32.0062 128.474 31.7159 128.946 31.5191C129.419 31.3222 129.941 31.2238 130.511 31.2238C130.984 31.2238 131.397 31.2681 131.751 31.3567C132.115 31.4453 132.391 31.5388 132.578 31.6372V31.2386C132.578 30.7465 132.401 30.3529 132.046 30.0576C131.692 29.7624 131.234 29.6148 130.674 29.6148C130.29 29.6148 129.926 29.7033 129.581 29.8805C129.236 30.0478 128.961 30.2791 128.754 30.5743L127.662 29.7329C127.987 29.2802 128.415 28.9259 128.946 28.67C129.487 28.4043 130.078 28.2714 130.718 28.2714C131.81 28.2714 132.652 28.5421 133.242 29.0833C133.833 29.6148 134.128 30.3627 134.128 31.3272V36.0362H132.578V35.1062H132.489C132.292 35.4113 131.997 35.6819 131.604 35.9181C131.21 36.1543 130.738 36.2724 130.186 36.2724ZM130.467 34.9734C130.88 34.9734 131.244 34.875 131.559 34.6781C131.874 34.4813 132.12 34.2254 132.297 33.9105C132.484 33.5857 132.578 33.2364 132.578 32.8624C132.351 32.7345 132.085 32.6312 131.781 32.5524C131.476 32.4638 131.151 32.4195 130.806 32.4195C130.157 32.4195 129.694 32.5524 129.419 32.8181C129.143 33.074 129.005 33.3889 129.005 33.7629C129.005 34.1172 129.138 34.4075 129.404 34.6338C129.67 34.8602 130.024 34.9734 130.467 34.9734ZM135.897 36.0362V25.4667H137.492V36.0362H135.897ZM139.387 36.0362V25.4667H140.981V36.0362H139.387ZM146.227 36.2724C145.489 36.2724 144.83 36.1002 144.249 35.7557C143.669 35.4113 143.212 34.9389 142.876 34.3386C142.552 33.7383 142.389 33.0543 142.389 32.2867C142.389 31.5683 142.547 30.904 142.862 30.2938C143.177 29.6836 143.615 29.1965 144.175 28.8324C144.747 28.4584 145.401 28.2714 146.139 28.2714C146.917 28.2714 147.576 28.4388 148.117 28.7733C148.668 29.1079 149.087 29.5655 149.372 30.1462C149.657 30.7269 149.8 31.3813 149.8 32.1095C149.8 32.2178 149.795 32.3162 149.785 32.4048C149.785 32.4933 149.781 32.5622 149.77 32.6114H143.954C144.033 33.3594 144.294 33.9203 144.736 34.2943C145.19 34.6683 145.701 34.8553 146.272 34.8553C146.784 34.8553 147.207 34.7421 147.541 34.5157C147.876 34.2795 148.142 33.9893 148.338 33.6448L149.652 34.2795C149.327 34.87 148.885 35.3522 148.324 35.7262C147.763 36.0903 147.064 36.2724 146.227 36.2724ZM146.154 29.6295C145.622 29.6295 145.17 29.7919 144.795 30.1167C144.422 30.4414 144.171 30.8745 144.043 31.4157H148.22C148.201 31.1598 148.117 30.8941 147.969 30.6186C147.822 30.3431 147.596 30.1117 147.29 29.9248C146.995 29.7279 146.616 29.6295 146.154 29.6295ZM151.86 33.8514V29.8952H150.547V28.5076H151.86V26.3819H153.455V28.5076H155.3V29.8952H153.455V33.5119C153.455 33.8859 153.528 34.1713 153.676 34.3681C153.833 34.565 154.094 34.6634 154.458 34.6634C154.645 34.6634 154.802 34.6388 154.931 34.5895C155.068 34.5403 155.206 34.4715 155.344 34.3829V35.9329C155.177 36.0017 154.999 36.0559 154.813 36.0953C154.625 36.1346 154.404 36.1543 154.148 36.1543C153.449 36.1543 152.894 35.9526 152.48 35.5491C152.067 35.1357 151.86 34.5698 151.86 33.8514Z" fill="white"/>
<path d="M149.79 0.43457H23.879C10.9305 0.43457 0.433594 10.9315 0.433594 23.88C0.433594 36.8286 10.9305 47.3255 23.879 47.3255H149.79C162.738 47.3255 173.235 36.8286 173.235 23.88C173.235 10.9315 162.738 0.43457 149.79 0.43457Z" stroke="#747775"/>
</g>
<defs>
<linearGradient id="paint0_linear_568_276" x1="32.3748" y1="29.5627" x2="16.3086" y2="48.3867" gradientUnits="userSpaceOnUse">
<stop stop-color="#4285F4"/>
<stop offset="1" stop-color="#1B74E8"/>
</linearGradient>
<clipPath id="clip0_568_276">
<rect width="173.67" height="47.7593" fill="white"/>
</clipPath>
</defs>
</svg>
