<svg width="174" height="31" viewBox="0 0 174 31" fill="none" xmlns="http://www.w3.org/2000/svg">
<g clip-path="url(#clip0_568_1025)">
<path d="M158.594 0.301758H15.0748C6.91533 0.301758 0.300781 6.91631 0.300781 15.0758C0.300781 23.2352 6.91533 29.8498 15.0748 29.8498H158.594C166.753 29.8498 173.368 23.2352 173.368 15.0758C173.368 6.91631 166.753 0.301758 158.594 0.301758Z" fill="#1F1F1F"/>
<path d="M30.7547 13.2665H12.6641V10.2514C12.6641 8.61465 13.9918 7.23633 15.5685 7.23633H27.8502C29.427 7.23633 30.7547 8.61465 30.7547 10.2514V13.2665Z" fill="#34A853"/>
<path d="M30.7547 15.7109H12.6641V12.6958C12.6641 11.059 13.9918 9.68066 15.5685 9.68066H27.8502C29.427 9.68066 30.7547 11.059 30.7547 12.6958V15.7109Z" fill="#FBBC04"/>
<path d="M30.7547 18.2392H12.6641V15.2241C12.6641 13.5873 13.9918 12.209 15.5685 12.209H27.8502C29.427 12.209 30.7547 13.5873 30.7547 15.2241V18.2392Z" fill="#EA4335"/>
<path d="M12.6641 14.0351L24.1462 16.6906C25.4679 17.0226 26.9548 16.6906 28.0287 15.8608L30.7547 13.8691V20.093C30.7547 21.6697 29.433 22.9145 27.8635 22.9145H15.5552C13.9858 22.9145 12.6641 21.6697 12.6641 20.093V14.0351Z" fill="url(#paint0_linear_568_1025)"/>
<path d="M38.9688 19.2963V10.661H40.2954V14.9063L43.8894 10.661H45.5296V10.7334L42.3698 14.3756L45.807 19.2239V19.2963H44.1909L41.4773 15.4128L40.2954 16.7877V19.2963H38.9688ZM47.4376 12.2409C47.1964 12.2409 46.9874 12.1565 46.8105 11.9877C46.6416 11.8108 46.5572 11.6017 46.5572 11.3605C46.5572 11.1193 46.6416 10.9143 46.8105 10.7455C46.9874 10.5766 47.1964 10.4922 47.4376 10.4922C47.6788 10.4922 47.8839 10.5766 48.0527 10.7455C48.2296 10.9143 48.318 11.1193 48.318 11.3605C48.318 11.6017 48.2296 11.8108 48.0527 11.9877C47.8839 12.1565 47.6788 12.2409 47.4376 12.2409ZM46.7864 19.2963V13.1455H48.0889V19.2963H46.7864ZM49.705 19.2963V13.1455H50.9352V14.05H51.0075C51.1442 13.7364 51.3774 13.4791 51.707 13.2781C52.0447 13.0691 52.4065 12.9646 52.7925 12.9646C52.9613 12.9646 53.102 12.9766 53.2146 13.0008C53.3352 13.0249 53.4437 13.053 53.5402 13.0852V14.4359C53.3874 14.3716 53.2306 14.3194 53.0698 14.2792C52.917 14.2389 52.7563 14.2189 52.5874 14.2189C52.2819 14.2189 52.0085 14.3033 51.7673 14.4721C51.5341 14.633 51.3492 14.854 51.2125 15.1354C51.0758 15.4088 51.0075 15.7103 51.0075 16.04V19.2963H49.705ZM55.2934 12.2409C55.0522 12.2409 54.8431 12.1565 54.6662 11.9877C54.4974 11.8108 54.413 11.6017 54.413 11.3605C54.413 11.1193 54.4974 10.9143 54.6662 10.7455C54.8431 10.5766 55.0522 10.4922 55.2934 10.4922C55.5346 10.4922 55.7396 10.5766 55.9084 10.7455C56.0853 10.9143 56.1738 11.1193 56.1738 11.3605C56.1738 11.6017 56.0853 11.8108 55.9084 11.9877C55.7396 12.1565 55.5346 12.2409 55.2934 12.2409ZM54.6421 19.2963V13.1455H55.9446V19.2963H54.6421ZM58.1531 17.5114V14.2792H57.0798V13.1455H58.1531V11.4088H59.4557V13.1455H60.9633V14.2792H59.4557V17.234C59.4557 17.5395 59.516 17.7726 59.6366 17.9335C59.7652 18.0943 59.9782 18.1747 60.2758 18.1747C60.4284 18.1747 60.5569 18.1546 60.6618 18.1144C60.774 18.0742 60.8867 18.0179 60.9995 17.9455V19.2119C60.8626 19.2681 60.7179 19.3124 60.5653 19.3445C60.4122 19.3767 60.2315 19.3928 60.0225 19.3928C59.4516 19.3928 58.9974 19.228 58.6597 18.8983C58.322 18.5606 58.1531 18.0983 58.1531 17.5114ZM63.0196 12.2409C62.7784 12.2409 62.5692 12.1565 62.3925 11.9877C62.2236 11.8108 62.1392 11.6017 62.1392 11.3605C62.1392 11.1193 62.2236 10.9143 62.3925 10.7455C62.5692 10.5766 62.7784 10.4922 63.0196 10.4922C63.2608 10.4922 63.4659 10.5766 63.6347 10.7455C63.8114 10.9143 63.9 11.1193 63.9 11.3605C63.9 11.6017 63.8114 11.8108 63.6347 11.9877C63.4659 12.1565 63.2608 12.2409 63.0196 12.2409ZM62.3684 19.2963V13.1455H63.6709V19.2963H62.3684ZM65.287 19.2963V13.1455H66.5172V13.9897H66.5895C66.7662 13.6922 67.0279 13.447 67.3734 13.254C67.7274 13.053 68.1133 12.9525 68.5312 12.9525C69.2868 12.9525 69.8537 13.1776 70.2318 13.6279C70.6099 14.0782 70.7986 14.6731 70.7986 15.4128V19.2963H69.5081V15.5817C69.5081 15.0832 69.3833 14.7214 69.1343 14.4962C68.8852 14.2631 68.5596 14.1465 68.1574 14.1465C67.8438 14.1465 67.5706 14.235 67.3373 14.4118C67.1039 14.5807 66.9194 14.8058 66.7825 15.0872C66.654 15.3686 66.5895 15.6701 66.5895 15.9917V19.2963H65.287ZM74.998 22.0943C74.4589 22.0943 73.9928 22.0058 73.599 21.829C73.2131 21.6601 72.8995 21.439 72.6583 21.1657C72.4171 20.9003 72.244 20.627 72.1397 20.3455L73.3458 19.839C73.4742 20.1606 73.6792 20.422 73.9608 20.6229C74.2503 20.832 74.5958 20.9365 74.998 20.9365C75.5607 20.9365 76.0027 20.7677 76.3247 20.43C76.6539 20.0923 76.8192 19.6139 76.8192 18.9948V18.4038H76.7468C76.5538 18.6933 76.2843 18.9265 75.9388 19.1033C75.6011 19.2722 75.2151 19.3566 74.781 19.3566C74.2581 19.3566 73.7799 19.2239 73.3458 18.9586C72.9116 18.6933 72.5618 18.3234 72.2965 17.849C72.0312 17.3666 71.8985 16.8038 71.8985 16.1606C71.8985 15.5093 72.0312 14.9465 72.2965 14.4721C72.5618 13.9897 72.9116 13.6158 73.3458 13.3505C73.7799 13.0852 74.2581 12.9525 74.781 12.9525C75.2151 12.9525 75.6011 13.041 75.9388 13.2178C76.2843 13.3947 76.5538 13.6279 76.7468 13.9173H76.8192V13.1455H78.0614V18.9707C78.0614 19.638 77.9287 20.2049 77.6634 20.6712C77.4059 21.1375 77.0483 21.4913 76.59 21.7325C76.1317 21.9737 75.6011 22.0943 74.998 22.0943ZM75.0101 18.1747C75.3315 18.1747 75.6288 18.0983 75.9026 17.9455C76.1757 17.7847 76.397 17.5556 76.5659 17.2581C76.7347 16.9525 76.8192 16.5867 76.8192 16.1606C76.8192 15.7184 76.7347 15.3485 76.5659 15.051C76.397 14.7455 76.1757 14.5163 75.9026 14.3636C75.6288 14.2108 75.3315 14.1344 75.0101 14.1344C74.6881 14.1344 74.3866 14.2148 74.1056 14.3756C73.8318 14.5284 73.6111 14.7536 73.4422 15.051C73.2734 15.3485 73.189 15.7184 73.189 16.1606C73.189 16.5948 73.2734 16.9646 73.4422 17.2701C73.6111 17.5676 73.8318 17.7928 74.1056 17.9455C74.3866 18.0983 74.6881 18.1747 75.0101 18.1747Z" fill="white"/>
<path d="M87.0773 19.4899C86.458 19.4899 85.8755 19.3774 85.3286 19.1522C84.7901 18.9271 84.3113 18.6136 83.8934 18.2115C83.4755 17.8015 83.1456 17.3231 82.9044 16.7763C82.6711 16.2216 82.5547 15.6226 82.5547 14.9793C82.5547 14.3361 82.6711 13.7412 82.9044 13.1944C83.1456 12.6396 83.4713 12.1612 83.8813 11.7592C84.2992 11.3492 84.7816 11.0315 85.3286 10.8064C85.8755 10.5813 86.458 10.4688 87.0773 10.4688C87.7364 10.4688 88.3437 10.5853 88.8985 10.8185C89.4611 11.0517 89.9314 11.3773 90.3095 11.7954L89.393 12.6999C89.1113 12.3864 88.7736 12.1451 88.3799 11.9763C87.9939 11.8075 87.5598 11.723 87.0773 11.723C86.5063 11.723 85.9798 11.8597 85.4974 12.1331C85.015 12.3984 84.6249 12.7763 84.3276 13.2668C84.0381 13.7492 83.8934 14.3201 83.8934 14.9793C83.8934 15.6386 84.0423 16.2135 84.3396 16.704C84.6369 17.1864 85.0271 17.5643 85.5095 17.8377C85.9919 18.103 86.5183 18.2357 87.0894 18.2357C87.6122 18.2357 88.0862 18.1392 88.5125 17.9462C88.9389 17.7452 89.2802 17.4638 89.5377 17.102C89.803 16.7402 89.964 16.306 90.0201 15.7995H87.0653V14.6296H91.2623C91.3106 14.8467 91.3347 15.0758 91.3347 15.317V15.3291C91.3347 16.1653 91.1495 16.897 90.7799 17.5241C90.4181 18.1432 89.9158 18.6256 89.2723 18.9713C88.6289 19.3171 87.8975 19.4899 87.0773 19.4899ZM95.2181 19.4899C94.5831 19.4899 94.0241 19.3452 93.5417 19.0558C93.0593 18.7663 92.6812 18.3763 92.4081 17.8859C92.1349 17.3955 91.998 16.8407 91.998 16.2216C91.998 15.6105 92.1349 15.0597 92.4081 14.5693C92.6812 14.0708 93.0593 13.6768 93.5417 13.3874C94.0241 13.0979 94.5831 12.9532 95.2181 12.9532C95.8453 12.9532 96.4001 13.0979 96.8825 13.3874C97.3649 13.6768 97.743 14.0708 98.0161 14.5693C98.2893 15.0597 98.4262 15.6105 98.4262 16.2216C98.4262 16.8407 98.2893 17.3955 98.0161 17.8859C97.743 18.3763 97.3649 18.7663 96.8825 19.0558C96.4001 19.3452 95.8453 19.4899 95.2181 19.4899ZM95.2181 18.296C95.5558 18.296 95.8694 18.2156 96.1588 18.0548C96.4483 17.8859 96.6817 17.6487 96.8583 17.3432C97.0435 17.0296 97.1357 16.6557 97.1357 16.2216C97.1357 15.7874 97.0435 15.4176 96.8583 15.112C96.6817 14.7984 96.4483 14.5613 96.1588 14.4004C95.8694 14.2316 95.5558 14.1472 95.2181 14.1472C94.8804 14.1472 94.5626 14.2316 94.2654 14.4004C93.9759 14.5613 93.7389 14.7984 93.5538 15.112C93.3771 15.4176 93.2885 15.7874 93.2885 16.2216C93.2885 16.6557 93.3771 17.0296 93.5538 17.3432C93.7389 17.6487 93.9759 17.8859 94.2654 18.0548C94.5626 18.2156 94.8804 18.296 95.2181 18.296ZM102.52 19.4899C101.885 19.4899 101.326 19.3452 100.844 19.0558C100.361 18.7663 99.9838 18.3763 99.71 17.8859C99.4369 17.3955 99.3 16.8407 99.3 16.2216C99.3 15.6105 99.4369 15.0597 99.71 14.5693C99.9838 14.0708 100.361 13.6768 100.844 13.3874C101.326 13.0979 101.885 12.9532 102.52 12.9532C103.147 12.9532 103.702 13.0979 104.184 13.3874C104.667 13.6768 105.045 14.0708 105.318 14.5693C105.592 15.0597 105.728 15.6105 105.728 16.2216C105.728 16.8407 105.592 17.3955 105.318 17.8859C105.045 18.3763 104.667 18.7663 104.184 19.0558C103.702 19.3452 103.147 19.4899 102.52 19.4899ZM102.52 18.296C102.858 18.296 103.171 18.2156 103.461 18.0548C103.75 17.8859 103.984 17.6487 104.16 17.3432C104.345 17.0296 104.438 16.6557 104.438 16.2216C104.438 15.7874 104.345 15.4176 104.16 15.112C103.984 14.7984 103.75 14.5613 103.461 14.4004C103.171 14.2316 102.858 14.1472 102.52 14.1472C102.182 14.1472 101.865 14.2316 101.567 14.4004C101.278 14.5613 101.041 14.7984 100.856 15.112C100.679 15.4176 100.59 15.7874 100.59 16.2216C100.59 16.6557 100.679 17.0296 100.856 17.3432C101.041 17.6487 101.278 17.8859 101.567 18.0548C101.865 18.2156 102.182 18.296 102.52 18.296ZM109.702 22.095C109.163 22.095 108.697 22.0065 108.303 21.8297C107.917 21.6608 107.604 21.4397 107.362 21.1663C107.121 20.901 106.948 20.6277 106.844 20.3462L108.05 19.8397C108.178 20.1613 108.383 20.4226 108.665 20.6236C108.954 20.8327 109.3 20.9372 109.702 20.9372C110.265 20.9372 110.707 20.7683 111.029 20.4307C111.358 20.093 111.523 19.6146 111.523 18.9955V18.4045H111.451C111.258 18.694 110.988 18.9271 110.643 19.104C110.305 19.2729 109.919 19.3573 109.485 19.3573C108.962 19.3573 108.484 19.2246 108.05 18.9593C107.616 18.694 107.266 18.3241 107.001 17.8497C106.735 17.3673 106.603 16.8045 106.603 16.1613C106.603 15.51 106.735 14.9472 107.001 14.4728C107.266 13.9904 107.616 13.6165 108.05 13.3512C108.484 13.0859 108.962 12.9532 109.485 12.9532C109.919 12.9532 110.305 13.0417 110.643 13.2185C110.988 13.3954 111.258 13.6286 111.451 13.918H111.523V13.1462H112.765V18.9713C112.765 19.6387 112.633 20.2055 112.367 20.6719C112.11 21.1382 111.752 21.492 111.294 21.7332C110.836 21.9744 110.305 22.095 109.702 22.095ZM109.714 18.1754C110.036 18.1754 110.333 18.099 110.607 17.9462C110.88 17.7854 111.101 17.5562 111.27 17.2588C111.439 16.9532 111.523 16.5874 111.523 16.1613C111.523 15.7191 111.439 15.3492 111.27 15.0517C111.101 14.7462 110.88 14.517 110.607 14.3643C110.333 14.2115 110.036 14.1351 109.714 14.1351C109.392 14.1351 109.091 14.2155 108.81 14.3763C108.536 14.5291 108.315 14.7542 108.146 15.0517C107.977 15.3492 107.893 15.7191 107.893 16.1613C107.893 16.5954 107.977 16.9653 108.146 17.2708C108.315 17.5683 108.536 17.7935 108.81 17.9462C109.091 18.099 109.392 18.1754 109.714 18.1754ZM114.301 19.297V10.6617H115.604V19.297H114.301ZM119.891 19.4899C119.288 19.4899 118.749 19.3493 118.275 19.0678C117.8 18.7864 117.426 18.4005 117.153 17.91C116.888 17.4196 116.755 16.8608 116.755 16.2336C116.755 15.6467 116.883 15.104 117.141 14.6055C117.398 14.107 117.756 13.709 118.214 13.4115C118.68 13.1059 119.215 12.9532 119.818 12.9532C120.453 12.9532 120.992 13.0899 121.434 13.3632C121.884 13.6366 122.226 14.0105 122.46 14.4849C122.692 14.9593 122.809 15.4939 122.809 16.0889C122.809 16.1774 122.805 16.2577 122.797 16.3301C122.797 16.4025 122.793 16.4587 122.785 16.499H118.033C118.097 17.11 118.311 17.5683 118.673 17.8738C119.042 18.1794 119.46 18.3321 119.927 18.3321C120.345 18.3321 120.69 18.2397 120.964 18.0548C121.237 17.8618 121.454 17.6246 121.615 17.3432L122.689 17.8618C122.423 18.3442 122.062 18.7382 121.603 19.0437C121.145 19.3412 120.574 19.4899 119.891 19.4899ZM119.83 14.0628C119.396 14.0628 119.026 14.1954 118.721 14.4607C118.415 14.7261 118.21 15.0799 118.106 15.5221H121.519C121.503 15.313 121.434 15.0959 121.314 14.8708C121.193 14.6457 121.008 14.4567 120.759 14.304C120.518 14.1431 120.208 14.0628 119.83 14.0628ZM128.11 19.297L125.795 10.6617H127.266L128.641 16.2698L128.786 17.0176H128.858L129.039 16.2698L130.776 10.6617H132.102L133.767 16.2698L133.948 17.0055H134.02L134.165 16.2698L135.54 10.6617H136.999L134.72 19.297H133.321L131.668 13.5683L131.475 12.7602H131.403L131.198 13.5683L129.473 19.297H128.11ZM139.421 19.4899C138.979 19.4899 138.585 19.4055 138.239 19.2367C137.893 19.0598 137.624 18.8146 137.431 18.501C137.238 18.1874 137.141 17.8296 137.141 17.4276C137.141 16.9934 137.254 16.6236 137.479 16.3181C137.712 16.0045 138.022 15.7673 138.408 15.6065C138.794 15.4457 139.22 15.3653 139.686 15.3653C140.072 15.3653 140.41 15.4015 140.699 15.4738C140.997 15.5462 141.222 15.6226 141.375 15.703V15.3773C141.375 14.9753 141.23 14.6537 140.94 14.4125C140.651 14.1713 140.277 14.0507 139.819 14.0507C139.505 14.0507 139.208 14.1231 138.926 14.2678C138.645 14.4045 138.42 14.5934 138.251 14.8346L137.358 14.1472C137.624 13.7773 137.974 13.4879 138.408 13.2788C138.85 13.0617 139.333 12.9532 139.855 12.9532C140.747 12.9532 141.435 13.1743 141.917 13.6165C142.4 14.0507 142.641 14.6617 142.641 15.4497V19.297H141.375V18.5372H141.302C141.142 18.7864 140.901 19.0075 140.579 19.2005C140.257 19.3935 139.871 19.4899 139.421 19.4899ZM139.65 18.4286C139.988 18.4286 140.285 18.3482 140.542 18.1874C140.8 18.0266 141.001 17.8176 141.145 17.5603C141.299 17.2949 141.375 17.0095 141.375 16.704C141.19 16.5995 140.973 16.5151 140.723 16.4507C140.474 16.3784 140.209 16.3422 139.927 16.3422C139.397 16.3422 139.019 16.4507 138.794 16.6678C138.569 16.8769 138.456 17.1341 138.456 17.4397C138.456 17.7291 138.564 17.9663 138.782 18.1512C138.999 18.3362 139.288 18.4286 139.65 18.4286ZM144.087 19.297V10.6617H145.389V19.297H144.087ZM146.937 19.297V10.6617H148.24V19.297H146.937ZM152.527 19.4899C151.924 19.4899 151.385 19.3493 150.911 19.0678C150.436 18.7864 150.062 18.4005 149.789 17.91C149.524 17.4196 149.391 16.8608 149.391 16.2336C149.391 15.6467 149.52 15.104 149.777 14.6055C150.034 14.107 150.392 13.709 150.85 13.4115C151.317 13.1059 151.851 12.9532 152.454 12.9532C153.089 12.9532 153.628 13.0899 154.071 13.3632C154.52 13.6366 154.862 14.0105 155.096 14.4849C155.328 14.9593 155.445 15.4939 155.445 16.0889C155.445 16.1774 155.441 16.2577 155.433 16.3301C155.433 16.4025 155.429 16.4587 155.421 16.499H150.67C150.733 17.11 150.947 17.5683 151.309 17.8738C151.678 18.1794 152.096 18.3321 152.563 18.3321C152.981 18.3321 153.326 18.2397 153.6 18.0548C153.873 17.8618 154.09 17.6246 154.251 17.3432L155.325 17.8618C155.059 18.3442 154.698 18.7382 154.239 19.0437C153.781 19.3412 153.21 19.4899 152.527 19.4899ZM152.467 14.0628C152.032 14.0628 151.662 14.1954 151.357 14.4607C151.051 14.7261 150.846 15.0799 150.742 15.5221H154.155C154.139 15.313 154.071 15.0959 153.95 14.8708C153.829 14.6457 153.644 14.4567 153.395 14.304C153.154 14.1431 152.844 14.0628 152.467 14.0628ZM157.128 17.512V14.2798H156.055V13.1462H157.128V11.4095H158.431V13.1462H159.939V14.2798H158.431V17.2346C158.431 17.5402 158.491 17.7733 158.612 17.9341C158.74 18.095 158.953 18.1754 159.251 18.1754C159.404 18.1754 159.532 18.1553 159.637 18.1151C159.749 18.0748 159.862 18.0186 159.975 17.9462V19.2126C159.838 19.2688 159.693 19.3131 159.541 19.3452C159.387 19.3774 159.206 19.3935 158.998 19.3935C158.427 19.3935 157.973 19.2287 157.635 18.899C157.297 18.5613 157.128 18.099 157.128 17.512Z" fill="white"/>
<path d="M158.594 0.301758H15.0748C6.91533 0.301758 0.300781 6.91631 0.300781 15.0758C0.300781 23.2352 6.91533 29.8498 15.0748 29.8498H158.594C166.753 29.8498 173.368 23.2352 173.368 15.0758C173.368 6.91631 166.753 0.301758 158.594 0.301758Z" stroke="#747775"/>
</g>
<defs>
<linearGradient id="paint0_linear_568_1025" x1="20.8472" y1="18.5645" x2="11.2957" y2="29.4954" gradientUnits="userSpaceOnUse">
<stop stop-color="#4285F4"/>
<stop offset="1" stop-color="#1B74E8"/>
</linearGradient>
<clipPath id="clip0_568_1025">
<rect width="173.67" height="30.151" fill="white"/>
</clipPath>
</defs>
</svg>
