<svg width="174" height="27" viewBox="0 0 174 27" fill="none" xmlns="http://www.w3.org/2000/svg">
<g clip-path="url(#clip0_568_1006)">
<path d="M160.512 0.262695H13.1554C6.03442 0.262695 0.261719 6.03539 0.261719 13.1564C0.261719 20.2774 6.03442 26.0501 13.1554 26.0501H160.512C167.633 26.0501 173.405 20.2774 173.405 13.1564C173.405 6.03539 167.633 0.262695 160.512 0.262695Z" fill="#1F1F1F"/>
<path d="M160.512 0.262695H13.1554C6.03442 0.262695 0.261719 6.03539 0.261719 13.1564C0.261719 20.2774 6.03442 26.0501 13.1554 26.0501H160.512C167.633 26.0501 173.405 20.2774 173.405 13.1564C173.405 6.03539 167.633 0.262695 160.512 0.262695Z" stroke="#747775"/>
<path d="M26.839 11.5782H11.0508V8.94679C11.0508 7.51833 12.2095 6.31543 13.5856 6.31543H24.3042C25.6802 6.31543 26.839 7.51833 26.839 8.94679V11.5782Z" fill="#34A853"/>
<path d="M26.839 13.7119H11.0508V11.0806C11.0508 9.65212 12.2095 8.44922 13.5856 8.44922H24.3042C25.6802 8.44922 26.839 9.65212 26.839 11.0806V13.7119Z" fill="#FBBC04"/>
<path d="M26.839 15.918H11.0508V13.2866C11.0508 11.8582 12.2095 10.6553 13.5856 10.6553H24.3042C25.6802 10.6553 26.839 11.8582 26.839 13.2866V15.918Z" fill="#EA4335"/>
<path d="M11.0508 12.2493L21.0716 14.5669C22.2251 14.8566 23.5227 14.5669 24.4599 13.8427L26.839 12.1045V17.5362C26.839 18.9122 25.6855 19.9986 24.3157 19.9986H13.574C12.2043 19.9986 11.0508 18.9122 11.0508 17.5362V12.2493Z" fill="#4285F4"/>
<path d="M33.4727 16.8509C33.4727 16.5983 33.5078 16.3176 33.5779 16.0089C33.6481 15.7001 33.7604 15.3598 33.9147 14.9879L34.6726 15.2826C34.5603 15.5773 34.4761 15.8475 34.4199 16.0931C34.3638 16.3387 34.3357 16.5667 34.3357 16.7772C34.3357 17.1702 34.4305 17.4859 34.6199 17.7245C34.8164 17.9631 35.0761 18.1385 35.3988 18.2508C35.7286 18.363 36.09 18.4192 36.4829 18.4192C37.1215 18.4192 37.6197 18.3315 37.9776 18.1561C38.3424 17.9806 38.5986 17.7491 38.7459 17.4614C38.9003 17.1807 38.9775 16.8825 38.9775 16.5667C38.9775 16.1036 38.9248 15.679 38.8196 15.2931C38.7213 14.9002 38.6126 14.4967 38.4933 14.0827L39.3459 13.8511C39.4581 14.2511 39.5353 14.5423 39.5774 14.7248C39.6195 14.9002 39.6581 15.044 39.6932 15.1563C39.7704 15.4159 39.8721 15.6089 39.9984 15.7352C40.1247 15.8545 40.2686 15.9352 40.43 15.9773C40.5914 16.0124 40.7633 16.0299 40.9457 16.0299C41.0931 16.0299 41.1983 16.072 41.2615 16.1562C41.3316 16.2334 41.3667 16.3281 41.3667 16.4404C41.3667 16.5527 41.3176 16.6579 41.2194 16.7562C41.1211 16.8474 40.9948 16.893 40.8405 16.893C40.623 16.893 40.43 16.8649 40.2616 16.8088C40.1002 16.7456 39.9633 16.6684 39.8511 16.5772C39.816 16.921 39.7353 17.2544 39.609 17.5772C39.4827 17.8999 39.2897 18.1876 39.0301 18.4402C38.7775 18.6998 38.4407 18.9034 38.0197 19.0507C37.5986 19.2051 37.0759 19.2823 36.4514 19.2823C35.9251 19.2823 35.4339 19.1945 34.9778 19.0191C34.5287 18.8437 34.1638 18.5771 33.8831 18.2192C33.6095 17.8613 33.4727 17.4052 33.4727 16.8509ZM40.8454 16.893L40.9507 16.0299C41.3576 16.0299 41.6769 16.0159 41.9085 15.9878C42.1471 15.9527 42.3155 15.872 42.4137 15.7457C42.5119 15.6194 42.5611 15.4124 42.5611 15.1247C42.5611 14.8651 42.4979 14.5318 42.3716 14.1248C42.2523 13.7178 42.1155 13.3143 41.9611 12.9144L42.8137 12.5986C42.9049 12.8302 42.9891 13.0898 43.0663 13.3775C43.1505 13.6582 43.2206 13.9389 43.2768 14.2195C43.3329 14.5002 43.361 14.7458 43.361 14.9563C43.361 15.665 43.1645 16.1667 42.7716 16.4615C42.3786 16.7492 41.7366 16.893 40.8454 16.893ZM42.7926 18.8823C42.6453 18.8823 42.519 18.8297 42.4137 18.7244C42.3155 18.6262 42.2664 18.5069 42.2664 18.3666C42.2664 18.2262 42.3155 18.1034 42.4137 17.9982C42.519 17.8929 42.6453 17.8403 42.7926 17.8403C42.9329 17.8403 43.0522 17.8929 43.1505 17.9982C43.2558 18.1034 43.3084 18.2262 43.3084 18.3666C43.3084 18.5069 43.2558 18.6262 43.1505 18.7244C43.0522 18.8297 42.9329 18.8823 42.7926 18.8823ZM41.3506 18.8823C41.2033 18.8823 41.077 18.8297 40.9717 18.7244C40.8735 18.6262 40.8244 18.5069 40.8244 18.3666C40.8244 18.2262 40.8735 18.1034 40.9717 17.9982C41.077 17.8929 41.2033 17.8403 41.3506 17.8403C41.4909 17.8403 41.6103 17.8929 41.7085 17.9982C41.8138 18.1034 41.8664 18.2262 41.8664 18.3666C41.8664 18.5069 41.8138 18.6262 41.7085 18.7244C41.6103 18.8297 41.4909 18.8823 41.3506 18.8823ZM44.0328 19.2823L43.7276 18.4823C44.4082 18.2578 44.938 17.9912 45.3169 17.6824C45.7029 17.3736 45.973 17.0509 46.1274 16.7141C46.2888 16.3703 46.3694 16.0369 46.3694 15.7141C46.3694 15.3703 46.2923 15.023 46.1379 14.6721C45.9905 14.3143 45.8256 13.9774 45.6432 13.6617L46.4115 13.2722C46.6081 13.6442 46.7729 14.002 46.9062 14.3458C47.0466 14.6897 47.1554 14.9914 47.2325 15.251C47.3308 15.5527 47.4571 15.7598 47.6114 15.872C47.7729 15.9773 47.9904 16.0299 48.264 16.0299C48.4114 16.0299 48.5166 16.072 48.5798 16.1562C48.65 16.2334 48.685 16.3281 48.685 16.4404C48.685 16.5527 48.6359 16.6579 48.5377 16.7562C48.4395 16.8474 48.3132 16.893 48.1588 16.893C47.8922 16.893 47.6676 16.8509 47.4851 16.7667C47.3097 16.6825 47.1659 16.5702 47.0536 16.4299C46.9834 16.8228 46.8361 17.1807 46.6115 17.5035C46.387 17.8262 46.1239 18.107 45.8221 18.3455C45.5204 18.5911 45.2116 18.7911 44.8959 18.9455C44.5801 19.0998 44.2925 19.2121 44.0328 19.2823ZM48.1639 16.893L48.2691 16.0299H49.2585C49.6655 16.0299 49.9918 16.0089 50.2374 15.9668C50.483 15.9177 50.6619 15.858 50.7742 15.7878C50.8935 15.7106 50.9707 15.6299 51.0058 15.5457C51.0479 15.4545 51.0689 15.3633 51.0689 15.2721C51.0689 15.1107 51.0057 14.9107 50.8794 14.6721C50.7602 14.4336 50.5111 14.1248 50.1321 13.7459C49.8725 13.4792 49.6129 13.2442 49.3533 13.0407C49.0936 12.8372 48.8796 12.6653 48.7112 12.5249C48.5428 12.3846 48.4586 12.2828 48.4586 12.2197C48.4586 12.0583 48.4762 11.9075 48.5112 11.7671C48.5463 11.6267 48.6025 11.518 48.6796 11.4408C48.9603 11.1391 49.3989 10.8373 49.9953 10.5356C50.5988 10.2339 51.3496 9.85499 52.2478 9.39887L52.6056 10.1778C51.9671 10.4865 51.4443 10.7426 51.0373 10.9461C50.6374 11.1426 50.3041 11.318 50.0374 11.4724C49.7778 11.6197 49.5357 11.7706 49.3112 11.925C50.1321 12.5916 50.7602 13.1916 51.1952 13.7248C51.6373 14.2511 51.8583 14.7844 51.8583 15.3247C51.8583 15.4791 51.8303 15.6475 51.7741 15.8299C51.718 16.0124 51.5987 16.1843 51.4162 16.3457C51.2338 16.5071 50.9602 16.6404 50.5953 16.7456C50.2304 16.8439 49.7392 16.893 49.1217 16.893H48.1639ZM55.274 16.8509C55.274 16.5983 55.3088 16.3176 55.3793 16.0089C55.4493 15.7001 55.5614 15.3598 55.7161 14.9879L56.4739 15.2826C56.3613 15.5773 56.2771 15.8475 56.2213 16.0931C56.165 16.3387 56.1371 16.5667 56.1371 16.7772C56.1371 17.1351 56.2318 17.4368 56.4213 17.6824C56.6108 17.928 56.856 18.1104 57.1581 18.2297C57.4665 18.356 57.7965 18.4192 58.1475 18.4192C58.828 18.4192 59.3611 18.2964 59.7473 18.0508C60.1399 17.8122 60.4105 17.4929 60.5578 17.093C60.712 16.7 60.782 16.2685 60.7683 15.7984L60.5368 9.3252H61.4104L61.5788 14.6616C61.5856 15.0195 61.6419 15.3001 61.7472 15.5036C61.8524 15.7001 61.9924 15.8369 62.1682 15.9141C62.3435 15.9913 62.5366 16.0299 62.7471 16.0299C62.8945 16.0299 62.9997 16.072 63.0629 16.1562C63.1329 16.2334 63.1681 16.3281 63.1681 16.4404C63.1681 16.5527 63.1187 16.6579 63.0208 16.7562C62.9224 16.8474 62.796 16.893 62.6418 16.893C62.3819 16.893 62.1682 16.8544 61.9998 16.7772C61.8382 16.693 61.7082 16.5913 61.6104 16.472C61.5609 16.8228 61.463 17.1631 61.3156 17.4929C61.1751 17.8298 60.9683 18.1315 60.6946 18.3981C60.421 18.6718 60.07 18.8858 59.6421 19.0402C59.2211 19.2016 58.7053 19.2823 58.0949 19.2823C57.6033 19.2823 57.1439 19.184 56.716 18.9876C56.2876 18.7981 55.9403 18.5209 55.674 18.1561C55.4072 17.7982 55.274 17.3631 55.274 16.8509ZM62.6466 16.893L62.7518 16.0299C62.9481 16.0299 63.1134 15.9878 63.2465 15.9036C63.3797 15.8194 63.5097 15.6826 63.636 15.4931C63.7623 15.2967 63.8991 15.03 64.0465 14.6932C64.2501 14.2441 64.4501 13.9038 64.6464 13.6722C64.8501 13.4406 65.0501 13.2828 65.2464 13.1986C65.45 13.1144 65.65 13.0723 65.8463 13.0723C66.0847 13.0723 66.3058 13.1354 66.5094 13.2617C66.7131 13.381 66.892 13.5424 67.0462 13.7459C67.2004 13.9494 67.3199 14.1739 67.4041 14.4195C67.4951 14.6581 67.5409 14.8967 67.5409 15.1352C67.5409 15.5563 67.4672 15.8931 67.3199 16.1457C67.1725 16.3913 66.9831 16.5702 66.7515 16.6825C66.5268 16.7877 66.2921 16.8404 66.0463 16.8404C65.8426 16.8404 65.5832 16.8053 65.2674 16.7351C64.9585 16.665 64.5691 16.4825 64.0991 16.1878C63.8744 16.5106 63.6502 16.7105 63.4255 16.7877C63.2007 16.8579 62.9413 16.893 62.6466 16.893ZM64.6148 15.251C64.5727 15.3422 64.5343 15.43 64.4991 15.5142C64.8006 15.6896 65.0743 15.8124 65.32 15.8826C65.5727 15.9457 65.7832 15.9773 65.9516 15.9773C66.2531 15.9773 66.4673 15.9106 66.5936 15.7773C66.7199 15.644 66.7831 15.4685 66.7831 15.251C66.7831 15.0475 66.7341 14.8441 66.6357 14.6405C66.5373 14.437 66.411 14.2686 66.2568 14.1353C66.1095 14.002 65.9516 13.9353 65.7832 13.9353C65.6569 13.9353 65.5342 13.9704 65.4148 14.0406C65.2953 14.1108 65.1727 14.2406 65.0464 14.43C64.9201 14.6195 64.7764 14.8932 64.6148 15.251ZM71.2396 16.893C70.6712 16.893 70.2396 16.8298 69.9449 16.7035C69.6502 16.5772 69.4466 16.3808 69.3345 16.1141C69.2224 15.8475 69.1592 15.5036 69.145 15.0826L68.9345 9.3252H69.7976L70.0081 14.7458C70.0223 15.0896 70.0539 15.3563 70.1028 15.5457C70.1591 15.7282 70.2781 15.8545 70.4607 15.9247C70.6501 15.9948 70.9449 16.0299 71.3448 16.0299C71.4922 16.0299 71.5974 16.072 71.6606 16.1562C71.7306 16.2334 71.7658 16.3281 71.7658 16.4404C71.7658 16.5527 71.7169 16.6579 71.6185 16.7562C71.5201 16.8474 71.3938 16.893 71.2396 16.893ZM71.2396 16.893L71.3448 16.0299C71.5695 16.0299 71.7522 16.0159 71.8921 15.9878C72.0327 15.9527 72.1484 15.872 72.2395 15.7457C72.3379 15.6124 72.4289 15.4054 72.5131 15.1247C72.5974 14.8441 72.6958 14.4511 72.8079 13.9459L73.5973 14.1669C73.5552 14.3494 73.5062 14.5633 73.4499 14.809C73.3941 15.0546 73.3657 15.2756 73.3657 15.4721C73.3657 15.6475 73.4325 15.7843 73.5657 15.8826C73.6994 15.9808 73.9414 16.0299 74.2919 16.0299C74.5025 16.0299 74.6746 16.0124 74.8077 15.9773C74.9414 15.9422 75.0498 15.858 75.134 15.7247C75.2256 15.5914 75.3061 15.3809 75.3761 15.0931C75.4466 14.7984 75.5203 14.3915 75.5971 13.8722L76.397 14.0195C76.376 14.1459 76.3481 14.3002 76.3128 14.4827C76.2849 14.6651 76.2602 14.8475 76.2392 15.03C76.2181 15.2054 76.2076 15.3528 76.2076 15.4721C76.2076 15.5703 76.2286 15.665 76.2707 15.7562C76.3202 15.8405 76.4112 15.9071 76.5444 15.9562C76.6849 16.0053 76.8917 16.0299 77.1654 16.0299C77.4675 16.0299 77.7096 15.9703 77.8917 15.851C78.0743 15.7317 78.1653 15.4896 78.1653 15.1247C78.1653 14.8651 78.1022 14.5318 77.9759 14.1248C77.8569 13.7178 77.7201 13.3143 77.5654 12.9144L78.4179 12.5986C78.5021 12.8302 78.5863 13.0898 78.6705 13.3775C78.7547 13.6582 78.8253 13.9389 78.881 14.2195C78.9374 14.5002 78.9652 14.7458 78.9652 14.9563C78.9652 15.6089 78.8042 16.0966 78.4811 16.4194C78.1585 16.7351 77.7164 16.893 77.1549 16.893C76.7691 16.893 76.4639 16.8439 76.2392 16.7456C76.0218 16.6404 75.8639 16.479 75.7655 16.2615C75.5971 16.5211 75.394 16.693 75.155 16.7772C74.9235 16.8544 74.594 16.893 74.1656 16.893C74.0183 16.893 73.8604 16.8755 73.692 16.8404C73.531 16.8053 73.3799 16.7386 73.2394 16.6404C73.0994 16.5351 72.9905 16.3808 72.9131 16.1773C72.731 16.486 72.5026 16.6825 72.229 16.7667C71.9627 16.8509 71.6327 16.893 71.2396 16.893ZM75.776 11.104C75.6287 11.104 75.5024 11.0549 75.3971 10.9566C75.2992 10.8514 75.2498 10.7286 75.2498 10.5883C75.2498 10.4479 75.2992 10.3251 75.3971 10.2199C75.5024 10.1146 75.6287 10.062 75.776 10.062C75.9166 10.062 76.036 10.1146 76.1339 10.2199C76.2392 10.3251 76.2918 10.4479 76.2918 10.5883C76.2918 10.7286 76.2392 10.8514 76.1339 10.9566C76.036 11.0549 75.9166 11.104 75.776 11.104ZM75.0603 12.2618C74.9129 12.2618 74.7866 12.2127 74.6814 12.1144C74.5835 12.0092 74.534 11.8864 74.534 11.746C74.534 11.6057 74.5835 11.4829 74.6814 11.3777C74.7866 11.2724 74.9129 11.2198 75.0603 11.2198C75.2008 11.2198 75.3203 11.2724 75.4182 11.3777C75.5234 11.4829 75.5761 11.6057 75.5761 11.746C75.5761 11.8864 75.5234 12.0092 75.4182 12.1144C75.3203 12.2127 75.2008 12.2618 75.0603 12.2618ZM76.4918 12.2618C76.3444 12.2618 76.2181 12.2127 76.1129 12.1144C76.015 12.0092 75.9655 11.8864 75.9655 11.746C75.9655 11.6057 76.015 11.4829 76.1129 11.3777C76.2181 11.2724 76.3444 11.2198 76.4918 11.2198C76.6323 11.2198 76.7517 11.2724 76.8496 11.3777C76.9549 11.4829 77.0075 11.6057 77.0075 11.746C77.0075 11.8864 76.9549 12.0092 76.8496 12.1144C76.7517 12.2127 76.6323 12.2618 76.4918 12.2618ZM82.266 16.8509C82.266 16.5983 82.3013 16.3176 82.3713 16.0089C82.4413 15.7001 82.5539 15.3598 82.7081 14.9879L83.4659 15.2826C83.3538 15.5773 83.2696 15.8475 83.2133 16.0931C83.157 16.3387 83.1291 16.5667 83.1291 16.7772C83.1291 17.1702 83.2238 17.4859 83.4133 17.7245C83.6096 17.9631 83.8696 18.1385 84.1922 18.2508C84.5222 18.363 84.8832 18.4192 85.2763 18.4192C85.9147 18.4192 86.4131 18.3315 86.7709 18.1561C87.1356 17.9806 87.3919 17.7491 87.5393 17.4614C87.6935 17.1807 87.7708 16.8825 87.7708 16.5667C87.7708 16.1036 87.7182 15.679 87.613 15.2931C87.5146 14.9002 87.4061 14.4967 87.2867 14.0827L88.1392 13.8511C88.2513 14.2511 88.3287 14.5423 88.3708 14.7248C88.4129 14.9002 88.4513 15.044 88.4866 15.1563C88.5639 15.4159 88.6655 15.6089 88.7918 15.7352C88.9181 15.8545 89.0618 15.9352 89.2234 15.9773C89.3849 16.0124 89.5565 16.0299 89.7391 16.0299C89.8865 16.0299 89.9917 16.072 90.0549 16.1562C90.1249 16.2334 90.1601 16.3281 90.1601 16.4404C90.1601 16.5527 90.1112 16.6579 90.0128 16.7562C89.9144 16.8474 89.788 16.893 89.6339 16.893C89.4165 16.893 89.2234 16.8649 89.0549 16.8088C88.8934 16.7456 88.7566 16.6684 88.6445 16.5772C88.6092 16.921 88.5287 17.2544 88.4024 17.5772C88.2761 17.8999 88.0829 18.1876 87.8235 18.4402C87.5709 18.6998 87.234 18.9034 86.813 19.0507C86.392 19.2051 85.8694 19.2823 85.2447 19.2823C84.7185 19.2823 84.2275 19.1945 83.7712 19.0191C83.3223 18.8437 82.957 18.5771 82.6765 18.2192C82.4029 17.8613 82.266 17.4052 82.266 16.8509ZM89.6386 16.893L89.7438 16.0299C90.0949 16.0299 90.3685 16.0053 90.5648 15.9562C90.7617 15.9001 90.909 15.7983 91.0069 15.651C91.1121 15.4966 91.1964 15.2756 91.2595 14.9879C91.3227 14.7002 91.4 14.3248 91.4911 13.8617L92.3121 14.0195C92.27 14.209 92.221 14.4265 92.1647 14.6721C92.1157 14.9177 92.091 15.1247 92.091 15.2931C92.091 15.3984 92.0984 15.4966 92.1121 15.5878C92.1263 15.679 92.1789 15.7562 92.27 15.8194C92.3615 15.8826 92.5157 15.9352 92.7331 15.9773C92.9509 16.0124 93.263 16.0299 93.6698 16.0299C93.8172 16.0299 93.9224 16.072 93.9856 16.1562C94.0561 16.2334 94.0909 16.3281 94.0909 16.4404C94.0909 16.5527 94.0419 16.6579 93.9435 16.7562C93.8456 16.8474 93.7193 16.893 93.5646 16.893C93.1088 16.893 92.751 16.8684 92.491 16.8193C92.2384 16.7632 92.0489 16.686 91.9226 16.5878C91.8037 16.4825 91.7158 16.3527 91.6595 16.1983C91.4563 16.486 91.2037 16.6755 90.9016 16.7667C90.6069 16.8509 90.1859 16.893 89.6386 16.893ZM92.291 18.8823C92.1436 18.8823 92.0173 18.8297 91.9121 18.7244C91.8142 18.6262 91.7647 18.5069 91.7647 18.3666C91.7647 18.2262 91.8142 18.1034 91.9121 17.9982C92.0173 17.8929 92.1436 17.8403 92.291 17.8403C92.4315 17.8403 92.551 17.8929 92.6489 17.9982C92.7541 18.1034 92.8067 18.2262 92.8067 18.3666C92.8067 18.5069 92.7541 18.6262 92.6489 18.7244C92.551 18.8297 92.4315 18.8823 92.291 18.8823ZM90.849 18.8823C90.7017 18.8823 90.5754 18.8297 90.4701 18.7244C90.3722 18.6262 90.3227 18.5069 90.3227 18.3666C90.3227 18.2262 90.3722 18.1034 90.4701 17.9982C90.5754 17.8929 90.7017 17.8403 90.849 17.8403C90.9895 17.8403 91.109 17.8929 91.2069 17.9982C91.3121 18.1034 91.3648 18.2262 91.3648 18.3666C91.3648 18.5069 91.3121 18.6262 91.2069 18.7244C91.109 18.8297 90.9895 18.8823 90.849 18.8823ZM93.5651 16.893L93.6704 16.0299C93.8667 16.0299 94.0319 15.9878 94.1651 15.9036C94.2982 15.8194 94.4282 15.6826 94.5545 15.4931C94.6808 15.2967 94.8176 15.03 94.965 14.6932C95.1687 14.2441 95.3686 13.9038 95.5649 13.6722C95.7686 13.4406 95.9686 13.2828 96.1649 13.1986C96.3686 13.1144 96.5685 13.0723 96.7648 13.0723C97.0032 13.0723 97.2243 13.1354 97.4279 13.2617C97.6316 13.381 97.8106 13.5424 97.9647 13.7459C98.1189 13.9494 98.2384 14.1739 98.3226 14.4195C98.4137 14.6581 98.4594 14.8967 98.4594 15.1352C98.4594 15.5563 98.3858 15.8931 98.2384 16.1457C98.091 16.3913 97.9016 16.5702 97.67 16.6825C97.4453 16.7877 97.2106 16.8404 96.9648 16.8404C96.7612 16.8404 96.5017 16.8053 96.1859 16.7351C95.877 16.665 95.4876 16.4825 95.0176 16.1878C94.7929 16.5106 94.5687 16.7105 94.344 16.7877C94.1193 16.8579 93.8598 16.893 93.5651 16.893ZM95.5334 15.251C95.4913 15.3422 95.4528 15.43 95.4176 15.5142C95.7191 15.6896 95.9928 15.8124 96.2386 15.8826C96.4912 15.9457 96.7017 15.9773 96.8701 15.9773C97.1717 15.9773 97.3858 15.9106 97.5122 15.7773C97.6385 15.644 97.7016 15.4685 97.7016 15.251C97.7016 15.0475 97.6527 14.8441 97.5543 14.6405C97.4558 14.437 97.3295 14.2686 97.1753 14.1353C97.028 14.002 96.8701 13.9353 96.7017 13.9353C96.5754 13.9353 96.4528 13.9704 96.3333 14.0406C96.2138 14.1108 96.0912 14.2406 95.9649 14.43C95.8386 14.6195 95.6949 14.8932 95.5334 15.251Z" fill="white"/>
<path d="M106.203 17.0614C104.954 17.0614 104.01 16.9 103.372 16.5772C102.734 16.2474 102.414 15.6966 102.414 14.9247C102.414 14.6651 102.446 14.3915 102.509 14.1038C102.572 13.809 102.639 13.5319 102.709 13.2722L103.498 13.4722C103.456 13.6266 103.407 13.8231 103.351 14.0616C103.302 14.3002 103.277 14.5072 103.277 14.6827C103.277 15.0475 103.368 15.3422 103.551 15.5668C103.74 15.7843 104.067 15.9457 104.53 16.051C104.993 16.1492 105.642 16.1983 106.477 16.1983C106.905 16.1983 107.357 16.1737 107.835 16.1246C108.312 16.0685 108.786 15.9738 109.256 15.8405C109.733 15.7001 110.186 15.5142 110.613 15.2826C111.041 15.044 111.417 14.7388 111.74 14.3669L112.403 14.7563C112.34 14.9177 112.297 15.0475 112.276 15.1458C112.255 15.237 112.245 15.3212 112.245 15.3984C112.245 15.5036 112.283 15.6054 112.361 15.7036C112.438 15.8019 112.582 15.8826 112.792 15.9457C113.003 16.0019 113.308 16.0299 113.708 16.0299C113.855 16.0299 113.96 16.072 114.024 16.1562C114.094 16.2334 114.129 16.3281 114.129 16.4404C114.129 16.5527 114.08 16.6579 113.982 16.7562C113.883 16.8474 113.757 16.893 113.603 16.893C112.985 16.893 112.476 16.8018 112.076 16.6193C111.683 16.4369 111.483 16.1387 111.476 15.7247C110.894 16.1737 110.14 16.5106 109.214 16.7351C108.287 16.9526 107.284 17.0614 106.203 17.0614ZM107.266 12.325C107.14 12.325 106.989 12.3214 106.814 12.3144C106.645 12.3004 106.484 12.2864 106.33 12.2723C106.175 12.2583 106.06 12.2477 105.982 12.2407L106.003 11.6303C106.045 11.6373 106.091 11.6443 106.14 11.6513C106.189 11.6513 106.242 11.6548 106.298 11.6618C106.368 11.5355 106.445 11.4162 106.53 11.304L106.477 9.59886H107.056L107.108 10.7146C107.235 10.6234 107.365 10.5531 107.498 10.504C107.638 10.4479 107.778 10.4198 107.919 10.4198C108.178 10.4198 108.386 10.5005 108.54 10.6619C108.701 10.8233 108.782 11.0233 108.782 11.2619C108.782 11.4022 108.74 11.5566 108.656 11.725C108.578 11.8864 108.431 12.0267 108.214 12.146C107.996 12.2653 107.68 12.325 107.266 12.325ZM107.835 11.0408C107.708 11.0408 107.586 11.0794 107.466 11.1566C107.347 11.2338 107.235 11.325 107.129 11.4303C107.031 11.5355 106.954 11.6267 106.898 11.7039C107.01 11.7109 107.108 11.7145 107.193 11.7145C107.536 11.7145 107.786 11.6794 107.94 11.6092C108.094 11.532 108.171 11.4338 108.171 11.3145C108.171 11.2233 108.14 11.1566 108.077 11.1145C108.014 11.0654 107.933 11.0408 107.835 11.0408ZM113.6 16.893L113.695 16.0299C114.095 16.0299 114.376 15.9913 114.537 15.9141C114.698 15.8369 114.789 15.7036 114.81 15.5142C114.839 15.3177 114.846 15.0405 114.831 14.6827L114.631 9.3252H115.484L115.695 14.5879C115.716 15.0861 115.681 15.5072 115.589 15.851C115.505 16.1948 115.309 16.4545 115 16.6299C114.698 16.8053 114.232 16.893 113.6 16.893ZM117.303 16.8404L117.092 9.3252H117.945L118.155 16.8404H117.303ZM119.453 19.2612L119.263 18.3981C119.713 18.342 120.119 18.2578 120.484 18.1455C120.849 18.0333 121.161 17.8719 121.421 17.6614C121.681 17.4508 121.874 17.1702 122 16.8193C121.874 16.8544 121.74 16.8789 121.6 16.893C121.46 16.914 121.323 16.9246 121.189 16.9246C120.649 16.9246 120.235 16.8158 119.947 16.5983C119.66 16.3808 119.516 16.044 119.516 15.5878C119.516 15.3212 119.558 15.0546 119.642 14.7879C119.726 14.5142 119.846 14.2652 120 14.0406C120.155 13.816 120.34 13.6371 120.558 13.5038C120.776 13.3634 121.018 13.2933 121.284 13.2933C121.663 13.2933 121.976 13.4196 122.221 13.6722C122.473 13.9178 122.66 14.2371 122.779 14.63C122.905 15.023 122.968 15.4405 122.968 15.8826C122.968 16.8649 122.67 17.6403 122.073 18.2087C121.484 18.7771 120.61 19.1279 119.453 19.2612ZM120.347 15.3773C120.347 15.5948 120.418 15.7703 120.558 15.9036C120.698 16.0299 120.94 16.0931 121.284 16.0931C121.586 16.0931 121.874 16.051 122.147 15.9668C122.147 15.9247 122.147 15.8756 122.147 15.8194C122.147 15.5317 122.109 15.2616 122.031 15.0089C121.955 14.7493 121.846 14.5423 121.705 14.3879C121.565 14.2336 121.397 14.1564 121.2 14.1564C121.031 14.1564 120.884 14.2195 120.758 14.3458C120.632 14.4651 120.53 14.6195 120.453 14.809C120.383 14.9984 120.347 15.1879 120.347 15.3773Z" fill="white"/>
<path d="M130.724 17.0088C130.184 17.0088 129.676 16.9105 129.198 16.7141C128.721 16.5176 128.3 16.2439 127.935 15.8931C127.577 15.5352 127.293 15.1177 127.083 14.6406C126.879 14.1564 126.777 13.6336 126.777 13.0723C126.777 12.5109 126.879 11.9917 127.083 11.5145C127.293 11.0303 127.577 10.6128 127.935 10.262C128.3 9.9041 128.721 9.62691 129.198 9.43045C129.676 9.234 130.184 9.13574 130.724 9.13574C131.3 9.13574 131.83 9.23747 132.314 9.44098C132.805 9.64449 133.215 9.92868 133.545 10.2935L132.745 11.083C132.584 10.9005 132.398 10.7461 132.187 10.6198C131.984 10.4935 131.76 10.3988 131.514 10.3356C131.268 10.2655 131.005 10.2304 130.724 10.2304C130.352 10.2304 129.998 10.2971 129.661 10.4304C129.325 10.5637 129.026 10.7567 128.767 11.0093C128.514 11.2549 128.314 11.5531 128.167 11.9039C128.019 12.2478 127.946 12.6372 127.946 13.0723C127.946 13.5073 128.019 13.9002 128.167 14.2511C128.321 14.5949 128.525 14.8932 128.777 15.1458C129.037 15.3914 129.335 15.5808 129.672 15.7142C130.009 15.8475 130.363 15.9141 130.735 15.9141C131.079 15.9141 131.398 15.865 131.693 15.7668C131.994 15.6685 132.257 15.5282 132.482 15.3458C132.707 15.1633 132.889 14.9423 133.029 14.6827C133.17 14.416 133.257 14.1178 133.293 13.788H130.714V12.767H134.377C134.391 12.8512 134.405 12.9495 134.419 13.0617C134.433 13.167 134.44 13.2687 134.44 13.367V13.3775C134.44 13.9178 134.345 14.4125 134.156 14.8616C133.973 15.3107 133.717 15.6966 133.387 16.0194C133.057 16.3352 132.665 16.5808 132.208 16.7562C131.76 16.9246 131.265 17.0088 130.724 17.0088ZM137.829 17.0088C137.275 17.0088 136.787 16.8825 136.366 16.6299C135.945 16.3773 135.615 16.0369 135.377 15.6089C135.138 15.1738 135.019 14.6897 135.019 14.1564C135.019 13.6231 135.138 13.1424 135.377 12.7144C135.615 12.2793 135.945 11.9355 136.366 11.6829C136.787 11.4303 137.275 11.304 137.829 11.304C138.376 11.304 138.861 11.4338 139.282 11.6934C139.703 11.946 140.033 12.2864 140.271 12.7144C140.509 13.1424 140.629 13.6231 140.629 14.1564C140.629 14.6897 140.509 15.1738 140.271 15.6089C140.033 16.0369 139.703 16.3773 139.282 16.6299C138.861 16.8825 138.376 17.0088 137.829 17.0088ZM137.829 15.9668C138.124 15.9668 138.397 15.8966 138.65 15.7563C138.903 15.6089 139.106 15.4019 139.261 15.1353C139.422 14.8616 139.503 14.5353 139.503 14.1564C139.503 13.7775 139.422 13.4547 139.261 13.188C139.106 12.9144 138.903 12.7074 138.65 12.567C138.397 12.4197 138.124 12.346 137.829 12.346C137.534 12.346 137.257 12.4197 136.998 12.567C136.745 12.7074 136.538 12.9144 136.377 13.188C136.222 13.4547 136.145 13.7775 136.145 14.1564C136.145 14.5353 136.222 14.8616 136.377 15.1353C136.538 15.4019 136.749 15.6089 137.008 15.7563C137.268 15.8966 137.541 15.9668 137.829 15.9668ZM144.202 17.0088C143.648 17.0088 143.16 16.8825 142.739 16.6299C142.318 16.3773 141.988 16.0369 141.749 15.6089C141.511 15.1738 141.391 14.6897 141.391 14.1564C141.391 13.6231 141.511 13.1424 141.749 12.7144C141.988 12.2793 142.318 11.9355 142.739 11.6829C143.16 11.4303 143.648 11.304 144.202 11.304C144.749 11.304 145.233 11.4338 145.654 11.6934C146.075 11.946 146.405 12.2864 146.644 12.7144C146.883 13.1424 147.001 13.6231 147.001 14.1564C147.001 14.6897 146.883 15.1738 146.644 15.6089C146.405 16.0369 146.075 16.3773 145.654 16.6299C145.233 16.8825 144.749 17.0088 144.202 17.0088ZM144.202 15.9668C144.496 15.9668 144.77 15.8966 145.023 15.7563C145.275 15.6089 145.479 15.4019 145.633 15.1353C145.795 14.8616 145.875 14.5353 145.875 14.1564C145.875 13.7775 145.795 13.4547 145.633 13.188C145.479 12.9144 145.275 12.7074 145.023 12.567C144.77 12.4197 144.496 12.346 144.202 12.346C143.907 12.346 143.63 12.4197 143.37 12.567C143.118 12.7074 142.911 12.9144 142.749 13.188C142.595 13.4547 142.518 13.7775 142.518 14.1564C142.518 14.5353 142.595 14.8616 142.749 15.1353C142.911 15.4019 143.121 15.6089 143.381 15.7563C143.641 15.8966 143.914 15.9668 144.202 15.9668ZM150.47 19.2823C149.999 19.2823 149.592 19.2051 149.249 19.0507C148.912 18.9034 148.638 18.7104 148.428 18.4718C148.217 18.2403 148.066 18.0017 147.975 17.7561L149.028 17.314C149.14 17.5947 149.319 17.8228 149.564 17.9982C149.817 18.1806 150.119 18.2718 150.47 18.2718C150.967 18.2718 151.357 18.1245 151.638 17.8298C151.918 17.5351 152.059 17.1176 152.059 16.5772V16.0615H151.996C151.827 16.3071 151.596 16.5071 151.301 16.6614C151.006 16.8158 150.666 16.893 150.28 16.893C149.824 16.893 149.403 16.7772 149.017 16.5457C148.638 16.3141 148.333 15.9913 148.101 15.5773C147.877 15.1563 147.765 14.6651 147.765 14.1038C147.765 13.5354 147.877 13.0442 148.101 12.6302C148.333 12.2092 148.638 11.8829 149.017 11.6513C149.403 11.4198 149.824 11.304 150.28 11.304C150.666 11.304 151.006 11.3812 151.301 11.5355C151.596 11.6829 151.827 11.8864 151.996 12.146H152.059V11.4724H153.143V16.5562C153.143 17.1386 153.027 17.6333 152.796 18.0403C152.571 18.4472 152.259 18.756 151.859 18.9665C151.459 19.177 150.996 19.2823 150.47 19.2823ZM150.48 15.8615C150.761 15.8615 151.02 15.7948 151.259 15.6615C151.504 15.5212 151.697 15.3212 151.838 15.0616C151.985 14.7949 152.059 14.4757 152.059 14.1038C152.059 13.7108 151.985 13.3845 151.838 13.1249C151.697 12.8653 151.504 12.6688 151.259 12.5355C151.02 12.4022 150.761 12.3355 150.48 12.3355C150.199 12.3355 149.936 12.4022 149.691 12.5355C149.452 12.6688 149.259 12.8688 149.112 13.1354C148.964 13.395 148.891 13.7178 148.891 14.1038C148.891 14.4827 148.964 14.8054 149.112 15.0721C149.259 15.3317 149.452 15.5282 149.691 15.6615C149.936 15.7948 150.199 15.8615 150.48 15.8615ZM154.483 16.8404V9.30415H155.62V16.8404H154.483ZM159.362 17.0088C158.835 17.0088 158.365 16.886 157.951 16.6404C157.537 16.3948 157.211 16.058 156.972 15.6299C156.741 15.2019 156.625 14.7142 156.625 14.1669C156.625 13.6547 156.737 13.181 156.962 12.746C157.186 12.3109 157.499 11.9636 157.898 11.704C158.305 11.4373 158.772 11.304 159.298 11.304C159.853 11.304 160.322 11.4233 160.709 11.6619C161.101 11.9004 161.4 12.2267 161.603 12.6407C161.807 13.0547 161.909 13.5213 161.909 14.0406C161.909 14.1178 161.905 14.188 161.898 14.2511C161.898 14.3143 161.894 14.3634 161.888 14.3985H157.741C157.768 14.6932 157.842 14.9493 157.962 15.1668C158.116 15.4405 158.32 15.6475 158.572 15.7878C158.825 15.9282 159.098 15.9983 159.393 15.9983C159.751 15.9983 160.049 15.9177 160.288 15.7563C160.533 15.5878 160.726 15.3809 160.867 15.1353L161.803 15.5878C161.572 16.0089 161.256 16.3527 160.856 16.6193C160.456 16.879 159.958 17.0088 159.362 17.0088ZM157.804 13.5459H160.782C160.775 13.4126 160.74 13.2722 160.677 13.1249C160.614 12.9705 160.522 12.8302 160.404 12.7039C160.284 12.5776 160.133 12.4758 159.951 12.3986C159.768 12.3144 159.554 12.2723 159.309 12.2723C159 12.2723 158.726 12.353 158.488 12.5144C158.249 12.6688 158.063 12.8863 157.93 13.167C157.874 13.2863 157.832 13.4126 157.804 13.5459Z" fill="white"/>
</g>
<defs>
<clipPath id="clip0_568_1006">
<rect width="173.67" height="26.3136" fill="white"/>
</clipPath>
</defs>
</svg>
