<svg width="174" height="25" viewBox="0 0 174 25" fill="none" xmlns="http://www.w3.org/2000/svg">
<g clip-path="url(#clip0_568_159)">
<path d="M161.441 0.244141H12.2318C5.61226 0.244141 0.246094 5.61031 0.246094 12.2298C0.246094 18.8493 5.61226 24.2155 12.2318 24.2155H161.441C168.061 24.2155 173.427 18.8493 173.427 12.2298C173.427 5.61031 168.061 0.244141 161.441 0.244141Z" fill="#1F1F1F"/>
<path d="M24.9498 10.7622H10.2734V8.31617C10.2734 6.98831 11.3506 5.87012 12.6297 5.87012H22.5935C23.8726 5.87012 24.9498 6.98831 24.9498 8.31617V10.7622Z" fill="#34A853"/>
<path d="M24.9498 12.7456H10.2734V10.2996C10.2734 8.97171 11.3506 7.85352 12.6297 7.85352H22.5935C23.8726 7.85352 24.9498 8.97171 24.9498 10.2996V12.7456Z" fill="#FBBC04"/>
<path d="M24.9498 14.7974H10.2734V12.3513C10.2734 11.0235 11.3506 9.90527 12.6297 9.90527H22.5935C23.8726 9.90527 24.9498 11.0235 24.9498 12.3513V14.7974Z" fill="#EA4335"/>
<path d="M10.2734 11.3866L19.5886 13.5409C20.6608 13.8102 21.8671 13.5409 22.7383 12.8677L24.9498 11.252V16.3012C24.9498 17.5803 23.8775 18.5901 22.6043 18.5901H12.619C11.3457 18.5901 10.2734 17.5803 10.2734 16.3012V11.3866Z" fill="url(#paint0_linear_568_159)"/>
<path d="M31.1836 17.1421V14.6374H31.8C31.95 14.3895 32.0707 14.0699 32.162 13.6785C32.2599 13.2806 32.3283 12.8436 32.3675 12.3674C32.4131 11.8913 32.436 11.4118 32.436 10.9291V8.64941H36.9269V14.6374H37.7488V17.1421H36.7019V15.6549H32.2305V17.1421H31.1836ZM32.9741 14.6374H35.8507V9.66697H33.4829V11.0857C33.4829 11.7967 33.4372 12.4522 33.3459 13.0523C33.2611 13.6524 33.1372 14.1612 32.9741 14.5787V14.6374ZM40.9715 15.8115C40.4562 15.8115 40.0028 15.6941 39.6115 15.4592C39.2201 15.2244 38.9135 14.908 38.6918 14.5102C38.47 14.1123 38.3591 13.6622 38.3591 13.1599C38.3591 12.6642 38.47 12.2174 38.6918 11.8195C38.9135 11.4151 39.2201 11.0955 39.6115 10.8606C40.0028 10.6258 40.4562 10.5084 40.9715 10.5084C41.4803 10.5084 41.9303 10.6258 42.3217 10.8606C42.7131 11.0955 43.0197 11.4151 43.2414 11.8195C43.4632 12.2174 43.5741 12.6642 43.5741 13.1599C43.5741 13.6622 43.4632 14.1123 43.2414 14.5102C43.0197 14.908 42.7131 15.2244 42.3217 15.4592C41.9303 15.6941 41.4803 15.8115 40.9715 15.8115ZM40.9715 14.8428C41.2454 14.8428 41.4998 14.7776 41.7347 14.6471C41.9695 14.5102 42.1587 14.3178 42.3021 14.0699C42.4522 13.8155 42.5272 13.5122 42.5272 13.1599C42.5272 12.8077 42.4522 12.5077 42.3021 12.2598C42.1587 12.0054 41.9695 11.813 41.7347 11.6825C41.4998 11.5455 41.2454 11.4771 40.9715 11.4771C40.6975 11.4771 40.4399 11.5455 40.1985 11.6825C39.9637 11.813 39.7713 12.0054 39.6213 12.2598C39.4778 12.5077 39.406 12.8077 39.406 13.1599C39.406 13.5122 39.4778 13.8155 39.6213 14.0699C39.7713 14.3178 39.9637 14.5102 40.1985 14.6471C40.4399 14.7776 40.6975 14.8428 40.9715 14.8428ZM46.9151 15.8115C46.4259 15.8115 45.9921 15.7006 45.6138 15.4788C45.242 15.2505 44.9485 14.908 44.7332 14.4515C44.518 13.9883 44.4103 13.4078 44.4103 12.7099C44.4103 11.9989 44.4821 11.4118 44.6256 10.9487C44.7691 10.4791 45.0072 10.1008 45.3399 9.81374C45.5485 9.63762 45.8062 9.49086 46.1128 9.37345C46.4259 9.25604 46.814 9.16147 47.2771 9.0897C47.5185 9.05057 47.6946 9.01143 47.8055 8.97229C47.9163 8.93316 47.9848 8.88751 48.0109 8.83531C48.0435 8.78312 48.0599 8.72118 48.0599 8.64941H49.0188C49.0188 8.94294 48.9733 9.17776 48.8817 9.35388C48.7969 9.52349 48.6404 9.65391 48.4121 9.74525C48.1903 9.83658 47.874 9.91158 47.463 9.97028C47.0325 10.0355 46.7031 10.1138 46.4748 10.2051C46.253 10.2964 46.0704 10.4008 45.9269 10.5182C45.6073 10.7791 45.4116 11.1509 45.3399 11.6336H45.3986C45.5485 11.4053 45.7704 11.2162 46.0639 11.0661C46.3639 10.9096 46.7096 10.8313 47.101 10.8313C47.5641 10.8313 47.9718 10.9389 48.324 11.1542C48.6763 11.3629 48.9503 11.6499 49.146 12.0152C49.348 12.3805 49.4493 12.7946 49.4493 13.2578C49.4493 13.7405 49.3416 14.1775 49.1264 14.5689C48.9176 14.9537 48.6208 15.257 48.236 15.4788C47.8576 15.7006 47.4173 15.8115 46.9151 15.8115ZM46.9249 14.8624C47.3423 14.8624 47.6913 14.7189 47.9718 14.4319C48.2523 14.1449 48.3925 13.747 48.3925 13.2382C48.3925 12.7751 48.2523 12.4131 47.9718 12.1522C47.6913 11.8913 47.3423 11.7608 46.9249 11.7608C46.5205 11.7608 46.1747 11.8913 45.8878 12.1522C45.6073 12.4131 45.467 12.7751 45.467 13.2382C45.467 13.747 45.604 14.1449 45.878 14.4319C46.1584 14.7189 46.5074 14.8624 46.9249 14.8624ZM51.9795 15.8115C51.6209 15.8115 51.3009 15.743 51.0206 15.606C50.7403 15.4625 50.5216 15.2635 50.3651 15.0092C50.2085 14.7548 50.1303 14.4645 50.1303 14.1384C50.1303 13.7861 50.2217 13.4861 50.4042 13.2382C50.5935 12.9838 50.8445 12.7914 51.1576 12.6609C51.4707 12.5305 51.8166 12.4653 52.1947 12.4653C52.5078 12.4653 52.7818 12.4946 53.0166 12.5533C53.2578 12.612 53.4407 12.674 53.5645 12.7392V12.475C53.5645 12.1489 53.4471 11.888 53.2123 11.6923C52.9775 11.4966 52.6742 11.3988 52.3024 11.3988C52.048 11.3988 51.8068 11.4575 51.5783 11.5749C51.3499 11.6858 51.1674 11.8391 51.0304 12.0348L50.3064 11.4771C50.5216 11.177 50.8054 10.9422 51.1576 10.7726C51.5162 10.5965 51.9076 10.5084 52.3317 10.5084C53.0557 10.5084 53.6134 10.6878 54.0048 11.0465C54.3962 11.3988 54.5919 11.8945 54.5919 12.5338V15.6549H53.5645V15.0385H53.5058C53.3752 15.2407 53.1795 15.4201 52.9188 15.5766C52.658 15.7332 52.3449 15.8115 51.9795 15.8115ZM52.1654 14.9505C52.4393 14.9505 52.6805 14.8852 52.8894 14.7548C53.0983 14.6243 53.2612 14.4547 53.3786 14.246C53.5024 14.0307 53.5645 13.7992 53.5645 13.5513C53.4143 13.4665 53.2382 13.398 53.0362 13.3458C52.8341 13.2871 52.6189 13.2578 52.3904 13.2578C51.9599 13.2578 51.6532 13.3458 51.4707 13.522C51.2882 13.6916 51.1967 13.9003 51.1967 14.1481C51.1967 14.383 51.2848 14.5754 51.4609 14.7254C51.637 14.8755 51.8718 14.9505 52.1654 14.9505ZM55.7552 15.6549V10.665H58.2306C58.5241 10.665 58.7849 10.7237 59.0134 10.8411C59.2482 10.952 59.4307 11.1053 59.5613 11.3009C59.6982 11.4966 59.7667 11.7152 59.7667 11.9565C59.7667 12.2174 59.708 12.4424 59.5906 12.6316C59.4796 12.8208 59.3328 12.961 59.1503 13.0523V13.111C59.3984 13.2089 59.594 13.3556 59.7374 13.5513C59.8876 13.747 59.9624 13.972 59.9624 14.2264C59.9624 14.5199 59.8841 14.7743 59.7276 14.9896C59.5774 15.2048 59.3817 15.3712 59.1405 15.4886C58.8994 15.5995 58.6416 15.6549 58.3676 15.6549H55.7552ZM56.8119 11.526V12.7001H58.1034C58.2795 12.7001 58.4263 12.6447 58.5437 12.5338C58.6611 12.4228 58.7198 12.2826 58.7198 12.113C58.7198 11.9369 58.6611 11.7967 58.5437 11.6923C58.4263 11.5814 58.2795 11.526 58.1034 11.526H56.8119ZM56.8119 14.7743H58.26C58.4493 14.7743 58.6058 14.7156 58.7296 14.5982C58.8602 14.4743 58.9253 14.3178 58.9253 14.1286C58.9253 13.946 58.8602 13.7926 58.7296 13.6687C58.6058 13.5448 58.4493 13.4828 58.26 13.4828H56.8119V14.7743ZM60.9438 15.6549V10.665H62.0005V13.2186L61.9418 14.1579H62.0005L64.4954 10.665H65.5424V15.6549H64.4954V13.111L64.5542 12.1717H64.4954L62.0005 15.6549H60.9438ZM68.0535 15.6549V11.5847H66.4097V10.665H70.7441V11.5847H69.1004V15.6549H68.0535ZM72.6633 10.665V12.3283H73.8081C74.1476 12.3283 74.4509 12.4 74.718 12.5435C74.992 12.687 75.2072 12.886 75.3638 13.1404C75.5203 13.3883 75.5986 13.672 75.5986 13.9916C75.5986 14.3112 75.5203 14.5949 75.3638 14.8428C75.2072 15.0907 74.992 15.2896 74.718 15.4397C74.4509 15.5832 74.1476 15.6549 73.8081 15.6549H71.6066V10.665H72.6633ZM72.6633 14.7743H73.72C73.9548 14.7743 74.1505 14.6993 74.3071 14.5493C74.4636 14.3993 74.5419 14.2134 74.5419 13.9916C74.5419 13.7698 74.4636 13.5839 74.3071 13.4339C74.1505 13.2774 73.9548 13.1991 73.72 13.1991H72.6633V14.7743ZM78.7633 15.6549V10.665H81.2387C81.5322 10.665 81.7935 10.7237 82.0214 10.8411C82.2563 10.952 82.4392 11.1053 82.5694 11.3009C82.7063 11.4966 82.7748 11.7152 82.7748 11.9565C82.7748 12.2174 82.7161 12.4424 82.5987 12.6316C82.4882 12.8208 82.3414 12.961 82.1584 13.0523V13.111C82.4065 13.2089 82.6021 13.3556 82.7455 13.5513C82.8957 13.747 82.9705 13.972 82.9705 14.2264C82.9705 14.5199 82.8922 14.7743 82.7357 14.9896C82.586 15.2048 82.3903 15.3712 82.1486 15.4886C81.9075 15.5995 81.6496 15.6549 81.3757 15.6549H78.7633ZM79.82 11.526V12.7001H81.1115C81.2876 12.7001 81.4344 12.6447 81.5518 12.5338C81.6692 12.4228 81.7279 12.2826 81.7279 12.113C81.7279 11.9369 81.6692 11.7967 81.5518 11.6923C81.4344 11.5814 81.2876 11.526 81.1115 11.526H79.82ZM79.82 14.7743H81.2681C81.4574 14.7743 81.6139 14.7156 81.7377 14.5982C81.8683 14.4743 81.9334 14.3178 81.9334 14.1286C81.9334 13.946 81.8683 13.7926 81.7377 13.6687C81.6139 13.5448 81.4574 13.4828 81.2681 13.4828H79.82V14.7743Z" fill="white"/>
<path d="M90.2121 15.8118C89.7096 15.8118 89.2371 15.7204 88.7933 15.5378C88.3565 15.3552 87.968 15.1008 87.629 14.7746C87.29 14.442 87.0224 14.0539 86.8267 13.6103C86.6374 13.1602 86.543 12.6743 86.543 12.1525C86.543 11.6306 86.6374 11.148 86.8267 10.7044C87.0224 10.2543 87.2866 9.86623 87.6192 9.54008C87.9583 9.20741 88.3496 8.94974 88.7933 8.76712C89.2371 8.5845 89.7096 8.49316 90.2121 8.49316C90.7468 8.49316 91.2394 8.58773 91.6895 8.77691C92.1459 8.96608 92.5275 9.23026 92.8342 9.56943L92.0906 10.3032C91.8622 10.0489 91.5882 9.85317 91.2688 9.71619C90.9557 9.57921 90.6034 9.51072 90.2121 9.51072C89.7488 9.51072 89.3217 9.62163 88.9303 9.84339C88.539 10.0586 88.2224 10.3652 87.9813 10.7631C87.7464 11.1545 87.629 11.6176 87.629 12.1525C87.629 12.6873 87.7499 13.1537 87.991 13.5516C88.2322 13.943 88.5487 14.2496 88.9401 14.4713C89.3315 14.6866 89.7586 14.7942 90.2218 14.7942C90.646 14.7942 91.0305 14.7159 91.3764 14.5594C91.7223 14.3963 91.9991 14.168 92.208 13.8745C92.4233 13.581 92.5539 13.2287 92.5994 12.8178H90.2023V11.8687H93.6072C93.6463 12.0448 93.6659 12.2307 93.6659 12.4264V12.4362C93.6659 13.1146 93.5157 13.7082 93.2158 14.2169C92.9223 14.7192 92.5148 15.1106 91.9928 15.391C91.4708 15.6715 90.8774 15.8118 90.2121 15.8118ZM96.8164 15.8118C96.3013 15.8118 95.8478 15.6944 95.4564 15.4595C95.065 15.2247 94.7583 14.9083 94.5367 14.5105C94.3151 14.1126 94.204 13.6625 94.204 13.1602C94.204 12.6645 94.3151 12.2177 94.5367 11.8198C94.7583 11.4154 95.065 11.0958 95.4564 10.8609C95.8478 10.6261 96.3013 10.5087 96.8164 10.5087C97.3252 10.5087 97.7753 10.6261 98.1666 10.8609C98.558 11.0958 98.8647 11.4154 99.0863 11.8198C99.308 12.2177 99.419 12.6645 99.419 13.1602C99.419 13.6625 99.308 14.1126 99.0863 14.5105C98.8647 14.9083 98.558 15.2247 98.1666 15.4595C97.7753 15.6944 97.3252 15.8118 96.8164 15.8118ZM96.8164 14.8431C97.0904 14.8431 97.3448 14.7779 97.5796 14.6474C97.8144 14.5105 98.0037 14.3181 98.1471 14.0702C98.2972 13.8158 98.3721 13.5125 98.3721 13.1602C98.3721 12.808 98.2972 12.508 98.1471 12.2601C98.0037 12.0057 97.8144 11.8133 97.5796 11.6828C97.3448 11.5458 97.0904 11.4774 96.8164 11.4774C96.5424 11.4774 96.2846 11.5458 96.0435 11.6828C95.8086 11.8133 95.6164 12.0057 95.4662 12.2601C95.3228 12.508 95.2509 12.808 95.2509 13.1602C95.2509 13.5125 95.3228 13.8158 95.4662 14.0702C95.6164 14.3181 95.8086 14.5105 96.0435 14.6474C96.2846 14.7779 96.5424 14.8431 96.8164 14.8431ZM102.74 15.8118C102.225 15.8118 101.772 15.6944 101.38 15.4595C100.989 15.2247 100.683 14.9083 100.461 14.5105C100.239 14.1126 100.128 13.6625 100.128 13.1602C100.128 12.6645 100.239 12.2177 100.461 11.8198C100.683 11.4154 100.989 11.0958 101.38 10.8609C101.772 10.6261 102.225 10.5087 102.74 10.5087C103.249 10.5087 103.699 10.6261 104.09 10.8609C104.482 11.0958 104.789 11.4154 105.01 11.8198C105.232 12.2177 105.343 12.6645 105.343 13.1602C105.343 13.6625 105.232 14.1126 105.01 14.5105C104.789 14.9083 104.482 15.2247 104.09 15.4595C103.699 15.6944 103.249 15.8118 102.74 15.8118ZM102.74 14.8431C103.014 14.8431 103.269 14.7779 103.503 14.6474C103.738 14.5105 103.928 14.3181 104.071 14.0702C104.221 13.8158 104.296 13.5125 104.296 13.1602C104.296 12.808 104.221 12.508 104.071 12.2601C103.928 12.0057 103.738 11.8133 103.503 11.6828C103.269 11.5458 103.014 11.4774 102.74 11.4774C102.466 11.4774 102.209 11.5458 101.967 11.6828C101.732 11.8133 101.54 12.0057 101.39 12.2601C101.247 12.508 101.175 12.808 101.175 13.1602C101.175 13.5125 101.247 13.8158 101.39 14.0702C101.54 14.3181 101.732 14.5105 101.967 14.6474C102.209 14.7779 102.466 14.8431 102.74 14.8431ZM108.567 17.9252C108.129 17.9252 107.751 17.8534 107.432 17.7099C107.119 17.5729 106.864 17.3935 106.669 17.1718C106.473 16.9565 106.333 16.7348 106.248 16.5064L107.226 16.0955C107.331 16.3564 107.497 16.5684 107.725 16.7315C107.96 16.9011 108.24 16.9859 108.567 16.9859C109.023 16.9859 109.382 16.8489 109.643 16.5749C109.91 16.301 110.044 15.9129 110.044 15.4106V14.9312H109.985C109.829 15.166 109.61 15.3552 109.33 15.4987C109.056 15.6356 108.743 15.7041 108.391 15.7041C107.967 15.7041 107.579 15.5965 107.226 15.3813C106.874 15.166 106.59 14.866 106.375 14.4811C106.16 14.0897 106.052 13.6332 106.052 13.1113C106.052 12.583 106.16 12.1264 106.375 11.7415C106.59 11.3502 106.874 11.0468 107.226 10.8316C107.579 10.6163 107.967 10.5087 108.391 10.5087C108.743 10.5087 109.056 10.5805 109.33 10.724C109.61 10.8675 109.829 11.0566 109.985 11.2915H110.044V10.6653H111.052V15.391C111.052 15.9325 110.944 16.3923 110.729 16.7706C110.52 17.1489 110.23 17.4359 109.858 17.6316C109.486 17.8273 109.056 17.9252 108.567 17.9252ZM108.577 14.7453C108.837 14.7453 109.078 14.6833 109.301 14.5594C109.522 14.4289 109.702 14.243 109.839 14.0017C109.976 13.7538 110.044 13.457 110.044 13.1113C110.044 12.7526 109.976 12.4525 109.839 12.2112C109.702 11.9633 109.522 11.7774 109.301 11.6535C109.078 11.5296 108.837 11.4676 108.577 11.4676C108.315 11.4676 108.071 11.5328 107.843 11.6633C107.621 11.7872 107.442 11.9698 107.305 12.2112C107.168 12.4525 107.099 12.7526 107.099 13.1113C107.099 13.4635 107.168 13.7636 107.305 14.0115C107.442 14.2528 107.621 14.4355 107.843 14.5594C108.071 14.6833 108.315 14.7453 108.577 14.7453ZM112.298 15.6552V8.64971H113.355V15.6552H112.298ZM116.832 15.8118C116.343 15.8118 115.906 15.6976 115.521 15.4693C115.136 15.241 114.833 14.9279 114.611 14.53C114.396 14.1322 114.289 13.6788 114.289 13.17C114.289 12.6939 114.393 12.2536 114.602 11.8492C114.81 11.4447 115.101 11.1218 115.472 10.8805C115.851 10.6326 116.285 10.5087 116.774 10.5087C117.289 10.5087 117.726 10.6196 118.085 10.8414C118.45 11.0631 118.727 11.3664 118.917 11.7513C119.105 12.1362 119.2 12.5699 119.2 13.0526C119.2 13.1244 119.197 13.1896 119.19 13.2483C119.19 13.307 119.187 13.3526 119.181 13.3853H115.326C115.378 13.881 115.551 14.2528 115.844 14.5007C116.144 14.7486 116.483 14.8725 116.862 14.8725C117.201 14.8725 117.481 14.7975 117.703 14.6474C117.925 14.4909 118.101 14.2985 118.232 14.0702L119.102 14.4909C118.887 14.8823 118.594 15.2019 118.222 15.4497C117.85 15.6911 117.387 15.8118 116.832 15.8118ZM116.784 11.4089C116.431 11.4089 116.131 11.5165 115.883 11.7317C115.635 11.947 115.469 12.234 115.384 12.5928H118.153C118.14 12.4231 118.085 12.247 117.987 12.0644C117.889 11.8818 117.739 11.7285 117.537 11.6045C117.341 11.4741 117.09 11.4089 116.784 11.4089ZM122.64 15.6552V8.64971H123.716V12.0448H123.775L126.563 8.64971H127.914V8.70842L124.959 12.2112L128.07 15.5965V15.6552H126.661L123.775 12.446H123.716V15.6552H122.64ZM130.755 15.8118C130.24 15.8118 129.787 15.6944 129.395 15.4595C129.004 15.2247 128.697 14.9083 128.476 14.5105C128.254 14.1126 128.143 13.6625 128.143 13.1602C128.143 12.6645 128.254 12.2177 128.476 11.8198C128.697 11.4154 129.004 11.0958 129.395 10.8609C129.787 10.6261 130.24 10.5087 130.755 10.5087C131.264 10.5087 131.714 10.6261 132.106 10.8609C132.497 11.0958 132.804 11.4154 133.025 11.8198C133.247 12.2177 133.358 12.6645 133.358 13.1602C133.358 13.6625 133.247 14.1126 133.025 14.5105C132.804 14.9083 132.497 15.2247 132.106 15.4595C131.714 15.6944 131.264 15.8118 130.755 15.8118ZM130.755 14.8431C131.029 14.8431 131.284 14.7779 131.519 14.6474C131.753 14.5105 131.943 14.3181 132.086 14.0702C132.236 13.8158 132.311 13.5125 132.311 13.1602C132.311 12.808 132.236 12.508 132.086 12.2601C131.943 12.0057 131.753 11.8133 131.519 11.6828C131.284 11.5458 131.029 11.4774 130.755 11.4774C130.481 11.4774 130.224 11.5458 129.982 11.6828C129.748 11.8133 129.555 12.0057 129.405 12.2601C129.262 12.508 129.19 12.808 129.19 13.1602C129.19 13.5125 129.262 13.8158 129.405 14.0702C129.555 14.3181 129.748 14.5105 129.982 14.6474C130.224 14.7779 130.481 14.8431 130.755 14.8431ZM134.236 15.6552V10.6653H135.283V14.7355H136.926V10.6653H137.973V14.7355H139.617V10.6653H140.664V15.6552H134.236ZM144.14 15.8118C143.651 15.8118 143.214 15.6976 142.829 15.4693C142.444 15.241 142.141 14.9279 141.919 14.53C141.704 14.1322 141.596 13.6788 141.596 13.17C141.596 12.6939 141.701 12.2536 141.909 11.8492C142.118 11.4447 142.408 11.1218 142.78 10.8805C143.158 10.6326 143.592 10.5087 144.082 10.5087C144.597 10.5087 145.034 10.6196 145.393 10.8414C145.758 11.0631 146.035 11.3664 146.224 11.7513C146.414 12.1362 146.508 12.5699 146.508 13.0526C146.508 13.1244 146.505 13.1896 146.498 13.2483C146.498 13.307 146.495 13.3526 146.488 13.3853H142.633C142.686 13.881 142.859 14.2528 143.152 14.5007C143.452 14.7486 143.791 14.8725 144.17 14.8725C144.509 14.8725 144.789 14.7975 145.011 14.6474C145.233 14.4909 145.409 14.2985 145.539 14.0702L146.41 14.4909C146.195 14.8823 145.901 15.2019 145.53 15.4497C145.158 15.6911 144.695 15.8118 144.14 15.8118ZM144.091 11.4089C143.739 11.4089 143.439 11.5165 143.191 11.7317C142.943 11.947 142.777 12.234 142.692 12.5928H145.461C145.448 12.4231 145.393 12.247 145.295 12.0644C145.197 11.8818 145.047 11.7285 144.845 11.6045C144.649 11.4741 144.398 11.4089 144.091 11.4089ZM147.471 15.7335C147.321 15.7335 147.177 15.7172 147.04 15.6846V14.7061C147.132 14.7518 147.233 14.7746 147.344 14.7746C147.566 14.7746 147.722 14.6899 147.813 14.5202C147.905 14.3441 147.96 14.1224 147.98 13.8549C147.999 13.5875 148.009 13.3103 148.009 13.0233V10.6653H151.825V15.6552H150.778V11.585H149.007V13.1896C149.007 13.5288 148.984 13.8516 148.938 14.1582C148.899 14.4583 148.824 14.729 148.713 14.9703C148.603 15.2051 148.446 15.391 148.244 15.528C148.048 15.665 147.791 15.7335 147.471 15.7335ZM155.3 15.8118C154.811 15.8118 154.374 15.6976 153.989 15.4693C153.605 15.241 153.301 14.9279 153.079 14.53C152.864 14.1322 152.756 13.6788 152.756 13.17C152.756 12.6939 152.861 12.2536 153.069 11.8492C153.278 11.4447 153.568 11.1218 153.94 10.8805C154.319 10.6326 154.752 10.5087 155.241 10.5087C155.757 10.5087 156.194 10.6196 156.553 10.8414C156.918 11.0631 157.195 11.3664 157.384 11.7513C157.574 12.1362 157.668 12.5699 157.668 13.0526C157.668 13.1244 157.665 13.1896 157.658 13.2483C157.658 13.307 157.655 13.3526 157.648 13.3853H153.793C153.846 13.881 154.018 14.2528 154.312 14.5007C154.612 14.7486 154.951 14.8725 155.329 14.8725C155.669 14.8725 155.949 14.7975 156.171 14.6474C156.393 14.4909 156.569 14.2985 156.699 14.0702L157.57 14.4909C157.355 14.8823 157.061 15.2019 156.689 15.4497C156.318 15.6911 155.855 15.8118 155.3 15.8118ZM155.251 11.4089C154.899 11.4089 154.599 11.5165 154.351 11.7317C154.104 11.947 153.937 12.234 153.852 12.5928H156.621C156.608 12.4231 156.553 12.247 156.455 12.0644C156.357 11.8818 156.207 11.7285 156.005 11.6045C155.809 11.4741 155.558 11.4089 155.251 11.4089ZM158.648 15.6552V10.6653H159.705V12.8765H159.764L161.721 10.6653H162.934V10.724L160.85 13.0037L163.012 15.5965V15.6552H161.76L159.764 13.1994H159.705V15.6552H158.648Z" fill="white"/>
<path d="M161.441 0.244141H12.2318C5.61226 0.244141 0.246094 5.61031 0.246094 12.2298C0.246094 18.8493 5.61226 24.2155 12.2318 24.2155H161.441C168.061 24.2155 173.427 18.8493 173.427 12.2298C173.427 5.61031 168.061 0.244141 161.441 0.244141Z" stroke="#747775"/>
</g>
<defs>
<linearGradient id="paint0_linear_568_159" x1="16.9122" y1="15.0611" x2="9.16337" y2="23.929" gradientUnits="userSpaceOnUse">
<stop stop-color="#4285F4"/>
<stop offset="1" stop-color="#1B74E8"/>
</linearGradient>
<clipPath id="clip0_568_159">
<rect width="173.67" height="24.4606" fill="white"/>
</clipPath>
</defs>
</svg>
