<svg width="174" height="28" viewBox="0 0 174 28" fill="none" xmlns="http://www.w3.org/2000/svg">
<g clip-path="url(#clip0_568_771)">
<path d="M160.1 0.271484H13.5661C6.22263 0.271484 0.269531 6.22458 0.269531 13.5681C0.269531 20.9116 6.22263 26.8647 13.5661 26.8647H160.1C167.444 26.8647 173.397 20.9116 173.397 13.5681C173.397 6.22458 167.444 0.271484 160.1 0.271484Z" fill="#1F1F1F"/>
<path d="M27.68 11.9399H11.3984V9.22629C11.3984 7.75319 12.5934 6.5127 14.0124 6.5127H25.066C26.485 6.5127 27.68 7.75319 27.68 9.22629V11.9399Z" fill="#34A853"/>
<path d="M27.68 14.1401H11.3984V11.4265C11.3984 9.95338 12.5934 8.71289 14.0124 8.71289H25.066C26.485 8.71289 27.68 9.95338 27.68 11.4265V14.1401Z" fill="#FBBC04"/>
<path d="M27.68 16.4155H11.3984V13.7019C11.3984 12.2288 12.5934 10.9883 14.0124 10.9883H25.066C26.485 10.9883 27.68 12.2288 27.68 13.7019V16.4155Z" fill="#EA4335"/>
<path d="M11.3984 12.6318L21.7324 15.0217C22.9219 15.3205 24.2601 15.0217 25.2266 14.2749L27.68 12.4824V18.0839C27.68 19.5029 26.4905 20.6232 25.0779 20.6232H14.0005C12.588 20.6232 11.3984 19.5029 11.3984 18.0839V12.6318Z" fill="url(#paint0_linear_568_771)"/>
<path d="M35.0703 17.3671V9.59532H37.556C38.3737 9.59532 39.0756 9.76177 39.6617 10.0946C40.2551 10.4203 40.7109 10.8761 41.0294 11.4623C41.355 12.0484 41.5178 12.7214 41.5178 13.4812C41.5178 14.2482 41.355 14.9248 41.0294 15.511C40.7109 16.0899 40.2551 16.5458 39.6617 16.8786C39.0756 17.2042 38.3737 17.3671 37.556 17.3671H35.0703ZM36.2643 16.2382H37.5234C38.4062 16.2382 39.0901 15.9922 39.5749 15.5001C40.067 15.008 40.313 14.335 40.313 13.4812C40.313 12.6273 40.067 11.9544 39.5749 11.4623C39.0901 10.9702 38.4062 10.7242 37.5234 10.7242H36.2643V16.2382ZM45.1332 17.5407C44.5615 17.5407 44.0586 17.4105 43.6244 17.15C43.1903 16.8895 42.8501 16.5385 42.6041 16.0971C42.358 15.6557 42.2351 15.1564 42.2351 14.5992C42.2351 14.0493 42.358 13.5535 42.6041 13.1121C42.8501 12.6635 43.1903 12.3089 43.6244 12.0484C44.0586 11.7879 44.5615 11.6577 45.1332 11.6577C45.6976 11.6577 46.1969 11.7879 46.6311 12.0484C47.0653 12.3089 47.4053 12.6635 47.6514 13.1121C47.8974 13.5535 48.0204 14.0493 48.0204 14.5992C48.0204 15.1564 47.8974 15.6557 47.6514 16.0971C47.4053 16.5385 47.0653 16.8895 46.6311 17.15C46.1969 17.4105 45.6976 17.5407 45.1332 17.5407ZM45.1332 16.4661C45.4371 16.4661 45.7193 16.3938 45.9798 16.2491C46.2403 16.0971 46.4501 15.8836 46.6094 15.6086C46.7758 15.3264 46.859 14.9899 46.859 14.5992C46.859 14.2084 46.7758 13.8756 46.6094 13.6006C46.4501 13.3184 46.2403 13.1049 45.9798 12.9602C45.7193 12.8082 45.4371 12.7322 45.1332 12.7322C44.8293 12.7322 44.5434 12.8082 44.2757 12.9602C44.0152 13.1049 43.8017 13.3184 43.6353 13.6006C43.476 13.8756 43.3965 14.2084 43.3965 14.5992C43.3965 14.9899 43.476 15.3264 43.6353 15.6086C43.8017 15.8836 44.0152 16.0971 44.2757 16.2491C44.5434 16.3938 44.8293 16.4661 45.1332 16.4661ZM51.4663 17.5407C50.967 17.5407 50.5148 17.4177 50.1095 17.1717C49.7116 16.9184 49.3931 16.571 49.1543 16.1297C48.9228 15.681 48.807 15.1708 48.807 14.5992C48.807 14.0275 48.9228 13.521 49.1543 13.0796C49.3931 12.6382 49.7116 12.2908 50.1095 12.0376C50.5148 11.7843 50.967 11.6577 51.4663 11.6577C51.8933 11.6577 52.2587 11.7517 52.5626 11.9399C52.8738 12.128 53.1018 12.3415 53.2464 12.5803H53.3116L53.2464 11.8096V9.59532H54.4079V17.3671H53.3116V16.629H53.2464C53.1018 16.8678 52.8738 17.0812 52.5626 17.2694C52.2587 17.4503 51.8933 17.5407 51.4663 17.5407ZM51.64 16.4661C51.9295 16.4661 52.2008 16.3902 52.4541 16.2382C52.7146 16.0862 52.9208 15.8728 53.0728 15.5978C53.232 15.3156 53.3116 14.9827 53.3116 14.5992C53.3116 14.2156 53.232 13.8864 53.0728 13.6114C52.9208 13.3292 52.7146 13.1121 52.4541 12.9602C52.2008 12.8082 51.9295 12.7322 51.64 12.7322C51.3506 12.7322 51.0792 12.8082 50.8259 12.9602C50.5727 13.1121 50.3665 13.3292 50.2072 13.6114C50.048 13.8864 49.9684 14.2156 49.9684 14.5992C49.9684 14.9827 50.048 15.3156 50.2072 15.5978C50.3665 15.8728 50.5727 16.0862 50.8259 16.2382C51.0792 16.3902 51.3506 16.4661 51.64 16.4661ZM57.4727 17.5407C57.0743 17.5407 56.7199 17.4647 56.4089 17.3128C56.0974 17.1536 55.8554 16.9329 55.6817 16.6507C55.508 16.3685 55.4212 16.0465 55.4212 15.6846C55.4212 15.2939 55.5221 14.961 55.7251 14.686C55.9346 14.4038 56.2135 14.1904 56.5609 14.0456C56.9082 13.9009 57.2914 13.8285 57.7114 13.8285C58.0588 13.8285 58.3627 13.8611 58.6232 13.9262C58.8908 13.9913 59.0932 14.0601 59.2311 14.1324V13.8394C59.2311 13.4776 59.1008 13.1881 58.8403 12.971C58.5798 12.7539 58.2433 12.6454 57.8308 12.6454C57.5486 12.6454 57.2805 12.7105 57.0276 12.8408C56.7742 12.9638 56.5717 13.1338 56.4198 13.3509L55.6166 12.7322C55.8554 12.3994 56.1701 12.1389 56.5609 11.9507C56.9587 11.7553 57.3929 11.6577 57.8634 11.6577C58.6666 11.6577 59.2853 11.8567 59.7195 12.2546C60.1537 12.6454 60.3708 13.1953 60.3708 13.9045V17.3671H59.2311V16.6832H59.1659C59.021 16.9075 58.8039 17.1065 58.5147 17.2802C58.2249 17.4539 57.8775 17.5407 57.4727 17.5407ZM57.6789 16.5855C57.9828 16.5855 58.2504 16.5132 58.4821 16.3685C58.7133 16.2237 58.8946 16.0356 59.0248 15.804C59.1621 15.5652 59.2311 15.3084 59.2311 15.0334C59.0644 14.9393 58.8691 14.8633 58.6449 14.8054C58.4202 14.7403 58.1814 14.7077 57.9285 14.7077C57.4509 14.7077 57.1107 14.8054 56.9082 15.0008C56.7053 15.189 56.6043 15.4205 56.6043 15.6955C56.6043 15.956 56.702 16.1694 56.8974 16.3359C57.0927 16.5023 57.3533 16.5855 57.6789 16.5855ZM62.3338 11.0172C62.1167 11.0172 61.9289 10.9413 61.7694 10.7893C61.6174 10.6301 61.5414 10.442 61.5414 10.2249C61.5414 10.0078 61.6174 9.82326 61.7694 9.6713C61.9289 9.51934 62.1167 9.44336 62.3338 9.44336C62.5509 9.44336 62.7354 9.51934 62.8874 9.6713C63.0469 9.82326 63.1262 10.0078 63.1262 10.2249C63.1262 10.442 63.0469 10.6301 62.8874 10.7893C62.7354 10.9413 62.5509 11.0172 62.3338 11.0172ZM61.2809 19.8201C61.0568 19.8201 60.8543 19.7948 60.6731 19.7442V18.6153C60.7458 18.6587 60.8288 18.6913 60.9227 18.713C61.0096 18.7419 61.0964 18.7564 61.1832 18.7564C61.3933 18.7564 61.5382 18.6913 61.6174 18.561C61.7042 18.438 61.7476 18.2571 61.7476 18.0183V11.8313H62.9199V18.0292C62.9199 18.6659 62.7647 19.1218 62.4532 19.3968C62.1422 19.679 61.7514 19.8201 61.2809 19.8201ZM69.2741 17.5407C68.7748 17.5407 68.3227 17.4177 67.9173 17.1717C67.5195 16.9184 67.2009 16.571 66.9621 16.1297C66.7309 15.681 66.6147 15.1708 66.6147 14.5992C66.6147 14.0275 66.7309 13.521 66.9621 13.0796C67.2009 12.6382 67.5195 12.2908 67.9173 12.0376C68.3227 11.7843 68.7748 11.6577 69.2741 11.6577C69.7012 11.6577 70.0664 11.7517 70.3704 11.9399C70.6819 12.128 70.9098 12.3415 71.0542 12.5803H71.1193L71.0542 11.8096V9.59532H72.2156V17.3671H71.1193V16.629H71.0542C70.9098 16.8678 70.6819 17.0812 70.3704 17.2694C70.0664 17.4503 69.7012 17.5407 69.2741 17.5407ZM69.4477 16.4661C69.7376 16.4661 70.0089 16.3902 70.2618 16.2382C70.5223 16.0862 70.7286 15.8728 70.8805 15.5978C71.0401 15.3156 71.1193 14.9827 71.1193 14.5992C71.1193 14.2156 71.0401 13.8864 70.8805 13.6114C70.7286 13.3292 70.5223 13.1121 70.2618 12.9602C70.0089 12.8082 69.7376 12.7322 69.4477 12.7322C69.1585 12.7322 68.8871 12.8082 68.6337 12.9602C68.3808 13.1121 68.1745 13.3292 68.015 13.6114C67.8559 13.8864 67.7762 14.2156 67.7762 14.5992C67.7762 14.9827 67.8559 15.3156 68.015 15.5978C68.1745 15.8728 68.3808 16.0862 68.6337 16.2382C68.8871 16.3902 69.1585 16.4661 69.4477 16.4661ZM76.1487 17.5407C75.5772 17.5407 75.0741 17.4105 74.6399 17.15C74.2058 16.8895 73.8655 16.5385 73.6196 16.0971C73.3738 15.6557 73.2506 15.1564 73.2506 14.5992C73.2506 14.0493 73.3738 13.5535 73.6196 13.1121C73.8655 12.6635 74.2058 12.3089 74.6399 12.0484C75.0741 11.7879 75.5772 11.6577 76.1487 11.6577C76.7131 11.6577 77.2124 11.7879 77.6466 12.0484C78.0808 12.3089 78.4211 12.6635 78.6669 13.1121C78.9128 13.5535 79.036 14.0493 79.036 14.5992C79.036 15.1564 78.9128 15.6557 78.6669 16.0971C78.4211 16.5385 78.0808 16.8895 77.6466 17.15C77.2124 17.4105 76.7131 17.5407 76.1487 17.5407ZM76.1487 16.4661C76.4526 16.4661 76.7348 16.3938 76.9953 16.2491C77.2558 16.0971 77.4659 15.8836 77.6249 15.6086C77.7915 15.3264 77.8745 14.9899 77.8745 14.5992C77.8745 14.2084 77.7915 13.8756 77.6249 13.6006C77.4659 13.3184 77.2558 13.1049 76.9953 12.9602C76.7348 12.8082 76.4526 12.7322 76.1487 12.7322C75.8448 12.7322 75.5588 12.8082 75.2912 12.9602C75.0307 13.1049 74.8174 13.3184 74.6508 13.6006C74.4918 13.8756 74.412 14.2084 74.412 14.5992C74.412 14.9899 74.4918 15.3264 74.6508 15.6086C74.8174 15.8836 75.0307 16.0971 75.2912 16.2491C75.5588 16.3938 75.8448 16.4661 76.1487 16.4661Z" fill="white"/>
<path d="M83.3711 17.3673V9.59554H86.0413C86.5118 9.59554 86.9384 9.69687 87.3221 9.89947C87.7058 10.1021 88.0097 10.3807 88.2339 10.7353C88.4656 11.0898 88.5812 11.5023 88.5812 11.9727C88.5812 12.443 88.4656 12.8591 88.2339 13.2209C88.0097 13.5755 87.7058 13.8541 87.3221 14.0567C86.9384 14.2521 86.5118 14.3498 86.0413 14.3498H84.5651V17.3673H83.3711ZM86.0738 10.7244H84.5651V13.2209H86.0738C86.3561 13.2209 86.5948 13.163 86.7902 13.0472C86.9856 12.9242 87.1338 12.7687 87.2353 12.5805C87.3438 12.3851 87.3981 12.1825 87.3981 11.9727C87.3981 11.7628 87.3438 11.5638 87.2353 11.3757C87.1338 11.1875 86.9856 11.032 86.7902 10.9089C86.5948 10.7859 86.3561 10.7244 86.0738 10.7244ZM91.8332 17.5409C91.2617 17.5409 90.7586 17.4107 90.3244 17.1502C89.8902 16.8897 89.5505 16.5387 89.3041 16.0973C89.0582 15.6559 88.935 15.1566 88.935 14.5994C88.935 14.0495 89.0582 13.5538 89.3041 13.1124C89.5505 12.6637 89.8902 12.3091 90.3244 12.0486C90.7586 11.7881 91.2617 11.6579 91.8332 11.6579C92.3976 11.6579 92.8969 11.7881 93.3311 12.0486C93.7652 12.3091 94.1055 12.6637 94.3514 13.1124C94.5978 13.5538 94.7204 14.0495 94.7204 14.5994C94.7204 15.1566 94.5978 15.6559 94.3514 16.0973C94.1055 16.5387 93.7652 16.8897 93.3311 17.1502C92.8969 17.4107 92.3976 17.5409 91.8332 17.5409ZM91.8332 16.4664C92.1371 16.4664 92.4193 16.394 92.6798 16.2493C92.9403 16.0973 93.1503 15.8839 93.3094 15.6089C93.476 15.3267 93.559 14.9902 93.559 14.5994C93.559 14.2087 93.476 13.8758 93.3094 13.6008C93.1503 13.3186 92.9403 13.1051 92.6798 12.9604C92.4193 12.8084 92.1371 12.7325 91.8332 12.7325C91.5292 12.7325 91.2438 12.8084 90.9757 12.9604C90.7152 13.1051 90.5019 13.3186 90.3353 13.6008C90.1762 13.8758 90.0965 14.2087 90.0965 14.5994C90.0965 14.9902 90.1762 15.3267 90.3353 15.6089C90.5019 15.8839 90.7152 16.0973 90.9757 16.2493C91.2438 16.394 91.5292 16.4664 91.8332 16.4664ZM100.676 15.7608V12.8519H99.7102V11.8315H100.676V10.2685H101.848V11.8315H103.205V12.8519H101.848V15.5112C101.848 15.7862 101.903 15.996 102.011 16.1407C102.127 16.2855 102.319 16.3578 102.587 16.3578C102.724 16.3578 102.84 16.3397 102.934 16.3035C103.035 16.2673 103.137 16.2167 103.238 16.1516V17.2913C103.115 17.3419 102.985 17.3818 102.847 17.4107C102.71 17.4396 102.551 17.4541 102.37 17.4541C101.849 17.4541 101.436 17.3058 101.132 17.0091C100.828 16.7052 100.676 16.2891 100.676 15.7608ZM95.6941 17.3673V11.8315H96.8012V12.6456H96.8663C97.0112 12.3417 97.2354 12.1065 97.5393 11.9401C97.8432 11.7664 98.1727 11.6796 98.5271 11.6796C98.73 11.6796 98.882 11.6941 98.9829 11.723V12.8953C98.8239 12.8446 98.6285 12.8193 98.3968 12.8193C97.9339 12.8193 97.561 12.9676 97.2788 13.2643C97.0042 13.561 96.8663 13.9626 96.8663 14.4692V17.3673H95.6941ZM105.079 17.3673V12.8519H104.07V11.8315H105.079V11.3757C105.079 10.9849 105.163 10.6521 105.329 10.3771C105.496 10.0948 105.72 9.88139 106.002 9.73665C106.292 9.58469 106.617 9.50871 106.979 9.50871C107.174 9.50871 107.341 9.5232 107.478 9.55213C107.623 9.57384 107.742 9.60276 107.836 9.63896V10.7787C107.742 10.7425 107.634 10.7063 107.511 10.6701C107.395 10.6267 107.25 10.605 107.077 10.605C106.852 10.605 106.657 10.681 106.49 10.8329C106.324 10.9777 106.241 11.1911 106.241 11.4734V11.8315H107.63V12.8519H106.241V17.3673H105.079ZM110.943 17.5409C110.401 17.5409 109.916 17.4143 109.489 17.161C109.062 16.9078 108.725 16.5604 108.479 16.119C108.241 15.6776 108.121 15.1747 108.121 14.6103C108.121 14.082 108.237 13.5936 108.469 13.1449C108.7 12.6963 109.022 12.3381 109.435 12.0703C109.854 11.7953 110.336 11.6579 110.878 11.6579C111.45 11.6579 111.935 11.7809 112.333 12.0269C112.738 12.2729 113.045 12.6094 113.255 13.0364C113.465 13.4633 113.57 13.9445 113.57 14.48C113.57 14.5596 113.566 14.632 113.559 14.6971C113.559 14.7622 113.555 14.8129 113.548 14.8491H109.272C109.33 15.399 109.521 15.8115 109.847 16.0865C110.18 16.3615 110.556 16.4989 110.976 16.4989C111.352 16.4989 111.664 16.4157 111.909 16.2493C112.155 16.0756 112.351 15.8622 112.496 15.6089L113.462 16.0756C113.223 16.5098 112.897 16.8643 112.485 17.1393C112.072 17.4071 111.558 17.5409 110.943 17.5409ZM110.889 12.6565C110.498 12.6565 110.166 12.7759 109.89 13.0147C109.615 13.2535 109.431 13.5719 109.337 13.9699H112.409C112.394 13.7817 112.333 13.5863 112.224 13.3837C112.116 13.1811 111.949 13.011 111.725 12.8736C111.508 12.7288 111.229 12.6565 110.889 12.6565ZM114.669 17.3673V9.59554H115.841V17.3673H114.669ZM118.907 17.5409C118.508 17.5409 118.154 17.465 117.843 17.313C117.531 17.1538 117.289 16.9331 117.116 16.6509C116.942 16.3687 116.855 16.0467 116.855 15.6848C116.855 15.2941 116.956 14.9612 117.159 14.6862C117.369 14.404 117.648 14.1906 117.995 14.0458C118.342 13.9011 118.725 13.8288 119.145 13.8288C119.493 13.8288 119.797 13.8613 120.057 13.9264C120.325 13.9916 120.527 14.0603 120.665 14.1327V13.8396C120.665 13.4778 120.535 13.1883 120.274 12.9713C120.014 12.7542 119.677 12.6456 119.265 12.6456C118.983 12.6456 118.715 12.7107 118.462 12.841C118.208 12.964 118.006 13.1341 117.854 13.3512L117.051 12.7325C117.289 12.3996 117.604 12.1391 117.995 11.9509C118.393 11.7556 118.827 11.6579 119.297 11.6579C120.101 11.6579 120.719 11.8569 121.154 12.2549C121.588 12.6456 121.805 13.1956 121.805 13.9047V17.3673H120.665V16.6835H120.6C120.455 16.9078 120.238 17.1068 119.949 17.2804C119.659 17.4541 119.312 17.5409 118.907 17.5409ZM119.113 16.5858C119.417 16.5858 119.684 16.5134 119.916 16.3687C120.147 16.2239 120.329 16.0358 120.459 15.8042C120.596 15.5655 120.665 15.3086 120.665 15.0336C120.498 14.9395 120.303 14.8636 120.079 14.8056C119.854 14.7405 119.615 14.708 119.363 14.708C118.885 14.708 118.545 14.8056 118.342 15.001C118.139 15.1892 118.038 15.4207 118.038 15.6957C118.038 15.9562 118.136 16.1697 118.331 16.3361C118.527 16.5026 118.787 16.5858 119.113 16.5858ZM129.292 17.5409C128.734 17.5409 128.21 17.4396 127.718 17.237C127.233 17.0344 126.802 16.7522 126.426 16.3904C126.05 16.0213 125.753 15.5908 125.536 15.0987C125.326 14.5994 125.221 14.0603 125.221 13.4814C125.221 12.9025 125.326 12.367 125.536 11.875C125.753 11.3757 126.046 10.9451 126.415 10.5833C126.791 10.2142 127.225 9.92839 127.718 9.7258C128.21 9.5232 128.734 9.42188 129.292 9.42188C129.885 9.42188 130.431 9.52678 130.931 9.73665C131.437 9.94652 131.86 10.2396 132.201 10.6159L131.376 11.4299C131.122 11.1477 130.818 10.9306 130.464 10.7787C130.117 10.6267 129.726 10.5507 129.292 10.5507C128.778 10.5507 128.304 10.6738 127.87 10.9198C127.436 11.1586 127.084 11.4987 126.817 11.9401C126.556 12.3743 126.426 12.8881 126.426 13.4814C126.426 14.0748 126.56 14.5922 126.828 15.0336C127.095 15.4678 127.446 15.8079 127.881 16.0539C128.315 16.2927 128.789 16.4121 129.302 16.4121C129.773 16.4121 130.2 16.3253 130.583 16.1516C130.967 15.9707 131.274 15.7174 131.506 15.3918C131.745 15.0661 131.89 14.6754 131.94 14.2195H129.281V13.1666H133.058C133.101 13.362 133.123 13.5682 133.123 13.7853V13.7962C133.123 14.5488 132.957 15.2073 132.624 15.7717C132.298 16.3289 131.846 16.7631 131.267 17.0742C130.688 17.3853 130.03 17.5409 129.292 17.5409ZM136.618 17.5409C136.047 17.5409 135.544 17.4107 135.11 17.1502C134.675 16.8897 134.335 16.5387 134.089 16.0973C133.843 15.6559 133.72 15.1566 133.72 14.5994C133.72 14.0495 133.843 13.5538 134.089 13.1124C134.335 12.6637 134.675 12.3091 135.11 12.0486C135.544 11.7881 136.047 11.6579 136.618 11.6579C137.183 11.6579 137.682 11.7881 138.116 12.0486C138.55 12.3091 138.891 12.6637 139.137 13.1124C139.382 13.5538 139.506 14.0495 139.506 14.5994C139.506 15.1566 139.382 15.6559 139.137 16.0973C138.891 16.5387 138.55 16.8897 138.116 17.1502C137.682 17.4107 137.183 17.5409 136.618 17.5409ZM136.618 16.4664C136.922 16.4664 137.204 16.394 137.465 16.2493C137.725 16.0973 137.935 15.8839 138.095 15.6089C138.261 15.3267 138.344 14.9902 138.344 14.5994C138.344 14.2087 138.261 13.8758 138.095 13.6008C137.935 13.3186 137.725 13.1051 137.465 12.9604C137.204 12.8084 136.922 12.7325 136.618 12.7325C136.314 12.7325 136.028 12.8084 135.761 12.9604C135.5 13.1051 135.287 13.3186 135.12 13.6008C134.961 13.8758 134.882 14.2087 134.882 14.5994C134.882 14.9902 134.961 15.3267 135.12 15.6089C135.287 15.8839 135.5 16.0973 135.761 16.2493C136.028 16.394 136.314 16.4664 136.618 16.4664ZM143.19 17.5409C142.619 17.5409 142.116 17.4107 141.681 17.1502C141.247 16.8897 140.907 16.5387 140.661 16.0973C140.415 15.6559 140.292 15.1566 140.292 14.5994C140.292 14.0495 140.415 13.5538 140.661 13.1124C140.907 12.6637 141.247 12.3091 141.681 12.0486C142.116 11.7881 142.619 11.6579 143.19 11.6579C143.755 11.6579 144.254 11.7881 144.688 12.0486C145.122 12.3091 145.462 12.6637 145.708 13.1124C145.955 13.5538 146.077 14.0495 146.077 14.5994C146.077 15.1566 145.955 15.6559 145.708 16.0973C145.462 16.5387 145.122 16.8897 144.688 17.1502C144.254 17.4107 143.755 17.5409 143.19 17.5409ZM143.19 16.4664C143.494 16.4664 143.776 16.394 144.037 16.2493C144.297 16.0973 144.507 15.8839 144.666 15.6089C144.833 15.3267 144.916 14.9902 144.916 14.5994C144.916 14.2087 144.833 13.8758 144.666 13.6008C144.507 13.3186 144.297 13.1051 144.037 12.9604C143.776 12.8084 143.494 12.7325 143.19 12.7325C142.886 12.7325 142.601 12.8084 142.333 12.9604C142.072 13.1051 141.859 13.3186 141.692 13.6008C141.533 13.8758 141.453 14.2087 141.453 14.5994C141.453 14.9902 141.533 15.3267 141.692 15.6089C141.859 15.8839 142.072 16.0973 142.333 16.2493C142.601 16.394 142.886 16.4664 143.19 16.4664ZM149.654 19.8855C149.169 19.8855 148.749 19.8059 148.395 19.6467C148.047 19.4947 147.765 19.2957 147.548 19.0497C147.331 18.8109 147.175 18.5649 147.081 18.3116L148.167 17.8557C148.282 18.1452 148.467 18.3804 148.72 18.5613C148.981 18.7494 149.292 18.8435 149.654 18.8435C150.16 18.8435 150.558 18.6915 150.848 18.3876C151.144 18.0837 151.293 17.6531 151.293 17.0959V16.5641H151.228C151.054 16.8246 150.811 17.0344 150.501 17.1936C150.197 17.3456 149.849 17.4215 149.458 17.4215C148.988 17.4215 148.558 17.3022 148.167 17.0634C147.776 16.8246 147.461 16.4917 147.222 16.0648C146.984 15.6306 146.864 15.1241 146.864 14.5451C146.864 13.959 146.984 13.4525 147.222 13.0255C147.461 12.5914 147.776 12.2549 148.167 12.0161C148.558 11.7773 148.988 11.6579 149.458 11.6579C149.849 11.6579 150.197 11.7375 150.501 11.8967C150.811 12.0559 151.054 12.2657 151.228 12.5262H151.293V11.8315H152.411V17.0742C152.411 17.6748 152.291 18.185 152.053 18.6047C151.821 19.0244 151.499 19.3428 151.087 19.5599C150.674 19.7769 150.197 19.8855 149.654 19.8855ZM149.665 16.3578C149.954 16.3578 150.222 16.2891 150.468 16.1516C150.714 16.0068 150.913 15.8006 151.065 15.5329C151.217 15.2579 151.293 14.9287 151.293 14.5451C151.293 14.1472 151.217 13.8143 151.065 13.5465C150.913 13.2715 150.714 13.0653 150.468 12.9278C150.222 12.7904 149.954 12.7216 149.665 12.7216C149.375 12.7216 149.104 12.7939 148.851 12.9387C148.604 13.0762 148.406 13.2788 148.254 13.5465C148.102 13.8143 148.026 14.1472 148.026 14.5451C148.026 14.9359 148.102 15.2687 148.254 15.5437C148.406 15.8115 148.604 16.0141 148.851 16.1516C149.104 16.2891 149.375 16.3578 149.665 16.3578ZM153.793 17.3673V9.59554H154.965V17.3673H153.793ZM158.824 17.5409C158.281 17.5409 157.796 17.4143 157.369 17.161C156.942 16.9078 156.606 16.5604 156.36 16.119C156.121 15.6776 156.002 15.1747 156.002 14.6103C156.002 14.082 156.117 13.5936 156.349 13.1449C156.58 12.6963 156.902 12.3381 157.315 12.0703C157.734 11.7953 158.216 11.6579 158.759 11.6579C159.33 11.6579 159.815 11.7809 160.213 12.0269C160.618 12.2729 160.926 12.6094 161.136 13.0364C161.345 13.4633 161.45 13.9445 161.45 14.48C161.45 14.5596 161.447 14.632 161.44 14.6971C161.44 14.7622 161.436 14.8129 161.429 14.8491H157.152C157.21 15.399 157.402 15.8115 157.727 16.0865C158.06 16.3615 158.436 16.4989 158.856 16.4989C159.232 16.4989 159.543 16.4157 159.79 16.2493C160.036 16.0756 160.231 15.8622 160.376 15.6089L161.342 16.0756C161.103 16.5098 160.777 16.8643 160.365 17.1393C159.953 17.4071 159.439 17.5409 158.824 17.5409ZM158.769 12.6565C158.379 12.6565 158.045 12.7759 157.771 13.0147C157.496 13.2535 157.311 13.5719 157.217 13.9699H160.289C160.274 13.7817 160.213 13.5863 160.104 13.3837C159.996 13.1811 159.829 13.011 159.605 12.8736C159.388 12.7288 159.109 12.6565 158.769 12.6565Z" fill="white"/>
<path d="M160.1 0.271484H13.5661C6.22263 0.271484 0.269531 6.22458 0.269531 13.5681C0.269531 20.9116 6.22263 26.8647 13.5661 26.8647H160.1C167.444 26.8647 173.397 20.9116 173.397 13.5681C173.397 6.22458 167.444 0.271484 160.1 0.271484Z" stroke="#747775"/>
</g>
<defs>
<linearGradient id="paint0_linear_568_771" x1="18.7633" y1="16.7082" x2="10.167" y2="26.5461" gradientUnits="userSpaceOnUse">
<stop stop-color="#4285F4"/>
<stop offset="1" stop-color="#1B74E8"/>
</linearGradient>
<clipPath id="clip0_568_771">
<rect width="173.67" height="27.1359" fill="white"/>
</clipPath>
</defs>
</svg>
