<svg width="174" height="42" viewBox="0 0 174 42" fill="none" xmlns="http://www.w3.org/2000/svg">
<g clip-path="url(#clip0_568_870)">
<path d="M152.994 0.375977H20.6741C9.46321 0.375977 0.375 9.46419 0.375 20.6751C0.375 31.8859 9.46321 40.9742 20.6741 40.9742H152.994C164.205 40.9742 173.293 31.8859 173.293 20.6751C173.293 9.46419 164.205 0.375977 152.994 0.375977Z" fill="#1F1F1F"/>
<path d="M42.8545 17.8862H15.7891V13.6418C15.7891 11.3378 17.7755 9.39746 20.1344 9.39746H38.5092C40.8681 9.39746 42.8545 11.3378 42.8545 13.6418V17.8862Z" fill="#34A853"/>
<path d="M42.8545 21.8031H15.7891V17.2922C15.7891 14.8434 17.7755 12.7812 20.1344 12.7812H38.5092C40.8681 12.7812 42.8545 14.8434 42.8545 17.2922V21.8031Z" fill="#FBBC04"/>
<path d="M42.8545 25.5619H15.7891V21.0509C15.7891 18.6022 17.7755 16.54 20.1344 16.54H38.5092C40.8681 16.54 42.8545 18.6022 42.8545 21.0509V25.5619Z" fill="#EA4335"/>
<path d="M15.7891 18.9769L32.9676 22.8575C34.945 23.3426 37.1696 22.8575 38.7761 21.6448L42.8545 18.7344V27.8294C42.8545 30.1335 40.8772 31.9525 38.529 31.9525H20.1146C17.7664 31.9525 15.7891 30.1335 15.7891 27.8294V18.9769Z" fill="url(#paint0_linear_568_870)"/>
<path d="M52.668 16.1641V9.16613H54.9061C55.6424 9.16613 56.2744 9.31596 56.8022 9.61571C57.3365 9.90892 57.747 10.3194 58.0337 10.8472C58.3269 11.375 58.4735 11.9809 58.4735 12.6651C58.4735 13.3558 58.3269 13.965 58.0337 14.4928C57.747 15.014 57.3365 15.4245 56.8022 15.7242C56.2744 16.0174 55.6424 16.1641 54.9061 16.1641H52.668ZM53.7431 15.1476H54.8768C55.6717 15.1476 56.2874 14.926 56.724 14.483C57.1671 14.0399 57.3886 13.434 57.3886 12.6651C57.3886 11.8962 57.1671 11.2902 56.724 10.8472C56.2874 10.4041 55.6717 10.1826 54.8768 10.1826H53.7431V15.1476ZM61.7289 16.3204C61.2141 16.3204 60.7613 16.2031 60.3703 15.9686C59.9794 15.734 59.6732 15.418 59.4516 15.0205C59.2301 14.623 59.1193 14.1735 59.1193 13.6718C59.1193 13.1766 59.2301 12.7303 59.4516 12.3328C59.6732 11.9288 59.9794 11.6095 60.3703 11.375C60.7613 11.1404 61.2141 11.0231 61.7289 11.0231C62.2371 11.0231 62.6867 11.1404 63.0776 11.375C63.4686 11.6095 63.7748 11.9288 63.9964 12.3328C64.2179 12.7303 64.3287 13.1766 64.3287 13.6718C64.3287 14.1735 64.2179 14.623 63.9964 15.0205C63.7748 15.418 63.4686 15.734 63.0776 15.9686C62.6867 16.2031 62.2371 16.3204 61.7289 16.3204ZM61.7289 15.3528C62.0025 15.3528 62.2567 15.2877 62.4912 15.1574C62.7258 15.0205 62.9147 14.8283 63.0581 14.5807C63.2079 14.3266 63.2829 14.0236 63.2829 13.6718C63.2829 13.3199 63.2079 13.0202 63.0581 12.7726C62.9147 12.5185 62.7258 12.3262 62.4912 12.196C62.2567 12.0591 62.0025 11.9907 61.7289 11.9907C61.4552 11.9907 61.1979 12.0591 60.9568 12.196C60.7222 12.3262 60.53 12.5185 60.3801 12.7726C60.2367 13.0202 60.1651 13.3199 60.1651 13.6718C60.1651 14.0236 60.2367 14.3266 60.3801 14.5807C60.53 14.8283 60.7222 15.0205 60.9568 15.1574C61.1979 15.2877 61.4552 15.3528 61.7289 15.3528ZM67.4315 16.3204C66.9819 16.3204 66.5747 16.2097 66.2098 15.9881C65.8514 15.7601 65.5647 15.4473 65.3497 15.0499C65.1412 14.6459 65.037 14.1865 65.037 13.6718C65.037 13.157 65.1412 12.701 65.3497 12.3035C65.5647 11.906 65.8514 11.5932 66.2098 11.3652C66.5747 11.1372 66.9819 11.0231 67.4315 11.0231C67.8159 11.0231 68.145 11.1078 68.4186 11.2772C68.6988 11.4466 68.9041 11.6389 69.0344 11.8539H69.093L69.0344 11.1599V9.16613H70.0802V16.1641H69.093V15.4994H69.0344C68.9041 15.7145 68.6988 15.9067 68.4186 16.0761C68.145 16.239 67.8159 16.3204 67.4315 16.3204ZM67.5879 15.3528C67.8485 15.3528 68.0929 15.2844 68.3209 15.1476C68.5555 15.0108 68.7412 14.8185 68.878 14.5709C69.0214 14.3168 69.093 14.0171 69.093 13.6718C69.093 13.3265 69.0214 13.0299 68.878 12.7824C68.7412 12.5283 68.5555 12.3328 68.3209 12.196C68.0929 12.0591 67.8485 11.9907 67.5879 11.9907C67.3272 11.9907 67.0829 12.0591 66.8549 12.196C66.6268 12.3328 66.4411 12.5283 66.2978 12.7824C66.1544 13.0299 66.0827 13.3265 66.0827 13.6718C66.0827 14.0171 66.1544 14.3168 66.2978 14.5709C66.4411 14.8185 66.6268 15.0108 66.8549 15.1476C67.0829 15.2844 67.3272 15.3528 67.5879 15.3528ZM72.8396 16.3204C72.4812 16.3204 72.1619 16.252 71.8817 16.1152C71.6015 15.9718 71.3833 15.7731 71.2269 15.519C71.0705 15.2649 70.9923 14.9749 70.9923 14.6491C70.9923 14.2973 71.0835 13.9975 71.266 13.75C71.4549 13.4958 71.7058 13.3036 72.0186 13.1733C72.3313 13.043 72.6766 12.9778 73.0546 12.9778C73.3673 12.9778 73.641 13.0072 73.8756 13.0658C74.1166 13.1244 74.2991 13.1863 74.4229 13.2515V12.9876C74.4229 12.6619 74.3056 12.4012 74.071 12.2057C73.8365 12.0103 73.5335 11.9125 73.1621 11.9125C72.908 11.9125 72.6669 11.9712 72.4388 12.0884C72.2107 12.1992 72.0283 12.3523 71.8915 12.5478L71.1683 11.9907C71.3833 11.691 71.6667 11.4564 72.0186 11.287C72.3769 11.1111 72.7678 11.0231 73.1914 11.0231C73.9147 11.0231 74.4718 11.2023 74.8627 11.5607C75.2533 11.9125 75.4488 12.4077 75.4488 13.0463V16.1641H74.4229V15.5483H74.3642C74.2339 15.7503 74.0384 15.9295 73.7778 16.0859C73.5172 16.2422 73.2044 16.3204 72.8396 16.3204ZM73.0253 15.4603C73.2989 15.4603 73.5399 15.3952 73.7485 15.2649C73.957 15.1346 74.1199 14.9651 74.2372 14.7566C74.3609 14.5416 74.4229 14.3103 74.4229 14.0627C74.273 13.978 74.097 13.9096 73.8951 13.8575C73.6931 13.7988 73.4781 13.7695 73.25 13.7695C72.82 13.7695 72.5137 13.8575 72.3313 14.0334C72.1489 14.2028 72.0577 14.4113 72.0577 14.6589C72.0577 14.8935 72.1456 15.0857 72.3215 15.2356C72.4975 15.3854 72.732 15.4603 73.0253 15.4603ZM77.2171 10.4465C77.0216 10.4465 76.8525 10.3781 76.7089 10.2412C76.572 10.0979 76.5036 9.92847 76.5036 9.733C76.5036 9.53753 76.572 9.37137 76.7089 9.23454C76.8525 9.09771 77.0216 9.0293 77.2171 9.0293C77.4126 9.0293 77.5787 9.09771 77.7155 9.23454C77.8591 9.37137 77.9306 9.53753 77.9306 9.733C77.9306 9.92847 77.8591 10.0979 77.7155 10.2412C77.5787 10.3781 77.4126 10.4465 77.2171 10.4465ZM76.269 18.3729C76.0668 18.3729 75.8849 18.3501 75.7217 18.3045V17.288C75.7871 17.3271 75.8616 17.3564 75.9465 17.376C76.0247 17.4021 76.1029 17.4151 76.1811 17.4151C76.3698 17.4151 76.5006 17.3564 76.572 17.2392C76.6502 17.1284 76.6893 16.9655 76.6893 16.7505V11.1795H77.7449V16.7602C77.7449 17.3337 77.605 17.7441 77.3246 17.9917C77.0442 18.2458 76.6923 18.3729 76.269 18.3729ZM82.8505 16.1641L80.7882 11.1795H81.9611L83.3587 14.8055H83.4076L84.8345 11.1795H85.9878L83.906 16.1641H82.8505Z" fill="white"/>
<path d="M57.2421 31.4048C56.5859 31.4048 55.9683 31.2855 55.3888 31.047C54.818 30.8084 54.3109 30.4761 53.8679 30.0501C53.4249 29.6155 53.0755 29.1086 52.8199 28.5291C52.5727 27.9412 52.4492 27.3065 52.4492 26.6248C52.4492 25.9431 52.5727 25.3126 52.8199 24.7332C53.0755 24.1453 53.4206 23.6383 53.8551 23.2123C54.2982 22.7777 54.8094 22.4411 55.3888 22.2026C55.9683 21.964 56.5859 21.8447 57.2421 21.8447C57.9407 21.8447 58.5841 21.9683 59.172 22.2154C59.7684 22.4625 60.2668 22.8076 60.6673 23.2506L59.696 24.2092C59.3977 23.8769 59.0399 23.6213 58.6224 23.4423C58.2134 23.2634 57.7533 23.1739 57.2421 23.1739C56.6371 23.1739 56.079 23.3188 55.5678 23.6085C55.0565 23.8897 54.6433 24.2902 54.328 24.8099C54.0213 25.3211 53.8679 25.9261 53.8679 26.6248C53.8679 27.3235 54.0256 27.9327 54.3408 28.4525C54.656 28.9637 55.0693 29.3642 55.5805 29.6539C56.0918 29.935 56.6499 30.0756 57.2548 30.0756C57.8087 30.0756 58.3114 29.9734 58.763 29.7689C59.2146 29.5559 59.5767 29.2577 59.8494 28.8742C60.1305 28.4908 60.301 28.0307 60.3606 27.4939H57.2293V26.2541H61.677C61.7282 26.4842 61.7537 26.727 61.7537 26.9827V26.9954C61.7537 27.8816 61.5577 28.657 61.1658 29.3216C60.7824 29.9777 60.2499 30.4889 59.5682 30.8553C58.8865 31.2216 58.1112 31.4048 57.2421 31.4048ZM65.8691 31.4048C65.1959 31.4048 64.6038 31.2515 64.0926 30.9447C63.5813 30.638 63.1808 30.2247 62.8911 29.705C62.6014 29.1853 62.4566 28.5973 62.4566 27.9412C62.4566 27.2937 62.6014 26.71 62.8911 26.1902C63.1808 25.6619 63.5813 25.2444 64.0926 24.9377C64.6038 24.631 65.1959 24.4776 65.8691 24.4776C66.5337 24.4776 67.1216 24.631 67.6329 24.9377C68.1441 25.2444 68.5445 25.6619 68.8343 26.1902C69.1239 26.71 69.2688 27.2937 69.2688 27.9412C69.2688 28.5973 69.1239 29.1853 68.8343 29.705C68.5445 30.2247 68.1441 30.638 67.6329 30.9447C67.1216 31.2515 66.5337 31.4048 65.8691 31.4048ZM65.8691 30.1395C66.227 30.1395 66.5593 30.0544 66.866 29.8839C67.1728 29.705 67.4198 29.4537 67.6073 29.1298C67.8032 28.7975 67.9013 28.4013 67.9013 27.9412C67.9013 27.4811 67.8032 27.0892 67.6073 26.7654C67.4198 26.4331 67.1728 26.1817 66.866 26.0113C66.5593 25.8324 66.227 25.7429 65.8691 25.7429C65.5112 25.7429 65.1746 25.8324 64.8594 26.0113C64.5527 26.1817 64.3013 26.4331 64.1053 26.7654C63.9178 27.0892 63.8242 27.4811 63.8242 27.9412C63.8242 28.4013 63.9178 28.7975 64.1053 29.1298C64.3013 29.4537 64.5527 29.705 64.8594 29.8839C65.1746 30.0544 65.5112 30.1395 65.8691 30.1395ZM73.6075 31.4048C72.9344 31.4048 72.3422 31.2515 71.8309 30.9447C71.3197 30.638 70.9193 30.2247 70.6295 29.705C70.3399 29.1853 70.195 28.5973 70.195 27.9412C70.195 27.2937 70.3399 26.71 70.6295 26.1902C70.9193 25.6619 71.3197 25.2444 71.8309 24.9377C72.3422 24.631 72.9344 24.4776 73.6075 24.4776C74.2721 24.4776 74.86 24.631 75.3714 24.9377C75.8826 25.2444 76.2834 25.6619 76.5728 26.1902C76.8623 26.71 77.0074 27.2937 77.0074 27.9412C77.0074 28.5973 76.8623 29.1853 76.5728 29.705C76.2834 30.2247 75.8826 30.638 75.3714 30.9447C74.86 31.2515 74.2721 31.4048 73.6075 31.4048ZM73.6075 30.1395C73.9654 30.1395 74.2977 30.0544 74.6044 29.8839C74.9111 29.705 75.1583 29.4537 75.3458 29.1298C75.5421 28.7975 75.6398 28.4013 75.6398 27.9412C75.6398 27.4811 75.5421 27.0892 75.3458 26.7654C75.1583 26.4331 74.9111 26.1817 74.6044 26.0113C74.2977 25.8324 73.9654 25.7429 73.6075 25.7429C73.2496 25.7429 72.9131 25.8324 72.5978 26.0113C72.2911 26.1817 72.0397 26.4331 71.8437 26.7654C71.6563 27.0892 71.5625 27.4811 71.5625 27.9412C71.5625 28.4013 71.6563 28.7975 71.8437 29.1298C72.0397 29.4537 72.2911 29.705 72.5978 29.8839C72.9131 30.0544 73.2496 30.1395 73.6075 30.1395ZM81.2183 34.1655C80.6469 34.1655 80.153 34.0718 79.7357 33.8843C79.3267 33.7054 78.9944 33.4711 78.7388 33.1814C78.4832 32.9002 78.2997 32.6105 78.1892 32.3123L79.4673 31.7755C79.6034 32.1163 79.8207 32.3933 80.1191 32.6063C80.4259 32.8278 80.792 32.9386 81.2183 32.9386C81.8145 32.9386 82.2829 32.7596 82.6242 32.4018C82.973 32.0439 83.1482 31.5369 83.1482 30.8808V30.2546H83.0715C82.867 30.5613 82.5813 30.8084 82.2152 30.9959C81.8573 31.1748 81.4483 31.2643 80.9882 31.2643C80.4341 31.2643 79.9274 31.1237 79.4673 30.8425C79.0072 30.5613 78.6365 30.1694 78.3554 29.6666C78.0742 29.1554 77.9336 28.559 77.9336 27.8773C77.9336 27.1871 78.0742 26.5907 78.3554 26.088C78.6365 25.5768 79.0072 25.1805 79.4673 24.8994C79.9274 24.6182 80.4341 24.4776 80.9882 24.4776C81.4483 24.4776 81.8573 24.5713 82.2152 24.7588C82.5813 24.9462 82.867 25.1933 83.0715 25.5001H83.1482V24.6821H84.4646V30.8553C84.4646 31.5625 84.3241 32.1632 84.0429 32.6574C83.77 33.1515 83.391 33.5265 82.9054 33.7821C82.4197 34.0377 81.8573 34.1655 81.2183 34.1655ZM81.2311 30.0117C81.5716 30.0117 81.8867 29.9308 82.1769 29.7689C82.4663 29.5985 82.7009 29.3556 82.8798 29.0404C83.0587 28.7166 83.1482 28.3289 83.1482 27.8773C83.1482 27.4087 83.0587 27.0167 82.8798 26.7015C82.7009 26.3777 82.4663 26.1348 82.1769 25.973C81.8867 25.8111 81.5716 25.7301 81.2311 25.7301C80.8897 25.7301 80.5702 25.8153 80.2725 25.9857C79.9823 26.1476 79.7485 26.3862 79.5696 26.7015C79.3906 27.0167 79.3012 27.4087 79.3012 27.8773C79.3012 28.3374 79.3906 28.7294 79.5696 29.0532C79.7485 29.3684 79.9823 29.607 80.2725 29.7689C80.5702 29.9308 80.8897 30.0117 81.2311 30.0117ZM86.0923 31.2004V22.0492H87.4727V31.2004H86.0923ZM92.0152 31.4048C91.3761 31.4048 90.8055 31.2558 90.3025 30.9575C89.8003 30.6593 89.4041 30.2503 89.1139 29.7305C88.8327 29.2108 88.6921 28.6186 88.6921 27.954C88.6921 27.332 88.8289 26.7569 89.1011 26.2286C89.374 25.7003 89.7529 25.2785 90.2386 24.9633C90.7333 24.6395 91.2994 24.4776 91.9385 24.4776C92.6121 24.4776 93.1827 24.6225 93.6511 24.9121C94.1285 25.2018 94.4909 25.598 94.7375 26.1008C94.9848 26.6035 95.1081 27.1701 95.1081 27.8006C95.1081 27.8944 95.1044 27.9796 95.0954 28.0562C95.0954 28.1329 95.0916 28.1926 95.0826 28.2352H90.0469C90.1153 28.8827 90.3409 29.3684 90.7243 29.6922C91.1167 30.016 91.5596 30.1779 92.0535 30.1779C92.4971 30.1779 92.8632 30.0799 93.1527 29.8839C93.4429 29.6794 93.6729 29.4281 93.8428 29.1298L94.9803 29.6794C94.6991 30.1907 94.3157 30.6081 93.83 30.932C93.3444 31.2472 92.7399 31.4048 92.0152 31.4048ZM91.9512 25.6534C91.4911 25.6534 91.0994 25.794 90.7754 26.0752C90.4521 26.3564 90.2348 26.7313 90.1236 27.1999H93.7406C93.724 26.9784 93.6511 26.7483 93.5233 26.5098C93.3955 26.2712 93.2 26.0709 92.9354 25.9091C92.6798 25.7386 92.352 25.6534 91.9512 25.6534ZM99.6018 31.2004V22.0492H102.529C103.492 22.0492 104.318 22.2452 105.008 22.6371C105.707 23.0206 106.244 23.5574 106.618 24.2475C107.002 24.9377 107.194 25.7301 107.194 26.6248C107.194 27.5279 107.002 28.3246 106.618 29.0148C106.244 29.6965 105.707 30.2333 105.008 30.6252C104.318 31.0086 103.492 31.2004 102.529 31.2004H99.6018ZM101.008 29.8711H102.49C103.53 29.8711 104.335 29.5815 104.906 29.002C105.485 28.4226 105.775 27.6302 105.775 26.6248C105.775 25.6194 105.485 24.827 104.906 24.2475C104.335 23.6681 103.53 23.3784 102.49 23.3784H101.008V29.8711ZM111.362 31.4048C110.723 31.4048 110.151 31.2558 109.649 30.9575C109.146 30.6593 108.75 30.2503 108.46 29.7305C108.179 29.2108 108.039 28.6186 108.039 27.954C108.039 27.332 108.175 26.7569 108.448 26.2286C108.72 25.7003 109.099 25.2785 109.585 24.9633C110.079 24.6395 110.646 24.4776 111.285 24.4776C111.958 24.4776 112.529 24.6225 112.998 24.9121C113.474 25.2018 113.837 25.598 114.084 26.1008C114.331 26.6035 114.455 27.1701 114.455 27.8006C114.455 27.8944 114.45 27.9796 114.442 28.0562C114.442 28.1329 114.437 28.1926 114.429 28.2352H109.393C109.461 28.8827 109.687 29.3684 110.071 29.6922C110.463 30.016 110.905 30.1779 111.4 30.1779C111.843 30.1779 112.209 30.0799 112.499 29.8839C112.789 29.6794 113.019 29.4281 113.189 29.1298L114.327 29.6794C114.046 30.1907 113.662 30.6081 113.177 30.932C112.691 31.2472 112.086 31.4048 111.362 31.4048ZM111.298 25.6534C110.838 25.6534 110.445 25.794 110.122 26.0752C109.798 26.3564 109.581 26.7313 109.47 27.1999H113.087C113.07 26.9784 112.998 26.7483 112.87 26.5098C112.742 26.2712 112.546 26.0709 112.282 25.9091C112.026 25.7386 111.698 25.6534 111.298 25.6534ZM115.735 31.2004V24.6821H117.039V25.5768H117.115C117.303 25.2615 117.58 25.0016 117.946 24.7971C118.321 24.5841 118.73 24.4776 119.173 24.4776C119.974 24.4776 120.574 24.7161 120.975 25.1933C121.376 25.6705 121.576 26.301 121.576 27.0849V31.2004H120.208V27.2638C120.208 26.7355 120.076 26.3521 119.812 26.1136C119.548 25.8664 119.203 25.7429 118.777 25.7429C118.445 25.7429 118.155 25.8367 117.908 26.0241C117.66 26.203 117.465 26.4416 117.32 26.7398C117.184 27.0381 117.115 27.3576 117.115 27.6984V31.2004H115.735ZM125.131 31.4048C124.663 31.4048 124.246 31.3154 123.879 31.1364C123.513 30.949 123.227 30.6891 123.022 30.3568C122.818 30.0245 122.716 29.6454 122.716 29.2193C122.716 28.7592 122.835 28.3673 123.074 28.0435C123.321 27.7112 123.649 27.4598 124.058 27.2894C124.467 27.119 124.918 27.0338 125.412 27.0338C125.821 27.0338 126.179 27.0721 126.486 27.1488C126.802 27.2255 127.04 27.3065 127.202 27.3916V27.0466C127.202 26.6205 127.048 26.2797 126.742 26.0241C126.435 25.7685 126.039 25.6407 125.553 25.6407C125.221 25.6407 124.906 25.7173 124.607 25.8707C124.31 26.0156 124.07 26.2158 123.891 26.4714L122.946 25.7429C123.227 25.351 123.598 25.0442 124.058 24.8227C124.527 24.5926 125.038 24.4776 125.591 24.4776C126.537 24.4776 127.266 24.7119 127.777 25.1805C128.288 25.6407 128.544 26.2882 128.544 27.1232V31.2004H127.202V30.3952H127.125C126.955 30.6593 126.7 30.8936 126.358 31.0981C126.018 31.3026 125.609 31.4048 125.131 31.4048ZM125.374 30.2801C125.732 30.2801 126.048 30.1949 126.32 30.0245C126.593 29.8541 126.806 29.6326 126.959 29.3599C127.121 29.0787 127.202 28.7763 127.202 28.4525C127.006 28.3417 126.776 28.2522 126.512 28.1841C126.248 28.1074 125.967 28.069 125.668 28.069C125.106 28.069 124.706 28.1841 124.467 28.4141C124.228 28.6357 124.109 28.9083 124.109 29.2321C124.109 29.5388 124.224 29.7902 124.454 29.9862C124.684 30.1822 124.991 30.2801 125.374 30.2801ZM130.064 31.2004V24.6821H131.368V25.6407H131.444C131.589 25.3084 131.836 25.0357 132.186 24.8227C132.543 24.6011 132.927 24.4904 133.336 24.4904C133.515 24.4904 133.664 24.5032 133.783 24.5287C133.911 24.5543 134.026 24.5841 134.128 24.6182V26.0496C133.966 25.9815 133.8 25.9261 133.63 25.8835C133.467 25.8409 133.297 25.8196 133.119 25.8196C132.795 25.8196 132.505 25.9091 132.249 26.088C132.002 26.2584 131.806 26.4927 131.662 26.7909C131.516 27.0806 131.444 27.4001 131.444 27.7495V31.2004H130.064ZM135.194 31.2004V24.6821H136.497V25.5768H136.574C136.761 25.2615 137.039 25.0016 137.405 24.7971C137.78 24.5841 138.189 24.4776 138.632 24.4776C139.432 24.4776 140.033 24.7161 140.434 25.1933C140.834 25.6705 141.034 26.301 141.034 27.0849V31.2004H139.667V27.2638C139.667 26.7355 139.535 26.3521 139.271 26.1136C139.007 25.8664 138.662 25.7429 138.235 25.7429C137.903 25.7429 137.614 25.8367 137.366 26.0241C137.119 26.203 136.924 26.4416 136.778 26.7398C136.642 27.0381 136.574 27.3576 136.574 27.6984V31.2004H135.194ZM143.4 23.7235C143.144 23.7235 142.923 23.6341 142.735 23.4551C142.556 23.2677 142.467 23.0461 142.467 22.7905C142.467 22.5349 142.556 22.3176 142.735 22.1387C142.923 21.9598 143.144 21.8703 143.4 21.8703C143.655 21.8703 143.873 21.9598 144.052 22.1387C144.239 22.3176 144.333 22.5349 144.333 22.7905C144.333 23.0461 144.239 23.2677 144.052 23.4551C143.873 23.6341 143.655 23.7235 143.4 23.7235ZM142.71 31.2004V24.6821H144.09V31.2004H142.71ZM148.756 31.4048C148.101 31.4048 147.521 31.2558 147.018 30.9575C146.516 30.6593 146.12 30.2503 145.83 29.7305C145.54 29.2022 145.395 28.6058 145.395 27.9412C145.395 27.2766 145.54 26.6844 145.83 26.1647C146.12 25.6364 146.516 25.2232 147.018 24.9249C147.521 24.6267 148.101 24.4776 148.756 24.4776C149.481 24.4776 150.09 24.6395 150.584 24.9633C151.087 25.2871 151.445 25.7258 151.658 26.2797L150.405 26.7909C150.107 26.0923 149.549 25.7429 148.731 25.7429C148.373 25.7429 148.045 25.8367 147.747 26.0241C147.449 26.203 147.21 26.4586 147.031 26.7909C146.852 27.1147 146.763 27.4982 146.763 27.9412C146.763 28.3843 146.852 28.772 147.031 29.1043C147.21 29.4366 147.449 29.6922 147.747 29.8711C148.045 30.0501 148.373 30.1395 148.731 30.1395C149.149 30.1395 149.502 30.0458 149.792 29.8584C150.082 29.6624 150.307 29.3982 150.469 29.0659L151.696 29.6027C151.466 30.1225 151.1 30.5528 150.597 30.8936C150.095 31.2344 149.481 31.4048 148.756 31.4048ZM154.862 31.4048C154.394 31.4048 153.976 31.3154 153.609 31.1364C153.243 30.949 152.958 30.6891 152.753 30.3568C152.549 30.0245 152.446 29.6454 152.446 29.2193C152.446 28.7592 152.566 28.3673 152.804 28.0435C153.052 27.7112 153.379 27.4598 153.788 27.2894C154.197 27.119 154.649 27.0338 155.143 27.0338C155.552 27.0338 155.91 27.0721 156.217 27.1488C156.532 27.2255 156.771 27.3065 156.932 27.3916V27.0466C156.932 26.6205 156.779 26.2797 156.472 26.0241C156.166 25.7685 155.769 25.6407 155.284 25.6407C154.951 25.6407 154.636 25.7173 154.338 25.8707C154.04 26.0156 153.801 26.2158 153.622 26.4714L152.676 25.7429C152.958 25.351 153.328 25.0442 153.788 24.8227C154.257 24.5926 154.769 24.4776 155.322 24.4776C156.268 24.4776 156.996 24.7119 157.508 25.1805C158.019 25.6407 158.274 26.2882 158.274 27.1232V31.2004H156.932V30.3952H156.856C156.686 30.6593 156.43 30.8936 156.089 31.0981C155.748 31.3026 155.339 31.4048 154.862 31.4048ZM155.105 30.2801C155.463 30.2801 155.778 30.1949 156.051 30.0245C156.323 29.8541 156.536 29.6326 156.69 29.3599C156.852 29.0787 156.932 28.7763 156.932 28.4525C156.737 28.3417 156.507 28.2522 156.242 28.1841C155.978 28.1074 155.697 28.069 155.399 28.069C154.836 28.069 154.436 28.1841 154.197 28.4141C153.959 28.6357 153.839 28.9083 153.839 29.2321C153.839 29.5388 153.954 29.7902 154.185 29.9862C154.415 30.1822 154.721 30.2801 155.105 30.2801Z" fill="white"/>
<path d="M152.994 0.375977H20.6741C9.46321 0.375977 0.375 9.46419 0.375 20.6751C0.375 31.8859 9.46321 40.9742 20.6741 40.9742H152.994C164.205 40.9742 173.293 31.8859 173.293 20.6751C173.293 9.46419 164.205 0.375977 152.994 0.375977Z" stroke="#747775"/>
</g>
<defs>
<linearGradient id="paint0_linear_568_870" x1="28.0319" y1="25.5958" x2="14.1218" y2="41.8937" gradientUnits="userSpaceOnUse">
<stop stop-color="#4285F4"/>
<stop offset="1" stop-color="#1B74E8"/>
</linearGradient>
<clipPath id="clip0_568_870">
<rect width="173.67" height="41.35" fill="white"/>
</clipPath>
</defs>
</svg>
