<svg width="174" height="44" viewBox="0 0 174 44" fill="none" xmlns="http://www.w3.org/2000/svg">
<g clip-path="url(#clip0_568_150)">
<path d="M152.156 0.391602H21.5127C9.84728 0.391602 0.390625 9.84826 0.390625 21.5136C0.390625 33.179 9.84728 42.6357 21.5127 42.6357H152.156C163.822 42.6357 173.278 33.179 173.278 21.5136C173.278 9.84826 163.822 0.391602 152.156 0.391602Z" fill="#1F1F1F"/>
<path d="M44.5924 18.6112H16.4297V14.1948C16.4297 11.7973 18.4967 9.77832 20.9512 9.77832H40.0709C42.5254 9.77832 44.5924 11.7973 44.5924 14.1948V18.6112Z" fill="#34A853"/>
<path d="M44.5924 22.6864H16.4297V17.9926C16.4297 15.4446 18.4967 13.2988 20.9512 13.2988H40.0709C42.5254 13.2988 44.5924 15.4446 44.5924 17.9926V22.6864Z" fill="#FBBC04"/>
<path d="M44.5924 26.5985H16.4297V21.9047C16.4297 19.3567 18.4967 17.2109 20.9512 17.2109H40.0709C42.5254 17.2109 44.5924 19.3567 44.5924 21.9047V26.5985Z" fill="#EA4335"/>
<path d="M16.4297 19.7455L34.3046 23.7834C36.3622 24.2882 38.677 23.7834 40.3487 22.5216L44.5924 19.4932V28.9569C44.5924 31.3544 42.5349 33.2472 40.0915 33.2472H20.9306C18.4872 33.2472 16.4297 31.3544 16.4297 28.9569V19.7455Z" fill="url(#paint0_linear_568_150)"/>
<path d="M54.3555 18.3655V15.762H54.9962C55.1521 15.5044 55.2776 15.1722 55.3725 14.7654C55.4742 14.3518 55.5453 13.8976 55.586 13.4026C55.6335 12.9077 55.6572 12.4094 55.6572 11.9077V9.53809H60.3252V15.762H61.1794V18.3655H60.0913V16.8197H55.4436V18.3655H54.3555ZM56.2166 15.762H59.2065V10.5958H56.7454V12.0704C56.7454 12.8094 56.6979 13.4908 56.603 14.1145C56.5148 14.7383 56.3861 15.2671 56.2166 15.701V15.762ZM64.5292 16.9824C63.9935 16.9824 63.5223 16.8604 63.1156 16.6163C62.7088 16.3722 62.3901 16.0434 62.1596 15.6298C61.929 15.2162 61.8138 14.7484 61.8138 14.2264C61.8138 13.7111 61.929 13.2467 62.1596 12.8331C62.3901 12.4128 62.7088 12.0806 63.1156 11.8365C63.5223 11.5924 63.9935 11.4704 64.5292 11.4704C65.058 11.4704 65.5258 11.5924 65.9326 11.8365C66.3394 12.0806 66.658 12.4128 66.8886 12.8331C67.119 13.2467 67.2343 13.7111 67.2343 14.2264C67.2343 14.7484 67.119 15.2162 66.8886 15.6298C66.658 16.0434 66.3394 16.3722 65.9326 16.6163C65.5258 16.8604 65.058 16.9824 64.5292 16.9824ZM64.5292 15.9756C64.8139 15.9756 65.0783 15.9078 65.3224 15.7722C65.5665 15.6298 65.7631 15.4298 65.9123 15.1722C66.0682 14.9078 66.1462 14.5925 66.1462 14.2264C66.1462 13.8603 66.0682 13.5484 65.9123 13.2908C65.7631 13.0263 65.5665 12.8263 65.3224 12.6907C65.0783 12.5484 64.8139 12.4772 64.5292 12.4772C64.2444 12.4772 63.9766 12.5484 63.7257 12.6907C63.4817 12.8263 63.2816 13.0263 63.1257 13.2908C62.9765 13.5484 62.902 13.8603 62.902 14.2264C62.902 14.5925 62.9765 14.9078 63.1257 15.1722C63.2816 15.4298 63.4817 15.6298 63.7257 15.7722C63.9766 15.9078 64.2444 15.9756 64.5292 15.9756ZM70.707 16.9824C70.1986 16.9824 69.7476 16.8672 69.3545 16.6367C68.968 16.3994 68.6629 16.0434 68.4392 15.5688C68.2154 15.0875 68.1036 14.484 68.1036 13.7586C68.1036 13.0195 68.1781 12.4094 68.3273 11.928C68.4764 11.4399 68.7239 11.0466 69.0697 10.7483C69.2866 10.5652 69.5544 10.4127 69.8731 10.2907C70.1986 10.1686 70.6019 10.0703 71.0833 9.99573C71.3341 9.95505 71.5172 9.91437 71.6325 9.87369C71.7477 9.83301 71.8189 9.78553 71.8461 9.73131C71.8799 9.6771 71.8969 9.61264 71.8969 9.53809H72.8936C72.8936 9.84318 72.8461 10.0873 72.7512 10.2703C72.663 10.4466 72.5003 10.5822 72.263 10.6771C72.0325 10.772 71.7037 10.85 71.2766 10.911C70.8291 10.9788 70.4867 11.0602 70.2494 11.1551C70.0189 11.25 69.829 11.3585 69.6799 11.4805C69.3476 11.7518 69.1443 12.1382 69.0697 12.6399H69.1307C69.2866 12.4026 69.5172 12.206 69.8223 12.05C70.1341 11.8873 70.4935 11.806 70.9003 11.806C71.3816 11.806 71.8054 11.9178 72.1715 12.1416C72.5376 12.3585 72.8224 12.6569 73.0258 13.0365C73.2359 13.4162 73.341 13.8467 73.341 14.3281C73.341 14.8298 73.2292 15.2841 73.0054 15.6909C72.7884 16.0908 72.48 16.4061 72.08 16.6367C71.6867 16.8672 71.2291 16.9824 70.707 16.9824ZM70.7172 15.996C71.1511 15.996 71.5138 15.8468 71.8054 15.5485C72.0969 15.2502 72.2427 14.8366 72.2427 14.3078C72.2427 13.8264 72.0969 13.4501 71.8054 13.1789C71.5138 12.9077 71.1511 12.7721 70.7172 12.7721C70.2968 12.7721 69.9375 12.9077 69.6392 13.1789C69.3476 13.4501 69.2019 13.8264 69.2019 14.3078C69.2019 14.8366 69.3443 15.2502 69.629 15.5485C69.9205 15.8468 70.2833 15.996 70.7172 15.996ZM75.971 16.9824C75.5981 16.9824 75.266 16.9112 74.9744 16.7689C74.6828 16.6197 74.4557 16.4129 74.293 16.1485C74.1303 15.8841 74.0489 15.5824 74.0489 15.2434C74.0489 14.8773 74.1438 14.5654 74.3337 14.3078C74.5303 14.0433 74.7913 13.8433 75.1168 13.7077C75.4422 13.5722 75.8015 13.5043 76.1948 13.5043C76.5202 13.5043 76.805 13.5348 77.0491 13.5959C77.2999 13.6569 77.4897 13.7213 77.6186 13.7891V13.5145C77.6186 13.1755 77.4965 12.9043 77.2524 12.7009C77.0084 12.4975 76.6931 12.3958 76.3067 12.3958C76.0422 12.3958 75.7914 12.4568 75.5541 12.5789C75.3168 12.6941 75.1269 12.8535 74.9846 13.0569L74.232 12.4772C74.4557 12.1653 74.7507 11.9212 75.1168 11.7449C75.4897 11.5619 75.8965 11.4704 76.3372 11.4704C77.0897 11.4704 77.6694 11.6568 78.0762 12.0297C78.4831 12.3958 78.6865 12.9111 78.6865 13.5755V16.8197H77.6186V16.179H77.5575C77.422 16.3892 77.2186 16.5756 76.9474 16.7384C76.6761 16.9011 76.3507 16.9824 75.971 16.9824ZM76.1643 16.0875C76.449 16.0875 76.6999 16.0197 76.9168 15.8841C77.1338 15.7485 77.3033 15.5722 77.4253 15.3552C77.5542 15.1315 77.6186 14.8908 77.6186 14.6332C77.4627 14.545 77.2796 14.4738 77.0694 14.4196C76.8592 14.3586 76.6354 14.3281 76.3982 14.3281C75.9507 14.3281 75.6321 14.4196 75.4422 14.6027C75.2523 14.7789 75.1575 14.9959 75.1575 15.2535C75.1575 15.4976 75.249 15.6977 75.432 15.8536C75.6151 16.0095 75.8592 16.0875 76.1643 16.0875ZM79.8959 16.8197V11.6331H82.4689C82.774 11.6331 83.0447 11.6941 83.2825 11.8161C83.5266 11.9314 83.7159 12.0907 83.852 12.2941C83.9944 12.4975 84.0656 12.7246 84.0656 12.9755C84.0656 13.2467 84.0045 13.4806 83.8825 13.6772C83.7667 13.8738 83.6142 14.0196 83.4249 14.1145V14.1755C83.6822 14.2772 83.8856 14.4298 84.035 14.6332C84.1907 14.8366 84.269 15.0705 84.269 15.3349C84.269 15.64 84.1876 15.9044 84.0249 16.1282C83.8684 16.3519 83.665 16.5248 83.4147 16.6468C83.1636 16.7621 82.896 16.8197 82.6113 16.8197H79.8959ZM80.9943 12.528V13.7484H82.3367C82.5197 13.7484 82.6723 13.6908 82.7943 13.5755C82.9164 13.4603 82.9774 13.3145 82.9774 13.1382C82.9774 12.9552 82.9164 12.8094 82.7943 12.7009C82.6723 12.5857 82.5197 12.528 82.3367 12.528H80.9943ZM80.9943 15.9044H82.4994C82.6958 15.9044 82.8585 15.8434 82.9875 15.7214C83.1229 15.5925 83.1909 15.4298 83.1909 15.2332C83.1909 15.0433 83.1229 14.8841 82.9875 14.7552C82.8585 14.6264 82.6958 14.562 82.4994 14.562H80.9943V15.9044ZM85.2883 16.8197V11.6331H86.3866V14.2874L86.3256 15.2637H86.3866L88.9799 11.6331H90.0681V16.8197H88.9799V14.1755L89.041 13.1992H88.9799L86.3866 16.8197H85.2883ZM92.6786 16.8197V12.589H90.9701V11.6331H95.4754V12.589H93.7668V16.8197H92.6786ZM97.4702 11.6331V13.362H98.6601C99.0129 13.362 99.3282 13.4365 99.6059 13.5857C99.8906 13.7349 100.114 13.9416 100.277 14.2061C100.44 14.4637 100.521 14.7586 100.521 15.0908C100.521 15.4231 100.44 15.718 100.277 15.9756C100.114 16.2332 99.8906 16.4401 99.6059 16.596C99.3282 16.7452 99.0129 16.8197 98.6601 16.8197H96.3719V11.6331H97.4702ZM97.4702 15.9044H98.5686C98.8126 15.9044 99.016 15.8264 99.1788 15.6705C99.3415 15.5146 99.4228 15.3214 99.4228 15.0908C99.4228 14.8603 99.3415 14.6671 99.1788 14.5111C99.016 14.3484 98.8126 14.2671 98.5686 14.2671H97.4702V15.9044ZM103.811 16.8197V11.6331H106.384C106.689 11.6331 106.96 11.6941 107.197 11.8161C107.441 11.9314 107.631 12.0907 107.767 12.2941C107.909 12.4975 107.98 12.7246 107.98 12.9755C107.98 13.2467 107.919 13.4806 107.797 13.6772C107.682 13.8738 107.53 14.0196 107.34 14.1145V14.1755C107.597 14.2772 107.8 14.4298 107.95 14.6332C108.106 14.8366 108.184 15.0705 108.184 15.3349C108.184 15.64 108.102 15.9044 107.94 16.1282C107.784 16.3519 107.581 16.5248 107.33 16.6468C107.078 16.7621 106.811 16.8197 106.526 16.8197H103.811ZM104.909 12.528V13.7484H106.252C106.435 13.7484 106.587 13.6908 106.709 13.5755C106.831 13.4603 106.892 13.3145 106.892 13.1382C106.892 12.9552 106.831 12.8094 106.709 12.7009C106.587 12.5857 106.435 12.528 106.252 12.528H104.909ZM104.909 15.9044H106.414C106.611 15.9044 106.773 15.8434 106.902 15.7214C107.038 15.5925 107.106 15.4298 107.106 15.2332C107.106 15.0433 107.038 14.8841 106.902 14.7552C106.773 14.6264 106.611 14.562 106.414 14.562H104.909V15.9044Z" fill="white"/>
<path d="M59.5653 32.6782C58.8826 32.6782 58.2398 32.554 57.6369 32.3058C57.0429 32.0576 56.5153 31.7118 56.0543 31.2685C55.5933 30.8163 55.2298 30.2888 54.9638 29.6859C54.7067 29.0741 54.5781 28.4136 54.5781 27.7043C54.5781 26.995 54.7067 26.339 54.9638 25.7361C55.2298 25.1243 55.5889 24.5968 56.041 24.1535C56.502 23.7013 57.034 23.3511 57.6369 23.1028C58.2398 22.8546 58.8826 22.7305 59.5653 22.7305C60.2923 22.7305 60.9617 22.859 61.5734 23.1161C62.194 23.3733 62.7127 23.7324 63.1294 24.1934L62.1187 25.1908C61.8084 24.845 61.436 24.579 61.0016 24.3929C60.576 24.2067 60.0972 24.1136 59.5653 24.1136C58.9358 24.1136 58.3551 24.2643 57.8231 24.5657C57.2911 24.8583 56.8611 25.275 56.5331 25.8158C56.2139 26.3478 56.0543 26.9773 56.0543 27.7043C56.0543 28.4313 56.2184 29.0653 56.5464 29.6061C56.8744 30.138 57.3044 30.5548 57.8364 30.8562C58.3684 31.1488 58.9491 31.2951 59.5786 31.2951C60.1549 31.2951 60.6779 31.1887 61.1479 30.9759C61.6178 30.7543 61.9945 30.4439 62.2783 30.0449C62.5709 29.646 62.7482 29.1672 62.8102 28.6087H59.552V27.3186H64.18C64.2332 27.558 64.2598 27.8107 64.2598 28.0767V28.09C64.2598 29.0121 64.0559 29.8189 63.6481 30.5104C63.2491 31.1931 62.695 31.7251 61.9857 32.1063C61.2764 32.4875 60.4696 32.6782 59.5653 32.6782ZM68.5421 32.6782C67.8416 32.6782 67.2254 32.5186 66.6935 32.1994C66.1615 31.8802 65.7448 31.4502 65.4434 30.9094C65.1419 30.3686 64.9912 29.7568 64.9912 29.0741C64.9912 28.4003 65.1419 27.7929 65.4434 27.2521C65.7448 26.7024 66.1615 26.268 66.6935 25.9488C67.2254 25.6297 67.8416 25.4701 68.5421 25.4701C69.2336 25.4701 69.8454 25.6297 70.3773 25.9488C70.9093 26.268 71.3259 26.7024 71.6274 27.2521C71.9289 27.7929 72.0796 28.4003 72.0796 29.0741C72.0796 29.7568 71.9289 30.3686 71.6274 30.9094C71.3259 31.4502 70.9093 31.8802 70.3773 32.1994C69.8454 32.5186 69.2336 32.6782 68.5421 32.6782ZM68.5421 31.3616C68.9144 31.3616 69.2602 31.2729 69.5794 31.0956C69.8986 30.9094 70.1556 30.6479 70.3507 30.3109C70.5546 29.9652 70.6566 29.5529 70.6566 29.0741C70.6566 28.5954 70.5546 28.1875 70.3507 27.8506C70.1556 27.5048 69.8986 27.2433 69.5794 27.066C69.2602 26.8798 68.9144 26.7867 68.5421 26.7867C68.1697 26.7867 67.8194 26.8798 67.4914 27.066C67.1722 27.2433 66.9106 27.5048 66.7068 27.8506C66.5117 28.1875 66.4142 28.5954 66.4142 29.0741C66.4142 29.5529 66.5117 29.9652 66.7068 30.3109C66.9106 30.6479 67.1722 30.9094 67.4914 31.0956C67.8194 31.2729 68.1697 31.3616 68.5421 31.3616ZM76.5942 32.6782C75.8938 32.6782 75.2776 32.5186 74.7456 32.1994C74.2136 31.8802 73.797 31.4502 73.4955 30.9094C73.1941 30.3686 73.0433 29.7568 73.0433 29.0741C73.0433 28.4003 73.1941 27.7929 73.4955 27.2521C73.797 26.7024 74.2136 26.268 74.7456 25.9488C75.2776 25.6297 75.8938 25.4701 76.5942 25.4701C77.2857 25.4701 77.8975 25.6297 78.4296 25.9488C78.9615 26.268 79.3785 26.7024 79.6797 27.2521C79.9809 27.7929 80.1319 28.4003 80.1319 29.0741C80.1319 29.7568 79.9809 30.3686 79.6797 30.9094C79.3785 31.4502 78.9615 31.8802 78.4296 32.1994C77.8975 32.5186 77.2857 32.6782 76.5942 32.6782ZM76.5942 31.3616C76.9665 31.3616 77.3123 31.2729 77.6315 31.0956C77.9507 30.9094 78.2078 30.6479 78.403 30.3109C78.6072 29.9652 78.7089 29.5529 78.7089 29.0741C78.7089 28.5954 78.6072 28.1875 78.403 27.8506C78.2078 27.5048 77.9507 27.2433 77.6315 27.066C77.3123 26.8798 76.9665 26.7867 76.5942 26.7867C76.2218 26.7867 75.8716 26.8798 75.5435 27.066C75.2244 27.2433 74.9628 27.5048 74.7589 27.8506C74.5639 28.1875 74.4663 28.5954 74.4663 29.0741C74.4663 29.5529 74.5639 29.9652 74.7589 30.3109C74.9628 30.6479 75.2244 30.9094 75.5435 31.0956C75.8716 31.2729 76.2218 31.3616 76.5942 31.3616ZM84.5135 35.5508C83.919 35.5508 83.405 35.4532 82.9708 35.2582C82.5453 35.072 82.1995 34.8281 81.9335 34.5267C81.6675 34.2341 81.4766 33.9327 81.3616 33.6224L82.6915 33.0638C82.8331 33.4184 83.0592 33.7066 83.3698 33.9283C83.689 34.1588 84.07 34.274 84.5135 34.274C85.1339 34.274 85.6212 34.0879 85.9764 33.7155C86.3394 33.3431 86.5217 32.8156 86.5217 32.1329V31.4812H86.4419C86.2291 31.8004 85.9318 32.0576 85.5508 32.2526C85.1785 32.4388 84.7529 32.5319 84.2741 32.5319C83.6976 32.5319 83.1703 32.3856 82.6915 32.093C82.2128 31.8004 81.8271 31.3926 81.5345 30.8695C81.2419 30.3375 81.0957 29.7169 81.0957 29.0076C81.0957 28.2895 81.2419 27.6689 81.5345 27.1458C81.8271 26.6138 82.2128 26.2015 82.6915 25.9089C83.1703 25.6164 83.6976 25.4701 84.2741 25.4701C84.7529 25.4701 85.1785 25.5676 85.5508 25.7627C85.9318 25.9577 86.2291 26.2148 86.4419 26.534H86.5217V25.6829H87.8915V32.1063C87.8915 32.8422 87.7452 33.4673 87.4526 33.9815C87.1686 34.4957 86.7744 34.8858 86.269 35.1518C85.7636 35.4178 85.1785 35.5508 84.5135 35.5508ZM84.5268 31.2286C84.8812 31.2286 85.209 31.1443 85.5109 30.9759C85.8121 30.7985 86.0562 30.5459 86.2424 30.2178C86.4286 29.8809 86.5217 29.4776 86.5217 29.0076C86.5217 28.52 86.4286 28.1121 86.2424 27.7841C86.0562 27.4472 85.8121 27.1945 85.5109 27.0261C85.209 26.8576 84.8812 26.7734 84.5268 26.7734C84.1716 26.7734 83.8392 26.862 83.5294 27.0394C83.2274 27.2078 82.9841 27.4561 82.7979 27.7841C82.6117 28.1121 82.5187 28.52 82.5187 29.0076C82.5187 29.4864 82.6117 29.8942 82.7979 30.2311C82.9841 30.5592 83.2274 30.8075 83.5294 30.9759C83.8392 31.1443 84.1716 31.2286 84.5268 31.2286ZM89.5851 32.4654V22.9433H91.0214V32.4654H89.5851ZM95.7481 32.6782C95.0831 32.6782 94.4894 32.523 93.966 32.2127C93.4434 31.9024 93.0312 31.4768 92.7292 30.936C92.4366 30.3952 92.2903 29.779 92.2903 29.0874C92.2903 28.4402 92.4327 27.8418 92.7159 27.292C92.9999 26.7423 93.3942 26.3035 93.8995 25.9754C94.4143 25.6385 95.0033 25.4701 95.6683 25.4701C96.3692 25.4701 96.963 25.6208 97.4504 25.9222C97.9471 26.2237 98.3242 26.6359 98.5808 27.1591C98.8382 27.6822 98.9665 28.2717 98.9665 28.9278C98.9665 29.0254 98.9625 29.114 98.9532 29.1938C98.9532 29.2736 98.9492 29.3356 98.9399 29.38H93.7C93.7712 30.0538 94.0059 30.5592 94.4049 30.8961C94.8132 31.233 95.274 31.4015 95.788 31.4015C96.2495 31.4015 96.6305 31.2995 96.9317 31.0956C97.2337 30.8828 97.4731 30.6213 97.6498 30.3109L98.8335 30.8828C98.5409 31.4148 98.1419 31.8492 97.6366 32.1861C97.1312 32.5141 96.5022 32.6782 95.7481 32.6782ZM95.6816 26.6936C95.2028 26.6936 94.7952 26.8399 94.4581 27.1325C94.1217 27.425 93.8956 27.8152 93.7798 28.3028H97.5435C97.5262 28.0722 97.4504 27.8328 97.3174 27.5846C97.1844 27.3364 96.981 27.128 96.7056 26.9596C96.4396 26.7822 96.0986 26.6936 95.6816 26.6936ZM103.642 32.4654V22.9433H105.105V27.558H105.185L108.975 22.9433H110.81V23.023L106.794 27.7841L111.023 32.3856V32.4654H109.108L105.185 28.1033H105.105V32.4654H103.642ZM114.673 32.6782C113.972 32.6782 113.357 32.5186 112.825 32.1994C112.293 31.8802 111.876 31.4502 111.575 30.9094C111.273 30.3686 111.123 29.7568 111.123 29.0741C111.123 28.4003 111.273 27.7929 111.575 27.2521C111.876 26.7024 112.293 26.268 112.825 25.9488C113.357 25.6297 113.972 25.4701 114.673 25.4701C115.365 25.4701 115.977 25.6297 116.509 25.9488C117.041 26.268 117.457 26.7024 117.759 27.2521C118.06 27.7929 118.211 28.4003 118.211 29.0741C118.211 29.7568 118.06 30.3686 117.759 30.9094C117.457 31.4502 117.041 31.8802 116.509 32.1994C115.977 32.5186 115.365 32.6782 114.673 32.6782ZM114.673 31.3616C115.046 31.3616 115.392 31.2729 115.711 31.0956C116.03 30.9094 116.287 30.6479 116.482 30.3109C116.685 29.9652 116.788 29.5529 116.788 29.0741C116.788 28.5954 116.685 28.1875 116.482 27.8506C116.287 27.5048 116.03 27.2433 115.711 27.066C115.392 26.8798 115.046 26.7867 114.673 26.7867C114.301 26.7867 113.951 26.8798 113.623 27.066C113.304 27.2433 113.042 27.5048 112.838 27.8506C112.643 28.1875 112.546 28.5954 112.546 29.0741C112.546 29.5529 112.643 29.9652 112.838 30.3109C113.042 30.6479 113.304 30.9094 113.623 31.0956C113.951 31.2729 114.301 31.3616 114.673 31.3616ZM119.404 32.4654V25.6829H120.827V31.2153H123.061V25.6829H124.484V31.2153H126.718V25.6829H128.141V32.4654H119.404ZM132.867 32.6782C132.202 32.6782 131.607 32.523 131.084 32.2127C130.561 31.9024 130.149 31.4768 129.848 30.936C129.555 30.3952 129.409 29.779 129.409 29.0874C129.409 28.4402 129.55 27.8418 129.834 27.292C130.118 26.7423 130.513 26.3035 131.018 25.9754C131.532 25.6385 132.122 25.4701 132.787 25.4701C133.487 25.4701 134.081 25.6208 134.569 25.9222C135.065 26.2237 135.442 26.6359 135.699 27.1591C135.956 27.6822 136.085 28.2717 136.085 28.9278C136.085 29.0254 136.08 29.114 136.072 29.1938C136.072 29.2736 136.067 29.3356 136.058 29.38H130.818C130.889 30.0538 131.124 30.5592 131.523 30.8961C131.931 31.233 132.392 31.4015 132.906 31.4015C133.367 31.4015 133.748 31.2995 134.05 31.0956C134.351 30.8828 134.591 30.6213 134.768 30.3109L135.952 30.8828C135.659 31.4148 135.26 31.8492 134.755 32.1861C134.25 32.5141 133.62 32.6782 132.867 32.6782ZM132.8 26.6936C132.321 26.6936 131.913 26.8399 131.577 27.1325C131.239 27.425 131.013 27.8152 130.898 28.3028H134.662C134.644 28.0722 134.569 27.8328 134.436 27.5846C134.303 27.3364 134.099 27.128 133.824 26.9596C133.558 26.7822 133.216 26.6936 132.8 26.6936ZM137.394 32.5718C137.19 32.5718 136.995 32.5496 136.809 32.5053V31.1754C136.933 31.2374 137.07 31.2685 137.221 31.2685C137.522 31.2685 137.735 31.1532 137.859 30.9227C137.984 30.6833 138.059 30.3819 138.085 30.0184C138.112 29.6548 138.125 29.2781 138.125 28.8879V25.6829H143.312V32.4654H141.889V26.933H139.482V29.114C139.482 29.575 139.45 30.0139 139.389 30.4306C139.335 30.8384 139.234 31.2064 139.083 31.5344C138.932 31.8536 138.719 32.1063 138.444 32.2925C138.178 32.4787 137.828 32.5718 137.394 32.5718ZM148.035 32.6782C147.37 32.6782 146.777 32.523 146.253 32.2127C145.731 31.9024 145.318 31.4768 145.016 30.936C144.724 30.3952 144.578 29.779 144.578 29.0874C144.578 28.4402 144.72 27.8418 145.003 27.292C145.287 26.7423 145.681 26.3035 146.187 25.9754C146.701 25.6385 147.291 25.4701 147.955 25.4701C148.656 25.4701 149.25 25.6208 149.738 25.9222C150.234 26.2237 150.611 26.6359 150.868 27.1591C151.125 27.6822 151.254 28.2717 151.254 28.9278C151.254 29.0254 151.25 29.114 151.24 29.1938C151.24 29.2736 151.236 29.3356 151.227 29.38H145.987C146.058 30.0538 146.293 30.5592 146.692 30.8961C147.1 31.233 147.561 31.4015 148.075 31.4015C148.537 31.4015 148.918 31.2995 149.219 31.0956C149.521 30.8828 149.76 30.6213 149.937 30.3109L151.121 30.8828C150.828 31.4148 150.429 31.8492 149.924 32.1861C149.418 32.5141 148.789 32.6782 148.035 32.6782ZM147.969 26.6936C147.49 26.6936 147.082 26.8399 146.745 27.1325C146.409 27.425 146.183 27.8152 146.067 28.3028H149.831C149.813 28.0722 149.738 27.8328 149.605 27.5846C149.472 27.3364 149.268 27.128 148.993 26.9596C148.727 26.7822 148.386 26.6936 147.969 26.6936ZM152.587 32.4654V25.6829H154.023V28.6884H154.103L156.763 25.6829H158.412V25.7627L155.579 28.8613L158.518 32.3856V32.4654H156.816L154.103 29.1273H154.023V32.4654H152.587Z" fill="white"/>
<path d="M152.156 0.391602H21.5127C9.84728 0.391602 0.390625 9.84826 0.390625 21.5136C0.390625 33.179 9.84728 42.6357 21.5127 42.6357H152.156C163.822 42.6357 173.278 33.179 173.278 21.5136C173.278 9.84826 163.822 0.391602 152.156 0.391602Z" stroke="#747775"/>
</g>
<defs>
<linearGradient id="paint0_linear_568_150" x1="29.1689" y1="26.6328" x2="14.6948" y2="43.5914" gradientUnits="userSpaceOnUse">
<stop stop-color="#4285F4"/>
<stop offset="1" stop-color="#1B74E8"/>
</linearGradient>
<clipPath id="clip0_568_150">
<rect width="173.67" height="43.0264" fill="white"/>
</clipPath>
</defs>
</svg>
