<svg width="174" height="52" viewBox="0 0 174 52" fill="none" xmlns="http://www.w3.org/2000/svg">
<g clip-path="url(#clip0_568_1070)">
<path d="M147.854 0.46875H25.8152C11.8167 0.46875 0.46875 11.8167 0.46875 25.8152C0.46875 39.8136 11.8167 51.1616 25.8152 51.1616H147.854C161.852 51.1616 173.2 39.8136 173.2 25.8152C173.2 11.8167 161.852 0.46875 147.854 0.46875Z" fill="#1F1F1F"/>
<path d="M53.5101 22.3338H19.7148V17.0341C19.7148 14.1571 22.1952 11.7344 25.1407 11.7344H48.0843C51.0297 11.7344 53.5101 14.1571 53.5101 17.0341V22.3338Z" fill="#34A853"/>
<path d="M53.5101 27.2241H19.7148V21.5915C19.7148 18.5339 22.1952 15.959 25.1407 15.959H48.0843C51.0297 15.959 53.5101 18.5339 53.5101 21.5915V27.2241Z" fill="#FBBC04"/>
<path d="M53.5101 31.9174H19.7148V26.2849C19.7148 23.2273 22.1952 20.6523 25.1407 20.6523H48.0843C51.0297 20.6523 53.5101 23.2273 53.5101 26.2849V31.9174Z" fill="#EA4335"/>
<path d="M19.7148 23.6954L41.1648 28.5409C43.6339 29.1466 46.4116 28.5409 48.4176 27.0267L53.5101 23.3926V34.7491C53.5101 37.6261 51.0411 39.8974 48.109 39.8974H25.1159C22.1839 39.8974 19.7148 37.6261 19.7148 34.7491V23.6954Z" fill="url(#paint0_linear_568_1070)"/>
<path d="M71.9396 14.0566V14.9108H76.4794V14.0566H71.9396ZM65.5204 11.2131V11.9941H70.9023V11.2131H65.5204ZM65.3862 16.058V16.8512H70.9633V16.058H65.3862ZM65.3495 14.0077V14.7888H71.0487V14.0077H65.3495ZM74.2095 14.3983V21.0982H75.1004V14.3983H74.2095ZM67.7781 9.98047V11.6158H68.669V9.98047H67.7781ZM67.7781 14.6423V21.147H68.669V14.6423H67.7781ZM71.5003 10.9324V15.2037C71.5003 16.9367 71.3294 19.0479 69.7673 20.5856C69.987 20.7076 70.3165 21.0127 70.4263 21.2202C72.1471 19.5239 72.3668 17.0465 72.3668 15.2159V11.4449C72.5376 11.4205 72.6108 11.3717 72.623 11.2741L71.5003 10.9324ZM75.5886 10.0781C74.6977 10.5174 73.0868 10.9446 71.72 11.2375C71.8298 11.4205 71.9518 11.7378 72.0006 11.9331C73.4651 11.6768 75.1736 11.2619 76.3208 10.7493L75.5886 10.0781ZM68.5836 17.0831L68.0832 17.498C68.5348 17.8764 69.6819 18.9503 70.0724 19.4018L70.6094 18.7184C70.3043 18.4377 68.9741 17.3516 68.5836 17.0831ZM66.2526 12.2138C66.4967 12.7751 66.692 13.5074 66.7286 13.9833L67.4974 13.7759C67.4364 13.3121 67.2289 12.5921 66.9727 12.0551L66.2526 12.2138ZM69.3768 12.0307C69.2426 12.5433 68.9863 13.2999 68.7666 13.7881L69.4989 13.9589C69.7185 13.5074 69.9748 12.824 70.2067 12.2138L69.3768 12.0307ZM67.7903 16.4607C67.2045 17.6567 66.094 18.9747 65.1055 19.6215C65.3129 19.7679 65.5814 20.0608 65.7279 20.2683C66.7042 19.5117 67.8269 18.0716 68.4493 16.717L67.7903 16.4607ZM77.5046 12.9216V13.7881H80.7752V12.9216H77.5046ZM78.8104 10.1147V18.096H79.7013V10.1147H78.8104ZM77.3215 18.3035L77.6388 19.2188C78.6761 18.7794 79.9942 18.1937 81.2389 17.6323L81.0193 16.8024C79.6646 17.376 78.249 17.9618 77.3215 18.3035ZM82.0688 16.717V21.1714H82.9475V17.4126H86.572V21.1348H87.4751V16.717H82.0688ZM82.5326 19.9876V20.7076H87.1456V19.9876H82.5326ZM82.5081 18.3645V19.0235H87.0846V18.3645H82.5081ZM84.3631 12.8972V15.6553H85.0587V12.8972H84.3631ZM82.2275 13.2633H87.2554V15.3257H82.2275V13.2633ZM81.483 12.5555V16.0214H88.0487V12.5555H81.483ZM82.679 13.6904C82.8987 14.142 83.1183 14.74 83.1916 15.1061L83.7773 14.9108C83.7041 14.5569 83.4844 13.9711 83.2526 13.5318L82.679 13.6904ZM86.0717 13.5196C85.9618 13.9223 85.7178 14.5203 85.5225 14.923L86.0229 15.1061C86.2425 14.7522 86.4866 14.2274 86.7185 13.727L86.0717 13.5196ZM83.7285 10.2612V11.0544H86.2059V10.2612H83.7285ZM82.6912 10.5907C82.2153 11.5426 81.3854 12.4578 80.5433 13.0802C80.7386 13.2267 81.0437 13.5562 81.1657 13.7148C82.0322 13.0192 82.9475 11.9331 83.5089 10.8347L82.6912 10.5907ZM85.4615 10.2612V10.7249H85.7055C86.3279 11.811 87.3653 12.9094 88.3172 13.5928C88.4636 13.3609 88.7321 13.0436 88.9274 12.885C88.0121 12.3236 86.9625 11.2863 86.3768 10.2612H85.4615ZM90.1111 10.7005V11.5548H100.558V10.7005H90.1111ZM90.9166 16.656V17.5102H99.7278V16.656H90.9166ZM89.8427 19.8046V20.6588H100.753V19.8046H89.8427ZM94.7608 15.1427V20.4025H95.7127V15.1427H94.7608ZM90.3308 13.9955L90.3674 14.923C92.5275 14.8498 95.9202 14.7034 99.1054 14.5569L99.1542 13.727C95.8713 13.8491 92.4421 13.9589 90.3308 13.9955ZM93.6625 11.091C93.2963 12.0551 92.6007 13.3975 92.0515 14.2396L92.8936 14.5447C93.455 13.7515 94.1628 12.4945 94.712 11.4205L93.6625 11.091ZM96.3961 12.4212C97.6287 13.3243 99.0932 14.6179 99.7766 15.4844L100.594 14.8986C99.8742 14.0199 98.3487 12.7629 97.1405 11.9209L96.3961 12.4212Z" fill="white"/>
<path d="M71.4768 39.2132C70.6575 39.2132 69.8862 39.0643 69.1627 38.7664C68.4499 38.4685 67.8168 38.0536 67.2636 37.5216C66.7104 36.979 66.2742 36.346 65.955 35.6225C65.6464 34.8884 65.4922 34.0958 65.4922 33.2446C65.4922 32.3935 65.6464 31.6062 65.955 30.8827C66.2742 30.1486 66.7051 29.5156 67.2477 28.9836C67.8009 28.441 68.4392 28.0207 69.1627 27.7229C69.8862 27.425 70.6575 27.276 71.4768 27.276C72.3491 27.276 73.1524 27.4302 73.8866 27.7388C74.6313 28.0474 75.2537 28.4783 75.7537 29.0315L74.5409 30.2284C74.1685 29.8135 73.7216 29.4943 73.2003 29.2709C72.6896 29.0474 72.1151 28.9357 71.4768 28.9357C70.7213 28.9357 70.0245 29.1166 69.3862 29.4783C68.7478 29.8294 68.2318 30.3295 67.8381 30.9785C67.4551 31.6168 67.2636 32.3722 67.2636 33.2446C67.2636 34.117 67.4605 34.8778 67.8541 35.5267C68.2477 36.1651 68.7638 36.6652 69.4021 37.0269C70.0405 37.378 70.7373 37.5535 71.4927 37.5535C72.1843 37.5535 72.812 37.4258 73.3759 37.1705C73.9398 36.9046 74.3919 36.5321 74.7324 36.0534C75.0835 35.5746 75.2963 35.0001 75.3707 34.3298H71.4608V32.7818H77.0145C77.0783 33.0691 77.1102 33.3723 77.1102 33.6915V33.7074C77.1102 34.8139 76.8655 35.7821 76.3761 36.6119C75.8974 37.4312 75.2324 38.0696 74.3813 38.527C73.5301 38.9845 72.562 39.2132 71.4768 39.2132ZM82.2489 39.2132C81.4083 39.2132 80.669 39.0217 80.0306 38.6387C79.3923 38.2557 78.8922 37.7397 78.5305 37.0907C78.1687 36.4417 77.9879 35.7076 77.9879 34.8884C77.9879 34.0798 78.1687 33.351 78.5305 32.702C78.8922 32.0424 79.3923 31.5211 80.0306 31.1381C80.669 30.755 81.4083 30.5635 82.2489 30.5635C83.0788 30.5635 83.8129 30.755 84.4512 31.1381C85.0896 31.5211 85.5896 32.0424 85.9514 32.702C86.3131 33.351 86.494 34.0798 86.494 34.8884C86.494 35.7076 86.3131 36.4417 85.9514 37.0907C85.5896 37.7397 85.0896 38.2557 84.4512 38.6387C83.8129 39.0217 83.0788 39.2132 82.2489 39.2132ZM82.2489 37.6333C82.6957 37.6333 83.1107 37.5269 83.4937 37.3141C83.8767 37.0907 84.1852 36.7769 84.4193 36.3726C84.664 35.9576 84.7864 35.4629 84.7864 34.8884C84.7864 34.3139 84.664 33.8245 84.4193 33.4202C84.1852 33.0052 83.8767 32.6914 83.4937 32.4786C83.1107 32.2552 82.6957 32.1435 82.2489 32.1435C81.8021 32.1435 81.3818 32.2552 80.9881 32.4786C80.6051 32.6914 80.2912 33.0052 80.0466 33.4202C79.8125 33.8245 79.6955 34.3139 79.6955 34.8884C79.6955 35.4629 79.8125 35.9576 80.0466 36.3726C80.2912 36.7769 80.6051 37.0907 80.9881 37.3141C81.3818 37.5269 81.8021 37.6333 82.2489 37.6333ZM91.9114 39.2132C91.071 39.2132 90.3315 39.0217 89.6931 38.6387C89.0548 38.2557 88.5548 37.7397 88.193 37.0907C87.8313 36.4417 87.6504 35.7076 87.6504 34.8884C87.6504 34.0798 87.8313 33.351 88.193 32.702C88.5548 32.0424 89.0548 31.5211 89.6931 31.1381C90.3315 30.755 91.071 30.5635 91.9114 30.5635C92.7413 30.5635 93.4754 30.755 94.1139 31.1381C94.7523 31.5211 95.2527 32.0424 95.6141 32.702C95.9755 33.351 96.1567 34.0798 96.1567 34.8884C96.1567 35.7076 95.9755 36.4417 95.6141 37.0907C95.2527 37.7397 94.7523 38.2557 94.1139 38.6387C93.4754 39.0217 92.7413 39.2132 91.9114 39.2132ZM91.9114 37.6333C92.3583 37.6333 92.7732 37.5269 93.1562 37.3141C93.5392 37.0907 93.8478 36.7769 94.082 36.3726C94.327 35.9576 94.4491 35.4629 94.4491 34.8884C94.4491 34.3139 94.327 33.8245 94.082 33.4202C93.8478 33.0052 93.5392 32.6914 93.1562 32.4786C92.7732 32.2552 92.3583 32.1435 91.9114 32.1435C91.4646 32.1435 91.0444 32.2552 90.6507 32.4786C90.2677 32.6914 89.9538 33.0052 89.7091 33.4202C89.4751 33.8245 89.358 34.3139 89.358 34.8884C89.358 35.4629 89.4751 35.9576 89.7091 36.3726C89.9538 36.7769 90.2677 37.0907 90.6507 37.3141C91.0444 37.5269 91.4646 37.6333 91.9114 37.6333ZM101.415 42.6604C100.701 42.6604 100.084 42.5433 99.5634 42.3093C99.0527 42.0858 98.6378 41.7932 98.3186 41.4315C97.9995 41.0804 97.7704 40.7187 97.6324 40.3463L99.2283 39.676C99.3982 40.1016 99.6695 40.4474 100.042 40.7134C100.425 40.99 100.882 41.1283 101.415 41.1283C102.159 41.1283 102.744 40.9049 103.17 40.458C103.606 40.0112 103.824 39.3782 103.824 38.5589V37.7769H103.729C103.473 38.16 103.117 38.4685 102.659 38.7026C102.213 38.926 101.702 39.0377 101.127 39.0377C100.436 39.0377 99.8028 38.8621 99.2283 38.511C98.6538 38.16 98.191 37.6706 97.8399 37.0428C97.4888 36.4045 97.3132 35.6598 97.3132 34.8086C97.3132 33.9468 97.4888 33.2021 97.8399 32.5744C98.191 31.936 98.6538 31.4413 99.2283 31.0902C99.8028 30.7391 100.436 30.5635 101.127 30.5635C101.702 30.5635 102.213 30.6806 102.659 30.9146C103.117 31.1487 103.473 31.4572 103.729 31.8402H103.824V30.8189H105.468V38.527C105.468 39.4101 105.293 40.1602 104.942 40.7772C104.601 41.3943 104.128 41.8624 103.521 42.1816C102.915 42.5008 102.213 42.6604 101.415 42.6604ZM101.431 37.4737C101.856 37.4737 102.249 37.3726 102.612 37.1705C102.973 36.9577 103.266 36.6545 103.489 36.2608C103.713 35.8565 103.824 35.3725 103.824 34.8086C103.824 34.2235 103.713 33.734 103.489 33.3404C103.266 32.9361 102.973 32.6328 102.612 32.4307C102.249 32.2286 101.856 32.1275 101.431 32.1275C101.004 32.1275 100.605 32.2339 100.234 32.4467C99.8713 32.6488 99.5794 32.9468 99.356 33.3404C99.1325 33.734 99.0208 34.2235 99.0208 34.8086C99.0208 35.3831 99.1325 35.8725 99.356 36.2768C99.5794 36.6704 99.8713 36.9684 100.234 37.1705C100.605 37.3726 101.004 37.4737 101.431 37.4737ZM107.501 38.9579V27.5313H109.224V38.9579H107.501ZM114.896 39.2132C114.098 39.2132 113.386 39.0271 112.758 38.6547C112.131 38.2823 111.636 37.7716 111.273 37.1226C110.922 36.4737 110.747 35.7342 110.747 34.9043C110.747 34.1277 110.918 33.4096 111.258 32.7499C111.598 32.0902 112.071 31.5636 112.678 31.17C113.296 30.7656 114.002 30.5635 114.8 30.5635C115.642 30.5635 116.354 30.7444 116.939 31.1061C117.535 31.4678 117.987 31.9626 118.295 32.5903C118.604 33.2181 118.758 33.9255 118.758 34.7128C118.758 34.8299 118.753 34.9363 118.742 35.032C118.742 35.1278 118.738 35.2022 118.726 35.2554H112.438C112.524 36.064 112.806 36.6704 113.284 37.0747C113.774 37.4791 114.327 37.6812 114.944 37.6812C115.498 37.6812 115.955 37.5589 116.316 37.3141C116.679 37.0588 116.966 36.745 117.178 36.3726L118.599 37.0588C118.248 37.6971 117.769 38.2184 117.162 38.6228C116.556 39.0164 115.801 39.2132 114.896 39.2132ZM114.816 32.0318C114.242 32.0318 113.753 32.2073 113.348 32.5584C112.944 32.9095 112.673 33.3776 112.534 33.9628H117.051C117.03 33.6861 116.939 33.3989 116.779 33.101C116.62 32.8031 116.376 32.553 116.045 32.3509C115.726 32.1381 115.317 32.0318 114.816 32.0318ZM130.162 27.8346L130.274 28.8081L138.11 28.042L138.014 27.0685L130.162 27.8346ZM129.971 34.9363L130.05 35.9257L138.333 35.1278L138.221 34.1543L129.971 34.9363ZM131.838 25.5524C132.157 29.5581 134.663 32.7339 136.881 32.7339C137.775 32.7339 138.174 32.319 138.365 30.8029C138.078 30.7072 137.743 30.5316 137.503 30.3242C137.439 31.3296 137.328 31.6807 136.945 31.6807C135.413 31.6966 133.194 28.9996 132.923 25.5524H131.838ZM131.902 32.6382C132.173 36.8992 134.423 40.2346 136.897 40.2346C137.854 40.2346 138.253 39.8037 138.445 38.1919C138.158 38.0961 137.807 37.9046 137.567 37.6812C137.487 38.7823 137.376 39.1654 136.961 39.1654C135.237 39.1973 133.226 36.3566 133.003 32.6382H131.902ZM136.067 28.5208C134.822 30.0209 132.285 31.0742 129.843 31.6487C130.066 31.8562 130.418 32.319 130.561 32.5424C133.003 31.8243 135.668 30.6433 137.072 28.9038L136.067 28.5208ZM136.306 35.5906C134.966 37.378 132.157 38.543 129.348 39.1654C129.572 39.3888 129.923 39.8995 130.05 40.1389C132.875 39.3569 135.828 38.0323 137.376 35.9736L136.306 35.5906ZM134.343 26.2227C135.062 26.494 135.971 26.9249 136.418 27.292L136.977 26.5738C136.514 26.2387 135.604 25.8238 134.902 25.6003L134.343 26.2227ZM134.104 33.0531C134.838 33.3563 135.732 33.867 136.179 34.25L136.849 33.5638C136.386 33.1808 135.477 32.718 134.742 32.4307L134.104 33.0531ZM124.8 29.5102V30.5476H129.284V29.5102H124.8ZM123.938 32.2392V33.2925H129.779V32.2392H123.938ZM124.305 34.3458C124.609 35.3193 124.864 36.5641 124.88 37.3939L125.774 37.1705C125.71 36.3406 125.454 35.1118 125.135 34.1383L124.305 34.3458ZM123.795 38.6387L124.034 39.7558C125.694 39.4047 127.896 38.926 130.003 38.4632L129.923 37.4578C127.673 37.9206 125.343 38.3834 123.795 38.6387ZM128.742 33.9947C128.598 34.8405 128.311 36.1013 128.072 36.8832L128.854 37.1067C129.125 36.3566 129.396 35.2076 129.667 34.2341L128.742 33.9947ZM126.444 29.8933V38.7664L127.497 38.5908V29.8933H126.444ZM126.396 25.5684C125.853 26.8451 124.832 28.4729 123.38 29.6858C123.603 29.8454 123.954 30.1965 124.13 30.4359C125.71 29.0474 126.747 27.3558 127.369 26.127V25.8238H127.018V25.5684H126.396ZM126.587 25.5684V26.4142H126.811C127.736 27.2122 128.822 28.5368 129.364 29.3507L130.162 28.441C129.604 27.6431 128.423 26.4142 127.481 25.5684H126.587ZM143.536 25.4727C142.642 27.7548 141.174 29.9731 139.514 31.3615C139.833 31.553 140.344 31.9839 140.583 32.2073C142.211 30.6752 143.775 28.3133 144.781 25.8238L143.536 25.4727ZM143.344 27.3877L142.77 28.5208H152.345V27.3877H143.344ZM151.962 27.3877V27.6271C151.818 32.8457 151.659 34.6809 151.292 35.0959C151.164 35.2714 150.989 35.3193 150.733 35.3193C150.43 35.3193 149.664 35.3033 148.85 35.2235C149.042 35.5427 149.169 36.0215 149.185 36.3726C150.047 36.4045 150.845 36.4204 151.292 36.3726C151.771 36.3247 152.09 36.197 152.377 35.83C152.84 35.2395 152.999 33.3404 153.159 27.9622C153.159 27.7867 153.159 27.3877 153.159 27.3877H151.962ZM142.498 34.0266V35.0959H148.659V30.2284H142.163V31.2976H147.462V34.0266H142.498ZM141.924 34.0266V38.128C141.924 39.708 142.674 40.0591 145.227 40.0591C145.786 40.0591 150.606 40.0591 151.196 40.0591C153.462 40.0591 153.925 39.5005 154.164 37.2024C153.829 37.1386 153.319 36.9471 153.015 36.7715C152.872 38.6068 152.632 38.926 151.18 38.926C150.111 38.926 145.977 38.926 145.164 38.926C143.44 38.926 143.121 38.7823 143.121 38.128V34.0266H141.924Z" fill="white"/>
<path d="M147.854 0.46875H25.8152C11.8167 0.46875 0.46875 11.8167 0.46875 25.8152C0.46875 39.8136 11.8167 51.1616 25.8152 51.1616H147.854C161.852 51.1616 173.2 39.8136 173.2 25.8152C173.2 11.8167 161.852 0.46875 147.854 0.46875Z" stroke="#747775"/>
</g>
<defs>
<linearGradient id="paint0_linear_568_1070" x1="35.0018" y1="31.9601" x2="17.633" y2="52.3104" gradientUnits="userSpaceOnUse">
<stop stop-color="#4285F4"/>
<stop offset="1" stop-color="#1B74E8"/>
</linearGradient>
<clipPath id="clip0_568_1070">
<rect width="173.67" height="51.6316" fill="white"/>
</clipPath>
</defs>
</svg>
