<svg width="174" height="23" viewBox="0 0 174 23" fill="none" xmlns="http://www.w3.org/2000/svg">
<g clip-path="url(#clip0_568_267)">
<path d="M162.185 0.229492H11.4869C5.27013 0.229492 0.230469 5.26915 0.230469 11.4859C0.230469 17.7026 5.27013 22.7423 11.4869 22.7423H162.185C168.401 22.7423 173.441 17.7026 173.441 11.4859C173.441 5.26915 168.401 0.229492 162.185 0.229492Z" fill="#1F1F1F"/>
<path d="M23.4318 10.1081H9.64844V7.81089C9.64844 6.56382 10.66 5.51367 11.8614 5.51367H21.2189C22.4202 5.51367 23.4318 6.56382 23.4318 7.81089V10.1081Z" fill="#34A853"/>
<path d="M23.4318 11.9704H9.64844V9.6732C9.64844 8.42613 10.66 7.37598 11.8614 7.37598H21.2189C22.4202 7.37598 23.4318 8.42613 23.4318 9.6732V11.9704Z" fill="#FBBC04"/>
<path d="M23.4318 13.8972H9.64844V11.6C9.64844 10.3529 10.66 9.30273 11.8614 9.30273H21.2189C22.4202 9.30273 23.4318 10.3529 23.4318 11.6V13.8972Z" fill="#EA4335"/>
<path d="M9.64844 10.6938L18.3968 12.7171C19.4038 12.97 20.5366 12.7171 21.3549 12.0848L23.4318 10.5674V15.3094C23.4318 16.5107 22.4248 17.459 21.229 17.459H11.8512C10.6554 17.459 9.64844 16.5107 9.64844 15.3094V10.6938Z" fill="url(#paint0_linear_568_267)"/>
<path d="M29.082 14.7023L31.563 8.12305H32.7116L35.2018 14.7023H34.09L33.4835 13.0115H30.8004L30.1939 14.7023H29.082ZM31.8663 10.0619L31.1403 12.0743H33.1435L32.4176 10.0619L32.1695 9.30841H32.1144L31.8663 10.0619ZM37.9449 16.8341C37.5345 16.8341 37.1792 16.7667 36.879 16.632C36.585 16.5033 36.3461 16.3348 36.1623 16.1266C35.9785 15.9244 35.8468 15.7161 35.7672 15.5017L36.6861 15.1158C36.7841 15.3608 36.9403 15.5599 37.1547 15.7131C37.3752 15.8724 37.6386 15.952 37.9449 15.952C38.3737 15.952 38.7107 15.8233 38.9557 15.566C39.2069 15.3088 39.3325 14.9443 39.3325 14.4726V14.0223H39.2773C39.1303 14.2428 38.9251 14.4205 38.6617 14.5553C38.4044 14.6839 38.1103 14.7482 37.7795 14.7482C37.3813 14.7482 37.0169 14.6472 36.6861 14.445C36.3553 14.2428 36.0888 13.9611 35.8866 13.5996C35.6845 13.2321 35.5834 12.8033 35.5834 12.3132C35.5834 11.817 35.6845 11.3882 35.8866 11.0267C36.0888 10.6592 36.3553 10.3743 36.6861 10.1722C37.0169 9.97001 37.3813 9.86894 37.7795 9.86894C38.1103 9.86894 38.4044 9.93634 38.6617 10.0711C38.9251 10.2058 39.1303 10.3835 39.2773 10.604H39.3325V10.016H40.2789V14.4542C40.2789 14.9627 40.1778 15.3945 39.9757 15.7498C39.7796 16.1051 39.5071 16.3747 39.1579 16.5584C38.8087 16.7422 38.4044 16.8341 37.9449 16.8341ZM37.9541 13.8477C38.1992 13.8477 38.4258 13.7895 38.6341 13.6731C38.8424 13.5506 39.0109 13.376 39.1395 13.1494C39.2681 12.9166 39.3325 12.6379 39.3325 12.3132C39.3325 11.9763 39.2681 11.6944 39.1395 11.4678C39.0109 11.235 38.8424 11.0604 38.6341 10.944C38.4258 10.8277 38.1992 10.7694 37.9541 10.7694C37.7091 10.7694 37.4793 10.8307 37.265 10.9532C37.0567 11.0696 36.8882 11.2412 36.7596 11.4678C36.6309 11.6944 36.5666 11.9763 36.5666 12.3132C36.5666 12.644 36.6309 12.9258 36.7596 13.1586C36.8882 13.3852 37.0567 13.5568 37.265 13.6731C37.4793 13.7895 37.7091 13.8477 37.9541 13.8477ZM41.4399 14.7023V10.016H42.3772V10.7051H42.4323C42.5365 10.4662 42.7141 10.2702 42.9653 10.117C43.2226 9.95775 43.4982 9.87812 43.7923 9.87812C43.9209 9.87812 44.0281 9.88731 44.1139 9.90569C44.2058 9.92407 44.2885 9.94553 44.362 9.97001V10.9992C44.2456 10.9501 44.1262 10.9104 44.0036 10.8797C43.8873 10.8491 43.7647 10.8338 43.6361 10.8338C43.4033 10.8338 43.195 10.8981 43.0112 11.0267C42.8336 11.1493 42.6927 11.3177 42.5886 11.5321C42.4844 11.7404 42.4323 11.9701 42.4323 12.2213V14.7023H41.4399ZM46.9907 14.8493C46.5313 14.8493 46.121 14.7421 45.7596 14.5277C45.3981 14.3133 45.1133 14.0192 44.905 13.6456C44.7029 13.2719 44.6018 12.8461 44.6018 12.3683C44.6018 11.9211 44.6998 11.5076 44.8958 11.1278C45.0918 10.748 45.3645 10.4448 45.7136 10.2181C46.0691 9.98531 46.4761 9.86894 46.9356 9.86894C47.4198 9.86894 47.8301 9.97309 48.1669 10.1814C48.5101 10.3896 48.7706 10.6745 48.948 11.0359C49.1258 11.3974 49.2144 11.8047 49.2144 12.258C49.2144 12.3254 49.2117 12.3867 49.2052 12.4418C49.2052 12.497 49.2025 12.5398 49.1961 12.5705H45.5758C45.6248 13.036 45.7872 13.3852 46.0626 13.618C46.3447 13.8508 46.6631 13.9672 47.0183 13.9672C47.3371 13.9672 47.6004 13.8967 47.8085 13.7558C48.0171 13.6088 48.1825 13.4281 48.3047 13.2137L49.1225 13.6088C48.9204 13.9764 48.6447 14.2765 48.2955 14.5093C47.9464 14.736 47.5117 14.8493 46.9907 14.8493ZM46.9448 10.7143C46.614 10.7143 46.3323 10.8154 46.0994 11.0175C45.8668 11.2197 45.7106 11.4893 45.6309 11.8262H48.2312C48.2193 11.6669 48.1669 11.5015 48.075 11.33C47.9831 11.1585 47.8425 11.0145 47.6523 10.8981C47.4685 10.7756 47.2328 10.7143 46.9448 10.7143ZM52.2936 16.8341C51.8833 16.8341 51.5277 16.7667 51.2277 16.632C50.9337 16.5033 50.6948 16.3348 50.511 16.1266C50.3272 15.9244 50.1953 15.7161 50.1159 15.5017L51.0347 15.1158C51.1326 15.3608 51.2888 15.5599 51.5034 15.7131C51.7239 15.8724 51.9872 15.952 52.2936 15.952C52.7223 15.952 53.0595 15.8233 53.3044 15.566C53.5557 15.3088 53.6811 14.9443 53.6811 14.4726V14.0223H53.626C53.479 14.2428 53.2736 14.4205 53.0104 14.5553C52.7531 14.6839 52.459 14.7482 52.1282 14.7482C51.7299 14.7482 51.3655 14.6472 51.0347 14.445C50.7039 14.2428 50.4375 13.9611 50.2353 13.5996C50.0332 13.2321 49.9321 12.8033 49.9321 12.3132C49.9321 11.817 50.0332 11.3882 50.2353 11.0267C50.4375 10.6592 50.7039 10.3743 51.0347 10.1722C51.3655 9.97001 51.7299 9.86894 52.1282 9.86894C52.459 9.86894 52.7531 9.93634 53.0104 10.0711C53.2736 10.2058 53.479 10.3835 53.626 10.604H53.6811V10.016H54.6276V14.4542C54.6276 14.9627 54.5265 15.3945 54.3244 15.7498C54.1282 16.1051 53.8557 16.3747 53.5066 16.5584C53.1574 16.7422 52.7531 16.8341 52.2936 16.8341ZM52.3028 13.8477C52.5477 13.8477 52.7747 13.7895 52.9828 13.6731C53.1909 13.5506 53.3595 13.376 53.4882 13.1494C53.6168 12.9166 53.6811 12.6379 53.6811 12.3132C53.6811 11.9763 53.6168 11.6944 53.4882 11.4678C53.3595 11.235 53.1909 11.0604 52.9828 10.944C52.7747 10.8277 52.5477 10.7694 52.3028 10.7694C52.0579 10.7694 51.8282 10.8307 51.6136 10.9532C51.4055 11.0696 51.2369 11.2412 51.1083 11.4678C50.9796 11.6944 50.9153 11.9763 50.9153 12.3132C50.9153 12.644 50.9796 12.9258 51.1083 13.1586C51.2369 13.3852 51.4055 13.5568 51.6136 13.6731C51.8282 13.7895 52.0579 13.8477 52.3028 13.8477ZM57.2138 14.8493C56.877 14.8493 56.577 14.785 56.3133 14.6563C56.05 14.5216 55.8447 14.3347 55.6976 14.0958C55.5506 13.8569 55.4771 13.5843 55.4771 13.278C55.4771 12.9472 55.563 12.6654 55.7344 12.4326C55.9122 12.1937 56.1479 12.013 56.4419 11.8905C56.736 11.768 57.0608 11.7067 57.416 11.7067C57.71 11.7067 57.9673 11.7343 58.1878 11.7894C58.4148 11.8445 58.5862 11.9028 58.7024 11.964V11.7159C58.7024 11.4096 58.5921 11.1646 58.3716 10.9808C58.1511 10.797 57.8662 10.7051 57.517 10.7051C57.2781 10.7051 57.0516 10.7603 56.8371 10.8705C56.623 10.9747 56.4511 11.1186 56.3225 11.3024L55.6425 10.7786C55.8447 10.4969 56.1111 10.2763 56.4419 10.117C56.7792 9.95164 57.1467 9.86894 57.5446 9.86894C58.2246 9.86894 58.7484 10.0374 59.1159 10.3743C59.4835 10.7051 59.6672 11.1707 59.6672 11.771V14.7023H58.7024V14.1234H58.6473C58.5251 14.3133 58.3413 14.4818 58.0959 14.6288C57.8511 14.7758 57.557 14.8493 57.2138 14.8493ZM57.3884 14.0407C57.6457 14.0407 57.8727 13.9794 58.0684 13.8569C58.2646 13.7344 58.4176 13.5751 58.5278 13.3791C58.6445 13.1769 58.7024 12.9595 58.7024 12.7267C58.5618 12.6471 58.3964 12.5827 58.2062 12.5337C58.0165 12.4786 57.8143 12.451 57.5997 12.451C57.1954 12.451 56.9078 12.5337 56.736 12.6991C56.5646 12.8584 56.4787 13.0544 56.4787 13.2872C56.4787 13.5077 56.5614 13.6884 56.7268 13.8293C56.8922 13.9703 57.1127 14.0407 57.3884 14.0407ZM60.7598 14.7023V10.016H61.6971V10.7051H61.7522C61.8565 10.4662 62.0343 10.2702 62.2852 10.117C62.5424 9.95775 62.8181 9.87812 63.1122 9.87812C63.2408 9.87812 63.3483 9.88731 63.4338 9.90569C63.5257 9.92407 63.6084 9.94553 63.6819 9.97001V10.9992C63.5656 10.9501 63.4462 10.9104 63.3235 10.8797C63.2073 10.8491 63.0846 10.8338 62.9559 10.8338C62.7235 10.8338 62.5149 10.8981 62.3311 11.0267C62.1538 11.1493 62.0127 11.3177 61.9084 11.5321C61.8046 11.7404 61.7522 11.9701 61.7522 12.2213V14.7023H60.7598ZM68.0631 14.8493C67.7259 14.8493 67.4259 14.785 67.1626 14.6563C66.8989 14.5216 66.694 14.3347 66.547 14.0958C66.3999 13.8569 66.3264 13.5843 66.3264 13.278C66.3264 12.9472 66.4119 12.6654 66.5837 12.4326C66.7611 12.1937 66.9972 12.013 67.2913 11.8905C67.5853 11.768 67.9097 11.7067 68.2653 11.7067C68.5593 11.7067 68.8166 11.7343 69.0372 11.7894C69.2637 11.8445 69.435 11.9028 69.5517 11.964V11.7159C69.5517 11.4096 69.4415 11.1646 69.2209 10.9808C69.0004 10.797 68.7155 10.7051 68.3664 10.7051C68.1275 10.7051 67.9005 10.7603 67.6864 10.8705C67.4718 10.9747 67.3005 11.1186 67.1718 11.3024L66.4918 10.7786C66.694 10.4969 66.9605 10.2763 67.2913 10.117C67.628 9.95164 67.9956 9.86894 68.3939 9.86894C69.0739 9.86894 69.5977 10.0374 69.9652 10.3743C70.3328 10.7051 70.5166 11.1707 70.5166 11.771V14.7023H69.5517V14.1234H69.4966C69.3739 14.3133 69.1901 14.4818 68.9453 14.6288C68.6999 14.7758 68.4059 14.8493 68.0631 14.8493ZM68.2377 14.0407C68.495 14.0407 68.7215 13.9794 68.9177 13.8569C69.1134 13.7344 69.2669 13.5751 69.3771 13.3791C69.4934 13.1769 69.5517 12.9595 69.5517 12.7267C69.4107 12.6471 69.2453 12.5827 69.0555 12.5337C68.8653 12.4786 68.6632 12.451 68.4491 12.451C68.0448 12.451 67.7567 12.5337 67.5853 12.6991C67.4135 12.8584 67.328 13.0544 67.328 13.2872C67.328 13.5077 67.4107 13.6884 67.5761 13.8293C67.7415 13.9703 67.9621 14.0407 68.2377 14.0407ZM73.763 14.7023V8.12305H74.7554V14.7023H73.763ZM77.3503 14.8493C77.0136 14.8493 76.7136 14.785 76.4498 14.6563C76.1866 14.5216 75.9812 14.3347 75.8342 14.0958C75.6872 13.8569 75.6136 13.5843 75.6136 13.278C75.6136 12.9472 75.6996 12.6654 75.8709 12.4326C76.0487 12.1937 76.2844 12.013 76.5785 11.8905C76.8725 11.768 77.1974 11.7067 77.5525 11.7067C77.8465 11.7067 78.1038 11.7343 78.3244 11.7894C78.5513 11.8445 78.7227 11.9028 78.8389 11.964V11.7159C78.8389 11.4096 78.7287 11.1646 78.5081 10.9808C78.2876 10.797 78.0028 10.7051 77.6536 10.7051C77.4147 10.7051 77.1882 10.7603 76.9736 10.8705C76.7595 10.9747 76.5877 11.1186 76.459 11.3024L75.779 10.7786C75.9812 10.4969 76.2477 10.2763 76.5785 10.117C76.9157 9.95164 77.2833 9.86894 77.6811 9.86894C78.3611 9.86894 78.8849 10.0374 79.2524 10.3743C79.62 10.7051 79.8038 11.1707 79.8038 11.771V14.7023H78.8389V14.1234H78.7838C78.6616 14.3133 78.4778 14.4818 78.2325 14.6288C77.9876 14.7758 77.6935 14.8493 77.3503 14.8493ZM77.5249 14.0407C77.7822 14.0407 78.0092 13.9794 78.2049 13.8569C78.4011 13.7344 78.5541 13.5751 78.6644 13.3791C78.7811 13.1769 78.8389 12.9595 78.8389 12.7267C78.6984 12.6471 78.533 12.5827 78.3427 12.5337C78.153 12.4786 77.9508 12.451 77.7363 12.451C77.332 12.451 77.0444 12.5337 76.8725 12.6991C76.7011 12.8584 76.6152 13.0544 76.6152 13.2872C76.6152 13.5077 76.6979 13.6884 76.8633 13.8293C77.0287 13.9703 77.2493 14.0407 77.5249 14.0407Z" fill="white"/>
<path d="M83.4453 14.7019V8.12261H85.9079C86.2631 8.12261 86.5879 8.1992 86.882 8.35233C87.182 8.50546 87.4181 8.71378 87.5895 8.97718C87.7673 9.24057 87.856 9.5377 87.856 9.8685C87.856 10.2054 87.7701 10.4933 87.5987 10.7323C87.4333 10.9712 87.2219 11.1519 86.9647 11.2744V11.3203C87.2955 11.4367 87.5652 11.6297 87.7733 11.8992C87.9814 12.1626 88.0857 12.4812 88.0857 12.8549C88.0857 13.2224 87.9906 13.5471 87.8009 13.8289C87.6171 14.1046 87.3658 14.319 87.0474 14.4721C86.7349 14.6253 86.3917 14.7019 86.0182 14.7019H83.4453ZM85.8988 9.05069H84.4561V10.8885H85.862C86.1804 10.8885 86.4285 10.7935 86.6063 10.6036C86.7841 10.4076 86.8728 10.1932 86.8728 9.96039C86.8728 9.73374 86.7869 9.52543 86.6155 9.33554C86.4441 9.14565 86.2052 9.05069 85.8988 9.05069ZM84.4561 13.7646H86.0182C86.349 13.7646 86.6063 13.6666 86.7901 13.4705C86.9798 13.2684 87.0749 13.0387 87.0749 12.7814C87.0749 12.5241 86.9798 12.2944 86.7901 12.0922C86.6003 11.8901 86.3306 11.789 85.9814 11.789H84.4561V13.7646ZM89.6019 9.32635C89.4181 9.32635 89.2587 9.26203 89.124 9.13339C88.9954 8.99863 88.9311 8.83934 88.9311 8.65556C88.9311 8.47179 88.9954 8.31557 89.124 8.18693C89.2587 8.05829 89.4181 7.99396 89.6019 7.99396C89.7857 7.99396 89.9419 8.05829 90.0705 8.18693C90.2051 8.31557 90.2727 8.47179 90.2727 8.65556C90.2727 8.83934 90.2051 8.99863 90.0705 9.13339C89.9419 9.26203 89.7857 9.32635 89.6019 9.32635ZM89.1057 14.7019V10.0155H90.0981V14.7019H89.1057ZM91.3386 14.7019V8.12261H92.331V14.7019H91.3386ZM93.5099 14.7019V8.12261H94.5023V14.7019H93.5099ZM97.7685 14.8489C97.3091 14.8489 96.8988 14.7417 96.5372 14.5273C96.1756 14.3128 95.8907 14.0188 95.6826 13.6451C95.4805 13.2715 95.3794 12.8457 95.3794 12.3679C95.3794 11.9207 95.4772 11.5072 95.6734 11.1274C95.8696 10.7476 96.1421 10.4443 96.4912 10.2177C96.8464 9.98487 97.2539 9.8685 97.7134 9.8685C98.1972 9.8685 98.6079 9.97265 98.9447 10.1809C99.2879 10.3892 99.5479 10.674 99.7257 11.0355C99.9035 11.3969 99.9922 11.8043 99.9922 12.2576C99.9922 12.325 99.989 12.3863 99.983 12.4414C99.983 12.4965 99.9798 12.5394 99.9738 12.57H96.3534C96.4026 13.0356 96.5647 13.3848 96.8404 13.6176C97.1221 13.8504 97.4409 13.9667 97.7961 13.9667C98.1145 13.9667 98.3782 13.8963 98.5863 13.7554C98.7944 13.6084 98.9598 13.4277 99.0825 13.2133L99.9003 13.6084C99.6982 13.9759 99.4225 14.2761 99.0733 14.5089C98.7241 14.7355 98.289 14.8489 97.7685 14.8489ZM97.7226 10.7139C97.3918 10.7139 97.1101 10.815 96.8772 11.0171C96.6442 11.2193 96.488 11.4888 96.4085 11.8257H99.009C98.9966 11.6664 98.9447 11.501 98.8528 11.3295C98.7609 11.158 98.6198 11.014 98.4301 10.8977C98.2463 10.7751 98.0106 10.7139 97.7226 10.7139ZM101.275 13.3419V10.8793H100.457V10.0155H101.275V8.69232H102.267V10.0155H103.416V10.8793H102.267V13.1306C102.267 13.3634 102.313 13.541 102.405 13.6635C102.503 13.786 102.665 13.8473 102.892 13.8473C103.008 13.8473 103.106 13.832 103.186 13.8013C103.272 13.7707 103.357 13.7278 103.443 13.6727V14.6375C103.339 14.6804 103.229 14.7141 103.112 14.7386C102.996 14.7631 102.858 14.7754 102.699 14.7754C102.264 14.7754 101.918 14.6498 101.66 14.3986C101.403 14.1413 101.275 13.7891 101.275 13.3419ZM106.329 14.8489C105.87 14.8489 105.459 14.7417 105.098 14.5273C104.736 14.3128 104.452 14.0188 104.243 13.6451C104.041 13.2715 103.94 12.8457 103.94 12.3679C103.94 11.9207 104.038 11.5072 104.234 11.1274C104.43 10.7476 104.703 10.4443 105.052 10.2177C105.407 9.98487 105.815 9.8685 106.274 9.8685C106.758 9.8685 107.168 9.97265 107.506 10.1809C107.848 10.3892 108.109 10.674 108.287 11.0355C108.464 11.3969 108.553 11.8043 108.553 12.2576C108.553 12.325 108.55 12.3863 108.544 12.4414C108.544 12.4965 108.541 12.5394 108.535 12.57H104.914C104.963 13.0356 105.126 13.3848 105.401 13.6176C105.683 13.8504 106.001 13.9667 106.357 13.9667C106.675 13.9667 106.939 13.8963 107.147 13.7554C107.355 13.6084 107.521 13.4277 107.643 13.2133L108.461 13.6084C108.259 13.9759 107.983 14.2761 107.634 14.5089C107.285 14.7355 106.85 14.8489 106.329 14.8489ZM106.283 10.7139C105.953 10.7139 105.67 10.815 105.438 11.0171C105.205 11.2193 105.049 11.4888 104.969 11.8257H107.57C107.557 11.6664 107.505 11.501 107.414 11.3295C107.322 11.158 107.181 11.014 106.991 10.8977C106.807 10.7751 106.571 10.7139 106.283 10.7139ZM109.474 14.7019V10.0155H110.411V10.7047H110.466C110.57 10.4658 110.748 10.2697 110.999 10.1166C111.256 9.95731 111.532 9.87769 111.826 9.87769C111.955 9.87769 112.062 9.88687 112.148 9.90525C112.24 9.92363 112.322 9.94509 112.396 9.96957V10.9987C112.279 10.9497 112.16 10.9099 112.037 10.8793C111.921 10.8486 111.799 10.8333 111.67 10.8333C111.437 10.8333 111.229 10.8977 111.045 11.0263C110.867 11.1488 110.726 11.3173 110.622 11.5317C110.518 11.74 110.466 11.9697 110.466 12.2209V14.7019H109.474ZM114.471 14.8489C114.133 14.8489 113.833 14.7846 113.57 14.6559C113.306 14.5212 113.102 14.3343 112.955 14.0954C112.807 13.8565 112.734 13.5839 112.734 13.2776C112.734 12.9468 112.819 12.665 112.991 12.4322C113.169 12.1933 113.405 12.0126 113.699 11.8901C113.993 11.7675 114.317 11.7063 114.673 11.7063C114.967 11.7063 115.224 11.7338 115.445 11.789C115.671 11.8441 115.843 11.9023 115.959 11.9636V11.7155C115.959 11.4092 115.849 11.1641 115.628 10.9804C115.408 10.7966 115.123 10.7047 114.774 10.7047C114.535 10.7047 114.308 10.7598 114.094 10.8701C113.879 10.9742 113.708 11.1182 113.579 11.302L112.899 10.7782C113.102 10.4964 113.368 10.2759 113.699 10.1166C114.036 9.9512 114.403 9.8685 114.801 9.8685C115.481 9.8685 116.005 10.037 116.373 10.3739C116.74 10.7047 116.924 11.1702 116.924 11.7706V14.7019H115.959V14.123H115.904C115.781 14.3128 115.598 14.4813 115.353 14.6283C115.107 14.7754 114.813 14.8489 114.471 14.8489ZM114.645 14.0403C114.903 14.0403 115.129 13.979 115.325 13.8565C115.521 13.7339 115.674 13.5747 115.785 13.3787C115.901 13.1765 115.959 12.959 115.959 12.7262C115.818 12.6466 115.653 12.5823 115.463 12.5333C115.273 12.4781 115.071 12.4506 114.857 12.4506C114.452 12.4506 114.164 12.5333 113.993 12.6987C113.821 12.858 113.736 13.054 113.736 13.2868C113.736 13.5073 113.818 13.688 113.984 13.8289C114.149 13.9698 114.37 14.0403 114.645 14.0403ZM122.164 14.8489C121.741 14.8489 121.359 14.7447 121.015 14.5365C120.679 14.322 120.409 14.028 120.207 13.6543C120.011 13.2745 119.913 12.8426 119.913 12.3587C119.913 11.8748 120.011 11.4459 120.207 11.0722C120.409 10.6986 120.679 10.4045 121.015 10.1901C121.359 9.97569 121.741 9.8685 122.164 9.8685C122.526 9.8685 122.835 9.94812 123.092 10.1074C123.356 10.2667 123.549 10.4474 123.671 10.6496H123.726L123.671 9.99714V8.12261H124.654V14.7019H123.726V14.077H123.671C123.549 14.2792 123.356 14.4599 123.092 14.6192C122.835 14.7723 122.526 14.8489 122.164 14.8489ZM122.311 13.9392C122.556 13.9392 122.786 13.8749 123 13.7462C123.221 13.6176 123.395 13.4369 123.524 13.2041C123.659 12.9652 123.726 12.6834 123.726 12.3587C123.726 12.034 123.659 11.7553 123.524 11.5225C123.395 11.2836 123.221 11.0998 123 10.9712C122.786 10.8425 122.556 10.7782 122.311 10.7782C122.066 10.7782 121.836 10.8425 121.622 10.9712C121.408 11.0998 121.233 11.2836 121.098 11.5225C120.964 11.7553 120.896 12.034 120.896 12.3587C120.896 12.6834 120.964 12.9652 121.098 13.2041C121.233 13.4369 121.408 13.6176 121.622 13.7462C121.836 13.8749 122.066 13.9392 122.311 13.9392ZM127.92 14.8489C127.46 14.8489 127.05 14.7417 126.688 14.5273C126.327 14.3128 126.042 14.0188 125.834 13.6451C125.632 13.2715 125.53 12.8457 125.53 12.3679C125.53 11.9207 125.628 11.5072 125.824 11.1274C126.021 10.7476 126.293 10.4443 126.642 10.2177C126.997 9.98487 127.405 9.8685 127.864 9.8685C128.348 9.8685 128.759 9.97265 129.096 10.1809C129.439 10.3892 129.699 10.674 129.877 11.0355C130.055 11.3969 130.143 11.8043 130.143 12.2576C130.143 12.325 130.14 12.3863 130.134 12.4414C130.134 12.4965 130.131 12.5394 130.125 12.57H126.504C126.554 13.0356 126.716 13.3848 126.991 13.6176C127.273 13.8504 127.592 13.9667 127.947 13.9667C128.266 13.9667 128.529 13.8963 128.737 13.7554C128.945 13.6084 129.111 13.4277 129.234 13.2133L130.051 13.6084C129.849 13.9759 129.574 14.2761 129.224 14.5089C128.875 14.7355 128.44 14.8489 127.92 14.8489ZM127.874 10.7139C127.543 10.7139 127.261 10.815 127.028 11.0171C126.795 11.2193 126.639 11.4888 126.56 11.8257H129.16C129.148 11.6664 129.096 11.501 129.004 11.3295C128.912 11.158 128.771 11.014 128.581 10.8977C128.397 10.7751 128.162 10.7139 127.874 10.7139ZM136.309 14.8489C135.838 14.8489 135.394 14.7631 134.977 14.5916C134.567 14.4201 134.202 14.1812 133.884 13.8749C133.565 13.5624 133.314 13.198 133.13 12.7814C132.953 12.3587 132.864 11.9023 132.864 11.4122C132.864 10.9221 132.953 10.4689 133.13 10.0523C133.314 9.62959 133.562 9.26511 133.874 8.9588C134.193 8.64637 134.561 8.40439 134.977 8.23287C135.394 8.06136 135.838 7.97559 136.309 7.97559C136.812 7.97559 137.274 8.0644 137.697 8.24206C138.126 8.41973 138.484 8.66783 138.772 8.98636L138.074 9.67553C137.86 9.43662 137.602 9.25284 137.302 9.1242C137.008 8.99555 136.677 8.93123 136.309 8.93123C135.875 8.93123 135.473 9.03539 135.106 9.24365C134.738 9.44581 134.441 9.73374 134.214 10.1074C133.994 10.475 133.884 10.9099 133.884 11.4122C133.884 11.9145 133.997 12.3526 134.224 12.7262C134.451 13.0938 134.747 13.3817 135.115 13.59C135.482 13.7922 135.884 13.8932 136.319 13.8932C136.717 13.8932 137.079 13.8197 137.403 13.6727C137.728 13.5196 137.988 13.3051 138.184 13.0295C138.386 12.7538 138.509 12.423 138.552 12.0371H136.3V11.1458H139.498C139.535 11.3112 139.553 11.4857 139.553 11.6695V11.6787C139.553 12.3158 139.413 12.8733 139.13 13.3511C138.855 13.8228 138.472 14.1904 137.982 14.4538C137.492 14.7172 136.934 14.8489 136.309 14.8489ZM142.512 14.8489C142.028 14.8489 141.602 14.7386 141.235 14.5181C140.867 14.2975 140.579 14.0004 140.371 13.6268C140.163 13.2531 140.059 12.8304 140.059 12.3587C140.059 11.8931 140.163 11.4735 140.371 11.0998C140.579 10.72 140.867 10.4198 141.235 10.1993C141.602 9.97876 142.028 9.8685 142.512 9.8685C142.99 9.8685 143.412 9.97876 143.78 10.1993C144.148 10.4198 144.436 10.72 144.644 11.0998C144.852 11.4735 144.956 11.8931 144.956 12.3587C144.956 12.8304 144.852 13.2531 144.644 13.6268C144.436 14.0004 144.148 14.2975 143.78 14.5181C143.412 14.7386 142.99 14.8489 142.512 14.8489ZM142.512 13.9392C142.769 13.9392 143.008 13.8779 143.229 13.7554C143.449 13.6268 143.627 13.4461 143.762 13.2133C143.903 12.9743 143.973 12.6895 143.973 12.3587C143.973 12.0279 143.903 11.7461 143.762 11.5133C143.627 11.2744 143.449 11.0937 143.229 10.9712C143.008 10.8425 142.769 10.7782 142.512 10.7782C142.255 10.7782 142.013 10.8425 141.786 10.9712C141.566 11.0937 141.385 11.2744 141.244 11.5133C141.109 11.7461 141.042 12.0279 141.042 12.3587C141.042 12.6895 141.109 12.9743 141.244 13.2133C141.385 13.4461 141.566 13.6268 141.786 13.7554C142.013 13.8779 142.255 13.9392 142.512 13.9392ZM148.075 14.8489C147.592 14.8489 147.166 14.7386 146.798 14.5181C146.431 14.2975 146.143 14.0004 145.934 13.6268C145.726 13.2531 145.622 12.8304 145.622 12.3587C145.622 11.8931 145.726 11.4735 145.934 11.0998C146.143 10.72 146.431 10.4198 146.798 10.1993C147.166 9.97876 147.592 9.8685 148.075 9.8685C148.553 9.8685 148.976 9.97876 149.343 10.1993C149.711 10.4198 149.999 10.72 150.207 11.0998C150.416 11.4735 150.52 11.8931 150.52 12.3587C150.52 12.8304 150.416 13.2531 150.207 13.6268C149.999 14.0004 149.711 14.2975 149.343 14.5181C148.976 14.7386 148.553 14.8489 148.075 14.8489ZM148.075 13.9392C148.333 13.9392 148.572 13.8779 148.792 13.7554C149.013 13.6268 149.19 13.4461 149.325 13.2133C149.466 12.9743 149.536 12.6895 149.536 12.3587C149.536 12.0279 149.466 11.7461 149.325 11.5133C149.19 11.2744 149.013 11.0937 148.792 10.9712C148.572 10.8425 148.333 10.7782 148.075 10.7782C147.818 10.7782 147.576 10.8425 147.349 10.9712C147.129 11.0937 146.948 11.2744 146.807 11.5133C146.673 11.7461 146.605 12.0279 146.605 12.3587C146.605 12.6895 146.673 12.9743 146.807 13.2133C146.948 13.4461 147.129 13.6268 147.349 13.7554C147.576 13.8779 147.818 13.9392 148.075 13.9392ZM153.547 16.8337C153.137 16.8337 152.781 16.7663 152.481 16.6315C152.187 16.5029 151.948 16.3344 151.765 16.1261C151.581 15.924 151.449 15.7157 151.37 15.5013L152.288 15.1154C152.386 15.3604 152.543 15.5595 152.757 15.7126C152.978 15.8719 153.241 15.9515 153.547 15.9515C153.976 15.9515 154.313 15.8229 154.558 15.5656C154.809 15.3083 154.935 14.9438 154.935 14.4721V14.0219H154.88C154.733 14.2424 154.527 14.4201 154.264 14.5548C154.007 14.6835 153.713 14.7478 153.382 14.7478C152.984 14.7478 152.619 14.6467 152.288 14.4446C151.958 14.2424 151.691 13.9606 151.489 13.5992C151.287 13.2316 151.186 12.8028 151.186 12.3127C151.186 11.8165 151.287 11.3877 151.489 11.0263C151.691 10.6587 151.958 10.3739 152.288 10.1717C152.619 9.96957 152.984 9.8685 153.382 9.8685C153.713 9.8685 154.007 9.9359 154.264 10.0707C154.527 10.2054 154.733 10.3831 154.88 10.6036H154.935V10.0155H155.881V14.4538C155.881 14.9622 155.78 15.3941 155.578 15.7494C155.382 16.1047 155.109 16.3742 154.76 16.558C154.411 16.7418 154.007 16.8337 153.547 16.8337ZM153.557 13.8473C153.801 13.8473 154.028 13.7891 154.237 13.6727C154.445 13.5502 154.613 13.3756 154.742 13.1489C154.871 12.9161 154.935 12.6374 154.935 12.3127C154.935 11.9758 154.871 11.694 154.742 11.4674C154.613 11.2346 154.445 11.06 154.237 10.9436C154.028 10.8272 153.801 10.769 153.557 10.769C153.312 10.769 153.082 10.8303 152.867 10.9528C152.659 11.0692 152.491 11.2407 152.362 11.4674C152.233 11.694 152.169 11.9758 152.169 12.3127C152.169 12.6435 152.233 12.9253 152.362 13.1581C152.491 13.3848 152.659 13.5563 152.867 13.6727C153.082 13.7891 153.312 13.8473 153.557 13.8473ZM157.052 14.7019V8.12261H158.044V14.7019H157.052ZM161.31 14.8489C160.851 14.8489 160.44 14.7417 160.079 14.5273C159.717 14.3128 159.432 14.0188 159.224 13.6451C159.022 13.2715 158.921 12.8457 158.921 12.3679C158.921 11.9207 159.019 11.5072 159.215 11.1274C159.411 10.7476 159.684 10.4443 160.033 10.2177C160.388 9.98487 160.796 9.8685 161.255 9.8685C161.739 9.8685 162.149 9.97265 162.486 10.1809C162.829 10.3892 163.09 10.674 163.267 11.0355C163.445 11.3969 163.534 11.8043 163.534 12.2576C163.534 12.325 163.531 12.3863 163.525 12.4414C163.525 12.4965 163.521 12.5394 163.515 12.57H159.895C159.944 13.0356 160.106 13.3848 160.382 13.6176C160.664 13.8504 160.982 13.9667 161.338 13.9667C161.656 13.9667 161.919 13.8963 162.128 13.7554C162.336 13.6084 162.501 13.4277 162.624 13.2133L163.442 13.6084C163.24 13.9759 162.964 14.2761 162.615 14.5089C162.266 14.7355 161.831 14.8489 161.31 14.8489ZM161.264 10.7139C160.933 10.7139 160.651 10.815 160.419 11.0171C160.186 11.2193 160.03 11.4888 159.95 11.8257H162.551C162.538 11.6664 162.486 11.501 162.394 11.3295C162.303 11.158 162.161 11.014 161.972 10.8977C161.788 10.7751 161.552 10.7139 161.264 10.7139Z" fill="white"/>
<path d="M162.185 0.229492H11.4869C5.27013 0.229492 0.230469 5.26915 0.230469 11.4859C0.230469 17.7026 5.27013 22.7423 11.4869 22.7423H162.185C168.401 22.7423 173.441 17.7026 173.441 11.4859C173.441 5.26915 168.401 0.229492 162.185 0.229492Z" stroke="#747775"/>
</g>
<defs>
<linearGradient id="paint0_linear_568_267" x1="15.8832" y1="14.1448" x2="8.60591" y2="22.4731" gradientUnits="userSpaceOnUse">
<stop stop-color="#4285F4"/>
<stop offset="1" stop-color="#1B74E8"/>
</linearGradient>
<clipPath id="clip0_568_267">
<rect width="173.67" height="22.9722" fill="white"/>
</clipPath>
</defs>
</svg>
