<svg width="174" height="48" viewBox="0 0 174 48" fill="none" xmlns="http://www.w3.org/2000/svg">
<g clip-path="url(#clip0_568_547)">
<path d="M149.672 0.436523H24.0008C10.9871 0.436523 0.4375 10.9862 0.4375 23.9998C0.4375 37.0134 10.9871 47.563 24.0008 47.563H149.672C162.685 47.563 173.235 37.0134 173.235 23.9998C173.235 10.9862 162.685 0.436523 149.672 0.436523Z" fill="#1F1F1F"/>
<path d="M149.672 0.436523H24.0008C10.9871 0.436523 0.4375 10.9862 0.4375 23.9998C0.4375 37.0134 10.9871 47.563 24.0008 47.563H149.672C162.685 47.563 173.235 37.0134 173.235 23.9998C173.235 10.9862 162.685 0.436523 149.672 0.436523Z" stroke="#747775"/>
<path d="M49.7458 20.7629H18.3281V15.836C18.3281 13.1615 20.634 10.9092 23.3722 10.9092H44.7017C47.4399 10.9092 49.7458 13.1615 49.7458 15.836V20.7629Z" fill="#34A853"/>
<path d="M49.7458 25.3085H18.3281V20.0722C18.3281 17.2297 20.634 14.8359 23.3722 14.8359H44.7017C47.4399 14.8359 49.7458 17.2297 49.7458 20.0722V25.3085Z" fill="#FBBC04"/>
<path d="M49.7458 29.6718H18.3281V24.4355C18.3281 21.593 20.634 19.1992 23.3722 19.1992H44.7017C47.4399 19.1992 49.7458 21.593 49.7458 24.4355V29.6718Z" fill="#EA4335"/>
<path d="M18.3281 22.0276L38.269 26.5322C40.5644 27.0953 43.1467 26.5322 45.0116 25.1245L49.7458 21.7461V32.3037C49.7458 34.9783 47.4505 37.0898 44.7247 37.0898H23.3492C20.6234 37.0898 18.3281 34.9783 18.3281 32.3037V22.0276Z" fill="#4285F4"/>
<path d="M66.4693 13.4768H65.8907C65.6487 13.4768 65.5277 13.5789 65.5277 13.7831C65.5277 13.8815 65.5617 13.9647 65.6298 14.0327C65.7054 14.0932 65.8113 14.1613 65.9474 14.237L66.2991 14.4298V16.4266C66.2991 16.9182 66.1933 17.3493 65.9815 17.72C65.7772 18.083 65.486 18.3666 65.1079 18.5708C64.7372 18.7751 64.2986 18.8772 63.7918 18.8772C63.2926 18.8772 62.8539 18.7751 62.4758 18.5708C62.1051 18.3666 61.814 18.083 61.6022 17.72C61.398 17.3493 61.2959 16.9182 61.2959 16.4266V14.6567C61.0917 14.5282 60.9366 14.3769 60.8307 14.2029C60.7249 14.029 60.6719 13.8209 60.6719 13.5789C60.6719 13.2235 60.7891 12.9398 61.0236 12.728C61.2581 12.5162 61.5946 12.4104 62.0333 12.4104H62.6573V13.4768H62.0787C61.8367 13.4768 61.7156 13.5789 61.7156 13.7831C61.7156 13.8815 61.7497 13.9647 61.8178 14.0327C61.8858 14.0932 61.9879 14.1613 62.1241 14.237L62.4871 14.4298V16.4266C62.4871 16.8426 62.6043 17.1791 62.8388 17.4363C63.0808 17.6859 63.3985 17.8107 63.7918 17.8107C64.1927 17.8107 64.5103 17.6859 64.7448 17.4363C64.9868 17.1791 65.1079 16.8426 65.1079 16.4266V14.6567C64.9113 14.5282 64.7562 14.3769 64.6427 14.2029C64.5369 14.029 64.4839 13.8209 64.4839 13.5789C64.4839 13.2235 64.6011 12.9398 64.8356 12.728C65.0776 12.5162 65.418 12.4104 65.8567 12.4104H66.4693V13.4768ZM68.2057 13.8399C68.2057 13.3558 68.3305 12.989 68.5801 12.7394C68.8372 12.4822 69.189 12.3536 69.6352 12.3536H69.794L70.5995 13.0003L71.405 12.3536H71.5639C71.8513 12.3536 72.0971 12.418 72.3013 12.5465C72.5131 12.6676 72.6757 12.8415 72.7892 13.0684H72.8232C73.0198 12.8415 73.2506 12.6562 73.5153 12.5125C73.78 12.3687 74.0901 12.2969 74.4456 12.2969C74.8767 12.2969 75.2473 12.3914 75.5574 12.5805C75.8751 12.7621 76.1171 13.023 76.2835 13.3634C76.4574 13.6961 76.5444 14.0857 76.5444 14.5319V18.7637H75.3532V14.5773C75.3532 14.2067 75.2473 13.9117 75.0355 13.6924C74.8237 13.4731 74.5401 13.3634 74.1846 13.3634C73.9728 13.3634 73.7762 13.4088 73.5947 13.4995C73.4131 13.5903 73.2694 13.7264 73.1636 13.9079C73.0577 14.0819 73.0047 14.3013 73.0047 14.566V18.7637H71.8135V13.9193C71.8135 13.7605 71.7757 13.6432 71.7 13.5676C71.6243 13.4844 71.5222 13.4428 71.3937 13.4428L70.713 13.942H70.4974L69.8167 13.4428C69.6956 13.4428 69.5935 13.4806 69.5104 13.5562C69.4347 13.6319 69.3969 13.7415 69.3969 13.8853V16.6422C69.4574 16.6271 69.5217 16.6195 69.5898 16.6195C69.8999 16.6195 70.1495 16.7216 70.3386 16.9258C70.5352 17.1224 70.6336 17.3833 70.6336 17.7086V17.7426C70.6336 18.0754 70.5201 18.3477 70.2932 18.5595C70.0739 18.7713 69.7903 18.8772 69.4423 18.8772C69.0566 18.8772 68.754 18.7637 68.5347 18.5368C68.3154 18.3023 68.2057 17.9922 68.2057 17.6065V13.8399ZM69.465 18.2078C69.586 18.2078 69.6843 18.1662 69.76 18.083C69.8431 17.9922 69.8848 17.8825 69.8848 17.754V17.6973C69.8848 17.5611 69.8431 17.4514 69.76 17.3682C69.6843 17.2775 69.5822 17.2321 69.4536 17.2321C69.3326 17.2321 69.2305 17.2775 69.1473 17.3682C69.0717 17.4514 69.0339 17.5611 69.0339 17.6973V17.754C69.0339 17.8825 69.0717 17.9922 69.1473 18.083C69.2305 18.1662 69.3364 18.2078 69.465 18.2078ZM73.8938 22.0425C73.4551 22.0425 73.0883 21.9631 72.7933 21.8043C72.4984 21.653 72.2752 21.4601 72.124 21.2256C71.9651 20.9911 71.8668 20.7567 71.829 20.5222L72.7139 19.331H73.8144V19.3764L72.9522 20.5336C73.0051 20.7 73.1224 20.855 73.3039 20.9987C73.4778 21.1425 73.7123 21.2143 74.0073 21.2143C74.2493 21.2143 74.4649 21.1727 74.654 21.0895C74.7825 21.0365 74.8884 20.9647 74.9716 20.8739C74.8809 20.8362 74.7976 20.7832 74.722 20.7151C74.548 20.5563 74.4611 20.3483 74.4611 20.0911C74.4611 19.8415 74.5556 19.6336 74.7447 19.4671C74.9263 19.3007 75.1493 19.2175 75.4141 19.2175C75.6788 19.2175 75.9019 19.3007 76.0835 19.4671C76.2574 19.6411 76.3444 19.8605 76.3444 20.1252C76.3444 20.2689 76.3179 20.4088 76.265 20.5449C76.2574 20.5676 76.2498 20.5866 76.2423 20.6017L76.8436 20.7945V21.5773H76.7869L75.8112 21.2597C75.6372 21.4488 75.433 21.6076 75.1985 21.7362C74.8355 21.9404 74.4005 22.0425 73.8938 22.0425ZM75.4028 20.4428C75.501 20.4428 75.5843 20.4088 75.6524 20.3407C75.7128 20.2726 75.7431 20.1895 75.7431 20.0911C75.7431 20.0004 75.7128 19.9209 75.6524 19.8529C75.5843 19.7924 75.5049 19.7621 75.4141 19.7621C75.3157 19.7621 75.2326 19.7924 75.1645 19.8529C75.0964 19.9209 75.0624 20.0004 75.0624 20.0911C75.0624 20.1895 75.0964 20.2726 75.1645 20.3407C75.2326 20.4088 75.312 20.4428 75.4028 20.4428ZM75.06 24.2095C74.6289 24.2095 74.2962 24.1073 74.0617 23.9031C73.8197 23.6989 73.6986 23.4266 73.6986 23.0863V22.9388H73.2675V22.3261H74.6743V23.0976C74.6743 23.2187 74.7122 23.3132 74.7878 23.3812C74.8558 23.4493 74.9466 23.4834 75.06 23.4834C75.1735 23.4834 75.2681 23.4493 75.3437 23.3812C75.4118 23.3132 75.4458 23.2187 75.4458 23.0976V22.3261H76.4101V23.0863C76.4101 23.4266 76.2929 23.6989 76.0584 23.9031C75.8164 24.1073 75.4837 24.2095 75.06 24.2095ZM78.3765 14.634C78.3765 14.1651 78.4749 13.7567 78.6715 13.4088C78.8681 13.0533 79.148 12.781 79.5111 12.5919C79.8741 12.3953 80.2939 12.2969 80.7704 12.2969C81.262 12.2969 81.6856 12.3953 82.0411 12.5919C82.3965 12.781 82.6726 13.0533 82.8693 13.4088C83.0735 13.7567 83.1756 14.1651 83.1756 14.634V16.5287C83.1756 16.9144 83.2814 17.2245 83.4932 17.459C83.7126 17.6935 83.9962 17.8107 84.3441 17.8107C84.6996 17.8107 84.9832 17.6935 85.195 17.459C85.4144 17.2245 85.5241 16.9144 85.5241 16.5287V14.6681C85.3122 14.5395 85.1383 14.3844 85.0022 14.2029C84.8736 14.0214 84.8093 13.8096 84.8093 13.5676C84.8093 13.2121 84.9341 12.9322 85.1837 12.728C85.4333 12.5162 85.785 12.4104 86.2388 12.4104H86.8855V13.4768H86.3069C86.0422 13.4768 85.9098 13.5789 85.9098 13.7831C85.9098 13.889 85.9476 13.9723 86.0232 14.0327C86.1064 14.0932 86.2161 14.1613 86.3523 14.237L86.7153 14.4185V16.5287C86.7153 16.9976 86.617 17.4099 86.4203 17.7653C86.2237 18.1133 85.9476 18.3856 85.5921 18.5822C85.2367 18.7788 84.8206 18.8772 84.3441 18.8772C83.8752 18.8772 83.463 18.7788 83.1075 18.5822C82.7521 18.3856 82.4759 18.1133 82.2793 17.7653C82.0827 17.4099 81.9843 16.9976 81.9843 16.5287V14.6454C81.9843 14.2596 81.8746 13.9496 81.6553 13.7151C81.436 13.4806 81.141 13.3634 80.7704 13.3634C80.4073 13.3634 80.1161 13.4806 79.8968 13.7151C79.6775 13.9496 79.5678 14.2596 79.5678 14.6454V16.6422C79.6283 16.6271 79.6926 16.6195 79.7607 16.6195C80.0707 16.6195 80.3203 16.7216 80.5094 16.9258C80.7061 17.1224 80.8044 17.3833 80.8044 17.7086V17.7426C80.8044 18.0754 80.691 18.3477 80.4641 18.5595C80.2447 18.7713 79.9611 18.8772 79.6132 18.8772C79.2274 18.8772 78.9249 18.7637 78.7055 18.5368C78.4862 18.3023 78.3765 17.9922 78.3765 17.6065V14.634ZM79.6359 18.2078C79.7569 18.2078 79.8552 18.1662 79.9308 18.083C80.014 17.9922 80.0556 17.8825 80.0556 17.754V17.6973C80.0556 17.5611 80.014 17.4514 79.9308 17.3682C79.8552 17.2775 79.7531 17.2321 79.6245 17.2321C79.5035 17.2321 79.4014 17.2775 79.3182 17.3682C79.2425 17.4514 79.2047 17.5611 79.2047 17.6973V17.754C79.2047 17.8825 79.2425 17.9922 79.3182 18.083C79.4014 18.1662 79.5073 18.2078 79.6359 18.2078ZM88.6249 13.7831C88.6249 13.2915 88.7497 12.9285 88.9993 12.694C89.2489 12.452 89.5927 12.3309 90.0317 12.3309C90.2359 12.3309 90.414 12.3536 90.5649 12.399C90.7238 12.4444 90.8564 12.4935 90.962 12.5465L90.6784 13.5109C90.6252 13.4731 90.5614 13.4428 90.4855 13.4201C90.4174 13.3974 90.3415 13.3861 90.2586 13.3861C90.1373 13.3861 90.0317 13.4238 89.9409 13.4995C89.858 13.5676 89.8161 13.681 89.8161 13.8399V16.6308C89.8615 16.6308 89.9069 16.6308 89.9523 16.6308C90.2246 16.6308 90.448 16.7292 90.6217 16.9258C90.8032 17.1224 90.894 17.3758 90.894 17.6859V17.7426C90.894 18.0906 90.784 18.3666 90.5649 18.5708C90.3529 18.7751 90.0963 18.8772 89.7935 18.8772C89.461 18.8772 89.1808 18.7751 88.9539 18.5708C88.7349 18.3666 88.6249 18.0566 88.6249 17.6405V13.7831ZM89.7935 18.2078C89.9069 18.2078 90.0012 18.1662 90.0771 18.083C90.16 17.9998 90.2019 17.8901 90.2019 17.754V17.6859C90.2019 17.5498 90.16 17.4401 90.0771 17.3569C90.0012 17.2737 89.9034 17.2321 89.7821 17.2321C89.6687 17.2321 89.5744 17.2737 89.4985 17.3569C89.4226 17.4401 89.385 17.5498 89.385 17.6859V17.754C89.385 17.8901 89.4226 17.9998 89.4985 18.083C89.5744 18.1662 89.6721 18.2078 89.7935 18.2078ZM94.4852 18.8545C94.0916 18.8545 93.7434 18.7751 93.4414 18.6162C93.1386 18.4574 92.9003 18.2418 92.7266 17.9696C92.56 17.6897 92.477 17.3645 92.477 16.9939V16.801H93.6456V16.9712C93.6456 17.2284 93.725 17.4401 93.8839 17.6065C94.0427 17.7653 94.2469 17.8448 94.4965 17.8448C94.7461 17.8448 94.9503 17.7653 95.1092 17.6065C95.268 17.4401 95.3474 17.2284 95.3474 16.9712V16.4606L94.1221 16.2678C93.7207 16.1997 93.3655 16.0862 93.0557 15.9274C92.745 15.761 92.4997 15.5454 92.3182 15.2807C92.1437 15.0084 92.0573 14.687 92.0573 14.3164C92.0573 13.8928 92.1594 13.5298 92.3636 13.2272C92.5678 12.9247 92.8549 12.6902 93.2258 12.5238C93.6037 12.3574 94.0383 12.2742 94.5305 12.2742C95.1275 12.2742 95.631 12.3839 96.0395 12.6032C96.4549 12.815 96.7883 13.057 97.0379 13.3293L96.255 14.1122C96.0735 13.9155 95.8353 13.7378 95.5403 13.5789C95.2523 13.4125 94.9198 13.3293 94.5419 13.3293C94.1562 13.3293 93.8455 13.4238 93.6116 13.613C93.3768 13.7945 93.2599 14.0403 93.2599 14.3504C93.2599 14.6681 93.3576 14.9026 93.5549 15.0538C93.7512 15.1976 93.9895 15.2958 94.2696 15.3488L95.1659 15.4963C95.2034 15.3148 95.2907 15.1559 95.4268 15.0198C95.6153 14.8307 95.8466 14.7361 96.1189 14.7361C96.3912 14.7361 96.6181 14.8307 96.7996 15.0198C96.9811 15.2013 97.0719 15.4245 97.0719 15.6891C97.0719 15.9463 96.9811 16.1657 96.7996 16.3472C96.7088 16.4379 96.6067 16.506 96.4933 16.5514V16.9825C96.4933 17.3607 96.406 17.6897 96.2323 17.9696C96.0656 18.2418 95.8309 18.4574 95.5289 18.6162C95.2261 18.7751 94.8779 18.8545 94.4852 18.8545ZM99.2388 18.7637V14.6113C99.2388 14.218 99.1367 13.9306 98.9325 13.7491C98.7353 13.5676 98.4333 13.4768 98.0249 13.4768H97.5144V12.4104H98.1497C98.4368 12.4104 98.6716 12.4444 98.8531 12.5125C99.0346 12.573 99.1891 12.6827 99.3183 12.8415H99.3636V10.9695C99.3636 10.7199 99.2388 10.5951 98.9892 10.5951H98.6829V9.6875H99.1367C99.5827 9.6875 99.9082 9.78585 100.112 9.98248C100.324 10.1791 100.43 10.493 100.43 10.9241V18.7637H99.2388ZM96.1075 16.0522C96.2131 16.0522 96.296 16.0182 96.3571 15.9501C96.4252 15.8744 96.4592 15.7875 96.4592 15.6891C96.4592 15.5833 96.4252 15.4963 96.3571 15.4282C96.296 15.3601 96.2131 15.3261 96.1075 15.3261C96.0089 15.3261 95.926 15.3601 95.8579 15.4282C95.7969 15.4963 95.7672 15.5833 95.7672 15.6891C95.7672 15.7875 95.7969 15.8744 95.8579 15.9501C95.926 16.0182 96.0089 16.0522 96.1075 16.0522Z" fill="white"/>
<path d="M66.4503 36.4548C65.6887 36.4548 64.9716 36.3163 64.299 36.0394C63.6264 35.7625 63.033 35.3768 62.5187 34.8822C62.0143 34.3778 61.6137 33.7893 61.317 33.1167C61.0301 32.4343 60.8867 31.6974 60.8867 30.9061C60.8867 30.1148 61.0301 29.383 61.317 28.7104C61.6137 28.0279 62.0143 27.4395 62.5187 26.9449C63.033 26.4405 63.6264 26.0497 64.299 25.7728C64.9716 25.4959 65.6887 25.3574 66.4503 25.3574C67.2613 25.3574 68.0081 25.5008 68.6905 25.7877C69.3828 26.0745 69.9615 26.4751 70.4264 26.9894L69.2988 28.1021C69.0713 27.8449 68.8092 27.6273 68.5125 27.4493C68.2256 27.2713 67.9092 27.1378 67.563 27.0487C67.2168 26.9499 66.8459 26.9004 66.4503 26.9004C65.926 26.9004 65.4266 26.9944 64.9518 27.1823C64.4771 27.3702 64.0567 27.6422 63.6907 27.9983C63.3347 28.3445 63.0528 28.7648 62.8451 29.2593C62.6374 29.7439 62.5335 30.2929 62.5335 30.9061C62.5335 31.5194 62.6374 32.0732 62.8451 32.5678C63.0627 33.0524 63.3495 33.4728 63.7056 33.8289C64.0715 34.1751 64.4919 34.4421 64.9667 34.63C65.4414 34.8179 65.9409 34.9119 66.4651 34.9119C66.9497 34.9119 67.3998 34.8427 67.8152 34.7042C68.2405 34.5657 68.6114 34.3679 68.9279 34.1107C69.2444 33.8535 69.5015 33.542 69.6994 33.1761C69.8972 32.8002 70.0208 32.3799 70.0703 31.915H66.4354V30.4759H71.5984C71.6182 30.5946 71.6379 30.7331 71.6578 30.8913C71.6776 31.0397 71.6874 31.183 71.6874 31.3215V31.3364C71.6874 32.098 71.5539 32.7953 71.2868 33.4283C71.0297 34.0613 70.6687 34.6053 70.2038 35.0603C69.7389 35.5053 69.1851 35.8515 68.5422 36.0988C67.9092 36.3362 67.2119 36.4548 66.4503 36.4548ZM76.4646 36.4548C75.6831 36.4548 74.9958 36.2768 74.4023 35.9207C73.8089 35.5647 73.344 35.0849 73.0078 34.4816C72.6714 33.8684 72.5033 33.1859 72.5033 32.4343C72.5033 31.6826 72.6714 31.005 73.0078 30.4017C73.344 29.7884 73.8089 29.3038 74.4023 28.9478C74.9958 28.5917 75.6831 28.4137 76.4646 28.4137C77.236 28.4137 77.9185 28.5967 78.512 28.9626C79.1054 29.3187 79.5702 29.7984 79.9066 30.4017C80.2428 31.005 80.411 31.6826 80.411 32.4343C80.411 33.1859 80.2428 33.8684 79.9066 34.4816C79.5702 35.0849 79.1054 35.5647 78.512 35.9207C77.9185 36.2768 77.236 36.4548 76.4646 36.4548ZM76.4646 34.9861C76.88 34.9861 77.2657 34.8872 77.6218 34.6893C77.9779 34.4816 78.2646 34.1899 78.4823 33.814C78.7097 33.4283 78.8235 32.9684 78.8235 32.4343C78.8235 31.9002 78.7097 31.4452 78.4823 31.0693C78.2646 30.6836 77.9779 30.3918 77.6218 30.194C77.2657 29.9863 76.88 29.8824 76.4646 29.8824C76.0492 29.8824 75.6584 29.9863 75.2925 30.194C74.9364 30.3918 74.6446 30.6836 74.4172 31.0693C74.1995 31.4452 74.0908 31.9002 74.0908 32.4343C74.0908 32.9684 74.1995 33.4283 74.4172 33.814C74.6446 34.1899 74.9413 34.4816 75.3074 34.6893C75.6733 34.8872 76.059 34.9861 76.4646 34.9861ZM85.4473 36.4548C84.666 36.4548 83.9785 36.2768 83.3851 35.9207C82.7917 35.5647 82.3268 35.0849 81.9905 34.4816C81.6542 33.8684 81.4861 33.1859 81.4861 32.4343C81.4861 31.6826 81.6542 31.005 81.9905 30.4017C82.3268 29.7884 82.7917 29.3038 83.3851 28.9478C83.9785 28.5917 84.666 28.4137 85.4473 28.4137C86.2188 28.4137 86.9013 28.5967 87.4949 28.9626C88.0883 29.3187 88.5535 29.7984 88.8895 30.4017C89.2255 31.005 89.3939 31.6826 89.3939 32.4343C89.3939 33.1859 89.2255 33.8684 88.8895 34.4816C88.5535 35.0849 88.0883 35.5647 87.4949 35.9207C86.9013 36.2768 86.2188 36.4548 85.4473 36.4548ZM85.4473 34.9861C85.8627 34.9861 86.2485 34.8872 86.6045 34.6893C86.9606 34.4816 87.2475 34.1899 87.4652 33.814C87.693 33.4283 87.8064 32.9684 87.8064 32.4343C87.8064 31.9002 87.693 31.4452 87.4652 31.0693C87.2475 30.6836 86.9606 30.3918 86.6045 30.194C86.2485 29.9863 85.8627 29.8824 85.4473 29.8824C85.0319 29.8824 84.6413 29.9863 84.2753 30.194C83.9192 30.3918 83.6275 30.6836 83.3999 31.0693C83.1824 31.4452 83.0735 31.9002 83.0735 32.4343C83.0735 32.9684 83.1824 33.4283 83.3999 33.814C83.6275 34.1899 83.9242 34.4816 84.2901 34.6893C84.6561 34.8872 85.0419 34.9861 85.4473 34.9861ZM94.282 39.6595C93.6187 39.6595 93.0453 39.5506 92.561 39.3331C92.0862 39.1253 91.7005 38.8533 91.4038 38.5171C91.107 38.1907 90.8941 37.8544 90.7658 37.5082L92.2494 36.8851C92.4074 37.2807 92.6596 37.6022 93.0061 37.8494C93.3621 38.1066 93.7871 38.2352 94.282 38.2352C94.9836 38.2352 95.5326 38.0275 95.9288 37.6121C96.3241 37.1967 96.5222 36.6082 96.5222 35.8466V35.1196H96.4332C96.1958 35.4658 95.8694 35.7477 95.454 35.9653C95.0386 36.1828 94.5586 36.2916 94.0149 36.2916C93.3717 36.2916 92.7783 36.1284 92.2346 35.8021C91.7005 35.4757 91.2702 35.0207 90.9438 34.4371C90.6271 33.8437 90.4691 33.1514 90.4691 32.3601C90.4691 31.5589 90.6271 30.8666 90.9438 30.283C91.2702 29.6896 91.7005 29.2297 92.2346 28.9033C92.7783 28.5769 93.3717 28.4137 94.0149 28.4137C94.5586 28.4137 95.0386 28.5225 95.454 28.7401C95.8694 28.9478 96.1958 29.2346 96.4332 29.6006H96.5222V28.651H98.0504V35.8169C98.0504 36.6379 97.8872 37.3352 97.5608 37.9088C97.244 38.4824 96.8041 38.9176 96.2403 39.2144C95.6766 39.5111 95.0238 39.6595 94.282 39.6595ZM94.2968 34.8377C94.6921 34.8377 95.0578 34.7437 95.3947 34.5558C95.7403 34.358 96.0126 34.0761 96.2107 33.7102C96.4184 33.3343 96.5222 32.8843 96.5222 32.3601C96.5222 31.8062 96.4184 31.3462 96.2107 30.9803C96.0126 30.6144 95.7403 30.3374 95.3947 30.1495C95.0578 29.9616 94.6921 29.8676 94.2968 29.8676C93.9006 29.8676 93.5297 29.9616 93.1841 30.1495C92.8472 30.3374 92.5758 30.6193 92.3681 30.9951C92.1604 31.3611 92.0566 31.8161 92.0566 32.3601C92.0566 32.8942 92.1604 33.3491 92.3681 33.725C92.5758 34.0909 92.8472 34.3679 93.1841 34.5558C93.5297 34.7437 93.9006 34.8377 94.2968 34.8377ZM99.9398 36.2175V25.5948H101.542V36.2175H99.9398ZM106.815 36.4548C106.073 36.4548 105.411 36.2818 104.827 35.9356C104.244 35.5894 103.784 35.1146 103.447 34.5113C103.121 33.908 102.958 33.2206 102.958 32.4491C102.958 31.7271 103.116 31.0595 103.432 30.4462C103.749 29.833 104.189 29.3434 104.753 28.9774C105.327 28.6016 105.984 28.4137 106.726 28.4137C107.508 28.4137 108.17 28.5818 108.714 28.9181C109.268 29.2544 109.689 29.7143 109.975 30.2979C110.262 30.8814 110.405 31.5391 110.405 32.2711C110.405 32.3799 110.401 32.4788 110.391 32.5678C110.391 32.6568 110.386 32.726 110.376 32.7755H104.53C104.57 33.1909 104.674 33.5519 104.842 33.8585C105.06 34.2443 105.346 34.536 105.702 34.7339C106.058 34.9317 106.444 35.0306 106.86 35.0306C107.364 35.0306 107.785 34.9169 108.121 34.6893C108.467 34.452 108.739 34.1602 108.937 33.814L110.257 34.452C109.931 35.0454 109.486 35.53 108.922 35.9059C108.358 36.2718 107.656 36.4548 106.815 36.4548ZM104.619 31.5738H108.818C108.808 31.3859 108.759 31.188 108.67 30.9803C108.581 30.7627 108.452 30.5649 108.284 30.3869C108.116 30.2088 107.903 30.0654 107.646 29.9566C107.389 29.8379 107.087 29.7786 106.741 29.7786C106.306 29.7786 105.92 29.8923 105.584 30.1198C105.248 30.3374 104.986 30.6441 104.797 31.0397C104.719 31.2078 104.659 31.3859 104.619 31.5738ZM116.927 36.2175L114.079 25.5948H115.889L117.58 32.4936L117.758 33.4134H117.847L118.07 32.4936L120.206 25.5948H121.838L123.885 32.4936L124.108 33.3986H124.197L124.375 32.4936L126.066 25.5948H127.861L125.057 36.2175H123.336L121.304 29.1703L121.066 28.1763H120.977L120.725 29.1703L118.604 36.2175H116.927ZM130.841 36.4548C130.297 36.4548 129.812 36.346 129.387 36.1285C128.971 35.9109 128.64 35.6142 128.393 35.2383C128.155 34.8525 128.037 34.4124 128.037 33.9179C128.037 33.3739 128.176 32.914 128.452 32.5381C128.739 32.1622 129.12 31.8755 129.595 31.6776C130.069 31.4798 130.594 31.3809 131.167 31.3809C131.484 31.3809 131.775 31.4056 132.043 31.4551C132.319 31.4946 132.557 31.5441 132.755 31.6034C132.962 31.6628 133.126 31.7271 133.244 31.7963V31.3957C133.244 30.9012 133.066 30.5056 132.71 30.2088C132.354 29.9121 131.894 29.7638 131.33 29.7638C130.945 29.7638 130.579 29.8528 130.233 30.0308C129.886 30.199 129.609 30.4314 129.402 30.7281L128.304 29.8824C128.521 29.5759 128.784 29.3137 129.09 29.0961C129.407 28.8786 129.758 28.7104 130.144 28.5917C130.539 28.473 130.95 28.4137 131.375 28.4137C132.473 28.4137 133.318 28.6857 133.912 29.2297C134.505 29.7638 134.802 30.5154 134.802 31.4847V36.2175H133.244V35.2828H133.155C133.027 35.4806 132.849 35.6685 132.621 35.8466C132.404 36.0246 132.141 36.168 131.835 36.2768C131.538 36.3955 131.206 36.4548 130.841 36.4548ZM131.123 35.1493C131.538 35.1493 131.904 35.0504 132.221 34.8525C132.547 34.6547 132.799 34.3976 132.977 34.0811C133.155 33.7547 133.244 33.4036 133.244 33.0277C133.027 32.8992 132.76 32.7953 132.443 32.7161C132.137 32.6271 131.81 32.5826 131.464 32.5826C130.811 32.5826 130.346 32.7112 130.069 32.9684C129.793 33.2255 129.654 33.547 129.654 33.9327C129.654 34.2888 129.787 34.5805 130.055 34.808C130.322 35.0356 130.678 35.1493 131.123 35.1493ZM136.581 36.2175V25.5948H138.183V36.2175H136.581ZM140.087 36.2175V25.5948H141.69V36.2175H140.087ZM146.962 36.4548C146.221 36.4548 145.558 36.2818 144.974 35.9356C144.391 35.5894 143.932 35.1146 143.595 34.5113C143.268 33.908 143.105 33.2206 143.105 32.4491C143.105 31.7271 143.264 31.0595 143.58 30.4462C143.897 29.833 144.336 29.3434 144.9 28.9774C145.474 28.6016 146.132 28.4137 146.873 28.4137C147.655 28.4137 148.318 28.5818 148.861 28.9181C149.416 29.2544 149.836 29.7143 150.123 30.2979C150.41 30.8814 150.553 31.5391 150.553 32.2711C150.553 32.3799 150.548 32.4788 150.538 32.5678C150.538 32.6568 150.534 32.726 150.523 32.7755H144.678C144.718 33.1909 144.822 33.5519 144.989 33.8585C145.207 34.2443 145.494 34.536 145.85 34.7339C146.206 34.9317 146.592 35.0306 147.007 35.0306C147.511 35.0306 147.932 34.9169 148.268 34.6893C148.615 34.452 148.887 34.1602 149.084 33.814L150.404 34.452C150.078 35.0454 149.633 35.53 149.069 35.9059C148.505 36.2718 147.804 36.4548 146.962 36.4548ZM144.767 31.5738H148.965C148.956 31.3859 148.906 31.188 148.817 30.9803C148.728 30.7627 148.6 30.5649 148.431 30.3869C148.264 30.2088 148.051 30.0654 147.793 29.9566C147.537 29.8379 147.235 29.7786 146.888 29.7786C146.454 29.7786 146.068 29.8923 145.731 30.1198C145.395 30.3374 145.133 30.6441 144.945 31.0397C144.866 31.2078 144.807 31.3859 144.767 31.5738ZM151.303 28.651H152.624V26.5146H154.226V28.651H156.081V30.0456H154.226V33.6805C154.226 34.0564 154.3 34.3431 154.449 34.541C154.607 34.7388 154.868 34.8377 155.235 34.8377C155.413 34.8377 155.571 34.813 155.71 34.7635C155.848 34.7042 155.986 34.635 156.125 34.5558V36.1136C155.957 36.1828 155.779 36.2373 155.591 36.2768C155.402 36.3163 155.18 36.3362 154.923 36.3362C154.221 36.3362 153.662 36.1334 153.247 35.7279C152.831 35.3125 152.624 34.7437 152.624 34.0217V30.0456H151.303V28.651Z" fill="white"/>
</g>
<defs>
<clipPath id="clip0_568_547">
<rect width="173.67" height="47.9992" fill="white"/>
</clipPath>
</defs>
</svg>
