<svg width="174" height="40" viewBox="0 0 174 40" fill="none" xmlns="http://www.w3.org/2000/svg">
<g clip-path="url(#clip0_568_367)">
<path d="M153.687 0.363281H19.9829C9.14729 0.363281 0.363281 9.14728 0.363281 19.9829C0.363281 30.8185 9.14729 39.6025 19.9829 39.6025H153.687C164.523 39.6025 173.307 30.8185 173.307 19.9829C173.307 9.14728 164.523 0.363281 153.687 0.363281Z" fill="#1F1F1F"/>
<path d="M41.4173 17.2876H15.2578V13.1853C15.2578 10.9584 17.1778 9.08301 19.4577 9.08301H37.2174C39.4973 9.08301 41.4173 10.9584 41.4173 13.1853V17.2876Z" fill="#34A853"/>
<path d="M41.4173 21.0733H15.2578V16.7134C15.2578 14.3467 17.1778 12.3535 19.4577 12.3535H37.2174C39.4973 12.3535 41.4173 14.3467 41.4173 16.7134V21.0733Z" fill="#FBBC04"/>
<path d="M41.4173 24.7062H15.2578V20.3462C15.2578 17.9795 17.1778 15.9863 19.4577 15.9863H37.2174C39.4973 15.9863 41.4173 17.9795 41.4173 20.3462V24.7062Z" fill="#EA4335"/>
<path d="M15.2578 18.3418L31.8613 22.0925C33.7726 22.5614 35.9227 22.0925 37.4754 20.9204L41.4173 18.1074V26.898C41.4173 29.125 39.5061 30.8831 37.2366 30.8831H19.4385C17.169 30.8831 15.2578 29.125 15.2578 26.898V18.3418Z" fill="url(#paint0_linear_568_367)"/>
<path d="M50.9023 15.6234V8.85968H56.0034V15.6234H54.9643V9.84212H51.9415V15.6234H50.9023ZM57.2351 17.6638V13.2901C57.2351 12.7548 57.339 12.2919 57.5469 11.9014C57.7609 11.5047 58.0506 11.1993 58.4159 10.9851C58.7875 10.7647 59.2062 10.6545 59.6723 10.6545C60.2013 10.6545 60.6453 10.7742 61.0043 11.0135C61.3695 11.2465 61.6466 11.5614 61.8356 11.9581C62.0245 12.3486 62.119 12.7705 62.119 13.224C62.119 13.7215 62.015 14.1623 61.8072 14.5465C61.6056 14.9306 61.3317 15.2329 60.9854 15.4533C60.639 15.6675 60.2548 15.7745 59.8329 15.7745C59.455 15.7745 59.1307 15.6958 58.8599 15.5383C58.5954 15.3809 58.3938 15.1951 58.2553 14.981H58.1987L58.2553 15.6423V17.6638H57.2351ZM59.644 14.8393C59.9022 14.8393 60.1414 14.7732 60.3619 14.6409C60.5823 14.5024 60.7618 14.3134 60.9004 14.0741C61.0389 13.8349 61.1082 13.5546 61.1082 13.2334C61.1082 12.887 61.0357 12.591 60.8909 12.3454C60.7523 12.0998 60.5729 11.914 60.3525 11.7881C60.132 11.6558 59.8958 11.5897 59.644 11.5897C59.4109 11.5897 59.1842 11.6527 58.9638 11.7786C58.7434 11.9046 58.5608 12.0904 58.4159 12.336C58.271 12.5816 58.1987 12.887 58.1987 13.2523C58.1987 13.5546 58.2648 13.8285 58.397 14.0741C58.5293 14.3134 58.7056 14.5024 58.926 14.6409C59.1464 14.7732 59.3857 14.8393 59.644 14.8393ZM65.3241 15.7745C64.8267 15.7745 64.3889 15.6611 64.0111 15.4344C63.6332 15.2077 63.3373 14.9023 63.1231 14.5181C62.909 14.1339 62.8019 13.6994 62.8019 13.2145C62.8019 12.7359 62.909 12.3045 63.1231 11.9203C63.3373 11.5299 63.6332 11.2213 64.0111 10.9946C64.3889 10.7679 64.8267 10.6545 65.3241 10.6545C65.8154 10.6545 66.2499 10.7679 66.6278 10.9946C67.0056 11.2213 67.3017 11.5299 67.5157 11.9203C67.7299 12.3045 67.8369 12.7359 67.8369 13.2145C67.8369 13.6994 67.7299 14.1339 67.5157 14.5181C67.3017 14.9023 67.0056 15.2077 66.6278 15.4344C66.2499 15.6611 65.8154 15.7745 65.3241 15.7745ZM65.3241 14.8393C65.5886 14.8393 65.8343 14.7763 66.061 14.6504C66.2877 14.5181 66.4704 14.3323 66.6089 14.093C66.7538 13.8474 66.8261 13.5546 66.8261 13.2145C66.8261 12.8744 66.7538 12.5847 66.6089 12.3454C66.4704 12.0998 66.2877 11.914 66.061 11.7881C65.8343 11.6558 65.5886 11.5897 65.3241 11.5897C65.0596 11.5897 64.8109 11.6558 64.5779 11.7881C64.3512 11.914 64.1654 12.0998 64.0205 12.3454C63.882 12.5847 63.8127 12.8744 63.8127 13.2145C63.8127 13.5546 63.882 13.8474 64.0205 14.093C64.1654 14.3323 64.3512 14.5181 64.5779 14.6504C64.8109 14.7763 65.0596 14.8393 65.3241 14.8393ZM70.9776 15.7745C70.4927 15.7745 70.0645 15.6675 69.6929 15.4533C69.3213 15.2329 69.0316 14.9369 68.8238 14.5654C68.6223 14.1875 68.5215 13.7624 68.5215 13.2901C68.5215 12.8114 68.6254 12.3863 68.8332 12.0148C69.041 11.6433 69.3371 11.3504 69.7212 11.1363C70.1117 10.9159 70.5714 10.8057 71.1004 10.8057H74.0382V11.6936H73.4809L72.7346 11.6275V11.6842C72.9548 11.8542 73.1314 12.0715 73.2636 12.336C73.3959 12.6005 73.462 12.9091 73.462 13.2617C73.462 13.7341 73.3581 14.1592 73.1503 14.537C72.9424 14.9149 72.6496 15.2172 72.2717 15.4439C71.9002 15.6643 71.4688 15.7745 70.9776 15.7745ZM70.987 14.8393C71.2453 14.8393 71.4846 14.7795 71.705 14.6598C71.9254 14.5339 72.1049 14.3544 72.2434 14.1214C72.382 13.8883 72.4512 13.6081 72.4512 13.2806C72.4512 12.9406 72.382 12.654 72.2434 12.421C72.1049 12.1817 71.9254 11.999 71.705 11.8731C71.4846 11.7472 71.2453 11.6842 70.987 11.6842C70.7352 11.6842 70.4958 11.7472 70.2691 11.8731C70.0487 11.999 69.8692 12.1817 69.7306 12.421C69.5984 12.654 69.5323 12.9406 69.5323 13.2806C69.5323 13.6081 69.5984 13.8883 69.7306 14.1214C69.8692 14.3544 70.0487 14.5339 70.2691 14.6598C70.4958 14.7795 70.7352 14.8393 70.987 14.8393ZM77.1592 15.7745C76.668 15.7745 76.2371 15.6486 75.865 15.3966C75.5003 15.1385 75.2132 14.7512 75.0054 14.2347C74.8041 13.7121 74.7031 13.057 74.7031 12.2699C74.7031 11.4889 74.8041 10.8403 75.0054 10.3239C75.2132 9.80745 75.5003 9.42335 75.865 9.17142C76.2371 8.91324 76.668 8.78411 77.1592 8.78411C77.6504 8.78411 78.0792 8.91324 78.4439 9.17142C78.816 9.42335 79.1052 9.80745 79.313 10.3239C79.5208 10.8403 79.6247 11.4889 79.6247 12.2699C79.6247 13.057 79.5208 13.7121 79.313 14.2347C79.1052 14.7512 78.816 15.1385 78.4439 15.3966C78.0792 15.6486 77.6504 15.7745 77.1592 15.7745ZM77.1592 9.71931C76.9201 9.71931 76.6963 9.77911 76.4885 9.89879C76.2872 10.0185 76.1172 10.2294 75.9784 10.5317C75.8403 10.834 75.7553 11.2591 75.7233 11.807H78.5951C78.5704 11.2591 78.4883 10.834 78.3495 10.5317C78.2114 10.2294 78.0377 10.0185 77.8299 9.89879C77.6221 9.77911 77.399 9.71931 77.1592 9.71931ZM77.1592 14.8393C77.399 14.8393 77.6192 14.7732 77.8205 14.6409C78.0283 14.5087 78.1983 14.2883 78.3306 13.9797C78.4694 13.6648 78.5573 13.2365 78.5951 12.695H75.7328C75.7648 13.2365 75.8461 13.6648 75.9784 13.9797C76.1172 14.2945 76.2872 14.5181 76.4885 14.6504C76.6963 14.7763 76.9201 14.8393 77.1592 14.8393ZM80.6028 15.6234V10.8057H81.5664V11.4669H81.623C81.7618 11.2339 81.9667 11.0418 82.2371 10.8907C82.5146 10.7332 82.8169 10.6545 83.1439 10.6545C83.7361 10.6545 84.1801 10.8309 84.4759 11.1835C84.7723 11.5362 84.9199 12.0022 84.9199 12.5816V17.6638H83.9091V12.7138C83.9091 12.3234 83.8117 12.04 83.6162 11.8637C83.4215 11.6811 83.1664 11.5897 82.8511 11.5897C82.6055 11.5897 82.3918 11.659 82.2087 11.7975C82.0263 11.9298 81.8817 12.1061 81.7742 12.3265C81.6739 12.5469 81.623 12.7831 81.623 13.035V15.6234H80.6028ZM82.1993 9.8799L82.5488 8.40625H83.7579L83.0589 9.8799H82.1993ZM86.0825 15.6234V10.8057H87.1027V12.8555L89.1432 10.8057H90.409V10.8623L88.548 12.7044L90.4751 15.5667V15.6234H89.266L87.8396 13.4129L87.1027 14.1308V15.6234H86.0825ZM91.1102 15.6234V10.8057H92.0738V11.4669H92.1304C92.2692 11.2339 92.4741 11.0418 92.7445 10.8907C93.022 10.7332 93.3243 10.6545 93.6513 10.6545C94.2435 10.6545 94.6875 10.8309 94.9833 11.1835C95.2798 11.5362 95.4273 12.0022 95.4273 12.5816V17.6638H94.4165V12.7138C94.4165 12.3234 94.3191 12.04 94.1236 11.8637C93.9289 11.6811 93.6738 11.5897 93.3585 11.5897C93.1129 11.5897 92.8992 11.659 92.7161 11.7975C92.5337 11.9298 92.3891 12.1061 92.2816 12.3265C92.1813 12.5469 92.1304 12.7831 92.1304 13.035V15.6234H91.1102ZM100.996 15.7745C100.511 15.7745 100.083 15.6675 99.7116 15.4533C99.3396 15.2329 99.0503 14.9369 98.8425 14.5654C98.6405 14.1875 98.5402 13.7624 98.5402 13.2901C98.5402 12.8114 98.6441 12.3863 98.852 12.0148C99.0598 11.6433 99.3555 11.3504 99.7399 11.1363C100.13 10.9159 100.59 10.8057 101.119 10.8057H104.057V11.6936H103.5L102.753 11.6275V11.6842C102.974 11.8542 103.15 12.0715 103.282 12.336C103.415 12.6005 103.481 12.9091 103.481 13.2617C103.481 13.7341 103.377 14.1592 103.169 14.537C102.961 14.9149 102.668 15.2172 102.29 15.4439C101.918 15.6643 101.488 15.7745 100.996 15.7745ZM101.006 14.8393C101.264 14.8393 101.503 14.7795 101.724 14.6598C101.944 14.5339 102.123 14.3544 102.262 14.1214C102.4 13.8883 102.47 13.6081 102.47 13.2806C102.47 12.9406 102.4 12.654 102.262 12.421C102.123 12.1817 101.944 11.999 101.724 11.8731C101.503 11.7472 101.264 11.6842 101.006 11.6842C100.754 11.6842 100.515 11.7472 100.288 11.8731C100.067 11.999 99.8874 12.1817 99.7494 12.421C99.6171 12.654 99.551 12.9406 99.551 13.2806C99.551 13.6081 99.6171 13.8883 99.7494 14.1214C99.8874 14.3544 100.067 14.5339 100.288 14.6598C100.515 14.7795 100.754 14.8393 101.006 14.8393ZM107.612 15.6989C107.171 15.6989 106.816 15.573 106.545 15.3211C106.274 15.0691 106.139 14.7071 106.139 14.2347V11.6936H104.599V10.8057H108.963V11.6936H107.15V14.0175C107.15 14.2631 107.2 14.4457 107.301 14.5654C107.408 14.685 107.575 14.7448 107.801 14.7448C107.921 14.7448 108.022 14.7291 108.104 14.6976C108.192 14.6598 108.277 14.6157 108.359 14.5654V15.5572C108.132 15.6517 107.884 15.6989 107.612 15.6989ZM112.105 15.7745C111.607 15.7745 111.169 15.6611 110.792 15.4344C110.414 15.2077 110.118 14.9023 109.904 14.5181C109.689 14.1339 109.582 13.6994 109.582 13.2145C109.582 12.7359 109.689 12.3045 109.904 11.9203C110.118 11.5299 110.414 11.2213 110.792 10.9946C111.169 10.7679 111.607 10.6545 112.105 10.6545C112.596 10.6545 113.03 10.7679 113.408 10.9946C113.786 11.2213 114.082 11.5299 114.296 11.9203C114.511 12.3045 114.617 12.7359 114.617 13.2145C114.617 13.6994 114.511 14.1339 114.296 14.5181C114.082 14.9023 113.786 15.2077 113.408 15.4344C113.03 15.6611 112.596 15.7745 112.105 15.7745ZM112.105 14.8393C112.369 14.8393 112.615 14.7763 112.841 14.6504C113.068 14.5181 113.251 14.3323 113.389 14.093C113.534 13.8474 113.607 13.5546 113.607 13.2145C113.607 12.8744 113.534 12.5847 113.389 12.3454C113.251 12.0998 113.068 11.914 112.841 11.7881C112.615 11.6558 112.369 11.5897 112.105 11.5897C111.84 11.5897 111.592 11.6558 111.358 11.7881C111.132 11.914 110.946 12.0998 110.801 12.3454C110.662 12.5847 110.593 12.8744 110.593 13.2145C110.593 13.5546 110.662 13.8474 110.801 14.093C110.946 14.3323 111.132 14.5181 111.358 14.6504C111.592 14.7763 111.84 14.8393 112.105 14.8393Z" fill="white"/>
<path d="M51.1406 30.1565V21.3117H57.8113V30.1565H56.4525V22.5964H52.4995V30.1565H51.1406ZM62.4361 30.3542C61.7855 30.3542 61.2131 30.2059 60.719 29.9095C60.2249 29.613 59.8378 29.2135 59.5578 28.7112C59.2778 28.2089 59.1378 27.6406 59.1378 27.0065C59.1378 26.3806 59.2778 25.8164 59.5578 25.3141C59.8378 24.8035 60.2249 24.4 60.719 24.1035C61.2131 23.807 61.7855 23.6588 62.4361 23.6588C63.0784 23.6588 63.6467 23.807 64.1408 24.1035C64.6349 24.4 65.022 24.8035 65.302 25.3141C65.582 25.8164 65.722 26.3806 65.722 27.0065C65.722 27.6406 65.582 28.2089 65.302 28.7112C65.022 29.2135 64.6349 29.613 64.1408 29.9095C63.6467 30.2059 63.0784 30.3542 62.4361 30.3542ZM62.4361 29.1312C62.782 29.1312 63.1031 29.0489 63.3996 28.8841C63.6961 28.7112 63.9349 28.4683 64.1161 28.1553C64.3055 27.8341 64.4002 27.4512 64.4002 27.0065C64.4002 26.5618 64.3055 26.183 64.1161 25.87C63.9349 25.5488 63.6961 25.3059 63.3996 25.1412C63.1031 24.9682 62.782 24.8817 62.4361 24.8817C62.0902 24.8817 61.7649 24.9682 61.4602 25.1412C61.1637 25.3059 60.9208 25.5488 60.7314 25.87C60.5502 26.183 60.4596 26.5618 60.4596 27.0065C60.4596 27.4512 60.5502 27.8341 60.7314 28.1553C60.9208 28.4683 61.1637 28.7112 61.4602 28.8841C61.7649 29.0489 62.0902 29.1312 62.4361 29.1312ZM66.7807 32.8248V27.1053C66.7807 26.4053 66.9166 25.8 67.1884 25.2894C67.4684 24.7706 67.8472 24.3711 68.3249 24.0911C68.8107 23.8029 69.3584 23.6588 69.9678 23.6588C70.6596 23.6588 71.2402 23.8152 71.7096 24.1282C72.1873 24.4329 72.5496 24.8447 72.7963 25.3635C73.0434 25.8741 73.1669 26.4259 73.1669 27.0188C73.1669 27.6694 73.031 28.2459 72.7593 28.7483C72.4961 29.2506 72.1378 29.6459 71.6849 29.9342C71.2319 30.2141 70.7296 30.3542 70.1778 30.3542C69.6837 30.3542 69.2596 30.2512 68.9055 30.0453C68.5596 29.8395 68.296 29.5965 68.1149 29.3165H68.0407L68.1149 30.1812V32.8248H66.7807ZM69.9308 29.1312C70.2684 29.1312 70.5813 29.0447 70.8696 28.8718C71.1578 28.6906 71.3925 28.4436 71.5737 28.1306C71.7549 27.8176 71.8455 27.4512 71.8455 27.0312C71.8455 26.5783 71.7507 26.1912 71.5614 25.87C71.3802 25.5488 71.1454 25.3059 70.8573 25.1412C70.569 24.9682 70.2602 24.8817 69.9308 24.8817C69.626 24.8817 69.3295 24.9641 69.0413 25.1288C68.7531 25.2935 68.5142 25.5365 68.3249 25.8576C68.1354 26.1788 68.0407 26.5783 68.0407 27.0559C68.0407 27.4512 68.1272 27.8094 68.3002 28.1306C68.4731 28.4436 68.7037 28.6906 68.9919 28.8718C69.2801 29.0447 69.5931 29.1312 69.9308 29.1312ZM77.7819 30.2553C77.2049 30.2553 76.7399 30.0906 76.386 29.7612C76.0314 29.4318 75.8548 28.9583 75.8548 28.3406V25.0176H73.8413V23.8564H79.5484V25.0176H77.1766V28.0565C77.1766 28.3777 77.242 28.6165 77.3742 28.773C77.5138 28.9294 77.7325 29.0077 78.029 29.0077C78.1852 29.0077 78.3167 28.9871 78.4243 28.9459C78.5391 28.8965 78.6502 28.8389 78.7578 28.773V30.07C78.4613 30.1936 78.1358 30.2553 77.7819 30.2553ZM83.6562 30.3542C83.0051 30.3542 82.4332 30.2059 81.9391 29.9095C81.445 29.613 81.0576 29.2135 80.7779 28.7112C80.4974 28.2089 80.3579 27.6406 80.3579 27.0065C80.3579 26.3806 80.4974 25.8164 80.7779 25.3141C81.0576 24.8035 81.445 24.4 81.9391 24.1035C82.4332 23.807 83.0051 23.6588 83.6562 23.6588C84.2985 23.6588 84.8668 23.807 85.3609 24.1035C85.855 24.4 86.2416 24.8035 86.5221 25.3141C86.8018 25.8164 86.9421 26.3806 86.9421 27.0065C86.9421 27.6406 86.8018 28.2089 86.5221 28.7112C86.2416 29.2135 85.855 29.613 85.3609 29.9095C84.8668 30.2059 84.2985 30.3542 83.6562 30.3542ZM83.6562 29.1312C84.002 29.1312 84.3232 29.0489 84.6197 28.8841C84.9162 28.7112 85.1545 28.4683 85.3362 28.1553C85.5251 27.8341 85.6203 27.4512 85.6203 27.0065C85.6203 26.5618 85.5251 26.183 85.3362 25.87C85.1545 25.5488 84.9162 25.3059 84.6197 25.1412C84.3232 24.9682 84.002 24.8817 83.6562 24.8817C83.3103 24.8817 82.9847 24.9682 82.6803 25.1412C82.3838 25.3059 82.1404 25.5488 81.9514 25.87C81.7698 26.183 81.6797 26.5618 81.6797 27.0065C81.6797 27.4512 81.7698 27.8341 81.9514 28.1553C82.1404 28.4683 82.3838 28.7112 82.6803 28.8841C82.9847 29.0489 83.3103 29.1312 83.6562 29.1312ZM87.8373 27.0065C87.8373 26.4135 87.9565 25.8741 88.1956 25.3882C88.4426 24.9023 88.8212 24.507 89.332 24.2023C89.8421 23.8894 90.4969 23.6958 91.2962 23.6217V22.0776H92.6303V23.6217C93.4289 23.6958 94.0793 23.8894 94.5821 24.2023C95.0922 24.507 95.4672 24.9023 95.7062 25.3882C95.9533 25.8741 96.0768 26.4135 96.0768 27.0065C96.0768 27.5747 95.9533 28.1018 95.7062 28.5877C95.4672 29.0736 95.0922 29.4771 94.5821 29.7983C94.0713 30.1195 93.4209 30.3171 92.6303 30.3912V32.8248H91.2962V30.3912C90.4969 30.3171 89.8421 30.1195 89.332 29.7983C88.8212 29.4771 88.4426 29.0736 88.1956 28.5877C87.9565 28.1018 87.8373 27.5747 87.8373 27.0065ZM94.755 27.0065C94.755 26.3806 94.5857 25.8741 94.2486 25.487C93.9187 25.0917 93.3795 24.8529 92.6303 24.7706V29.2424C93.3715 29.1518 93.9107 28.9047 94.2486 28.5012C94.5857 28.0894 94.755 27.5912 94.755 27.0065ZM89.1714 27.0065C89.1714 27.5829 89.3357 28.0771 89.6656 28.4888C89.9947 28.8924 90.5383 29.1436 91.2962 29.2424V24.7706C90.5463 24.8612 90.0027 25.1041 89.6656 25.4994C89.3357 25.8865 89.1714 26.3888 89.1714 27.0065ZM100.267 30.3542C99.6171 30.3542 99.0445 30.2059 98.5504 29.9095C98.0562 29.613 97.6689 29.2135 97.3892 28.7112C97.1094 28.2089 96.9692 27.6406 96.9692 27.0065C96.9692 26.3806 97.1094 25.8164 97.3892 25.3141C97.6689 24.8035 98.0562 24.4 98.5504 24.1035C99.0445 23.807 99.6171 23.6588 100.267 23.6588C100.91 23.6588 101.478 23.807 101.972 24.1035C102.466 24.4 102.854 24.8035 103.133 25.3141C103.413 25.8164 103.553 26.3806 103.553 27.0065C103.553 27.6406 103.413 28.2089 103.133 28.7112C102.854 29.2135 102.466 29.613 101.972 29.9095C101.478 30.2059 100.91 30.3542 100.267 30.3542ZM100.267 29.1312C100.613 29.1312 100.934 29.0489 101.231 28.8841C101.527 28.7112 101.767 28.4683 101.947 28.1553C102.137 27.8341 102.232 27.4512 102.232 27.0065C102.232 26.5618 102.137 26.183 101.947 25.87C101.767 25.5488 101.527 25.3059 101.231 25.1412C100.934 24.9682 100.613 24.8817 100.267 24.8817C99.9215 24.8817 99.596 24.9682 99.2915 25.1412C98.9951 25.3059 98.7524 25.5488 98.5627 25.87C98.3818 26.183 98.2909 26.5618 98.2909 27.0065C98.2909 27.4512 98.3818 27.8341 98.5627 28.1553C98.7524 28.4683 98.9951 28.7112 99.2915 28.8841C99.596 29.0489 99.9215 29.1312 100.267 29.1312ZM99.6992 22.6458L100.156 20.7188H101.737L100.823 22.6458H99.6992ZM103.861 30.1565L106.48 24.2517L106.023 23.2758C105.875 22.9547 105.731 22.7405 105.591 22.6335C105.451 22.5182 105.274 22.4605 105.06 22.4605C104.862 22.4605 104.672 22.5141 104.491 22.6211V21.3241C104.607 21.2911 104.731 21.2664 104.862 21.2499C104.994 21.2252 105.146 21.2129 105.319 21.2129C105.657 21.2129 105.932 21.2623 106.147 21.3611C106.369 21.4599 106.559 21.6287 106.715 21.8676C106.88 22.0982 107.044 22.407 107.209 22.7941L110.409 30.1565H108.951L107.209 25.8576H107.147L105.344 30.1565H103.861ZM113.041 30.2553C112.448 30.2553 111.979 30.0865 111.633 29.7489C111.287 29.403 111.114 28.9294 111.114 28.3283V23.8564H112.448V28.0441C112.448 28.3571 112.514 28.5959 112.646 28.7606C112.778 28.9253 112.992 29.0077 113.288 29.0077C113.445 29.0077 113.577 28.9871 113.684 28.9459C113.799 28.9047 113.915 28.8471 114.03 28.773V30.07C113.89 30.1277 113.742 30.173 113.585 30.2059C113.429 30.2388 113.248 30.2553 113.041 30.2553ZM122.221 30.3542C121.587 30.3542 120.989 30.2388 120.43 30.0083C119.878 29.7777 119.388 29.4565 118.96 29.0447C118.531 28.6247 118.194 28.1347 117.947 27.5747C117.708 27.0065 117.589 26.393 117.589 25.7341C117.589 25.0753 117.708 24.4659 117.947 23.9058C118.194 23.3376 118.527 22.8476 118.947 22.4358C119.375 22.0158 119.87 21.6905 120.43 21.4599C120.989 21.2294 121.587 21.114 122.221 21.114C122.896 21.114 123.518 21.2334 124.086 21.4723C124.663 21.7111 125.144 22.0447 125.532 22.4729L124.593 23.3994C124.304 23.0782 123.958 22.8311 123.555 22.6582C123.16 22.4852 122.715 22.3988 122.221 22.3988C121.636 22.3988 121.097 22.5388 120.603 22.8188C120.109 23.0905 119.709 23.4776 119.405 23.98C119.108 24.4741 118.96 25.0588 118.96 25.7341C118.96 26.4094 119.112 26.9983 119.417 27.5006C119.721 27.9947 120.121 28.3818 120.615 28.6618C121.109 28.9336 121.648 29.0694 122.233 29.0694C122.768 29.0694 123.254 28.9706 123.691 28.773C124.127 28.5671 124.477 28.2788 124.741 27.9083C125.013 27.5377 125.177 27.0929 125.235 26.5741H122.209V25.3759H126.508C126.557 25.5982 126.582 25.8329 126.582 26.08V26.0923C126.582 26.9489 126.392 27.6982 126.013 28.3406C125.643 28.9748 125.128 29.4689 124.469 29.823C123.81 30.1771 123.061 30.3542 122.221 30.3542ZM130.559 30.3542C129.908 30.3542 129.336 30.2059 128.842 29.9095C128.348 29.613 127.961 29.2135 127.681 28.7112C127.401 28.2089 127.261 27.6406 127.261 27.0065C127.261 26.3806 127.401 25.8164 127.681 25.3141C127.961 24.8035 128.348 24.4 128.842 24.1035C129.336 23.807 129.908 23.6588 130.559 23.6588C131.202 23.6588 131.77 23.807 132.264 24.1035C132.758 24.4 133.145 24.8035 133.425 25.3141C133.705 25.8164 133.845 26.3806 133.845 27.0065C133.845 27.6406 133.705 28.2089 133.425 28.7112C133.145 29.2135 132.758 29.613 132.264 29.9095C131.77 30.2059 131.202 30.3542 130.559 30.3542ZM130.559 29.1312C130.905 29.1312 131.226 29.0489 131.523 28.8841C131.819 28.7112 132.058 28.4683 132.239 28.1553C132.428 27.8341 132.524 27.4512 132.524 27.0065C132.524 26.5618 132.428 26.183 132.239 25.87C132.058 25.5488 131.819 25.3059 131.523 25.1412C131.226 24.9682 130.905 24.8817 130.559 24.8817C130.214 24.8817 129.888 24.9682 129.584 25.1412C129.287 25.3059 129.044 25.5488 128.855 25.87C128.673 26.183 128.583 26.5618 128.583 27.0065C128.583 27.4512 128.673 27.8341 128.855 28.1553C129.044 28.4683 129.287 28.7112 129.584 28.8841C129.888 29.0489 130.214 29.1312 130.559 29.1312ZM138.039 30.3542C137.388 30.3542 136.816 30.2059 136.322 29.9095C135.828 29.613 135.44 29.2135 135.161 28.7112C134.88 28.2089 134.741 27.6406 134.741 27.0065C134.741 26.3806 134.88 25.8164 135.161 25.3141C135.44 24.8035 135.828 24.4 136.322 24.1035C136.816 23.807 137.388 23.6588 138.039 23.6588C138.681 23.6588 139.249 23.807 139.744 24.1035C140.238 24.4 140.624 24.8035 140.905 25.3141C141.185 25.8164 141.325 26.3806 141.325 27.0065C141.325 27.6406 141.185 28.2089 140.905 28.7112C140.624 29.2135 140.238 29.613 139.744 29.9095C139.249 30.2059 138.681 30.3542 138.039 30.3542ZM138.039 29.1312C138.385 29.1312 138.706 29.0489 139.002 28.8841C139.299 28.7112 139.537 28.4683 139.719 28.1553C139.908 27.8341 140.003 27.4512 140.003 27.0065C140.003 26.5618 139.908 26.183 139.719 25.87C139.537 25.5488 139.299 25.3059 139.002 25.1412C138.706 24.9682 138.385 24.8817 138.039 24.8817C137.693 24.8817 137.367 24.9682 137.063 25.1412C136.766 25.3059 136.523 25.5488 136.334 25.87C136.152 26.183 136.062 26.5618 136.062 27.0065C136.062 27.4512 136.152 27.8341 136.334 28.1553C136.523 28.4683 136.766 28.7112 137.063 28.8841C137.367 29.0489 137.693 29.1312 138.039 29.1312ZM145.394 33.0224C144.842 33.0224 144.365 32.9318 143.961 32.7507C143.566 32.5777 143.245 32.3512 142.998 32.0712C142.75 31.7995 142.574 31.5195 142.466 31.2312L143.702 30.7124C143.834 31.0418 144.044 31.3095 144.332 31.5154C144.628 31.7295 144.983 31.8365 145.394 31.8365C145.971 31.8365 146.424 31.6636 146.753 31.3177C147.091 30.9718 147.259 30.4818 147.259 29.8477V29.2424H147.185C146.988 29.5389 146.712 29.7777 146.358 29.9589C146.012 30.1318 145.616 30.2183 145.172 30.2183C144.637 30.2183 144.146 30.0824 143.702 29.8106C143.257 29.5389 142.899 29.1601 142.627 28.6741C142.355 28.18 142.219 27.6036 142.219 26.9447C142.219 26.2776 142.355 25.7012 142.627 25.2153C142.899 24.7212 143.257 24.3382 143.702 24.0664C144.146 23.7947 144.637 23.6588 145.172 23.6588C145.616 23.6588 146.012 23.7494 146.358 23.9306C146.712 24.1117 146.988 24.3506 147.185 24.647H147.259V23.8564H148.532V29.823C148.532 30.5065 148.396 31.0871 148.124 31.5648C147.861 32.0424 147.494 32.4048 147.025 32.6518C146.555 32.8989 146.012 33.0224 145.394 33.0224ZM145.406 29.0077C145.736 29.0077 146.041 28.9294 146.32 28.773C146.601 28.6082 146.827 28.3735 147 28.0688C147.173 27.7559 147.259 27.3812 147.259 26.9447C147.259 26.4918 147.173 26.1129 147 25.8082C146.827 25.4953 146.601 25.2605 146.32 25.1041C146.041 24.9477 145.736 24.8694 145.406 24.8694C145.077 24.8694 144.768 24.9517 144.48 25.1165C144.2 25.2729 143.973 25.5035 143.8 25.8082C143.628 26.1129 143.541 26.4918 143.541 26.9447C143.541 27.3894 143.628 27.7682 143.8 28.0812C143.973 28.3859 144.2 28.6165 144.48 28.773C144.768 28.9294 145.077 29.0077 145.406 29.0077ZM150.105 30.1565V21.3117H151.439V30.1565H150.105ZM155.83 30.3542C155.213 30.3542 154.661 30.2101 154.175 29.9218C153.689 29.6335 153.306 29.2382 153.026 28.7359C152.754 28.2336 152.618 27.6612 152.618 27.0188C152.618 26.4177 152.75 25.8618 153.014 25.3512C153.277 24.8405 153.644 24.4329 154.113 24.1282C154.591 23.8152 155.138 23.6588 155.756 23.6588C156.406 23.6588 156.959 23.7988 157.411 24.0788C157.873 24.3588 158.222 24.7417 158.461 25.2276C158.7 25.7135 158.82 26.2611 158.82 26.8706C158.82 26.9612 158.815 27.0435 158.807 27.1177C158.807 27.1918 158.803 27.2494 158.795 27.2906H153.928C153.994 27.9165 154.212 28.3859 154.583 28.6988C154.961 29.0118 155.39 29.1683 155.867 29.1683C156.295 29.1683 156.65 29.0736 156.93 28.8841C157.209 28.6865 157.432 28.4436 157.597 28.1553L158.696 28.6865C158.424 29.1806 158.054 29.5841 157.584 29.8971C157.115 30.2018 156.53 30.3542 155.83 30.3542ZM155.768 24.7953C155.324 24.7953 154.945 24.9312 154.632 25.2029C154.319 25.4747 154.109 25.8371 154.002 26.29H157.498C157.481 26.0759 157.411 25.8535 157.288 25.6229C157.164 25.3924 156.975 25.1988 156.72 25.0423C156.473 24.8776 156.156 24.7953 155.768 24.7953Z" fill="white"/>
<path d="M153.687 0.363281H19.9829C9.14729 0.363281 0.363281 9.14728 0.363281 19.9829C0.363281 30.8185 9.14729 39.6025 19.9829 39.6025H153.687C164.523 39.6025 173.307 30.8185 173.307 19.9829C173.307 9.14728 164.523 0.363281 153.687 0.363281Z" stroke="#747775"/>
</g>
<defs>
<linearGradient id="paint0_linear_568_367" x1="27.0908" y1="24.7392" x2="13.6463" y2="40.4915" gradientUnits="userSpaceOnUse">
<stop stop-color="#4285F4"/>
<stop offset="1" stop-color="#1B74E8"/>
</linearGradient>
<clipPath id="clip0_568_367">
<rect width="173.67" height="39.9659" fill="white"/>
</clipPath>
</defs>
</svg>
