<svg width="174" height="51" viewBox="0 0 174 51" fill="none" xmlns="http://www.w3.org/2000/svg">
<g clip-path="url(#clip0_568_996)">
<path d="M148.534 0.457031H25.1365C11.5064 0.457031 0.457031 11.5064 0.457031 25.1365C0.457031 38.7665 11.5064 49.8159 25.1365 49.8159H148.534C162.164 49.8159 173.213 38.7665 173.213 25.1365C173.213 11.5064 162.164 0.457031 148.534 0.457031Z" fill="#1F1F1F"/>
<path d="M148.534 0.457031H25.1365C11.5064 0.457031 0.457031 11.5064 0.457031 25.1365C0.457031 38.7665 11.5064 49.8159 25.1365 49.8159H148.534C162.164 49.8159 173.213 38.7665 173.213 25.1365C173.213 11.5064 162.164 0.457031 148.534 0.457031Z" stroke="#747775"/>
<path d="M52.1012 21.7464H19.1953V16.5861C19.1953 13.7848 21.6104 11.4258 24.4784 11.4258H46.8182C49.6861 11.4258 52.1012 13.7848 52.1012 16.5861V21.7464Z" fill="#34A853"/>
<path d="M52.1012 26.5077H19.1953V21.0234C19.1953 18.0462 21.6104 15.5391 24.4784 15.5391H46.8182C49.6861 15.5391 52.1012 18.0462 52.1012 21.0234V26.5077Z" fill="#FBBC04"/>
<path d="M52.1012 31.078H19.1953V25.5937C19.1953 22.6165 21.6104 20.1094 24.4784 20.1094H46.8182C49.6861 20.1094 52.1012 22.6165 52.1012 25.5937V31.078Z" fill="#EA4335"/>
<path d="M19.1953 23.0712L40.0808 27.7892C42.4849 28.3789 45.1895 27.7892 47.1427 26.3148L52.1012 22.7764V33.834C52.1012 36.6353 49.6972 38.8469 46.8423 38.8469H24.4542C21.5994 38.8469 19.1953 36.6353 19.1953 33.834V23.0712Z" fill="#4285F4"/>
<path d="M63.4258 19.6641C63.4258 19.3789 63.4654 19.062 63.5446 18.7135C63.6239 18.3649 63.7505 17.9807 63.9249 17.5609L64.7804 17.8936C64.6536 18.2263 64.5586 18.5313 64.4952 18.8085C64.4319 19.0858 64.4002 19.3433 64.4002 19.5809C64.4002 20.0245 64.5071 20.381 64.721 20.6503C64.9428 20.9197 65.2359 21.1177 65.6003 21.2445C65.9726 21.3713 66.3806 21.4346 66.8242 21.4346C67.5451 21.4346 68.1076 21.3356 68.5116 21.1375C68.9235 20.9395 69.2126 20.678 69.379 20.3533C69.5533 20.0364 69.6404 19.6997 69.6404 19.3433C69.6404 18.8204 69.581 18.3412 69.4622 17.9055C69.3513 17.4619 69.2285 17.0063 69.0938 16.5389L70.0563 16.2775C70.1831 16.7291 70.2702 17.0578 70.3177 17.2638C70.3653 17.4619 70.4089 17.6242 70.4484 17.751C70.5356 18.0441 70.6505 18.2619 70.793 18.4045C70.9356 18.5392 71.0981 18.6303 71.2802 18.6778C71.4624 18.7174 71.6566 18.7372 71.8625 18.7372C72.0288 18.7372 72.1477 18.7848 72.219 18.8798C72.2982 18.9669 72.3378 19.0739 72.3378 19.2007C72.3378 19.3274 72.2823 19.4463 72.1714 19.5571C72.0606 19.6602 71.918 19.7116 71.7437 19.7116C71.4981 19.7116 71.2802 19.6799 71.0901 19.6166C70.9079 19.5453 70.7535 19.4582 70.6267 19.3551C70.5871 19.7433 70.496 20.1196 70.3534 20.484C70.2108 20.8484 69.993 21.1732 69.6998 21.4584C69.4147 21.7515 69.0344 21.9812 68.5591 22.1476C68.0838 22.3219 67.4936 22.409 66.7886 22.409C66.1944 22.409 65.6399 22.31 65.125 22.1119C64.618 21.9138 64.2061 21.6128 63.8892 21.2088C63.5803 20.8048 63.4258 20.2899 63.4258 19.6641ZM71.7492 19.7116L71.8681 18.7372C72.3276 18.7372 72.688 18.7214 72.9494 18.6897C73.2188 18.6501 73.4089 18.559 73.5198 18.4164C73.6306 18.2738 73.6861 18.0401 73.6861 17.7153C73.6861 17.4222 73.6148 17.046 73.4722 16.5865C73.3376 16.127 73.1831 15.6715 73.0088 15.22L73.9713 14.8635C74.0743 15.1249 74.1694 15.418 74.2565 15.7428C74.3515 16.0597 74.4308 16.3765 74.4941 16.6934C74.5575 17.0103 74.5892 17.2876 74.5892 17.5252C74.5892 18.3253 74.3674 18.8917 73.9238 19.2244C73.4802 19.5492 72.7553 19.7116 71.7492 19.7116ZM73.9475 21.9574C73.7812 21.9574 73.6386 21.898 73.5198 21.7792C73.4089 21.6683 73.3534 21.5336 73.3534 21.3752C73.3534 21.2168 73.4089 21.0781 73.5198 20.9593C73.6386 20.8405 73.7812 20.7811 73.9475 20.7811C74.1059 20.7811 74.2407 20.8405 74.3515 20.9593C74.4704 21.0781 74.5298 21.2168 74.5298 21.3752C74.5298 21.5336 74.4704 21.6683 74.3515 21.7792C74.2407 21.898 74.1059 21.9574 73.9475 21.9574ZM72.3196 21.9574C72.1532 21.9574 72.0107 21.898 71.8918 21.7792C71.781 21.6683 71.7255 21.5336 71.7255 21.3752C71.7255 21.2168 71.781 21.0781 71.8918 20.9593C72.0107 20.8405 72.1532 20.7811 72.3196 20.7811C72.478 20.7811 72.6127 20.8405 72.7236 20.9593C72.8424 21.0781 72.9019 21.2168 72.9019 21.3752C72.9019 21.5336 72.8424 21.6683 72.7236 21.7792C72.6127 21.898 72.478 21.9574 72.3196 21.9574ZM75.3477 22.409L75.0031 21.5059C75.7714 21.2524 76.3696 20.9513 76.7974 20.6028C77.233 20.2543 77.538 19.8899 77.7123 19.5096C77.8945 19.1214 77.9856 18.7452 77.9856 18.3808C77.9856 17.9926 77.8984 17.6004 77.7242 17.2044C77.5579 16.8004 77.3717 16.4201 77.1657 16.0636L78.0332 15.624C78.2549 16.0438 78.4411 16.4478 78.5917 16.836C78.7501 17.2242 78.8728 17.5648 78.96 17.8579C79.0709 18.1986 79.2135 18.4322 79.3878 18.559C79.57 18.6778 79.8156 18.7372 80.1245 18.7372C80.2909 18.7372 80.4097 18.7848 80.481 18.8798C80.5602 18.9669 80.5998 19.0739 80.5998 19.2007C80.5998 19.3274 80.5443 19.4463 80.4335 19.5571C80.3225 19.6602 80.1799 19.7116 80.0057 19.7116C79.7046 19.7116 79.4511 19.6641 79.2452 19.569C79.0471 19.474 78.8847 19.3472 78.758 19.1888C78.6788 19.6324 78.5124 20.0364 78.2589 20.4008C78.0054 20.7652 77.7083 21.0821 77.3677 21.3514C77.0271 21.6287 76.6785 21.8544 76.3221 22.0287C75.9656 22.2031 75.6407 22.3297 75.3477 22.409ZM80.0115 19.7116L80.1303 18.7372H81.2472C81.7067 18.7372 82.075 18.7135 82.3523 18.6659C82.6296 18.6105 82.8316 18.5432 82.9584 18.4639C83.093 18.3768 83.1801 18.2857 83.2198 18.1906C83.2673 18.0876 83.2911 17.9847 83.2911 17.8817C83.2911 17.6995 83.2198 17.4737 83.0772 17.2044C82.9424 16.935 82.6613 16.5865 82.2335 16.1587C81.9404 15.8577 81.6472 15.5923 81.3542 15.3626C81.0611 15.1329 80.8195 14.9387 80.6293 14.7803C80.4392 14.6219 80.3442 14.507 80.3442 14.4357C80.3442 14.2535 80.3639 14.0832 80.4036 13.9248C80.4432 13.7663 80.5065 13.6435 80.5937 13.5564C80.9105 13.2157 81.4057 12.8751 82.079 12.5345C82.7603 12.1938 83.6079 11.766 84.6219 11.2511L85.0259 12.1305C84.305 12.479 83.7148 12.7682 83.2554 12.9979C82.8039 13.2197 82.4276 13.4177 82.1266 13.592C81.8334 13.7584 81.5601 13.9287 81.3067 14.103C82.2335 14.8555 82.9424 15.5328 83.4337 16.1349C83.9327 16.7291 84.1823 17.3312 84.1823 17.9411C84.1823 18.1154 84.1506 18.3055 84.0872 18.5115C84.0238 18.7174 83.8891 18.9115 83.6832 19.0937C83.4772 19.2759 83.1682 19.4264 82.7563 19.5453C82.3444 19.6561 81.7898 19.7116 81.0928 19.7116H80.0115ZM88.0383 19.6641C88.0383 19.3789 88.0779 19.062 88.1571 18.7135C88.2363 18.3649 88.3631 17.9807 88.5374 17.5609L89.3929 17.8936C89.2661 18.2263 89.1711 18.5313 89.1077 18.8085C89.0443 19.0858 89.0127 19.3433 89.0127 19.5809C89.0127 19.9849 89.1196 20.3256 89.3335 20.6028C89.5474 20.8801 89.8246 21.0861 90.1653 21.2207C90.5138 21.3633 90.8861 21.4346 91.2823 21.4346C92.0503 21.4346 92.6526 21.2959 93.0886 21.0187C93.5319 20.7493 93.8372 20.3889 94.0036 19.9374C94.1773 19.4938 94.2568 19.0066 94.2412 18.4758L93.9798 11.168H94.9661L95.1562 17.1925C95.1635 17.5965 95.2275 17.9134 95.3463 18.1431C95.4652 18.3649 95.6233 18.5194 95.8216 18.6065C96.0191 18.6936 96.2375 18.7372 96.4752 18.7372C96.6415 18.7372 96.7604 18.7848 96.8317 18.8798C96.9103 18.9669 96.9505 19.0739 96.9505 19.2007C96.9505 19.3274 96.8947 19.4463 96.7841 19.5571C96.6726 19.6602 96.53 19.7116 96.3564 19.7116C96.0629 19.7116 95.8216 19.668 95.6315 19.5809C95.4487 19.4858 95.3025 19.371 95.1918 19.2363C95.1361 19.6324 95.0255 20.0166 94.8591 20.3889C94.7001 20.7692 94.467 21.1098 94.1581 21.4108C93.8491 21.7198 93.4524 21.9614 92.9698 22.1357C92.4945 22.3179 91.9122 22.409 91.2228 22.409C90.6683 22.409 90.1494 22.2981 89.6662 22.0763C89.183 21.8624 88.7908 21.5495 88.4898 21.1375C88.1887 20.7335 88.0383 20.2424 88.0383 19.6641ZM96.3618 19.7116L96.4807 18.7372C96.7028 18.7372 96.8883 18.6897 97.0392 18.5946C97.19 18.4996 97.3362 18.3451 97.4788 18.1312C97.6214 17.9094 97.7759 17.6084 97.9422 17.2281C98.1717 16.7211 98.3974 16.3369 98.6195 16.0755C98.849 15.8141 99.0747 15.6359 99.2969 15.5408C99.5263 15.4457 99.7521 15.3982 99.9742 15.3982C100.244 15.3982 100.493 15.4695 100.723 15.6121C100.952 15.7467 101.154 15.929 101.329 16.1587C101.503 16.3884 101.638 16.642 101.733 16.9192C101.836 17.1886 101.887 17.4578 101.887 17.7272C101.887 18.2025 101.804 18.5828 101.638 18.8679C101.471 19.1452 101.258 19.3472 100.996 19.474C100.743 19.5928 100.477 19.6522 100.2 19.6522C99.9705 19.6522 99.6771 19.6126 99.3206 19.5334C98.9724 19.4541 98.5327 19.2482 98.0017 18.9155C97.7485 19.2799 97.4944 19.5057 97.2412 19.5928C96.988 19.672 96.6946 19.7116 96.3618 19.7116ZM98.5839 17.8579C98.5364 17.9609 98.4925 18.0599 98.4532 18.155C98.7941 18.3531 99.1031 18.4916 99.38 18.5709C99.6652 18.6422 99.9029 18.6778 100.093 18.6778C100.434 18.6778 100.675 18.6026 100.818 18.4521C100.96 18.3015 101.032 18.1035 101.032 17.8579C101.032 17.6282 100.976 17.3984 100.865 17.1687C100.755 16.939 100.612 16.7489 100.438 16.5984C100.271 16.4478 100.093 16.3726 99.9029 16.3726C99.7603 16.3726 99.6214 16.4122 99.487 16.4914C99.3526 16.5707 99.2137 16.7172 99.0711 16.9311C98.9285 17.145 98.7658 17.4539 98.5839 17.8579ZM106.063 19.7116C105.421 19.7116 104.934 19.6403 104.601 19.4977C104.268 19.3551 104.039 19.1333 103.912 18.8323C103.785 18.5313 103.714 18.1431 103.698 17.6678L103.46 11.168H104.435L104.672 17.2876C104.688 17.6757 104.724 17.9767 104.779 18.1906C104.842 18.3966 104.978 18.5392 105.183 18.6184C105.397 18.6977 105.73 18.7372 106.182 18.7372C106.348 18.7372 106.467 18.7848 106.538 18.8798C106.618 18.9669 106.657 19.0739 106.657 19.2007C106.657 19.3274 106.601 19.4463 106.49 19.5571C106.38 19.6602 106.237 19.7116 106.063 19.7116ZM106.063 19.7116L106.182 18.7372C106.435 18.7372 106.641 18.7214 106.799 18.6897C106.958 18.6501 107.088 18.559 107.192 18.4164C107.302 18.2659 107.405 18.0322 107.5 17.7153C107.596 17.3984 107.706 16.9548 107.833 16.3845L108.724 16.634C108.677 16.8399 108.621 17.0816 108.558 17.3588C108.495 17.6361 108.463 17.8856 108.463 18.1075C108.463 18.3055 108.538 18.46 108.689 18.5709C108.84 18.6818 109.113 18.7372 109.509 18.7372C109.746 18.7372 109.94 18.7174 110.091 18.6778C110.242 18.6382 110.364 18.5432 110.459 18.3926C110.563 18.2421 110.653 18.0044 110.733 17.6797C110.812 17.347 110.895 16.8875 110.982 16.3013L111.885 16.4676C111.861 16.6102 111.829 16.7845 111.79 16.9905C111.758 17.1964 111.731 17.4024 111.707 17.6084C111.683 17.8065 111.671 17.9728 111.671 18.1075C111.671 18.2183 111.695 18.3253 111.743 18.4283C111.798 18.5233 111.901 18.5986 112.052 18.6541C112.21 18.7095 112.444 18.7372 112.753 18.7372C113.094 18.7372 113.367 18.6699 113.573 18.5352C113.778 18.4006 113.881 18.1273 113.881 17.7153C113.881 17.4222 113.81 17.046 113.668 16.5865C113.533 16.127 113.379 15.6715 113.204 15.22L114.167 14.8635C114.262 15.1249 114.357 15.418 114.452 15.7428C114.547 16.0597 114.626 16.3765 114.69 16.6934C114.753 17.0103 114.785 17.2876 114.785 17.5252C114.785 18.2619 114.603 18.8125 114.238 19.1769C113.873 19.5334 113.374 19.7116 112.741 19.7116C112.305 19.7116 111.96 19.6561 111.707 19.5453C111.461 19.4264 111.283 19.2443 111.172 18.9987C110.982 19.2918 110.753 19.4858 110.483 19.5809C110.222 19.668 109.85 19.7116 109.366 19.7116C109.2 19.7116 109.021 19.6918 108.831 19.6522C108.649 19.6126 108.479 19.5373 108.32 19.4264C108.162 19.3076 108.039 19.1333 107.952 18.9036C107.746 19.2521 107.489 19.474 107.18 19.569C106.879 19.6641 106.506 19.7116 106.063 19.7116ZM111.184 13.1761C111.018 13.1761 110.875 13.1207 110.756 13.0098C110.646 12.891 110.59 12.7523 110.59 12.5939C110.59 12.4355 110.646 12.2968 110.756 12.178C110.875 12.0592 111.018 11.9998 111.184 11.9998C111.342 11.9998 111.478 12.0592 111.588 12.178C111.707 12.2968 111.766 12.4355 111.766 12.5939C111.766 12.7523 111.707 12.891 111.588 13.0098C111.478 13.1207 111.342 13.1761 111.184 13.1761ZM110.376 14.4832C110.21 14.4832 110.067 14.4278 109.948 14.3169C109.838 14.1981 109.782 14.0594 109.782 13.901C109.782 13.7426 109.838 13.6039 109.948 13.4851C110.067 13.3663 110.21 13.3069 110.376 13.3069C110.534 13.3069 110.67 13.3663 110.78 13.4851C110.899 13.6039 110.958 13.7426 110.958 13.901C110.958 14.0594 110.899 14.1981 110.78 14.3169C110.67 14.4278 110.534 14.4832 110.376 14.4832ZM111.992 14.4832C111.826 14.4832 111.683 14.4278 111.564 14.3169C111.454 14.1981 111.398 14.0594 111.398 13.901C111.398 13.7426 111.454 13.6039 111.564 13.4851C111.683 13.3663 111.826 13.3069 111.992 13.3069C112.15 13.3069 112.286 13.3663 112.396 13.4851C112.515 13.6039 112.574 13.7426 112.574 13.901C112.574 14.0594 112.515 14.1981 112.396 14.3169C112.286 14.4278 112.15 14.4832 111.992 14.4832ZM118.511 19.6641C118.511 19.3789 118.55 19.062 118.63 18.7135C118.709 18.3649 118.836 17.9807 119.01 17.5609L119.866 17.8936C119.739 18.2263 119.644 18.5313 119.581 18.8085C119.517 19.0858 119.486 19.3433 119.486 19.5809C119.486 20.0245 119.592 20.381 119.806 20.6503C120.028 20.9197 120.321 21.1177 120.686 21.2445C121.058 21.3713 121.465 21.4346 121.91 21.4346C122.63 21.4346 123.193 21.3356 123.597 21.1375C124.008 20.9395 124.298 20.678 124.464 20.3533C124.638 20.0364 124.726 19.6997 124.726 19.3433C124.726 18.8204 124.666 18.3412 124.548 17.9055C124.436 17.4619 124.314 17.0063 124.179 16.5389L125.142 16.2775C125.268 16.7291 125.356 17.0578 125.403 17.2638C125.451 17.4619 125.494 17.6242 125.534 17.751C125.621 18.0441 125.736 18.2619 125.878 18.4045C126.021 18.5392 126.183 18.6303 126.366 18.6778C126.548 18.7174 126.741 18.7372 126.948 18.7372C127.114 18.7372 127.233 18.7848 127.304 18.8798C127.383 18.9669 127.423 19.0739 127.423 19.2007C127.423 19.3274 127.367 19.4463 127.257 19.5571C127.145 19.6602 127.003 19.7116 126.829 19.7116C126.583 19.7116 126.366 19.6799 126.175 19.6166C125.993 19.5453 125.838 19.4582 125.712 19.3551C125.672 19.7433 125.581 20.1196 125.439 20.484C125.296 20.8484 125.078 21.1732 124.785 21.4584C124.5 21.7515 124.12 21.9812 123.644 22.1476C123.169 22.3219 122.579 22.409 121.874 22.409C121.28 22.409 120.725 22.31 120.21 22.1119C119.703 21.9138 119.291 21.6128 118.975 21.2088C118.666 20.8048 118.511 20.2899 118.511 19.6641ZM126.835 19.7116L126.953 18.7372C127.349 18.7372 127.658 18.7095 127.88 18.6541C128.101 18.5907 128.268 18.4758 128.379 18.3095C128.498 18.1352 128.593 17.8856 128.664 17.5609C128.736 17.2361 128.823 16.8122 128.926 16.2894L129.853 16.4676C129.805 16.6815 129.749 16.9271 129.686 17.2044C129.631 17.4816 129.603 17.7153 129.603 17.9055C129.603 18.0243 129.61 18.1352 129.627 18.2382C129.642 18.3412 129.702 18.4283 129.805 18.4996C129.908 18.5709 130.082 18.6303 130.328 18.6778C130.573 18.7174 130.926 18.7372 131.386 18.7372C131.552 18.7372 131.671 18.7848 131.742 18.8798C131.821 18.9669 131.861 19.0739 131.861 19.2007C131.861 19.3274 131.805 19.4463 131.695 19.5571C131.583 19.6602 131.44 19.7116 131.267 19.7116C130.751 19.7116 130.347 19.6839 130.055 19.6284C129.77 19.5651 129.556 19.4779 129.413 19.367C129.278 19.2482 129.179 19.1017 129.116 18.9274C128.886 19.2521 128.6 19.466 128.26 19.569C127.928 19.6641 127.452 19.7116 126.835 19.7116ZM129.829 21.9574C129.663 21.9574 129.52 21.898 129.401 21.7792C129.29 21.6683 129.235 21.5336 129.235 21.3752C129.235 21.2168 129.29 21.0781 129.401 20.9593C129.52 20.8405 129.663 20.7811 129.829 20.7811C129.987 20.7811 130.121 20.8405 130.233 20.9593C130.352 21.0781 130.411 21.2168 130.411 21.3752C130.411 21.5336 130.352 21.6683 130.233 21.7792C130.121 21.898 129.987 21.9574 129.829 21.9574ZM128.201 21.9574C128.035 21.9574 127.892 21.898 127.773 21.7792C127.662 21.6683 127.607 21.5336 127.607 21.3752C127.607 21.2168 127.662 21.0781 127.773 20.9593C127.892 20.8405 128.035 20.7811 128.201 20.7811C128.359 20.7811 128.494 20.8405 128.605 20.9593C128.724 21.0781 128.783 21.2168 128.783 21.3752C128.783 21.5336 128.724 21.6683 128.605 21.7792C128.494 21.898 128.359 21.9574 128.201 21.9574ZM131.267 19.7116L131.386 18.7372C131.608 18.7372 131.794 18.6897 131.944 18.5946C132.095 18.4996 132.241 18.3451 132.384 18.1312C132.526 17.9094 132.681 17.6084 132.847 17.2281C133.078 16.7211 133.303 16.3369 133.524 16.0755C133.755 15.8141 133.981 15.6359 134.202 15.5408C134.432 15.4457 134.658 15.3982 134.879 15.3982C135.149 15.3982 135.398 15.4695 135.628 15.6121C135.858 15.7467 136.06 15.929 136.234 16.1587C136.408 16.3884 136.543 16.642 136.638 16.9192C136.741 17.1886 136.792 17.4578 136.792 17.7272C136.792 18.2025 136.709 18.5828 136.543 18.8679C136.376 19.1452 136.162 19.3472 135.901 19.474C135.648 19.5928 135.383 19.6522 135.105 19.6522C134.875 19.6522 134.582 19.6126 134.226 19.5334C133.877 19.4541 133.438 19.2482 132.907 18.9155C132.653 19.2799 132.4 19.5057 132.146 19.5928C131.893 19.672 131.599 19.7116 131.267 19.7116ZM133.489 17.8579C133.441 17.9609 133.398 18.0599 133.358 18.155C133.699 18.3531 134.008 18.4916 134.285 18.5709C134.57 18.6422 134.808 18.6778 134.998 18.6778C135.339 18.6778 135.58 18.6026 135.723 18.4521C135.865 18.3015 135.937 18.1035 135.937 17.8579C135.937 17.6282 135.882 17.3984 135.77 17.1687C135.66 16.939 135.517 16.7489 135.343 16.5984C135.176 16.4478 134.998 16.3726 134.808 16.3726C134.665 16.3726 134.527 16.4122 134.392 16.4914C134.258 16.5707 134.119 16.7172 133.976 16.9311C133.833 17.145 133.672 17.4539 133.489 17.8579Z" fill="white"/>
<path d="M69.1292 38.26C67.2852 38.26 65.8919 38.0217 64.9492 37.5452C64.0065 37.0583 63.5352 36.2451 63.5352 35.1056C63.5352 34.7223 63.5818 34.3183 63.675 33.8935C63.7682 33.4584 63.8667 33.0492 63.9702 32.666L65.1357 32.9612C65.0735 33.1891 65.001 33.4792 64.9181 33.8314C64.8456 34.1836 64.8093 34.4892 64.8093 34.7482C64.8093 35.2868 64.944 35.7219 65.2134 36.0534C65.4931 36.3745 65.9748 36.6128 66.6585 36.7682C67.3422 36.9133 68.3004 36.9858 69.5332 36.9858C70.1651 36.9858 70.8332 36.9495 71.5377 36.877C72.2421 36.7941 72.9414 36.6542 73.6354 36.4574C74.3399 36.2502 75.0081 35.9757 75.64 35.6339C76.2718 35.2817 76.8261 34.8311 77.3026 34.282L78.2816 34.8569C78.1883 35.0952 78.1262 35.2868 78.0951 35.4319C78.064 35.5665 78.0485 35.6908 78.0485 35.8048C78.0485 35.9602 78.1054 36.1104 78.2194 36.2554C78.3334 36.4005 78.5457 36.5196 78.8565 36.6128C79.1673 36.6957 79.6179 36.7371 80.2084 36.7371C80.4259 36.7371 80.5813 36.7993 80.6746 36.9236C80.7781 37.0376 80.8299 37.1774 80.8299 37.3432C80.8299 37.5089 80.7575 37.6643 80.6124 37.8093C80.4673 37.944 80.2809 38.0113 80.053 38.0113C79.1414 38.0113 78.3903 37.8767 77.7999 37.6073C77.2197 37.338 76.9245 36.8977 76.9141 36.2865C76.0543 36.9495 74.9407 37.4467 73.5733 37.7783C72.2059 38.0994 70.7244 38.26 69.1292 38.26ZM70.6986 31.2675C70.5121 31.2675 70.2894 31.2622 70.0304 31.2519C69.7818 31.2312 69.5435 31.2105 69.3156 31.1898C69.0877 31.169 68.9168 31.1535 68.8028 31.1431L68.8339 30.2419C68.8961 30.2522 68.9634 30.2626 69.0359 30.273C69.1084 30.273 69.1861 30.2782 69.269 30.2885C69.3726 30.102 69.4865 29.9259 69.6109 29.7602L69.5332 27.2429H70.3878L70.4655 28.89C70.652 28.7554 70.8436 28.6517 71.0404 28.5792C71.2477 28.4963 71.4548 28.4549 71.662 28.4549C72.0453 28.4549 72.3509 28.574 72.5788 28.8123C72.8171 29.0506 72.9362 29.3458 72.9362 29.698C72.9362 29.9052 72.874 30.1331 72.7497 30.3817C72.6357 30.62 72.4182 30.8272 72.0971 31.0033C71.776 31.1794 71.3098 31.2675 70.6986 31.2675ZM71.5377 29.3717C71.3512 29.3717 71.17 29.4287 70.9938 29.5426C70.8177 29.6566 70.652 29.7913 70.4966 29.9466C70.3515 30.102 70.2376 30.2367 70.1547 30.3507C70.3204 30.361 70.4655 30.3662 70.5898 30.3662C71.0974 30.3662 71.4652 30.3144 71.6931 30.2108C71.9209 30.0968 72.0349 29.9519 72.0349 29.7757C72.0349 29.6411 71.9883 29.5426 71.8951 29.4805C71.8018 29.408 71.6827 29.3717 71.5377 29.3717ZM80.0494 38.0113L80.1893 36.7371C80.7798 36.7371 81.1942 36.6802 81.4324 36.5662C81.6707 36.4522 81.8053 36.2554 81.8364 35.9757C81.8779 35.6857 81.8882 35.2765 81.8675 34.7482L81.5722 26.8389H82.8309L83.1417 34.6083C83.1728 35.3439 83.121 35.9654 82.9863 36.473C82.862 36.9806 82.5719 37.3639 82.1161 37.6229C81.6707 37.8818 80.9818 38.0113 80.0494 38.0113ZM85.5156 37.9336L85.2048 26.8389H86.4634L86.7742 37.9336H85.5156ZM88.6898 41.5076L88.4101 40.2334C89.0731 40.1505 89.674 40.0262 90.2126 39.8605C90.7513 39.6947 91.2123 39.4565 91.5957 39.1457C91.9786 38.8349 92.2638 38.4206 92.4503 37.9026C92.2638 37.9544 92.0673 37.9906 91.8598 38.0113C91.6523 38.0424 91.4503 38.058 91.2537 38.058C90.4561 38.058 89.8449 37.8974 89.4201 37.5762C88.9955 37.2551 88.783 36.7579 88.783 36.0845C88.783 35.6908 88.8452 35.2972 88.9695 34.9036C89.0938 34.4995 89.2699 34.1318 89.4978 33.8003C89.7258 33.4688 90.0003 33.2046 90.3214 33.0078C90.6426 32.8006 91 32.697 91.3936 32.697C91.953 32.697 92.4137 32.8835 92.7766 33.2564C93.1495 33.619 93.4238 34.0903 93.6002 34.6705C93.7866 35.2506 93.8799 35.867 93.8799 36.5196C93.8799 37.9699 93.4393 39.1146 92.5591 39.9537C91.6889 40.7928 90.3991 41.3108 88.6898 41.5076ZM90.0106 35.7737C90.0106 36.0948 90.1143 36.3539 90.3214 36.5507C90.5286 36.7371 90.886 36.8304 91.3936 36.8304C91.8388 36.8304 92.2638 36.7682 92.6678 36.6439C92.6678 36.5818 92.6678 36.5093 92.6678 36.4264C92.6678 36.0016 92.6112 35.6028 92.4969 35.2299C92.3827 34.8466 92.2227 34.541 92.0152 34.3131C91.8077 34.0852 91.5591 33.9712 91.2692 33.9712C91.0206 33.9712 90.8031 34.0645 90.6166 34.2509C90.4301 34.4271 90.28 34.6549 90.166 34.9346C90.0624 35.2143 90.0106 35.494 90.0106 35.7737Z" fill="white"/>
<path d="M108.901 38.1817C108.103 38.1817 107.353 38.0366 106.648 37.7466C105.943 37.4566 105.322 37.0526 104.783 36.5346C104.255 36.0062 103.836 35.3899 103.525 34.6854C103.224 33.9706 103.074 33.1989 103.074 32.3701C103.074 31.5414 103.224 30.7748 103.525 30.0704C103.836 29.3556 104.255 28.7392 104.783 28.2213C105.322 27.6929 105.943 27.2837 106.648 26.9937C107.353 26.7037 108.103 26.5586 108.901 26.5586C109.75 26.5586 110.533 26.7088 111.248 27.0092C111.973 27.3097 112.579 27.7292 113.066 28.2679L111.885 29.4333C111.646 29.1639 111.372 28.936 111.061 28.7496C110.76 28.5631 110.43 28.4233 110.067 28.33C109.704 28.2265 109.315 28.1746 108.901 28.1746C108.352 28.1746 107.829 28.2731 107.332 28.4699C106.835 28.6667 106.394 28.9516 106.011 29.3245C105.638 29.6871 105.343 30.1273 105.125 30.6453C104.908 31.1529 104.799 31.7278 104.799 32.3701C104.799 33.0124 104.908 33.5925 105.125 34.1105C105.353 34.6181 105.654 35.0584 106.027 35.4313C106.41 35.7939 106.85 36.0736 107.347 36.2704C107.845 36.4672 108.367 36.5656 108.917 36.5656C109.424 36.5656 109.896 36.4932 110.331 36.3481C110.776 36.203 111.164 35.9959 111.496 35.7265C111.828 35.4572 112.097 35.1309 112.304 34.7476C112.512 34.3539 112.641 33.9137 112.693 33.4268H108.886V31.9195H114.293C114.314 32.0438 114.334 32.1889 114.355 32.3546C114.376 32.51 114.387 32.6602 114.387 32.8052V32.8208C114.387 33.6185 114.247 34.3488 113.967 35.0118C113.697 35.6747 113.32 36.2445 112.833 36.721C112.345 37.1872 111.766 37.5498 111.092 37.8088C110.43 38.0574 109.699 38.1817 108.901 38.1817ZM119.39 38.1817C118.572 38.1817 117.852 37.9952 117.23 37.6223C116.609 37.2494 116.121 36.7469 115.769 36.115C115.418 35.4727 115.241 34.7579 115.241 33.9706C115.241 33.1834 115.418 32.4737 115.769 31.8418C116.121 31.1995 116.609 30.6919 117.23 30.319C117.852 29.9461 118.572 29.7596 119.39 29.7596C120.198 29.7596 120.913 29.9513 121.534 30.3345C122.156 30.7075 122.643 31.2099 122.995 31.8418C123.347 32.4737 123.523 33.1834 123.523 33.9706C123.523 34.7579 123.347 35.4727 122.995 36.115C122.643 36.7469 122.156 37.2494 121.534 37.6223C120.913 37.9952 120.198 38.1817 119.39 38.1817ZM119.39 36.6433C119.825 36.6433 120.229 36.5398 120.602 36.3326C120.975 36.115 121.276 35.8094 121.503 35.4158C121.742 35.0118 121.861 34.53 121.861 33.9706C121.861 33.4112 121.742 32.9348 121.503 32.5411C121.276 32.1371 120.975 31.8315 120.602 31.6243C120.229 31.4067 119.825 31.298 119.39 31.298C118.955 31.298 118.545 31.4067 118.162 31.6243C117.79 31.8315 117.484 32.1371 117.246 32.5411C117.018 32.9348 116.904 33.4112 116.904 33.9706C116.904 34.53 117.018 35.0118 117.246 35.4158C117.484 35.8094 117.795 36.115 118.178 36.3326C118.561 36.5398 118.965 36.6433 119.39 36.6433ZM128.798 38.1817C127.98 38.1817 127.26 37.9952 126.638 37.6223C126.017 37.2494 125.53 36.7469 125.178 36.115C124.826 35.4727 124.65 34.7579 124.65 33.9706C124.65 33.1834 124.826 32.4737 125.178 31.8418C125.53 31.1995 126.017 30.6919 126.638 30.319C127.26 29.9461 127.98 29.7596 128.798 29.7596C129.606 29.7596 130.321 29.9513 130.943 30.3345C131.564 30.7075 132.052 31.2099 132.403 31.8418C132.755 32.4737 132.932 33.1834 132.932 33.9706C132.932 34.7579 132.755 35.4727 132.403 36.115C132.052 36.7469 131.564 37.2494 130.943 37.6223C130.321 37.9952 129.606 38.1817 128.798 38.1817ZM128.798 36.6433C129.233 36.6433 129.637 36.5398 130.01 36.3326C130.383 36.115 130.684 35.8094 130.912 35.4158C131.15 35.0118 131.269 34.53 131.269 33.9706C131.269 33.4112 131.15 32.9348 130.912 32.5411C130.684 32.1371 130.383 31.8315 130.01 31.6243C129.637 31.4067 129.233 31.298 128.798 31.298C128.363 31.298 127.954 31.4067 127.571 31.6243C127.198 31.8315 126.893 32.1371 126.654 32.5411C126.426 32.9348 126.312 33.4112 126.312 33.9706C126.312 34.53 126.426 35.0118 126.654 35.4158C126.893 35.8094 127.203 36.115 127.586 36.3326C127.969 36.5398 128.373 36.6433 128.798 36.6433ZM138.051 41.5381C137.357 41.5381 136.756 41.4241 136.249 41.1962C135.752 40.9787 135.348 40.6938 135.037 40.3416C134.726 39.9997 134.503 39.6476 134.369 39.2849L135.923 38.6323C136.088 39.0467 136.352 39.3834 136.715 39.6423C137.088 39.9117 137.533 40.0464 138.051 40.0464C138.786 40.0464 139.361 39.8288 139.776 39.3937C140.19 38.9586 140.398 38.3423 140.398 37.5446V36.7832H140.304C140.056 37.1458 139.714 37.441 139.279 37.6689C138.844 37.8968 138.341 38.0108 137.772 38.0108C137.098 38.0108 136.476 37.8398 135.907 37.498C135.348 37.1561 134.897 36.6796 134.555 36.0684C134.223 35.4468 134.058 34.7217 134.058 33.893C134.058 33.0539 134.223 32.3287 134.555 31.7175C134.897 31.096 135.348 30.6142 135.907 30.2724C136.476 29.9305 137.098 29.7596 137.772 29.7596C138.341 29.7596 138.844 29.8736 139.279 30.1015C139.714 30.319 140.056 30.6195 140.304 31.0027H140.398V30.0082H141.998V37.5135C141.998 38.3734 141.827 39.1037 141.485 39.7045C141.154 40.3053 140.693 40.7611 140.102 41.0719C139.512 41.3827 138.828 41.5381 138.051 41.5381ZM138.067 36.4879C138.481 36.4879 138.864 36.3895 139.217 36.1927C139.579 35.9855 139.864 35.6903 140.071 35.307C140.289 34.9133 140.398 34.442 140.398 33.893C140.398 33.3128 140.289 32.8311 140.071 32.4478C139.864 32.0646 139.579 31.7745 139.217 31.5777C138.864 31.3809 138.481 31.2824 138.067 31.2824C137.652 31.2824 137.263 31.3809 136.901 31.5777C136.549 31.7745 136.264 32.0697 136.047 32.4634C135.829 32.8466 135.721 33.3232 135.721 33.893C135.721 34.4524 135.829 34.9288 136.047 35.3225C136.264 35.7058 136.549 35.9959 136.901 36.1927C137.263 36.3895 137.652 36.4879 138.067 36.4879ZM143.977 37.9331V26.8072H145.655V37.9331H143.977ZM151.178 38.1817C150.401 38.1817 149.707 38.0004 149.096 37.6378C148.485 37.2752 148.004 36.778 147.651 36.1461C147.309 35.5142 147.138 34.7942 147.138 33.9862C147.138 33.23 147.304 32.5307 147.635 31.8884C147.967 31.2461 148.428 30.7333 149.018 30.3501C149.62 29.9564 150.308 29.7596 151.085 29.7596C151.904 29.7596 152.598 29.9357 153.167 30.2879C153.747 30.6401 154.188 31.1218 154.488 31.733C154.789 32.3443 154.938 33.0331 154.938 33.7997C154.938 33.9137 154.934 34.0173 154.923 34.1105C154.923 34.2037 154.918 34.2762 154.907 34.328H148.785C148.827 34.7631 148.936 35.1413 149.111 35.4624C149.34 35.8664 149.64 36.172 150.013 36.3792C150.386 36.5864 150.79 36.69 151.225 36.69C151.753 36.69 152.194 36.5709 152.545 36.3326C152.908 36.0839 153.194 35.7784 153.4 35.4158L154.783 36.0839C154.441 36.7055 153.975 37.2131 153.385 37.6067C152.794 37.99 152.059 38.1817 151.178 38.1817ZM148.878 33.0694H153.276C153.266 32.8726 153.214 32.6654 153.12 32.4478C153.027 32.22 152.893 32.0127 152.716 31.8263C152.541 31.6398 152.318 31.4896 152.048 31.3757C151.78 31.2513 151.463 31.1892 151.1 31.1892C150.645 31.1892 150.241 31.3083 149.888 31.5466C149.536 31.7745 149.262 32.0957 149.065 32.51C148.983 32.6861 148.92 32.8726 148.878 33.0694Z" fill="white"/>
</g>
<defs>
<clipPath id="clip0_568_996">
<rect width="173.67" height="50.2729" fill="white"/>
</clipPath>
</defs>
</svg>
