<svg width="174" height="28" viewBox="0 0 174 28" fill="none" xmlns="http://www.w3.org/2000/svg">
<g clip-path="url(#clip0_568_915)">
<path d="M159.753 0.27832H13.9149C6.38308 0.27832 0.277344 6.38406 0.277344 13.9159C0.277344 21.4477 6.38308 27.5534 13.9149 27.5534H159.753C167.285 27.5534 173.391 21.4477 173.391 13.9159C173.391 6.38406 167.285 0.27832 159.753 0.27832Z" fill="#1F1F1F"/>
<path d="M28.3865 12.246H11.6875V9.46286C11.6875 7.95199 12.9131 6.67969 14.3685 6.67969H25.7055C27.1609 6.67969 28.3865 7.95199 28.3865 9.46286V12.246Z" fill="#34A853"/>
<path d="M28.3865 14.5029H11.6875V11.7197C11.6875 10.2088 12.9131 8.93652 14.3685 8.93652H25.7055C27.1609 8.93652 28.3865 10.2088 28.3865 11.7197V14.5029Z" fill="#FBBC04"/>
<path d="M28.3865 16.8369H11.6875V14.0537C11.6875 12.5428 12.9131 11.2705 14.3685 11.2705H25.7055C27.1609 11.2705 28.3865 12.5428 28.3865 14.0537V16.8369Z" fill="#EA4335"/>
<path d="M11.6875 12.9559L22.2864 15.4072C23.5065 15.7136 24.879 15.4072 25.8703 14.6412L28.3865 12.8027V18.5478C28.3865 20.0032 27.1665 21.1523 25.7178 21.1523H14.3563C12.9075 21.1523 11.6875 20.0032 11.6875 18.5478V12.9559Z" fill="url(#paint0_linear_568_915)"/>
<path d="M35.4805 19.5046V16.6546H36.1818C36.3525 16.3726 36.4898 16.0089 36.5937 15.5636C36.7051 15.1109 36.783 14.6136 36.8275 14.0718C36.8795 13.5301 36.9055 12.9846 36.9055 12.4353V9.8414H42.0154V16.6546H42.9505V19.5046H41.7593V17.8124H36.6717V19.5046H35.4805ZM37.5178 16.6546H40.7908V10.9992H38.0967V12.6134C38.0967 13.4224 38.0447 14.1683 37.9408 14.8511C37.8443 15.5339 37.7033 16.1128 37.5178 16.5878V16.6546ZM46.6173 17.9905C46.031 17.9905 45.5152 17.8569 45.0699 17.5898C44.6246 17.3226 44.2757 16.9626 44.0234 16.5099C43.7711 16.0572 43.6449 15.5451 43.6449 14.9736C43.6449 14.4095 43.7711 13.9011 44.0234 13.4484C44.2757 12.9882 44.6246 12.6246 45.0699 12.3574C45.5152 12.0902 46.031 11.9566 46.6173 11.9566C47.1962 11.9566 47.7083 12.0902 48.1536 12.3574C48.599 12.6246 48.9478 12.9882 49.2001 13.4484C49.4524 13.9011 49.5786 14.4095 49.5786 14.9736C49.5786 15.5451 49.4524 16.0572 49.2001 16.5099C48.9478 16.9626 48.599 17.3226 48.1536 17.5898C47.7083 17.8569 47.1962 17.9905 46.6173 17.9905ZM46.6173 16.8884C46.929 16.8884 47.2185 16.8142 47.4857 16.6657C47.7529 16.5099 47.9681 16.291 48.1314 16.0089C48.3021 15.7195 48.3874 15.3744 48.3874 14.9736C48.3874 14.5728 48.3021 14.2314 48.1314 13.9494C47.9681 13.6599 47.7529 13.441 47.4857 13.2925C47.2185 13.1367 46.929 13.0588 46.6173 13.0588C46.3056 13.0588 46.0124 13.1367 45.7379 13.2925C45.4707 13.441 45.2517 13.6599 45.081 13.9494C44.9178 14.2314 44.8361 14.5728 44.8361 14.9736C44.8361 15.3744 44.9178 15.7195 45.081 16.0089C45.2517 16.291 45.4707 16.5099 45.7379 16.6657C46.0124 16.8142 46.3056 16.8884 46.6173 16.8884ZM50.0018 19.5046V16.7659H50.6252C50.7439 16.6249 50.8479 16.4246 50.9369 16.1648C51.0334 15.8976 51.1076 15.597 51.1596 15.263C51.2189 14.929 51.2486 14.5913 51.2486 14.25V12.1347H55.5013V16.7659H56.3253V19.5046H55.223V17.8124H51.1151V19.5046H50.0018ZM51.9166 16.7659H54.3101V13.1812H52.3842V14.3501C52.3842 14.8697 52.3471 15.3187 52.2729 15.6972C52.1986 16.0683 52.0799 16.4023 51.9166 16.6991V16.7659ZM59.1753 17.9905C58.7667 17.9905 58.4032 17.9126 58.0843 17.7567C57.7648 17.5935 57.5165 17.3671 57.3384 17.0777C57.1603 16.7882 57.0712 16.458 57.0712 16.0868C57.0712 15.6861 57.1747 15.3447 57.3829 15.0626C57.5978 14.7732 57.8839 14.5543 58.2401 14.4058C58.5964 14.2574 58.9894 14.1832 59.4202 14.1832C59.7765 14.1832 60.0882 14.2166 60.3554 14.2833C60.6298 14.3501 60.8374 14.4207 60.9788 14.4949V14.1943C60.9788 13.8232 60.8452 13.5263 60.578 13.3037C60.3108 13.081 59.9657 12.9697 59.5427 12.9697C59.2532 12.9697 58.9782 13.0365 58.7188 13.1701C58.4589 13.2963 58.2513 13.4707 58.0954 13.6933L57.2716 13.0588C57.5165 12.7174 57.8394 12.4502 58.2401 12.2572C58.6482 12.0568 59.0935 11.9566 59.5761 11.9566C60.3999 11.9566 61.0344 12.1607 61.4798 12.5689C61.9251 12.9697 62.1477 13.5337 62.1477 14.2611V17.8124H60.9788V17.1111H60.912C60.7634 17.3411 60.5407 17.5452 60.244 17.7234C59.9468 17.9015 59.5905 17.9905 59.1753 17.9905ZM59.3868 17.0109C59.6985 17.0109 59.9729 16.9367 60.2106 16.7882C60.4478 16.6397 60.6337 16.4468 60.7673 16.2093C60.9081 15.9644 60.9788 15.7009 60.9788 15.4189C60.8079 15.3224 60.6075 15.2445 60.3776 15.1851C60.1472 15.1183 59.9023 15.0849 59.6429 15.0849C59.153 15.0849 58.804 15.1851 58.5964 15.3855C58.3882 15.5785 58.2847 15.8159 58.2847 16.098C58.2847 16.3652 58.3849 16.5841 58.5853 16.7548C58.7856 16.9255 59.0528 17.0109 59.3868 17.0109ZM64.1616 11.2998C63.939 11.2998 63.7458 11.2219 63.5827 11.066C63.4269 10.9027 63.3489 10.7098 63.3489 10.4871C63.3489 10.2644 63.4269 10.0752 63.5827 9.91933C63.7458 9.76348 63.939 9.68555 64.1616 9.68555C64.3843 9.68555 64.5735 9.76348 64.7294 9.91933C64.8925 10.0752 64.9743 10.2644 64.9743 10.4871C64.9743 10.7098 64.8925 10.9027 64.7294 11.066C64.5735 11.2219 64.3843 11.2998 64.1616 11.2998ZM63.0817 20.3284C62.8513 20.3284 62.6437 20.3024 62.4583 20.2505V19.0927C62.5324 19.1372 62.6175 19.1706 62.7144 19.1929C62.8034 19.2225 62.8925 19.2374 62.9816 19.2374C63.1964 19.2374 63.345 19.1706 63.4269 19.037C63.5159 18.9108 63.5605 18.7253 63.5605 18.4804V12.1347H64.7628V18.4915C64.7628 19.1446 64.603 19.6122 64.2841 19.8942C63.9646 20.1837 63.5638 20.3284 63.0817 20.3284ZM67.7018 17.8124V13.1812H65.8315V12.1347H70.7633V13.1812H68.893V17.8124H67.7018ZM74.3386 17.9905C73.7819 17.9905 73.2849 17.8607 72.8468 17.6009C72.4087 17.3411 72.0636 16.9849 71.8115 16.5322C71.5665 16.0794 71.4441 15.5636 71.4441 14.9847C71.4441 14.4429 71.5626 13.942 71.8003 13.4818C72.038 13.0216 72.3681 12.6542 72.7911 12.3797C73.2214 12.0976 73.7151 11.9566 74.2718 11.9566C74.8579 11.9566 75.3555 12.0828 75.7636 12.3351C76.1794 12.5874 76.4944 12.9326 76.7098 13.3705C76.9253 13.8084 77.0327 14.3019 77.0327 14.8511C77.0327 14.9328 77.0288 15.007 77.0216 15.0738C77.0216 15.1406 77.0177 15.1925 77.0104 15.2296H72.6241C72.6837 15.7937 72.8802 16.2167 73.2142 16.4988C73.5554 16.7808 73.9417 16.9218 74.372 16.9218C74.7577 16.9218 75.0772 16.8365 75.3294 16.6657C75.5815 16.4876 75.7819 16.2687 75.9305 16.0089L76.9214 16.4876C76.6764 16.9329 76.3425 17.2966 75.9194 17.5786C75.4964 17.8532 74.9692 17.9905 74.3386 17.9905ZM74.2829 12.9808C73.8821 12.9808 73.5409 13.1033 73.2587 13.3482C72.9765 13.5931 72.7872 13.9197 72.6909 14.3279H75.8415C75.8265 14.1349 75.7636 13.9345 75.6522 13.7267C75.5409 13.5189 75.37 13.3445 75.1401 13.2035C74.9175 13.055 74.6319 12.9808 74.2829 12.9808ZM82.6836 19.9388C82.6614 19.9981 82.6352 20.0538 82.6057 20.1057C82.5834 20.1577 82.5684 20.1948 82.5612 20.2171H81.2809C81.3177 20.1354 81.37 20.0167 81.4368 19.8608C81.5108 19.7124 81.5815 19.5676 81.6483 19.4267C81.7151 19.2857 81.7852 19.1261 81.8598 18.9479C81.9411 18.7698 82.0229 18.5954 82.1047 18.4247L82.5278 17.5007L80.1565 12.1347H81.4924L83.1178 16.0089H83.1735L84.7432 12.1347H86.068L83.1289 18.9034C83.0471 19.0964 82.9581 19.2968 82.8618 19.5046C82.7727 19.7198 82.7131 19.8646 82.6836 19.9388Z" fill="white"/>
<path d="M93.7373 17.9903C93.1656 17.9903 92.6279 17.8864 92.123 17.6786C91.6259 17.4708 91.184 17.1814 90.7982 16.8103C90.4125 16.4318 90.108 15.9902 89.8853 15.4855C89.6699 14.9734 89.5625 14.4205 89.5625 13.8267C89.5625 13.233 89.6699 12.6838 89.8853 12.1791C90.108 11.667 90.4086 11.2254 90.7871 10.8543C91.1729 10.4758 91.6182 10.1826 92.123 9.9748C92.6279 9.76701 93.1656 9.66309 93.7373 9.66309C94.3457 9.66309 94.9062 9.77068 95.4183 9.98593C95.9376 10.2012 96.3718 10.5018 96.7208 10.8877L95.8747 11.7226C95.6148 11.4332 95.3031 11.2105 94.9396 11.0547C94.5833 10.8988 94.1826 10.8209 93.7373 10.8209C93.2101 10.8209 92.7242 10.9471 92.2789 11.1994C91.8336 11.4443 91.4734 11.7932 91.199 12.2459C90.9318 12.6912 90.7982 13.2181 90.7982 13.8267C90.7982 14.4353 90.9357 14.966 91.2101 15.4187C91.4846 15.864 91.8447 16.2128 92.29 16.4652C92.7353 16.7101 93.2213 16.8325 93.7484 16.8325C94.231 16.8325 94.6685 16.7435 95.0621 16.5654C95.4556 16.3798 95.7706 16.12 96.0083 15.7861C96.2532 15.4521 96.4019 15.0513 96.4536 14.5837H93.7261V13.5039H97.6003C97.6448 13.7043 97.6671 13.9158 97.6671 14.1384V14.1496C97.6671 14.9214 97.4962 15.5968 97.155 16.1757C96.821 16.7472 96.3573 17.1925 95.7634 17.5116C95.1695 17.8308 94.4943 17.9903 93.7373 17.9903ZM101.252 17.9903C100.666 17.9903 100.15 17.8567 99.7044 17.5896C99.2591 17.3224 98.9101 16.9624 98.6579 16.5097C98.4058 16.057 98.2794 15.5449 98.2794 14.9734C98.2794 14.4093 98.4058 13.9009 98.6579 13.4482C98.9101 12.988 99.2591 12.6244 99.7044 12.3572C100.15 12.09 100.666 11.9564 101.252 11.9564C101.831 11.9564 102.343 12.09 102.788 12.3572C103.233 12.6244 103.582 12.988 103.835 13.4482C104.087 13.9009 104.213 14.4093 104.213 14.9734C104.213 15.5449 104.087 16.057 103.835 16.5097C103.582 16.9624 103.233 17.3224 102.788 17.5896C102.343 17.8567 101.831 17.9903 101.252 17.9903ZM101.252 16.8882C101.564 16.8882 101.853 16.814 102.12 16.6655C102.387 16.5097 102.603 16.2908 102.766 16.0087C102.937 15.7193 103.022 15.3742 103.022 14.9734C103.022 14.5726 102.937 14.2312 102.766 13.9492C102.603 13.6597 102.387 13.4408 102.12 13.2923C101.853 13.1365 101.564 13.0586 101.252 13.0586C100.94 13.0586 100.647 13.1365 100.372 13.2923C100.105 13.4408 99.8864 13.6597 99.7155 13.9492C99.5524 14.2312 99.4706 14.5726 99.4706 14.9734C99.4706 15.3742 99.5524 15.7193 99.7155 16.0087C99.8864 16.2908 100.105 16.5097 100.372 16.6655C100.647 16.814 100.94 16.8882 101.252 16.8882ZM107.992 17.9903C107.406 17.9903 106.89 17.8567 106.445 17.5896C105.999 17.3224 105.651 16.9624 105.398 16.5097C105.146 16.057 105.02 15.5449 105.02 14.9734C105.02 14.4093 105.146 13.9009 105.398 13.4482C105.651 12.988 105.999 12.6244 106.445 12.3572C106.89 12.09 107.406 11.9564 107.992 11.9564C108.571 11.9564 109.083 12.09 109.528 12.3572C109.974 12.6244 110.323 12.988 110.575 13.4482C110.828 13.9009 110.953 14.4093 110.953 14.9734C110.953 15.5449 110.828 16.057 110.575 16.5097C110.323 16.9624 109.974 17.3224 109.528 17.5896C109.083 17.8567 108.571 17.9903 107.992 17.9903ZM107.992 16.8882C108.304 16.8882 108.593 16.814 108.86 16.6655C109.128 16.5097 109.343 16.2908 109.506 16.0087C109.677 15.7193 109.762 15.3742 109.762 14.9734C109.762 14.5726 109.677 14.2312 109.506 13.9492C109.343 13.6597 109.128 13.4408 108.86 13.2923C108.593 13.1365 108.304 13.0586 107.992 13.0586C107.68 13.0586 107.388 13.1365 107.113 13.2923C106.845 13.4408 106.627 13.6597 106.456 13.9492C106.293 14.2312 106.211 14.5726 106.211 14.9734C106.211 15.3742 106.293 15.7193 106.456 16.0087C106.627 16.2908 106.845 16.5097 107.113 16.6655C107.388 16.814 107.68 16.8882 107.992 16.8882ZM114.622 20.395C114.124 20.395 113.694 20.3133 113.33 20.1501C112.974 19.9942 112.685 19.7901 112.462 19.5378C112.239 19.2929 112.079 19.0405 111.983 18.7808L113.096 18.3132C113.215 18.61 113.404 18.8513 113.664 19.0368C113.931 19.2298 114.25 19.3263 114.622 19.3263C115.141 19.3263 115.549 19.1704 115.846 18.8587C116.15 18.547 116.303 18.1054 116.303 17.5339V16.9884H116.236C116.058 17.2556 115.809 17.4708 115.49 17.6341C115.178 17.79 114.822 17.8679 114.421 17.8679C113.939 17.8679 113.497 17.7454 113.096 17.5005C112.696 17.2556 112.373 16.9142 112.128 16.4763C111.883 16.031 111.761 15.5115 111.761 14.9177C111.761 14.3165 111.883 13.797 112.128 13.3591C112.373 12.9138 112.696 12.5687 113.096 12.3238C113.497 12.0789 113.939 11.9564 114.421 11.9564C114.822 11.9564 115.178 12.0381 115.49 12.2013C115.809 12.3646 116.058 12.5799 116.236 12.847H116.303V12.1345H117.449V17.5116C117.449 18.1277 117.327 18.6509 117.082 19.0813C116.844 19.5118 116.514 19.8384 116.091 20.061C115.668 20.2837 115.178 20.395 114.622 20.395ZM114.633 16.7769C114.929 16.7769 115.204 16.7063 115.457 16.5654C115.709 16.4169 115.913 16.2054 116.069 15.9308C116.225 15.6487 116.303 15.3111 116.303 14.9177C116.303 14.5095 116.225 14.1681 116.069 13.8935C115.913 13.6115 115.709 13.3999 115.457 13.2589C115.204 13.1179 114.929 13.0474 114.633 13.0474C114.336 13.0474 114.057 13.1216 113.798 13.2701C113.545 13.4111 113.341 13.6189 113.186 13.8935C113.03 14.1681 112.952 14.5095 112.952 14.9177C112.952 15.3185 113.03 15.6599 113.186 15.9419C113.341 16.2165 113.545 16.4244 113.798 16.5654C114.057 16.7063 114.336 16.7769 114.633 16.7769ZM118.867 17.8122V9.84121H120.069V17.8122H118.867ZM124.027 17.9903C123.47 17.9903 122.972 17.8605 122.535 17.6007C122.097 17.3409 121.752 16.9847 121.499 16.532C121.254 16.0792 121.132 15.5634 121.132 14.9845C121.132 14.4427 121.251 13.9418 121.488 13.4816C121.725 13.0214 122.056 12.654 122.479 12.3795C122.909 12.0974 123.403 11.9564 123.96 11.9564C124.546 11.9564 125.043 12.0826 125.452 12.3349C125.867 12.5873 126.182 12.9324 126.398 13.3703C126.613 13.8082 126.721 14.3017 126.721 14.8509C126.721 14.9326 126.717 15.0068 126.71 15.0736C126.71 15.1404 126.706 15.1923 126.698 15.2294H122.312C122.371 15.7935 122.568 16.2165 122.902 16.4986C123.243 16.7806 123.629 16.9216 124.06 16.9216C124.446 16.9216 124.765 16.8363 125.017 16.6655C125.27 16.4874 125.47 16.2685 125.619 16.0087L126.609 16.4874C126.364 16.9327 126.03 17.2964 125.607 17.5784C125.184 17.853 124.657 17.9903 124.027 17.9903ZM123.971 12.9806C123.57 12.9806 123.228 13.1031 122.947 13.348C122.664 13.5929 122.475 13.9195 122.379 14.3277H125.529C125.514 14.1347 125.452 13.9343 125.34 13.7265C125.229 13.5187 125.058 13.3443 124.828 13.2033C124.605 13.0548 124.319 12.9806 123.971 12.9806ZM131.614 17.8122L129.477 9.84121H130.835L132.104 15.0179L132.237 15.7081H132.304L132.471 15.0179L134.074 9.84121H135.299L136.835 15.0179L137.002 15.697H137.069L137.203 15.0179L138.472 9.84121H139.819L137.715 17.8122H136.423L134.898 12.5242L134.72 11.7783H134.653L134.464 12.5242L132.872 17.8122H131.614ZM142.054 17.9903C141.646 17.9903 141.283 17.9124 140.963 17.7566C140.644 17.5933 140.395 17.3669 140.217 17.0775C140.039 16.788 139.95 16.4578 139.95 16.0866C139.95 15.6859 140.054 15.3445 140.262 15.0624C140.477 14.773 140.763 14.5541 141.119 14.4056C141.475 14.2572 141.869 14.183 142.299 14.183C142.655 14.183 142.967 14.2164 143.234 14.2832C143.509 14.3499 143.717 14.4205 143.858 14.4947V14.1941C143.858 13.823 143.724 13.5261 143.457 13.3035C143.19 13.0808 142.845 12.9695 142.422 12.9695C142.132 12.9695 141.858 13.0363 141.598 13.1699C141.338 13.2961 141.13 13.4705 140.974 13.6931L140.151 13.0586C140.395 12.7172 140.718 12.45 141.119 12.257C141.528 12.0566 141.973 11.9564 142.455 11.9564C143.279 11.9564 143.913 12.1605 144.359 12.5687C144.804 12.9695 145.027 13.5335 145.027 14.2609V17.8122H143.858V17.1109H143.791C143.643 17.3409 143.42 17.545 143.123 17.7232C142.826 17.9013 142.47 17.9903 142.054 17.9903ZM142.266 17.0107C142.577 17.0107 142.852 16.9365 143.09 16.788C143.327 16.6396 143.513 16.4466 143.646 16.2091C143.788 15.9642 143.858 15.7007 143.858 15.4187C143.687 15.3222 143.487 15.2443 143.257 15.1849C143.027 15.1181 142.782 15.0847 142.522 15.0847C142.032 15.0847 141.684 15.1849 141.475 15.3853C141.268 15.5783 141.164 15.8157 141.164 16.0978C141.164 16.365 141.264 16.5839 141.464 16.7546C141.665 16.9253 141.932 17.0107 142.266 17.0107ZM146.361 17.8122V9.84121H147.564V17.8122H146.361ZM148.993 17.8122V9.84121H150.195V17.8122H148.993ZM154.152 17.9903C153.596 17.9903 153.098 17.8605 152.66 17.6007C152.222 17.3409 151.877 16.9847 151.625 16.532C151.38 16.0792 151.258 15.5634 151.258 14.9845C151.258 14.4427 151.376 13.9418 151.614 13.4816C151.851 13.0214 152.182 12.654 152.605 12.3795C153.035 12.0974 153.529 11.9564 154.085 11.9564C154.672 11.9564 155.169 12.0826 155.577 12.3349C155.992 12.5873 156.308 12.9324 156.523 13.3703C156.738 13.8082 156.846 14.3017 156.846 14.8509C156.846 14.9326 156.842 15.0068 156.835 15.0736C156.835 15.1404 156.831 15.1923 156.824 15.2294H152.438C152.497 15.7935 152.694 16.2165 153.028 16.4986C153.369 16.7806 153.755 16.9216 154.186 16.9216C154.571 16.9216 154.89 16.8363 155.143 16.6655C155.395 16.4874 155.596 16.2685 155.744 16.0087L156.735 16.4874C156.49 16.9327 156.156 17.2964 155.733 17.5784C155.31 17.853 154.783 17.9903 154.152 17.9903ZM154.096 12.9806C153.696 12.9806 153.354 13.1031 153.072 13.348C152.79 13.5929 152.601 13.9195 152.505 14.3277H155.655C155.64 14.1347 155.577 13.9343 155.466 13.7265C155.354 13.5187 155.184 13.3443 154.954 13.2033C154.731 13.0548 154.445 12.9806 154.096 12.9806ZM158.4 16.1646V13.181H157.409V12.1345H158.4V10.5314H159.602V12.1345H160.994V13.181H159.602V15.9085C159.602 16.1906 159.658 16.4058 159.769 16.5542C159.888 16.7027 160.084 16.7769 160.359 16.7769C160.5 16.7769 160.619 16.7583 160.715 16.7212C160.819 16.6841 160.923 16.6322 161.027 16.5654V17.7343C160.901 17.7862 160.767 17.8271 160.626 17.8567C160.485 17.8864 160.318 17.9013 160.125 17.9013C159.598 17.9013 159.179 17.7491 158.867 17.4448C158.556 17.1331 158.4 16.7063 158.4 16.1646Z" fill="white"/>
<path d="M159.753 0.27832H13.9149C6.38308 0.27832 0.277344 6.38406 0.277344 13.9159C0.277344 21.4477 6.38308 27.5534 13.9149 27.5534H159.753C167.285 27.5534 173.391 21.4477 173.391 13.9159C173.391 6.38406 167.285 0.27832 159.753 0.27832Z" stroke="#747775"/>
</g>
<defs>
<linearGradient id="paint0_linear_568_915" x1="19.2412" y1="17.1369" x2="10.4244" y2="27.227" gradientUnits="userSpaceOnUse">
<stop stop-color="#4285F4"/>
<stop offset="1" stop-color="#1B74E8"/>
</linearGradient>
<clipPath id="clip0_568_915">
<rect width="173.67" height="27.8317" fill="white"/>
</clipPath>
</defs>
</svg>
