<svg width="174" height="26" viewBox="0 0 174 26" fill="none" xmlns="http://www.w3.org/2000/svg">
<g clip-path="url(#clip0_568_807)">
<path d="M160.937 0.254883H12.7317C5.84039 0.254883 0.253906 5.84136 0.253906 12.7326C0.253906 19.6239 5.84039 25.2104 12.7317 25.2104H160.937C167.828 25.2104 173.415 19.6239 173.415 12.7326C173.415 5.84136 167.828 0.254883 160.937 0.254883Z" fill="#1F1F1F"/>
<path d="M25.9742 11.2043H10.6953V8.65781C10.6953 7.27543 11.8167 6.11133 13.1483 6.11133H23.5212C24.8528 6.11133 25.9742 7.27543 25.9742 8.65781V11.2043Z" fill="#34A853"/>
<path d="M25.9742 13.2687H10.6953V10.7223C10.6953 9.33988 11.8167 8.17578 13.1483 8.17578H23.5212C24.8528 8.17578 25.9742 9.33988 25.9742 10.7223V13.2687Z" fill="#FBBC04"/>
<path d="M25.9742 15.4045H10.6953V12.858C10.6953 11.4756 11.8167 10.3115 13.1483 10.3115H23.5212C24.8528 10.3115 25.9742 11.4756 25.9742 12.858V15.4045Z" fill="#EA4335"/>
<path d="M10.6953 11.854L20.3929 14.0968C21.5091 14.3772 22.7649 14.0968 23.6719 13.396L25.9742 11.7139V16.9704C25.9742 18.302 24.8579 19.3533 23.5324 19.3533H13.1371C11.8116 19.3533 10.6953 18.302 10.6953 16.9704V11.854Z" fill="url(#paint0_linear_568_807)"/>
<path d="M32.2383 16.2976L34.9885 9.0045H36.2617L39.0221 16.2976H37.7896L37.1173 14.4234H34.143L33.4708 16.2976H32.2383ZM35.3246 11.1537L34.5199 13.3844H36.7405L35.9358 11.1537L35.6608 10.3185H35.5996L35.3246 11.1537ZM41.8909 16.4606C41.4223 16.4606 40.9979 16.3451 40.6176 16.1143C40.2442 15.8766 39.9454 15.5506 39.7213 15.1364C39.504 14.7154 39.3953 14.2367 39.3953 13.7002C39.3953 13.1638 39.504 12.6884 39.7213 12.2742C39.9454 11.86 40.2442 11.534 40.6176 11.2963C40.9979 11.0586 41.4223 10.9398 41.8909 10.9398C42.2915 10.9398 42.6344 11.0281 42.9196 11.2047C43.2116 11.3812 43.4255 11.5815 43.5614 11.8056H43.6225L43.5614 11.0824V9.0045H44.6513V16.2976H43.6225V15.605H43.5614C43.4255 15.8291 43.2116 16.0294 42.9196 16.2059C42.6344 16.3757 42.2915 16.4606 41.8909 16.4606ZM42.0538 15.4522C42.3255 15.4522 42.5801 15.3809 42.8178 15.2383C43.0623 15.0957 43.2558 14.8954 43.3984 14.6373C43.5478 14.3725 43.6225 14.0601 43.6225 13.7002C43.6225 13.3403 43.5478 13.0314 43.3984 12.7733C43.2558 12.5085 43.0623 12.3047 42.8178 12.1621C42.5801 12.0195 42.3255 11.9482 42.0538 11.9482C41.7822 11.9482 41.5276 12.0195 41.2899 12.1621C41.0522 12.3047 40.8587 12.5085 40.7093 12.7733C40.5599 13.0314 40.4852 13.3403 40.4852 13.7002C40.4852 14.0601 40.5599 14.3725 40.7093 14.6373C40.8587 14.8954 41.0522 15.0957 41.2899 15.2383C41.5276 15.3809 41.7822 15.4522 42.0538 15.4522ZM47.527 16.4606C47.1535 16.4606 46.8208 16.3893 46.5288 16.2467C46.2368 16.0973 46.0093 15.8902 45.8464 15.6253C45.6834 15.3605 45.6019 15.0583 45.6019 14.7188C45.6019 14.3521 45.6969 14.0398 45.8871 13.7817C46.084 13.5169 46.3455 13.3166 46.6714 13.1807C46.9974 13.0449 47.3572 12.977 47.7511 12.977C48.0771 12.977 48.3623 13.0076 48.6068 13.0687C48.858 13.1298 49.0481 13.1943 49.1772 13.2622V12.9872C49.1772 12.6476 49.0549 12.376 48.8105 12.1723C48.566 11.9686 48.2502 11.8667 47.8632 11.8667C47.5983 11.8667 47.3471 11.9279 47.1094 12.0501C46.8717 12.1655 46.6816 12.3251 46.539 12.5288L45.7853 11.9482C46.0093 11.6359 46.3047 11.3914 46.6714 11.2148C47.0449 11.0315 47.4523 10.9398 47.8937 10.9398C48.6475 10.9398 49.2281 11.1266 49.6355 11.5001C50.043 11.8667 50.2467 12.3828 50.2467 13.0483V16.2976H49.1772V15.6559H49.1161C48.9802 15.8664 48.7765 16.0532 48.5049 16.2161C48.2332 16.3791 47.9073 16.4606 47.527 16.4606ZM47.7206 15.5642C48.0058 15.5642 48.257 15.4963 48.4743 15.3605C48.6916 15.2247 48.8614 15.0482 48.9836 14.8308C49.1126 14.6068 49.1772 14.3657 49.1772 14.1076C49.021 14.0194 48.8376 13.9481 48.6271 13.8937C48.4166 13.8326 48.1925 13.8021 47.9549 13.8021C47.5067 13.8021 47.1875 13.8937 46.9974 14.0771C46.8072 14.2537 46.7122 14.4709 46.7122 14.729C46.7122 14.9734 46.8038 15.1738 46.9872 15.33C47.1705 15.4862 47.415 15.5642 47.7206 15.5642ZM47.9447 10.125C47.707 10.125 47.4863 10.0672 47.2826 9.95179C47.0789 9.83633 46.9125 9.68018 46.7835 9.48324C46.6612 9.27952 46.6001 9.05202 46.6001 8.80078H47.415C47.415 8.94338 47.4625 9.06903 47.5576 9.17766C47.6526 9.28629 47.7817 9.34063 47.9447 9.34063C48.1008 9.34063 48.2231 9.28629 48.3114 9.17766C48.4064 9.06903 48.454 8.94338 48.454 8.80078H49.2688C49.2688 9.05202 49.2043 9.27952 49.0753 9.48324C48.9531 9.68018 48.7901 9.83633 48.5864 9.95179C48.3894 10.0672 48.1755 10.125 47.9447 10.125ZM53.342 16.4606C52.7038 16.4606 52.2215 16.2705 51.8956 15.8902C51.5768 15.5031 51.4168 14.9802 51.4168 14.3216V11.1028H52.5169V14.1688C52.5169 14.6102 52.6188 14.9361 52.8225 15.1466C53.0334 15.3503 53.2946 15.4522 53.6068 15.4522C53.8854 15.4522 54.1263 15.3809 54.33 15.2383C54.5409 15.0889 54.7003 14.8987 54.8088 14.6679C54.9244 14.4302 54.9819 14.1722 54.9819 13.8937V11.1028H56.0718V16.2976H55.043V15.5948H54.9819C54.8327 15.8393 54.6086 16.0464 54.3097 16.2161C54.0178 16.3791 53.6954 16.4606 53.342 16.4606ZM59.6593 18.6608C59.2045 18.6608 58.8108 18.586 58.4777 18.4367C58.1518 18.2941 57.8869 18.1073 57.6832 17.8764C57.4795 17.6523 57.3339 17.4215 57.2452 17.1838L58.2638 16.756C58.3728 17.0276 58.546 17.2483 58.7833 17.4181C59.0278 17.5946 59.3201 17.6829 59.6593 17.6829C60.135 17.6829 60.5083 17.5403 60.7798 17.2551C61.0583 16.9699 61.1974 16.5659 61.1974 16.043V15.5439H61.1363C60.9733 15.7883 60.7461 15.9853 60.4538 16.1346C60.1686 16.2772 59.8426 16.3485 59.4759 16.3485C59.0349 16.3485 58.6305 16.2365 58.2638 16.0124C57.8971 15.7883 57.6017 15.476 57.3777 15.0753C57.1536 14.6679 57.0415 14.1925 57.0415 13.6493C57.0415 13.0992 57.1536 12.6239 57.3777 12.2233C57.6017 11.8158 57.8971 11.5001 58.2638 11.276C58.6305 11.0519 59.0349 10.9398 59.4759 10.9398C59.8426 10.9398 60.1686 11.0145 60.4538 11.1639C60.7461 11.3133 60.9733 11.5102 61.1363 11.7547H61.1974V11.1028H62.2465V16.0226C62.2465 16.5862 62.1345 17.065 61.9104 17.4588C61.6934 17.8527 61.3909 18.1515 61.0038 18.3552C60.6168 18.5589 60.1686 18.6608 59.6593 18.6608ZM59.6695 15.3503C59.9414 15.3503 60.1925 15.2858 60.4232 15.1568C60.6545 15.021 60.8409 14.8274 60.9835 14.5762C61.1261 14.3181 61.1974 14.0092 61.1974 13.6493C61.1974 13.2758 61.1261 12.9634 60.9835 12.7122C60.8409 12.4541 60.6545 12.2606 60.4232 12.1316C60.1925 12.0026 59.9414 11.938 59.6695 11.938C59.398 11.938 59.1434 12.0059 58.9055 12.1418C58.6748 12.2708 58.4879 12.4609 58.3453 12.7122C58.2027 12.9634 58.1314 13.2758 58.1314 13.6493C58.1314 14.016 58.2027 14.3283 58.3453 14.5864C58.4879 14.8376 58.6748 15.0278 58.9055 15.1568C59.1434 15.2858 59.398 15.3503 59.6695 15.3503ZM65.1139 16.4606C64.74 16.4606 64.4075 16.3893 64.1156 16.2467C63.8233 16.0973 63.5962 15.8902 63.4332 15.6253C63.2702 15.3605 63.1887 15.0583 63.1887 14.7188C63.1887 14.3521 63.2834 14.0398 63.4739 13.7817C63.6705 13.5169 63.9323 13.3166 64.2582 13.1807C64.5842 13.0449 64.9438 12.977 65.3379 12.977C65.6639 12.977 65.9491 13.0076 66.1936 13.0687C66.4446 13.1298 66.6346 13.1943 66.764 13.2622V12.9872C66.764 12.6476 66.6417 12.376 66.3973 12.1723C66.1528 11.9686 65.8371 11.8667 65.45 11.8667C65.1852 11.8667 64.9336 11.9279 64.6962 12.0501C64.4584 12.1655 64.2684 12.3251 64.1258 12.5288L63.3721 11.9482C63.5962 11.6359 63.8915 11.3914 64.2582 11.2148C64.6316 11.0315 65.039 10.9398 65.4806 10.9398C66.2343 10.9398 66.8149 11.1266 67.2223 11.5001C67.6298 11.8667 67.8335 12.3828 67.8335 13.0483V16.2976H66.764V15.6559H66.7029C66.5669 15.8664 66.3632 16.0532 66.0917 16.2161C65.8197 16.3791 65.4938 16.4606 65.1139 16.4606ZM65.3074 15.5642C65.5926 15.5642 65.8437 15.4963 66.0611 15.3605C66.2781 15.2247 66.4482 15.0482 66.5704 14.8308C66.6993 14.6068 66.764 14.3657 66.764 14.1076C66.6076 14.0194 66.4243 13.9481 66.2139 13.8937C66.0031 13.8326 65.779 13.8021 65.5417 13.8021C65.0935 13.8021 64.7742 13.8937 64.5842 14.0771C64.3937 14.2537 64.299 14.4709 64.299 14.729C64.299 14.9734 64.3907 15.1738 64.574 15.33C64.7574 15.4862 65.0018 15.5642 65.3074 15.5642ZM69.4948 14.7901V12.0603H68.5883V11.1028H69.4948V9.63603H70.5949V11.1028H71.8681V12.0603H70.5949V14.5558C70.5949 14.8139 70.6458 15.0108 70.7477 15.1466C70.8567 15.2824 71.0365 15.3503 71.2875 15.3503C71.4169 15.3503 71.5254 15.3334 71.6135 15.2994C71.7087 15.2654 71.804 15.2179 71.8987 15.1568V16.2263C71.7836 16.2738 71.6614 16.3112 71.532 16.3384C71.4032 16.3655 71.2504 16.3791 71.0736 16.3791C70.5918 16.3791 70.2078 16.2399 69.9226 15.9615C69.6374 15.6763 69.4948 15.2858 69.4948 14.7901ZM70.4523 18.9561L70.0143 18.6608L70.4421 18.019C70.3133 17.9783 70.2078 17.9036 70.1263 17.7949C70.052 17.6863 70.0143 17.5641 70.0143 17.4283C70.0143 17.2653 70.0754 17.1159 70.1976 16.9801C70.3199 16.8511 70.4727 16.7865 70.656 16.7865C70.8465 16.7865 71.0023 16.8511 71.1246 16.9801C71.2468 17.1091 71.3079 17.2653 71.3079 17.4486C71.3079 17.6116 71.2468 17.7814 71.1246 17.9579L70.4523 18.9561ZM73.615 10.3389C73.4113 10.3389 73.2346 10.2676 73.0854 10.125C72.9428 9.97557 72.8715 9.799 72.8715 9.59528C72.8715 9.39156 72.9428 9.2184 73.0854 9.0758C73.2346 8.9332 73.4113 8.8619 73.615 8.8619C73.8187 8.8619 73.9919 8.9332 74.1345 9.0758C74.2837 9.2184 74.3586 9.39156 74.3586 9.59528C74.3586 9.799 74.2837 9.97557 74.1345 10.125C73.9919 10.2676 73.8187 10.3389 73.615 10.3389ZM73.065 16.2976V11.1028H74.1651V16.2976H73.065ZM77.9176 16.2976V9.0045H79.0176V16.2976H77.9176ZM81.8947 16.4606C81.5213 16.4606 81.1883 16.3893 80.8964 16.2467C80.6046 16.0973 80.377 15.8902 80.214 15.6253C80.051 15.3605 79.9695 15.0583 79.9695 14.7188C79.9695 14.3521 80.0648 14.0398 80.2547 13.7817C80.4518 13.5169 80.7131 13.3166 81.039 13.1807C81.365 13.0449 81.7251 12.977 82.1188 12.977C82.4447 12.977 82.7299 13.0076 82.9744 13.0687C83.2254 13.1298 83.4159 13.1943 83.5448 13.2622V12.9872C83.5448 12.6476 83.4225 12.376 83.1781 12.1723C82.9336 11.9686 82.6179 11.8667 82.2308 11.8667C81.966 11.8667 81.7149 11.9279 81.477 12.0501C81.2392 12.1655 81.0492 12.3251 80.9066 12.5288L80.1529 11.9482C80.377 11.6359 80.6723 11.3914 81.039 11.2148C81.4124 11.0315 81.8198 10.9398 82.2614 10.9398C83.0151 10.9398 83.5957 11.1266 84.0031 11.5001C84.4106 11.8667 84.6143 12.3828 84.6143 13.0483V16.2976H83.5448V15.6559H83.4837C83.3477 15.8664 83.144 16.0532 82.8725 16.2161C82.6011 16.3791 82.2751 16.4606 81.8947 16.4606ZM82.0882 15.5642C82.3734 15.5642 82.6245 15.4963 82.8419 15.3605C83.0594 15.2247 83.229 15.0482 83.3512 14.8308C83.4801 14.6068 83.5448 14.3657 83.5448 14.1076C83.3884 14.0194 83.2051 13.9481 82.9947 13.8937C82.7844 13.8326 82.5603 13.8021 82.3225 13.8021C81.8743 13.8021 81.555 13.8937 81.365 14.0771C81.175 14.2537 81.0798 14.4709 81.0798 14.729C81.0798 14.9734 81.1715 15.1738 81.3548 15.33C81.5382 15.4862 81.7826 15.5642 82.0882 15.5642Z" fill="white"/>
<path d="M88.9336 16.2979V9.00477H91.4393C91.8809 9.00477 92.2812 9.09986 92.6413 9.28998C93.0013 9.4801 93.2866 9.74157 93.4969 10.0743C93.7144 10.407 93.8228 10.7941 93.8228 11.2355C93.8228 11.6769 93.7144 12.0673 93.4969 12.4069C93.2866 12.7396 93.0013 13.0011 92.6413 13.1912C92.2812 13.3745 91.8809 13.4662 91.4393 13.4662H90.0541V16.2979H88.9336ZM91.4699 10.0641H90.0541V12.4069H91.4699C91.7347 12.4069 91.9588 12.3525 92.1422 12.2439C92.3255 12.1284 92.4645 11.9825 92.5598 11.8059C92.6616 11.6226 92.7126 11.4324 92.7126 11.2355C92.7126 11.0385 92.6616 10.8518 92.5598 10.6753C92.4645 10.4987 92.3255 10.3527 92.1422 10.2373C91.9588 10.1218 91.7347 10.0641 91.4699 10.0641ZM96.8745 16.4609C96.3383 16.4609 95.8661 16.3386 95.4587 16.0942C95.0513 15.8497 94.7324 15.5203 94.5012 15.1061C94.2705 14.6919 94.1549 14.2234 94.1549 13.7005C94.1549 13.1844 94.2705 12.7192 94.5012 12.305C94.7324 11.884 95.0513 11.5513 95.4587 11.3068C95.8661 11.0623 96.3383 10.9401 96.8745 10.9401C97.4042 10.9401 97.8728 11.0623 98.2802 11.3068C98.6876 11.5513 99.007 11.884 99.2377 12.305C99.4689 12.7192 99.584 13.1844 99.584 13.7005C99.584 14.2234 99.4689 14.6919 99.2377 15.1061C99.007 15.5203 98.6876 15.8497 98.2802 16.0942C97.8728 16.3386 97.4042 16.4609 96.8745 16.4609ZM96.8745 15.4525C97.1598 15.4525 97.4246 15.3846 97.669 15.2487C97.9135 15.1061 98.1106 14.9058 98.2598 14.6478C98.4162 14.3829 98.4941 14.0672 98.4941 13.7005C98.4941 13.3338 98.4162 13.0214 98.2598 12.7634C98.1106 12.4985 97.9135 12.2982 97.669 12.1624C97.4246 12.0198 97.1598 11.9485 96.8745 11.9485C96.5893 11.9485 96.3214 12.0198 96.0699 12.1624C95.8254 12.2982 95.6252 12.4985 95.4689 12.7634C95.3197 13.0214 95.2448 13.3338 95.2448 13.7005C95.2448 14.0672 95.3197 14.3829 95.4689 14.6478C95.6252 14.9058 95.8254 15.1061 96.0699 15.2487C96.3214 15.3846 96.5893 15.4525 96.8745 15.4525ZM105.173 14.7904V12.0605H104.266V11.1031H105.173V9.6363H106.273V11.1031H107.546V12.0605H106.273V14.5561C106.273 14.8142 106.324 15.0111 106.426 15.1469C106.535 15.2827 106.715 15.3506 106.966 15.3506C107.095 15.3506 107.204 15.3336 107.292 15.2997C107.387 15.2657 107.482 15.2182 107.577 15.1571V16.2266C107.462 16.2741 107.34 16.3115 107.21 16.3386C107.081 16.3658 106.932 16.3794 106.762 16.3794C106.273 16.3794 105.886 16.2402 105.601 15.9618C105.316 15.6766 105.173 15.2861 105.173 14.7904ZM100.498 16.2979V11.1031H101.537V11.867H101.598C101.734 11.5818 101.944 11.3611 102.229 11.2049C102.514 11.042 102.824 10.9605 103.156 10.9605C103.347 10.9605 103.489 10.9741 103.584 11.0012V12.1013C103.435 12.0538 103.251 12.03 103.034 12.03C102.6 12.03 102.25 12.1692 101.985 12.4476C101.727 12.726 101.598 13.1029 101.598 13.5783V16.2979H100.498ZM110.86 16.4609C110.324 16.4609 109.852 16.3386 109.444 16.0942C109.037 15.8497 108.718 15.5203 108.487 15.1061C108.256 14.6919 108.141 14.2234 108.141 13.7005C108.141 13.1844 108.256 12.7192 108.487 12.305C108.718 11.884 109.037 11.5513 109.444 11.3068C109.852 11.0623 110.324 10.9401 110.86 10.9401C111.39 10.9401 111.859 11.0623 112.266 11.3068C112.673 11.5513 112.993 11.884 113.223 12.305C113.455 12.7192 113.57 13.1844 113.57 13.7005C113.57 14.2234 113.455 14.6919 113.223 15.1061C112.993 15.5203 112.673 15.8497 112.266 16.0942C111.859 16.3386 111.39 16.4609 110.86 16.4609ZM110.86 15.4525C111.146 15.4525 111.41 15.3846 111.655 15.2487C111.899 15.1061 112.096 14.9058 112.246 14.6478C112.402 14.3829 112.48 14.0672 112.48 13.7005C112.48 13.3338 112.402 13.0214 112.246 12.7634C112.096 12.4985 111.899 12.2982 111.655 12.1624C111.41 12.0198 111.146 11.9485 110.86 11.9485C110.575 11.9485 110.307 12.0198 110.056 12.1624C109.811 12.2982 109.611 12.4985 109.455 12.7634C109.305 13.0214 109.231 13.3338 109.231 13.7005C109.231 14.0672 109.305 14.3829 109.455 14.6478C109.611 14.9058 109.811 15.1061 110.056 15.2487C110.307 15.3846 110.575 15.4525 110.86 15.4525ZM115.025 16.2979V12.0605H114.078V11.1031H115.025V10.6753C115.025 10.3086 115.103 9.99622 115.259 9.73816C115.415 9.47332 115.626 9.27302 115.891 9.13719C116.162 8.99459 116.468 8.92328 116.807 8.92328C116.991 8.92328 117.147 8.93688 117.276 8.96403C117.411 8.9844 117.523 9.01155 117.612 9.04552V10.115C117.523 10.0811 117.422 10.0471 117.306 10.0132C117.197 9.97243 117.062 9.95206 116.899 9.95206C116.688 9.95206 116.505 10.0234 116.349 10.166C116.193 10.3018 116.115 10.5021 116.115 10.7669V11.1031H117.419V12.0605H116.115V16.2979H115.025ZM120.527 16.4609C120.018 16.4609 119.563 16.342 119.162 16.1044C118.762 15.8667 118.446 15.5407 118.215 15.1265C117.991 14.7123 117.879 14.2403 117.879 13.7107C117.879 13.215 117.988 12.7566 118.205 12.3356C118.422 11.9145 118.724 11.5784 119.111 11.3272C119.506 11.0691 119.957 10.9401 120.466 10.9401C121.003 10.9401 121.458 11.0556 121.831 11.2864C122.212 11.5173 122.5 11.833 122.697 12.2337C122.894 12.6344 122.992 13.0859 122.992 13.5884C122.992 13.6632 122.989 13.731 122.982 13.7922C122.982 13.8533 122.979 13.9008 122.972 13.9348H118.959C119.013 14.4508 119.193 14.8379 119.498 15.096C119.811 15.354 120.164 15.483 120.558 15.483C120.911 15.483 121.203 15.4049 121.434 15.2487C121.665 15.0858 121.848 14.8855 121.984 14.6478L122.89 15.0858C122.666 15.4932 122.361 15.8259 121.974 16.084C121.587 16.3352 121.105 16.4609 120.527 16.4609ZM120.476 11.8772C120.11 11.8772 119.797 11.9892 119.539 12.2133C119.282 12.4374 119.108 12.7362 119.02 13.1097H121.902C121.889 12.9331 121.831 12.7498 121.729 12.5597C121.627 12.3695 121.472 12.2099 121.261 12.0809C121.057 11.9451 120.796 11.8772 120.476 11.8772ZM124.023 16.2979V9.00477H125.123V16.2979H124.023ZM132.235 16.4609C131.712 16.4609 131.22 16.3658 130.758 16.1757C130.303 15.9855 129.899 15.7207 129.546 15.3812C129.193 15.0348 128.914 14.6308 128.711 14.169C128.514 13.7005 128.415 13.1946 128.415 12.6513C128.415 12.1081 128.514 11.6056 128.711 11.1438C128.914 10.6753 129.189 10.2712 129.536 9.93169C129.889 9.58537 130.297 9.31712 130.758 9.127C131.22 8.93688 131.712 8.8418 132.235 8.8418C132.792 8.8418 133.304 8.94024 133.773 9.13719C134.249 9.33413 134.646 9.60915 134.965 9.96225L134.191 10.7262C133.953 10.4614 133.668 10.2576 133.335 10.115C133.009 9.97243 132.642 9.90113 132.235 9.90113C131.753 9.90113 131.308 10.0166 130.901 10.2475C130.493 10.4715 130.164 10.7907 129.913 11.2049C129.668 11.6124 129.546 12.0945 129.546 12.6513C129.546 13.2081 129.672 13.6937 129.923 14.1079C130.174 14.5154 130.503 14.8345 130.911 15.0654C131.318 15.2895 131.763 15.4015 132.245 15.4015C132.687 15.4015 133.088 15.32 133.447 15.1571C133.807 14.9873 134.096 14.7496 134.313 14.4441C134.537 14.1385 134.673 13.7718 134.72 13.344H132.225V12.3559H135.769C135.81 12.5393 135.831 12.7328 135.831 12.9365V12.9467C135.831 13.653 135.675 14.2709 135.362 14.8006C135.056 15.3235 134.632 15.7309 134.089 16.0229C133.546 16.3149 132.928 16.4609 132.235 16.4609ZM139.11 16.4609C138.574 16.4609 138.102 16.3386 137.695 16.0942C137.287 15.8497 136.968 15.5203 136.737 15.1061C136.506 14.6919 136.391 14.2234 136.391 13.7005C136.391 13.1844 136.506 12.7192 136.737 12.305C136.968 11.884 137.287 11.5513 137.695 11.3068C138.102 11.0623 138.574 10.9401 139.11 10.9401C139.64 10.9401 140.109 11.0623 140.516 11.3068C140.924 11.5513 141.243 11.884 141.474 12.305C141.704 12.7192 141.82 13.1844 141.82 13.7005C141.82 14.2234 141.704 14.6919 141.474 15.1061C141.243 15.5203 140.924 15.8497 140.516 16.0942C140.109 16.3386 139.64 16.4609 139.11 16.4609ZM139.11 15.4525C139.396 15.4525 139.661 15.3846 139.905 15.2487C140.149 15.1061 140.347 14.9058 140.496 14.6478C140.652 14.3829 140.73 14.0672 140.73 13.7005C140.73 13.3338 140.652 13.0214 140.496 12.7634C140.347 12.4985 140.149 12.2982 139.905 12.1624C139.661 12.0198 139.396 11.9485 139.11 11.9485C138.825 11.9485 138.557 12.0198 138.306 12.1624C138.061 12.2982 137.861 12.4985 137.705 12.7634C137.556 13.0214 137.481 13.3338 137.481 13.7005C137.481 14.0672 137.556 14.3829 137.705 14.6478C137.861 14.9058 138.061 15.1061 138.306 15.2487C138.557 15.3846 138.825 15.4525 139.11 15.4525ZM145.278 16.4609C144.741 16.4609 144.269 16.3386 143.862 16.0942C143.454 15.8497 143.135 15.5203 142.904 15.1061C142.674 14.6919 142.558 14.2234 142.558 13.7005C142.558 13.1844 142.674 12.7192 142.904 12.305C143.135 11.884 143.454 11.5513 143.862 11.3068C144.269 11.0623 144.741 10.9401 145.278 10.9401C145.807 10.9401 146.276 11.0623 146.683 11.3068C147.091 11.5513 147.41 11.884 147.641 12.305C147.872 12.7192 147.987 13.1844 147.987 13.7005C147.987 14.2234 147.872 14.6919 147.641 15.1061C147.41 15.5203 147.091 15.8497 146.683 16.0942C146.276 16.3386 145.807 16.4609 145.278 16.4609ZM145.278 15.4525C145.563 15.4525 145.828 15.3846 146.072 15.2487C146.317 15.1061 146.514 14.9058 146.663 14.6478C146.819 14.3829 146.897 14.0672 146.897 13.7005C146.897 13.3338 146.819 13.0214 146.663 12.7634C146.514 12.4985 146.317 12.2982 146.072 12.1624C145.828 12.0198 145.563 11.9485 145.278 11.9485C144.992 11.9485 144.724 12.0198 144.473 12.1624C144.228 12.2982 144.028 12.4985 143.872 12.7634C143.723 13.0214 143.648 13.3338 143.648 13.7005C143.648 14.0672 143.723 14.3829 143.872 14.6478C144.028 14.9058 144.228 15.1061 144.473 15.2487C144.724 15.3846 144.992 15.4525 145.278 15.4525ZM151.343 18.661C150.888 18.661 150.494 18.5863 150.162 18.4369C149.836 18.2943 149.571 18.1076 149.367 17.8767C149.163 17.6526 149.017 17.4218 148.929 17.1841L149.948 16.7563C150.056 17.0279 150.229 17.2486 150.467 17.4183C150.712 17.5949 151.004 17.6832 151.343 17.6832C151.818 17.6832 152.192 17.5406 152.464 17.2554C152.742 16.9702 152.881 16.5661 152.881 16.0432V15.5441H152.82C152.657 15.7886 152.43 15.9855 152.138 16.1349C151.853 16.2775 151.527 16.3488 151.16 16.3488C150.718 16.3488 150.314 16.2368 149.948 16.0127C149.581 15.7886 149.286 15.4762 149.062 15.0756C148.838 14.6681 148.725 14.1928 148.725 13.6496C148.725 13.0995 148.838 12.6242 149.062 12.2235C149.286 11.8161 149.581 11.5003 149.948 11.2762C150.314 11.0521 150.718 10.9401 151.16 10.9401C151.527 10.9401 151.853 11.0148 152.138 11.1642C152.43 11.3136 152.657 11.5105 152.82 11.755H152.881V11.1031H153.93V16.0229C153.93 16.5865 153.818 17.0652 153.594 17.4591C153.377 17.8529 153.075 18.1517 152.688 18.3554C152.301 18.5592 151.853 18.661 151.343 18.661ZM151.353 15.3506C151.625 15.3506 151.876 15.2861 152.107 15.1571C152.338 15.0212 152.525 14.8277 152.667 14.5765C152.81 14.3184 152.881 14.0095 152.881 13.6496C152.881 13.2761 152.81 12.9637 152.667 12.7124C152.525 12.4544 152.338 12.2609 152.107 12.1318C151.876 12.0028 151.625 11.9383 151.353 11.9383C151.081 11.9383 150.827 12.0062 150.59 12.142C150.358 12.271 150.172 12.4612 150.029 12.7124C149.887 12.9637 149.815 13.2761 149.815 13.6496C149.815 14.0162 149.887 14.3286 150.029 14.5867C150.172 14.8379 150.358 15.0281 150.59 15.1571C150.827 15.2861 151.081 15.3506 151.353 15.3506ZM155.228 16.2979V9.00477H156.328V16.2979H155.228ZM159.948 16.4609C159.439 16.4609 158.984 16.342 158.583 16.1044C158.183 15.8667 157.867 15.5407 157.636 15.1265C157.412 14.7123 157.3 14.2403 157.3 13.7107C157.3 13.215 157.408 12.7566 157.626 12.3356C157.843 11.9145 158.145 11.5784 158.532 11.3272C158.926 11.0691 159.378 10.9401 159.887 10.9401C160.424 10.9401 160.878 11.0556 161.252 11.2864C161.632 11.5173 161.921 11.833 162.118 12.2337C162.315 12.6344 162.413 13.0859 162.413 13.5884C162.413 13.6632 162.41 13.731 162.403 13.7922C162.403 13.8533 162.4 13.9008 162.393 13.9348H158.38C158.434 14.4508 158.614 14.8379 158.92 15.096C159.232 15.354 159.585 15.483 159.979 15.483C160.332 15.483 160.624 15.4049 160.855 15.2487C161.086 15.0858 161.269 14.8855 161.405 14.6478L162.311 15.0858C162.087 15.4932 161.782 15.8259 161.395 16.084C161.008 16.3352 160.525 16.4609 159.948 16.4609ZM159.897 11.8772C159.531 11.8772 159.218 11.9892 158.96 12.2133C158.702 12.4374 158.529 12.7362 158.441 13.1097H161.323C161.31 12.9331 161.252 12.7498 161.15 12.5597C161.048 12.3695 160.892 12.2099 160.682 12.0809C160.478 11.9451 160.216 11.8772 159.897 11.8772Z" fill="white"/>
<path d="M160.937 0.254883H12.7317C5.84039 0.254883 0.253906 5.84136 0.253906 12.7326C0.253906 19.6239 5.84039 25.2104 12.7317 25.2104H160.937C167.828 25.2104 173.415 19.6239 173.415 12.7326C173.415 5.84136 167.828 0.254883 160.937 0.254883Z" stroke="#747775"/>
</g>
<defs>
<linearGradient id="paint0_linear_568_807" x1="17.6066" y1="15.6795" x2="9.53967" y2="24.9114" gradientUnits="userSpaceOnUse">
<stop stop-color="#4285F4"/>
<stop offset="1" stop-color="#1B74E8"/>
</linearGradient>
<clipPath id="clip0_568_807">
<rect width="173.67" height="25.4648" fill="white"/>
</clipPath>
</defs>
</svg>
