<svg width="174" height="24" viewBox="0 0 174 24" fill="none" xmlns="http://www.w3.org/2000/svg">
<g clip-path="url(#clip0_568_520)">
<path d="M161.708 0.239258H11.9598C5.48619 0.239258 0.238281 5.48716 0.238281 11.9608C0.238281 18.4344 5.48619 23.6823 11.9598 23.6823H161.708C168.182 23.6823 173.43 18.4344 173.43 11.9608C173.43 5.48716 168.182 0.239258 161.708 0.239258Z" fill="#1F1F1F"/>
<path d="M24.3998 10.5255H10.0469V8.13336C10.0469 6.83476 11.1003 5.74121 12.3512 5.74121H22.0954C23.3464 5.74121 24.3998 6.83476 24.3998 8.13336V10.5255Z" fill="#34A853"/>
<path d="M24.3998 12.465H10.0469V10.0728C10.0469 8.77421 11.1003 7.68066 12.3512 7.68066H22.0954C23.3464 7.68066 24.3998 8.77421 24.3998 10.0728V12.465Z" fill="#FBBC04"/>
<path d="M24.3998 14.4708H10.0469V12.0787C10.0469 10.7801 11.1003 9.68652 12.3512 9.68652H22.0954C23.3464 9.68652 24.3998 10.7801 24.3998 12.0787V14.4708Z" fill="#EA4335"/>
<path d="M10.0469 11.1356L19.1567 13.2424C20.2053 13.5058 21.385 13.2424 22.237 12.5841L24.3998 11.0039V15.9418C24.3998 17.1928 23.3511 18.1804 22.1059 18.1804H12.3407C11.0955 18.1804 10.0469 17.1928 10.0469 15.9418V11.1356Z" fill="url(#paint0_linear_568_520)"/>
<path d="M34.1585 15.4632C33.6673 15.4632 33.2049 15.3739 32.7711 15.1953C32.3437 15.0167 31.9641 14.7679 31.6324 14.449C31.3007 14.1236 31.0392 13.7441 30.8478 13.3103C30.6628 12.8702 30.5703 12.3949 30.5703 11.8846C30.5703 11.3743 30.6628 10.9022 30.8478 10.4684C31.0392 10.0283 31.2975 9.64875 31.6229 9.32978C31.9546 9.00445 32.3373 8.75246 32.7711 8.57386C33.2049 8.39526 33.6673 8.30594 34.1585 8.30594C34.6816 8.30594 35.1632 8.39842 35.6034 8.58343C36.0499 8.76844 36.4231 9.02679 36.7229 9.35848L35.9957 10.0761C35.7724 9.82734 35.5045 9.63597 35.1919 9.50201C34.8857 9.36805 34.5413 9.30107 34.1585 9.30107C33.7056 9.30107 33.2878 9.40953 32.905 9.6264C32.5223 9.83691 32.2129 10.1367 31.9769 10.5259C31.7472 10.9086 31.6324 11.3615 31.6324 11.8846C31.6324 12.4077 31.7505 12.8638 31.9865 13.2529C32.2225 13.6356 32.5319 13.9355 32.9146 14.1523C33.2974 14.3629 33.7152 14.4681 34.1681 14.4681C34.5828 14.4681 34.9591 14.3916 35.2972 14.2385C35.6353 14.079 35.9064 13.8557 36.1105 13.5687C36.321 13.2816 36.4486 12.9371 36.4933 12.5353H34.149V11.6071H37.4788C37.5171 11.7793 37.5362 11.9611 37.5362 12.1525V12.1621C37.5362 12.8255 37.3895 13.406 37.0961 13.9036C36.809 14.3948 36.4104 14.7775 35.9 15.0518C35.3897 15.3261 34.8092 15.4632 34.1585 15.4632ZM40.6172 15.4632C40.1133 15.4632 39.6699 15.3484 39.2872 15.1188C38.9045 14.8891 38.6047 14.5797 38.3878 14.1906C38.1709 13.8015 38.0624 13.3614 38.0624 12.8702C38.0624 12.3854 38.1709 11.9484 38.3878 11.5593C38.6047 11.1637 38.9045 10.8512 39.2872 10.6215C39.6699 10.3919 40.1133 10.2771 40.6172 10.2771C41.1148 10.2771 41.555 10.3919 41.9377 10.6215C42.3204 10.8512 42.6203 11.1637 42.8372 11.5593C43.0541 11.9484 43.1625 12.3854 43.1625 12.8702C43.1625 13.3614 43.0541 13.8015 42.8372 14.1906C42.6203 14.5797 42.3204 14.8891 41.9377 15.1188C41.555 15.3484 41.1148 15.4632 40.6172 15.4632ZM40.6172 14.516C40.8852 14.516 41.1339 14.4522 41.3636 14.3246C41.5932 14.1906 41.7782 14.0025 41.9186 13.76C42.0653 13.5113 42.1386 13.2146 42.1386 12.8702C42.1386 12.5257 42.0653 12.2323 41.9186 11.9898C41.7782 11.7411 41.5932 11.5529 41.3636 11.4253C41.1339 11.2913 40.8852 11.2244 40.6172 11.2244C40.3493 11.2244 40.0974 11.2913 39.8613 11.4253C39.6317 11.5529 39.4435 11.7411 39.2968 11.9898C39.1565 12.2323 39.0863 12.5257 39.0863 12.8702C39.0863 13.2146 39.1565 13.5113 39.2968 13.76C39.4435 14.0025 39.6317 14.1906 39.8613 14.3246C40.0974 14.4522 40.3493 14.516 40.6172 14.516ZM46.4107 15.4632C45.9068 15.4632 45.4634 15.3484 45.0807 15.1188C44.698 14.8891 44.3982 14.5797 44.1813 14.1906C43.9644 13.8015 43.8559 13.3614 43.8559 12.8702C43.8559 12.3854 43.9644 11.9484 44.1813 11.5593C44.3982 11.1637 44.698 10.8512 45.0807 10.6215C45.4634 10.3919 45.9068 10.2771 46.4107 10.2771C46.9083 10.2771 47.3485 10.3919 47.7312 10.6215C48.1139 10.8512 48.4138 11.1637 48.6306 11.5593C48.8478 11.9484 48.9559 12.3854 48.9559 12.8702C48.9559 13.3614 48.8478 13.8015 48.6306 14.1906C48.4138 14.5797 48.1139 14.8891 47.7312 15.1188C47.3485 15.3484 46.9083 15.4632 46.4107 15.4632ZM46.4107 14.516C46.6787 14.516 46.9274 14.4522 47.1571 14.3246C47.3867 14.1906 47.5717 14.0025 47.7121 13.76C47.8588 13.5113 47.932 13.2146 47.932 12.8702C47.932 12.5257 47.8588 12.2323 47.7121 11.9898C47.5717 11.7411 47.3867 11.5529 47.1571 11.4253C46.9274 11.2913 46.6787 11.2244 46.4107 11.2244C46.1428 11.2244 45.8909 11.2913 45.6548 11.4253C45.4252 11.5529 45.237 11.7411 45.0903 11.9898C44.9499 12.2323 44.8798 12.5257 44.8798 12.8702C44.8798 13.2146 44.9499 13.5113 45.0903 13.76C45.237 14.0025 45.4252 14.1906 45.6548 14.3246C45.8909 14.4522 46.1428 14.516 46.4107 14.516ZM52.1087 17.5301C51.681 17.5301 51.3112 17.4599 50.9988 17.3196C50.6926 17.1856 50.4438 17.0102 50.2524 16.7933C50.0611 16.5828 49.9238 16.3659 49.841 16.1426L50.7978 15.7407C50.8997 15.9959 51.0624 16.2032 51.2858 16.3627C51.5155 16.5286 51.7896 16.6115 52.1087 16.6115C52.5551 16.6115 52.9058 16.4775 53.1613 16.2096C53.4225 15.9417 53.5536 15.5621 53.5536 15.0709V14.6021H53.4962C53.3431 14.8317 53.1292 15.0167 52.8551 15.1571C52.5872 15.291 52.281 15.358 51.9365 15.358C51.5217 15.358 51.1423 15.2527 50.7978 15.0422C50.4534 14.8317 50.1759 14.5383 49.9654 14.1619C49.7549 13.7792 49.6496 13.3327 49.6496 12.8223C49.6496 12.3056 49.7549 11.8591 49.9654 11.4827C50.1759 11.1 50.4534 10.8033 50.7978 10.5928C51.1423 10.3823 51.5217 10.2771 51.9365 10.2771C52.281 10.2771 52.5872 10.3473 52.8551 10.4876C53.1292 10.6279 53.3431 10.8129 53.4962 11.0426H53.5536V10.4302H54.5392V15.0518C54.5392 15.5813 54.4339 16.031 54.2234 16.401C54.0191 16.7709 53.7354 17.0516 53.3718 17.243C53.0082 17.4344 52.5872 17.5301 52.1087 17.5301ZM52.1183 14.4203C52.3733 14.4203 52.6092 14.3597 52.8264 14.2385C53.0431 14.1109 53.2187 13.9291 53.3527 13.6931C53.4866 13.4506 53.5536 13.1604 53.5536 12.8223C53.5536 12.4715 53.4866 12.178 53.3527 11.942C53.2187 11.6996 53.0431 11.5178 52.8264 11.3966C52.6092 11.2754 52.3733 11.2148 52.1183 11.2148C51.8628 11.2148 51.6236 11.2786 51.4007 11.4062C51.1835 11.5273 51.0084 11.706 50.8744 11.942C50.7404 12.178 50.6735 12.4715 50.6735 12.8223C50.6735 13.1668 50.7404 13.4602 50.8744 13.7026C51.0084 13.9386 51.1835 14.1173 51.4007 14.2385C51.6236 14.3597 51.8628 14.4203 52.1183 14.4203ZM55.7577 15.3101V8.45904H56.7911V15.3101H55.7577ZM60.1923 15.4632C59.7139 15.4632 59.2861 15.3516 58.9101 15.1283C58.5336 14.9051 58.2369 14.5989 58.0202 14.2098C57.8097 13.8207 57.7045 13.3773 57.7045 12.8797C57.7045 12.4141 57.8064 11.9835 58.0106 11.588C58.2145 11.1924 58.4986 10.8767 58.8623 10.6407C59.2321 10.3983 59.6564 10.2771 60.1349 10.2771C60.6387 10.2771 61.0659 10.3855 61.4171 10.6024C61.774 10.8193 62.0452 11.1159 62.2304 11.4923C62.4151 11.8687 62.5079 12.2928 62.5079 12.7649C62.5079 12.8351 62.5045 12.8989 62.4983 12.9563C62.4983 13.0137 62.495 13.0583 62.4888 13.0902H58.7187C58.7694 13.575 58.9388 13.9386 59.2259 14.1811C59.5191 14.4235 59.8507 14.5447 60.221 14.5447C60.5525 14.5447 60.8267 14.4713 61.0439 14.3246C61.2606 14.1715 61.4329 13.9833 61.5606 13.76L62.4122 14.1715C62.2017 14.5542 61.9146 14.8668 61.551 15.1092C61.1874 15.3452 60.7344 15.4632 60.1923 15.4632ZM60.1444 11.1574C59.8 11.1574 59.5062 11.2626 59.2641 11.4731C59.0216 11.6837 58.8589 11.9643 58.7761 12.3152H61.484C61.4711 12.1493 61.4171 11.9771 61.3214 11.7985C61.2257 11.6199 61.0788 11.4699 60.8812 11.3488C60.6899 11.2212 60.4439 11.1574 60.1444 11.1574ZM70.2637 7.65527H69.3547C69.393 7.9519 69.4025 8.17198 69.4025 8.37292C69.4025 8.593 69.4025 9.27237 69.4025 9.64554H70.2159C70.2159 9.31064 70.2159 8.593 70.2159 8.37292C70.2159 8.17198 70.2254 7.9519 70.2637 7.65527ZM73.5266 9.51158L73.0099 9.18625C72.8855 9.22452 72.7133 9.2628 72.3592 9.2628H67.2879C66.953 9.2628 66.6659 9.24366 66.3884 9.22452C66.4267 9.42546 66.4267 9.7508 66.4267 9.95174C66.4267 10.2866 66.4267 11.3296 66.4267 11.6358C66.4267 11.8272 66.4171 12.0855 66.3884 12.2482H67.2209C67.2018 12.1047 67.1922 11.8463 67.1922 11.6837C67.1922 11.387 67.1922 10.3632 67.1922 9.97087H72.5315C72.4454 10.7842 72.1487 11.942 71.632 12.7553C71.0388 13.6644 69.9958 14.3724 69.0294 14.6882C68.7232 14.803 68.3596 14.8987 68.0438 14.9561L68.6658 15.6642C70.4168 15.1858 71.7373 14.2098 72.4454 12.9563C72.9812 12.0473 73.2587 10.8512 73.3926 10.0857C73.4214 9.90389 73.4788 9.64554 73.5266 9.51158ZM80.8944 9.46374H80.0811C80.1194 9.67425 80.1385 9.92303 80.1385 10.1144C80.1768 10.9564 80.2246 13.827 80.2246 14.9561C80.2246 15.1379 80.1385 15.2432 79.9567 15.2432C79.6792 15.2432 79.1816 15.2049 78.7893 15.1475L78.8372 15.8556C79.2103 15.8747 79.8419 15.9034 80.2151 15.9034C80.6361 15.9034 80.9423 15.6642 80.9423 15.2527C80.9231 13.8653 80.8753 10.9564 80.8561 10.1144C80.8561 9.89432 80.8561 9.66468 80.8944 9.46374ZM76.579 10.8416V11.6071C76.8086 11.588 77.0574 11.5784 77.3062 11.5784C77.6507 11.5784 81.9278 11.5784 82.2723 11.5784C82.4541 11.5784 82.722 11.588 82.8847 11.5975V10.8416C82.7507 10.8703 82.4445 10.8895 82.2436 10.8895C81.8513 10.8895 77.6985 10.8895 77.2966 10.8895C77.067 10.8895 76.8086 10.8799 76.579 10.8416ZM76.3302 14.5064L76.8565 15.0901C78.3205 14.3246 79.8897 12.8797 80.3969 11.942L80.3873 11.3679L79.995 11.3583C79.44 12.363 77.8707 13.7696 76.3302 14.5064ZM86.3581 15.0135L86.9035 15.4824C87.0566 15.3963 87.2097 15.3484 87.3054 15.3197C89.6975 14.6212 91.6687 13.4443 92.9126 11.9037L92.482 11.2339C91.2859 12.7745 89.0756 14.028 87.2384 14.4968C87.2384 14.0088 87.2384 9.97087 87.2384 9.06186C87.2384 8.79394 87.2767 8.43033 87.3054 8.20068H86.3677C86.4059 8.38249 86.4442 8.81307 86.4442 9.07143C86.4442 9.98044 86.4442 13.9418 86.4442 14.5447C86.4442 14.7265 86.4251 14.8604 86.3581 15.0135ZM98.4241 9.80821L97.716 10.0474C97.917 10.4684 98.3571 11.6837 98.4624 12.1238L99.1704 11.8655C99.0556 11.454 98.5867 10.191 98.4241 9.80821ZM101.888 10.344L101.065 10.0761C100.912 11.3009 100.424 12.5257 99.7446 13.3582C98.9599 14.3342 97.7351 15.0614 96.6348 15.3867L97.2663 16.0278C98.3284 15.6259 99.4958 14.8796 100.386 13.76C101.065 12.8989 101.486 11.8655 101.735 10.8129C101.773 10.6885 101.821 10.5354 101.888 10.344ZM96.1946 10.2866L95.4865 10.5546C95.6779 10.8895 96.1946 12.2195 96.3477 12.7171L97.0653 12.4491C96.8931 11.942 96.386 10.6885 96.1946 10.2866ZM106.586 14.4681C106.586 14.8222 106.577 15.3006 106.529 15.6068H107.457C107.419 15.291 107.399 14.7743 107.399 14.4681C107.399 14.0184 107.39 10.3919 107.39 8.90876C107.39 8.61213 107.419 8.20068 107.457 7.90406H106.519C106.567 8.21025 106.586 8.63127 106.586 8.90876C106.586 9.70295 106.586 13.9323 106.586 14.4681ZM107.218 10.4206V11.2626C108.261 11.588 110.05 12.2673 111.141 12.851L111.476 12.0377C110.414 11.521 108.481 10.7842 107.218 10.4206Z" fill="white"/>
<path d="M120.132 8.85069L120.142 9.62574C121.185 9.74057 123.041 9.74057 124.065 9.62574V8.85069C123.117 8.99422 121.175 9.03249 120.132 8.85069ZM120.505 12.7547L119.816 12.6877C119.711 13.147 119.663 13.4915 119.663 13.8072C119.663 14.7067 120.381 15.2425 121.979 15.2425C122.974 15.2425 123.778 15.166 124.371 15.0416L124.352 14.2378C123.586 14.4196 122.84 14.4962 121.988 14.4962C120.677 14.4962 120.371 14.0656 120.371 13.6254C120.371 13.3671 120.419 13.0991 120.505 12.7547ZM118.314 8.11391L117.462 8.04693C117.453 8.25743 117.424 8.49665 117.395 8.71673C117.281 9.51092 116.965 11.1472 116.965 12.5537C116.965 13.8551 117.128 14.9555 117.319 15.6348L117.998 15.587C117.989 15.4817 117.979 15.3478 117.97 15.2521C117.97 15.1373 117.989 14.9555 118.017 14.8215C118.104 14.3622 118.458 13.3575 118.697 12.6781L118.295 12.3624C118.132 12.7547 117.912 13.3288 117.749 13.7594C117.692 13.2905 117.663 12.8886 117.663 12.4293C117.663 11.3481 117.96 9.64488 118.142 8.755C118.18 8.58277 118.257 8.27657 118.314 8.11391ZM127.844 11.0515H125.806V11.7213H127.146V14.4387H127.844V11.0515ZM127.844 14.123H127.194C126.706 14.5344 126.141 14.9555 125.682 15.2616L126.065 15.9984C126.581 15.5774 127.069 15.166 127.529 14.7545C128.141 15.5104 129.002 15.8453 130.246 15.8932C131.308 15.9314 133.289 15.9123 134.341 15.874C134.37 15.654 134.495 15.3095 134.571 15.1373C133.442 15.2138 131.289 15.2425 130.246 15.2042C129.146 15.1564 128.294 14.8311 127.844 14.123ZM125.911 7.94167C126.533 8.36269 127.251 9.01335 127.557 9.47265L128.122 9.00379C127.787 8.53492 127.069 7.91297 126.438 7.51108L125.911 7.94167ZM129.26 8.27657V8.87939H132.81V10.1712H129.26V10.7835H133.509V8.27657H129.26ZM130.82 7.24316C130.744 7.61634 130.571 8.15218 130.428 8.51579L131.088 8.65932C131.251 8.33398 131.461 7.84599 131.643 7.37712L130.82 7.24316ZM128.916 8.27657V14.4196H129.615V8.27657H128.916ZM129.299 11.6926V12.305H133.184V13.7977H129.299V14.4196H133.892V11.6926H129.299ZM140.705 14.5344V15.2329H143.307V14.5344H140.705ZM135.423 9.0899V9.78841H139.097V9.0899H135.423ZM140.379 8.46794V15.9314H141.078V9.15688H142.924V15.8645H143.652V8.46794H140.379ZM138.906 9.0899V9.26214C138.839 13.3575 138.753 14.7736 138.532 15.0703C138.446 15.1947 138.36 15.2234 138.217 15.2138C138.035 15.2138 137.623 15.2138 137.174 15.1755C137.298 15.3765 137.375 15.6922 137.384 15.9027C137.815 15.9314 138.255 15.9314 138.523 15.8932C138.81 15.8645 138.982 15.7784 139.154 15.5296C139.461 15.1085 139.528 13.7115 139.604 9.45351C139.604 9.35782 139.604 9.0899 139.604 9.0899H138.906ZM136.781 7.40583C136.772 10.7548 136.781 13.9125 135.183 15.5965C135.365 15.7018 135.614 15.9219 135.738 16.0845C137.423 14.2569 137.47 10.9366 137.48 7.40583H136.781ZM150.484 7.73116H149.603C149.622 7.81728 149.651 8.0852 149.67 8.34355C149.699 8.86983 149.709 10.774 149.709 11.195L150.436 11.5682C150.426 10.8027 150.407 8.95594 150.436 8.33398C150.436 8.21916 150.464 7.84599 150.484 7.73116ZM145.393 9.07077L145.412 9.80755C146.857 9.70229 148.905 9.63531 150.551 9.63531C151.957 9.63531 152.818 9.65445 153.354 9.68316L153.364 8.97508C152.914 8.96551 151.728 8.96551 150.56 8.96551C149.087 8.96551 146.694 9.05163 145.393 9.07077ZM150.417 11.8457L149.89 11.5777C150.043 12.6016 149.661 13.0991 149.067 13.0991C148.541 13.0991 148.091 12.7547 148.091 12.1519C148.091 11.5299 148.56 11.1376 149.067 11.1376C149.584 11.1376 150.005 11.5012 150.005 12.3624C150.005 13.9412 148.991 14.7928 147.249 15.2042L147.891 15.8262C150.11 15.166 150.742 13.7307 150.742 12.4293C150.742 11.329 150.177 10.5061 149.067 10.5061C148.158 10.5061 147.374 11.2141 147.374 12.1614C147.374 13.2044 148.149 13.7689 148.953 13.7689C149.823 13.7689 150.417 13.1279 150.417 11.8457ZM156.33 8.267L156.349 9.05163C156.56 9.02292 156.77 9.01335 156.99 8.99422C157.488 8.96551 159.402 8.88896 159.909 8.86026C159.43 9.29084 158.225 10.2955 157.689 10.7357C157.143 11.2046 155.909 12.238 155.115 12.8886L155.67 13.4436C156.875 12.2093 157.737 11.5395 159.325 11.5395C160.578 11.5395 161.478 12.238 161.478 13.1853C161.478 14.3813 160.454 15.0511 158.827 15.0511C158.072 15.0511 157.545 14.7736 157.545 14.3048C157.545 13.9699 157.88 13.702 158.32 13.702C159.086 13.702 159.555 14.2856 159.612 15.099L160.301 14.9842C160.234 14.0177 159.593 13.1183 158.32 13.1183C157.44 13.1183 156.847 13.7115 156.847 14.3622C156.847 15.166 157.641 15.7305 158.942 15.7305C160.971 15.7305 162.243 14.7258 162.243 13.1853C162.243 11.8935 161.105 10.9462 159.516 10.9462C159.086 10.9462 158.627 10.9941 158.186 11.1376C158.933 10.5252 160.234 9.40567 160.703 9.04206C160.885 8.89853 161.076 8.77414 161.248 8.65932L160.808 8.09477C160.703 8.13304 160.569 8.15218 160.282 8.18089C159.775 8.22873 157.507 8.29571 157 8.29571C156.808 8.29571 156.541 8.28614 156.33 8.267Z" fill="white"/>
<path d="M161.708 0.239258H11.9598C5.48619 0.239258 0.238281 5.48716 0.238281 11.9608C0.238281 18.4344 5.48619 23.6823 11.9598 23.6823H161.708C168.182 23.6823 173.43 18.4344 173.43 11.9608C173.43 5.48716 168.182 0.239258 161.708 0.239258Z" stroke="#747775"/>
</g>
<defs>
<linearGradient id="paint0_linear_568_520" x1="16.5393" y1="14.7292" x2="8.96127" y2="23.4016" gradientUnits="userSpaceOnUse">
<stop stop-color="#4285F4"/>
<stop offset="1" stop-color="#1B74E8"/>
</linearGradient>
<clipPath id="clip0_568_520">
<rect width="173.67" height="23.9215" fill="white"/>
</clipPath>
</defs>
</svg>
