<svg width="174" height="42" viewBox="0 0 174 42" fill="none" xmlns="http://www.w3.org/2000/svg">
<g clip-path="url(#clip0_568_40)">
<path d="M152.721 0.380859H20.9451C9.5867 0.380859 0.378906 9.58865 0.378906 20.947C0.378906 32.3054 9.5867 41.5132 20.9451 41.5132H152.721C164.079 41.5132 173.287 32.3054 173.287 20.947C173.287 9.58865 164.079 0.380859 152.721 0.380859Z" fill="#1F1F1F"/>
<path d="M152.721 0.380859H20.9451C9.5867 0.380859 0.378906 9.58865 0.378906 20.947C0.378906 32.3054 9.5867 41.5132 20.9451 41.5132H152.721C164.079 41.5132 173.287 32.3054 173.287 20.947C173.287 9.58865 164.079 0.380859 152.721 0.380859Z" stroke="#747775"/>
<path d="M43.4177 18.122H15.9961V13.8217C15.9961 11.4873 18.0087 9.52148 20.3986 9.52148H39.0151C41.4051 9.52148 43.4177 11.4873 43.4177 13.8217V18.122Z" fill="#34A853"/>
<path d="M43.4177 22.0897H15.9961V17.5195C15.9961 15.0385 18.0087 12.9492 20.3986 12.9492H39.0151C41.4051 12.9492 43.4177 15.0385 43.4177 17.5195V22.0897Z" fill="#FBBC04"/>
<path d="M43.4177 25.8983H15.9961V21.3281C15.9961 18.8471 18.0087 16.7578 20.3986 16.7578H39.0151C41.4051 16.7578 43.4177 18.8471 43.4177 21.3281V25.8983Z" fill="#EA4335"/>
<path d="M15.9961 19.2262L33.4006 23.1578C35.4041 23.6492 37.6579 23.1578 39.2856 21.9292L43.4177 18.9805V28.1952C43.4177 30.5296 41.4143 32.3726 39.0352 32.3726H20.3785C17.9995 32.3726 15.9961 30.5296 15.9961 28.1952V19.2262Z" fill="#4285F4"/>
<path d="M55.4205 18.6725C54.9802 18.6725 54.5788 18.5862 54.2162 18.4135C53.8622 18.2408 53.5773 17.9387 53.3616 17.5071C53.1544 17.0668 53.0508 16.4625 53.0508 15.6942C53.0508 14.7705 53.2105 13.9849 53.5299 13.3375C53.858 12.69 54.3068 12.185 54.8766 11.8224C55.455 11.4512 56.1197 11.2354 56.8708 11.175L58.2563 11.0584V11.68L58.3211 11.7059C58.3901 11.6109 58.4851 11.516 58.6059 11.421C58.7268 11.3174 58.8865 11.2311 59.085 11.162C59.2922 11.0929 59.5383 11.0584 59.8231 11.0584C60.272 11.0584 60.6648 11.1664 61.0015 11.3821C61.3382 11.5893 61.6015 11.9346 61.7914 12.4181C61.9813 12.8928 62.0763 13.5317 62.0763 14.3345C62.0763 15.1719 61.9554 15.8798 61.7137 16.4582C61.4806 17.0366 61.131 17.4726 60.6648 17.766C60.2073 18.0595 59.6419 18.2063 58.9685 18.2063C58.6663 18.2063 58.4203 18.1804 58.2304 18.1286C58.0491 18.0768 57.911 18.0164 57.816 17.9473C57.7211 17.8696 57.6477 17.8049 57.5959 17.7531H57.5182C57.4405 17.874 57.3154 18.0077 57.1427 18.1545C56.9787 18.3013 56.7542 18.4264 56.4693 18.53C56.1931 18.625 55.8434 18.6725 55.4205 18.6725ZM55.6017 17.4812C55.8434 17.4812 56.0593 17.438 56.2492 17.3517C56.4391 17.2654 56.5902 17.1229 56.7024 16.9244C56.8146 16.7258 56.8708 16.4711 56.8708 16.1604V12.3792C56.396 12.4224 55.9773 12.5778 55.6147 12.8454C55.2607 13.1044 54.9802 13.4669 54.773 13.9331C54.5744 14.3907 54.4752 14.9475 54.4752 15.6035C54.4752 16.3114 54.5702 16.8035 54.7601 17.0797C54.9586 17.3473 55.2392 17.4812 55.6017 17.4812ZM59.0074 17.015C59.3008 17.015 59.5685 16.9373 59.8102 16.7819C60.0606 16.6179 60.2591 16.3546 60.4059 15.992C60.5612 15.6294 60.6389 15.1374 60.6389 14.5158C60.6389 13.9634 60.5915 13.5231 60.4965 13.195C60.4015 12.8669 60.2591 12.6296 60.0692 12.4828C59.8879 12.3274 59.6634 12.2497 59.3958 12.2497C59.0764 12.2497 58.8131 12.3318 58.6059 12.4958C58.4074 12.6598 58.2908 12.8799 58.2563 13.1562V16.0697C58.2563 16.3978 58.3038 16.6395 58.3987 16.7949C58.5023 16.9416 58.7052 17.015 59.0074 17.015ZM65.8763 14.464C65.9368 14.6798 66.0231 14.9086 66.1353 15.1503C66.2476 15.392 66.3727 15.6294 66.5108 15.8625C66.649 16.0956 66.7871 16.3157 66.9252 16.5229C67.072 16.7215 67.2058 16.8855 67.3266 17.015H70.1366C70.1193 17.1445 70.102 17.2955 70.0848 17.4682C70.0761 17.6409 70.0718 17.8308 70.0718 18.038C70.0718 18.1934 70.0805 18.3703 70.0977 18.5689C70.115 18.7675 70.1366 18.953 70.1625 19.1257C70.197 19.2897 70.2272 19.4149 70.2531 19.5012L68.8675 19.6437C68.8244 19.5487 68.7856 19.4149 68.751 19.2422C68.7165 19.0696 68.6863 18.884 68.6604 18.6854C68.6431 18.4868 68.6345 18.3099 68.6345 18.1545H64.4649C64.4649 18.284 64.4563 18.4394 64.439 18.6207C64.4304 18.802 64.4131 18.9789 64.3872 19.1516C64.3613 19.3243 64.3268 19.4624 64.2836 19.566L62.8851 19.4494C62.9197 19.3544 62.9455 19.2249 62.9628 19.0609C62.9887 18.897 63.006 18.7243 63.0146 18.543C63.0319 18.3531 63.0405 18.1848 63.0405 18.038C63.0405 17.8222 63.0319 17.6236 63.0146 17.4423C63.006 17.2524 62.993 17.11 62.9757 17.015H65.6432V16.9891C65.5483 16.8855 65.4101 16.7042 65.2289 16.4452C65.0562 16.1863 64.8792 15.8669 64.6979 15.487C64.5167 15.1071 64.3613 14.6798 64.2318 14.205C64.111 13.7216 64.0505 13.208 64.0505 12.6641C64.0505 11.585 64.3268 10.7606 64.8792 10.1908C65.4404 9.61246 66.2259 9.32324 67.236 9.32324C68.0216 9.32324 68.6043 9.53043 68.9841 9.9448C69.3726 10.3506 69.5668 10.8987 69.5668 11.5893C69.5668 12.2282 69.4028 12.7504 69.0747 13.1562C68.7553 13.5532 68.3151 13.8554 67.7539 14.0626C67.2015 14.2612 66.5756 14.3949 65.8763 14.464ZM65.5526 13.2857C66.1569 13.2425 66.649 13.1476 67.0288 13.0008C67.4086 12.8454 67.6849 12.6468 67.8575 12.4051C68.0388 12.1634 68.1294 11.8915 68.1294 11.5893C68.1294 11.2613 68.0431 11.0023 67.8705 10.8124C67.7065 10.6138 67.4561 10.5146 67.1194 10.5146C66.6187 10.5146 66.2217 10.6958 65.9281 11.0584C65.6346 11.421 65.4878 11.9476 65.4878 12.6382C65.4878 12.8022 65.4922 12.936 65.5008 13.0396C65.5181 13.1432 65.5354 13.2253 65.5526 13.2857Z" fill="white"/>
<path d="M80.0864 19.6312C79.4214 19.6312 78.796 19.5103 78.2088 19.2686C77.6215 19.027 77.1035 18.6903 76.6549 18.2586C76.2146 17.8184 75.865 17.3047 75.606 16.7177C75.3556 16.122 75.2305 15.4789 75.2305 14.7883C75.2305 14.0976 75.3556 13.4589 75.606 12.8718C75.865 12.2761 76.2146 11.7625 76.6549 11.3309C77.1035 10.8906 77.6215 10.5496 78.2088 10.3079C78.796 10.0662 79.4214 9.94531 80.0864 9.94531C80.794 9.94531 81.446 10.0705 82.0417 10.3208C82.6457 10.5712 83.1507 10.9208 83.5567 11.3697L82.5726 12.3409C82.3738 12.1164 82.1453 11.9265 81.8863 11.7711C81.6357 11.6157 81.36 11.4992 81.0576 11.4215C80.7552 11.3352 80.4314 11.292 80.0864 11.292C79.6286 11.292 79.1929 11.3741 78.7785 11.538C78.3641 11.702 77.997 11.9395 77.6778 12.2502C77.3671 12.5524 77.121 12.9193 76.9397 13.3509C76.7585 13.7739 76.6678 14.253 76.6678 14.7883C76.6678 15.3235 76.7585 15.8069 76.9397 16.2386C77.1294 16.6615 77.38 17.0285 77.6908 17.3392C78.01 17.6414 78.3771 17.8745 78.7915 18.0385C79.2058 18.2025 79.6415 18.2845 80.0993 18.2845C80.5221 18.2845 80.9151 18.2241 81.2777 18.1032C81.6486 17.9823 81.9724 17.8097 82.2489 17.5853C82.5254 17.3608 82.7493 17.0889 82.9222 16.7695C83.0951 16.4414 83.2025 16.0746 83.246 15.6688H80.0734V14.4127H84.5797C84.5972 14.5163 84.614 14.6372 84.6315 14.7753C84.649 14.9048 84.6574 15.03 84.6574 15.1508V15.1638C84.6574 15.8285 84.5409 16.4371 84.3078 16.9896C84.0831 17.5421 83.7685 18.0169 83.3625 18.414C82.9565 18.8025 82.4736 19.1047 81.9122 19.3204C81.36 19.5276 80.7513 19.6312 80.0864 19.6312ZM88.827 19.6312C88.1453 19.6312 87.545 19.4758 87.0271 19.1651C86.5091 18.8543 86.1031 18.4356 85.8099 17.909C85.5166 17.3737 85.3696 16.7781 85.3696 16.122C85.3696 15.466 85.5166 14.8746 85.8099 14.348C86.1031 13.8127 86.5091 13.3898 87.0271 13.079C87.545 12.7682 88.1453 12.6128 88.827 12.6128C89.5004 12.6128 90.096 12.7726 90.614 13.0919C91.1319 13.4027 91.5379 13.8214 91.8312 14.348C92.1244 14.8746 92.2715 15.466 92.2715 16.122C92.2715 16.7781 92.1244 17.3737 91.8312 17.909C91.5379 18.4356 91.1319 18.8543 90.614 19.1651C90.096 19.4758 89.5004 19.6312 88.827 19.6312ZM88.827 18.3493C89.1896 18.3493 89.5263 18.263 89.837 18.0903C90.1478 17.909 90.3984 17.6544 90.5881 17.3263C90.7869 16.9896 90.8859 16.5882 90.8859 16.122C90.8859 15.6559 90.7869 15.2588 90.5881 14.9307C90.3984 14.594 90.1478 14.3394 89.837 14.1667C89.5263 13.9854 89.1896 13.8948 88.827 13.8948C88.4644 13.8948 88.1232 13.9854 87.804 14.1667C87.4933 14.3394 87.2388 14.594 87.04 14.9307C86.8504 15.2588 86.7551 15.6559 86.7551 16.122C86.7551 16.5882 86.8504 16.9896 87.04 17.3263C87.2388 17.6544 87.4978 17.909 87.817 18.0903C88.1361 18.263 88.4728 18.3493 88.827 18.3493ZM96.6673 19.6312C95.9856 19.6312 95.3853 19.4758 94.8674 19.1651C94.3494 18.8543 93.9434 18.4356 93.6502 17.909C93.3569 17.3737 93.2099 16.7781 93.2099 16.122C93.2099 15.466 93.3569 14.8746 93.6502 14.348C93.9434 13.8127 94.3494 13.3898 94.8674 13.079C95.3853 12.7682 95.9856 12.6128 96.6673 12.6128C97.3406 12.6128 97.9363 12.7726 98.4543 13.0919C98.9722 13.4027 99.3782 13.8214 99.6715 14.348C99.9647 14.8746 100.112 15.466 100.112 16.122C100.112 16.7781 99.9647 17.3737 99.6715 17.909C99.3782 18.4356 98.9722 18.8543 98.4543 19.1651C97.9363 19.4758 97.3406 19.6312 96.6673 19.6312ZM96.6673 18.3493C97.0299 18.3493 97.3665 18.263 97.6773 18.0903C97.9881 17.909 98.2387 17.6544 98.4284 17.3263C98.6272 16.9896 98.7262 16.5882 98.7262 16.122C98.7262 15.6559 98.6272 15.2588 98.4284 14.9307C98.2387 14.594 97.9881 14.3394 97.6773 14.1667C97.3665 13.9854 97.0299 13.8948 96.6673 13.8948C96.3047 13.8948 95.9635 13.9854 95.6443 14.1667C95.3335 14.3394 95.0791 14.594 94.8803 14.9307C94.6906 15.2588 94.5954 15.6559 94.5954 16.122C94.5954 16.5882 94.6906 16.9896 94.8803 17.3263C95.0791 17.6544 95.3381 17.909 95.6573 18.0903C95.9764 18.263 96.3131 18.3493 96.6673 18.3493ZM104.378 22.4282C103.799 22.4282 103.299 22.3332 102.876 22.1433C102.462 21.9621 102.125 21.7246 101.866 21.4311C101.607 21.1463 101.421 20.8528 101.309 20.5506L102.604 20.0067C102.742 20.352 102.962 20.6326 103.264 20.8484C103.575 21.0729 103.946 21.1851 104.378 21.1851C104.991 21.1851 105.47 21.0038 105.815 20.6413C106.16 20.2787 106.333 19.7651 106.333 19.1003V18.4658H106.256C106.049 18.768 105.764 19.014 105.401 19.2039C105.038 19.3938 104.62 19.4888 104.145 19.4888C103.584 19.4888 103.066 19.3463 102.591 19.0615C102.125 18.7766 101.749 18.3795 101.465 17.8701C101.188 17.3522 101.05 16.7479 101.05 16.0573C101.05 15.358 101.188 14.7538 101.465 14.2444C101.749 13.7264 102.125 13.325 102.591 13.0401C103.066 12.7553 103.584 12.6128 104.145 12.6128C104.62 12.6128 105.038 12.7078 105.401 12.8977C105.764 13.079 106.049 13.3294 106.256 13.6487H106.333V12.82H107.667V19.0744C107.667 19.791 107.525 20.3996 107.24 20.9002C106.963 21.4009 106.579 21.7808 106.087 22.0398C105.595 22.2987 105.026 22.4282 104.378 22.4282ZM104.391 18.2198C104.736 18.2198 105.055 18.1377 105.349 17.9737C105.651 17.8011 105.889 17.555 106.061 17.2356C106.243 16.9076 106.333 16.5148 106.333 16.0573C106.333 15.5738 106.243 15.1724 106.061 14.853C105.889 14.5336 105.651 14.2919 105.349 14.1279C105.055 13.9639 104.736 13.8818 104.391 13.8818C104.045 13.8818 103.721 13.9639 103.42 14.1279C103.126 14.2919 102.889 14.5379 102.708 14.866C102.526 15.1853 102.436 15.5825 102.436 16.0573C102.436 16.5234 102.526 16.9205 102.708 17.2486C102.889 17.568 103.126 17.8097 103.42 17.9737C103.721 18.1377 104.045 18.2198 104.391 18.2198ZM109.316 19.424V10.1525H110.715V19.424H109.316ZM115.317 19.6312C114.67 19.6312 114.091 19.4802 113.582 19.178C113.073 18.8758 112.672 18.4615 112.378 17.9349C112.093 17.4083 111.95 16.8083 111.95 16.135C111.95 15.5048 112.089 14.9221 112.365 14.3868C112.641 13.8516 113.025 13.4243 113.517 13.1049C114.018 12.7768 114.592 12.6128 115.239 12.6128C115.922 12.6128 116.5 12.7596 116.974 13.0531C117.458 13.3466 117.825 13.748 118.075 14.2574C118.326 14.7667 118.451 15.3407 118.451 15.9796C118.451 16.0746 118.447 16.1609 118.438 16.2386C118.438 16.3163 118.434 16.3767 118.425 16.4199H113.323C113.358 16.7824 113.449 17.0975 113.595 17.3651C113.785 17.7018 114.035 17.9564 114.346 18.1291C114.657 18.3018 114.993 18.3881 115.356 18.3881C115.796 18.3881 116.163 18.2889 116.457 18.0903C116.759 17.8831 116.997 17.6285 117.169 17.3263L118.321 17.8831C118.036 18.4011 117.648 18.824 117.156 19.1521C116.664 19.4715 116.051 19.6312 115.317 19.6312ZM113.401 15.371H117.065C117.057 15.207 117.013 15.0343 116.936 14.853C116.858 14.6631 116.746 14.4904 116.599 14.3351C116.453 14.1797 116.267 14.0545 116.042 13.9595C115.818 13.8559 115.555 13.8041 115.252 13.8041C114.873 13.8041 114.536 13.9034 114.242 14.102C113.949 14.2919 113.72 14.5595 113.556 14.9048C113.487 15.0516 113.436 15.207 113.401 15.371ZM124.143 19.424L121.657 10.1525H123.237L124.713 16.1738L124.868 16.9767H124.946L125.14 16.1738L127.005 10.1525H128.429L130.216 16.1738L130.41 16.9637H130.488L130.643 16.1738L132.12 10.1525H133.686L131.239 19.424H129.737L127.963 13.2732L127.756 12.4056H127.678L127.458 13.2732L125.606 19.424H124.143ZM136.287 19.6312C135.812 19.6312 135.389 19.5362 135.018 19.3463C134.655 19.1564 134.366 18.8975 134.15 18.5694C133.943 18.2327 133.84 17.8486 133.84 17.4169C133.84 16.9422 133.961 16.5407 134.202 16.2127C134.453 15.8846 134.785 15.6343 135.199 15.4616C135.614 15.2889 136.071 15.2026 136.572 15.2026C136.848 15.2026 137.103 15.2242 137.336 15.2674C137.577 15.3019 137.784 15.3451 137.957 15.3969C138.139 15.4487 138.281 15.5048 138.385 15.5652V15.2156C138.385 14.7839 138.229 14.4386 137.918 14.1797C137.608 13.9207 137.206 13.7912 136.714 13.7912C136.378 13.7912 136.058 13.8689 135.756 14.0243C135.454 14.1711 135.212 14.3739 135.031 14.6329L134.073 13.8948C134.262 13.6272 134.492 13.3984 134.759 13.2085C135.035 13.0186 135.342 12.8718 135.678 12.7682C136.023 12.6646 136.382 12.6128 136.753 12.6128C137.711 12.6128 138.449 12.8502 138.967 13.325C139.485 13.7912 139.744 14.4472 139.744 15.2933V19.424H138.385V18.6082H138.307C138.195 18.7809 138.04 18.9449 137.841 19.1003C137.651 19.2557 137.422 19.3808 137.154 19.4758C136.896 19.5794 136.606 19.6312 136.287 19.6312ZM136.533 18.4917C136.896 18.4917 137.215 18.4054 137.491 18.2327C137.776 18.06 137.996 17.8356 138.152 17.5594C138.307 17.2745 138.385 16.9681 138.385 16.64C138.195 16.5278 137.962 16.4371 137.685 16.3681C137.418 16.2904 137.133 16.2515 136.831 16.2515C136.261 16.2515 135.855 16.3637 135.614 16.5882C135.372 16.8127 135.251 17.0932 135.251 17.4299C135.251 17.7407 135.368 17.9953 135.601 18.1939C135.834 18.3925 136.144 18.4917 136.533 18.4917ZM141.297 19.424V10.1525H142.695V19.424H141.297ZM144.357 19.424V10.1525H145.756V19.424H144.357ZM150.358 19.6312C149.711 19.6312 149.132 19.4802 148.623 19.178C148.114 18.8758 147.713 18.4615 147.419 17.9349C147.134 17.4083 146.991 16.8083 146.991 16.135C146.991 15.5048 147.13 14.9221 147.406 14.3868C147.682 13.8516 148.066 13.4243 148.558 13.1049C149.059 12.7768 149.633 12.6128 150.28 12.6128C150.963 12.6128 151.541 12.7596 152.015 13.0531C152.499 13.3466 152.866 13.748 153.116 14.2574C153.367 14.7667 153.492 15.3407 153.492 15.9796C153.492 16.0746 153.488 16.1609 153.479 16.2386C153.479 16.3163 153.475 16.3767 153.466 16.4199H148.364C148.399 16.7824 148.49 17.0975 148.636 17.3651C148.826 17.7018 149.076 17.9564 149.387 18.1291C149.698 18.3018 150.034 18.3881 150.397 18.3881C150.837 18.3881 151.204 18.2889 151.498 18.0903C151.8 17.8831 152.038 17.6285 152.21 17.3263L153.362 17.8831C153.077 18.4011 152.689 18.824 152.197 19.1521C151.705 19.4715 151.092 19.6312 150.358 19.6312ZM148.442 15.371H152.106C152.098 15.207 152.054 15.0343 151.977 14.853C151.899 14.6631 151.787 14.4904 151.64 14.3351C151.494 14.1797 151.308 14.0545 151.083 13.9595C150.859 13.8559 150.596 13.8041 150.293 13.8041C149.914 13.8041 149.577 13.9034 149.283 14.102C148.99 14.2919 148.761 14.5595 148.597 14.9048C148.528 15.0516 148.477 15.207 148.442 15.371ZM154.147 12.82H155.299V10.9553H156.698V12.82H158.316V14.0372H156.698V17.2097C156.698 17.5378 156.762 17.7881 156.892 17.9608C157.03 18.1335 157.258 18.2198 157.578 18.2198C157.734 18.2198 157.871 18.1982 157.993 18.155C158.113 18.1032 158.234 18.0428 158.355 17.9737V19.3334C158.208 19.3938 158.053 19.4413 157.889 19.4758C157.724 19.5103 157.53 19.5276 157.306 19.5276C156.693 19.5276 156.206 19.3507 155.843 18.9967C155.48 18.6341 155.299 18.1377 155.299 17.5076V14.0372H154.147V12.82Z" fill="white"/>
<path d="M53.498 31.6609C53.3396 31.6807 53.2042 31.6443 53.092 31.552C52.9864 31.4596 52.9336 31.278 52.9336 31.0073C52.9336 30.664 52.9996 30.2845 53.1316 29.8686C53.2636 29.4461 53.4353 29.0236 53.6466 28.6011C53.8578 28.172 54.0855 27.7627 54.3298 27.3732C54.5741 26.9771 54.8018 26.6305 55.0131 26.3335L54.9933 26.3038H54.0129V24.7689C54.0129 24.5709 53.9964 24.4058 53.9634 24.2738C53.937 24.1352 53.8941 24.0196 53.8347 23.9272C53.7819 23.8282 53.706 23.7424 53.6069 23.6698L54.6071 23.6005C54.7985 23.5873 54.9272 23.6665 54.9933 23.8381C55.0593 24.0097 55.0923 24.3068 55.0923 24.7293V25.4225H56.8549L56.8846 25.4918C56.6667 25.7492 56.439 26.043 56.2013 26.3731C55.9703 26.6966 55.7458 27.0333 55.528 27.3831L55.5478 27.4128C55.7128 27.36 55.9075 27.3105 56.132 27.2643C56.3565 27.218 56.5809 27.195 56.8054 27.195C57.0034 27.195 57.1618 27.2378 57.2807 27.3237C57.4061 27.4095 57.5084 27.5646 57.5876 27.7891C57.6669 28.0069 57.7395 28.3172 57.8055 28.7199L58.1521 30.6707C58.1851 30.8687 58.228 31.0304 58.2808 31.1559C58.3336 31.2747 58.3897 31.3671 58.4491 31.4331C58.5152 31.4992 58.5811 31.5487 58.6472 31.5817L57.7362 31.6708C57.6042 31.684 57.4985 31.6708 57.4193 31.6312C57.3401 31.5982 57.274 31.5123 57.2213 31.3737C57.1685 31.2285 57.1156 31.0007 57.0628 30.6905L56.7261 28.7199C56.6932 28.5285 56.637 28.38 56.5578 28.2743C56.4852 28.1621 56.3333 28.106 56.1023 28.106C55.8778 28.106 55.6567 28.1357 55.4389 28.1951C55.2276 28.2479 55.0725 28.2941 54.9734 28.3337C54.8942 28.4657 54.8018 28.6407 54.6962 28.8585C54.5905 29.0698 54.485 29.3009 54.3793 29.5517C54.2803 29.8025 54.1945 30.0534 54.1219 30.3043C54.0558 30.5551 54.0228 30.7895 54.0228 31.0073C54.0228 31.1922 54.0459 31.3242 54.0922 31.4034C54.1449 31.4826 54.2143 31.542 54.3001 31.5817L53.498 31.6609ZM60.5647 31.6609C60.4657 31.6675 60.3865 31.6542 60.3271 31.6213C60.2743 31.5883 60.2215 31.5289 60.1686 31.443C60.1092 31.3308 60.0531 31.1724 60.0003 30.9677C59.9541 30.763 59.931 30.5353 59.931 30.2845C59.931 29.829 59.9871 29.4527 60.0993 29.1556C60.2116 28.8585 60.3172 28.6473 60.4162 28.5219H59.6834C59.7032 27.8485 59.8319 27.261 60.0696 26.7593C60.2478 26.383 60.4789 26.0694 60.7628 25.8186H60.1092V24.4322C60.1092 24.1352 60.0762 23.9074 60.0102 23.749C59.9508 23.5906 59.8485 23.4519 59.7032 23.3331L60.7033 23.2638C60.8288 23.2506 60.9278 23.2803 61.0004 23.3529C61.0731 23.4255 61.1226 23.5477 61.1489 23.7193C61.1754 23.8843 61.1886 24.1087 61.1886 24.3926V25.5116C61.5846 25.2871 62.0468 25.1749 62.5749 25.1749C63.3011 25.1749 63.8225 25.3631 64.1394 25.7393C64.4629 26.1156 64.6246 26.6768 64.6246 27.4227C64.6246 27.865 64.5983 28.3073 64.5454 28.7496C64.4926 29.1919 64.4662 29.6441 64.4662 30.1062C64.4662 30.4561 64.4894 30.7301 64.5355 30.9281C64.5817 31.1195 64.6412 31.2615 64.7137 31.3539C64.7864 31.4463 64.859 31.5222 64.9316 31.5817L63.9216 31.6609C63.8027 31.6741 63.7037 31.6378 63.6245 31.552C63.5453 31.4661 63.4826 31.3143 63.4364 31.0964C63.3968 30.872 63.3769 30.5585 63.3769 30.1557C63.3769 29.6606 63.4034 29.2051 63.4562 28.7892C63.5156 28.3733 63.5453 27.9542 63.5453 27.5316C63.5453 27.0234 63.4595 26.6635 63.2878 26.4523C63.1162 26.2345 62.8456 26.1255 62.4758 26.1255C62.1656 26.1255 61.9015 26.1948 61.6837 26.3335C61.4658 26.4721 61.2909 26.6602 61.1588 26.8979C61.0335 27.1289 60.9476 27.3996 60.9014 27.7099H62.2184C62.0336 27.8683 61.8487 28.0696 61.6639 28.3139C61.4791 28.5516 61.3239 28.8256 61.1985 29.1358C61.0796 29.446 61.0202 29.796 61.0202 30.1854C61.0202 30.5485 61.0731 30.839 61.1786 31.0568C61.2843 31.2747 61.4064 31.4497 61.545 31.5817L60.5647 31.6609ZM67.4027 28.8189L67.4423 28.8486C67.4951 28.8288 67.5776 28.8024 67.6898 28.7694C67.8087 28.7364 67.977 28.7199 68.1948 28.7199C68.4458 28.7199 68.6834 28.7661 68.9078 28.8585C69.1323 28.9509 69.3171 29.1061 69.4623 29.3239C69.6076 29.5418 69.6802 29.8356 69.6802 30.2052C69.6802 30.5551 69.6043 30.8489 69.4524 31.0865C69.3072 31.3176 69.1026 31.4893 68.8385 31.6015C68.5745 31.7137 68.2675 31.7698 67.9176 31.7698C67.5677 31.7698 67.264 31.7137 67.0066 31.6015C66.7491 31.4826 66.5511 31.2714 66.4124 30.9677C66.2738 30.664 66.2045 30.2382 66.2045 29.6903C66.2045 29.116 66.3069 28.5615 66.5115 28.0268C66.7161 27.492 66.9934 27.0035 67.3433 26.5612C67.6932 26.1123 68.0893 25.7361 68.5315 25.4324L68.2741 24.056L69.3534 23.8579L69.6208 25.373C70.0235 25.6172 70.3337 25.9143 70.5516 26.2642C70.7694 26.614 70.9378 27.02 71.0566 27.4821C71.182 27.9443 71.2877 28.4625 71.3735 29.0368L71.621 30.6112C71.6541 30.8159 71.6937 30.9809 71.7398 31.1064C71.7927 31.2252 71.8521 31.3209 71.9181 31.3935C71.9841 31.4596 72.0567 31.5222 72.1359 31.5817L71.2348 31.6708C71.1028 31.684 70.9906 31.6708 70.8982 31.6312C70.8124 31.5982 70.7397 31.5091 70.6803 31.3638C70.6275 31.2185 70.578 30.9974 70.5318 30.7004L70.304 29.1655C70.1918 28.3733 70.0433 27.7429 69.8584 27.2742C69.6736 26.7989 69.4261 26.4721 69.1158 26.2939C68.8914 26.4259 68.6801 26.5976 68.482 26.8088C68.2906 27.0135 68.119 27.2378 67.9671 27.4821C67.8153 27.7264 67.6898 27.9641 67.5908 28.1951C67.4918 28.4261 67.4291 28.6341 67.4027 28.8189ZM67.9176 30.8885C68.1091 30.8885 68.2675 30.8324 68.3929 30.7202C68.5183 30.608 68.581 30.4462 68.581 30.235C68.581 30.0171 68.5216 29.8587 68.4028 29.7596C68.284 29.654 68.1289 29.6012 67.9374 29.6012C67.7658 29.6012 67.6271 29.6243 67.5215 29.6705C67.4159 29.7101 67.34 29.7497 67.2937 29.7894C67.2937 29.9214 67.3004 30.0534 67.3135 30.1854C67.3268 30.3109 67.3532 30.4297 67.3928 30.5419C67.4324 30.6476 67.4918 30.7333 67.571 30.7994C67.6568 30.8588 67.7724 30.8885 67.9176 30.8885Z" fill="white"/>
</g>
<defs>
<clipPath id="clip0_568_40">
<rect width="173.67" height="41.8941" fill="white"/>
</clipPath>
</defs>
</svg>
