<svg width="174" height="27" viewBox="0 0 174 27" fill="none" xmlns="http://www.w3.org/2000/svg">
<g clip-path="url(#clip0_568_1097)">
<path d="M160.552 0.261719H13.1164C6.01698 0.261719 0.261719 6.01698 0.261719 13.1164C0.261719 20.2159 6.01698 25.9712 13.1164 25.9712H160.552C167.652 25.9712 173.407 20.2159 173.407 13.1164C173.407 6.01698 167.652 0.261719 160.552 0.261719Z" fill="#1F1F1F"/>
<path d="M160.552 0.261719H13.1164C6.01698 0.261719 0.261719 6.01698 0.261719 13.1164C0.261719 20.2159 6.01698 25.9712 13.1164 25.9712H160.552C167.652 25.9712 173.407 20.2159 173.407 13.1164C173.407 6.01698 167.652 0.261719 160.552 0.261719Z" stroke="#747775"/>
<path d="M26.76 11.5437H11.0195V8.92029C11.0195 7.49614 12.1748 6.29688 13.5467 6.29688H24.2329C25.6048 6.29688 26.76 7.49614 26.76 8.92029V11.5437Z" fill="#34A853"/>
<path d="M26.76 13.6707H11.0195V11.0472C11.0195 9.6231 12.1748 8.42383 13.5467 8.42383H24.2329C25.6048 8.42383 26.76 9.6231 26.76 11.0472V13.6707Z" fill="#FBBC04"/>
<path d="M26.76 15.8699H11.0195V13.2465C11.0195 11.8223 12.1748 10.623 13.5467 10.623H24.2329C25.6048 10.623 26.76 11.8223 26.76 13.2465V15.8699Z" fill="#EA4335"/>
<path d="M11.0195 12.2128L21.0101 14.5233C22.1601 14.8121 23.4538 14.5233 24.3882 13.8013L26.76 12.0684V17.4837C26.76 18.8555 25.61 19.9386 24.2444 19.9386H13.5351C12.1695 19.9386 11.0195 18.8555 11.0195 17.4837V12.2128Z" fill="#4285F4"/>
<path d="M37.4625 16.9586C36.9238 16.9586 36.4166 16.8607 35.9409 16.6648C35.4652 16.4689 35.0454 16.1961 34.6816 15.8463C34.3249 15.4895 34.0415 15.0733 33.8317 14.5976C33.6288 14.1148 33.5273 13.5937 33.5273 13.034C33.5273 12.4743 33.6288 11.9567 33.8317 11.4809C34.0415 10.9982 34.3249 10.582 34.6816 10.2322C35.0454 9.87541 35.4652 9.59906 35.9409 9.4032C36.4166 9.20733 36.9238 9.10938 37.4625 9.10938C38.0361 9.10938 38.5643 9.2108 39.047 9.41369C39.5367 9.61659 39.9459 9.89991 40.2748 10.2637L39.4772 11.0507C39.3163 10.8688 39.131 10.7149 38.9211 10.589C38.7182 10.4631 38.4944 10.3686 38.2495 10.3057C38.0046 10.2357 37.7423 10.2007 37.4625 10.2007C37.0917 10.2007 36.7384 10.2672 36.4026 10.4001C36.0668 10.533 35.7695 10.7254 35.5106 10.9772C35.2588 11.2221 35.0594 11.5194 34.9125 11.8692C34.7656 12.212 34.6921 12.6002 34.6921 13.034C34.6921 13.4678 34.7656 13.8595 34.9125 14.2093C35.0664 14.5521 35.2693 14.8494 35.5211 15.1013C35.78 15.3461 36.0773 15.535 36.4131 15.6679C36.7489 15.8008 37.1022 15.8673 37.473 15.8673C37.8157 15.8673 38.1341 15.8183 38.4279 15.7204C38.7287 15.6224 38.991 15.4825 39.2149 15.3006C39.4388 15.1187 39.6206 14.8984 39.7606 14.6395C39.9005 14.3737 39.9879 14.0764 40.0229 13.7476H37.452V12.7297H41.1038C41.1178 12.8136 41.1317 12.9116 41.1457 13.0235C41.1597 13.1284 41.1667 13.2299 41.1667 13.3278V13.3383C41.1667 13.877 41.0723 14.3702 40.8834 14.8179C40.7015 15.2656 40.4462 15.6504 40.1174 15.9722C39.7885 16.287 39.3968 16.5319 38.9421 16.7068C38.4944 16.8747 38.0012 16.9586 37.4625 16.9586ZM44.5456 16.9586C43.9929 16.9586 43.5067 16.8327 43.087 16.5809C42.6672 16.329 42.3384 15.9897 42.1006 15.563C41.8627 15.1292 41.7438 14.6465 41.7438 14.1148C41.7438 13.5832 41.8627 13.1039 42.1006 12.6772C42.3384 12.2435 42.6672 11.9007 43.087 11.6488C43.5067 11.397 43.9929 11.2711 44.5456 11.2711C45.0912 11.2711 45.574 11.4005 45.9937 11.6593C46.4134 11.9112 46.7423 12.2505 46.9801 12.6772C47.218 13.1039 47.3369 13.5832 47.3369 14.1148C47.3369 14.6465 47.218 15.1292 46.9801 15.563C46.7423 15.9897 46.4134 16.329 45.9937 16.5809C45.574 16.8327 45.0912 16.9586 44.5456 16.9586ZM44.5456 15.9198C44.8394 15.9198 45.1122 15.8498 45.3641 15.7099C45.6159 15.563 45.8188 15.3566 45.9727 15.0908C46.1336 14.8179 46.2141 14.4926 46.2141 14.1148C46.2141 13.7371 46.1336 13.4153 45.9727 13.1494C45.8188 12.8766 45.6159 12.6702 45.3641 12.5303C45.1122 12.3834 44.8394 12.3099 44.5456 12.3099C44.2518 12.3099 43.9755 12.3834 43.7166 12.5303C43.4647 12.6702 43.2584 12.8766 43.0975 13.1494C42.9436 13.4153 42.8666 13.7371 42.8666 14.1148C42.8666 14.4926 42.9436 14.8179 43.0975 15.0908C43.2584 15.3566 43.4682 15.563 43.7271 15.7099C43.9859 15.8498 44.2588 15.9198 44.5456 15.9198ZM50.8992 16.9586C50.3465 16.9586 49.8603 16.8327 49.4406 16.5809C49.0208 16.329 48.692 15.9897 48.4541 15.563C48.2163 15.1292 48.0974 14.6465 48.0974 14.1148C48.0974 13.5832 48.2163 13.1039 48.4541 12.6772C48.692 12.2435 49.0208 11.9007 49.4406 11.6488C49.8603 11.397 50.3465 11.2711 50.8992 11.2711C51.4448 11.2711 51.9275 11.4005 52.3473 11.6593C52.7669 11.9112 53.0959 12.2505 53.3336 12.6772C53.5718 13.1039 53.6904 13.5832 53.6904 14.1148C53.6904 14.6465 53.5718 15.1292 53.3336 15.563C53.0959 15.9897 52.7669 16.329 52.3473 16.5809C51.9275 16.8327 51.4448 16.9586 50.8992 16.9586ZM50.8992 15.9198C51.193 15.9198 51.4658 15.8498 51.7177 15.7099C51.9695 15.563 52.1724 15.3566 52.3263 15.0908C52.4873 14.8179 52.5676 14.4926 52.5676 14.1148C52.5676 13.7371 52.4873 13.4153 52.3263 13.1494C52.1724 12.8766 51.9695 12.6702 51.7177 12.5303C51.4658 12.3834 51.193 12.3099 50.8992 12.3099C50.6053 12.3099 50.329 12.3834 50.0702 12.5303C49.8183 12.6702 49.612 12.8766 49.451 13.1494C49.2972 13.4153 49.2202 13.7371 49.2202 14.1148C49.2202 14.4926 49.2972 14.8179 49.451 15.0908C49.612 15.3566 49.8218 15.563 50.0807 15.7099C50.3395 15.8498 50.6124 15.9198 50.8992 15.9198ZM57.148 19.2253C56.679 19.2253 56.2734 19.1483 55.9308 18.9944C55.595 18.8475 55.3221 18.6551 55.1123 18.4172C54.9024 18.1864 54.7518 17.9485 54.661 17.7037L55.7104 17.2629C55.8222 17.5428 56.0006 17.7702 56.2456 17.945C56.4974 18.1269 56.7981 18.2179 57.148 18.2179C57.6444 18.2179 58.0327 18.071 58.3128 17.7771C58.5925 17.4833 58.7326 17.0671 58.7326 16.5284V16.0142H58.6696C58.5017 16.2591 58.2709 16.4584 57.977 16.6123C57.6832 16.7662 57.3437 16.8432 56.9591 16.8432C56.5042 16.8432 56.0845 16.7278 55.6999 16.4969C55.3221 16.266 55.0178 15.9443 54.787 15.5315C54.5629 15.1117 54.4512 14.6221 54.4512 14.0624C54.4512 13.4957 54.5629 13.006 54.787 12.5933C55.0178 12.1735 55.3221 11.8482 55.6999 11.6174C56.0845 11.3865 56.5042 11.2711 56.9591 11.2711C57.3437 11.2711 57.6832 11.348 57.977 11.5019C58.2709 11.6488 58.5017 11.8517 58.6696 12.1106H58.7326V11.439H59.8134V16.5074C59.8134 17.0881 59.698 17.5813 59.4671 17.987C59.2431 18.3927 58.932 18.7006 58.5332 18.9104C58.1344 19.1203 57.6727 19.2253 57.148 19.2253ZM57.1585 15.8148C57.4382 15.8148 57.6969 15.7483 57.9351 15.6154C58.1796 15.4755 58.3721 15.2761 58.5122 15.0173C58.6591 14.7514 58.7326 14.4332 58.7326 14.0624C58.7326 13.6706 58.6591 13.3453 58.5122 13.0865C58.3721 12.8276 58.1796 12.6317 57.9351 12.4988C57.6969 12.3659 57.4382 12.2994 57.1585 12.2994C56.8784 12.2994 56.616 12.3659 56.3715 12.4988C56.1333 12.6317 55.9413 12.8311 55.7944 13.097C55.6474 13.3558 55.574 13.6776 55.574 14.0624C55.574 14.4402 55.6474 14.7619 55.7944 15.0278C55.9413 15.2866 56.1333 15.4825 56.3715 15.6154C56.616 15.7483 56.8784 15.8148 57.1585 15.8148ZM61.1498 16.7907V9.27727H62.2831V16.7907H61.1498ZM66.0131 16.9586C65.4884 16.9586 65.0193 16.8362 64.6069 16.5914C64.194 16.3465 63.8687 16.0107 63.631 15.584C63.4002 15.1572 63.2847 14.671 63.2847 14.1253C63.2847 13.6147 63.3965 13.1425 63.6205 12.7087C63.844 12.2749 64.1557 11.9287 64.5545 11.6698C64.96 11.404 65.4254 11.2711 65.9501 11.2711C66.5026 11.2711 66.9711 11.39 67.3563 11.6279C67.7477 11.8657 68.0452 12.191 68.2482 12.6038C68.4508 13.0165 68.5525 13.4817 68.5525 13.9994C68.5525 14.0764 68.5489 14.1463 68.542 14.2093C68.542 14.2723 68.5384 14.3212 68.5316 14.3562H64.3971C64.4249 14.65 64.4983 14.9054 64.6174 15.1222C64.7712 15.3951 64.9742 15.6014 65.2261 15.7414C65.4779 15.8813 65.7507 15.9512 66.0446 15.9512C66.4013 15.9512 66.6983 15.8708 66.9365 15.7099C67.181 15.542 67.3736 15.3356 67.5137 15.0908L68.4476 15.542C68.2167 15.9617 67.9019 16.3045 67.5032 16.5704C67.1044 16.8292 66.6075 16.9586 66.0131 16.9586ZM64.46 13.5062H67.4297C67.4224 13.3733 67.3877 13.2334 67.3248 13.0865C67.2618 12.9326 67.1705 12.7926 67.0519 12.6667C66.9328 12.5408 66.7823 12.4394 66.6007 12.3624C66.4187 12.2785 66.2051 12.2365 65.9606 12.2365C65.6526 12.2365 65.3798 12.3169 65.1421 12.4778C64.9039 12.6317 64.7187 12.8486 64.5859 13.1284C64.5298 13.2474 64.4878 13.3733 64.46 13.5062ZM73.165 16.7907L71.1502 9.27727H72.4305L73.6267 14.1568L73.7527 14.8074H73.8156L73.973 14.1568L75.4841 9.27727H76.6384L78.0866 14.1568L78.244 14.7969H78.3069L78.4328 14.1568L79.6291 9.27727H80.8989L78.9156 16.7907H77.6983L76.2607 11.8062L76.0928 11.1032H76.0298L75.8514 11.8062L74.3508 16.7907H73.165ZM83.006 16.9586C82.6214 16.9586 82.2788 16.8817 81.9776 16.7278C81.6838 16.5739 81.4498 16.364 81.2745 16.0981C81.1066 15.8253 81.0227 15.514 81.0227 15.1642C81.0227 14.7795 81.1208 14.4542 81.3165 14.1883C81.5195 13.9224 81.7887 13.7196 82.1245 13.5797C82.4603 13.4397 82.8313 13.3698 83.2368 13.3698C83.4609 13.3698 83.6671 13.3873 83.856 13.4223C84.0522 13.4502 84.2201 13.4852 84.3597 13.5272C84.5066 13.5692 84.622 13.6147 84.7059 13.6636V13.3803C84.7059 13.0305 84.58 12.7507 84.3282 12.5408C84.0763 12.3309 83.751 12.226 83.3523 12.226C83.0794 12.226 82.8208 12.289 82.5757 12.4149C82.3312 12.5338 82.135 12.6982 81.9881 12.9081L81.2116 12.3099C81.3658 12.0931 81.551 11.9077 81.7677 11.7538C81.9918 11.5999 82.2399 11.4809 82.5128 11.397C82.793 11.313 83.0831 11.2711 83.3837 11.2711C84.1603 11.2711 84.7584 11.4635 85.1782 11.8482C85.5979 12.226 85.8078 12.7577 85.8078 13.4433V16.7907H84.7059V16.1296H84.643C84.5522 16.2696 84.4263 16.4025 84.2652 16.5284C84.1115 16.6543 83.9263 16.7557 83.7091 16.8327C83.4992 16.9167 83.2652 16.9586 83.006 16.9586ZM83.2054 16.0352C83.4992 16.0352 83.7584 15.9652 83.9819 15.8253C84.2127 15.6854 84.3911 15.5035 84.5171 15.2796C84.643 15.0488 84.7059 14.8005 84.7059 14.5346C84.5522 14.4437 84.3633 14.3702 84.1393 14.3142C83.9226 14.2513 83.6917 14.2198 83.4467 14.2198C82.985 14.2198 82.6565 14.3107 82.4603 14.4926C82.2646 14.6745 82.1665 14.9019 82.1665 15.1747C82.1665 15.4266 82.2609 15.6329 82.4498 15.7938C82.6387 15.9548 82.8905 16.0352 83.2054 16.0352ZM87.066 16.7907V9.27727H88.1993V16.7907H87.066ZM89.5462 16.7907V9.27727H90.6795V16.7907H89.5462ZM94.4094 16.9586C93.8848 16.9586 93.4157 16.8362 93.0033 16.5914C92.5904 16.3465 92.2651 16.0107 92.0274 15.584C91.7965 15.1572 91.6811 14.671 91.6811 14.1253C91.6811 13.6147 91.7928 13.1425 92.0169 12.7087C92.2404 12.2749 92.5521 11.9287 92.9508 11.6698C93.3564 11.404 93.8218 11.2711 94.3465 11.2711C94.899 11.2711 95.3675 11.39 95.7526 11.6279C96.144 11.8657 96.4415 12.191 96.6446 12.6038C96.8471 13.0165 96.9489 13.4817 96.9489 13.9994C96.9489 14.0764 96.9452 14.1463 96.9384 14.2093C96.9384 14.2723 96.9347 14.3212 96.9279 14.3562H92.7934C92.8212 14.65 92.8947 14.9054 93.0138 15.1222C93.1675 15.3951 93.3706 15.6014 93.6224 15.7414C93.8743 15.8813 94.1471 15.9512 94.4409 15.9512C94.7977 15.9512 95.0947 15.8708 95.3329 15.7099C95.5774 15.542 95.7699 15.3356 95.91 15.0908L96.844 15.542C96.6131 15.9617 96.2983 16.3045 95.8995 16.5704C95.5008 16.8292 95.0039 16.9586 94.4094 16.9586ZM92.8564 13.5062H95.8261C95.8187 13.3733 95.7841 13.2334 95.7211 13.0865C95.6582 12.9326 95.5669 12.7926 95.4483 12.6667C95.3292 12.5408 95.1786 12.4394 94.9971 12.3624C94.815 12.2785 94.6015 12.2365 94.357 12.2365C94.049 12.2365 93.7761 12.3169 93.5385 12.4778C93.3003 12.6317 93.115 12.8486 92.9823 13.1284C92.9262 13.2474 92.8842 13.3733 92.8564 13.5062ZM97.4794 11.439H98.4133V9.92788H99.5466V11.439H100.858V12.4254H99.5466V14.9963C99.5466 15.2622 99.5991 15.465 99.704 15.6049C99.8158 15.7449 100.001 15.8148 100.26 15.8148C100.386 15.8148 100.498 15.7973 100.596 15.7624C100.694 15.7204 100.792 15.6714 100.89 15.6154V16.7173C100.771 16.7662 100.645 16.8047 100.512 16.8327C100.379 16.8607 100.221 16.8747 100.04 16.8747C99.5429 16.8747 99.1478 16.7313 98.854 16.4444C98.5602 16.1506 98.4133 15.7483 98.4133 15.2377V12.4254H97.4794V11.439ZM101.935 14.0204V13.055H105.377V14.0204H101.935ZM111.79 16.7907C111.72 16.6368 111.598 16.4934 111.423 16.3605C111.255 16.2206 111.062 16.1122 110.846 16.0352C110.636 15.9512 110.429 15.9093 110.227 15.9093H108.757C108.33 15.9093 107.949 15.8218 107.614 15.6469C107.285 15.465 107.026 15.2202 106.837 14.9124C106.648 14.6045 106.554 14.2548 106.554 13.863C106.554 13.6741 106.582 13.4852 106.638 13.2963C106.701 13.1075 106.777 12.9465 106.869 12.8136L107.729 13.2754C107.589 13.4642 107.519 13.6916 107.519 13.9574C107.519 14.2723 107.635 14.5206 107.865 14.7025C108.103 14.8844 108.425 14.9753 108.831 14.9753H110.195C110.489 14.9753 110.754 15.0243 110.993 15.1222C111.237 15.2132 111.447 15.3566 111.622 15.5525H111.675L111.622 14.755V11.6593C111.622 11.2885 111.559 11.0227 111.433 10.8618C111.307 10.6939 111.097 10.61 110.804 10.61C110.544 10.61 110.3 10.6834 110.069 10.8303C109.845 10.9772 109.663 11.1696 109.523 11.4075C109.383 11.6383 109.314 11.8832 109.314 12.142C109.314 12.156 109.314 12.17 109.314 12.184C109.327 12.17 109.341 12.1595 109.356 12.1525C109.46 12.0966 109.586 12.0686 109.733 12.0686C109.992 12.0686 110.202 12.1561 110.363 12.3309C110.523 12.4988 110.604 12.7157 110.604 12.9815C110.604 13.2404 110.51 13.4607 110.321 13.6426C110.139 13.8175 109.912 13.905 109.639 13.905C109.24 13.905 108.918 13.7545 108.673 13.4537C108.435 13.1459 108.317 12.7507 108.317 12.268C108.317 11.7783 108.428 11.3375 108.652 10.9458C108.883 10.554 109.188 10.2462 109.565 10.0223C109.95 9.79146 110.37 9.67603 110.825 9.67603C111.391 9.67603 111.828 9.84745 112.136 10.1902C112.451 10.533 112.609 11.0192 112.609 11.6488V16.7907H111.79Z" fill="white"/>
<path d="M119.72 16.9578C119.42 16.9578 119.119 16.8669 118.818 16.685C118.524 16.5031 118.255 16.2477 118.01 15.9189C117.765 15.5901 117.566 15.2089 117.412 14.7751C117.265 14.3344 117.191 13.8552 117.191 13.3375C117.191 12.596 117.321 11.9593 117.58 11.4276C117.838 10.896 118.202 10.4902 118.671 10.2104C119.147 9.93056 119.696 9.79063 120.319 9.79063H120.675V10.6406H120.486C120.032 10.6406 119.633 10.7456 119.29 10.9554C118.948 11.1653 118.682 11.4696 118.493 11.8684C118.304 12.2671 118.209 12.7463 118.209 13.306C118.209 13.9636 118.325 14.5163 118.556 14.964C118.696 15.2228 118.86 15.4502 119.049 15.6461C119.091 15.5552 119.154 15.4712 119.238 15.3942C119.406 15.2333 119.615 15.1529 119.867 15.1529C120.112 15.1529 120.319 15.2404 120.486 15.4152C120.654 15.5831 120.738 15.793 120.738 16.0448C120.738 16.3107 120.644 16.5311 120.455 16.7059C120.273 16.8738 120.028 16.9578 119.72 16.9578ZM125.093 16.7899C124.708 16.3492 124.285 15.9574 123.823 15.6146C123.361 15.2718 122.885 14.9815 122.396 14.7436C121.906 14.4988 121.423 14.3099 120.948 14.177V13.369C121.311 13.0821 121.699 12.8268 122.112 12.6029C122.413 12.442 122.693 12.3161 122.952 12.2252C122.623 12.0013 122.305 11.8054 121.997 11.6375C121.626 11.4416 121.231 11.2667 120.811 11.1128L120.979 10.6406H120.224V9.79063H126.96V10.6406H125.932V16.7899H125.093ZM124.956 15.3942H125.009L124.956 14.5757V10.6406H122.732L122.018 10.5881V10.6406C122.277 10.7665 122.532 10.9065 122.784 11.0604C123.043 11.2143 123.281 11.3682 123.498 11.5221C123.714 11.669 123.89 11.8054 124.022 11.9313V12.8548C123.722 12.9387 123.42 13.0472 123.12 13.1801C122.819 13.313 122.515 13.4739 122.207 13.6628C122.669 13.8237 123.141 14.058 123.623 14.3659C124.106 14.6667 124.551 15.0095 124.956 15.3942ZM127.564 16.7899V11.3647C127.564 11.1968 127.54 11.0604 127.491 10.9554C127.449 10.8505 127.379 10.7735 127.281 10.7246C127.19 10.6686 127.071 10.6406 126.924 10.6406H126.536V9.79063H126.924C127.079 9.79063 127.204 9.8081 127.302 9.8431C127.407 9.87106 127.495 9.92007 127.564 9.99001H127.617L127.564 9.23447V8.86719H128.54V9.79063H129.569V10.6406H128.54V16.7899H127.564ZM134.543 16.7899V12.9912C134.543 12.5714 134.47 12.1832 134.323 11.8264C134.176 11.4696 133.945 11.1828 133.63 10.9659C133.315 10.742 132.903 10.6301 132.392 10.6301C132.07 10.6301 131.776 10.7001 131.511 10.84C131.245 10.9799 131.038 11.1653 130.891 11.3962L130.923 11.4486C130.978 11.4276 131.041 11.4136 131.112 11.4067C131.188 11.3997 131.272 11.3962 131.364 11.3962C131.685 11.3962 131.965 11.4696 132.203 11.6165C132.448 11.7565 132.64 11.9523 132.78 12.2042C132.92 12.449 132.99 12.7253 132.99 13.0332C132.99 13.4739 132.875 13.8552 132.644 14.177C132.42 14.4988 132.084 14.7716 131.636 14.9955L131.038 14.177C131.388 13.9811 131.636 13.7992 131.783 13.6313C131.93 13.4634 132.004 13.2605 132.004 13.0227C132.004 12.7848 131.923 12.596 131.762 12.456C131.608 12.3161 131.391 12.2461 131.112 12.2461C130.944 12.2461 130.769 12.2706 130.587 12.3196C130.412 12.3686 130.244 12.442 130.083 12.54L129.569 11.9418C129.667 11.4941 129.845 11.0988 130.104 10.756C130.37 10.4133 130.695 10.1474 131.08 9.95853C131.465 9.76266 131.895 9.66471 132.371 9.66471C132.812 9.66471 133.214 9.75217 133.578 9.92705C133.948 10.1019 134.26 10.3503 134.512 10.6721H134.564L134.512 9.90606V8.86719H135.53V9.79063H136.547V10.6406H135.53V16.7899H134.543ZM142.953 16.7899C142.687 16.3911 142.352 16.0203 141.946 15.6776C141.547 15.3348 141.117 15.0305 140.655 14.7646C140.2 14.4918 139.749 14.2679 139.302 14.093V13.327C139.798 12.7953 140.372 12.3581 141.022 12.0153C141.596 11.7075 142.198 11.5011 142.827 11.3962V10.6406H138.577V9.79063H147.602V10.6406H143.782V11.3227C144.412 11.3297 144.958 11.4312 145.419 11.627C145.881 11.8299 146.238 12.1062 146.49 12.456C146.748 12.8058 146.878 13.2116 146.878 13.6733C146.878 13.9811 146.811 14.2574 146.679 14.5023C146.553 14.7401 146.377 14.929 146.154 15.0689C145.937 15.2018 145.685 15.2683 145.398 15.2683C145.111 15.2683 144.877 15.1879 144.695 15.027C144.513 14.866 144.422 14.6737 144.422 14.4498C144.422 14.2399 144.492 14.0685 144.632 13.9356C144.772 13.7957 144.954 13.7257 145.178 13.7257C145.381 13.7257 145.548 13.7922 145.682 13.9251C145.716 13.9601 145.745 13.9986 145.766 14.0406C145.842 13.9286 145.881 13.7922 145.881 13.6313C145.881 13.3725 145.8 13.1416 145.64 12.9387C145.479 12.7289 145.248 12.5645 144.947 12.4455C144.653 12.3196 144.293 12.2566 143.866 12.2566C143.845 12.2566 143.821 12.2566 143.793 12.2566V16.7899H142.953ZM142.817 12.4035C142.32 12.5155 141.869 12.6799 141.463 12.8968C141.092 13.0926 140.753 13.3305 140.445 13.6103C140.788 13.7642 141.138 13.9531 141.495 14.177C141.942 14.4708 142.383 14.8416 142.817 15.2893H142.869L142.817 14.4708V12.4035ZM151.992 16.7899C151.753 16.4821 151.484 16.1918 151.184 15.9189C150.882 15.6461 150.557 15.3942 150.208 15.1634C149.858 14.9325 149.487 14.7226 149.095 14.5338C148.71 14.3449 148.315 14.184 147.909 14.0511V13.285C148.511 12.7393 149.161 12.3056 149.861 11.9838C150.512 11.683 151.169 11.4836 151.834 11.3857V10.6406H147.185V9.79063H156.525V10.6406H152.821V12.4875C152.821 12.8653 152.883 13.1801 153.009 13.4319C153.142 13.6838 153.314 13.8691 153.524 13.9881C153.733 14.107 153.957 14.1665 154.195 14.1665C154.447 14.1665 154.653 14.1035 154.814 13.9776C154.975 13.8447 155.056 13.6488 155.056 13.39C155.056 13.1871 155.003 13.0262 154.898 12.9072C154.863 12.8653 154.817 12.8303 154.762 12.8023C154.769 12.8373 154.772 12.8758 154.772 12.9177C154.772 13.0716 154.716 13.2011 154.604 13.306C154.492 13.4109 154.342 13.4634 154.153 13.4634C153.971 13.4634 153.8 13.404 153.639 13.285C153.485 13.1661 153.408 12.9737 153.408 12.7079C153.408 12.477 153.495 12.2811 153.67 12.1202C153.852 11.9593 154.101 11.8789 154.416 11.8789C154.73 11.8789 155.003 11.9523 155.234 12.0992C155.472 12.2392 155.654 12.4315 155.78 12.6764C155.912 12.9142 155.979 13.1766 155.979 13.4634C155.979 13.8202 155.902 14.1175 155.748 14.3554C155.601 14.5932 155.405 14.7716 155.161 14.8905C154.916 15.0095 154.639 15.0689 154.332 15.0689C154.017 15.0689 153.716 14.999 153.429 14.8591C153.198 14.7471 152.995 14.5827 152.821 14.3659V16.7899H151.992ZM151.834 12.3931C151.309 12.491 150.806 12.6519 150.323 12.8758C149.924 13.0506 149.539 13.278 149.169 13.5579C149.4 13.6488 149.63 13.7537 149.861 13.8727C150.232 14.0685 150.585 14.2889 150.921 14.5338C151.257 14.7716 151.561 15.0339 151.834 15.3208H151.887L151.834 14.5023V12.3931ZM149.116 16.9578C148.899 16.9578 148.717 16.8879 148.571 16.7479C148.43 16.608 148.361 16.4261 148.361 16.2023C148.361 15.9854 148.43 15.807 148.571 15.6671C148.717 15.5271 148.899 15.4572 149.116 15.4572C149.333 15.4572 149.511 15.5271 149.651 15.6671C149.798 15.807 149.872 15.9854 149.872 16.2023C149.872 16.4261 149.798 16.608 149.651 16.7479C149.511 16.8879 149.333 16.9578 149.116 16.9578ZM160.781 16.7899C160.669 16.2582 160.515 15.7685 160.319 15.3208C160.13 14.8731 159.917 14.4848 159.679 14.156C159.441 13.8272 159.193 13.5719 158.934 13.39C158.829 13.313 158.724 13.2535 158.619 13.2116C158.654 13.3095 158.672 13.4179 158.672 13.5369C158.672 13.7957 158.581 14.0091 158.399 14.177C158.224 14.3449 158 14.4288 157.727 14.4288C157.434 14.4288 157.192 14.3309 157.003 14.135C156.814 13.9391 156.72 13.6908 156.72 13.39C156.72 13.0192 156.853 12.7148 157.119 12.477C157.392 12.2392 157.759 12.1202 158.221 12.1202C158.696 12.1202 159.154 12.2951 159.595 12.6449C160.036 12.9877 160.407 13.4774 160.708 14.114H160.76L160.708 13.306V10.6406H156.101V9.79063H162.712V10.6406H161.683V16.7899H160.781Z" fill="white"/>
</g>
<defs>
<clipPath id="clip0_568_1097">
<rect width="173.67" height="26.2341" fill="white"/>
</clipPath>
</defs>
</svg>
