<svg width="174" height="48" viewBox="0 0 174 48" fill="none" xmlns="http://www.w3.org/2000/svg">
<g clip-path="url(#clip0_568_691)">
<path d="M149.672 0.436523H24.0008C10.9871 0.436523 0.4375 10.9862 0.4375 23.9998C0.4375 37.0134 10.9871 47.563 24.0008 47.563H149.672C162.685 47.563 173.235 37.0134 173.235 23.9998C173.235 10.9862 162.685 0.436523 149.672 0.436523Z" fill="#1F1F1F"/>
<path d="M149.672 0.436523H24.0008C10.9871 0.436523 0.4375 10.9862 0.4375 23.9998C0.4375 37.0134 10.9871 47.563 24.0008 47.563H149.672C162.685 47.563 173.235 37.0134 173.235 23.9998C173.235 10.9862 162.685 0.436523 149.672 0.436523Z" stroke="#747775"/>
<path d="M49.7458 20.763H18.3281V15.8361C18.3281 13.1615 20.634 10.9092 23.3722 10.9092H44.7017C47.4399 10.9092 49.7458 13.1615 49.7458 15.8361V20.763Z" fill="#34A853"/>
<path d="M49.7458 25.3085H18.3281V20.0722C18.3281 17.2297 20.634 14.8359 23.3722 14.8359H44.7017C47.4399 14.8359 49.7458 17.2297 49.7458 20.0722V25.3085Z" fill="#FBBC04"/>
<path d="M49.7458 29.6718H18.3281V24.4355C18.3281 21.593 20.634 19.1992 23.3722 19.1992H44.7017C47.4399 19.1992 49.7458 21.593 49.7458 24.4355V29.6718Z" fill="#EA4335"/>
<path d="M18.3281 22.0276L38.269 26.5322C40.5644 27.0952 43.1467 26.5322 45.0116 25.1245L49.7458 21.7461V32.3037C49.7458 34.9783 47.4505 37.0898 44.7247 37.0898H23.3492C20.6234 37.0898 18.3281 34.9783 18.3281 32.3037V22.0276Z" fill="#4285F4"/>
<path d="M66.4503 21.6189C65.6887 21.6189 64.9716 21.4804 64.299 21.2035C63.6264 20.9266 63.033 20.5408 62.5187 20.0463C62.0143 19.5419 61.6137 18.9534 61.317 18.2808C61.0301 17.5983 60.8867 16.8615 60.8867 16.0702C60.8867 15.2789 61.0301 14.547 61.317 13.8744C61.6137 13.192 62.0143 12.6035 62.5187 12.109C63.033 11.6045 63.6264 11.2138 64.299 10.9369C64.9716 10.66 65.6887 10.5215 66.4503 10.5215C67.2613 10.5215 68.0081 10.6649 68.6905 10.9517C69.3828 11.2386 69.9615 11.6392 70.4264 12.1535L69.2988 13.2662C69.0713 13.009 68.8092 12.7914 68.5125 12.6134C68.2256 12.4353 67.9092 12.3018 67.563 12.2128C67.2168 12.1139 66.8459 12.0644 66.4503 12.0644C65.926 12.0644 65.4266 12.1584 64.9518 12.3463C64.4771 12.5342 64.0567 12.8062 63.6907 13.1623C63.3347 13.5085 63.0528 13.9288 62.8451 14.4234C62.6374 14.908 62.5335 15.4569 62.5335 16.0702C62.5335 16.6835 62.6374 17.2373 62.8451 17.7318C63.0627 18.2165 63.3495 18.6368 63.7056 18.9929C64.0715 19.3391 64.4919 19.6062 64.9667 19.7941C65.4414 19.982 65.9409 20.076 66.4651 20.076C66.9497 20.076 67.3998 20.0067 67.8152 19.8682C68.2405 19.7297 68.6114 19.532 68.9279 19.2748C69.2444 19.0176 69.5015 18.7061 69.6994 18.3401C69.8972 17.9642 70.0208 17.5439 70.0703 17.0791H66.4354V15.6399H71.5984C71.6182 15.7586 71.6379 15.8971 71.6578 16.0554C71.6776 16.2037 71.6874 16.3471 71.6874 16.4856V16.5004C71.6874 17.2621 71.5539 17.9594 71.2868 18.5923C71.0297 19.2253 70.6687 19.7694 70.2038 20.2243C69.7389 20.6694 69.1851 21.0156 68.5422 21.2628C67.9092 21.5002 67.2119 21.6189 66.4503 21.6189ZM76.4646 21.6189C75.6831 21.6189 74.9958 21.4409 74.4023 21.0848C73.8089 20.7287 73.344 20.249 73.0078 19.6457C72.6714 19.0324 72.5033 18.35 72.5033 17.5983C72.5033 16.8467 72.6714 16.1691 73.0078 15.5658C73.344 14.9525 73.8089 14.4679 74.4023 14.1118C74.9958 13.7558 75.6831 13.5777 76.4646 13.5777C77.236 13.5777 77.9185 13.7607 78.512 14.1267C79.1054 14.4827 79.5702 14.9625 79.9066 15.5658C80.2428 16.1691 80.411 16.8467 80.411 17.5983C80.411 18.35 80.2428 19.0324 79.9066 19.6457C79.5702 20.249 79.1054 20.7287 78.512 21.0848C77.9185 21.4409 77.236 21.6189 76.4646 21.6189ZM76.4646 20.1501C76.88 20.1501 77.2657 20.0513 77.6218 19.8534C77.9779 19.6457 78.2646 19.354 78.4823 18.9781C78.7097 18.5923 78.8235 18.1324 78.8235 17.5983C78.8235 17.0642 78.7097 16.6093 78.4823 16.2334C78.2646 15.8477 77.9779 15.5559 77.6218 15.3581C77.2657 15.1504 76.88 15.0465 76.4646 15.0465C76.0492 15.0465 75.6584 15.1504 75.2925 15.3581C74.9364 15.5559 74.6446 15.8477 74.4172 16.2334C74.1995 16.6093 74.0908 17.0642 74.0908 17.5983C74.0908 18.1324 74.1995 18.5923 74.4172 18.9781C74.6446 19.354 74.9413 19.6457 75.3074 19.8534C75.6733 20.0513 76.059 20.1501 76.4646 20.1501ZM85.4473 21.6189C84.666 21.6189 83.9785 21.4409 83.3851 21.0848C82.7917 20.7287 82.3268 20.249 81.9905 19.6457C81.6542 19.0324 81.4861 18.35 81.4861 17.5983C81.4861 16.8467 81.6542 16.1691 81.9905 15.5658C82.3268 14.9525 82.7917 14.4679 83.3851 14.1118C83.9785 13.7558 84.666 13.5777 85.4473 13.5777C86.2188 13.5777 86.9013 13.7607 87.4949 14.1267C88.0883 14.4827 88.5535 14.9625 88.8895 15.5658C89.2255 16.1691 89.3939 16.8467 89.3939 17.5983C89.3939 18.35 89.2255 19.0324 88.8895 19.6457C88.5535 20.249 88.0883 20.7287 87.4949 21.0848C86.9013 21.4409 86.2188 21.6189 85.4473 21.6189ZM85.4473 20.1501C85.8627 20.1501 86.2485 20.0513 86.6045 19.8534C86.9606 19.6457 87.2475 19.354 87.4652 18.9781C87.693 18.5923 87.8064 18.1324 87.8064 17.5983C87.8064 17.0642 87.693 16.6093 87.4652 16.2334C87.2475 15.8477 86.9606 15.5559 86.6045 15.3581C86.2485 15.1504 85.8627 15.0465 85.4473 15.0465C85.0319 15.0465 84.6413 15.1504 84.2753 15.3581C83.9192 15.5559 83.6275 15.8477 83.3999 16.2334C83.1824 16.6093 83.0735 17.0642 83.0735 17.5983C83.0735 18.1324 83.1824 18.5923 83.3999 18.9781C83.6275 19.354 83.9242 19.6457 84.2901 19.8534C84.6561 20.0513 85.0419 20.1501 85.4473 20.1501ZM94.282 24.8235C93.6187 24.8235 93.0453 24.7147 92.561 24.4971C92.0862 24.2894 91.7005 24.0174 91.4038 23.6811C91.107 23.3547 90.8941 23.0185 90.7658 22.6723L92.2494 22.0492C92.4074 22.4448 92.6596 22.7663 93.0061 23.0135C93.3621 23.2707 93.7871 23.3992 94.282 23.3992C94.9836 23.3992 95.5326 23.1915 95.9288 22.7761C96.3241 22.3607 96.5222 21.7722 96.5222 21.0106V20.2837H96.4332C96.1958 20.6299 95.8694 20.9117 95.454 21.1293C95.0386 21.3469 94.5586 21.4557 94.0149 21.4557C93.3717 21.4557 92.7783 21.2925 92.2346 20.9661C91.7005 20.6397 91.2702 20.1848 90.9438 19.6012C90.6271 19.0077 90.4691 18.3154 90.4691 17.5241C90.4691 16.723 90.6271 16.0307 90.9438 15.4471C91.2702 14.8536 91.7005 14.3937 92.2346 14.0673C92.7783 13.7409 93.3717 13.5777 94.0149 13.5777C94.5586 13.5777 95.0386 13.6866 95.454 13.9041C95.8694 14.1118 96.1958 14.3987 96.4332 14.7646H96.5222V13.8151H98.0504V20.981C98.0504 21.8019 97.8872 22.4992 97.5608 23.0728C97.244 23.6465 96.8041 24.0817 96.2403 24.3784C95.6766 24.6752 95.0238 24.8235 94.282 24.8235ZM94.2968 20.0018C94.6921 20.0018 95.0578 19.9078 95.3947 19.7199C95.7403 19.522 96.0126 19.2402 96.2107 18.8742C96.4184 18.4983 96.5222 18.0484 96.5222 17.5241C96.5222 16.9702 96.4184 16.5103 96.2107 16.1444C96.0126 15.7784 95.7403 15.5015 95.3947 15.3136C95.0578 15.1257 94.6921 15.0317 94.2968 15.0317C93.9006 15.0317 93.5297 15.1257 93.1841 15.3136C92.8472 15.5015 92.5758 15.7833 92.3681 16.1592C92.1604 16.5251 92.0566 16.9802 92.0566 17.5241C92.0566 18.0582 92.1604 18.5132 92.3681 18.8891C92.5758 19.255 92.8472 19.532 93.1841 19.7199C93.5297 19.9078 93.9006 20.0018 94.2968 20.0018ZM99.9398 21.3815V10.7589H101.542V21.3815H99.9398ZM106.815 21.6189C106.073 21.6189 105.411 21.4458 104.827 21.0996C104.244 20.7534 103.784 20.2787 103.447 19.6754C103.121 19.0721 102.958 18.3846 102.958 17.6132C102.958 16.8912 103.116 16.2235 103.432 15.6103C103.749 14.997 104.189 14.5074 104.753 14.1415C105.327 13.7656 105.984 13.5777 106.726 13.5777C107.508 13.5777 108.17 13.7459 108.714 14.0822C109.268 14.4184 109.689 14.8783 109.975 15.4619C110.262 16.0455 110.405 16.7032 110.405 17.4351C110.405 17.5439 110.401 17.6428 110.391 17.7318C110.391 17.8209 110.386 17.8901 110.376 17.9395H104.53C104.57 18.355 104.674 18.716 104.842 19.0226C105.06 19.4083 105.346 19.7001 105.702 19.8979C106.058 20.0958 106.444 20.1946 106.86 20.1946C107.364 20.1946 107.785 20.0809 108.121 19.8534C108.467 19.616 108.739 19.3243 108.937 18.9781L110.257 19.616C109.931 20.2095 109.486 20.6941 108.922 21.07C108.358 21.4359 107.656 21.6189 106.815 21.6189ZM104.619 16.7378H108.818C108.808 16.5499 108.759 16.3521 108.67 16.1444C108.581 15.9268 108.452 15.729 108.284 15.5509C108.116 15.3729 107.903 15.2295 107.646 15.1207C107.389 15.002 107.087 14.9427 106.741 14.9427C106.306 14.9427 105.92 15.0564 105.584 15.2839C105.248 15.5014 104.986 15.8081 104.797 16.2037C104.719 16.3719 104.659 16.5499 104.619 16.7378ZM116.927 21.3815L114.079 10.7589H115.889L117.58 17.6577L117.758 18.5775H117.847L118.07 17.6577L120.206 10.7589H121.838L123.885 17.6577L124.108 18.5627H124.197L124.375 17.6577L126.066 10.7589H127.861L125.057 21.3815H123.336L121.304 14.3344L121.066 13.3403H120.977L120.725 14.3344L118.604 21.3815H116.927ZM130.841 21.6189C130.297 21.6189 129.812 21.5101 129.387 21.2925C128.971 21.0749 128.64 20.7782 128.393 20.4023C128.155 20.0166 128.037 19.5765 128.037 19.0819C128.037 18.538 128.176 18.078 128.452 17.7022C128.739 17.3263 129.12 17.0395 129.595 16.8417C130.069 16.6438 130.594 16.545 131.167 16.545C131.484 16.545 131.775 16.5696 132.043 16.6191C132.319 16.6587 132.557 16.7081 132.755 16.7675C132.962 16.8268 133.126 16.8912 133.244 16.9604V16.5598C133.244 16.0652 133.066 15.6696 132.71 15.3729C132.354 15.0762 131.894 14.9278 131.33 14.9278C130.945 14.9278 130.579 15.0168 130.233 15.1949C129.886 15.363 129.609 15.5954 129.402 15.8922L128.304 15.0465C128.521 14.7399 128.784 14.4778 129.09 14.2602C129.407 14.0426 129.758 13.8744 130.144 13.7558C130.539 13.6371 130.95 13.5777 131.375 13.5777C132.473 13.5777 133.318 13.8498 133.912 14.3937C134.505 14.9278 134.802 15.6795 134.802 16.6488V21.3815H133.244V20.4469H133.155C133.027 20.6447 132.849 20.8326 132.621 21.0106C132.404 21.1887 132.141 21.332 131.835 21.4409C131.538 21.5596 131.206 21.6189 130.841 21.6189ZM131.123 20.3133C131.538 20.3133 131.904 20.2145 132.221 20.0166C132.547 19.8188 132.799 19.5617 132.977 19.2451C133.155 18.9187 133.244 18.5676 133.244 18.1918C133.027 18.0632 132.76 17.9594 132.443 17.8802C132.137 17.7912 131.81 17.7467 131.464 17.7467C130.811 17.7467 130.346 17.8752 130.069 18.1324C129.793 18.3896 129.654 18.711 129.654 19.0968C129.654 19.4528 129.787 19.7446 130.055 19.9721C130.322 20.1996 130.678 20.3133 131.123 20.3133ZM136.581 21.3815V10.7589H138.183V21.3815H136.581ZM140.087 21.3815V10.7589H141.69V21.3815H140.087ZM146.962 21.6189C146.221 21.6189 145.558 21.4458 144.974 21.0996C144.391 20.7534 143.932 20.2787 143.595 19.6754C143.268 19.0721 143.105 18.3846 143.105 17.6132C143.105 16.8912 143.264 16.2235 143.58 15.6103C143.897 14.997 144.336 14.5074 144.9 14.1415C145.474 13.7656 146.132 13.5777 146.873 13.5777C147.655 13.5777 148.318 13.7459 148.861 14.0822C149.416 14.4184 149.836 14.8783 150.123 15.4619C150.41 16.0455 150.553 16.7032 150.553 17.4351C150.553 17.5439 150.548 17.6428 150.538 17.7318C150.538 17.8209 150.534 17.8901 150.523 17.9395H144.678C144.718 18.355 144.822 18.716 144.989 19.0226C145.207 19.4083 145.494 19.7001 145.85 19.8979C146.206 20.0958 146.592 20.1946 147.007 20.1946C147.511 20.1946 147.932 20.0809 148.268 19.8534C148.615 19.616 148.887 19.3243 149.084 18.9781L150.404 19.616C150.078 20.2095 149.633 20.6941 149.069 21.07C148.505 21.4359 147.804 21.6189 146.962 21.6189ZM144.767 16.7378H148.965C148.956 16.5499 148.906 16.3521 148.817 16.1444C148.728 15.9268 148.6 15.729 148.431 15.5509C148.264 15.3729 148.051 15.2295 147.793 15.1207C147.537 15.002 147.235 14.9427 146.888 14.9427C146.454 14.9427 146.068 15.0564 145.731 15.2839C145.395 15.5014 145.133 15.8081 144.945 16.2037C144.866 16.3719 144.807 16.5499 144.767 16.7378ZM151.303 13.8151H152.624V11.6787H154.226V13.8151H156.081V15.2097H154.226V18.8446C154.226 19.2204 154.3 19.5072 154.449 19.705C154.607 19.9029 154.868 20.0018 155.235 20.0018C155.413 20.0018 155.571 19.9771 155.71 19.9276C155.848 19.8682 155.986 19.799 156.125 19.7199V21.2777C155.957 21.3469 155.779 21.4013 155.591 21.4409C155.402 21.4804 155.18 21.5002 154.923 21.5002C154.221 21.5002 153.662 21.2975 153.247 20.8919C152.831 20.4765 152.624 19.9078 152.624 19.1858V15.2097H151.303V13.8151Z" fill="white"/>
<path d="M63.4127 36.3219C62.7913 36.3219 62.2398 36.1648 61.758 35.8506C61.2763 35.5364 60.9377 35.1245 60.7422 34.6148L61.4753 34.2378C61.6638 34.6707 61.9256 34.9988 62.2607 35.2222C62.5958 35.4387 62.9833 35.5469 63.4232 35.5469C63.8351 35.5469 64.1912 35.4526 64.4914 35.2641C64.7916 35.0687 65.022 34.8103 65.1826 34.4892C65.3501 34.161 65.4339 33.7945 65.4339 33.3895C65.4339 32.9637 65.3501 32.5936 65.1826 32.2795C65.015 31.9653 64.7811 31.7209 64.4809 31.5464C64.1807 31.3649 63.8281 31.2741 63.4232 31.2741C62.9833 31.2741 62.5958 31.3858 62.2607 31.6092C61.9256 31.8256 61.6638 32.1503 61.4753 32.5832L60.7422 32.2061C60.9377 31.6895 61.2763 31.2776 61.758 30.9704C62.2398 30.6562 62.7878 30.4991 63.4022 30.4991C64.0166 30.4991 64.5437 30.6248 64.9836 30.8761C65.4304 31.1275 65.776 31.4696 66.0204 31.9024C66.2647 32.3283 66.3869 32.8136 66.3869 33.3581C66.3869 33.6374 66.3555 33.9062 66.2926 34.1645C66.537 34.5555 66.8302 34.8836 67.1723 35.1489C67.5144 35.4073 67.9403 35.5364 68.45 35.5364C68.8689 35.5364 69.2319 35.4457 69.5391 35.2641C69.8463 35.0826 70.0802 34.8313 70.2408 34.5101C70.4084 34.182 70.4921 33.8084 70.4921 33.3895C70.4921 32.7472 70.3106 32.2341 69.9476 31.8501C69.5845 31.4661 69.0993 31.2741 68.4919 31.2741C68.08 31.2741 67.7309 31.3369 67.4446 31.4626L67.1095 30.7714C67.312 30.6737 67.5354 30.6038 67.7798 30.562C68.0241 30.5201 68.3104 30.4991 68.6385 30.4991C69.1831 30.4991 69.6648 30.6213 70.0837 30.8657C70.5096 31.103 70.8412 31.4382 71.0786 31.871C71.323 32.3039 71.4451 32.817 71.4451 33.4105C71.4451 33.983 71.316 34.4892 71.0577 34.929C70.7993 35.3619 70.4433 35.704 69.9895 35.9553C69.5357 36.1997 69.012 36.3219 68.4186 36.3219C67.888 36.3219 67.4062 36.2171 66.9734 36.0077C66.5405 35.7982 66.1809 35.4876 65.8947 35.0756C65.6573 35.4457 65.3292 35.7459 64.9103 35.9763C64.4914 36.2067 63.9922 36.3219 63.4127 36.3219ZM68.6012 29.6613C68.2242 29.6613 67.8926 29.574 67.6063 29.3995C67.3201 29.225 67.1002 28.9911 66.9466 28.6978C66.786 28.3976 66.7057 28.0625 66.7057 27.6925C66.7057 27.3294 66.786 27.0013 66.9466 26.7081C67.1002 26.4078 67.3201 26.1705 67.6063 25.9959C67.8926 25.8144 68.2312 25.7236 68.6222 25.7236C69.0201 25.7236 69.3657 25.8144 69.659 25.9959C69.9452 26.1774 70.1651 26.4218 70.3187 26.729C70.4723 27.0292 70.5491 27.3643 70.5491 27.7344C70.5491 28.0974 70.4688 28.4256 70.3083 28.7188C70.1477 29.005 69.9243 29.2354 69.638 29.41C69.3448 29.5775 68.9992 29.6613 68.6012 29.6613ZM68.6327 28.9597C68.9468 28.9597 69.2052 28.8445 69.4076 28.6141C69.6101 28.3837 69.7113 28.0974 69.7113 27.7553C69.7113 27.3783 69.6171 27.0641 69.4286 26.8128C69.2331 26.5545 68.9678 26.4253 68.6327 26.4253C68.2905 26.4253 68.0252 26.5475 67.8367 26.7918C67.6413 27.0362 67.5435 27.3434 67.5435 27.7134C67.5435 28.0695 67.6413 28.3662 67.8367 28.6036C68.0322 28.841 68.2975 28.9597 68.6327 28.9597ZM70.6247 39.5893C70.2826 39.5893 70.0068 39.4916 69.7974 39.2961C69.5879 39.1076 69.4832 38.8353 69.4832 38.4792C69.4832 38.1301 69.5879 37.8578 69.7974 37.6624C70.0068 37.4669 70.2826 37.3691 70.6247 37.3691C70.9598 37.3691 71.2356 37.4669 71.452 37.6624C71.6755 37.8578 71.7872 38.1266 71.7872 38.4687C71.7872 38.8248 71.6755 39.1006 71.452 39.2961C71.2356 39.4916 70.9598 39.5893 70.6247 39.5893ZM70.6352 39.0343C70.7958 39.0343 70.9284 38.9854 71.0331 38.8876C71.1379 38.7899 71.1902 38.6538 71.1902 38.4792C71.1902 38.3047 71.1379 38.1685 71.0331 38.0708C70.9284 37.973 70.7958 37.9242 70.6352 37.9242C70.4746 37.9242 70.3419 37.973 70.2372 38.0708C70.1325 38.1685 70.0801 38.3047 70.0801 38.4792C70.0801 38.8492 70.2652 39.0343 70.6352 39.0343ZM67.9647 41.1078V36.7303H68.8967V40.3957H70.2058V41.1078H67.9647ZM78.1865 36.3219C77.614 36.3219 77.1113 36.1962 76.6785 35.9449C76.2456 35.6865 75.9105 35.3374 75.6731 34.8976C75.4357 34.4577 75.317 33.962 75.317 33.4105C75.317 32.8589 75.4357 32.3632 75.6731 31.9234C75.9175 31.4835 76.2561 31.1379 76.6889 30.8866C77.1288 30.6283 77.6385 30.4991 78.2179 30.4991C78.7346 30.4991 79.1884 30.6004 79.5794 30.8028C79.9773 30.9983 80.302 31.2636 80.5533 31.5987C80.8675 31.2357 81.2166 30.9634 81.6006 30.7819C81.9915 30.6004 82.4698 30.5096 83.0353 30.5096C83.6288 30.5096 84.1419 30.6388 84.5748 30.8971C85.0146 31.1484 85.3532 31.494 85.5906 31.9339C85.828 32.3667 85.9467 32.8589 85.9467 33.4105C85.9467 33.976 85.8245 34.4787 85.5801 34.9185C85.3428 35.3584 85.0042 35.704 84.5643 35.9553C84.1245 36.1997 83.5973 36.3219 82.9829 36.3219C82.4384 36.3219 81.9636 36.2241 81.5587 36.0286C81.1607 35.8331 80.8326 35.5574 80.5743 35.2013C80.3159 35.5504 79.9808 35.8262 79.5689 36.0286C79.164 36.2241 78.7032 36.3219 78.1865 36.3219ZM78.2179 35.5469C78.8184 35.5469 79.2896 35.3514 79.6317 34.9604C79.9808 34.5695 80.1554 34.0598 80.1554 33.4314C80.1554 32.7891 79.9843 32.269 79.6422 31.871C79.3071 31.4731 78.8358 31.2741 78.2284 31.2741C77.6419 31.2741 77.1672 31.4696 76.8041 31.8606C76.4481 32.2515 76.27 32.7752 76.27 33.4314C76.27 33.8573 76.3538 34.2308 76.5214 34.552C76.6959 34.8662 76.9298 35.1105 77.223 35.2851C77.5163 35.4596 77.8479 35.5469 78.2179 35.5469ZM81.1188 33.4105C81.1188 33.7526 81.0735 34.0772 80.9827 34.3844C81.1572 34.7405 81.419 35.0268 81.7681 35.2432C82.1172 35.4526 82.5256 35.5574 82.9934 35.5574C83.6148 35.5574 84.1035 35.3619 84.4596 34.9709C84.8156 34.5729 84.9937 34.0598 84.9937 33.4314C84.9937 32.7682 84.8226 32.2445 84.4805 31.8606C84.1454 31.4696 83.6706 31.2741 83.0563 31.2741C82.6304 31.2741 82.2429 31.3544 81.8938 31.515C81.5517 31.6686 81.2445 31.9688 80.9722 32.4156C81.07 32.7298 81.1188 33.0614 81.1188 33.4105ZM90.0104 36.3219C89.7172 36.3219 89.4344 36.2765 89.1621 36.1857C88.8898 36.095 88.6385 35.9693 88.4081 35.8087V39.0343C88.4081 39.4532 88.5023 39.7743 88.6908 39.9977C88.8793 40.2281 89.1761 40.3433 89.581 40.3433H95.4352C95.8471 40.3433 96.1438 40.2281 96.3253 39.9977C96.5138 39.7743 96.6081 39.4532 96.6081 39.0343V38.8667H97.5402V38.8981C97.5402 40.3713 96.8245 41.1078 95.3933 41.1078H89.6229C88.1917 41.1078 87.476 40.3608 87.476 38.8667V34.6148L88.2091 34.2378C88.3906 34.6707 88.6455 34.9988 88.9736 35.2222C89.3087 35.4387 89.6613 35.5469 90.0313 35.5469C90.4083 35.5469 90.7365 35.4561 91.0158 35.2746C91.295 35.0861 91.5115 34.8278 91.665 34.4996C91.8186 34.1715 91.8954 33.8015 91.8954 33.3895C91.8954 32.7612 91.7314 32.2515 91.4032 31.8606C91.0821 31.4696 90.6248 31.2741 90.0313 31.2741C89.6613 31.2741 89.3087 31.3858 88.9736 31.6092C88.6455 31.8256 88.3906 32.1503 88.2091 32.5832L87.476 32.2061C87.6017 31.864 87.7902 31.5673 88.0415 31.316C88.2999 31.0577 88.6001 30.8587 88.9422 30.719C89.2843 30.5724 89.6404 30.4991 90.0104 30.4991C90.6038 30.4991 91.11 30.6283 91.5289 30.8866C91.9548 31.1379 92.2794 31.4835 92.5029 31.9234C92.7332 32.3563 92.8485 32.8485 92.8485 33.4C92.8485 33.6793 92.8205 33.9446 92.7647 34.1959C92.9811 34.6428 93.2464 34.9814 93.5606 35.2118C93.8748 35.4352 94.2657 35.5469 94.7335 35.5469C95.313 35.5469 95.7703 35.3479 96.1054 34.95C96.4405 34.552 96.6081 34.0319 96.6081 33.3895C96.6081 32.7402 96.437 32.2271 96.0949 31.8501C95.7598 31.4661 95.313 31.2741 94.7545 31.2741C94.3774 31.2741 94.0563 31.3369 93.791 31.4626L93.4559 30.7714C93.6513 30.6737 93.8608 30.6038 94.0842 30.562C94.3146 30.5201 94.5869 30.4991 94.9011 30.4991C95.4177 30.4991 95.875 30.6178 96.273 30.8552C96.6779 31.0926 96.9921 31.4312 97.2155 31.871C97.4459 32.3039 97.5611 32.817 97.5611 33.4105C97.5611 33.969 97.4424 34.4682 97.205 34.9081C96.9677 35.3479 96.636 35.6935 96.2101 35.9449C95.7912 36.1962 95.2955 36.3219 94.723 36.3219C94.2483 36.3219 93.8084 36.2241 93.4035 36.0286C92.9986 35.8262 92.6634 35.526 92.3981 35.128C92.1608 35.498 91.8396 35.7913 91.4347 36.0077C91.0367 36.2171 90.5619 36.3219 90.0104 36.3219ZM94.737 39.5893C94.3949 39.5893 94.1191 39.4916 93.9097 39.2961C93.7002 39.1076 93.5955 38.8353 93.5955 38.4792C93.5955 38.1301 93.7002 37.8578 93.9097 37.6624C94.1191 37.4669 94.3949 37.3691 94.737 37.3691C95.0721 37.3691 95.3514 37.4669 95.5748 37.6624C95.7912 37.8578 95.8995 38.1266 95.8995 38.4687C95.8995 38.8248 95.7912 39.1006 95.5748 39.2961C95.3514 39.4916 95.0721 39.5893 94.737 39.5893ZM94.7475 39.0343C94.9081 39.0343 95.0407 38.9854 95.1454 38.8876C95.2502 38.7899 95.3025 38.6538 95.3025 38.4792C95.3025 38.3047 95.2502 38.1685 95.1454 38.0708C95.0407 37.973 94.9081 37.9242 94.7475 37.9242C94.5869 37.9242 94.4542 37.973 94.3495 38.0708C94.2448 38.1685 94.1924 38.3047 94.1924 38.4792C94.1924 38.8492 94.3774 39.0343 94.7475 39.0343ZM94.1732 29.6613C93.8172 29.4658 93.5274 29.197 93.304 28.8549C93.0806 28.5058 92.9689 28.1009 92.9689 27.6401C92.9689 27.2422 93.0527 26.9001 93.2202 26.6138C93.3878 26.3276 93.6147 26.1076 93.9009 25.954C94.1872 25.8004 94.5118 25.7236 94.8749 25.7236C95.231 25.7236 95.5521 25.7969 95.8384 25.9436C96.1176 26.0902 96.3376 26.2996 96.4981 26.5719L95.9012 27.0327C95.7895 26.8442 95.6464 26.6976 95.4718 26.5929C95.2973 26.4811 95.1018 26.4253 94.8854 26.4253C94.5433 26.4253 94.278 26.544 94.0894 26.7814C93.9009 27.0187 93.8067 27.305 93.8067 27.6401C93.8067 28.0032 93.894 28.3069 94.0685 28.5512C94.2361 28.7886 94.4246 28.9771 94.634 29.1167L94.1732 29.6613ZM103.471 41.1078V33.4314C103.471 33.0056 103.391 32.632 103.23 32.3109C103.077 31.9897 102.857 31.7384 102.57 31.5568C102.291 31.3683 101.956 31.2741 101.565 31.2741C101.104 31.2741 100.717 31.3998 100.403 31.6511C100.088 31.9024 99.8721 32.2515 99.7534 32.6984C100.661 32.7821 101.373 33.1208 101.89 33.7142C102.406 34.3007 102.665 35.1036 102.665 36.1229C102.504 36.1718 102.326 36.2171 102.131 36.259C101.935 36.3009 101.733 36.3219 101.523 36.3219C100.958 36.3219 100.465 36.1962 100.047 35.9449C99.6277 35.6935 99.2996 35.3479 99.0622 34.9081C98.8318 34.4682 98.7166 33.969 98.7166 33.4105C98.7166 32.845 98.8353 32.3458 99.0726 31.9129C99.31 31.4731 99.6417 31.1275 100.068 30.8761C100.493 30.6248 100.989 30.4991 101.555 30.4991C102.141 30.4991 102.644 30.6283 103.063 30.8866C103.489 31.1379 103.817 31.4835 104.047 31.9234C104.278 32.3563 104.393 32.852 104.393 33.4105V40.3957H105.702V41.1078H103.471ZM101.555 35.5469C101.638 35.5469 101.722 35.5434 101.806 35.5364C101.743 34.9011 101.523 34.4054 101.146 34.0493C100.769 33.6933 100.277 33.4908 99.6696 33.4419C99.6696 34.0633 99.8336 34.5695 100.162 34.9604C100.497 35.3514 100.961 35.5469 101.555 35.5469ZM108.158 41.1078V36.3219H107.802C107.068 36.3219 106.538 36.1822 106.21 35.903C105.882 35.6167 105.717 35.2606 105.717 34.8348C105.717 34.5485 105.787 34.3007 105.927 34.0912C106.074 33.8748 106.266 33.7072 106.503 33.5885C106.747 33.4698 107.013 33.4105 107.299 33.4105C107.871 33.4105 108.297 33.5885 108.576 33.9446C108.856 34.2937 109.02 34.8278 109.069 35.5469C109.39 35.519 109.638 35.4352 109.812 35.2956C109.987 35.1559 110.074 34.936 110.074 34.6358C110.074 34.3705 109.931 34.1471 109.645 33.9655C109.358 33.784 108.95 33.6025 108.419 33.421C107.896 33.2394 107.519 33.0335 107.288 32.8031C107.065 32.5727 106.953 32.2795 106.953 31.9234C106.953 31.6511 107.03 31.4102 107.184 31.2008C107.337 30.9843 107.54 30.8133 107.791 30.6876C108.042 30.562 108.315 30.4991 108.608 30.4991C108.929 30.4991 109.194 30.5305 109.404 30.5934C109.62 30.6492 109.812 30.7365 109.98 30.8552C110.154 30.9669 110.336 31.1135 110.524 31.295L109.98 31.8815C109.749 31.6511 109.54 31.4905 109.351 31.3998C109.163 31.302 108.929 31.2531 108.65 31.2531C108.426 31.2531 108.234 31.3125 108.074 31.4312C107.913 31.5499 107.833 31.7 107.833 31.8815C107.833 32.0979 107.938 32.2725 108.147 32.4051C108.364 32.5308 108.692 32.6669 109.132 32.8136C109.529 32.9462 109.865 33.0893 110.137 33.2429C110.409 33.3895 110.615 33.5711 110.755 33.7875C110.894 34.0039 110.964 34.2797 110.964 34.6148C110.964 35.1454 110.79 35.5469 110.441 35.8192C110.092 36.0915 109.641 36.252 109.09 36.3009V41.1078H108.158ZM107.781 35.5574H108.158V35.5469C108.158 35.0652 108.067 34.7196 107.885 34.5101C107.711 34.2937 107.491 34.1855 107.226 34.1855C107.051 34.1855 106.89 34.2378 106.744 34.3426C106.604 34.4473 106.534 34.6148 106.534 34.8452C106.534 35.0617 106.639 35.2362 106.849 35.3689C107.065 35.4945 107.376 35.5574 107.781 35.5574ZM107.898 29.6613C107.542 29.4658 107.253 29.197 107.029 28.8549C106.806 28.5058 106.694 28.1009 106.694 27.6401C106.694 27.2422 106.778 26.9001 106.945 26.6138C107.113 26.3276 107.34 26.1076 107.626 25.954C107.912 25.8004 108.237 25.7236 108.6 25.7236C108.956 25.7236 109.277 25.7969 109.564 25.9436C109.843 26.0902 110.063 26.2996 110.223 26.5719L109.626 27.0327C109.515 26.8442 109.372 26.6976 109.197 26.5929C109.022 26.4811 108.827 26.4253 108.611 26.4253C108.268 26.4253 108.003 26.544 107.815 26.7814C107.626 27.0187 107.532 27.305 107.532 27.6401C107.532 28.0032 107.619 28.3069 107.794 28.5512C107.961 28.7886 108.15 28.9771 108.359 29.1167L107.898 29.6613Z" fill="white"/>
</g>
<defs>
<clipPath id="clip0_568_691">
<rect width="173.67" height="47.9992" fill="white"/>
</clipPath>
</defs>
</svg>
