<svg width="174" height="58" viewBox="0 0 174 58" fill="none" xmlns="http://www.w3.org/2000/svg">
<g clip-path="url(#clip0_568_1034)">
<path d="M144.726 0.526367H28.9461C13.2508 0.526367 0.527344 13.2499 0.527344 28.9451C0.527344 44.6403 13.2508 57.3638 28.9461 57.3638H144.726C160.421 57.3638 173.145 44.6403 173.145 28.9451C173.145 13.2499 160.421 0.526367 144.726 0.526367Z" fill="#1F1F1F"/>
<path d="M59.9932 25.0414H22.1016V19.0994C22.1016 15.8736 24.8826 13.1572 28.1851 13.1572H53.9097C57.2122 13.1572 59.9932 15.8736 59.9932 19.0994V25.0414Z" fill="#34A853"/>
<path d="M59.9932 30.5241H22.1016V24.2088C22.1016 20.7806 24.8826 17.8936 28.1851 17.8936H53.9097C57.2122 17.8936 59.9932 20.7806 59.9932 24.2088V30.5241Z" fill="#FBBC04"/>
<path d="M59.9932 35.7868H22.1016V29.4715C22.1016 26.0433 24.8826 23.1562 28.1851 23.1562H53.9097C57.2122 23.1562 59.9932 26.0433 59.9932 29.4715V35.7868Z" fill="#EA4335"/>
<path d="M22.1016 26.5671L46.1515 31.9999C48.9199 32.679 52.0343 31.9999 54.2835 30.3022L59.9932 26.2275V38.9606C59.9932 42.1863 57.2249 44.733 53.9375 44.733H28.1573C24.8699 44.733 22.1016 42.1863 22.1016 38.9606V26.5671Z" fill="url(#paint0_linear_568_1034)"/>
<path d="M75.7308 22.6293V14.2553H72.9805V12.8323H79.9589V14.2553H77.2222V22.6293H75.7308ZM81.3038 22.6293V12.8323H82.7816V15.5141L82.6995 16.6088H82.7816C82.9731 16.2712 83.265 15.9931 83.6573 15.7741C84.0586 15.546 84.501 15.432 84.9845 15.432C85.8511 15.432 86.5034 15.692 86.9412 16.212C87.3791 16.7228 87.598 17.3933 87.598 18.2234V22.6293H86.1339V18.415C86.1339 17.8494 85.9834 17.4389 85.6824 17.1835C85.3904 16.919 85.0301 16.7867 84.6014 16.7867C84.2457 16.7867 83.9309 16.887 83.6573 17.0877C83.3836 17.2884 83.1692 17.5529 83.0142 17.8813C82.859 18.2006 82.7816 18.5426 82.7816 18.9075V22.6293H81.3038ZM92.4693 22.8483C91.7851 22.8483 91.1739 22.6886 90.6358 22.3694C90.0975 22.0501 89.6733 21.6123 89.3632 21.0558C89.0622 20.4993 88.9117 19.8654 88.9117 19.1538C88.9117 18.4879 89.0576 17.8722 89.3496 17.3066C89.6414 16.7411 90.0474 16.2896 90.5673 15.952C91.0964 15.6054 91.703 15.432 92.3872 15.432C93.1078 15.432 93.719 15.5871 94.2207 15.8973C94.7315 16.2075 95.1192 16.6316 95.3838 17.1698C95.6483 17.708 95.7806 18.3146 95.7806 18.9896C95.7806 19.09 95.776 19.1812 95.7669 19.2633C95.7669 19.3454 95.7623 19.4093 95.7532 19.4549H90.3621C90.435 20.1482 90.6768 20.6681 91.0873 21.0147C91.5069 21.3613 91.9812 21.5347 92.5103 21.5347C92.9846 21.5347 93.3769 21.4298 93.6871 21.22C93.9972 21.0011 94.2435 20.7319 94.426 20.4127L95.6438 21.0011C95.3428 21.5484 94.9323 21.9954 94.4123 22.342C93.8923 22.6796 93.2446 22.8483 92.4693 22.8483ZM92.4009 16.6909C91.9083 16.6909 91.4886 16.8414 91.142 17.1424C90.7953 17.4435 90.5627 17.8448 90.4442 18.3465H94.3165C94.2982 18.1094 94.2207 17.8631 94.0839 17.6077C93.9471 17.3522 93.7372 17.1379 93.4545 16.9645C93.1808 16.7821 92.8296 16.6909 92.4009 16.6909ZM90.28 14.31V14.2142L91.7441 12.5586H93.044L94.5218 14.2142V14.31H93.0987L92.4556 13.4617H92.3188L91.6894 14.31H90.28ZM97.1515 22.6293V15.651H98.5472V16.6088H98.6293C98.83 16.2712 99.1219 15.9931 99.505 15.7741C99.8882 15.546 100.312 15.432 100.778 15.432C101.298 15.432 101.74 15.5552 102.105 15.8015C102.47 16.0478 102.73 16.358 102.885 16.7319C103.113 16.367 103.423 16.0615 103.815 15.8152C104.207 15.5597 104.686 15.432 105.252 15.432C106.072 15.432 106.684 15.6829 107.085 16.1846C107.487 16.6772 107.687 17.334 107.687 18.155V22.6293H106.223V18.4013C106.223 17.8448 106.1 17.4389 105.854 17.1835C105.617 16.919 105.284 16.7867 104.855 16.7867C104.518 16.7867 104.221 16.8825 103.966 17.074C103.71 17.2564 103.51 17.5073 103.364 17.8266C103.227 18.1458 103.158 18.5016 103.158 18.8939V22.6293H101.694V18.4013C101.694 17.8448 101.571 17.4389 101.325 17.1835C101.079 16.919 100.732 16.7867 100.285 16.7867C99.9566 16.7867 99.6692 16.8825 99.4229 17.074C99.1766 17.2656 98.9806 17.521 98.8346 17.8403C98.6977 18.1595 98.6293 18.5153 98.6293 18.9075V22.6293H97.1515ZM114.665 22.6293L111.778 15.651H113.42L115.377 20.7274H115.445L117.443 15.651H119.058L116.143 22.6293H114.665ZM122.07 22.8483C121.568 22.8483 121.122 22.7525 120.729 22.5609C120.337 22.3602 120.031 22.082 119.812 21.7263C119.593 21.3705 119.484 20.9645 119.484 20.5085C119.484 20.0159 119.611 19.5962 119.867 19.2496C120.131 18.8939 120.483 18.6247 120.921 18.4423C121.359 18.2599 121.842 18.1687 122.371 18.1687C122.809 18.1687 123.192 18.2097 123.521 18.2918C123.858 18.3739 124.113 18.4605 124.287 18.5518V18.1823C124.287 17.7263 124.123 17.3614 123.794 17.0877C123.466 16.814 123.042 16.6772 122.522 16.6772C122.166 16.6772 121.828 16.7593 121.509 16.9235C121.19 17.0785 120.934 17.2929 120.743 17.5666L119.73 16.7867C120.031 16.367 120.428 16.0386 120.921 15.8015C121.423 15.5552 121.97 15.432 122.563 15.432C123.575 15.432 124.355 15.6829 124.903 16.1846C125.45 16.6772 125.724 17.3705 125.724 18.2644V22.6293H124.287V21.7673H124.205C124.023 22.0501 123.749 22.301 123.384 22.5199C123.018 22.7388 122.581 22.8483 122.07 22.8483ZM122.33 21.6442C122.713 21.6442 123.051 21.5529 123.343 21.3705C123.634 21.1881 123.863 20.9509 124.027 20.659C124.2 20.358 124.287 20.0341 124.287 19.6875C124.077 19.5689 123.831 19.4731 123.548 19.4001C123.265 19.318 122.964 19.277 122.645 19.277C122.043 19.277 121.614 19.4001 121.359 19.6464C121.103 19.8836 120.975 20.1755 120.975 20.5222C120.975 20.8505 121.099 21.1197 121.345 21.3295C121.591 21.5392 121.92 21.6442 122.33 21.6442ZM122.015 14.31L120.921 12.5586H122.604L123.247 14.31H122.015ZM130.567 22.8483C129.847 22.8483 129.213 22.6841 128.665 22.3557C128.118 22.0273 127.69 21.5849 127.379 21.0284C127.07 20.4719 126.914 19.8425 126.914 19.1402C126.914 18.4468 127.07 17.8221 127.379 17.2656C127.69 16.7 128.118 16.253 128.665 15.9246C129.213 15.5962 129.847 15.432 130.567 15.432C131.279 15.432 131.908 15.5962 132.456 15.9246C133.003 16.253 133.432 16.7 133.742 17.2656C134.052 17.8221 134.207 18.4468 134.207 19.1402C134.207 19.8425 134.052 20.4719 133.742 21.0284C133.432 21.5849 133.003 22.0273 132.456 22.3557C131.908 22.6841 131.279 22.8483 130.567 22.8483ZM130.567 21.4937C130.95 21.4937 131.306 21.4024 131.635 21.22C131.963 21.0284 132.228 20.7593 132.428 20.4127C132.639 20.0569 132.743 19.6328 132.743 19.1402C132.743 18.6476 132.639 18.2279 132.428 17.8813C132.228 17.5256 131.963 17.2564 131.635 17.074C131.306 16.8825 130.95 16.7867 130.567 16.7867C130.184 16.7867 129.824 16.8825 129.486 17.074C129.158 17.2564 128.89 17.5256 128.679 17.8813C128.479 18.2279 128.378 18.6476 128.378 19.1402C128.378 19.6328 128.479 20.0569 128.679 20.4127C128.89 20.7593 129.158 21.0284 129.486 21.22C129.824 21.4024 130.184 21.4937 130.567 21.4937Z" fill="white"/>
<path d="M77.4199 43.6802L72.875 30.8686H75.0222L77.9209 39.3858L78.3682 40.8352H78.4756L78.9587 39.3858L81.9827 30.8686H84.1299L79.4597 43.6802H77.4199ZM85.3054 43.6802V34.5546H87.2378V43.6802H85.3054ZM85.4843 32.8011L86.3253 30.5107H88.5082L87.0768 32.8011H85.4843ZM99.8503 43.9665C98.9317 43.9665 98.0668 43.7994 97.2557 43.4655C96.4564 43.1315 95.7467 42.6663 95.1264 42.0698C94.5061 41.4614 94.0171 40.7517 93.6592 39.9405C93.3132 39.1174 93.1403 38.2287 93.1403 37.2744C93.1403 36.3201 93.3132 35.4374 93.6592 34.6262C94.0171 33.8031 94.5002 33.0934 95.1086 32.4969C95.7288 31.8885 96.4446 31.4173 97.2557 31.0833C98.0668 30.7494 98.9317 30.5823 99.8503 30.5823C100.828 30.5823 101.729 30.7552 102.552 31.1012C103.387 31.4472 104.085 31.9303 104.646 32.5506L103.286 33.8926C102.868 33.4273 102.367 33.0695 101.783 32.819C101.21 32.5685 100.566 32.4432 99.8503 32.4432C99.0033 32.4432 98.222 32.646 97.5063 33.0516C96.7905 33.4452 96.2119 34.0059 95.7706 34.7336C95.3412 35.4493 95.1264 36.2963 95.1264 37.2744C95.1264 38.2525 95.3471 39.1055 95.7885 39.8331C96.2298 40.5489 96.8084 41.1096 97.5241 41.5151C98.2399 41.9088 99.0212 42.1056 99.8682 42.1056C100.643 42.1056 101.347 41.9624 101.98 41.6761C102.612 41.378 103.119 40.9604 103.501 40.4236C103.894 39.8868 104.133 39.2427 104.216 38.4911H99.8324V36.7555H106.06C106.131 37.0776 106.167 37.4175 106.167 37.7754V37.7933C106.167 39.0339 105.892 40.1194 105.344 41.0499C104.807 41.9684 104.061 42.6842 103.107 43.1971C102.153 43.71 101.067 43.9665 99.8503 43.9665ZM111.928 43.9665C110.986 43.9665 110.156 43.7518 109.44 43.3223C108.725 42.8929 108.165 42.3143 107.758 41.5867C107.353 40.8591 107.15 40.036 107.15 39.1174C107.15 38.2108 107.353 37.3937 107.758 36.666C108.165 35.9264 108.725 35.3419 109.44 34.9125C110.156 34.483 110.986 34.2683 111.928 34.2683C112.858 34.2683 113.681 34.483 114.397 34.9125C115.113 35.3419 115.674 35.9264 116.079 36.666C116.485 37.3937 116.687 38.2108 116.687 39.1174C116.687 40.036 116.485 40.8591 116.079 41.5867C115.674 42.3143 115.113 42.8929 114.397 43.3223C113.681 43.7518 112.858 43.9665 111.928 43.9665ZM111.928 42.1951C112.429 42.1951 112.894 42.0758 113.323 41.8372C113.753 41.5867 114.099 41.2348 114.361 40.7815C114.636 40.3163 114.773 39.7616 114.773 39.1174C114.773 38.4732 114.636 37.9246 114.361 37.4712C114.099 37.006 113.753 36.6541 113.323 36.4155C112.894 36.165 112.429 36.0398 111.928 36.0398C111.427 36.0398 110.956 36.165 110.514 36.4155C110.085 36.6541 109.733 37.006 109.458 37.4712C109.196 37.9246 109.065 38.4732 109.065 39.1174C109.065 39.7616 109.196 40.3163 109.458 40.7815C109.733 41.2348 110.085 41.5867 110.514 41.8372C110.956 42.0758 111.427 42.1951 111.928 42.1951ZM122.761 43.9665C121.819 43.9665 120.99 43.7518 120.274 43.3223C119.559 42.8929 118.999 42.3143 118.592 41.5867C118.187 40.8591 117.984 40.036 117.984 39.1174C117.984 38.2108 118.187 37.3937 118.592 36.666C118.999 35.9264 119.559 35.3419 120.274 34.9125C120.99 34.483 121.819 34.2683 122.761 34.2683C123.692 34.2683 124.515 34.483 125.231 34.9125C125.946 35.3419 126.507 35.9264 126.913 36.666C127.319 37.3937 127.521 38.2108 127.521 39.1174C127.521 40.036 127.319 40.8591 126.913 41.5867C126.507 42.3143 125.946 42.8929 125.231 43.3223C124.515 43.7518 123.692 43.9665 122.761 43.9665ZM122.761 42.1951C123.262 42.1951 123.728 42.0758 124.157 41.8372C124.587 41.5867 124.933 41.2348 125.195 40.7815C125.47 40.3163 125.606 39.7616 125.606 39.1174C125.606 38.4732 125.47 37.9246 125.195 37.4712C124.933 37.006 124.587 36.6541 124.157 36.4155C123.728 36.165 123.262 36.0398 122.761 36.0398C122.26 36.0398 121.79 36.165 121.348 36.4155C120.918 36.6541 120.567 37.006 120.292 37.4712C120.03 37.9246 119.899 38.4732 119.899 39.1174C119.899 39.7616 120.03 40.3163 120.292 40.7815C120.567 41.2348 120.918 41.5867 121.348 41.8372C121.79 42.0758 122.26 42.1951 122.761 42.1951ZM133.416 47.8314C132.617 47.8314 131.926 47.7002 131.341 47.4378C130.768 47.1873 130.303 46.8592 129.945 46.4536C129.587 46.06 129.331 45.6545 129.176 45.2369L130.965 44.4854C131.157 44.9625 131.461 45.3503 131.878 45.6485C132.307 45.9586 132.821 46.1137 133.416 46.1137C134.252 46.1137 134.908 45.8632 135.385 45.3622C135.874 44.8611 136.118 44.1514 136.118 43.2329V42.3561H136.011C135.725 42.7855 135.326 43.1315 134.812 43.3939C134.311 43.6444 133.738 43.7697 133.094 43.7697C132.32 43.7697 131.609 43.5728 130.965 43.1792C130.321 42.7855 129.802 42.2368 129.408 41.533C129.015 40.8173 128.818 39.9823 128.818 39.0279C128.818 38.0617 129.015 37.2267 129.408 36.5229C129.802 35.8072 130.321 35.2525 130.965 34.8588C131.609 34.4652 132.32 34.2683 133.094 34.2683C133.738 34.2683 134.311 34.3996 134.812 34.662C135.326 34.9244 135.725 35.2704 136.011 35.6998H136.118V34.5546H137.961V43.1971C137.961 44.1872 137.764 45.0282 137.371 45.72C136.99 46.4119 136.458 46.9368 135.778 47.2946C135.098 47.6525 134.311 47.8314 133.416 47.8314ZM133.434 42.0161C133.912 42.0161 134.353 41.9028 134.758 41.6761C135.165 41.4375 135.492 41.0976 135.742 40.6562C135.993 40.2029 136.118 39.6602 136.118 39.0279C136.118 38.3719 135.993 37.8231 135.742 37.3818C135.492 36.9284 135.165 36.5885 134.758 36.3618C134.353 36.1352 133.912 36.0219 133.434 36.0219C132.957 36.0219 132.51 36.1411 132.092 36.3797C131.687 36.6063 131.359 36.9404 131.108 37.3818C130.858 37.8231 130.732 38.3719 130.732 39.0279C130.732 39.6721 130.858 40.2208 131.108 40.6741C131.359 41.1155 131.687 41.4495 132.092 41.6761C132.51 41.9028 132.957 42.0161 133.434 42.0161ZM140.24 43.6802V30.8686H142.172V43.6802H140.24ZM148.533 43.9665C147.638 43.9665 146.839 43.7578 146.135 43.3402C145.431 42.9227 144.876 42.3501 144.471 41.6225C144.078 40.8948 143.881 40.0657 143.881 39.1353C143.881 38.2645 144.071 37.4593 144.453 36.7197C144.835 35.9801 145.366 35.3896 146.046 34.9483C146.737 34.4949 147.531 34.2683 148.426 34.2683C149.368 34.2683 150.168 34.4712 150.823 34.8767C151.492 35.2822 151.998 35.8369 152.344 36.5408C152.691 37.2446 152.863 38.0378 152.863 38.9206C152.863 39.0518 152.857 39.1711 152.845 39.2784C152.845 39.3858 152.839 39.4693 152.827 39.529H145.777C145.873 40.4355 146.189 41.1155 146.726 41.5688C147.274 42.0221 147.895 42.2487 148.587 42.2487C149.207 42.2487 149.72 42.1116 150.126 41.8372C150.531 41.5509 150.853 41.199 151.092 40.7815L152.684 41.5509C152.291 42.2666 151.754 42.8511 151.074 43.3044C150.394 43.7458 149.547 43.9665 148.533 43.9665ZM148.444 35.9145C147.799 35.9145 147.251 36.1113 146.797 36.505C146.344 36.8986 146.04 37.4235 145.885 38.0796H150.949C150.924 37.7694 150.823 37.4473 150.644 37.1134C150.466 36.7794 150.191 36.499 149.821 36.2724C149.463 36.0338 149.005 35.9145 148.444 35.9145Z" fill="white"/>
<path d="M144.726 0.526367H28.9461C13.2508 0.526367 0.527344 13.2499 0.527344 28.9451C0.527344 44.6403 13.2508 57.3638 28.9461 57.3638H144.726C160.421 57.3638 173.145 44.6403 173.145 28.9451C173.145 13.2499 160.421 0.526367 144.726 0.526367Z" stroke="#747775"/>
</g>
<defs>
<linearGradient id="paint0_linear_568_1034" x1="39.2415" y1="35.8336" x2="19.7673" y2="58.6506" gradientUnits="userSpaceOnUse">
<stop stop-color="#4285F4"/>
<stop offset="1" stop-color="#1B74E8"/>
</linearGradient>
<clipPath id="clip0_568_1034">
<rect width="173.67" height="57.89" fill="white"/>
</clipPath>
</defs>
</svg>
