<svg width="174" height="30" viewBox="0 0 174 30" fill="none" xmlns="http://www.w3.org/2000/svg">
<g clip-path="url(#clip0_568_753)">
<path d="M159.148 0.290039H14.5195C6.66027 0.290039 0.289062 6.66124 0.289062 14.5205C0.289062 22.3798 6.66027 28.751 14.5195 28.751H159.148C167.007 28.751 173.378 22.3798 173.378 14.5205C173.378 6.66124 167.007 0.290039 159.148 0.290039Z" fill="#1F1F1F"/>
<path d="M29.6243 12.7781H12.1992V9.87391C12.1992 8.29734 13.4781 6.96973 14.9968 6.96973H26.8267C28.3454 6.96973 29.6243 8.29734 29.6243 9.87391V12.7781Z" fill="#34A853"/>
<path d="M29.6243 15.1326H12.1992V12.2284C12.1992 10.6518 13.4781 9.32422 14.9968 9.32422H26.8267C28.3454 9.32422 29.6243 10.6518 29.6243 12.2284V15.1326Z" fill="#FBBC04"/>
<path d="M29.6243 17.5681H12.1992V14.6639C12.1992 13.0874 13.4781 11.7598 14.9968 11.7598H26.8267C28.3454 11.7598 29.6243 13.0874 29.6243 14.6639V17.5681Z" fill="#EA4335"/>
<path d="M12.1992 13.5192L23.259 16.077C24.5321 16.3968 25.9642 16.077 26.9986 15.2778L29.6243 13.3594V19.3542C29.6243 20.873 28.3512 22.0719 26.8395 22.0719H14.984C13.4723 22.0719 12.1992 20.873 12.1992 19.3542V13.5192Z" fill="url(#paint0_linear_568_753)"/>
<path d="M37.5352 18.5867V10.2691H38.813V17.3785H42.3909V18.5867H37.5352ZM46.068 18.7725C45.4871 18.7725 44.9683 18.637 44.5113 18.3659C44.0545 18.0949 43.6943 17.7231 43.431 17.2507C43.1754 16.7783 43.0476 16.2401 43.0476 15.636C43.0476 15.0707 43.1716 14.5479 43.4194 14.0677C43.6672 13.5876 44.0118 13.2042 44.4533 12.9177C44.9025 12.6234 45.4174 12.4763 45.9983 12.4763C46.6101 12.4763 47.129 12.6079 47.5549 12.8712C47.9886 13.1345 48.3178 13.4946 48.5423 13.9516C48.767 14.4085 48.8792 14.9235 48.8792 15.4966C48.8792 15.5818 48.8754 15.6592 48.8676 15.7289C48.8676 15.7986 48.8638 15.8528 48.856 15.8916H44.279C44.341 16.4801 44.5462 16.9216 44.8947 17.2159C45.251 17.5102 45.6537 17.6573 46.1028 17.6573C46.5056 17.6573 46.8386 17.5683 47.1019 17.3901C47.3652 17.2043 47.5743 16.9758 47.7292 16.7047L48.7631 17.2043C48.5075 17.6689 48.159 18.0484 47.7176 18.3427C47.2761 18.6292 46.7263 18.7725 46.068 18.7725ZM46.0099 13.545C45.5917 13.545 45.2355 13.6728 44.9412 13.9283C44.6469 14.1839 44.4494 14.5247 44.3487 14.9506H47.6362C47.6208 14.7492 47.5549 14.5401 47.4388 14.3233C47.3226 14.1065 47.1445 13.9245 46.9044 13.7773C46.6721 13.6224 46.3739 13.545 46.0099 13.545ZM52.7718 21.2817C52.2529 21.2817 51.8037 21.1965 51.4242 21.0262C51.0525 20.8635 50.7505 20.6505 50.5181 20.3872C50.2858 20.1317 50.1193 19.8684 50.0186 19.5973L51.1803 19.1094C51.3042 19.4192 51.5017 19.6709 51.7727 19.8645C52.0515 20.0659 52.3845 20.1665 52.7718 20.1665C53.3139 20.1665 53.7398 20.0039 54.0496 19.6786C54.3671 19.3534 54.5259 18.8926 54.5259 18.2962V17.727H54.4562C54.2703 18.0058 54.0109 18.2304 53.6779 18.4008C53.3526 18.5634 52.9809 18.6447 52.5627 18.6447C52.0593 18.6447 51.5985 18.517 51.1803 18.2614C50.7621 18.0058 50.4252 17.6496 50.1696 17.1926C49.9141 16.728 49.7863 16.1859 49.7863 15.5663C49.7863 14.939 49.9141 14.3969 50.1696 13.94C50.4252 13.4753 50.7621 13.1152 51.1803 12.8596C51.5985 12.604 52.0593 12.4763 52.5627 12.4763C52.9809 12.4763 53.3526 12.5615 53.6779 12.7318C54.0109 12.9022 54.2703 13.1268 54.4562 13.4056H54.5259V12.6621H55.7224V18.273C55.7224 18.9158 55.5946 19.4618 55.3391 19.911C55.0912 20.3601 54.7466 20.7009 54.3052 20.9332C53.8637 21.1656 53.3526 21.2817 52.7718 21.2817ZM52.7834 17.5063C53.0931 17.5063 53.3797 17.4327 53.643 17.2856C53.9063 17.1307 54.1193 16.91 54.2819 16.6234C54.4446 16.3291 54.5259 15.9768 54.5259 15.5663C54.5259 15.1404 54.4446 14.7841 54.2819 14.4976C54.1193 14.2033 53.9063 13.9825 53.643 13.8354C53.3797 13.6883 53.0931 13.6147 52.7834 13.6147C52.4736 13.6147 52.1832 13.6921 51.9121 13.847C51.6488 13.9942 51.4358 14.211 51.2732 14.4976C51.1106 14.7841 51.0293 15.1404 51.0293 15.5663C51.0293 15.9845 51.1106 16.3407 51.2732 16.635C51.4358 16.9216 51.6488 17.1385 51.9121 17.2856C52.1832 17.4327 52.4736 17.5063 52.7834 17.5063ZM59.8056 21.2817C59.2863 21.2817 58.8373 21.1965 58.458 21.0262C58.0863 20.8635 57.784 20.6505 57.5517 20.3872C57.3194 20.1317 57.1528 19.8684 57.0522 19.5973L58.2141 19.1094C58.3378 19.4192 58.5353 19.6709 58.8065 19.8645C59.0853 20.0659 59.4182 20.1665 59.8056 20.1665C60.3475 20.1665 60.7732 20.0039 61.0834 19.6786C61.4006 19.3534 61.5597 18.8926 61.5597 18.2962V17.727H61.49C61.3041 18.0058 61.0445 18.2304 60.7117 18.4008C60.3864 18.5634 60.0147 18.6447 59.5965 18.6447C59.0929 18.6447 58.6323 18.517 58.2141 18.2614C57.7956 18.0058 57.4588 17.6496 57.2032 17.1926C56.9476 16.728 56.8198 16.1859 56.8198 15.5663C56.8198 14.939 56.9476 14.3969 57.2032 13.94C57.4588 13.4753 57.7956 13.1152 58.2141 12.8596C58.6323 12.604 59.0929 12.4763 59.5965 12.4763C60.0147 12.4763 60.3864 12.5615 60.7117 12.7318C61.0445 12.9022 61.3041 13.1268 61.49 13.4056H61.5597V12.6621H62.7562V18.273C62.7562 18.9158 62.6284 19.4618 62.3729 19.911C62.1249 20.3601 61.7804 20.7009 61.339 20.9332C60.8975 21.1656 60.3864 21.2817 59.8056 21.2817ZM59.8172 17.5063C60.1268 17.5063 60.4131 17.4327 60.6768 17.2856C60.9399 17.1307 61.1531 16.91 61.3157 16.6234C61.4784 16.3291 61.5597 15.9768 61.5597 15.5663C61.5597 15.1404 61.4784 14.7841 61.3157 14.4976C61.1531 14.2033 60.9399 13.9825 60.6768 13.8354C60.4131 13.6883 60.1268 13.6147 59.8172 13.6147C59.507 13.6147 59.2166 13.6921 58.9459 13.847C58.6822 13.9942 58.4697 14.211 58.307 14.4976C58.1444 14.7841 58.0628 15.1404 58.0628 15.5663C58.0628 15.9845 58.1444 16.3407 58.307 16.635C58.4697 16.9216 58.6822 17.1385 58.9459 17.2856C59.2166 17.4327 59.507 17.5063 59.8172 17.5063ZM67.5626 16.8674V13.7541H66.5288V12.6621H67.5626V10.9893H68.8172V12.6621H70.2693V13.7541H68.8172V16.6002C68.8172 16.8945 68.8753 17.1191 68.9915 17.274C69.1152 17.4289 69.3202 17.5063 69.6072 17.5063C69.7541 17.5063 69.8779 17.487 69.9789 17.4482C70.087 17.4095 70.1956 17.3553 70.3042 17.2856V18.5053C70.1723 18.5595 70.0329 18.6022 69.886 18.6331C69.7385 18.6641 69.5642 18.6796 69.3632 18.6796C68.8132 18.6796 68.3758 18.5208 68.0505 18.2033C67.7253 17.878 67.5626 17.4327 67.5626 16.8674ZM72.25 11.7909C72.0177 11.7909 71.8161 11.7096 71.6459 11.5469C71.4833 11.3766 71.402 11.1752 71.402 10.9428C71.402 10.7105 71.4833 10.513 71.6459 10.3504C71.8161 10.1878 72.0177 10.1064 72.25 10.1064C72.4823 10.1064 72.6798 10.1878 72.8424 10.3504C73.0126 10.513 73.098 10.7105 73.098 10.9428C73.098 11.1752 73.0126 11.3766 72.8424 11.5469C72.6798 11.7096 72.4823 11.7909 72.25 11.7909ZM71.6227 18.5867V12.6621H72.8773V18.5867H71.6227ZM74.4456 18.5867V10.2691H75.7002V18.5867H74.4456ZM80.6105 11.7909C80.3782 11.7909 80.1772 11.7096 80.0065 11.5469C79.8438 11.3766 79.7625 11.1752 79.7625 10.9428C79.7625 10.7105 79.8438 10.513 80.0065 10.3504C80.1772 10.1878 80.3782 10.1064 80.6105 10.1064C80.8429 10.1064 81.0404 10.1878 81.203 10.3504C81.3738 10.513 81.4586 10.7105 81.4586 10.9428C81.4586 11.1752 81.3738 11.3766 81.203 11.5469C81.0404 11.7096 80.8429 11.7909 80.6105 11.7909ZM79.9832 18.5867V12.6621H81.2378V18.5867H79.9832Z" fill="white"/>
<path d="M90.2625 18.7723C89.666 18.7723 89.1049 18.6639 88.5781 18.447C88.0594 18.2302 87.5982 17.9282 87.1957 17.5409C86.7932 17.146 86.4755 16.6852 86.2431 16.1586C86.0184 15.6242 85.9062 15.0472 85.9062 14.4277C85.9062 13.8081 86.0184 13.235 86.2431 12.7084C86.4755 12.174 86.7891 11.7132 87.1841 11.326C87.5866 10.931 88.0513 10.6251 88.5781 10.4083C89.1049 10.1914 89.666 10.083 90.2625 10.083C90.8974 10.083 91.4823 10.1953 92.0166 10.4199C92.5586 10.6445 93.0116 10.9582 93.3758 11.3608L92.4929 12.2321C92.2217 11.9301 91.8964 11.6977 91.5171 11.5351C91.1454 11.3725 90.7272 11.2911 90.2625 11.2911C89.7125 11.2911 89.2054 11.4228 88.7407 11.6861C88.2761 11.9417 87.9003 12.3057 87.6139 12.7781C87.3351 13.2428 87.1957 13.7926 87.1957 14.4277C87.1957 15.0627 87.3392 15.6165 87.6255 16.0889C87.9119 16.5535 88.2877 16.9175 88.7524 17.1808C89.217 17.4364 89.7241 17.5642 90.2741 17.5642C90.7777 17.5642 91.2343 17.4712 91.6449 17.2854C92.0556 17.0918 92.3843 16.8207 92.6323 16.4722C92.8879 16.1237 93.043 15.7055 93.097 15.2176H90.2509V14.0908H94.2935C94.34 14.2999 94.3632 14.5206 94.3632 14.7529V14.7645C94.3632 15.57 94.1849 16.2747 93.8289 16.8788C93.4804 17.4751 92.9965 17.9398 92.3768 18.2728C91.757 18.6058 91.0525 18.7723 90.2625 18.7723ZM98.1038 18.7723C97.4922 18.7723 96.9538 18.6329 96.4891 18.3541C96.0244 18.0753 95.6602 17.6997 95.3971 17.2273C95.134 16.7549 95.0021 16.2205 95.0021 15.6242C95.0021 15.0356 95.134 14.5051 95.3971 14.0327C95.6602 13.5525 96.0244 13.1731 96.4891 12.8943C96.9538 12.6155 97.4922 12.4761 98.1038 12.4761C98.7079 12.4761 99.2423 12.6155 99.7069 12.8943C100.172 13.1731 100.536 13.5525 100.799 14.0327C101.062 14.5051 101.194 15.0356 101.194 15.6242C101.194 16.2205 101.062 16.7549 100.799 17.2273C100.536 17.6997 100.172 18.0753 99.7069 18.3541C99.2423 18.6329 98.7079 18.7723 98.1038 18.7723ZM98.1038 17.6223C98.4291 17.6223 98.7311 17.5448 99.0099 17.3899C99.2887 17.2273 99.5135 16.9988 99.6837 16.7045C99.862 16.4025 99.9509 16.0424 99.9509 15.6242C99.9509 15.206 99.862 14.8498 99.6837 14.5554C99.5135 14.2534 99.2887 14.025 99.0099 13.8701C98.7311 13.7074 98.4291 13.6261 98.1038 13.6261C97.7785 13.6261 97.4724 13.7074 97.1861 13.8701C96.9073 14.025 96.679 14.2534 96.5007 14.5554C96.3305 14.8498 96.2451 15.206 96.2451 15.6242C96.2451 16.0424 96.3305 16.4025 96.5007 16.7045C96.679 16.9988 96.9073 17.2273 97.1861 17.3899C97.4724 17.5448 97.7785 17.6223 98.1038 17.6223ZM105.137 18.7723C104.526 18.7723 103.987 18.6329 103.522 18.3541C103.058 18.0753 102.694 17.6997 102.43 17.2273C102.167 16.7549 102.035 16.2205 102.035 15.6242C102.035 15.0356 102.167 14.5051 102.43 14.0327C102.694 13.5525 103.058 13.1731 103.522 12.8943C103.987 12.6155 104.526 12.4761 105.137 12.4761C105.741 12.4761 106.276 12.6155 106.74 12.8943C107.205 13.1731 107.569 13.5525 107.832 14.0327C108.096 14.5051 108.227 15.0356 108.227 15.6242C108.227 16.2205 108.096 16.7549 107.832 17.2273C107.569 17.6997 107.205 18.0753 106.74 18.3541C106.276 18.6329 105.741 18.7723 105.137 18.7723ZM105.137 17.6223C105.462 17.6223 105.764 17.5448 106.043 17.3899C106.322 17.2273 106.547 16.9988 106.717 16.7045C106.895 16.4025 106.984 16.0424 106.984 15.6242C106.984 15.206 106.895 14.8498 106.717 14.5554C106.547 14.2534 106.322 14.025 106.043 13.8701C105.764 13.7074 105.462 13.6261 105.137 13.6261C104.812 13.6261 104.506 13.7074 104.219 13.8701C103.941 14.025 103.712 14.2534 103.534 14.5554C103.364 14.8498 103.278 15.206 103.278 15.6242C103.278 16.0424 103.364 16.4025 103.534 16.7045C103.712 16.9988 103.941 17.2273 104.219 17.3899C104.506 17.5448 104.812 17.6223 105.137 17.6223ZM112.055 21.2815C111.536 21.2815 111.087 21.1963 110.707 21.026C110.336 20.8633 110.034 20.6503 109.801 20.387C109.569 20.1315 109.402 19.8682 109.302 19.5971L110.463 19.1092C110.587 19.419 110.785 19.6707 111.056 19.8643C111.335 20.0657 111.668 20.1663 112.055 20.1663C112.597 20.1663 113.023 20.0037 113.333 19.6784C113.65 19.3532 113.809 18.8924 113.809 18.296V17.7268H113.739C113.553 18.0056 113.294 18.2302 112.961 18.4006C112.636 18.5632 112.264 18.6445 111.846 18.6445C111.342 18.6445 110.882 18.5167 110.463 18.2612C110.045 18.0056 109.708 17.6494 109.453 17.1924C109.197 16.7278 109.069 16.1857 109.069 15.5661C109.069 14.9388 109.197 14.3967 109.453 13.9398C109.708 13.4751 110.045 13.115 110.463 12.8594C110.882 12.6038 111.342 12.4761 111.846 12.4761C112.264 12.4761 112.636 12.5613 112.961 12.7316C113.294 12.902 113.553 13.1266 113.739 13.4054H113.809V12.6619H115.006V18.2728C115.006 18.9156 114.878 19.4616 114.622 19.9108C114.374 20.3599 114.03 20.7007 113.588 20.933C113.147 21.1654 112.636 21.2815 112.055 21.2815ZM112.067 17.5061C112.376 17.5061 112.662 17.4325 112.926 17.2854C113.189 17.1305 113.402 16.9097 113.565 16.6232C113.728 16.3289 113.809 15.9766 113.809 15.5661C113.809 15.1402 113.728 14.7839 113.565 14.4974C113.402 14.2031 113.189 13.9823 112.926 13.8352C112.662 13.6881 112.376 13.6145 112.067 13.6145C111.756 13.6145 111.466 13.6919 111.195 13.8468C110.932 13.994 110.719 14.2108 110.556 14.4974C110.394 14.7839 110.312 15.1402 110.312 15.5661C110.312 15.9843 110.394 16.3405 110.556 16.6348C110.719 16.9214 110.932 17.1382 111.195 17.2854C111.466 17.4325 111.756 17.5061 112.067 17.5061ZM116.485 18.5864V10.2689H117.74V18.5864H116.485ZM121.869 18.7723C121.288 18.7723 120.769 18.6368 120.312 18.3657C119.855 18.0947 119.495 17.7229 119.232 17.2505C118.976 16.7781 118.848 16.2399 118.848 15.6358C118.848 15.0705 118.972 14.5477 119.22 14.0675C119.468 13.5874 119.813 13.204 120.254 12.9175C120.703 12.6232 121.218 12.4761 121.799 12.4761C122.411 12.4761 122.929 12.6077 123.356 12.871C123.789 13.1343 124.118 13.4944 124.343 13.9514C124.567 14.4083 124.68 14.9233 124.68 15.4964C124.68 15.5816 124.676 15.659 124.668 15.7287C124.668 15.7984 124.664 15.8526 124.657 15.8914H120.08C120.141 16.4799 120.347 16.9214 120.695 17.2157C121.051 17.51 121.454 17.6571 121.904 17.6571C122.306 17.6571 122.639 17.5681 122.903 17.3899C123.166 17.2041 123.375 16.9756 123.53 16.7045L124.564 17.2041C124.308 17.6687 123.96 18.0482 123.518 18.3425C123.077 18.629 122.527 18.7723 121.869 18.7723ZM121.811 13.5448C121.392 13.5448 121.036 13.6726 120.742 13.9281C120.447 14.1837 120.25 14.5245 120.149 14.9504H123.437C123.421 14.749 123.356 14.5399 123.239 14.3231C123.123 14.1063 122.945 13.9243 122.705 13.7771C122.473 13.6222 122.174 13.5448 121.811 13.5448ZM129.786 18.5864L127.556 10.2689H128.973L130.297 15.6707L130.437 16.3909H130.506L130.681 15.6707L132.353 10.2689H133.631L135.234 15.6707L135.409 16.3793H135.478L135.618 15.6707L136.942 10.2689H138.348L136.152 18.5864H134.805L133.213 13.0685L133.027 12.2902H132.957L132.76 13.0685L131.099 18.5864H129.786ZM140.68 18.7723C140.255 18.7723 139.875 18.691 139.542 18.5284C139.209 18.358 138.949 18.1218 138.763 17.8197C138.578 17.5177 138.485 17.1731 138.485 16.7859C138.485 16.3677 138.593 16.0114 138.81 15.7171C139.035 15.4151 139.333 15.1866 139.704 15.0317C140.076 14.8768 140.487 14.7994 140.936 14.7994C141.308 14.7994 141.633 14.8342 141.912 14.9039C142.199 14.9736 142.415 15.0472 142.562 15.1247V14.811C142.562 14.4238 142.423 14.114 142.144 13.8817C141.865 13.6493 141.505 13.5332 141.064 13.5332C140.762 13.5332 140.475 13.6029 140.204 13.7423C139.933 13.874 139.716 14.0559 139.553 14.2883L138.694 13.6261C138.949 13.2699 139.286 12.9911 139.704 12.7897C140.131 12.5806 140.595 12.4761 141.098 12.4761C141.958 12.4761 142.62 12.689 143.085 13.115C143.55 13.5332 143.782 14.1217 143.782 14.8807V18.5864H142.562V17.8546H142.492C142.338 18.0947 142.106 18.3076 141.795 18.4935C141.486 18.6794 141.114 18.7723 140.68 18.7723ZM140.901 17.75C141.226 17.75 141.513 17.6726 141.761 17.5177C142.009 17.3628 142.202 17.1615 142.341 16.9136C142.489 16.6581 142.562 16.3832 142.562 16.0889C142.384 15.9882 142.175 15.9069 141.935 15.8449C141.695 15.7752 141.439 15.7404 141.168 15.7404C140.657 15.7404 140.293 15.8449 140.076 16.054C139.86 16.2554 139.751 16.5032 139.751 16.7975C139.751 17.0763 139.855 17.3047 140.065 17.4829C140.274 17.661 140.552 17.75 140.901 17.75ZM145.175 18.5864V10.2689H146.429V18.5864H145.175ZM147.92 18.5864V10.2689H149.175V18.5864H147.92ZM153.304 18.7723C152.723 18.7723 152.204 18.6368 151.748 18.3657C151.29 18.0947 150.93 17.7229 150.667 17.2505C150.412 16.7781 150.284 16.2399 150.284 15.6358C150.284 15.0705 150.408 14.5477 150.656 14.0675C150.903 13.5874 151.248 13.204 151.689 12.9175C152.138 12.6232 152.654 12.4761 153.234 12.4761C153.846 12.4761 154.365 12.6077 154.791 12.871C155.224 13.1343 155.554 13.4944 155.779 13.9514C156.003 14.4083 156.115 14.9233 156.115 15.4964C156.115 15.5816 156.111 15.659 156.104 15.7287C156.104 15.7984 156.1 15.8526 156.092 15.8914H151.515C151.577 16.4799 151.782 16.9214 152.131 17.2157C152.487 17.51 152.889 17.6571 153.339 17.6571C153.742 17.6571 154.074 17.5681 154.338 17.3899C154.601 17.2041 154.81 16.9756 154.965 16.7045L155.999 17.2041C155.744 17.6687 155.395 18.0482 154.954 18.3425C154.512 18.629 153.962 18.7723 153.304 18.7723ZM153.246 13.5448C152.828 13.5448 152.471 13.6726 152.177 13.9281C151.883 14.1837 151.685 14.5245 151.585 14.9504H154.872C154.857 14.749 154.791 14.5399 154.675 14.3231C154.559 14.1063 154.38 13.9243 154.141 13.7771C153.908 13.6222 153.61 13.5448 153.246 13.5448ZM157.737 16.8672V13.7539H156.703V12.6619H157.737V10.9891H158.991V12.6619H160.443V13.7539H158.991V16.6C158.991 16.8943 159.049 17.1188 159.165 17.2738C159.289 17.4287 159.494 17.5061 159.781 17.5061C159.928 17.5061 160.052 17.4868 160.153 17.448C160.261 17.4093 160.369 17.3551 160.478 17.2854V18.5051C160.346 18.5593 160.207 18.602 160.06 18.6329C159.912 18.6639 159.738 18.6794 159.537 18.6794C158.987 18.6794 158.55 18.5206 158.224 18.2031C157.899 17.8778 157.737 17.4325 157.737 16.8672Z" fill="white"/>
<path d="M159.148 0.290039H14.5195C6.66027 0.290039 0.289062 6.66124 0.289062 14.5205C0.289062 22.3798 6.66027 28.751 14.5195 28.751H159.148C167.007 28.751 173.378 22.3798 173.378 14.5205C173.378 6.66124 167.007 0.290039 159.148 0.290039Z" stroke="#747775"/>
</g>
<defs>
<linearGradient id="paint0_linear_568_753" x1="20.0813" y1="17.882" x2="10.8812" y2="28.4108" gradientUnits="userSpaceOnUse">
<stop stop-color="#4285F4"/>
<stop offset="1" stop-color="#1B74E8"/>
</linearGradient>
<clipPath id="clip0_568_753">
<rect width="173.67" height="29.0418" fill="white"/>
</clipPath>
</defs>
</svg>
