<svg width="174" height="28" viewBox="0 0 174 28" fill="none" xmlns="http://www.w3.org/2000/svg">
<g clip-path="url(#clip0_568_448)">
<path d="M160.143 0.270508H13.5247C6.20408 0.270508 0.269531 6.20506 0.269531 13.5257C0.269531 20.8463 6.20408 26.7809 13.5247 26.7809H160.143C167.464 26.7809 173.398 20.8463 173.398 13.5257C173.398 6.20506 167.464 0.270508 160.143 0.270508Z" fill="#1F1F1F"/>
<path d="M27.5941 11.9025H11.3633V9.19733C11.3633 7.72882 12.5545 6.49219 13.9691 6.49219H24.9883C26.4029 6.49219 27.5941 7.72882 27.5941 9.19733V11.9025Z" fill="#34A853"/>
<path d="M27.5941 14.0958H11.3633V11.3907C11.3633 9.92217 12.5545 8.68555 13.9691 8.68555H24.9883C26.4029 8.68555 27.5941 9.92217 27.5941 11.3907V14.0958Z" fill="#FBBC04"/>
<path d="M27.5941 16.3644H11.3633V13.6592C11.3633 12.1907 12.5545 10.9541 13.9691 10.9541H24.9883C26.4029 10.9541 27.5941 12.1907 27.5941 13.6592V16.3644Z" fill="#EA4335"/>
<path d="M11.3633 12.5923L21.665 14.9748C22.8509 15.2726 24.1849 14.9748 25.1484 14.2303L27.5941 12.4434V18.0274C27.5941 19.442 26.4083 20.5588 25.0002 20.5588H13.9572C12.5491 20.5588 11.3633 19.442 11.3633 18.0274V12.5923Z" fill="url(#paint0_linear_568_448)"/>
<path d="M37.731 17.4861C37.1539 17.4861 36.6454 17.3562 36.2053 17.0965C35.7725 16.8368 35.4335 16.4726 35.1882 16.0037C34.943 15.5348 34.8203 14.9793 34.8203 14.3373V9.56543H35.9998V14.4022C35.9998 14.9649 36.1476 15.4338 36.4434 15.8089C36.7392 16.1768 37.1756 16.3607 37.7527 16.3607C38.2937 16.3607 38.7193 16.1912 39.0295 15.8522C39.3397 15.5131 39.4948 15.0298 39.4948 14.4022V9.56543H40.6742L40.6851 14.3048C40.6851 14.817 40.5985 15.2823 40.4254 15.7007L41.7563 16.5555L41.172 17.4644L39.8519 16.6204C39.5922 16.8946 39.282 17.1074 38.9213 17.2588C38.5606 17.4103 38.1639 17.4861 37.731 17.4861ZM46.0627 19.8774V17.3454L46.1276 16.5988H46.0627C45.904 16.8513 45.6732 17.0641 45.3702 17.2372C45.0672 17.4031 44.7354 17.4861 44.3747 17.4861C43.7183 17.4861 43.2241 17.2877 42.8923 16.8909C42.5605 16.487 42.3945 15.9459 42.3945 15.2679V11.9676H43.5632V15.1056C43.5632 15.5528 43.6677 15.8846 43.877 16.101C44.0862 16.3103 44.3459 16.4148 44.656 16.4148C44.9446 16.4148 45.1934 16.3427 45.4027 16.1984C45.6119 16.0469 45.7742 15.8522 45.8896 15.6141C46.005 15.3689 46.0627 15.1019 46.0627 14.8134V9.56543H47.2205V18.8603H49.0059V19.8774H46.0627ZM50.5448 17.4861C49.91 17.4861 49.4267 17.2877 49.0949 16.8909C48.7702 16.487 48.6079 15.9459 48.6079 15.2679V9.56543H49.7765V11.9676H53.3582V12.9847H49.7765V15.1056C49.7765 15.5528 49.8775 15.8846 50.0795 16.101C50.2815 16.3103 50.5304 16.4148 50.8261 16.4148C51.1075 16.4148 51.3491 16.3427 51.5511 16.1984C51.7531 16.0469 51.9082 15.8522 52.0164 15.6141C52.1318 15.3689 52.1895 15.1019 52.1895 14.8134V14.2074H53.3473V17.3129H52.2545V16.5988H52.1895C52.038 16.8513 51.8144 17.0641 51.5187 17.2372C51.2229 17.4031 50.8983 17.4861 50.5448 17.4861ZM54.7166 19.8774V11.9676H55.8852V18.8603H58.1576V19.8774H54.7166ZM59.0616 17.4861C58.4124 17.4861 57.9287 17.2913 57.6117 16.9018C57.2941 16.505 57.1356 15.982 57.1356 15.3328V11.9676H58.2934V15.138C58.2934 15.578 58.387 15.9027 58.5747 16.1119C58.7695 16.3138 59.0362 16.4148 59.3754 16.4148C59.6421 16.4148 59.8764 16.3427 60.0787 16.1984C60.2805 16.0469 60.4358 15.845 60.544 15.5925C60.6593 15.34 60.7172 15.0586 60.7172 14.7485V11.9676H61.8858V15.138C61.8858 15.578 61.9794 15.9027 62.1671 16.1119C62.3619 16.3138 62.6356 16.4148 62.9895 16.4148C63.2492 16.4148 63.4764 16.3391 63.6712 16.1876C63.873 16.0361 64.0282 15.8342 64.1365 15.5817C64.2447 15.3292 64.2988 15.0478 64.2988 14.7377V11.9676H65.4674V17.3129H64.3637V16.5555H64.2988C64.1397 16.8224 63.9092 17.0461 63.6063 17.2264C63.3033 17.3995 62.9678 17.4861 62.5999 17.4861C62.1888 17.4861 61.8387 17.3887 61.5503 17.1939C61.2614 16.9992 61.0558 16.7539 60.9336 16.4581C60.7604 16.7467 60.5148 16.992 60.1978 17.1939C59.8872 17.3887 59.5085 17.4861 59.0616 17.4861ZM69.1864 20.0506C68.7173 20.0506 68.3099 19.9748 67.9637 19.8233C67.6245 19.6718 67.3469 19.4771 67.1305 19.239C66.9211 19.0082 66.7734 18.7701 66.6869 18.5249L67.7689 18.0704C67.8771 18.3445 68.054 18.5718 68.2991 18.7521C68.5518 18.9324 68.8472 19.0226 69.1864 19.0226C69.6625 19.0226 70.0412 18.8747 70.3226 18.579C70.6109 18.2904 70.7554 17.8792 70.7554 17.3454V16.6421H70.6905C70.5173 16.8946 70.2831 17.0965 69.9871 17.248C69.6988 17.3995 69.3666 17.4753 68.9916 17.4753C68.5442 17.4753 68.1298 17.3599 67.7473 17.129C67.3648 16.8909 67.0585 16.5591 66.8275 16.1335C66.5965 15.7079 66.4813 15.2101 66.4813 14.6403C66.4813 14.0704 66.5965 13.5727 66.8275 13.147C67.0585 12.7142 67.3648 12.3824 67.7473 12.1515C68.1298 11.9135 68.5442 11.7945 68.9916 11.7945C69.3666 11.7945 69.6988 11.8738 69.9871 12.0325C70.2831 12.1912 70.5136 12.3968 70.6796 12.6493H70.7446V11.9568H71.8591V17.3238C71.8591 17.9009 71.7471 18.3914 71.5237 18.7954C71.3002 19.2065 70.9864 19.5167 70.5823 19.7259C70.1781 19.9423 69.7128 20.0506 69.1864 20.0506ZM69.1972 16.4257C69.4715 16.4257 69.7237 16.3571 69.9547 16.2201C70.1927 16.0758 70.3837 15.8702 70.5282 15.6033C70.6796 15.3364 70.7554 15.0154 70.7554 14.6403C70.7554 14.2507 70.6796 13.9225 70.5282 13.6556C70.3837 13.3887 70.1927 13.1867 69.9547 13.0497C69.7237 12.9126 69.4715 12.8441 69.1972 12.8441C68.9229 12.8441 68.667 12.9162 68.429 13.0605C68.1909 13.1975 67.9999 13.3995 67.8555 13.6664C67.711 13.9333 67.6391 14.2579 67.6391 14.6403C67.6391 15.0226 67.711 15.3472 67.8555 15.6141C67.9999 15.8738 68.1909 16.0758 68.429 16.2201C68.667 16.3571 68.9229 16.4257 69.1972 16.4257ZM75.1561 17.4861C74.4998 17.4861 74.0059 17.2877 73.6737 16.8909C73.342 16.487 73.176 15.9459 73.176 15.2679V10.5826H72.0939V9.56543H74.3446V15.1056C74.3446 15.5528 74.4495 15.8846 74.6584 16.101C74.8677 16.3103 75.1274 16.4148 75.4375 16.4148C75.7264 16.4148 75.9752 16.3427 76.1841 16.1984C76.3934 16.0469 76.5558 15.8522 76.671 15.6141C76.7868 15.3689 76.8441 15.1019 76.8441 14.8134V11.9676H78.0019V17.3129H76.909V16.5988H76.8441C76.6856 16.8513 76.4546 17.0641 76.1516 17.2372C75.8486 17.4031 75.517 17.4861 75.1561 17.4861ZM81.2735 17.4861C80.6389 17.4861 80.1552 17.2877 79.8236 16.8909C79.4989 16.487 79.3366 15.9459 79.3366 15.2679V9.56543H80.5053V11.9676H84.0869V12.9847H80.5053V15.1056C80.5053 15.5528 80.6064 15.8846 80.8082 16.101C81.01 16.3103 81.2589 16.4148 81.5549 16.4148C81.8362 16.4148 82.078 16.3427 82.2798 16.1984C82.4816 16.0469 82.6369 15.8522 82.7451 15.6141C82.8604 15.3689 82.9182 15.1019 82.9182 14.8134V14.2074H84.076V17.3129H82.9832V16.5988H82.9182C82.7668 16.8513 82.5433 17.0641 82.2474 17.2372C81.9514 17.4031 81.6268 17.4861 81.2735 17.4861ZM85.4454 19.8774V11.9676H86.614V18.8603H88.1289V19.8774H85.4454Z" fill="white"/>
<path d="M95.9796 17.4864C95.4239 17.4864 94.9013 17.3853 94.4106 17.1834C93.9275 16.9814 93.4979 16.7001 93.123 16.3394C92.748 15.9715 92.4521 15.5423 92.2357 15.0517C92.0263 14.554 91.9219 14.0166 91.9219 13.4395C91.9219 12.8624 92.0263 12.3286 92.2357 11.838C92.4521 11.3403 92.7442 10.9111 93.1121 10.5504C93.4871 10.1825 93.9199 9.89752 94.4106 9.69555C94.9013 9.49359 95.4239 9.39258 95.9796 9.39258C96.5709 9.39258 97.1157 9.49716 97.6135 9.70637C98.1183 9.91559 98.5403 10.2077 98.8795 10.5828L98.0571 11.3944C97.8045 11.113 97.5015 10.8966 97.1482 10.7451C96.8019 10.5937 96.4124 10.5179 95.9796 10.5179C95.4672 10.5179 94.9949 10.6406 94.5621 10.8858C94.1293 11.1239 93.7792 11.4629 93.5125 11.9029C93.2528 12.3358 93.123 12.848 93.123 13.4395C93.123 14.031 93.2566 14.5468 93.5233 14.9868C93.79 15.4196 94.1401 15.7587 94.5729 16.0039C95.0057 16.242 95.4781 16.361 95.9904 16.361C96.4595 16.361 96.8847 16.2745 97.2672 16.1013C97.6497 15.921 97.956 15.6685 98.187 15.3439C98.425 15.0193 98.5695 14.6297 98.6198 14.1753H95.9688V13.1257H99.7343C99.7776 13.3204 99.7992 13.526 99.7992 13.7424V13.7533C99.7992 14.5035 99.6331 15.1599 99.3015 15.7226C98.9769 16.2781 98.5262 16.7109 97.9489 17.0211C97.3716 17.3312 96.7154 17.4864 95.9796 17.4864ZM103.283 17.4864C102.714 17.4864 102.212 17.3565 101.779 17.0968C101.347 16.8371 101.007 16.4872 100.762 16.0472C100.517 15.6072 100.394 15.1095 100.394 14.554C100.394 14.0058 100.517 13.5116 100.762 13.0716C101.007 12.6243 101.347 12.2708 101.779 12.0112C102.212 11.7515 102.714 11.6216 103.283 11.6216C103.846 11.6216 104.344 11.7515 104.777 12.0112C105.21 12.2708 105.549 12.6243 105.794 13.0716C106.039 13.5116 106.162 14.0058 106.162 14.554C106.162 15.1095 106.039 15.6072 105.794 16.0472C105.549 16.4872 105.21 16.8371 104.777 17.0968C104.344 17.3565 103.846 17.4864 103.283 17.4864ZM103.283 16.4151C103.586 16.4151 103.868 16.343 104.127 16.1987C104.387 16.0472 104.597 15.8344 104.755 15.5603C104.921 15.279 105.004 14.9435 105.004 14.554C105.004 14.1644 104.921 13.8326 104.755 13.5585C104.597 13.2772 104.387 13.0644 104.127 12.9201C103.868 12.7686 103.586 12.6928 103.283 12.6928C102.98 12.6928 102.695 12.7686 102.429 12.9201C102.169 13.0644 101.956 13.2772 101.79 13.5585C101.632 13.8326 101.552 14.1644 101.552 14.554C101.552 14.9435 101.632 15.279 101.79 15.5603C101.956 15.8344 102.169 16.0472 102.429 16.1987C102.695 16.343 102.98 16.4151 103.283 16.4151ZM109.835 17.4864C109.265 17.4864 108.764 17.3565 108.331 17.0968C107.898 16.8371 107.559 16.4872 107.314 16.0472C107.068 15.6072 106.946 15.1095 106.946 14.554C106.946 14.0058 107.068 13.5116 107.314 13.0716C107.559 12.6243 107.898 12.2708 108.331 12.0112C108.764 11.7515 109.265 11.6216 109.835 11.6216C110.397 11.6216 110.895 11.7515 111.328 12.0112C111.761 12.2708 112.1 12.6243 112.345 13.0716C112.591 13.5116 112.713 14.0058 112.713 14.554C112.713 15.1095 112.591 15.6072 112.345 16.0472C112.1 16.4872 111.761 16.8371 111.328 17.0968C110.895 17.3565 110.397 17.4864 109.835 17.4864ZM109.835 16.4151C110.138 16.4151 110.419 16.343 110.679 16.1987C110.938 16.0472 111.148 15.8344 111.306 15.5603C111.472 15.279 111.555 14.9435 111.555 14.554C111.555 14.1644 111.472 13.8326 111.306 13.5585C111.148 13.2772 110.938 13.0644 110.679 12.9201C110.419 12.7686 110.138 12.6928 109.835 12.6928C109.532 12.6928 109.247 12.7686 108.98 12.9201C108.72 13.0644 108.508 13.2772 108.342 13.5585C108.183 13.8326 108.103 14.1644 108.103 14.554C108.103 14.9435 108.183 15.279 108.342 15.5603C108.508 15.8344 108.72 16.0472 108.98 16.1987C109.247 16.343 109.532 16.4151 109.835 16.4151ZM116.278 19.8236C115.795 19.8236 115.377 19.7442 115.023 19.5855C114.677 19.4341 114.396 19.2357 114.179 18.9904C113.963 18.7524 113.808 18.5071 113.714 18.2546L114.796 17.8002C114.911 18.0887 115.095 18.3232 115.348 18.5035C115.608 18.6911 115.918 18.7848 116.278 18.7848C116.783 18.7848 117.18 18.6333 117.469 18.3304C117.764 18.0274 117.912 17.5982 117.912 17.0427V16.5125H117.847C117.674 16.7722 117.432 16.9814 117.122 17.1401C116.819 17.2916 116.473 17.3673 116.084 17.3673C115.615 17.3673 115.186 17.2483 114.796 17.0103C114.406 16.7722 114.093 16.4404 113.855 16.0148C113.617 15.5819 113.498 15.077 113.498 14.4999C113.498 13.9156 113.617 13.4106 113.855 12.985C114.093 12.5522 114.406 12.2167 114.796 11.9787C115.186 11.7406 115.615 11.6216 116.084 11.6216C116.473 11.6216 116.819 11.701 117.122 11.8597C117.432 12.0183 117.674 12.2276 117.847 12.4873H117.912V11.7947H119.027V17.0211C119.027 17.6198 118.908 18.1284 118.67 18.5468C118.439 18.9651 118.118 19.2826 117.707 19.499C117.296 19.7154 116.819 19.8236 116.278 19.8236ZM116.289 16.3069C116.578 16.3069 116.844 16.2384 117.09 16.1013C117.335 15.957 117.534 15.7514 117.685 15.4846C117.837 15.2104 117.912 14.8822 117.912 14.4999C117.912 14.1031 117.837 13.7713 117.685 13.5044C117.534 13.2303 117.335 13.0247 117.09 12.8876C116.844 12.7506 116.578 12.682 116.289 12.682C116 12.682 115.73 12.7541 115.478 12.8984C115.232 13.0355 115.034 13.2375 114.883 13.5044C114.731 13.7713 114.655 14.1031 114.655 14.4999C114.655 14.8894 114.731 15.2212 114.883 15.4954C115.034 15.7623 115.232 15.9643 115.478 16.1013C115.73 16.2384 116 16.3069 116.289 16.3069ZM120.405 17.3132V9.56571H121.573V17.3132H120.405ZM125.42 17.4864C124.879 17.4864 124.395 17.3601 123.97 17.1076C123.544 16.8551 123.208 16.5089 122.963 16.0689C122.725 15.6288 122.606 15.1275 122.606 14.5648C122.606 14.0382 122.722 13.5513 122.953 13.104C123.183 12.6568 123.504 12.2997 123.916 12.0328C124.334 11.7587 124.814 11.6216 125.355 11.6216C125.924 11.6216 126.408 11.7443 126.805 11.9895C127.208 12.2348 127.515 12.5702 127.724 12.9958C127.933 13.4215 128.038 13.9011 128.038 14.435C128.038 14.5143 128.034 14.5864 128.027 14.6514C128.027 14.7163 128.024 14.7668 128.017 14.8029H123.753C123.811 15.3511 124.002 15.7623 124.327 16.0364C124.658 16.3105 125.033 16.4476 125.452 16.4476C125.827 16.4476 126.137 16.3646 126.383 16.1987C126.628 16.0256 126.823 15.8128 126.967 15.5603L127.93 16.0256C127.692 16.4584 127.367 16.8119 126.956 17.086C126.545 17.3529 126.033 17.4864 125.42 17.4864ZM125.366 12.6171C124.976 12.6171 124.644 12.7361 124.37 12.9742C124.096 13.2122 123.912 13.5297 123.818 13.9264H126.88C126.866 13.7388 126.805 13.544 126.696 13.3421C126.588 13.1401 126.422 12.9706 126.199 12.8335C125.982 12.6892 125.704 12.6171 125.366 12.6171ZM132.794 17.3132L130.717 9.56571H132.037L133.27 14.5973L133.4 15.2681H133.465L133.628 14.5973L135.186 9.56571H136.376L137.869 14.5973L138.032 15.2573H138.096L138.226 14.5973L139.46 9.56571H140.769L138.724 17.3132H137.469L135.986 12.1735L135.813 11.4485H135.748L135.564 12.1735L134.017 17.3132H132.794ZM142.942 17.4864C142.545 17.4864 142.192 17.4106 141.881 17.2591C141.571 17.1004 141.33 16.8804 141.157 16.5991C140.983 16.3177 140.897 15.9967 140.897 15.636C140.897 15.2465 140.998 14.9147 141.2 14.6405C141.409 14.3592 141.687 14.1464 142.033 14.0021C142.379 13.8578 142.762 13.7857 143.18 13.7857C143.526 13.7857 143.829 13.8182 144.089 13.8831C144.356 13.948 144.558 14.0166 144.695 14.0887V13.7965C144.695 13.4358 144.565 13.1473 144.305 12.9309C144.046 12.7145 143.71 12.6063 143.299 12.6063C143.018 12.6063 142.751 12.6712 142.498 12.8011C142.246 12.9237 142.044 13.0932 141.892 13.3096L141.092 12.6928C141.33 12.361 141.643 12.1013 142.033 11.9138C142.43 11.719 142.863 11.6216 143.331 11.6216C144.132 11.6216 144.749 11.82 145.182 12.2167C145.615 12.6063 145.831 13.1545 145.831 13.8615V17.3132H144.695V16.6315H144.63C144.486 16.8551 144.27 17.0535 143.981 17.2267C143.692 17.3998 143.346 17.4864 142.942 17.4864ZM143.147 16.5341C143.45 16.5341 143.718 16.462 143.948 16.3177C144.179 16.1734 144.359 15.9859 144.489 15.7551C144.627 15.517 144.695 15.2609 144.695 14.9868C144.529 14.893 144.335 14.8173 144.111 14.7596C143.887 14.6947 143.649 14.6622 143.396 14.6622C142.92 14.6622 142.582 14.7596 142.379 14.9543C142.177 15.1419 142.076 15.3727 142.076 15.6469C142.076 15.9066 142.174 16.1193 142.368 16.2853C142.563 16.4512 142.823 16.5341 143.147 16.5341ZM147.128 17.3132V9.56571H148.297V17.3132H147.128ZM149.686 17.3132V9.56571H150.854V17.3132H149.686ZM154.701 17.4864C154.16 17.4864 153.676 17.3601 153.251 17.1076C152.825 16.8551 152.489 16.5089 152.244 16.0689C152.006 15.6288 151.887 15.1275 151.887 14.5648C151.887 14.0382 152.003 13.5513 152.234 13.104C152.464 12.6568 152.785 12.2997 153.197 12.0328C153.615 11.7587 154.095 11.6216 154.636 11.6216C155.205 11.6216 155.689 11.7443 156.086 11.9895C156.489 12.2348 156.796 12.5702 157.005 12.9958C157.214 13.4215 157.319 13.9011 157.319 14.435C157.319 14.5143 157.315 14.5864 157.308 14.6514C157.308 14.7163 157.305 14.7668 157.298 14.8029H153.034C153.092 15.3511 153.283 15.7623 153.608 16.0364C153.939 16.3105 154.314 16.4476 154.733 16.4476C155.108 16.4476 155.418 16.3646 155.664 16.1987C155.909 16.0256 156.103 15.8128 156.248 15.5603L157.211 16.0256C156.973 16.4584 156.648 16.8119 156.237 17.086C155.826 17.3529 155.314 17.4864 154.701 17.4864ZM154.647 12.6171C154.257 12.6171 153.925 12.7361 153.651 12.9742C153.377 13.2122 153.193 13.5297 153.099 13.9264H156.161C156.147 13.7388 156.086 13.544 155.977 13.3421C155.869 13.1401 155.703 12.9706 155.48 12.8335C155.263 12.6892 154.985 12.6171 154.647 12.6171ZM158.829 15.7118V12.8119H157.866V11.7947H158.829V10.2366H159.998V11.7947H161.35V12.8119H159.998V15.4629C159.998 15.7371 160.052 15.9462 160.16 16.0905C160.275 16.2348 160.466 16.3069 160.734 16.3069C160.87 16.3069 160.986 16.2889 161.08 16.2528C161.18 16.2167 161.282 16.1662 161.383 16.1013V17.2375C161.26 17.288 161.13 17.3277 160.993 17.3565C160.856 17.3853 160.694 17.3998 160.506 17.3998C159.994 17.3998 159.587 17.2519 159.284 16.9561C158.981 16.6532 158.829 16.2384 158.829 15.7118Z" fill="white"/>
<path d="M160.143 0.270508H13.5247C6.20408 0.270508 0.269531 6.20506 0.269531 13.5257C0.269531 20.8463 6.20408 26.7809 13.5247 26.7809H160.143C167.464 26.7809 173.398 20.8463 173.398 13.5257C173.398 6.20506 167.464 0.270508 160.143 0.270508Z" stroke="#747775"/>
</g>
<defs>
<linearGradient id="paint0_linear_568_448" x1="18.7052" y1="16.656" x2="10.1356" y2="26.4632" gradientUnits="userSpaceOnUse">
<stop stop-color="#4285F4"/>
<stop offset="1" stop-color="#1B74E8"/>
</linearGradient>
<clipPath id="clip0_568_448">
<rect width="173.67" height="27.0514" fill="white"/>
</clipPath>
</defs>
</svg>
