<svg width="174" height="48" viewBox="0 0 174 48" fill="none" xmlns="http://www.w3.org/2000/svg">
<g clip-path="url(#clip0_568_906)">
<path d="M149.672 0.436523H24.0008C10.9871 0.436523 0.4375 10.9862 0.4375 23.9998C0.4375 37.0134 10.9871 47.563 24.0008 47.563H149.672C162.685 47.563 173.235 37.0134 173.235 23.9998C173.235 10.9862 162.685 0.436523 149.672 0.436523Z" fill="#1F1F1F"/>
<path d="M49.7458 20.7629H18.3281V15.8361C18.3281 13.1615 20.634 10.9092 23.3722 10.9092H44.7017C47.4399 10.9092 49.7458 13.1615 49.7458 15.8361V20.7629Z" fill="#34A853"/>
<path d="M49.7458 25.3085H18.3281V20.0722C18.3281 17.2297 20.634 14.8359 23.3722 14.8359H44.7017C47.4399 14.8359 49.7458 17.2297 49.7458 20.0722V25.3085Z" fill="#FBBC04"/>
<path d="M49.7458 29.6718H18.3281V24.4355C18.3281 21.593 20.634 19.1992 23.3722 19.1992H44.7017C47.4399 19.1992 49.7458 21.593 49.7458 24.4355V29.6718Z" fill="#EA4335"/>
<path d="M18.3281 22.0276L38.269 26.5322C40.5644 27.0953 43.1467 26.5322 45.0116 25.1245L49.7458 21.7461V32.3037C49.7458 34.9783 47.4505 37.0898 44.7247 37.0898H23.3492C20.6234 37.0898 18.3281 34.9783 18.3281 32.3037V22.0276Z" fill="url(#paint0_linear_568_906)"/>
<path d="M60.6367 20.488V17.5836H61.3515C61.5254 17.2962 61.6654 16.9256 61.7712 16.4718C61.8847 16.0103 61.9641 15.5036 62.0095 14.9515C62.0625 14.3993 62.0889 13.8434 62.0889 13.2837V10.6403H67.2964V17.5836H68.2494V20.488H67.0355V18.7635H61.8507V20.488H60.6367ZM62.7129 17.5836H66.0484V11.8202H63.3029V13.4653C63.3029 14.2897 63.2499 15.0498 63.144 15.7457C63.0457 16.4415 62.902 17.0314 62.7129 17.5155V17.5836ZM71.9863 18.945C71.3887 18.945 70.8631 18.8089 70.4093 18.5366C69.9555 18.2643 69.5999 17.8975 69.3428 17.4361C69.0856 16.9747 68.9571 16.4528 68.9571 15.8704C68.9571 15.2956 69.0856 14.7776 69.3428 14.3161C69.5999 13.8472 69.9555 13.4766 70.4093 13.2043C70.8631 12.932 71.3887 12.7959 71.9863 12.7959C72.5762 12.7959 73.0981 12.932 73.5519 13.2043C74.0057 13.4766 74.3612 13.8472 74.6184 14.3161C74.8755 14.7776 75.0041 15.2956 75.0041 15.8704C75.0041 16.4528 74.8755 16.9747 74.6184 17.4361C74.3612 17.8975 74.0057 18.2643 73.5519 18.5366C73.0981 18.8089 72.5762 18.945 71.9863 18.945ZM71.9863 17.8218C72.3039 17.8218 72.5989 17.7462 72.8712 17.5949C73.1435 17.4361 73.3628 17.2129 73.5292 16.9256C73.7032 16.6306 73.7902 16.2789 73.7902 15.8704C73.7902 15.462 73.7032 15.1141 73.5292 14.8267C73.3628 14.5317 73.1435 14.3086 72.8712 14.1573C72.5989 13.9985 72.3039 13.9191 71.9863 13.9191C71.6686 13.9191 71.3698 13.9985 71.09 14.1573C70.8177 14.3086 70.5946 14.5317 70.4206 14.8267C70.2542 15.1141 70.171 15.462 70.171 15.8704C70.171 16.2789 70.2542 16.6306 70.4206 16.9256C70.5946 17.2129 70.8177 17.4361 71.09 17.5949C71.3698 17.7462 71.6686 17.8218 71.9863 17.8218ZM75.4353 20.488V17.697H76.0707C76.1916 17.5533 76.2976 17.3491 76.3883 17.0844C76.4866 16.8121 76.5623 16.5058 76.6152 16.1654C76.6757 15.8251 76.706 15.481 76.706 15.133V12.9774H81.0399V17.697H81.8794V20.488H80.7563V18.7635H76.5698V20.488H75.4353ZM77.3867 17.697H79.8259V14.0439H77.8632V15.2351C77.8632 15.7646 77.8253 16.2222 77.7498 16.6079C77.6741 16.986 77.5531 17.3264 77.3867 17.629V17.697ZM84.7838 18.945C84.3678 18.945 83.9972 18.8656 83.672 18.7068C83.3467 18.5403 83.0934 18.3097 82.9119 18.0147C82.7303 17.7197 82.6396 17.3831 82.6396 17.005C82.6396 16.5965 82.7454 16.2486 82.9572 15.9612C83.1766 15.6662 83.4678 15.4431 83.8308 15.2918C84.1939 15.1406 84.5947 15.0649 85.0334 15.0649C85.3965 15.0649 85.7141 15.099 85.9864 15.167C86.2662 15.2351 86.478 15.3069 86.6218 15.3826V15.0763C86.6218 14.6981 86.4856 14.3956 86.2133 14.1687C85.941 13.9418 85.5893 13.8283 85.1582 13.8283C84.8632 13.8283 84.5834 13.8964 84.3187 14.0325C84.0539 14.1611 83.8422 14.3388 83.6833 14.5657L82.8438 13.9191C83.0934 13.5711 83.4224 13.2988 83.8308 13.1022C84.2468 12.898 84.7006 12.7959 85.1923 12.7959C86.0318 12.7959 86.6785 13.0038 87.1323 13.4199C87.5861 13.8283 87.813 14.4032 87.813 15.1444V18.7635H86.6218V18.0487H86.5537C86.4024 18.2832 86.1755 18.4912 85.873 18.6727C85.5704 18.8543 85.2074 18.945 84.7838 18.945ZM84.9994 17.9466C85.3171 17.9466 85.5968 17.871 85.8389 17.7197C86.0809 17.5685 86.2701 17.3718 86.4062 17.1298C86.5499 16.8802 86.6218 16.6116 86.6218 16.3243C86.4477 16.2259 86.2435 16.1465 86.0091 16.086C85.7746 16.0179 85.525 15.9839 85.2603 15.9839C84.7611 15.9839 84.4056 16.086 84.1939 16.2902C83.9821 16.4868 83.8762 16.7289 83.8762 17.0163C83.8762 17.2886 83.9783 17.5118 84.1825 17.6857C84.3867 17.8596 84.659 17.9466 84.9994 17.9466ZM89.8656 12.1265C89.6387 12.1265 89.4415 12.0471 89.2757 11.8883C89.1168 11.7218 89.0374 11.5252 89.0374 11.2983C89.0374 11.0714 89.1168 10.8785 89.2757 10.7197C89.4415 10.5609 89.6387 10.4814 89.8656 10.4814C90.0925 10.4814 90.2854 10.5609 90.4442 10.7197C90.6101 10.8785 90.6938 11.0714 90.6938 11.2983C90.6938 11.5252 90.6101 11.7218 90.4442 11.8883C90.2854 12.0471 90.0925 12.1265 89.8656 12.1265ZM88.7651 21.3275C88.5304 21.3275 88.3183 21.3011 88.1298 21.2481V20.0682C88.2049 20.1136 88.2921 20.1476 88.3908 20.1703C88.4815 20.2006 88.5723 20.2157 88.663 20.2157C88.8821 20.2157 89.0331 20.1476 89.1168 20.0115C89.2076 19.8829 89.253 19.6938 89.253 19.4442V12.9774H90.4783V19.4556C90.4783 20.1212 90.3151 20.5977 89.9904 20.8851C89.6649 21.18 89.2565 21.3275 88.7651 21.3275ZM93.4734 18.7635V14.0439H91.5674V12.9774H96.5934V14.0439H94.6874V18.7635H93.4734ZM100.237 18.945C99.6697 18.945 99.1627 18.8126 98.7167 18.5479C98.2699 18.2832 97.9182 17.9202 97.6616 17.4588C97.412 16.9974 97.2872 16.4717 97.2872 15.8818C97.2872 15.3296 97.4076 14.8191 97.6502 14.3502C97.892 13.8813 98.2289 13.5069 98.66 13.227C99.0981 12.9396 99.6016 12.7959 100.169 12.7959C100.766 12.7959 101.273 12.9244 101.689 13.1816C102.112 13.4388 102.434 13.7905 102.654 14.2367C102.873 14.6829 102.983 15.186 102.983 15.7457C102.983 15.8288 102.978 15.9045 102.971 15.9726C102.971 16.0406 102.967 16.0936 102.96 16.1314H98.4898C98.55 16.7062 98.7507 17.1374 99.0911 17.4248C99.4384 17.7121 99.832 17.8559 100.271 17.8559C100.664 17.8559 100.989 17.7689 101.247 17.5949C101.503 17.4134 101.707 17.1903 101.859 16.9256L102.869 17.4134C102.619 17.8672 102.279 18.2379 101.848 18.5252C101.417 18.8051 100.879 18.945 100.237 18.945ZM100.18 13.8396C99.7718 13.8396 99.4236 13.9644 99.1365 14.214C98.8485 14.4636 98.6556 14.7964 98.5579 15.2124H101.769C101.753 15.0158 101.689 14.8116 101.576 14.5998C101.462 14.388 101.288 14.2103 101.054 14.0666C100.827 13.9153 100.535 13.8396 100.18 13.8396ZM108.742 20.9304C108.719 20.9909 108.692 21.0476 108.662 21.1006C108.639 21.1536 108.624 21.1914 108.617 21.2141H107.312C107.35 21.1309 107.403 21.0099 107.471 20.851C107.546 20.6998 107.618 20.5523 107.686 20.4086C107.755 20.2648 107.826 20.1022 107.902 19.9207C107.985 19.7392 108.068 19.5614 108.152 19.3875L108.583 18.4458L106.166 12.9774H107.528L109.184 16.9256H109.241L110.84 12.9774H112.191L109.195 19.8753C109.112 20.072 109.021 20.2762 108.923 20.488C108.832 20.7073 108.771 20.8548 108.742 20.9304Z" fill="white"/>
<path d="M66.4503 36.4548C65.6887 36.4548 64.9716 36.3163 64.299 36.0394C63.6364 35.7625 63.0478 35.3768 62.5335 34.8822C62.0192 34.3778 61.6137 33.7893 61.317 33.1167C61.0301 32.4343 60.8867 31.6974 60.8867 30.9061C60.8867 30.1148 61.0301 29.383 61.317 28.7104C61.6137 28.0279 62.0143 27.4395 62.5187 26.9449C63.033 26.4405 63.6264 26.0497 64.299 25.7728C64.9716 25.4959 65.6887 25.3574 66.4503 25.3574C67.2613 25.3574 68.0081 25.5008 68.6905 25.7877C69.3828 26.0745 69.9615 26.4751 70.4264 26.9894L69.2988 28.1021C68.9526 27.7164 68.5372 27.4196 68.0526 27.2119C67.5778 27.0042 67.0437 26.9004 66.4503 26.9004C65.748 26.9004 65.1002 27.0686 64.5067 27.4048C63.9133 27.7312 63.4336 28.1961 63.0676 28.7994C62.7116 29.3928 62.5335 30.0951 62.5335 30.9061C62.5335 31.7171 62.7165 32.4244 63.0825 33.0277C63.4484 33.6211 63.9281 34.086 64.5216 34.4223C65.115 34.7487 65.7628 34.9119 66.4651 34.9119C67.108 34.9119 67.6915 34.7932 68.2158 34.5558C68.74 34.3086 69.1603 33.9624 69.4768 33.5173C69.8032 33.0722 70.0011 32.5381 70.0703 31.915H66.4354V30.4759H71.5984C71.6578 30.7429 71.6874 31.0248 71.6874 31.3215V31.3364C71.6874 32.3651 71.4599 33.2651 71.005 34.0366C70.5599 34.7982 69.9417 35.3916 69.1504 35.8169C68.3592 36.2422 67.4591 36.4548 66.4503 36.4548ZM76.4646 36.4548C75.6831 36.4548 74.9958 36.2768 74.4023 35.9207C73.8089 35.5647 73.344 35.0849 73.0078 34.4816C72.6714 33.8783 72.5033 33.1959 72.5033 32.4343C72.5033 31.6826 72.6714 31.005 73.0078 30.4017C73.344 29.7884 73.8089 29.3038 74.4023 28.9478C74.9958 28.5917 75.6831 28.4137 76.4646 28.4137C77.236 28.4137 77.9185 28.5917 78.512 28.9478C79.1054 29.3038 79.5702 29.7884 79.9066 30.4017C80.2428 31.005 80.411 31.6826 80.411 32.4343C80.411 33.1959 80.2428 33.8783 79.9066 34.4816C79.5702 35.0849 79.1054 35.5647 78.512 35.9207C77.9185 36.2768 77.236 36.4548 76.4646 36.4548ZM76.4646 34.9861C76.88 34.9861 77.2657 34.8872 77.6218 34.6893C77.9779 34.4816 78.2646 34.1899 78.4823 33.814C78.7097 33.4283 78.8235 32.9684 78.8235 32.4343C78.8235 31.9002 78.7097 31.4452 78.4823 31.0693C78.2646 30.6836 77.9779 30.3918 77.6218 30.194C77.2657 29.9863 76.88 29.8824 76.4646 29.8824C76.0492 29.8824 75.6584 29.9863 75.2925 30.194C74.9364 30.3918 74.6446 30.6836 74.4172 31.0693C74.1995 31.4452 74.0908 31.9002 74.0908 32.4343C74.0908 32.9684 74.1995 33.4283 74.4172 33.814C74.6446 34.1899 74.9364 34.4816 75.2925 34.6893C75.6584 34.8872 76.0492 34.9861 76.4646 34.9861ZM85.4473 36.4548C84.666 36.4548 83.9785 36.2768 83.3851 35.9207C82.7917 35.5647 82.3268 35.0849 81.9905 34.4816C81.6542 33.8783 81.4861 33.1959 81.4861 32.4343C81.4861 31.6826 81.6542 31.005 81.9905 30.4017C82.3268 29.7884 82.7917 29.3038 83.3851 28.9478C83.9785 28.5917 84.666 28.4137 85.4473 28.4137C86.2188 28.4137 86.9013 28.5917 87.4949 28.9478C88.0883 29.3038 88.5535 29.7884 88.8895 30.4017C89.2255 31.005 89.3939 31.6826 89.3939 32.4343C89.3939 33.1959 89.2255 33.8783 88.8895 34.4816C88.5535 35.0849 88.0883 35.5647 87.4949 35.9207C86.9013 36.2768 86.2188 36.4548 85.4473 36.4548ZM85.4473 34.9861C85.8627 34.9861 86.2485 34.8872 86.6045 34.6893C86.9606 34.4816 87.2475 34.1899 87.4652 33.814C87.693 33.4283 87.8064 32.9684 87.8064 32.4343C87.8064 31.9002 87.693 31.4452 87.4652 31.0693C87.2475 30.6836 86.9606 30.3918 86.6045 30.194C86.2485 29.9863 85.8627 29.8824 85.4473 29.8824C85.0319 29.8824 84.6413 29.9863 84.2753 30.194C83.9192 30.3918 83.6275 30.6836 83.3999 31.0693C83.1824 31.4452 83.0735 31.9002 83.0735 32.4343C83.0735 32.9684 83.1824 33.4283 83.3999 33.814C83.6275 34.1899 83.9192 34.4816 84.2753 34.6893C84.6413 34.8872 85.0319 34.9861 85.4473 34.9861ZM94.282 39.6595C93.6187 39.6595 93.0453 39.5506 92.561 39.3331C92.0862 39.1253 91.7005 38.8533 91.4038 38.5171C91.107 38.1907 90.8941 37.8544 90.7658 37.5082L92.2494 36.8851C92.4074 37.2807 92.6596 37.6022 93.0061 37.8494C93.3621 38.1066 93.7871 38.2352 94.282 38.2352C94.974 38.2352 95.5177 38.0275 95.914 37.6121C96.3189 37.1967 96.5222 36.6082 96.5222 35.8466V35.1196H96.4332C96.1958 35.4757 95.8642 35.7625 95.4392 35.9801C95.0238 36.1878 94.549 36.2916 94.0149 36.2916C93.3717 36.2916 92.7835 36.1284 92.2494 35.8021C91.7153 35.4757 91.2851 35.0207 90.9587 34.4371C90.6323 33.8437 90.4691 33.1514 90.4691 32.3601C90.4691 31.5589 90.6323 30.8666 90.9587 30.283C91.2851 29.6896 91.7153 29.2297 92.2494 28.9033C92.7835 28.5769 93.3717 28.4137 94.0149 28.4137C94.549 28.4137 95.0238 28.5225 95.4392 28.7401C95.8642 28.9576 96.1958 29.2445 96.4332 29.6006H96.5222V28.651H98.0504V35.8169C98.0504 36.6379 97.8872 37.3352 97.5608 37.9088C97.244 38.4824 96.8041 38.9176 96.2403 39.2144C95.6766 39.5111 95.0238 39.6595 94.282 39.6595ZM94.2968 34.8377C94.6921 34.8377 95.0578 34.7437 95.3947 34.5558C95.7307 34.358 96.003 34.0761 96.2107 33.7102C96.4184 33.3343 96.5222 32.8843 96.5222 32.3601C96.5222 31.8161 96.4184 31.3611 96.2107 30.9951C96.003 30.6193 95.7307 30.3374 95.3947 30.1495C95.0578 29.9616 94.6921 29.8676 94.2968 29.8676C93.9006 29.8676 93.5297 29.9665 93.1841 30.1643C92.8472 30.3522 92.5758 30.6292 92.3681 30.9951C92.1604 31.3611 92.0566 31.8161 92.0566 32.3601C92.0566 32.8942 92.1604 33.3491 92.3681 33.725C92.5758 34.0909 92.8472 34.3679 93.1841 34.5558C93.5297 34.7437 93.9006 34.8377 94.2968 34.8377ZM99.9398 36.2175V25.5948H101.542V36.2175H99.9398ZM106.815 36.4548C106.073 36.4548 105.411 36.2818 104.827 35.9356C104.244 35.5894 103.784 35.1146 103.447 34.5113C103.121 33.908 102.958 33.2206 102.958 32.4491C102.958 31.7271 103.116 31.0595 103.432 30.4462C103.749 29.833 104.189 29.3434 104.753 28.9774C105.327 28.6016 105.984 28.4137 106.726 28.4137C107.508 28.4137 108.17 28.5818 108.714 28.9181C109.268 29.2544 109.689 29.7143 109.975 30.2979C110.262 30.8814 110.405 31.5391 110.405 32.2711C110.405 32.3799 110.401 32.4788 110.391 32.5678C110.391 32.6568 110.386 32.726 110.376 32.7755H104.53C104.61 33.5272 104.871 34.0909 105.317 34.4668C105.772 34.8427 106.286 35.0306 106.86 35.0306C107.374 35.0306 107.799 34.9169 108.135 34.6893C108.472 34.452 108.739 34.1602 108.937 33.814L110.257 34.452C109.931 35.0454 109.486 35.53 108.922 35.9059C108.358 36.2718 107.656 36.4548 106.815 36.4548ZM106.741 29.7786C106.207 29.7786 105.752 29.9418 105.376 30.2682C105.001 30.5946 104.748 31.0298 104.619 31.5738H108.818C108.799 31.3166 108.714 31.0495 108.566 30.7726C108.417 30.4957 108.19 30.2632 107.883 30.0753C107.586 29.8775 107.206 29.7786 106.741 29.7786ZM116.927 36.2175L114.079 25.5948H115.889L117.58 32.4936L117.758 33.4134H117.847L118.07 32.4936L120.206 25.5948H121.838L123.885 32.4936L124.108 33.3986H124.197L124.375 32.4936L126.066 25.5948H127.861L125.057 36.2175H123.336L121.304 29.1703L121.066 28.1763H120.977L120.725 29.1703L118.604 36.2175H116.927ZM130.841 36.4548C130.297 36.4548 129.812 36.351 129.387 36.1433C128.962 35.9257 128.63 35.624 128.393 35.2383C128.155 34.8525 128.037 34.4124 128.037 33.9179C128.037 33.3838 128.176 32.9288 128.452 32.5529C128.739 32.1672 129.12 31.8755 129.595 31.6776C130.069 31.4798 130.594 31.3809 131.167 31.3809C131.642 31.3809 132.057 31.4254 132.413 31.5144C132.779 31.6034 133.057 31.6974 133.244 31.7963V31.3957C133.244 30.9012 133.066 30.5056 132.71 30.2088C132.354 29.9121 131.894 29.7638 131.33 29.7638C130.945 29.7638 130.579 29.8528 130.233 30.0308C129.886 30.199 129.609 30.4314 129.402 30.7281L128.304 29.8824C128.63 29.4275 129.06 29.0714 129.595 28.8142C130.138 28.5472 130.732 28.4137 131.375 28.4137C132.473 28.4137 133.318 28.6857 133.912 29.2297C134.505 29.7638 134.802 30.5154 134.802 31.4847V36.2175H133.244V35.2828H133.155C132.957 35.5894 132.66 35.8614 132.265 36.0988C131.87 36.3362 131.395 36.4548 130.841 36.4548ZM131.123 35.1493C131.538 35.1493 131.904 35.0504 132.221 34.8525C132.537 34.6547 132.784 34.3976 132.962 34.0811C133.15 33.7547 133.244 33.4036 133.244 33.0277C133.016 32.8992 132.749 32.7953 132.443 32.7161C132.137 32.6271 131.81 32.5826 131.464 32.5826C130.811 32.5826 130.346 32.7161 130.069 32.9832C129.793 33.2404 129.654 33.5568 129.654 33.9327C129.654 34.2888 129.787 34.5805 130.055 34.808C130.322 35.0356 130.678 35.1493 131.123 35.1493ZM136.581 36.2175V25.5948H138.183V36.2175H136.581ZM140.087 36.2175V25.5948H141.69V36.2175H140.087ZM146.962 36.4548C146.221 36.4548 145.558 36.2818 144.974 35.9356C144.391 35.5894 143.932 35.1146 143.595 34.5113C143.268 33.908 143.105 33.2206 143.105 32.4491C143.105 31.7271 143.264 31.0595 143.58 30.4462C143.897 29.833 144.336 29.3434 144.9 28.9774C145.474 28.6016 146.132 28.4137 146.873 28.4137C147.655 28.4137 148.318 28.5818 148.861 28.9181C149.416 29.2544 149.836 29.7143 150.123 30.2979C150.41 30.8814 150.553 31.5391 150.553 32.2711C150.553 32.3799 150.548 32.4788 150.538 32.5678C150.538 32.6568 150.534 32.726 150.523 32.7755H144.678C144.757 33.5272 145.019 34.0909 145.464 34.4668C145.92 34.8427 146.434 35.0306 147.007 35.0306C147.522 35.0306 147.947 34.9169 148.283 34.6893C148.62 34.452 148.887 34.1602 149.084 33.814L150.404 34.452C150.078 35.0454 149.633 35.53 149.069 35.9059C148.505 36.2718 147.804 36.4548 146.962 36.4548ZM146.888 29.7786C146.354 29.7786 145.899 29.9418 145.523 30.2682C145.148 30.5946 144.896 31.0298 144.767 31.5738H148.965C148.946 31.3166 148.861 31.0495 148.713 30.7726C148.565 30.4957 148.338 30.2632 148.031 30.0753C147.734 29.8775 147.353 29.7786 146.888 29.7786ZM152.624 34.0217V30.0456H151.303V28.651H152.624V26.5146H154.226V28.651H156.081V30.0456H154.226V33.6805C154.226 34.0564 154.3 34.3431 154.449 34.541C154.607 34.7388 154.868 34.8377 155.235 34.8377C155.423 34.8377 155.581 34.813 155.71 34.7635C155.848 34.714 155.986 34.6448 156.125 34.5558V36.1136C155.957 36.1828 155.779 36.2373 155.591 36.2768C155.402 36.3163 155.18 36.3362 154.923 36.3362C154.221 36.3362 153.662 36.1334 153.247 35.7279C152.831 35.3125 152.624 34.7437 152.624 34.0217Z" fill="white"/>
<path d="M149.672 0.436523H24.0008C10.9871 0.436523 0.4375 10.9862 0.4375 23.9998C0.4375 37.0134 10.9871 47.563 24.0008 47.563H149.672C162.685 47.563 173.235 37.0134 173.235 23.9998C173.235 10.9862 162.685 0.436523 149.672 0.436523Z" stroke="#747775"/>
</g>
<defs>
<linearGradient id="paint0_linear_568_906" x1="32.5397" y1="29.7109" x2="16.3927" y2="48.6295" gradientUnits="userSpaceOnUse">
<stop stop-color="#4285F4"/>
<stop offset="1" stop-color="#1B74E8"/>
</linearGradient>
<clipPath id="clip0_568_906">
<rect width="173.67" height="47.9992" fill="white"/>
</clipPath>
</defs>
</svg>
