<svg width="174" height="48" viewBox="0 0 174 48" fill="none" xmlns="http://www.w3.org/2000/svg">
<g clip-path="url(#clip0_568_601)">
<path d="M149.672 0.436523H24.0008C10.9871 0.436523 0.4375 10.9862 0.4375 23.9998C0.4375 37.0134 10.9871 47.563 24.0008 47.563H149.672C162.685 47.563 173.235 37.0134 173.235 23.9998C173.235 10.9862 162.685 0.436523 149.672 0.436523Z" fill="#1F1F1F"/>
<path d="M149.672 0.436523H24.0008C10.9871 0.436523 0.4375 10.9862 0.4375 23.9998C0.4375 37.0134 10.9871 47.563 24.0008 47.563H149.672C162.685 47.563 173.235 37.0134 173.235 23.9998C173.235 10.9862 162.685 0.436523 149.672 0.436523Z" stroke="#747775"/>
<path d="M49.7458 20.763H18.3281V15.8361C18.3281 13.1615 20.634 10.9092 23.3722 10.9092H44.7017C47.4399 10.9092 49.7458 13.1615 49.7458 15.8361V20.763Z" fill="#34A853"/>
<path d="M49.7458 25.3085H18.3281V20.0722C18.3281 17.2297 20.634 14.8359 23.3722 14.8359H44.7017C47.4399 14.8359 49.7458 17.2297 49.7458 20.0722V25.3085Z" fill="#FBBC04"/>
<path d="M49.7458 29.6718H18.3281V24.4355C18.3281 21.593 20.634 19.1992 23.3722 19.1992H44.7017C47.4399 19.1992 49.7458 21.593 49.7458 24.4355V29.6718Z" fill="#EA4335"/>
<path d="M18.3281 22.0276L38.269 26.5322C40.5644 27.0952 43.1467 26.5322 45.0116 25.1245L49.7458 21.7461V32.3037C49.7458 34.9783 47.4505 37.0898 44.7247 37.0898H23.3492C20.6234 37.0898 18.3281 34.9783 18.3281 32.3037V22.0276Z" fill="#4285F4"/>
<path d="M62.3484 18.8998C61.9778 18.8998 61.6715 18.7788 61.4295 18.5368C61.1875 18.2948 61.0664 17.9846 61.0664 17.6065V12.6372H62.269V16.5513C62.3371 16.5438 62.4051 16.54 62.4732 16.54C62.8136 16.54 63.0896 16.6497 63.3014 16.869C63.5207 17.0883 63.6304 17.3682 63.6304 17.7086C63.6304 18.0565 63.5094 18.3439 63.2674 18.5708C63.0254 18.7901 62.7191 18.8998 62.3484 18.8998ZM62.3825 18.1737C62.5262 18.1737 62.6396 18.1283 62.7228 18.0376C62.8136 17.9468 62.859 17.8334 62.859 17.6972C62.859 17.5611 62.8136 17.4476 62.7228 17.3569C62.6396 17.2661 62.5262 17.2207 62.3825 17.2207C62.2463 17.2207 62.1329 17.2661 62.0421 17.3569C61.9513 17.4476 61.906 17.5611 61.906 17.6972C61.906 17.8334 61.9513 17.9468 62.0421 18.0376C62.1329 18.1283 62.2463 18.1737 62.3825 18.1737ZM66.9308 18.9452C66.3635 18.9452 65.921 18.7826 65.6034 18.4574C65.2932 18.1246 65.1382 17.6518 65.1382 17.0392V14.8496C65.0626 14.8647 64.9869 14.8722 64.9113 14.8722C64.5785 14.8722 64.3024 14.7625 64.0831 14.5432C63.8637 14.3163 63.7541 14.0364 63.7541 13.7037C63.7541 13.3557 63.8751 13.0721 64.1172 12.8528C64.3592 12.6259 64.6655 12.5124 65.0361 12.5124C65.4067 12.5124 65.7092 12.6335 65.9437 12.8755C66.1857 13.1175 66.3068 13.4276 66.3068 13.8058V17.0846C66.3068 17.372 66.3749 17.5914 66.511 17.7426C66.6471 17.8938 66.84 17.9695 67.0896 17.9695C67.3619 17.9695 67.5736 17.8901 67.7249 17.7313C67.8838 17.5648 67.9632 17.3379 67.9632 17.0505V12.6372H69.0637V17.0846C69.0637 17.3569 69.1431 17.5724 69.3019 17.7313C69.4683 17.8901 69.6838 17.9695 69.9486 17.9695C70.1982 17.9695 70.3872 17.8938 70.5159 17.7426C70.652 17.5838 70.7201 17.3531 70.7201 17.0505V12.6372H71.9V17.0278C71.9 17.6254 71.7373 18.0943 71.4122 18.4347C71.0869 18.775 70.6444 18.9452 70.0848 18.9452C69.4267 18.9452 68.9162 18.7069 68.5532 18.2304H68.4964C68.1258 18.7069 67.6039 18.9452 66.9308 18.9452ZM65.0021 14.1915C65.1382 14.1915 65.2517 14.1461 65.3424 14.0554C65.4332 13.9646 65.4786 13.8512 65.4786 13.715C65.4786 13.5713 65.4332 13.4578 65.3424 13.3747C65.2517 13.2839 65.1382 13.2385 65.0021 13.2385C64.8659 13.2385 64.7525 13.2839 64.6617 13.3747C64.571 13.4578 64.5256 13.5713 64.5256 13.715C64.5256 13.8512 64.571 13.9646 64.6617 14.0554C64.7525 14.1461 64.8659 14.1915 65.0021 14.1915ZM66.3261 11.775C66.2126 11.6691 66.1257 11.5443 66.0651 11.4006C66.0047 11.2494 65.9744 11.1056 65.9744 10.9695C65.9744 10.561 66.2013 10.2396 66.6551 10.0051C67.1014 9.76312 67.7064 9.64207 68.4703 9.64207C69.1964 9.64207 69.775 9.76312 70.2062 10.0051C70.6373 10.2396 70.8528 10.561 70.8528 10.9695C70.8528 10.9998 70.8491 11.0338 70.8415 11.0716C70.8642 11.064 70.8907 11.0565 70.9209 11.0489C71.0722 11.0035 71.2197 10.9808 71.3634 10.9808H71.7491V11.775H69.7524C69.7902 11.6842 69.8243 11.5897 69.8545 11.4914C69.8771 11.393 69.8885 11.3022 69.8885 11.2191C69.8885 10.9771 69.7637 10.7842 69.5141 10.6405C69.257 10.4892 68.909 10.4136 68.4703 10.4136C68.0392 10.4136 67.6951 10.4892 67.4379 10.6405C67.1808 10.7842 67.0522 10.9771 67.0522 11.2191C67.0522 11.2871 67.0674 11.3703 67.0976 11.4687C67.1202 11.567 67.1505 11.6691 67.1883 11.775H66.3261ZM68.0959 9.24499L67.9825 7.52051H69.0489L68.9355 9.24499H68.0959ZM74.1107 18.8998C73.74 18.8998 73.4337 18.7901 73.1917 18.5708C72.9496 18.3439 72.8287 18.0565 72.8287 17.7086C72.8287 17.3682 72.9383 17.0883 73.1577 16.869C73.3846 16.6497 73.6644 16.54 73.9972 16.54C74.0577 16.54 74.1182 16.5438 74.1788 16.5513V12.6372H75.3814V16.7556C75.3814 17.1262 75.5099 17.4212 75.7671 17.6405C76.0318 17.8598 76.3684 17.9695 76.7768 17.9695C77.1474 17.9695 77.4386 17.8674 77.6504 17.6632C77.8697 17.459 77.9794 17.1677 77.9794 16.7896V12.6372H79.182V16.8009C79.182 17.4968 78.9665 18.03 78.5353 18.4006C78.1117 18.7637 77.5256 18.9452 76.7768 18.9452C76.1415 18.9452 75.6271 18.7523 75.2339 18.3666C75.2187 18.3515 75.2036 18.3363 75.1885 18.3212C75.1431 18.3969 75.0864 18.4687 75.0183 18.5368C74.7762 18.7788 74.4737 18.8998 74.1107 18.8998ZM74.0766 18.1737C74.2128 18.1737 74.3262 18.1283 74.417 18.0376C74.5078 17.9468 74.5531 17.8334 74.5531 17.6972C74.5531 17.5611 74.5078 17.4476 74.417 17.3569C74.3262 17.2661 74.2128 17.2207 74.0766 17.2207C73.9405 17.2207 73.827 17.2661 73.7363 17.3569C73.6455 17.4476 73.6001 17.5611 73.6001 17.6972C73.6001 17.8334 73.6455 17.9468 73.7363 18.0376C73.827 18.1283 73.9405 18.1737 74.0766 18.1737ZM82.6267 18.8998C82.2561 18.8998 81.9497 18.7788 81.7077 18.5368C81.4656 18.2948 81.3447 17.9846 81.3447 17.6065V13.0116C81.3447 12.7091 81.4128 12.4179 81.5489 12.138C81.6851 11.8507 81.8741 11.5443 82.1162 11.2191C82.3128 10.9468 82.4603 10.7123 82.5586 10.5157C82.6645 10.3114 82.7175 10.1186 82.7175 9.93705C82.7175 9.65717 82.6191 9.43027 82.4225 9.25634C82.2258 9.07481 81.9724 8.98405 81.6624 8.98405C81.5716 8.98405 81.4695 8.99915 81.356 9.02943C81.3107 9.03702 81.2728 9.04837 81.2426 9.06347C81.4392 9.12394 81.6056 9.2374 81.7418 9.40382C81.9006 9.60045 81.98 9.82735 81.98 10.0845C81.98 10.4173 81.8666 10.6934 81.6397 10.9127C81.4128 11.1246 81.1215 11.2304 80.7661 11.2304C80.403 11.2304 80.1005 11.1094 79.8585 10.8674C79.6164 10.6178 79.4954 10.3039 79.4954 9.92571C79.4954 9.56266 79.5862 9.24499 79.7677 8.9727C79.9492 8.69285 80.2026 8.47729 80.5278 8.32602C80.8606 8.17476 81.2387 8.09912 81.6624 8.09912C82.0783 8.09912 82.4452 8.17853 82.7629 8.33737C83.088 8.48864 83.3415 8.7042 83.523 8.98405C83.712 9.25634 83.8066 9.574 83.8066 9.93705C83.8066 10.2017 83.7499 10.4513 83.6364 10.6858C83.5305 10.9203 83.3755 11.1888 83.1713 11.4914C83.0426 11.6805 82.933 11.8582 82.8423 12.0246C82.7515 12.191 82.6796 12.3536 82.6267 12.5124C82.5737 12.6713 82.5473 12.8414 82.5473 13.023V16.5513C82.6154 16.5438 82.6834 16.54 82.7515 16.54C83.0919 16.54 83.3679 16.6497 83.5797 16.869C83.799 17.0883 83.9087 17.3682 83.9087 17.7086C83.9087 18.0565 83.7877 18.3439 83.5457 18.5708C83.3112 18.7901 83.0049 18.8998 82.6267 18.8998ZM80.7774 10.5951C80.9211 10.5951 81.0384 10.5497 81.1291 10.4589C81.2274 10.3606 81.2766 10.2396 81.2766 10.0959C81.2766 9.95215 81.2274 9.83494 81.1291 9.74418C81.0384 9.64583 80.9173 9.59669 80.7661 9.59669C80.6223 9.59669 80.5013 9.64583 80.403 9.74418C80.3123 9.83494 80.2669 9.95215 80.2669 10.0959C80.2669 10.2396 80.316 10.3606 80.4144 10.4589C80.5126 10.5497 80.6337 10.5951 80.7774 10.5951ZM82.6607 18.1737C82.8044 18.1737 82.9178 18.1283 83.0011 18.0376C83.0919 17.9468 83.1372 17.8334 83.1372 17.6972C83.1372 17.5611 83.0919 17.4476 83.0011 17.3569C82.9178 17.2661 82.8044 17.2207 82.6607 17.2207C82.5246 17.2207 82.4112 17.2661 82.3204 17.3569C82.2296 17.4476 82.1842 17.5611 82.1842 17.6972C82.1842 17.8334 82.2296 17.9468 82.3204 18.0376C82.4112 18.1283 82.5246 18.1737 82.6607 18.1737ZM86.0664 18.8998C85.7034 18.8998 85.4008 18.7826 85.1588 18.5481C84.9243 18.3061 84.8071 17.996 84.8071 17.6178V16.8009C84.8071 16.3018 84.9773 15.916 85.3176 15.6437C85.658 15.3714 86.1042 15.2353 86.6564 15.2353C87.027 15.2353 87.3333 15.2844 87.5751 15.3828C87.8177 15.4811 88.0141 15.6248 88.165 15.8139C88.3169 15.9954 88.4417 16.211 88.5394 16.4606L89.05 17.7313C89.0805 17.7993 89.1224 17.8561 89.1748 17.9014C89.2359 17.9392 89.3074 17.9582 89.3903 17.9582C89.4811 17.9582 89.557 17.9317 89.6172 17.8787C89.6783 17.8258 89.708 17.7539 89.708 17.6632V14.8382C89.708 14.6794 89.6853 14.5319 89.6399 14.3957C89.4436 14.4941 89.2315 14.5773 89.0046 14.6453C88.5054 14.7891 87.9425 14.8609 87.3141 14.8609C86.5353 14.8609 85.9113 14.7739 85.4424 14.6C84.981 14.4184 84.7504 14.1424 84.7504 13.7718C84.7504 13.5146 84.8638 13.2877 85.0907 13.091C85.3252 12.8944 85.6466 12.7393 86.0551 12.6259C86.4635 12.5124 86.9287 12.4557 87.4503 12.4557C88.1537 12.4557 88.7594 12.5541 89.2655 12.7507C89.4924 12.8414 89.6932 12.9436 89.8668 13.057C90.0414 12.8528 90.2002 12.6259 90.3433 12.3763L91.3531 12.8074C91.1262 13.178 90.8652 13.4957 90.5702 13.7604C90.7744 14.0857 90.8766 14.4601 90.8766 14.8836V17.7199C90.8766 18.0906 90.7483 18.3817 90.4908 18.5935C90.2412 18.7977 89.9122 18.8998 89.5038 18.8998C89.118 18.8998 88.8274 18.8204 88.6302 18.6616C88.4338 18.5027 88.2829 18.2909 88.1764 18.0262L87.6318 16.6648C87.5489 16.453 87.4354 16.2942 87.2914 16.1883C87.148 16.0748 86.9589 16.0181 86.7244 16.0181C86.5051 16.0181 86.3236 16.0635 86.1799 16.1543C86.0437 16.245 85.9757 16.3774 85.9757 16.5513V16.5967C86.0437 16.5816 86.1118 16.574 86.1799 16.574C86.5126 16.574 86.7849 16.6837 86.9967 16.9031C87.216 17.1224 87.3255 17.3985 87.3255 17.7313C87.3255 18.0716 87.2047 18.3515 86.9627 18.5708C86.7282 18.7901 86.4295 18.8998 86.0664 18.8998ZM89.1294 13.7264C88.9863 13.6205 88.8161 13.5298 88.6188 13.4541C88.2715 13.3255 87.8744 13.2612 87.4276 13.2612C87.0043 13.2612 86.6526 13.3142 86.3727 13.4201C86.1005 13.5184 85.9643 13.6319 85.9643 13.7604C85.9643 13.8815 86.0929 13.9836 86.35 14.0667C86.6072 14.1424 86.9438 14.1802 87.3595 14.1802C87.8666 14.1802 88.3055 14.1045 88.6756 13.9533C88.8344 13.8928 88.9863 13.8171 89.1294 13.7264ZM86.1005 18.1964C86.2366 18.1964 86.3501 18.151 86.4408 18.0603C86.5316 17.9695 86.577 17.8561 86.577 17.7199C86.577 17.5838 86.5316 17.4703 86.4408 17.3796C86.3501 17.2888 86.2366 17.2434 86.1005 17.2434C85.9643 17.2434 85.8509 17.2888 85.7601 17.3796C85.6693 17.4703 85.624 17.5838 85.624 17.7199C85.624 17.8561 85.6693 17.9695 85.7601 18.0603C85.8509 18.151 85.9643 18.1964 86.1005 18.1964ZM87.239 11.8544L87.1255 9.81225H88.3736L88.2715 11.8544H87.239ZM94.4931 18.8998C94.1222 18.8998 93.8159 18.7788 93.5741 18.5368C93.3315 18.2948 93.2111 17.9846 93.2111 17.6065V13.0116C93.2111 12.7091 93.2791 12.4179 93.4153 12.138C93.5514 11.8507 93.7399 11.5443 93.9825 11.2191C94.1789 10.9468 94.3264 10.7123 94.425 10.5157C94.5306 10.3114 94.5838 10.1186 94.5838 9.93705C94.5838 9.65717 94.4852 9.43027 94.2889 9.25634C94.0916 9.07481 93.8385 8.98405 93.5287 8.98405C93.438 8.98405 93.3359 8.99915 93.2224 9.02943C93.177 9.03702 93.1386 9.04837 93.109 9.06347C93.3053 9.12394 93.472 9.2374 93.6081 9.40382C93.767 9.60045 93.8464 9.82735 93.8464 10.0845C93.8464 10.4173 93.733 10.6934 93.506 10.9127C93.2791 11.1246 92.9876 11.2304 92.6325 11.2304C92.2694 11.2304 91.9666 11.1094 91.7248 10.8674C91.4822 10.6178 91.3618 10.3039 91.3618 9.92571C91.3618 9.56266 91.4525 9.24499 91.6341 8.9727C91.8156 8.69285 92.0687 8.47729 92.3942 8.32602C92.7267 8.17476 93.1046 8.09912 93.5287 8.09912C93.9441 8.09912 94.3116 8.17853 94.6292 8.33737C94.9539 8.48864 95.2078 8.7042 95.3894 8.98405C95.5779 9.25634 95.673 9.574 95.673 9.93705C95.673 10.2017 95.6163 10.4513 95.5028 10.6858C95.3963 10.9203 95.2419 11.1888 95.0377 11.4914C94.9085 11.6805 94.7994 11.8582 94.7086 12.0246C94.6179 12.191 94.5454 12.3536 94.4931 12.5124C94.4398 12.6713 94.4137 12.8414 94.4137 13.023V16.5513C94.4817 16.5438 94.5498 16.54 94.6179 16.54C94.9582 16.54 95.234 16.6497 95.4461 16.869C95.6651 17.0883 95.7751 17.3682 95.7751 17.7086C95.7751 18.0565 95.6538 18.3439 95.412 18.5708C95.1773 18.7901 94.871 18.8998 94.4931 18.8998ZM92.6438 10.5951C92.7869 10.5951 92.9047 10.5497 92.9955 10.4589C93.0932 10.3606 93.143 10.2396 93.143 10.0959C93.143 9.95215 93.0932 9.83494 92.9955 9.74418C92.9047 9.64583 92.7834 9.59669 92.6325 9.59669C92.4885 9.59669 92.3671 9.64583 92.2694 9.74418C92.1786 9.83494 92.1333 9.95215 92.1333 10.0959C92.1333 10.2396 92.1821 10.3606 92.2807 10.4589C92.3785 10.5497 92.4998 10.5951 92.6438 10.5951ZM94.5271 18.1737C94.6702 18.1737 94.7837 18.1283 94.8675 18.0376C94.9582 17.9468 95.0036 17.8334 95.0036 17.6972C95.0036 17.5611 94.9582 17.4476 94.8675 17.3569C94.7837 17.2661 94.6702 17.2207 94.5271 17.2207C94.391 17.2207 94.2775 17.2661 94.1868 17.3569C94.096 17.4476 94.0506 17.5611 94.0506 17.6972C94.0506 17.8334 94.096 17.9468 94.1868 18.0376C94.2775 18.1283 94.391 18.1737 94.5271 18.1737ZM100.338 18.9452C99.9292 18.9452 99.5583 18.862 99.2258 18.6956C98.9989 18.5746 98.7982 18.4157 98.6245 18.2191C98.5032 18.4157 98.3487 18.5708 98.1593 18.6843C97.9403 18.828 97.6977 18.8998 97.4333 18.8998C97.229 18.8998 97.051 18.8847 96.9 18.8544C96.756 18.8242 96.6242 18.7826 96.5029 18.7296V17.7539C96.6923 17.8371 96.8695 17.8787 97.0362 17.8787C97.2709 17.8787 97.4411 17.8069 97.5467 17.6632C97.6523 17.5119 97.7055 17.2888 97.7055 16.9938V14.8609C97.6375 14.8685 97.5729 14.8722 97.5127 14.8722C97.1802 14.8722 96.9035 14.7625 96.6845 14.5432C96.4654 14.3239 96.3555 14.044 96.3555 13.7037C96.3555 13.3557 96.4768 13.0721 96.7185 12.8528C96.9602 12.6259 97.2666 12.5124 97.6375 12.5124C98.0005 12.5124 98.3033 12.6335 98.5451 12.8755C98.7868 13.1175 98.9081 13.4276 98.9081 13.8058V16.7556C98.9081 17.1337 99.0216 17.4325 99.2485 17.6518C99.4754 17.8636 99.7852 17.9695 100.179 17.9695C100.519 17.9695 100.784 17.8674 100.973 17.6632C101.162 17.459 101.257 17.1677 101.257 16.7896V12.6372H102.459V16.8009C102.459 17.2774 102.368 17.6745 102.187 17.9922C102.005 18.3099 101.756 18.5481 101.438 18.7069C101.12 18.8658 100.754 18.9452 100.338 18.9452ZM97.6034 14.1915C97.7396 14.1915 97.853 14.1461 97.9438 14.0554C98.0346 13.9646 98.0799 13.8512 98.0799 13.715C98.0799 13.5713 98.0346 13.4578 97.9438 13.3747C97.853 13.2839 97.7396 13.2385 97.6034 13.2385C97.4673 13.2385 97.3538 13.2839 97.2631 13.3747C97.1723 13.4578 97.1269 13.5713 97.1269 13.715C97.1269 13.8512 97.1723 13.9646 97.2631 14.0554C97.3538 14.1461 97.4673 14.1915 97.6034 14.1915Z" fill="white"/>
<path d="M66.4503 36.4548C65.6887 36.4548 64.9716 36.3163 64.299 36.0394C63.6264 35.7625 63.033 35.3768 62.5187 34.8822C62.0143 34.3778 61.6137 33.7893 61.317 33.1167C61.0301 32.4343 60.8867 31.6974 60.8867 30.9061C60.8867 30.1148 61.0301 29.383 61.317 28.7104C61.6137 28.0279 62.0143 27.4395 62.5187 26.9449C63.033 26.4405 63.6264 26.0497 64.299 25.7728C64.9716 25.4959 65.6887 25.3574 66.4503 25.3574C67.2613 25.3574 68.0081 25.5008 68.6905 25.7877C69.3828 26.0745 69.9615 26.4751 70.4264 26.9894L69.2988 28.1021C69.0713 27.8449 68.8092 27.6273 68.5125 27.4493C68.2256 27.2713 67.9092 27.1378 67.563 27.0487C67.2168 26.9499 66.8459 26.9004 66.4503 26.9004C65.926 26.9004 65.4266 26.9944 64.9518 27.1823C64.4771 27.3702 64.0567 27.6422 63.6907 27.9983C63.3347 28.3445 63.0528 28.7648 62.8451 29.2593C62.6374 29.7439 62.5335 30.2929 62.5335 30.9061C62.5335 31.5194 62.6374 32.0732 62.8451 32.5678C63.0627 33.0524 63.3495 33.4728 63.7056 33.8289C64.0715 34.1751 64.4919 34.4421 64.9667 34.63C65.4414 34.8179 65.9409 34.9119 66.4651 34.9119C66.9497 34.9119 67.3998 34.8427 67.8152 34.7042C68.2405 34.5657 68.6114 34.3679 68.9279 34.1107C69.2444 33.8535 69.5015 33.542 69.6994 33.1761C69.8972 32.8002 70.0208 32.3799 70.0703 31.915H66.4354V30.4759H71.5984C71.6182 30.5946 71.6379 30.7331 71.6578 30.8913C71.6776 31.0397 71.6874 31.183 71.6874 31.3215V31.3364C71.6874 32.098 71.5539 32.7953 71.2868 33.4283C71.0297 34.0613 70.6687 34.6053 70.2038 35.0603C69.7389 35.5053 69.1851 35.8515 68.5422 36.0988C67.9092 36.3362 67.2119 36.4548 66.4503 36.4548ZM76.4646 36.4548C75.6831 36.4548 74.9958 36.2768 74.4023 35.9207C73.8089 35.5647 73.344 35.0849 73.0078 34.4816C72.6714 33.8684 72.5033 33.1859 72.5033 32.4343C72.5033 31.6826 72.6714 31.005 73.0078 30.4017C73.344 29.7884 73.8089 29.3038 74.4023 28.9478C74.9958 28.5917 75.6831 28.4137 76.4646 28.4137C77.236 28.4137 77.9185 28.5967 78.512 28.9626C79.1054 29.3187 79.5702 29.7984 79.9066 30.4017C80.2428 31.005 80.411 31.6826 80.411 32.4343C80.411 33.1859 80.2428 33.8684 79.9066 34.4816C79.5702 35.0849 79.1054 35.5647 78.512 35.9207C77.9185 36.2768 77.236 36.4548 76.4646 36.4548ZM76.4646 34.9861C76.88 34.9861 77.2657 34.8872 77.6218 34.6893C77.9779 34.4816 78.2646 34.1899 78.4823 33.814C78.7097 33.4283 78.8235 32.9684 78.8235 32.4343C78.8235 31.9002 78.7097 31.4452 78.4823 31.0693C78.2646 30.6836 77.9779 30.3918 77.6218 30.194C77.2657 29.9863 76.88 29.8824 76.4646 29.8824C76.0492 29.8824 75.6584 29.9863 75.2925 30.194C74.9364 30.3918 74.6446 30.6836 74.4172 31.0693C74.1995 31.4452 74.0908 31.9002 74.0908 32.4343C74.0908 32.9684 74.1995 33.4283 74.4172 33.814C74.6446 34.1899 74.9413 34.4816 75.3074 34.6893C75.6733 34.8872 76.059 34.9861 76.4646 34.9861ZM85.4473 36.4548C84.666 36.4548 83.9785 36.2768 83.3851 35.9207C82.7917 35.5647 82.3268 35.0849 81.9905 34.4816C81.6542 33.8684 81.4861 33.1859 81.4861 32.4343C81.4861 31.6826 81.6542 31.005 81.9905 30.4017C82.3268 29.7884 82.7917 29.3038 83.3851 28.9478C83.9785 28.5917 84.666 28.4137 85.4473 28.4137C86.2188 28.4137 86.9013 28.5967 87.4949 28.9626C88.0883 29.3187 88.5535 29.7984 88.8895 30.4017C89.2255 31.005 89.3939 31.6826 89.3939 32.4343C89.3939 33.1859 89.2255 33.8684 88.8895 34.4816C88.5535 35.0849 88.0883 35.5647 87.4949 35.9207C86.9013 36.2768 86.2188 36.4548 85.4473 36.4548ZM85.4473 34.9861C85.8627 34.9861 86.2485 34.8872 86.6045 34.6893C86.9606 34.4816 87.2475 34.1899 87.4652 33.814C87.693 33.4283 87.8064 32.9684 87.8064 32.4343C87.8064 31.9002 87.693 31.4452 87.4652 31.0693C87.2475 30.6836 86.9606 30.3918 86.6045 30.194C86.2485 29.9863 85.8627 29.8824 85.4473 29.8824C85.0319 29.8824 84.6413 29.9863 84.2753 30.194C83.9192 30.3918 83.6275 30.6836 83.3999 31.0693C83.1824 31.4452 83.0735 31.9002 83.0735 32.4343C83.0735 32.9684 83.1824 33.4283 83.3999 33.814C83.6275 34.1899 83.9242 34.4816 84.2901 34.6893C84.6561 34.8872 85.0419 34.9861 85.4473 34.9861ZM94.282 39.6595C93.6187 39.6595 93.0453 39.5506 92.561 39.3331C92.0862 39.1253 91.7005 38.8533 91.4038 38.5171C91.107 38.1907 90.8941 37.8544 90.7658 37.5082L92.2494 36.8851C92.4074 37.2807 92.6596 37.6022 93.0061 37.8494C93.3621 38.1066 93.7871 38.2352 94.282 38.2352C94.9836 38.2352 95.5326 38.0275 95.9288 37.6121C96.3241 37.1967 96.5222 36.6082 96.5222 35.8466V35.1196H96.4332C96.1958 35.4658 95.8694 35.7477 95.454 35.9653C95.0386 36.1828 94.5586 36.2916 94.0149 36.2916C93.3717 36.2916 92.7783 36.1284 92.2346 35.8021C91.7005 35.4757 91.2702 35.0207 90.9438 34.4371C90.6271 33.8437 90.4691 33.1514 90.4691 32.3601C90.4691 31.5589 90.6271 30.8666 90.9438 30.283C91.2702 29.6896 91.7005 29.2297 92.2346 28.9033C92.7783 28.5769 93.3717 28.4137 94.0149 28.4137C94.5586 28.4137 95.0386 28.5225 95.454 28.7401C95.8694 28.9478 96.1958 29.2346 96.4332 29.6006H96.5222V28.651H98.0504V35.8169C98.0504 36.6379 97.8872 37.3352 97.5608 37.9088C97.244 38.4824 96.8041 38.9176 96.2403 39.2144C95.6766 39.5111 95.0238 39.6595 94.282 39.6595ZM94.2968 34.8377C94.6921 34.8377 95.0578 34.7437 95.3947 34.5558C95.7403 34.358 96.0126 34.0761 96.2107 33.7102C96.4184 33.3343 96.5222 32.8843 96.5222 32.3601C96.5222 31.8062 96.4184 31.3462 96.2107 30.9803C96.0126 30.6144 95.7403 30.3374 95.3947 30.1495C95.0578 29.9616 94.6921 29.8676 94.2968 29.8676C93.9006 29.8676 93.5297 29.9616 93.1841 30.1495C92.8472 30.3374 92.5758 30.6193 92.3681 30.9951C92.1604 31.3611 92.0566 31.8161 92.0566 32.3601C92.0566 32.8942 92.1604 33.3491 92.3681 33.725C92.5758 34.0909 92.8472 34.3679 93.1841 34.5558C93.5297 34.7437 93.9006 34.8377 94.2968 34.8377ZM99.9398 36.2175V25.5948H101.542V36.2175H99.9398ZM106.815 36.4548C106.073 36.4548 105.411 36.2818 104.827 35.9356C104.244 35.5894 103.784 35.1146 103.447 34.5113C103.121 33.908 102.958 33.2206 102.958 32.4491C102.958 31.7271 103.116 31.0595 103.432 30.4462C103.749 29.833 104.189 29.3434 104.753 28.9774C105.327 28.6016 105.984 28.4137 106.726 28.4137C107.508 28.4137 108.17 28.5818 108.714 28.9181C109.268 29.2544 109.689 29.7143 109.975 30.2979C110.262 30.8814 110.405 31.5391 110.405 32.2711C110.405 32.3799 110.401 32.4788 110.391 32.5678C110.391 32.6568 110.386 32.726 110.376 32.7755H104.53C104.57 33.1909 104.674 33.5519 104.842 33.8585C105.06 34.2443 105.346 34.536 105.702 34.7339C106.058 34.9317 106.444 35.0306 106.86 35.0306C107.364 35.0306 107.785 34.9169 108.121 34.6893C108.467 34.452 108.739 34.1602 108.937 33.814L110.257 34.452C109.931 35.0454 109.486 35.53 108.922 35.9059C108.358 36.2718 107.656 36.4548 106.815 36.4548ZM104.619 31.5738H108.818C108.808 31.3859 108.759 31.188 108.67 30.9803C108.581 30.7627 108.452 30.5649 108.284 30.3869C108.116 30.2088 107.903 30.0654 107.646 29.9566C107.389 29.8379 107.087 29.7786 106.741 29.7786C106.306 29.7786 105.92 29.8923 105.584 30.1198C105.248 30.3374 104.986 30.6441 104.797 31.0397C104.719 31.2078 104.659 31.3859 104.619 31.5738ZM116.927 36.2175L114.079 25.5948H115.889L117.58 32.4936L117.758 33.4134H117.847L118.07 32.4936L120.206 25.5948H121.838L123.885 32.4936L124.108 33.3986H124.197L124.375 32.4936L126.066 25.5948H127.861L125.057 36.2175H123.336L121.304 29.1703L121.066 28.1763H120.977L120.725 29.1703L118.604 36.2175H116.927ZM130.841 36.4548C130.297 36.4548 129.812 36.346 129.387 36.1285C128.971 35.9109 128.64 35.6142 128.393 35.2383C128.155 34.8525 128.037 34.4124 128.037 33.9179C128.037 33.3739 128.176 32.914 128.452 32.5381C128.739 32.1622 129.12 31.8755 129.595 31.6776C130.069 31.4798 130.594 31.3809 131.167 31.3809C131.484 31.3809 131.775 31.4056 132.043 31.4551C132.319 31.4946 132.557 31.5441 132.755 31.6034C132.962 31.6628 133.126 31.7271 133.244 31.7963V31.3957C133.244 30.9012 133.066 30.5056 132.71 30.2088C132.354 29.9121 131.894 29.7638 131.33 29.7638C130.945 29.7638 130.579 29.8528 130.233 30.0308C129.886 30.199 129.609 30.4314 129.402 30.7281L128.304 29.8824C128.521 29.5759 128.784 29.3137 129.09 29.0961C129.407 28.8786 129.758 28.7104 130.144 28.5917C130.539 28.473 130.95 28.4137 131.375 28.4137C132.473 28.4137 133.318 28.6857 133.912 29.2297C134.505 29.7638 134.802 30.5154 134.802 31.4847V36.2175H133.244V35.2828H133.155C133.027 35.4806 132.849 35.6685 132.621 35.8466C132.404 36.0246 132.141 36.168 131.835 36.2768C131.538 36.3955 131.206 36.4548 130.841 36.4548ZM131.123 35.1493C131.538 35.1493 131.904 35.0504 132.221 34.8525C132.547 34.6547 132.799 34.3976 132.977 34.0811C133.155 33.7547 133.244 33.4036 133.244 33.0277C133.027 32.8992 132.76 32.7953 132.443 32.7161C132.137 32.6271 131.81 32.5826 131.464 32.5826C130.811 32.5826 130.346 32.7112 130.069 32.9684C129.793 33.2255 129.654 33.547 129.654 33.9327C129.654 34.2888 129.787 34.5805 130.055 34.808C130.322 35.0356 130.678 35.1493 131.123 35.1493ZM136.581 36.2175V25.5948H138.183V36.2175H136.581ZM140.087 36.2175V25.5948H141.69V36.2175H140.087ZM146.962 36.4548C146.221 36.4548 145.558 36.2818 144.974 35.9356C144.391 35.5894 143.932 35.1146 143.595 34.5113C143.268 33.908 143.105 33.2206 143.105 32.4491C143.105 31.7271 143.264 31.0595 143.58 30.4462C143.897 29.833 144.336 29.3434 144.9 28.9774C145.474 28.6016 146.132 28.4137 146.873 28.4137C147.655 28.4137 148.318 28.5818 148.861 28.9181C149.416 29.2544 149.836 29.7143 150.123 30.2979C150.41 30.8814 150.553 31.5391 150.553 32.2711C150.553 32.3799 150.548 32.4788 150.538 32.5678C150.538 32.6568 150.534 32.726 150.523 32.7755H144.678C144.718 33.1909 144.822 33.5519 144.989 33.8585C145.207 34.2443 145.494 34.536 145.85 34.7339C146.206 34.9317 146.592 35.0306 147.007 35.0306C147.511 35.0306 147.932 34.9169 148.268 34.6893C148.615 34.452 148.887 34.1602 149.084 33.814L150.404 34.452C150.078 35.0454 149.633 35.53 149.069 35.9059C148.505 36.2718 147.804 36.4548 146.962 36.4548ZM144.767 31.5738H148.965C148.956 31.3859 148.906 31.188 148.817 30.9803C148.728 30.7627 148.6 30.5649 148.431 30.3869C148.264 30.2088 148.051 30.0654 147.793 29.9566C147.537 29.8379 147.235 29.7786 146.888 29.7786C146.454 29.7786 146.068 29.8923 145.731 30.1198C145.395 30.3374 145.133 30.6441 144.945 31.0397C144.866 31.2078 144.807 31.3859 144.767 31.5738ZM151.303 28.651H152.624V26.5146H154.226V28.651H156.081V30.0456H154.226V33.6805C154.226 34.0564 154.3 34.3431 154.449 34.541C154.607 34.7388 154.868 34.8377 155.235 34.8377C155.413 34.8377 155.571 34.813 155.71 34.7635C155.848 34.7042 155.986 34.635 156.125 34.5558V36.1136C155.957 36.1828 155.779 36.2373 155.591 36.2768C155.402 36.3163 155.18 36.3362 154.923 36.3362C154.221 36.3362 153.662 36.1334 153.247 35.7279C152.831 35.3125 152.624 34.7437 152.624 34.0217V30.0456H151.303V28.651Z" fill="white"/>
</g>
<defs>
<clipPath id="clip0_568_601">
<rect width="173.67" height="47.9992" fill="white"/>
</clipPath>
</defs>
</svg>
