<svg width="174" height="25" viewBox="0 0 174 25" fill="none" xmlns="http://www.w3.org/2000/svg">
<g clip-path="url(#clip0_568_466)">
<path d="M161.371 0.246094H12.2997C5.64267 0.246094 0.246094 5.64267 0.246094 12.2997C0.246094 18.9567 5.64267 24.3533 12.2997 24.3533H161.371C168.028 24.3533 173.424 18.9567 173.424 12.2997C173.424 5.64267 168.028 0.246094 161.371 0.246094Z" fill="#1F1F1F"/>
<path d="M25.0915 10.8232H10.332V8.36324C10.332 7.02785 11.4153 5.90332 12.7017 5.90332H22.7219C24.0083 5.90332 25.0915 7.02785 25.0915 8.36324V10.8232Z" fill="#34A853"/>
<path d="M25.0915 12.8183H10.332V10.3584C10.332 9.02296 11.4153 7.89844 12.7017 7.89844H22.7219C24.0083 7.89844 25.0915 9.02296 25.0915 10.3584V12.8183Z" fill="#FBBC04"/>
<path d="M25.0915 14.8808H10.332V12.4209C10.332 11.0855 11.4153 9.96094 12.7017 9.96094H22.7219C24.0083 9.96094 25.0915 11.0855 25.0915 12.4209V14.8808Z" fill="#EA4335"/>
<path d="M10.332 11.4508L19.6999 13.6174C20.7783 13.8882 21.9913 13.6174 22.8675 12.9404L25.0915 11.3154V16.3932C25.0915 17.6796 24.0132 18.6952 22.7327 18.6952H12.6908C11.4104 18.6952 10.332 17.6796 10.332 16.3932V11.4508Z" fill="url(#paint0_linear_568_466)"/>
<path d="M33.2278 15.7434V9.72157H31.25V8.69824H36.2682V9.72157H34.3003V15.7434H33.2278ZM37.9737 15.9009C37.6129 15.9009 37.2915 15.832 37.0094 15.6942C36.7273 15.5499 36.5076 15.3499 36.3502 15.094C36.1928 14.8382 36.114 14.5463 36.114 14.2183C36.114 13.8641 36.2058 13.5623 36.3895 13.313C36.5797 13.0572 36.8323 12.8637 37.1472 12.7325C37.4621 12.6013 37.8097 12.5357 38.1902 12.5357C38.5051 12.5357 38.7806 12.5652 39.0167 12.6243C39.2594 12.6833 39.4431 12.7456 39.5678 12.8112V12.5455C39.5678 12.2175 39.4497 11.9552 39.2135 11.7584C38.9774 11.5616 38.6724 11.4632 38.2984 11.4632C38.0426 11.4632 37.7999 11.5222 37.5703 11.6403C37.3407 11.7518 37.157 11.906 37.0193 12.1028L36.2912 11.5419C36.5076 11.2402 36.793 11.004 37.1472 10.8334C37.508 10.6563 37.9016 10.5678 38.328 10.5678C39.0561 10.5678 39.617 10.7482 40.0105 11.109C40.4041 11.4632 40.6009 11.9617 40.6009 12.6046V15.7434H39.5678V15.1235H39.5087C39.3775 15.3269 39.1807 15.5073 38.9183 15.6647C38.6559 15.8222 38.341 15.9009 37.9737 15.9009ZM38.1607 15.035C38.4362 15.035 38.6789 14.9694 38.8888 14.8382C39.0987 14.707 39.2627 14.5365 39.3808 14.3265C39.5054 14.1101 39.5678 13.8772 39.5678 13.6279C39.4169 13.5427 39.2398 13.4738 39.0364 13.4213C38.833 13.3622 38.6166 13.3327 38.387 13.3327C37.9541 13.3327 37.6457 13.4213 37.4621 13.5984C37.2784 13.769 37.1866 13.9788 37.1866 14.2281C37.1866 14.4643 37.2751 14.6578 37.4522 14.8087C37.6293 14.9596 37.8655 15.035 38.1607 15.035ZM41.7708 15.7434V10.7252H42.7745V11.414H42.8335C42.9778 11.1713 43.1877 10.9712 43.4632 10.8138C43.7387 10.6498 44.0438 10.5678 44.3783 10.5678C44.7522 10.5678 45.0704 10.6563 45.3328 10.8334C45.5952 11.0106 45.7821 11.2336 45.8936 11.5025C46.0577 11.2402 46.2807 11.0204 46.5627 10.8433C46.8448 10.6596 47.1892 10.5678 47.5959 10.5678C48.1863 10.5678 48.6258 10.7482 48.9144 11.109C49.203 11.4632 49.3476 11.9355 49.3476 12.5259V15.7434H48.2945V12.703C48.2945 12.3029 48.2059 12.0109 48.0288 11.8273C47.8583 11.637 47.6189 11.5419 47.3105 11.5419C47.0678 11.5419 46.8547 11.6108 46.671 11.7485C46.4873 11.8797 46.343 12.0601 46.238 12.2897C46.1396 12.5193 46.0904 12.7752 46.0904 13.0572V15.7434H45.0376V12.703C45.0376 12.3029 44.949 12.0109 44.7719 11.8273C44.5948 11.637 44.3456 11.5419 44.0241 11.5419C43.7879 11.5419 43.5813 11.6108 43.4042 11.7485C43.2271 11.8863 43.0861 12.0699 42.9811 12.2996C42.8827 12.5292 42.8335 12.785 42.8335 13.0671V15.7434H41.7708ZM53.2205 15.9009C52.8333 15.9009 52.4987 15.8189 52.2168 15.6549C51.9413 15.4843 51.7376 15.2908 51.6068 15.0743H51.5477V15.7434H50.5441V8.69824H51.6068V10.7055L51.5477 11.4041H51.6068C51.7376 11.1877 51.9413 10.9942 52.2168 10.8236C52.4987 10.653 52.8333 10.5678 53.2205 10.5678C53.6795 10.5678 54.0893 10.6826 54.4504 10.9122C54.8111 11.1418 55.0964 11.4566 55.3065 11.8568C55.523 12.2569 55.6312 12.7161 55.6312 13.2343C55.6312 13.7525 55.523 14.215 55.3065 14.6217C55.0964 15.0218 54.8111 15.3367 54.4504 15.5663C54.0893 15.7893 53.6795 15.9009 53.2205 15.9009ZM53.0631 14.9267C53.3253 14.9267 53.5713 14.8579 53.801 14.7201C54.0303 14.5824 54.2172 14.3889 54.3619 14.1396C54.506 13.8837 54.5784 13.582 54.5784 13.2343C54.5784 12.8866 54.506 12.5882 54.3619 12.3389C54.2172 12.0831 54.0303 11.8863 53.801 11.7485C53.5713 11.6108 53.3253 11.5419 53.0631 11.5419C52.8003 11.5419 52.5543 11.6108 52.3251 11.7485C52.0953 11.8863 51.9084 12.0831 51.7642 12.3389C51.6196 12.5882 51.5477 12.8866 51.5477 13.2343C51.5477 13.582 51.6196 13.8837 51.7642 14.1396C51.9084 14.3889 52.0953 14.5824 52.3251 14.7201C52.5543 14.8579 52.8003 14.9267 53.0631 14.9267ZM58.1816 15.9009C57.8205 15.9009 57.4993 15.832 57.2174 15.6942C56.935 15.5499 56.7155 15.3499 56.5581 15.094C56.4007 14.8382 56.3219 14.5463 56.3219 14.2183C56.3219 13.8641 56.4135 13.5623 56.5975 13.313C56.7874 13.0572 57.0402 12.8637 57.3551 12.7325C57.67 12.6013 58.0173 12.5357 58.3981 12.5357C58.713 12.5357 58.9885 12.5652 59.2246 12.6243C59.4672 12.6833 59.6507 12.7456 59.7757 12.8112V12.5455C59.7757 12.2175 59.6576 11.9552 59.4214 11.7584C59.1853 11.5616 58.8803 11.4632 58.5063 11.4632C58.2505 11.4632 58.0075 11.5222 57.7782 11.6403C57.5485 11.7518 57.3649 11.906 57.2272 12.1028L56.4991 11.5419C56.7155 11.2402 57.0009 11.004 57.3551 10.8334C57.7157 10.6563 58.1093 10.5678 58.5359 10.5678C59.264 10.5678 59.8249 10.7482 60.2185 11.109C60.612 11.4632 60.8088 11.9617 60.8088 12.6046V15.7434H59.7757V15.1235H59.7166C59.5853 15.3269 59.3885 15.5073 59.1262 15.6647C58.8635 15.8222 58.5487 15.9009 58.1816 15.9009ZM58.3686 15.035C58.6441 15.035 58.8867 14.9694 59.0967 14.8382C59.3063 14.707 59.4706 14.5365 59.5887 14.3265C59.7132 14.1101 59.7757 13.8772 59.7757 13.6279C59.6246 13.5427 59.4475 13.4738 59.2443 13.4213C59.0406 13.3622 58.8242 13.3327 58.5949 13.3327C58.162 13.3327 57.8535 13.4213 57.67 13.5984C57.486 13.769 57.3945 13.9788 57.3945 14.2281C57.3945 14.4643 57.483 14.6578 57.6601 14.8087C57.8373 14.9596 58.0734 15.035 58.3686 15.035ZM61.9788 15.7434V8.69824H63.0415V10.6268L62.9824 11.414H63.0415C63.1792 11.1713 63.3888 10.9712 63.6712 10.8138C63.9595 10.6498 64.2778 10.5678 64.6256 10.5678C65.2485 10.5678 65.7178 10.7547 66.0327 11.1286C66.3476 11.496 66.505 11.9781 66.505 12.5751V15.7434H65.4522V12.7128C65.4522 12.3061 65.3439 12.0109 65.1275 11.8273C64.9174 11.637 64.6581 11.5419 64.3501 11.5419C64.0943 11.5419 63.868 11.6141 63.6712 11.7584C63.4744 11.9027 63.3199 12.0929 63.2087 12.3291C63.097 12.5587 63.0415 12.8047 63.0415 13.0671V15.7434H61.9788ZM67.7153 15.7434V8.69824H68.778V12.8506L70.9033 10.7252H72.2218V10.7842L70.2834 12.703L72.2907 15.6844V15.7434H71.0312L69.5356 13.441L68.778 14.1888V15.7434H67.7153ZM74.4304 15.9009C74.0697 15.9009 73.748 15.832 73.4661 15.6942C73.1842 15.5499 72.9643 15.3499 72.8068 15.094C72.6494 14.8382 72.5707 14.5463 72.5707 14.2183C72.5707 13.8641 72.6627 13.5623 72.8462 13.313C73.0366 13.0572 73.289 12.8637 73.6038 12.7325C73.9187 12.6013 74.2665 12.5357 74.6468 12.5357C74.9617 12.5357 75.2372 12.5652 75.4734 12.6243C75.7159 12.6833 75.8999 12.7456 76.0244 12.8112V12.5455C76.0244 12.2175 75.9063 11.9552 75.6702 11.7584C75.434 11.5616 75.129 11.4632 74.7551 11.4632C74.4992 11.4632 74.2567 11.5222 74.0269 11.6403C73.7972 11.7518 73.6137 11.906 73.4759 12.1028L72.7478 11.5419C72.9643 11.2402 73.2496 11.004 73.6038 10.8334C73.9645 10.6563 74.358 10.5678 74.7846 10.5678C75.5127 10.5678 76.0736 10.7482 76.4672 11.109C76.8608 11.4632 77.0576 11.9617 77.0576 12.6046V15.7434H76.0244V15.1235H75.9654C75.834 15.3269 75.6372 15.5073 75.375 15.6647C75.1127 15.8222 74.7979 15.9009 74.4304 15.9009ZM74.6173 15.035C74.8928 15.035 75.1354 14.9694 75.3454 14.8382C75.5555 14.707 75.7194 14.5365 75.8374 14.3265C75.9619 14.1101 76.0244 13.8772 76.0244 13.6279C75.8733 13.5427 75.6962 13.4738 75.493 13.4213C75.2899 13.3622 75.0734 13.3327 74.8436 13.3327C74.4107 13.3327 74.1022 13.4213 73.9187 13.5984C73.7352 13.769 73.6432 13.9788 73.6432 14.2281C73.6432 14.4643 73.7317 14.6578 73.9089 14.8087C74.086 14.9596 74.3221 15.035 74.6173 15.035ZM78.2275 15.7434V10.7252H79.2311V11.414H79.2902C79.4343 11.1713 79.6478 10.9712 79.9297 10.8138C80.2185 10.6498 80.5334 10.5678 80.8744 10.5678C81.4908 10.5678 81.9533 10.7514 82.2617 11.1188C82.5702 11.4862 82.7242 11.9716 82.7242 12.5751V15.7434H81.6714V12.7128C81.6714 12.3061 81.5695 12.0109 81.3663 11.8273C81.1631 11.637 80.8975 11.5419 80.5693 11.5419C80.3135 11.5419 80.0906 11.6141 79.9002 11.7584C79.7098 11.8961 79.5593 12.0798 79.4476 12.3094C79.3428 12.539 79.2902 12.785 79.2902 13.0474V15.7434H78.2275ZM86.2321 15.7434V8.69824H87.2947V12.8506L89.4201 10.7252H90.7386V10.7842L88.8002 12.703L90.8075 15.6844V15.7434H89.548L88.0524 13.441L87.2947 14.1888V15.7434H86.2321ZM93.6172 15.9009C93.1252 15.9009 92.6859 15.7861 92.2987 15.5565C91.912 15.3269 91.607 15.012 91.3836 14.6119C91.1671 14.2117 91.0589 13.7558 91.0589 13.2442C91.0589 12.7653 91.1642 12.3225 91.3738 11.9158C91.5838 11.5091 91.8756 11.1844 92.2495 10.9417C92.6303 10.6924 93.0662 10.5678 93.5582 10.5678C94.0767 10.5678 94.5161 10.6793 94.8767 10.9023C95.2442 11.1253 95.5231 11.4304 95.7131 11.8174C95.9034 12.2045 95.9984 12.6406 95.9984 13.1261C95.9984 13.1983 95.9954 13.2638 95.9886 13.3229C95.9886 13.3819 95.9856 13.4278 95.9787 13.4606H92.1019C92.1545 13.9592 92.3282 14.3331 92.6234 14.5824C92.9255 14.8316 93.2664 14.9563 93.6467 14.9563C93.9882 14.9563 94.2701 14.8808 94.4929 14.73C94.7163 14.5725 94.8934 14.379 95.0243 14.1494L95.9 14.5725C95.6835 14.9661 95.3883 15.2875 95.0144 15.5368C94.6405 15.7795 94.1751 15.9009 93.6172 15.9009ZM93.568 11.473C93.2138 11.473 92.9122 11.5813 92.6628 11.7977C92.4138 12.0142 92.2465 12.3029 92.1609 12.6636H94.9456C94.9328 12.4931 94.8767 12.3159 94.7783 12.1323C94.6799 11.9486 94.5293 11.7944 94.3257 11.6698C94.1289 11.5386 93.8765 11.473 93.568 11.473Z" fill="white"/>
<path d="M103.022 15.9011C102.517 15.9011 102.041 15.8092 101.595 15.6256C101.156 15.4419 100.765 15.1861 100.424 14.8581C100.083 14.5235 99.8142 14.1332 99.6174 13.6872C99.427 13.2345 99.332 12.7458 99.332 12.221C99.332 11.6962 99.427 11.2109 99.6174 10.7648C99.8142 10.3122 100.08 9.92186 100.414 9.59386C100.755 9.25931 101.149 9.00018 101.595 8.81653C102.041 8.63287 102.517 8.54102 103.022 8.54102C103.56 8.54102 104.055 8.63612 104.508 8.82637C104.967 9.01662 105.35 9.28229 105.659 9.62338L104.911 10.3614C104.681 10.1055 104.406 9.90873 104.085 9.77097C103.77 9.63322 103.415 9.56434 103.022 9.56434C102.556 9.56434 102.126 9.67587 101.733 9.89889C101.339 10.1154 101.021 10.4237 100.778 10.8238C100.542 11.2174 100.424 11.6832 100.424 12.221C100.424 12.7589 100.546 13.228 100.788 13.6281C101.031 14.0217 101.349 14.33 101.743 14.553C102.136 14.7695 102.566 14.8778 103.032 14.8778C103.458 14.8778 103.845 14.799 104.193 14.6416C104.541 14.4776 104.819 14.248 105.029 13.9528C105.246 13.6576 105.377 13.3034 105.423 12.8901H103.012V11.9357H106.436C106.476 12.1128 106.495 12.2998 106.495 12.4966V12.5064C106.495 13.1886 106.344 13.7856 106.043 14.2972C105.747 14.8023 105.338 15.1959 104.813 15.478C104.288 15.76 103.691 15.9011 103.022 15.9011ZM109.664 15.9011C109.146 15.9011 108.69 15.783 108.296 15.5469C107.902 15.3107 107.594 14.9925 107.371 14.5924C107.148 14.1923 107.036 13.7397 107.036 13.2345C107.036 12.736 107.148 12.2866 107.371 11.8865C107.594 11.4798 107.902 11.1584 108.296 10.9222C108.69 10.6861 109.146 10.568 109.664 10.568C110.175 10.568 110.628 10.6861 111.022 10.9222C111.415 11.1584 111.724 11.4798 111.946 11.8865C112.169 12.2866 112.281 12.736 112.281 13.2345C112.281 13.7397 112.169 14.1923 111.946 14.5924C111.724 14.9925 111.415 15.3107 111.022 15.5469C110.628 15.783 110.175 15.9011 109.664 15.9011ZM109.664 14.927C109.939 14.927 110.195 14.8614 110.431 14.7302C110.667 14.5924 110.858 14.3989 111.002 14.1496C111.153 13.8938 111.228 13.5888 111.228 13.2345C111.228 12.8803 111.153 12.5786 111.002 12.3293C110.858 12.0735 110.667 11.88 110.431 11.7487C110.195 11.611 109.939 11.5421 109.664 11.5421C109.388 11.5421 109.129 11.611 108.886 11.7487C108.65 11.88 108.457 12.0735 108.306 12.3293C108.162 12.5786 108.089 12.8803 108.089 13.2345C108.089 13.5888 108.162 13.8938 108.306 14.1496C108.457 14.3989 108.65 14.5924 108.886 14.7302C109.129 14.8614 109.388 14.927 109.664 14.927ZM115.621 15.9011C115.103 15.9011 114.647 15.783 114.253 15.5469C113.86 15.3107 113.552 14.9925 113.328 14.5924C113.106 14.1923 112.994 13.7397 112.994 13.2345C112.994 12.736 113.106 12.2866 113.328 11.8865C113.552 11.4798 113.86 11.1584 114.253 10.9222C114.647 10.6861 115.103 10.568 115.621 10.568C116.133 10.568 116.585 10.6861 116.979 10.9222C117.373 11.1584 117.681 11.4798 117.904 11.8865C118.127 12.2866 118.238 12.736 118.238 13.2345C118.238 13.7397 118.127 14.1923 117.904 14.5924C117.681 14.9925 117.373 15.3107 116.979 15.5469C116.585 15.783 116.133 15.9011 115.621 15.9011ZM115.621 14.927C115.897 14.927 116.152 14.8614 116.389 14.7302C116.625 14.5924 116.815 14.3989 116.959 14.1496C117.11 13.8938 117.186 13.5888 117.186 13.2345C117.186 12.8803 117.11 12.5786 116.959 12.3293C116.815 12.0735 116.625 11.88 116.389 11.7487C116.152 11.611 115.897 11.5421 115.621 11.5421C115.346 11.5421 115.087 11.611 114.844 11.7487C114.608 11.88 114.414 12.0735 114.263 12.3293C114.119 12.5786 114.047 12.8803 114.047 13.2345C114.047 13.5888 114.119 13.8938 114.263 14.1496C114.414 14.3989 114.608 14.5924 114.844 14.7302C115.087 14.8614 115.346 14.927 115.621 14.927ZM121.481 18.0264C121.041 18.0264 120.66 17.9543 120.339 17.81C120.024 17.6722 119.769 17.4918 119.572 17.2688C119.375 17.0523 119.234 16.8293 119.149 16.5997L120.133 16.1864C120.237 16.4488 120.405 16.662 120.634 16.826C120.871 16.9966 121.152 17.0818 121.481 17.0818C121.94 17.0818 122.3 16.9441 122.563 16.6686C122.832 16.3931 122.966 16.0028 122.966 15.4977V15.0155H122.907C122.75 15.2517 122.53 15.4419 122.248 15.5862C121.973 15.724 121.658 15.7928 121.304 15.7928C120.877 15.7928 120.487 15.6846 120.133 15.4681C119.778 15.2517 119.493 14.9499 119.277 14.5629C119.06 14.1693 118.952 13.7101 118.952 13.1853C118.952 12.654 119.06 12.1948 119.277 11.8078C119.493 11.4142 119.778 11.1092 120.133 10.8927C120.487 10.6762 120.877 10.568 121.304 10.568C121.658 10.568 121.973 10.6402 122.248 10.7845C122.53 10.9288 122.75 11.119 122.907 11.3552H122.966V10.7254H123.98V15.478C123.98 16.0225 123.872 16.4849 123.655 16.8654C123.445 17.2458 123.153 17.5345 122.779 17.7313C122.406 17.9281 121.973 18.0264 121.481 18.0264ZM121.49 14.8286C121.753 14.8286 121.995 14.7662 122.219 14.6416C122.441 14.5104 122.622 14.3234 122.76 14.0807C122.898 13.8315 122.966 13.533 122.966 13.1853C122.966 12.8246 122.898 12.5228 122.76 12.2801C122.622 12.0308 122.441 11.8438 122.219 11.7192C121.995 11.5946 121.753 11.5323 121.49 11.5323C121.228 11.5323 120.982 11.5979 120.752 11.7291C120.529 11.8537 120.349 12.0374 120.211 12.2801C120.074 12.5228 120.005 12.8246 120.005 13.1853C120.005 13.5396 120.074 13.8413 120.211 14.0906C120.349 14.3333 120.529 14.517 120.752 14.6416C120.982 14.7662 121.228 14.8286 121.49 14.8286ZM125.233 15.7436V8.69845H126.296V15.7436H125.233ZM129.793 15.9011C129.301 15.9011 128.861 15.7863 128.475 15.5567C128.087 15.3271 127.782 15.0122 127.56 14.6121C127.343 14.212 127.235 13.756 127.235 13.2444C127.235 12.7655 127.34 12.3227 127.55 11.916C127.759 11.5093 128.052 11.1846 128.425 10.9419C128.806 10.6926 129.242 10.568 129.734 10.568C130.252 10.568 130.692 10.6795 131.053 10.9025C131.42 11.1255 131.699 11.4306 131.889 11.8176C132.079 12.2047 132.174 12.6409 132.174 13.1263C132.174 13.1985 132.171 13.2641 132.165 13.3231C132.165 13.3821 132.161 13.428 132.155 13.4608H128.278C128.33 13.9594 128.504 14.3333 128.799 14.5826C129.101 14.8319 129.442 14.9565 129.823 14.9565C130.164 14.9565 130.446 14.8811 130.669 14.7302C130.892 14.5727 131.069 14.3792 131.2 14.1496L132.076 14.5727C131.859 14.9663 131.564 15.2877 131.19 15.537C130.816 15.7797 130.351 15.9011 129.793 15.9011ZM129.744 11.4732C129.39 11.4732 129.088 11.5815 128.839 11.7979C128.589 12.0144 128.422 12.3031 128.337 12.6638H131.122C131.108 12.4933 131.053 12.3161 130.954 12.1325C130.856 11.9488 130.705 11.7946 130.502 11.67C130.305 11.5388 130.052 11.4732 129.744 11.4732ZM136.499 15.7436L134.61 8.69845H135.811L136.932 13.2739L137.05 13.884H137.109L137.257 13.2739L138.674 8.69845H139.756L141.114 13.2739L141.262 13.8741H141.321L141.439 13.2739L142.561 8.69845H143.751L141.892 15.7436H140.75L139.402 11.0698L139.245 10.4106H139.186L139.018 11.0698L137.611 15.7436H136.499ZM145.727 15.9011C145.366 15.9011 145.045 15.8322 144.763 15.6944C144.481 15.5501 144.261 15.3501 144.103 15.0942C143.946 14.8384 143.867 14.5465 143.867 14.2185C143.867 13.8643 143.959 13.5625 144.143 13.3133C144.333 13.0574 144.586 12.8639 144.9 12.7327C145.215 12.6015 145.563 12.5359 145.943 12.5359C146.258 12.5359 146.534 12.5654 146.77 12.6245C147.013 12.6835 147.197 12.7458 147.321 12.8114V12.5458C147.321 12.2178 147.203 11.9554 146.967 11.7586C146.731 11.5618 146.426 11.4634 146.052 11.4634C145.796 11.4634 145.553 11.5224 145.324 11.6405C145.094 11.752 144.91 11.9062 144.773 12.103L144.044 11.5421C144.261 11.2404 144.546 11.0042 144.9 10.8337C145.262 10.6565 145.655 10.568 146.081 10.568C146.809 10.568 147.37 10.7484 147.764 11.1092C148.157 11.4634 148.354 11.9619 148.354 12.6048V15.7436H147.321V15.1237H147.262C147.131 15.3271 146.934 15.5075 146.672 15.6649C146.409 15.8224 146.095 15.9011 145.727 15.9011ZM145.914 15.0352C146.189 15.0352 146.433 14.9696 146.642 14.8384C146.852 14.7072 147.016 14.5367 147.134 14.3267C147.259 14.1103 147.321 13.8774 147.321 13.6281C147.17 13.5429 146.993 13.474 146.79 13.4215C146.587 13.3624 146.37 13.3329 146.14 13.3329C145.707 13.3329 145.399 13.4215 145.215 13.5986C145.032 13.7692 144.94 13.9791 144.94 14.2283C144.94 14.4645 145.028 14.658 145.206 14.8089C145.383 14.9598 145.619 15.0352 145.914 15.0352ZM149.534 15.7436V8.69845H150.597V15.7436H149.534ZM151.86 15.7436V8.69845H152.922V15.7436H151.86ZM156.42 15.9011C155.928 15.9011 155.488 15.7863 155.101 15.5567C154.714 15.3271 154.409 15.0122 154.186 14.6121C153.97 14.212 153.861 13.756 153.861 13.2444C153.861 12.7655 153.966 12.3227 154.176 11.916C154.386 11.5093 154.678 11.1846 155.052 10.9419C155.432 10.6926 155.869 10.568 156.361 10.568C156.879 10.568 157.318 10.6795 157.679 10.9025C158.046 11.1255 158.325 11.4306 158.516 11.8176C158.706 12.2047 158.801 12.6409 158.801 13.1263C158.801 13.1985 158.798 13.2641 158.791 13.3231C158.791 13.3821 158.788 13.428 158.781 13.4608H154.904C154.957 13.9594 155.131 14.3333 155.426 14.5826C155.728 14.8319 156.068 14.9565 156.449 14.9565C156.79 14.9565 157.072 14.8811 157.296 14.7302C157.518 14.5727 157.695 14.3792 157.827 14.1496L158.703 14.5727C158.486 14.9663 158.191 15.2877 157.817 15.537C157.443 15.7797 156.977 15.9011 156.42 15.9011ZM156.371 11.4732C156.016 11.4732 155.714 11.5815 155.465 11.7979C155.216 12.0144 155.049 12.3031 154.964 12.6638H157.748C157.735 12.4933 157.679 12.3161 157.581 12.1325C157.482 11.9488 157.331 11.7946 157.128 11.67C156.931 11.5388 156.679 11.4732 156.371 11.4732ZM160.174 14.2874V11.6503H159.298V10.7254H160.174V9.30851H161.237V10.7254H162.467V11.6503H161.237V14.0611C161.237 14.3104 161.286 14.5006 161.384 14.6318C161.489 14.763 161.663 14.8286 161.906 14.8286C162.03 14.8286 162.135 14.8122 162.221 14.7794C162.312 14.7465 162.404 14.7006 162.496 14.6416V15.6748C162.385 15.7207 162.266 15.7568 162.142 15.783C162.017 15.8092 161.869 15.8224 161.699 15.8224C161.233 15.8224 160.863 15.6879 160.587 15.4189C160.312 15.1434 160.174 14.7662 160.174 14.2874Z" fill="white"/>
<path d="M161.371 0.246094H12.2997C5.64267 0.246094 0.246094 5.64267 0.246094 12.2997C0.246094 18.9567 5.64267 24.3533 12.2997 24.3533H161.371C168.028 24.3533 173.424 18.9567 173.424 12.2997C173.424 5.64267 168.028 0.246094 161.371 0.246094Z" stroke="#747775"/>
</g>
<defs>
<linearGradient id="paint0_linear_568_466" x1="17.0084" y1="15.1462" x2="9.21567" y2="24.0643" gradientUnits="userSpaceOnUse">
<stop stop-color="#4285F4"/>
<stop offset="1" stop-color="#1B74E8"/>
</linearGradient>
<clipPath id="clip0_568_466">
<rect width="173.67" height="24.5991" fill="white"/>
</clipPath>
</defs>
</svg>
