<svg width="174" height="54" viewBox="0 0 174 54" fill="none" xmlns="http://www.w3.org/2000/svg">
<g clip-path="url(#clip0_568_78)">
<path d="M147.135 0.482422H26.531C12.1437 0.482422 0.480469 12.1456 0.480469 26.5329C0.480469 40.9202 12.1437 52.5834 26.531 52.5834H147.135C161.522 52.5834 173.186 40.9202 173.186 26.5329C173.186 12.1456 161.522 0.482422 147.135 0.482422Z" fill="#1F1F1F"/>
<path d="M54.9957 22.9544H20.2617V17.5075C20.2617 14.5506 22.811 12.0605 25.8383 12.0605H49.4192C52.4464 12.0605 54.9957 14.5506 54.9957 17.5075V22.9544Z" fill="#34A853"/>
<path d="M54.9957 27.9803H20.2617V22.1913C20.2617 19.0488 22.811 16.4023 25.8383 16.4023H49.4192C52.4464 16.4023 54.9957 19.0488 54.9957 22.1913V27.9803Z" fill="#FBBC04"/>
<path d="M54.9957 32.8046H20.2617V27.0156C20.2617 23.873 22.811 21.2266 25.8383 21.2266H49.4192C52.4464 21.2266 54.9957 23.873 54.9957 27.0156V32.8046Z" fill="#EA4335"/>
<path d="M20.2617 24.3532L42.3075 29.3333C44.8452 29.9558 47.7 29.3333 49.7618 27.7771L54.9957 24.042V35.714C54.9957 38.6709 52.4581 41.0053 49.4446 41.0053H25.8128C22.7993 41.0053 20.2617 38.6709 20.2617 35.714V24.3532Z" fill="url(#paint0_linear_568_78)"/>
<path d="M71.8403 20.9445C71.1964 20.9445 70.5901 20.8275 70.0216 20.5933C69.4613 20.3592 68.9638 20.0331 68.529 19.615C68.0941 19.1885 67.7513 18.691 67.5005 18.1224C67.258 17.5454 67.1367 16.9224 67.1367 16.2535C67.1367 15.5846 67.258 14.9658 67.5005 14.3972C67.7513 13.8202 68.09 13.3226 68.5164 12.9046C68.9513 12.4781 69.453 12.1479 70.0216 11.9137C70.5901 11.6795 71.1964 11.5625 71.8403 11.5625C72.526 11.5625 73.1573 11.6838 73.7342 11.9262C74.3196 12.1687 74.8088 12.5074 75.2018 12.9422L74.2485 13.8829C73.9559 13.5568 73.6047 13.306 73.1949 13.1304C72.7935 12.9548 72.342 12.867 71.8403 12.867C71.2466 12.867 70.6989 13.0091 70.1972 13.2934C69.6955 13.5694 69.2899 13.9623 68.9805 14.4724C68.6795 14.9742 68.529 15.5678 68.529 16.2535C68.529 16.9392 68.6836 17.537 68.9931 18.0471C69.3025 18.5489 69.708 18.9418 70.2097 19.2262C70.7114 19.5021 71.2592 19.6401 71.8528 19.6401C72.3963 19.6401 72.8897 19.5397 73.3329 19.3391C73.776 19.13 74.1315 18.8373 74.399 18.4611C74.675 18.0848 74.8422 17.6332 74.9007 17.1064H71.8277V15.8898H76.1926C76.2428 16.1155 76.2679 16.3539 76.2679 16.6047V16.6173C76.2679 17.4869 76.0756 18.2478 75.6909 18.9001C75.3146 19.5439 74.792 20.0456 74.1231 20.4052C73.4542 20.7648 72.6932 20.9445 71.8403 20.9445ZM80.3066 20.9445C79.646 20.9445 79.0649 20.794 78.5631 20.493C78.0614 20.192 77.6685 19.7864 77.3841 19.2763C77.0998 18.7662 76.9577 18.1893 76.9577 17.5454C76.9577 16.9099 77.0998 16.3372 77.3841 15.8271C77.6685 15.3087 78.0614 14.8989 78.5631 14.5979C79.0649 14.2968 79.646 14.1463 80.3066 14.1463C80.9588 14.1463 81.5358 14.2968 82.0375 14.5979C82.5392 14.8989 82.9322 15.3087 83.2165 15.8271C83.5009 16.3372 83.643 16.9099 83.643 17.5454C83.643 18.1893 83.5009 18.7662 83.2165 19.2763C82.9322 19.7864 82.5392 20.192 82.0375 20.493C81.5358 20.794 80.9588 20.9445 80.3066 20.9445ZM80.3066 19.7028C80.6578 19.7028 80.9839 19.6191 81.2849 19.4519C81.586 19.2763 81.8284 19.0296 82.0124 18.7119C82.2047 18.3858 82.3009 17.997 82.3009 17.5454C82.3009 17.0939 82.2047 16.7092 82.0124 16.3915C81.8284 16.0654 81.586 15.8187 81.2849 15.6515C80.9839 15.4759 80.6578 15.3881 80.3066 15.3881C79.9554 15.3881 79.6251 15.4759 79.3157 15.6515C79.0147 15.8187 78.768 16.0654 78.5757 16.3915C78.3917 16.7092 78.2997 17.0939 78.2997 17.5454C78.2997 17.997 78.3917 18.3858 78.5757 18.7119C78.768 19.0296 79.0147 19.2763 79.3157 19.4519C79.6251 19.6191 79.9554 19.7028 80.3066 19.7028ZM87.9009 20.9445C87.2403 20.9445 86.6592 20.794 86.1574 20.493C85.6557 20.192 85.2628 19.7864 84.9784 19.2763C84.6941 18.7662 84.552 18.1893 84.552 17.5454C84.552 16.9099 84.6941 16.3372 84.9784 15.8271C85.2628 15.3087 85.6557 14.8989 86.1574 14.5979C86.6592 14.2968 87.2403 14.1463 87.9009 14.1463C88.5531 14.1463 89.1301 14.2968 89.6318 14.5979C90.1335 14.8989 90.5265 15.3087 90.8108 15.8271C91.0952 16.3372 91.2373 16.9099 91.2373 17.5454C91.2373 18.1893 91.0952 18.7662 90.8108 19.2763C90.5265 19.7864 90.1335 20.192 89.6318 20.493C89.1301 20.794 88.5531 20.9445 87.9009 20.9445ZM87.9009 19.7028C88.2521 19.7028 88.5782 19.6191 88.8792 19.4519C89.1803 19.2763 89.4227 19.0296 89.6067 18.7119C89.799 18.3858 89.8952 17.997 89.8952 17.5454C89.8952 17.0939 89.799 16.7092 89.6067 16.3915C89.4227 16.0654 89.1803 15.8187 88.8792 15.6515C88.5782 15.4759 88.2521 15.3881 87.9009 15.3881C87.5497 15.3881 87.2194 15.4759 86.91 15.6515C86.609 15.8187 86.3623 16.0654 86.17 16.3915C85.986 16.7092 85.894 17.0939 85.894 17.5454C85.894 17.997 85.986 18.3858 86.17 18.7119C86.3623 19.0296 86.609 19.2763 86.91 19.4519C87.2194 19.6191 87.5497 19.7028 87.9009 19.7028ZM95.3698 23.6538C94.8095 23.6538 94.3246 23.5618 93.9148 23.3778C93.5134 23.2022 93.1873 22.9723 92.9365 22.688C92.6856 22.412 92.5059 22.1277 92.3971 21.8351L93.6514 21.3083C93.7852 21.6428 93.9985 21.9145 94.2911 22.1236C94.5921 22.3409 94.9517 22.4497 95.3698 22.4497C95.9551 22.4497 96.415 22.2741 96.7494 21.9229C97.0919 21.5717 97.2636 21.0741 97.2636 20.4303V19.8157H97.1884C96.9877 20.1167 96.7079 20.3592 96.3481 20.5432C95.9969 20.7188 95.5955 20.8066 95.144 20.8066C94.6005 20.8066 94.1029 20.6686 93.6514 20.3927C93.1999 20.1167 92.8361 19.732 92.5602 19.2387C92.2842 18.737 92.1463 18.1516 92.1463 17.4827C92.1463 16.8054 92.2842 16.22 92.5602 15.7267C92.8361 15.225 93.1999 14.8362 93.6514 14.5602C94.1029 14.2843 94.6005 14.1463 95.144 14.1463C95.5955 14.1463 95.9969 14.2383 96.3481 14.4223C96.7079 14.6063 96.9877 14.8487 97.1884 15.1497H97.2636V14.347H98.5556V20.4052C98.5556 21.0992 98.4176 21.6887 98.1416 22.1737C97.8744 22.6588 97.502 23.0266 97.0253 23.2775C96.5487 23.5284 95.9969 23.6538 95.3698 23.6538ZM95.3823 19.5774C95.7168 19.5774 96.0261 19.498 96.3105 19.3391C96.595 19.1719 96.8246 18.9335 97.0002 18.6241C97.1758 18.3064 97.2636 17.9259 97.2636 17.4827C97.2636 17.0228 97.1758 16.6382 97.0002 16.3288C96.8246 16.0111 96.595 15.7727 96.3105 15.6138C96.0261 15.4549 95.7168 15.3755 95.3823 15.3755C95.0478 15.3755 94.7342 15.4592 94.4416 15.6264C94.1573 15.7853 93.9273 16.0194 93.7517 16.3288C93.5761 16.6382 93.4883 17.0228 93.4883 17.4827C93.4883 17.9343 93.5761 18.3189 93.7517 18.6367C93.9273 18.9461 94.1573 19.1801 94.4416 19.3391C94.7342 19.498 95.0478 19.5774 95.3823 19.5774ZM100.153 20.7439V11.7632H101.508V20.7439H100.153ZM105.965 20.9445C105.338 20.9445 104.779 20.7982 104.285 20.5055C103.792 20.2129 103.403 19.8115 103.118 19.3014C102.842 18.7913 102.704 18.2102 102.704 17.558C102.704 16.9475 102.838 16.3831 103.106 15.8647C103.374 15.3463 103.745 14.9324 104.222 14.623C104.707 14.3052 105.263 14.1463 105.89 14.1463C106.551 14.1463 107.112 14.2884 107.571 14.5728C108.04 14.8571 108.395 15.2459 108.637 15.7393C108.88 16.2326 109.001 16.7887 109.001 17.4075C109.001 17.4994 108.997 17.5831 108.988 17.6583C108.988 17.7336 108.984 17.7921 108.976 17.8339H104.034C104.101 18.4695 104.322 18.9461 104.699 19.2638C105.084 19.5815 105.519 19.7404 106.003 19.7404C106.438 19.7404 106.798 19.6442 107.082 19.4519C107.366 19.2513 107.592 19.0045 107.759 18.7119L108.875 19.2513C108.599 19.753 108.223 20.1627 107.747 20.4805C107.27 20.7899 106.677 20.9445 105.965 20.9445ZM105.903 15.3003C105.451 15.3003 105.067 15.4382 104.749 15.7142C104.431 15.9901 104.218 16.358 104.109 16.8179H107.659C107.642 16.6006 107.571 16.3748 107.446 16.1406C107.32 15.9065 107.128 15.71 106.869 15.5511C106.618 15.3839 106.296 15.3003 105.903 15.3003ZM113.411 20.7439V11.7632H116.497C117.04 11.7632 117.534 11.8802 117.977 12.1144C118.42 12.3485 118.771 12.6704 119.03 13.0802C119.298 13.4899 119.432 13.9666 119.432 14.5101C119.432 15.0536 119.298 15.5344 119.03 15.9525C118.771 16.3623 118.42 16.6841 117.977 16.9183C117.534 17.1441 117.04 17.2569 116.497 17.2569H114.791V20.7439H113.411ZM116.534 13.0676H114.791V15.9525H116.534C116.86 15.9525 117.136 15.8856 117.362 15.7518C117.588 15.6097 117.76 15.4298 117.876 15.2125C118.002 14.9867 118.064 14.7525 118.064 14.5101C118.064 14.2676 118.002 14.0376 117.876 13.8202C117.76 13.6028 117.588 13.423 117.362 13.2809C117.136 13.1387 116.86 13.0676 116.534 13.0676ZM122.818 20.9445C122.033 20.9445 121.439 20.7104 121.037 20.2421C120.644 19.7655 120.448 19.1217 120.448 18.3105V14.347H121.802V18.1224C121.802 18.6659 121.928 19.0673 122.179 19.3265C122.438 19.5774 122.76 19.7028 123.144 19.7028C123.488 19.7028 123.784 19.615 124.035 19.4394C124.294 19.2554 124.491 19.0213 124.624 18.737C124.767 18.4444 124.838 18.1265 124.838 17.7837V14.347H126.18V20.7439H124.913V19.8784H124.838C124.654 20.1794 124.378 20.4344 124.01 20.6435C123.651 20.8442 123.253 20.9445 122.818 20.9445ZM127.786 20.7439V11.7632H129.141V20.7439H127.786ZM135.468 23.4531V20.7815L135.543 19.8909H135.468C135.301 20.1669 135.038 20.4136 134.678 20.631C134.327 20.84 133.904 20.9445 133.411 20.9445C132.834 20.9445 132.311 20.8024 131.843 20.5181C131.383 20.2254 131.015 19.8241 130.739 19.314C130.472 18.7956 130.338 18.2061 130.338 17.5454C130.338 16.8848 130.472 16.2995 130.739 15.7894C131.015 15.2793 131.383 14.878 131.843 14.5853C132.311 14.2927 132.834 14.1463 133.411 14.1463C133.904 14.1463 134.327 14.2551 134.678 14.4724C135.038 14.6898 135.301 14.9365 135.468 15.2125H135.543V14.347H136.81V23.4531H135.468ZM133.612 19.7028C133.947 19.7028 134.26 19.615 134.553 19.4394C134.854 19.2638 135.092 19.0171 135.267 18.6994C135.452 18.3733 135.543 17.9886 135.543 17.5454C135.543 17.1023 135.452 16.7218 135.267 16.404C135.092 16.0779 134.854 15.8271 134.553 15.6515C134.26 15.4759 133.947 15.3881 133.612 15.3881C133.277 15.3881 132.963 15.4759 132.671 15.6515C132.379 15.8271 132.14 16.0779 131.956 16.404C131.772 16.7218 131.68 17.1023 131.68 17.5454C131.68 17.9886 131.772 18.3733 131.956 18.6994C132.14 19.0171 132.379 19.2638 132.671 19.4394C132.963 19.615 133.277 19.7028 133.612 19.7028ZM140.327 20.9445C139.867 20.9445 139.458 20.8567 139.098 20.6811C138.738 20.4971 138.458 20.2421 138.257 19.916C138.057 19.5899 137.956 19.2178 137.956 18.7997C137.956 18.3482 138.073 17.9635 138.308 17.6458C138.55 17.3197 138.872 17.073 139.273 16.9057C139.675 16.7385 140.118 16.6549 140.603 16.6549C141.004 16.6549 141.356 16.6925 141.657 16.7678C141.966 16.843 142.2 16.9224 142.359 17.0061V16.6674C142.359 16.2494 142.208 15.9149 141.907 15.664C141.606 15.4132 141.218 15.2877 140.741 15.2877C140.415 15.2877 140.105 15.363 139.813 15.5135C139.52 15.6556 139.286 15.8521 139.11 16.103L138.182 15.3881C138.458 15.0034 138.822 14.7024 139.273 14.485C139.734 14.2592 140.235 14.1463 140.779 14.1463C141.707 14.1463 142.422 14.3762 142.923 14.8362C143.425 15.2877 143.676 15.9233 143.676 16.7427V20.7439H142.359V19.9537H142.284C142.117 20.2129 141.866 20.4428 141.531 20.6435C141.196 20.8442 140.795 20.9445 140.327 20.9445ZM140.565 19.8408C140.917 19.8408 141.226 19.7571 141.494 19.5899C141.761 19.4227 141.97 19.2052 142.121 18.9377C142.28 18.6617 142.359 18.3649 142.359 18.0471C142.167 17.9384 141.941 17.8506 141.682 17.7837C141.422 17.7085 141.146 17.6709 140.854 17.6709C140.302 17.6709 139.909 17.7837 139.675 18.0095C139.44 18.2269 139.324 18.4945 139.324 18.8123C139.324 19.1133 139.437 19.36 139.662 19.5523C139.888 19.7446 140.189 19.8408 140.565 19.8408ZM148.579 20.9445C148.085 20.9445 147.659 20.84 147.3 20.631C146.949 20.4136 146.689 20.1669 146.522 19.8909H146.447V20.7439H145.168V11.7632H146.522V14.3219L146.447 15.2125H146.522C146.689 14.9365 146.949 14.6898 147.3 14.4724C147.659 14.2551 148.085 14.1463 148.579 14.1463C149.164 14.1463 149.687 14.2927 150.147 14.5853C150.606 14.878 150.97 15.2793 151.238 15.7894C151.514 16.2995 151.652 16.8848 151.652 17.5454C151.652 18.2061 151.514 18.7956 151.238 19.314C150.97 19.8241 150.606 20.2254 150.147 20.5181C149.687 20.8024 149.164 20.9445 148.579 20.9445ZM148.379 19.7028C148.712 19.7028 149.026 19.615 149.319 19.4394C149.612 19.2638 149.85 19.0171 150.034 18.6994C150.218 18.3733 150.31 17.9886 150.31 17.5454C150.31 17.1023 150.218 16.7218 150.034 16.404C149.85 16.0779 149.612 15.8271 149.319 15.6515C149.026 15.4759 148.712 15.3881 148.379 15.3881C148.044 15.3881 147.73 15.4759 147.438 15.6515C147.145 15.8271 146.906 16.0779 146.723 16.404C146.539 16.7218 146.447 17.1023 146.447 17.5454C146.447 17.9886 146.539 18.3733 146.723 18.6994C146.906 19.0171 147.145 19.2638 147.438 19.4394C147.73 19.615 148.044 19.7028 148.379 19.7028ZM152.935 20.7439V14.347H154.29V20.7439H152.935Z" fill="white"/>
<path d="M75.4144 35.842C75.4144 36.6402 75.2394 37.3783 74.8895 38.0563C74.5395 38.7343 74.0475 39.281 73.4133 39.6965C72.79 40.1011 72.0628 40.3034 71.2318 40.3034C70.368 40.3034 69.6353 40.1175 69.0339 39.7457C68.4325 39.374 67.9678 38.8655 67.6397 38.2203C67.3226 37.5751 67.1641 36.848 67.1641 36.0388C67.1641 35.9185 67.1696 35.8092 67.1805 35.7108C67.1914 35.6124 67.2024 35.5359 67.2133 35.4812H73.6757C73.621 34.9126 73.468 34.4478 73.2165 34.087C72.9649 33.7152 72.6479 33.4418 72.2651 33.2669C71.8934 33.0809 71.5051 32.988 71.1006 32.988C70.532 32.988 70.0618 33.1192 69.69 33.3817C69.3182 33.6332 69.023 33.9503 68.8043 34.333L67.3445 33.6277C67.7053 32.9716 68.1974 32.4413 68.8207 32.0367C69.444 31.6212 70.2149 31.4134 71.1334 31.4134C71.9644 31.4134 72.7025 31.6048 73.3477 31.9875C73.9929 32.3702 74.4958 32.8951 74.8567 33.5621C75.2284 34.2291 75.4144 34.9891 75.4144 35.842ZM71.2318 38.7944C71.7676 38.7944 72.2542 38.6249 72.6916 38.2859C73.129 37.947 73.4297 37.4549 73.5937 36.8097H68.9355C68.9574 37.0941 69.0503 37.3893 69.2143 37.6955C69.3784 38.0016 69.6244 38.264 69.9524 38.4828C70.2914 38.6905 70.7178 38.7944 71.2318 38.7944ZM76.9777 40.041V28.297H78.7491V40.041H76.9777ZM83.3818 40.3034C82.7804 40.3034 82.2446 40.1886 81.7744 39.959C81.3042 39.7184 80.9379 39.3849 80.6755 38.9584C80.4131 38.532 80.2818 38.0454 80.2818 37.4986C80.2818 36.9082 80.4349 36.4052 80.7411 35.9896C81.0581 35.5632 81.4792 35.2406 82.0041 35.0219C82.5289 34.8032 83.1084 34.6939 83.7427 34.6939C84.2676 34.6939 84.7268 34.7431 85.1205 34.8415C85.525 34.9399 85.8312 35.0438 86.039 35.1531V34.7103C86.039 34.1635 85.8422 33.7261 85.4485 33.3981C85.0549 33.07 84.5464 32.906 83.9231 32.906C83.4967 32.906 83.092 33.0044 82.7094 33.2013C82.3266 33.3872 82.0205 33.6441 81.7908 33.9722L80.5771 33.0372C80.9379 32.5343 81.4136 32.1406 82.0041 31.8563C82.6054 31.561 83.2615 31.4134 83.9723 31.4134C85.1861 31.4134 86.121 31.7142 86.7771 32.3155C87.4332 32.906 87.7612 33.737 87.7612 34.8087V40.041H86.039V39.0076H85.9406C85.7219 39.3466 85.3938 39.6473 84.9565 39.9097C84.519 40.1722 83.9941 40.3034 83.3818 40.3034ZM83.6935 38.86C84.1527 38.86 84.5573 38.7507 84.9073 38.532C85.2571 38.3132 85.5305 38.029 85.7274 37.6791C85.9351 37.3182 86.039 36.9301 86.039 36.5145C85.7875 36.3724 85.4922 36.2576 85.1533 36.1701C84.8142 36.0716 84.4534 36.0224 84.0707 36.0224C83.349 36.0224 82.8351 36.1701 82.5289 36.4653C82.2227 36.7496 82.0697 37.0995 82.0697 37.515C82.0697 37.9087 82.2173 38.2312 82.5125 38.4828C82.8078 38.7343 83.2014 38.86 83.6935 38.86ZM92.0935 40.041L88.6327 31.6759H90.6009L92.9464 37.7611H93.0284L95.4232 31.6759H97.3585L93.865 40.041H92.0935ZM106.072 35.842C106.072 36.6402 105.897 37.3783 105.547 38.0563C105.198 38.7343 104.706 39.281 104.071 39.6965C103.448 40.1011 102.721 40.3034 101.889 40.3034C101.026 40.3034 100.294 40.1175 99.6915 39.7457C99.0904 39.374 98.6253 38.8655 98.2973 38.2203C97.9808 37.5751 97.8216 36.848 97.8216 36.0388C97.8216 35.9185 97.8274 35.8092 97.838 35.7108C97.8496 35.6124 97.8602 35.5359 97.8709 35.4812H104.333C104.279 34.9126 104.126 34.4478 103.874 34.087C103.623 33.7152 103.306 33.4418 102.923 33.2669C102.551 33.0809 102.163 32.988 101.758 32.988C101.19 32.988 100.72 33.1192 100.348 33.3817C99.9761 33.6332 99.6809 33.9503 99.4619 34.333L98.0021 33.6277C98.3629 32.9716 98.855 32.4413 99.4783 32.0367C100.102 31.6212 100.872 31.4134 101.791 31.4134C102.623 31.4134 103.361 31.6048 104.005 31.9875C104.651 32.3702 105.153 32.8951 105.514 33.5621C105.887 34.2291 106.072 34.9891 106.072 35.842ZM101.889 38.7944C102.426 38.7944 102.912 38.6249 103.349 38.2859C103.787 37.947 104.087 37.4549 104.251 36.8097H99.5931C99.6153 37.0941 99.7079 37.3893 99.8719 37.6955C100.036 38.0016 100.282 38.264 100.61 38.4828C100.95 38.6905 101.376 38.7944 101.889 38.7944ZM115.349 40.3034C114.529 40.3034 113.796 40.1121 113.151 39.7293C112.506 39.3466 111.998 38.8217 111.626 38.1547C111.265 37.4877 111.084 36.7277 111.084 35.8748C111.084 35.0766 111.26 34.3385 111.609 33.6605C111.959 32.9825 112.446 32.4413 113.069 32.0367C113.704 31.6212 114.43 31.4134 115.25 31.4134C116.115 31.4134 116.847 31.5993 117.448 31.9711C118.061 32.3429 118.526 32.8513 118.842 33.4965C119.16 34.1417 119.318 34.8688 119.318 35.678C119.318 35.7983 119.313 35.9076 119.302 36.006C119.302 36.1044 119.297 36.181 119.285 36.2357H112.823C112.911 37.0667 113.2 37.69 113.692 38.1055C114.196 38.5211 114.764 38.7288 115.398 38.7288C115.967 38.7288 116.437 38.6031 116.809 38.3515C117.181 38.0891 117.476 37.7666 117.694 37.3838L119.154 38.0891C118.793 38.7452 118.301 39.281 117.678 39.6965C117.055 40.1011 116.279 40.3034 115.349 40.3034ZM115.267 32.9224C114.676 32.9224 114.174 33.1028 113.758 33.4637C113.343 33.8245 113.064 34.3057 112.921 34.9071H117.563C117.542 34.6228 117.448 34.3275 117.284 34.0214C117.12 33.7152 116.869 33.4582 116.53 33.2505C116.202 33.0317 115.781 32.9224 115.267 32.9224ZM124.618 40.3034C123.863 40.3034 123.179 40.1175 122.568 39.7457C121.966 39.363 121.485 38.8381 121.124 38.1711C120.774 37.4931 120.599 36.7222 120.599 35.8584C120.599 34.9946 120.774 34.2291 121.124 33.5621C121.485 32.8951 121.966 32.3702 122.568 31.9875C123.179 31.6048 123.863 31.4134 124.618 31.4134C125.262 31.4134 125.815 31.5555 126.275 31.8399C126.744 32.1242 127.089 32.4468 127.308 32.8076H127.406L127.308 31.6431V28.297H129.063V40.041H127.406V38.9256H127.308C127.089 39.2865 126.744 39.609 126.275 39.8933C125.815 40.1667 125.262 40.3034 124.618 40.3034ZM124.88 38.6796C125.317 38.6796 125.728 38.5648 126.111 38.3351C126.504 38.1055 126.816 37.783 127.045 37.3674C127.286 36.941 127.406 36.438 127.406 35.8584C127.406 35.2788 127.286 34.7814 127.045 34.3658C126.816 33.9394 126.504 33.6113 126.111 33.3817C125.728 33.1521 125.317 33.0372 124.88 33.0372C124.442 33.0372 124.032 33.1521 123.65 33.3817C123.267 33.6113 122.956 33.9394 122.715 34.3658C122.474 34.7814 122.354 35.2788 122.354 35.8584C122.354 36.438 122.474 36.941 122.715 37.3674C122.956 37.783 123.267 38.1055 123.65 38.3351C124.032 38.5648 124.442 38.6796 124.88 38.6796ZM132.166 30.4457C131.838 30.4457 131.554 30.3309 131.313 30.1013C131.083 29.8607 130.968 29.5764 130.968 29.2483C130.968 28.9203 131.083 28.6415 131.313 28.4118C131.554 28.1822 131.838 28.0674 132.166 28.0674C132.494 28.0674 132.773 28.1822 133.002 28.4118C133.244 28.6415 133.363 28.9203 133.363 29.2483C133.363 29.5764 133.244 29.8607 133.002 30.1013C132.773 30.3309 132.494 30.4457 132.166 30.4457ZM131.28 40.041V31.6759H133.052V40.041H131.28ZM135.249 40.041V31.6759H136.922V32.824H137.021C137.262 32.4195 137.617 32.0859 138.087 31.8235C138.568 31.5501 139.093 31.4134 139.662 31.4134C140.69 31.4134 141.461 31.7196 141.974 32.3319C142.489 32.9443 142.745 33.7534 142.745 34.7595V40.041H140.99V34.9891C140.99 34.3111 140.821 33.819 140.482 33.5129C140.143 33.1958 139.7 33.0372 139.153 33.0372C138.727 33.0372 138.355 33.1576 138.038 33.3981C137.721 33.6277 137.47 33.9339 137.283 34.3166C137.109 34.6994 137.021 35.1094 137.021 35.5468V40.041H135.249Z" fill="white"/>
<path d="M147.135 0.482422H26.531C12.1437 0.482422 0.480469 12.1456 0.480469 26.5329C0.480469 40.9202 12.1437 52.5834 26.531 52.5834H147.135C161.522 52.5834 173.186 40.9202 173.186 26.5329C173.186 12.1456 161.522 0.482422 147.135 0.482422Z" stroke="#747775"/>
</g>
<defs>
<linearGradient id="paint0_linear_568_78" x1="35.9734" y1="32.8475" x2="18.122" y2="53.7631" gradientUnits="userSpaceOnUse">
<stop stop-color="#4285F4"/>
<stop offset="1" stop-color="#1B74E8"/>
</linearGradient>
<clipPath id="clip0_568_78">
<rect width="173.67" height="53.0658" fill="white"/>
</clipPath>
</defs>
</svg>
