<svg width="174" height="28" viewBox="0 0 174 28" fill="none" xmlns="http://www.w3.org/2000/svg">
<g clip-path="url(#clip0_568_897)">
<path d="M159.973 0.274414H13.6959C6.28287 0.274414 0.273438 6.28385 0.273438 13.6969C0.273438 21.1099 6.28287 27.1193 13.6959 27.1193H159.973C167.386 27.1193 173.396 21.1099 173.396 13.6969C173.396 6.28385 167.386 0.274414 159.973 0.274414Z" fill="#1F1F1F"/>
<path d="M27.9396 12.0528H11.5039V9.31349C11.5039 7.82645 12.7102 6.57422 14.1426 6.57422H25.3008C26.7333 6.57422 27.9396 7.82645 27.9396 9.31349V12.0528Z" fill="#34A853"/>
<path d="M27.9396 14.2735H11.5039V11.5342C11.5039 10.0472 12.7102 8.79492 14.1426 8.79492H25.3008C26.7333 8.79492 27.9396 10.0472 27.9396 11.5342V14.2735Z" fill="#FBBC04"/>
<path d="M27.9396 16.5713H11.5039V13.832C11.5039 12.345 12.7102 11.0928 14.1426 11.0928H25.3008C26.7333 11.0928 27.9396 12.345 27.9396 13.832V16.5713Z" fill="#EA4335"/>
<path d="M11.5039 12.7514L21.9357 15.1639C23.1365 15.4655 24.4873 15.1639 25.463 14.41L27.9396 12.6006V18.255C27.9396 19.6875 26.7388 20.8184 25.3129 20.8184H14.1306C12.7047 20.8184 11.5039 19.6875 11.5039 18.255V12.7514Z" fill="url(#paint0_linear_568_897)"/>
<path d="M37.6816 17.7067C37.2653 17.7067 36.8671 17.6263 36.4873 17.4656C36.1075 17.2976 35.7714 17.0529 35.4793 16.7315C35.1944 16.41 34.9825 16.012 34.8438 15.5371L35.9833 15.0769C36.1001 15.5006 36.3047 15.8549 36.5969 16.1398C36.8891 16.4247 37.2543 16.5671 37.6926 16.5671C37.9409 16.5671 38.171 16.5233 38.3829 16.4356C38.602 16.348 38.7773 16.2202 38.9088 16.0521C39.0403 15.8768 39.1061 15.665 39.1061 15.4166C39.1061 15.0733 38.9782 14.7993 38.7226 14.5948C38.4669 14.383 38.0579 14.1748 37.4954 13.9703L37.0023 13.795C36.7174 13.6927 36.4289 13.5539 36.1367 13.3786C35.8518 13.196 35.6144 12.9659 35.4245 12.6883C35.2345 12.4034 35.1396 12.0565 35.1396 11.6474C35.1396 11.2602 35.2419 10.906 35.4464 10.5845C35.6582 10.2558 35.9467 9.99652 36.312 9.80658C36.6845 9.60936 37.1155 9.51074 37.6049 9.51074C38.109 9.51074 38.529 9.60207 38.865 9.78467C39.2083 9.95998 39.4749 10.1755 39.6649 10.4311C39.8621 10.6795 39.9973 10.9133 40.0703 11.1324L38.9855 11.5926C38.9417 11.4465 38.8613 11.3004 38.7445 11.1543C38.6349 11.0009 38.4852 10.8767 38.2952 10.7818C38.1126 10.6795 37.8862 10.6284 37.6159 10.6284C37.2653 10.6284 36.9621 10.7233 36.7065 10.9133C36.4581 11.0959 36.3339 11.3369 36.3339 11.6364C36.3339 11.9213 36.4508 12.1514 36.6845 12.3267C36.9183 12.502 37.258 12.6664 37.7036 12.8198L38.2076 12.9951C38.5436 13.1047 38.8723 13.2544 39.1937 13.4443C39.5224 13.6343 39.7891 13.8863 39.9936 14.2004C40.2054 14.5072 40.3113 14.9053 40.3113 15.3947C40.3113 15.7964 40.231 16.1435 40.0703 16.4356C39.9169 16.7278 39.7087 16.9689 39.4457 17.1588C39.19 17.3414 38.9052 17.4766 38.5911 17.5642C38.2843 17.6592 37.9812 17.7067 37.6816 17.7067ZM41.5078 17.5313V9.68606H42.6912V11.8336L42.6254 12.7102H42.6912C42.8446 12.44 43.0783 12.2171 43.3924 12.0418C43.7139 11.8592 44.0681 11.7679 44.4553 11.7679C45.1492 11.7679 45.6715 11.9761 46.0221 12.3925C46.3728 12.8015 46.5481 13.3384 46.5481 14.0032V17.5313H45.3757V14.1566C45.3757 13.7036 45.2551 13.3749 45.0141 13.1704C44.7803 12.9586 44.4918 12.8527 44.1485 12.8527C43.8636 12.8527 43.6116 12.933 43.3924 13.0937C43.1733 13.2544 43.0016 13.4663 42.8774 13.7292C42.7532 13.9849 42.6912 14.2588 42.6912 14.551V17.5313H41.5078ZM48.2094 15.9097V12.9732H47.2342V11.9432H48.2094V10.3654H49.3928V11.9432H50.7624V12.9732H49.3928V15.6577C49.3928 15.9353 49.4475 16.1471 49.5571 16.2932C49.674 16.4393 49.8675 16.5123 50.1378 16.5123C50.2766 16.5123 50.3935 16.4941 50.4885 16.4575C50.5907 16.421 50.693 16.3699 50.7953 16.3041V17.4546C50.6711 17.5058 50.5396 17.546 50.4008 17.5752C50.262 17.6044 50.0976 17.619 49.9077 17.619C49.3891 17.619 48.9764 17.4693 48.6696 17.1698C48.3628 16.863 48.2094 16.4429 48.2094 15.9097ZM54.3135 17.7067C53.7364 17.7067 53.2287 17.5752 52.7904 17.3122C52.3522 17.0492 52.0089 16.6949 51.7605 16.2494C51.5121 15.8038 51.3879 15.2998 51.3879 14.7373C51.3879 14.1821 51.5121 13.6817 51.7605 13.2362C52.0089 12.7832 52.3522 12.4253 52.7904 12.1624C53.2287 11.8994 53.7364 11.7679 54.3135 11.7679C54.8832 11.7679 55.3872 11.8994 55.8255 12.1624C56.2638 12.4253 56.6073 12.7832 56.8555 13.2362C57.1036 13.6817 57.228 14.1821 57.228 14.7373C57.228 15.2998 57.1036 15.8038 56.8555 16.2494C56.6073 16.6949 56.2638 17.0492 55.8255 17.3122C55.3872 17.5752 54.8832 17.7067 54.3135 17.7067ZM54.3135 16.6219C54.6203 16.6219 54.9051 16.5489 55.1681 16.4028C55.431 16.2494 55.6431 16.0339 55.8036 15.7563C55.9718 15.4714 56.0556 15.1317 56.0556 14.7373C56.0556 14.3428 55.9718 14.0068 55.8036 13.7292C55.6431 13.4443 55.431 13.2289 55.1681 13.0828C54.9051 12.9294 54.6203 12.8527 54.3135 12.8527C54.0067 12.8527 53.7182 12.9294 53.4479 13.0828C53.1849 13.2289 52.9694 13.4443 52.8014 13.7292C52.6407 14.0068 52.5603 14.3428 52.5603 14.7373C52.5603 15.1317 52.6407 15.4714 52.8014 15.7563C52.9694 16.0339 53.1849 16.2494 53.4479 16.4028C53.7182 16.5489 54.0067 16.6219 54.3135 16.6219ZM61.4668 15.9097V12.9732H60.4916V11.9432H61.4668V10.3654H62.6501V11.9432H64.0198V12.9732H62.6501V15.6577C62.6501 15.9353 62.7049 16.1471 62.8145 16.2932C62.9317 16.4393 63.1251 16.5123 63.3952 16.5123C63.5344 16.5123 63.6511 16.4941 63.7458 16.4575C63.8483 16.421 63.9507 16.3699 64.0526 16.3041V17.4546C63.9288 17.5058 63.7973 17.546 63.6582 17.5752C63.5196 17.6044 63.3552 17.619 63.1651 17.619C62.6468 17.619 62.2338 17.4693 61.927 17.1698C61.6202 16.863 61.4668 16.4429 61.4668 15.9097ZM67.4943 17.7067C66.9464 17.7067 66.4572 17.5788 66.026 17.3232C65.5954 17.0675 65.2557 16.7168 65.007 16.2713C64.7659 15.8257 64.6454 15.318 64.6454 14.7482C64.6454 14.215 64.7627 13.7219 64.996 13.269C65.23 12.8161 65.5549 12.4545 65.9712 12.1843C66.3953 11.9067 66.8807 11.7679 67.4285 11.7679C68.006 11.7679 68.4952 11.8921 68.8968 12.1404C69.306 12.3888 69.6166 12.7285 69.8281 13.1595C70.0401 13.5905 70.1459 14.0762 70.1459 14.6167C70.1459 14.6971 70.1426 14.7701 70.1349 14.8359C70.1349 14.9016 70.1316 14.9527 70.124 14.9893H65.8069C65.8655 15.5444 66.0589 15.9608 66.3876 16.2384C66.724 16.516 67.1036 16.6548 67.5271 16.6548C67.9073 16.6548 68.2213 16.5708 68.4694 16.4028C68.7182 16.2274 68.9154 16.012 69.0611 15.7563L70.0363 16.2274C69.7952 16.6657 69.4665 17.0236 69.0502 17.3012C68.6338 17.5715 68.1155 17.7067 67.4943 17.7067ZM67.4395 12.776C67.045 12.776 66.7092 12.8965 66.4314 13.1375C66.1542 13.3786 65.9679 13.7 65.8726 14.1018H68.9735C68.9592 13.9118 68.8968 13.7146 68.7872 13.5101C68.6776 13.3056 68.51 13.1339 68.2832 12.9951C68.064 12.849 67.783 12.776 67.4395 12.776Z" fill="white"/>
<path d="M74.3008 17.5313V9.68606H76.9962C77.4712 9.68606 77.9018 9.78834 78.2892 9.99285C78.6765 10.1974 78.9833 10.4786 79.2096 10.8366C79.4435 11.1945 79.5602 11.6108 79.5602 12.0857C79.5602 12.5605 79.4435 12.9805 79.2096 13.3457C78.9833 13.7036 78.6765 13.9849 78.2892 14.1894C77.9018 14.3866 77.4712 14.4853 76.9962 14.4853H75.5061V17.5313H74.3008ZM77.0291 10.8256H75.5061V13.3457H77.0291C77.314 13.3457 77.555 13.2873 77.7523 13.1704C77.9495 13.0462 78.0991 12.8892 78.2015 12.6993C78.3111 12.502 78.3659 12.2975 78.3659 12.0857C78.3659 11.8738 78.3111 11.673 78.2015 11.483C78.0991 11.2931 77.9495 11.1361 77.7523 11.0119C77.555 10.8877 77.314 10.8256 77.0291 10.8256ZM82.8429 17.7067C82.266 17.7067 81.7582 17.5752 81.3199 17.3122C80.8816 17.0492 80.5387 16.6949 80.2899 16.2494C80.0418 15.8038 79.9174 15.2998 79.9174 14.7373C79.9174 14.1821 80.0418 13.6817 80.2899 13.2362C80.5387 12.7832 80.8816 12.4253 81.3199 12.1624C81.7582 11.8994 82.266 11.7679 82.8429 11.7679C83.4127 11.7679 83.9167 11.8994 84.355 12.1624C84.7933 12.4253 85.1368 12.7832 85.385 13.2362C85.6337 13.6817 85.7575 14.1821 85.7575 14.7373C85.7575 15.2998 85.6337 15.8038 85.385 16.2494C85.1368 16.6949 84.7933 17.0492 84.355 17.3122C83.9167 17.5752 83.4127 17.7067 82.8429 17.7067ZM82.8429 16.6219C83.1497 16.6219 83.4346 16.5489 83.6976 16.4028C83.9606 16.2494 84.1726 16.0339 84.3331 15.7563C84.5013 15.4714 84.5851 15.1317 84.5851 14.7373C84.5851 14.3428 84.5013 14.0068 84.3331 13.7292C84.1726 13.4443 83.9606 13.2289 83.6976 13.0828C83.4346 12.9294 83.1497 12.8527 82.8429 12.8527C82.5361 12.8527 82.248 12.9294 81.9773 13.0828C81.7144 13.2289 81.499 13.4443 81.3309 13.7292C81.1703 14.0068 81.0898 14.3428 81.0898 14.7373C81.0898 15.1317 81.1703 15.4714 81.3309 15.7563C81.499 16.0339 81.7144 16.2494 81.9773 16.4028C82.248 16.5489 82.5361 16.6219 82.8429 16.6219ZM91.7697 15.9097V12.9732H90.7945V11.9432H91.7697V10.3654H92.9531V11.9432H94.3227V12.9732H92.9531V15.6577C92.9531 15.9353 93.0078 16.1471 93.1174 16.2932C93.2347 16.4393 93.428 16.5123 93.6981 16.5123C93.8373 16.5123 93.954 16.4941 94.0488 16.4575C94.1512 16.421 94.2537 16.3699 94.3556 16.3041V17.4546C94.2317 17.5058 94.1003 17.546 93.9611 17.5752C93.8225 17.6044 93.662 17.619 93.479 17.619C92.9531 17.619 92.5367 17.4693 92.2299 17.1698C91.9231 16.863 91.7697 16.4429 91.7697 15.9097ZM86.7404 17.5313V11.9432H87.858V12.765H87.9237C88.07 12.4582 88.2963 12.2208 88.6031 12.0528C88.9099 11.8775 89.2424 11.7898 89.6002 11.7898C89.8051 11.7898 89.9585 11.8044 90.0604 11.8336V13.017C89.8999 12.9659 89.7026 12.9403 89.4687 12.9403C89.0014 12.9403 88.625 13.09 88.3401 13.3896C88.0629 13.6891 87.9237 14.0945 87.9237 14.6058V17.5313H86.7404ZM97.8876 17.7067C97.3107 17.7067 96.8028 17.5752 96.3645 17.3122C95.9263 17.0492 95.5833 16.6949 95.3346 16.2494C95.0864 15.8038 94.962 15.2998 94.962 14.7373C94.962 14.1821 95.0864 13.6817 95.3346 13.2362C95.5833 12.7832 95.9263 12.4253 96.3645 12.1624C96.8028 11.8994 97.3107 11.7679 97.8876 11.7679C98.4574 11.7679 98.9614 11.8994 99.3997 12.1624C99.8379 12.4253 100.181 12.7832 100.43 13.2362C100.678 13.6817 100.802 14.1821 100.802 14.7373C100.802 15.2998 100.678 15.8038 100.43 16.2494C100.181 16.6949 99.8379 17.0492 99.3997 17.3122C98.9614 17.5752 98.4574 17.7067 97.8876 17.7067ZM97.8876 16.6219C98.1944 16.6219 98.4793 16.5489 98.7422 16.4028C99.0052 16.2494 99.2172 16.0339 99.3777 15.7563C99.5459 15.4714 99.6298 15.1317 99.6298 14.7373C99.6298 14.3428 99.5459 14.0068 99.3777 13.7292C99.2172 13.4443 99.0052 13.2289 98.7422 13.0828C98.4793 12.9294 98.1944 12.8527 97.8876 12.8527C97.5808 12.8527 97.2926 12.9294 97.022 13.0828C96.759 13.2289 96.5437 13.4443 96.3755 13.7292C96.215 14.0068 96.1344 14.3428 96.1344 14.7373C96.1344 15.1317 96.215 15.4714 96.3755 15.7563C96.5437 16.0339 96.759 16.2494 97.022 16.4028C97.2926 16.5489 97.5808 16.6219 97.8876 16.6219ZM102.367 17.5313V12.9732H101.348V11.9432H102.367V11.483C102.367 11.0886 102.451 10.7526 102.619 10.475C102.787 10.1901 103.014 9.97461 103.299 9.8285C103.591 9.6751 103.919 9.5984 104.285 9.5984C104.482 9.5984 104.65 9.61303 104.789 9.64223C104.935 9.66414 105.055 9.69334 105.15 9.72988V10.8804C105.055 10.8438 104.946 10.8073 104.822 10.7708C104.705 10.727 104.559 10.7051 104.383 10.7051C104.157 10.7051 103.959 10.7818 103.792 10.9352C103.624 11.0813 103.54 11.2967 103.54 11.5816V11.9432H104.942V12.9732H103.54V17.5313H102.367ZM108.363 17.7067C107.786 17.7067 107.278 17.5752 106.84 17.3122C106.402 17.0492 106.059 16.6949 105.81 16.2494C105.562 15.8038 105.438 15.2998 105.438 14.7373C105.438 14.1821 105.562 13.6817 105.81 13.2362C106.059 12.7832 106.402 12.4253 106.84 12.1624C107.278 11.8994 107.786 11.7679 108.363 11.7679C108.933 11.7679 109.437 11.8994 109.875 12.1624C110.313 12.4253 110.657 12.7832 110.905 13.2362C111.154 13.6817 111.278 14.1821 111.278 14.7373C111.278 15.2998 111.154 15.8038 110.905 16.2494C110.657 16.6949 110.313 17.0492 109.875 17.3122C109.437 17.5752 108.933 17.7067 108.363 17.7067ZM108.363 16.6219C108.67 16.6219 108.955 16.5489 109.218 16.4028C109.481 16.2494 109.693 16.0339 109.853 15.7563C110.021 15.4714 110.105 15.1317 110.105 14.7373C110.105 14.3428 110.021 14.0068 109.853 13.7292C109.693 13.4443 109.481 13.2289 109.218 13.0828C108.955 12.9294 108.67 12.8527 108.363 12.8527C108.056 12.8527 107.768 12.9294 107.498 13.0828C107.235 13.2289 107.019 13.4443 106.851 13.7292C106.691 14.0068 106.61 14.3428 106.61 14.7373C106.61 15.1317 106.691 15.4714 106.851 15.7563C107.019 16.0339 107.235 16.2494 107.498 16.4028C107.768 16.5489 108.056 16.6219 108.363 16.6219ZM112.325 17.5313V9.68606H113.509V17.5313H112.325ZM115.583 11.1214C115.364 11.1214 115.174 11.0447 115.014 10.8913C114.86 10.7306 114.783 10.5407 114.783 10.3216C114.783 10.1024 114.86 9.91615 115.014 9.76275C115.174 9.60936 115.364 9.53266 115.583 9.53266C115.802 9.53266 115.989 9.60936 116.142 9.76275C116.303 9.91615 116.383 10.1024 116.383 10.3216C116.383 10.5407 116.303 10.7306 116.142 10.8913C115.989 11.0447 115.802 11.1214 115.583 11.1214ZM114.992 17.5313V11.9432H116.175V17.5313H114.992ZM120.88 11.1214C120.661 11.1214 120.471 11.0447 120.31 10.8913C120.157 10.7306 120.08 10.5407 120.08 10.3216C120.08 10.1024 120.157 9.91615 120.31 9.76275C120.471 9.60936 120.661 9.53266 120.88 9.53266C121.099 9.53266 121.285 9.60936 121.439 9.76275C121.599 9.91615 121.68 10.1024 121.68 10.3216C121.68 10.5407 121.599 10.7306 121.439 10.8913C121.285 11.0447 121.099 11.1214 120.88 11.1214ZM120.288 17.5313V11.9432H121.472V17.5313H120.288ZM129.195 17.7067C128.632 17.7067 128.103 17.6044 127.606 17.3999C127.117 17.1953 126.682 16.9105 126.302 16.5452C125.922 16.1727 125.623 15.738 125.404 15.2413C125.192 14.7373 125.086 14.1931 125.086 13.6087C125.086 13.0243 125.192 12.4838 125.404 11.987C125.623 11.483 125.919 11.0484 126.291 10.6832C126.671 10.3106 127.109 10.0221 127.606 9.81754C128.103 9.61303 128.632 9.51074 129.195 9.51074C129.794 9.51074 130.345 9.61664 130.849 9.8285C131.36 10.0404 131.788 10.3362 132.131 10.716L131.299 11.5378C131.043 11.2529 130.736 11.0338 130.378 10.8804C130.027 10.727 129.633 10.6503 129.195 10.6503C128.676 10.6503 128.198 10.7745 127.759 11.0228C127.321 11.2639 126.967 11.6072 126.697 12.0528C126.434 12.4911 126.302 13.0097 126.302 13.6087C126.302 14.2077 126.437 14.73 126.707 15.1756C126.978 15.6138 127.332 15.9572 127.77 16.2055C128.209 16.4466 128.687 16.5671 129.206 16.5671C129.681 16.5671 130.111 16.4795 130.499 16.3041C130.886 16.1215 131.196 15.8659 131.43 15.5371C131.671 15.2084 131.817 14.814 131.868 14.3538H129.184V13.2909H132.997C133.041 13.4882 133.063 13.6964 133.063 13.9155V13.9265C133.063 14.6862 132.894 15.3509 132.559 15.9206C132.23 16.4831 131.773 16.9214 131.189 17.2355C130.604 17.5496 129.94 17.7067 129.195 17.7067ZM136.591 17.7067C136.013 17.7067 135.506 17.5752 135.068 17.3122C134.629 17.0492 134.286 16.6949 134.038 16.2494C133.789 15.8038 133.665 15.2998 133.665 14.7373C133.665 14.1821 133.789 13.6817 134.038 13.2362C134.286 12.7832 134.629 12.4253 135.068 12.1624C135.506 11.8994 136.013 11.7679 136.591 11.7679C137.161 11.7679 137.665 11.8994 138.103 12.1624C138.541 12.4253 138.884 12.7832 139.133 13.2362C139.381 13.6817 139.505 14.1821 139.505 14.7373C139.505 15.2998 139.381 15.8038 139.133 16.2494C138.884 16.6949 138.541 17.0492 138.103 17.3122C137.665 17.5752 137.161 17.7067 136.591 17.7067ZM136.591 16.6219C136.898 16.6219 137.182 16.5489 137.445 16.4028C137.708 16.2494 137.92 16.0339 138.081 15.7563C138.249 15.4714 138.333 15.1317 138.333 14.7373C138.333 14.3428 138.249 14.0068 138.081 13.7292C137.92 13.4443 137.708 13.2289 137.445 13.0828C137.182 12.9294 136.898 12.8527 136.591 12.8527C136.284 12.8527 135.995 12.9294 135.725 13.0828C135.462 13.2289 135.246 13.4443 135.079 13.7292C134.918 14.0068 134.838 14.3428 134.838 14.7373C134.838 15.1317 134.918 15.4714 135.079 15.7563C135.246 16.0339 135.462 16.2494 135.725 16.4028C135.995 16.5489 136.284 16.6219 136.591 16.6219ZM143.225 17.7067C142.648 17.7067 142.14 17.5752 141.702 17.3122C141.263 17.0492 140.92 16.6949 140.672 16.2494C140.424 15.8038 140.299 15.2998 140.299 14.7373C140.299 14.1821 140.424 13.6817 140.672 13.2362C140.92 12.7832 141.263 12.4253 141.702 12.1624C142.14 11.8994 142.648 11.7679 143.225 11.7679C143.795 11.7679 144.299 11.8994 144.737 12.1624C145.175 12.4253 145.519 12.7832 145.767 13.2362C146.016 13.6817 146.139 14.1821 146.139 14.7373C146.139 15.2998 146.016 15.8038 145.767 16.2494C145.519 16.6949 145.175 17.0492 144.737 17.3122C144.299 17.5752 143.795 17.7067 143.225 17.7067ZM143.225 16.6219C143.532 16.6219 143.816 16.5489 144.079 16.4028C144.342 16.2494 144.554 16.0339 144.715 15.7563C144.883 15.4714 144.967 15.1317 144.967 14.7373C144.967 14.3428 144.883 14.0068 144.715 13.7292C144.554 13.4443 144.342 13.2289 144.079 13.0828C143.816 12.9294 143.532 12.8527 143.225 12.8527C142.918 12.8527 142.63 12.9294 142.359 13.0828C142.096 13.2289 141.881 13.4443 141.713 13.7292C141.552 14.0068 141.472 14.3428 141.472 14.7373C141.472 15.1317 141.552 15.4714 141.713 15.7563C141.881 16.0339 142.096 16.2494 142.359 16.4028C142.63 16.5489 142.918 16.6219 143.225 16.6219ZM149.75 20.0734C149.26 20.0734 148.836 19.993 148.479 19.8323C148.128 19.6789 147.843 19.478 147.624 19.2297C147.405 18.9886 147.248 18.7403 147.153 18.4846L148.249 18.0244C148.365 18.3166 148.552 18.554 148.807 18.7366C149.07 18.9266 149.384 19.0215 149.75 19.0215C150.261 19.0215 150.662 18.8681 150.955 18.5613C151.254 18.2545 151.404 17.8199 151.404 17.2574V16.7205H151.338C151.163 16.9835 150.918 17.1953 150.604 17.356C150.298 17.5094 149.947 17.5861 149.552 17.5861C149.077 17.5861 148.643 17.4656 148.249 17.2245C147.854 16.9835 147.536 16.6475 147.295 16.2165C147.054 15.7782 146.934 15.2669 146.934 14.6825C146.934 14.0908 147.054 13.5795 147.295 13.1485C147.536 12.7102 147.854 12.3705 148.249 12.1295C148.643 11.8884 149.077 11.7679 149.552 11.7679C149.947 11.7679 150.298 11.8483 150.604 12.009C150.918 12.1696 151.163 12.3815 151.338 12.6445H151.404V11.9432H152.533V17.2355C152.533 17.8418 152.412 18.3568 152.171 18.7804C151.937 19.2041 151.612 19.5255 151.196 19.7447C150.78 19.9638 150.298 20.0734 149.75 20.0734ZM149.761 16.5123C150.053 16.5123 150.323 16.4429 150.572 16.3041C150.82 16.158 151.021 15.9498 151.174 15.6796C151.328 15.402 151.404 15.0697 151.404 14.6825C151.404 14.2807 151.328 13.9447 151.174 13.6744C151.021 13.3968 150.82 13.1887 150.572 13.0499C150.323 12.9111 150.053 12.8417 149.761 12.8417C149.468 12.8417 149.194 12.9147 148.939 13.0608C148.69 13.1996 148.49 13.4042 148.336 13.6744C148.183 13.9447 148.106 14.2807 148.106 14.6825C148.106 15.0769 148.183 15.4129 148.336 15.6905C148.49 15.9608 148.69 16.1654 148.939 16.3041C149.194 16.4429 149.468 16.5123 149.761 16.5123ZM153.928 17.5313V9.68606H155.112V17.5313H153.928ZM159.006 17.7067C158.458 17.7067 157.969 17.5788 157.538 17.3232C157.107 17.0675 156.767 16.7168 156.519 16.2713C156.278 15.8257 156.157 15.318 156.157 14.7482C156.157 14.215 156.274 13.7219 156.508 13.269C156.741 12.8161 157.067 12.4545 157.483 12.1843C157.907 11.9067 158.393 11.7679 158.941 11.7679C159.517 11.7679 160.007 11.8921 160.409 12.1404C160.817 12.3888 161.128 12.7285 161.34 13.1595C161.552 13.5905 161.658 14.0762 161.658 14.6167C161.658 14.6971 161.654 14.7701 161.647 14.8359C161.647 14.9016 161.643 14.9527 161.636 14.9893H157.319C157.377 15.5444 157.571 15.9608 157.9 16.2384C158.235 16.516 158.615 16.6548 159.039 16.6548C159.419 16.6548 159.733 16.5708 159.981 16.4028C160.23 16.2274 160.427 16.012 160.573 15.7563L161.548 16.2274C161.307 16.6657 160.979 17.0236 160.562 17.3012C160.146 17.5715 159.627 17.7067 159.006 17.7067ZM158.951 12.776C158.557 12.776 158.221 12.8965 157.943 13.1375C157.666 13.3786 157.479 13.7 157.385 14.1018H160.485C160.471 13.9118 160.409 13.7146 160.299 13.5101C160.19 13.3056 160.021 13.1339 159.795 12.9951C159.576 12.849 159.294 12.776 158.951 12.776Z" fill="white"/>
<path d="M159.973 0.274414H13.6959C6.28287 0.274414 0.273438 6.28385 0.273438 13.6969C0.273438 21.1099 6.28287 27.1193 13.6959 27.1193H159.973C167.386 27.1193 173.396 21.1099 173.396 13.6969C173.396 6.28385 167.386 0.274414 159.973 0.274414Z" stroke="#747775"/>
</g>
<defs>
<linearGradient id="paint0_linear_568_897" x1="18.9385" y1="16.8664" x2="10.2608" y2="26.7973" gradientUnits="userSpaceOnUse">
<stop stop-color="#4285F4"/>
<stop offset="1" stop-color="#1B74E8"/>
</linearGradient>
<clipPath id="clip0_568_897">
<rect width="173.67" height="27.3927" fill="white"/>
</clipPath>
</defs>
</svg>
