<svg width="174" height="30" viewBox="0 0 174 30" fill="none" xmlns="http://www.w3.org/2000/svg">
<g clip-path="url(#clip0_568_951)">
<path d="M158.904 0.294922H14.7694C6.77643 0.294922 0.296875 6.77448 0.296875 14.7674C0.296875 22.7604 6.77643 29.2399 14.7694 29.2399H158.904C166.897 29.2399 173.376 22.7604 173.376 14.7674C173.376 6.77448 166.897 0.294922 158.904 0.294922Z" fill="#1F1F1F"/>
<path d="M30.1277 12.996H12.4062V10.0424C12.4062 8.43906 13.7069 7.08887 15.2514 7.08887H27.2825C28.827 7.08887 30.1277 8.43906 30.1277 10.0424V12.996Z" fill="#34A853"/>
<path d="M30.1277 15.3905H12.4062V12.437C12.4062 10.8336 13.7069 9.4834 15.2514 9.4834H27.2825C28.827 9.4834 30.1277 10.8336 30.1277 12.437V15.3905Z" fill="#FBBC04"/>
<path d="M30.1277 17.8671H12.4062V14.9135C12.4062 13.3102 13.7069 11.96 15.2514 11.96H27.2825C28.827 11.96 30.1277 13.3102 30.1277 14.9135V17.8671Z" fill="#EA4335"/>
<path d="M12.4062 13.7495L23.6541 16.3508C24.9488 16.676 26.4054 16.3508 27.4574 15.5379L30.1277 13.5869V19.6837C30.1277 21.2283 28.833 22.4476 27.2955 22.4476H15.2384C13.701 22.4476 12.4062 21.2283 12.4062 19.6837V13.7495Z" fill="url(#paint0_linear_568_951)"/>
<path d="M39.4365 19.0448C39.0348 19.0448 38.7119 18.9227 38.4677 18.6786C38.2314 18.4344 38.1133 18.1115 38.1133 17.7098V12.5233H39.3538V16.5874C39.4168 16.5717 39.4837 16.5638 39.5546 16.5638C39.9091 16.5638 40.2005 16.682 40.4289 16.9182C40.6573 17.1467 40.7715 17.4381 40.7715 17.7925C40.7715 18.1627 40.6455 18.4659 40.3934 18.7022C40.1414 18.9306 39.8224 19.0448 39.4365 19.0448ZM39.4483 18.2769C39.5979 18.2769 39.7161 18.2336 39.8027 18.1469C39.8972 18.0524 39.9445 17.9343 39.9445 17.7925C39.9445 17.6429 39.8972 17.5247 39.8027 17.4381C39.7161 17.3436 39.5979 17.2963 39.4483 17.2963C39.3065 17.2963 39.1884 17.3436 39.0939 17.4381C39.0072 17.5247 38.9639 17.6429 38.9639 17.7925C38.9639 17.9343 39.0072 18.0524 39.0939 18.1469C39.1884 18.2336 39.3065 18.2769 39.4483 18.2769ZM42.3284 18.903V14.8626C42.2733 14.8704 42.2142 14.8744 42.1512 14.8744C41.7889 14.8744 41.4896 14.7602 41.2533 14.5318C41.017 14.2955 40.8989 14.0001 40.8989 13.6457C40.8989 13.2834 41.021 12.9841 41.2651 12.7478C41.5172 12.5115 41.8361 12.3934 42.2221 12.3934C42.6159 12.3934 42.9309 12.5155 43.1672 12.7596C43.4114 12.9959 43.5334 13.3149 43.5334 13.7166V15.6777L43.498 16.9419L43.8406 15.9967L44.8803 13.433H45.5301L46.5697 15.9967L46.9005 16.9064L46.8769 15.6777V12.5233H48.0819V18.903H46.7706L45.4828 15.7486L45.2111 15.0043L44.9393 15.7486L43.6516 18.903H42.3284ZM42.1984 14.1419C42.3402 14.1419 42.4544 14.0986 42.541 14.0119C42.6356 13.9174 42.6828 13.7953 42.6828 13.6457C42.6828 13.5039 42.6356 13.3897 42.541 13.3031C42.4544 13.2086 42.3402 13.1613 42.1984 13.1613C42.0567 13.1613 41.9385 13.2086 41.844 13.3031C41.7574 13.3897 41.714 13.5039 41.714 13.6457C41.714 13.7953 41.7574 13.9174 41.844 14.0119C41.9385 14.0986 42.0567 14.1419 42.1984 14.1419ZM42.6536 11.72V11.6373C42.7639 11.0071 43.0671 10.507 43.5633 10.1368C44.0516 9.75878 44.6502 9.56975 45.359 9.56975C46.0758 9.56975 46.6822 9.75878 47.1784 10.1368C47.6668 10.507 47.966 11.0071 48.0763 11.6373V11.72H42.6536ZM43.9531 11.0347H46.7768C46.698 10.8142 46.5326 10.637 46.2806 10.5031C46.0206 10.3692 45.7135 10.3022 45.359 10.3022C45.0125 10.3022 44.7132 10.3692 44.4612 10.5031C44.2012 10.637 44.0319 10.8142 43.9531 11.0347ZM46.9064 8.73094L46.7883 6.98242H48.0051L47.887 8.73094H46.9064ZM50.8054 19.033C50.4037 19.033 50.0729 18.907 49.813 18.6549C49.5531 18.4029 49.4232 18.076 49.4232 17.6744C49.4232 17.2805 49.5492 16.9576 49.8012 16.7056C50.0611 16.4535 50.388 16.3275 50.7818 16.3275C50.8054 16.3275 50.8251 16.3275 50.8409 16.3275V14.8626C50.7778 14.8704 50.7149 14.8744 50.6518 14.8744C50.2896 14.8744 49.9902 14.7602 49.754 14.5318C49.5177 14.2955 49.3995 14.0001 49.3995 13.6457C49.3995 13.2834 49.5255 12.9841 49.7776 12.7478C50.0296 12.5115 50.3486 12.3934 50.7345 12.3934C51.1362 12.3934 51.4552 12.5155 51.6915 12.7596C51.9278 13.0038 52.0459 13.3267 52.0459 13.7284V16.5402L54.1016 17.7216V12.5233H55.3421V18.903H54.1961L52.1877 17.7452C52.1719 18.1233 52.0341 18.4344 51.7742 18.6786C51.5221 18.9149 51.1993 19.033 50.8054 19.033ZM50.7109 14.1419C50.8527 14.1419 50.9669 14.0986 51.0535 14.0119C51.148 13.9174 51.1953 13.7953 51.1953 13.6457C51.1953 13.5039 51.148 13.3897 51.0535 13.3031C50.9669 13.2086 50.8527 13.1613 50.7109 13.1613C50.5691 13.1613 50.451 13.2086 50.3565 13.3031C50.2698 13.3897 50.2265 13.5039 50.2265 13.6457C50.2265 13.7953 50.2698 13.9174 50.3565 14.0119C50.451 14.0986 50.5691 14.1419 50.7109 14.1419ZM50.8054 18.2296C50.9551 18.2296 51.0811 18.1784 51.1835 18.076C51.2859 17.9737 51.3371 17.8398 51.3371 17.6744C51.3371 17.509 51.2859 17.375 51.1835 17.2727C51.0811 17.1703 50.9551 17.1191 50.8054 17.1191C50.6479 17.1191 50.5179 17.1703 50.4156 17.2727C50.321 17.375 50.2738 17.509 50.2738 17.6744C50.2738 17.8398 50.321 17.9737 50.4156 18.076C50.5179 18.1784 50.6479 18.2296 50.8054 18.2296ZM58.901 19.0448C58.4993 19.0448 58.1764 18.9227 57.9322 18.6786C57.688 18.4344 57.566 18.1115 57.566 17.7098V13.0432C57.566 12.7124 57.6171 12.4091 57.7196 12.1335C57.8298 11.8499 57.9637 11.586 58.1212 11.3419C58.2787 11.0978 58.4363 10.8654 58.5938 10.6449C58.7513 10.4243 58.8813 10.2156 58.9837 10.0187C59.0937 9.81389 59.1492 9.61305 59.1492 9.41616C59.1492 9.24291 59.1055 9.10899 59.0191 9.01448C58.9403 8.91997 58.8419 8.86875 58.7238 8.86089L57.566 10.3495H56.7272L55.4867 8.03389V7.91575H56.6326L57.2706 9.25076L58.2512 7.91575H58.6883C59.1847 7.91575 59.5627 8.06148 59.8226 8.35288C60.0902 8.63642 60.2243 8.99085 60.2243 9.41616C60.2243 9.76274 60.1534 10.0817 60.0117 10.3731C59.8699 10.6567 59.7045 10.9362 59.5155 11.2119C59.3264 11.4876 59.161 11.7751 59.0191 12.0744C58.8774 12.3658 58.8065 12.6927 58.8065 13.055V16.5874C58.8774 16.5717 58.9482 16.5638 59.0191 16.5638C59.3737 16.5638 59.6608 16.682 59.8817 16.9182C60.1097 17.1467 60.2243 17.4381 60.2243 17.7925C60.2243 18.1627 60.0979 18.4659 59.8463 18.7022C59.6017 18.9306 59.2868 19.0448 58.901 19.0448ZM58.9128 18.2769C59.0546 18.2769 59.1728 18.2336 59.2674 18.1469C59.3619 18.0524 59.4091 17.9343 59.4091 17.7925C59.4091 17.6429 59.3619 17.5247 59.2674 17.4381C59.1728 17.3436 59.0546 17.2963 58.9128 17.2963C58.771 17.2963 58.6529 17.3436 58.5584 17.4381C58.4717 17.5247 58.4284 17.6429 58.4284 17.7925C58.4284 17.9343 58.4717 18.0524 58.5584 18.1469C58.6529 18.2336 58.771 18.2769 58.9128 18.2769ZM61.7915 18.903V14.8626C61.7365 14.8704 61.6816 14.8744 61.6261 14.8744C61.264 14.8744 60.9645 14.7602 60.7282 14.5318C60.4919 14.2955 60.3738 14.0001 60.3738 13.6457C60.3738 13.2834 60.5002 12.9841 60.7518 12.7478C61.0041 12.5115 61.323 12.3934 61.7088 12.3934C62.1105 12.3934 62.4294 12.5155 62.6657 12.7596C62.902 13.0038 63.0202 13.3267 63.0202 13.7284V17.8634H65.6311V10.3968H66.8716V18.903H61.7915ZM61.6851 14.1419C61.8269 14.1419 61.9415 14.0986 62.0278 14.0119C62.1223 13.9174 62.1695 13.7953 62.1695 13.6457C62.1695 13.5039 62.1223 13.3897 62.0278 13.3031C61.9415 13.2086 61.8269 13.1613 61.6851 13.1613C61.5434 13.1613 61.4252 13.2086 61.3307 13.3031C61.2445 13.3897 61.2008 13.5039 61.2008 13.6457C61.2008 13.7953 61.2445 13.9174 61.3307 14.0119C61.4252 14.0986 61.5434 14.1419 61.6851 14.1419ZM68.655 18.903V17.0836C68.655 16.4851 68.8989 16.107 69.3875 15.9495V15.9022C69.0567 15.7919 68.7849 15.5636 68.5723 15.217C68.3596 14.8704 68.2533 14.4885 68.2533 14.071C68.2533 13.5748 68.3986 13.1731 68.6904 12.8659C68.9893 12.5588 69.3715 12.4052 69.8364 12.4052C70.2381 12.4052 70.5606 12.5194 70.8052 12.7478C71.0568 12.9762 71.1832 13.2676 71.1832 13.6221C71.1832 13.9607 71.0769 14.2404 70.8643 14.4609C70.6516 14.6735 70.3716 14.7799 70.0254 14.7799C69.8128 14.7799 69.6314 14.7286 69.482 14.6263C69.5529 14.8783 69.6746 15.0594 69.8482 15.1697C70.029 15.2721 70.2854 15.3233 70.6162 15.3233H71.4904V16.233H70.8052C70.1908 16.233 69.8837 16.5362 69.8837 17.1427V17.8634H72.66V12.5233H73.9005V18.903H68.655ZM69.8719 14.1183C70.0136 14.1183 70.1276 14.075 70.2145 13.9883C70.309 13.8938 70.3562 13.7717 70.3562 13.6221C70.3562 13.4803 70.309 13.3661 70.2145 13.2794C70.1276 13.1849 70.0136 13.1377 69.8719 13.1377C69.7301 13.1377 69.6119 13.1849 69.5174 13.2794C69.4306 13.3661 69.3875 13.4803 69.3875 13.6221C69.3875 13.7717 69.4306 13.8938 69.5174 13.9883C69.6119 14.075 69.7301 14.1183 69.8719 14.1183ZM72.8219 11.8027C72.1839 11.8027 71.6718 11.6767 71.286 11.4246C70.9003 11.1725 70.7071 10.8339 70.7071 10.4086C70.7071 10.0935 70.8093 9.83752 71.0143 9.64064C71.2193 9.44375 71.4827 9.34528 71.8059 9.34528C72.1207 9.34528 72.3806 9.43979 72.5856 9.62882C72.7906 9.80999 72.8928 10.0423 72.8928 10.3259C72.8928 10.5858 72.8059 10.7906 72.6329 10.9402C72.6878 10.9481 72.7469 10.952 72.8101 10.952C73.6371 10.952 74.2083 10.4873 74.5231 9.55794L75.551 9.97144C75.346 10.5622 75.0117 11.0151 74.5468 11.3301C74.0819 11.6451 73.5071 11.8027 72.8219 11.8027ZM71.8059 10.7866C71.9163 10.7866 72.0108 10.7472 72.0894 10.6685C72.168 10.5897 72.2075 10.4913 72.2075 10.3731C72.2075 10.255 72.168 10.1605 72.0894 10.0896C72.0108 10.0108 71.9163 9.97144 71.8059 9.97144C71.6877 9.97144 71.5891 10.0108 71.5105 10.0896C71.4319 10.1605 71.3924 10.255 71.3924 10.3731C71.3924 10.4913 71.4319 10.5897 71.5105 10.6685C71.5891 10.7472 71.6877 10.7866 71.8059 10.7866ZM76.733 18.903L74.89 14.7917L76.0478 14.3427L77.56 17.8634H78.576V14.8626C78.5205 14.8704 78.4656 14.8744 78.4106 14.8744C78.0403 14.8744 77.7372 14.7602 77.5009 14.5318C77.2646 14.2955 77.1465 14.0001 77.1465 13.6457C77.1465 13.2834 77.2723 12.9841 77.5246 12.7478C77.7762 12.5115 78.0952 12.3934 78.4815 12.3934C78.8832 12.3934 79.2022 12.5155 79.4385 12.7596C79.6748 12.9959 79.7929 13.3149 79.7929 13.7166V18.903H76.733ZM78.4579 14.1419C78.5997 14.1419 78.7137 14.0986 78.8005 14.0119C78.895 13.9174 78.9423 13.7953 78.9423 13.6457C78.9423 13.5039 78.895 13.3897 78.8005 13.3031C78.7137 13.2086 78.5997 13.1613 78.4579 13.1613C78.3161 13.1613 78.198 13.2086 78.1035 13.3031C78.0166 13.3897 77.9735 13.5039 77.9735 13.6457C77.9735 13.7953 78.0166 13.9174 78.1035 14.0119C78.198 14.0986 78.3161 14.1419 78.4579 14.1419Z" fill="white"/>
<path d="M88.8444 19.092C88.2378 19.092 87.6671 18.9817 87.1314 18.7612C86.6038 18.5407 86.1348 18.2335 85.7254 17.8397C85.3161 17.438 84.993 16.9694 84.7567 16.4338C84.5281 15.8903 84.4141 15.3035 84.4141 14.6734C84.4141 14.0433 84.5281 13.4605 84.7567 12.9249C84.993 12.3815 85.312 11.9128 85.7136 11.519C86.123 11.1173 86.5956 10.8062 87.1314 10.5857C87.6671 10.3652 88.2378 10.2549 88.8444 10.2549C89.4901 10.2549 90.0849 10.3691 90.6284 10.5975C91.1795 10.8259 91.6403 11.1449 92.0106 11.5545L91.1128 12.4405C90.8369 12.1334 90.5061 11.8971 90.1204 11.7317C89.7423 11.5663 89.317 11.4836 88.8444 11.4836C88.285 11.4836 87.7693 11.6175 87.2968 11.8853C86.8242 12.1452 86.442 12.5154 86.1508 12.9958C85.8672 13.4684 85.7254 14.0276 85.7254 14.6734C85.7254 15.3193 85.8714 15.8824 86.1626 16.3629C86.4538 16.8354 86.836 17.2056 87.3086 17.4734C87.7811 17.7333 88.2968 17.8633 88.8562 17.8633C89.3684 17.8633 89.8327 17.7688 90.2503 17.5797C90.668 17.3829 91.0023 17.1072 91.2545 16.7527C91.5144 16.3983 91.6722 15.973 91.7271 15.4768H88.8326V14.3308H92.944C92.9912 14.5435 93.0149 14.7679 93.0149 15.0042V15.016C93.0149 15.8352 92.8335 16.5519 92.4714 17.1662C92.117 17.7727 91.6249 18.2453 90.9946 18.584C90.3643 18.9226 89.6478 19.092 88.8444 19.092ZM96.8191 19.092C96.197 19.092 95.6494 18.9502 95.1769 18.6667C94.7043 18.3831 94.3339 18.0011 94.0663 17.5207C93.7987 17.0402 93.6647 16.4968 93.6647 15.8903C93.6647 15.2917 93.7987 14.7522 94.0663 14.2717C94.3339 13.7834 94.7043 13.3975 95.1769 13.1139C95.6494 12.8304 96.197 12.6886 96.8191 12.6886C97.4334 12.6886 97.9769 12.8304 98.4494 13.1139C98.922 13.3975 99.2924 13.7834 99.56 14.2717C99.8276 14.7522 99.9617 15.2917 99.9617 15.8903C99.9617 16.4968 99.8276 17.0402 99.56 17.5207C99.2924 18.0011 98.922 18.3831 98.4494 18.6667C97.9769 18.9502 97.4334 19.092 96.8191 19.092ZM96.8191 17.9224C97.1499 17.9224 97.457 17.8436 97.7406 17.6861C98.0241 17.5207 98.2527 17.2883 98.4258 16.989C98.6072 16.6819 98.6975 16.3156 98.6975 15.8903C98.6975 15.465 98.6072 15.1027 98.4258 14.8034C98.2527 14.4962 98.0241 14.2639 97.7406 14.1063C97.457 13.9409 97.1499 13.8582 96.8191 13.8582C96.4883 13.8582 96.177 13.9409 95.8857 14.1063C95.6022 14.2639 95.37 14.4962 95.1887 14.8034C95.0156 15.1027 94.9288 15.465 94.9288 15.8903C94.9288 16.3156 95.0156 16.6819 95.1887 16.989C95.37 17.2883 95.6022 17.5207 95.8857 17.6861C96.177 17.8436 96.4883 17.9224 96.8191 17.9224ZM103.972 19.092C103.35 19.092 102.802 18.9502 102.33 18.6667C101.857 18.3831 101.487 18.0011 101.219 17.5207C100.952 17.0402 100.818 16.4968 100.818 15.8903C100.818 15.2917 100.952 14.7522 101.219 14.2717C101.487 13.7834 101.857 13.3975 102.33 13.1139C102.802 12.8304 103.35 12.6886 103.972 12.6886C104.586 12.6886 105.13 12.8304 105.602 13.1139C106.075 13.3975 106.445 13.7834 106.713 14.2717C106.981 14.7522 107.115 15.2917 107.115 15.8903C107.115 16.4968 106.981 17.0402 106.713 17.5207C106.445 18.0011 106.075 18.3831 105.602 18.6667C105.13 18.9502 104.586 19.092 103.972 19.092ZM103.972 17.9224C104.303 17.9224 104.61 17.8436 104.894 17.6861C105.177 17.5207 105.406 17.2883 105.579 16.989C105.76 16.6819 105.85 16.3156 105.85 15.8903C105.85 15.465 105.76 15.1027 105.579 14.8034C105.406 14.4962 105.177 14.2639 104.894 14.1063C104.61 13.9409 104.303 13.8582 103.972 13.8582C103.641 13.8582 103.331 13.9409 103.039 14.1063C102.755 14.2639 102.523 14.4962 102.342 14.8034C102.169 15.1027 102.082 15.465 102.082 15.8903C102.082 16.3156 102.169 16.6819 102.342 16.989C102.523 17.2883 102.755 17.5207 103.039 17.6861C103.331 17.8436 103.641 17.9224 103.972 17.9224ZM111.007 21.6439C110.479 21.6439 110.023 21.5572 109.637 21.3839C109.259 21.2185 108.952 21.0019 108.715 20.7342C108.479 20.4742 108.31 20.2065 108.207 19.9308L109.389 19.4346C109.515 19.7496 109.716 20.0056 109.991 20.2025C110.275 20.4073 110.613 20.5097 111.007 20.5097C111.559 20.5097 111.992 20.3443 112.307 20.0135C112.63 19.6827 112.791 19.2141 112.791 18.6076V18.0287H112.721C112.531 18.3122 112.267 18.5407 111.929 18.7139C111.598 18.8793 111.22 18.962 110.795 18.962C110.283 18.962 109.814 18.8321 109.389 18.5721C108.964 18.3122 108.621 17.9499 108.361 17.4852C108.101 17.0127 107.971 16.4613 107.971 15.8312C107.971 15.1933 108.101 14.6419 108.361 14.1772C108.621 13.7047 108.964 13.3384 109.389 13.0785C109.814 12.8186 110.283 12.6886 110.795 12.6886C111.22 12.6886 111.598 12.7753 111.929 12.9485C112.267 13.1218 112.531 13.3502 112.721 13.6338H112.791V12.8777H114.008V18.584C114.008 19.2377 113.878 19.793 113.618 20.2498C113.366 20.7066 113.016 21.0531 112.567 21.2894C112.118 21.5257 111.598 21.6439 111.007 21.6439ZM111.019 17.8042C111.334 17.8042 111.625 17.7294 111.894 17.5797C112.161 17.4222 112.378 17.1977 112.543 16.9063C112.709 16.607 112.791 16.2487 112.791 15.8312C112.791 15.3981 112.709 15.0357 112.543 14.7443C112.378 14.445 112.161 14.2205 111.894 14.0709C111.625 13.9213 111.334 13.8464 111.019 13.8464C110.704 13.8464 110.408 13.9252 110.133 14.0827C109.865 14.2323 109.649 14.4529 109.483 14.7443C109.318 15.0357 109.235 15.3981 109.235 15.8312C109.235 16.2565 109.318 16.6188 109.483 16.9181C109.649 17.2095 109.865 17.4301 110.133 17.5797C110.408 17.7294 110.704 17.8042 111.019 17.8042ZM115.513 18.9029V10.4439H116.789V18.9029H115.513ZM120.988 19.092C120.397 19.092 119.869 18.9542 119.405 18.6785C118.94 18.4028 118.574 18.0247 118.306 17.5443C118.046 17.0639 117.916 16.5165 117.916 15.9021C117.916 15.3272 118.042 14.7955 118.294 14.3072C118.546 13.8188 118.897 13.429 119.346 13.1376C119.803 12.8383 120.327 12.6886 120.917 12.6886C121.539 12.6886 122.067 12.8225 122.5 13.0903C122.941 13.3581 123.276 13.7243 123.505 14.189C123.733 14.6538 123.847 15.1775 123.847 15.7603C123.847 15.847 123.843 15.9257 123.835 15.9966C123.835 16.0675 123.831 16.1226 123.824 16.162H119.169C119.231 16.7606 119.44 17.2095 119.795 17.5089C120.157 17.8082 120.566 17.9578 121.024 17.9578C121.433 17.9578 121.771 17.8672 122.04 17.6861C122.307 17.497 122.52 17.2647 122.678 16.989L123.729 17.497C123.469 17.9696 123.115 18.3555 122.666 18.6548C122.217 18.9462 121.657 19.092 120.988 19.092ZM120.929 13.7755C120.504 13.7755 120.141 13.9055 119.842 14.1654C119.543 14.4253 119.342 14.7719 119.24 15.2051H122.583C122.567 15.0003 122.5 14.7876 122.382 14.5671C122.264 14.3466 122.083 14.1615 121.839 14.0118C121.602 13.8543 121.299 13.7755 120.929 13.7755ZM129.04 18.9029L126.772 10.4439H128.213L129.56 15.9376L129.702 16.67H129.773L129.95 15.9376L131.651 10.4439H132.951L134.581 15.9376L134.758 16.6582H134.829L134.971 15.9376L136.318 10.4439H137.747L135.514 18.9029H134.144L132.525 13.2912L132.336 12.4996H132.265L132.065 13.2912L130.375 18.9029H129.04ZM140.12 19.092C139.687 19.092 139.301 19.0093 138.962 18.8439C138.623 18.6706 138.359 18.4304 138.17 18.1232C137.981 17.816 137.887 17.4656 137.887 17.0717C137.887 16.6464 137.997 16.2841 138.218 15.9848C138.446 15.6776 138.749 15.4453 139.127 15.2878C139.505 15.1302 139.923 15.0515 140.38 15.0515C140.758 15.0515 141.088 15.0869 141.372 15.1578C141.664 15.2287 141.884 15.3035 142.034 15.3823V15.0633C142.034 14.6695 141.892 14.3544 141.608 14.1182C141.325 13.8819 140.958 13.7637 140.509 13.7637C140.202 13.7637 139.911 13.8346 139.635 13.9764C139.36 14.1103 139.139 14.2954 138.974 14.5317L138.099 13.8582C138.359 13.496 138.702 13.2124 139.127 13.0076C139.561 12.795 140.033 12.6886 140.545 12.6886C141.419 12.6886 142.093 12.9052 142.565 13.3384C143.038 13.7637 143.274 14.3623 143.274 15.1342V18.9029H142.034V18.1586H141.963C141.806 18.4028 141.569 18.6194 141.254 18.8084C140.939 18.9975 140.561 19.092 140.12 19.092ZM140.344 18.0523C140.675 18.0523 140.967 17.9736 141.218 17.816C141.471 17.6585 141.667 17.4537 141.809 17.2017C141.959 16.9418 142.034 16.6622 142.034 16.3629C141.853 16.2605 141.64 16.1778 141.396 16.1148C141.152 16.0439 140.892 16.0084 140.616 16.0084C140.096 16.0084 139.726 16.1148 139.505 16.3274C139.285 16.5322 139.174 16.7842 139.174 17.0835C139.174 17.3671 139.281 17.5994 139.493 17.7806C139.706 17.9618 139.99 18.0523 140.344 18.0523ZM144.691 18.9029V10.4439H145.967V18.9029H144.691ZM147.483 18.9029V10.4439H148.759V18.9029H147.483ZM152.958 19.092C152.367 19.092 151.839 18.9542 151.375 18.6785C150.91 18.4028 150.544 18.0247 150.276 17.5443C150.016 17.0639 149.886 16.5165 149.886 15.9021C149.886 15.3272 150.012 14.7955 150.265 14.3072C150.516 13.8188 150.867 13.429 151.316 13.1376C151.773 12.8383 152.297 12.6886 152.887 12.6886C153.509 12.6886 154.037 12.8225 154.47 13.0903C154.911 13.3581 155.246 13.7243 155.475 14.189C155.703 14.6538 155.817 15.1775 155.817 15.7603C155.817 15.847 155.813 15.9257 155.805 15.9966C155.805 16.0675 155.801 16.1226 155.794 16.162H151.139C151.201 16.7606 151.411 17.2095 151.765 17.5089C152.127 17.8082 152.536 17.9578 152.994 17.9578C153.403 17.9578 153.741 17.8672 154.01 17.6861C154.277 17.497 154.49 17.2647 154.648 16.989L155.699 17.497C155.439 17.9696 155.085 18.3555 154.636 18.6548C154.187 18.9462 153.627 19.092 152.958 19.092ZM152.899 13.7755C152.474 13.7755 152.111 13.9055 151.812 14.1654C151.513 14.4253 151.312 14.7719 151.21 15.2051H154.553C154.537 15.0003 154.47 14.7876 154.352 14.5671C154.234 14.3466 154.053 14.1615 153.809 14.0118C153.573 13.8543 153.269 13.7755 152.899 13.7755ZM157.466 17.1544V13.9882H156.414V12.8777H157.466V11.1764H158.742V12.8777H160.219V13.9882H158.742V16.8827C158.742 17.182 158.801 17.4104 158.919 17.5679C159.045 17.7255 159.253 17.8042 159.545 17.8042C159.695 17.8042 159.821 17.7845 159.923 17.7451C160.033 17.7057 160.144 17.6506 160.254 17.5797V18.8202C160.12 18.8754 159.978 18.9187 159.829 18.9502C159.679 18.9817 159.502 18.9975 159.297 18.9975C158.738 18.9975 158.293 18.836 157.962 18.5131C157.631 18.1823 157.466 17.7294 157.466 17.1544Z" fill="white"/>
<path d="M158.904 0.294922H14.7694C6.77643 0.294922 0.296875 6.77448 0.296875 14.7674C0.296875 22.7604 6.77643 29.2399 14.7694 29.2399H158.904C166.897 29.2399 173.376 22.7604 173.376 14.7674C173.376 6.77448 166.897 0.294922 158.904 0.294922Z" stroke="#747775"/>
</g>
<defs>
<linearGradient id="paint0_linear_568_951" x1="20.4224" y1="18.1865" x2="11.0659" y2="28.8943" gradientUnits="userSpaceOnUse">
<stop stop-color="#4285F4"/>
<stop offset="1" stop-color="#1B74E8"/>
</linearGradient>
<clipPath id="clip0_568_951">
<rect width="173.67" height="29.5357" fill="white"/>
</clipPath>
</defs>
</svg>
