<svg width="174" height="26" viewBox="0 0 174 26" fill="none" xmlns="http://www.w3.org/2000/svg">
<g clip-path="url(#clip0_568_195)">
<path d="M161.158 0.25H12.512C5.73989 0.25 0.25 5.73989 0.25 12.512C0.25 19.2841 5.73989 24.774 12.512 24.774H161.158C167.93 24.774 173.419 19.2841 173.419 12.512C173.419 5.73989 167.93 0.25 161.158 0.25Z" fill="#1F1F1F"/>
<path d="M25.5264 11.0108H10.5117V8.50831C10.5117 7.14983 11.6137 6.00586 12.9223 6.00586H23.1158C24.4244 6.00586 25.5264 7.14983 25.5264 8.50831V11.0108Z" fill="#34A853"/>
<path d="M25.5264 13.0401H10.5117V10.5376C10.5117 9.17913 11.6137 8.03516 12.9223 8.03516H23.1158C24.4244 8.03516 25.5264 9.17913 25.5264 10.5376V13.0401Z" fill="#FBBC04"/>
<path d="M25.5264 15.1387H10.5117V12.6362C10.5117 11.2778 11.6137 10.1338 12.9223 10.1338H23.1158C24.4244 10.1338 25.5264 11.2778 25.5264 12.6362V15.1387Z" fill="#EA4335"/>
<path d="M10.5117 11.6495L20.0416 13.8535C21.1386 14.129 22.3726 13.8535 23.264 13.1647L25.5264 11.5117V16.6773C25.5264 17.986 24.4294 19.0191 23.1268 19.0191H12.9113C11.6087 19.0191 10.5117 17.986 10.5117 16.6773V11.6495Z" fill="url(#paint0_linear_568_195)"/>
<path d="M32.3398 16.0156V8.84863H34.8023C35.236 8.84863 35.6297 8.94207 35.9834 9.12891C36.3371 9.31574 36.6174 9.57269 36.8242 9.89966C37.0378 10.2266 37.1445 10.607 37.1445 11.0408C37.1445 11.4746 37.0378 11.8582 36.8242 12.1919C36.6174 12.5189 36.3371 12.7758 35.9834 12.9627C35.6297 13.1428 35.236 13.2329 34.8023 13.2329H33.4409V16.0156H32.3398ZM34.8323 9.88965H33.4409V12.1919H34.8323C35.0925 12.1919 35.3128 12.1385 35.4929 12.0317C35.6731 11.9183 35.8099 11.7748 35.9033 11.6013C36.0034 11.4212 36.0535 11.2343 36.0535 11.0408C36.0535 10.8472 36.0034 10.6638 35.9033 10.4902C35.8099 10.3167 35.6731 10.1733 35.4929 10.0598C35.3128 9.94636 35.0925 9.88965 34.8323 9.88965ZM38.0932 16.0156V10.9107H39.1142V11.6614H39.1743C39.2877 11.4011 39.4812 11.1876 39.7549 11.0208C40.0351 10.8472 40.3354 10.7605 40.6557 10.7605C40.7959 10.7605 40.9126 10.7705 41.0061 10.7905C41.1062 10.8106 41.1963 10.8339 41.2763 10.8606V11.9817C41.1495 11.9283 41.0194 11.885 40.886 11.8516C40.7591 11.8182 40.6257 11.8015 40.4856 11.8015C40.232 11.8015 40.0051 11.8716 39.8049 12.0117C39.6114 12.1452 39.4579 12.3287 39.3444 12.5623C39.231 12.7891 39.1743 13.0394 39.1743 13.313V16.0156H38.0932ZM39.1743 9.92969L38.1032 8.71851V8.64844H39.1342L39.5947 9.26904H39.6948L40.1653 8.64844H41.2063V8.71851L40.1252 9.92969H39.1743ZM42.7314 10.1599C42.5312 10.1599 42.3577 10.0898 42.2109 9.94971C42.0708 9.80292 42.0007 9.6294 42.0007 9.4292C42.0007 9.22901 42.0708 9.05884 42.2109 8.9187C42.3577 8.77856 42.5312 8.7085 42.7314 8.7085C42.9316 8.7085 43.1018 8.77856 43.2419 8.9187C43.3887 9.05884 43.4621 9.22901 43.4621 9.4292C43.4621 9.6294 43.3887 9.80292 43.2419 9.94971C43.1018 10.0898 42.9316 10.1599 42.7314 10.1599ZM42.1909 16.0156V10.9107H43.2719V16.0156H42.1909ZM46.7465 16.1758C46.2861 16.1758 45.869 16.0623 45.4953 15.8355C45.1283 15.6019 44.8347 15.2816 44.6145 14.8745C44.4009 14.4608 44.2941 13.9903 44.2941 13.4632C44.2941 12.936 44.4009 12.4688 44.6145 12.0618C44.8347 11.6547 45.1283 11.3344 45.4953 11.1008C45.869 10.8673 46.2861 10.7505 46.7465 10.7505C47.1402 10.7505 47.4773 10.8372 47.7575 11.0107C48.0445 11.1843 48.2547 11.3811 48.3882 11.6013H48.4482L48.3882 10.8906V8.84863H49.4592V16.0156H48.4482V15.335H48.3882C48.2547 15.5552 48.0445 15.752 47.7575 15.9256C47.4773 16.0924 47.1402 16.1758 46.7465 16.1758ZM46.9067 15.1848C47.1736 15.1848 47.4239 15.1148 47.6574 14.9746C47.8977 14.8345 48.0879 14.6377 48.228 14.3841C48.3748 14.1238 48.4482 13.8168 48.4482 13.4632C48.4482 13.1095 48.3748 12.8059 48.228 12.5523C48.0879 12.292 47.8977 12.0918 47.6574 11.9517C47.4239 11.8115 47.1736 11.7415 46.9067 11.7415C46.6397 11.7415 46.3895 11.8115 46.156 11.9517C45.9224 12.0918 45.7322 12.292 45.5854 12.5523C45.4386 12.8059 45.3652 13.1095 45.3652 13.4632C45.3652 13.8168 45.4386 14.1238 45.5854 14.3841C45.7322 14.6377 45.9224 14.8345 46.156 14.9746C46.3895 15.1148 46.6397 15.1848 46.9067 15.1848ZM52.2854 16.1758C51.918 16.1758 51.5912 16.1057 51.3044 15.9656C51.0171 15.8188 50.7939 15.6153 50.6337 15.355C50.4736 15.0947 50.3935 14.7978 50.3935 14.4641C50.3935 14.1038 50.4866 13.7968 50.6738 13.5432C50.867 13.283 51.1242 13.0861 51.4445 12.9527C51.7649 12.8192 52.1182 12.7525 52.5056 12.7525C52.8259 12.7525 53.1062 12.7825 53.3464 12.8425C53.5931 12.9026 53.7798 12.966 53.907 13.0327V12.7625C53.907 12.4288 53.7868 12.1619 53.5466 11.9617C53.3064 11.7615 52.9961 11.6614 52.6157 11.6614C52.3554 11.6614 52.1082 11.7214 51.875 11.8416C51.6412 11.955 51.4546 12.1118 51.3144 12.312L50.5737 11.7415C50.7939 11.4345 51.0842 11.1943 51.4445 11.0208C51.8114 10.8406 52.2118 10.7505 52.6457 10.7505C53.3864 10.7505 53.957 10.934 54.3574 11.301C54.7578 11.6614 54.958 12.1685 54.958 12.8225V16.0156H53.907V15.385H53.8469C53.7133 15.5919 53.5131 15.7754 53.2463 15.9356C52.979 16.0957 52.6587 16.1758 52.2854 16.1758ZM52.4756 15.2949C52.7558 15.2949 53.0026 15.2282 53.2163 15.0947C53.4295 14.9613 53.5966 14.7878 53.7168 14.5742C53.8434 14.354 53.907 14.1171 53.907 13.8635C53.7533 13.7768 53.5731 13.7067 53.3664 13.6533C53.1592 13.5933 52.939 13.5632 52.7058 13.5632C52.2653 13.5632 51.9515 13.6533 51.7649 13.8335C51.5777 14.007 51.4846 14.2205 51.4846 14.4741C51.4846 14.7144 51.5747 14.9112 51.7548 15.0647C51.935 15.2182 52.1753 15.2949 52.4756 15.2949ZM56.5906 14.5342V11.8516H55.6997V10.9107H56.5906V9.46924H57.6716V10.9107H58.9229V11.8516H57.6716V14.304C57.6716 14.5576 57.7217 14.7511 57.8218 14.8845C57.9289 15.018 58.1056 15.0847 58.3523 15.0847C58.4794 15.0847 58.586 15.0681 58.6726 15.0347C58.7662 15.0013 58.8598 14.9546 58.9529 14.8946V15.9456C58.8398 15.9923 58.7197 16.029 58.5925 16.0557C58.4659 16.0824 58.3158 16.0957 58.1421 16.0957C57.6686 16.0957 57.2913 15.9589 57.011 15.6853C56.7307 15.4051 56.5906 15.0213 56.5906 14.5342ZM64.4788 16.1758C64.0184 16.1758 63.6014 16.0623 63.2276 15.8355C62.8607 15.6019 62.5669 15.2816 62.3467 14.8745C62.133 14.4608 62.0264 13.9903 62.0264 13.4632C62.0264 12.936 62.133 12.4688 62.3467 12.0618C62.5669 11.6547 62.8607 11.3344 63.2276 11.1008C63.6014 10.8673 64.0184 10.7505 64.4788 10.7505C64.8727 10.7505 65.2095 10.8372 65.4898 11.0107C65.7766 11.1843 65.9868 11.3811 66.1204 11.6013H66.1805L66.1204 10.8906V8.84863H67.1915V16.0156H66.1805V15.335H66.1204C65.9868 15.5552 65.7766 15.752 65.4898 15.9256C65.2095 16.0924 64.8727 16.1758 64.4788 16.1758ZM64.639 15.1848C64.9057 15.1848 65.156 15.1148 65.3897 14.9746C65.6299 14.8345 65.8201 14.6377 65.9602 14.3841C66.1069 14.1238 66.1805 13.8168 66.1805 13.4632C66.1805 13.1095 66.1069 12.8059 65.9602 12.5523C65.8201 12.292 65.6299 12.0918 65.3897 11.9517C65.156 11.8115 64.9057 11.7415 64.639 11.7415C64.3722 11.7415 64.122 11.8115 63.8882 11.9517C63.6545 12.0918 63.4643 12.292 63.3177 12.5523C63.171 12.8059 63.0974 13.1095 63.0974 13.4632C63.0974 13.8168 63.171 14.1238 63.3177 14.3841C63.4643 14.6377 63.6545 14.8345 63.8882 14.9746C64.122 15.1148 64.3722 15.1848 64.639 15.1848ZM70.818 16.1758C70.291 16.1758 69.827 16.0557 69.4266 15.8155C69.0262 15.5752 68.7129 15.2516 68.4857 14.8445C68.259 14.4375 68.1454 13.977 68.1454 13.4632C68.1454 12.956 68.259 12.4989 68.4857 12.0918C68.7129 11.6781 69.0262 11.3511 69.4266 11.1108C69.827 10.8706 70.291 10.7505 70.818 10.7505C71.3385 10.7505 71.799 10.8706 72.1994 11.1108C72.5998 11.3511 72.9136 11.6781 73.1403 12.0918C73.3675 12.4989 73.4806 12.956 73.4806 13.4632C73.4806 13.977 73.3675 14.4375 73.1403 14.8445C72.9136 15.2516 72.5998 15.5752 72.1994 15.8155C71.799 16.0557 71.3385 16.1758 70.818 16.1758ZM70.818 15.1848C71.0983 15.1848 71.3585 15.1181 71.5988 14.9846C71.839 14.8445 72.0327 14.6477 72.1793 14.3941C72.333 14.1338 72.4096 13.8235 72.4096 13.4632C72.4096 13.1028 72.333 12.7958 72.1793 12.5422C72.0327 12.282 71.839 12.0852 71.5988 11.9517C71.3585 11.8115 71.0983 11.7415 70.818 11.7415C70.5377 11.7415 70.2745 11.8115 70.0272 11.9517C69.787 12.0852 69.5903 12.282 69.4367 12.5422C69.29 12.7958 69.2164 13.1028 69.2164 13.4632C69.2164 13.8235 69.29 14.1338 69.4367 14.3941C69.5903 14.6477 69.787 14.8445 70.0272 14.9846C70.2745 15.1181 70.5377 15.1848 70.818 15.1848Z" fill="white"/>
<path d="M77.3867 16.0156V8.84863H79.8491C80.2831 8.84863 80.6764 8.94207 81.0303 9.12891C81.3841 9.31574 81.6644 9.57269 81.8711 9.89966C82.0848 10.2266 82.1914 10.607 82.1914 11.0408C82.1914 11.4746 82.0848 11.8582 81.8711 12.1919C81.6644 12.5189 81.3841 12.7758 81.0303 12.9627C80.6764 13.1428 80.2831 13.2329 79.8491 13.2329H78.4878V16.0156H77.3867ZM79.8792 9.88965H78.4878V12.1919H79.8792C80.1394 12.1919 80.3596 12.1385 80.5398 12.0317C80.72 11.9183 80.8566 11.7748 80.9502 11.6013C81.0503 11.4212 81.1004 11.2343 81.1004 11.0408C81.1004 10.8472 81.0503 10.6638 80.9502 10.4902C80.8566 10.3167 80.72 10.1733 80.5398 10.0598C80.3596 9.94636 80.1394 9.88965 79.8792 9.88965ZM85.1203 16.1758C84.6198 16.1758 84.1729 16.059 83.779 15.8255C83.3856 15.5919 83.0753 15.2716 82.8481 14.8645C82.6279 14.4575 82.5177 13.9937 82.5177 13.4732C82.5177 12.986 82.6248 12.5356 82.8381 12.1218C83.0518 11.7081 83.3486 11.3778 83.7289 11.1309C84.1163 10.8773 84.5597 10.7505 85.0602 10.7505C85.5877 10.7505 86.0347 10.864 86.4015 11.0908C86.7754 11.3177 87.0592 11.628 87.2524 12.0217C87.4461 12.4155 87.5427 12.8592 87.5427 13.353C87.5427 13.4265 87.5397 13.4932 87.5327 13.5532C87.5327 13.6133 87.5296 13.66 87.5226 13.6934H83.5788C83.6323 14.2005 83.809 14.5809 84.1093 14.8345C84.4166 15.0881 84.7634 15.2149 85.1503 15.2149C85.4977 15.2149 85.7844 15.1381 86.0112 14.9846C86.2384 14.8245 86.4186 14.6276 86.5517 14.3941L87.4426 14.8245C87.2224 15.2249 86.9221 15.5518 86.5417 15.8054C86.1613 16.0523 85.6878 16.1758 85.1203 16.1758ZM85.0702 11.6714C84.7099 11.6714 84.4031 11.7815 84.1493 12.0017C83.8961 12.2219 83.7259 12.5156 83.6388 12.8826H86.4716C86.4586 12.7091 86.4015 12.5289 86.3015 12.3421C86.2014 12.1552 86.0482 11.9984 85.841 11.8716C85.6408 11.7381 85.384 11.6714 85.0702 11.6714ZM88.5456 16.0156V10.9107H89.5666V11.6113H89.6267C89.7738 11.3644 89.9906 11.1609 90.2773 11.0007C90.5711 10.8339 90.8914 10.7505 91.2383 10.7505C91.8659 10.7505 92.3364 10.9373 92.6497 11.311C92.9635 11.6848 93.1201 12.1785 93.1201 12.7925V16.0156H92.0491V12.9326C92.0491 12.5189 91.946 12.2186 91.7388 12.0317C91.5321 11.8382 91.2618 11.7415 90.928 11.7415C90.6677 11.7415 90.441 11.8149 90.2473 11.9617C90.0541 12.1018 89.9005 12.2887 89.7869 12.5222C89.6803 12.7558 89.6267 13.0061 89.6267 13.273V16.0156H88.5456ZM96.6846 16.1758C96.1841 16.1758 95.7367 16.059 95.3433 15.8255C94.9494 15.5919 94.6391 15.2716 94.4124 14.8645C94.1922 14.4575 94.0821 13.9937 94.0821 13.4732C94.0821 12.986 94.1887 12.5356 94.4024 12.1218C94.6156 11.7081 94.9129 11.3778 95.2932 11.1309C95.6801 10.8773 96.1241 10.7505 96.6246 10.7505C97.1516 10.7505 97.5985 10.864 97.9659 11.0908C98.3392 11.3177 98.623 11.628 98.8167 12.0217C99.0099 12.4155 99.107 12.8592 99.107 13.353C99.107 13.4265 99.1035 13.4932 99.097 13.5532C99.097 13.6133 99.0935 13.66 99.087 13.6934H95.1431C95.1962 14.2005 95.3733 14.5809 95.6736 14.8345C95.9804 15.0881 96.3273 15.2149 96.7146 15.2149C97.0615 15.2149 97.3483 15.1381 97.5755 14.9846C97.8022 14.8245 97.9824 14.6276 98.116 14.3941L99.0069 14.8245C98.7867 15.2249 98.4864 15.5518 98.106 15.8054C97.7256 16.0523 97.2517 16.1758 96.6846 16.1758ZM96.6346 11.6714C96.2742 11.6714 95.9669 11.7815 95.7137 12.0017C95.4599 12.2219 95.2897 12.5156 95.2032 12.8826H98.0359C98.0224 12.7091 97.9659 12.5289 97.8658 12.3421C97.7657 12.1552 97.612 11.9984 97.4053 11.8716C97.2051 11.7381 96.9479 11.6714 96.6346 11.6714ZM96.1541 9.92969L95.083 8.71851V8.64844H96.114L96.5745 9.26904H96.6746L97.1451 8.64844H98.1861V8.71851L97.105 9.92969H96.1541ZM99.8007 16.0156V15.1148L102.643 11.8516H99.8907V10.9107H103.965V11.8115L101.132 15.0747H104.045V16.0156H99.8007ZM101.462 9.92969L100.391 8.71851V8.64844H101.422L101.883 9.26904H101.983L102.453 8.64844H103.494V8.71851L102.413 9.92969H101.462ZM107.29 16.1758C106.79 16.1758 106.343 16.059 105.949 15.8255C105.556 15.5919 105.245 15.2716 105.018 14.8645C104.798 14.4575 104.688 13.9937 104.688 13.4732C104.688 12.986 104.795 12.5356 105.008 12.1218C105.222 11.7081 105.519 11.3778 105.899 11.1309C106.287 10.8773 106.73 10.7505 107.23 10.7505C107.758 10.7505 108.205 10.864 108.572 11.0908C108.946 11.3177 109.229 11.628 109.423 12.0217C109.616 12.4155 109.713 12.8592 109.713 13.353C109.713 13.4265 109.71 13.4932 109.703 13.5532C109.703 13.6133 109.7 13.66 109.693 13.6934H105.749C105.803 14.2005 105.979 14.5809 106.28 14.8345C106.587 15.0881 106.934 15.2149 107.321 15.2149C107.668 15.2149 107.955 15.1381 108.181 14.9846C108.409 14.8245 108.589 14.6276 108.722 14.3941L109.613 14.8245C109.393 15.2249 109.092 15.5518 108.712 15.8054C108.332 16.0523 107.858 16.1758 107.29 16.1758ZM107.24 11.6714C106.88 11.6714 106.573 11.7815 106.32 12.0017C106.066 12.2219 105.896 12.5156 105.809 12.8826H108.642C108.629 12.7091 108.572 12.5289 108.472 12.3421C108.372 12.1552 108.218 11.9984 108.011 11.8716C107.811 11.7381 107.554 11.6714 107.24 11.6714ZM110.716 16.0156V10.9107H111.737V11.6113H111.797C111.944 11.3644 112.161 11.1609 112.448 11.0007C112.741 10.8339 113.062 10.7505 113.408 10.7505C114.036 10.7505 114.506 10.9373 114.82 11.311C115.134 11.6848 115.29 12.1785 115.29 12.7925V16.0156H114.219V12.9326C114.219 12.5189 114.116 12.2186 113.909 12.0317C113.702 11.8382 113.432 11.7415 113.098 11.7415C112.838 11.7415 112.611 11.8149 112.418 11.9617C112.224 12.1018 112.071 12.2887 111.957 12.5222C111.85 12.7558 111.797 13.0061 111.797 13.273V16.0156H110.716ZM116.523 16.0156V8.84863H117.604V13.0728L119.766 10.9107H121.107V10.9707L119.135 12.9226L121.177 15.9556V16.0156H119.896L118.374 13.6734L117.604 14.4341V16.0156H116.523ZM123.591 17.9275C123.571 17.9809 123.548 18.031 123.521 18.0777C123.501 18.1244 123.488 18.1577 123.481 18.1778H122.33C122.364 18.1043 122.41 17.9976 122.47 17.8575C122.537 17.724 122.6 17.5938 122.661 17.4671C122.721 17.3403 122.784 17.1968 122.851 17.0366C122.924 16.8765 122.998 16.7197 123.071 16.5662L123.451 15.7354L121.319 10.9107H122.52L123.982 14.3941H124.032L125.443 10.9107H126.634L123.992 16.9966C123.919 17.1701 123.839 17.3503 123.752 17.5371C123.672 17.7307 123.618 17.8608 123.591 17.9275ZM133.068 16.1758C132.554 16.1758 132.07 16.0824 131.616 15.8955C131.169 15.7087 130.772 15.4484 130.425 15.1148C130.078 14.7744 129.805 14.3774 129.604 13.9236C129.411 13.4631 129.314 12.966 129.314 12.4321C129.314 11.8983 129.411 11.4045 129.604 10.9507C129.805 10.4902 130.075 10.0932 130.415 9.75952C130.762 9.41919 131.162 9.15558 131.616 8.96875C132.07 8.78192 132.554 8.68848 133.068 8.68848C133.615 8.68848 134.119 8.78522 134.579 8.97876C135.046 9.1723 135.437 9.44256 135.75 9.78955L134.99 10.5403C134.756 10.28 134.476 10.0798 134.149 9.9397C133.828 9.79956 133.468 9.7295 133.068 9.7295C132.594 9.7295 132.157 9.84296 131.756 10.0698C131.356 10.29 131.032 10.6037 130.785 11.0107C130.545 11.4111 130.425 11.885 130.425 12.4321C130.425 12.9793 130.548 13.4565 130.796 13.8635C131.042 14.2639 131.366 14.5776 131.766 14.8045C132.167 15.0247 132.604 15.1348 133.078 15.1348C133.511 15.1348 133.905 15.0547 134.259 14.8946C134.612 14.7277 134.896 14.4942 135.11 14.1939C135.33 13.8936 135.463 13.5332 135.51 13.1128H133.058V12.1419H136.541C136.581 12.322 136.601 12.5122 136.601 12.7124V12.7224C136.601 13.4165 136.448 14.0237 136.141 14.5442C135.84 15.0581 135.423 15.4585 134.89 15.7454C134.355 16.0323 133.748 16.1758 133.068 16.1758ZM139.824 16.1758C139.297 16.1758 138.833 16.0557 138.433 15.8155C138.033 15.5752 137.719 15.2516 137.492 14.8445C137.265 14.4375 137.152 13.977 137.152 13.4631C137.152 12.956 137.265 12.4989 137.492 12.0918C137.719 11.6781 138.033 11.3511 138.433 11.1108C138.833 10.8706 139.297 10.7505 139.824 10.7505C140.345 10.7505 140.805 10.8706 141.206 11.1108C141.606 11.3511 141.919 11.6781 142.147 12.0918C142.373 12.4989 142.487 12.956 142.487 13.4631C142.487 13.977 142.373 14.4375 142.147 14.8445C141.919 15.2516 141.606 15.5752 141.206 15.8155C140.805 16.0557 140.345 16.1758 139.824 16.1758ZM139.824 15.1848C140.105 15.1848 140.365 15.1181 140.605 14.9846C140.845 14.8445 141.039 14.6477 141.186 14.3941C141.339 14.1338 141.416 13.8235 141.416 13.4631C141.416 13.1028 141.339 12.7958 141.186 12.5422C141.039 12.282 140.845 12.0852 140.605 11.9517C140.365 11.8115 140.105 11.7415 139.824 11.7415C139.544 11.7415 139.28 11.8115 139.034 11.9517C138.793 12.0852 138.596 12.282 138.443 12.5422C138.296 12.7958 138.223 13.1028 138.223 13.4631C138.223 13.8235 138.296 14.1338 138.443 14.3941C138.596 14.6477 138.793 14.8445 139.034 14.9846C139.28 15.1181 139.544 15.1848 139.824 15.1848ZM145.885 16.1758C145.358 16.1758 144.894 16.0557 144.493 15.8155C144.093 15.5752 143.779 15.2516 143.552 14.8445C143.326 14.4375 143.212 13.977 143.212 13.4631C143.212 12.956 143.326 12.4989 143.552 12.0918C143.779 11.6781 144.093 11.3511 144.493 11.1108C144.894 10.8706 145.358 10.7505 145.885 10.7505C146.405 10.7505 146.866 10.8706 147.266 11.1108C147.667 11.3511 147.98 11.6781 148.207 12.0918C148.434 12.4989 148.547 12.956 148.547 13.4631C148.547 13.977 148.434 14.4375 148.207 14.8445C147.98 15.2516 147.667 15.5752 147.266 15.8155C146.866 16.0557 146.405 16.1758 145.885 16.1758ZM145.885 15.1848C146.165 15.1848 146.425 15.1181 146.666 14.9846C146.906 14.8445 147.099 14.6477 147.246 14.3941C147.4 14.1338 147.476 13.8235 147.476 13.4631C147.476 13.1028 147.4 12.7958 147.246 12.5422C147.099 12.282 146.906 12.0852 146.666 11.9517C146.425 11.8115 146.165 11.7415 145.885 11.7415C145.604 11.7415 145.341 11.8115 145.094 11.9517C144.854 12.0852 144.657 12.282 144.503 12.5422C144.357 12.7958 144.283 13.1028 144.283 13.4631C144.283 13.8235 144.357 14.1338 144.503 14.3941C144.657 14.6477 144.854 14.8445 145.094 14.9846C145.341 15.1181 145.604 15.1848 145.885 15.1848ZM151.845 18.3379C151.398 18.3379 151.011 18.2645 150.684 18.1177C150.364 17.9776 150.103 17.794 149.903 17.5672C149.703 17.347 149.56 17.1201 149.473 16.8865L150.474 16.4661C150.581 16.733 150.751 16.9499 150.984 17.1167C151.224 17.2902 151.512 17.377 151.845 17.377C152.313 17.377 152.679 17.2368 152.946 16.9566C153.22 16.6763 153.357 16.2793 153.357 15.7654V15.2749H153.297C153.136 15.5152 152.913 15.7087 152.626 15.8555C152.346 15.9956 152.025 16.0657 151.665 16.0657C151.232 16.0657 150.834 15.9556 150.474 15.7354C150.113 15.5152 149.823 15.2082 149.603 14.8145C149.383 14.4141 149.273 13.947 149.273 13.4131C149.273 12.8726 149.383 12.4055 149.603 12.0117C149.823 11.6113 150.113 11.301 150.474 11.0808C150.834 10.8606 151.232 10.7505 151.665 10.7505C152.025 10.7505 152.346 10.8239 152.626 10.9707C152.913 11.1175 153.136 11.311 153.297 11.5513H153.357V10.9107H154.388V15.7454C154.388 16.2993 154.277 16.7697 154.057 17.1568C153.844 17.5438 153.547 17.8374 153.166 18.0376C152.786 18.2378 152.346 18.3379 151.845 18.3379ZM151.855 15.0847C152.122 15.0847 152.369 15.0213 152.596 14.8946C152.823 14.7611 153.006 14.5709 153.146 14.324C153.287 14.0704 153.357 13.7668 153.357 13.4131C153.357 13.0461 153.287 12.7391 153.146 12.4922C153.006 12.2386 152.823 12.0484 152.596 11.9216C152.369 11.7949 152.122 11.7315 151.855 11.7315C151.588 11.7315 151.338 11.7982 151.104 11.9317C150.878 12.0584 150.694 12.2453 150.554 12.4922C150.414 12.7391 150.344 13.0461 150.344 13.4131C150.344 13.7735 150.414 14.0804 150.554 14.334C150.694 14.5809 150.878 14.7678 151.104 14.8946C151.338 15.0213 151.588 15.0847 151.855 15.0847ZM155.662 16.0156V8.84863H156.743V16.0156H155.662ZM160.301 16.1758C159.801 16.1758 159.354 16.059 158.96 15.8255C158.567 15.5919 158.256 15.2716 158.029 14.8645C157.809 14.4575 157.699 13.9937 157.699 13.4732C157.699 12.986 157.806 12.5356 158.019 12.1218C158.233 11.7081 158.53 11.3778 158.91 11.1309C159.297 10.8773 159.741 10.7505 160.241 10.7505C160.769 10.7505 161.216 10.864 161.583 11.0908C161.956 11.3177 162.24 11.628 162.433 12.0217C162.627 12.4155 162.724 12.8592 162.724 13.353C162.724 13.4265 162.721 13.4932 162.714 13.5532C162.714 13.6133 162.711 13.66 162.704 13.6934H158.76C158.813 14.2005 158.99 14.5809 159.29 14.8345C159.598 15.0881 159.945 15.2149 160.331 15.2149C160.679 15.2149 160.966 15.1381 161.192 14.9846C161.419 14.8245 161.6 14.6276 161.733 14.3941L162.624 14.8245C162.403 15.2249 162.103 15.5518 161.723 15.8054C161.342 16.0523 160.869 16.1758 160.301 16.1758ZM160.251 11.6714C159.891 11.6714 159.584 11.7815 159.33 12.0017C159.077 12.2219 158.907 12.5156 158.82 12.8826H161.653C161.64 12.7091 161.583 12.5289 161.483 12.3421C161.382 12.1552 161.229 11.9984 161.022 11.8716C160.822 11.7381 160.565 11.6714 160.251 11.6714Z" fill="white"/>
<path d="M161.158 0.25H12.512C5.73989 0.25 0.25 5.73989 0.25 12.512C0.25 19.2841 5.73989 24.774 12.512 24.774H161.158C167.93 24.774 173.419 19.2841 173.419 12.512C173.419 5.73989 167.93 0.25 161.158 0.25Z" stroke="#747775"/>
</g>
<defs>
<linearGradient id="paint0_linear_568_195" x1="17.3035" y1="15.4087" x2="9.37606" y2="24.4811" gradientUnits="userSpaceOnUse">
<stop stop-color="#4285F4"/>
<stop offset="1" stop-color="#1B74E8"/>
</linearGradient>
<clipPath id="clip0_568_195">
<rect width="173.67" height="25.0245" fill="white"/>
</clipPath>
</defs>
</svg>
