<svg width="174" height="21" viewBox="0 0 174 21" fill="none" xmlns="http://www.w3.org/2000/svg">
<g clip-path="url(#clip0_568_592)">
<path d="M163.333 0.207031H10.3378C4.74272 0.207031 0.207031 4.74272 0.207031 10.3378C0.207031 15.9328 4.74272 20.4685 10.3378 20.4685H163.333C168.928 20.4685 173.464 15.9328 173.464 10.3378C173.464 4.74272 168.928 0.207031 163.333 0.207031Z" fill="#1F1F1F"/>
<path d="M21.0886 9.09691H8.68359V7.02941C8.68359 5.90705 9.59404 4.96191 10.6752 4.96191H19.097C20.1781 4.96191 21.0886 5.90705 21.0886 7.02941V9.09691Z" fill="#34A853"/>
<path d="M21.0886 10.7737H8.68359V8.70617C8.68359 7.58381 9.59404 6.63867 10.6752 6.63867H19.097C20.1781 6.63867 21.0886 7.58381 21.0886 8.70617V10.7737Z" fill="#FBBC04"/>
<path d="M21.0886 12.5071H8.68359V10.4396C8.68359 9.31721 9.59404 8.37207 10.6752 8.37207H19.097C20.1781 8.37207 21.0886 9.31721 21.0886 10.4396V12.5071Z" fill="#EA4335"/>
<path d="M8.68359 9.62454L16.5571 11.4455C17.4634 11.6731 18.483 11.4455 19.2194 10.8764L21.0886 9.51074V13.7785C21.0886 14.8597 20.1823 15.7132 19.1061 15.7132H10.6661C9.5899 15.7132 8.68359 14.8597 8.68359 13.7785V9.62454Z" fill="url(#paint0_linear_568_592)"/>
<path d="M27.9279 13.2319V8.17063H26.2656V7.31055H30.4833V8.17063H28.8293V13.2319H27.9279ZM32.538 13.3642C32.1024 13.3642 31.7192 13.2649 31.3884 13.0665C31.0576 12.868 30.7985 12.6006 30.6111 12.2643C30.4236 11.928 30.3299 11.5476 30.3299 11.123C30.3299 10.704 30.4236 10.3263 30.6111 9.99003C30.7985 9.64819 31.0576 9.37805 31.3884 9.17957C31.7192 8.98109 32.1024 8.88185 32.538 8.88185C32.968 8.88185 33.3484 8.98109 33.6792 9.17957C34.01 9.37805 34.2692 9.64819 34.4566 9.99003C34.644 10.3263 34.7378 10.704 34.7378 11.123C34.7378 11.5476 34.644 11.928 34.4566 12.2643C34.2692 12.6006 34.01 12.868 33.6792 13.0665C33.3484 13.2649 32.968 13.3642 32.538 13.3642ZM32.538 12.5703C32.7695 12.5703 32.9873 12.5151 33.1913 12.4049C33.3953 12.2891 33.5607 12.1237 33.6875 11.9087C33.8143 11.6936 33.8777 11.4318 33.8777 11.123C33.8777 10.8198 33.8143 10.5607 33.6875 10.3456C33.5662 10.1306 33.4035 9.96522 33.1996 9.84944C32.9956 9.73366 32.775 9.67577 32.538 9.67577C32.3009 9.67577 32.0776 9.73366 31.8681 9.84944C31.6641 9.96522 31.4987 10.1306 31.3719 10.3456C31.2506 10.5607 31.19 10.8198 31.19 11.123C31.19 11.4262 31.2506 11.6854 31.3719 11.9004C31.4987 12.1154 31.6641 12.2808 31.8681 12.3966C32.0776 12.5124 32.3009 12.5703 32.538 12.5703ZM30.7599 11.4621V10.7591H34.2747V11.4621H30.7599ZM35.4796 13.2319V9.01417H36.5382L37.8366 11.5944H37.8779L39.1846 9.01417H40.2184V13.2319H39.3665V11.1809L39.4079 10.3704H39.3583L38.1426 12.6943H37.5554L36.3397 10.3704H36.2901L36.3315 11.1809V13.2319H35.4796ZM43.2067 13.3642C42.7709 13.3642 42.388 13.2649 42.0572 13.0665C41.7264 12.868 41.4671 12.6006 41.2797 12.2643C41.0922 11.928 40.9985 11.5476 40.9985 11.123C40.9985 10.704 41.0922 10.3263 41.2797 9.99003C41.4671 9.64819 41.7264 9.37805 42.0572 9.17957C42.388 8.98109 42.7709 8.88185 43.2067 8.88185C43.6368 8.88185 44.0172 8.98109 44.348 9.17957C44.6788 9.37805 44.9376 9.64819 45.1254 9.99003C45.3127 10.3263 45.4065 10.704 45.4065 11.123C45.4065 11.5476 45.3127 11.928 45.1254 12.2643C44.9376 12.6006 44.6788 12.868 44.348 13.0665C44.0172 13.2649 43.6368 13.3642 43.2067 13.3642ZM43.2067 12.5703C43.4383 12.5703 43.6558 12.5151 43.86 12.4049C44.0639 12.2891 44.2293 12.1237 44.3562 11.9087C44.4828 11.6936 44.5465 11.4318 44.5465 11.123C44.5465 10.8198 44.4828 10.5607 44.3562 10.3456C44.2347 10.1306 44.0722 9.96522 43.8683 9.84944C43.664 9.73366 43.4437 9.67577 43.2067 9.67577C42.9694 9.67577 42.7461 9.73366 42.5369 9.84944C42.3326 9.96522 42.1672 10.1306 42.0406 10.3456C41.9191 10.5607 41.8587 10.8198 41.8587 11.123C41.8587 11.4262 41.9191 11.6854 42.0406 11.9004C42.1672 12.1154 42.3326 12.2808 42.5369 12.3966C42.7461 12.5124 42.9694 12.5703 43.2067 12.5703ZM41.4287 11.4621V10.7591H44.9434V11.4621H41.4287ZM46.1484 13.2319V9.01417H47.0415V10.7095H49.0429V9.01417H49.936V13.2319H49.0429V11.4869H47.0415V13.2319H46.1484ZM50.9776 13.2319V9.01417H51.8708V10.8832H51.9204L53.5744 9.01417H54.5999V9.06379L52.8384 10.9907L54.666 13.1822V13.2319H53.6075L51.9204 11.1561H51.8708V13.2319H50.9776ZM56.5392 15.0182V13.2319L54.8356 9.01417H55.8197L56.994 12.165H57.0023L58.1932 9.01417H59.1608L57.4324 13.2319V15.0182H56.5392ZM59.5561 13.298C59.4296 13.298 59.308 13.2843 59.1922 13.2567V12.4297C59.2695 12.4683 59.3551 12.4876 59.4486 12.4876C59.6363 12.4876 59.7686 12.4159 59.8455 12.2725C59.9229 12.1237 59.9696 11.9362 59.9861 11.7102C60.0027 11.4841 60.0109 11.2498 60.0109 11.0072V9.01417H63.2362V13.2319H62.3514V9.79155H60.8545V11.1478C60.8545 11.4345 60.8355 11.7074 60.7966 11.9666C60.7635 12.2202 60.7002 12.449 60.6064 12.653C60.5129 12.8514 60.3806 13.0086 60.2094 13.1244C60.044 13.2401 59.8265 13.298 59.5561 13.298ZM66.2316 13.3642C65.7962 13.3642 65.4129 13.2649 65.0821 13.0665C64.7513 12.868 64.4925 12.6006 64.3047 12.2643C64.1174 11.928 64.0235 11.5476 64.0235 11.123C64.0235 10.704 64.1174 10.3263 64.3047 9.99003C64.4925 9.64819 64.7513 9.37805 65.0821 9.17957C65.4129 8.98109 65.7962 8.88185 66.2316 8.88185C66.6617 8.88185 67.0421 8.98109 67.3729 9.17957C67.7037 9.37805 67.963 9.64819 68.1503 9.99003C68.338 10.3263 68.4315 10.704 68.4315 11.123C68.4315 11.5476 68.338 11.928 68.1503 12.2643C67.963 12.6006 67.7037 12.868 67.3729 13.0665C67.0421 13.2649 66.6617 13.3642 66.2316 13.3642ZM66.2316 12.5703C66.4632 12.5703 66.6811 12.5151 66.885 12.4049C67.0892 12.2891 67.2546 12.1237 67.3812 11.9087C67.5081 11.6936 67.5714 11.4318 67.5714 11.123C67.5714 10.8198 67.5081 10.5607 67.3812 10.3456C67.26 10.1306 67.0975 9.96522 66.8932 9.84944C66.6894 9.73366 66.469 9.67577 66.2316 9.67577C65.9947 9.67577 65.7714 9.73366 65.5618 9.84944C65.3579 9.96522 65.1925 10.1306 65.0656 10.3456C64.9444 10.5607 64.8836 10.8198 64.8836 11.123C64.8836 11.4262 64.9444 11.6854 65.0656 11.9004C65.1925 12.1154 65.3579 12.2808 65.5618 12.3966C65.7714 12.5124 65.9947 12.5703 66.2316 12.5703ZM64.4536 11.4621V10.7591H67.9683V11.4621H64.4536ZM69.2055 15.0182V9.01417H70.0408V9.5848H70.0904C70.2008 9.40286 70.3716 9.24023 70.6032 9.09687C70.8401 8.95351 71.1213 8.88185 71.4467 8.88185C71.8325 8.88185 72.1774 8.97832 72.4805 9.1713C72.7835 9.36428 73.0234 9.62892 73.1999 9.96522C73.3819 10.3015 73.4728 10.6875 73.4728 11.123C73.4728 11.5586 73.3819 11.9472 73.1999 12.2891C73.0234 12.6254 72.7835 12.89 72.4805 13.083C72.1774 13.2704 71.8325 13.3642 71.4467 13.3642C71.1213 13.3642 70.8401 13.2953 70.6032 13.1574C70.3716 13.0141 70.2008 12.8514 70.0904 12.6695H70.0408L70.0904 13.2567V15.0182H69.2055ZM71.3144 12.5455C71.5348 12.5455 71.7415 12.4876 71.9346 12.3718C72.1277 12.256 72.2849 12.0934 72.406 11.8839C72.5272 11.6688 72.588 11.4152 72.588 11.123C72.588 10.8308 72.5272 10.58 72.406 10.3704C72.2849 10.1554 72.1277 9.99003 71.9346 9.87425C71.7415 9.75847 71.5348 9.70058 71.3144 9.70058C71.094 9.70058 70.8872 9.75847 70.6941 9.87425C70.501 9.99003 70.3439 10.1554 70.2227 10.3704C70.1016 10.58 70.0408 10.8308 70.0408 11.123C70.0408 11.4152 70.1016 11.6688 70.2227 11.8839C70.3439 12.0934 70.501 12.256 70.6941 12.3718C70.8872 12.4876 71.094 12.5455 71.3144 12.5455ZM74.237 13.2319V9.01417H76.9992V9.79155H75.1302V13.2319H74.237ZM79.4686 13.3642C79.0332 13.3642 78.6499 13.2649 78.3191 13.0665C77.9883 12.868 77.729 12.6006 77.5417 12.2643C77.3544 11.928 77.2605 11.5476 77.2605 11.123C77.2605 10.704 77.3544 10.3263 77.5417 9.99003C77.729 9.64819 77.9883 9.37805 78.3191 9.17957C78.6499 8.98109 79.0332 8.88185 79.4686 8.88185C79.8986 8.88185 80.2791 8.98109 80.6099 9.17957C80.9407 9.37805 81.1999 9.64819 81.3872 9.99003C81.5746 10.3263 81.6684 10.704 81.6684 11.123C81.6684 11.5476 81.5746 11.928 81.3872 12.2643C81.1999 12.6006 80.9407 12.868 80.6099 13.0665C80.2791 13.2649 79.8986 13.3642 79.4686 13.3642ZM79.4686 12.5703C79.7002 12.5703 79.9181 12.5151 80.1219 12.4049C80.3258 12.2891 80.4912 12.1237 80.6181 11.9087C80.7451 11.6936 80.8083 11.4318 80.8083 11.123C80.8083 10.8198 80.7451 10.5607 80.6181 10.3456C80.497 10.1306 80.3341 9.96522 80.1302 9.84944C79.9263 9.73366 79.7055 9.67577 79.4686 9.67577C79.2317 9.67577 79.0084 9.73366 78.7987 9.84944C78.5949 9.96522 78.4295 10.1306 78.3025 10.3456C78.1814 10.5607 78.1206 10.8198 78.1206 11.123C78.1206 11.4262 78.1814 11.6854 78.3025 11.9004C78.4295 12.1154 78.5949 12.2808 78.7987 12.3966C79.0084 12.5124 79.2317 12.5703 79.4686 12.5703ZM77.6905 11.4621V10.7591H81.2053V11.4621H77.6905ZM84.4211 13.2319V9.01417H85.3143V10.8832H85.3639L87.0179 9.01417H88.0433V9.06379L86.2818 10.9907L88.1095 13.1822V13.2319H87.0509L85.3639 11.1561H85.3143V13.2319H84.4211ZM90.5653 13.3642C90.1299 13.3642 89.7466 13.2649 89.4158 13.0665C89.085 12.868 88.8257 12.6006 88.6384 12.2643C88.4511 11.928 88.3572 11.5476 88.3572 11.123C88.3572 10.704 88.4511 10.3263 88.6384 9.99003C88.8257 9.64819 89.085 9.37805 89.4158 9.17957C89.7466 8.98109 90.1299 8.88185 90.5653 8.88185C90.9953 8.88185 91.3757 8.98109 91.7065 9.17957C92.0373 9.37805 92.2966 9.64819 92.4839 9.99003C92.6712 10.3263 92.7651 10.704 92.7651 11.123C92.7651 11.5476 92.6712 11.928 92.4839 12.2643C92.2966 12.6006 92.0373 12.868 91.7065 13.0665C91.3757 13.2649 90.9953 13.3642 90.5653 13.3642ZM90.5653 12.5455C90.7968 12.5455 91.0119 12.4903 91.2103 12.3801C91.4088 12.2643 91.5688 12.1016 91.69 11.8921C91.8169 11.6771 91.8802 11.4207 91.8802 11.123C91.8802 10.8253 91.8169 10.5717 91.69 10.3622C91.5688 10.1472 91.4088 9.98453 91.2103 9.87425C91.0119 9.75847 90.7968 9.70058 90.5653 9.70058C90.3337 9.70058 90.1158 9.75847 89.912 9.87425C89.7135 9.98453 89.551 10.1472 89.424 10.3622C89.3029 10.5717 89.2421 10.8253 89.2421 11.123C89.2421 11.4207 89.3029 11.6771 89.424 11.8921C89.551 12.1016 89.7135 12.2643 89.912 12.3801C90.1158 12.4903 90.3337 12.5455 90.5653 12.5455ZM93.5069 13.2319V9.01417H94.3918V12.4545H95.7812V9.01417H96.6661V12.4545H98.0554V9.01417H98.9403V13.2319H93.5069ZM101.431 14.8114C101.415 14.8556 101.395 14.8969 101.373 14.9355C101.357 14.9741 101.346 15.0016 101.34 15.0182H100.389C100.417 14.9575 100.455 14.8693 100.505 14.7535C100.56 14.6433 100.613 14.5358 100.662 14.431C100.712 14.3263 100.764 14.2077 100.819 14.0754C100.88 13.9431 100.94 13.8135 101.001 13.6867L101.315 13.0003L99.5539 9.01417H100.546L101.754 11.8921H101.795L102.961 9.01417H103.945L101.762 14.0423C101.701 14.1857 101.635 14.3345 101.564 14.4889C101.497 14.6488 101.453 14.7563 101.431 14.8114ZM106.026 14.8114C106.01 14.8556 105.99 14.8969 105.969 14.9355C105.952 14.9741 105.941 15.0016 105.935 15.0182H104.984C105.012 14.9575 105.051 14.8693 105.1 14.7535C105.155 14.6433 105.208 14.5358 105.257 14.431C105.307 14.3263 105.359 14.2077 105.414 14.0754C105.475 13.9431 105.536 13.8135 105.596 13.6867L105.911 13.0003L104.149 9.01417H105.142L106.349 11.8921H106.39L107.556 9.01417H108.541L106.357 14.0423C106.296 14.1857 106.23 14.3345 106.159 14.4889C106.093 14.6488 106.048 14.7563 106.026 14.8114Z" fill="white"/>
<path d="M114.293 13.3647C113.868 13.3647 113.469 13.2875 113.094 13.1331C112.724 12.9788 112.396 12.7637 112.109 12.4881C111.823 12.2069 111.597 11.8788 111.431 11.5039C111.271 11.1235 111.191 10.7128 111.191 10.2717C111.191 9.83061 111.271 9.42265 111.431 9.04773C111.597 8.66731 111.82 8.33928 112.101 8.0636C112.388 7.78242 112.718 7.56463 113.094 7.41027C113.469 7.25591 113.868 7.17871 114.293 7.17871C114.745 7.17871 115.161 7.25864 115.541 7.41854C115.927 7.57844 116.25 7.80173 116.509 8.08841L115.88 8.70866C115.687 8.49364 115.456 8.32824 115.186 8.21246C114.921 8.09668 114.623 8.03879 114.293 8.03879C113.901 8.03879 113.54 8.13253 113.209 8.31997C112.878 8.50191 112.611 8.76105 112.407 9.09735C112.209 9.42815 112.109 9.81961 112.109 10.2717C112.109 10.7238 112.212 11.118 112.415 11.4543C112.619 11.7851 112.887 12.0442 113.218 12.2317C113.548 12.4136 113.909 12.5046 114.301 12.5046C114.659 12.5046 114.984 12.4384 115.277 12.3061C115.569 12.1683 115.803 11.9753 115.98 11.7272C116.162 11.4791 116.272 11.1814 116.311 10.8341H114.284V10.0319H117.162C117.195 10.1807 117.212 10.3379 117.212 10.5033V10.5115C117.212 11.0849 117.085 11.5866 116.832 12.0167C116.583 12.4412 116.239 12.772 115.798 13.0091C115.357 13.2461 114.855 13.3647 114.293 13.3647ZM119.875 13.3647C119.439 13.3647 119.056 13.2654 118.725 13.067C118.395 12.8685 118.135 12.6011 117.948 12.2648C117.761 11.9285 117.667 11.548 117.667 11.1235C117.667 10.7045 117.761 10.3268 117.948 9.99051C118.135 9.64867 118.395 9.37853 118.725 9.18005C119.056 8.98157 119.439 8.88233 119.875 8.88233C120.305 8.88233 120.685 8.98157 121.016 9.18005C121.347 9.37853 121.606 9.64867 121.794 9.99051C121.981 10.3268 122.075 10.7045 122.075 11.1235C122.075 11.548 121.981 11.9285 121.794 12.2648C121.606 12.6011 121.347 12.8685 121.016 13.067C120.685 13.2654 120.305 13.3647 119.875 13.3647ZM119.875 12.5459C120.106 12.5459 120.321 12.4908 120.52 12.3805C120.718 12.2648 120.878 12.1021 121 11.8926C121.127 11.6776 121.19 11.4212 121.19 11.1235C121.19 10.8258 121.127 10.5722 121 10.3627C120.878 10.1476 120.718 9.98501 120.52 9.87473C120.321 9.75895 120.106 9.70106 119.875 9.70106C119.643 9.70106 119.425 9.75895 119.222 9.87473C119.023 9.98501 118.861 10.1476 118.734 10.3627C118.612 10.5722 118.552 10.8258 118.552 11.1235C118.552 11.4212 118.612 11.6776 118.734 11.8926C118.861 12.1021 119.023 12.2648 119.222 12.3805C119.425 12.4908 119.643 12.5459 119.875 12.5459ZM124.882 13.3647C124.447 13.3647 124.063 13.2654 123.732 13.067C123.402 12.8685 123.143 12.6011 122.955 12.2648C122.768 11.9285 122.674 11.548 122.674 11.1235C122.674 10.7045 122.768 10.3268 122.955 9.99051C123.143 9.64867 123.402 9.37853 123.732 9.18005C124.063 8.98157 124.447 8.88233 124.882 8.88233C125.312 8.88233 125.692 8.98157 126.023 9.18005C126.354 9.37853 126.613 9.64867 126.801 9.99051C126.988 10.3268 127.082 10.7045 127.082 11.1235C127.082 11.548 126.988 11.9285 126.801 12.2648C126.613 12.6011 126.354 12.8685 126.023 13.067C125.692 13.2654 125.312 13.3647 124.882 13.3647ZM124.882 12.5459C125.114 12.5459 125.329 12.4908 125.527 12.3805C125.726 12.2648 125.886 12.1021 126.007 11.8926C126.134 11.6776 126.197 11.4212 126.197 11.1235C126.197 10.8258 126.134 10.5722 126.007 10.3627C125.886 10.1476 125.726 9.98501 125.527 9.87473C125.329 9.75895 125.114 9.70106 124.882 9.70106C124.65 9.70106 124.433 9.75895 124.229 9.87473C124.03 9.98501 123.868 10.1476 123.741 10.3627C123.62 10.5722 123.559 10.8258 123.559 11.1235C123.559 11.4212 123.62 11.6776 123.741 11.8926C123.868 12.1021 124.03 12.2648 124.229 12.3805C124.433 12.4908 124.65 12.5459 124.882 12.5459ZM129.807 15.151C129.437 15.151 129.117 15.0903 128.847 14.9691C128.583 14.8533 128.368 14.7016 128.202 14.5142C128.037 14.3323 127.918 14.1448 127.847 13.9518L128.674 13.6045C128.762 13.825 128.902 14.0042 129.096 14.1421C129.294 14.2854 129.531 14.3571 129.807 14.3571C130.193 14.3571 130.496 14.2413 130.716 14.0097C130.942 13.7782 131.056 13.4501 131.056 13.0256V12.6204H131.006C130.874 12.8189 130.689 12.9788 130.452 13.1C130.22 13.2158 129.956 13.2737 129.658 13.2737C129.299 13.2737 128.971 13.1827 128.674 13.0008C128.376 12.8189 128.136 12.5653 127.954 12.24C127.772 11.9092 127.681 11.5232 127.681 11.0822C127.681 10.6356 127.772 10.2497 127.954 9.92435C128.136 9.59355 128.376 9.33718 128.674 9.15524C128.971 8.9733 129.299 8.88233 129.658 8.88233C129.956 8.88233 130.22 8.94299 130.452 9.06427C130.689 9.18555 130.874 9.34545 131.006 9.54393H131.056V9.01465H131.907V13.0091C131.907 13.4667 131.816 13.8554 131.634 14.1751C131.458 14.4949 131.213 14.7375 130.898 14.9029C130.584 15.0683 130.22 15.151 129.807 15.151ZM129.815 12.4632C130.035 12.4632 130.239 12.4109 130.427 12.3061C130.614 12.1958 130.766 12.0387 130.882 11.8347C130.998 11.6252 131.056 11.3744 131.056 11.0822C131.056 10.7789 130.998 10.5253 130.882 10.3213C130.766 10.1118 130.614 9.95466 130.427 9.84992C130.239 9.74518 130.035 9.69279 129.815 9.69279C129.594 9.69279 129.387 9.74791 129.195 9.85819C129.007 9.96293 128.856 10.1173 128.74 10.3213C128.624 10.5253 128.566 10.7789 128.566 11.0822C128.566 11.3799 128.624 11.6335 128.74 11.843C128.856 12.047 129.007 12.2014 129.195 12.3061C129.387 12.4109 129.594 12.4632 129.815 12.4632ZM132.961 13.2324V7.31103H133.854V13.2324H132.961ZM136.793 13.3647C136.38 13.3647 136.01 13.2682 135.685 13.0752C135.36 12.8822 135.103 12.6176 134.916 12.2813C134.734 11.945 134.643 11.5618 134.643 11.1318C134.643 10.7293 134.731 10.3572 134.908 10.0153C135.084 9.67348 135.329 9.40057 135.644 9.19659C135.963 8.98707 136.33 8.88233 136.744 8.88233C137.179 8.88233 137.548 8.97607 137.852 9.16351C138.16 9.35095 138.395 9.60732 138.555 9.93262C138.714 10.2579 138.795 10.6245 138.795 11.0325C138.795 11.0932 138.792 11.1483 138.786 11.1979C138.786 11.2476 138.783 11.2861 138.778 11.3137H135.52C135.564 11.7327 135.71 12.047 135.958 12.2565C136.211 12.466 136.498 12.5708 136.818 12.5708C137.105 12.5708 137.342 12.5074 137.529 12.3805C137.717 12.2482 137.865 12.0856 137.976 11.8926L138.712 12.2482C138.53 12.579 138.282 12.8492 137.968 13.0587C137.653 13.2627 137.262 13.3647 136.793 13.3647ZM136.752 9.64317C136.454 9.64317 136.2 9.73414 135.991 9.91608C135.781 10.098 135.641 10.3406 135.569 10.6438H137.91C137.899 10.5005 137.852 10.3516 137.769 10.1973C137.686 10.0429 137.559 9.91331 137.389 9.80857C137.223 9.69829 137.011 9.64317 136.752 9.64317ZM142.43 13.2324L140.842 7.31103H141.851L142.794 11.1566L142.893 11.6693H142.942L143.066 11.1566L144.257 7.31103H145.167L146.308 11.1566L146.432 11.6611H146.482L146.581 11.1566L147.524 7.31103H148.525L146.962 13.2324H146.002L144.869 9.3041L144.737 8.75001H144.687L144.547 9.3041L143.364 13.2324H142.43ZM150.185 13.3647C149.882 13.3647 149.612 13.3068 149.375 13.191C149.138 13.0697 148.953 12.9016 148.821 12.6865C148.688 12.4715 148.622 12.2262 148.622 11.9505C148.622 11.6528 148.7 11.3992 148.854 11.1897C149.014 10.9746 149.226 10.812 149.491 10.7017C149.755 10.5914 150.048 10.5363 150.367 10.5363C150.632 10.5363 150.863 10.5611 151.062 10.6108C151.266 10.6604 151.42 10.7128 151.525 10.7679V10.5446C151.525 10.2689 151.426 10.0484 151.227 9.883C151.029 9.7176 150.772 9.6349 150.458 9.6349C150.243 9.6349 150.039 9.68452 149.846 9.78376C149.654 9.8775 149.499 10.0071 149.383 10.1725L148.771 9.70106C148.953 9.44746 149.193 9.24898 149.491 9.10562C149.794 8.95676 150.125 8.88233 150.483 8.88233C151.095 8.88233 151.566 9.03396 151.897 9.33718C152.228 9.6349 152.393 10.0539 152.393 10.5942V13.2324H151.525V12.7113H151.475C151.365 12.8822 151.2 13.0339 150.979 13.1662C150.759 13.2985 150.494 13.3647 150.185 13.3647ZM150.342 12.6369C150.574 12.6369 150.778 12.5818 150.954 12.4715C151.131 12.3612 151.269 12.2179 151.368 12.0415C151.473 11.8595 151.525 11.6638 151.525 11.4543C151.398 11.3826 151.25 11.3248 151.078 11.2806C150.908 11.231 150.726 11.2062 150.533 11.2062C150.169 11.2062 149.91 11.2806 149.755 11.4295C149.601 11.5729 149.524 11.7493 149.524 11.9588C149.524 12.1573 149.598 12.3199 149.747 12.4467C149.896 12.5735 150.094 12.6369 150.342 12.6369ZM153.385 13.2324V7.31103H154.278V13.2324H153.385ZM155.34 13.2324V7.31103H156.233V13.2324H155.34ZM159.172 13.3647C158.759 13.3647 158.389 13.2682 158.064 13.0752C157.739 12.8822 157.482 12.6176 157.295 12.2813C157.113 11.945 157.022 11.5618 157.022 11.1318C157.022 10.7293 157.11 10.3572 157.287 10.0153C157.463 9.67348 157.709 9.40057 158.023 9.19659C158.342 8.98707 158.709 8.88233 159.123 8.88233C159.558 8.88233 159.927 8.97607 160.231 9.16351C160.539 9.35095 160.774 9.60732 160.934 9.93262C161.093 10.2579 161.174 10.6245 161.174 11.0325C161.174 11.0932 161.171 11.1483 161.165 11.1979C161.165 11.2476 161.162 11.2861 161.157 11.3137H157.899C157.943 11.7327 158.089 12.047 158.337 12.2565C158.59 12.466 158.877 12.5708 159.197 12.5708C159.484 12.5708 159.721 12.5074 159.908 12.3805C160.096 12.2482 160.244 12.0856 160.355 11.8926L161.091 12.2482C160.909 12.579 160.661 12.8492 160.347 13.0587C160.032 13.2627 159.641 13.3647 159.172 13.3647ZM159.131 9.64317C158.833 9.64317 158.579 9.73414 158.37 9.91608C158.16 10.098 158.02 10.3406 157.948 10.6438H160.289C160.278 10.5005 160.231 10.3516 160.148 10.1973C160.065 10.0429 159.939 9.91331 159.768 9.80857C159.602 9.69829 159.39 9.64317 159.131 9.64317ZM162.328 12.0084V9.79203H161.592V9.01465H162.328V7.82377H163.221V9.01465H164.255V9.79203H163.221V11.8182C163.221 12.0277 163.262 12.1876 163.345 12.2978C163.433 12.4081 163.579 12.4632 163.783 12.4632C163.888 12.4632 163.976 12.4495 164.048 12.4219C164.125 12.3943 164.202 12.3557 164.279 12.3061V13.1745C164.186 13.213 164.086 13.2434 163.982 13.2654C163.877 13.2875 163.753 13.2985 163.61 13.2985C163.218 13.2985 162.907 13.1855 162.675 12.9594C162.443 12.7279 162.328 12.4109 162.328 12.0084Z" fill="white"/>
<path d="M163.333 0.207031H10.3378C4.74272 0.207031 0.207031 4.74272 0.207031 10.3378C0.207031 15.9328 4.74272 20.4685 10.3378 20.4685H163.333C168.928 20.4685 173.464 15.9328 173.464 10.3378C173.464 4.74272 168.928 0.207031 163.333 0.207031Z" stroke="#747775"/>
</g>
<defs>
<linearGradient id="paint0_linear_568_592" x1="14.2949" y1="12.7304" x2="7.74532" y2="20.2259" gradientUnits="userSpaceOnUse">
<stop stop-color="#4285F4"/>
<stop offset="1" stop-color="#1B74E8"/>
</linearGradient>
<clipPath id="clip0_568_592">
<rect width="173.67" height="20.675" fill="white"/>
</clipPath>
</defs>
</svg>
