<svg width="174" height="22" viewBox="0 0 174 22" fill="none" xmlns="http://www.w3.org/2000/svg">
<g clip-path="url(#clip0_568_843)">
<path d="M162.79 0.217773H10.8827C4.99316 0.217773 0.21875 4.99219 0.21875 10.8817C0.21875 16.7713 4.99316 21.5457 10.8827 21.5457H162.79C168.679 21.5457 173.453 16.7713 173.453 10.8817C173.453 4.99219 168.679 0.217773 162.79 0.217773Z" fill="#1F1F1F"/>
<path d="M162.79 0.217773H10.8827C4.99316 0.217773 0.21875 4.99219 0.21875 10.8817C0.21875 16.7713 4.99316 21.5457 10.8827 21.5457H162.79C168.679 21.5457 173.453 16.7713 173.453 10.8817C173.453 4.99219 168.679 0.217773 162.79 0.217773Z" stroke="#747775"/>
<path d="M22.1985 9.57626H9.14062V7.39995C9.14062 6.21851 10.099 5.22363 11.2371 5.22363H20.1021C21.2402 5.22363 22.1985 6.21851 22.1985 7.39995V9.57626Z" fill="#34A853"/>
<path d="M22.1985 11.3399H9.14062V9.16362C9.14062 7.98219 10.099 6.9873 11.2371 6.9873H20.1021C21.2402 6.9873 22.1985 7.98219 22.1985 9.16362V11.3399Z" fill="#FBBC04"/>
<path d="M22.1985 13.1651H9.14062V10.9888C9.14062 9.80738 10.099 8.8125 11.2371 8.8125H20.1021C21.2402 8.8125 22.1985 9.80738 22.1985 10.9888V13.1651Z" fill="#EA4335"/>
<path d="M9.14062 10.1305L17.4285 12.0473C18.3825 12.2869 19.4558 12.0473 20.2309 11.4483L22.1985 10.0107V14.5031C22.1985 15.6412 21.2445 16.5397 20.1117 16.5397H11.2275C10.0946 16.5397 9.14062 15.6412 9.14062 14.5031V10.1305Z" fill="#4285F4"/>
<path d="M31.077 14.0682C30.6301 14.0682 30.2094 13.9869 29.8147 13.8244C29.4201 13.6619 29.0718 13.4356 28.7701 13.1454C28.4741 12.8494 28.2391 12.5041 28.065 12.1095C27.8966 11.7091 27.8125 11.2767 27.8125 10.8124C27.8125 10.3481 27.8966 9.91868 28.065 9.52403C28.2391 9.12359 28.4741 8.77829 28.7701 8.4881C29.0718 8.19212 29.4201 7.96287 29.8147 7.80039C30.2094 7.6379 30.6301 7.55664 31.077 7.55664C31.5528 7.55664 31.991 7.64078 32.3915 7.80909C32.7977 7.97741 33.1372 8.21245 33.41 8.51422L32.7484 9.16711C32.6149 9.01621 32.4611 8.88855 32.287 8.78408C32.1187 8.67962 31.933 8.60127 31.7299 8.54904C31.5267 8.49102 31.3091 8.46199 31.077 8.46199C30.7694 8.46199 30.4763 8.51714 30.1977 8.62739C29.9192 8.73764 29.6725 8.89725 29.4578 9.10618C29.2489 9.30931 29.0835 9.55593 28.9616 9.84612C28.8397 10.1305 28.7788 10.4526 28.7788 10.8124C28.7788 11.1722 28.8397 11.4972 28.9616 11.7874C29.0893 12.0718 29.2576 12.3184 29.4665 12.5273C29.6812 12.7305 29.9279 12.8872 30.2064 12.9974C30.485 13.1077 30.7781 13.1628 31.0857 13.1628C31.37 13.1628 31.6341 13.1222 31.8779 13.041C32.1274 12.9597 32.345 12.8437 32.5308 12.6927C32.7165 12.5418 32.8673 12.359 32.9834 12.1443C33.0995 11.9238 33.172 11.6771 33.2011 11.4044H31.0683V10.56H34.0977C34.1093 10.6296 34.1209 10.7109 34.1325 10.8037C34.1441 10.8908 34.1499 10.9749 34.1499 11.0562V11.0649C34.1499 11.5117 34.0716 11.9209 33.9149 12.2923C33.764 12.6637 33.5522 12.9829 33.2794 13.2499C33.0066 13.511 32.6817 13.7142 32.3044 13.8593C31.933 13.9985 31.5239 14.0682 31.077 14.0682ZM36.9529 14.0682C36.4945 14.0682 36.0911 13.9637 35.7429 13.7548C35.3947 13.5459 35.122 13.2644 34.9246 12.9104C34.7273 12.5505 34.6286 12.1501 34.6286 11.7091C34.6286 11.268 34.7273 10.8704 34.9246 10.5164C35.122 10.1566 35.3947 9.87224 35.7429 9.66331C36.0911 9.45439 36.4945 9.34992 36.9529 9.34992C37.4056 9.34992 37.8061 9.4573 38.1543 9.67202C38.5025 9.88095 38.7753 10.1624 38.9726 10.5164C39.1699 10.8704 39.2685 11.268 39.2685 11.7091C39.2685 12.1501 39.1699 12.5505 38.9726 12.9104C38.7753 13.2644 38.5025 13.5459 38.1543 13.7548C37.8061 13.9637 37.4056 14.0682 36.9529 14.0682ZM36.9529 13.2064C37.1967 13.2064 37.423 13.1483 37.6319 13.0323C37.8409 12.9104 38.0092 12.7392 38.1369 12.5186C38.2703 12.2923 38.3371 12.0224 38.3371 11.7091C38.3371 11.3957 38.2703 11.1287 38.1369 10.9082C38.0092 10.6818 37.8409 10.5106 37.6319 10.3946C37.423 10.2727 37.1967 10.2117 36.9529 10.2117C36.7092 10.2117 36.48 10.2727 36.2652 10.3946C36.0563 10.5106 35.8851 10.6818 35.7516 10.9082C35.624 11.1287 35.5601 11.3957 35.5601 11.7091C35.5601 12.0224 35.624 12.2923 35.7516 12.5186C35.8851 12.7392 36.0592 12.9104 36.2739 13.0323C36.4887 13.1483 36.715 13.2064 36.9529 13.2064ZM42.2237 14.0682C41.7653 14.0682 41.3619 13.9637 41.0137 13.7548C40.6655 13.5459 40.3927 13.2644 40.1954 12.9104C39.9981 12.5505 39.8994 12.1501 39.8994 11.7091C39.8994 11.268 39.9981 10.8704 40.1954 10.5164C40.3927 10.1566 40.6655 9.87224 41.0137 9.66331C41.3619 9.45439 41.7653 9.34992 42.2237 9.34992C42.6764 9.34992 43.0768 9.4573 43.425 9.67202C43.7732 9.88095 44.0461 10.1624 44.2432 10.5164C44.4409 10.8704 44.5392 11.268 44.5392 11.7091C44.5392 12.1501 44.4409 12.5505 44.2432 12.9104C44.0461 13.2644 43.7732 13.5459 43.425 13.7548C43.0768 13.9637 42.6764 14.0682 42.2237 14.0682ZM42.2237 13.2064C42.4675 13.2064 42.6938 13.1483 42.9027 13.0323C43.1117 12.9104 43.28 12.7392 43.4076 12.5186C43.5412 12.2923 43.6078 12.0224 43.6078 11.7091C43.6078 11.3957 43.5412 11.1287 43.4076 10.9082C43.28 10.6818 43.1117 10.5106 42.9027 10.3946C42.6938 10.2727 42.4675 10.2117 42.2237 10.2117C41.98 10.2117 41.7508 10.2727 41.536 10.3946C41.3271 10.5106 41.1559 10.6818 41.0224 10.9082C40.8947 11.1287 40.8309 11.3957 40.8309 11.7091C40.8309 12.0224 40.8947 12.2923 41.0224 12.5186C41.1559 12.7392 41.33 12.9104 41.5447 13.0323C41.7595 13.1483 41.9858 13.2064 42.2237 13.2064ZM47.4076 15.9485C47.0185 15.9485 46.682 15.8847 46.3978 15.757C46.1192 15.6351 45.8929 15.4755 45.7188 15.2782C45.5447 15.0867 45.4198 14.8894 45.3445 14.6863L46.215 14.3206C46.3077 14.5528 46.4557 14.7414 46.659 14.8865C46.8679 15.0374 47.1173 15.1128 47.4076 15.1128C47.8194 15.1128 48.1415 14.9909 48.3739 14.7472C48.6059 14.5034 48.7221 14.1581 48.7221 13.7113V13.2847H48.6699C48.5306 13.4878 48.3391 13.6532 48.0953 13.7809C47.8516 13.9086 47.57 13.9724 47.2509 13.9724C46.8735 13.9724 46.5253 13.8767 46.2063 13.6851C45.8929 13.4936 45.6404 13.2267 45.4489 12.8843C45.2631 12.5361 45.1704 12.1298 45.1704 11.6655C45.1704 11.1954 45.2631 10.7892 45.4489 10.4468C45.6404 10.0986 45.8929 9.82871 46.2063 9.6372C46.5253 9.44568 46.8735 9.34992 47.2509 9.34992C47.57 9.34992 47.8516 9.41378 48.0953 9.54144C48.3391 9.66331 48.5306 9.83163 48.6699 10.0463H48.7221V9.48921H49.6187V13.6939C49.6187 14.1756 49.523 14.5847 49.3315 14.9213C49.1456 15.2579 48.8875 15.5133 48.5567 15.6874C48.2259 15.8615 47.8429 15.9485 47.4076 15.9485ZM47.4163 13.1193C47.6483 13.1193 47.8629 13.0642 48.0605 12.9539C48.2633 12.8378 48.4231 12.6724 48.5393 12.4577C48.6612 12.2372 48.7221 11.9731 48.7221 11.6655C48.7221 11.3405 48.6612 11.0707 48.5393 10.8559C48.4231 10.6412 48.2633 10.4787 48.0605 10.3684C47.8629 10.2582 47.6483 10.203 47.4163 10.203C47.1839 10.203 46.9663 10.2582 46.7634 10.3684C46.5658 10.4787 46.4065 10.6441 46.2846 10.8646C46.1628 11.0794 46.1018 11.3463 46.1018 11.6655C46.1018 11.9789 46.1628 12.2459 46.2846 12.4664C46.4065 12.6811 46.5658 12.8437 46.7634 12.9539C46.9663 13.0642 47.1839 13.1193 47.4163 13.1193ZM50.7274 13.9289V7.69592H51.6675V13.9289H50.7274ZM54.7618 14.0682C54.3266 14.0682 53.9374 13.9666 53.5953 13.7635C53.2528 13.5604 52.9829 13.2818 52.7857 12.9278C52.5942 12.5738 52.4984 12.1704 52.4984 11.7178C52.4984 11.2941 52.5912 10.9024 52.777 10.5425C52.9624 10.1827 53.221 9.89544 53.5518 9.68072C53.8882 9.46018 54.2743 9.34992 54.7096 9.34992C55.1679 9.34992 55.5566 9.4486 55.8761 9.6459C56.2008 9.84321 56.4476 10.1131 56.616 10.4555C56.784 10.7979 56.8685 11.1838 56.8685 11.6133C56.8685 11.6771 56.8654 11.7352 56.8598 11.7874C56.8598 11.8396 56.8567 11.8802 56.8511 11.9093H53.4212C53.4443 12.153 53.5052 12.3649 53.604 12.5448C53.7315 12.7711 53.9 12.9423 54.1089 13.0584C54.3179 13.1745 54.5442 13.2325 54.7879 13.2325C55.0839 13.2325 55.3303 13.1657 55.5279 13.0323C55.7307 12.893 55.8905 12.7218 56.0067 12.5186L56.7814 12.893C56.5899 13.2412 56.3288 13.5255 55.998 13.7461C55.6672 13.9608 55.255 14.0682 54.7618 14.0682ZM53.4734 11.2041H55.937C55.9309 11.0939 55.9022 10.9778 55.85 10.8559C55.7977 10.7283 55.722 10.6122 55.6236 10.5077C55.5248 10.4033 55.3999 10.3191 55.2493 10.2553C55.0983 10.1856 54.9211 10.1508 54.7183 10.1508C54.4628 10.1508 54.2365 10.2175 54.0393 10.351C53.8417 10.4787 53.688 10.6586 53.5779 10.8908C53.5313 10.9894 53.4965 11.0939 53.4734 11.2041ZM60.6949 13.9289L59.0235 7.69592H60.0855L61.0779 11.7439L61.1824 12.2836H61.2346L61.3652 11.7439L62.6188 7.69592H63.5763L64.7777 11.7439L64.9082 12.2749H64.9605L65.0649 11.7439L66.0573 7.69592H67.1107L65.4654 13.9289H64.4556L63.2629 9.79389L63.1237 9.21064H63.0714L62.9234 9.79389L61.6786 13.9289H60.6949ZM68.8587 14.0682C68.5396 14.0682 68.2554 14.0043 68.0056 13.8767C67.7618 13.749 67.5677 13.5749 67.4223 13.3543C67.283 13.128 67.2134 12.8698 67.2134 12.5796C67.2134 12.2604 67.2948 11.9905 67.4571 11.77C67.6256 11.5494 67.8489 11.3812 68.1274 11.2651C68.406 11.149 68.7137 11.091 69.0502 11.091C69.2361 11.091 69.4071 11.1055 69.5638 11.1345C69.7266 11.1577 69.8659 11.1867 69.9817 11.2216C70.1035 11.2564 70.1993 11.2941 70.2689 11.3347V11.0997C70.2689 10.8095 70.1645 10.5774 69.9555 10.4033C69.7466 10.2292 69.4768 10.1421 69.146 10.1421C68.9196 10.1421 68.705 10.1943 68.5018 10.2988C68.2989 10.3975 68.1361 10.5338 68.0143 10.7079L67.3701 10.2117C67.4981 10.0319 67.6517 9.87803 67.8315 9.75037C68.0173 9.6227 68.2232 9.52403 68.4495 9.45439C68.682 9.38475 68.9227 9.34992 69.1721 9.34992C69.8163 9.34992 70.3125 9.50954 70.6607 9.82871C71.0089 10.1421 71.183 10.5832 71.183 11.1519V13.9289H70.2689V13.3805H70.2167C70.1414 13.4965 70.0369 13.6068 69.9033 13.7113C69.7758 13.8157 69.6221 13.8999 69.4419 13.9637C69.2678 14.0334 69.0737 14.0682 68.8587 14.0682ZM69.0241 13.3021C69.2678 13.3021 69.4829 13.2441 69.6683 13.128C69.8598 13.0119 70.0078 12.8611 70.1122 12.6753C70.2167 12.4838 70.2689 12.2778 70.2689 12.0573C70.1414 11.9818 69.9847 11.9209 69.7989 11.8745C69.6191 11.8222 69.4276 11.7961 69.2243 11.7961C68.8413 11.7961 68.5688 11.8715 68.406 12.0224C68.2437 12.1733 68.1623 12.3619 68.1623 12.5883C68.1623 12.7972 68.2406 12.9684 68.3973 13.1019C68.554 13.2354 68.7629 13.3021 69.0241 13.3021ZM72.2268 13.9289V7.69592H73.1669V13.9289H72.2268ZM74.2842 13.9289V7.69592H75.2244V13.9289H74.2842ZM78.3187 14.0682C77.8834 14.0682 77.4943 13.9666 77.1522 13.7635C76.8096 13.5604 76.5398 13.2818 76.3426 12.9278C76.1511 12.5738 76.0553 12.1704 76.0553 11.7178C76.0553 11.2941 76.148 10.9024 76.3339 10.5425C76.5193 10.1827 76.7779 9.89544 77.1087 9.68072C77.4451 9.46018 77.8312 9.34992 78.2665 9.34992C78.7248 9.34992 79.1135 9.4486 79.433 9.6459C79.7577 9.84321 80.0045 10.1131 80.1729 10.4555C80.3409 10.7979 80.4254 11.1838 80.4254 11.6133C80.4254 11.6771 80.4223 11.7352 80.4167 11.7874C80.4167 11.8396 80.4136 11.8802 80.408 11.9093H76.9781C77.0012 12.153 77.0621 12.3649 77.1609 12.5448C77.2884 12.7711 77.4569 12.9423 77.6658 13.0584C77.8747 13.1745 78.1011 13.2325 78.3448 13.2325C78.6408 13.2325 78.8871 13.1657 79.0848 13.0323C79.2876 12.893 79.4473 12.7218 79.5635 12.5186L80.3383 12.893C80.1468 13.2412 79.8856 13.5255 79.5548 13.7461C79.224 13.9608 78.8119 14.0682 78.3187 14.0682ZM77.0303 11.2041H79.4939C79.4878 11.0939 79.4591 10.9778 79.4069 10.8559C79.3546 10.7283 79.2789 10.6122 79.1805 10.5077C79.0817 10.4033 78.9568 10.3191 78.8062 10.2553C78.6552 10.1856 78.478 10.1508 78.2752 10.1508C78.0197 10.1508 77.7933 10.2175 77.5962 10.351C77.3985 10.4787 77.2449 10.6586 77.1348 10.8908C77.0882 10.9894 77.0534 11.0939 77.0303 11.2041ZM80.8654 9.48921H81.6402V8.23565H82.5804V9.48921H83.6685V10.3075H82.5804V12.4403C82.5804 12.6608 82.6239 12.8291 82.7109 12.9452C82.8036 13.0613 82.9573 13.1193 83.1723 13.1193C83.2768 13.1193 83.3695 13.1048 83.4509 13.0758C83.5318 13.041 83.6132 13.0003 83.6946 12.9539V13.868C83.5958 13.9086 83.4914 13.9405 83.3812 13.9637C83.2707 13.9869 83.1401 13.9985 82.9895 13.9985C82.5773 13.9985 82.2496 13.8796 82.0058 13.6416C81.7621 13.3979 81.6402 13.0642 81.6402 12.6405V10.3075H80.8654V9.48921Z" fill="white"/>
<path d="M89.5953 14.4594C89.0904 14.4594 88.6669 14.3897 88.3243 14.2504C87.9818 14.1112 87.7062 13.9254 87.4973 13.6933C87.2941 13.4553 87.1461 13.1913 87.0533 12.9011C86.9606 12.6109 86.9141 12.315 86.9141 12.0132C86.9141 11.5141 87.0303 11.0788 87.2623 10.7074C87.5004 10.3302 87.8312 10.04 88.2547 9.83687C88.6843 9.62795 89.1892 9.52348 89.7694 9.52348C90.199 9.52348 90.582 9.55251 90.9185 9.61053C91.2549 9.66855 91.5857 9.76144 91.9109 9.8891L91.6758 10.542C91.345 10.4085 91.0317 10.3186 90.7357 10.2721C90.4454 10.2257 90.1233 10.2025 89.7694 10.2025C89.3746 10.2025 89.0151 10.2634 88.6899 10.3853C88.3709 10.5072 88.1154 10.7016 87.9239 10.9686C87.7324 11.2355 87.6366 11.5837 87.6366 12.0132C87.6366 12.3034 87.6975 12.5819 87.8194 12.8489C87.9469 13.1101 88.1533 13.3219 88.4375 13.4844C88.7217 13.6469 89.1078 13.7281 89.5953 13.7281C90.0131 13.7281 90.3439 13.6788 90.5877 13.5801C90.8314 13.4757 91.0055 13.3364 91.11 13.1623C91.2201 12.9882 91.2754 12.7937 91.2754 12.579C91.2754 12.3933 91.2288 12.2134 91.1361 12.0393C91.0491 11.8652 90.875 11.7346 90.6138 11.6476C90.6486 11.723 90.6717 11.8013 90.6834 11.8826C90.7009 11.958 90.7096 12.0306 90.7096 12.1002C90.7096 12.4484 90.6081 12.6951 90.4049 12.8402C90.2016 12.9795 89.9465 13.0491 89.6388 13.0491C89.3198 13.0491 89.0525 12.9621 88.8379 12.788C88.6233 12.6081 88.5158 12.3469 88.5158 12.0045C88.5158 11.6679 88.6464 11.4067 88.9076 11.221C89.1687 11.0295 89.5113 10.9337 89.9348 10.9337C90.3992 10.9337 90.7822 11.0092 91.0839 11.1601C91.3855 11.311 91.6093 11.5112 91.7542 11.7607C91.9052 12.0103 91.9805 12.2888 91.9805 12.5964C91.9805 12.9504 91.8991 13.2697 91.7368 13.554C91.5744 13.8326 91.3189 14.0531 90.9707 14.2156C90.6225 14.3781 90.1642 14.4594 89.5953 14.4594ZM89.2123 12.0132C89.2123 12.1119 89.244 12.2018 89.308 12.283C89.372 12.3643 89.4791 12.4049 89.6301 12.4049C89.7694 12.4049 89.8708 12.3701 89.9348 12.3005C90.0044 12.225 90.0393 12.1234 90.0393 11.9958C90.0393 11.9319 90.0306 11.8623 90.0131 11.7869C90.0014 11.7056 89.9753 11.6302 89.9348 11.5605H89.8913C89.6649 11.5605 89.4939 11.6011 89.3777 11.6824C89.2675 11.7637 89.2123 11.8739 89.2123 12.0132ZM95.3804 14.4594C94.4807 14.4594 93.7786 14.2562 93.2737 13.85C92.7744 13.4438 92.525 12.8924 92.525 12.196C92.525 11.9232 92.5742 11.6737 92.673 11.4473C92.7775 11.2152 92.9342 11.0208 93.1431 10.8641C93.3403 10.7132 93.5988 10.6 93.9179 10.5246C94.2369 10.4433 94.6461 10.4027 95.1453 10.4027H95.5109C95.4992 10.1706 95.4269 9.99357 95.2933 9.87169C95.1658 9.74982 94.9943 9.68888 94.7797 9.68888C94.3793 9.68888 94.179 9.84558 94.179 10.159C94.179 10.188 94.179 10.2141 94.179 10.2373C94.1847 10.2605 94.1908 10.2866 94.1965 10.3157L93.4826 10.4114C93.477 10.365 93.4683 10.3099 93.4565 10.246C93.4508 10.1822 93.4478 10.1184 93.4478 10.0545C93.4478 9.71791 93.561 9.46546 93.7873 9.29715C94.0136 9.12304 94.324 9.03599 94.7188 9.03599C95.2119 9.03599 95.5862 9.18106 95.8417 9.47125C96.1029 9.76144 96.2335 10.1793 96.2335 10.7248V11.0556H95.154C94.7244 11.0556 94.3967 11.0846 94.1703 11.1427C93.944 11.1949 93.7612 11.2732 93.6219 11.3777C93.4883 11.4822 93.3925 11.607 93.3346 11.752C93.2824 11.8913 93.2563 12.0451 93.2563 12.2134C93.2563 12.6661 93.436 13.023 93.796 13.2842C94.1616 13.5453 94.6839 13.6759 95.363 13.6759C95.9201 13.6759 96.3871 13.5918 96.7645 13.4234C97.1475 13.2551 97.4522 13.0317 97.6786 12.7531C97.9049 12.4688 98.0673 12.1525 98.1661 11.8043C98.2649 11.4561 98.314 11.1021 98.314 10.7422C98.314 10.1735 98.23 9.7005 98.0616 9.32326C97.8931 8.94602 97.6699 8.64425 97.3913 8.41791C97.1127 8.19158 96.805 8.03197 96.4685 7.93912C96.1321 7.84045 95.7952 7.79113 95.4587 7.79113C94.9595 7.79113 94.5042 7.85499 94.092 7.98265C93.6798 8.11031 93.2942 8.27863 92.9342 8.48756L92.6121 7.83466C93.0299 7.60253 93.477 7.41972 93.9527 7.28623C94.4284 7.15273 94.9482 7.08601 95.5109 7.08601C95.9754 7.08601 96.4193 7.15565 96.8429 7.29493C97.2725 7.42843 97.6524 7.64314 97.9832 7.93912C98.3197 8.22931 98.5839 8.60651 98.7754 9.07081C98.9669 9.5351 99.0627 10.0922 99.0627 10.7422C99.0627 11.2529 98.9931 11.7317 98.8538 12.1786C98.7201 12.6255 98.5056 13.0201 98.2096 13.3625C97.9193 13.7049 97.5393 13.9748 97.0692 14.1721C96.6048 14.3636 96.042 14.4594 95.3804 14.4594ZM102.669 14.4594C102.263 14.4594 101.895 14.3984 101.564 14.2766C101.239 14.1547 100.977 13.9632 100.78 13.702C100.589 13.4351 100.493 13.0897 100.493 12.6661V12.64L100.197 13.1449L99.5528 12.7793C99.8836 12.3208 100.206 11.8942 100.519 11.4996C100.832 11.1049 101.146 10.7538 101.459 10.4462C101.413 10.2721 101.34 10.1329 101.242 10.0284C101.149 9.91814 101.024 9.86299 100.867 9.86299C100.536 9.86299 100.371 10.0429 100.371 10.4027C100.371 10.484 100.38 10.5623 100.397 10.6378C100.415 10.7132 100.435 10.7887 100.458 10.8641L99.7443 11.0034C99.7095 10.8873 99.6803 10.7713 99.6573 10.6552C99.6399 10.5391 99.6312 10.4259 99.6312 10.3157C99.6312 9.96166 99.7413 9.68888 99.9619 9.49737C100.183 9.30585 100.479 9.21009 100.85 9.21009C101.152 9.21009 101.395 9.28265 101.581 9.42772C101.767 9.5728 101.909 9.75273 102.008 9.96745C102.385 9.66568 102.782 9.43643 103.2 9.27973C103.618 9.11725 104.068 9.03599 104.55 9.03599C105.171 9.03599 105.696 9.15494 106.125 9.3929C106.555 9.63086 106.877 9.96453 107.092 10.394C107.312 10.8176 107.422 11.311 107.422 11.8739C107.422 12.4194 107.324 12.8808 107.126 13.258C106.935 13.6294 106.671 13.9109 106.334 14.1025C105.998 14.294 105.623 14.3897 105.211 14.3897C105.142 14.3897 105.075 14.3868 105.011 14.381C104.947 14.381 104.886 14.3781 104.828 14.3723L104.863 13.6759C104.956 13.6875 105.043 13.6933 105.124 13.6933C105.502 13.6933 105.803 13.612 106.03 13.4496C106.256 13.2871 106.418 13.0665 106.517 12.788C106.621 12.5094 106.674 12.1989 106.674 11.8565C106.674 11.1717 106.477 10.6552 106.082 10.307C105.693 9.95296 105.171 9.77593 104.515 9.77593C104.062 9.77593 103.653 9.84849 103.287 9.99357C102.922 10.1386 102.588 10.3273 102.286 10.5594C102.391 10.5362 102.507 10.5159 102.634 10.4985C102.762 10.4753 102.893 10.4637 103.026 10.4637C103.705 10.4637 104.216 10.6348 104.558 10.9773C104.907 11.3197 105.081 11.7839 105.081 12.3701C105.081 12.6196 105.046 12.8692 104.976 13.1188C104.907 13.3625 104.785 13.5859 104.611 13.7891C104.436 13.9922 104.19 14.1547 103.871 14.2766C103.557 14.3984 103.157 14.4594 102.669 14.4594ZM101.155 12.5442C101.155 12.9389 101.288 13.229 101.555 13.4147C101.828 13.5946 102.205 13.6846 102.687 13.6846C103.279 13.6846 103.702 13.5656 103.958 13.3277C104.219 13.0897 104.349 12.7676 104.349 12.3614C104.349 11.9319 104.213 11.6185 103.94 11.4212C103.667 11.2239 103.299 11.1253 102.835 11.1253C102.585 11.1253 102.359 11.1397 102.156 11.1688C101.959 11.1978 101.758 11.25 101.555 11.3255C101.439 11.459 101.323 11.5953 101.207 11.7346C101.097 11.8681 100.989 12.0045 100.885 12.1438L101.198 12.1612C101.169 12.2773 101.155 12.4049 101.155 12.5442ZM115.283 14.4594C114.679 14.4594 114.174 14.3723 113.768 14.1982C113.362 14.0183 113.054 13.7717 112.845 13.4583C112.642 13.1449 112.541 12.785 112.541 12.3788C112.541 11.7752 112.776 11.3255 113.246 11.0295C113.112 11.0411 112.982 11.0498 112.854 11.0556C112.732 11.0556 112.628 11.0556 112.541 11.0556H112.332V10.4027H115.309C115.291 10.1706 115.219 9.99357 115.091 9.87169C114.964 9.74982 114.792 9.68888 114.578 9.68888C114.177 9.68888 113.977 9.83108 113.977 10.1154C113.977 10.156 113.98 10.188 113.986 10.2112L113.254 10.246C113.249 10.217 113.243 10.1822 113.237 10.1416C113.237 10.1009 113.237 10.0661 113.237 10.0371C113.237 9.70629 113.35 9.45676 113.577 9.28844C113.809 9.12012 114.122 9.03599 114.517 9.03599C115.016 9.03599 115.393 9.18106 115.648 9.47125C115.904 9.76144 116.031 10.1793 116.031 10.7248V11.0556H115.257C114.81 11.0556 114.47 11.0817 114.238 11.134C114.012 11.1862 113.817 11.2762 113.655 11.4038C113.399 11.5953 113.272 11.8971 113.272 12.3092C113.272 12.7038 113.434 13.0317 113.759 13.2929C114.084 13.5482 114.592 13.6759 115.283 13.6759C115.84 13.6759 116.307 13.5946 116.684 13.4321C117.067 13.2697 117.372 13.052 117.598 12.7793C117.825 12.5007 117.987 12.196 118.086 11.8652C118.185 11.5286 118.234 11.1862 118.234 10.838C118.234 10.2983 118.129 9.81946 117.92 9.40161C117.799 9.52927 117.654 9.63665 117.485 9.7237C117.323 9.81076 117.131 9.85428 116.911 9.85428C116.202 9.85428 115.849 9.42772 115.849 8.57461C115.849 8.34827 115.843 8.17708 115.831 8.061C115.819 7.93912 115.796 7.85207 115.762 7.79984C115.727 7.74182 115.68 7.69829 115.622 7.66926L115.596 7.66056L115.875 7.04248C116.873 7.36749 117.642 7.85786 118.182 8.51367C118.721 9.16365 118.991 9.94712 118.991 10.8641C118.991 11.3516 118.922 11.813 118.782 12.2482C118.649 12.6777 118.434 13.0607 118.138 13.3973C117.842 13.7281 117.459 13.9893 116.989 14.1808C116.519 14.3665 115.95 14.4594 115.283 14.4594ZM116.536 8.59202C116.548 8.80673 116.586 8.96343 116.65 9.0621C116.713 9.15494 116.829 9.20139 116.998 9.20139C117.218 9.20139 117.404 9.08822 117.555 8.86188C117.41 8.68778 117.241 8.53108 117.05 8.3918C116.864 8.25251 116.658 8.12485 116.432 8.00877C116.467 8.0842 116.49 8.17125 116.502 8.26992C116.519 8.3686 116.531 8.47593 116.536 8.59202ZM124.12 14.4594C123.812 14.4594 123.557 14.3926 123.354 14.2591C123.151 14.1199 122.985 13.9428 122.858 13.7281C122.718 13.9719 122.55 14.1547 122.353 14.2766C122.155 14.3984 121.914 14.4594 121.63 14.4594C121.404 14.4594 121.183 14.4101 120.969 14.3114C120.76 14.2127 120.586 14.0531 120.446 13.8326C120.313 13.6063 120.246 13.3074 120.246 12.9359C120.246 12.9243 120.246 12.9185 120.246 12.9185L120.116 13.1449L119.471 12.7793C119.86 12.2453 120.205 11.7985 120.507 11.4386C120.815 11.073 121.111 10.7567 121.395 10.4898C121.343 10.304 121.267 10.1532 121.169 10.0371C121.076 9.92101 120.948 9.86299 120.786 9.86299C120.455 9.86299 120.29 10.0429 120.29 10.4027C120.29 10.484 120.298 10.5623 120.316 10.6378C120.333 10.7132 120.353 10.7887 120.377 10.8641L119.663 11.0034C119.628 10.8873 119.599 10.7713 119.576 10.6552C119.558 10.5391 119.55 10.4259 119.55 10.3157C119.55 9.96166 119.66 9.68888 119.88 9.49737C120.101 9.30585 120.397 9.21009 120.768 9.21009C121.082 9.21009 121.331 9.28844 121.517 9.44513C121.709 9.59604 121.854 9.78756 121.952 10.0197C122.266 9.77593 122.573 9.5815 122.875 9.43643C123.177 9.29136 123.49 9.18977 123.815 9.13174C124.146 9.06789 124.506 9.03599 124.895 9.03599C125.545 9.03599 126.087 9.15786 126.523 9.40161C126.963 9.63957 127.294 9.97616 127.515 10.4114C127.741 10.8409 127.854 11.3429 127.854 11.9174C127.854 12.434 127.767 12.8779 127.593 13.2493C127.419 13.615 127.181 13.8964 126.879 14.0937C126.577 14.2911 126.229 14.3897 125.835 14.3897C125.783 14.3897 125.722 14.3868 125.652 14.381C125.582 14.381 125.524 14.3752 125.478 14.3636L125.513 13.6759C125.548 13.6817 125.585 13.6875 125.626 13.6933C125.666 13.6933 125.707 13.6933 125.748 13.6933C126.079 13.6933 126.342 13.612 126.54 13.4496C126.743 13.2871 126.888 13.0723 126.975 12.8054C127.062 12.5384 127.106 12.2482 127.106 11.9348C127.106 11.2326 126.903 10.6987 126.496 10.3331C126.09 9.96166 125.533 9.77593 124.825 9.77593C124.262 9.77593 123.769 9.84849 123.345 9.99357C122.927 10.1328 122.538 10.3447 122.179 10.6291C122.306 10.5826 122.454 10.5449 122.623 10.5159C122.791 10.4811 122.976 10.4637 123.18 10.4637C123.94 10.4637 124.535 10.6494 124.964 11.0208C125.4 11.3922 125.617 11.9319 125.617 12.64C125.617 12.9882 125.559 13.2986 125.443 13.5714C125.333 13.8442 125.167 14.0618 124.947 14.2243C124.726 14.381 124.451 14.4594 124.12 14.4594ZM123.188 12.5094C123.188 12.8634 123.258 13.1478 123.397 13.3625C123.537 13.5772 123.76 13.6846 124.068 13.6846C124.369 13.6846 124.581 13.5859 124.703 13.3886C124.825 13.1913 124.886 12.9447 124.886 12.6487C124.886 12.1786 124.732 11.8072 124.425 11.5344C124.117 11.2616 123.65 11.1253 123.023 11.1253C122.704 11.1253 122.428 11.1427 122.196 11.1775C121.964 11.2065 121.729 11.2558 121.491 11.3255C121.346 11.4938 121.198 11.6708 121.047 11.8565C120.902 12.0422 120.76 12.2337 120.62 12.431H120.908C120.896 12.4659 120.89 12.5036 120.89 12.5442C120.89 12.579 120.89 12.6109 120.89 12.64C120.89 12.965 120.948 13.2203 121.064 13.406C121.186 13.5918 121.395 13.6846 121.691 13.6846C121.958 13.6846 122.164 13.5888 122.309 13.3973C122.454 13.2058 122.527 12.9069 122.527 12.5007V12.431H123.188V12.5094ZM126.261 9.81076V7.26011C126.261 7.13245 126.255 7.03086 126.244 6.95543C126.232 6.87417 126.212 6.80744 126.183 6.75521C126.113 6.62755 125.992 6.53179 125.817 6.46793L126.079 5.87598C126.375 5.95724 126.566 6.0994 126.653 6.30253C126.717 6.17487 126.807 6.07328 126.923 5.99785C127.045 5.91659 127.193 5.87598 127.367 5.87598C127.599 5.87598 127.787 5.94853 127.933 6.09361C128.083 6.23289 128.159 6.4389 128.159 6.71168C128.159 6.99025 128.078 7.20497 127.915 7.35587C127.753 7.50678 127.515 7.58221 127.202 7.58221C127.108 7.58221 127.019 7.57642 126.932 7.5648V9.81076H126.261ZM126.932 6.9032V7.02507C127.007 7.03669 127.082 7.04248 127.158 7.04248C127.454 7.04248 127.602 6.93223 127.602 6.71168C127.602 6.61301 127.573 6.54049 127.515 6.49405C127.457 6.44182 127.387 6.4157 127.306 6.4157C127.155 6.4157 127.054 6.45923 127.001 6.54628C126.955 6.63333 126.932 6.75229 126.932 6.9032ZM137.339 14.4594C137.032 14.4594 136.776 14.3926 136.573 14.2591C136.37 14.1199 136.205 13.9428 136.077 13.7281C135.938 13.9719 135.769 14.1547 135.572 14.2766C135.375 14.3984 135.134 14.4594 134.85 14.4594C134.623 14.4594 134.403 14.4101 134.188 14.3114C133.979 14.2127 133.805 14.0531 133.666 13.8326C133.532 13.6063 133.465 13.3074 133.465 12.9359C133.465 12.9243 133.465 12.9185 133.465 12.9185L133.335 13.1449L132.691 12.7793C133.079 12.2453 133.425 11.7985 133.727 11.4386C134.034 11.073 134.33 10.7567 134.615 10.4898C134.562 10.304 134.487 10.1532 134.388 10.0371C134.295 9.92101 134.168 9.86299 134.005 9.86299C133.674 9.86299 133.509 10.0429 133.509 10.4027C133.509 10.484 133.518 10.5623 133.535 10.6378C133.553 10.7132 133.573 10.7887 133.596 10.8641L132.882 11.0034C132.847 10.8873 132.818 10.7713 132.795 10.6552C132.778 10.5391 132.769 10.4259 132.769 10.3157C132.769 9.96166 132.879 9.68888 133.1 9.49737C133.32 9.30585 133.616 9.21009 133.988 9.21009C134.301 9.21009 134.551 9.28844 134.736 9.44513C134.928 9.59604 135.073 9.78756 135.172 10.0197C135.485 9.77593 135.792 9.5815 136.094 9.43643C136.396 9.29136 136.709 9.18977 137.035 9.13174C137.365 9.06789 137.725 9.03599 138.114 9.03599C138.764 9.03599 139.307 9.15786 139.742 9.40161C140.183 9.63957 140.514 9.97616 140.734 10.4114C140.961 10.8409 141.074 11.3429 141.074 11.9174C141.074 12.434 140.987 12.8779 140.813 13.2493C140.639 13.615 140.401 13.8964 140.099 14.0937C139.797 14.2911 139.449 14.3897 139.054 14.3897C139.002 14.3897 138.941 14.3868 138.871 14.381C138.802 14.381 138.743 14.3752 138.697 14.3636L138.732 13.6759C138.767 13.6817 138.804 13.6875 138.845 13.6933C138.886 13.6933 138.926 13.6933 138.967 13.6933C139.298 13.6933 139.562 13.612 139.759 13.4496C139.962 13.2871 140.108 13.0723 140.195 12.8054C140.282 12.5384 140.325 12.2482 140.325 11.9348C140.325 11.2326 140.122 10.6987 139.716 10.3331C139.309 9.96166 138.752 9.77593 138.044 9.77593C137.481 9.77593 136.988 9.84849 136.565 9.99357C136.147 10.1328 135.758 10.3447 135.398 10.6291C135.526 10.5826 135.674 10.5449 135.842 10.5159C136.01 10.4811 136.196 10.4637 136.399 10.4637C137.159 10.4637 137.754 10.6494 138.184 11.0208C138.619 11.3922 138.837 11.9319 138.837 12.64C138.837 12.9882 138.778 13.2986 138.663 13.5714C138.552 13.8442 138.387 14.0618 138.166 14.2243C137.946 14.381 137.67 14.4594 137.339 14.4594ZM136.408 12.5094C136.408 12.8634 136.477 13.1478 136.617 13.3625C136.756 13.5772 136.979 13.6846 137.287 13.6846C137.589 13.6846 137.801 13.5859 137.923 13.3886C138.044 13.1913 138.105 12.9447 138.105 12.6487C138.105 12.1786 137.951 11.8072 137.644 11.5344C137.336 11.2616 136.869 11.1253 136.242 11.1253C135.923 11.1253 135.647 11.1427 135.415 11.1775C135.183 11.2065 134.948 11.2558 134.71 11.3255C134.565 11.4938 134.417 11.6708 134.266 11.8565C134.121 12.0422 133.979 12.2337 133.84 12.431H134.127C134.115 12.4659 134.11 12.5036 134.11 12.5442C134.11 12.579 134.11 12.6109 134.11 12.64C134.11 12.965 134.168 13.2203 134.284 13.406C134.406 13.5918 134.615 13.6846 134.911 13.6846C135.177 13.6846 135.383 13.5888 135.529 13.3973C135.674 13.2058 135.746 12.9069 135.746 12.5007V12.431H136.408V12.5094ZM144.387 14.4594C143.539 14.4594 142.875 14.2417 142.393 13.8065C141.917 13.3654 141.679 12.7473 141.679 11.9522C141.679 11.4822 141.766 11.0846 141.94 10.7596C142.12 10.4288 142.378 10.1473 142.715 9.91522C143.057 9.67726 143.475 9.45963 143.969 9.26232C144.433 9.01279 144.912 8.7313 145.405 8.41791C145.898 8.09874 146.386 7.74182 146.868 7.34717L147.355 7.9043C146.943 8.24672 146.537 8.54558 146.136 8.80094C145.736 9.05631 145.353 9.26811 144.987 9.43643C145.428 9.47125 145.817 9.58733 146.154 9.78464C146.496 9.98194 146.76 10.2576 146.946 10.6116C147.138 10.9598 147.233 11.3835 147.233 11.8826C147.233 12.7125 146.981 13.3509 146.476 13.7978C145.971 14.2388 145.275 14.4594 144.387 14.4594ZM142.411 11.9C142.411 12.4165 142.57 12.8431 142.889 13.1797C143.214 13.5105 143.716 13.6759 144.395 13.6759C144.877 13.6759 145.272 13.5975 145.579 13.4408C145.893 13.2842 146.125 13.0694 146.276 12.7967C146.426 12.5239 146.502 12.2134 146.502 11.8652C146.502 11.2849 146.316 10.8351 145.945 10.5159C145.579 10.1909 145.08 10.0284 144.448 10.0284C144.134 10.0284 143.838 10.0603 143.56 10.1241C143.113 10.3563 142.808 10.6233 142.646 10.925C142.489 11.221 142.411 11.546 142.411 11.9ZM150.811 14.4594C150.301 14.4594 149.836 14.3723 149.418 14.1982C149 14.0183 148.649 13.731 148.365 13.3364C148.081 12.9417 147.881 12.4165 147.764 11.7607L148.461 11.6389C148.478 11.7433 148.501 11.842 148.53 11.9348C148.565 11.9348 148.6 11.9348 148.635 11.9348C148.826 11.9348 149.012 11.9087 149.192 11.8565C149.372 11.8043 149.537 11.6998 149.688 11.5431C149.845 11.3806 149.978 11.1427 150.089 10.8293C150.059 10.5623 149.993 10.336 149.888 10.1503C149.79 9.95874 149.633 9.86299 149.418 9.86299C149.087 9.86299 148.922 10.0429 148.922 10.4027C148.922 10.484 148.931 10.5623 148.948 10.6378C148.971 10.7132 148.992 10.7887 149.009 10.8641L148.295 11.0034C148.26 10.8873 148.231 10.7713 148.208 10.6552C148.191 10.5391 148.182 10.4259 148.182 10.3157C148.182 9.96166 148.292 9.68888 148.513 9.49737C148.734 9.30585 149.032 9.21009 149.41 9.21009C149.723 9.21009 149.967 9.28552 150.141 9.43643C150.321 9.5815 150.454 9.76723 150.541 9.99357C150.779 9.73241 151.081 9.50899 151.447 9.32326C151.812 9.13175 152.244 9.03599 152.744 9.03599C153.37 9.03599 153.898 9.15494 154.328 9.3929C154.763 9.63086 155.091 9.96166 155.312 10.3853C155.538 10.8089 155.651 11.2994 155.651 11.8565C155.651 12.4136 155.556 12.8808 155.364 13.258C155.172 13.6353 154.914 13.9196 154.589 14.1112C154.264 14.2969 153.902 14.3897 153.501 14.3897C153.42 14.3897 153.347 14.3868 153.283 14.381C153.219 14.381 153.15 14.3781 153.075 14.3723L153.109 13.6759C153.144 13.6817 153.193 13.6875 153.257 13.6933C153.321 13.6933 153.367 13.6933 153.397 13.6933C153.762 13.6933 154.055 13.612 154.276 13.4496C154.497 13.2871 154.656 13.0723 154.755 12.8054C154.853 12.5326 154.903 12.2279 154.903 11.8913C154.903 11.4386 154.81 11.0556 154.624 10.7422C154.438 10.4288 154.18 10.1909 153.849 10.0284C153.518 9.86007 153.135 9.77593 152.7 9.77593C152.311 9.77593 151.978 9.84266 151.699 9.97616C151.426 10.1038 151.191 10.2721 150.994 10.4811C151.098 10.4694 151.203 10.4637 151.307 10.4637C151.963 10.4637 152.462 10.632 152.805 10.9686C153.153 11.2994 153.327 11.7665 153.327 12.3701C153.327 12.6196 153.286 12.8692 153.205 13.1188C153.124 13.3625 152.987 13.5859 152.796 13.7891C152.61 13.9922 152.355 14.1547 152.03 14.2766C151.705 14.3984 151.299 14.4594 150.811 14.4594ZM151.116 11.1253C150.971 11.1253 150.837 11.131 150.715 11.1427C150.599 11.5025 150.446 11.7869 150.254 11.9958C150.068 12.1989 149.848 12.3469 149.592 12.4397C149.343 12.5268 149.07 12.5761 148.774 12.5877C148.977 12.9766 149.247 13.258 149.584 13.4321C149.926 13.6005 150.341 13.6846 150.829 13.6846C151.403 13.6846 151.841 13.5627 152.143 13.319C152.445 13.0752 152.596 12.7415 152.596 12.3179C152.596 11.9174 152.465 11.6185 152.204 11.4212C151.943 11.2239 151.58 11.1253 151.116 11.1253ZM154.058 9.81076V7.26011C154.058 7.13245 154.053 7.03086 154.041 6.95543C154.029 6.87417 154.009 6.80744 153.98 6.75521C153.91 6.62755 153.788 6.53179 153.614 6.46793L153.875 5.87598C154.171 5.95724 154.363 6.0994 154.45 6.30253C154.514 6.17487 154.604 6.07328 154.72 5.99785C154.842 5.91659 154.99 5.87598 155.164 5.87598C155.396 5.87598 155.585 5.94853 155.73 6.09361C155.881 6.23289 155.956 6.4389 155.956 6.71168C155.956 6.99025 155.875 7.20497 155.712 7.35587C155.55 7.50678 155.312 7.58221 154.998 7.58221C154.906 7.58221 154.816 7.57642 154.728 7.5648V9.81076H154.058ZM154.728 6.9032V7.02507C154.804 7.03669 154.88 7.04248 154.955 7.04248C155.251 7.04248 155.399 6.93223 155.399 6.71168C155.399 6.61301 155.37 6.54049 155.312 6.49405C155.254 6.44182 155.184 6.4157 155.103 6.4157C154.952 6.4157 154.85 6.45923 154.798 6.54628C154.752 6.63333 154.728 6.75229 154.728 6.9032ZM159.227 14.4594C158.717 14.4594 158.252 14.3723 157.835 14.1982C157.417 14.0183 157.065 13.731 156.781 13.3364C156.497 12.9417 156.297 12.4165 156.181 11.7607L156.877 11.6389C156.894 11.7433 156.917 11.842 156.947 11.9348C156.981 11.9348 157.016 11.9348 157.051 11.9348C157.243 11.9348 157.428 11.9087 157.608 11.8565C157.788 11.8043 157.953 11.6998 158.104 11.5431C158.261 11.3806 158.395 11.1427 158.505 10.8293C158.476 10.5623 158.409 10.336 158.305 10.1503C158.206 9.95874 158.049 9.86299 157.835 9.86299C157.504 9.86299 157.338 10.0429 157.338 10.4027C157.338 10.484 157.347 10.5623 157.364 10.6378C157.388 10.7132 157.408 10.7887 157.425 10.8641L156.712 11.0034C156.677 10.8873 156.648 10.7713 156.625 10.6552C156.607 10.5391 156.598 10.4259 156.598 10.3157C156.598 9.96166 156.709 9.68888 156.929 9.49737C157.15 9.30585 157.448 9.21009 157.826 9.21009C158.139 9.21009 158.383 9.28552 158.557 9.43643C158.737 9.5815 158.87 9.76723 158.958 9.99357C159.196 9.73241 159.497 9.50899 159.863 9.32326C160.228 9.13175 160.661 9.03599 161.16 9.03599C161.787 9.03599 162.315 9.15494 162.744 9.3929C163.18 9.63086 163.507 9.96166 163.728 10.3853C163.954 10.8089 164.068 11.2994 164.068 11.8565C164.068 12.4136 163.972 12.8808 163.78 13.258C163.589 13.6353 163.331 13.9196 163.005 14.1112C162.68 14.2969 162.318 14.3897 161.917 14.3897C161.836 14.3897 161.764 14.3868 161.7 14.381C161.636 14.381 161.566 14.3781 161.491 14.3723L161.526 13.6759C161.56 13.6817 161.61 13.6875 161.674 13.6933C161.738 13.6933 161.784 13.6933 161.813 13.6933C162.178 13.6933 162.471 13.612 162.692 13.4496C162.913 13.2871 163.072 13.0723 163.171 12.8054C163.27 12.5326 163.319 12.2279 163.319 11.8913C163.319 11.4386 163.226 11.0556 163.04 10.7422C162.854 10.4288 162.596 10.1909 162.266 10.0284C161.935 9.86007 161.552 9.77593 161.116 9.77593C160.728 9.77593 160.394 9.84266 160.115 9.97616C159.842 10.1038 159.607 10.2721 159.41 10.4811C159.515 10.4694 159.619 10.4637 159.724 10.4637C160.38 10.4637 160.878 10.632 161.221 10.9686C161.569 11.2994 161.743 11.7665 161.743 12.3701C161.743 12.6196 161.703 12.8692 161.621 13.1188C161.54 13.3625 161.404 13.5859 161.212 13.7891C161.026 13.9922 160.771 14.1547 160.446 14.2766C160.121 14.3984 159.715 14.4594 159.227 14.4594ZM159.532 11.1253C159.387 11.1253 159.253 11.131 159.132 11.1427C159.015 11.5025 158.862 11.7869 158.67 11.9958C158.484 12.1989 158.264 12.3469 158.009 12.4397C157.759 12.5268 157.486 12.5761 157.19 12.5877C157.394 12.9766 157.663 13.258 158 13.4321C158.342 13.6005 158.757 13.6846 159.245 13.6846C159.819 13.6846 160.258 13.5627 160.559 13.319C160.861 13.0752 161.012 12.7415 161.012 12.3179C161.012 11.9174 160.881 11.6185 160.62 11.4212C160.359 11.2239 159.996 11.1253 159.532 11.1253Z" fill="white"/>
</g>
<defs>
<clipPath id="clip0_568_843">
<rect width="173.67" height="21.7632" fill="white"/>
</clipPath>
</defs>
</svg>
