<svg width="174" height="22" viewBox="0 0 174 22" fill="none" xmlns="http://www.w3.org/2000/svg">
<g clip-path="url(#clip0_568_861)">
<path d="M163.106 0.210938H10.5635C4.84595 0.210938 0.210938 4.84595 0.210938 10.5635C0.210938 16.2811 4.84595 20.9161 10.5635 20.9161H163.106C168.823 20.9161 173.458 16.2811 173.458 10.5635C173.458 4.84595 168.823 0.210938 163.106 0.210938Z" fill="#1F1F1F"/>
<path d="M21.5516 9.29586H8.875V7.18309C8.875 6.03615 9.80538 5.07031 10.9102 5.07031H19.5164C20.6213 5.07031 21.5516 6.03615 21.5516 7.18309V9.29586Z" fill="#34A853"/>
<path d="M21.5516 11.0088H8.875V8.89598C8.875 7.74904 9.80538 6.7832 10.9102 6.7832H19.5164C20.6213 6.7832 21.5516 7.74904 21.5516 8.89598V11.0088Z" fill="#FBBC04"/>
<path d="M21.5516 12.7812H8.875V10.6684C8.875 9.5215 9.80538 8.55566 10.9102 8.55566H19.5164C20.6213 8.55566 21.5516 9.5215 21.5516 10.6684V12.7812Z" fill="#EA4335"/>
<path d="M8.875 9.83504L16.9209 11.6958C17.8471 11.9285 18.889 11.6958 19.6415 11.1144L21.5516 9.71875V14.08C21.5516 15.1848 20.6255 16.0571 19.5257 16.0571H10.9009C9.80116 16.0571 8.875 15.1848 8.875 14.08V9.83504Z" fill="url(#paint0_linear_568_861)"/>
<path d="M27.3047 13.5218V7.47078H29.3837C29.7499 7.47078 30.0823 7.54967 30.3809 7.70741C30.6795 7.86515 30.9161 8.08209 31.0908 8.35814C31.2711 8.6342 31.3612 8.95534 31.3612 9.32157C31.3612 9.6878 31.2711 10.0117 31.0908 10.2934C30.9161 10.5695 30.6795 10.7864 30.3809 10.9442C30.0823 11.0963 29.7499 11.1724 29.3837 11.1724H28.2343V13.5218H27.3047ZM29.409 8.34969H28.2343V10.2934H29.409C29.6287 10.2934 29.8147 10.2484 29.9668 10.1582C30.1189 10.0624 30.2344 9.94133 30.3133 9.79483C30.3978 9.64271 30.44 9.48497 30.44 9.32157C30.44 9.15817 30.3978 9.00326 30.3133 8.85676C30.2344 8.71026 30.1189 8.58916 29.9668 8.49336C29.8147 8.39757 29.6287 8.34969 29.409 8.34969ZM32.1622 13.5218V9.2117H33.0242V9.84554H33.0749C33.1706 9.62581 33.334 9.4455 33.565 9.30467C33.8017 9.15817 34.0552 9.08494 34.3256 9.08494C34.444 9.08494 34.5425 9.09339 34.6214 9.11029C34.7059 9.12719 34.782 9.14693 34.8496 9.16945V10.116C34.7425 10.0709 34.6327 10.0343 34.52 10.0061C34.4129 9.97792 34.3003 9.96385 34.182 9.96385C33.9679 9.96385 33.7763 10.023 33.6073 10.1413C33.4439 10.254 33.3143 10.4089 33.2186 10.6061C33.1228 10.7977 33.0749 11.009 33.0749 11.24V13.5218H32.1622ZM36.0781 8.57787C35.9091 8.57787 35.7626 8.51871 35.6386 8.4004C35.5203 8.27646 35.4612 8.12996 35.4612 7.96094C35.4612 7.79192 35.5203 7.64825 35.6386 7.52994C35.7626 7.41162 35.9091 7.35246 36.0781 7.35246C36.2471 7.35246 36.3908 7.41162 36.5091 7.52994C36.633 7.64825 36.695 7.79192 36.695 7.96094C36.695 8.12996 36.633 8.27646 36.5091 8.4004C36.3908 8.51871 36.2471 8.57787 36.0781 8.57787ZM35.6217 13.5218V9.2117H36.5345V13.5218H35.6217ZM39.468 13.657C39.0793 13.657 38.7271 13.5612 38.4116 13.3696C38.1017 13.1724 37.8539 12.902 37.6679 12.5583C37.4876 12.209 37.3975 11.8118 37.3975 11.3667C37.3975 10.9217 37.4876 10.5272 37.6679 10.1836C37.8539 9.83992 38.1017 9.56948 38.4116 9.37228C38.7271 9.17507 39.0793 9.07649 39.468 9.07649C39.8004 9.07649 40.0849 9.14972 40.3216 9.29622C40.5638 9.44272 40.7413 9.60891 40.854 9.79483H40.9047L40.854 9.1948V7.47078H41.7583V13.5218H40.9047V12.9471H40.854C40.7413 13.133 40.5638 13.2992 40.3216 13.4457C40.0849 13.5865 39.8004 13.657 39.468 13.657ZM39.6032 12.8203C39.8286 12.8203 40.0399 12.7612 40.2371 12.6428C40.4399 12.5245 40.6005 12.3583 40.7188 12.1442C40.8427 11.9245 40.9047 11.6654 40.9047 11.3667C40.9047 11.0681 40.8427 10.8118 40.7188 10.5977C40.6005 10.378 40.4399 10.2089 40.2371 10.0906C40.0399 9.9723 39.8286 9.91315 39.6032 9.91315C39.3778 9.91315 39.1666 9.9723 38.9694 10.0906C38.7722 10.2089 38.6116 10.378 38.4877 10.5977C38.3637 10.8118 38.3018 11.0681 38.3018 11.3667C38.3018 11.6654 38.3637 11.9245 38.4877 12.1442C38.6116 12.3583 38.7722 12.5245 38.9694 12.6428C39.1666 12.7612 39.3778 12.8203 39.6032 12.8203ZM44.1443 13.657C43.8342 13.657 43.5583 13.5978 43.3161 13.4795C43.0736 13.3556 42.8851 13.1837 42.7499 12.964C42.6147 12.7443 42.5471 12.4936 42.5471 12.2118C42.5471 11.9076 42.6257 11.6485 42.7837 11.4343C42.9468 11.2146 43.164 11.0484 43.4344 10.9357C43.7049 10.823 44.0032 10.7667 44.3303 10.7667C44.6007 10.7667 44.8373 10.7921 45.0402 10.8428C45.2485 10.8935 45.4061 10.947 45.5134 11.0033V10.7752C45.5134 10.4934 45.412 10.2681 45.2092 10.0991C45.0063 9.93005 44.7444 9.84554 44.4232 9.84554C44.2035 9.84554 43.9948 9.89624 43.7978 9.99766C43.6005 10.0934 43.4429 10.2258 43.3246 10.3949L42.6992 9.91315C42.8851 9.65399 43.1302 9.45117 43.4344 9.30467C43.7442 9.15255 44.0822 9.07649 44.4486 9.07649C45.074 9.07649 45.5557 9.23144 45.8937 9.5413C46.2318 9.84554 46.4008 10.2737 46.4008 10.8259V13.5218H45.5134V12.9893H45.4627C45.3499 13.164 45.1809 13.3189 44.9556 13.4542C44.73 13.5894 44.4596 13.657 44.1443 13.657ZM44.3049 12.9133C44.5415 12.9133 44.7499 12.857 44.9303 12.7443C45.1103 12.6316 45.2514 12.4851 45.3528 12.3048C45.4598 12.1189 45.5134 11.9189 45.5134 11.7048C45.3837 11.6315 45.2316 11.5724 45.0571 11.5273C44.8821 11.4766 44.6962 11.4512 44.4993 11.4512C44.1274 11.4512 43.8625 11.5273 43.7049 11.6794C43.5468 11.8259 43.4683 12.0062 43.4683 12.2203C43.4683 12.4231 43.5443 12.5893 43.6964 12.7189C43.8486 12.8485 44.0514 12.9133 44.3049 12.9133ZM47.7792 12.271V10.0061H47.027V9.2117H47.7792V7.99475H48.6919V9.2117H49.7483V10.0061H48.6919V12.0766C48.6919 12.2907 48.7341 12.4541 48.8186 12.5668C48.9091 12.6795 49.0582 12.7358 49.2665 12.7358C49.3739 12.7358 49.4639 12.7217 49.537 12.6936C49.616 12.6654 49.695 12.6259 49.7736 12.5752V13.4626C49.6781 13.502 49.5767 13.533 49.4694 13.5556C49.3625 13.5781 49.2357 13.5894 49.0891 13.5894C48.6893 13.5894 48.3707 13.4739 48.1341 13.2429C47.8975 13.0062 47.7792 12.6823 47.7792 12.271ZM49.1651 8.71309V7.47078H50.0187L49.8074 8.71309H49.1651ZM54.3811 13.657C53.9924 13.657 53.6404 13.5612 53.3248 13.3696C53.015 13.1724 52.767 12.902 52.5811 12.5583C52.4006 12.209 52.3106 11.8118 52.3106 11.3667C52.3106 10.9217 52.4006 10.5272 52.5811 10.1836C52.767 9.83992 53.015 9.56948 53.3248 9.37228C53.6404 9.17507 53.9924 9.07649 54.3811 9.07649C54.7137 9.07649 54.9981 9.14972 55.2347 9.29622C55.4768 9.44272 55.6543 9.60891 55.7671 9.79483H55.8178L55.7671 9.1948V7.47078H56.6714V13.5218H55.8178V12.9471H55.7671C55.6543 13.133 55.4768 13.2992 55.2347 13.4457C54.9981 13.5865 54.7137 13.657 54.3811 13.657ZM54.5164 12.8203C54.7416 12.8203 54.9529 12.7612 55.1502 12.6428C55.353 12.5245 55.5136 12.3583 55.6319 12.1442C55.7557 11.9245 55.8178 11.6654 55.8178 11.3667C55.8178 11.0681 55.7557 10.8118 55.6319 10.5977C55.5136 10.378 55.353 10.2089 55.1502 10.0906C54.9529 9.9723 54.7416 9.91315 54.5164 9.91315C54.2911 9.91315 54.0799 9.9723 53.8825 10.0906C53.6852 10.2089 53.5246 10.378 53.4008 10.5977C53.277 10.8118 53.2149 11.0681 53.2149 11.3667C53.2149 11.6654 53.277 11.9245 53.4008 12.1442C53.5246 12.3583 53.6852 12.5245 53.8825 12.6428C54.0799 12.7612 54.2911 12.8203 54.5164 12.8203ZM59.7337 13.657C59.2883 13.657 58.897 13.5556 58.5589 13.3527C58.2209 13.1499 57.956 12.8766 57.7645 12.533C57.5727 12.1893 57.4772 11.8006 57.4772 11.3667C57.4772 10.9386 57.5727 10.5526 57.7645 10.2089C57.956 9.85961 58.2209 9.58355 58.5589 9.38073C58.897 9.1779 59.2883 9.07649 59.7337 9.07649C60.1731 9.07649 60.5619 9.1779 60.8999 9.38073C61.2379 9.58355 61.5025 9.85961 61.6943 10.2089C61.8857 10.5526 61.9816 10.9386 61.9816 11.3667C61.9816 11.8006 61.8857 12.1893 61.6943 12.533C61.5025 12.8766 61.2379 13.1499 60.8999 13.3527C60.5619 13.5556 60.1731 13.657 59.7337 13.657ZM59.7337 12.8203C59.9703 12.8203 60.19 12.764 60.3928 12.6513C60.5957 12.533 60.7588 12.3668 60.883 12.1527C61.0123 11.933 61.0774 11.671 61.0774 11.3667C61.0774 11.0625 61.0123 10.8033 60.883 10.5892C60.7588 10.3695 60.5957 10.2033 60.3928 10.0906C60.19 9.9723 59.9703 9.91315 59.7337 9.91315C59.497 9.91315 59.2743 9.9723 59.066 10.0906C58.8632 10.2033 58.6967 10.3695 58.5674 10.5892C58.4432 10.8033 58.3815 11.0625 58.3815 11.3667C58.3815 11.671 58.4432 11.933 58.5674 12.1527C58.6967 12.3668 58.8632 12.533 59.066 12.6513C59.2743 12.764 59.497 12.8203 59.7337 12.8203ZM66.3665 13.657C65.848 13.657 65.4339 13.5443 65.1242 13.3189C64.8144 13.0879 64.6002 12.8147 64.4819 12.4992L65.3017 12.1442C65.4031 12.3752 65.5497 12.5527 65.7411 12.6767C65.9325 12.795 66.1497 12.8541 66.3918 12.8541C66.6171 12.8541 66.8114 12.8147 66.975 12.7358C67.1385 12.6513 67.2201 12.5161 67.2201 12.3302C67.2201 12.1499 67.1385 12.0175 66.975 11.933C66.8114 11.8484 66.6086 11.7752 66.3665 11.7132L65.851 11.5949C65.6427 11.5442 65.4483 11.4653 65.2679 11.3583C65.0874 11.2512 64.9412 11.1132 64.8284 10.9442C64.7156 10.7695 64.6594 10.5667 64.6594 10.3357C64.6594 10.0822 64.7354 9.86244 64.8875 9.67651C65.0397 9.48497 65.2395 9.33847 65.4876 9.23706C65.7411 9.13003 66.0145 9.07649 66.3073 9.07649C66.7075 9.07649 67.0565 9.15538 67.3553 9.31312C67.6595 9.46524 67.8822 9.69625 68.0229 10.0061L67.237 10.3611C67.1355 10.1695 67.0033 10.0371 66.8398 9.96385C66.6821 9.88496 66.5072 9.84554 66.3158 9.84554C66.1015 9.84554 65.9215 9.89062 65.7749 9.98075C65.6342 10.0709 65.5636 10.1836 65.5636 10.3188C65.5636 10.4653 65.6258 10.5808 65.7496 10.6653C65.8793 10.7498 66.0369 10.8174 66.2228 10.8681L66.8482 11.0202C67.2762 11.1273 67.5974 11.2907 67.8116 11.5104C68.0259 11.7245 68.1328 11.9865 68.1328 12.2964C68.1328 12.5724 68.0538 12.8147 67.8961 13.0231C67.7385 13.226 67.5243 13.3837 67.2539 13.4964C66.9889 13.6034 66.6931 13.657 66.3665 13.657ZM68.9377 13.5218V7.47078H69.8505V13.5218H68.9377ZM72.4902 13.657C71.9603 13.657 71.5605 13.4992 71.2901 13.1837C71.0252 12.8626 70.8929 12.4287 70.8929 11.8823V9.2117H71.8056V11.7555C71.8056 12.1217 71.8901 12.3921 72.0591 12.5668C72.2337 12.7358 72.4504 12.8203 72.7099 12.8203C72.9406 12.8203 73.1409 12.7612 73.3099 12.6428C73.4844 12.5189 73.6167 12.3611 73.7071 12.1696C73.8026 11.9724 73.8508 11.7583 73.8508 11.5273V9.2117H74.755V13.5218H73.9015V12.9386H73.8508C73.7266 13.1415 73.5406 13.3133 73.293 13.4542C73.0505 13.5894 72.783 13.657 72.4902 13.657ZM75.7328 13.5218V12.7612L78.133 10.0061H75.8089V9.2117H79.2485V9.9723L76.8568 12.7274H79.3161V13.5218H75.7328ZM77.1357 8.3835L76.2315 7.36092V7.30176H77.1019L77.4907 7.82573H77.5752L77.9724 7.30176H78.8513V7.36092L77.9386 8.3835H77.1357ZM82.5512 13.657C82.2186 13.657 81.9313 13.5865 81.6892 13.4457C81.4525 13.2992 81.278 13.133 81.1652 12.9471H81.1145V13.5218H80.2525V7.47078H81.1652V9.1948L81.1145 9.79483H81.1652C81.278 9.60891 81.4525 9.44272 81.6892 9.29622C81.9313 9.14972 82.2186 9.07649 82.5512 9.07649C82.9454 9.07649 83.2978 9.17507 83.6076 9.37228C83.9173 9.56948 84.1624 9.83992 84.3428 10.1836C84.5287 10.5272 84.6217 10.9217 84.6217 11.3667C84.6217 11.8118 84.5287 12.209 84.3428 12.5583C84.1624 12.902 83.9173 13.1724 83.6076 13.3696C83.2978 13.5612 82.9454 13.657 82.5512 13.657ZM82.416 12.8203C82.6412 12.8203 82.8525 12.7612 83.0498 12.6428C83.2471 12.5245 83.4077 12.3583 83.5315 12.1442C83.6553 11.9245 83.7174 11.6654 83.7174 11.3667C83.7174 11.0681 83.6553 10.8118 83.5315 10.5977C83.4077 10.378 83.2471 10.2089 83.0498 10.0906C82.8525 9.9723 82.6412 9.91315 82.416 9.91315C82.1907 9.91315 81.9795 9.9723 81.7821 10.0906C81.5848 10.2089 81.4242 10.378 81.3004 10.5977C81.1766 10.8118 81.1145 11.0681 81.1145 11.3667C81.1145 11.6654 81.1766 11.9245 81.3004 12.1442C81.4242 12.3583 81.5848 12.5245 81.7821 12.6428C81.9795 12.7612 82.1907 12.8203 82.416 12.8203ZM86.7657 15.1359C86.7488 15.181 86.729 15.2233 86.7066 15.2627C86.6897 15.3021 86.6783 15.3303 86.6728 15.3472H85.7009C85.7288 15.2852 85.7685 15.1951 85.8192 15.0768C85.8754 14.9641 85.9291 14.8542 85.9798 14.7472C86.0305 14.6401 86.0837 14.519 86.1404 14.3838C86.2021 14.2486 86.2642 14.1162 86.3263 13.9866L86.6474 13.2851L84.8473 9.2117H85.8615L87.0953 12.1527H87.1376L88.3292 9.2117H89.3349L87.1038 14.35C87.0417 14.4965 86.9741 14.6486 86.901 14.8063C86.8334 14.9697 86.7881 15.0796 86.7657 15.1359Z" fill="white"/>
<path d="M95.2434 13.657C94.8094 13.657 94.4012 13.5781 94.018 13.4204C93.6406 13.2626 93.3051 13.0429 93.0123 12.7612C92.7195 12.4738 92.4883 12.1386 92.3193 11.7555C92.1558 11.3667 92.0742 10.947 92.0742 10.4963C92.0742 10.0455 92.1558 9.62864 92.3193 9.24551C92.4883 8.85676 92.7165 8.52155 93.0038 8.23983C93.2967 7.95249 93.6347 7.72993 94.018 7.57219C94.4012 7.41445 94.8094 7.33556 95.2434 7.33556C95.7052 7.33556 96.1307 7.41724 96.5195 7.58064C96.9137 7.74405 97.2433 7.97222 97.5083 8.26518L96.866 8.89901C96.6687 8.67929 96.432 8.51026 96.1561 8.39195C95.8857 8.27363 95.5814 8.21448 95.2434 8.21448C94.8432 8.21448 94.4743 8.31027 94.1363 8.50181C93.7982 8.68774 93.5249 8.95255 93.3165 9.29622C93.1137 9.63426 93.0123 10.0343 93.0123 10.4963C93.0123 10.9583 93.1167 11.3611 93.325 11.7048C93.5333 12.0428 93.8067 12.3076 94.1447 12.4992C94.4828 12.6851 94.8517 12.7781 95.2518 12.7781C95.6182 12.7781 95.9503 12.7105 96.2491 12.5752C96.5478 12.4344 96.787 12.2372 96.9674 11.9837C97.1533 11.7301 97.2662 11.4259 97.3054 11.0709H95.2349V10.2512H98.1759C98.2097 10.4033 98.2266 10.5639 98.2266 10.7329V10.7414C98.2266 11.3273 98.0969 11.84 97.8379 12.2795C97.5843 12.7133 97.2323 13.0513 96.7815 13.2936C96.3306 13.5358 95.8181 13.657 95.2434 13.657ZM100.948 13.657C100.503 13.657 100.111 13.5556 99.7732 13.3527C99.4351 13.1499 99.1702 12.8766 98.9788 12.533C98.7874 12.1893 98.6914 11.8006 98.6914 11.3667C98.6914 10.9386 98.7874 10.5526 98.9788 10.2089C99.1702 9.85961 99.4351 9.58355 99.7732 9.38073C100.111 9.1779 100.503 9.07649 100.948 9.07649C101.387 9.07649 101.776 9.1779 102.114 9.38073C102.452 9.58355 102.717 9.85961 102.909 10.2089C103.1 10.5526 103.196 10.9386 103.196 11.3667C103.196 11.8006 103.1 12.1893 102.909 12.533C102.717 12.8766 102.452 13.1499 102.114 13.3527C101.776 13.5556 101.387 13.657 100.948 13.657ZM100.948 12.8203C101.184 12.8203 101.404 12.764 101.607 12.6513C101.81 12.533 101.973 12.3668 102.097 12.1527C102.227 11.933 102.292 11.671 102.292 11.3667C102.292 11.0625 102.227 10.8033 102.097 10.5892C101.973 10.3695 101.81 10.2033 101.607 10.0906C101.404 9.9723 101.184 9.91315 100.948 9.91315C100.711 9.91315 100.489 9.9723 100.28 10.0906C100.077 10.2033 99.9113 10.3695 99.7816 10.5892C99.6578 10.8033 99.5957 11.0625 99.5957 11.3667C99.5957 11.671 99.6578 11.933 99.7816 12.1527C99.9113 12.3668 100.077 12.533 100.28 12.6513C100.489 12.764 100.711 12.8203 100.948 12.8203ZM106.065 13.657C105.62 13.657 105.228 13.5556 104.89 13.3527C104.552 13.1499 104.287 12.8766 104.095 12.533C103.904 12.1893 103.808 11.8006 103.808 11.3667C103.808 10.9386 103.904 10.5526 104.095 10.2089C104.287 9.85961 104.552 9.58355 104.89 9.38073C105.228 9.1779 105.62 9.07649 106.065 9.07649C106.504 9.07649 106.893 9.1779 107.231 9.38073C107.569 9.58355 107.834 9.85961 108.025 10.2089C108.217 10.5526 108.313 10.9386 108.313 11.3667C108.313 11.8006 108.217 12.1893 108.025 12.533C107.834 12.8766 107.569 13.1499 107.231 13.3527C106.893 13.5556 106.504 13.657 106.065 13.657ZM106.065 12.8203C106.301 12.8203 106.521 12.764 106.724 12.6513C106.927 12.533 107.09 12.3668 107.214 12.1527C107.344 11.933 107.408 11.671 107.408 11.3667C107.408 11.0625 107.344 10.8033 107.214 10.5892C107.09 10.3695 106.927 10.2033 106.724 10.0906C106.521 9.9723 106.301 9.91315 106.065 9.91315C105.828 9.91315 105.606 9.9723 105.397 10.0906C105.194 10.2033 105.028 10.3695 104.898 10.5892C104.775 10.8033 104.712 11.0625 104.712 11.3667C104.712 11.671 104.775 11.933 104.898 12.1527C105.028 12.3668 105.194 12.533 105.397 12.6513C105.606 12.764 105.828 12.8203 106.065 12.8203ZM111.097 15.4824C110.719 15.4824 110.393 15.4204 110.117 15.2965C109.846 15.1782 109.627 15.0232 109.458 14.8317C109.289 14.6458 109.167 14.4542 109.094 14.257L109.939 13.9021C110.029 14.1274 110.173 14.3105 110.37 14.4514C110.573 14.5979 110.815 14.6711 111.097 14.6711C111.491 14.6711 111.801 14.5528 112.027 14.3162C112.258 14.0795 112.373 13.7443 112.373 13.3105V12.8964H112.323C112.187 13.0992 111.999 13.2626 111.756 13.3865C111.52 13.5049 111.249 13.564 110.945 13.564C110.579 13.564 110.244 13.4711 109.939 13.2851C109.635 13.0992 109.39 12.8401 109.204 12.5076C109.018 12.1696 108.925 11.7752 108.925 11.3245C108.925 10.8681 109.018 10.4737 109.204 10.1413C109.39 9.80328 109.635 9.5413 109.939 9.35537C110.244 9.16945 110.579 9.07649 110.945 9.07649C111.249 9.07649 111.52 9.13848 111.756 9.26241C111.999 9.38635 112.187 9.54975 112.323 9.75257H112.373V9.2117H113.244V13.2936C113.244 13.7612 113.151 14.1584 112.965 14.4852C112.784 14.8119 112.534 15.0599 112.213 15.2289C111.892 15.3979 111.52 15.4824 111.097 15.4824ZM111.106 12.7358C111.331 12.7358 111.539 12.6823 111.731 12.5752C111.922 12.4625 112.078 12.302 112.196 12.0935C112.314 11.8794 112.373 11.6231 112.373 11.3245C112.373 11.0146 112.314 10.7554 112.196 10.547C112.078 10.3329 111.922 10.1723 111.731 10.0653C111.539 9.95823 111.331 9.90469 111.106 9.90469C110.88 9.90469 110.669 9.96102 110.472 10.0737C110.28 10.1807 110.125 10.3385 110.007 10.547C109.889 10.7554 109.83 11.0146 109.83 11.3245C109.83 11.6287 109.889 11.8879 110.007 12.102C110.125 12.3104 110.28 12.4682 110.472 12.5752C110.669 12.6823 110.88 12.7358 111.106 12.7358ZM114.32 13.5218V7.47078H115.233V13.5218H114.32ZM118.237 13.657C117.814 13.657 117.436 13.5584 117.104 13.3612C116.772 13.164 116.51 12.8936 116.318 12.5499C116.132 12.2062 116.039 11.8146 116.039 11.3752C116.039 10.9639 116.129 10.5836 116.31 10.2343C116.49 9.88496 116.741 9.60608 117.062 9.39763C117.389 9.18352 117.763 9.07649 118.186 9.07649C118.631 9.07649 119.008 9.17228 119.318 9.36382C119.634 9.55537 119.873 9.81735 120.037 10.1498C120.2 10.4822 120.282 10.8568 120.282 11.2738C120.282 11.3358 120.279 11.3921 120.273 11.4428C120.273 11.4935 120.27 11.5329 120.265 11.5611H116.935C116.98 11.9893 117.13 12.3104 117.383 12.5245C117.642 12.7386 117.935 12.8457 118.262 12.8457C118.555 12.8457 118.797 12.7809 118.989 12.6513C119.18 12.5161 119.332 12.3499 119.445 12.1527L120.197 12.5161C120.011 12.8541 119.758 13.1302 119.437 13.3443C119.116 13.5527 118.715 13.657 118.237 13.657ZM118.194 9.85399C117.89 9.85399 117.631 9.94695 117.417 10.1329C117.203 10.3188 117.059 10.5667 116.986 10.8766H119.378C119.366 10.7301 119.318 10.578 119.234 10.4202C119.149 10.2625 119.02 10.13 118.845 10.023C118.676 9.91031 118.459 9.85399 118.194 9.85399ZM123.253 13.5218V7.47078H125.332C125.698 7.47078 126.031 7.54967 126.329 7.70741C126.628 7.86515 126.864 8.08209 127.039 8.35814C127.219 8.6342 127.309 8.95534 127.309 9.32157C127.309 9.6878 127.219 10.0117 127.039 10.2934C126.864 10.5695 126.628 10.7864 126.329 10.9442C126.031 11.0963 125.698 11.1724 125.332 11.1724H124.182V13.5218H123.253ZM125.357 8.34969H124.182V10.2934H125.357C125.577 10.2934 125.763 10.2484 125.915 10.1582C126.067 10.0624 126.183 9.94133 126.261 9.79483C126.346 9.64271 126.388 9.48497 126.388 9.32157C126.388 9.15817 126.346 9.00326 126.261 8.85676C126.183 8.71026 126.067 8.58916 125.915 8.49336C125.763 8.39757 125.577 8.34969 125.357 8.34969ZM129.783 13.657C129.36 13.657 128.982 13.5584 128.65 13.3612C128.318 13.164 128.056 12.8936 127.864 12.5499C127.678 12.2062 127.585 11.8146 127.585 11.3752C127.585 10.9639 127.675 10.5836 127.856 10.2343C128.036 9.88496 128.287 9.60608 128.608 9.39763C128.935 9.18352 129.309 9.07649 129.732 9.07649C130.177 9.07649 130.554 9.17228 130.864 9.36382C131.18 9.55537 131.419 9.81735 131.583 10.1498C131.746 10.4822 131.828 10.8568 131.828 11.2738C131.828 11.3358 131.825 11.3921 131.819 11.4428C131.819 11.4935 131.816 11.5329 131.811 11.5611H128.481C128.526 11.9893 128.675 12.3104 128.929 12.5245C129.188 12.7386 129.481 12.8457 129.808 12.8457C130.101 12.8457 130.343 12.7809 130.535 12.6513C130.726 12.5161 130.878 12.3499 130.991 12.1527L131.743 12.5161C131.557 12.8541 131.304 13.1302 130.983 13.3443C130.662 13.5527 130.261 13.657 129.783 13.657ZM129.74 9.85399C129.436 9.85399 129.177 9.94695 128.963 10.1329C128.749 10.3188 128.605 10.5667 128.532 10.8766H130.923C130.912 10.7301 130.864 10.578 130.78 10.4202C130.695 10.2625 130.566 10.13 130.391 10.023C130.222 9.91031 130.005 9.85399 129.74 9.85399ZM132.675 13.5218V9.2117H133.537V9.80328H133.587C133.711 9.59484 133.894 9.42298 134.137 9.28776C134.384 9.14693 134.655 9.07649 134.948 9.07649C135.477 9.07649 135.875 9.23423 136.14 9.54975C136.404 9.86527 136.537 10.2822 136.537 10.8005V13.5218H135.632V10.9188C135.632 10.5695 135.545 10.316 135.37 10.1582C135.196 9.99483 134.967 9.91315 134.686 9.91315C134.466 9.91315 134.274 9.97513 134.111 10.0991C133.948 10.2174 133.818 10.3751 133.722 10.5723C133.632 10.7695 133.587 10.9808 133.587 11.2062V13.5218H132.675ZM134.306 8.3835L133.401 7.36092V7.30176H134.272L134.661 7.82573H134.745L135.142 7.30176H136.021V7.36092L135.108 8.3835H134.306ZM138.888 13.657C138.578 13.657 138.302 13.5978 138.06 13.4795C137.817 13.3556 137.629 13.1837 137.493 12.964C137.358 12.7443 137.291 12.4936 137.291 12.2118C137.291 11.9076 137.369 11.6485 137.527 11.4343C137.69 11.2146 137.907 11.0484 138.178 10.9357C138.448 10.823 138.747 10.7667 139.074 10.7667C139.344 10.7667 139.581 10.7921 139.784 10.8428C139.992 10.8935 140.15 10.947 140.257 11.0033V10.7752C140.257 10.4934 140.155 10.2681 139.953 10.0991C139.75 9.93005 139.488 9.84554 139.167 9.84554C138.947 9.84554 138.738 9.89624 138.541 9.99766C138.344 10.0934 138.186 10.2258 138.068 10.3949L137.443 9.91315C137.629 9.65399 137.874 9.45117 138.178 9.30467C138.488 9.15255 138.826 9.07649 139.192 9.07649C139.817 9.07649 140.299 9.23144 140.637 9.5413C140.975 9.84554 141.144 10.2737 141.144 10.8259V13.5218H140.257V12.9893H140.206C140.093 13.164 139.924 13.3189 139.699 13.4542C139.473 13.5894 139.203 13.657 138.888 13.657ZM139.048 12.9133C139.285 12.9133 139.493 12.857 139.674 12.7443C139.854 12.6316 139.995 12.4851 140.096 12.3048C140.203 12.1189 140.257 11.9189 140.257 11.7048C140.127 11.6315 139.975 11.5724 139.801 11.5273C139.626 11.4766 139.44 11.4512 139.243 11.4512C138.871 11.4512 138.606 11.5273 138.448 11.6794C138.29 11.8259 138.212 12.0062 138.212 12.2203C138.212 12.4231 138.288 12.5893 138.44 12.7189C138.592 12.8485 138.795 12.9133 139.048 12.9133ZM141.921 13.5218V12.7612L144.321 10.0061H141.997V9.2117H145.437V9.9723L143.045 12.7274H145.504V13.5218H141.921ZM143.324 8.3835L142.42 7.36092V7.30176H143.29L143.679 7.82573H143.763L144.16 7.30176H145.039V7.36092L144.127 8.3835H143.324ZM148.244 13.657C147.822 13.657 147.445 13.5584 147.112 13.3612C146.779 13.164 146.517 12.8936 146.326 12.5499C146.14 12.2062 146.047 11.8146 146.047 11.3752C146.047 10.9639 146.137 10.5836 146.318 10.2343C146.498 9.88496 146.749 9.60608 147.07 9.39763C147.396 9.18352 147.771 9.07649 148.194 9.07649C148.639 9.07649 149.016 9.17228 149.326 9.36382C149.642 9.55537 149.881 9.81735 150.045 10.1498C150.208 10.4822 150.29 10.8568 150.29 11.2738C150.29 11.3358 150.287 11.3921 150.281 11.4428C150.281 11.4935 150.278 11.5329 150.273 11.5611H146.943C146.988 11.9893 147.137 12.3104 147.391 12.5245C147.65 12.7386 147.943 12.8457 148.27 12.8457C148.563 12.8457 148.805 12.7809 148.997 12.6513C149.188 12.5161 149.34 12.3499 149.453 12.1527L150.205 12.5161C150.019 12.8541 149.766 13.1302 149.444 13.3443C149.123 13.5527 148.723 13.657 148.244 13.657ZM148.202 9.85399C147.898 9.85399 147.639 9.94695 147.425 10.1329C147.21 10.3188 147.067 10.5667 146.994 10.8766H149.385C149.374 10.7301 149.326 10.578 149.242 10.4202C149.157 10.2625 149.027 10.13 148.853 10.023C148.684 9.91031 148.467 9.85399 148.202 9.85399ZM151.136 13.5218V9.2117H151.998V9.80328H152.049C152.173 9.59484 152.356 9.42298 152.598 9.28776C152.846 9.14693 153.117 9.07649 153.41 9.07649C153.939 9.07649 154.336 9.23423 154.601 9.54975C154.866 9.86527 154.999 10.2822 154.999 10.8005V13.5218H154.094V10.9188C154.094 10.5695 154.007 10.316 153.832 10.1582C153.658 9.99483 153.43 9.91315 153.148 9.91315C152.928 9.91315 152.737 9.97513 152.573 10.0991C152.41 10.2174 152.28 10.3751 152.184 10.5723C152.094 10.7695 152.049 10.9808 152.049 11.2062V13.5218H151.136ZM156.039 13.5218V7.47078H156.952V11.0371L158.777 9.2117H159.909V9.26241L158.245 10.9104L159.969 13.4711V13.5218H158.887L157.602 11.5442L156.952 12.1865V13.5218H156.039ZM161.806 13.657C161.497 13.657 161.22 13.5978 160.978 13.4795C160.736 13.3556 160.547 13.1837 160.412 12.964C160.277 12.7443 160.209 12.4936 160.209 12.2118C160.209 11.9076 160.288 11.6485 160.446 11.4343C160.609 11.2146 160.826 11.0484 161.096 10.9357C161.367 10.823 161.666 10.7667 161.992 10.7667C162.263 10.7667 162.499 10.7921 162.702 10.8428C162.91 10.8935 163.068 10.947 163.175 11.0033V10.7752C163.175 10.4934 163.074 10.2681 162.871 10.0991C162.668 9.93005 162.406 9.84554 162.085 9.84554C161.865 9.84554 161.657 9.89624 161.46 9.99766C161.262 10.0934 161.105 10.2258 160.987 10.3949L160.361 9.91315C160.547 9.65399 160.792 9.45117 161.096 9.30467C161.406 9.15255 161.744 9.07649 162.111 9.07649C162.736 9.07649 163.218 9.23144 163.556 9.5413C163.894 9.84554 164.063 10.2737 164.063 10.8259V13.5218H163.175V12.9893H163.125C163.012 13.164 162.843 13.3189 162.618 13.4542C162.392 13.5894 162.122 13.657 161.806 13.657ZM161.967 12.9133C162.204 12.9133 162.412 12.857 162.592 12.7443C162.773 12.6316 162.913 12.4851 163.015 12.3048C163.122 12.1189 163.175 11.9189 163.175 11.7048C163.046 11.6315 162.894 11.5724 162.719 11.5273C162.545 11.4766 162.359 11.4512 162.161 11.4512C161.789 11.4512 161.524 11.5273 161.367 11.6794C161.209 11.8259 161.13 12.0062 161.13 12.2203C161.13 12.4231 161.206 12.5893 161.358 12.7189C161.511 12.8485 161.713 12.9133 161.967 12.9133Z" fill="white"/>
<path d="M163.106 0.210938H10.5635C4.84595 0.210938 0.210938 4.84595 0.210938 10.5635C0.210938 16.2811 4.84595 20.9161 10.5635 20.9161H163.106C168.823 20.9161 173.458 16.2811 173.458 10.5635C173.458 4.84595 168.823 0.210938 163.106 0.210938Z" stroke="#747775"/>
</g>
<defs>
<linearGradient id="paint0_linear_568_861" x1="14.6092" y1="13.0089" x2="7.91618" y2="20.6685" gradientUnits="userSpaceOnUse">
<stop stop-color="#4285F4"/>
<stop offset="1" stop-color="#1B74E8"/>
</linearGradient>
<clipPath id="clip0_568_861">
<rect width="173.67" height="21.1277" fill="white"/>
</clipPath>
</defs>
</svg>
