<svg width="174" height="48" viewBox="0 0 174 48" fill="none" xmlns="http://www.w3.org/2000/svg">
<g clip-path="url(#clip0_568_403)">
<path d="M149.672 0.436523H24.0008C10.9871 0.436523 0.4375 10.9862 0.4375 23.9998C0.4375 37.0134 10.9871 47.563 24.0008 47.563H149.672C162.685 47.563 173.235 37.0134 173.235 23.9998C173.235 10.9862 162.685 0.436523 149.672 0.436523Z" fill="#1F1F1F"/>
<path d="M49.7458 20.7629H18.3281V15.8361C18.3281 13.1615 20.634 10.9092 23.3722 10.9092H44.7017C47.4399 10.9092 49.7458 13.1615 49.7458 15.8361V20.7629Z" fill="#34A853"/>
<path d="M49.7458 25.3085H18.3281V20.0722C18.3281 17.2297 20.634 14.8359 23.3722 14.8359H44.7017C47.4399 14.8359 49.7458 17.2297 49.7458 20.0722V25.3085Z" fill="#FBBC04"/>
<path d="M49.7458 29.6718H18.3281V24.4355C18.3281 21.593 20.634 19.1992 23.3722 19.1992H44.7017C47.4399 19.1992 49.7458 21.593 49.7458 24.4355V29.6718Z" fill="#EA4335"/>
<path d="M18.3281 22.0276L38.269 26.5322C40.5644 27.0953 43.1467 26.5322 45.0116 25.1245L49.7458 21.7461V32.3037C49.7458 34.9783 47.4505 37.0898 44.7247 37.0898H23.3492C20.6234 37.0898 18.3281 34.9783 18.3281 32.3037V22.0276Z" fill="url(#paint0_linear_568_403)"/>
<path d="M61.1367 18.7635V10.6403H63.7348C64.5894 10.6403 65.3231 10.8142 65.9358 11.1622C66.556 11.5025 67.0325 11.979 67.3653 12.5917C67.7056 13.2043 67.8758 13.9077 67.8758 14.7019C67.8758 15.5036 67.7056 16.2108 67.3653 16.8235C67.0325 17.4285 66.556 17.905 65.9358 18.253C65.3231 18.5933 64.5894 18.7635 63.7348 18.7635H61.1367ZM62.3847 17.5836H63.7007C64.6235 17.5836 65.3382 17.3264 65.845 16.8121C66.3593 16.2978 66.6165 15.5944 66.6165 14.7019C66.6165 13.8094 66.3593 13.106 65.845 12.5917C65.3382 12.0774 64.6235 11.8202 63.7007 11.8202H62.3847V17.5836ZM71.6547 18.945C71.0571 18.945 70.5315 18.8089 70.0777 18.5366C69.6239 18.2643 69.2684 17.8975 69.0112 17.4361C68.754 16.9747 68.6255 16.4528 68.6255 15.8704C68.6255 15.2956 68.754 14.7776 69.0112 14.3161C69.2684 13.8472 69.6239 13.4766 70.0777 13.2043C70.5315 12.932 71.0571 12.7959 71.6547 12.7959C72.2446 12.7959 72.7665 12.932 73.2203 13.2043C73.6741 13.4766 74.0296 13.8472 74.2868 14.3161C74.544 14.7776 74.6725 15.2956 74.6725 15.8704C74.6725 16.4528 74.544 16.9747 74.2868 17.4361C74.0296 17.8975 73.6741 18.2643 73.2203 18.5366C72.7665 18.8089 72.2446 18.945 71.6547 18.945ZM71.6547 17.8218C71.9723 17.8218 72.2673 17.7462 72.5396 17.5949C72.8119 17.4361 73.0312 17.2129 73.1976 16.9256C73.3716 16.6306 73.4586 16.2789 73.4586 15.8704C73.4586 15.462 73.3716 15.1141 73.1976 14.8267C73.0312 14.5317 72.8119 14.3086 72.5396 14.1573C72.2673 13.9985 71.9723 13.9191 71.6547 13.9191C71.337 13.9191 71.0383 13.9985 70.7584 14.1573C70.4861 14.3086 70.2629 14.5317 70.089 14.8267C69.9226 15.1141 69.8394 15.462 69.8394 15.8704C69.8394 16.2789 69.9226 16.6306 70.089 16.9256C70.2629 17.2129 70.4861 17.4361 70.7584 17.5949C71.0383 17.7462 71.337 17.8218 71.6547 17.8218ZM78.2743 18.945C77.7524 18.945 77.2797 18.8165 76.8561 18.5593C76.4401 18.2946 76.1073 17.9315 75.8577 17.4701C75.6157 17.0012 75.4947 16.468 75.4947 15.8704C75.4947 15.2729 75.6157 14.7435 75.8577 14.2821C76.1073 13.8207 76.4401 13.4577 76.8561 13.193C77.2797 12.9283 77.7524 12.7959 78.2743 12.7959C78.7205 12.7959 79.1025 12.8942 79.4202 13.0909C79.7454 13.2875 79.9837 13.5106 80.1349 13.7602H80.203L80.1349 12.9547V10.6403H81.3488V18.7635H80.203V17.992H80.1349C79.9837 18.2416 79.7454 18.4648 79.4202 18.6614C79.1025 18.8505 78.7205 18.945 78.2743 18.945ZM78.4558 17.8218C78.7584 17.8218 79.042 17.7424 79.3067 17.5836C79.579 17.4248 79.7945 17.2016 79.9534 16.9142C80.1198 16.6192 80.203 16.2713 80.203 15.8704C80.203 15.4696 80.1198 15.1254 79.9534 14.838C79.7945 14.5431 79.579 14.3161 79.3067 14.1573C79.042 13.9985 78.7584 13.9191 78.4558 13.9191C78.1532 13.9191 77.8696 13.9985 77.6049 14.1573C77.3402 14.3161 77.1247 14.5431 76.9582 14.838C76.7918 15.1254 76.7086 15.4696 76.7086 15.8704C76.7086 16.2713 76.7918 16.6192 76.9582 16.9142C77.1247 17.2016 77.3402 17.4248 77.6049 17.5836C77.8696 17.7424 78.1532 17.8218 78.4558 17.8218ZM84.552 18.945C84.1359 18.945 83.7653 18.8656 83.4401 18.7068C83.1149 18.5403 82.8615 18.3097 82.68 18.0147C82.4985 17.7197 82.4077 17.3831 82.4077 17.005C82.4077 16.5965 82.5136 16.2486 82.7254 15.9612C82.9447 15.6662 83.2359 15.4431 83.599 15.2918C83.962 15.1406 84.3629 15.0649 84.8016 15.0649C85.1646 15.0649 85.4823 15.099 85.7546 15.167C86.0344 15.2351 86.2462 15.3069 86.3899 15.3826V15.0763C86.3899 14.6981 86.2538 14.3956 85.9815 14.1687C85.7092 13.9418 85.3575 13.8283 84.9264 13.8283C84.6314 13.8283 84.3515 13.8964 84.0868 14.0325C83.822 14.1611 83.6103 14.3388 83.4515 14.5657L82.6119 13.9191C82.8615 13.5711 83.1905 13.2988 83.599 13.1022C84.0149 12.898 84.4687 12.7959 84.9604 12.7959C85.8 12.7959 86.4466 13.0038 86.9004 13.4199C87.3539 13.8283 87.5808 14.4032 87.5808 15.1444V18.7635H86.3899V18.0487H86.3218C86.1705 18.2832 85.9436 18.4912 85.6411 18.6727C85.3385 18.8543 84.9755 18.945 84.552 18.945ZM84.7675 17.9466C85.0852 17.9466 85.365 17.871 85.6071 17.7197C85.8491 17.5685 86.0382 17.3718 86.1743 17.1298C86.318 16.8802 86.3899 16.6116 86.3899 16.3243C86.2159 16.2259 86.0117 16.1465 85.7773 16.086C85.5428 16.0179 85.2932 15.9839 85.0285 15.9839C84.5293 15.9839 84.1737 16.086 83.962 16.2902C83.7502 16.4868 83.6443 16.7289 83.6443 17.0163C83.6443 17.2886 83.7465 17.5118 83.9507 17.6857C84.1549 17.8596 84.4272 17.9466 84.7675 17.9466ZM89.6334 12.1265C89.4065 12.1265 89.2102 12.0471 89.0435 11.8883C88.8846 11.7218 88.8052 11.5252 88.8052 11.2983C88.8052 11.0714 88.8846 10.8785 89.0435 10.7197C89.2102 10.5609 89.4065 10.4814 89.6334 10.4814C89.8603 10.4814 90.0532 10.5609 90.212 10.7197C90.3787 10.8785 90.4616 11.0714 90.4616 11.2983C90.4616 11.5252 90.3787 11.7218 90.212 11.8883C90.0532 12.0471 89.8603 12.1265 89.6334 12.1265ZM88.5329 21.3275C88.2982 21.3275 88.087 21.3011 87.8976 21.2481V20.0682C87.9735 20.1136 88.0599 20.1476 88.1585 20.1703C88.2493 20.2006 88.3401 20.2157 88.4308 20.2157C88.6499 20.2157 88.8017 20.1476 88.8846 20.0115C88.9754 19.8829 89.0208 19.6938 89.0208 19.4442V12.9774H90.2461V19.4556C90.2461 20.1212 90.0838 20.5977 89.7582 20.8851C89.4327 21.18 89.0243 21.3275 88.5329 21.3275ZM96.513 18.945C95.8026 18.945 95.2651 18.7332 94.902 18.3097C94.5468 17.8786 94.3688 17.2962 94.3688 16.5625V12.9774H95.5941V16.3923C95.5941 16.8839 95.7075 17.247 95.9344 17.4815C96.1692 17.7084 96.4607 17.8218 96.808 17.8218C97.1187 17.8218 97.3866 17.7424 97.6135 17.5836C97.8483 17.4172 98.0263 17.2054 98.1468 16.9483C98.2759 16.6836 98.3396 16.3961 98.3396 16.086V12.9774H99.5536V18.7635H98.4077V17.9807H98.3396C98.1738 18.253 97.9242 18.4836 97.5908 18.6727C97.2662 18.8543 96.9066 18.945 96.513 18.945Z" fill="white"/>
<path d="M66.4503 36.4548C65.6887 36.4548 64.9716 36.3163 64.299 36.0394C63.6364 35.7625 63.0478 35.3768 62.5335 34.8822C62.0192 34.3778 61.6137 33.7893 61.317 33.1167C61.0301 32.4343 60.8867 31.6974 60.8867 30.9061C60.8867 30.1148 61.0301 29.383 61.317 28.7104C61.6137 28.0279 62.0143 27.4395 62.5187 26.9449C63.033 26.4405 63.6264 26.0497 64.299 25.7728C64.9716 25.4959 65.6887 25.3574 66.4503 25.3574C67.2613 25.3574 68.0081 25.5008 68.6905 25.7877C69.3828 26.0745 69.9615 26.4751 70.4264 26.9894L69.2988 28.1021C68.9526 27.7164 68.5372 27.4196 68.0526 27.2119C67.5778 27.0042 67.0437 26.9004 66.4503 26.9004C65.748 26.9004 65.1002 27.0686 64.5067 27.4048C63.9133 27.7312 63.4336 28.1961 63.0676 28.7994C62.7116 29.3928 62.5335 30.0951 62.5335 30.9061C62.5335 31.7171 62.7165 32.4244 63.0825 33.0277C63.4484 33.6211 63.9281 34.086 64.5216 34.4223C65.115 34.7487 65.7628 34.9119 66.4651 34.9119C67.108 34.9119 67.6915 34.7932 68.2158 34.5558C68.74 34.3086 69.1603 33.9624 69.4768 33.5173C69.8032 33.0722 70.0011 32.5381 70.0703 31.915H66.4354V30.4759H71.5984C71.6578 30.7429 71.6874 31.0248 71.6874 31.3215V31.3364C71.6874 32.3651 71.4599 33.2651 71.005 34.0366C70.5599 34.7982 69.9417 35.3916 69.1504 35.8169C68.3592 36.2422 67.4591 36.4548 66.4503 36.4548ZM76.4646 36.4548C75.6831 36.4548 74.9958 36.2768 74.4023 35.9207C73.8089 35.5647 73.344 35.0849 73.0078 34.4816C72.6714 33.8783 72.5033 33.1959 72.5033 32.4343C72.5033 31.6826 72.6714 31.005 73.0078 30.4017C73.344 29.7884 73.8089 29.3038 74.4023 28.9478C74.9958 28.5917 75.6831 28.4137 76.4646 28.4137C77.236 28.4137 77.9185 28.5917 78.512 28.9478C79.1054 29.3038 79.5702 29.7884 79.9066 30.4017C80.2428 31.005 80.411 31.6826 80.411 32.4343C80.411 33.1959 80.2428 33.8783 79.9066 34.4816C79.5702 35.0849 79.1054 35.5647 78.512 35.9207C77.9185 36.2768 77.236 36.4548 76.4646 36.4548ZM76.4646 34.9861C76.88 34.9861 77.2657 34.8872 77.6218 34.6893C77.9779 34.4816 78.2646 34.1899 78.4823 33.814C78.7097 33.4283 78.8235 32.9684 78.8235 32.4343C78.8235 31.9002 78.7097 31.4452 78.4823 31.0693C78.2646 30.6836 77.9779 30.3918 77.6218 30.194C77.2657 29.9863 76.88 29.8824 76.4646 29.8824C76.0492 29.8824 75.6584 29.9863 75.2925 30.194C74.9364 30.3918 74.6446 30.6836 74.4172 31.0693C74.1995 31.4452 74.0908 31.9002 74.0908 32.4343C74.0908 32.9684 74.1995 33.4283 74.4172 33.814C74.6446 34.1899 74.9364 34.4816 75.2925 34.6893C75.6584 34.8872 76.0492 34.9861 76.4646 34.9861ZM85.4473 36.4548C84.666 36.4548 83.9785 36.2768 83.3851 35.9207C82.7917 35.5647 82.3268 35.0849 81.9905 34.4816C81.6542 33.8783 81.4861 33.1959 81.4861 32.4343C81.4861 31.6826 81.6542 31.005 81.9905 30.4017C82.3268 29.7884 82.7917 29.3038 83.3851 28.9478C83.9785 28.5917 84.666 28.4137 85.4473 28.4137C86.2188 28.4137 86.9013 28.5917 87.4949 28.9478C88.0883 29.3038 88.5535 29.7884 88.8895 30.4017C89.2255 31.005 89.3939 31.6826 89.3939 32.4343C89.3939 33.1959 89.2255 33.8783 88.8895 34.4816C88.5535 35.0849 88.0883 35.5647 87.4949 35.9207C86.9013 36.2768 86.2188 36.4548 85.4473 36.4548ZM85.4473 34.9861C85.8627 34.9861 86.2485 34.8872 86.6045 34.6893C86.9606 34.4816 87.2475 34.1899 87.4652 33.814C87.693 33.4283 87.8064 32.9684 87.8064 32.4343C87.8064 31.9002 87.693 31.4452 87.4652 31.0693C87.2475 30.6836 86.9606 30.3918 86.6045 30.194C86.2485 29.9863 85.8627 29.8824 85.4473 29.8824C85.0319 29.8824 84.6413 29.9863 84.2753 30.194C83.9192 30.3918 83.6275 30.6836 83.3999 31.0693C83.1824 31.4452 83.0735 31.9002 83.0735 32.4343C83.0735 32.9684 83.1824 33.4283 83.3999 33.814C83.6275 34.1899 83.9192 34.4816 84.2753 34.6893C84.6413 34.8872 85.0319 34.9861 85.4473 34.9861ZM94.282 39.6595C93.6187 39.6595 93.0453 39.5506 92.561 39.3331C92.0862 39.1253 91.7005 38.8533 91.4038 38.5171C91.107 38.1907 90.8941 37.8544 90.7658 37.5082L92.2494 36.8851C92.4074 37.2807 92.6596 37.6022 93.0061 37.8494C93.3621 38.1066 93.7871 38.2352 94.282 38.2352C94.974 38.2352 95.5177 38.0275 95.914 37.6121C96.3189 37.1967 96.5222 36.6082 96.5222 35.8466V35.1196H96.4332C96.1958 35.4757 95.8642 35.7625 95.4392 35.9801C95.0238 36.1878 94.549 36.2916 94.0149 36.2916C93.3717 36.2916 92.7835 36.1284 92.2494 35.8021C91.7153 35.4757 91.2851 35.0207 90.9587 34.4371C90.6323 33.8437 90.4691 33.1514 90.4691 32.3601C90.4691 31.5589 90.6323 30.8666 90.9587 30.283C91.2851 29.6896 91.7153 29.2297 92.2494 28.9033C92.7835 28.5769 93.3717 28.4137 94.0149 28.4137C94.549 28.4137 95.0238 28.5225 95.4392 28.7401C95.8642 28.9576 96.1958 29.2445 96.4332 29.6006H96.5222V28.651H98.0504V35.8169C98.0504 36.6379 97.8872 37.3352 97.5608 37.9088C97.244 38.4824 96.8041 38.9176 96.2403 39.2144C95.6766 39.5111 95.0238 39.6595 94.282 39.6595ZM94.2968 34.8377C94.6921 34.8377 95.0578 34.7437 95.3947 34.5558C95.7307 34.358 96.003 34.0761 96.2107 33.7102C96.4184 33.3343 96.5222 32.8843 96.5222 32.3601C96.5222 31.8161 96.4184 31.3611 96.2107 30.9951C96.003 30.6193 95.7307 30.3374 95.3947 30.1495C95.0578 29.9616 94.6921 29.8676 94.2968 29.8676C93.9006 29.8676 93.5297 29.9665 93.1841 30.1643C92.8472 30.3522 92.5758 30.6292 92.3681 30.9951C92.1604 31.3611 92.0566 31.8161 92.0566 32.3601C92.0566 32.8942 92.1604 33.3491 92.3681 33.725C92.5758 34.0909 92.8472 34.3679 93.1841 34.5558C93.5297 34.7437 93.9006 34.8377 94.2968 34.8377ZM99.9398 36.2175V25.5948H101.542V36.2175H99.9398ZM106.815 36.4548C106.073 36.4548 105.411 36.2818 104.827 35.9356C104.244 35.5894 103.784 35.1146 103.447 34.5113C103.121 33.908 102.958 33.2206 102.958 32.4491C102.958 31.7271 103.116 31.0595 103.432 30.4462C103.749 29.833 104.189 29.3434 104.753 28.9774C105.327 28.6016 105.984 28.4137 106.726 28.4137C107.508 28.4137 108.17 28.5818 108.714 28.9181C109.268 29.2544 109.689 29.7143 109.975 30.2979C110.262 30.8814 110.405 31.5391 110.405 32.2711C110.405 32.3799 110.401 32.4788 110.391 32.5678C110.391 32.6568 110.386 32.726 110.376 32.7755H104.53C104.61 33.5272 104.871 34.0909 105.317 34.4668C105.772 34.8427 106.286 35.0306 106.86 35.0306C107.374 35.0306 107.799 34.9169 108.135 34.6893C108.472 34.452 108.739 34.1602 108.937 33.814L110.257 34.452C109.931 35.0454 109.486 35.53 108.922 35.9059C108.358 36.2718 107.656 36.4548 106.815 36.4548ZM106.741 29.7786C106.207 29.7786 105.752 29.9418 105.376 30.2682C105.001 30.5946 104.748 31.0298 104.619 31.5738H108.818C108.799 31.3166 108.714 31.0495 108.566 30.7726C108.417 30.4957 108.19 30.2632 107.883 30.0753C107.586 29.8775 107.206 29.7786 106.741 29.7786ZM116.927 36.2175L114.079 25.5948H115.889L117.58 32.4936L117.758 33.4134H117.847L118.07 32.4936L120.206 25.5948H121.838L123.885 32.4936L124.108 33.3986H124.197L124.375 32.4936L126.066 25.5948H127.861L125.057 36.2175H123.336L121.304 29.1703L121.066 28.1763H120.977L120.725 29.1703L118.604 36.2175H116.927ZM130.841 36.4548C130.297 36.4548 129.812 36.351 129.387 36.1433C128.962 35.9257 128.63 35.624 128.393 35.2383C128.155 34.8525 128.037 34.4124 128.037 33.9179C128.037 33.3838 128.176 32.9288 128.452 32.5529C128.739 32.1672 129.12 31.8755 129.595 31.6776C130.069 31.4798 130.594 31.3809 131.167 31.3809C131.642 31.3809 132.057 31.4254 132.413 31.5144C132.779 31.6034 133.057 31.6974 133.244 31.7963V31.3957C133.244 30.9012 133.066 30.5056 132.71 30.2088C132.354 29.9121 131.894 29.7638 131.33 29.7638C130.945 29.7638 130.579 29.8528 130.233 30.0308C129.886 30.199 129.609 30.4314 129.402 30.7281L128.304 29.8824C128.63 29.4275 129.06 29.0714 129.595 28.8142C130.138 28.5472 130.732 28.4137 131.375 28.4137C132.473 28.4137 133.318 28.6857 133.912 29.2297C134.505 29.7638 134.802 30.5154 134.802 31.4847V36.2175H133.244V35.2828H133.155C132.957 35.5894 132.66 35.8614 132.265 36.0988C131.87 36.3362 131.395 36.4548 130.841 36.4548ZM131.123 35.1493C131.538 35.1493 131.904 35.0504 132.221 34.8525C132.537 34.6547 132.784 34.3976 132.962 34.0811C133.15 33.7547 133.244 33.4036 133.244 33.0277C133.016 32.8992 132.749 32.7953 132.443 32.7161C132.137 32.6271 131.81 32.5826 131.464 32.5826C130.811 32.5826 130.346 32.7161 130.069 32.9832C129.793 33.2404 129.654 33.5568 129.654 33.9327C129.654 34.2888 129.787 34.5805 130.055 34.808C130.322 35.0356 130.678 35.1493 131.123 35.1493ZM136.581 36.2175V25.5948H138.183V36.2175H136.581ZM140.087 36.2175V25.5948H141.69V36.2175H140.087ZM146.962 36.4548C146.221 36.4548 145.558 36.2818 144.974 35.9356C144.391 35.5894 143.932 35.1146 143.595 34.5113C143.268 33.908 143.105 33.2206 143.105 32.4491C143.105 31.7271 143.264 31.0595 143.58 30.4462C143.897 29.833 144.336 29.3434 144.9 28.9774C145.474 28.6016 146.132 28.4137 146.873 28.4137C147.655 28.4137 148.318 28.5818 148.861 28.9181C149.416 29.2544 149.836 29.7143 150.123 30.2979C150.41 30.8814 150.553 31.5391 150.553 32.2711C150.553 32.3799 150.548 32.4788 150.538 32.5678C150.538 32.6568 150.534 32.726 150.523 32.7755H144.678C144.757 33.5272 145.019 34.0909 145.464 34.4668C145.92 34.8427 146.434 35.0306 147.007 35.0306C147.522 35.0306 147.947 34.9169 148.283 34.6893C148.62 34.452 148.887 34.1602 149.084 33.814L150.404 34.452C150.078 35.0454 149.633 35.53 149.069 35.9059C148.505 36.2718 147.804 36.4548 146.962 36.4548ZM146.888 29.7786C146.354 29.7786 145.899 29.9418 145.523 30.2682C145.148 30.5946 144.896 31.0298 144.767 31.5738H148.965C148.946 31.3166 148.861 31.0495 148.713 30.7726C148.565 30.4957 148.338 30.2632 148.031 30.0753C147.734 29.8775 147.353 29.7786 146.888 29.7786ZM152.624 34.0217V30.0456H151.303V28.651H152.624V26.5146H154.226V28.651H156.081V30.0456H154.226V33.6805C154.226 34.0564 154.3 34.3431 154.449 34.541C154.607 34.7388 154.868 34.8377 155.235 34.8377C155.423 34.8377 155.581 34.813 155.71 34.7635C155.848 34.714 155.986 34.6448 156.125 34.5558V36.1136C155.957 36.1828 155.779 36.2373 155.591 36.2768C155.402 36.3163 155.18 36.3362 154.923 36.3362C154.221 36.3362 153.662 36.1334 153.247 35.7279C152.831 35.3125 152.624 34.7437 152.624 34.0217Z" fill="white"/>
<path d="M149.672 0.436523H24.0008C10.9871 0.436523 0.4375 10.9862 0.4375 23.9998C0.4375 37.0134 10.9871 47.563 24.0008 47.563H149.672C162.685 47.563 173.235 37.0134 173.235 23.9998C173.235 10.9862 162.685 0.436523 149.672 0.436523Z" stroke="#747775"/>
</g>
<defs>
<linearGradient id="paint0_linear_568_403" x1="32.5397" y1="29.7109" x2="16.3927" y2="48.6295" gradientUnits="userSpaceOnUse">
<stop stop-color="#4285F4"/>
<stop offset="1" stop-color="#1B74E8"/>
</linearGradient>
<clipPath id="clip0_568_403">
<rect width="173.67" height="47.9992" fill="white"/>
</clipPath>
</defs>
</svg>
