<svg width="174" height="24" viewBox="0 0 174 24" fill="none" xmlns="http://www.w3.org/2000/svg">
<g clip-path="url(#clip0_568_933)">
<path d="M161.841 0.236328H11.8321C5.42899 0.236328 0.238281 5.42704 0.238281 11.8301C0.238281 18.2332 5.42899 23.4239 11.8321 23.4239H161.841C168.244 23.4239 173.435 18.2332 173.435 11.8301C173.435 5.42704 168.244 0.236328 161.841 0.236328Z" fill="#1F1F1F"/>
<path d="M161.841 0.236328H11.8321C5.42899 0.236328 0.238281 5.42704 0.238281 11.8301C0.238281 18.2332 5.42899 23.4239 11.8321 23.4239H161.841C168.244 23.4239 173.435 18.2332 173.435 11.8301C173.435 5.42704 168.244 0.236328 161.841 0.236328Z" stroke="#747775"/>
<path d="M24.134 10.4109H9.9375V8.04479C9.9375 6.76034 10.9794 5.67871 12.2167 5.67871H21.8547C23.092 5.67871 24.134 6.76034 24.134 8.04479V10.4109Z" fill="#34A853"/>
<path d="M24.134 12.3288H9.9375V9.96276C9.9375 8.67831 10.9794 7.59668 12.2167 7.59668H21.8547C23.092 7.59668 24.134 8.67831 24.134 9.96276V12.3288Z" fill="#FBBC04"/>
<path d="M24.134 14.3132H9.9375V11.9471C9.9375 10.6627 10.9794 9.58105 12.2167 9.58105H21.8547C23.092 9.58105 24.134 10.6627 24.134 11.9471V14.3132Z" fill="#EA4335"/>
<path d="M9.9375 11.014L18.948 13.0979C19.9852 13.3584 21.152 13.0979 21.9948 12.4467L24.134 10.8838V15.7679C24.134 17.0052 23.0968 17.982 21.8651 17.982H12.2063C10.9747 17.982 9.9375 17.0052 9.9375 15.7679V11.014Z" fill="#4285F4"/>
<path d="M31.7898 15.1427L29.9727 8.36621H31.1273L32.2062 12.7671L32.3198 13.3539H32.3766L32.5186 12.7671L33.8814 8.36621H34.9225L36.2286 12.7671L36.3705 13.3444H36.4273L36.5409 12.7671L37.6198 8.36621H38.765L36.9762 15.1427H35.8784L34.5818 10.6471L34.4303 10.013H34.3736L34.2127 10.6471L32.8593 15.1427H31.7898ZM41.1902 15.2941C40.717 15.2941 40.2943 15.1837 39.922 14.9628C39.5497 14.742 39.2563 14.4391 39.0418 14.0543C38.8336 13.6694 38.7295 13.2309 38.7295 12.7387C38.7295 12.2781 38.8304 11.8522 39.0324 11.461C39.2343 11.0698 39.515 10.7575 39.8747 10.5241C40.2406 10.2843 40.6602 10.1644 41.1334 10.1644C41.6319 10.1644 42.0546 10.2717 42.4017 10.4862C42.755 10.7007 43.0231 10.9941 43.2061 11.3664C43.3891 11.7387 43.4806 12.1582 43.4806 12.6251C43.4806 12.6946 43.4774 12.7576 43.4711 12.8144C43.4711 12.8712 43.468 12.9154 43.4617 12.9469H39.7327C39.7579 13.2119 39.8242 13.4422 39.9315 13.6378C40.0703 13.8839 40.2533 14.07 40.4804 14.1962C40.7075 14.3224 40.9536 14.3855 41.2186 14.3855C41.5404 14.3855 41.8086 14.313 42.0231 14.1678C42.2439 14.0164 42.4174 13.8303 42.5436 13.6094L43.3859 14.0164C43.1777 14.395 42.8938 14.7041 42.5342 14.9439C42.1745 15.1773 41.7265 15.2941 41.1902 15.2941ZM39.7895 12.1803H42.4679C42.4616 12.0605 42.43 11.9343 42.3733 11.8018C42.3165 11.663 42.2345 11.5368 42.1272 11.4232C42.0199 11.3096 41.8843 11.2181 41.7202 11.1487C41.5562 11.073 41.3638 11.0351 41.1429 11.0351C40.8653 11.0351 40.6192 11.1077 40.4047 11.2528C40.1902 11.3916 40.0229 11.5872 39.9031 11.8396C39.8526 11.9469 39.8147 12.0605 39.7895 12.1803ZM44.4289 15.1427V8.36621H45.451V12.3601L47.4953 10.3159H48.7636V10.3726L46.899 12.2182L48.8298 15.0859V15.1427H47.6184L46.1798 12.928L45.451 13.6473V15.1427H44.4289ZM50.8878 15.2941C50.541 15.2941 50.2315 15.2247 49.9603 15.0859C49.6953 14.9471 49.4838 14.7578 49.3262 14.518C49.1748 14.2719 49.0991 13.9912 49.0991 13.6757C49.0991 13.3287 49.1876 13.0353 49.3641 12.7955C49.5472 12.5557 49.79 12.3728 50.0928 12.2466C50.3957 12.1204 50.7302 12.0573 51.096 12.0573C51.2981 12.0573 51.4841 12.073 51.6544 12.1046C51.8309 12.1298 51.9824 12.1614 52.1087 12.1993C52.2412 12.2371 52.3453 12.2781 52.421 12.3223V12.0668C52.421 11.7513 52.3075 11.4989 52.0803 11.3096C51.8532 11.1203 51.5598 11.0257 51.2001 11.0257C50.9541 11.0257 50.7208 11.0825 50.4998 11.196C50.2788 11.3033 50.1023 11.4516 49.9698 11.6409L49.2694 11.1014C49.4081 10.9058 49.5756 10.7386 49.771 10.5998C49.9731 10.461 50.1969 10.3537 50.443 10.278C50.6952 10.2023 50.9574 10.1644 51.2285 10.1644C51.9289 10.1644 52.4684 10.338 52.8469 10.685C53.2255 11.0257 53.4148 11.5052 53.4148 12.1235V15.1427H52.421V14.5464H52.3643C52.2824 14.6726 52.1688 14.7925 52.0235 14.906C51.8849 15.0196 51.7174 15.1111 51.5219 15.1805C51.3326 15.2562 51.1211 15.2941 50.8878 15.2941ZM51.0676 14.4612C51.3326 14.4612 51.5659 14.3981 51.768 14.2719C51.9762 14.1457 52.1371 13.9817 52.2507 13.7798C52.3643 13.5716 52.421 13.3476 52.421 13.1078C52.2824 13.0258 52.112 12.9596 51.91 12.9091C51.7145 12.8523 51.5063 12.8239 51.2853 12.8239C50.8689 12.8239 50.5722 12.9059 50.3957 13.07C50.2192 13.234 50.1307 13.4391 50.1307 13.6852C50.1307 13.9123 50.2159 14.0984 50.3862 14.2435C50.5566 14.3887 50.7837 14.4612 51.0676 14.4612ZM56.7491 15.1427V8.36621H57.7712V12.3601L59.8155 10.3159H61.0837V10.3726L59.2193 12.2182L61.15 15.0859V15.1427H59.9385L58.5 12.928L57.7712 13.6473V15.1427H56.7491ZM62.7991 15.1427L61.2564 10.3159H62.3638L63.3575 13.7893H63.3954L64.4838 10.3159H65.5343L66.6227 13.7893H66.6606L67.6543 10.3159H68.7427L67.1906 15.1427H66.1211L65.0043 11.6503H64.9665L63.8591 15.1427H62.7991ZM71.5148 15.2941C71.0416 15.2941 70.619 15.1837 70.2466 14.9628C69.8742 14.742 69.5808 14.4391 69.3664 14.0543C69.1582 13.6694 69.0541 13.2309 69.0541 12.7387C69.0541 12.2781 69.1549 11.8522 69.3569 11.461C69.559 11.0698 69.8396 10.7575 70.1993 10.5241C70.5651 10.2843 70.9848 10.1644 71.458 10.1644C71.9563 10.1644 72.3794 10.2717 72.7262 10.4862C73.0797 10.7007 73.3476 10.9941 73.5307 11.3664C73.7138 11.7387 73.8052 12.1582 73.8052 12.6251C73.8052 12.6946 73.8019 12.7576 73.7957 12.8144C73.7957 12.8712 73.7924 12.9154 73.7862 12.9469H70.0573C70.0824 13.2119 70.1486 13.4422 70.2561 13.6378C70.3947 13.8839 70.5778 14.07 70.805 14.1962C71.0321 14.3224 71.2782 14.3855 71.5432 14.3855C71.865 14.3855 72.1333 14.313 72.3477 14.1678C72.5687 14.0164 72.7419 13.8303 72.8682 13.6094L73.7105 14.0164C73.5023 14.395 73.2184 14.7041 72.8587 14.9439C72.4991 15.1773 72.051 15.2941 71.5148 15.2941ZM70.1141 12.1803H72.7925C72.7863 12.0605 72.7546 11.9343 72.6978 11.8018C72.6411 11.663 72.5592 11.5368 72.4518 11.4232C72.3443 11.3096 72.209 11.2181 72.0448 11.1487C71.8806 11.073 71.6885 11.0351 71.4675 11.0351C71.1897 11.0351 70.9436 11.1077 70.7293 11.2528C70.5149 11.3916 70.3474 11.5872 70.2277 11.8396C70.177 11.9469 70.1392 12.0605 70.1141 12.1803ZM74.7535 15.1427V10.3159H75.7189V10.9784H75.7756C75.9143 10.7449 76.1197 10.5525 76.3908 10.401C76.6686 10.2433 76.9714 10.1644 77.2994 10.1644C77.8923 10.1644 78.3372 10.3411 78.6339 10.6944C78.9306 11.0414 79.0787 11.5084 79.0787 12.0951V15.1427H78.066V12.2276C78.066 11.8364 77.968 11.5525 77.7726 11.3759C77.5772 11.1929 77.3216 11.1014 77.006 11.1014C76.7599 11.1014 76.5456 11.1708 76.3624 11.3096C76.1793 11.4421 76.0345 11.6188 75.9271 11.8396C75.8263 12.0605 75.7756 12.2971 75.7756 12.5494V15.1427H74.7535ZM81.7609 16.9503C81.7419 16.9945 81.7197 17.0387 81.6946 17.0828C81.6757 17.1333 81.6629 17.168 81.6568 17.1869H80.5684C80.6001 17.1175 80.6441 17.0198 80.7009 16.8935C80.7638 16.7673 80.8239 16.6412 80.8807 16.515C80.9185 16.433 80.9564 16.3446 80.9943 16.25C81.0383 16.1553 81.0827 16.0575 81.1268 15.9566C81.1774 15.8556 81.2247 15.7578 81.2687 15.6632L81.6284 14.8777L79.6125 10.3159H80.7482L82.13 13.6094H82.1773L83.5118 10.3159H84.638L82.1394 16.0702C82.0954 16.1774 82.0448 16.291 81.988 16.4109C81.9374 16.5307 81.89 16.638 81.846 16.7327C81.8082 16.8336 81.7798 16.9062 81.7609 16.9503ZM87.3382 15.2941C86.865 15.2941 86.4419 15.1837 86.07 14.9628C85.6975 14.742 85.4041 14.4391 85.1898 14.0543C84.9816 13.6694 84.8775 13.2309 84.8775 12.7387C84.8775 12.2781 84.9783 11.8522 85.1803 11.461C85.3819 11.0698 85.663 10.7575 86.0226 10.5241C86.3884 10.2843 86.8082 10.1644 87.2814 10.1644C87.7797 10.1644 88.2023 10.2717 88.5496 10.4862C88.9026 10.7007 89.1709 10.9941 89.3541 11.3664C89.5367 11.7387 89.6285 12.1582 89.6285 12.6251C89.6285 12.6946 89.6252 12.7576 89.6191 12.8144C89.6191 12.8712 89.6158 12.9154 89.6096 12.9469H85.8807C85.9058 13.2119 85.972 13.4422 86.0794 13.6378C86.2181 13.8839 86.4012 14.07 86.6284 14.1962C86.8555 14.3224 87.1016 14.3855 87.3666 14.3855C87.6884 14.3855 87.9562 14.313 88.171 14.1678C88.3916 14.0164 88.5652 13.8303 88.6916 13.6094L89.5339 14.0164C89.3257 14.395 89.0418 14.7041 88.6821 14.9439C88.3225 15.1773 87.8743 15.2941 87.3382 15.2941ZM85.9375 12.1803H88.6159C88.6092 12.0605 88.578 11.9343 88.5212 11.8018C88.4644 11.663 88.3821 11.5368 88.2751 11.4232C88.1677 11.3096 88.0319 11.2181 87.8682 11.1487C87.704 11.073 87.5114 11.0351 87.2909 11.0351C87.0131 11.0351 86.767 11.1077 86.5526 11.2528C86.3378 11.3916 86.1708 11.5872 86.051 11.8396C86.0004 11.9469 85.9625 12.0605 85.9375 12.1803Z" fill="white"/>
<path d="M93.5156 15.1427V8.36627H95.8438C96.2541 8.36627 96.6261 8.45462 96.9606 8.63127C97.2952 8.80163 97.5602 9.04453 97.7556 9.36002C97.9577 9.66918 98.0585 10.0288 98.0585 10.439C98.0585 10.8427 97.9577 11.2024 97.7556 11.5179C97.5602 11.8334 97.2952 12.0795 96.9606 12.2561C96.6261 12.4265 96.2541 12.5116 95.8438 12.5116H94.5567V15.1427H93.5156ZM94.5567 11.5274H95.8722C96.1183 11.5274 96.3265 11.4769 96.4969 11.3759C96.6672 11.2686 96.7964 11.133 96.8849 10.969C96.9796 10.7986 97.0269 10.6219 97.0269 10.439C97.0269 10.256 96.9796 10.0825 96.8849 9.91842C96.7964 9.75435 96.6672 9.61873 96.4969 9.51145C96.3265 9.40418 96.1183 9.35056 95.8722 9.35056H94.5567V11.5274ZM100.894 15.2941C100.396 15.2941 99.957 15.1806 99.5785 14.9534C99.1999 14.7263 98.9037 14.4203 98.6888 14.0354C98.4745 13.6442 98.367 13.2088 98.367 12.7293C98.367 12.2498 98.4745 11.8176 98.6888 11.4327C98.9037 11.0415 99.1999 10.7323 99.5785 10.5052C99.957 10.2781 100.396 10.1645 100.894 10.1645C101.386 10.1645 101.822 10.2812 102.2 10.5147C102.579 10.7418 102.875 11.0478 103.09 11.4327C103.305 11.8176 103.412 12.2498 103.412 12.7293C103.412 13.2088 103.305 13.6442 103.09 14.0354C102.875 14.4203 102.579 14.7263 102.2 14.9534C101.822 15.1806 101.386 15.2941 100.894 15.2941ZM100.894 14.3572C101.159 14.3572 101.405 14.2941 101.632 14.1679C101.859 14.0354 102.042 13.8493 102.181 13.6095C102.326 13.3634 102.399 13.07 102.399 12.7293C102.399 12.3886 102.326 12.0984 102.181 11.8586C102.042 11.6125 101.859 11.4264 101.632 11.3002C101.405 11.1677 101.159 11.1015 100.894 11.1015C100.629 11.1015 100.38 11.1677 100.146 11.3002C99.9192 11.4264 99.7332 11.6125 99.5879 11.8586C99.4493 12.0984 99.3797 12.3886 99.3797 12.7293C99.3797 13.07 99.4493 13.3634 99.5879 13.6095C99.7332 13.8493 99.9225 14.0354 100.156 14.1679C100.39 14.2941 100.636 14.3572 100.894 14.3572ZM106.587 15.2941C106.101 15.2941 105.669 15.1837 105.29 14.9629C104.918 14.742 104.624 14.4392 104.41 14.0543C104.202 13.6631 104.098 13.2215 104.098 12.7293C104.098 12.2372 104.202 11.7986 104.41 11.4138C104.624 11.0289 104.918 10.7261 105.29 10.5052C105.669 10.2781 106.101 10.1645 106.587 10.1645C107.123 10.1645 107.574 10.2844 107.94 10.5241C108.312 10.7639 108.577 11.0888 108.735 11.499L107.808 11.8775C107.694 11.6188 107.53 11.4264 107.316 11.3002C107.107 11.1677 106.858 11.1015 106.568 11.1015C106.303 11.1015 106.06 11.1709 105.839 11.3097C105.618 11.4422 105.442 11.6283 105.309 11.8681C105.177 12.1078 105.11 12.3949 105.11 12.7293C105.11 13.0574 105.177 13.3445 105.309 13.5906C105.442 13.8366 105.618 14.0259 105.839 14.1584C106.06 14.2909 106.303 14.3572 106.568 14.3572C106.877 14.3572 107.139 14.2878 107.353 14.149C107.568 14.0102 107.735 13.8145 107.855 13.5622L108.764 13.9597C108.587 14.3445 108.312 14.6632 107.94 14.9156C107.574 15.1679 107.123 15.2941 106.587 15.2941ZM109.64 15.1427V8.36627H110.662V10.2213L110.605 10.9784H110.662C110.795 10.745 110.996 10.5525 111.268 10.4011C111.545 10.2434 111.851 10.1645 112.186 10.1645C112.59 10.1645 112.924 10.2465 113.189 10.4106C113.46 10.5746 113.662 10.8018 113.795 11.092C113.927 11.3759 113.994 11.7103 113.994 12.0952V15.1427H112.981V12.2277C112.981 11.969 112.93 11.7577 112.829 11.5936C112.735 11.4295 112.608 11.3065 112.451 11.2245C112.293 11.1425 112.116 11.1015 111.921 11.1015C111.675 11.1015 111.457 11.1709 111.268 11.3097C111.079 11.4485 110.93 11.6315 110.823 11.8586C110.716 12.0795 110.662 12.3161 110.662 12.5684V15.1427H109.64ZM115.233 15.1427V10.3159H116.256V15.1427H115.233ZM115.744 9.6061C115.555 9.6061 115.391 9.53985 115.252 9.40735C115.12 9.26855 115.054 9.10449 115.054 8.9152C115.054 8.71962 115.12 8.55873 115.252 8.43252C115.391 8.30002 115.555 8.23377 115.744 8.23377C115.94 8.23377 116.104 8.30002 116.237 8.43252C116.369 8.55873 116.435 8.71962 116.435 8.9152C116.435 9.10449 116.369 9.26855 116.237 9.40735C116.104 9.53985 115.94 9.6061 115.744 9.6061ZM121.379 16.9504C121.361 16.9945 121.338 17.0387 121.313 17.0829C121.294 17.1334 121.282 17.1681 121.275 17.187H120.187C120.218 17.1176 120.263 17.0198 120.319 16.8936C120.382 16.7674 120.443 16.6412 120.499 16.515C120.537 16.433 120.575 16.3447 120.613 16.25C120.657 16.1554 120.701 16.0576 120.745 15.9566C120.796 15.8557 120.843 15.7579 120.887 15.6633L121.247 14.8777L119.231 10.3159H120.367L121.749 13.6095H121.796L123.13 10.3159H124.257L121.758 16.0702C121.714 16.1775 121.663 16.2911 121.607 16.4109C121.556 16.5308 121.509 16.6381 121.465 16.7327C121.427 16.8337 121.398 16.9062 121.379 16.9504ZM126.21 15.2941C125.863 15.2941 125.554 15.2247 125.283 15.0859C125.018 14.9471 124.806 14.7578 124.648 14.5181C124.497 14.272 124.421 13.9912 124.421 13.6757C124.421 13.3287 124.51 13.0353 124.686 12.7956C124.869 12.5558 125.112 12.3728 125.415 12.2466C125.718 12.1204 126.052 12.0574 126.418 12.0574C126.62 12.0574 126.806 12.0731 126.977 12.1047C127.153 12.1299 127.305 12.1615 127.431 12.1993C127.563 12.2372 127.668 12.2782 127.743 12.3224V12.0668C127.743 11.7513 127.63 11.499 127.403 11.3097C127.175 11.1204 126.882 11.0257 126.522 11.0257C126.276 11.0257 126.043 11.0825 125.822 11.1961C125.601 11.3034 125.425 11.4516 125.292 11.6409L124.592 11.1015C124.73 10.9059 124.898 10.7386 125.093 10.5998C125.295 10.4611 125.519 10.3538 125.765 10.2781C126.017 10.2023 126.28 10.1645 126.551 10.1645C127.251 10.1645 127.791 10.338 128.169 10.685C128.548 11.0257 128.737 11.5053 128.737 12.1236V15.1427H127.743V14.5465H127.686C127.605 14.6727 127.491 14.7925 127.346 14.9061C127.207 15.0197 127.04 15.1112 126.844 15.1806C126.655 15.2563 126.443 15.2941 126.21 15.2941ZM126.39 14.4613C126.655 14.4613 126.888 14.3982 127.09 14.272C127.298 14.1458 127.459 13.9818 127.573 13.7799C127.686 13.5716 127.743 13.3477 127.743 13.1079C127.605 13.0259 127.434 12.9596 127.232 12.9091C127.037 12.8524 126.829 12.824 126.608 12.824C126.191 12.824 125.894 12.906 125.718 13.07C125.541 13.2341 125.453 13.4391 125.453 13.6852C125.453 13.9124 125.538 14.0985 125.708 14.2436C125.879 14.3887 126.106 14.4613 126.39 14.4613ZM135.265 15.2941C134.78 15.2941 134.322 15.2058 133.893 15.0291C133.464 14.8525 133.085 14.6064 132.757 14.2909C132.435 13.9691 132.18 13.5937 131.99 13.1647C131.808 12.7293 131.716 12.2593 131.716 11.7545C131.716 11.2497 131.808 10.7828 131.99 10.3538C132.18 9.91842 132.435 9.54302 132.757 9.22752C133.085 8.90574 133.464 8.6565 133.893 8.47984C134.322 8.30319 134.78 8.21484 135.265 8.21484C135.783 8.21484 136.259 8.30632 136.694 8.48931C137.136 8.6723 137.505 8.92784 137.801 9.25592L137.082 9.96574C136.937 9.80168 136.77 9.66288 136.581 9.54931C136.398 9.43574 136.196 9.35056 135.975 9.29377C135.754 9.23069 135.518 9.19913 135.265 9.19913C134.931 9.19913 134.612 9.25909 134.309 9.37895C134.006 9.49882 133.738 9.67235 133.505 9.89949C133.278 10.1203 133.098 10.3885 132.965 10.704C132.833 11.0131 132.766 11.3633 132.766 11.7545C132.766 12.1457 132.833 12.499 132.965 12.8145C133.104 13.1236 133.287 13.3918 133.514 13.619C133.748 13.8398 134.016 14.0102 134.319 14.13C134.621 14.2499 134.94 14.3099 135.274 14.3099C135.584 14.3099 135.871 14.2657 136.136 14.1774C136.407 14.089 136.644 13.9628 136.846 13.7988C137.048 13.6347 137.212 13.436 137.338 13.2025C137.464 12.9628 137.543 12.6946 137.574 12.3981H135.256V11.48H138.549C138.562 11.5557 138.575 11.6441 138.587 11.745C138.6 11.8397 138.606 11.9311 138.606 12.0195V12.029C138.606 12.5148 138.521 12.9596 138.35 13.3634C138.187 13.7672 137.956 14.1143 137.66 14.4045C137.363 14.6884 137.01 14.9093 136.6 15.067C136.196 15.2184 135.751 15.2941 135.265 15.2941ZM141.653 15.2941C141.155 15.2941 140.716 15.1806 140.338 14.9534C139.959 14.7263 139.663 14.4203 139.448 14.0354C139.234 13.6442 139.126 13.2088 139.126 12.7293C139.126 12.2498 139.234 11.8176 139.448 11.4327C139.663 11.0415 139.959 10.7323 140.338 10.5052C140.716 10.2781 141.155 10.1645 141.653 10.1645C142.146 10.1645 142.581 10.2812 142.96 10.5147C143.338 10.7418 143.635 11.0478 143.849 11.4327C144.064 11.8176 144.171 12.2498 144.171 12.7293C144.171 13.2088 144.064 13.6442 143.849 14.0354C143.635 14.4203 143.338 14.7263 142.96 14.9534C142.581 15.1806 142.146 15.2941 141.653 15.2941ZM141.653 14.3572C141.918 14.3572 142.165 14.2941 142.392 14.1679C142.619 14.0354 142.802 13.8493 142.941 13.6095C143.086 13.3634 143.158 13.07 143.158 12.7293C143.158 12.3886 143.086 12.0984 142.941 11.8586C142.802 11.6125 142.619 11.4264 142.392 11.3002C142.165 11.1677 141.918 11.1015 141.653 11.1015C141.388 11.1015 141.139 11.1677 140.906 11.3002C140.679 11.4264 140.493 11.6125 140.347 11.8586C140.209 12.0984 140.139 12.3886 140.139 12.7293C140.139 13.07 140.209 13.3634 140.347 13.6095C140.493 13.8493 140.682 14.0354 140.915 14.1679C141.149 14.2941 141.395 14.3572 141.653 14.3572ZM147.384 15.2941C146.885 15.2941 146.447 15.1806 146.069 14.9534C145.69 14.7263 145.393 14.4203 145.179 14.0354C144.964 13.6442 144.857 13.2088 144.857 12.7293C144.857 12.2498 144.964 11.8176 145.179 11.4327C145.393 11.0415 145.69 10.7323 146.069 10.5052C146.447 10.2781 146.885 10.1645 147.384 10.1645C147.876 10.1645 148.312 10.2812 148.69 10.5147C149.069 10.7418 149.365 11.0478 149.58 11.4327C149.794 11.8176 149.902 12.2498 149.902 12.7293C149.902 13.2088 149.794 13.6442 149.58 14.0354C149.365 14.4203 149.069 14.7263 148.69 14.9534C148.312 15.1806 147.876 15.2941 147.384 15.2941ZM147.384 14.3572C147.649 14.3572 147.895 14.2941 148.122 14.1679C148.349 14.0354 148.532 13.8493 148.671 13.6095C148.816 13.3634 148.889 13.07 148.889 12.7293C148.889 12.3886 148.816 12.0984 148.671 11.8586C148.532 11.6125 148.349 11.4264 148.122 11.3002C147.895 11.1677 147.649 11.1015 147.384 11.1015C147.119 11.1015 146.87 11.1677 146.636 11.3002C146.409 11.4264 146.223 11.6125 146.078 11.8586C145.939 12.0984 145.87 12.3886 145.87 12.7293C145.87 13.07 145.939 13.3634 146.078 13.6095C146.223 13.8493 146.412 14.0354 146.646 14.1679C146.879 14.2941 147.125 14.3572 147.384 14.3572ZM153.02 17.3384C152.597 17.3384 152.231 17.269 151.922 17.1302C151.619 16.9977 151.373 16.8242 151.184 16.6097C150.994 16.4015 150.858 16.187 150.777 15.9661L151.723 15.5686C151.824 15.821 151.985 16.0261 152.206 16.1838C152.433 16.3479 152.704 16.4299 153.02 16.4299C153.468 16.4299 153.818 16.2974 154.07 16.0324C154.322 15.7674 154.449 15.392 154.449 14.9061V14.4424H154.392C154.241 14.6632 154.032 14.843 153.767 14.9818C153.502 15.1206 153.196 15.19 152.849 15.19C152.439 15.19 152.06 15.0859 151.714 14.8777C151.373 14.6695 151.098 14.3793 150.89 14.007C150.688 13.6284 150.587 13.1868 150.587 12.682C150.587 12.1709 150.688 11.7293 150.89 11.357C151.098 10.9784 151.373 10.685 151.714 10.4768C152.06 10.2686 152.439 10.1645 152.849 10.1645C153.196 10.1645 153.502 10.2339 153.767 10.3727C154.032 10.5052 154.241 10.6882 154.392 10.9216H154.449V10.3159H155.424V14.8872C155.424 15.4109 155.319 15.8557 155.111 16.2216C154.909 16.5876 154.629 16.8652 154.269 17.0545C153.909 17.2438 153.493 17.3384 153.02 17.3384ZM153.029 14.2625C153.281 14.2625 153.515 14.2026 153.729 14.0827C153.95 13.9565 154.124 13.7767 154.25 13.5432C154.382 13.3035 154.449 13.0164 154.449 12.682C154.449 12.3286 154.382 12.0353 154.25 11.8018C154.124 11.5684 153.95 11.3917 153.729 11.2718C153.515 11.1519 153.281 11.092 153.029 11.092C152.777 11.092 152.54 11.1519 152.319 11.2718C152.105 11.3917 151.931 11.5715 151.799 11.8113C151.666 12.0447 151.6 12.335 151.6 12.682C151.6 13.0227 151.666 13.3129 151.799 13.5527C151.931 13.7861 152.105 13.9628 152.319 14.0827C152.54 14.2026 152.777 14.2625 153.029 14.2625ZM156.629 15.1427V8.36627H157.651V15.1427H156.629ZM161.015 15.2941C160.542 15.2941 160.119 15.1837 159.747 14.9629C159.374 14.742 159.081 14.4392 158.867 14.0543C158.658 13.6695 158.554 13.2309 158.554 12.7388C158.554 12.2782 158.655 11.8523 158.857 11.4611C159.059 11.0699 159.34 10.7576 159.7 10.5241C160.065 10.2844 160.485 10.1645 160.958 10.1645C161.457 10.1645 161.88 10.2718 162.226 10.4863C162.58 10.7008 162.848 10.9942 163.031 11.3665C163.214 11.7387 163.305 12.1583 163.305 12.6252C163.305 12.6946 163.302 12.7577 163.296 12.8145C163.296 12.8713 163.293 12.9154 163.286 12.947H159.558C159.583 13.212 159.649 13.4423 159.756 13.6379C159.895 13.884 160.078 14.0701 160.305 14.1963C160.532 14.3225 160.778 14.3856 161.043 14.3856C161.365 14.3856 161.634 14.313 161.848 14.1679C162.069 14.0165 162.242 13.8303 162.368 13.6095L163.211 14.0165C163.003 14.395 162.719 14.7042 162.359 14.944C161.999 15.1774 161.551 15.2941 161.015 15.2941ZM159.614 12.1804H162.293C162.287 12.0605 162.255 11.9343 162.198 11.8018C162.141 11.663 162.059 11.5368 161.952 11.4232C161.845 11.3097 161.709 11.2182 161.545 11.1488C161.381 11.0731 161.189 11.0352 160.968 11.0352C160.69 11.0352 160.444 11.1078 160.23 11.2529C160.015 11.3917 159.848 11.5873 159.728 11.8397C159.677 11.947 159.639 12.0605 159.614 12.1804Z" fill="white"/>
</g>
<defs>
<clipPath id="clip0_568_933">
<rect width="173.67" height="23.6608" fill="white"/>
</clipPath>
</defs>
</svg>
