<svg width="174" height="30" viewBox="0 0 174 30" fill="none" xmlns="http://www.w3.org/2000/svg">
<g clip-path="url(#clip0_568_249)">
<path d="M159.102 0.291016H14.5712C6.68555 0.291016 0.292969 6.6836 0.292969 14.5693C0.292969 22.4549 6.68555 28.8475 14.5712 28.8475H159.102C166.988 28.8475 173.38 22.4549 173.38 14.5693C173.38 6.6836 166.988 0.291016 159.102 0.291016Z" fill="#1F1F1F"/>
<path d="M29.7218 12.821H12.2383V9.90709C12.2383 8.32524 13.5215 6.99316 15.0453 6.99316H26.9149C28.4387 6.99316 29.7218 8.32524 29.7218 9.90709V12.821Z" fill="#34A853"/>
<path d="M29.7218 15.1833H12.2383V12.2694C12.2383 10.6875 13.5215 9.35547 15.0453 9.35547H26.9149C28.4387 9.35547 29.7218 10.6875 29.7218 12.2694V15.1833Z" fill="#FBBC04"/>
<path d="M29.7218 17.6277H12.2383V14.7137C12.2383 13.1319 13.5215 11.7998 15.0453 11.7998H26.9149C28.4387 11.7998 29.7218 13.1319 29.7218 14.7137V17.6277Z" fill="#EA4335"/>
<path d="M12.2383 13.5647L23.3352 16.1311C24.6125 16.4519 26.0495 16.1311 27.0874 15.3291L29.7218 13.4043V19.4193C29.7218 20.9431 28.4445 22.1461 26.9277 22.1461H15.0324C13.5156 22.1461 12.2383 20.9431 12.2383 19.4193V13.5647Z" fill="url(#paint0_linear_568_249)"/>
<path d="M36.8906 18.6494L40.0377 10.304H41.4946L44.6533 18.6494H43.243L42.4737 16.5048H39.0702L38.301 18.6494H36.8906ZM40.4223 12.7633L39.5015 15.3159H42.0424L41.1216 12.7633L40.8069 11.8075H40.737L40.4223 12.7633ZM45.5658 18.6494V12.705H46.7547V13.5209H46.8247C46.9956 13.2334 47.2481 12.9964 47.5823 12.8099C47.9241 12.6157 48.2971 12.5185 48.7012 12.5185C49.4316 12.5185 49.9795 12.7361 50.3447 13.1713C50.7099 13.6064 50.8925 14.1814 50.8925 14.8963V18.6494H49.6453V15.0595C49.6453 14.5777 49.5249 14.228 49.284 14.0105C49.0431 13.7851 48.7284 13.6725 48.3399 13.6725C48.0369 13.6725 47.7726 13.758 47.5473 13.9289C47.322 14.0921 47.1432 14.3096 47.0112 14.5816C46.8868 14.8536 46.8247 15.145 46.8247 15.4558V18.6494H45.5658ZM49.0626 11.4928C48.8916 11.4928 48.7245 11.4579 48.5614 11.3879C48.3982 11.318 48.2505 11.2442 48.1185 11.1665C48.033 11.1121 47.9514 11.0655 47.8737 11.0266C47.8037 10.9877 47.7338 10.9683 47.6639 10.9683C47.4463 10.9683 47.3259 11.0965 47.3026 11.353H46.3701C46.3701 11.0344 46.4322 10.7741 46.5566 10.572C46.6886 10.37 46.8518 10.2224 47.0461 10.1291C47.2481 10.0359 47.4541 9.98926 47.6639 9.98926C47.8504 9.98926 48.0213 10.0281 48.1767 10.1058C48.3399 10.1757 48.4875 10.2496 48.6196 10.3273C48.7051 10.3739 48.7828 10.4166 48.8528 10.4555C48.9304 10.4944 48.9965 10.5138 49.0509 10.5138C49.2762 10.5138 49.4006 10.3856 49.4239 10.1291H50.368C50.368 10.4477 50.3019 10.708 50.1699 10.9101C50.0455 11.1121 49.8823 11.2597 49.6803 11.353C49.4783 11.4462 49.2724 11.4928 49.0626 11.4928ZM54.1351 18.8359C53.7077 18.8359 53.3269 18.7543 52.9928 18.5912C52.6587 18.4202 52.3984 18.1832 52.2119 17.8802C52.0254 17.5771 51.9321 17.2314 51.9321 16.8428C51.9321 16.4232 52.0409 16.0658 52.2585 15.7705C52.4839 15.4674 52.783 15.2382 53.156 15.0828C53.529 14.9274 53.9408 14.8497 54.3915 14.8497C54.7645 14.8497 55.0908 14.8847 55.3706 14.9546C55.6581 15.0245 55.8757 15.0984 56.0233 15.176V14.8613C56.0233 14.4728 55.8834 14.162 55.6037 13.9289C55.3239 13.6958 54.9626 13.5792 54.5197 13.5792C54.2167 13.5792 53.9292 13.6491 53.6572 13.789C53.3852 13.9211 53.1676 14.1037 53.0045 14.3368L52.1419 13.6725C52.3984 13.315 52.7364 13.0353 53.156 12.8333C53.5833 12.6234 54.0496 12.5185 54.5547 12.5185C55.4172 12.5185 56.0816 12.7323 56.5478 13.1596C57.014 13.5792 57.2471 14.1698 57.2471 14.9313V18.6494H56.0233V17.9151H55.9534C55.7979 18.156 55.5648 18.3697 55.254 18.5562C54.9432 18.7427 54.5702 18.8359 54.1351 18.8359ZM54.3565 17.8102C54.6829 17.8102 54.9704 17.7326 55.219 17.5771C55.4677 17.4217 55.662 17.2197 55.8018 16.971C55.9495 16.7146 56.0233 16.4388 56.0233 16.1435C55.8445 16.0425 55.6347 15.9609 55.3939 15.8987C55.153 15.8288 54.8966 15.7938 54.6246 15.7938C54.1118 15.7938 53.7465 15.8987 53.529 16.1085C53.3114 16.3106 53.2026 16.5592 53.2026 16.8545C53.2026 17.1342 53.3075 17.3634 53.5173 17.5422C53.7271 17.7209 54.0069 17.8102 54.3565 17.8102ZM61.117 18.8359C60.5808 18.8359 60.0954 18.7038 59.66 18.4396C59.2329 18.1677 58.8908 17.7947 58.6343 17.3207C58.3855 16.8389 58.2614 16.2911 58.2614 15.6772C58.2614 15.0634 58.3855 14.5194 58.6343 14.0454C58.8908 13.5715 59.2329 13.1985 59.66 12.9265C60.0954 12.6545 60.5808 12.5185 61.117 12.5185C61.5757 12.5185 61.9679 12.6195 62.2942 12.8216C62.6282 13.0236 62.8729 13.2529 63.0285 13.5093H63.0985L63.0285 12.6817V10.304H64.2757V18.6494H63.0985V17.8569H63.0285C62.8729 18.1133 62.6282 18.3425 62.2942 18.5445C61.9679 18.7388 61.5757 18.8359 61.117 18.8359ZM61.3035 17.682C61.6141 17.682 61.9055 17.6004 62.1777 17.4373C62.4574 17.2741 62.6789 17.0449 62.8421 16.7496C63.0128 16.4465 63.0985 16.0891 63.0985 15.6772C63.0985 15.2654 63.0128 14.9119 62.8421 14.6166C62.6789 14.3135 62.4574 14.0804 62.1777 13.9172C61.9055 13.7541 61.6141 13.6725 61.3035 13.6725C60.9929 13.6725 60.7015 13.7541 60.4293 13.9172C60.1572 14.0804 59.9357 14.3135 59.7649 14.6166C59.5942 14.9119 59.5085 15.2654 59.5085 15.6772C59.5085 16.0891 59.5942 16.4465 59.7649 16.7496C59.9357 17.0449 60.1572 17.2741 60.4293 17.4373C60.7015 17.6004 60.9929 17.682 61.3035 17.682ZM66.481 11.8309C66.2478 11.8309 66.0462 11.7493 65.8749 11.5861C65.7117 11.4152 65.6301 11.2131 65.6301 10.98C65.6301 10.7469 65.7117 10.5487 65.8749 10.3856C66.0462 10.2224 66.2478 10.1408 66.481 10.1408C66.7141 10.1408 66.9122 10.2224 67.0754 10.3856C67.2467 10.5487 67.3318 10.7469 67.3318 10.98C67.3318 11.2131 67.2467 11.4152 67.0754 11.5861C66.9122 11.7493 66.7141 11.8309 66.481 11.8309ZM65.8516 18.6494V12.705H67.1104V18.6494H65.8516ZM68.6722 18.6494V12.705H69.8611V13.5792H69.9311C70.0633 13.2762 70.2889 13.0275 70.6071 12.8333C70.9334 12.6312 71.2831 12.5302 71.6561 12.5302C71.8193 12.5302 71.9556 12.5419 72.064 12.5652C72.1806 12.5885 72.2855 12.6157 72.3788 12.6468V13.9522C72.2313 13.89 72.0798 13.8395 71.9242 13.8007C71.7767 13.7618 71.6211 13.7424 71.4579 13.7424C71.1631 13.7424 70.8985 13.824 70.6654 13.9872C70.4404 14.1426 70.2615 14.3562 70.1292 14.6282C69.9975 14.8924 69.9311 15.1838 69.9311 15.5024V18.6494H68.6722ZM77.9362 18.8359C77.5084 18.8359 77.1279 18.7543 76.7939 18.5912C76.4594 18.4202 76.1995 18.1832 76.013 17.8802C75.8265 17.5771 75.7333 17.2314 75.7333 16.8428C75.7333 16.4232 75.8417 16.0658 76.0596 15.7705C76.2846 15.4674 76.5841 15.2382 76.9571 15.0828C77.3301 14.9274 77.7415 14.8497 78.1926 14.8497C78.5656 14.8497 78.892 14.8847 79.1717 14.9546C79.459 15.0245 79.6764 15.0984 79.8244 15.176V14.8613C79.8244 14.4728 79.6845 14.162 79.4048 13.9289C79.1251 13.6958 78.7637 13.5792 78.3208 13.5792C78.0178 13.5792 77.7299 13.6491 77.4583 13.789C77.1861 13.9211 76.9688 14.1037 76.8056 14.3368L75.9431 13.6725C76.1995 13.315 76.5375 13.0353 76.9571 12.8333C77.3843 12.6234 77.8505 12.5185 78.3558 12.5185C79.2183 12.5185 79.8827 12.7323 80.3489 13.1596C80.8151 13.5792 81.0483 14.1698 81.0483 14.9313V18.6494H79.8244V17.9151H79.7545C79.5989 18.156 79.3658 18.3697 79.0551 18.5562C78.7439 18.7427 78.3709 18.8359 77.9362 18.8359ZM78.1576 17.8102C78.484 17.8102 78.7713 17.7326 79.0202 17.5771C79.2684 17.4217 79.4631 17.2197 79.603 16.971C79.7504 16.7146 79.8244 16.4388 79.8244 16.1435C79.6455 16.0425 79.4357 15.9609 79.195 15.8987C78.9537 15.8288 78.6973 15.7938 78.4257 15.7938C77.9129 15.7938 77.5475 15.8987 77.3301 16.1085C77.1121 16.3106 77.0037 16.5592 77.0037 16.8545C77.0037 17.1342 77.1086 17.3634 77.3184 17.5422C77.5282 17.7209 77.808 17.8102 78.1576 17.8102Z" fill="white"/>
<path d="M89.9803 18.8357C89.3817 18.8357 88.8188 18.7268 88.2902 18.5093C87.7698 18.2917 87.307 17.9887 86.9032 17.6002C86.4993 17.2039 86.1805 16.7415 85.9474 16.2131C85.7219 15.677 85.6094 15.0981 85.6094 14.4764C85.6094 13.8548 85.7219 13.2798 85.9474 12.7514C86.1805 12.2152 86.4952 11.7529 86.8915 11.3643C87.2954 10.9681 87.7616 10.6611 88.2902 10.4435C88.8188 10.226 89.3817 10.1172 89.9803 10.1172C90.6172 10.1172 91.2041 10.2298 91.7403 10.4552C92.284 10.6806 92.7386 10.9953 93.104 11.3993L92.2182 12.2735C91.946 11.9704 91.6196 11.7373 91.2391 11.5742C90.8661 11.411 90.4465 11.3294 89.9803 11.3294C89.4284 11.3294 88.9196 11.4615 88.4534 11.7257C87.9871 11.9821 87.6101 12.3473 87.3228 12.8213C87.043 13.2875 86.9032 13.8393 86.9032 14.4764C86.9032 15.1136 87.0471 15.6692 87.3344 16.1432C87.6217 16.6094 87.9988 16.9746 88.465 17.2388C88.9313 17.4952 89.44 17.6235 89.9919 17.6235C90.4972 17.6235 90.9553 17.5302 91.3673 17.3437C91.7793 17.1495 92.1092 16.8775 92.358 16.5278C92.6145 16.1782 92.7701 15.7585 92.8243 15.269H89.9686V14.1384H94.0248C94.0714 14.3482 94.0947 14.5697 94.0947 14.8028V14.8144C94.0947 15.6226 93.9158 16.3297 93.5586 16.9358C93.2089 17.5341 92.7234 18.0003 92.1016 18.3345C91.4798 18.6686 90.7729 18.8357 89.9803 18.8357ZM97.8479 18.8357C97.2342 18.8357 96.694 18.6958 96.2277 18.416C95.7615 18.1363 95.3961 17.7594 95.1321 17.2854C94.8681 16.8115 94.7358 16.2753 94.7358 15.677C94.7358 15.0864 94.8681 14.5541 95.1321 14.0801C95.3961 13.5983 95.7615 13.2176 96.2277 12.9379C96.694 12.6581 97.2342 12.5183 97.8479 12.5183C98.454 12.5183 98.9901 12.6581 99.4564 12.9379C99.9226 13.2176 100.288 13.5983 100.552 14.0801C100.816 14.5541 100.948 15.0864 100.948 15.677C100.948 16.2753 100.816 16.8115 100.552 17.2854C100.288 17.7594 99.9226 18.1363 99.4564 18.416C98.9901 18.6958 98.454 18.8357 97.8479 18.8357ZM97.8479 17.6817C98.1742 17.6817 98.4773 17.6041 98.757 17.4486C99.0368 17.2854 99.2623 17.0562 99.433 16.7609C99.612 16.4579 99.7011 16.0966 99.7011 15.677C99.7011 15.2574 99.612 14.8999 99.433 14.6046C99.2623 14.3016 99.0368 14.0724 98.757 13.9169C98.4773 13.7538 98.1742 13.6722 97.8479 13.6722C97.5215 13.6722 97.2144 13.7538 96.9271 13.9169C96.6473 14.0724 96.4183 14.3016 96.2394 14.6046C96.0686 14.8999 95.983 15.2574 95.983 15.677C95.983 16.0966 96.0686 16.4579 96.2394 16.7609C96.4183 17.0562 96.6473 17.2854 96.9271 17.4486C97.2144 17.6041 97.5215 17.6817 97.8479 17.6817ZM104.905 18.8357C104.291 18.8357 103.751 18.6958 103.285 18.416C102.818 18.1363 102.454 17.7594 102.189 17.2854C101.925 16.8115 101.793 16.2753 101.793 15.677C101.793 15.0864 101.925 14.5541 102.189 14.0801C102.454 13.5983 102.818 13.2176 103.285 12.9379C103.751 12.6581 104.291 12.5183 104.905 12.5183C105.511 12.5183 106.047 12.6581 106.513 12.9379C106.98 13.2176 107.345 13.5983 107.609 14.0801C107.874 14.5541 108.005 15.0864 108.005 15.677C108.005 16.2753 107.874 16.8115 107.609 17.2854C107.345 17.7594 106.98 18.1363 106.513 18.416C106.047 18.6958 105.511 18.8357 104.905 18.8357ZM104.905 17.6817C105.231 17.6817 105.534 17.6041 105.814 17.4486C106.094 17.2854 106.319 17.0562 106.49 16.7609C106.669 16.4579 106.758 16.0966 106.758 15.677C106.758 15.2574 106.669 14.8999 106.49 14.6046C106.319 14.3016 106.094 14.0724 105.814 13.9169C105.534 13.7538 105.231 13.6722 104.905 13.6722C104.578 13.6722 104.272 13.7538 103.984 13.9169C103.704 14.0724 103.475 14.3016 103.296 14.6046C103.126 14.8999 103.04 15.2574 103.04 15.677C103.04 16.0966 103.126 16.4579 103.296 16.7609C103.475 17.0562 103.704 17.2854 103.984 17.4486C104.272 17.6041 104.578 17.6817 104.905 17.6817ZM111.846 21.3533C111.325 21.3533 110.874 21.2678 110.494 21.0969C110.121 20.9337 109.818 20.72 109.585 20.4558C109.351 20.1994 109.184 19.9352 109.083 19.6632L110.249 19.1737C110.373 19.4845 110.571 19.737 110.843 19.9313C111.123 20.1333 111.457 20.2343 111.846 20.2343C112.39 20.2343 112.817 20.0712 113.128 19.7448C113.446 19.4184 113.606 18.9561 113.606 18.3578V17.7866H113.536C113.349 18.0664 113.089 18.2917 112.755 18.4627C112.429 18.6259 112.056 18.7074 111.636 18.7074C111.131 18.7074 110.669 18.5792 110.249 18.3228C109.829 18.0664 109.491 17.709 109.235 17.2505C108.978 16.7843 108.85 16.2403 108.85 15.6187C108.85 14.9893 108.978 14.4454 109.235 13.9869C109.491 13.5207 109.829 13.1593 110.249 12.9029C110.669 12.6465 111.131 12.5183 111.636 12.5183C112.056 12.5183 112.429 12.6038 112.755 12.7747C113.089 12.9456 113.349 13.171 113.536 13.4507H113.606V12.7048H114.806V18.3345C114.806 18.9794 114.678 19.5272 114.422 19.9779C114.173 20.4286 113.827 20.7705 113.384 21.0036C112.941 21.2367 112.429 21.3533 111.846 21.3533ZM111.857 17.5652C112.168 17.5652 112.455 17.4913 112.72 17.3437C112.984 17.1883 113.198 16.9668 113.361 16.6793C113.524 16.3841 113.606 16.0305 113.606 15.6187C113.606 15.1913 113.524 14.8338 113.361 14.5464C113.198 14.2511 112.984 14.0296 112.72 13.882C112.455 13.7344 112.168 13.6605 111.857 13.6605C111.546 13.6605 111.255 13.7382 110.983 13.8936C110.719 14.0413 110.505 14.2589 110.342 14.5464C110.179 14.8338 110.097 15.1913 110.097 15.6187C110.097 16.0383 110.179 16.3957 110.342 16.691C110.505 16.9785 110.719 17.1961 110.983 17.3437C111.255 17.4913 111.546 17.5652 111.857 17.5652ZM116.291 18.6492V10.3037H117.55V18.6492H116.291ZM121.693 18.8357C121.11 18.8357 120.589 18.6997 120.131 18.4277C119.672 18.1557 119.311 17.7827 119.047 17.3088C118.79 16.8348 118.662 16.2947 118.662 15.6886C118.662 15.1214 118.786 14.5969 119.035 14.1151C119.283 13.6333 119.629 13.2487 120.072 12.9612C120.523 12.6659 121.04 12.5183 121.623 12.5183C122.236 12.5183 122.757 12.6504 123.184 12.9146C123.619 13.1787 123.95 13.5401 124.175 13.9985C124.4 14.457 124.513 14.9737 124.513 15.5487C124.513 15.6342 124.509 15.7119 124.502 15.7819C124.502 15.8518 124.497 15.9062 124.49 15.945H119.898C119.959 16.5356 120.166 16.9785 120.515 17.2738C120.873 17.5691 121.276 17.7167 121.727 17.7167C122.131 17.7167 122.465 17.6274 122.73 17.4486C122.994 17.2621 123.204 17.0329 123.359 16.7609L124.397 17.2621C124.14 17.7284 123.791 18.1091 123.348 18.4044C122.905 18.6919 122.353 18.8357 121.693 18.8357ZM121.634 13.5906C121.215 13.5906 120.857 13.7188 120.562 13.9752C120.266 14.2317 120.068 14.5736 119.967 15.0009H123.266C123.25 14.7989 123.184 14.5891 123.068 14.3715C122.951 14.154 122.772 13.9713 122.532 13.8237C122.299 13.6683 121.999 13.5906 121.634 13.5906ZM129.636 18.6492L127.399 10.3037H128.821L130.149 15.7236L130.289 16.4462H130.359L130.534 15.7236L132.212 10.3037H133.495L135.103 15.7236L135.278 16.4346H135.348L135.488 15.7236L136.816 10.3037H138.227L136.024 18.6492H134.672L133.075 13.1127L132.888 12.3318H132.818L132.62 13.1127L130.954 18.6492H129.636ZM140.567 18.8357C140.14 18.8357 139.759 18.7541 139.425 18.5909C139.091 18.42 138.83 18.1829 138.644 17.8799C138.458 17.5768 138.364 17.2311 138.364 16.8425C138.364 16.4229 138.473 16.0655 138.691 15.7702C138.916 15.4672 139.215 15.2379 139.588 15.0825C139.961 14.9271 140.373 14.8494 140.824 14.8494C141.197 14.8494 141.523 14.8844 141.803 14.9543C142.091 15.0242 142.308 15.0981 142.455 15.1758V14.8611C142.455 14.4725 142.316 14.1617 142.036 13.9286C141.756 13.6955 141.395 13.5789 140.952 13.5789C140.649 13.5789 140.361 13.6489 140.089 13.7887C139.818 13.9209 139.6 14.1034 139.437 14.3366L138.574 13.6722C138.83 13.3148 139.169 13.035 139.588 12.833C140.016 12.6232 140.482 12.5183 140.987 12.5183C141.849 12.5183 142.514 12.732 142.98 13.1593C143.446 13.5789 143.679 14.1695 143.679 14.931V18.6492H142.455V17.9149H142.385C142.23 18.1557 141.997 18.3694 141.686 18.5559C141.376 18.7424 141.003 18.8357 140.567 18.8357ZM140.789 17.81C141.115 17.81 141.403 17.7323 141.651 17.5768C141.9 17.4214 142.094 17.2194 142.234 16.9707C142.382 16.7143 142.455 16.4385 142.455 16.1432C142.277 16.0422 142.067 15.9606 141.826 15.8984C141.585 15.8285 141.329 15.7935 141.057 15.7935C140.544 15.7935 140.179 15.8984 139.961 16.1082C139.744 16.3103 139.635 16.5589 139.635 16.8542C139.635 17.1339 139.74 17.3631 139.949 17.5419C140.159 17.7206 140.439 17.81 140.789 17.81ZM145.077 18.6492V10.3037H146.336V18.6492H145.077ZM147.832 18.6492V10.3037H149.09V18.6492H147.832ZM153.233 18.8357C152.651 18.8357 152.13 18.6997 151.672 18.4277C151.213 18.1557 150.852 17.7827 150.588 17.3088C150.331 16.8348 150.203 16.2947 150.203 15.6886C150.203 15.1214 150.327 14.5969 150.576 14.1151C150.824 13.6333 151.17 13.2487 151.613 12.9612C152.064 12.6659 152.581 12.5183 153.164 12.5183C153.777 12.5183 154.298 12.6504 154.725 12.9146C155.16 13.1787 155.491 13.5401 155.716 13.9985C155.941 14.457 156.054 14.9737 156.054 15.5487C156.054 15.6342 156.05 15.7119 156.042 15.7819C156.042 15.8518 156.038 15.9062 156.031 15.945H151.438C151.5 16.5356 151.707 16.9785 152.056 17.2738C152.413 17.5691 152.817 17.7167 153.268 17.7167C153.672 17.7167 154.006 17.6274 154.271 17.4486C154.535 17.2621 154.745 17.0329 154.9 16.7609L155.938 17.2621C155.681 17.7284 155.331 18.1091 154.889 18.4044C154.446 18.6919 153.894 18.8357 153.233 18.8357ZM153.175 13.5906C152.756 13.5906 152.398 13.7188 152.103 13.9752C151.807 14.2317 151.609 14.5736 151.508 15.0009H154.807C154.791 14.7989 154.725 14.5891 154.609 14.3715C154.492 14.154 154.313 13.9713 154.073 13.8237C153.84 13.6683 153.54 13.5906 153.175 13.5906ZM157.681 16.9241V13.8004H156.643V12.7048H157.681V11.0263H158.939V12.7048H160.396V13.8004H158.939V16.656C158.939 16.9513 158.998 17.1766 159.114 17.3321C159.238 17.4875 159.444 17.5652 159.732 17.5652C159.88 17.5652 160.004 17.5458 160.105 17.5069C160.213 17.468 160.322 17.4137 160.431 17.3437V18.5676C160.299 18.6219 160.159 18.6647 160.012 18.6958C159.864 18.7268 159.689 18.7424 159.487 18.7424C158.935 18.7424 158.497 18.5831 158.17 18.2645C157.844 17.9382 157.681 17.4913 157.681 16.9241Z" fill="white"/>
<path d="M159.102 0.291016H14.5712C6.68555 0.291016 0.292969 6.6836 0.292969 14.5693C0.292969 22.4549 6.68555 28.8475 14.5712 28.8475H159.102C166.988 28.8475 173.38 22.4549 173.38 14.5693C173.38 6.6836 166.988 0.291016 159.102 0.291016Z" stroke="#747775"/>
</g>
<defs>
<linearGradient id="paint0_linear_568_249" x1="20.1469" y1="17.9421" x2="10.9159" y2="28.5062" gradientUnits="userSpaceOnUse">
<stop stop-color="#4285F4"/>
<stop offset="1" stop-color="#1B74E8"/>
</linearGradient>
<clipPath id="clip0_568_249">
<rect width="173.67" height="29.1393" fill="white"/>
</clipPath>
</defs>
</svg>
