<svg width="174" height="45" viewBox="0 0 174 45" fill="none" xmlns="http://www.w3.org/2000/svg">
<g clip-path="url(#clip0_568_924)">
<path d="M151.56 0.402344H22.1111C10.1217 0.402344 0.402344 10.1217 0.402344 22.1111C0.402344 34.1005 10.1217 43.8198 22.1111 43.8198H151.56C163.549 43.8198 173.268 34.1005 173.268 22.1111C173.268 10.1217 163.549 0.402344 151.56 0.402344Z" fill="#1F1F1F"/>
<path d="M151.56 0.402344H22.1111C10.1217 0.402344 0.402344 10.1217 0.402344 22.1111C0.402344 34.1005 10.1217 43.8198 22.1111 43.8198H151.56C163.549 43.8198 173.268 34.1005 173.268 22.1111C173.268 10.1217 163.549 0.402344 151.56 0.402344Z" stroke="#747775"/>
<path d="M45.8278 19.1291H16.8828V14.5899C16.8828 12.1258 19.0072 10.0508 21.5299 10.0508H41.1807C43.7034 10.0508 45.8278 12.1258 45.8278 14.5899V19.1291Z" fill="#34A853"/>
<path d="M45.8278 23.3173H16.8828V18.4931C16.8828 15.8743 19.0072 13.6689 21.5299 13.6689H41.1807C43.7034 13.6689 45.8278 15.8743 45.8278 18.4931V23.3173Z" fill="#FBBC04"/>
<path d="M45.8278 27.3368H16.8828V22.5126C16.8828 19.8938 19.0072 17.6885 21.5299 17.6885H41.1807C43.7034 17.6885 45.8278 19.8938 45.8278 22.5126V27.3368Z" fill="#EA4335"/>
<path d="M16.8828 20.2945L35.2543 24.4446C37.369 24.9633 39.7481 24.4446 41.4662 23.1477L45.8278 20.0352V29.7618C45.8278 32.2259 43.7131 34.1713 41.2019 34.1713H21.5087C18.9975 34.1713 16.8828 32.2259 16.8828 29.7618V20.2945Z" fill="#4285F4"/>
<path d="M57.6631 17.2866L55.6562 9.80273H56.9314L58.123 14.6631L58.2484 15.3111H58.3112L58.4679 14.6631L59.9731 9.80273H61.1228L62.5653 14.6631L62.722 15.3007H62.7848L62.9102 14.6631L64.1018 9.80273H65.3665L63.391 17.2866H62.1785L60.7466 12.3218L60.5793 11.6214H60.5166L60.3389 12.3218L58.8442 17.2866H57.6631ZM68.045 17.4539C67.5223 17.4539 67.0554 17.3319 66.6443 17.088C66.2332 16.8442 65.9091 16.5097 65.6723 16.0846C65.4423 15.6595 65.3273 15.1752 65.3273 14.6317C65.3273 14.123 65.4388 13.6527 65.6618 13.2207C65.8848 12.7887 66.1949 12.4437 66.5921 12.1859C66.9962 11.9211 67.4596 11.7887 67.9822 11.7887C68.5327 11.7887 68.9996 11.9071 69.3828 12.1441C69.773 12.381 70.0692 12.705 70.2713 13.1161C70.4734 13.5272 70.5744 13.9907 70.5744 14.5063C70.5744 14.5829 70.5709 14.6526 70.564 14.7153C70.564 14.7781 70.5604 14.8269 70.5535 14.8617H66.4353C66.4631 15.1543 66.5363 15.4087 66.6548 15.6247C66.808 15.8965 67.0102 16.1021 67.261 16.2414C67.5119 16.3807 67.7836 16.4504 68.0763 16.4504C68.4317 16.4504 68.7278 16.3703 68.9648 16.21C69.2086 16.0428 69.4002 15.8372 69.5396 15.5933L70.4698 16.0428C70.2399 16.4609 69.9264 16.8024 69.5292 17.0671C69.132 17.325 68.6372 17.4539 68.045 17.4539ZM66.498 14.015H69.456C69.449 13.8826 69.4142 13.7433 69.3515 13.5969C69.2888 13.4436 69.1982 13.3043 69.0797 13.1788C68.9612 13.0534 68.8114 12.9524 68.6303 12.8757C68.4491 12.7921 68.2366 12.7503 67.9927 12.7503C67.686 12.7503 67.4143 12.8305 67.1774 12.9907C66.9405 13.144 66.7558 13.36 66.6234 13.6388C66.5676 13.7572 66.5258 13.8826 66.498 14.015ZM71.6217 17.2866V9.80273H72.7505V14.2136L75.0082 11.9559H76.4088V12.0186L74.3497 14.0568L76.482 17.2239V17.2866H75.1441L73.5554 14.8408L72.7505 15.6352V17.2866H71.6217ZM78.755 17.4539C78.3717 17.4539 78.0302 17.3772 77.7307 17.2239C77.438 17.0706 77.2045 16.8615 77.0304 16.5968C76.8631 16.325 76.7795 16.0149 76.7795 15.6665C76.7795 15.2832 76.877 14.9592 77.0722 14.6944C77.2742 14.4297 77.5425 14.2275 77.877 14.0882C78.2115 13.9489 78.5808 13.8792 78.985 13.8792C79.2079 13.8792 79.4135 13.8966 79.6016 13.9314C79.7967 13.9593 79.9639 13.9941 80.1034 14.0359C80.2497 14.0778 80.3647 14.123 80.4484 14.1718V13.8896C80.4484 13.5412 80.3229 13.2625 80.072 13.0534C79.8211 12.8444 79.4971 12.7398 79.0999 12.7398C78.8282 12.7398 78.5703 12.8026 78.3265 12.928C78.0825 13.0464 77.8875 13.2102 77.7411 13.4193L76.9676 12.8235C77.1209 12.6074 77.3056 12.4228 77.5216 12.2695C77.7446 12.1162 77.992 11.9977 78.2637 11.9141C78.5424 11.8305 78.8316 11.7887 79.1313 11.7887C79.9048 11.7887 80.5007 11.9803 80.9188 12.3636C81.3369 12.7398 81.5459 13.2695 81.5459 13.9523V17.2866H80.4484V16.6281H80.3856C80.295 16.7675 80.1695 16.8999 80.0093 17.0253C79.856 17.1507 79.6713 17.2518 79.4553 17.3284C79.2463 17.4121 79.0128 17.4539 78.755 17.4539ZM78.9536 16.5341C79.2463 16.5341 79.504 16.4643 79.7271 16.325C79.957 16.1857 80.1347 16.0044 80.2601 15.7815C80.3856 15.5515 80.4484 15.3041 80.4484 15.0394C80.295 14.9488 80.1068 14.8756 79.8839 14.8199C79.6678 14.7572 79.4379 14.7258 79.194 14.7258C78.7341 14.7258 78.4065 14.8164 78.2115 14.9976C78.0163 15.1787 77.9188 15.4052 77.9188 15.677C77.9188 15.9278 78.0129 16.1334 78.201 16.2936C78.3892 16.4539 78.64 16.5341 78.9536 16.5341ZM85.2284 17.2866V9.80273H86.3572V14.2136L88.615 11.9559H90.0156V12.0186L87.9565 14.0568L90.0887 17.2239V17.2866H88.7508L87.1621 14.8408L86.3572 15.6352V17.2866H85.2284ZM91.9099 17.2866L90.2061 11.9559H91.429L92.5266 15.7919H92.5684L93.7704 11.9559H94.9306L96.1326 15.7919H96.1744L97.2719 11.9559H98.4739L96.7598 17.2866H95.5786L94.3453 13.4297H94.3035L93.0805 17.2866H91.9099ZM101.536 17.4539C101.013 17.4539 100.546 17.3319 100.135 17.088C99.7234 16.8442 99.3994 16.5097 99.163 16.0846C98.933 15.6595 98.8181 15.1752 98.8181 14.6317C98.8181 14.123 98.929 13.6527 99.1525 13.2207C99.3753 12.7887 99.6856 12.4437 100.083 12.1859C100.486 11.9211 100.95 11.7887 101.473 11.7887C102.023 11.7887 102.49 11.9071 102.874 12.1441C103.264 12.381 103.559 12.705 103.762 13.1161C103.964 13.5272 104.065 13.9907 104.065 14.5063C104.065 14.5829 104.061 14.6526 104.055 14.7153C104.055 14.7781 104.051 14.8269 104.044 14.8617H99.926C99.9534 15.1543 100.027 15.4087 100.146 15.6247C100.298 15.8965 100.501 16.1021 100.752 16.2414C101.003 16.3807 101.274 16.4504 101.567 16.4504C101.922 16.4504 102.218 16.3703 102.455 16.21C102.699 16.0428 102.89 15.8372 103.03 15.5933L103.961 16.0428C103.731 16.4609 103.417 16.8024 103.02 17.0671C102.623 17.325 102.127 17.4539 101.536 17.4539ZM99.9887 14.015H102.947C102.94 13.8826 102.905 13.7433 102.842 13.5969C102.78 13.4436 102.689 13.3043 102.57 13.1788C102.451 13.0534 102.302 12.9524 102.121 12.8757C101.939 12.7921 101.727 12.7503 101.483 12.7503C101.176 12.7503 100.905 12.8305 100.668 12.9907C100.431 13.144 100.246 13.36 100.114 13.6388C100.058 13.7572 100.016 13.8826 99.9887 14.015ZM105.112 17.2866V11.9559H106.178V12.6876H106.241C106.394 12.4297 106.62 12.2172 106.92 12.05C107.227 11.8758 107.561 11.7887 107.924 11.7887C108.579 11.7887 109.07 11.9838 109.397 12.374C109.725 12.7573 109.889 13.2729 109.889 13.921V17.2866H108.77V14.0673C108.77 13.6353 108.663 13.3217 108.446 13.1266C108.23 12.9245 107.948 12.8235 107.6 12.8235C107.328 12.8235 107.091 12.9001 106.889 13.0534C106.687 13.1998 106.526 13.3949 106.408 13.6388C106.296 13.8826 106.241 14.1439 106.241 14.4227V17.2866H105.112ZM112.851 19.283C112.83 19.3318 112.806 19.3806 112.778 19.4294C112.757 19.4851 112.743 19.5234 112.736 19.5443H111.534C111.569 19.4677 111.617 19.3597 111.68 19.2203C111.75 19.081 111.816 18.9416 111.879 18.8022C111.921 18.7116 111.962 18.6141 112.004 18.5096C112.053 18.405 112.102 18.297 112.15 18.1855C112.207 18.074 112.259 17.966 112.307 17.8615L112.704 16.994L110.478 11.9559H111.732L113.258 15.5933H113.311L114.784 11.9559H116.028L113.269 18.311C113.221 18.4294 113.164 18.5548 113.102 18.6872C113.046 18.8197 112.994 18.9381 112.945 19.0426C112.903 19.1541 112.872 19.2342 112.851 19.283ZM119.01 17.4539C118.488 17.4539 118.021 17.3319 117.61 17.088C117.199 16.8442 116.875 16.5097 116.638 16.0846C116.408 15.6595 116.293 15.1752 116.293 14.6317C116.293 14.123 116.405 13.6527 116.627 13.2207C116.85 12.7887 117.16 12.4437 117.558 12.1859C117.962 11.9211 118.425 11.7887 118.948 11.7887C119.498 11.7887 119.965 11.9071 120.348 12.1441C120.738 12.381 121.035 12.705 121.237 13.1161C121.439 13.5272 121.54 13.9907 121.54 14.5063C121.54 14.5829 121.537 14.6526 121.529 14.7153C121.529 14.7781 121.526 14.8269 121.519 14.8617H117.401C117.429 15.1543 117.502 15.4087 117.62 15.6247C117.774 15.8965 117.976 16.1021 118.226 16.2414C118.477 16.3807 118.749 16.4504 119.042 16.4504C119.397 16.4504 119.693 16.3703 119.93 16.21C120.174 16.0428 120.366 15.8372 120.505 15.5933L121.435 16.0428C121.205 16.4609 120.892 16.8024 120.495 17.0671C120.097 17.325 119.603 17.4539 119.01 17.4539ZM117.463 14.015H120.421C120.414 13.8826 120.38 13.7433 120.317 13.5969C120.254 13.4436 120.163 13.3043 120.045 13.1788C119.927 13.0534 119.777 12.9524 119.596 12.8757C119.415 12.7921 119.202 12.7503 118.958 12.7503C118.652 12.7503 118.38 12.8305 118.143 12.9907C117.906 13.144 117.722 13.36 117.589 13.6388C117.533 13.7572 117.492 13.8826 117.463 14.015Z" fill="white"/>
<path d="M56.5859 33.3676V23.581H59.9484C60.5407 23.581 61.0783 23.7086 61.5613 23.9637C62.0442 24.2098 62.427 24.5605 62.7094 25.0162C63.001 25.4627 63.1468 25.9821 63.1468 26.5744C63.1468 27.1576 63.001 27.677 62.7094 28.1326C62.427 28.5882 62.0442 28.9436 61.5613 29.1987C61.0783 29.4448 60.5407 29.5678 59.9484 29.5678H58.0895V33.3676H56.5859ZM58.0895 28.1463H59.9894C60.3448 28.1463 60.6455 28.0733 60.8915 27.9276C61.1375 27.7726 61.3243 27.5768 61.4519 27.3398C61.5886 27.0938 61.6569 26.8387 61.6569 26.5744C61.6569 26.3101 61.5886 26.0596 61.4519 25.8226C61.3243 25.5857 61.1375 25.3898 60.8915 25.2349C60.6455 25.0799 60.3448 25.0025 59.9894 25.0025H58.0895V28.1463ZM67.2421 33.5863C66.5223 33.5863 65.8889 33.4223 65.3422 33.0943C64.7955 32.7662 64.3672 32.3242 64.0574 31.7684C63.7476 31.2034 63.5926 30.5747 63.5926 29.8822C63.5926 29.1897 63.7476 28.5654 64.0574 28.0096C64.3672 27.4446 64.7955 26.9981 65.3422 26.6701C65.8889 26.342 66.5223 26.178 67.2421 26.178C67.9529 26.178 68.5816 26.3466 69.1284 26.6837C69.6751 27.0118 70.1034 27.4538 70.4132 28.0096C70.723 28.5654 70.8779 29.1897 70.8779 29.8822C70.8779 30.5747 70.723 31.2034 70.4132 31.7684C70.1034 32.3242 69.6751 32.7662 69.1284 33.0943C68.5816 33.4223 67.9529 33.5863 67.2421 33.5863ZM67.2421 32.2331C67.6248 32.2331 67.9802 32.142 68.3083 31.9598C68.6363 31.7684 68.9006 31.4996 69.101 31.1533C69.3106 30.798 69.4154 30.3742 69.4154 29.8822C69.4154 29.3901 69.3106 28.971 69.101 28.6247C68.9006 28.2693 68.6363 28.0005 68.3083 27.8182C67.9802 27.6269 67.6248 27.5312 67.2421 27.5312C66.8594 27.5312 66.4994 27.6269 66.1623 27.8182C65.8343 28.0005 65.5655 28.2693 65.3559 28.6247C65.1554 28.971 65.0552 29.3901 65.0552 29.8822C65.0552 30.3742 65.1554 30.798 65.3559 31.1533C65.5655 31.4996 65.8388 31.7684 66.176 31.9598C66.5131 32.142 66.8685 32.2331 67.2421 32.2331ZM75.4633 33.5863C74.7616 33.5863 74.1375 33.4269 73.5907 33.1079C73.0531 32.789 72.6293 32.3516 72.3196 31.7958C72.0189 31.2308 71.8685 30.5929 71.8685 29.8822C71.8685 29.1714 72.0189 28.5381 72.3196 27.9822C72.6293 27.4264 73.0531 26.989 73.5907 26.6701C74.1375 26.342 74.7616 26.178 75.4633 26.178C76.2378 26.178 76.8893 26.3511 77.4179 26.6974C77.9555 27.0437 78.3382 27.5129 78.566 28.1053L77.2265 28.652C77.0625 28.2784 76.8256 28.0005 76.5158 27.8182C76.2151 27.6269 75.8551 27.5312 75.436 27.5312C75.0533 27.5312 74.7024 27.6315 74.3835 27.8319C74.0645 28.0233 73.8094 28.292 73.6181 28.6383C73.4267 28.9846 73.331 29.3992 73.331 29.8822C73.331 30.356 73.4267 30.7706 73.6181 31.126C73.8094 31.4814 74.0645 31.7547 74.3835 31.9461C74.7024 32.1375 75.0533 32.2331 75.436 32.2331C75.8824 32.2331 76.2606 32.1329 76.5704 31.9324C76.8802 31.732 77.1217 31.4495 77.2949 31.085L78.6071 31.6591C78.3519 32.2149 77.9555 32.6751 77.4179 33.0396C76.8893 33.404 76.2378 33.5863 75.4633 33.5863ZM79.8727 33.3676V23.581H81.3492V26.26L81.2672 27.3535H81.3492C81.5405 27.0164 81.8316 26.7384 82.224 26.5197C82.6244 26.2919 83.0666 26.178 83.5498 26.178C84.1327 26.178 84.616 26.2964 84.9987 26.5334C85.3902 26.7703 85.6821 27.0984 85.8735 27.5175C86.0648 27.9276 86.1605 28.4106 86.1605 28.9664V33.3676H84.698V29.1577C84.698 28.7841 84.6248 28.4789 84.4793 28.2419C84.3426 28.005 84.1601 27.8273 83.9325 27.7089C83.7042 27.5904 83.4493 27.5312 83.1671 27.5312C82.8117 27.5312 82.4973 27.6315 82.224 27.8319C81.9506 28.0323 81.7359 28.2966 81.5815 28.6247C81.4264 28.9436 81.3492 29.2853 81.3492 29.6498V33.3676H79.8727ZM87.9511 33.3676V26.3967H89.4273V33.3676H87.9511ZM88.6892 25.3716C88.4158 25.3716 88.1786 25.2759 87.9784 25.0845C87.787 24.8841 87.6914 24.6471 87.6914 24.3738C87.6914 24.0913 87.787 23.859 87.9784 23.6767C88.1786 23.4853 88.4158 23.3896 88.6892 23.3896C88.9714 23.3896 89.2086 23.4853 89.3999 23.6767C89.5913 23.859 89.687 24.0913 89.687 24.3738C89.687 24.6471 89.5913 24.8841 89.3999 25.0845C89.2086 25.2759 88.9714 25.3716 88.6892 25.3716ZM96.8267 35.9783C96.7994 36.0421 96.768 36.1059 96.731 36.1697C96.7037 36.2426 96.686 36.2927 96.6764 36.32H95.1045C95.1503 36.2198 95.2138 36.0786 95.2959 35.8963C95.3875 35.714 95.4735 35.5318 95.5556 35.3496C95.6102 35.2311 95.6649 35.1035 95.7196 34.9668C95.7839 34.8302 95.8474 34.6889 95.9109 34.5431C95.9841 34.3973 96.0524 34.2561 96.116 34.1194L96.6354 32.9849L93.724 26.3967H95.3642L97.3598 31.1533H97.4281L99.3554 26.3967H100.982L97.3735 34.7071C97.3099 34.8621 97.2368 35.0261 97.1548 35.1992C97.0824 35.3723 97.0141 35.5272 96.9497 35.6639C96.8951 35.8097 96.8541 35.9145 96.8267 35.9783ZM103.804 33.5863C103.302 33.5863 102.856 33.4861 102.465 33.2856C102.082 33.0852 101.776 32.8118 101.549 32.4655C101.33 32.1101 101.221 31.7047 101.221 31.249C101.221 30.7479 101.348 30.3241 101.603 29.9778C101.867 29.6316 102.219 29.3673 102.656 29.1851C103.093 29.0028 103.576 28.9117 104.105 28.9117C104.396 28.9117 104.665 28.9345 104.911 28.98C105.166 29.0165 105.385 29.0621 105.567 29.1167C105.759 29.1714 105.909 29.2307 106.018 29.2944V28.9254C106.018 28.4697 105.854 28.1053 105.526 27.8319C105.198 27.5585 104.775 27.4218 104.255 27.4218C103.9 27.4218 103.562 27.5039 103.244 27.6679C102.924 27.8228 102.67 28.0369 102.478 28.3103L101.467 27.5312C101.667 27.2487 101.908 27.0072 102.191 26.8068C102.482 26.6063 102.806 26.4514 103.162 26.342C103.526 26.2327 103.904 26.178 104.296 26.178C105.308 26.178 106.087 26.4286 106.633 26.9298C107.18 27.4218 107.454 28.1144 107.454 29.0074V33.3676H106.018V32.5065H105.936C105.817 32.6888 105.653 32.8619 105.444 33.0259C105.243 33.1899 105.002 33.322 104.72 33.4223C104.446 33.5316 104.141 33.5863 103.804 33.5863ZM104.064 32.3835C104.446 32.3835 104.783 32.2924 105.075 32.1101C105.376 31.9279 105.608 31.691 105.772 31.3994C105.936 31.0987 106.018 30.7752 106.018 30.4289C105.817 30.3105 105.571 30.2148 105.28 30.1419C104.997 30.0599 104.697 30.0189 104.378 30.0189C103.777 30.0189 103.348 30.1373 103.093 30.3742C102.838 30.6112 102.711 30.9073 102.711 31.2627C102.711 31.5907 102.834 31.8595 103.08 32.0691C103.326 32.2787 103.654 32.3835 104.064 32.3835ZM116.882 33.5863C116.18 33.5863 115.519 33.4587 114.9 33.2036C114.28 32.9485 113.733 32.5931 113.259 32.1375C112.795 31.6727 112.426 31.1306 112.152 30.5109C111.888 29.8822 111.756 29.2033 111.756 28.4743C111.756 27.7453 111.888 27.071 112.152 26.4514C112.426 25.8226 112.795 25.2805 113.259 24.8248C113.733 24.3601 114.28 24.0001 114.9 23.745C115.519 23.4899 116.18 23.3623 116.882 23.3623C117.629 23.3623 118.317 23.4944 118.946 23.7587C119.583 24.023 120.116 24.392 120.545 24.8658L119.506 25.891C119.296 25.654 119.055 25.4536 118.781 25.2896C118.517 25.1255 118.225 25.0025 117.907 24.9205C117.588 24.8294 117.246 24.7838 116.882 24.7838C116.398 24.7838 115.938 24.8704 115.501 25.0435C115.064 25.2166 114.676 25.4673 114.339 25.7953C114.011 26.1143 113.752 26.5015 113.56 26.9571C113.369 27.4036 113.273 27.9093 113.273 28.4743C113.273 29.0393 113.369 29.5495 113.56 30.0052C113.76 30.4517 114.025 30.839 114.353 31.167C114.69 31.486 115.077 31.732 115.515 31.9051C115.952 32.0782 116.412 32.1648 116.895 32.1648C117.341 32.1648 117.756 32.101 118.139 31.9734C118.531 31.8458 118.872 31.6636 119.164 31.4267C119.455 31.1898 119.692 30.9027 119.875 30.5656C120.057 30.2193 120.171 29.8321 120.217 29.4038H116.868V28.0779H121.625C121.642 28.1873 121.661 28.3149 121.679 28.4606C121.697 28.5973 121.707 28.7294 121.707 28.857V28.8707C121.707 29.5724 121.584 30.2148 121.338 30.798C121.1 31.3811 120.767 31.8823 120.34 32.3015C119.911 32.7115 119.401 33.0305 118.809 33.2583C118.225 33.477 117.583 33.5863 116.882 33.5863ZM126.107 33.5863C125.387 33.5863 124.754 33.4223 124.207 33.0943C123.66 32.7662 123.233 32.3242 122.922 31.7684C122.613 31.2034 122.458 30.5747 122.458 29.8822C122.458 29.1897 122.613 28.5654 122.922 28.0096C123.233 27.4446 123.66 26.9981 124.207 26.6701C124.754 26.342 125.387 26.178 126.107 26.178C126.818 26.178 127.447 26.3466 127.993 26.6837C128.54 27.0118 128.969 27.4538 129.278 28.0096C129.588 28.5654 129.743 29.1897 129.743 29.8822C129.743 30.5747 129.588 31.2034 129.278 31.7684C128.969 32.3242 128.54 32.7662 127.993 33.0943C127.447 33.4223 126.818 33.5863 126.107 33.5863ZM126.107 32.2331C126.49 32.2331 126.845 32.142 127.173 31.9598C127.501 31.7684 127.766 31.4996 127.966 31.1533C128.176 30.798 128.28 30.3742 128.28 29.8822C128.28 29.3901 128.176 28.971 127.966 28.6247C127.766 28.2693 127.501 28.0005 127.173 27.8182C126.845 27.6269 126.49 27.5312 126.107 27.5312C125.724 27.5312 125.365 27.6269 125.027 27.8182C124.699 28.0005 124.431 28.2693 124.221 28.6247C124.021 28.971 123.92 29.3901 123.92 29.8822C123.92 30.3742 124.021 30.798 124.221 31.1533C124.431 31.4996 124.704 31.7684 125.041 31.9598C125.379 32.142 125.734 32.2331 126.107 32.2331ZM134.383 33.5863C133.663 33.5863 133.03 33.4223 132.483 33.0943C131.936 32.7662 131.508 32.3242 131.198 31.7684C130.889 31.2034 130.733 30.5747 130.733 29.8822C130.733 29.1897 130.889 28.5654 131.198 28.0096C131.508 27.4446 131.936 26.9981 132.483 26.6701C133.03 26.342 133.663 26.178 134.383 26.178C135.094 26.178 135.722 26.3466 136.269 26.6837C136.816 27.0118 137.244 27.4538 137.554 28.0096C137.864 28.5654 138.019 29.1897 138.019 29.8822C138.019 30.5747 137.864 31.2034 137.554 31.7684C137.244 32.3242 136.816 32.7662 136.269 33.0943C135.722 33.4223 135.094 33.5863 134.383 33.5863ZM134.383 32.2331C134.766 32.2331 135.121 32.142 135.449 31.9598C135.777 31.7684 136.042 31.4996 136.242 31.1533C136.452 30.798 136.556 30.3742 136.556 29.8822C136.556 29.3901 136.452 28.971 136.242 28.6247C136.042 28.2693 135.777 28.0005 135.449 27.8182C135.121 27.6269 134.766 27.5312 134.383 27.5312C134 27.5312 133.641 27.6269 133.303 27.8182C132.975 28.0005 132.706 28.2693 132.497 28.6247C132.296 28.971 132.196 29.3901 132.196 29.8822C132.196 30.3742 132.296 30.798 132.497 31.1533C132.706 31.4996 132.98 31.7684 133.317 31.9598C133.654 32.142 134.01 32.2331 134.383 32.2331ZM142.522 36.5387C141.912 36.5387 141.384 36.4384 140.936 36.238C140.499 36.0466 140.144 35.796 139.87 35.4862C139.597 35.1855 139.402 34.8757 139.283 34.5568L140.649 33.9827C140.796 34.3472 141.028 34.6434 141.347 34.8712C141.675 35.1081 142.067 35.2265 142.522 35.2265C143.169 35.2265 143.675 35.0352 144.039 34.6525C144.404 34.2697 144.586 33.7276 144.586 33.0259V32.3562H144.504C144.285 32.6751 143.985 32.9348 143.602 33.1353C143.219 33.3357 142.778 33.436 142.276 33.436C141.684 33.436 141.137 33.2856 140.636 32.9849C140.144 32.6842 139.747 32.2651 139.447 31.7274C139.156 31.1807 139.009 30.5428 139.009 29.8138C139.009 29.0757 139.156 28.4379 139.447 27.9002C139.747 27.3535 140.144 26.9298 140.636 26.6291C141.137 26.3284 141.684 26.178 142.276 26.178C142.778 26.178 143.219 26.2783 143.602 26.4787C143.985 26.6701 144.285 26.9344 144.504 27.2715H144.586V26.3967H145.994V32.9986C145.994 33.7549 145.843 34.3973 145.543 34.9258C145.252 35.4543 144.846 35.8553 144.326 36.1287C143.807 36.402 143.205 36.5387 142.522 36.5387ZM142.536 32.0965C142.901 32.0965 143.238 32.0099 143.547 31.8368C143.866 31.6545 144.117 31.3948 144.299 31.0577C144.49 30.7114 144.586 30.2968 144.586 29.8138C144.586 29.3035 144.49 28.8798 144.299 28.5427C144.117 28.2055 143.866 27.9503 143.547 27.7772C143.238 27.6041 142.901 27.5175 142.536 27.5175C142.171 27.5175 141.83 27.6041 141.511 27.7772C141.201 27.9503 140.95 28.21 140.759 28.5563C140.567 28.8935 140.472 29.3127 140.472 29.8138C140.472 30.3059 140.567 30.725 140.759 31.0713C140.95 31.4085 141.201 31.6637 141.511 31.8368C141.83 32.0099 142.171 32.0965 142.536 32.0965ZM147.735 33.3676V23.581H149.211V33.3676H147.735ZM154.069 33.5863C153.386 33.5863 152.776 33.4269 152.238 33.1079C151.7 32.789 151.276 32.3516 150.967 31.7958C150.666 31.2399 150.516 30.6066 150.516 29.8958C150.516 29.2307 150.661 28.6156 150.953 28.0506C151.245 27.4856 151.65 27.0345 152.17 26.6974C152.698 26.3511 153.304 26.178 153.987 26.178C154.707 26.178 155.318 26.3329 155.819 26.6427C156.33 26.9525 156.716 27.3763 156.981 27.9139C157.245 28.4516 157.377 29.0575 157.377 29.7318C157.377 29.8321 157.372 29.9232 157.364 30.0052C157.364 30.0872 157.359 30.151 157.35 30.1965H151.965C152.001 30.5793 152.096 30.9119 152.252 31.1943C152.452 31.5497 152.716 31.8185 153.044 32.0008C153.372 32.1831 153.728 32.2741 154.11 32.2741C154.575 32.2741 154.963 32.1694 155.272 31.9598C155.592 31.7411 155.842 31.4723 156.024 31.1533L157.241 31.7411C156.94 32.2878 156.53 32.7343 156.01 33.0806C155.491 33.4177 154.844 33.5863 154.069 33.5863ZM152.047 29.0894H155.915C155.906 28.9163 155.86 28.734 155.778 28.5427C155.696 28.3422 155.578 28.1599 155.423 27.9959C155.267 27.8319 155.072 27.6998 154.835 27.5995C154.598 27.4902 154.32 27.4355 154.001 27.4355C153.6 27.4355 153.245 27.5403 152.935 27.7499C152.625 27.9503 152.383 28.2329 152.211 28.5973C152.137 28.7523 152.083 28.9163 152.047 29.0894Z" fill="white"/>
</g>
<defs>
<clipPath id="clip0_568_924">
<rect width="173.67" height="44.2215" fill="white"/>
</clipPath>
</defs>
</svg>
