<svg width="174" height="29" viewBox="0 0 174 29" fill="none" xmlns="http://www.w3.org/2000/svg">
<g clip-path="url(#clip0_568_394)">
<path d="M159.665 0.280273H14.0068C6.42638 0.280273 0.28125 6.4254 0.28125 14.0058C0.28125 21.5862 6.42638 27.7313 14.0068 27.7313H159.665C167.246 27.7313 173.391 21.5862 173.391 14.0058C173.391 6.4254 167.246 0.280273 159.665 0.280273Z" fill="#1F1F1F"/>
<path d="M28.5724 12.3249H11.7656V9.52379C11.7656 8.00316 12.9991 6.72266 14.464 6.72266H25.8741C27.3389 6.72266 28.5724 8.00316 28.5724 9.52379V12.3249Z" fill="#34A853"/>
<path d="M28.5724 14.5964H11.7656V11.7953C11.7656 10.2746 12.9991 8.99414 14.464 8.99414H25.8741C27.3389 8.99414 28.5724 10.2746 28.5724 11.7953V14.5964Z" fill="#FBBC04"/>
<path d="M28.5724 16.945H11.7656V14.1439C11.7656 12.6233 12.9991 11.3428 14.464 11.3428H25.8741C27.3389 11.3428 28.5724 12.6233 28.5724 14.1439V16.945Z" fill="#EA4335"/>
<path d="M11.7656 13.0389L22.4329 15.506C23.6608 15.8144 25.0422 15.506 26.0399 14.7351L28.5724 12.8848V18.6669C28.5724 20.1317 27.3445 21.2882 25.8864 21.2882H14.4516C12.9935 21.2882 11.7656 20.1317 11.7656 18.6669V13.0389Z" fill="url(#paint0_linear_568_394)"/>
<path d="M37.8494 17.9268L39.8998 12.2685H35.8438V9.0752H37.1771V11.0696H41.2891V12.2685L39.2611 17.9268H37.8494ZM42.3662 17.9268V16.3357C42.3662 15.656 42.5156 15.0958 42.8144 14.655C43.1206 14.2143 43.5688 13.8857 44.1589 13.669L42.2205 11.1368V11.0696H43.7219L46.0973 14.2741C46.4932 14.1247 46.777 13.9193 46.9488 13.6578C47.1206 13.3889 47.2065 12.9968 47.2065 12.4814V11.0696H48.5399V12.5038C48.5399 13.2582 48.383 13.8334 48.0693 14.2293C47.7556 14.6177 47.3298 14.9165 46.792 15.1256L48.8536 17.8595V17.9268H47.3522L44.876 14.5318C44.4204 14.6737 44.1103 14.8903 43.946 15.1817C43.7817 15.4655 43.6995 15.8353 43.6995 16.2909V17.9268H42.3662ZM57.5178 17.9268V14.2293C57.5178 13.7437 57.4545 13.3591 57.3273 13.0752C57.208 12.7839 57.0096 12.5785 56.7335 12.459C56.4573 12.332 56.0797 12.2685 55.6018 12.2685H52.7334V11.0696H55.6018C56.7447 11.0696 57.5699 11.3348 58.078 11.8651C58.5861 12.3955 58.8399 13.1835 58.8399 14.2293V17.9268H57.5178ZM52.7334 17.9268V14.1396H54.0668V17.9268H52.7334ZM60.6169 17.9268V16.7279H62.6674C63.4517 16.7279 64.0528 16.5187 64.4713 16.1004C64.8971 15.6821 65.1099 15.1219 65.1099 14.4197C65.1099 13.9417 65.0164 13.5271 64.8298 13.176C64.6506 12.8175 64.4001 12.5448 64.0791 12.3581C63.7654 12.1639 63.3996 12.0668 62.9811 12.0668C62.6971 12.0668 62.4506 12.1004 62.2416 12.1676C62.0399 12.2274 61.8718 12.3095 61.7374 12.4141C61.6102 12.5262 61.5133 12.6532 61.4461 12.7951C61.3861 12.937 61.3564 13.0827 61.3564 13.2321C61.3564 13.5383 61.4534 13.7773 61.6478 13.9492C61.8422 14.121 62.1223 14.2069 62.4881 14.2069H62.8354V15.3161H62.4545C61.6702 15.3161 61.0724 15.1256 60.6618 14.7447C60.2511 14.3637 60.0455 13.8633 60.0455 13.2433C60.0455 12.8922 60.1167 12.5748 60.2584 12.2909C60.4001 11.9996 60.6018 11.7493 60.8634 11.5402C61.1172 11.3311 61.4237 11.1704 61.7822 11.0584C62.148 10.9389 62.548 10.8791 62.9811 10.8791C63.6685 10.8791 64.2657 11.036 64.7738 11.3497C65.2892 11.656 65.6887 12.078 65.9727 12.6158C66.2567 13.1462 66.3985 13.7475 66.3985 14.4197C66.3985 15.0846 66.2489 15.6821 65.9503 16.2125C65.6517 16.7428 65.222 17.1611 64.6618 17.4674C64.1088 17.7737 63.4444 17.9268 62.6674 17.9268H60.6169ZM70.9055 18.106C70.3901 18.106 69.9156 18.0126 69.4825 17.8259C69.0495 17.6392 68.6719 17.3815 68.3509 17.0528C68.0298 16.7167 67.7794 16.332 67.6002 15.8987C67.4209 15.458 67.3312 14.9874 67.3312 14.487C67.3312 14.0089 67.417 13.5495 67.5889 13.1088C67.7609 12.6606 68.0147 12.2685 68.3509 11.9323C68.6719 11.6037 69.0495 11.346 69.4825 11.1592C69.9156 10.9725 70.3901 10.8791 70.9055 10.8791C71.4209 10.8791 71.8954 10.9725 72.3285 11.1592C72.7694 11.346 73.1503 11.6037 73.4713 11.9323C73.8002 12.261 74.054 12.6457 74.2332 13.0864C74.4125 13.5196 74.5021 13.9865 74.5021 14.487C74.5021 14.9874 74.4125 15.458 74.2332 15.8987C74.054 16.332 73.8002 16.7167 73.4713 17.0528C73.1503 17.3815 72.7694 17.6392 72.3285 17.8259C71.8954 18.0126 71.4209 18.106 70.9055 18.106ZM70.9055 16.9072C71.3313 16.9072 71.7161 16.8063 72.0596 16.6046C72.4108 16.3955 72.687 16.1079 72.8887 15.7419C73.0976 15.3759 73.2024 14.9576 73.2024 14.487C73.2024 14.0164 73.0976 13.6018 72.8887 13.2433C72.687 12.8773 72.4108 12.5934 72.0596 12.3917C71.7161 12.1826 71.3313 12.078 70.9055 12.078C70.5845 12.078 70.2853 12.1378 70.0091 12.2573C69.7329 12.3693 69.4898 12.5336 69.2808 12.7503C69.064 12.9744 68.8999 13.2395 68.7878 13.5458C68.6758 13.8446 68.6198 14.1583 68.6198 14.487C68.6198 14.9576 68.7206 15.3759 68.9223 15.7419C69.1313 16.1079 69.408 16.3955 69.7514 16.6046C70.0948 16.8063 70.4797 16.9072 70.9055 16.9072ZM75.7783 17.9268V11.0696H77.1117V17.9268H75.7783ZM83.5924 17.9268V14.2293C83.5924 13.7437 83.5291 13.3591 83.4019 13.0752C83.2826 12.7839 83.0842 12.5785 82.808 12.459C82.5319 12.332 82.1543 12.2685 81.6764 12.2685H78.808V11.0696H81.6764C82.8192 11.0696 83.6445 11.3348 84.1526 11.8651C84.6607 12.3955 84.9145 13.1835 84.9145 14.2293V17.9268H83.5924ZM78.808 17.9268V14.1396H80.1414V17.9268H78.808Z" fill="white"/>
<path d="M93.2212 18.1066C92.6459 18.1066 92.1047 18.002 91.5966 17.7928C91.0963 17.5837 90.6515 17.2924 90.2632 16.9189C89.875 16.5379 89.5686 16.0935 89.3445 15.5855C89.1277 15.0701 89.0195 14.5137 89.0195 13.9161C89.0195 13.3185 89.1277 12.7658 89.3445 12.2578C89.5686 11.7424 89.8711 11.298 90.252 10.9245C90.6403 10.5435 91.0884 10.2484 91.5966 10.0393C92.1047 9.83018 92.6459 9.72559 93.2212 9.72559C93.8336 9.72559 94.3977 9.83388 94.9131 10.0505C95.4358 10.2672 95.8728 10.5697 96.224 10.9581L95.3725 11.7984C95.1109 11.5071 94.7971 11.283 94.4313 11.1262C94.0728 10.9693 93.6694 10.8909 93.2212 10.8909C92.6907 10.8909 92.2016 11.0179 91.7534 11.2718C91.3053 11.5183 90.9428 11.8694 90.6666 12.325C90.3977 12.7732 90.2632 13.3036 90.2632 13.9161C90.2632 14.5286 90.4016 15.0627 90.6778 15.5183C90.954 15.9665 91.3165 16.3176 91.7646 16.5715C92.2128 16.818 92.7019 16.9413 93.2324 16.9413C93.7181 16.9413 94.1585 16.8517 94.5546 16.6724C94.9506 16.4857 95.2677 16.2242 95.5069 15.8881C95.7534 15.5519 95.903 15.1486 95.9551 14.678H93.21V13.5911H97.1092C97.154 13.7928 97.1764 14.0057 97.1764 14.2298V14.241C97.1764 15.0179 97.0044 15.6976 96.661 16.2802C96.3249 16.8554 95.8582 17.3036 95.2604 17.6248C94.6627 17.9459 93.9831 18.1066 93.2212 18.1066ZM100.784 18.1066C100.194 18.1066 99.675 17.9721 99.2268 17.7032C98.7787 17.4343 98.4274 17.072 98.1736 16.6164C97.9198 16.1607 97.7927 15.6453 97.7927 15.0701C97.7927 14.5025 97.9198 13.9908 98.1736 13.5351C98.4274 13.072 98.7787 12.706 99.2268 12.4371C99.675 12.1682 100.194 12.0337 100.784 12.0337C101.367 12.0337 101.882 12.1682 102.331 12.4371C102.779 12.706 103.13 13.072 103.384 13.5351C103.638 13.9908 103.765 14.5025 103.765 15.0701C103.765 15.6453 103.638 16.1607 103.384 16.6164C103.13 17.072 102.779 17.4343 102.331 17.7032C101.882 17.9721 101.367 18.1066 100.784 18.1066ZM100.784 16.9973C101.098 16.9973 101.389 16.9226 101.658 16.7732C101.927 16.6164 102.144 16.396 102.308 16.1122C102.48 15.8208 102.566 15.4735 102.566 15.0701C102.566 14.6668 102.48 14.3232 102.308 14.0393C102.144 13.748 101.927 13.5277 101.658 13.3783C101.389 13.2214 101.098 13.143 100.784 13.143C100.471 13.143 100.175 13.2214 99.8991 13.3783C99.6302 13.5277 99.41 13.748 99.2381 14.0393C99.0739 14.3232 98.9916 14.6668 98.9916 15.0701C98.9916 15.4735 99.0739 15.8208 99.2381 16.1122C99.41 16.396 99.6302 16.6164 99.8991 16.7732C100.175 16.9226 100.471 16.9973 100.784 16.9973ZM107.568 18.1066C106.978 18.1066 106.459 17.9721 106.011 17.7032C105.562 17.4343 105.212 17.072 104.957 16.6164C104.704 16.1607 104.576 15.6453 104.576 15.0701C104.576 14.5025 104.704 13.9908 104.957 13.5351C105.212 13.072 105.562 12.706 106.011 12.4371C106.459 12.1682 106.978 12.0337 107.568 12.0337C108.151 12.0337 108.666 12.1682 109.114 12.4371C109.562 12.706 109.914 13.072 110.167 13.5351C110.422 13.9908 110.548 14.5025 110.548 15.0701C110.548 15.6453 110.422 16.1607 110.167 16.6164C109.914 17.072 109.562 17.4343 109.114 17.7032C108.666 17.9721 108.151 18.1066 107.568 18.1066ZM107.568 16.9973C107.882 16.9973 108.173 16.9226 108.442 16.7732C108.711 16.6164 108.928 16.396 109.092 16.1122C109.264 15.8208 109.35 15.4735 109.35 15.0701C109.35 14.6668 109.264 14.3232 109.092 14.0393C108.928 13.748 108.711 13.5277 108.442 13.3783C108.173 13.2214 107.882 13.143 107.568 13.143C107.254 13.143 106.96 13.2214 106.683 13.3783C106.414 13.5277 106.194 13.748 106.022 14.0393C105.858 14.3232 105.775 14.6668 105.775 15.0701C105.775 15.4735 105.858 15.8208 106.022 16.1122C106.194 16.396 106.414 16.6164 106.683 16.7732C106.96 16.9226 107.254 16.9973 107.568 16.9973ZM114.24 20.5267C113.74 20.5267 113.306 20.4446 112.941 20.2802C112.582 20.1234 112.291 19.9179 112.067 19.664C111.843 19.4175 111.682 19.1635 111.585 18.9021L112.705 18.4315C112.825 18.7303 113.015 18.9731 113.277 19.1598C113.546 19.354 113.867 19.4511 114.24 19.4511C114.763 19.4511 115.174 19.2942 115.473 18.9805C115.779 18.6668 115.932 18.2224 115.932 17.6472V17.0982H115.865C115.686 17.3671 115.435 17.5837 115.114 17.748C114.801 17.9049 114.442 17.9833 114.039 17.9833C113.553 17.9833 113.109 17.8601 112.705 17.6136C112.302 17.3671 111.977 17.0235 111.731 16.5827C111.484 16.1346 111.361 15.6117 111.361 15.0141C111.361 14.4091 111.484 13.8862 111.731 13.4455C111.977 12.9973 112.302 12.65 112.705 12.4035C113.109 12.157 113.553 12.0337 114.039 12.0337C114.442 12.0337 114.801 12.1159 115.114 12.2802C115.435 12.4445 115.686 12.6612 115.865 12.9301H115.932V12.213H117.086V17.6248C117.086 18.2448 116.963 18.7714 116.717 19.2046C116.477 19.6378 116.145 19.9665 115.719 20.1906C115.294 20.4147 114.801 20.5267 114.24 20.5267ZM114.252 16.8853C114.55 16.8853 114.826 16.8143 115.081 16.6724C115.334 16.523 115.54 16.3101 115.697 16.0337C115.854 15.7499 115.932 15.41 115.932 15.0141C115.932 14.6033 115.854 14.2597 115.697 13.9833C115.54 13.6994 115.334 13.4865 115.081 13.3446C114.826 13.2027 114.55 13.1318 114.252 13.1318C113.952 13.1318 113.672 13.2064 113.411 13.3558C113.157 13.4978 112.952 13.7069 112.795 13.9833C112.638 14.2597 112.56 14.6033 112.56 15.0141C112.56 15.4175 112.638 15.7611 112.795 16.0449C112.952 16.3213 113.157 16.5305 113.411 16.6724C113.672 16.8143 113.952 16.8853 114.252 16.8853ZM118.513 17.9273V9.90486H119.723V17.9273H118.513ZM123.706 18.1066C123.146 18.1066 122.645 17.9759 122.205 17.7144C121.764 17.4529 121.416 17.0944 121.162 16.6388C120.916 16.1831 120.793 15.664 120.793 15.0813C120.793 14.5361 120.912 14.0319 121.151 13.5687C121.39 13.1056 121.723 12.7358 122.148 12.4595C122.582 12.1756 123.078 12.0337 123.639 12.0337C124.229 12.0337 124.729 12.1607 125.14 12.4147C125.558 12.6686 125.876 13.016 126.092 13.4567C126.309 13.8974 126.417 14.3941 126.417 14.9469C126.417 15.0291 126.413 15.1038 126.406 15.171C126.406 15.2382 126.402 15.2905 126.395 15.3278H121.98C122.04 15.8955 122.238 16.3213 122.574 16.6052C122.918 16.889 123.306 17.0309 123.74 17.0309C124.128 17.0309 124.449 16.945 124.703 16.7732C124.957 16.594 125.159 16.3736 125.308 16.1122L126.305 16.594C126.059 17.0421 125.723 17.4081 125.297 17.692C124.871 17.9684 124.341 18.1066 123.706 18.1066ZM123.65 13.0645C123.247 13.0645 122.903 13.1878 122.619 13.4343C122.335 13.6808 122.145 14.0095 122.048 14.4203H125.219C125.203 14.226 125.14 14.0244 125.028 13.8152C124.916 13.6061 124.744 13.4305 124.513 13.2886C124.289 13.1392 124.001 13.0645 123.65 13.0645ZM131.342 17.9273L129.191 9.90486H130.558L131.835 15.115L131.97 15.8096H132.037L132.205 15.115L133.819 9.90486H135.051L136.597 15.115L136.765 15.7984H136.833L136.967 15.115L138.244 9.90486H139.6L137.482 17.9273H136.183L134.648 12.6051L134.468 11.8544H134.401L134.211 12.6051L132.608 17.9273H131.342ZM141.85 18.1066C141.439 18.1066 141.073 18.0281 140.752 17.8713C140.431 17.707 140.18 17.4791 140.001 17.1878C139.822 16.8965 139.732 16.5641 139.732 16.1906C139.732 15.7872 139.837 15.4436 140.046 15.1598C140.263 14.8685 140.55 14.6481 140.909 14.4987C141.267 14.3493 141.663 14.2746 142.096 14.2746C142.455 14.2746 142.769 14.3082 143.038 14.3755C143.314 14.4427 143.523 14.5137 143.665 14.5883V14.2858C143.665 13.9123 143.531 13.6136 143.262 13.3895C142.993 13.1654 142.645 13.0533 142.22 13.0533C141.928 13.0533 141.652 13.1206 141.391 13.255C141.129 13.382 140.92 13.5575 140.763 13.7816L139.934 13.143C140.18 12.7994 140.505 12.5305 140.909 12.3362C141.32 12.1346 141.768 12.0337 142.253 12.0337C143.082 12.0337 143.721 12.2392 144.169 12.65C144.617 13.0533 144.842 13.621 144.842 14.3531V17.9273H143.665V17.2214H143.598C143.449 17.4529 143.225 17.6584 142.926 17.8377C142.627 18.0169 142.268 18.1066 141.85 18.1066ZM142.063 17.1206C142.377 17.1206 142.653 17.0459 142.892 16.8965C143.131 16.7471 143.318 16.5529 143.452 16.3138C143.594 16.0673 143.665 15.8022 143.665 15.5183C143.494 15.4212 143.292 15.3428 143.06 15.283C142.829 15.2158 142.582 15.1822 142.321 15.1822C141.828 15.1822 141.477 15.283 141.267 15.4847C141.058 15.6789 140.954 15.9179 140.954 16.2018C140.954 16.4707 141.054 16.691 141.256 16.8629C141.458 17.0347 141.727 17.1206 142.063 17.1206ZM146.185 17.9273V9.90486H147.395V17.9273H146.185ZM148.833 17.9273V9.90486H150.043V17.9273H148.833ZM154.026 18.1066C153.466 18.1066 152.965 17.9759 152.524 17.7144C152.084 17.4529 151.736 17.0944 151.482 16.6388C151.236 16.1831 151.113 15.664 151.113 15.0813C151.113 14.5361 151.232 14.0319 151.471 13.5687C151.71 13.1056 152.043 12.7358 152.468 12.4595C152.902 12.1756 153.398 12.0337 153.959 12.0337C154.549 12.0337 155.049 12.1607 155.46 12.4147C155.878 12.6686 156.196 13.016 156.412 13.4567C156.629 13.8974 156.737 14.3941 156.737 14.9469C156.737 15.0291 156.733 15.1038 156.726 15.171C156.726 15.2382 156.722 15.2905 156.715 15.3278H152.3C152.36 15.8955 152.558 16.3213 152.894 16.6052C153.238 16.889 153.626 17.0309 154.06 17.0309C154.448 17.0309 154.769 16.945 155.023 16.7732C155.277 16.594 155.479 16.3736 155.628 16.1122L156.625 16.594C156.379 17.0421 156.043 17.4081 155.617 17.692C155.191 17.9684 154.661 18.1066 154.026 18.1066ZM153.97 13.0645C153.567 13.0645 153.223 13.1878 152.939 13.4343C152.655 13.6808 152.465 14.0095 152.368 14.4203H155.538C155.523 14.226 155.46 14.0244 155.348 13.8152C155.236 13.6061 155.064 13.4305 154.833 13.2886C154.609 13.1392 154.321 13.0645 153.97 13.0645ZM158.301 16.269V13.2662H157.304V12.213H158.301V10.5995H159.511V12.213H160.912V13.2662H159.511V16.0113C159.511 16.2952 159.567 16.5118 159.679 16.6612C159.798 16.8106 159.996 16.8853 160.273 16.8853C160.415 16.8853 160.534 16.8666 160.632 16.8292C160.736 16.7919 160.84 16.7396 160.945 16.6724V17.8489C160.818 17.9011 160.684 17.9423 160.542 17.9721C160.4 18.002 160.232 18.0169 160.038 18.0169C159.507 18.0169 159.085 17.8638 158.772 17.5575C158.458 17.2438 158.301 16.8143 158.301 16.269Z" fill="white"/>
<path d="M159.665 0.280273H14.0068C6.42638 0.280273 0.28125 6.4254 0.28125 14.0058C0.28125 21.5862 6.42638 27.7313 14.0068 27.7313H159.665C167.246 27.7313 173.391 21.5862 173.391 14.0058C173.391 6.4254 167.246 0.280273 159.665 0.280273Z" stroke="#747775"/>
</g>
<defs>
<linearGradient id="paint0_linear_568_394" x1="19.3681" y1="17.2469" x2="10.4944" y2="27.4021" gradientUnits="userSpaceOnUse">
<stop stop-color="#4285F4"/>
<stop offset="1" stop-color="#1B74E8"/>
</linearGradient>
<clipPath id="clip0_568_394">
<rect width="173.67" height="28.0113" fill="white"/>
</clipPath>
</defs>
</svg>
