<svg width="174" height="47" viewBox="0 0 174 47" fill="none" xmlns="http://www.w3.org/2000/svg">
<g clip-path="url(#clip0_568_834)">
<path d="M150.371 0.423828H23.2955C10.6627 0.423828 0.421875 10.6647 0.421875 23.2974C0.421875 35.9302 10.6627 46.171 23.2955 46.171H150.371C163.004 46.171 173.245 35.9302 173.245 23.2974C173.245 10.6647 163.004 0.423828 150.371 0.423828Z" fill="#1F1F1F"/>
<path d="M150.371 0.423828H23.2955C10.6627 0.423828 0.421875 10.6647 0.421875 23.2974C0.421875 35.9302 10.6627 46.171 23.2955 46.171H150.371C163.004 46.171 173.245 35.9302 173.245 23.2974C173.245 10.6647 163.004 0.423828 150.371 0.423828Z" stroke="#747775"/>
<path d="M48.2872 20.1552H17.7891V15.3725C17.7891 12.7762 20.0275 10.5898 22.6855 10.5898H43.3907C46.0488 10.5898 48.2872 12.7762 48.2872 15.3725V20.1552Z" fill="#34A853"/>
<path d="M48.2872 24.5684H17.7891V19.4854C17.7891 16.726 20.0275 14.4023 22.6855 14.4023H43.3907C46.0488 14.4023 48.2872 16.726 48.2872 19.4854V24.5684Z" fill="#FBBC04"/>
<path d="M48.2872 28.8037H17.7891V23.7207C17.7891 20.9614 20.0275 18.6377 22.6855 18.6377H43.3907C46.0488 18.6377 48.2872 20.9614 48.2872 23.7207V28.8037Z" fill="#EA4335"/>
<path d="M17.7891 21.3827L37.1463 25.7554C39.3745 26.3019 41.8812 25.7554 43.6916 24.3889L48.2872 21.1094V31.3579C48.2872 33.9543 46.0591 36.004 43.4131 36.004H22.6632C20.0172 36.004 17.7891 33.9543 17.7891 31.3579V21.3827Z" fill="#4285F4"/>
<path d="M64.5023 21.8332C63.763 21.8332 63.0669 21.6987 62.414 21.4299C61.7611 21.1611 61.185 20.7867 60.6858 20.3066C60.1961 19.8169 59.8073 19.2457 59.5192 18.5927C59.2408 17.9303 59.1016 17.215 59.1016 16.4469C59.1016 15.6787 59.2408 14.9683 59.5192 14.3154C59.8073 13.6529 60.1961 13.0816 60.6858 12.6016C61.185 12.1119 61.7611 11.7326 62.414 11.4638C63.0669 11.195 63.763 11.0605 64.5023 11.0605C65.2896 11.0605 66.0145 11.1997 66.677 11.4782C67.349 11.7567 67.9107 12.1455 68.362 12.6448L67.2674 13.7249C67.0466 13.4752 66.7922 13.264 66.5041 13.0912C66.2257 12.9184 65.9185 12.7888 65.5824 12.7024C65.2463 12.6064 64.8863 12.5583 64.5023 12.5583C63.9934 12.5583 63.5085 12.6496 63.0477 12.832C62.5868 13.0144 62.1787 13.2784 61.8235 13.6241C61.4779 13.9602 61.2042 14.3682 61.0026 14.8482C60.801 15.3187 60.7002 15.8516 60.7002 16.4469C60.7002 17.0422 60.801 17.5798 61.0026 18.0599C61.2138 18.5303 61.4923 18.9384 61.8379 19.284C62.1931 19.6201 62.6012 19.8793 63.0621 20.0617C63.5229 20.2441 64.0078 20.3354 64.5167 20.3354C64.9871 20.3354 65.424 20.2682 65.8273 20.1337C66.2401 19.9993 66.6001 19.8073 66.9074 19.5577C67.2147 19.308 67.4642 19.0056 67.6563 18.6503C67.8483 18.2855 67.9683 17.8775 68.0163 17.4262H64.4879V16.0292H69.4997C69.519 16.1444 69.5381 16.2789 69.5573 16.4325C69.5766 16.5765 69.5861 16.7157 69.5861 16.8501V16.8645C69.5861 17.6038 69.4565 18.2807 69.1973 18.8952C68.9476 19.5096 68.5972 20.0378 68.146 20.4794C67.6947 20.9114 67.1571 21.2475 66.5329 21.4875C65.9185 21.718 65.2416 21.8332 64.5023 21.8332ZM74.2235 21.8332C73.4649 21.8332 72.7977 21.6603 72.2216 21.3147C71.6455 20.9691 71.1942 20.5034 70.8678 19.9177C70.5413 19.3224 70.3782 18.6599 70.3782 17.9303C70.3782 17.2006 70.5413 16.5428 70.8678 15.9572C71.1942 15.3619 71.6455 14.8915 72.2216 14.5458C72.7977 14.2002 73.4649 14.0273 74.2235 14.0273C74.9724 14.0273 75.6349 14.205 76.2109 14.5602C76.787 14.9059 77.2382 15.3715 77.5647 15.9572C77.8911 16.5428 78.0544 17.2006 78.0544 17.9303C78.0544 18.6599 77.8911 19.3224 77.5647 19.9177C77.2382 20.5034 76.787 20.9691 76.2109 21.3147C75.6349 21.6603 74.9724 21.8332 74.2235 21.8332ZM74.2235 20.4074C74.6267 20.4074 75.0012 20.3114 75.3468 20.1193C75.6925 19.9177 75.9709 19.6345 76.1821 19.2696C76.4029 18.8952 76.5134 18.4487 76.5134 17.9303C76.5134 17.4118 76.4029 16.9702 76.1821 16.6053C75.9709 16.2308 75.6925 15.9476 75.3468 15.7556C75.0012 15.5539 74.6267 15.4531 74.2235 15.4531C73.8202 15.4531 73.4409 15.5539 73.0857 15.7556C72.7401 15.9476 72.4568 16.2308 72.236 16.6053C72.0247 16.9702 71.9192 17.4118 71.9192 17.9303C71.9192 18.4487 72.0247 18.8952 72.236 19.2696C72.4568 19.6345 72.7448 19.9177 73.1001 20.1193C73.4553 20.3114 73.8298 20.4074 74.2235 20.4074ZM82.9433 21.8332C82.1848 21.8332 81.5175 21.6603 80.9415 21.3147C80.3654 20.9691 79.9142 20.5034 79.5877 19.9177C79.2613 19.3224 79.098 18.6599 79.098 17.9303C79.098 17.2006 79.2613 16.5428 79.5877 15.9572C79.9142 15.3619 80.3654 14.8915 80.9415 14.5458C81.5175 14.2002 82.1848 14.0273 82.9433 14.0273C83.6922 14.0273 84.3547 14.205 84.931 14.5602C85.507 14.9059 85.9586 15.3715 86.2847 15.9572C86.6109 16.5428 86.7744 17.2006 86.7744 17.9303C86.7744 18.6599 86.6109 19.3224 86.2847 19.9177C85.9586 20.5034 85.507 20.9691 84.931 21.3147C84.3547 21.6603 83.6922 21.8332 82.9433 21.8332ZM82.9433 20.4074C83.3466 20.4074 83.721 20.3114 84.0667 20.1193C84.4123 19.9177 84.6908 19.6345 84.9021 19.2696C85.1233 18.8952 85.2334 18.4487 85.2334 17.9303C85.2334 17.4118 85.1233 16.9702 84.9021 16.6053C84.6908 16.2308 84.4123 15.9476 84.0667 15.7556C83.721 15.5539 83.3466 15.4531 82.9433 15.4531C82.5401 15.4531 82.1609 15.5539 81.8056 15.7556C81.4599 15.9476 81.1767 16.2308 80.9559 16.6053C80.7447 16.9702 80.639 17.4118 80.639 17.9303C80.639 18.4487 80.7447 18.8952 80.9559 19.2696C81.1767 19.6345 81.4648 19.9177 81.82 20.1193C82.1753 20.3114 82.5497 20.4074 82.9433 20.4074ZM91.5194 24.944C90.8755 24.944 90.319 24.8383 89.8488 24.6271C89.3879 24.4255 89.0135 24.1614 88.7254 23.835C88.4374 23.5182 88.2307 23.1918 88.1061 22.8557L89.5463 22.2508C89.6997 22.6348 89.9445 22.9469 90.2808 23.1869C90.6265 23.4366 91.0391 23.5614 91.5194 23.5614C92.2005 23.5614 92.7334 23.3598 93.118 22.9565C93.5018 22.5533 93.6941 21.982 93.6941 21.2427V20.537H93.6077C93.3772 20.8731 93.0604 21.1467 92.6572 21.3579C92.2539 21.5691 91.788 21.6747 91.2602 21.6747C90.6358 21.6747 90.0597 21.5163 89.5319 21.1995C89.0135 20.8826 88.5958 20.441 88.279 19.8745C87.9714 19.2984 87.8181 18.6264 87.8181 17.8582C87.8181 17.0805 87.9714 16.4085 88.279 15.842C88.5958 15.2659 89.0135 14.8194 89.5319 14.5026C90.0597 14.1858 90.6358 14.0273 91.2602 14.0273C91.788 14.0273 92.2539 14.133 92.6572 14.3442C93.0604 14.5458 93.3772 14.8243 93.6077 15.1795H93.6941V14.2578H95.1775V21.2139C95.1775 22.0108 95.0191 22.6877 94.7022 23.2446C94.3947 23.8014 93.9677 24.2239 93.4205 24.5119C92.8732 24.8 92.2395 24.944 91.5194 24.944ZM91.5338 20.2634C91.9176 20.2634 92.2725 20.1721 92.5995 19.9897C92.935 19.7977 93.1993 19.524 93.3916 19.1688C93.5933 18.8039 93.6941 18.3671 93.6941 17.8582C93.6941 17.3205 93.5933 16.8741 93.3916 16.5189C93.1993 16.1636 92.935 15.8948 92.5995 15.7124C92.2725 15.53 91.9176 15.4387 91.5338 15.4387C91.1492 15.4387 90.7891 15.53 90.4537 15.7124C90.1267 15.8948 89.8632 16.1684 89.6616 16.5333C89.4599 16.8885 89.3591 17.3302 89.3591 17.8582C89.3591 18.3767 89.4599 18.8183 89.6616 19.1832C89.8632 19.5384 90.1267 19.8073 90.4537 19.9897C90.7891 20.1721 91.1492 20.2634 91.5338 20.2634ZM97.0116 21.6027V11.291H98.567V21.6027H97.0116ZM103.686 21.8332C102.966 21.8332 102.323 21.6652 101.756 21.3291C101.19 20.993 100.743 20.5322 100.416 19.9465C100.1 19.3609 99.9411 18.6936 99.9411 17.9447C99.9411 17.2438 100.095 16.5957 100.402 16.0004C100.71 15.4051 101.136 14.9298 101.684 14.5746C102.241 14.2097 102.879 14.0273 103.599 14.0273C104.358 14.0273 105.001 14.1906 105.529 14.517C106.067 14.8434 106.475 15.2899 106.753 15.8564C107.032 16.4229 107.171 17.0613 107.171 17.7718C107.171 17.8775 107.167 17.9735 107.156 18.0599C107.156 18.1463 107.152 18.2135 107.142 18.2615H101.468C101.507 18.6648 101.608 19.0152 101.77 19.3128C101.982 19.6873 102.26 19.9705 102.605 20.1625C102.951 20.3546 103.326 20.4506 103.729 20.4506C104.218 20.4506 104.627 20.3402 104.953 20.1193C105.289 19.8889 105.554 19.6057 105.745 19.2696L107.027 19.8889C106.71 20.465 106.278 20.9354 105.731 21.3003C105.183 21.6555 104.502 21.8332 103.686 21.8332ZM101.554 17.0949H105.63C105.621 16.9125 105.572 16.7205 105.486 16.5189C105.399 16.3077 105.275 16.1156 105.111 15.9428C104.949 15.77 104.742 15.6308 104.492 15.5251C104.243 15.4099 103.95 15.3523 103.614 15.3523C103.192 15.3523 102.817 15.4627 102.49 15.6836C102.164 15.8948 101.91 16.1925 101.727 16.5765C101.651 16.7397 101.593 16.9125 101.554 17.0949ZM113.502 21.6027L110.737 11.291H112.494L114.135 17.9879L114.308 18.8808H114.395L114.611 17.9879L116.685 11.291H118.269L120.256 17.9879L120.472 18.8664H120.559L120.732 17.9879L122.373 11.291H124.116L121.394 21.6027H119.723L117.75 14.7618L117.52 13.7969H117.434L117.189 14.7618L115.129 21.6027H113.502ZM127.008 21.8332C126.48 21.8332 126.009 21.7275 125.597 21.5163C125.194 21.3051 124.872 21.0171 124.632 20.6522C124.401 20.2778 124.286 19.8505 124.286 19.3704C124.286 18.8424 124.421 18.3959 124.69 18.0311C124.968 17.6662 125.338 17.3878 125.798 17.1958C126.259 17.0037 126.768 16.9077 127.325 16.9077C127.633 16.9077 127.916 16.9317 128.175 16.9797C128.443 17.0181 128.674 17.0661 128.866 17.1237C129.068 17.1814 129.226 17.2438 129.341 17.311V16.9221C129.341 16.442 129.169 16.058 128.823 15.77C128.477 15.4819 128.031 15.3379 127.483 15.3379C127.109 15.3379 126.754 15.4243 126.418 15.5971C126.081 15.7604 125.813 15.986 125.611 16.274L124.546 15.4531C124.756 15.1555 125.011 14.901 125.309 14.6898C125.616 14.4786 125.957 14.3154 126.331 14.2002C126.715 14.0849 127.114 14.0273 127.527 14.0273C128.592 14.0273 129.413 14.2914 129.989 14.8194C130.565 15.3379 130.854 16.0676 130.854 17.0085V21.6027H129.341V20.6954H129.255C129.13 20.8875 128.958 21.0699 128.736 21.2427C128.526 21.4155 128.271 21.5547 127.973 21.6603C127.685 21.7756 127.363 21.8332 127.008 21.8332ZM127.282 20.5658C127.685 20.5658 128.04 20.4698 128.348 20.2778C128.664 20.0857 128.909 19.8361 129.082 19.5289C129.255 19.212 129.341 18.8712 129.341 18.5063C129.13 18.3815 128.871 18.2807 128.564 18.2039C128.266 18.1175 127.949 18.0743 127.613 18.0743C126.979 18.0743 126.528 18.1991 126.259 18.4487C125.991 18.6984 125.856 19.0104 125.856 19.3848C125.856 19.7305 125.986 20.0137 126.245 20.2346C126.504 20.4554 126.85 20.5658 127.282 20.5658ZM132.58 21.6027V11.291H134.135V21.6027H132.58ZM135.984 21.6027V11.291H137.539V21.6027H135.984ZM142.658 21.8332C141.938 21.8332 141.295 21.6652 140.728 21.3291C140.162 20.993 139.716 20.5322 139.389 19.9465C139.072 19.3609 138.914 18.6936 138.914 17.9447C138.914 17.2438 139.068 16.5957 139.374 16.0004C139.682 15.4051 140.109 14.9298 140.656 14.5746C141.214 14.2097 141.852 14.0273 142.572 14.0273C143.331 14.0273 143.974 14.1906 144.501 14.517C145.039 14.8434 145.448 15.2899 145.726 15.8564C146.004 16.4229 146.143 17.0613 146.143 17.7718C146.143 17.8775 146.139 17.9735 146.129 18.0599C146.129 18.1463 146.125 18.2135 146.114 18.2615H140.44C140.479 18.6648 140.58 19.0152 140.743 19.3128C140.954 19.6873 141.232 19.9705 141.578 20.1625C141.924 20.3546 142.298 20.4506 142.701 20.4506C143.191 20.4506 143.599 20.3402 143.925 20.1193C144.262 19.8889 144.526 19.6057 144.717 19.2696L145.999 19.8889C145.682 20.465 145.25 20.9354 144.703 21.3003C144.156 21.6555 143.475 21.8332 142.658 21.8332ZM140.527 17.0949H144.602C144.593 16.9125 144.545 16.7205 144.458 16.5189C144.372 16.3077 144.247 16.1156 144.084 15.9428C143.921 15.77 143.714 15.6308 143.465 15.5251C143.215 15.4099 142.922 15.3523 142.586 15.3523C142.164 15.3523 141.79 15.4627 141.463 15.6836C141.136 15.8948 140.882 16.1925 140.699 16.5765C140.623 16.7397 140.566 16.9125 140.527 17.0949ZM146.872 14.2578H148.154V12.1839H149.709V14.2578H151.509V15.6115H149.709V19.14C149.709 19.5049 149.781 19.7833 149.925 19.9753C150.078 20.1674 150.333 20.2634 150.688 20.2634C150.861 20.2634 151.015 20.2394 151.149 20.1914C151.283 20.1337 151.418 20.0666 151.552 19.9897V21.5019C151.389 21.5691 151.216 21.622 151.034 21.6603C150.851 21.6987 150.635 21.718 150.386 21.718C149.704 21.718 149.162 21.5212 148.758 21.1275C148.355 20.7242 148.154 20.1721 148.154 19.4713V15.6115H146.872V14.2578Z" fill="white"/>
<path d="M62.2202 36.1256C61.5814 36.1256 61.0454 36.0375 60.6123 35.8613C60.1791 35.6851 59.8303 35.4502 59.566 35.1565C59.3091 34.8555 59.1218 34.5213 59.0043 34.1543C58.8868 33.7872 58.8281 33.4127 58.8281 33.0309C58.8281 32.3995 58.9749 31.8489 59.2687 31.3789C59.5697 30.9017 59.9882 30.5346 60.5242 30.2776C61.0675 30.0133 61.7062 29.8811 62.4405 29.8811C62.9838 29.8811 63.4683 29.9178 63.8942 29.9913C64.3201 30.0647 64.7386 30.1821 65.1497 30.3437L64.8524 31.1697C64.4339 31.0008 64.0374 30.887 63.6629 30.8283C63.2958 30.7696 62.8884 30.7402 62.4405 30.7402C61.9412 30.7402 61.486 30.8173 61.0748 30.9714C60.671 31.1256 60.3479 31.3716 60.1057 31.7093C59.8634 32.0471 59.7422 32.4876 59.7422 33.0309C59.7422 33.398 59.8193 33.7504 59.9735 34.0882C60.1351 34.4186 60.3956 34.6865 60.7554 34.8922C61.1152 35.0978 61.6035 35.2005 62.2202 35.2005C62.7488 35.2005 63.1673 35.1381 63.4757 35.0133C63.7841 34.8811 64.0043 34.7049 64.1365 34.4847C64.276 34.2644 64.3457 34.0185 64.3457 33.7468C64.3457 33.5119 64.287 33.2842 64.1695 33.064C64.0594 32.8437 63.8391 32.6785 63.5087 32.5684C63.5528 32.6638 63.5822 32.763 63.5968 32.8657C63.6189 32.9612 63.6299 33.0529 63.6299 33.1411C63.6299 33.5816 63.5014 33.8936 63.2444 34.0772C62.9875 34.2534 62.6644 34.3415 62.2753 34.3415C61.8714 34.3415 61.5337 34.2314 61.262 34.0111C60.9904 33.7835 60.8546 33.4531 60.8546 33.0199C60.8546 32.594 61.0198 32.2636 61.3501 32.0287C61.6805 31.7864 62.1137 31.6653 62.6497 31.6653C63.2371 31.6653 63.7216 31.7608 64.1035 31.9516C64.4853 32.1425 64.7679 32.3958 64.9515 32.7115C65.1423 33.0273 65.2378 33.3797 65.2378 33.7688C65.2378 34.2167 65.1351 34.6205 64.9294 34.9803C64.7238 35.3327 64.4008 35.6117 63.9603 35.8173C63.5198 36.0229 62.9397 36.1256 62.2202 36.1256ZM61.7356 33.0309C61.7356 33.1557 61.776 33.2696 61.8568 33.3723C61.9375 33.4751 62.0734 33.5265 62.2642 33.5265C62.4405 33.5265 62.569 33.4825 62.6497 33.3944C62.7378 33.2989 62.7819 33.1705 62.7819 33.0089C62.7819 32.9282 62.7709 32.8401 62.7488 32.7446C62.7342 32.6418 62.7011 32.5463 62.6497 32.4582H62.5946C62.3083 32.4582 62.0917 32.5097 61.9449 32.6124C61.8053 32.7152 61.7356 32.8547 61.7356 33.0309ZM69.5391 36.1256C68.4011 36.1256 67.5126 35.8687 66.8739 35.3547C66.2425 34.8407 65.9267 34.1433 65.9267 33.2622C65.9267 32.9171 65.9892 32.6014 66.114 32.3151C66.2461 32.0213 66.4444 31.7754 66.7087 31.5772C66.9583 31.3863 67.285 31.2431 67.6889 31.1477C68.0927 31.0449 68.6103 30.9935 69.2417 30.9935H69.7043C69.6896 30.6998 69.5978 30.4759 69.4289 30.3217C69.2674 30.1675 69.0508 30.0904 68.7792 30.0904C68.2726 30.0904 68.0192 30.2886 68.0192 30.6851C68.0192 30.7218 68.0192 30.7548 68.0192 30.7842C68.0266 30.8136 68.0339 30.8467 68.0413 30.8833L67.1382 31.0045C67.1308 30.9458 67.1198 30.876 67.1051 30.7952C67.0978 30.7145 67.0941 30.6337 67.0941 30.5529C67.0941 30.1271 67.2373 29.8077 67.5237 29.5948C67.81 29.3745 68.2028 29.2644 68.7021 29.2644C69.3262 29.2644 69.7997 29.448 70.1228 29.8151C70.4532 30.1821 70.6184 30.7108 70.6184 31.401V31.8195H69.2527C68.7094 31.8195 68.2946 31.8561 68.0082 31.9296C67.7219 31.9957 67.4906 32.0948 67.3144 32.227C67.1456 32.3591 67.0244 32.5169 66.951 32.7005C66.8849 32.8767 66.8518 33.0713 66.8518 33.2842C66.8518 33.8569 67.0795 34.3085 67.5347 34.6389C67.9972 34.9692 68.658 35.1344 69.517 35.1344C70.2219 35.1344 70.813 35.028 71.2902 34.8151C71.7748 34.6022 72.1602 34.3195 72.4466 33.967C72.7329 33.6073 72.9385 33.2071 73.0633 32.7666C73.1881 32.3261 73.2505 31.8782 73.2505 31.423C73.2505 30.7035 73.144 30.105 72.9311 29.6278C72.7183 29.1506 72.4356 28.7688 72.0831 28.4825C71.7307 28.1961 71.3416 27.9942 70.9157 27.8767C70.4899 27.7519 70.0641 27.6895 69.6382 27.6895C69.0068 27.6895 68.4304 27.7702 67.9091 27.9318C67.3879 28.0934 66.8995 28.3062 66.4444 28.5706L66.0369 27.7446C66.5655 27.4509 67.1308 27.2196 67.7329 27.0507C68.335 26.8819 68.9921 26.7974 69.7043 26.7974C70.2916 26.7974 70.8533 26.8855 71.3893 27.0618C71.9326 27.2306 72.4135 27.5023 72.832 27.8767C73.2579 28.2438 73.5919 28.7211 73.8342 29.3085C74.0765 29.8958 74.1977 30.6006 74.1977 31.423C74.1977 32.0691 74.1096 32.6749 73.9333 33.2402C73.7645 33.8055 73.4928 34.3048 73.1184 34.738C72.7513 35.1711 72.2704 35.5125 71.6756 35.7622C71.0883 36.0045 70.3761 36.1256 69.5391 36.1256ZM78.7604 36.1256C78.2464 36.1256 77.7802 36.0485 77.3617 35.8944C76.9505 35.7402 76.6201 35.4979 76.3705 35.1675C76.1282 34.8297 76.0071 34.3929 76.0071 33.8569V33.8239L75.6326 34.4626L74.8176 34.0001C75.2361 33.42 75.6436 32.8804 76.0401 32.3811C76.4366 31.8819 76.833 31.4376 77.2295 31.0485C77.1707 30.8283 77.079 30.6521 76.9542 30.5199C76.8367 30.3804 76.6789 30.3107 76.4806 30.3107C76.0621 30.3107 75.8529 30.5383 75.8529 30.9935C75.8529 31.0962 75.8639 31.1954 75.8859 31.2908C75.9079 31.3863 75.9336 31.4817 75.963 31.5772L75.0599 31.7534C75.0159 31.6066 74.9791 31.4597 74.9498 31.3129C74.9278 31.166 74.9167 31.0229 74.9167 30.8833C74.9167 30.4354 75.0562 30.0904 75.3352 29.8481C75.6142 29.6058 75.9887 29.4847 76.4586 29.4847C76.8403 29.4847 77.1487 29.5764 77.3837 29.76C77.6186 29.9436 77.7985 30.1711 77.9234 30.4428C78.4006 30.061 78.9035 29.771 79.4322 29.5728C79.9608 29.3672 80.5298 29.2644 81.1392 29.2644C81.9248 29.2644 82.5892 29.4149 83.1326 29.7159C83.6759 30.0169 84.0834 30.4392 84.3551 30.9825C84.634 31.5185 84.7736 32.1425 84.7736 32.8547C84.7736 33.5449 84.6487 34.1286 84.3991 34.6058C84.1568 35.0757 83.8227 35.4318 83.3969 35.6741C82.971 35.9164 82.4975 36.0375 81.9762 36.0375C81.8881 36.0375 81.8037 36.0339 81.7229 36.0265C81.6421 36.0265 81.565 36.0229 81.4916 36.0155L81.5357 35.1344C81.6531 35.1491 81.7632 35.1565 81.8661 35.1565C82.3433 35.1565 82.7251 35.0537 83.0115 34.8481C83.2978 34.6425 83.5033 34.3635 83.6282 34.0111C83.7604 33.6587 83.8264 33.2658 83.8264 32.8327C83.8264 31.9663 83.5768 31.3129 83.0775 30.8723C82.5856 30.4244 81.9248 30.2005 81.0952 30.2005C80.5225 30.2005 80.0048 30.2923 79.5423 30.4759C79.0797 30.6594 78.6575 30.898 78.2758 31.1917C78.4079 31.1623 78.5547 31.1366 78.7163 31.1146C78.8778 31.0852 79.043 31.0706 79.2119 31.0706C80.0709 31.0706 80.717 31.2872 81.1502 31.7203C81.5908 32.1535 81.811 32.7409 81.811 33.4825C81.811 33.7982 81.767 34.1139 81.6789 34.4296C81.5908 34.738 81.4366 35.0207 81.2163 35.2776C80.996 35.5346 80.6839 35.7402 80.2802 35.8944C79.8837 36.0485 79.3771 36.1256 78.7604 36.1256ZM76.8441 33.7027C76.8441 34.202 77.0129 34.5691 77.3507 34.804C77.6957 35.0317 78.1729 35.1455 78.7824 35.1455C79.5313 35.1455 80.0672 34.9949 80.3903 34.6939C80.7207 34.3929 80.8859 33.9854 80.8859 33.4714C80.8859 32.9282 80.7133 32.5317 80.3683 32.282C80.0231 32.0324 79.557 31.9076 78.9696 31.9076C78.6539 31.9076 78.3675 31.926 78.1106 31.9626C77.8609 31.9993 77.6076 32.0654 77.3507 32.1609C77.2038 32.3297 77.057 32.5023 76.9101 32.6785C76.7706 32.8473 76.6348 33.0199 76.5026 33.1961L76.8991 33.2181C76.8624 33.365 76.8441 33.5265 76.8441 33.7027ZM94.7177 36.1256C93.9544 36.1256 93.3156 36.0155 92.8014 35.7952C92.288 35.5676 91.8983 35.2556 91.634 34.8591C91.3773 34.4626 91.2485 34.0075 91.2485 33.4935C91.2485 32.7299 91.5459 32.1609 92.1406 31.7864C91.972 31.8011 91.8068 31.8121 91.645 31.8195C91.4908 31.8195 91.3586 31.8195 91.2485 31.8195H90.9842V30.9935H94.7507C94.7287 30.6998 94.6372 30.4759 94.4754 30.3217C94.3144 30.1675 94.0975 30.0904 93.8256 30.0904C93.319 30.0904 93.0657 30.2702 93.0657 30.63C93.0657 30.6815 93.0699 30.7218 93.0767 30.7512L92.1516 30.7952C92.1448 30.7586 92.1372 30.7145 92.1296 30.6631C92.1296 30.6117 92.1296 30.5676 92.1296 30.5309C92.1296 30.1124 92.2727 29.7967 92.5591 29.5838C92.853 29.3709 93.2495 29.2644 93.7485 29.2644C94.3805 29.2644 94.8574 29.448 95.1802 29.8151C95.5038 30.1821 95.6648 30.7108 95.6648 31.401V31.8195H94.6846C94.1196 31.8195 93.69 31.8525 93.3961 31.9186C93.1097 31.9847 92.8641 32.0984 92.6582 32.26C92.3354 32.5023 92.1736 32.8841 92.1736 33.4054C92.1736 33.9046 92.3795 34.3195 92.7903 34.6499C93.2021 34.9729 93.8442 35.1344 94.7177 35.1344C95.4225 35.1344 96.0138 35.0317 96.4908 34.8261C96.9754 34.6205 97.3608 34.3451 97.6472 34.0001C97.9335 33.6477 98.1394 33.2622 98.2639 32.8437C98.3893 32.4178 98.4511 31.9847 98.4511 31.5441C98.4511 30.8613 98.319 30.2556 98.0547 29.727C97.9005 29.8885 97.7175 30.0243 97.504 30.1344C97.299 30.2446 97.0567 30.2996 96.7771 30.2996C95.8817 30.2996 95.4335 29.76 95.4335 28.6807C95.4335 28.3944 95.4267 28.1777 95.4115 28.0309C95.3971 27.8767 95.3674 27.7666 95.3234 27.7005C95.2793 27.6271 95.2209 27.572 95.1472 27.5353L95.1141 27.5243L95.4666 26.7424C96.7297 27.1535 97.7022 27.774 98.3851 28.6036C99.0679 29.426 99.4093 30.4171 99.4093 31.5772C99.4093 32.1939 99.3212 32.7776 99.145 33.3283C98.9764 33.8716 98.7044 34.3561 98.33 34.782C97.9556 35.2005 97.471 35.5309 96.8763 35.7732C96.2815 36.0081 95.5623 36.1256 94.7177 36.1256ZM96.3036 28.7027C96.3188 28.9744 96.3663 29.1727 96.4467 29.2974C96.5281 29.4149 96.6746 29.4737 96.8873 29.4737C97.1668 29.4737 97.4015 29.3305 97.5921 29.0441C97.4091 28.8239 97.1956 28.6256 96.9533 28.4494C96.7187 28.2732 96.4578 28.1117 96.1714 27.9648C96.2155 28.0603 96.2451 28.1704 96.2595 28.2952C96.2815 28.42 96.2968 28.5559 96.3036 28.7027ZM105.898 36.1256C105.509 36.1256 105.185 36.0412 104.929 35.8723C104.672 35.6961 104.463 35.4722 104.301 35.2005C104.125 35.5089 103.912 35.7402 103.662 35.8944C103.412 36.0485 103.108 36.1256 102.748 36.1256C102.462 36.1256 102.183 36.0632 101.911 35.9384C101.647 35.8136 101.426 35.6117 101.25 35.3327C101.082 35.0463 100.997 34.6682 100.997 34.1983C100.997 34.1837 100.997 34.1763 100.997 34.1763L100.832 34.4626L100.017 34.0001C100.509 33.3246 100.945 32.7592 101.327 32.304C101.716 31.8415 102.091 31.4414 102.451 31.1036C102.385 30.8687 102.289 30.6777 102.164 30.5309C102.047 30.3841 101.886 30.3107 101.68 30.3107C101.261 30.3107 101.052 30.5383 101.052 30.9935C101.052 31.0962 101.063 31.1954 101.085 31.2908C101.107 31.3863 101.132 31.4817 101.162 31.5772L100.259 31.7534C100.215 31.6066 100.179 31.4597 100.149 31.3129C100.127 31.166 100.116 31.0229 100.116 30.8833C100.116 30.4354 100.256 30.0904 100.534 29.8481C100.813 29.6058 101.188 29.4847 101.658 29.4847C102.054 29.4847 102.37 29.5838 102.605 29.782C102.847 29.9729 103.031 30.2152 103.155 30.5089C103.552 30.2005 103.941 29.9546 104.323 29.771C104.705 29.5874 105.101 29.459 105.512 29.3855C105.931 29.3048 106.386 29.2644 106.878 29.2644C107.701 29.2644 108.387 29.4186 108.937 29.727C109.496 30.028 109.914 30.4538 110.193 31.0045C110.479 31.5478 110.622 32.1829 110.622 32.9098C110.622 33.5632 110.512 34.1249 110.292 34.5948C110.072 35.0574 109.771 35.4134 109.389 35.6631C109.007 35.9127 108.566 36.0375 108.067 36.0375C108.001 36.0375 107.924 36.0339 107.836 36.0265C107.748 36.0265 107.674 36.0191 107.616 36.0045L107.66 35.1344C107.704 35.1418 107.751 35.1491 107.803 35.1565C107.855 35.1565 107.906 35.1565 107.957 35.1565C108.376 35.1565 108.71 35.0537 108.959 34.8481C109.216 34.6425 109.4 34.3709 109.51 34.0331C109.62 33.6954 109.675 33.3283 109.675 32.9318C109.675 32.0434 109.419 31.3679 108.904 30.9054C108.39 30.4354 107.685 30.2005 106.79 30.2005C106.077 30.2005 105.454 30.2923 104.918 30.4759C104.389 30.6521 103.897 30.92 103.442 31.2798C103.604 31.2211 103.791 31.1733 104.004 31.1366C104.216 31.0926 104.452 31.0706 104.708 31.0706C105.67 31.0706 106.423 31.3055 106.966 31.7754C107.517 32.2453 107.792 32.9282 107.792 33.8239C107.792 34.2644 107.718 34.6572 107.572 35.0023C107.432 35.3473 107.223 35.6227 106.944 35.8283C106.665 36.0265 106.316 36.1256 105.898 36.1256ZM104.719 33.6587C104.719 34.1066 104.807 34.4663 104.984 34.738C105.16 35.0097 105.443 35.1455 105.832 35.1455C106.214 35.1455 106.481 35.0207 106.636 34.771C106.79 34.5213 106.867 34.2093 106.867 33.8349C106.867 33.2402 106.672 32.7702 106.283 32.4252C105.894 32.0801 105.303 31.9076 104.51 31.9076C104.106 31.9076 103.758 31.9296 103.464 31.9737C103.17 32.0103 102.873 32.0728 102.572 32.1609C102.388 32.3738 102.201 32.5978 102.01 32.8327C101.826 33.0676 101.647 33.3099 101.47 33.5596H101.834C101.819 33.6036 101.812 33.6513 101.812 33.7027C101.812 33.7468 101.812 33.7872 101.812 33.8239C101.812 34.235 101.886 34.5581 102.032 34.793C102.186 35.028 102.451 35.1455 102.825 35.1455C103.163 35.1455 103.423 35.0243 103.607 34.782C103.791 34.5397 103.882 34.1616 103.882 33.6477V33.5596H104.719V33.6587ZM108.607 30.2446V27.0177C108.607 26.8561 108.599 26.7277 108.585 26.6322C108.571 26.5295 108.544 26.445 108.508 26.3789C108.42 26.2174 108.266 26.0962 108.045 26.0155L108.376 25.2666C108.75 25.3694 108.992 25.5493 109.103 25.8062C109.183 25.6447 109.297 25.5163 109.444 25.4208C109.598 25.318 109.785 25.2666 110.006 25.2666C110.3 25.2666 110.538 25.3583 110.722 25.5419C110.912 25.7181 111.008 25.9788 111.008 26.3239C111.008 26.6763 110.905 26.948 110.7 27.1388C110.494 27.3297 110.193 27.4252 109.796 27.4252C109.679 27.4252 109.565 27.4178 109.455 27.4032V30.2446H108.607ZM109.455 26.5662V26.7203C109.551 26.735 109.646 26.7424 109.741 26.7424C110.116 26.7424 110.303 26.6028 110.303 26.3239C110.303 26.1991 110.267 26.1072 110.193 26.0485C110.119 25.9825 110.031 25.9494 109.929 25.9494C109.738 25.9494 109.609 26.0045 109.543 26.1146C109.485 26.2248 109.455 26.3753 109.455 26.5662ZM122.622 36.1256C122.233 36.1256 121.91 36.0412 121.653 35.8723C121.396 35.6961 121.187 35.4722 121.025 35.2005C120.849 35.5089 120.636 35.7402 120.386 35.8944C120.137 36.0485 119.832 36.1256 119.472 36.1256C119.186 36.1256 118.907 36.0632 118.635 35.9384C118.371 35.8136 118.15 35.6117 117.974 35.3327C117.806 35.0463 117.721 34.6682 117.721 34.1983C117.721 34.1837 117.721 34.1763 117.721 34.1763L117.556 34.4626L116.741 34.0001C117.233 33.3246 117.67 32.7592 118.051 32.304C118.441 31.8415 118.815 31.4414 119.175 31.1036C119.109 30.8687 119.014 30.6777 118.888 30.5309C118.771 30.3841 118.61 30.3107 118.404 30.3107C117.985 30.3107 117.776 30.5383 117.776 30.9935C117.776 31.0962 117.787 31.1954 117.809 31.2908C117.831 31.3863 117.857 31.4817 117.886 31.5772L116.983 31.7534C116.939 31.6066 116.903 31.4597 116.873 31.3129C116.851 31.166 116.84 31.0229 116.84 30.8833C116.84 30.4354 116.98 30.0904 117.258 29.8481C117.538 29.6058 117.912 29.4847 118.382 29.4847C118.778 29.4847 119.094 29.5838 119.329 29.782C119.571 29.9729 119.755 30.2152 119.879 30.5089C120.276 30.2005 120.666 29.9546 121.047 29.771C121.429 29.5874 121.825 29.459 122.236 29.3855C122.655 29.3048 123.111 29.2644 123.602 29.2644C124.425 29.2644 125.111 29.4186 125.661 29.727C126.22 30.028 126.638 30.4538 126.917 31.0045C127.203 31.5478 127.346 32.1829 127.346 32.9098C127.346 33.5632 127.236 34.1249 127.016 34.5948C126.796 35.0574 126.495 35.4134 126.113 35.6631C125.732 35.9127 125.291 36.0375 124.791 36.0375C124.725 36.0375 124.648 36.0339 124.56 36.0265C124.472 36.0265 124.399 36.0191 124.34 36.0045L124.384 35.1344C124.428 35.1418 124.476 35.1491 124.527 35.1565C124.579 35.1565 124.63 35.1565 124.681 35.1565C125.1 35.1565 125.434 35.0537 125.683 34.8481C125.941 34.6425 126.124 34.3709 126.234 34.0331C126.344 33.6954 126.399 33.3283 126.399 32.9318C126.399 32.0434 126.143 31.3679 125.628 30.9054C125.115 30.4354 124.41 30.2005 123.514 30.2005C122.802 30.2005 122.178 30.2923 121.642 30.4759C121.113 30.6521 120.622 30.92 120.166 31.2798C120.328 31.2211 120.515 31.1733 120.727 31.1366C120.941 31.0926 121.176 31.0706 121.432 31.0706C122.395 31.0706 123.147 31.3055 123.69 31.7754C124.241 32.2453 124.516 32.9282 124.516 33.8239C124.516 34.2644 124.443 34.6572 124.296 35.0023C124.157 35.3473 123.948 35.6227 123.668 35.8283C123.389 36.0265 123.04 36.1256 122.622 36.1256ZM121.443 33.6587C121.443 34.1066 121.531 34.4663 121.708 34.738C121.884 35.0097 122.167 35.1455 122.556 35.1455C122.938 35.1455 123.205 35.0207 123.36 34.771C123.514 34.5213 123.591 34.2093 123.591 33.8349C123.591 33.2402 123.397 32.7702 123.007 32.4252C122.618 32.0801 122.027 31.9076 121.234 31.9076C120.831 31.9076 120.482 31.9296 120.188 31.9737C119.895 32.0103 119.597 32.0728 119.296 32.1609C119.113 32.3738 118.926 32.5978 118.734 32.8327C118.551 33.0676 118.371 33.3099 118.194 33.5596H118.558C118.543 33.6036 118.536 33.6513 118.536 33.7027C118.536 33.7468 118.536 33.7872 118.536 33.8239C118.536 34.235 118.61 34.5581 118.756 34.793C118.91 35.028 119.175 35.1455 119.549 35.1455C119.887 35.1455 120.148 35.0243 120.331 34.782C120.515 34.5397 120.606 34.1616 120.606 33.6477V33.5596H121.443V33.6587ZM131.538 36.1256C130.466 36.1256 129.625 35.8503 129.016 35.2996C128.414 34.7416 128.113 33.9597 128.113 32.9538C128.113 32.3591 128.223 31.8561 128.444 31.445C128.671 31.0265 128.998 30.6704 129.424 30.3767C129.857 30.0757 130.385 29.8004 131.01 29.5507C131.597 29.235 132.202 28.8789 132.827 28.4825C133.45 28.0786 134.067 27.6271 134.677 27.1278L135.294 27.8327C134.772 28.2658 134.259 28.644 133.752 28.967C133.245 29.2901 132.761 29.5581 132.298 29.771C132.856 29.8151 133.348 29.9619 133.774 30.2115C134.207 30.4612 134.541 30.8099 134.776 31.2578C135.018 31.6983 135.14 32.2343 135.14 32.8657C135.14 33.9156 134.82 34.7233 134.181 35.2886C133.543 35.8467 132.662 36.1256 131.538 36.1256ZM129.038 32.8877C129.038 33.5412 129.24 34.0808 129.644 34.5067C130.055 34.9252 130.69 35.1344 131.549 35.1344C132.158 35.1344 132.657 35.0353 133.047 34.8371C133.444 34.6389 133.737 34.3672 133.928 34.0221C134.119 33.6771 134.214 33.2842 134.214 32.8437C134.214 32.1095 133.979 31.5405 133.51 31.1366C133.047 30.7255 132.415 30.5199 131.615 30.5199C131.219 30.5199 130.844 30.5603 130.492 30.6411C129.926 30.9348 129.541 31.2724 129.336 31.6543C129.137 32.0287 129.038 32.4398 129.038 32.8877ZM139.666 36.1256C139.02 36.1256 138.433 36.0155 137.904 35.7952C137.375 35.5676 136.93 35.2042 136.571 34.7049C136.211 34.2057 135.958 33.5412 135.811 32.7115L136.692 32.5574C136.714 32.6895 136.743 32.8143 136.781 32.9318C136.825 32.9318 136.869 32.9318 136.913 32.9318C137.155 32.9318 137.39 32.8988 137.618 32.8327C137.845 32.7666 138.054 32.6344 138.245 32.4362C138.444 32.2306 138.612 31.9296 138.752 31.5331C138.715 31.1954 138.631 30.909 138.499 30.6741C138.373 30.4318 138.175 30.3107 137.904 30.3107C137.485 30.3107 137.276 30.5383 137.276 30.9935C137.276 31.0962 137.287 31.1954 137.309 31.2908C137.338 31.3863 137.364 31.4817 137.386 31.5772L136.483 31.7534C136.439 31.6066 136.402 31.4597 136.373 31.3129C136.351 31.166 136.34 31.0229 136.34 30.8833C136.34 30.4354 136.479 30.0904 136.759 29.8481C137.037 29.6058 137.415 29.4847 137.893 29.4847C138.289 29.4847 138.598 29.5801 138.818 29.771C139.045 29.9546 139.214 30.1895 139.325 30.4759C139.625 30.1455 140.007 29.8628 140.47 29.6278C140.933 29.3855 141.479 29.2644 142.111 29.2644C142.904 29.2644 143.571 29.4149 144.115 29.7159C144.666 30.0169 145.08 30.4354 145.36 30.9714C145.646 31.5075 145.789 32.1278 145.789 32.8327C145.789 33.5375 145.668 34.1286 145.426 34.6058C145.184 35.083 144.857 35.4428 144.446 35.6851C144.034 35.92 143.576 36.0375 143.069 36.0375C142.966 36.0375 142.874 36.0339 142.794 36.0265C142.712 36.0265 142.624 36.0229 142.529 36.0155L142.573 35.1344C142.618 35.1418 142.679 35.1491 142.761 35.1565C142.841 35.1565 142.9 35.1565 142.937 35.1565C143.399 35.1565 143.77 35.0537 144.049 34.8481C144.328 34.6425 144.53 34.3709 144.655 34.0331C144.78 33.6881 144.842 33.3026 144.842 32.8767C144.842 32.304 144.724 31.8195 144.49 31.423C144.254 31.0265 143.928 30.7255 143.51 30.5199C143.091 30.307 142.607 30.2005 142.056 30.2005C141.564 30.2005 141.142 30.285 140.789 30.4538C140.444 30.6154 140.146 30.8283 139.897 31.0926C140.029 31.0779 140.162 31.0706 140.294 31.0706C141.123 31.0706 141.754 31.2835 142.188 31.7093C142.629 32.1278 142.849 32.7189 142.849 33.4825C142.849 33.7982 142.797 34.1139 142.695 34.4296C142.591 34.738 142.419 35.0207 142.177 35.2776C141.941 35.5346 141.619 35.7402 141.208 35.8944C140.796 36.0485 140.283 36.1256 139.666 36.1256ZM140.051 31.9076C139.868 31.9076 139.699 31.9149 139.545 31.9296C139.397 32.3848 139.203 32.7446 138.961 33.0089C138.726 33.2658 138.447 33.4531 138.124 33.5706C137.808 33.6807 137.463 33.7431 137.089 33.7578C137.346 34.2497 137.687 34.6058 138.113 34.8261C138.546 35.039 139.071 35.1455 139.688 35.1455C140.415 35.1455 140.969 34.9913 141.351 34.6829C141.732 34.3745 141.924 33.9524 141.924 33.4164C141.924 32.9098 141.759 32.5317 141.428 32.282C141.098 32.0324 140.639 31.9076 140.051 31.9076ZM143.774 30.2446V27.0177C143.774 26.8561 143.766 26.7277 143.752 26.6322C143.737 26.5295 143.711 26.445 143.675 26.3789C143.587 26.2174 143.433 26.0962 143.212 26.0155L143.543 25.2666C143.917 25.3694 144.159 25.5493 144.27 25.8062C144.35 25.6447 144.464 25.5163 144.611 25.4208C144.765 25.318 144.952 25.2666 145.173 25.2666C145.466 25.2666 145.705 25.3583 145.888 25.5419C146.079 25.7181 146.175 25.9788 146.175 26.3239C146.175 26.6763 146.071 26.948 145.866 27.1388C145.661 27.3297 145.36 27.4252 144.963 27.4252C144.846 27.4252 144.732 27.4178 144.622 27.4032V30.2446H143.774ZM144.622 26.5662V26.7203C144.717 26.735 144.813 26.7424 144.908 26.7424C145.283 26.7424 145.47 26.6028 145.47 26.3239C145.47 26.1991 145.433 26.1072 145.36 26.0485C145.286 25.9825 145.198 25.9494 145.096 25.9494C144.904 25.9494 144.776 26.0045 144.71 26.1146C144.651 26.2248 144.622 26.3753 144.622 26.5662ZM150.313 36.1256C149.667 36.1256 149.08 36.0155 148.551 35.7952C148.022 35.5676 147.579 35.2042 147.219 34.7049C146.858 34.2057 146.605 33.5412 146.459 32.7115L147.34 32.5574C147.362 32.6895 147.391 32.8143 147.428 32.9318C147.472 32.9318 147.516 32.9318 147.56 32.9318C147.802 32.9318 148.037 32.8988 148.265 32.8327C148.493 32.7666 148.702 32.6344 148.893 32.4362C149.091 32.2306 149.259 31.9296 149.399 31.5331C149.363 31.1954 149.278 30.909 149.146 30.6741C149.021 30.4318 148.823 30.3107 148.551 30.3107C148.133 30.3107 147.923 30.5383 147.923 30.9935C147.923 31.0962 147.934 31.1954 147.956 31.2908C147.986 31.3863 148.011 31.4817 148.034 31.5772L147.13 31.7534C147.086 31.6066 147.05 31.4597 147.02 31.3129C146.998 31.166 146.987 31.0229 146.987 30.8833C146.987 30.4354 147.127 30.0904 147.406 29.8481C147.684 29.6058 148.063 29.4847 148.54 29.4847C148.937 29.4847 149.245 29.5801 149.465 29.771C149.693 29.9546 149.862 30.1895 149.972 30.4759C150.273 30.1455 150.655 29.8628 151.117 29.6278C151.58 29.3855 152.127 29.2644 152.758 29.2644C153.551 29.2644 154.22 29.4149 154.763 29.7159C155.313 30.0169 155.728 30.4354 156.007 30.9714C156.293 31.5075 156.437 32.1278 156.437 32.8327C156.437 33.5375 156.315 34.1286 156.073 34.6058C155.831 35.083 155.504 35.4428 155.093 35.6851C154.682 35.92 154.223 36.0375 153.716 36.0375C153.614 36.0375 153.521 36.0339 153.441 36.0265C153.361 36.0265 153.272 36.0229 153.177 36.0155L153.221 35.1344C153.265 35.1418 153.327 35.1491 153.408 35.1565C153.488 35.1565 153.548 35.1565 153.584 35.1565C154.047 35.1565 154.418 35.0537 154.696 34.8481C154.975 34.6425 155.178 34.3709 155.302 34.0331C155.427 33.6881 155.489 33.3026 155.489 32.8767C155.489 32.304 155.372 31.8195 155.137 31.423C154.902 31.0265 154.575 30.7255 154.157 30.5199C153.738 30.307 153.254 30.2005 152.703 30.2005C152.211 30.2005 151.789 30.285 151.437 30.4538C151.092 30.6154 150.794 30.8283 150.545 31.0926C150.677 31.0779 150.809 31.0706 150.941 31.0706C151.77 31.0706 152.402 31.2835 152.835 31.7093C153.276 32.1278 153.496 32.7189 153.496 33.4825C153.496 33.7982 153.444 34.1139 153.342 34.4296C153.239 34.738 153.067 35.0207 152.824 35.2776C152.59 35.5346 152.266 35.7402 151.855 35.8944C151.444 36.0485 150.93 36.1256 150.313 36.1256ZM150.699 31.9076C150.515 31.9076 150.346 31.9149 150.192 31.9296C150.046 32.3848 149.851 32.7446 149.608 33.0089C149.374 33.2658 149.094 33.4531 148.771 33.5706C148.455 33.6807 148.111 33.7431 147.736 33.7578C147.993 34.2497 148.334 34.6058 148.76 34.8261C149.193 35.039 149.719 35.1455 150.335 35.1455C151.062 35.1455 151.616 34.9913 151.998 34.6829C152.38 34.3745 152.571 33.9524 152.571 33.4164C152.571 32.9098 152.406 32.5317 152.075 32.282C151.745 32.0324 151.286 31.9076 150.699 31.9076Z" fill="white"/>
</g>
<defs>
<clipPath id="clip0_568_834">
<rect width="173.67" height="46.5944" fill="white"/>
</clipPath>
</defs>
</svg>
