<svg width="174" height="47" viewBox="0 0 174 47" fill="none" xmlns="http://www.w3.org/2000/svg">
<g clip-path="url(#clip0_568_529)">
<path d="M150.259 0.425781H23.4115C10.7168 0.425781 0.425781 10.7168 0.425781 23.4115C0.425781 36.1062 10.7168 46.3972 23.4115 46.3972H150.259C162.953 46.3972 173.244 36.1062 173.244 23.4115C173.244 10.7168 162.953 0.425781 150.259 0.425781Z" fill="#1F1F1F"/>
<path d="M48.5266 20.2538H17.8789V15.4477C17.8789 12.8387 20.1283 10.6416 22.7994 10.6416H43.6061C46.2772 10.6416 48.5266 12.8387 48.5266 15.4477V20.2538Z" fill="#34A853"/>
<path d="M48.5266 24.6885H17.8789V19.5806C17.8789 16.8078 20.1283 14.4727 22.7994 14.4727H43.6061C46.2772 14.4727 48.5266 16.8078 48.5266 19.5806V24.6885Z" fill="#FBBC04"/>
<path d="M48.5266 28.9454H17.8789V23.8374C17.8789 21.0646 20.1283 18.7295 22.7994 18.7295H43.6061C46.2772 18.7295 48.5266 21.0646 48.5266 23.8374V28.9454Z" fill="#EA4335"/>
<path d="M17.8789 21.4885L37.3311 25.8827C39.5702 26.432 42.0892 25.8827 43.9084 24.5095L48.5266 21.2139V31.5127C48.5266 34.1217 46.2875 36.1815 43.6285 36.1815H22.7769C20.118 36.1815 17.8789 34.1217 17.8789 31.5127V21.4885Z" fill="url(#paint0_linear_568_529)"/>
<path d="M63.3885 18.4804C62.8204 18.4804 62.2854 18.3772 61.7837 18.1705C61.2894 17.9639 60.8504 17.6762 60.4667 17.3073C60.0831 16.931 59.7806 16.492 59.5592 15.9903C59.3453 15.4812 59.2383 14.9315 59.2383 14.3413C59.2383 13.7511 59.3453 13.205 59.5592 12.7033C59.7806 12.1942 60.0794 11.7552 60.4557 11.3863C60.8394 11.0101 61.2821 10.7186 61.7837 10.512C62.2854 10.3054 62.8204 10.2021 63.3885 10.2021C63.9935 10.2021 64.5505 10.3092 65.0596 10.5231C65.5761 10.737 66.0078 11.0358 66.3545 11.4195L65.5134 12.2496C65.2552 11.9618 64.9453 11.7405 64.5837 11.5855C64.2296 11.4306 63.8312 11.3531 63.3885 11.3531C62.8647 11.3531 62.3814 11.4785 61.9387 11.7294C61.496 11.9729 61.1382 12.3196 60.8652 12.7697C60.5996 13.2124 60.4667 13.7362 60.4667 14.3413C60.4667 14.9463 60.6032 15.4738 60.8762 15.9239C61.1493 16.3666 61.5071 16.7133 61.9497 16.9642C62.3924 17.2077 62.8757 17.3294 63.3996 17.3294C63.8791 17.3294 64.3145 17.2409 64.7055 17.0638C65.0965 16.8793 65.4101 16.6211 65.6462 16.2891C65.8897 15.9571 66.0372 15.5587 66.0889 15.0939H63.3774V14.0203H67.2288C67.2731 14.2195 67.2952 14.4298 67.2952 14.6512V14.6622C67.2952 15.4295 67.1255 16.101 66.7861 16.6765C66.4541 17.2446 65.9929 17.6872 65.4027 18.0045C64.8125 18.3218 64.1411 18.4804 63.3885 18.4804ZM70.8588 18.4804C70.2759 18.4804 69.7631 18.3476 69.3204 18.082C68.8777 17.8164 68.531 17.4586 68.2801 17.0085C68.0292 16.5584 67.9038 16.0493 67.9038 15.4812C67.9038 14.9204 68.0292 14.4151 68.2801 13.965C68.531 13.5076 68.8777 13.146 69.3204 12.8804C69.7631 12.6148 70.2759 12.482 70.8588 12.482C71.4343 12.482 71.9434 12.6148 72.386 12.8804C72.8287 13.146 73.1755 13.5076 73.4264 13.965C73.6772 14.4151 73.8026 14.9204 73.8026 15.4812C73.8026 16.0493 73.6772 16.5584 73.4264 17.0085C73.1755 17.4586 72.8287 17.8164 72.386 18.082C71.9434 18.3476 71.4343 18.4804 70.8588 18.4804ZM70.8588 17.3848C71.1686 17.3848 71.4564 17.311 71.722 17.1634C71.9876 17.0085 72.2016 16.7908 72.3639 16.5105C72.5336 16.2227 72.6185 15.8796 72.6185 15.4812C72.6185 15.0828 72.5336 14.7434 72.3639 14.463C72.2016 14.1753 71.9876 13.9576 71.722 13.8101C71.4564 13.6551 71.1686 13.5776 70.8588 13.5776C70.5489 13.5776 70.2575 13.6551 69.9845 13.8101C69.7188 13.9576 69.5012 14.1753 69.3315 14.463C69.1691 14.7434 69.088 15.0828 69.088 15.4812C69.088 15.8796 69.1691 16.2227 69.3315 16.5105C69.5012 16.7908 69.7188 17.0085 69.9845 17.1634C70.2575 17.311 70.5489 17.3848 70.8588 17.3848ZM77.5596 18.4804C76.9767 18.4804 76.464 18.3476 76.0213 18.082C75.5786 17.8164 75.2318 17.4586 74.981 17.0085C74.7301 16.5584 74.6047 16.0493 74.6047 15.4812C74.6047 14.9204 74.7301 14.4151 74.981 13.965C75.2318 13.5076 75.5786 13.146 76.0213 12.8804C76.464 12.6148 76.9767 12.482 77.5596 12.482C78.1351 12.482 78.6442 12.6148 79.0869 12.8804C79.5296 13.146 79.8763 13.5076 80.1272 13.965C80.3781 14.4151 80.5035 14.9204 80.5035 15.4812C80.5035 16.0493 80.3781 16.5584 80.1272 17.0085C79.8763 17.4586 79.5296 17.8164 79.0869 18.082C78.6442 18.3476 78.1351 18.4804 77.5596 18.4804ZM77.5596 17.3848C77.8695 17.3848 78.1572 17.311 78.4229 17.1634C78.6885 17.0085 78.9024 16.7908 79.0648 16.5105C79.2344 16.2227 79.3193 15.8796 79.3193 15.4812C79.3193 15.0828 79.2344 14.7434 79.0648 14.463C78.9024 14.1753 78.6885 13.9576 78.4229 13.8101C78.1572 13.6551 77.8695 13.5776 77.5596 13.5776C77.2497 13.5776 76.9583 13.6551 76.6853 13.8101C76.4197 13.9576 76.202 14.1753 76.0323 14.463C75.87 14.7434 75.7889 15.0828 75.7889 15.4812C75.7889 15.8796 75.87 16.2227 76.0323 16.5105C76.202 16.7908 76.4197 17.0085 76.6853 17.1634C76.9583 17.311 77.2497 17.3848 77.5596 17.3848ZM84.1498 20.8709C83.6554 20.8709 83.2276 20.7898 82.866 20.6275C82.5119 20.4725 82.2241 20.2696 82.0028 20.0188C81.7814 19.7753 81.6228 19.5244 81.5269 19.2662L82.6336 18.8014C82.7517 19.0965 82.9398 19.3363 83.198 19.5207C83.4636 19.7125 83.7809 19.8085 84.1498 19.8085C84.6663 19.8085 85.072 19.6535 85.3671 19.3437C85.6693 19.0338 85.8209 18.5948 85.8209 18.0267V17.4844H85.7545C85.5774 17.75 85.3305 17.9639 85.013 18.1263C84.7032 18.2812 84.349 18.3587 83.9506 18.3587C83.471 18.3587 83.032 18.2369 82.6336 17.9935C82.2352 17.75 81.9142 17.4106 81.6707 16.9753C81.4273 16.5326 81.3055 16.0161 81.3055 15.4259C81.3055 14.8282 81.4273 14.3117 81.6707 13.8765C81.9142 13.4338 82.2352 13.0907 82.6336 12.8472C83.032 12.6037 83.471 12.482 83.9506 12.482C84.349 12.482 84.7032 12.5631 85.013 12.7255C85.3305 12.8878 85.5774 13.1018 85.7545 13.3674H85.8209V12.6591H86.9608V18.0045C86.9608 18.6169 86.839 19.137 86.5956 19.565C86.3598 19.993 86.0311 20.3176 85.6106 20.5389C85.19 20.7603 84.7032 20.8709 84.1498 20.8709ZM84.1609 17.2741C84.456 17.2741 84.729 17.204 84.9798 17.0638C85.2309 16.9163 85.4335 16.706 85.5885 16.433C85.7434 16.1526 85.8209 15.8169 85.8209 15.4259C85.8209 15.02 85.7434 14.6807 85.5885 14.4077C85.4335 14.1273 85.2309 13.9171 84.9798 13.7769C84.729 13.6366 84.456 13.5666 84.1609 13.5666C83.8657 13.5666 83.589 13.6404 83.3308 13.7879C83.0799 13.9281 82.8771 14.1347 82.7221 14.4077C82.5672 14.6807 82.4897 15.02 82.4897 15.4259C82.4897 15.8243 82.5672 16.1637 82.7221 16.4441C82.8771 16.7171 83.0799 16.9236 83.3308 17.0638C83.589 17.204 83.8657 17.2741 84.1609 17.2741ZM88.3706 18.3033V10.3792H89.5658V18.3033H88.3706ZM93.499 18.4804C92.9456 18.4804 92.4518 18.3513 92.0159 18.0931C91.5809 17.8349 91.2378 17.4807 90.9867 17.0306C90.7432 16.5805 90.6215 16.0678 90.6215 15.4923C90.6215 14.9536 90.7398 14.4556 90.9756 13.9982C91.2123 13.5408 91.5401 13.1756 91.9606 12.9025C92.3888 12.6222 92.8792 12.482 93.4325 12.482C94.0157 12.482 94.5103 12.6074 94.9155 12.8583C95.3293 13.1092 95.6426 13.4522 95.8563 13.8875C96.0708 14.3228 96.1772 14.8135 96.1772 15.3595C96.1772 15.4406 96.1738 15.5144 96.1661 15.5808C96.1661 15.6472 96.1627 15.6989 96.1551 15.7358H91.7946C91.8542 16.2965 92.0491 16.7171 92.3812 16.9974C92.7208 17.2778 93.1048 17.418 93.5321 17.418C93.9161 17.418 94.2336 17.3331 94.4839 17.1634C94.7351 16.9863 94.9343 16.7687 95.0816 16.5105L96.0665 16.9863C95.8231 17.429 95.491 17.7906 95.0705 18.0709C94.6499 18.344 94.1264 18.4804 93.499 18.4804ZM93.4436 13.5002C93.0452 13.5002 92.7064 13.6219 92.4254 13.8654C92.1453 14.1089 91.9572 14.4335 91.861 14.8393H94.993C94.9785 14.6475 94.9156 14.4483 94.8049 14.2417C94.6942 14.0351 94.5248 13.8617 94.2958 13.7215C94.0744 13.574 93.791 13.5002 93.4436 13.5002ZM102.526 18.4804C101.98 18.4804 101.504 18.3587 101.098 18.1152C100.692 17.8717 100.375 17.536 100.146 17.1081C99.9171 16.6728 99.803 16.1748 99.803 15.614V10.3792H100.998V15.6361C100.998 16.1674 101.146 16.5953 101.441 16.9199C101.736 17.2372 102.094 17.3958 102.514 17.3958C102.824 17.3958 103.098 17.3294 103.333 17.1966C103.569 17.0638 103.754 16.8867 103.887 16.6654C104.02 16.4441 104.086 16.1969 104.086 15.9239C104.086 15.5993 103.986 15.2857 103.787 14.9832L103.477 14.5073C103.322 14.2785 103.204 14.0425 103.123 13.799C103.042 13.5555 103.005 13.2678 103.012 12.9357H104.208C104.2 13.1202 104.222 13.301 104.274 13.478C104.333 13.6551 104.415 13.8211 104.518 13.9761L104.85 14.4741C104.99 14.6733 105.093 14.8946 105.16 15.1381C105.234 15.3742 105.27 15.6287 105.27 15.9018C105.27 16.3666 105.156 16.7945 104.927 17.1856C104.706 17.5766 104.388 17.8902 103.975 18.1263C103.562 18.3623 103.079 18.4804 102.526 18.4804ZM108.523 18.4804C108.051 18.4804 107.619 18.3845 107.228 18.1927C106.844 18.0009 106.539 17.7353 106.31 17.3958C106.088 17.0491 105.978 16.6433 105.978 16.1784C105.978 16.0604 105.985 15.9424 106 15.8243C106.022 15.6989 106.052 15.5808 106.088 15.4701L107.217 15.6472C107.187 15.8169 107.173 15.9645 107.173 16.0899C107.173 16.5105 107.302 16.8351 107.56 17.0638C107.818 17.2926 108.136 17.4069 108.512 17.4069C108.903 17.4069 109.224 17.2962 109.475 17.0749C109.733 16.8461 109.862 16.5511 109.862 16.1895C109.862 15.9829 109.821 15.8058 109.74 15.6583C109.666 15.5033 109.574 15.3742 109.464 15.2709C109.361 15.1603 109.272 15.0717 109.198 15.0053L108.733 14.6401C108.52 14.4704 108.327 14.2527 108.158 13.9871C107.995 13.7141 107.914 13.3637 107.914 12.9357H109.11C109.11 13.1718 109.168 13.371 109.287 13.5334C109.412 13.6957 109.552 13.8433 109.707 13.9761L110.183 14.3745C110.412 14.5663 110.611 14.8024 110.781 15.0828C110.958 15.3558 111.046 15.7321 111.046 16.2116C111.046 16.6543 110.936 17.0453 110.714 17.3848C110.493 17.7242 110.191 17.9935 109.807 18.1927C109.431 18.3845 109.002 18.4804 108.523 18.4804ZM116.885 20.8709C116.28 20.8709 115.741 20.7824 115.269 20.6053C114.804 20.4282 114.443 20.17 114.184 19.8306C113.934 19.4912 113.827 19.0855 113.863 18.6132L115.081 18.6686C115.074 18.9194 115.152 19.1297 115.313 19.2994C115.476 19.4765 115.697 19.6093 115.977 19.6978C116.258 19.7863 116.572 19.8306 116.918 19.8306C117.465 19.8306 117.9 19.7052 118.224 19.4543C118.549 19.2034 118.711 18.8936 118.711 18.5247C118.711 18.2001 118.6 17.9307 118.379 17.7168C118.165 17.5028 117.881 17.3922 117.527 17.3848L117.383 17.3737V16.3112H117.704C118.066 16.3112 118.353 16.208 118.567 16.0014C118.788 15.7874 118.899 15.4849 118.899 15.0939C118.899 14.688 118.799 14.3781 118.6 14.1642C118.409 13.9503 118.154 13.8433 117.837 13.8433C117.527 13.8433 117.276 13.9465 117.084 14.1531C116.892 14.3524 116.796 14.6512 116.796 15.0496V15.4812C116.796 15.9239 116.69 16.326 116.475 16.6875C116.269 17.0417 115.977 17.3258 115.601 17.5397C115.225 17.7463 114.793 17.8496 114.306 17.8496C113.812 17.8496 113.376 17.7426 113 17.5286C112.624 17.3147 112.329 17.0159 112.115 16.6322C111.909 16.2485 111.805 15.8096 111.805 15.3152C111.805 14.8208 111.909 14.3819 112.115 13.9982C112.329 13.6072 112.621 13.3046 112.989 13.0907C113.365 12.8693 113.797 12.7587 114.284 12.7587C114.69 12.7587 115.059 12.8472 115.391 13.0243C115.73 13.194 115.982 13.4338 116.143 13.7437H116.177C116.325 13.4338 116.546 13.194 116.841 13.0243C117.144 12.8472 117.501 12.7587 117.914 12.7587C118.328 12.7587 118.696 12.8472 119.021 13.0243C119.353 13.194 119.615 13.4448 119.807 13.7769C119.999 14.1015 120.094 14.4962 120.094 14.961C120.094 15.507 119.973 15.9313 119.729 16.2338C119.486 16.5363 119.198 16.7429 118.866 16.8535V16.9199C119.198 17.038 119.452 17.2446 119.629 17.5397C119.807 17.8275 119.895 18.1631 119.895 18.5468C119.895 18.9969 119.773 19.3953 119.53 19.7421C119.286 20.0962 118.94 20.3729 118.49 20.5721C118.04 20.7713 117.505 20.8709 116.885 20.8709ZM114.306 16.7871C114.69 16.7871 115.008 16.6543 115.258 16.3887C115.509 16.1231 115.634 15.7653 115.634 15.3152C115.634 14.8578 115.509 14.4962 115.258 14.2306C115.008 13.965 114.69 13.8322 114.306 13.8322C113.915 13.8322 113.594 13.965 113.343 14.2306C113.093 14.4962 112.967 14.8578 112.967 15.3152C112.967 15.7653 113.093 16.1231 113.343 16.3887C113.602 16.6543 113.923 16.7871 114.306 16.7871ZM123.573 20.8709C123.056 20.8709 122.595 20.7603 122.189 20.5389C121.783 20.3176 121.467 20.0114 121.238 19.6203C121.009 19.2366 120.895 18.7977 120.895 18.3033C120.895 17.9566 120.961 17.6061 121.094 17.252L122.2 17.4954C122.12 17.7536 122.079 18.0045 122.079 18.248C122.079 18.6686 122.208 19.0264 122.466 19.3215C122.732 19.624 123.1 19.7753 123.573 19.7753C124.001 19.7753 124.362 19.6314 124.657 19.3437C124.953 19.0559 125.1 18.6538 125.1 18.1373V14.6512C125.1 14.4003 125.03 14.2011 124.89 14.0535C124.757 13.8986 124.565 13.8211 124.314 13.8211C124.063 13.8211 123.872 13.8986 123.739 14.0535C123.614 14.2011 123.551 14.4003 123.551 14.6512V16.0124H122.378V14.7176C122.378 14.452 122.303 14.2564 122.156 14.131C122.016 14.0056 121.828 13.9429 121.592 13.9429H120.895V12.8251H121.691C121.971 12.8251 122.223 12.8804 122.444 12.9911C122.665 13.1018 122.831 13.2714 122.942 13.5002H123.008C123.134 13.2714 123.322 13.0907 123.573 12.9579C123.824 12.8251 124.126 12.7587 124.48 12.7587C124.82 12.7587 125.122 12.8325 125.388 12.98C125.661 13.1202 125.875 13.3268 126.03 13.5998C126.192 13.8728 126.273 14.1974 126.273 14.5737V18.0931C126.273 18.639 126.159 19.1187 125.93 19.5318C125.709 19.9524 125.395 20.2807 124.989 20.5168C124.583 20.7529 124.112 20.8709 123.573 20.8709ZM133.48 20.6939C133.458 20.4061 133.336 20.1626 133.114 19.9634C132.901 19.7716 132.616 19.624 132.262 19.5207C131.916 19.4175 131.528 19.3658 131.1 19.3658C130.761 19.3658 130.414 19.4064 130.06 19.4875C129.706 19.5761 129.37 19.7015 129.053 19.8638L128.61 19.067C128.942 18.8825 129.256 18.7571 129.551 18.6907V18.6243C129.123 18.4915 128.736 18.2886 128.389 18.0156C128.05 17.7353 127.78 17.3811 127.581 16.9531C127.382 16.5179 127.279 16.0088 127.271 15.4259C127.264 14.8356 127.356 14.3449 127.548 13.9539C127.747 13.5555 128.006 13.2567 128.322 13.0575C128.648 12.8583 129.002 12.7587 129.385 12.7587C129.673 12.7587 129.965 12.8361 130.259 12.9911C130.562 13.1386 130.795 13.3969 130.956 13.7658H131.023C131.163 13.4116 131.366 13.1571 131.631 13.0022C131.905 12.8398 132.207 12.7587 132.539 12.7587C132.871 12.7587 133.174 12.8398 133.446 13.0022C133.72 13.1571 133.922 13.4116 134.055 13.7658H134.122C134.277 13.4116 134.494 13.1571 134.775 13.0022C135.055 12.8398 135.361 12.7587 135.693 12.7587C136.077 12.7587 136.428 12.8583 136.744 13.0575C137.07 13.2567 137.328 13.5555 137.519 13.9539C137.712 14.3449 137.807 14.8319 137.807 15.4148C137.807 15.9018 137.745 16.3666 137.619 16.8093C137.501 17.252 137.35 17.643 137.165 17.9824L136.036 17.7278C136.221 17.359 136.365 16.9863 136.468 16.6101C136.572 16.2338 136.623 15.8428 136.623 15.4369C136.623 14.9574 136.527 14.5774 136.335 14.297C136.151 14.0093 135.908 13.8654 135.605 13.8654C135.317 13.8654 135.084 13.9687 134.907 14.1753C134.738 14.3819 134.653 14.7065 134.653 15.1492V16.7207H133.48V15.0385C133.48 14.6548 133.388 14.3634 133.203 14.1642C133.026 13.965 132.805 13.8654 132.539 13.8654C132.259 13.8654 132.026 13.965 131.842 14.1642C131.665 14.3634 131.576 14.6548 131.576 15.0385V16.7207H130.392V15.1492C130.392 14.7212 130.303 14.4003 130.126 14.1863C129.957 13.9724 129.739 13.8654 129.473 13.8654C129.157 13.8654 128.905 14.0019 128.721 14.2749C128.544 14.5479 128.455 14.9389 128.455 15.448C128.463 16.9606 129.323 17.8754 131.034 18.1927L132.218 18.414C132.926 18.5468 133.495 18.8088 133.922 19.1998C134.351 19.5908 134.597 20.0888 134.664 20.6939H133.48ZM141.254 20.8709C140.737 20.8709 140.276 20.7603 139.871 20.5389C139.464 20.3176 139.147 20.0114 138.919 19.6203C138.69 19.2366 138.576 18.7977 138.576 18.3033C138.576 17.9566 138.642 17.6061 138.775 17.252L139.882 17.4954C139.8 17.7536 139.76 18.0045 139.76 18.248C139.76 18.6686 139.888 19.0264 140.147 19.3215C140.413 19.624 140.781 19.7753 141.254 19.7753C141.681 19.7753 142.043 19.6314 142.339 19.3437C142.633 19.0559 142.781 18.6538 142.781 18.1373V15.282C142.781 14.8393 142.644 14.4926 142.372 14.2417C142.098 13.9835 141.752 13.8543 141.331 13.8543C141.088 13.8543 140.856 13.906 140.634 14.0093C140.42 14.1125 140.247 14.2602 140.114 14.452C139.981 14.6438 139.915 14.8762 139.915 15.1492C139.915 15.2967 139.933 15.448 139.97 15.6029L138.819 15.7468C138.767 15.5329 138.742 15.3078 138.742 15.0717C138.742 14.6069 138.856 14.2011 139.085 13.8543C139.321 13.5076 139.634 13.2382 140.025 13.0464C140.416 12.8546 140.851 12.7587 141.331 12.7587C141.847 12.7587 142.301 12.8619 142.693 13.0686C143.091 13.2752 143.401 13.574 143.622 13.965C143.844 14.3487 143.954 14.8061 143.954 15.3373V18.0931C143.954 18.639 143.839 19.1187 143.611 19.5318C143.382 19.9524 143.065 20.2807 142.659 20.5168C142.261 20.7529 141.792 20.8709 141.254 20.8709ZM147.808 18.4804C147.24 18.4804 146.746 18.355 146.325 18.1041C145.912 17.8459 145.591 17.5028 145.362 17.0749C145.133 16.6469 145.019 16.1784 145.019 15.6693C145.019 15.1455 145.13 14.6733 145.351 14.2527C145.573 13.8322 145.879 13.5002 146.27 13.2567C146.661 13.0058 147.108 12.8804 147.609 12.8804C148.008 12.8804 148.347 12.969 148.627 13.146C148.915 13.3231 149.144 13.526 149.313 13.7547H149.38L149.336 13.1571V12.1057C149.336 11.8622 149.269 11.663 149.136 11.5081C149.004 11.3457 148.804 11.2646 148.539 11.2646C148.288 11.2646 148.096 11.3384 147.963 11.4859C147.838 11.6262 147.775 11.8032 147.775 12.0172V12.3049H146.602V12.0393C146.602 11.7811 146.528 11.593 146.381 11.4749C146.24 11.3568 146.052 11.2978 145.816 11.2978C145.639 11.2978 145.488 11.3163 145.362 11.3531C145.237 11.3827 145.127 11.4159 145.03 11.4527V10.3239C145.133 10.2943 145.259 10.2686 145.407 10.2464C145.554 10.2169 145.728 10.2021 145.927 10.2021C146.207 10.2021 146.455 10.2649 146.668 10.3903C146.89 10.5084 147.067 10.6891 147.2 10.9326H147.266C147.399 10.7038 147.587 10.5268 147.83 10.4014C148.082 10.2686 148.387 10.2021 148.749 10.2021C149.073 10.2021 149.369 10.276 149.634 10.4235C149.9 10.571 150.11 10.7813 150.265 11.0543C150.428 11.3273 150.509 11.652 150.509 12.0282V15.6029C150.509 16.1342 150.395 16.6175 150.166 17.0527C149.937 17.488 149.62 17.8349 149.214 18.0931C148.808 18.3513 148.34 18.4804 147.808 18.4804ZM147.797 17.3848C148.085 17.3848 148.351 17.3147 148.594 17.1745C148.838 17.0343 149.033 16.8351 149.181 16.5769C149.328 16.3187 149.402 16.0161 149.402 15.6693C149.402 15.3226 149.324 15.0238 149.17 14.7729C149.022 14.5147 148.826 14.3155 148.583 14.1753C148.347 14.0351 148.088 13.965 147.808 13.965C147.521 13.965 147.255 14.0351 147.011 14.1753C146.768 14.3155 146.572 14.5147 146.425 14.7729C146.278 15.0238 146.204 15.3226 146.204 15.6693C146.204 16.0161 146.278 16.3187 146.425 16.5769C146.572 16.8277 146.768 17.027 147.011 17.1745C147.255 17.3147 147.517 17.3848 147.797 17.3848ZM152.155 18.3033C151.986 17.9639 151.834 17.5618 151.701 17.097C151.569 16.6248 151.502 16.1231 151.502 15.5919C151.502 15.0238 151.613 14.5294 151.834 14.1089C152.063 13.6809 152.376 13.3489 152.775 13.1128C153.181 12.8768 153.657 12.7587 154.203 12.7587C154.741 12.7587 155.213 12.8768 155.619 13.1128C156.032 13.3489 156.353 13.6809 156.582 14.1089C156.811 14.5294 156.925 15.0238 156.925 15.5919C156.925 16.1231 156.859 16.6248 156.726 17.097C156.593 17.5618 156.442 17.9639 156.272 18.3033H155.044C155.273 17.8532 155.446 17.4106 155.564 16.9753C155.689 16.5326 155.752 16.0752 155.752 15.6029C155.752 15.0349 155.6 14.5995 155.298 14.297C154.996 13.9945 154.631 13.8433 154.203 13.8433C153.782 13.8433 153.428 13.9945 153.14 14.297C152.852 14.5922 152.705 15.0274 152.697 15.6029C152.69 16.0678 152.742 16.5215 152.852 16.9642C152.971 17.3995 153.148 17.8459 153.384 18.3033H152.155Z" fill="white"/>
<path d="M66.0082 38.4563C65.9599 38.0028 65.7188 37.6458 65.2846 37.3853C64.8504 37.1344 64.3342 37.009 63.736 37.009C63.3018 37.009 62.8966 37.062 62.5203 37.1682C62.144 37.284 61.7581 37.448 61.3625 37.6603L60.7836 36.6183C61.2371 36.3674 61.6713 36.2034 62.0862 36.1262V36.0394C61.5651 35.8367 61.0924 35.528 60.6679 35.1131C60.253 34.6983 59.9201 34.2013 59.6692 33.6224C59.4184 33.0339 59.293 32.3971 59.293 31.7121C59.293 30.9402 59.4232 30.2841 59.6837 29.7438C59.9539 29.1939 60.3109 28.779 60.7547 28.4992C61.1985 28.2193 61.6905 28.0795 62.2309 28.0795C62.7229 28.0795 63.1667 28.2001 63.5624 28.4413C63.958 28.6728 64.257 29.0153 64.4596 29.4688H64.532C64.7732 29.0153 65.1158 28.6728 65.5596 28.4413C66.0131 28.2001 66.5292 28.0795 67.1081 28.0795C67.7642 28.0795 68.3431 28.2338 68.8448 28.5426C69.3465 28.8417 69.7373 29.2566 70.0171 29.7872C70.2969 30.3082 70.4368 30.9112 70.4368 31.5963C70.4368 32.2814 70.2969 32.8892 70.0171 33.4198C69.7373 33.9408 69.3417 34.3557 68.8303 34.6645C68.3287 34.9635 67.7449 35.1131 67.0792 35.1131C66.4134 35.1131 65.8249 34.9635 65.3135 34.6645C64.8021 34.3654 64.4018 33.9602 64.1123 33.4488C63.8229 32.9278 63.6781 32.3392 63.6781 31.6831V31.2779C63.6781 30.6894 63.5527 30.2504 63.3019 29.9609C63.051 29.6618 62.7326 29.5123 62.3467 29.5123C61.8932 29.5123 61.5266 29.7004 61.2468 30.0767C60.9766 30.453 60.8415 30.9981 60.8415 31.7121C60.8415 32.7058 61.1261 33.5405 61.6954 34.2158C62.2743 34.8912 63.051 35.3543 64.0255 35.6052L64.9662 35.8512C65.767 36.0538 66.3796 36.3771 66.8042 36.8209C67.2384 37.2647 67.4892 37.8098 67.5568 38.4563H66.0082ZM67.0647 33.6948C67.5761 33.6948 68.0103 33.5115 68.3672 33.1448C68.7339 32.7686 68.9172 32.2524 68.9172 31.5963C68.9172 30.9402 68.7339 30.4289 68.3672 30.0622C68.0103 29.6859 67.5761 29.4978 67.0647 29.4978C66.5533 29.4978 66.1144 29.6859 65.7477 30.0622C65.381 30.4289 65.1977 30.9402 65.1977 31.5963C65.1977 32.2524 65.381 32.7686 65.7477 33.1448C66.1144 33.5115 66.5533 33.6948 67.0647 33.6948ZM74.6881 35.5618C74.0706 35.5618 73.5062 35.4364 72.9948 35.1855C72.4931 34.9346 72.0927 34.5872 71.7936 34.1435C71.5042 33.69 71.3595 33.1593 71.3595 32.5515C71.3595 32.3971 71.3691 32.2427 71.3884 32.0884C71.4173 31.9243 71.4559 31.77 71.5042 31.6252L72.9804 31.8568C72.9417 32.0787 72.9225 32.2716 72.9225 32.4357C72.9225 32.9857 73.0913 33.4102 73.429 33.7093C73.7667 34.0083 74.1816 34.1579 74.6736 34.1579C75.185 34.1579 75.6047 34.0132 75.9328 33.7238C76.2704 33.4247 76.4393 33.0387 76.4393 32.5659C76.4393 32.2958 76.3862 32.0643 76.2801 31.8713C76.1836 31.6687 76.063 31.4998 75.9183 31.3647C75.7832 31.22 75.6674 31.1042 75.571 31.0174L74.9631 30.5398C74.6833 30.3179 74.4324 30.0333 74.2105 29.6859C73.9982 29.329 73.8921 28.8706 73.8921 28.311H75.4552C75.4552 28.6198 75.5323 28.8803 75.6867 29.0926C75.8507 29.3048 76.0341 29.4978 76.2367 29.6715L76.859 30.1925C77.1581 30.4433 77.4186 30.752 77.6405 31.1187C77.8721 31.4757 77.9879 31.9677 77.9879 32.5949C77.9879 33.1738 77.8431 33.6852 77.5537 34.129C77.2642 34.5728 76.8686 34.925 76.3669 35.1855C75.8749 35.4364 75.3152 35.5618 74.6881 35.5618ZM82.685 35.5618C81.942 35.5618 81.2956 35.3929 80.7456 35.0552C80.2053 34.7175 79.7856 34.2689 79.4865 33.7093C79.1874 33.14 79.0379 32.5081 79.0379 31.8134C79.0379 31.1091 79.1826 30.4771 79.4721 29.9175C79.7615 29.3482 80.1619 28.8996 80.6733 28.5715C81.1846 28.2435 81.7683 28.0795 82.4244 28.0795C82.9455 28.0795 83.3893 28.1953 83.7559 28.4268C84.1225 28.6584 84.4119 28.9237 84.6243 29.2228H84.7111L84.6822 28.4558V27.9782C84.6822 27.3993 84.4843 26.9458 84.0888 26.6178C83.7028 26.2897 83.2349 26.1257 82.685 26.1257C82.1736 26.1257 81.7394 26.2511 81.3824 26.502C81.0351 26.7432 80.7842 27.0568 80.6299 27.4427L79.2115 26.8348C79.3273 26.4971 79.5347 26.1691 79.8339 25.8507C80.1426 25.5227 80.5333 25.2573 81.0061 25.0547C81.4789 24.8425 82.0385 24.7363 82.685 24.7363C83.3314 24.7363 83.9199 24.8666 84.4506 25.1271C84.9908 25.378 85.4201 25.7543 85.7385 26.2559C86.0569 26.7576 86.2161 27.3655 86.2161 28.0795V31.7265C86.2161 32.4405 86.0671 33.0918 85.7674 33.6803C85.4686 34.2592 85.0536 34.7175 84.523 35.0552C83.9922 35.3929 83.3796 35.5618 82.685 35.5618ZM82.6705 34.129C83.0468 34.129 83.3941 34.0325 83.7125 33.8395C84.0309 33.6465 84.2865 33.3764 84.4795 33.0291C84.6725 32.6817 84.769 32.2765 84.769 31.8134C84.769 31.3503 84.6677 30.945 84.4651 30.5977C84.2721 30.2504 84.0164 29.985 83.698 29.8017C83.3893 29.6087 83.0515 29.5123 82.685 29.5123C82.3087 29.5123 81.9613 29.6087 81.6429 29.8017C81.3245 29.985 81.0688 30.2504 80.8759 30.5977C80.6829 30.945 80.5864 31.3503 80.5864 31.8134C80.5864 32.2765 80.6829 32.6817 80.8759 33.0291C81.0688 33.3764 81.3245 33.6465 81.6429 33.8395C81.9613 34.0325 82.3038 34.129 82.6705 34.129ZM90.7298 35.5618C90.1117 35.5618 89.5473 35.4364 89.0365 35.1855C88.5342 34.9346 88.1341 34.5872 87.8353 34.1435C87.5458 33.69 87.4011 33.1593 87.4011 32.5515C87.4011 32.3971 87.4105 32.2427 87.4301 32.0884C87.459 31.9243 87.4973 31.77 87.5458 31.6252L89.022 31.8568C88.9829 32.0787 88.9641 32.2716 88.9641 32.4357C88.9641 32.9857 89.1327 33.4102 89.4707 33.7093C89.8078 34.0083 90.2233 34.1579 90.7153 34.1579C91.2261 34.1579 91.6458 34.0132 91.9744 33.7238C92.3116 33.4247 92.481 33.0387 92.481 32.5659C92.481 32.2958 92.4273 32.0643 92.3218 31.8713C92.2247 31.6687 92.1047 31.4998 91.9599 31.3647C91.8246 31.22 91.7088 31.1042 91.6126 31.0174L91.0048 30.5398C90.7247 30.3179 90.4735 30.0333 90.2522 29.6859C90.0394 29.329 89.9338 28.8706 89.9338 28.311H91.4968C91.4968 28.6198 91.5735 28.8803 91.7284 29.0926C91.8918 29.3048 92.0757 29.4978 92.2783 29.6715L92.9007 30.1925C93.1995 30.4433 93.46 30.752 93.6822 31.1187C93.9137 31.4757 94.0295 31.9677 94.0295 32.5949C94.0295 33.1738 93.8848 33.6852 93.5953 34.129C93.3059 34.5728 92.91 34.925 92.4086 35.1855C91.9165 35.4364 91.3564 35.5618 90.7298 35.5618ZM100.13 38.6878C99.3971 38.6878 98.7118 38.5527 98.075 38.2826C97.4476 38.0125 96.8976 37.6313 96.4251 37.1393C95.9527 36.6568 95.5857 36.0972 95.3252 35.4605C95.0647 34.8237 94.9345 34.1386 94.9345 33.4054C94.9345 32.5081 95.1226 31.6927 95.4989 30.9595C95.8846 30.2166 96.4107 29.6039 97.0764 29.1215C97.7421 28.6391 98.5041 28.3351 99.3631 28.2097V26.5309H100.897V28.2097C101.756 28.3351 102.518 28.6391 103.184 29.1215C103.85 29.6039 104.376 30.2166 104.761 30.9595C105.147 31.6927 105.34 32.5081 105.34 33.4054C105.34 34.1386 105.205 34.8237 104.935 35.4605C104.674 36.0972 104.308 36.6568 103.835 37.1393C103.372 37.6313 102.822 38.0125 102.185 38.2826C101.558 38.5527 100.873 38.6878 100.13 38.6878ZM99.3631 33.5211V30.7135C99.3631 30.3082 99.392 29.9368 99.4499 29.5991C98.8906 29.7052 98.384 29.9223 97.9303 30.2504C97.4867 30.5784 97.1343 31.0125 96.8738 31.5529C96.6133 32.0835 96.483 32.7011 96.483 33.4054C96.483 34.1869 96.6473 34.8622 96.9751 35.4315C97.3029 36.0104 97.7421 36.4591 98.2921 36.7774C98.8514 37.0958 99.4644 37.255 100.13 37.255C100.796 37.255 101.404 37.0958 101.954 36.7774C102.513 36.4591 102.957 36.0104 103.285 35.4315C103.623 34.8622 103.792 34.1869 103.792 33.4054C103.792 32.7011 103.656 32.0835 103.386 31.5529C103.126 31.0125 102.769 30.5784 102.315 30.2504C101.872 29.9223 101.37 29.7052 100.81 29.5991C100.868 29.9271 100.897 30.2841 100.897 30.6701V33.5211H99.3631ZM109.759 38.6878C109.083 38.6878 108.48 38.5431 107.95 38.2536C107.419 37.9642 107.004 37.5638 106.705 37.0524C106.406 36.5507 106.256 35.9766 106.256 35.3302C106.256 34.8767 106.343 34.4184 106.517 33.9553L107.964 34.2737C107.858 34.6114 107.805 34.9394 107.805 35.2578C107.805 35.8078 107.973 36.2758 108.311 36.6617C108.659 37.0573 109.141 37.255 109.759 37.255C110.318 37.255 110.791 37.0669 111.177 36.6906C111.563 36.3143 111.756 35.7885 111.756 35.1131V31.3792C111.756 30.8003 111.577 30.3468 111.22 30.0188C110.864 29.6811 110.41 29.5123 109.86 29.5123C109.541 29.5123 109.238 29.5798 108.948 29.7149C108.668 29.85 108.442 30.0429 108.268 30.2938C108.094 30.5447 108.007 30.8486 108.007 31.2055C108.007 31.3985 108.031 31.5963 108.08 31.7989L106.575 31.9871C106.507 31.7072 106.473 31.413 106.473 31.1042C106.473 30.4964 106.623 29.9658 106.922 29.5123C107.231 29.0588 107.64 28.7066 108.152 28.4558C108.664 28.2049 109.232 28.0795 109.86 28.0795C110.535 28.0795 111.128 28.2146 111.64 28.4847C112.161 28.7548 112.566 29.1456 112.856 29.657C113.145 30.1587 113.29 30.7569 113.29 31.4516V35.0552C113.29 35.7692 113.14 36.3963 112.841 36.9366C112.542 37.4866 112.127 37.9159 111.597 38.2247C111.076 38.5335 110.463 38.6878 109.759 38.6878ZM118.287 35.5618C117.563 35.5618 116.922 35.3977 116.362 35.0697C115.802 34.732 115.364 34.2833 115.045 33.7238C114.736 33.1545 114.582 32.5225 114.582 31.8279C114.582 31.1814 114.712 30.5977 114.973 30.0767C115.233 29.546 115.599 29.1119 116.073 28.7742C116.545 28.4364 117.095 28.2242 117.723 28.1374V27.7321C117.723 27.5199 117.703 27.3462 117.665 27.2111C117.626 27.076 117.51 26.941 117.317 26.8059L116.927 26.5454C116.656 26.3717 116.478 26.1546 116.391 25.8941C116.314 25.624 116.28 25.3152 116.29 24.9679H117.838C117.838 25.1512 117.862 25.3056 117.911 25.431C117.969 25.5468 118.094 25.677 118.287 25.8218L118.663 26.0823C118.914 26.2559 119.078 26.4586 119.155 26.6901C119.232 26.9217 119.271 27.1967 119.271 27.515V28.2242C119.821 28.3593 120.299 28.6005 120.704 28.9478C121.119 29.2855 121.437 29.7004 121.659 30.1925C121.881 30.6845 121.992 31.2296 121.992 31.8279C121.992 32.5225 121.833 33.1545 121.514 33.7238C121.205 34.2833 120.771 34.732 120.212 35.0697C119.662 35.3977 119.02 35.5618 118.287 35.5618ZM118.302 34.129C118.678 34.129 119.029 34.0373 119.358 33.854C119.686 33.6707 119.946 33.4102 120.14 33.0725C120.342 32.7251 120.444 32.3103 120.444 31.8279C120.444 31.3358 120.342 30.9209 120.14 30.5832C119.946 30.2359 119.686 29.9705 119.358 29.7872C119.029 29.6039 118.678 29.5123 118.302 29.5123C117.915 29.5123 117.558 29.6039 117.231 29.7872C116.902 29.9609 116.637 30.2214 116.435 30.5687C116.232 30.9161 116.131 31.3358 116.131 31.8279C116.131 32.3103 116.232 32.7251 116.435 33.0725C116.637 33.4102 116.902 33.6707 117.231 33.854C117.558 34.0373 117.915 34.129 118.302 34.129ZM126.246 35.5618C125.629 35.5618 125.065 35.4364 124.553 35.1855C124.051 34.9346 123.651 34.5872 123.352 34.1435C123.062 33.69 122.917 33.1593 122.917 32.5515C122.917 32.3971 122.928 32.2427 122.946 32.0884C122.975 31.9243 123.015 31.77 123.062 31.6252L124.538 31.8568C124.5 32.0787 124.481 32.2716 124.481 32.4357C124.481 32.9857 124.65 33.4102 124.987 33.7093C125.325 34.0083 125.74 34.1579 126.232 34.1579C126.743 34.1579 127.163 34.0132 127.491 33.7238C127.829 33.4247 127.997 33.0387 127.997 32.5659C127.997 32.2958 127.945 32.0643 127.838 31.8713C127.742 31.6687 127.621 31.4998 127.476 31.3647C127.342 31.22 127.226 31.1042 127.129 31.0174L126.521 30.5398C126.242 30.3179 125.991 30.0333 125.769 29.6859C125.557 29.329 125.45 28.8706 125.45 28.311H127.013C127.013 28.6198 127.091 28.8803 127.245 29.0926C127.409 29.3048 127.592 29.4978 127.795 29.6715L128.417 30.1925C128.717 30.4433 128.977 30.752 129.199 31.1187C129.43 31.4757 129.546 31.9677 129.546 32.5949C129.546 33.1738 129.401 33.6852 129.112 34.129C128.822 34.5728 128.427 34.925 127.925 35.1855C127.433 35.4364 126.874 35.5618 126.246 35.5618Z" fill="white"/>
<path d="M150.259 0.425781H23.4115C10.7168 0.425781 0.425781 10.7168 0.425781 23.4115C0.425781 36.1062 10.7168 46.3972 23.4115 46.3972H150.259C162.953 46.3972 173.244 36.1062 173.244 23.4115C173.244 10.7168 162.953 0.425781 150.259 0.425781Z" stroke="#747775"/>
</g>
<defs>
<linearGradient id="paint0_linear_568_529" x1="31.7421" y1="28.9835" x2="15.9909" y2="47.4384" gradientUnits="userSpaceOnUse">
<stop stop-color="#4285F4"/>
<stop offset="1" stop-color="#1B74E8"/>
</linearGradient>
<clipPath id="clip0_568_529">
<rect width="173.67" height="46.8228" fill="white"/>
</clipPath>
</defs>
</svg>
