<svg width="174" height="25" viewBox="0 0 174 25" fill="none" xmlns="http://www.w3.org/2000/svg">
<g clip-path="url(#clip0_568_213)">
<path d="M161.406 0.245117H12.2656C5.62742 0.245117 0.246094 5.62645 0.246094 12.2647C0.246094 18.9029 5.62742 24.2842 12.2656 24.2842H161.406C168.044 24.2842 173.425 18.9029 173.425 12.2647C173.425 5.62645 168.044 0.245117 161.406 0.245117Z" fill="#1F1F1F"/>
<path d="M25.0186 10.7927H10.3008V8.33968C10.3008 7.00807 11.381 5.88672 12.6637 5.88672H22.6556C23.9384 5.88672 25.0186 7.00807 25.0186 8.33968V10.7927Z" fill="#34A853"/>
<path d="M25.0186 12.7819H10.3008V10.3289C10.3008 8.99733 11.381 7.87598 12.6637 7.87598H22.6556C23.9384 7.87598 25.0186 8.99733 25.0186 10.3289V12.7819Z" fill="#FBBC04"/>
<path d="M25.0186 14.8385H10.3008V12.3856C10.3008 11.054 11.381 9.93262 12.6637 9.93262H22.6556C23.9384 9.93262 25.0186 11.054 25.0186 12.3856V14.8385Z" fill="#EA4335"/>
<path d="M10.3008 11.4182L19.6422 13.5786C20.7175 13.8487 21.9272 13.5786 22.8009 12.9035L25.0186 11.2832V16.3467C25.0186 17.6294 23.9433 18.6421 22.6664 18.6421H12.6529C11.3761 18.6421 10.3008 17.6294 10.3008 16.3467V11.4182Z" fill="url(#paint0_linear_568_213)"/>
<path d="M31.7031 15.6992V8.67387H32.7824V11.5978H36.0694V8.67387H37.1389V15.6992H36.0694V12.6182H32.7824V15.6992H31.7031ZM39.1584 9.95922C38.9621 9.95922 38.792 9.89054 38.6482 9.75317C38.5108 9.60928 38.4421 9.43919 38.4421 9.24296C38.4421 9.04672 38.5108 8.87992 38.6482 8.74255C38.792 8.60519 38.9621 8.5365 39.1584 8.5365C39.3546 8.5365 39.5214 8.60519 39.6588 8.74255C39.8027 8.87992 39.8746 9.04672 39.8746 9.24296C39.8746 9.43919 39.8027 9.60928 39.6588 9.75317C39.5214 9.89054 39.3546 9.95922 39.1584 9.95922ZM38.6285 15.6992V10.6951H39.6882V15.6992H38.6285ZM41.003 15.6992V10.6951H42.0038V11.3819H42.0627C42.2066 11.1399 42.4192 10.9404 42.7005 10.7834C42.9883 10.6199 43.3023 10.5381 43.6424 10.5381C44.2573 10.5381 44.7184 10.7213 45.0259 11.0876C45.3333 11.4539 45.487 11.9379 45.487 12.5397V15.6992H44.4372V12.6771C44.4372 12.2715 44.3358 11.9772 44.133 11.794C43.9302 11.6043 43.6653 11.5095 43.3382 11.5095C43.0831 11.5095 42.8607 11.5815 42.671 11.7254C42.4813 11.8627 42.3309 12.0459 42.2197 12.2748C42.115 12.5038 42.0627 12.7491 42.0627 13.0107V15.6992H41.003ZM46.4396 15.6992V14.8161L49.2261 11.6174H46.5279V10.6951H50.5213V11.5782L47.7445 14.7768H50.5998V15.6992H46.4396ZM53.406 15.8562C52.7913 15.8562 52.3267 15.673 52.0127 15.3067C51.7056 14.9338 51.5515 14.4301 51.5515 13.7957V10.6951H52.6112V13.6485C52.6112 14.0737 52.7093 14.3877 52.9056 14.5904C53.1087 14.7867 53.3604 14.8848 53.6611 14.8848C53.9294 14.8848 54.1615 14.8161 54.3577 14.6787C54.5608 14.5348 54.7144 14.3517 54.8189 14.1293C54.9303 13.9003 54.9857 13.6518 54.9857 13.3836V10.6951H56.0356V15.6992H55.0446V15.0221H54.9857C54.842 15.2576 54.6261 15.4572 54.3381 15.6207C54.057 15.7777 53.7465 15.8562 53.406 15.8562ZM57.8998 15.6992V11.6174H56.9873V10.6951H57.8998V10.283C57.8998 9.92979 57.9749 9.62891 58.1255 9.38032C58.2756 9.12522 58.4787 8.93226 58.7338 8.80142C58.9953 8.66406 59.2897 8.59537 59.6169 8.59537C59.7935 8.59537 59.9436 8.60847 60.0682 8.63462C60.1987 8.65425 60.3067 8.68039 60.392 8.71312V9.74336C60.3067 9.71064 60.2086 9.67797 60.0977 9.64524C59.9927 9.606 59.8622 9.58637 59.7052 9.58637C59.5021 9.58637 59.3255 9.65505 59.1754 9.79242C59.0247 9.92326 58.9497 10.1162 58.9497 10.3713V10.6951H60.2056V11.6174H58.9497V15.6992H57.8998ZM62.9402 15.8562C62.3255 15.8562 61.8609 15.673 61.5469 15.3067C61.2393 14.9338 61.0857 14.4301 61.0857 13.7957V10.6951H62.1454V13.6485C62.1454 14.0737 62.2435 14.3877 62.4398 14.5904C62.6424 14.7867 62.8945 14.8848 63.1953 14.8848C63.4636 14.8848 63.6957 14.8161 63.8919 14.6787C64.0945 14.5348 64.2486 14.3517 64.3531 14.1293C64.4644 13.9003 64.5199 13.6518 64.5199 13.3836V10.6951H65.5698V15.6992H64.5788V15.0221H64.5199C64.3761 15.2576 64.1603 15.4572 63.8723 15.6207C63.5912 15.7777 63.2802 15.8562 62.9402 15.8562ZM64.1961 9.67468C64.0327 9.67468 63.8885 9.61581 63.7644 9.49807C63.6466 9.3738 63.5878 9.22662 63.5878 9.05653C63.5878 8.88644 63.6466 8.74584 63.7644 8.63462C63.8885 8.51688 64.0327 8.45801 64.1961 8.45801C64.3727 8.45801 64.5199 8.51688 64.6376 8.63462C64.7554 8.74584 64.8142 8.88644 64.8142 9.05653C64.8142 9.22662 64.7554 9.3738 64.6376 9.49807C64.5199 9.61581 64.3727 9.67468 64.1961 9.67468ZM62.4594 9.67468C62.296 9.67468 62.1518 9.61581 62.0277 9.49807C61.9099 9.3738 61.8511 9.22662 61.8511 9.05653C61.8511 8.88644 61.9099 8.74584 62.0277 8.63462C62.1518 8.51688 62.296 8.45801 62.4594 8.45801C62.636 8.45801 62.7798 8.51688 62.8911 8.63462C63.0089 8.74584 63.0677 8.88644 63.0677 9.05653C63.0677 9.22662 63.0089 9.3738 62.8911 9.49807C62.7798 9.61581 62.636 9.67468 62.4594 9.67468ZM69.0255 17.9755C68.5874 17.9755 68.2077 17.9035 67.8873 17.7597C67.5733 17.6223 67.3182 17.4424 67.122 17.22C66.9258 17.0041 66.785 16.7818 66.7001 16.5528L67.6813 16.1407C67.7858 16.4023 67.9526 16.615 68.1817 16.7785C68.4172 16.9486 68.6983 17.0336 69.0255 17.0336C69.4832 17.0336 69.8433 16.8962 70.1048 16.6215C70.3732 16.3467 70.5071 15.9576 70.5071 15.4539V14.9731H70.4482C70.2912 15.2086 70.0719 15.3983 69.7908 15.5422C69.5161 15.6795 69.2021 15.7482 68.8489 15.7482C68.4235 15.7482 68.0345 15.6403 67.6813 15.4244C67.328 15.2086 67.0435 14.9077 66.8276 14.5217C66.6118 14.1293 66.5038 13.6714 66.5038 13.1481C66.5038 12.6182 66.6118 12.1604 66.8276 11.7744C67.0435 11.3819 67.328 11.0778 67.6813 10.8619C68.0345 10.6461 68.4235 10.5381 68.8489 10.5381C69.2021 10.5381 69.5161 10.6101 69.7908 10.754C70.0719 10.8979 70.2912 11.0876 70.4482 11.3231H70.5071V10.6951H71.5177V15.4342C71.5177 15.9772 71.4098 16.4383 71.1939 16.8177C70.9844 17.1971 70.6935 17.4849 70.3207 17.6812C69.9478 17.8774 69.5161 17.9755 69.0255 17.9755ZM69.0353 14.7867C69.2968 14.7867 69.5391 14.7245 69.7614 14.6002C69.9836 14.4694 70.1637 14.283 70.301 14.041C70.4384 13.7924 70.5071 13.4948 70.5071 13.1481C70.5071 12.7883 70.4384 12.4874 70.301 12.2454C70.1637 11.9968 69.9836 11.8104 69.7614 11.6861C69.5391 11.5618 69.2968 11.4997 69.0353 11.4997C68.7738 11.4997 68.5285 11.5651 68.2994 11.6959C68.0772 11.8202 67.8971 12.0034 67.7598 12.2454C67.6224 12.4874 67.5537 12.7883 67.5537 13.1481C67.5537 13.5013 67.6224 13.8022 67.7598 14.0508C67.8971 14.2928 68.0772 14.476 68.2994 14.6002C68.5285 14.7245 68.7738 14.7867 69.0353 14.7867ZM74.9955 15.8562C74.5049 15.8562 74.0668 15.7417 73.6807 15.5127C73.2951 15.2838 72.991 14.9698 72.7682 14.5708C72.5524 14.1718 72.4444 13.7172 72.4444 13.207C72.4444 12.7295 72.5494 12.2879 72.7584 11.8823C72.9679 11.4768 73.2588 11.153 73.6317 10.911C74.0114 10.6624 74.4461 10.5381 74.9366 10.5381C75.4537 10.5381 75.8918 10.6493 76.2514 10.8717C76.6179 11.0941 76.8961 11.3983 77.0854 11.7842C77.2753 12.1702 77.37 12.6051 77.37 13.0892C77.37 13.1612 77.367 13.2266 77.3602 13.2854C77.3602 13.3443 77.3572 13.3901 77.3504 13.4228H73.4845C73.537 13.9199 73.7102 14.2928 74.0045 14.5414C74.3057 14.7899 74.6457 14.9142 75.025 14.9142C75.3654 14.9142 75.6465 14.839 75.8688 14.6885C76.0915 14.5316 76.2681 14.3386 76.3986 14.1096L77.2719 14.5316C77.056 14.924 76.7617 15.2445 76.3888 15.4931C76.016 15.7351 75.5519 15.8562 74.9955 15.8562ZM74.9465 11.4408C74.5932 11.4408 74.2925 11.5487 74.0438 11.7646C73.7955 11.9805 73.6287 12.2683 73.5434 12.6281H76.3201C76.3074 12.458 76.2514 12.2813 76.1533 12.0982C76.0552 11.9151 75.9051 11.7613 75.702 11.6371C75.5057 11.5062 75.2541 11.4408 74.9465 11.4408ZM78.3531 15.6992V10.6951H79.3539V11.3819H79.4128C79.5571 11.1399 79.7695 10.9404 80.0506 10.7834C80.3386 10.6199 80.6526 10.5381 80.9925 10.5381C81.6077 10.5381 82.0689 10.7213 82.376 11.0876C82.6836 11.4539 82.8372 11.9379 82.8372 12.5397V15.6992H81.7873V12.6771C81.7873 12.2715 81.6862 11.9772 81.4831 11.794C81.2805 11.6043 81.0156 11.5095 80.6884 11.5095C80.4333 11.5095 80.211 11.5815 80.0212 11.7254C79.8318 11.8627 79.6812 12.0459 79.5698 12.2748C79.4653 12.5038 79.4128 12.7491 79.4128 13.0107V15.6992H78.3531ZM86.08 15.6992V14.8161L88.8666 11.6174H86.1683V10.6951H90.1617V11.5782L87.385 14.7768H90.2402V15.6992H86.08ZM93.0464 15.8562C92.4317 15.8562 91.9671 15.673 91.6531 15.3067C91.346 14.9338 91.192 14.4301 91.192 13.7957V10.6951H92.2516V13.6485C92.2516 14.0737 92.3498 14.3877 92.546 14.5904C92.7491 14.7867 93.0008 14.8848 93.3015 14.8848C93.5699 14.8848 93.8019 14.8161 93.9982 14.6787C94.2013 14.5348 94.3548 14.3517 94.4593 14.1293C94.5707 13.9003 94.6261 13.6518 94.6261 13.3836V10.6951H95.676V15.6992H94.685V15.0221H94.6261C94.4824 15.2576 94.2665 15.4572 93.9785 15.6207C93.6974 15.7777 93.3869 15.8562 93.0464 15.8562Z" fill="white"/>
<path d="M103.222 15.8559C102.719 15.8559 102.245 15.7643 101.8 15.5811C101.362 15.398 100.972 15.1429 100.632 14.8158C100.292 14.4822 100.024 14.093 99.8275 13.6482C99.6377 13.1969 99.543 12.7096 99.543 12.1862C99.543 11.6629 99.6377 11.1789 99.8275 10.7341C100.024 10.2827 100.289 9.89355 100.622 9.56647C100.962 9.23287 101.355 8.97447 101.8 8.79133C102.245 8.6082 102.719 8.5166 103.222 8.5166C103.759 8.5166 104.253 8.61143 104.704 8.80115C105.162 8.99086 105.544 9.25578 105.852 9.59591L105.106 10.3318C104.877 10.0767 104.602 9.88045 104.282 9.74308C103.968 9.60572 103.615 9.53704 103.222 9.53704C102.758 9.53704 102.33 9.64825 101.937 9.87064C101.545 10.0865 101.227 10.394 100.985 10.793C100.75 11.1854 100.632 11.6499 100.632 12.1862C100.632 12.7226 100.753 13.1903 100.995 13.5893C101.237 13.9818 101.554 14.2893 101.947 14.5117C102.339 14.7275 102.768 14.8354 103.232 14.8354C103.658 14.8354 104.043 14.7569 104.39 14.6C104.737 14.4364 105.015 14.2075 105.224 13.9131C105.44 13.6188 105.571 13.2655 105.617 12.8534H103.213V11.9017H106.627C106.666 12.0783 106.686 12.2647 106.686 12.461V12.4708C106.686 13.1511 106.535 13.7463 106.235 14.2565C105.94 14.7602 105.532 15.1527 105.008 15.434C104.485 15.7152 103.89 15.8559 103.222 15.8559ZM109.845 15.8559C109.329 15.8559 108.874 15.7381 108.482 15.5026C108.089 15.2672 107.782 14.9499 107.559 14.5509C107.337 14.1519 107.226 13.7006 107.226 13.1969C107.226 12.6997 107.337 12.2516 107.559 11.8526C107.782 11.4471 108.089 11.1266 108.482 10.8911C108.874 10.6556 109.329 10.5378 109.845 10.5378C110.356 10.5378 110.807 10.6556 111.199 10.8911C111.592 11.1266 111.9 11.4471 112.122 11.8526C112.344 12.2516 112.455 12.6997 112.455 13.1969C112.455 13.7006 112.344 14.1519 112.122 14.5509C111.9 14.9499 111.592 15.2672 111.199 15.5026C110.807 15.7381 110.356 15.8559 109.845 15.8559ZM109.845 14.8845C110.12 14.8845 110.375 14.8191 110.611 14.6883C110.846 14.5509 111.036 14.3579 111.18 14.1094C111.33 13.8543 111.406 13.5501 111.406 13.1969C111.406 12.8436 111.33 12.5428 111.18 12.2942C111.036 12.0391 110.846 11.8461 110.611 11.7153C110.375 11.5779 110.12 11.5092 109.845 11.5092C109.571 11.5092 109.312 11.5779 109.07 11.7153C108.835 11.8461 108.642 12.0391 108.491 12.2942C108.348 12.5428 108.276 12.8436 108.276 13.1969C108.276 13.5501 108.348 13.8543 108.491 14.1094C108.642 14.3579 108.835 14.5509 109.07 14.6883C109.312 14.8191 109.571 14.8845 109.845 14.8845ZM115.786 15.8559C115.269 15.8559 114.815 15.7381 114.422 15.5026C114.03 15.2672 113.723 14.9499 113.5 14.5509C113.278 14.1519 113.166 13.7006 113.166 13.1969C113.166 12.6997 113.278 12.2516 113.5 11.8526C113.723 11.4471 114.03 11.1266 114.422 10.8911C114.815 10.6556 115.269 10.5378 115.786 10.5378C116.296 10.5378 116.748 10.6556 117.14 10.8911C117.533 11.1266 117.84 11.4471 118.062 11.8526C118.285 12.2516 118.396 12.6997 118.396 13.1969C118.396 13.7006 118.285 14.1519 118.062 14.5509C117.84 14.9499 117.533 15.2672 117.14 15.5026C116.748 15.7381 116.296 15.8559 115.786 15.8559ZM115.786 14.8845C116.061 14.8845 116.316 14.8191 116.551 14.6883C116.787 14.5509 116.977 14.3579 117.12 14.1094C117.271 13.8543 117.346 13.5501 117.346 13.1969C117.346 12.8436 117.271 12.5428 117.12 12.2942C116.977 12.0391 116.787 11.8461 116.551 11.7153C116.316 11.5779 116.061 11.5092 115.786 11.5092C115.511 11.5092 115.253 11.5779 115.011 11.7153C114.775 11.8461 114.583 12.0391 114.432 12.2942C114.288 12.5428 114.216 12.8436 114.216 13.1969C114.216 13.5501 114.288 13.8543 114.432 14.1094C114.583 14.3579 114.775 14.5509 115.011 14.6883C115.253 14.8191 115.511 14.8845 115.786 14.8845ZM121.629 17.9752C121.19 17.9752 120.811 17.9033 120.491 17.7594C120.177 17.622 119.922 17.4421 119.725 17.2197C119.529 17.0039 119.388 16.7815 119.304 16.5525L120.285 16.1404C120.389 16.4021 120.556 16.6147 120.785 16.7782C121.021 16.9483 121.302 17.0333 121.629 17.0333C122.087 17.0333 122.446 16.8959 122.708 16.6212C122.976 16.3465 123.111 15.9573 123.111 15.4536V14.9728H123.052C122.895 15.2083 122.675 15.398 122.394 15.5419C122.12 15.6793 121.806 15.7479 121.452 15.7479C121.027 15.7479 120.638 15.64 120.285 15.4242C119.932 15.2083 119.647 14.9074 119.431 14.5215C119.215 14.129 119.107 13.6711 119.107 13.1478C119.107 12.618 119.215 12.1601 119.431 11.7741C119.647 11.3817 119.932 11.0775 120.285 10.8616C120.638 10.6458 121.027 10.5378 121.452 10.5378C121.806 10.5378 122.12 10.6098 122.394 10.7537C122.675 10.8976 122.895 11.0873 123.052 11.3228H123.111V10.6948H124.121V15.434C124.121 15.9769 124.013 16.4381 123.797 16.8174C123.588 17.1968 123.297 17.4846 122.924 17.6809C122.551 17.8771 122.12 17.9752 121.629 17.9752ZM121.639 14.7864C121.9 14.7864 122.142 14.7242 122.365 14.6C122.587 14.4691 122.767 14.2827 122.905 14.0407C123.042 13.7921 123.111 13.4945 123.111 13.1478C123.111 12.788 123.042 12.4871 122.905 12.2451C122.767 11.9965 122.587 11.8101 122.365 11.6858C122.142 11.5616 121.9 11.4994 121.639 11.4994C121.377 11.4994 121.132 11.5648 120.903 11.6956C120.68 11.8199 120.501 12.0031 120.363 12.2451C120.226 12.4871 120.157 12.788 120.157 13.1478C120.157 13.501 120.226 13.8019 120.363 14.0505C120.501 14.2925 120.68 14.4757 120.903 14.6C121.132 14.7242 121.377 14.7864 121.639 14.7864ZM125.371 15.6989V8.67359H126.43V15.6989H125.371ZM129.918 15.8559C129.427 15.8559 128.989 15.7414 128.603 15.5125C128.217 15.2835 127.913 14.9695 127.691 14.5705C127.475 14.1715 127.367 13.7169 127.367 13.2067C127.367 12.7292 127.471 12.2876 127.681 11.8821C127.89 11.4765 128.181 11.1527 128.554 10.9107C128.933 10.6621 129.369 10.5378 129.859 10.5378C130.376 10.5378 130.814 10.6491 131.174 10.8714C131.54 11.0938 131.818 11.398 132.008 11.784C132.197 12.1699 132.293 12.6049 132.293 13.0889C132.293 13.1609 132.289 13.2263 132.283 13.2852C132.283 13.344 132.279 13.3898 132.273 13.4225H128.407C128.459 13.9197 128.633 14.2925 128.927 14.5411C129.228 14.7897 129.568 14.9139 129.947 14.9139C130.287 14.9139 130.569 14.8387 130.791 14.6883C131.014 14.5313 131.19 14.3383 131.321 14.1094L132.194 14.5313C131.979 14.9237 131.684 15.2443 131.311 15.4928C130.938 15.7348 130.474 15.8559 129.918 15.8559ZM129.869 11.4405C129.516 11.4405 129.215 11.5485 128.966 11.7643C128.718 11.9802 128.551 12.268 128.466 12.6278H131.243C131.229 12.4577 131.174 12.2811 131.076 12.0979C130.978 11.9148 130.827 11.761 130.625 11.6368C130.428 11.5059 130.176 11.4405 129.869 11.4405ZM136.605 15.6989L134.721 8.67359H135.918L137.037 13.2361L137.155 13.8444H137.214L137.361 13.2361L138.774 8.67359H139.853L141.207 13.2361L141.354 13.8346H141.413L141.531 13.2361L142.649 8.67359H143.837L141.982 15.6989H140.844L139.5 11.0383L139.343 10.3809H139.284L139.117 11.0383L137.714 15.6989H136.605ZM145.807 15.8559C145.447 15.8559 145.127 15.7872 144.845 15.6498C144.564 15.5059 144.345 15.3064 144.188 15.0513C144.031 14.7962 143.952 14.5051 143.952 14.178C143.952 13.8248 144.044 13.5239 144.227 13.2754C144.417 13.0202 144.669 12.8273 144.983 12.6965C145.297 12.5656 145.644 12.5002 146.023 12.5002C146.337 12.5002 146.611 12.5297 146.847 12.5885C147.089 12.6474 147.272 12.7096 147.396 12.775V12.51C147.396 12.183 147.279 11.9213 147.043 11.7251C146.808 11.5288 146.504 11.4307 146.131 11.4307C145.876 11.4307 145.634 11.4896 145.405 11.6073C145.176 11.7186 144.993 11.8723 144.855 12.0685L144.129 11.5092C144.345 11.2083 144.629 10.9729 144.983 10.8028C145.343 10.6262 145.735 10.5378 146.16 10.5378C146.886 10.5378 147.445 10.7177 147.838 11.0775C148.23 11.4307 148.427 11.9278 148.427 12.5689V15.6989H147.396V15.0807H147.338C147.207 15.2835 147.011 15.4634 146.749 15.6204C146.487 15.7774 146.173 15.8559 145.807 15.8559ZM145.993 14.9924C146.268 14.9924 146.51 14.927 146.719 14.7962C146.929 14.6654 147.092 14.4953 147.21 14.286C147.335 14.0701 147.396 13.8379 147.396 13.5893C147.246 13.5043 147.07 13.4356 146.867 13.3833C146.664 13.3244 146.448 13.295 146.219 13.295C145.787 13.295 145.48 13.3833 145.297 13.5599C145.114 13.73 145.022 13.9393 145.022 14.1879C145.022 14.4233 145.11 14.6163 145.287 14.7668C145.463 14.9172 145.699 14.9924 145.993 14.9924ZM149.603 15.6989V8.67359H150.663V15.6989H149.603ZM151.922 15.6989V8.67359H152.982V15.6989H151.922ZM156.469 15.8559C155.979 15.8559 155.54 15.7414 155.155 15.5125C154.769 15.2835 154.464 14.9695 154.242 14.5705C154.026 14.1715 153.918 13.7169 153.918 13.2067C153.918 12.7292 154.023 12.2876 154.232 11.8821C154.441 11.4765 154.733 11.1527 155.106 10.9107C155.485 10.6621 155.92 10.5378 156.411 10.5378C156.927 10.5378 157.365 10.6491 157.725 10.8714C158.091 11.0938 158.37 11.398 158.559 11.784C158.749 12.1699 158.844 12.6049 158.844 13.0889C158.844 13.1609 158.84 13.2263 158.834 13.2852C158.834 13.344 158.831 13.3898 158.824 13.4225H154.958C155.01 13.9197 155.184 14.2925 155.478 14.5411C155.779 14.7897 156.119 14.9139 156.499 14.9139C156.839 14.9139 157.12 14.8387 157.343 14.6883C157.565 14.5313 157.742 14.3383 157.873 14.1094L158.746 14.5313C158.53 14.9237 158.236 15.2443 157.863 15.4928C157.49 15.7348 157.025 15.8559 156.469 15.8559ZM156.42 11.4405C156.067 11.4405 155.766 11.5485 155.518 11.7643C155.269 11.9802 155.102 12.268 155.017 12.6278H157.794C157.781 12.4577 157.725 12.2811 157.627 12.0979C157.529 11.9148 157.379 11.761 157.176 11.6368C156.98 11.5059 156.727 11.4405 156.42 11.4405ZM160.213 14.2467V11.6172H159.34V10.6948H160.213V9.28193H161.273V10.6948H162.499V11.6172H161.273V14.0211C161.273 14.2696 161.322 14.4593 161.42 14.5901C161.525 14.721 161.698 14.7864 161.94 14.7864C162.064 14.7864 162.169 14.77 162.254 14.7373C162.345 14.7046 162.437 14.6588 162.529 14.6V15.6302C162.417 15.676 162.3 15.712 162.176 15.7381C162.051 15.7643 161.904 15.7774 161.734 15.7774C161.269 15.7774 160.9 15.6433 160.625 15.3751C160.351 15.1004 160.213 14.7242 160.213 14.2467Z" fill="white"/>
<path d="M161.406 0.245117H12.2656C5.62742 0.245117 0.246094 5.62645 0.246094 12.2647C0.246094 18.9029 5.62742 24.2842 12.2656 24.2842H161.406C168.044 24.2842 173.425 18.9029 173.425 12.2647C173.425 5.62645 168.044 0.245117 161.406 0.245117Z" stroke="#747775"/>
</g>
<defs>
<linearGradient id="paint0_linear_568_213" x1="16.9583" y1="15.1032" x2="9.18758" y2="23.9961" gradientUnits="userSpaceOnUse">
<stop stop-color="#4285F4"/>
<stop offset="1" stop-color="#1B74E8"/>
</linearGradient>
<clipPath id="clip0_568_213">
<rect width="173.67" height="24.5297" fill="white"/>
</clipPath>
</defs>
</svg>
