<svg width="174" height="48" viewBox="0 0 174 48" fill="none" xmlns="http://www.w3.org/2000/svg">
<g clip-path="url(#clip0_568_511)">
<path d="M149.911 0.431641H23.7624C10.8783 0.431641 0.433594 10.8763 0.433594 23.7604C0.433594 36.6446 10.8783 47.0893 23.7624 47.0893H149.911C162.795 47.0893 173.24 36.6446 173.24 23.7604C173.24 10.8763 162.795 0.431641 149.911 0.431641Z" fill="#1F1F1F"/>
<path d="M49.2496 20.5565H18.1445V15.6787C18.1445 13.0307 20.4275 10.8008 23.1385 10.8008H44.2557C46.9667 10.8008 49.2496 13.0307 49.2496 15.6787V20.5565Z" fill="#34A853"/>
<path d="M49.2496 25.0568H18.1445V19.8727C18.1445 17.0584 20.4275 14.6885 23.1385 14.6885H44.2557C46.9667 14.6885 49.2496 17.0584 49.2496 19.8727V25.0568Z" fill="#FBBC04"/>
<path d="M49.2496 29.3771H18.1445V24.193C18.1445 21.3787 20.4275 19.0088 23.1385 19.0088H44.2557C46.9667 19.0088 49.2496 21.3787 49.2496 24.193V29.3771Z" fill="#EA4335"/>
<path d="M18.1445 21.809L37.887 26.2688C40.1596 26.8263 42.7162 26.2688 44.5625 24.8751L49.2496 21.5303V31.9828C49.2496 34.6308 46.9771 36.7213 44.2785 36.7213H23.1156C20.417 36.7213 18.1445 34.6308 18.1445 31.9828V21.809Z" fill="url(#paint0_linear_568_511)"/>
<path d="M64.3371 18.7564C63.7606 18.7564 63.2176 18.6516 62.7084 18.4419C62.2067 18.2322 61.7612 17.9402 61.3718 17.5658C60.9824 17.1839 60.6754 16.7383 60.4507 16.2292C60.2336 15.7125 60.125 15.1546 60.125 14.5555C60.125 13.9565 60.2336 13.4023 60.4507 12.8931C60.6754 12.3765 60.9787 11.9309 61.3606 11.5565C61.75 11.1746 62.1993 10.8788 62.7084 10.6691C63.2176 10.4594 63.7606 10.3546 64.3371 10.3546C64.9512 10.3546 65.5165 10.4632 66.0332 10.6804C66.5574 10.8975 66.9955 11.2008 67.3474 11.5902L66.4938 12.4326C66.2317 12.1406 65.9172 11.9159 65.5502 11.7587C65.1908 11.6014 64.7864 11.5228 64.3371 11.5228C63.8055 11.5228 63.315 11.6501 62.8657 11.9047C62.4164 12.1518 62.0533 12.5037 61.7762 12.9605C61.5066 13.4098 61.3718 13.9415 61.3718 14.5555C61.3718 15.1696 61.5103 15.705 61.7874 16.1618C62.0645 16.6111 62.4276 16.963 62.8769 17.2176C63.3262 17.4647 63.8167 17.5883 64.3484 17.5883C64.8351 17.5883 65.277 17.4984 65.6738 17.3187C66.0707 17.1315 66.389 16.8694 66.6286 16.5324C66.8757 16.1955 67.0254 15.7911 67.0779 15.3193H64.3259V14.2298H68.2348C68.2797 14.432 68.3022 14.6454 68.3022 14.87V14.8813C68.3022 15.66 68.13 16.3415 67.7855 16.9256C67.4485 17.5021 66.9805 17.9514 66.3814 18.2735C65.7824 18.5955 65.1009 18.7564 64.3371 18.7564ZM71.9189 18.7564C71.3273 18.7564 70.8069 18.6217 70.3576 18.3521C69.9083 18.0825 69.5564 17.7194 69.3018 17.2625C69.0471 16.8057 68.9199 16.289 68.9199 15.7125C68.9199 15.1433 69.0471 14.6304 69.3018 14.1736C69.5564 13.7094 69.9083 13.3424 70.3576 13.0729C70.8069 12.8033 71.3273 12.6685 71.9189 12.6685C72.503 12.6685 73.0197 12.8033 73.469 13.0729C73.9183 13.3424 74.2702 13.7094 74.5248 14.1736C74.7795 14.6304 74.9067 15.1433 74.9067 15.7125C74.9067 16.289 74.7795 16.8057 74.5248 17.2625C74.2702 17.7194 73.9183 18.0825 73.469 18.3521C73.0197 18.6217 72.503 18.7564 71.9189 18.7564ZM71.9189 17.6444C72.2334 17.6444 72.5255 17.5695 72.795 17.4198C73.0646 17.2625 73.2818 17.0416 73.4465 16.7571C73.6187 16.465 73.7049 16.1168 73.7049 15.7125C73.7049 15.3081 73.6187 14.9636 73.4465 14.6791C73.2818 14.387 73.0646 14.1661 72.795 14.0164C72.5255 13.8591 72.2334 13.7805 71.9189 13.7805C71.6044 13.7805 71.3087 13.8591 71.0316 14.0164C70.762 14.1661 70.5411 14.387 70.3689 14.6791C70.2041 14.9636 70.1217 15.3081 70.1217 15.7125C70.1217 16.1168 70.2041 16.465 70.3689 16.7571C70.5411 17.0416 70.762 17.2625 71.0316 17.4198C71.3087 17.5695 71.6044 17.6444 71.9189 17.6444ZM78.7198 18.7564C78.1282 18.7564 77.6078 18.6217 77.1585 18.3521C76.7092 18.0825 76.3573 17.7194 76.1026 17.2625C75.848 16.8057 75.7207 16.289 75.7207 15.7125C75.7207 15.1433 75.848 14.6304 76.1026 14.1736C76.3573 13.7094 76.7092 13.3424 77.1585 13.0729C77.6078 12.8033 78.1282 12.6685 78.7198 12.6685C79.3039 12.6685 79.8206 12.8033 80.2699 13.0729C80.7192 13.3424 81.0711 13.7094 81.3257 14.1736C81.5803 14.6304 81.7076 15.1433 81.7076 15.7125C81.7076 16.289 81.5803 16.8057 81.3257 17.2625C81.0711 17.7194 80.7192 18.0825 80.2699 18.3521C79.8206 18.6217 79.3039 18.7564 78.7198 18.7564ZM78.7198 17.6444C79.0343 17.6444 79.3263 17.5695 79.5959 17.4198C79.8655 17.2625 80.0826 17.0416 80.2474 16.7571C80.4196 16.465 80.5057 16.1168 80.5057 15.7125C80.5057 15.3081 80.4196 14.9636 80.2474 14.6791C80.0826 14.387 79.8655 14.1661 79.5959 14.0164C79.3263 13.8591 79.0343 13.7805 78.7198 13.7805C78.4053 13.7805 78.1095 13.8591 77.8324 14.0164C77.5629 14.1661 77.3419 14.387 77.1697 14.6791C77.0049 14.9636 76.9226 15.3081 76.9226 15.7125C76.9226 16.1168 77.0049 16.465 77.1697 16.7571C77.3419 17.0416 77.5629 17.2625 77.8324 17.4198C78.1095 17.5695 78.4053 17.6444 78.7198 17.6444ZM85.4083 21.1826C84.9066 21.1826 84.4723 21.1003 84.1054 20.9355C83.7459 20.7783 83.4539 20.5724 83.2292 20.3177C83.0046 20.0706 82.8436 19.816 82.7463 19.5539L83.8695 19.0822C83.9893 19.3817 84.1803 19.6251 84.4423 19.8123C84.7119 20.007 85.0339 20.1043 85.4083 20.1043C85.9325 20.1043 86.3443 19.9471 86.6438 19.6326C86.9505 19.3181 87.1043 18.8725 87.1043 18.2959V17.7455H87.0369C86.8572 18.0151 86.6067 18.2322 86.2845 18.397C85.9699 18.5543 85.6105 18.6329 85.2061 18.6329C84.7194 18.6329 84.2739 18.5093 83.8695 18.2622C83.4651 18.0151 83.1394 17.6706 82.8923 17.2288C82.6452 16.7795 82.5216 16.2553 82.5216 15.6563C82.5216 15.0498 82.6452 14.5256 82.8923 14.0838C83.1394 13.6345 83.4651 13.2863 83.8695 13.0392C84.2739 12.7921 84.7194 12.6685 85.2061 12.6685C85.6105 12.6685 85.9699 12.7508 86.2845 12.9156C86.6067 13.0804 86.8572 13.2975 87.0369 13.5671H87.1043V12.8482H88.2613V18.2735C88.2613 18.895 88.1377 19.4229 87.8906 19.8572C87.6513 20.2916 87.3178 20.621 86.8909 20.8457C86.4641 21.0703 85.9699 21.1826 85.4083 21.1826ZM85.4196 17.5321C85.7191 17.5321 85.9961 17.461 86.2508 17.3187C86.5056 17.169 86.7112 16.9556 86.8685 16.6785C87.0257 16.3939 87.1043 16.0532 87.1043 15.6563C87.1043 15.2444 87.0257 14.9 86.8685 14.6229C86.7112 14.3384 86.5056 14.125 86.2508 13.9827C85.9961 13.8404 85.7191 13.7693 85.4196 13.7693C85.12 13.7693 84.8392 13.8442 84.5771 13.9939C84.3225 14.1362 84.1166 14.3458 83.9593 14.6229C83.8021 14.9 83.7235 15.2444 83.7235 15.6563C83.7235 16.0607 83.8021 16.4052 83.9593 16.6897C84.1166 16.9668 84.3225 17.1764 84.5771 17.3187C84.8392 17.461 85.12 17.5321 85.4196 17.5321ZM89.6921 18.5767V10.5343H90.9052V18.5767H89.6921ZM94.897 18.7564C94.3354 18.7564 93.8343 18.6254 93.3919 18.3633C92.9504 18.1013 92.6022 17.7418 92.3473 17.285C92.1002 16.8282 91.9766 16.3078 91.9766 15.7237C91.9766 15.177 92.0967 14.6716 92.336 14.2073C92.5762 13.7431 92.9089 13.3724 93.3357 13.0953C93.7703 12.8108 94.268 12.6685 94.8296 12.6685C95.4215 12.6685 95.9235 12.7958 96.3348 13.0504C96.7547 13.305 97.0726 13.6532 97.2895 14.095C97.5073 14.5368 97.6153 15.0348 97.6153 15.5889C97.6153 15.6713 97.6118 15.7462 97.604 15.8136C97.604 15.881 97.6006 15.9334 97.5928 15.9708H93.1672C93.2277 16.54 93.4256 16.9668 93.7625 17.2513C94.1073 17.5358 94.497 17.6781 94.9307 17.6781C95.3204 17.6781 95.6427 17.592 95.8967 17.4198C96.1516 17.2401 96.3538 17.0191 96.5033 16.7571L97.5029 17.2401C97.2558 17.6894 96.9189 18.0563 96.492 18.3408C96.0652 18.6179 95.5338 18.7564 94.897 18.7564ZM94.8409 13.7019C94.4365 13.7019 94.0926 13.8254 93.8075 14.0725C93.5232 14.3197 93.3323 14.6491 93.2346 15.061H96.4134C96.3987 14.8663 96.3348 14.6641 96.2224 14.4544C96.1101 14.2447 95.9382 14.0688 95.7058 13.9265C95.4811 13.7768 95.1934 13.7019 94.8409 13.7019ZM106.72 9.59082H105.653C105.698 9.93902 105.709 10.1974 105.709 10.4332C105.709 10.6916 105.709 11.4891 105.709 11.9272H106.664C106.664 11.534 106.664 10.6916 106.664 10.4332C106.664 10.1974 106.675 9.93902 106.72 9.59082ZM110.551 11.7699L109.944 11.388C109.798 11.4329 109.596 11.4779 109.18 11.4779H103.227C102.834 11.4779 102.497 11.4554 102.171 11.4329C102.216 11.6688 102.216 12.0507 102.216 12.2866C102.216 12.6797 102.216 13.9041 102.216 14.2635C102.216 14.4881 102.205 14.7914 102.171 14.9824H103.149C103.126 14.8139 103.115 14.5106 103.115 14.3197C103.115 13.9715 103.115 12.7696 103.115 12.3091H109.382C109.281 13.2638 108.933 14.6229 108.327 15.5777C107.63 16.6448 106.406 17.476 105.271 17.8466C104.912 17.9814 104.485 18.0937 104.114 18.1611L104.845 18.9923C106.9 18.4307 108.45 17.285 109.281 15.8136C109.91 14.7465 110.236 13.3424 110.393 12.4438C110.427 12.2304 110.494 11.9272 110.551 11.7699ZM119.2 11.7137H118.245C118.29 11.9609 118.312 12.2529 118.312 12.4775C118.357 13.466 118.413 16.8357 118.413 18.1611C118.413 18.3745 118.312 18.4981 118.099 18.4981C117.773 18.4981 117.189 18.4532 116.728 18.3858L116.785 19.217C117.223 19.2394 117.964 19.2731 118.402 19.2731C118.896 19.2731 119.256 18.9923 119.256 18.5093C119.233 16.8806 119.177 13.466 119.155 12.4775C119.155 12.2192 119.155 11.9496 119.2 11.7137ZM114.134 13.3312V14.2298C114.403 14.2073 114.695 14.1961 114.987 14.1961C115.392 14.1961 120.413 14.1961 120.817 14.1961C121.03 14.1961 121.345 14.2073 121.536 14.2186V13.3312C121.379 13.3649 121.019 13.3874 120.783 13.3874C120.323 13.3874 115.448 13.3874 114.976 13.3874C114.707 13.3874 114.403 13.3761 114.134 13.3312ZM113.842 17.6332L114.46 18.3184C116.178 17.4198 118.02 15.7237 118.616 14.6229L118.604 13.949L118.144 13.9378C117.492 15.1172 115.65 16.7683 113.842 17.6332ZM125.613 18.2285L126.254 18.7789C126.433 18.6778 126.613 18.6217 126.725 18.588C129.533 17.768 131.847 16.3864 133.307 14.578L132.802 13.7917C131.398 15.6001 128.803 17.0716 126.647 17.622C126.647 17.0491 126.647 12.3091 126.647 11.242C126.647 10.9275 126.692 10.5006 126.725 10.2311H125.625C125.669 10.4445 125.714 10.9499 125.714 11.2532C125.714 12.3203 125.714 16.9705 125.714 17.6781C125.714 17.8916 125.692 18.0488 125.613 18.2285ZM139.777 12.1181L138.946 12.3989C139.182 12.8931 139.699 14.3197 139.822 14.8363L140.653 14.5331C140.519 14.0501 139.968 12.5674 139.777 12.1181ZM143.843 12.7471L142.877 12.4326C142.698 13.8704 142.125 15.3081 141.327 16.2853C140.406 17.431 138.969 18.2847 137.677 18.6666L138.418 19.4192C139.665 18.9474 141.035 18.0713 142.08 16.7571C142.877 15.7462 143.372 14.5331 143.664 13.2975C143.709 13.1515 143.765 12.9718 143.843 12.7471ZM137.16 12.6797L136.329 12.9942C136.554 13.3874 137.16 14.9487 137.34 15.5328L138.182 15.2182C137.98 14.6229 137.385 13.1515 137.16 12.6797ZM149.359 17.5883C149.359 18.0039 149.347 18.5655 149.291 18.9249H150.381C150.336 18.5543 150.313 17.9477 150.313 17.5883C150.313 17.0604 150.302 12.8033 150.302 11.0623C150.302 10.7141 150.336 10.2311 150.381 9.88286H149.28C149.336 10.2423 149.359 10.7365 149.359 11.0623C149.359 11.9946 149.359 16.9593 149.359 17.5883ZM150.1 12.837V13.8254C151.324 14.2073 153.425 15.0048 154.705 15.69L155.098 14.7353C153.852 14.1287 151.583 13.2638 150.1 12.837Z" fill="white"/>
<path d="M66.2994 25.9423L66.3141 27.132C67.9151 27.3083 70.7647 27.3083 72.3364 27.132V25.9423C70.8822 26.1626 67.9004 26.2214 66.2994 25.9423ZM66.8722 31.9352L65.8147 31.8324C65.6531 32.5374 65.5797 33.0662 65.5797 33.5509C65.5797 34.9316 66.6813 35.7542 69.1343 35.7542C70.6619 35.7542 71.8957 35.6367 72.8064 35.4457L72.777 34.2119C71.6019 34.491 70.4562 34.6085 69.149 34.6085C67.1366 34.6085 66.6666 33.9475 66.6666 33.2718C66.6666 32.8753 66.7401 32.464 66.8722 31.9352ZM63.5086 24.8113L62.2013 24.7084C62.1866 25.0316 62.1425 25.3988 62.0985 25.7366C61.9222 26.9558 61.4375 29.4675 61.4375 31.6267C61.4375 33.6244 61.6872 35.3135 61.981 36.3564L63.0239 36.283C63.0092 36.1214 62.9945 35.9158 62.9798 35.7689C62.9798 35.5926 63.0092 35.3135 63.0532 35.1079C63.1854 34.4029 63.7289 32.8606 64.0961 31.8177L63.4792 31.333C63.2295 31.9352 62.8917 32.8165 62.642 33.4775C62.5538 32.7577 62.5098 32.1408 62.5098 31.4358C62.5098 29.776 62.9651 27.1614 63.2442 25.7954C63.3029 25.531 63.4204 25.061 63.5086 24.8113ZM78.1383 29.3206H75.0097V30.3488H77.0661V34.5204H78.1383V29.3206ZM78.1383 34.0356H77.1395C76.3904 34.6672 75.5238 35.3135 74.8187 35.7836L75.4063 36.9146C76.1995 36.2683 76.9486 35.6367 77.6536 35.0051C78.5937 36.1655 79.9156 36.6796 81.8251 36.753C83.4556 36.8118 86.4961 36.7824 88.1118 36.7236C88.1559 36.3858 88.3468 35.857 88.4644 35.5926C86.7311 35.7101 83.4262 35.7542 81.8251 35.6954C80.136 35.622 78.8287 35.1226 78.1383 34.0356ZM75.1713 24.5469C76.126 25.1932 77.2276 26.192 77.6977 26.897L78.5643 26.1773C78.0502 25.4576 76.9486 24.5028 75.9791 23.8859L75.1713 24.5469ZM80.3122 25.061V25.9863H85.7617V27.9693H80.3122V28.9094H86.8339V25.061H80.3122ZM82.7065 23.4746C82.5889 24.0475 82.3246 24.87 82.1042 25.4282L83.1177 25.6485C83.3674 25.1491 83.6906 24.4 83.9697 23.6802L82.7065 23.4746ZM79.7834 25.061V34.491H80.8557V25.061H79.7834ZM80.371 30.3048V31.2448H86.3345V33.5362H80.371V34.491H87.4215V30.3048H80.371ZM97.8797 34.6673V35.7395H101.875V34.6673H97.8797ZM89.7716 26.3095V27.3818H95.412V26.3095H89.7716ZM97.3803 25.3547V36.8118H98.4525V26.4123H101.287V36.709H102.404V25.3547H97.3803ZM95.1182 26.3095V26.5739C95.0154 32.8606 94.8832 35.0345 94.5454 35.4898C94.4132 35.6808 94.281 35.7248 94.0607 35.7101C93.7816 35.7101 93.15 35.7101 92.4596 35.6514C92.6506 35.9598 92.7681 36.4446 92.7828 36.7677C93.4438 36.8118 94.1194 36.8118 94.5307 36.753C94.9714 36.709 95.2358 36.5768 95.5001 36.1949C95.9702 35.5486 96.073 33.404 96.1905 26.8677C96.1905 26.7208 96.1905 26.3095 96.1905 26.3095H95.1182ZM91.8574 23.7243C91.8427 28.8653 91.8574 33.7125 89.4044 36.2977C89.6835 36.4592 90.0654 36.7971 90.2563 37.0468C92.8415 34.2413 92.915 29.1444 92.9297 23.7243H91.8574ZM112.891 24.2237H111.54C111.569 24.3559 111.613 24.7672 111.643 25.1638C111.687 25.9717 111.702 28.8947 111.702 29.541L112.818 30.1138C112.803 28.9387 112.774 26.1039 112.818 25.1491C112.818 24.9728 112.862 24.4 112.891 24.2237ZM105.077 26.2801L105.106 27.4111C107.324 27.2496 110.468 27.1467 112.994 27.1467C115.153 27.1467 116.475 27.1761 117.298 27.2202L117.313 26.1332C116.622 26.1185 114.801 26.1185 113.009 26.1185C110.747 26.1185 107.075 26.2507 105.077 26.2801ZM112.789 30.5398L111.981 30.1285C112.216 31.7002 111.628 32.464 110.717 32.464C109.91 32.464 109.219 31.9352 109.219 31.0098C109.219 30.0551 109.939 29.4528 110.717 29.4528C111.511 29.4528 112.157 30.011 112.157 31.333C112.157 33.7566 110.6 35.0638 107.927 35.6954L108.911 36.6502C112.318 35.6367 113.288 33.4334 113.288 31.4358C113.288 29.7466 112.421 28.4834 110.717 28.4834C109.322 28.4834 108.118 29.5703 108.118 31.0245C108.118 32.6256 109.307 33.4922 110.541 33.4922C111.878 33.4922 112.789 32.508 112.789 30.5398ZM121.866 25.0463L121.895 26.2507C122.219 26.2067 122.542 26.192 122.88 26.1626C123.643 26.1185 126.581 26.001 127.36 25.957C126.625 26.6179 124.774 28.1602 123.952 28.8359C123.115 29.5557 121.22 31.142 120.001 32.1408L120.853 32.9928C122.703 31.0979 124.025 30.0697 126.464 30.0697C128.388 30.0697 129.768 31.142 129.768 32.5962C129.768 34.4322 128.197 35.4604 125.7 35.4604C124.539 35.4604 123.731 35.0345 123.731 34.3147C123.731 33.8006 124.246 33.3894 124.921 33.3894C126.096 33.3894 126.816 34.2853 126.904 35.5339L127.962 35.3576C127.859 33.8741 126.875 32.4934 124.921 32.4934C123.57 32.4934 122.659 33.404 122.659 34.4029C122.659 35.6367 123.878 36.5033 125.876 36.5033C128.99 36.5033 130.944 34.961 130.944 32.5962C130.944 30.6132 129.196 29.1591 126.757 29.1591C126.096 29.1591 125.391 29.2325 124.716 29.4528C125.861 28.5128 127.859 26.7942 128.579 26.236C128.858 26.0157 129.152 25.8248 129.416 25.6485L128.74 24.7819C128.579 24.8406 128.373 24.87 127.932 24.9141C127.154 24.9875 123.673 25.0903 122.894 25.0903C122.6 25.0903 122.189 25.0757 121.866 25.0463Z" fill="white"/>
<path d="M149.911 0.431641H23.7624C10.8783 0.431641 0.433594 10.8763 0.433594 23.7604C0.433594 36.6446 10.8783 47.0893 23.7624 47.0893H149.911C162.795 47.0893 173.24 36.6446 173.24 23.7604C173.24 10.8763 162.795 0.431641 149.911 0.431641Z" stroke="#747775"/>
</g>
<defs>
<linearGradient id="paint0_linear_568_511" x1="32.2147" y1="29.4158" x2="16.2284" y2="48.1462" gradientUnits="userSpaceOnUse">
<stop stop-color="#4285F4"/>
<stop offset="1" stop-color="#1B74E8"/>
</linearGradient>
<clipPath id="clip0_568_511">
<rect width="173.67" height="47.5216" fill="white"/>
</clipPath>
</defs>
</svg>
