<svg width="174" height="45" viewBox="0 0 174 45" fill="none" xmlns="http://www.w3.org/2000/svg">
<g clip-path="url(#clip0_568_762)">
<path d="M151.246 0.407227H22.4208C10.2625 0.407227 0.40625 10.2635 0.40625 22.4217C0.40625 34.58 10.2625 44.4362 22.4208 44.4362H151.246C163.405 44.4362 173.261 34.58 173.261 22.4217C173.261 10.2635 163.405 0.407227 151.246 0.407227Z" fill="#1F1F1F"/>
<path d="M46.4738 19.3984H17.1211V14.7955C17.1211 12.2966 19.2754 10.1924 21.8337 10.1924H41.7612C44.3194 10.1924 46.4738 12.2966 46.4738 14.7955V19.3984Z" fill="#34A853"/>
<path d="M46.4738 23.6456H17.1211V18.7534C17.1211 16.0978 19.2754 13.8613 21.8337 13.8613H41.7612C44.3194 13.8613 46.4738 16.0978 46.4738 18.7534V23.6456Z" fill="#FBBC04"/>
<path d="M46.4738 27.7217H17.1211V22.8296C17.1211 20.1739 19.2754 17.9375 21.8337 17.9375H41.7612C44.3194 17.9375 46.4738 20.1739 46.4738 22.8296V27.7217Z" fill="#EA4335"/>
<path d="M17.1211 20.5804L35.7513 24.7889C37.8959 25.315 40.3084 24.7889 42.0507 23.4738L46.4738 20.3174V30.181C46.4738 32.6798 44.3293 34.6526 41.7827 34.6526H21.8121C19.2656 34.6526 17.1211 32.6798 17.1211 30.181V20.5804Z" fill="url(#paint0_linear_568_762)"/>
<path d="M57.1172 17.5297V9.94039H59.5445C60.343 9.94039 61.0284 10.1029 61.6008 10.428C62.1803 10.746 62.6255 11.1911 62.9364 11.7635C63.2543 12.3359 63.4133 12.9931 63.4133 13.735C63.4133 14.4841 63.2543 15.1448 62.9364 15.7172C62.6255 16.2824 62.1803 16.7276 61.6008 17.0527C61.0284 17.3707 60.343 17.5297 59.5445 17.5297H57.1172ZM58.2831 16.4273H59.5127C60.3748 16.4273 61.0425 16.187 61.516 15.7066C61.9965 15.2261 62.2368 14.5689 62.2368 13.735C62.2368 12.9012 61.9965 12.244 61.516 11.7635C61.0425 11.283 60.3748 11.0427 59.5127 11.0427H58.2831V16.4273ZM66.9438 17.6993C66.3855 17.6993 65.8944 17.5721 65.4705 17.3177C65.0465 17.0633 64.7144 16.7206 64.4741 16.2895C64.2338 15.8585 64.1137 15.3709 64.1137 14.8268C64.1137 14.2897 64.2338 13.8057 64.4741 13.3746C64.7144 12.9366 65.0465 12.5903 65.4705 12.3359C65.8944 12.0815 66.3855 11.9543 66.9438 11.9543C67.495 11.9543 67.9826 12.0815 68.4066 12.3359C68.8305 12.5903 69.1626 12.9366 69.4029 13.3746C69.6432 13.8057 69.7633 14.2897 69.7633 14.8268C69.7633 15.3709 69.6432 15.8585 69.4029 16.2895C69.1626 16.7206 68.8305 17.0633 68.4066 17.3177C67.9826 17.5721 67.495 17.6993 66.9438 17.6993ZM66.9438 16.6499C67.2406 16.6499 67.5162 16.5792 67.7706 16.4379C68.025 16.2895 68.2299 16.081 68.3854 15.8126C68.5479 15.537 68.6291 15.2084 68.6291 14.8268C68.6291 14.4452 68.5479 14.1201 68.3854 13.8516C68.2299 13.576 68.025 13.3676 67.7706 13.2263C67.5162 13.0779 67.2406 13.0037 66.9438 13.0037C66.647 13.0037 66.3679 13.0779 66.1064 13.2263C65.8521 13.3676 65.6436 13.576 65.4811 13.8516C65.3256 14.1201 65.2479 14.4452 65.2479 14.8268C65.2479 15.2084 65.3256 15.537 65.4811 15.8126C65.6436 16.081 65.8521 16.2895 66.1064 16.4379C66.3679 16.5792 66.647 16.6499 66.9438 16.6499ZM73.1283 17.6993C72.6408 17.6993 72.1991 17.5792 71.8034 17.3389C71.4147 17.0916 71.1038 16.7524 70.8706 16.3213C70.6445 15.8832 70.5314 15.3851 70.5314 14.8268C70.5314 14.2685 70.6445 13.7739 70.8706 13.3429C71.1038 12.9118 71.4147 12.5726 71.8034 12.3253C72.1991 12.078 72.6408 11.9543 73.1283 11.9543C73.5452 11.9543 73.9021 12.0462 74.1989 12.2299C74.5028 12.4136 74.7254 12.6221 74.8667 12.8553H74.9303L74.8667 12.1027V9.94039H76.0008V17.5297H74.9303V16.8089H74.8667C74.7254 17.0421 74.5028 17.2506 74.1989 17.4343C73.9021 17.611 73.5452 17.6993 73.1283 17.6993ZM73.2979 16.6499C73.5806 16.6499 73.8456 16.5757 74.0929 16.4273C74.3473 16.2789 74.5487 16.0704 74.6971 15.802C74.8526 15.5264 74.9303 15.2013 74.9303 14.8268C74.9303 14.4523 74.8526 14.1307 74.6971 13.8622C74.5487 13.5866 74.3473 13.3746 74.0929 13.2263C73.8456 13.0779 73.5806 13.0037 73.2979 13.0037C73.0153 13.0037 72.7503 13.0779 72.503 13.2263C72.2557 13.3746 72.0543 13.5866 71.8988 13.8622C71.7433 14.1307 71.6656 14.4523 71.6656 14.8268C71.6656 15.2013 71.7433 15.5264 71.8988 15.802C72.0543 16.0704 72.2557 16.2789 72.503 16.4273C72.7503 16.5757 73.0153 16.6499 73.2979 16.6499ZM78.9934 17.6993C78.6047 17.6993 78.2585 17.6251 77.9547 17.4767C77.6508 17.3212 77.4141 17.1057 77.2445 16.8301C77.0749 16.5545 76.9901 16.24 76.9901 15.8867C76.9901 15.5052 77.089 15.1801 77.2869 14.9116C77.4918 14.636 77.7639 14.4275 78.103 14.2862C78.4422 14.1449 78.8167 14.0742 79.2266 14.0742C79.5658 14.0742 79.8626 14.106 80.117 14.1696C80.3784 14.2332 80.5763 14.3003 80.7105 14.371V14.0848C80.7105 13.7315 80.5833 13.4488 80.329 13.2369C80.0746 13.0249 79.746 12.9189 79.3432 12.9189C79.0676 12.9189 78.8061 12.9825 78.5588 13.1097C78.3115 13.2298 78.1136 13.3958 77.9653 13.6078L77.1809 13.0037C77.4141 12.6786 77.7215 12.4242 78.103 12.2405C78.4916 12.0497 78.9156 11.9543 79.375 11.9543C80.1594 11.9543 80.7635 12.1486 81.1875 12.5373C81.6112 12.9189 81.8232 13.4559 81.8232 14.1484V17.5297H80.7105V16.8619H80.6469C80.5056 17.081 80.2936 17.2753 80.011 17.4449C79.7283 17.6145 79.3891 17.6993 78.9934 17.6993ZM79.1948 16.7665C79.4916 16.7665 79.753 16.6958 79.9792 16.5545C80.2053 16.4132 80.382 16.2294 80.5092 16.0033C80.6434 15.7702 80.7105 15.5193 80.7105 15.2508C80.548 15.1589 80.3572 15.0847 80.1382 15.0282C79.9191 14.9646 79.6859 14.9328 79.4386 14.9328C78.9722 14.9328 78.64 15.0282 78.4422 15.219C78.2443 15.4027 78.1454 15.6289 78.1454 15.8973C78.1454 16.1517 78.2408 16.3602 78.4316 16.5227C78.6224 16.6852 78.8768 16.7665 79.1948 16.7665ZM83.7409 11.3289C83.5289 11.3289 83.3454 11.2547 83.1897 11.1063C83.0413 10.9509 82.9671 10.7672 82.9671 10.5552C82.9671 10.3432 83.0413 10.163 83.1897 10.0146C83.3454 9.86619 83.5289 9.79199 83.7409 9.79199C83.9529 9.79199 84.1331 9.86619 84.2815 10.0146C84.4372 10.163 84.5146 10.3432 84.5146 10.5552C84.5146 10.7672 84.4372 10.9509 84.2815 11.1063C84.1331 11.2547 83.9529 11.3289 83.7409 11.3289ZM82.7127 19.9252C82.4934 19.9252 82.2961 19.9005 82.1191 19.851V18.7486C82.1901 18.791 82.2708 18.8228 82.3629 18.844C82.4477 18.8723 82.5325 18.8864 82.6173 18.8864C82.822 18.8864 82.9638 18.8228 83.0413 18.6956C83.1261 18.5755 83.1685 18.3988 83.1685 18.1657V12.1239H84.3133V18.1763C84.3133 18.7981 84.1616 19.2433 83.8575 19.5118C83.5533 19.7874 83.1718 19.9252 82.7127 19.9252ZM90.5181 17.6993C90.0305 17.6993 89.5894 17.5792 89.1931 17.3389C88.805 17.0916 88.4936 16.7524 88.2604 16.3213C88.0345 15.8832 87.9212 15.3851 87.9212 14.8268C87.9212 14.2685 88.0345 13.7739 88.2604 13.3429C88.4936 12.9118 88.805 12.5726 89.1931 12.3253C89.5894 12.078 90.0305 11.9543 90.5181 11.9543C90.9355 11.9543 91.2919 12.0462 91.5886 12.2299C91.8928 12.4136 92.1154 12.6221 92.2564 12.8553H92.32L92.2564 12.1027V9.94039H93.3906V17.5297H92.32V16.8089H92.2564C92.1154 17.0421 91.8928 17.2506 91.5886 17.4343C91.2919 17.611 90.9355 17.6993 90.5181 17.6993ZM90.6877 16.6499C90.9706 16.6499 91.2356 16.5757 91.4826 16.4273C91.737 16.2789 91.9384 16.0704 92.0868 15.802C92.2426 15.5264 92.32 15.2013 92.32 14.8268C92.32 14.4523 92.2426 14.1307 92.0868 13.8622C91.9384 13.5866 91.737 13.3746 91.4826 13.2263C91.2356 13.0779 90.9706 13.0037 90.6877 13.0037C90.4056 13.0037 90.1406 13.0779 89.8927 13.2263C89.6457 13.3746 89.4443 13.5866 89.2885 13.8622C89.1336 14.1307 89.0553 14.4523 89.0553 14.8268C89.0553 15.2013 89.1336 15.5264 89.2885 15.802C89.4443 16.0704 89.6457 16.2789 89.8927 16.4273C90.1406 16.5757 90.4056 16.6499 90.6877 16.6499ZM97.2317 17.6993C96.6732 17.6993 96.1823 17.5721 95.7584 17.3177C95.3344 17.0633 95.0017 16.7206 94.762 16.2895C94.5215 15.8585 94.4016 15.3709 94.4016 14.8268C94.4016 14.2897 94.5215 13.8057 94.762 13.3746C95.0017 12.9366 95.3344 12.5903 95.7584 12.3359C96.1823 12.0815 96.6732 11.9543 97.2317 11.9543C97.7829 11.9543 98.2705 12.0815 98.6944 12.3359C99.1184 12.5903 99.4503 12.9366 99.6908 13.3746C99.9305 13.8057 100.051 14.2897 100.051 14.8268C100.051 15.3709 99.9305 15.8585 99.6908 16.2895C99.4503 16.7206 99.1184 17.0633 98.6944 17.3177C98.2705 17.5721 97.7829 17.6993 97.2317 17.6993ZM97.2317 16.6499C97.5285 16.6499 97.8041 16.5792 98.0585 16.4379C98.3129 16.2895 98.5175 16.081 98.6732 15.8126C98.8355 15.537 98.917 15.2084 98.917 14.8268C98.917 14.4452 98.8355 14.1201 98.6732 13.8516C98.5175 13.576 98.3129 13.3676 98.0585 13.2263C97.8041 13.0779 97.5285 13.0037 97.2317 13.0037C96.9349 13.0037 96.6552 13.0779 96.3943 13.2263C96.1399 13.3676 95.9312 13.576 95.769 13.8516C95.6132 14.1201 95.5358 14.4452 95.5358 14.8268C95.5358 15.2084 95.6132 15.537 95.769 15.8126C95.9312 16.081 96.1399 16.2895 96.3943 16.4379C96.6552 16.5792 96.9349 16.6499 97.2317 16.6499Z" fill="white"/>
<path d="M57.3828 33.8367V23.9122H60.7926C61.3933 23.9122 61.9384 24.0416 62.4282 24.3003C62.918 24.559 63.3061 24.9148 63.5925 25.3676C63.8883 25.8204 64.0361 26.3471 64.0361 26.9478C64.0361 27.5484 63.8883 28.0797 63.5925 28.5418C63.3061 28.9945 62.918 29.3504 62.4282 29.6091C61.9384 29.8586 61.3933 29.9833 60.7926 29.9833H58.9075V33.8367H57.3828ZM60.8342 25.3537H58.9075V28.5418H60.8342C61.1946 28.5418 61.4995 28.4678 61.749 28.32C61.9985 28.1629 62.1879 27.9643 62.3173 27.724C62.4559 27.4745 62.5252 27.2158 62.5252 26.9478C62.5252 26.6798 62.4559 26.4257 62.3173 26.1854C62.1879 25.9451 61.9985 25.7465 61.749 25.5894C61.4995 25.4323 61.1946 25.3537 60.8342 25.3537ZM68.1891 34.0584C67.4591 34.0584 66.8168 33.8921 66.2624 33.5595C65.708 33.2268 65.2736 32.7786 64.9595 32.2149C64.6453 31.6513 64.4882 31.0137 64.4882 30.3021C64.4882 29.5999 64.6453 28.9668 64.9595 28.4032C65.2736 27.8302 65.708 27.3775 66.2624 27.0448C66.8168 26.7121 67.4591 26.5458 68.1891 26.5458C68.9099 26.5458 69.5475 26.7121 70.1019 27.0448C70.6563 27.3775 71.0907 27.8302 71.4048 28.4032C71.719 28.9668 71.8761 29.5999 71.8761 30.3021C71.8761 31.0137 71.719 31.6513 71.4048 32.2149C71.0907 32.7786 70.6563 33.2268 70.1019 33.5595C69.5475 33.8921 68.9099 34.0584 68.1891 34.0584ZM68.1891 32.6862C68.5772 32.6862 68.9376 32.5938 69.2702 32.409C69.6029 32.2149 69.8709 31.9424 70.0742 31.5912C70.2867 31.2308 70.393 30.8011 70.393 30.3021C70.393 29.8031 70.2867 29.3781 70.0742 29.0269C69.8709 28.6665 69.6029 28.394 69.2702 28.2091C68.9376 28.0151 68.5772 27.918 68.1891 27.918C67.801 27.918 67.4359 28.0151 67.0941 28.2091C66.7614 28.394 66.4888 28.6665 66.2763 29.0269C66.073 29.3781 65.9713 29.8031 65.9713 30.3021C65.9713 30.8011 66.073 31.2308 66.2763 31.5912C66.4888 31.9424 66.7614 32.2149 67.0941 32.409C67.4359 32.5938 67.801 32.6862 68.1891 32.6862ZM79.4816 31.7852V28.0705H78.248V26.7676H79.4816V24.7716H80.9786V26.7676H82.7109V28.0705H80.9786V31.4664C80.9786 31.8176 81.0479 32.0855 81.1865 32.2704C81.3344 32.4552 81.5792 32.5476 81.9208 32.5476C82.097 32.5476 82.2445 32.5245 82.3644 32.4783C82.494 32.4321 82.6237 32.3674 82.7525 32.2842V33.7396C82.5959 33.8043 82.4296 33.8552 82.2535 33.8921C82.0782 33.9291 81.8752 33.9476 81.6436 33.9476C80.9786 33.9476 80.4519 33.7582 80.0638 33.3793C79.6757 32.9912 79.4816 32.4598 79.4816 31.7852ZM73.1194 33.8367V26.7676H74.5333V27.8071H74.6164C74.8013 27.419 75.0877 27.1187 75.4758 26.9062C75.8639 26.6844 76.2844 26.5735 76.7372 26.5735C76.9959 26.5735 77.19 26.592 77.3193 26.629V28.1259C77.116 28.0613 76.8666 28.0289 76.5708 28.0289C75.9794 28.0289 75.5035 28.2183 75.1431 28.5972C74.7921 28.9761 74.6164 29.489 74.6164 30.1358V33.8367H73.1194ZM85.104 33.8367V28.0705H83.8149V26.7676H85.104V26.1854C85.104 25.6864 85.2108 25.2614 85.4228 24.9102C85.6356 24.5498 85.9218 24.2772 86.2822 24.0924C86.6523 23.8983 87.0682 23.8013 87.5296 23.8013C87.7791 23.8013 87.992 23.8198 88.1673 23.8568C88.3523 23.8845 88.5048 23.9214 88.6247 23.9676V25.4231C88.5048 25.3768 88.3662 25.3307 88.2088 25.2844C88.0613 25.229 87.8762 25.2013 87.6544 25.2013C87.3682 25.2013 87.1187 25.2983 86.9059 25.4924C86.6939 25.6772 86.5871 25.9498 86.5871 26.3102V26.7676H88.3613V28.0705H86.5871V33.8367H85.104ZM92.5922 34.0584C91.8991 34.0584 91.2803 33.8968 90.7348 33.5733C90.1901 33.2499 89.7604 32.8063 89.4457 32.2427C89.1408 31.679 88.9883 31.0368 88.9883 30.316C88.9883 29.6414 89.1367 29.0177 89.4319 28.4447C89.7278 27.8718 90.1388 27.4144 90.6655 27.0725C91.202 26.7213 91.8159 26.5458 92.509 26.5458C93.2396 26.5458 93.8584 26.7029 94.3664 27.0171C94.8841 27.3312 95.2771 27.7609 95.5446 28.3061C95.8128 28.8514 95.9465 29.4658 95.9465 30.1497C95.9465 30.2513 95.9424 30.3437 95.9327 30.4269C95.9327 30.51 95.9286 30.5747 95.9188 30.6209H90.4576C90.5318 31.3232 90.7764 31.8499 91.1922 32.2011C91.6178 32.5522 92.0981 32.7278 92.6337 32.7278C93.1148 32.7278 93.5119 32.6216 93.8258 32.409C94.1405 32.1872 94.39 31.9146 94.5743 31.5912L95.8079 32.1872C95.503 32.7417 95.0871 33.1944 94.5604 33.5456C94.0337 33.8875 93.3782 34.0584 92.5922 34.0584ZM92.5229 27.821C92.0239 27.821 91.5991 27.9735 91.2477 28.2784C90.8971 28.5834 90.6614 28.99 90.5407 29.4982H94.4634C94.4455 29.2579 94.3664 29.0084 94.2278 28.7497C94.0892 28.491 93.8772 28.2738 93.5902 28.0982C93.3129 27.9134 92.9574 27.821 92.5229 27.821ZM97.3497 33.8367V23.9122H98.8467V33.8367H97.3497ZM102.761 34.0584C102.253 34.0584 101.801 33.9614 101.403 33.7674C101.006 33.5641 100.696 33.2822 100.474 32.9218C100.252 32.5615 100.142 32.1503 100.142 31.6882C100.142 31.1892 100.271 30.7642 100.53 30.413C100.798 30.0526 101.153 29.7801 101.597 29.5952C102.04 29.4104 102.53 29.318 103.066 29.318C103.51 29.318 103.898 29.3596 104.231 29.4427C104.573 29.5259 104.831 29.6137 105.007 29.7061V29.3319C105.007 28.8698 104.84 28.5002 104.508 28.223C104.175 27.9458 103.745 27.8071 103.219 27.8071C102.858 27.8071 102.517 27.8903 102.193 28.0566C101.87 28.2138 101.611 28.4309 101.417 28.7081L100.391 27.918C100.696 27.493 101.098 27.1603 101.597 26.92C102.106 26.6705 102.66 26.5458 103.26 26.5458C104.286 26.5458 105.076 26.7999 105.63 27.3081C106.185 27.8071 106.462 28.5094 106.462 29.415V33.8367H105.007V32.9634H104.924C104.739 33.2499 104.462 33.504 104.092 33.7258C103.723 33.9476 103.279 34.0584 102.761 34.0584ZM103.025 32.8387C103.413 32.8387 103.755 32.7463 104.05 32.5615C104.346 32.3766 104.577 32.1364 104.743 31.8407C104.919 31.5357 105.007 31.2077 105.007 30.8566C104.795 30.7365 104.545 30.6394 104.258 30.5655C103.972 30.4823 103.667 30.4407 103.343 30.4407C102.734 30.4407 102.3 30.5655 102.04 30.815C101.782 31.0553 101.652 31.3509 101.652 31.7021C101.652 32.0347 101.777 32.3073 102.027 32.5199C102.276 32.7324 102.609 32.8387 103.025 32.8387ZM116.023 34.0584C115.312 34.0584 114.642 33.9291 114.013 33.6703C113.394 33.4116 112.845 33.0512 112.364 32.5892C111.883 32.1179 111.504 31.5681 111.227 30.9397C110.96 30.3021 110.825 29.6137 110.825 28.8744C110.825 28.1352 110.96 27.4514 111.227 26.823C111.504 26.1854 111.879 25.6356 112.35 25.1736C112.831 24.7023 113.385 24.3372 114.013 24.0785C114.642 23.8198 115.312 23.6904 116.023 23.6904C116.781 23.6904 117.478 23.8244 118.116 24.0924C118.763 24.3604 119.304 24.7347 119.738 25.2151L118.684 26.2547C118.361 25.8943 117.973 25.6171 117.52 25.4231C117.076 25.229 116.577 25.132 116.023 25.132C115.367 25.132 114.762 25.2891 114.207 25.6032C113.653 25.9082 113.205 26.3425 112.863 26.9062C112.53 27.4606 112.364 28.1167 112.364 28.8744C112.364 29.6321 112.535 30.2929 112.876 30.8566C113.219 31.411 113.667 31.8453 114.221 32.1595C114.775 32.4644 115.381 32.6169 116.037 32.6169C116.638 32.6169 117.183 32.506 117.672 32.2842C118.162 32.0533 118.555 31.7298 118.851 31.314C119.156 30.8981 119.341 30.3991 119.405 29.817H116.009V28.4725H120.833C120.888 28.722 120.916 28.9853 120.916 29.2625V29.2764C120.916 30.2375 120.704 31.0783 120.278 31.7991C119.862 32.5107 119.285 33.0651 118.546 33.4624C117.807 33.8597 116.965 34.0584 116.023 34.0584ZM125.379 34.0584C124.649 34.0584 124.007 33.8921 123.452 33.5595C122.898 33.2268 122.463 32.7786 122.149 32.2149C121.836 31.6513 121.678 31.0137 121.678 30.3021C121.678 29.5999 121.836 28.9668 122.149 28.4032C122.463 27.8302 122.898 27.3775 123.452 27.0448C124.007 26.7121 124.649 26.5458 125.379 26.5458C126.1 26.5458 126.737 26.7121 127.292 27.0448C127.846 27.3775 128.281 27.8302 128.595 28.4032C128.909 28.9668 129.066 29.5999 129.066 30.3021C129.066 31.0137 128.909 31.6513 128.595 32.2149C128.281 32.7786 127.846 33.2268 127.292 33.5595C126.737 33.8921 126.1 34.0584 125.379 34.0584ZM125.379 32.6862C125.767 32.6862 126.128 32.5938 126.46 32.409C126.793 32.2149 127.061 31.9424 127.264 31.5912C127.477 31.2308 127.583 30.8011 127.583 30.3021C127.583 29.8031 127.477 29.3781 127.264 29.0269C127.061 28.6665 126.793 28.394 126.46 28.2091C126.128 28.0151 125.767 27.918 125.379 27.918C124.991 27.918 124.626 28.0151 124.284 28.2091C123.951 28.394 123.679 28.6665 123.466 29.0269C123.263 29.3781 123.161 29.8031 123.161 30.3021C123.161 30.8011 123.263 31.2308 123.466 31.5912C123.679 31.9424 123.951 32.2149 124.284 32.409C124.626 32.5938 124.991 32.6862 125.379 32.6862ZM133.772 34.0584C133.042 34.0584 132.399 33.8921 131.845 33.5595C131.29 33.2268 130.856 32.7786 130.542 32.2149C130.228 31.6513 130.071 31.0137 130.071 30.3021C130.071 29.5999 130.228 28.9668 130.542 28.4032C130.856 27.8302 131.29 27.3775 131.845 27.0448C132.399 26.7121 133.042 26.5458 133.772 26.5458C134.492 26.5458 135.13 26.7121 135.684 27.0448C136.239 27.3775 136.673 27.8302 136.987 28.4032C137.301 28.9668 137.459 29.5999 137.459 30.3021C137.459 31.0137 137.301 31.6513 136.987 32.2149C136.673 32.7786 136.239 33.2268 135.684 33.5595C135.13 33.8921 134.492 34.0584 133.772 34.0584ZM133.772 32.6862C134.16 32.6862 134.52 32.5938 134.853 32.409C135.185 32.2149 135.454 31.9424 135.657 31.5912C135.869 31.2308 135.975 30.8011 135.975 30.3021C135.975 29.8031 135.869 29.3781 135.657 29.0269C135.454 28.6665 135.185 28.394 134.853 28.2091C134.52 28.0151 134.16 27.918 133.772 27.918C133.383 27.918 133.018 28.0151 132.677 28.2091C132.344 28.394 132.072 28.6665 131.859 29.0269C131.656 29.3781 131.554 29.8031 131.554 30.3021C131.554 30.8011 131.656 31.2308 131.859 31.5912C132.072 31.9424 132.344 32.2149 132.677 32.409C133.018 32.5938 133.383 32.6862 133.772 32.6862ZM142.025 37.0524C141.406 37.0524 140.87 36.9507 140.417 36.7475C139.974 36.5534 139.614 36.2993 139.336 35.9851C139.059 35.6802 138.86 35.366 138.74 35.0426L140.126 34.4604C140.274 34.83 140.51 35.1304 140.833 35.3614C141.166 35.6017 141.563 35.7218 142.025 35.7218C142.672 35.7218 143.181 35.5277 143.55 35.1396C143.929 34.7515 144.118 34.2017 144.118 33.4901V32.811H144.035C143.813 33.1436 143.504 33.4116 143.106 33.6149C142.718 33.809 142.275 33.906 141.776 33.906C141.175 33.906 140.625 33.7535 140.126 33.4486C139.627 33.1436 139.225 32.7186 138.92 32.1734C138.616 31.6189 138.463 30.9721 138.463 30.2328C138.463 29.4843 138.616 28.8375 138.92 28.2923C139.225 27.7378 139.627 27.3081 140.126 27.0032C140.625 26.6983 141.175 26.5458 141.776 26.5458C142.275 26.5458 142.718 26.6475 143.106 26.8507C143.504 27.054 143.813 27.322 144.035 27.6547H144.118V26.7676H145.546V33.4624C145.546 34.2294 145.394 34.8809 145.089 35.4168C144.793 35.9528 144.382 36.3594 143.855 36.6366C143.328 36.9138 142.718 37.0524 142.025 37.0524ZM142.039 32.5476C142.409 32.5476 142.751 32.4598 143.065 32.2842C143.379 32.0994 143.633 31.836 143.827 31.4942C144.021 31.143 144.118 30.7226 144.118 30.2328C144.118 29.7246 144.021 29.2995 143.827 28.9576C143.633 28.6064 143.379 28.3431 143.065 28.1675C142.751 27.992 142.409 27.9042 142.039 27.9042C141.67 27.9042 141.323 27.9965 141 28.1814C140.686 28.3569 140.431 28.6157 140.237 28.9576C140.043 29.2995 139.946 29.7246 139.946 30.2328C139.946 30.7318 140.043 31.1569 140.237 31.508C140.431 31.8499 140.686 32.1087 141 32.2842C141.323 32.4598 141.67 32.5476 142.039 32.5476ZM147.311 33.8367V23.9122H148.808V33.8367H147.311ZM153.735 34.0584C153.042 34.0584 152.423 33.8968 151.878 33.5733C151.333 33.2499 150.903 32.8063 150.589 32.2427C150.284 31.679 150.132 31.0368 150.132 30.316C150.132 29.6414 150.279 29.0177 150.575 28.4447C150.87 27.8718 151.282 27.4144 151.809 27.0725C152.344 26.7213 152.959 26.5458 153.652 26.5458C154.382 26.5458 155.001 26.7029 155.51 27.0171C156.027 27.3312 156.42 27.7609 156.688 28.3061C156.955 28.8514 157.09 29.4658 157.09 30.1497C157.09 30.2513 157.085 30.3437 157.076 30.4269C157.076 30.51 157.071 30.5747 157.062 30.6209H151.601C151.674 31.3232 151.92 31.8499 152.335 32.2011C152.76 32.5522 153.241 32.7278 153.777 32.7278C154.257 32.7278 154.654 32.6216 154.969 32.409C155.283 32.1872 155.532 31.9146 155.718 31.5912L156.951 32.1872C156.646 32.7417 156.23 33.1944 155.704 33.5456C155.177 33.8875 154.521 34.0584 153.735 34.0584ZM153.666 27.821C153.167 27.821 152.742 27.9735 152.391 28.2784C152.039 28.5834 151.804 28.99 151.684 29.4982H155.607C155.588 29.2579 155.51 29.0084 155.371 28.7497C155.232 28.491 155.02 28.2738 154.733 28.0982C154.456 27.9134 154.1 27.821 153.666 27.821Z" fill="white"/>
<path d="M151.246 0.407227H22.4208C10.2625 0.407227 0.40625 10.2635 0.40625 22.4217C0.40625 34.58 10.2625 44.4362 22.4208 44.4362H151.246C163.405 44.4362 173.261 34.58 173.261 22.4217C173.261 10.2635 163.405 0.407227 151.246 0.407227Z" stroke="#747775"/>
</g>
<defs>
<linearGradient id="paint0_linear_568_762" x1="30.3985" y1="27.7587" x2="15.3129" y2="45.4338" gradientUnits="userSpaceOnUse">
<stop stop-color="#4285F4"/>
<stop offset="1" stop-color="#1B74E8"/>
</linearGradient>
<clipPath id="clip0_568_762">
<rect width="173.67" height="44.8444" fill="white"/>
</clipPath>
</defs>
</svg>
