<svg width="174" height="48" viewBox="0 0 174 48" fill="none" xmlns="http://www.w3.org/2000/svg">
<g clip-path="url(#clip0_568_331)">
<path d="M149.672 0.436523H24.0008C10.9871 0.436523 0.4375 10.9862 0.4375 23.9998C0.4375 37.0134 10.9871 47.563 24.0008 47.563H149.672C162.685 47.563 173.235 37.0134 173.235 23.9998C173.235 10.9862 162.685 0.436523 149.672 0.436523Z" fill="#1F1F1F"/>
<path d="M49.7458 20.7629H18.3281V15.8361C18.3281 13.1615 20.634 10.9092 23.3722 10.9092H44.7017C47.4399 10.9092 49.7458 13.1615 49.7458 15.8361V20.7629Z" fill="#34A853"/>
<path d="M49.7458 25.3085H18.3281V20.0722C18.3281 17.2297 20.634 14.8359 23.3722 14.8359H44.7017C47.4399 14.8359 49.7458 17.2297 49.7458 20.0722V25.3085Z" fill="#FBBC04"/>
<path d="M49.7458 29.6718H18.3281V24.4355C18.3281 21.593 20.634 19.1992 23.3722 19.1992H44.7017C47.4399 19.1992 49.7458 21.593 49.7458 24.4355V29.6718Z" fill="#EA4335"/>
<path d="M18.3281 22.0276L38.269 26.5322C40.5644 27.0953 43.1467 26.5322 45.0116 25.1245L49.7458 21.7461V32.3037C49.7458 34.9783 47.4505 37.0898 44.7247 37.0898H23.3492C20.6234 37.0898 18.3281 34.9783 18.3281 32.3037V22.0276Z" fill="url(#paint0_linear_568_331)"/>
<path d="M61.1367 18.7629V10.6396H62.3847V18.7629H61.1367ZM66.3861 18.9444C65.8642 18.9444 65.3915 18.8158 64.9679 18.5587C64.552 18.294 64.2191 17.9309 63.9695 17.4695C63.7275 17.0006 63.6065 16.4674 63.6065 15.8698C63.6065 15.2723 63.7275 14.7429 63.9695 14.2815C64.2191 13.8201 64.552 13.457 64.9679 13.1923C65.3915 12.9276 65.8642 12.7953 66.3861 12.7953C66.8324 12.7953 67.2143 12.8936 67.532 13.0902C67.8572 13.2868 68.0955 13.51 68.2467 13.7596H68.3148L68.2467 12.9541V10.6396H69.4607V18.7629H68.3148V17.9914H68.2467C68.0955 18.241 67.8572 18.4641 67.532 18.6608C67.2143 18.8499 66.8324 18.9444 66.3861 18.9444ZM66.5676 17.8212C66.8702 17.8212 67.1538 17.7418 67.4185 17.583C67.6908 17.4241 67.9064 17.201 68.0652 16.9136C68.2316 16.6186 68.3148 16.2707 68.3148 15.8698C68.3148 15.469 68.2316 15.1248 68.0652 14.8374C67.9064 14.5424 67.6908 14.3155 67.4185 14.1567C67.1538 13.9978 66.8702 13.9184 66.5676 13.9184C66.2651 13.9184 65.9815 13.9978 65.7167 14.1567C65.452 14.3155 65.2365 14.5424 65.07 14.8374C64.9037 15.1248 64.8204 15.469 64.8204 15.8698C64.8204 16.2707 64.9037 16.6186 65.07 16.9136C65.2365 17.201 65.452 17.4241 65.7167 17.583C65.9815 17.7418 66.2651 17.8212 66.5676 17.8212ZM72.6638 18.9444C72.2478 18.9444 71.8772 18.865 71.5519 18.7061C71.2267 18.5397 70.9733 18.3091 70.7918 18.0141C70.6103 17.7191 70.5195 17.3825 70.5195 17.0043C70.5195 16.5959 70.6254 16.248 70.8372 15.9606C71.0565 15.6656 71.3477 15.4425 71.7108 15.2912C72.0738 15.14 72.4747 15.0643 72.9134 15.0643C73.2764 15.0643 73.5941 15.0983 73.8664 15.1664C74.1463 15.2345 74.358 15.3063 74.5017 15.382V15.0757C74.5017 14.6975 74.3656 14.3949 74.0933 14.168C73.821 13.9411 73.4693 13.8277 73.0382 13.8277C72.7432 13.8277 72.4633 13.8957 72.1986 14.0319C71.9339 14.1604 71.7221 14.3382 71.5633 14.5651L70.7237 13.9184C70.9733 13.5705 71.3023 13.2982 71.7108 13.1016C72.1268 12.8974 72.5806 12.7953 73.0722 12.7953C73.9118 12.7953 74.5584 13.0032 75.0123 13.4192C75.4661 13.8277 75.693 14.4025 75.693 15.1437V18.7629H74.5017V18.0481H74.4336C74.2824 18.2826 74.0555 18.4906 73.7529 18.6721C73.4504 18.8536 73.0873 18.9444 72.6638 18.9444ZM72.8793 17.946C73.197 17.946 73.4769 17.8703 73.7189 17.7191C73.9609 17.5679 74.15 17.3711 74.2862 17.1291C74.4299 16.8795 74.5017 16.611 74.5017 16.3236C74.3278 16.2253 74.1236 16.1459 73.8891 16.0854C73.6546 16.0173 73.405 15.9833 73.1403 15.9833C72.6411 15.9833 72.2856 16.0854 72.0738 16.2896C71.862 16.4862 71.7562 16.7283 71.7562 17.0157C71.7562 17.288 71.8583 17.5111 72.0625 17.6851C72.2667 17.859 72.539 17.946 72.8793 17.946ZM79.5959 21.395C79.0891 21.395 78.6505 21.3118 78.2799 21.1454C77.9168 20.9865 77.6218 20.7786 77.3949 20.5214C77.168 20.2718 77.0054 20.0146 76.9071 19.7499L78.0416 19.2734C78.1627 19.576 78.3555 19.8217 78.6202 20.0108C78.8925 20.2075 79.2178 20.3058 79.5959 20.3058C80.1254 20.3058 80.5413 20.147 80.8439 19.8293C81.154 19.5117 81.3091 19.0616 81.3091 18.4792V17.9233H81.241C81.0595 18.1956 80.8061 18.4149 80.4808 18.5813C80.1632 18.7402 79.8001 18.8196 79.3917 18.8196C78.9001 18.8196 78.45 18.6948 78.0416 18.4452C77.6332 18.1956 77.3042 17.8477 77.0546 17.4014C76.805 16.9476 76.6802 16.4181 76.6802 15.8131C76.6802 15.2004 76.805 14.671 77.0546 14.2248C77.3042 13.7709 77.6332 13.4192 78.0416 13.1696C78.45 12.92 78.9001 12.7953 79.3917 12.7953C79.8001 12.7953 80.1632 12.8784 80.4808 13.0448C80.8061 13.2113 81.0595 13.4306 81.241 13.7029H81.3091V12.9768H82.4776V18.4565C82.4776 19.0843 82.3528 19.6175 82.1032 20.0562C81.8612 20.4949 81.5246 20.8277 81.0935 21.0546C80.6624 21.2815 80.1632 21.395 79.5959 21.395ZM79.6073 17.7078C79.9098 17.7078 80.1896 17.6359 80.4468 17.4922C80.704 17.341 80.912 17.1254 81.0708 16.8455C81.2296 16.5581 81.3091 16.2139 81.3091 15.8131C81.3091 15.3971 81.2296 15.0492 81.0708 14.7693C80.912 14.4819 80.704 14.2664 80.4468 14.1226C80.1896 13.9789 79.9098 13.9071 79.6073 13.9071C79.3047 13.9071 79.0211 13.9828 78.7564 14.134C78.4992 14.2777 78.2912 14.4894 78.1324 14.7693C77.9735 15.0492 77.8941 15.3971 77.8941 15.8131C77.8941 16.2215 77.9735 16.5695 78.1324 16.8569C78.2912 17.1367 78.4992 17.3485 78.7564 17.4922C79.0211 17.6359 79.3047 17.7078 79.6073 17.7078ZM86.329 18.9444C85.8071 18.9444 85.3344 18.8158 84.9108 18.5587C84.4948 18.294 84.162 17.9309 83.9124 17.4695C83.6704 17.0006 83.5494 16.4674 83.5494 15.8698C83.5494 15.2723 83.6704 14.7429 83.9124 14.2815C84.162 13.8201 84.4948 13.457 84.9108 13.1923C85.3344 12.9276 85.8071 12.7953 86.329 12.7953C86.7752 12.7953 87.1572 12.8936 87.4752 13.0902C87.7999 13.2868 88.0381 13.51 88.19 13.7596H88.258L88.19 12.9541V10.6396H89.4039V18.7629H88.258V17.9914H88.19C88.0381 18.241 87.7999 18.4641 87.4752 18.6608C87.1572 18.8499 86.7752 18.9444 86.329 18.9444ZM86.5105 17.8212C86.8131 17.8212 87.0967 17.7418 87.3618 17.583C87.634 17.4241 87.8496 17.201 88.0084 16.9136C88.1743 16.6186 88.258 16.2707 88.258 15.8698C88.258 15.469 88.1743 15.1248 88.0084 14.8374C87.8496 14.5424 87.634 14.3155 87.3618 14.1567C87.0967 13.9978 86.8131 13.9184 86.5105 13.9184C86.2079 13.9184 85.9243 13.9978 85.6596 14.1567C85.3949 14.3155 85.1794 14.5424 85.0129 14.8374C84.8465 15.1248 84.7633 15.469 84.7633 15.8698C84.7633 16.2707 84.8465 16.6186 85.0129 16.9136C85.1794 17.201 85.3949 17.4241 85.6596 17.583C85.9243 17.7418 86.2079 17.8212 86.5105 17.8212ZM92.6068 18.9444C92.1905 18.9444 91.8204 18.865 91.4949 18.7061C91.1694 18.5397 90.9163 18.3091 90.7348 18.0141C90.5533 17.7191 90.4625 17.3825 90.4625 17.0043C90.4625 16.5959 90.5681 16.248 90.7802 15.9606C90.9992 15.6656 91.2907 15.4425 91.6538 15.2912C92.0168 15.14 92.4174 15.0643 92.8564 15.0643C93.2194 15.0643 93.5371 15.0983 93.8094 15.1664C94.0895 15.2345 94.3007 15.3063 94.4447 15.382V15.0757C94.4447 14.6975 94.3086 14.3949 94.0363 14.168C93.764 13.9411 93.4123 13.8277 92.9812 13.8277C92.6862 13.8277 92.406 13.8957 92.1416 14.0319C91.8772 14.1604 91.6651 14.3382 91.5063 14.5651L90.6667 13.9184C90.9163 13.5705 91.2453 13.2982 91.6538 13.1016C92.0701 12.8974 92.5239 12.7953 93.0152 12.7953C93.8547 12.7953 94.5014 13.0032 94.9552 13.4192C95.4091 13.8277 95.636 14.4025 95.636 15.1437V18.7629H94.4447V18.0481H94.3766C94.2256 18.2826 93.9987 18.4906 93.6959 18.6721C93.3931 18.8536 93.03 18.9444 92.6068 18.9444ZM92.8223 17.946C93.14 17.946 93.4201 17.8703 93.6619 17.7191C93.9036 17.5679 94.093 17.3711 94.2291 17.1291C94.3731 16.8795 94.4447 16.611 94.4447 16.3236C94.271 16.2253 94.0668 16.1459 93.8321 16.0854C93.5973 16.0173 93.3477 15.9833 93.0833 15.9833C92.5841 15.9833 92.2289 16.0854 92.0168 16.2896C91.8047 16.4862 91.6991 16.7283 91.6991 17.0157C91.6991 17.288 91.8013 17.5111 92.0055 17.6851C92.2097 17.859 92.482 17.946 92.8223 17.946ZM99.5387 21.395C99.0317 21.395 98.5936 21.3118 98.2227 21.1454C97.8596 20.9865 97.5646 20.7786 97.3377 20.5214C97.1108 20.2718 96.9485 20.0146 96.8499 19.7499L97.9844 19.2734C98.1057 19.576 98.2986 19.8217 98.563 20.0108C98.8353 20.2075 99.1608 20.3058 99.5387 20.3058C100.068 20.3058 100.484 20.147 100.787 19.8293C101.097 19.5117 101.252 19.0616 101.252 18.4792V17.9233H101.184C101.002 18.1956 100.749 18.4149 100.424 18.5813C100.106 18.7402 99.7429 18.8196 99.3345 18.8196C98.8432 18.8196 98.3929 18.6948 97.9844 18.4452C97.576 18.1956 97.247 17.8477 96.9974 17.4014C96.7478 16.9476 96.623 16.4181 96.623 15.8131C96.623 15.2004 96.7478 14.671 96.9974 14.2248C97.247 13.7709 97.576 13.4192 97.9844 13.1696C98.3929 12.92 98.8432 12.7953 99.3345 12.7953C99.7429 12.7953 100.106 12.8784 100.424 13.0448C100.749 13.2113 101.002 13.4306 101.184 13.7029H101.252V12.9768H102.42V18.4565C102.42 19.0843 102.296 19.6175 102.046 20.0562C101.804 20.4949 101.467 20.8277 101.036 21.0546C100.605 21.2815 100.106 21.395 99.5387 21.395ZM99.5501 17.7078C99.8529 17.7078 100.132 17.6359 100.39 17.4922C100.647 17.341 100.855 17.1254 101.014 16.8455C101.172 16.5581 101.252 16.2139 101.252 15.8131C101.252 15.3971 101.172 15.0492 101.014 14.7693C100.855 14.4819 100.647 14.2664 100.39 14.1226C100.132 13.9789 99.8529 13.9071 99.5501 13.9071C99.2472 13.9071 98.9636 13.9828 98.6992 14.134C98.4417 14.2777 98.234 14.4894 98.0752 14.7693C97.9164 15.0492 97.8369 15.3971 97.8369 15.8131C97.8369 16.2215 97.9164 16.5695 98.0752 16.8569C98.234 17.1367 98.4417 17.3485 98.6992 17.4922C98.9636 17.6359 99.2472 17.7078 99.5501 17.7078ZM108.612 18.9444C107.916 18.9444 107.36 18.7931 106.945 18.4906C106.528 18.1805 106.241 17.8136 106.082 17.3901L107.183 16.9136C107.319 17.2237 107.515 17.4619 107.773 17.6283C108.029 17.7872 108.321 17.8666 108.646 17.8666C108.948 17.8666 109.209 17.8136 109.429 17.7078C109.648 17.5943 109.758 17.4128 109.758 17.1632C109.758 16.9212 109.648 16.7434 109.429 16.63C109.209 16.5165 108.937 16.4181 108.612 16.335L107.92 16.1761C107.64 16.1081 107.379 16.0022 107.137 15.8585C106.895 15.7147 106.698 15.5295 106.547 15.3026C106.396 15.0681 106.321 14.7958 106.321 14.4857C106.321 14.1453 106.423 13.8504 106.627 13.6008C106.831 13.3436 107.099 13.147 107.432 13.0108C107.773 12.8671 108.139 12.7953 108.533 12.7953C109.07 12.7953 109.538 12.9011 109.94 13.1129C110.348 13.3171 110.647 13.6272 110.836 14.0432L109.781 14.5197C109.645 14.2625 109.467 14.0849 109.248 13.9865C109.036 13.8806 108.801 13.8277 108.544 13.8277C108.256 13.8277 108.015 13.8881 107.818 14.0092C107.629 14.1302 107.535 14.2815 107.535 14.463C107.535 14.6596 107.617 14.8147 107.784 14.9282C107.958 15.0416 108.17 15.1324 108.419 15.2004L109.259 15.4047C109.833 15.5484 110.264 15.7677 110.552 16.0627C110.839 16.3501 110.983 16.7018 110.983 17.1178C110.983 17.4884 110.877 17.8136 110.666 18.0935C110.454 18.3658 110.167 18.5776 109.804 18.7288C109.448 18.8726 109.05 18.9444 108.612 18.9444ZM113.924 18.9444C113.507 18.9444 113.136 18.865 112.812 18.7061C112.486 18.5397 112.233 18.3091 112.052 18.0141C111.87 17.7191 111.779 17.3825 111.779 17.0043C111.779 16.5959 111.885 16.248 112.097 15.9606C112.316 15.6656 112.608 15.4425 112.971 15.2912C113.334 15.14 113.734 15.0643 114.173 15.0643C114.536 15.0643 114.854 15.0983 115.126 15.1664C115.406 15.2345 115.618 15.3063 115.762 15.382V15.0757C115.762 14.6975 115.625 14.3949 115.353 14.168C115.081 13.9411 114.729 13.8277 114.298 13.8277C114.003 13.8277 113.723 13.8957 113.459 14.0319C113.193 14.1604 112.982 14.3382 112.823 14.5651L111.984 13.9184C112.233 13.5705 112.562 13.2982 112.971 13.1016C113.386 12.8974 113.84 12.7953 114.332 12.7953C115.172 12.7953 115.818 13.0032 116.272 13.4192C116.726 13.8277 116.953 14.4025 116.953 15.1437V18.7629H115.762V18.0481H115.694C115.542 18.2826 115.315 18.4906 115.013 18.6721C114.71 18.8536 114.347 18.9444 113.924 18.9444ZM114.139 17.946C114.457 17.946 114.736 17.8703 114.979 17.7191C115.221 17.5679 115.41 17.3711 115.546 17.1291C115.689 16.8795 115.762 16.611 115.762 16.3236C115.587 16.2253 115.383 16.1459 115.149 16.0854C114.914 16.0173 114.665 15.9833 114.4 15.9833C113.901 15.9833 113.545 16.0854 113.334 16.2896C113.122 16.4862 113.016 16.7283 113.016 17.0157C113.016 17.288 113.118 17.5111 113.322 17.6851C113.527 17.859 113.799 17.946 114.139 17.946Z" fill="white"/>
<path d="M66.4503 36.4548C65.6887 36.4548 64.9716 36.3163 64.299 36.0394C63.6364 35.7625 63.0478 35.3768 62.5335 34.8822C62.0192 34.3778 61.6137 33.7893 61.317 33.1167C61.0301 32.4343 60.8867 31.6974 60.8867 30.9061C60.8867 30.1148 61.0301 29.383 61.317 28.7104C61.6137 28.0279 62.0143 27.4395 62.5187 26.9449C63.033 26.4405 63.6264 26.0497 64.299 25.7728C64.9716 25.4959 65.6887 25.3574 66.4503 25.3574C67.2613 25.3574 68.0081 25.5008 68.6905 25.7877C69.3828 26.0745 69.9615 26.4751 70.4264 26.9894L69.2988 28.1021C68.9526 27.7164 68.5372 27.4196 68.0526 27.2119C67.5778 27.0042 67.0437 26.9004 66.4503 26.9004C65.748 26.9004 65.1002 27.0686 64.5067 27.4048C63.9133 27.7312 63.4336 28.1961 63.0676 28.7994C62.7116 29.3928 62.5335 30.0951 62.5335 30.9061C62.5335 31.7171 62.7165 32.4244 63.0825 33.0277C63.4484 33.6211 63.9281 34.086 64.5216 34.4223C65.115 34.7487 65.7628 34.9119 66.4651 34.9119C67.108 34.9119 67.6915 34.7932 68.2158 34.5558C68.74 34.3086 69.1603 33.9624 69.4768 33.5173C69.8032 33.0722 70.0011 32.5381 70.0703 31.915H66.4354V30.4759H71.5984C71.6578 30.7429 71.6874 31.0248 71.6874 31.3215V31.3364C71.6874 32.3651 71.4599 33.2651 71.005 34.0366C70.5599 34.7982 69.9417 35.3916 69.1504 35.8169C68.3592 36.2422 67.4591 36.4548 66.4503 36.4548ZM76.4646 36.4548C75.6831 36.4548 74.9958 36.2768 74.4023 35.9207C73.8089 35.5647 73.344 35.0849 73.0078 34.4816C72.6714 33.8783 72.5033 33.1959 72.5033 32.4343C72.5033 31.6826 72.6714 31.005 73.0078 30.4017C73.344 29.7884 73.8089 29.3038 74.4023 28.9478C74.9958 28.5917 75.6831 28.4137 76.4646 28.4137C77.236 28.4137 77.9185 28.5917 78.512 28.9478C79.1054 29.3038 79.5702 29.7884 79.9066 30.4017C80.2428 31.005 80.411 31.6826 80.411 32.4343C80.411 33.1959 80.2428 33.8783 79.9066 34.4816C79.5702 35.0849 79.1054 35.5647 78.512 35.9207C77.9185 36.2768 77.236 36.4548 76.4646 36.4548ZM76.4646 34.9861C76.88 34.9861 77.2657 34.8872 77.6218 34.6893C77.9779 34.4816 78.2646 34.1899 78.4823 33.814C78.7097 33.4283 78.8235 32.9684 78.8235 32.4343C78.8235 31.9002 78.7097 31.4452 78.4823 31.0693C78.2646 30.6836 77.9779 30.3918 77.6218 30.194C77.2657 29.9863 76.88 29.8824 76.4646 29.8824C76.0492 29.8824 75.6584 29.9863 75.2925 30.194C74.9364 30.3918 74.6446 30.6836 74.4172 31.0693C74.1995 31.4452 74.0908 31.9002 74.0908 32.4343C74.0908 32.9684 74.1995 33.4283 74.4172 33.814C74.6446 34.1899 74.9364 34.4816 75.2925 34.6893C75.6584 34.8872 76.0492 34.9861 76.4646 34.9861ZM85.4473 36.4548C84.666 36.4548 83.9785 36.2768 83.3851 35.9207C82.7917 35.5647 82.3268 35.0849 81.9905 34.4816C81.6542 33.8783 81.4861 33.1959 81.4861 32.4343C81.4861 31.6826 81.6542 31.005 81.9905 30.4017C82.3268 29.7884 82.7917 29.3038 83.3851 28.9478C83.9785 28.5917 84.666 28.4137 85.4473 28.4137C86.2188 28.4137 86.9013 28.5917 87.4949 28.9478C88.0883 29.3038 88.5535 29.7884 88.8895 30.4017C89.2255 31.005 89.3939 31.6826 89.3939 32.4343C89.3939 33.1959 89.2255 33.8783 88.8895 34.4816C88.5535 35.0849 88.0883 35.5647 87.4949 35.9207C86.9013 36.2768 86.2188 36.4548 85.4473 36.4548ZM85.4473 34.9861C85.8627 34.9861 86.2485 34.8872 86.6045 34.6893C86.9606 34.4816 87.2475 34.1899 87.4652 33.814C87.693 33.4283 87.8064 32.9684 87.8064 32.4343C87.8064 31.9002 87.693 31.4452 87.4652 31.0693C87.2475 30.6836 86.9606 30.3918 86.6045 30.194C86.2485 29.9863 85.8627 29.8824 85.4473 29.8824C85.0319 29.8824 84.6413 29.9863 84.2753 30.194C83.9192 30.3918 83.6275 30.6836 83.3999 31.0693C83.1824 31.4452 83.0735 31.9002 83.0735 32.4343C83.0735 32.9684 83.1824 33.4283 83.3999 33.814C83.6275 34.1899 83.9192 34.4816 84.2753 34.6893C84.6413 34.8872 85.0319 34.9861 85.4473 34.9861ZM94.282 39.6595C93.6187 39.6595 93.0453 39.5506 92.561 39.3331C92.0862 39.1253 91.7005 38.8533 91.4038 38.5171C91.107 38.1907 90.8941 37.8544 90.7658 37.5082L92.2494 36.8851C92.4074 37.2807 92.6596 37.6022 93.0061 37.8494C93.3621 38.1066 93.7871 38.2352 94.282 38.2352C94.974 38.2352 95.5177 38.0275 95.914 37.6121C96.3189 37.1967 96.5222 36.6082 96.5222 35.8466V35.1196H96.4332C96.1958 35.4757 95.8642 35.7625 95.4392 35.9801C95.0238 36.1878 94.549 36.2916 94.0149 36.2916C93.3717 36.2916 92.7835 36.1284 92.2494 35.8021C91.7153 35.4757 91.2851 35.0207 90.9587 34.4371C90.6323 33.8437 90.4691 33.1514 90.4691 32.3601C90.4691 31.5589 90.6323 30.8666 90.9587 30.283C91.2851 29.6896 91.7153 29.2297 92.2494 28.9033C92.7835 28.5769 93.3717 28.4137 94.0149 28.4137C94.549 28.4137 95.0238 28.5225 95.4392 28.7401C95.8642 28.9576 96.1958 29.2445 96.4332 29.6006H96.5222V28.651H98.0504V35.8169C98.0504 36.6379 97.8872 37.3352 97.5608 37.9088C97.244 38.4824 96.8041 38.9176 96.2403 39.2144C95.6766 39.5111 95.0238 39.6595 94.282 39.6595ZM94.2968 34.8377C94.6921 34.8377 95.0578 34.7437 95.3947 34.5558C95.7307 34.358 96.003 34.0761 96.2107 33.7102C96.4184 33.3343 96.5222 32.8843 96.5222 32.3601C96.5222 31.8161 96.4184 31.3611 96.2107 30.9951C96.003 30.6193 95.7307 30.3374 95.3947 30.1495C95.0578 29.9616 94.6921 29.8676 94.2968 29.8676C93.9006 29.8676 93.5297 29.9665 93.1841 30.1643C92.8472 30.3522 92.5758 30.6292 92.3681 30.9951C92.1604 31.3611 92.0566 31.8161 92.0566 32.3601C92.0566 32.8942 92.1604 33.3491 92.3681 33.725C92.5758 34.0909 92.8472 34.3679 93.1841 34.5558C93.5297 34.7437 93.9006 34.8377 94.2968 34.8377ZM99.9398 36.2175V25.5948H101.542V36.2175H99.9398ZM106.815 36.4548C106.073 36.4548 105.411 36.2818 104.827 35.9356C104.244 35.5894 103.784 35.1146 103.447 34.5113C103.121 33.908 102.958 33.2206 102.958 32.4491C102.958 31.7271 103.116 31.0595 103.432 30.4462C103.749 29.833 104.189 29.3434 104.753 28.9774C105.327 28.6016 105.984 28.4137 106.726 28.4137C107.508 28.4137 108.17 28.5818 108.714 28.9181C109.268 29.2544 109.689 29.7143 109.975 30.2979C110.262 30.8814 110.405 31.5391 110.405 32.2711C110.405 32.3799 110.401 32.4788 110.391 32.5678C110.391 32.6568 110.386 32.726 110.376 32.7755H104.53C104.61 33.5272 104.871 34.0909 105.317 34.4668C105.772 34.8427 106.286 35.0306 106.86 35.0306C107.374 35.0306 107.799 34.9169 108.135 34.6893C108.472 34.452 108.739 34.1602 108.937 33.814L110.257 34.452C109.931 35.0454 109.486 35.53 108.922 35.9059C108.358 36.2718 107.656 36.4548 106.815 36.4548ZM106.741 29.7786C106.207 29.7786 105.752 29.9418 105.376 30.2682C105.001 30.5946 104.748 31.0298 104.619 31.5738H108.818C108.799 31.3166 108.714 31.0495 108.566 30.7726C108.417 30.4957 108.19 30.2632 107.883 30.0753C107.586 29.8775 107.206 29.7786 106.741 29.7786ZM116.927 36.2175L114.079 25.5948H115.889L117.58 32.4936L117.758 33.4134H117.847L118.07 32.4936L120.206 25.5948H121.838L123.885 32.4936L124.108 33.3986H124.197L124.375 32.4936L126.066 25.5948H127.861L125.057 36.2175H123.336L121.304 29.1703L121.066 28.1763H120.977L120.725 29.1703L118.604 36.2175H116.927ZM130.841 36.4548C130.297 36.4548 129.812 36.351 129.387 36.1433C128.962 35.9257 128.63 35.624 128.393 35.2383C128.155 34.8525 128.037 34.4124 128.037 33.9179C128.037 33.3838 128.176 32.9288 128.452 32.5529C128.739 32.1672 129.12 31.8755 129.595 31.6776C130.069 31.4798 130.594 31.3809 131.167 31.3809C131.642 31.3809 132.057 31.4254 132.413 31.5144C132.779 31.6034 133.057 31.6974 133.244 31.7963V31.3957C133.244 30.9012 133.066 30.5056 132.71 30.2088C132.354 29.9121 131.894 29.7638 131.33 29.7638C130.945 29.7638 130.579 29.8528 130.233 30.0308C129.886 30.199 129.609 30.4314 129.402 30.7281L128.304 29.8824C128.63 29.4275 129.06 29.0714 129.595 28.8142C130.138 28.5472 130.732 28.4137 131.375 28.4137C132.473 28.4137 133.318 28.6857 133.912 29.2297C134.505 29.7638 134.802 30.5154 134.802 31.4847V36.2175H133.244V35.2828H133.155C132.957 35.5894 132.66 35.8614 132.265 36.0988C131.87 36.3362 131.395 36.4548 130.841 36.4548ZM131.123 35.1493C131.538 35.1493 131.904 35.0504 132.221 34.8525C132.537 34.6547 132.784 34.3976 132.962 34.0811C133.15 33.7547 133.244 33.4036 133.244 33.0277C133.016 32.8992 132.749 32.7953 132.443 32.7161C132.137 32.6271 131.81 32.5826 131.464 32.5826C130.811 32.5826 130.346 32.7161 130.069 32.9832C129.793 33.2404 129.654 33.5568 129.654 33.9327C129.654 34.2888 129.787 34.5805 130.055 34.808C130.322 35.0356 130.678 35.1493 131.123 35.1493ZM136.581 36.2175V25.5948H138.183V36.2175H136.581ZM140.087 36.2175V25.5948H141.69V36.2175H140.087ZM146.962 36.4548C146.221 36.4548 145.558 36.2818 144.974 35.9356C144.391 35.5894 143.932 35.1146 143.595 34.5113C143.268 33.908 143.105 33.2206 143.105 32.4491C143.105 31.7271 143.264 31.0595 143.58 30.4462C143.897 29.833 144.336 29.3434 144.9 28.9774C145.474 28.6016 146.132 28.4137 146.873 28.4137C147.655 28.4137 148.318 28.5818 148.861 28.9181C149.416 29.2544 149.836 29.7143 150.123 30.2979C150.41 30.8814 150.553 31.5391 150.553 32.2711C150.553 32.3799 150.548 32.4788 150.538 32.5678C150.538 32.6568 150.534 32.726 150.523 32.7755H144.678C144.757 33.5272 145.019 34.0909 145.464 34.4668C145.92 34.8427 146.434 35.0306 147.007 35.0306C147.522 35.0306 147.947 34.9169 148.283 34.6893C148.62 34.452 148.887 34.1602 149.084 33.814L150.404 34.452C150.078 35.0454 149.633 35.53 149.069 35.9059C148.505 36.2718 147.804 36.4548 146.962 36.4548ZM146.888 29.7786C146.354 29.7786 145.899 29.9418 145.523 30.2682C145.148 30.5946 144.896 31.0298 144.767 31.5738H148.965C148.946 31.3166 148.861 31.0495 148.713 30.7726C148.565 30.4957 148.338 30.2632 148.031 30.0753C147.734 29.8775 147.353 29.7786 146.888 29.7786ZM152.624 34.0217V30.0456H151.303V28.651H152.624V26.5146H154.226V28.651H156.081V30.0456H154.226V33.6805C154.226 34.0564 154.3 34.3431 154.449 34.541C154.607 34.7388 154.868 34.8377 155.235 34.8377C155.423 34.8377 155.581 34.813 155.71 34.7635C155.848 34.714 155.986 34.6448 156.125 34.5558V36.1136C155.957 36.1828 155.779 36.2373 155.591 36.2768C155.402 36.3163 155.18 36.3362 154.923 36.3362C154.221 36.3362 153.662 36.1334 153.247 35.7279C152.831 35.3125 152.624 34.7437 152.624 34.0217Z" fill="white"/>
<path d="M149.672 0.436523H24.0008C10.9871 0.436523 0.4375 10.9862 0.4375 23.9998C0.4375 37.0134 10.9871 47.563 24.0008 47.563H149.672C162.685 47.563 173.235 37.0134 173.235 23.9998C173.235 10.9862 162.685 0.436523 149.672 0.436523Z" stroke="#747775"/>
</g>
<defs>
<linearGradient id="paint0_linear_568_331" x1="32.5397" y1="29.7109" x2="16.3927" y2="48.6295" gradientUnits="userSpaceOnUse">
<stop stop-color="#4285F4"/>
<stop offset="1" stop-color="#1B74E8"/>
</linearGradient>
<clipPath id="clip0_568_331">
<rect width="173.67" height="47.9992" fill="white"/>
</clipPath>
</defs>
</svg>
