<svg width="174" height="30" viewBox="0 0 174 30" fill="none" xmlns="http://www.w3.org/2000/svg">
<g clip-path="url(#clip0_568_50)">
<path d="M158.904 0.294922H14.7694C6.77643 0.294922 0.296875 6.77448 0.296875 14.7674C0.296875 22.7604 6.77643 29.2399 14.7694 29.2399H158.904C166.897 29.2399 173.376 22.7604 173.376 14.7674C173.376 6.77448 166.897 0.294922 158.904 0.294922Z" fill="#1F1F1F"/>
<path d="M158.904 0.294922H14.7694C6.77643 0.294922 0.296875 6.77448 0.296875 14.7674C0.296875 22.7604 6.77643 29.2399 14.7694 29.2399H158.904C166.897 29.2399 173.376 22.7604 173.376 14.7674C173.376 6.77448 166.897 0.294922 158.904 0.294922Z" stroke="#747775"/>
<path d="M30.1277 12.996H12.4062V10.0424C12.4062 8.43906 13.7069 7.08887 15.2514 7.08887H27.2825C28.827 7.08887 30.1277 8.43906 30.1277 10.0424V12.996Z" fill="#34A853"/>
<path d="M30.1277 15.3905H12.4062V12.437C12.4062 10.8336 13.7069 9.4834 15.2514 9.4834H27.2825C28.827 9.4834 30.1277 10.8336 30.1277 12.437V15.3905Z" fill="#FBBC04"/>
<path d="M30.1277 17.8671H12.4062V14.9135C12.4062 13.3102 13.7069 11.96 15.2514 11.96H27.2825C28.827 11.96 30.1277 13.3102 30.1277 14.9135V17.8671Z" fill="#EA4335"/>
<path d="M12.4062 13.7495L23.6541 16.3508C24.9488 16.676 26.4054 16.3508 27.4574 15.5379L30.1277 13.5869V19.6837C30.1277 21.2283 28.833 22.4476 27.2955 22.4476H15.2384C13.701 22.4476 12.4062 21.2283 12.4062 19.6837V13.7495Z" fill="#4285F4"/>
<path d="M39.8261 18.2174C39.4244 18.2174 39.0581 18.1387 38.7273 17.9811C38.4044 17.8236 38.1445 17.548 37.9476 17.1541C37.7586 16.7524 37.6641 16.2011 37.6641 15.5001C37.6641 14.6574 37.8098 13.9406 38.1012 13.3499C38.4005 12.7592 38.8101 12.2985 39.3299 11.9677C39.8576 11.629 40.4641 11.4321 41.1493 11.3769L42.4134 11.2706V11.8377L42.4725 11.8613C42.5355 11.7747 42.6221 11.6881 42.7324 11.6014C42.8427 11.5069 42.9884 11.4282 43.1695 11.3651C43.3586 11.3021 43.583 11.2706 43.8429 11.2706C44.2525 11.2706 44.6109 11.3691 44.918 11.566C45.2252 11.755 45.4655 12.07 45.6387 12.5111C45.812 12.9443 45.8986 13.5271 45.8986 14.2596C45.8986 15.0236 45.7883 15.6695 45.5678 16.1972C45.3552 16.7249 45.0362 17.1226 44.6109 17.3904C44.1934 17.6582 43.6775 17.7921 43.0632 17.7921C42.7875 17.7921 42.563 17.7685 42.3898 17.7212C42.2244 17.674 42.0984 17.6188 42.0117 17.5558C41.9251 17.4849 41.8581 17.4259 41.8109 17.3786H41.74C41.6691 17.4889 41.5549 17.6109 41.3974 17.7448C41.2478 17.8788 41.043 17.9929 40.783 18.0875C40.531 18.1741 40.212 18.2174 39.8261 18.2174ZM39.9915 17.1305C40.212 17.1305 40.4089 17.0911 40.5822 17.0124C40.7554 16.9336 40.8933 16.8037 40.9957 16.6225C41.0981 16.4413 41.1493 16.209 41.1493 15.9254V12.4757C40.7161 12.5151 40.3341 12.6568 40.0033 12.901C39.6803 13.1373 39.4244 13.4681 39.2354 13.8934C39.0542 14.3108 38.9636 14.8189 38.9636 15.4174C38.9636 16.0633 39.0503 16.5122 39.2236 16.7643C39.4047 17.0084 39.6607 17.1305 39.9915 17.1305ZM43.0986 16.7052C43.3664 16.7052 43.6106 16.6343 43.8311 16.4925C44.0595 16.3429 44.2407 16.1027 44.3746 15.7719C44.5164 15.4411 44.5872 14.9921 44.5872 14.425C44.5872 13.921 44.5439 13.5193 44.4573 13.22C44.3706 12.9207 44.2407 12.7041 44.0674 12.5702C43.902 12.4284 43.6972 12.3575 43.4531 12.3575C43.1617 12.3575 42.9214 12.4324 42.7324 12.582C42.5512 12.7316 42.4449 12.9325 42.4134 13.1845V15.8427C42.4134 16.1421 42.4567 16.3626 42.5434 16.5043C42.6379 16.6383 42.8229 16.7052 43.0986 16.7052ZM49.3656 14.3778C49.4208 14.5747 49.4996 14.7834 49.6019 15.0039C49.7044 15.2244 49.8185 15.4411 49.9445 15.6537C50.0706 15.8664 50.1966 16.0672 50.3226 16.2562C50.4565 16.4374 50.5786 16.587 50.6888 16.7052H53.2525C53.2368 16.8233 53.2211 16.9611 53.2053 17.1187C53.1974 17.2762 53.1935 17.4495 53.1935 17.6385C53.1935 17.7803 53.2014 17.9417 53.2171 18.1229C53.2329 18.3041 53.2525 18.4734 53.2762 18.6309C53.3077 18.7805 53.3352 18.8948 53.3589 18.9735L52.0947 19.1035C52.0554 19.0168 52.02 18.8948 51.9884 18.7372C51.9569 18.5797 51.9293 18.4104 51.9057 18.2292C51.89 18.0481 51.8821 17.8866 51.8821 17.7448H48.0779C48.0779 17.863 48.07 18.0048 48.0543 18.1702C48.0464 18.3356 48.0306 18.497 48.007 18.6545C47.9834 18.8121 47.9519 18.9381 47.9125 19.0326L46.6365 18.9263C46.6681 18.8396 46.6917 18.7215 46.7074 18.5718C46.7311 18.4222 46.7468 18.2647 46.7547 18.0993C46.7705 17.926 46.7783 17.7724 46.7783 17.6385C46.7783 17.4416 46.7705 17.2605 46.7547 17.0951C46.7468 16.9218 46.735 16.7918 46.7192 16.7052H49.153V16.6816C49.0664 16.587 48.9403 16.4216 48.7749 16.1854C48.6174 15.9491 48.4559 15.6577 48.2905 15.3111C48.1251 14.9645 47.9834 14.5747 47.8652 14.1415C47.755 13.7004 47.6998 13.2318 47.6998 12.7356C47.6998 11.751 47.9519 10.9989 48.4559 10.4791C48.9679 9.95137 49.6846 9.6875 50.6061 9.6875C51.3229 9.6875 51.8546 9.87653 52.2011 10.2546C52.5555 10.6248 52.7327 11.1249 52.7327 11.755C52.7327 12.3379 52.5831 12.8143 52.2838 13.1845C51.9924 13.5468 51.5907 13.8225 51.0787 14.0115C50.5747 14.1927 50.0036 14.3147 49.3656 14.3778ZM49.0703 13.3027C49.6217 13.2633 50.0706 13.1767 50.4171 13.0428C50.7637 12.901 51.0157 12.7198 51.1732 12.4993C51.3386 12.2788 51.4213 12.0307 51.4213 11.755C51.4213 11.4557 51.3426 11.2194 51.185 11.0461C51.0354 10.865 50.807 10.7744 50.4998 10.7744C50.043 10.7744 49.6807 10.9398 49.4129 11.2706C49.1451 11.6014 49.0112 12.0818 49.0112 12.712C49.0112 12.8616 49.0152 12.9837 49.023 13.0782C49.0388 13.1727 49.0546 13.2476 49.0703 13.3027Z" fill="white"/>
<path d="M61.6686 19.092C61.062 19.092 60.4913 18.9817 59.9556 18.7612C59.4198 18.5407 58.9474 18.2335 58.5379 17.8397C58.1362 17.438 57.8172 16.9694 57.5809 16.4338C57.3525 15.8903 57.2383 15.3035 57.2383 14.6734C57.2383 14.0433 57.3525 13.4605 57.5809 12.9249C57.8172 12.3815 58.1362 11.9128 58.5379 11.519C58.9474 11.1173 59.4198 10.8062 59.9556 10.5857C60.4913 10.3652 61.062 10.2549 61.6686 10.2549C62.3143 10.2549 62.9091 10.3691 63.4526 10.5975C64.0037 10.8259 64.4645 11.1449 64.8349 11.5545L63.937 12.4405C63.7556 12.2357 63.5471 12.0625 63.3108 11.9207C63.0822 11.7789 62.8306 11.6726 62.5547 11.6017C62.2788 11.523 61.9835 11.4836 61.6686 11.4836C61.251 11.4836 60.8535 11.5584 60.4754 11.708C60.0973 11.8577 59.7624 12.0743 59.4712 12.3578C59.1876 12.6335 58.9632 12.9682 58.7978 13.362C58.6324 13.748 58.5497 14.1851 58.5497 14.6734C58.5497 15.1618 58.6324 15.6028 58.7978 15.9966C58.971 16.3825 59.1995 16.7173 59.483 17.0008C59.7742 17.2765 60.1092 17.4892 60.4872 17.6388C60.8653 17.7884 61.2628 17.8633 61.6805 17.8633C62.0662 17.8633 62.4248 17.8082 62.7556 17.6979C63.094 17.5876 63.3894 17.4301 63.6416 17.2253C63.8939 17.0205 64.0982 16.7724 64.256 16.481C64.4137 16.1817 64.5117 15.847 64.5513 15.4768H61.6568V14.3308H65.7682C65.7841 14.4253 65.7995 14.5356 65.8155 14.6616C65.8314 14.7798 65.8391 14.8939 65.8391 15.0042V15.016C65.8391 15.6225 65.7328 16.1778 65.5201 16.6819C65.3151 17.1859 65.028 17.6191 64.6577 17.9814C64.2873 18.3359 63.8466 18.6115 63.3345 18.8084C62.8306 18.9975 62.2753 19.092 61.6686 19.092ZM69.6433 19.092C69.0213 19.092 68.4737 18.9502 68.0011 18.6667C67.5285 18.3831 67.1581 18.0011 66.8906 17.5207C66.623 17.0323 66.4889 16.4889 66.4889 15.8903C66.4889 15.2917 66.623 14.7522 66.8906 14.2717C67.1581 13.7834 67.5285 13.3975 68.0011 13.1139C68.4737 12.8304 69.0213 12.6886 69.6433 12.6886C70.2576 12.6886 70.8011 12.8344 71.2737 13.1258C71.7462 13.4093 72.1166 13.7913 72.3842 14.2717C72.6518 14.7522 72.7859 15.2917 72.7859 15.8903C72.7859 16.4889 72.6518 17.0323 72.3842 17.5207C72.1166 18.0011 71.7462 18.3831 71.2737 18.6667C70.8011 18.9502 70.2576 19.092 69.6433 19.092ZM69.6433 17.9224C69.9741 17.9224 70.2813 17.8436 70.5648 17.6861C70.8483 17.5207 71.0769 17.2883 71.25 16.989C71.4314 16.6819 71.5218 16.3156 71.5218 15.8903C71.5218 15.465 71.4314 15.1027 71.25 14.8034C71.0769 14.4962 70.8483 14.2639 70.5648 14.1063C70.2813 13.9409 69.9741 13.8582 69.6433 13.8582C69.3125 13.8582 69.0012 13.9409 68.71 14.1063C68.4264 14.2639 68.1943 14.4962 68.0129 14.8034C67.8398 15.1027 67.753 15.465 67.753 15.8903C67.753 16.3156 67.8398 16.6819 68.0129 16.989C68.1943 17.2883 68.4305 17.5207 68.7218 17.6861C69.013 17.8436 69.3202 17.9224 69.6433 17.9224ZM76.7962 19.092C76.1742 19.092 75.6266 18.9502 75.1541 18.6667C74.6815 18.3831 74.3117 18.0011 74.0435 17.5207C73.7759 17.0323 73.6418 16.4889 73.6418 15.8903C73.6418 15.2917 73.7759 14.7522 74.0435 14.2717C74.3117 13.7834 74.6815 13.3975 75.1541 13.1139C75.6266 12.8304 76.1742 12.6886 76.7962 12.6886C77.4106 12.6886 77.954 12.8344 78.4266 13.1258C78.8992 13.4093 79.2696 13.7913 79.5372 14.2717C79.8053 14.7522 79.9388 15.2917 79.9388 15.8903C79.9388 16.4889 79.8053 17.0323 79.5372 17.5207C79.2696 18.0011 78.8992 18.3831 78.4266 18.6667C77.954 18.9502 77.4106 19.092 76.7962 19.092ZM76.7962 17.9224C77.127 17.9224 77.4342 17.8436 77.7178 17.6861C78.0013 17.5207 78.2299 17.2883 78.403 16.989C78.5843 16.6819 78.6747 16.3156 78.6747 15.8903C78.6747 15.465 78.5843 15.1027 78.403 14.8034C78.2299 14.4962 78.0013 14.2639 77.7178 14.1063C77.4342 13.9409 77.127 13.8582 76.7962 13.8582C76.4654 13.8582 76.1547 13.9409 75.8629 14.1063C75.5794 14.2639 75.3472 14.4962 75.1659 14.8034C74.9928 15.1027 74.906 15.465 74.906 15.8903C74.906 16.3156 74.9928 16.6819 75.1659 16.989C75.3472 17.2883 75.5835 17.5207 75.8747 17.6861C76.1665 17.8436 76.4737 17.9224 76.7962 17.9224ZM83.8317 21.6439C83.3036 21.6439 82.8469 21.5572 82.4612 21.3839C82.0831 21.2185 81.776 21.0019 81.5397 20.7342C81.3034 20.4742 81.1339 20.2065 81.0317 19.9308L82.2131 19.4346C82.3389 19.7496 82.5398 20.0056 82.8156 20.2025C83.0992 20.4073 83.4376 20.5097 83.8317 20.5097C84.3905 20.5097 84.8276 20.3443 85.143 20.0135C85.4579 19.6827 85.6156 19.2141 85.6156 18.6076V18.0287H85.5447C85.3557 18.3044 85.0958 18.5288 84.765 18.7021C84.4342 18.8754 84.052 18.962 83.619 18.962C83.1068 18.962 82.6343 18.8321 82.2013 18.5721C81.776 18.3122 81.4334 17.9499 81.1734 17.4852C80.9212 17.0127 80.7954 16.4613 80.7954 15.8312C80.7954 15.1933 80.9212 14.6419 81.1734 14.1772C81.4334 13.7047 81.776 13.3384 82.2013 13.0785C82.6343 12.8186 83.1068 12.6886 83.619 12.6886C84.052 12.6886 84.4342 12.7753 84.765 12.9485C85.0958 13.1139 85.3557 13.3424 85.5447 13.6338H85.6156V12.8777H86.8325V18.584C86.8325 19.2377 86.7025 19.793 86.4426 20.2498C86.1904 20.7066 85.8401 21.0531 85.3911 21.2894C84.9422 21.5257 84.4224 21.6439 83.8317 21.6439ZM83.8435 17.8042C84.1583 17.8042 84.4495 17.7294 84.7177 17.5797C84.993 17.4222 85.2098 17.1977 85.3675 16.9063C85.5329 16.607 85.6156 16.2487 85.6156 15.8312C85.6156 15.3901 85.5329 15.0239 85.3675 14.7325C85.2098 14.4411 84.993 14.2205 84.7177 14.0709C84.4495 13.9213 84.1583 13.8464 83.8435 13.8464C83.528 13.8464 83.2327 13.9213 82.9574 14.0709C82.6892 14.2205 82.473 14.445 82.3076 14.7443C82.1422 15.0357 82.0595 15.3981 82.0595 15.8312C82.0595 16.2565 82.1422 16.6188 82.3076 16.9181C82.473 17.2095 82.6892 17.4301 82.9574 17.5797C83.2327 17.7294 83.528 17.8042 83.8435 17.8042ZM88.337 18.9029V10.4439H89.613V18.9029H88.337ZM93.8124 19.092C93.2216 19.092 92.6935 18.9542 92.2292 18.6785C91.7643 18.4028 91.3981 18.0247 91.1305 17.5443C90.8706 17.0639 90.7406 16.5165 90.7406 15.9021C90.7406 15.3272 90.8665 14.7955 91.1187 14.3072C91.3703 13.8188 91.7212 13.429 92.1702 13.1376C92.6268 12.8383 93.1508 12.6886 93.7415 12.6886C94.3635 12.6886 94.891 12.8225 95.3246 13.0903C95.7653 13.3581 96.1002 13.7243 96.3288 14.189C96.5568 14.6538 96.6714 15.1775 96.6714 15.7603C96.6714 15.847 96.6673 15.9257 96.6596 15.9966C96.6596 16.0675 96.6555 16.1226 96.6478 16.162H91.993C92.0243 16.4928 92.107 16.7803 92.2411 17.0245C92.4141 17.3316 92.6427 17.564 92.9263 17.7215C93.2098 17.8791 93.517 17.9578 93.8478 17.9578C94.2495 17.9578 94.5838 17.8672 94.852 17.6861C95.1273 17.497 95.3441 17.2647 95.5018 16.989L96.5533 17.497C96.2934 17.9696 95.9389 18.3555 95.49 18.6548C95.041 18.9462 94.4816 19.092 93.8124 19.092ZM92.0638 15.2051H95.4073C95.399 15.0554 95.36 14.8979 95.2891 14.7325C95.2183 14.5592 95.1155 14.4017 94.982 14.2599C94.8479 14.1182 94.6783 14.004 94.474 13.9173C94.269 13.8228 94.0286 13.7755 93.7533 13.7755C93.4065 13.7755 93.0994 13.8661 92.8318 14.0473C92.5636 14.2205 92.3551 14.4647 92.2056 14.7798C92.1424 14.9137 92.0951 15.0554 92.0638 15.2051ZM101.864 18.9029L99.596 10.4439H101.037L102.384 15.9376L102.526 16.67H102.597L102.774 15.9376L104.475 10.4439H105.775L107.405 15.9376L107.583 16.6582H107.653L107.795 15.9376L109.142 10.4439H110.572L108.339 18.9029H106.968L105.35 13.2912L105.161 12.4996H105.09L104.889 13.2912L103.199 18.9029H101.864ZM112.944 19.092C112.511 19.092 112.125 19.0053 111.786 18.8321C111.455 18.6588 111.192 18.4225 110.994 18.1232C110.805 17.816 110.711 17.4656 110.711 17.0717C110.711 16.6386 110.821 16.2723 111.042 15.973C111.27 15.6737 111.573 15.4453 111.951 15.2878C112.329 15.1302 112.747 15.0515 113.204 15.0515C113.456 15.0515 113.688 15.0712 113.901 15.1106C114.122 15.142 114.311 15.1814 114.468 15.2287C114.633 15.276 114.763 15.3272 114.858 15.3823V15.0633C114.858 14.6695 114.716 14.3544 114.432 14.1182C114.149 13.8819 113.783 13.7637 113.334 13.7637C113.027 13.7637 112.735 13.8346 112.459 13.9764C112.184 14.1103 111.963 14.2954 111.798 14.5317L110.924 13.8582C111.097 13.6141 111.306 13.4053 111.55 13.2321C111.802 13.0588 112.081 12.9249 112.389 12.8304C112.704 12.7359 113.031 12.6886 113.369 12.6886C114.243 12.6886 114.917 12.9052 115.389 13.3384C115.862 13.7637 116.098 14.3623 116.098 15.1342V18.9029H114.858V18.1586H114.787C114.685 18.3162 114.543 18.4658 114.362 18.6076C114.188 18.7494 113.98 18.8635 113.735 18.9502C113.499 19.0447 113.236 19.092 112.944 19.092ZM113.168 18.0523C113.499 18.0523 113.791 17.9736 114.043 17.816C114.302 17.6585 114.503 17.4537 114.645 17.2017C114.787 16.9418 114.858 16.6622 114.858 16.3629C114.685 16.2605 114.472 16.1778 114.22 16.1148C113.976 16.0439 113.716 16.0084 113.44 16.0084C112.92 16.0084 112.55 16.1108 112.329 16.3156C112.109 16.5204 111.999 16.7764 111.999 17.0835C111.999 17.3671 112.105 17.5994 112.318 17.7806C112.53 17.9618 112.814 18.0523 113.168 18.0523ZM117.515 18.9029V10.4439H118.791V18.9029H117.515ZM120.307 18.9029V10.4439H121.583V18.9029H120.307ZM125.782 19.092C125.192 19.092 124.664 18.9542 124.199 18.6785C123.734 18.4028 123.368 18.0247 123.101 17.5443C122.841 17.0639 122.711 16.5165 122.711 15.9021C122.711 15.3272 122.837 14.7955 123.089 14.3072C123.34 13.8188 123.691 13.429 124.14 13.1376C124.597 12.8383 125.121 12.6886 125.712 12.6886C126.334 12.6886 126.861 12.8225 127.295 13.0903C127.735 13.3581 128.07 13.7243 128.299 14.189C128.527 14.6538 128.641 15.1775 128.641 15.7603C128.641 15.847 128.637 15.9257 128.63 15.9966C128.63 16.0675 128.626 16.1226 128.618 16.162H123.963C123.994 16.4928 124.077 16.7803 124.211 17.0245C124.384 17.3316 124.613 17.564 124.896 17.7215C125.18 17.8791 125.487 17.9578 125.818 17.9578C126.22 17.9578 126.554 17.8672 126.822 17.6861C127.097 17.497 127.314 17.2647 127.472 16.989L128.523 17.497C128.263 17.9696 127.909 18.3555 127.46 18.6548C127.011 18.9462 126.452 19.092 125.782 19.092ZM124.034 15.2051H127.377C127.369 15.0554 127.33 14.8979 127.259 14.7325C127.188 14.5592 127.086 14.4017 126.952 14.2599C126.818 14.1182 126.648 14.004 126.444 13.9173C126.239 13.8228 125.999 13.7755 125.723 13.7755C125.377 13.7755 125.069 13.8661 124.802 14.0473C124.534 14.2205 124.325 14.4647 124.176 14.7798C124.112 14.9137 124.065 15.0554 124.034 15.2051ZM129.239 12.8777H130.29V11.1764H131.566V12.8777H133.043V13.9882H131.566V16.8827C131.566 17.182 131.625 17.4104 131.743 17.5679C131.869 17.7255 132.078 17.8042 132.369 17.8042C132.511 17.8042 132.637 17.7845 132.748 17.7451C132.857 17.6979 132.968 17.6428 133.078 17.5797V18.8202C132.944 18.8754 132.802 18.9187 132.653 18.9502C132.503 18.9817 132.326 18.9975 132.121 18.9975C131.562 18.9975 131.117 18.836 130.786 18.5131C130.456 18.1823 130.29 17.7294 130.29 17.1544V13.9882H129.239V12.8777Z" fill="white"/>
<path d="M138.17 18.9616C137.98 18.9852 137.819 18.9419 137.685 18.8317C137.559 18.7214 137.496 18.5048 137.496 18.1819C137.496 17.7723 137.575 17.3194 137.732 16.8232C137.89 16.3192 138.094 15.8151 138.347 15.311C138.599 14.799 138.871 14.3107 139.162 13.846C139.453 13.3735 139.725 12.96 139.977 12.6055L139.953 12.5701H138.784V10.7389C138.784 10.5026 138.764 10.3057 138.725 10.1482C138.693 9.98275 138.642 9.84494 138.571 9.73465C138.508 9.61651 138.418 9.51414 138.299 9.42748L139.493 9.34478C139.721 9.32901 139.875 9.42352 139.953 9.62832C140.032 9.83312 140.072 10.1876 140.072 10.6916V11.5186H142.175L142.21 11.6013C141.95 11.9085 141.678 12.259 141.395 12.6528C141.119 13.0387 140.851 13.4404 140.591 13.8578L140.615 13.8933C140.812 13.8303 141.045 13.7712 141.312 13.7161C141.58 13.661 141.848 13.6334 142.115 13.6334C142.352 13.6334 142.541 13.6846 142.683 13.787C142.832 13.8893 142.954 14.0745 143.049 14.3422C143.143 14.6021 143.23 14.9723 143.309 15.4528L143.722 17.7802C143.762 18.0165 143.813 18.2095 143.876 18.3591C143.939 18.5009 144.006 18.6111 144.077 18.6899C144.155 18.7686 144.234 18.8277 144.313 18.8671L143.226 18.9734C143.068 18.9892 142.942 18.9734 142.848 18.9262C142.753 18.8868 142.675 18.7844 142.612 18.619C142.548 18.4457 142.486 18.174 142.423 17.8038L142.021 15.4528C141.981 15.2243 141.915 15.0471 141.82 14.9211C141.733 14.7872 141.553 14.7203 141.277 14.7203C141.009 14.7203 140.745 14.7557 140.485 14.8266C140.233 14.8896 140.048 14.9448 139.93 14.992C139.835 15.1496 139.725 15.3583 139.599 15.6182C139.473 15.8702 139.347 16.1459 139.221 16.4452C139.103 16.7445 139.001 17.0437 138.914 17.3431C138.835 17.6424 138.796 17.922 138.796 18.1819C138.796 18.4024 138.823 18.5599 138.878 18.6544C138.942 18.749 139.024 18.8198 139.126 18.8671L138.17 18.9616ZM146.601 18.9616C146.483 18.9695 146.388 18.9538 146.317 18.9144C146.254 18.875 146.191 18.8041 146.128 18.7017C146.057 18.5678 145.991 18.3788 145.927 18.1346C145.872 17.8905 145.845 17.6187 145.845 17.3194C145.845 16.776 145.911 16.327 146.046 15.9726C146.18 15.6182 146.305 15.3661 146.424 15.2165H145.549C145.573 14.4131 145.727 13.7121 146.01 13.1135C146.223 12.6646 146.499 12.2905 146.837 11.9912H146.057V10.3372C146.057 9.98275 146.018 9.71102 145.939 9.522C145.868 9.33297 145.746 9.16757 145.573 9.0258L146.766 8.9431C146.916 8.92732 147.034 8.96277 147.121 9.04942C147.207 9.13608 147.267 9.28175 147.298 9.48655C147.329 9.68344 147.345 9.95127 147.345 10.2899V11.6249C147.818 11.3572 148.369 11.2233 148.999 11.2233C149.866 11.2233 150.488 11.4477 150.866 11.8967C151.251 12.3456 151.445 13.0151 151.445 13.9051C151.445 14.4328 151.413 14.9605 151.35 15.4882C151.287 16.0159 151.256 16.5555 151.256 17.1068C151.256 17.5242 151.283 17.8511 151.338 18.0874C151.393 18.3158 151.464 18.4851 151.551 18.5954C151.638 18.7057 151.724 18.7962 151.811 18.8671L150.606 18.9616C150.464 18.9774 150.346 18.934 150.251 18.8317C150.157 18.7293 150.082 18.5481 150.027 18.2882C149.98 18.0204 149.956 17.6463 149.956 17.1658C149.956 16.5751 149.987 16.0317 150.051 15.5355C150.121 15.0393 150.157 14.5391 150.157 14.0351C150.157 13.4286 150.055 12.9994 149.85 12.7473C149.645 12.4874 149.322 12.3574 148.881 12.3574C148.511 12.3574 148.196 12.4401 147.936 12.6055C147.676 12.7709 147.467 12.9954 147.31 13.2789C147.16 13.5546 147.057 13.8775 147.002 14.2477H148.574C148.353 14.4367 148.133 14.677 147.912 14.9684C147.692 15.2519 147.506 15.5788 147.357 15.949C147.215 16.3192 147.144 16.7366 147.144 17.2013C147.144 17.6345 147.207 17.981 147.333 18.2409C147.459 18.5009 147.605 18.7096 147.77 18.8671L146.601 18.9616ZM154.759 15.5709L154.806 15.6064C154.87 15.5827 154.968 15.5512 155.102 15.5118C155.244 15.4724 155.444 15.4528 155.704 15.4528C156.004 15.4528 156.287 15.5079 156.555 15.6182C156.822 15.7285 157.043 15.9135 157.217 16.1734C157.39 16.4334 157.476 16.7838 157.476 17.2249C157.476 17.6424 157.386 17.9928 157.205 18.2764C157.032 18.5521 156.787 18.7568 156.472 18.8907C156.157 19.0246 155.791 19.0916 155.373 19.0916C154.956 19.0916 154.594 19.0246 154.287 18.8907C153.979 18.749 153.743 18.4969 153.578 18.1346C153.412 17.7723 153.33 17.2643 153.33 16.6106C153.33 15.9253 153.452 15.2637 153.696 14.6258C153.94 13.9878 154.271 13.4049 154.688 12.8773C155.106 12.3417 155.578 11.8927 156.106 11.5304L155.799 9.88824L157.087 9.65195L157.406 11.4595C157.886 11.7509 158.256 12.1054 158.516 12.5228C158.776 12.9403 158.977 13.4247 159.119 13.976C159.268 14.5273 159.394 15.1456 159.497 15.8308L159.792 17.7093C159.832 17.9534 159.879 18.1504 159.934 18.3C159.997 18.4418 160.068 18.556 160.146 18.6426C160.225 18.7214 160.312 18.7962 160.406 18.8671L159.331 18.9734C159.174 18.9892 159.04 18.9734 158.93 18.9262C158.827 18.8868 158.741 18.7804 158.67 18.6072C158.606 18.4339 158.547 18.1701 158.492 17.8156L158.221 15.9844C158.087 15.0393 157.909 14.2871 157.689 13.7279C157.469 13.1608 157.173 12.7709 156.803 12.5583C156.535 12.7158 156.283 12.9206 156.047 13.1726C155.818 13.4168 155.614 13.6846 155.433 13.976C155.251 14.2674 155.102 14.5509 154.984 14.8266C154.865 15.1023 154.79 15.3504 154.759 15.5709ZM155.373 18.0401C155.602 18.0401 155.791 17.9732 155.941 17.8393C156.09 17.7053 156.165 17.5124 156.165 17.2604C156.165 17.0004 156.094 16.8114 155.952 16.6933C155.811 16.5673 155.626 16.5042 155.397 16.5042C155.192 16.5042 155.027 16.5318 154.901 16.5869C154.775 16.6342 154.684 16.6815 154.629 16.7287C154.629 16.8863 154.637 17.0437 154.653 17.2013C154.669 17.3509 154.7 17.4927 154.747 17.6266C154.795 17.7526 154.865 17.855 154.96 17.9338C155.062 18.0047 155.2 18.0401 155.373 18.0401Z" fill="white"/>
</g>
<defs>
<clipPath id="clip0_568_50">
<rect width="173.67" height="29.5357" fill="white"/>
</clipPath>
</defs>
</svg>
