<svg width="174" height="40" viewBox="0 0 174 40" fill="none" xmlns="http://www.w3.org/2000/svg">
<g clip-path="url(#clip0_568_780)">
<path d="M153.772 0.361328H19.9012C9.11069 0.361328 0.363281 9.10873 0.363281 19.8992C0.363281 30.6897 9.11069 39.4371 19.9012 39.4371H153.772C164.562 39.4371 173.31 30.6897 173.31 19.8992C173.31 9.10873 164.562 0.361328 153.772 0.361328Z" fill="#1F1F1F"/>
<path d="M41.2458 17.2153H15.1953V13.1301C15.1953 10.9125 17.1073 9.04492 19.3777 9.04492H37.0634C39.3338 9.04492 41.2458 10.9125 41.2458 13.1301V17.2153Z" fill="#34A853"/>
<path d="M41.2458 20.9853H15.1953V16.6435C15.1953 14.2866 17.1073 12.3018 19.3777 12.3018H37.0634C39.3338 12.3018 41.2458 14.2866 41.2458 16.6435V20.9853Z" fill="#FBBC04"/>
<path d="M41.2458 24.6034H15.1953V20.2617C15.1953 17.9048 17.1073 15.9199 19.3777 15.9199H37.0634C39.3338 15.9199 41.2458 17.9048 41.2458 20.2617V24.6034Z" fill="#EA4335"/>
<path d="M15.1953 18.2647L31.7296 21.9998C33.6329 22.4666 35.774 21.9998 37.3204 20.8325L41.2458 18.0312V26.7852C41.2458 29.0029 39.3426 30.7537 37.0825 30.7537H19.3586C17.0985 30.7537 15.1953 29.0029 15.1953 26.7852V18.2647Z" fill="url(#paint0_linear_568_780)"/>
<path d="M50.0703 15.5576L52.6102 8.82213H53.7861L56.3355 15.5576H55.1972L54.5763 13.8267H51.8294L51.2086 15.5576H50.0703ZM52.9207 10.807L52.1775 12.8672H54.2283L53.4851 10.807L53.2311 10.0356H53.1747L52.9207 10.807ZM58.9849 15.7081C58.5521 15.7081 58.1602 15.6016 57.809 15.3883C57.4641 15.1688 57.1881 14.8678 56.9811 14.4852C56.7805 14.0964 56.6801 13.6543 56.6801 13.1588C56.6801 12.6633 56.7805 12.2244 56.9811 11.8418C57.1881 11.4592 57.4641 11.1582 57.809 10.9387C58.1602 10.7193 58.5521 10.6095 58.9849 10.6095C59.3549 10.6095 59.6716 10.691 59.935 10.8541C60.2047 11.0171 60.4022 11.2021 60.5276 11.4091H60.5841L60.5276 10.7412V8.82213H61.5342V15.5576H60.5841V14.9179H60.5276C60.4022 15.1249 60.2047 15.3099 59.935 15.473C59.6716 15.6298 59.3549 15.7081 58.9849 15.7081ZM59.1354 14.7768C59.3863 14.7768 59.6214 14.711 59.8409 14.5793C60.0667 14.4476 60.2454 14.2626 60.3771 14.0243C60.5151 13.7797 60.5841 13.4912 60.5841 13.1588C60.5841 12.8265 60.5151 12.5411 60.3771 12.3028C60.2454 12.0582 60.0667 11.87 59.8409 11.7383C59.6214 11.6066 59.3863 11.5408 59.1354 11.5408C58.8846 11.5408 58.6494 11.6066 58.4298 11.7383C58.2104 11.87 58.0316 12.0582 57.8936 12.3028C57.7557 12.5411 57.6867 12.8265 57.6867 13.1588C57.6867 13.4912 57.7557 13.7797 57.8936 14.0243C58.0316 14.2626 58.2104 14.4476 58.4298 14.5793C58.6494 14.711 58.8846 14.7768 59.1354 14.7768ZM63.3142 10.0545C63.126 10.0545 62.9629 9.98861 62.825 9.85691C62.6933 9.71892 62.6275 9.55589 62.6275 9.36774C62.6275 9.1796 62.6933 9.01968 62.825 8.88798C62.9629 8.75628 63.126 8.69043 63.3142 8.69043C63.5023 8.69043 63.6622 8.75628 63.7939 8.88798C63.9319 9.01968 64.0009 9.1796 64.0009 9.36774C64.0009 9.55589 63.9319 9.71892 63.7939 9.85691C63.6622 9.98861 63.5023 10.0545 63.3142 10.0545ZM62.8062 15.5576V10.76H63.8222V15.5576H62.8062ZM67.2568 15.7081C66.774 15.7081 66.3475 15.5984 65.9775 15.3789C65.6075 15.1594 65.3159 14.8584 65.1026 14.4758C64.8894 14.087 64.7828 13.648 64.7828 13.1588C64.7828 12.6696 64.8894 12.2338 65.1026 11.8512C65.3159 11.4624 65.6075 11.1582 65.9775 10.9387C66.3475 10.7193 66.774 10.6095 67.2568 10.6095C67.7899 10.6095 68.2383 10.7287 68.6021 10.967C68.9721 11.2052 69.2354 11.5283 69.3923 11.9359L68.4704 12.3122C68.2509 11.7979 67.8401 11.5408 67.238 11.5408C66.9746 11.5408 66.7332 11.6098 66.5137 11.7477C66.2942 11.8794 66.1186 12.0676 65.9869 12.3122C65.8552 12.5505 65.7893 12.8327 65.7893 13.1588C65.7893 13.485 65.8552 13.7703 65.9869 14.0149C66.1186 14.2594 66.2942 14.4476 66.5137 14.5793C66.7332 14.711 66.9746 14.7768 67.238 14.7768C67.5453 14.7768 67.8056 14.7079 68.0188 14.5699C68.2321 14.4257 68.3982 14.2312 68.5174 13.9866L69.4205 14.3817C69.2511 14.7643 68.9815 15.081 68.6115 15.3319C68.2415 15.5827 67.7899 15.7081 67.2568 15.7081ZM70.8747 10.0545C70.6866 10.0545 70.5236 9.98861 70.3856 9.85691C70.2539 9.71892 70.188 9.55589 70.188 9.36774C70.188 9.1796 70.2539 9.01968 70.3856 8.88798C70.5236 8.75628 70.6866 8.69043 70.8747 8.69043C71.0629 8.69043 71.2228 8.75628 71.3545 8.88798C71.4925 9.01968 71.5615 9.1796 71.5615 9.36774C71.5615 9.55589 71.4925 9.71892 71.3545 9.85691C71.2228 9.98861 71.0629 10.0545 70.8747 10.0545ZM70.3668 15.5576V10.76H71.3827V15.5576H70.3668ZM74.8552 15.7081C74.3595 15.7081 73.9239 15.5953 73.5476 15.3695C73.1713 15.1437 72.8768 14.8396 72.6633 14.457C72.4499 14.0744 72.3433 13.6417 72.3433 13.1588C72.3433 12.6822 72.4499 12.2526 72.6633 11.87C72.8768 11.4812 73.1713 11.1739 73.5476 10.9481C73.9239 10.7224 74.3595 10.6095 74.8552 10.6095C75.3444 10.6095 75.7771 10.7224 76.1534 10.9481C76.5297 11.1739 76.8242 11.4812 77.0376 11.87C77.2511 12.2526 77.3575 12.6822 77.3575 13.1588C77.3575 13.6417 77.2511 14.0744 77.0376 14.457C76.8242 14.8396 76.5297 15.1437 76.1534 15.3695C75.7771 15.5953 75.3444 15.7081 74.8552 15.7081ZM74.8552 14.7768C75.1186 14.7768 75.3632 14.7141 75.5889 14.5887C75.8147 14.457 75.9963 14.272 76.1346 14.0337C76.2786 13.7891 76.3509 13.4975 76.3509 13.1588C76.3509 12.8202 76.2786 12.5316 76.1346 12.2934C75.9963 12.0488 75.8147 11.8637 75.5889 11.7383C75.3632 11.6066 75.1186 11.5408 74.8552 11.5408C74.5918 11.5408 74.3443 11.6066 74.112 11.7383C73.8863 11.8637 73.701 12.0488 73.557 12.2934C73.4188 12.5316 73.35 12.8202 73.35 13.1588C73.35 13.4975 73.4188 13.7891 73.557 14.0337C73.701 14.272 73.8863 14.457 74.112 14.5887C74.3443 14.7141 74.5918 14.7768 74.8552 14.7768ZM78.2012 15.5576V10.76H79.1608V11.4185H79.2172C79.3554 11.1864 79.5588 10.9952 79.8287 10.8447C80.1044 10.6879 80.4054 10.6095 80.7317 10.6095C81.3215 10.6095 81.7636 10.7851 82.0582 11.1363C82.3527 11.4875 82.5003 11.9516 82.5003 12.5285V15.5576H81.4937V12.6602C81.4937 12.2714 81.3968 11.9892 81.2021 11.8136C81.0075 11.6317 80.7535 11.5408 80.4401 11.5408C80.1955 11.5408 79.9821 11.6098 79.8004 11.7477C79.6188 11.8794 79.4741 12.0551 79.3677 12.2745C79.2671 12.494 79.2172 12.7292 79.2172 12.9801V15.5576H78.2012ZM85.1176 15.7081C84.7725 15.7081 84.4649 15.6423 84.1957 15.5106C83.9258 15.3726 83.716 15.1813 83.5655 14.9368C83.415 14.6922 83.3397 14.4131 83.3397 14.0995C83.3397 13.7609 83.4273 13.4724 83.6031 13.2341C83.7847 12.9895 84.0264 12.8045 84.3274 12.6791C84.6285 12.5536 84.9606 12.4909 85.3246 12.4909C85.6256 12.4909 85.889 12.5191 86.1148 12.5756C86.3464 12.632 86.5222 12.6916 86.6416 12.7543V12.5003C86.6416 12.1868 86.5287 11.9359 86.3029 11.7477C86.0772 11.5596 85.7855 11.4655 85.4281 11.4655C85.1835 11.4655 84.9512 11.522 84.7319 11.6349C84.512 11.7414 84.3368 11.8889 84.2051 12.077L83.509 11.5408C83.716 11.2523 83.9888 11.0265 84.3274 10.8635C84.6719 10.6941 85.0482 10.6095 85.4563 10.6095C86.1524 10.6095 86.6886 10.7819 87.0649 11.1269C87.4412 11.4655 87.6293 11.9422 87.6293 12.5568V15.5576H86.6416V14.965H86.5851C86.4592 15.1594 86.2711 15.3319 86.0207 15.4824C85.7696 15.6329 85.4686 15.7081 85.1176 15.7081ZM85.2964 14.8803C85.5598 14.8803 85.7913 14.8176 85.9925 14.6922C86.1929 14.5668 86.35 14.4037 86.4629 14.203C86.5815 13.996 86.6416 13.7734 86.6416 13.5351C86.4969 13.4535 86.3275 13.3877 86.1336 13.3375C85.939 13.2811 85.732 13.2529 85.5127 13.2529C85.0988 13.2529 84.8036 13.3375 84.6285 13.5069C84.4526 13.6699 84.3651 13.8706 84.3651 14.1089C84.3651 14.3347 84.4497 14.5197 84.6191 14.664C84.7884 14.8082 85.0142 14.8803 85.2964 14.8803ZM88.7473 15.5576V10.76H89.7069V11.4655H89.7633C89.8704 11.2209 90.052 11.0203 90.3089 10.8635C90.5723 10.7004 90.8545 10.6189 91.1556 10.6189C91.2873 10.6189 91.3973 10.6283 91.4848 10.6471C91.5789 10.6659 91.6636 10.6879 91.7388 10.713V11.7666C91.6201 11.7164 91.4978 11.6756 91.3719 11.6443C91.2533 11.6129 91.1273 11.5972 90.9956 11.5972C90.7576 11.5972 90.5441 11.6631 90.356 11.7948C90.1743 11.9202 90.0303 12.0927 89.9232 12.3122C89.8169 12.5254 89.7633 12.7606 89.7633 13.0177V15.5576H88.7473ZM96.2238 15.7081C95.8787 15.7081 95.5718 15.6423 95.3019 15.5106C95.032 15.3726 94.8222 15.1813 94.6717 14.9368C94.5211 14.6922 94.4459 14.4131 94.4459 14.0995C94.4459 13.7609 94.5334 13.4724 94.7093 13.2341C94.8909 12.9895 95.1326 12.8045 95.4336 12.6791C95.7347 12.5536 96.0668 12.4909 96.4308 12.4909C96.7318 12.4909 96.9952 12.5191 97.221 12.5756C97.4533 12.632 97.6284 12.6916 97.7478 12.7543V12.5003C97.7478 12.1868 97.6349 11.9359 97.4091 11.7477C97.1834 11.5596 96.8917 11.4655 96.5343 11.4655C96.2897 11.4655 96.0574 11.522 95.8381 11.6349C95.6189 11.7414 95.443 11.8889 95.3113 12.077L94.6152 11.5408C94.8222 11.2523 95.095 11.0265 95.4336 10.8635C95.7788 10.6941 96.1551 10.6095 96.5625 10.6095C97.2586 10.6095 97.7948 10.7819 98.1711 11.1269C98.5474 11.4655 98.7355 11.9422 98.7355 12.5568V15.5576H97.7478V14.965H97.6913C97.5662 15.1594 97.378 15.3319 97.1269 15.4824C96.8758 15.6329 96.5748 15.7081 96.2238 15.7081ZM96.4026 14.8803C96.666 14.8803 96.8983 14.8176 97.0987 14.6922C97.2991 14.5668 97.4562 14.4037 97.5691 14.203C97.6885 13.996 97.7478 13.7734 97.7478 13.5351C97.6038 13.4535 97.4345 13.3877 97.2398 13.3375C97.0452 13.2811 96.8382 13.2529 96.6189 13.2529C96.205 13.2529 95.9105 13.3375 95.7347 13.5069C95.5588 13.6699 95.4713 13.8706 95.4713 14.1089C95.4713 14.3347 95.5559 14.5197 95.7253 14.664C95.8946 14.8082 96.1204 14.8803 96.4026 14.8803Z" fill="white"/>
<path d="M55.0729 30.227C54.425 30.227 53.8222 30.1122 53.2645 29.8826C52.7068 29.6447 52.2189 29.3167 51.8006 28.8984C51.3906 28.4802 51.0667 27.9922 50.8288 27.4345C50.5992 26.8768 50.4844 26.2741 50.4844 25.6262C50.4844 24.9783 50.5992 24.3756 50.8288 23.8179C51.0667 23.2602 51.3906 22.7722 51.8006 22.354C52.2189 21.9357 52.7068 21.6117 53.2645 21.3821C53.8222 21.1443 54.425 21.0254 55.0729 21.0254C55.7618 21.0254 56.3769 21.1525 56.9181 21.4067C57.4594 21.6528 57.931 22.0054 58.3328 22.4647L57.3856 23.3873C57.0903 23.0347 56.7541 22.7681 56.3769 22.5877C56.0078 22.399 55.5772 22.3048 55.0852 22.3048C54.4947 22.3048 53.9534 22.4442 53.4614 22.723C52.9693 22.9937 52.5757 23.3791 52.2804 23.8794C51.9934 24.3714 51.8499 24.9537 51.8499 25.6262C51.8499 26.2987 51.9934 26.8851 52.2804 27.3853C52.5757 27.8774 52.9693 28.2629 53.4614 28.5417C53.9534 28.8123 54.4947 28.9476 55.0852 28.9476C55.6183 28.9476 56.0898 28.8369 56.4999 28.6155C56.9181 28.3941 57.2872 28.0906 57.607 27.7052L58.5788 28.6401C58.1688 29.124 57.6644 29.5094 57.0657 29.7964C56.4753 30.0835 55.811 30.227 55.0729 30.227ZM61.6 30.227C61.1489 30.227 60.747 30.1409 60.3944 29.9687C60.0417 29.7883 59.767 29.5381 59.5702 29.2183C59.3734 28.8984 59.275 28.5335 59.275 28.1234C59.275 27.6806 59.3897 27.3033 59.6194 26.9917C59.8572 26.6718 60.173 26.4299 60.5666 26.2659C60.9603 26.1018 61.3949 26.0199 61.8706 26.0199C62.2643 26.0199 62.6087 26.0568 62.904 26.1306C63.2074 26.2044 63.437 26.2823 63.5928 26.3643V26.0322C63.5928 25.6221 63.4452 25.2941 63.15 25.048C62.8547 24.802 62.4734 24.679 62.0059 24.679C61.6861 24.679 61.3826 24.7528 61.0956 24.9004C60.8086 25.0398 60.5789 25.2325 60.4067 25.4786L59.4964 24.7774C59.767 24.4002 60.1238 24.1049 60.5666 23.8917C61.0177 23.6702 61.5097 23.5595 62.0428 23.5595C62.9532 23.5595 63.6543 23.7851 64.1464 24.2361C64.6385 24.679 64.8845 25.3022 64.8845 26.106V30.0302H63.5928V29.2552H63.519C63.355 29.5094 63.109 29.7349 62.7809 29.9318C62.4528 30.1286 62.0592 30.227 61.6 30.227ZM61.8337 29.1445C62.1782 29.1445 62.4816 29.0625 62.744 28.8984C63.0064 28.7344 63.2115 28.5212 63.3591 28.2587C63.5149 27.9881 63.5928 27.697 63.5928 27.3853C63.4042 27.2787 63.1828 27.1926 62.9286 27.127C62.6743 27.0532 62.4036 27.0163 62.1166 27.0163C61.5754 27.0163 61.1899 27.127 60.9603 27.3484C60.7306 27.5617 60.6158 27.8241 60.6158 28.1357C60.6158 28.431 60.7266 28.6729 60.948 28.8615C61.1694 29.0502 61.4647 29.1445 61.8337 29.1445ZM71.9935 28.2095V24.9127H70.8987V23.7564H71.9935V21.9849H73.322V23.7564H74.8597V24.9127H73.322V27.9266C73.322 28.2383 73.3835 28.476 73.5065 28.6401C73.6382 28.8041 73.8553 28.8861 74.1585 28.8861C74.3148 28.8861 74.4458 28.8657 74.5521 28.8246C74.6672 28.7836 74.7823 28.7262 74.8966 28.6524V29.9441C74.7577 30.0015 74.61 30.0466 74.4537 30.0794C74.2982 30.1122 74.118 30.1286 73.9125 30.1286C73.322 30.1286 72.8545 29.9605 72.5101 29.6242C72.1658 29.2798 71.9935 28.8082 71.9935 28.2095ZM66.3471 30.0302V23.7564H67.6019V24.679H67.6757C67.8397 24.3345 68.0939 24.068 68.4384 23.8794C68.7828 23.6825 69.156 23.5841 69.5578 23.5841C69.7875 23.5841 69.9597 23.6006 70.0745 23.6333V24.9619C69.8941 24.9045 69.6727 24.8758 69.4102 24.8758C68.8854 24.8758 68.463 25.0439 68.1431 25.3802C67.8315 25.7164 67.6757 26.1716 67.6757 26.7456V30.0302H66.3471ZM78.7759 30.227C78.1609 30.227 77.6116 30.0835 77.1275 29.7964C76.6434 29.5094 76.2621 29.1157 75.9835 28.6155C75.7128 28.1153 75.5775 27.5453 75.5775 26.9056C75.5775 26.3069 75.7085 25.7533 75.9712 25.2448C76.2338 24.7364 76.5986 24.3304 77.066 24.027C77.5414 23.7153 78.0871 23.5595 78.7021 23.5595C79.3498 23.5595 79.8997 23.699 80.3506 23.9778C80.8101 24.2566 81.1581 24.6379 81.3962 25.1218C81.6343 25.6057 81.7529 26.151 81.7529 26.7579C81.7529 26.8482 81.7486 26.9302 81.7406 27.004C81.7406 27.0778 81.7363 27.1352 81.7283 27.1762H76.8815C76.9473 27.7995 77.1644 28.2669 77.5335 28.5786C77.9105 28.8903 78.3374 29.046 78.8128 29.046C79.2391 29.046 79.5922 28.9518 79.8708 28.7631C80.1494 28.5663 80.3708 28.3244 80.5351 28.0373L81.6299 28.5663C81.3593 29.0584 80.9902 29.4602 80.5228 29.7718C80.0553 30.0753 79.4728 30.227 78.7759 30.227ZM78.7144 24.6913C78.2716 24.6913 77.8946 24.8266 77.5827 25.0972C77.2708 25.3679 77.0617 25.7287 76.9553 26.1798H80.4367C80.42 25.9665 80.3505 25.7451 80.2275 25.5155C80.1045 25.2859 79.9157 25.0931 79.6617 24.9373C79.4156 24.7733 79.1001 24.6913 78.7144 24.6913ZM83.748 22.8337C83.5019 22.8337 83.2892 22.7476 83.1083 22.5754C82.9361 22.395 82.8499 22.1817 82.8499 21.9357C82.8499 21.6897 82.9361 21.4806 83.1083 21.3083C83.2892 21.1361 83.5019 21.05 83.748 21.05C83.994 21.05 84.2031 21.1361 84.3754 21.3083C84.5563 21.4806 84.646 21.6897 84.646 21.9357C84.646 22.1817 84.5563 22.395 84.3754 22.5754C84.2031 22.7476 83.994 22.8337 83.748 22.8337ZM83.0837 30.0302V23.7564H84.4123V30.0302H83.0837ZM86.0607 30.0302V23.7564H87.3154V24.679H87.3893C87.5289 24.3591 87.767 24.0967 88.1027 23.8917C88.4472 23.6784 88.8162 23.5718 89.2099 23.5718C89.3821 23.5718 89.5261 23.5841 89.6404 23.6087C89.7635 23.6333 89.8742 23.6621 89.9726 23.6948V25.0726C89.817 25.007 89.6571 24.9537 89.4928 24.9127C89.3372 24.8717 89.173 24.8512 89.0008 24.8512C88.6896 24.8512 88.4103 24.9373 88.1643 25.1095C87.9269 25.2736 87.738 25.4991 87.5984 25.7861C87.4594 26.0649 87.3893 26.3725 87.3893 26.7087V30.0302H86.0607ZM92.7506 30.227C92.299 30.227 91.8974 30.1409 91.545 29.9687C91.1919 29.7883 90.9176 29.5381 90.7208 29.2183C90.524 28.8984 90.4256 28.5335 90.4256 28.1234C90.4256 27.6806 90.5399 27.3033 90.77 26.9917C91.0074 26.6718 91.3236 26.4299 91.7173 26.2659C92.1109 26.1018 92.5451 26.0199 93.0212 26.0199C93.4149 26.0199 93.7593 26.0568 94.0546 26.1306C94.3578 26.2044 94.5871 26.2823 94.7434 26.3643V26.0322C94.7434 25.6221 94.5958 25.2941 94.3006 25.048C94.0053 24.802 93.624 24.679 93.1565 24.679C92.8367 24.679 92.5328 24.7528 92.2462 24.9004C91.9589 25.0398 91.7296 25.2325 91.5573 25.4786L90.647 24.7774C90.9176 24.4002 91.2744 24.1049 91.7173 23.8917C92.1681 23.6702 92.6601 23.5595 93.1934 23.5595C94.1038 23.5595 94.805 23.7851 95.297 24.2361C95.7891 24.679 96.0351 25.3022 96.0351 26.106V30.0302H94.7434V29.2552H94.6696C94.5054 29.5094 94.2593 29.7349 93.9315 29.9318C93.603 30.1286 93.2094 30.227 92.7506 30.227ZM92.9843 29.1445C93.3288 29.1445 93.632 29.0625 93.8946 28.8984C94.1566 28.7344 94.3621 28.5212 94.5097 28.2587C94.6653 27.9881 94.7434 27.697 94.7434 27.3853C94.5546 27.2787 94.3332 27.1926 94.0792 27.127C93.8244 27.0532 93.5538 27.0163 93.2673 27.0163C92.726 27.0163 92.3403 27.127 92.1109 27.3484C91.8808 27.5617 91.7665 27.8241 91.7665 28.1357C91.7665 28.431 91.8772 28.6729 92.0986 28.8615C92.32 29.0502 92.6153 29.1445 92.9843 29.1445ZM103.051 30.227C102.485 30.227 101.972 30.0876 101.513 29.8088C101.062 29.5217 100.701 29.128 100.43 28.6278C100.168 28.1193 100.037 27.5411 100.037 26.8933C100.037 26.2454 100.168 25.6713 100.43 25.171C100.701 24.6708 101.062 24.2771 101.513 23.9901C101.972 23.703 102.485 23.5595 103.051 23.5595C103.535 23.5595 103.949 23.6661 104.293 23.8794C104.646 24.0926 104.904 24.3345 105.068 24.6052H105.142L105.068 23.7317V21.2222H106.384V30.0302H105.142V29.1937H105.068C104.904 29.4643 104.646 29.7062 104.293 29.9195C103.949 30.1245 103.535 30.227 103.051 30.227ZM103.247 29.0091C103.575 29.0091 103.883 28.923 104.17 28.7508C104.465 28.5786 104.699 28.3367 104.871 28.025C105.051 27.7052 105.142 27.3279 105.142 26.8933C105.142 26.4586 105.051 26.0855 104.871 25.7738C104.699 25.454 104.465 25.2079 104.17 25.0357C103.883 24.8635 103.575 24.7774 103.247 24.7774C102.92 24.7774 102.612 24.8635 102.325 25.0357C102.038 25.2079 101.804 25.454 101.624 25.7738C101.443 26.0855 101.353 26.4586 101.353 26.8933C101.353 27.3279 101.443 27.7052 101.624 28.025C101.804 28.3367 102.038 28.5786 102.325 28.7508C102.612 28.923 102.92 29.0091 103.247 29.0091ZM110.841 30.227C110.194 30.227 109.623 30.0794 109.131 29.7841C108.639 29.4889 108.254 29.0911 107.975 28.5909C107.696 28.0906 107.557 27.5248 107.557 26.8933C107.557 26.27 107.696 25.7082 107.975 25.2079C108.254 24.6995 108.639 24.2976 109.131 24.0024C109.623 23.7071 110.194 23.5595 110.841 23.5595C111.481 23.5595 112.047 23.7071 112.539 24.0024C113.031 24.2976 113.417 24.6995 113.695 25.2079C113.975 25.7082 114.113 26.27 114.113 26.8933C114.113 27.5248 113.975 28.0906 113.695 28.5909C113.417 29.0911 113.031 29.4889 112.539 29.7841C112.047 30.0794 111.481 30.227 110.841 30.227ZM110.841 29.0091C111.186 29.0091 111.506 28.9272 111.801 28.7631C112.096 28.5909 112.334 28.349 112.514 28.0373C112.703 27.7175 112.797 27.3361 112.797 26.8933C112.797 26.4504 112.703 26.0732 112.514 25.7615C112.334 25.4417 112.096 25.1998 111.801 25.0357C111.506 24.8635 111.186 24.7774 110.841 24.7774C110.497 24.7774 110.173 24.8635 109.869 25.0357C109.574 25.1998 109.332 25.4417 109.144 25.7615C108.963 26.0732 108.873 26.4504 108.873 26.8933C108.873 27.3361 108.963 27.7175 109.144 28.0373C109.332 28.349 109.574 28.5909 109.869 28.7631C110.173 28.9272 110.497 29.0091 110.841 29.0091ZM122.36 30.227C121.728 30.227 121.134 30.1122 120.576 29.8826C120.027 29.653 119.538 29.3331 119.112 28.923C118.686 28.5048 118.35 28.0168 118.104 27.4591C117.865 26.8933 117.747 26.2823 117.747 25.6262C117.747 24.9701 117.865 24.3633 118.104 23.8056C118.35 23.2397 118.682 22.7517 119.1 22.3417C119.526 21.9234 120.018 21.5994 120.576 21.3698C121.134 21.1402 121.728 21.0254 122.36 21.0254C123.032 21.0254 123.652 21.1443 124.217 21.3821C124.791 21.62 125.271 21.9521 125.657 22.3786L124.722 23.3012C124.435 22.9813 124.09 22.7353 123.688 22.5631C123.295 22.3909 122.852 22.3048 122.36 22.3048C121.777 22.3048 121.24 22.4442 120.748 22.723C120.256 22.9937 119.858 23.3791 119.555 23.8794C119.26 24.3714 119.112 24.9537 119.112 25.6262C119.112 26.2987 119.264 26.8851 119.567 27.3853C119.871 27.8774 120.269 28.2629 120.761 28.5417C121.253 28.8123 121.79 28.9476 122.372 28.9476C122.905 28.9476 123.389 28.8492 123.824 28.6524C124.259 28.4474 124.607 28.1603 124.869 27.7913C125.14 27.4222 125.304 26.9794 125.361 26.4627H122.348V25.2695H126.629C126.678 25.4909 126.702 25.7246 126.702 25.9706V25.9829C126.702 26.8359 126.513 27.5822 126.136 28.2218C125.767 28.8533 125.255 29.3454 124.599 29.698C123.942 30.0507 123.196 30.227 122.36 30.227ZM130.663 30.227C130.016 30.227 129.446 30.0794 128.954 29.7841C128.461 29.4889 128.076 29.0911 127.797 28.5909C127.519 28.0906 127.379 27.5248 127.379 26.8933C127.379 26.27 127.519 25.7082 127.797 25.2079C128.076 24.6995 128.461 24.2976 128.954 24.0024C129.446 23.7071 130.016 23.5595 130.663 23.5595C131.303 23.5595 131.869 23.7071 132.361 24.0024C132.853 24.2976 133.239 24.6995 133.517 25.2079C133.796 25.7082 133.936 26.27 133.936 26.8933C133.936 27.5248 133.796 28.0906 133.517 28.5909C133.239 29.0911 132.853 29.4889 132.361 29.7841C131.869 30.0794 131.303 30.227 130.663 30.227ZM130.663 29.0091C131.008 29.0091 131.328 28.9272 131.623 28.7631C131.918 28.5909 132.156 28.349 132.336 28.0373C132.525 27.7175 132.619 27.3361 132.619 26.8933C132.619 26.4504 132.525 26.0732 132.336 25.7615C132.156 25.4417 131.918 25.1998 131.623 25.0357C131.328 24.8635 131.008 24.7774 130.663 24.7774C130.319 24.7774 129.995 24.8635 129.692 25.0357C129.396 25.1998 129.155 25.4417 128.966 25.7615C128.786 26.0732 128.695 26.4504 128.695 26.8933C128.695 27.3361 128.786 27.7175 128.966 28.0373C129.155 28.349 129.396 28.5909 129.692 28.7631C129.995 28.9272 130.319 29.0091 130.663 29.0091ZM138.112 30.227C137.464 30.227 136.894 30.0794 136.402 29.7841C135.91 29.4889 135.524 29.0911 135.245 28.5909C134.967 28.0906 134.827 27.5248 134.827 26.8933C134.827 26.27 134.967 25.7082 135.245 25.2079C135.524 24.6995 135.91 24.2976 136.402 24.0024C136.894 23.7071 137.464 23.5595 138.112 23.5595C138.751 23.5595 139.317 23.7071 139.809 24.0024C140.301 24.2976 140.687 24.6995 140.966 25.2079C141.244 25.7082 141.384 26.27 141.384 26.8933C141.384 27.5248 141.244 28.0906 140.966 28.5909C140.687 29.0911 140.301 29.4889 139.809 29.7841C139.317 30.0794 138.751 30.227 138.112 30.227ZM138.112 29.0091C138.456 29.0091 138.776 28.9272 139.071 28.7631C139.367 28.5909 139.605 28.349 139.785 28.0373C139.974 27.7175 140.068 27.3361 140.068 26.8933C140.068 26.4504 139.974 26.0732 139.785 25.7615C139.605 25.4417 139.367 25.1998 139.071 25.0357C138.776 24.8635 138.456 24.7774 138.112 24.7774C137.767 24.7774 137.443 24.8635 137.14 25.0357C136.845 25.1998 136.603 25.4417 136.414 25.7615C136.234 26.0732 136.143 26.4504 136.143 26.8933C136.143 27.3361 136.234 27.7175 136.414 28.0373C136.603 28.349 136.845 28.5909 137.14 28.7631C137.443 28.9272 137.767 29.0091 138.112 29.0091ZM145.437 32.8842C144.888 32.8842 144.412 32.7939 144.01 32.6135C143.616 32.4413 143.297 32.2157 143.05 31.9369C142.804 31.6663 142.628 31.3875 142.522 31.1004L143.752 30.5838C143.883 30.9118 144.092 31.1784 144.379 31.3834C144.674 31.5966 145.027 31.7032 145.437 31.7032C146.011 31.7032 146.462 31.531 146.79 31.1865C147.127 30.8421 147.295 30.3541 147.295 29.7226V29.1199H147.221C147.024 29.4151 146.749 29.653 146.397 29.8334C146.052 30.0056 145.658 30.0917 145.216 30.0917C144.682 30.0917 144.195 29.9564 143.752 29.6857C143.309 29.4151 142.952 29.0379 142.681 28.554C142.411 28.0619 142.275 27.4879 142.275 26.8318C142.275 26.1675 142.411 25.5934 142.681 25.1095C142.952 24.6175 143.309 24.2361 143.752 23.9655C144.195 23.6948 144.682 23.5595 145.216 23.5595C145.658 23.5595 146.052 23.6498 146.397 23.8302C146.749 24.0106 147.024 24.2484 147.221 24.5437H147.295V23.7564H148.562V29.698C148.562 30.3788 148.426 30.9569 148.156 31.4326C147.893 31.9082 147.528 32.2691 147.061 32.5151C146.593 32.7611 146.052 32.8842 145.437 32.8842ZM145.449 28.8861C145.777 28.8861 146.081 28.8082 146.36 28.6524C146.638 28.4884 146.864 28.2546 147.036 27.9512C147.208 27.6395 147.295 27.2664 147.295 26.8318C147.295 26.3807 147.208 26.0034 147.036 25.7C146.864 25.3883 146.638 25.1546 146.36 24.9988C146.081 24.843 145.777 24.7651 145.449 24.7651C145.122 24.7651 144.814 24.8471 144.527 25.0111C144.248 25.1669 144.022 25.3966 143.85 25.7C143.678 26.0034 143.592 26.3807 143.592 26.8318C143.592 27.2746 143.678 27.6518 143.85 27.9635C144.022 28.2669 144.248 28.4966 144.527 28.6524C144.814 28.8082 145.122 28.8861 145.449 28.8861ZM150.128 30.0302V21.2222H151.457V30.0302H150.128ZM155.83 30.227C155.215 30.227 154.665 30.0835 154.181 29.7964C153.697 29.5094 153.316 29.1157 153.037 28.6155C152.767 28.1153 152.631 27.5453 152.631 26.9056C152.631 26.3069 152.762 25.7533 153.025 25.2448C153.287 24.7364 153.652 24.3304 154.12 24.027C154.595 23.7153 155.141 23.5595 155.756 23.5595C156.404 23.5595 156.953 23.699 157.404 23.9778C157.863 24.2566 158.212 24.6379 158.45 25.1218C158.687 25.6057 158.807 26.151 158.807 26.7579C158.807 26.8482 158.802 26.9302 158.794 27.004C158.794 27.0778 158.79 27.1352 158.782 27.1762H153.935C154 27.7995 154.218 28.2669 154.587 28.5786C154.964 28.8903 155.39 29.046 155.867 29.046C156.293 29.046 156.645 28.9518 156.925 28.7631C157.203 28.5663 157.425 28.3244 157.589 28.0373L158.683 28.5663C158.413 29.0584 158.044 29.4602 157.577 29.7718C157.109 30.0753 156.527 30.227 155.83 30.227ZM155.768 24.6913C155.325 24.6913 154.948 24.8266 154.636 25.0972C154.325 25.3679 154.115 25.7287 154.009 26.1798H157.49C157.474 25.9665 157.404 25.7451 157.281 25.5155C157.158 25.2859 156.969 25.0931 156.715 24.9373C156.469 24.7733 156.153 24.6913 155.768 24.6913Z" fill="white"/>
<path d="M153.772 0.361328H19.9012C9.11069 0.361328 0.363281 9.10873 0.363281 19.8992C0.363281 30.6897 9.11069 39.4371 19.9012 39.4371H153.772C164.562 39.4371 173.31 30.6897 173.31 19.8992C173.31 9.10873 164.562 0.361328 153.772 0.361328Z" stroke="#747775"/>
</g>
<defs>
<linearGradient id="paint0_linear_568_780" x1="26.979" y1="24.6354" x2="13.5905" y2="40.3221" gradientUnits="userSpaceOnUse">
<stop stop-color="#4285F4"/>
<stop offset="1" stop-color="#1B74E8"/>
</linearGradient>
<clipPath id="clip0_568_780">
<rect width="173.67" height="39.7994" fill="white"/>
</clipPath>
</defs>
</svg>
