<svg width="174" height="30" viewBox="0 0 174 30" fill="none" xmlns="http://www.w3.org/2000/svg">
<g clip-path="url(#clip0_568_682)">
<path d="M159.148 0.290039H14.5195C6.66027 0.290039 0.289062 6.66124 0.289062 14.5205C0.289062 22.3798 6.66027 28.751 14.5195 28.751H159.148C167.007 28.751 173.378 22.3798 173.378 14.5205C173.378 6.66124 167.007 0.290039 159.148 0.290039Z" fill="#1F1F1F"/>
<path d="M159.148 0.290039H14.5195C6.66027 0.290039 0.289062 6.66124 0.289062 14.5205C0.289062 22.3798 6.66027 28.751 14.5195 28.751H159.148C167.007 28.751 173.378 22.3798 173.378 14.5205C173.378 6.66124 167.007 0.290039 159.148 0.290039Z" stroke="#747775"/>
<path d="M29.6243 12.7781H12.1992V9.87391C12.1992 8.29734 13.4781 6.96973 14.9968 6.96973H26.8267C28.3454 6.96973 29.6243 8.29734 29.6243 9.87391V12.7781Z" fill="#34A853"/>
<path d="M29.6243 15.1336H12.1992V12.2294C12.1992 10.6528 13.4781 9.3252 14.9968 9.3252H26.8267C28.3454 9.3252 29.6243 10.6528 29.6243 12.2294V15.1336Z" fill="#FBBC04"/>
<path d="M29.6243 17.5681H12.1992V14.6639C12.1992 13.0874 13.4781 11.7598 14.9968 11.7598H26.8267C28.3454 11.7598 29.6243 13.0874 29.6243 14.6639V17.5681Z" fill="#EA4335"/>
<path d="M12.1992 13.5192L23.259 16.077C24.5321 16.3968 25.9642 16.077 26.9986 15.2778L29.6243 13.3594V19.3542C29.6243 20.873 28.3512 22.0719 26.8395 22.0719H14.984C13.4723 22.0719 12.1992 20.873 12.1992 19.3542V13.5192Z" fill="#4285F4"/>
<path d="M41.4735 18.7723C40.8771 18.7723 40.3157 18.6639 39.789 18.447C39.2624 18.2302 38.7977 17.9282 38.395 17.5409C38.0001 17.146 37.6864 16.6852 37.4541 16.1586C37.2295 15.6242 37.1172 15.0472 37.1172 14.4277C37.1172 13.8081 37.2295 13.235 37.4541 12.7084C37.6864 12.174 38.0001 11.7132 38.395 11.326C38.7977 10.931 39.2624 10.6251 39.789 10.4083C40.3157 10.1914 40.8771 10.083 41.4735 10.083C42.1085 10.083 42.6932 10.1953 43.2276 10.4199C43.7697 10.6445 44.2227 10.9582 44.5867 11.3608L43.7039 12.2321C43.5257 12.0307 43.3205 11.8604 43.0882 11.721C42.8636 11.5816 42.6158 11.477 42.3447 11.4073C42.0736 11.3299 41.7832 11.2911 41.4735 11.2911C41.063 11.2911 40.6719 11.3647 40.3002 11.5119C39.9284 11.659 39.5993 11.872 39.3127 12.1508C39.0339 12.4219 38.8132 12.751 38.6506 13.1382C38.488 13.5177 38.4066 13.9475 38.4066 14.4277C38.4066 14.9078 38.488 15.3415 38.6506 15.7287C38.821 16.1082 39.0456 16.4374 39.3244 16.7162C39.6109 16.9872 39.9401 17.1963 40.3118 17.3435C40.6835 17.4906 41.0746 17.5642 41.4851 17.5642C41.8645 17.5642 42.2169 17.51 42.5422 17.4015C42.8752 17.2931 43.1656 17.1382 43.4134 16.9369C43.6613 16.7355 43.8626 16.4915 44.0175 16.205C44.1724 15.9107 44.2692 15.5816 44.3079 15.2176H41.4618V14.0908H45.5045C45.52 14.1837 45.5354 14.2922 45.5509 14.416C45.5664 14.5322 45.5742 14.6445 45.5742 14.7529V14.7645C45.5742 15.3609 45.4696 15.9069 45.2605 16.4025C45.0591 16.8981 44.7765 17.3241 44.4125 17.6803C44.0485 18.0288 43.6148 18.2999 43.1114 18.4935C42.6158 18.6794 42.0698 18.7723 41.4735 18.7723ZM49.3146 18.7723C48.7028 18.7723 48.1646 18.6329 47.6999 18.3541C47.2352 18.0753 46.8713 17.6997 46.6079 17.2273C46.3446 16.7471 46.213 16.2127 46.213 15.6242C46.213 15.0356 46.3446 14.5051 46.6079 14.0327C46.8713 13.5525 47.2352 13.1731 47.6999 12.8943C48.1646 12.6155 48.7028 12.4761 49.3146 12.4761C49.9187 12.4761 50.4531 12.6193 50.9177 12.9059C51.3824 13.1847 51.7464 13.5603 52.0097 14.0327C52.2731 14.5051 52.4047 15.0356 52.4047 15.6242C52.4047 16.2127 52.2731 16.7471 52.0097 17.2273C51.7464 17.6997 51.3824 18.0753 50.9177 18.3541C50.4531 18.6329 49.9187 18.7723 49.3146 18.7723ZM49.3146 17.6223C49.6399 17.6223 49.9419 17.5448 50.2207 17.3899C50.4995 17.2273 50.7241 16.9988 50.8945 16.7045C51.0726 16.4025 51.1617 16.0424 51.1617 15.6242C51.1617 15.206 51.0726 14.8498 50.8945 14.5554C50.7241 14.2534 50.4995 14.025 50.2207 13.8701C49.9419 13.7074 49.6399 13.6261 49.3146 13.6261C48.9894 13.6261 48.6835 13.7074 48.3969 13.8701C48.1181 14.025 47.8897 14.2534 47.7115 14.5554C47.5412 14.8498 47.456 15.206 47.456 15.6242C47.456 16.0424 47.5412 16.4025 47.7115 16.7045C47.8897 16.9988 48.122 17.2273 48.4085 17.3899C48.6951 17.5448 48.9971 17.6223 49.3146 17.6223ZM56.3482 18.7723C55.7364 18.7723 55.1982 18.6329 54.7335 18.3541C54.2688 18.0753 53.9049 17.6997 53.6415 17.2273C53.3782 16.7471 53.2465 16.2127 53.2465 15.6242C53.2465 15.0356 53.3782 14.5051 53.6415 14.0327C53.9049 13.5525 54.2688 13.1731 54.7335 12.8943C55.1982 12.6155 55.7364 12.4761 56.3482 12.4761C56.9523 12.4761 57.4866 12.6193 57.9513 12.9059C58.4159 13.1847 58.7801 13.5603 59.0432 14.0327C59.3069 14.5051 59.4381 15.0356 59.4381 15.6242C59.4381 16.2127 59.3069 16.7471 59.0432 17.2273C58.7801 17.6997 58.4159 18.0753 57.9513 18.3541C57.4866 18.6329 56.9523 18.7723 56.3482 18.7723ZM56.3482 17.6223C56.6735 17.6223 56.9755 17.5448 57.2543 17.3899C57.5331 17.2273 57.7577 16.9988 57.9281 16.7045C58.1063 16.4025 58.1952 16.0424 58.1952 15.6242C58.1952 15.206 58.1063 14.8498 57.9281 14.5554C57.7577 14.2534 57.5331 14.025 57.2543 13.8701C56.9755 13.7074 56.6735 13.6261 56.3482 13.6261C56.0229 13.6261 55.7171 13.7074 55.4305 13.8701C55.1517 14.025 54.9232 14.2534 54.7451 14.5554C54.5747 14.8498 54.4895 15.206 54.4895 15.6242C54.4895 16.0424 54.5747 16.4025 54.7451 16.7045C54.9232 16.9988 55.1556 17.2273 55.4421 17.3899C55.7287 17.5448 56.0307 17.6223 56.3482 17.6223ZM63.2658 21.2815C62.7466 21.2815 62.2976 21.1963 61.9183 21.026C61.5466 20.8633 61.2445 20.6503 61.0122 20.387C60.7799 20.1315 60.6132 19.8682 60.5127 19.5971L61.6744 19.1092C61.7981 19.419 61.9956 19.6707 62.2668 19.8643C62.5456 20.0657 62.8784 20.1663 63.2658 20.1663C63.8153 20.1663 64.2451 20.0037 64.5553 19.6784C64.8649 19.3532 65.02 18.8924 65.02 18.296V17.7268H64.9503C64.7644 17.9979 64.5088 18.2186 64.1836 18.389C63.8583 18.5593 63.4825 18.6445 63.0567 18.6445C62.5532 18.6445 62.0885 18.5167 61.6627 18.2612C61.2445 18.0056 60.9077 17.6494 60.6521 17.1924C60.4041 16.7278 60.2803 16.1857 60.2803 15.5661C60.2803 14.9388 60.4041 14.3967 60.6521 13.9398C60.9077 13.4751 61.2445 13.115 61.6627 12.8594C62.0885 12.6038 62.5532 12.4761 63.0567 12.4761C63.4825 12.4761 63.8583 12.5613 64.1836 12.7316C64.5088 12.8943 64.7644 13.1189 64.9503 13.4054H65.02V12.6619H66.2165V18.2728C66.2165 18.9156 66.0887 19.4616 65.8331 19.9108C65.5851 20.3599 65.2407 20.7007 64.7993 20.933C64.3578 21.1654 63.8467 21.2815 63.2658 21.2815ZM63.2775 17.5061C63.5871 17.5061 63.8734 17.4325 64.1371 17.2854C64.4078 17.1305 64.6209 16.9097 64.776 16.6232C64.9387 16.3289 65.02 15.9766 65.02 15.5661C65.02 15.1324 64.9387 14.7723 64.776 14.4857C64.6209 14.1992 64.4078 13.9823 64.1371 13.8352C63.8734 13.6881 63.5871 13.6145 63.2775 13.6145C62.9673 13.6145 62.6769 13.6881 62.4062 13.8352C62.1425 13.9823 61.9299 14.2031 61.7673 14.4974C61.6047 14.7839 61.5233 15.1402 61.5233 15.5661C61.5233 15.9843 61.6047 16.3405 61.7673 16.6348C61.9299 16.9214 62.1425 17.1382 62.4062 17.2854C62.6769 17.4325 62.9673 17.5061 63.2775 17.5061ZM67.6959 18.5864V10.2689H68.9505V18.5864H67.6959ZM73.0797 18.7723C72.4988 18.7723 71.9796 18.6368 71.523 18.3657C71.0659 18.0947 70.7058 17.7229 70.4427 17.2505C70.1871 16.7781 70.0593 16.2399 70.0593 15.6358C70.0593 15.0705 70.183 14.5477 70.431 14.0675C70.6785 13.5874 71.0235 13.204 71.4649 12.9175C71.9139 12.6232 72.4291 12.4761 73.01 12.4761C73.6216 12.4761 74.1403 12.6077 74.5666 12.871C74.9999 13.1343 75.3292 13.4944 75.554 13.9514C75.7782 14.4083 75.8909 14.9233 75.8909 15.4964C75.8909 15.5816 75.8868 15.659 75.8793 15.7287C75.8793 15.7984 75.8752 15.8526 75.8677 15.8914H71.2907C71.3215 16.2166 71.4028 16.4993 71.5346 16.7394C71.7048 17.0414 71.9296 17.2699 72.2084 17.4248C72.4872 17.5797 72.7892 17.6571 73.1145 17.6571C73.5095 17.6571 73.8382 17.5681 74.1019 17.3899C74.3726 17.2041 74.5858 16.9756 74.7408 16.7045L75.7747 17.2041C75.5192 17.6687 75.1707 18.0482 74.7292 18.3425C74.2878 18.629 73.7377 18.7723 73.0797 18.7723ZM71.3604 14.9504H74.6479C74.6398 14.8033 74.6014 14.6484 74.5317 14.4857C74.462 14.3154 74.361 14.1605 74.2297 14.0211C74.0979 13.8817 73.9312 13.7694 73.7302 13.6842C73.5286 13.5913 73.2922 13.5448 73.0216 13.5448C72.6806 13.5448 72.3786 13.6338 72.1155 13.812C71.8518 13.9823 71.6467 14.2225 71.4998 14.5322C71.4376 14.6639 71.3912 14.8033 71.3604 14.9504ZM80.997 18.5864L78.7666 10.2689H80.1839L81.5082 15.6707L81.6476 16.3909H81.7173L81.8915 15.6707L83.5643 10.2689H84.8422L86.4453 15.6707L86.6195 16.3793H86.6892L86.8286 15.6707L88.1529 10.2689H89.5586L87.363 18.5864H86.0155L84.424 13.0685L84.2381 12.2902H84.1684L83.9709 13.0685L82.3097 18.5864H80.997ZM91.8912 18.7723C91.4654 18.7723 91.0862 18.6871 90.7528 18.5167C90.4275 18.3464 90.1684 18.1141 89.9744 17.8197C89.7886 17.5177 89.6956 17.1731 89.6956 16.7859C89.6956 16.3599 89.8042 15.9998 90.0209 15.7055C90.2457 15.4112 90.5437 15.1866 90.9154 15.0317C91.2871 14.8768 91.6978 14.7994 92.1468 14.7994C92.3948 14.7994 92.6231 14.8187 92.8322 14.8575C93.0494 14.8884 93.2352 14.9272 93.3897 14.9736C93.5524 15.0201 93.6802 15.0705 93.7731 15.1247V14.811C93.7731 14.4238 93.6337 14.114 93.3549 13.8817C93.0761 13.6493 92.716 13.5332 92.2745 13.5332C91.9725 13.5332 91.6862 13.6029 91.4149 13.7423C91.1442 13.874 90.927 14.0559 90.7644 14.2883L89.9047 13.6261C90.0755 13.386 90.2805 13.1808 90.5204 13.0104C90.7684 12.8401 91.0432 12.7084 91.3452 12.6155C91.6554 12.5225 91.9766 12.4761 92.3094 12.4761C93.169 12.4761 93.8312 12.689 94.2959 13.115C94.7605 13.5332 94.9929 14.1217 94.9929 14.8807V18.5864H93.7731V17.8546H93.7034C93.6029 18.0095 93.4635 18.1566 93.2852 18.296C93.115 18.4354 92.91 18.5477 92.6695 18.6329C92.4372 18.7258 92.1781 18.7723 91.8912 18.7723ZM92.1119 17.75C92.4372 17.75 92.7241 17.6726 92.9715 17.5177C93.2271 17.3628 93.4246 17.1615 93.564 16.9136C93.7034 16.6581 93.7731 16.3832 93.7731 16.0889C93.6029 15.9882 93.3938 15.9069 93.1458 15.8449C92.9059 15.7752 92.6504 15.7404 92.3791 15.7404C91.868 15.7404 91.5044 15.841 91.2871 16.0424C91.0705 16.2438 90.9619 16.4954 90.9619 16.7975C90.9619 17.0763 91.0664 17.3047 91.2755 17.4829C91.4846 17.661 91.7634 17.75 92.1119 17.75ZM96.3857 18.5864V10.2689H97.6403V18.5864H96.3857ZM99.1313 18.5864V10.2689H100.386V18.5864H99.1313ZM104.515 18.7723C103.934 18.7723 103.415 18.6368 102.958 18.3657C102.501 18.0947 102.141 17.7229 101.878 17.2505C101.623 16.7781 101.495 16.2399 101.495 15.6358C101.495 15.0705 101.618 14.5477 101.866 14.0675C102.114 13.5874 102.459 13.204 102.9 12.9175C103.349 12.6232 103.865 12.4761 104.445 12.4761C105.057 12.4761 105.576 12.6077 106.002 12.871C106.435 13.1343 106.765 13.4944 106.989 13.9514C107.214 14.4083 107.326 14.9233 107.326 15.4964C107.326 15.5816 107.322 15.659 107.315 15.7287C107.315 15.7984 107.311 15.8526 107.303 15.8914H102.726C102.757 16.2166 102.838 16.4993 102.97 16.7394C103.14 17.0414 103.365 17.2699 103.644 17.4248C103.923 17.5797 104.225 17.6571 104.55 17.6571C104.945 17.6571 105.274 17.5681 105.537 17.3899C105.808 17.2041 106.021 16.9756 106.176 16.7045L107.21 17.2041C106.955 17.6687 106.606 18.0482 106.165 18.3425C105.723 18.629 105.173 18.7723 104.515 18.7723ZM102.796 14.9504H106.083C106.075 14.8033 106.037 14.6484 105.967 14.4857C105.897 14.3154 105.796 14.1605 105.665 14.0211C105.533 13.8817 105.367 13.7694 105.166 13.6842C104.964 13.5913 104.728 13.5448 104.457 13.5448C104.116 13.5448 103.814 13.6338 103.551 13.812C103.287 13.9823 103.082 14.2225 102.935 14.5322C102.873 14.6639 102.827 14.8033 102.796 14.9504ZM107.914 12.6619H108.947V10.9891H110.202V12.6619H111.654V13.7539H110.202V16.6C110.202 16.8943 110.26 17.1188 110.376 17.2738C110.5 17.4287 110.705 17.5061 110.992 17.5061C111.131 17.5061 111.255 17.4868 111.364 17.448C111.472 17.4015 111.58 17.3474 111.689 17.2854V18.5051C111.557 18.5593 111.418 18.602 111.271 18.6329C111.123 18.6639 110.949 18.6794 110.748 18.6794C110.198 18.6794 109.761 18.5206 109.435 18.2031C109.11 17.8778 108.947 17.4325 108.947 16.8672V13.7539H107.914V12.6619ZM112.846 15.5196V14.4509H116.656V15.5196H112.846ZM117.669 20.3522V17.4945H118.319C118.443 17.3396 118.555 17.1266 118.656 16.8556C118.757 16.5845 118.834 16.2747 118.888 15.9262C118.942 15.5777 118.97 15.2253 118.97 14.8691V12.6619H123.407V17.4945H124.267V20.3522H123.117V18.5864H118.83V20.3522H117.669ZM119.667 17.4945H122.164V13.7539H120.155V14.9736C120.155 15.3299 120.135 15.6551 120.097 15.9495C120.065 16.2438 120.011 16.5109 119.934 16.751C119.864 16.9911 119.775 17.2157 119.667 17.4248V17.4945Z" fill="white"/>
<path d="M128.516 18.587V12.6624H129.77V15.0439H132.581V12.6624H133.836V18.587H132.581V16.1358H129.77V18.587H128.516ZM140.678 15.6247C140.678 16.2288 140.546 16.7709 140.283 17.251C140.028 17.7234 139.671 18.0952 139.215 18.3662C138.758 18.6373 138.231 18.7728 137.635 18.7728C136.945 18.7728 136.372 18.6179 135.915 18.3082C135.466 17.9984 135.133 17.6073 134.916 17.1349L136.032 16.647C136.171 16.9722 136.376 17.2239 136.647 17.4021C136.926 17.5802 137.267 17.6692 137.67 17.6692C137.956 17.6692 138.239 17.5995 138.518 17.4601C138.796 17.313 139.029 17.0845 139.215 16.7747C139.331 16.5734 139.408 16.3372 139.447 16.0661H136.926V15.1252H139.447C139.408 14.8619 139.331 14.6373 139.215 14.4514C139.036 14.1571 138.808 13.9442 138.529 13.8125C138.258 13.6731 137.979 13.6034 137.693 13.6034C137.313 13.6034 136.984 13.6886 136.705 13.859C136.434 14.0216 136.221 14.2578 136.066 14.5676L134.94 14.1029C135.187 13.6073 135.528 13.2123 135.962 12.918C136.403 12.6237 136.969 12.4766 137.658 12.4766C138.246 12.4766 138.769 12.616 139.226 12.8948C139.683 13.1658 140.039 13.5376 140.295 14.01C140.551 14.4824 140.678 15.0206 140.678 15.6247ZM141.709 18.587V12.6624H143.196L145.02 16.2868H145.078L146.914 12.6624H148.366V18.587H147.169V15.706L147.227 14.5676H147.158L145.45 17.8319H144.625L142.917 14.5676H142.848L142.906 15.706V18.587H141.709ZM155.21 15.6247C155.21 16.2288 155.079 16.7709 154.815 17.251C154.56 17.7234 154.204 18.0952 153.747 18.3662C153.29 18.6373 152.763 18.7728 152.167 18.7728C151.478 18.7728 150.905 18.6179 150.447 18.3082C149.998 17.9984 149.666 17.6073 149.448 17.1349L150.564 16.647C150.703 16.9722 150.909 17.2239 151.179 17.4021C151.458 17.5802 151.799 17.6692 152.202 17.6692C152.488 17.6692 152.771 17.5995 153.05 17.4601C153.328 17.313 153.561 17.0845 153.747 16.7747C153.863 16.5734 153.941 16.3372 153.979 16.0661H151.458V15.1252H153.979C153.941 14.8619 153.863 14.6373 153.747 14.4514C153.569 14.1571 153.34 13.9442 153.061 13.8125C152.791 13.6731 152.512 13.6034 152.225 13.6034C151.845 13.6034 151.516 13.6886 151.237 13.859C150.967 14.0216 150.754 14.2578 150.598 14.5676L149.472 14.1029C149.72 13.6073 150.061 13.2123 150.494 12.918C150.935 12.6237 151.501 12.4766 152.19 12.4766C152.779 12.4766 153.302 12.616 153.758 12.8948C154.215 13.1658 154.571 13.5376 154.827 14.01C155.082 14.4824 155.21 15.0206 155.21 15.6247ZM155.604 18.587L157.683 15.5782L155.639 12.6624H157.091L158.439 14.6373L159.716 12.6624H161.227L159.147 15.5782L161.238 18.587H159.774L158.415 16.554L157.079 18.587H155.604Z" fill="white"/>
</g>
<defs>
<clipPath id="clip0_568_682">
<rect width="173.67" height="29.0418" fill="white"/>
</clipPath>
</defs>
</svg>
