<svg width="174" height="52" viewBox="0 0 174 52" fill="none" xmlns="http://www.w3.org/2000/svg">
<g clip-path="url(#clip0_568_1052)">
<path d="M147.854 0.469727H25.8152C11.8167 0.469727 0.46875 11.8177 0.46875 25.8162C0.46875 39.8146 11.8167 51.1626 25.8152 51.1626H147.854C161.852 51.1626 173.2 39.8146 173.2 25.8162C173.2 11.8177 161.852 0.469727 147.854 0.469727Z" fill="#1F1F1F"/>
<path d="M53.5101 22.3338H19.7148V17.0341C19.7148 14.1571 22.1952 11.7344 25.1407 11.7344H48.0843C51.0297 11.7344 53.5101 14.1571 53.5101 17.0341V22.3338Z" fill="#34A853"/>
<path d="M53.5101 27.2241H19.7148V21.5915C19.7148 18.5339 22.1952 15.959 25.1407 15.959H48.0843C51.0297 15.959 53.5101 18.5339 53.5101 21.5915V27.2241Z" fill="#FBBC04"/>
<path d="M53.5101 31.9174H19.7148V26.2849C19.7148 23.2273 22.1952 20.6523 25.1407 20.6523H48.0843C51.0297 20.6523 53.5101 23.2273 53.5101 26.2849V31.9174Z" fill="#EA4335"/>
<path d="M19.7148 23.6954L41.1648 28.5409C43.6339 29.1466 46.4116 28.5409 48.4176 27.0267L53.5101 23.3926V34.7491C53.5101 37.6261 51.0411 39.8974 48.109 39.8974H25.1159C22.1839 39.8974 19.7148 37.6261 19.7148 34.7491V23.6954Z" fill="url(#paint0_linear_568_1052)"/>
<path d="M71.9396 14.0566V14.9108H76.4794V14.0566H71.9396ZM65.5204 11.2131V11.9941H70.9023V11.2131H65.5204ZM65.3862 16.058V16.8512H70.9633V16.058H65.3862ZM65.3495 14.0077V14.7888H71.0487V14.0077H65.3495ZM74.2095 14.3983V21.0982H75.1004V14.3983H74.2095ZM67.7781 9.98047V11.6158H68.669V9.98047H67.7781ZM67.7781 14.6423V21.147H68.669V14.6423H67.7781ZM71.5003 10.9324V15.2037C71.5003 16.9367 71.3294 19.0479 69.7673 20.5856C69.987 20.7076 70.3165 21.0127 70.4263 21.2202C72.1471 19.5239 72.3668 17.0465 72.3668 15.2159V11.4449C72.5376 11.4205 72.6108 11.3717 72.623 11.2741L71.5003 10.9324ZM75.5886 10.0781C74.6977 10.5174 73.0868 10.9446 71.72 11.2375C71.8298 11.4205 71.9518 11.7378 72.0006 11.9331C73.4651 11.6768 75.1736 11.2619 76.3208 10.7493L75.5886 10.0781ZM68.5836 17.0831L68.0832 17.498C68.5348 17.8764 69.6819 18.9503 70.0724 19.4018L70.6094 18.7184C70.3043 18.4377 68.9741 17.3516 68.5836 17.0831ZM66.2526 12.2138C66.4967 12.7751 66.692 13.5074 66.7286 13.9833L67.4974 13.7759C67.4364 13.3121 67.2289 12.5921 66.9727 12.0551L66.2526 12.2138ZM69.3768 12.0307C69.2426 12.5433 68.9863 13.2999 68.7666 13.7881L69.4989 13.9589C69.7185 13.5074 69.9748 12.824 70.2067 12.2138L69.3768 12.0307ZM67.7903 16.4607C67.2045 17.6567 66.094 18.9747 65.1055 19.6215C65.3129 19.7679 65.5814 20.0608 65.7279 20.2683C66.7042 19.5117 67.8269 18.0716 68.4493 16.717L67.7903 16.4607ZM77.5046 12.9216V13.7881H80.7752V12.9216H77.5046ZM78.8104 10.1147V18.096H79.7013V10.1147H78.8104ZM77.3215 18.3035L77.6388 19.2188C78.6761 18.7794 79.9942 18.1937 81.2389 17.6323L81.0193 16.8024C79.6646 17.376 78.249 17.9618 77.3215 18.3035ZM82.0688 16.717V21.1714H82.9475V17.4126H86.572V21.1348H87.4751V16.717H82.0688ZM82.5326 19.9876V20.7076H87.1456V19.9876H82.5326ZM82.5081 18.3645V19.0235H87.0846V18.3645H82.5081ZM84.3631 12.8972V15.6553H85.0587V12.8972H84.3631ZM82.2275 13.2633H87.2554V15.3257H82.2275V13.2633ZM81.483 12.5555V16.0214H88.0487V12.5555H81.483ZM82.679 13.6904C82.8987 14.142 83.1183 14.74 83.1916 15.1061L83.7773 14.9108C83.7041 14.5569 83.4844 13.9711 83.2526 13.5318L82.679 13.6904ZM86.0717 13.5196C85.9618 13.9223 85.7178 14.5203 85.5225 14.923L86.0229 15.1061C86.2425 14.7522 86.4866 14.2274 86.7185 13.727L86.0717 13.5196ZM83.7285 10.2612V11.0544H86.2059V10.2612H83.7285ZM82.6912 10.5907C82.2153 11.5426 81.3854 12.4578 80.5433 13.0802C80.7386 13.2267 81.0437 13.5562 81.1657 13.7148C82.0322 13.0192 82.9475 11.9331 83.5089 10.8347L82.6912 10.5907ZM85.4615 10.2612V10.7249H85.7055C86.3279 11.811 87.3653 12.9094 88.3172 13.5928C88.4636 13.3609 88.7321 13.0436 88.9274 12.885C88.0121 12.3236 86.9625 11.2863 86.3768 10.2612H85.4615ZM90.1111 10.7005V11.5548H100.558V10.7005H90.1111ZM90.9166 16.656V17.5102H99.7278V16.656H90.9166ZM89.8427 19.8046V20.6588H100.753V19.8046H89.8427ZM94.7608 15.1427V20.4025H95.7127V15.1427H94.7608ZM90.3308 13.9955L90.3674 14.923C92.5275 14.8498 95.9202 14.7034 99.1054 14.5569L99.1542 13.727C95.8713 13.8491 92.4421 13.9589 90.3308 13.9955ZM93.6625 11.091C93.2963 12.0551 92.6007 13.3975 92.0515 14.2396L92.8936 14.5447C93.455 13.7515 94.1628 12.4945 94.712 11.4205L93.6625 11.091ZM96.3961 12.4212C97.6287 13.3243 99.0932 14.6179 99.7766 15.4844L100.594 14.8986C99.8742 14.0199 98.3487 12.7629 97.1405 11.9209L96.3961 12.4212Z" fill="white"/>
<path d="M71.4768 39.2142C70.6575 39.2142 69.8862 39.0652 69.1627 38.7674C68.4499 38.4695 67.8168 38.0546 67.2636 37.5226C66.7104 36.98 66.2742 36.347 65.955 35.6235C65.6464 34.8894 65.4922 34.0968 65.4922 33.2456C65.4922 32.3944 65.6464 31.6072 65.955 30.8837C66.2742 30.1496 66.7051 29.5166 67.2477 28.9846C67.8009 28.442 68.4392 28.0217 69.1627 27.7238C69.8862 27.426 70.6575 27.277 71.4768 27.277C72.3491 27.277 73.1524 27.4312 73.8866 27.7398C74.6313 28.0484 75.2537 28.4793 75.7537 29.0325L74.5409 30.2294C74.1685 29.8144 73.7216 29.4953 73.2003 29.2718C72.6896 29.0484 72.1151 28.9367 71.4768 28.9367C70.7213 28.9367 70.0245 29.1176 69.3862 29.4793C68.7478 29.8304 68.2318 30.3305 67.8381 30.9794C67.4551 31.6178 67.2636 32.3732 67.2636 33.2456C67.2636 34.118 67.4605 34.8788 67.8541 35.5277C68.2477 36.1661 68.7638 36.6661 69.4021 37.0279C70.0405 37.3789 70.7373 37.5545 71.4927 37.5545C72.1843 37.5545 72.812 37.4268 73.3759 37.1715C73.9398 36.9055 74.3919 36.5331 74.7324 36.0544C75.0835 35.5756 75.2963 35.0011 75.3707 34.3308H71.4608V32.7828H77.0145C77.0783 33.0701 77.1102 33.3733 77.1102 33.6924V33.7084C77.1102 34.8149 76.8655 35.7831 76.3761 36.6129C75.8974 37.4322 75.2324 38.0705 74.3813 38.528C73.5301 38.9854 72.562 39.2142 71.4768 39.2142ZM82.2489 39.2142C81.4083 39.2142 80.669 39.0227 80.0306 38.6397C79.3923 38.2567 78.8922 37.7406 78.5305 37.0917C78.1687 36.4427 77.9879 35.7086 77.9879 34.8894C77.9879 34.0808 78.1687 33.352 78.5305 32.703C78.8922 32.0433 79.3923 31.522 80.0306 31.139C80.669 30.756 81.4083 30.5645 82.2489 30.5645C83.0788 30.5645 83.8129 30.756 84.4512 31.139C85.0896 31.522 85.5896 32.0433 85.9514 32.703C86.3131 33.352 86.494 34.0808 86.494 34.8894C86.494 35.7086 86.3131 36.4427 85.9514 37.0917C85.5896 37.7406 85.0896 38.2567 84.4512 38.6397C83.8129 39.0227 83.0788 39.2142 82.2489 39.2142ZM82.2489 37.6343C82.6957 37.6343 83.1107 37.5279 83.4937 37.3151C83.8767 37.0917 84.1852 36.7779 84.4193 36.3735C84.664 35.9586 84.7864 35.4639 84.7864 34.8894C84.7864 34.3148 84.664 33.8255 84.4193 33.4211C84.1852 33.0062 83.8767 32.6924 83.4937 32.4796C83.1107 32.2561 82.6957 32.1444 82.2489 32.1444C81.8021 32.1444 81.3818 32.2561 80.9881 32.4796C80.6051 32.6924 80.2912 33.0062 80.0466 33.4211C79.8125 33.8255 79.6955 34.3148 79.6955 34.8894C79.6955 35.4639 79.8125 35.9586 80.0466 36.3735C80.2912 36.7779 80.6051 37.0917 80.9881 37.3151C81.3818 37.5279 81.8021 37.6343 82.2489 37.6343ZM91.9114 39.2142C91.071 39.2142 90.3315 39.0227 89.6931 38.6397C89.0548 38.2567 88.5548 37.7406 88.193 37.0917C87.8313 36.4427 87.6504 35.7086 87.6504 34.8894C87.6504 34.0808 87.8313 33.352 88.193 32.703C88.5548 32.0433 89.0548 31.522 89.6931 31.139C90.3315 30.756 91.071 30.5645 91.9114 30.5645C92.7413 30.5645 93.4754 30.756 94.1139 31.139C94.7523 31.522 95.2527 32.0433 95.6141 32.703C95.9755 33.352 96.1567 34.0808 96.1567 34.8894C96.1567 35.7086 95.9755 36.4427 95.6141 37.0917C95.2527 37.7406 94.7523 38.2567 94.1139 38.6397C93.4754 39.0227 92.7413 39.2142 91.9114 39.2142ZM91.9114 37.6343C92.3583 37.6343 92.7732 37.5279 93.1562 37.3151C93.5392 37.0917 93.8478 36.7779 94.082 36.3735C94.327 35.9586 94.4491 35.4639 94.4491 34.8894C94.4491 34.3148 94.327 33.8255 94.082 33.4211C93.8478 33.0062 93.5392 32.6924 93.1562 32.4796C92.7732 32.2561 92.3583 32.1444 91.9114 32.1444C91.4646 32.1444 91.0444 32.2561 90.6507 32.4796C90.2677 32.6924 89.9538 33.0062 89.7091 33.4211C89.4751 33.8255 89.358 34.3148 89.358 34.8894C89.358 35.4639 89.4751 35.9586 89.7091 36.3735C89.9538 36.7779 90.2677 37.0917 90.6507 37.3151C91.0444 37.5279 91.4646 37.6343 91.9114 37.6343ZM101.415 42.6613C100.701 42.6613 100.084 42.5443 99.5634 42.3102C99.0527 42.0868 98.6378 41.7942 98.3186 41.4325C97.9995 41.0814 97.7704 40.7197 97.6324 40.3473L99.2283 39.677C99.3982 40.1026 99.6695 40.4484 100.042 40.7143C100.425 40.991 100.882 41.1293 101.415 41.1293C102.159 41.1293 102.744 40.9059 103.17 40.459C103.606 40.0122 103.824 39.3792 103.824 38.5599V37.7779H103.729C103.473 38.1609 103.117 38.4695 102.659 38.7035C102.213 38.927 101.702 39.0387 101.127 39.0387C100.436 39.0387 99.8028 38.8631 99.2283 38.512C98.6538 38.1609 98.191 37.6716 97.8399 37.0438C97.4888 36.4055 97.3132 35.6607 97.3132 34.8096C97.3132 33.9478 97.4888 33.2031 97.8399 32.5753C98.191 31.937 98.6538 31.4422 99.2283 31.0912C99.8028 30.7401 100.436 30.5645 101.127 30.5645C101.702 30.5645 102.213 30.6816 102.659 30.9156C103.117 31.1496 103.473 31.4582 103.729 31.8412H103.824V30.8199H105.468V38.528C105.468 39.4111 105.293 40.1611 104.942 40.7782C104.601 41.3952 104.128 41.8634 103.521 42.1826C102.915 42.5017 102.213 42.6613 101.415 42.6613ZM101.431 37.4747C101.856 37.4747 102.249 37.3736 102.612 37.1715C102.973 36.9587 103.266 36.6554 103.489 36.2618C103.713 35.8575 103.824 35.3735 103.824 34.8096C103.824 34.2244 103.713 33.735 103.489 33.3414C103.266 32.937 102.973 32.6338 102.612 32.4317C102.249 32.2296 101.856 32.1285 101.431 32.1285C101.004 32.1285 100.605 32.2348 100.234 32.4477C99.8713 32.6498 99.5794 32.9477 99.356 33.3414C99.1325 33.735 99.0208 34.2244 99.0208 34.8096C99.0208 35.3841 99.1325 35.8735 99.356 36.2778C99.5794 36.6714 99.8713 36.9694 100.234 37.1715C100.605 37.3736 101.004 37.4747 101.431 37.4747ZM107.501 38.9589V27.5323H109.224V38.9589H107.501ZM114.896 39.2142C114.098 39.2142 113.386 39.0281 112.758 38.6557C112.131 38.2832 111.636 37.7726 111.273 37.1236C110.922 36.4746 110.747 35.7352 110.747 34.9053C110.747 34.1287 110.918 33.4105 111.258 32.7509C111.598 32.0912 112.071 31.5646 112.678 31.1709C113.296 30.7666 114.002 30.5645 114.8 30.5645C115.642 30.5645 116.354 30.7454 116.939 31.1071C117.535 31.4688 117.987 31.9635 118.295 32.5913C118.604 33.219 118.758 33.9265 118.758 34.7138C118.758 34.8309 118.753 34.9372 118.742 35.033C118.742 35.1287 118.738 35.2032 118.726 35.2564H112.438C112.524 36.065 112.806 36.6714 113.284 37.0757C113.774 37.48 114.327 37.6822 114.944 37.6822C115.498 37.6822 115.955 37.5598 116.316 37.3151C116.679 37.0598 116.966 36.7459 117.178 36.3735L118.599 37.0598C118.248 37.6981 117.769 38.2194 117.162 38.6237C116.556 39.0174 115.801 39.2142 114.896 39.2142ZM114.816 32.0327C114.242 32.0327 113.753 32.2083 113.348 32.5594C112.944 32.9105 112.673 33.3786 112.534 33.9637H117.051C117.03 33.6871 116.939 33.3998 116.779 33.102C116.62 32.8041 116.376 32.554 116.045 32.3519C115.726 32.1391 115.317 32.0327 114.816 32.0327ZM130.162 27.8355L130.274 28.809L138.11 28.043L138.014 27.0695L130.162 27.8355ZM129.971 34.9372L130.05 35.9267L138.333 35.1287L138.221 34.1553L129.971 34.9372ZM131.838 25.5534C132.157 29.5591 134.663 32.7349 136.881 32.7349C137.775 32.7349 138.174 32.32 138.365 30.8039C138.078 30.7081 137.743 30.5326 137.503 30.3251C137.439 31.3305 137.328 31.6816 136.945 31.6816C135.413 31.6976 133.194 29.0005 132.923 25.5534H131.838ZM131.902 32.6392C132.173 36.9002 134.423 40.2356 136.897 40.2356C137.854 40.2356 138.253 39.8047 138.445 38.1928C138.158 38.0971 137.807 37.9056 137.567 37.6822C137.487 38.7833 137.376 39.1663 136.961 39.1663C135.237 39.1983 133.226 36.3576 133.003 32.6392H131.902ZM136.067 28.5218C134.822 30.0219 132.285 31.0752 129.843 31.6497C130.066 31.8572 130.418 32.32 130.561 32.5434C133.003 31.8253 135.668 30.6443 137.072 28.9048L136.067 28.5218ZM136.306 35.5916C134.966 37.3789 132.157 38.5439 129.348 39.1663C129.572 39.3898 129.923 39.9004 130.05 40.1398C132.875 39.3578 135.828 38.0333 137.376 35.9746L136.306 35.5916ZM134.343 26.2237C135.062 26.495 135.971 26.9259 136.418 27.2929L136.977 26.5748C136.514 26.2397 135.604 25.8247 134.902 25.6013L134.343 26.2237ZM134.104 33.0541C134.838 33.3573 135.732 33.868 136.179 34.251L136.849 33.5648C136.386 33.1818 135.477 32.719 134.742 32.4317L134.104 33.0541ZM124.8 29.5112V30.5486H129.284V29.5112H124.8ZM123.938 32.2402V33.2935H129.779V32.2402H123.938ZM124.305 34.3468C124.609 35.3203 124.864 36.565 124.88 37.3949L125.774 37.1715C125.71 36.3416 125.454 35.1128 125.135 34.1393L124.305 34.3468ZM123.795 38.6397L124.034 39.7568C125.694 39.4057 127.896 38.927 130.003 38.4641L129.923 37.4587C127.673 37.9215 125.343 38.3844 123.795 38.6397ZM128.742 33.9957C128.598 34.8415 128.311 36.1022 128.072 36.8842L128.854 37.1076C129.125 36.3576 129.396 35.2085 129.667 34.235L128.742 33.9957ZM126.444 29.8942V38.7674L127.497 38.5918V29.8942H126.444ZM126.396 25.5694C125.853 26.8461 124.832 28.4739 123.38 29.6868C123.603 29.8464 123.954 30.1975 124.13 30.4368C125.71 29.0484 126.747 27.3568 127.369 26.1279V25.8247H127.018V25.5694H126.396ZM126.587 25.5694V26.4152H126.811C127.736 27.2131 128.822 28.5377 129.364 29.3516L130.162 28.442C129.604 27.644 128.423 26.4152 127.481 25.5694H126.587ZM143.536 25.4736C142.642 27.7558 141.174 29.974 139.514 31.3625C139.833 31.554 140.344 31.9848 140.583 32.2083C142.211 30.6762 143.775 28.3143 144.781 25.8247L143.536 25.4736ZM143.344 27.3887L142.77 28.5218H152.345V27.3887H143.344ZM151.962 27.3887V27.6281C151.818 32.8466 151.659 34.6819 151.292 35.0968C151.164 35.2724 150.989 35.3203 150.733 35.3203C150.43 35.3203 149.664 35.3043 148.85 35.2245C149.042 35.5437 149.169 36.0224 149.185 36.3735C150.047 36.4055 150.845 36.4214 151.292 36.3735C151.771 36.3257 152.09 36.198 152.377 35.8309C152.84 35.2405 152.999 33.3414 153.159 27.9632C153.159 27.7877 153.159 27.3887 153.159 27.3887H151.962ZM142.498 34.0276V35.0968H148.659V30.2294H142.163V31.2986H147.462V34.0276H142.498ZM141.924 34.0276V38.129C141.924 39.7089 142.674 40.06 145.227 40.06C145.786 40.06 150.606 40.06 151.196 40.06C153.462 40.06 153.925 39.5015 154.164 37.2034C153.829 37.1396 153.319 36.9481 153.015 36.7725C152.872 38.6078 152.632 38.927 151.18 38.927C150.111 38.927 145.977 38.927 145.164 38.927C143.44 38.927 143.121 38.7833 143.121 38.129V34.0276H141.924Z" fill="white"/>
<path d="M147.854 0.469727H25.8152C11.8167 0.469727 0.46875 11.8177 0.46875 25.8162C0.46875 39.8146 11.8167 51.1626 25.8152 51.1626H147.854C161.852 51.1626 173.2 39.8146 173.2 25.8162C173.2 11.8177 161.852 0.469727 147.854 0.469727Z" stroke="#747775"/>
</g>
<defs>
<linearGradient id="paint0_linear_568_1052" x1="35.0018" y1="31.9601" x2="17.633" y2="52.3104" gradientUnits="userSpaceOnUse">
<stop stop-color="#4285F4"/>
<stop offset="1" stop-color="#1B74E8"/>
</linearGradient>
<clipPath id="clip0_568_1052">
<rect width="173.67" height="51.6316" fill="white"/>
</clipPath>
</defs>
</svg>
