<svg width="174" height="26" viewBox="0 0 174 26" fill="none" xmlns="http://www.w3.org/2000/svg">
<g clip-path="url(#clip0_568_628)">
<path d="M160.864 0.255859H12.8092C5.87725 0.255859 0.257812 5.8753 0.257812 12.8072C0.257812 19.7392 5.87725 25.3586 12.8092 25.3586H160.864C167.796 25.3586 173.416 19.7392 173.416 12.8072C173.416 5.8753 167.796 0.255859 160.864 0.255859Z" fill="#1F1F1F"/>
<path d="M26.1268 11.2705H10.7578V8.70897C10.7578 7.31843 11.8858 6.14746 13.2253 6.14746H23.6593C24.9989 6.14746 26.1268 7.31843 26.1268 8.70897V11.2705Z" fill="#34A853"/>
<path d="M26.1268 13.3476H10.7578V10.7861C10.7578 9.39558 11.8858 8.22461 13.2253 8.22461H23.6593C24.9989 8.22461 26.1268 9.39558 26.1268 10.7861V13.3476Z" fill="#FBBC04"/>
<path d="M26.1268 15.4951H10.7578V12.9336C10.7578 11.543 11.8858 10.3721 13.2253 10.3721H23.6593C24.9989 10.3721 26.1268 11.543 26.1268 12.9336V15.4951Z" fill="#EA4335"/>
<path d="M10.7578 11.9242L20.5126 14.1802C21.6354 14.4622 22.8986 14.1802 23.811 13.4752L26.1268 11.7832V17.0707C26.1268 18.4102 25.004 19.4677 23.6706 19.4677H13.214C11.8807 19.4677 10.7578 18.4102 10.7578 17.0707V11.9242Z" fill="url(#paint0_linear_568_628)"/>
<path d="M33.1055 16.3941V9.05792H35.626C36.07 9.05792 36.473 9.15357 36.835 9.34481C37.1971 9.53605 37.4839 9.79907 37.6957 10.1338C37.9143 10.4684 38.0236 10.8578 38.0236 11.3018C38.0236 11.7458 37.9143 12.1385 37.6957 12.4801C37.4839 12.8148 37.1971 13.0778 36.835 13.269C36.473 13.4535 36.07 13.5457 35.626 13.5457H34.2325V16.3941H33.1055ZM35.6567 10.1235H34.2325V12.4801H35.6567C35.9231 12.4801 36.1485 12.4254 36.333 12.3162C36.5174 12.2 36.6574 12.0532 36.753 11.8756C36.8555 11.6912 36.9067 11.4999 36.9067 11.3018C36.9067 11.1037 36.8555 10.9159 36.753 10.7383C36.6574 10.5607 36.5174 10.4138 36.333 10.2977C36.1485 10.1816 35.9231 10.1235 35.6567 10.1235ZM38.9946 16.3941V11.1686H40.0397V11.9371H40.1012C40.2173 11.6707 40.4154 11.4521 40.6955 11.2813C40.9823 11.1037 41.2897 11.0149 41.6176 11.0149C41.761 11.0149 41.8806 11.0252 41.9762 11.0457C42.0787 11.0661 42.1709 11.0901 42.2529 11.1174V12.2649C42.123 12.2103 41.9898 12.1659 41.8533 12.1317C41.7234 12.0976 41.5869 12.0805 41.4434 12.0805C41.1838 12.0805 40.9516 12.1522 40.7467 12.2957C40.5486 12.4323 40.3915 12.6201 40.2754 12.8592C40.1592 13.0914 40.1012 13.3476 40.1012 13.6276V16.3941H38.9946ZM43.7423 10.4002C43.5373 10.4002 43.3597 10.3284 43.2095 10.185C43.066 10.0347 42.9943 9.85711 42.9943 9.65219C42.9943 9.44727 43.066 9.27309 43.2095 9.12965C43.3597 8.9862 43.5373 8.91448 43.7423 8.91448C43.9472 8.91448 44.1214 8.9862 44.2648 9.12965C44.4151 9.27309 44.4902 9.44727 44.4902 9.65219C44.4902 9.85711 44.4151 10.0347 44.2648 10.185C44.1214 10.3284 43.9472 10.4002 43.7423 10.4002ZM43.189 16.3941V11.1686H44.2956V16.3941H43.189ZM47.8521 16.558C47.3808 16.558 46.9539 16.4419 46.5714 16.2096C46.1957 15.9706 45.8952 15.6427 45.6697 15.226C45.4512 14.8025 45.3419 14.3209 45.3419 13.7813C45.3419 13.2417 45.4512 12.7636 45.6697 12.3469C45.8952 11.9302 46.1957 11.6024 46.5714 11.3633C46.9539 11.1242 47.3808 11.0047 47.8521 11.0047C48.2551 11.0047 48.6001 11.0934 48.887 11.2711C49.1807 11.4487 49.3959 11.6502 49.5325 11.8756H49.594L49.5325 11.1481V9.05792H50.6288V16.3941H49.594V15.6973H49.5325C49.3959 15.9228 49.1807 16.1242 48.887 16.3019C48.6001 16.4726 48.2551 16.558 47.8521 16.558ZM48.0161 15.5437C48.2893 15.5437 48.5454 15.4719 48.7845 15.3285C49.0304 15.185 49.2251 14.9836 49.3686 14.724C49.5188 14.4576 49.594 14.1434 49.594 13.7813C49.594 13.4193 49.5188 13.1085 49.3686 12.849C49.2251 12.5826 49.0304 12.3776 48.7845 12.2342C48.5454 12.0907 48.2893 12.019 48.0161 12.019C47.7428 12.019 47.4867 12.0907 47.2476 12.2342C47.0085 12.3776 46.8139 12.5826 46.6636 12.849C46.5133 13.1085 46.4382 13.4193 46.4382 13.7813C46.4382 14.1434 46.5133 14.4576 46.6636 14.724C46.8139 14.9836 47.0085 15.185 47.2476 15.3285C47.4867 15.4719 47.7428 15.5437 48.0161 15.5437ZM54.2696 16.558C53.7573 16.558 53.2993 16.4385 52.8967 16.1994C52.4935 15.9603 52.1759 15.6324 51.9438 15.2158C51.7184 14.7991 51.6057 14.3244 51.6057 13.7916C51.6057 13.293 51.7148 12.8319 51.9335 12.4084C52.1518 11.9849 52.4561 11.6467 52.8454 11.394C53.2415 11.1344 53.6959 11.0047 54.2082 11.0047C54.7476 11.0047 55.2051 11.1208 55.5811 11.353C55.9633 11.5853 56.2538 11.9029 56.452 12.3059C56.6498 12.7089 56.7492 13.1631 56.7492 13.6686C56.7492 13.7438 56.7456 13.8121 56.7389 13.8736C56.7389 13.935 56.7353 13.9828 56.7287 14.017H52.6918C52.7461 14.5361 52.9274 14.9255 53.2348 15.185C53.5488 15.4446 53.9039 15.5744 54.3004 15.5744C54.6554 15.5744 54.9489 15.4959 55.1815 15.3387C55.4136 15.1748 55.598 14.9733 55.7348 14.7342L56.6467 15.1748C56.4213 15.5846 56.1139 15.9193 55.7246 16.1789C55.3352 16.4316 54.8501 16.558 54.2696 16.558ZM54.2184 11.9473C53.8496 11.9473 53.535 12.06 53.2758 12.2854C53.016 12.5108 52.8419 12.8114 52.7532 13.1871H55.6529C55.639 13.0095 55.5811 12.825 55.4787 12.6338C55.3762 12.4425 55.2189 12.282 55.0074 12.1522C54.8024 12.0156 54.5391 11.9473 54.2184 11.9473ZM54.2082 10.144C54.0304 10.144 53.8767 10.0791 53.7471 9.94933C53.617 9.81956 53.5524 9.66244 53.5524 9.47801C53.5524 9.29358 53.617 9.13989 53.7471 9.01694C53.8767 8.88717 54.0304 8.82227 54.2082 8.82227C54.3993 8.82227 54.5565 8.88717 54.6795 9.01694C54.8024 9.13989 54.8639 9.29358 54.8639 9.47801C54.8639 9.66244 54.8024 9.81956 54.6795 9.94933C54.5565 10.0791 54.3993 10.144 54.2082 10.144ZM58.179 14.8777V12.1317H57.2671V11.1686H58.179V9.69318H59.2856V11.1686H60.5663V12.1317H59.2856V14.642C59.2856 14.9016 59.3368 15.0996 59.4393 15.2363C59.5484 15.3729 59.7292 15.4412 59.9823 15.4412C60.1119 15.4412 60.221 15.4241 60.3102 15.39C60.4055 15.3558 60.5013 15.308 60.5971 15.2465V16.3224C60.4808 16.3701 60.3578 16.4078 60.2282 16.4351C60.0981 16.4624 59.9444 16.476 59.7671 16.476C59.282 16.476 58.8962 16.336 58.6093 16.056C58.3225 15.7691 58.179 15.3763 58.179 14.8777ZM62.3133 10.4002C62.1084 10.4002 61.9306 10.3284 61.7805 10.185C61.637 10.0347 61.5653 9.85711 61.5653 9.65219C61.5653 9.44727 61.637 9.27309 61.7805 9.12965C61.9306 8.9862 62.1084 8.91448 62.3133 8.91448C62.5182 8.91448 62.6924 8.9862 62.8358 9.12965C62.9859 9.27309 63.0612 9.44727 63.0612 9.65219C63.0612 9.85711 62.9859 10.0347 62.8358 10.185C62.6924 10.3284 62.5182 10.4002 62.3133 10.4002ZM61.76 16.3941V11.1686H62.8666V16.3941H61.76ZM66.6207 18.6072V11.1686H67.6556V11.8756H67.717C67.8533 11.6502 68.0654 11.4487 68.3523 11.2711C68.6458 11.0934 68.9942 11.0047 69.3974 11.0047C69.8753 11.0047 70.3021 11.1242 70.6781 11.3633C71.0536 11.6024 71.3508 11.9302 71.5695 12.3469C71.7949 12.7636 71.9076 13.2417 71.9076 13.7813C71.9076 14.3209 71.7949 14.8025 71.5695 15.226C71.3508 15.6427 71.0536 15.9706 70.6781 16.2096C70.3021 16.4419 69.8753 16.558 69.3974 16.558C68.9942 16.558 68.6458 16.4726 68.3523 16.3019C68.0654 16.1242 67.8533 15.9228 67.717 15.6973H67.6556L67.717 16.4248V18.6072H66.6207ZM69.2334 15.5437C69.5065 15.5437 69.7626 15.4719 70.0019 15.3285C70.2406 15.185 70.4353 14.9836 70.5859 14.724C70.736 14.4576 70.8113 14.1434 70.8113 13.7813C70.8113 13.4193 70.736 13.1085 70.5859 12.849C70.4353 12.5826 70.2406 12.3776 70.0019 12.2342C69.7626 12.0907 69.5065 12.019 69.2334 12.019C68.9599 12.019 68.7037 12.0907 68.465 12.2342C68.2257 12.3776 68.0311 12.5826 67.881 12.849C67.7303 13.1085 67.6556 13.4193 67.6556 13.7813C67.6556 14.1434 67.7303 14.4576 67.881 14.724C68.0311 14.9836 68.2257 15.185 68.465 15.3285C68.7037 15.4719 68.9599 15.5437 69.2334 15.5437ZM72.8744 16.3941V11.1686H73.9194V11.9371H73.9809C74.0972 11.6707 74.2955 11.4521 74.5752 11.2813C74.8621 11.1037 75.1695 11.0149 75.4973 11.0149C75.6408 11.0149 75.7607 11.0252 75.8559 11.0457C75.9584 11.0661 76.0506 11.0901 76.1326 11.1174V12.2649C76.003 12.2103 75.8698 12.1659 75.733 12.1317C75.6034 12.0976 75.4666 12.0805 75.3232 12.0805C75.0639 12.0805 74.8313 12.1522 74.6264 12.2957C74.4287 12.4323 74.2714 12.6201 74.1551 12.8592C74.0393 13.0914 73.9809 13.3476 73.9809 13.6276V16.3941H72.8744ZM77.6224 10.4002C77.4174 10.4002 77.2397 10.3284 77.0896 10.185C76.9461 10.0347 76.8744 9.85711 76.8744 9.65219C76.8744 9.44727 76.9461 9.27309 77.0896 9.12965C77.2397 8.9862 77.4174 8.91448 77.6224 8.91448C77.8273 8.91448 78.0015 8.9862 78.1449 9.12965C78.295 9.27309 78.3703 9.44727 78.3703 9.65219C78.3703 9.85711 78.295 10.0347 78.1449 10.185C78.0015 10.3284 77.8273 10.4002 77.6224 10.4002ZM77.0691 16.3941V11.1686H78.1756V16.3941H77.0691ZM81.8857 16.558C81.3734 16.558 80.9159 16.4385 80.5128 16.1994C80.1096 15.9603 79.792 15.6324 79.5599 15.2158C79.3345 14.7991 79.2218 14.3244 79.2218 13.7916C79.2218 13.293 79.3309 12.8319 79.5496 12.4084C79.7684 11.9849 80.0722 11.6467 80.4615 11.394C80.8575 11.1344 81.312 11.0047 81.8243 11.0047C82.3637 11.0047 82.8217 11.1208 83.1972 11.353C83.5799 11.5853 83.8699 11.9029 84.0681 12.3059C84.2664 12.7089 84.3653 13.1631 84.3653 13.6686C84.3653 13.7438 84.3617 13.8121 84.355 13.8736C84.355 13.935 84.3514 13.9828 84.3448 14.017H80.3078C80.3627 14.5361 80.5435 14.9255 80.8509 15.185C81.1649 15.4446 81.5205 15.5744 81.9165 15.5744C82.2715 15.5744 82.5656 15.4959 82.7976 15.3387C83.0297 15.1748 83.2141 14.9733 83.3509 14.7342L84.2628 15.1748C84.0374 15.5846 83.73 15.9193 83.3407 16.1789C82.9513 16.4316 82.4662 16.558 81.8857 16.558ZM81.8345 11.9473C81.4656 11.9473 81.1516 12.06 80.8919 12.2854C80.6321 12.5108 80.458 12.8114 80.3693 13.1871H83.2689C83.2551 13.0095 83.1972 12.825 83.0948 12.6338C82.9923 12.4425 82.835 12.282 82.6234 12.1522C82.4185 12.0156 82.1557 11.9473 81.8345 11.9473Z" fill="white"/>
<path d="M91.9087 16.558C91.3825 16.558 90.8877 16.4624 90.423 16.2711C89.9655 16.0799 89.5587 15.8135 89.2037 15.4719C88.8487 15.1236 88.5685 14.7172 88.3635 14.2527C88.1653 13.7813 88.0664 13.2725 88.0664 12.726C88.0664 12.1795 88.1653 11.6741 88.3635 11.2096C88.5685 10.7383 88.8451 10.3319 89.1935 9.99031C89.5485 9.64195 89.9583 9.37212 90.423 9.18088C90.8877 8.98963 91.3825 8.89399 91.9087 8.89399C92.4686 8.89399 92.9845 8.99302 93.4558 9.19112C93.9338 9.38923 94.3334 9.66587 94.6546 10.021L93.8759 10.7895C93.6367 10.5231 93.3498 10.3182 93.0152 10.1747C92.6874 10.0313 92.3185 9.95957 91.9087 9.95957C91.4235 9.95957 90.9763 10.0757 90.5664 10.3079C90.1566 10.5334 89.8251 10.8544 89.5726 11.2711C89.3267 11.6809 89.2037 12.1659 89.2037 12.726C89.2037 13.2861 89.3303 13.7745 89.5828 14.1912C89.8354 14.601 90.1668 14.9221 90.5767 15.1543C90.9865 15.3797 91.4338 15.4924 91.9189 15.4924C92.3631 15.4924 92.7657 15.4105 93.1279 15.2465C93.4901 15.0758 93.7801 14.8367 93.9989 14.5293C94.2243 14.2219 94.361 13.8531 94.4087 13.4227H91.8984V12.4289H95.464C95.505 12.6133 95.5255 12.808 95.5255 13.0129V13.0231C95.5255 13.7335 95.3682 14.3551 95.0542 14.8879C94.7468 15.4139 94.3201 15.8237 93.7734 16.1174C93.2268 16.4111 92.6054 16.558 91.9087 16.558ZM98.8247 16.558C98.2853 16.558 97.8104 16.4351 97.4005 16.1892C96.9907 15.9432 96.6695 15.6119 96.4374 15.1953C96.2053 14.7786 96.089 14.3073 96.089 13.7813C96.089 13.2622 96.2053 12.7943 96.4374 12.3776C96.6695 11.9541 96.9907 11.6194 97.4005 11.3735C97.8104 11.1276 98.2853 11.0047 98.8247 11.0047C99.3575 11.0047 99.8288 11.1276 100.239 11.3735C100.649 11.6194 100.97 11.9541 101.202 12.3776C101.434 12.7943 101.55 13.2622 101.55 13.7813C101.55 14.3073 101.434 14.7786 101.202 15.1953C100.97 15.6119 100.649 15.9432 100.239 16.1892C99.8288 16.4351 99.3575 16.558 98.8247 16.558ZM98.8247 15.5437C99.1116 15.5437 99.378 15.4754 99.6239 15.3387C99.8698 15.1953 100.068 14.9938 100.218 14.7342C100.375 14.4678 100.454 14.1502 100.454 13.7813C100.454 13.4125 100.375 13.0983 100.218 12.8387C100.068 12.5723 99.8698 12.3708 99.6239 12.2342C99.378 12.0907 99.1116 12.019 98.8247 12.019C98.5378 12.019 98.2679 12.0907 98.0153 12.2342C97.7694 12.3708 97.5681 12.5723 97.4108 12.8387C97.2607 13.0983 97.1854 13.4125 97.1854 13.7813C97.1854 14.1502 97.2607 14.4678 97.4108 14.7342C97.5681 14.9938 97.7694 15.1953 98.0153 15.3387C98.2679 15.4754 98.5378 15.5437 98.8247 15.5437ZM105.028 16.558C104.489 16.558 104.014 16.4351 103.604 16.1892C103.194 15.9432 102.873 15.6119 102.641 15.1953C102.409 14.7786 102.292 14.3073 102.292 13.7813C102.292 13.2622 102.409 12.7943 102.641 12.3776C102.873 11.9541 103.194 11.6194 103.604 11.3735C104.014 11.1276 104.489 11.0047 105.028 11.0047C105.561 11.0047 106.032 11.1276 106.442 11.3735C106.852 11.6194 107.173 11.9541 107.405 12.3776C107.638 12.7943 107.754 13.2622 107.754 13.7813C107.754 14.3073 107.638 14.7786 107.405 15.1953C107.173 15.6119 106.852 15.9432 106.442 16.1892C106.032 16.4351 105.561 16.558 105.028 16.558ZM105.028 15.5437C105.315 15.5437 105.581 15.4754 105.827 15.3387C106.073 15.1953 106.272 14.9938 106.422 14.7342C106.579 14.4678 106.657 14.1502 106.657 13.7813C106.657 13.4125 106.579 13.0983 106.422 12.8387C106.272 12.5723 106.073 12.3708 105.827 12.2342C105.581 12.0907 105.315 12.019 105.028 12.019C104.741 12.019 104.472 12.0907 104.219 12.2342C103.973 12.3708 103.772 12.5723 103.614 12.8387C103.464 13.0983 103.389 13.4125 103.389 13.7813C103.389 14.1502 103.464 14.4678 103.614 14.7342C103.772 14.9938 103.973 15.1953 104.219 15.3387C104.472 15.4754 104.741 15.5437 105.028 15.5437ZM111.13 18.7711C110.672 18.7711 110.276 18.696 109.941 18.5457C109.613 18.4023 109.347 18.2144 109.142 17.9822C108.937 17.7568 108.79 17.5246 108.701 17.2855L109.726 16.8551C109.835 17.1284 110.009 17.3504 110.249 17.5211C110.494 17.6987 110.788 17.7875 111.13 17.7875C111.608 17.7875 111.983 17.6441 112.257 17.3572C112.536 17.0703 112.677 16.6639 112.677 16.1379V15.6359H112.615C112.451 15.8818 112.222 16.0799 111.929 16.2301C111.642 16.3736 111.314 16.4453 110.945 16.4453C110.501 16.4453 110.095 16.3326 109.726 16.1072C109.357 15.8818 109.06 15.5676 108.835 15.1646C108.609 14.7547 108.496 14.2766 108.496 13.7301C108.496 13.1768 108.609 12.6987 108.835 12.2957C109.06 11.8858 109.357 11.5682 109.726 11.3428C110.095 11.1174 110.501 11.0047 110.945 11.0047C111.314 11.0047 111.642 11.0798 111.929 11.2301C112.222 11.3803 112.451 11.5784 112.615 11.8243H112.677V11.1686H113.732V16.1174C113.732 16.6844 113.619 17.166 113.394 17.5621C113.175 17.9583 112.872 18.2588 112.482 18.4638C112.093 18.6687 111.642 18.7711 111.13 18.7711ZM111.14 15.4412C111.413 15.4412 111.666 15.3763 111.898 15.2465C112.13 15.1099 112.318 14.9152 112.462 14.6625C112.605 14.4029 112.677 14.0922 112.677 13.7301C112.677 13.3544 112.605 13.0402 112.462 12.7875C112.318 12.5279 112.13 12.3332 111.898 12.2035C111.666 12.0737 111.413 12.0088 111.14 12.0088C110.866 12.0088 110.61 12.0771 110.371 12.2137C110.139 12.3435 109.951 12.5348 109.808 12.7875C109.665 13.0402 109.593 13.3544 109.593 13.7301C109.593 14.099 109.665 14.4132 109.808 14.6727C109.951 14.9255 110.139 15.1168 110.371 15.2465C110.61 15.3763 110.866 15.4412 111.14 15.4412ZM115.037 16.3941V9.05792H116.144V16.3941H115.037ZM119.786 16.558C119.273 16.558 118.815 16.4385 118.413 16.1994C118.009 15.9603 117.692 15.6324 117.46 15.2158C117.234 14.7991 117.122 14.3244 117.122 13.7916C117.122 13.293 117.231 12.8319 117.449 12.4084C117.668 11.9849 117.972 11.6467 118.361 11.394C118.757 11.1344 119.212 11.0047 119.724 11.0047C120.263 11.0047 120.721 11.1208 121.097 11.353C121.479 11.5853 121.77 11.9029 121.968 12.3059C122.166 12.7089 122.265 13.1631 122.265 13.6686C122.265 13.7438 122.261 13.8121 122.255 13.8736C122.255 13.935 122.251 13.9828 122.245 14.017H118.208C118.262 14.5361 118.443 14.9255 118.751 15.185C119.065 15.4446 119.42 15.5744 119.816 15.5744C120.171 15.5744 120.465 15.4959 120.697 15.3387C120.929 15.1748 121.114 14.9733 121.251 14.7342L122.163 15.1748C121.937 15.5846 121.63 15.9193 121.24 16.1789C120.851 16.4316 120.366 16.558 119.786 16.558ZM119.734 11.9473C119.365 11.9473 119.051 12.06 118.792 12.2854C118.532 12.5108 118.358 12.8114 118.269 13.1871H121.169C121.155 13.0095 121.097 12.825 120.995 12.6338C120.892 12.4425 120.735 12.282 120.523 12.1522C120.318 12.0156 120.055 11.9473 119.734 11.9473ZM125.867 16.3941V9.05792H128.388C128.832 9.05792 129.235 9.15357 129.597 9.34481C129.959 9.53605 130.246 9.79907 130.457 10.1338C130.676 10.4684 130.785 10.8578 130.785 11.3018C130.785 11.7458 130.676 12.1385 130.457 12.4801C130.246 12.8148 129.959 13.0778 129.597 13.269C129.235 13.4535 128.832 13.5457 128.388 13.5457H126.994V16.3941H125.867ZM128.418 10.1235H126.994V12.4801H128.418C128.685 12.4801 128.91 12.4254 129.095 12.3162C129.279 12.2 129.419 12.0532 129.515 11.8756C129.617 11.6912 129.668 11.4999 129.668 11.3018C129.668 11.1037 129.617 10.9159 129.515 10.7383C129.419 10.5607 129.279 10.4138 129.095 10.2977C128.91 10.1816 128.685 10.1235 128.418 10.1235ZM132.392 10.4002C132.187 10.4002 132.009 10.3284 131.859 10.185C131.715 10.0347 131.644 9.85711 131.644 9.65219C131.644 9.44727 131.715 9.27309 131.859 9.12965C132.009 8.9862 132.187 8.91448 132.392 8.91448C132.597 8.91448 132.771 8.9862 132.914 9.12965C133.064 9.27309 133.14 9.44727 133.14 9.65219C133.14 9.85711 133.064 10.0347 132.914 10.185C132.771 10.3284 132.597 10.4002 132.392 10.4002ZM131.838 16.3941V11.1686H132.945V16.3941H131.838ZM134.318 16.3941V11.1686H135.363V11.8858H135.425C135.575 11.6331 135.797 11.4248 136.091 11.2608C136.391 11.0901 136.719 11.0047 137.074 11.0047C137.716 11.0047 138.198 11.1959 138.519 11.5784C138.84 11.961 139 12.4664 139 13.0949V16.3941H137.904V13.2383C137.904 12.8148 137.798 12.5074 137.586 12.3162C137.375 12.1181 137.098 12.019 136.756 12.019C136.49 12.019 136.258 12.0942 136.06 12.2444C135.862 12.3879 135.705 12.5791 135.588 12.8182C135.479 13.0573 135.425 13.3135 135.425 13.5867V16.3941H134.318ZM140.896 10.4002C140.691 10.4002 140.514 10.3284 140.364 10.185C140.22 10.0347 140.148 9.85711 140.148 9.65219C140.148 9.44727 140.22 9.27309 140.364 9.12965C140.514 8.9862 140.691 8.91448 140.896 8.91448C141.101 8.91448 141.276 8.9862 141.419 9.12965C141.57 9.27309 141.644 9.44727 141.644 9.65219C141.644 9.85711 141.57 10.0347 141.419 10.185C141.276 10.3284 141.101 10.4002 140.896 10.4002ZM140.343 16.3941V11.1686H141.45V16.3941H140.343ZM145.13 18.7711C144.672 18.7711 144.276 18.696 143.941 18.5457C143.613 18.4023 143.347 18.2144 143.142 17.9822C142.937 17.7568 142.79 17.5246 142.701 17.2855L143.726 16.8551C143.835 17.1284 144.009 17.3504 144.248 17.5211C144.494 17.6987 144.788 17.7875 145.13 17.7875C145.608 17.7875 145.983 17.6441 146.257 17.3572C146.536 17.0703 146.677 16.6639 146.677 16.1379V15.6359H146.615C146.451 15.8818 146.222 16.0799 145.929 16.2301C145.642 16.3736 145.314 16.4453 144.945 16.4453C144.501 16.4453 144.095 16.3326 143.726 16.1072C143.357 15.8818 143.06 15.5676 142.834 15.1646C142.609 14.7547 142.496 14.2766 142.496 13.7301C142.496 13.1768 142.609 12.6987 142.834 12.2957C143.06 11.8858 143.357 11.5682 143.726 11.3428C144.095 11.1174 144.501 11.0047 144.945 11.0047C145.314 11.0047 145.642 11.0798 145.929 11.2301C146.222 11.3803 146.451 11.5784 146.615 11.8243H146.677V11.1686H147.732V16.1174C147.732 16.6844 147.619 17.166 147.394 17.5621C147.175 17.9583 146.871 18.2588 146.482 18.4638C146.093 18.6687 145.642 18.7711 145.13 18.7711ZM145.14 15.4412C145.413 15.4412 145.665 15.3763 145.898 15.2465C146.13 15.1099 146.318 14.9152 146.462 14.6625C146.605 14.4029 146.677 14.0922 146.677 13.7301C146.677 13.3544 146.605 13.0402 146.462 12.7875C146.318 12.5279 146.13 12.3332 145.898 12.2035C145.665 12.0737 145.413 12.0088 145.14 12.0088C144.866 12.0088 144.61 12.0771 144.371 12.2137C144.139 12.3435 143.951 12.5348 143.808 12.7875C143.664 13.0402 143.593 13.3544 143.593 13.7301C143.593 14.099 143.664 14.4132 143.808 14.6727C143.951 14.9255 144.139 15.1168 144.371 15.2465C144.61 15.3763 144.866 15.4412 145.14 15.4412ZM149.662 10.4002C149.457 10.4002 149.279 10.3284 149.129 10.185C148.986 10.0347 148.914 9.85711 148.914 9.65219C148.914 9.44727 148.986 9.27309 149.129 9.12965C149.279 8.9862 149.457 8.91448 149.662 8.91448C149.867 8.91448 150.041 8.9862 150.184 9.12965C150.335 9.27309 150.41 9.44727 150.41 9.65219C150.41 9.85711 150.335 10.0347 150.184 10.185C150.041 10.3284 149.867 10.4002 149.662 10.4002ZM149.109 16.3941V11.1686H150.215V16.3941H149.109ZM151.588 16.3941V11.1686H152.633V11.8858H152.695C152.845 11.6331 153.067 11.4248 153.361 11.2608C153.661 11.0901 153.989 11.0047 154.344 11.0047C154.986 11.0047 155.468 11.1959 155.789 11.5784C156.11 11.961 156.271 12.4664 156.271 13.0949V16.3941H155.174V13.2383C155.174 12.8148 155.068 12.5074 154.857 12.3162C154.645 12.1181 154.368 12.019 154.027 12.019C153.76 12.019 153.528 12.0942 153.33 12.2444C153.132 12.3879 152.974 12.5791 152.859 12.8182C152.749 13.0573 152.695 13.3135 152.695 13.5867V16.3941H151.588ZM159.919 16.558C159.406 16.558 158.949 16.4385 158.546 16.1994C158.143 15.9603 157.825 15.6324 157.593 15.2158C157.367 14.7991 157.255 14.3244 157.255 13.7916C157.255 13.293 157.364 12.8319 157.583 12.4084C157.801 11.9849 158.105 11.6467 158.494 11.394C158.891 11.1344 159.345 11.0047 159.857 11.0047C160.397 11.0047 160.855 11.1208 161.23 11.353C161.613 11.5853 161.903 11.9029 162.101 12.3059C162.299 12.7089 162.398 13.1631 162.398 13.6686C162.398 13.7438 162.395 13.8121 162.388 13.8736C162.388 13.935 162.385 13.9828 162.378 14.017H158.341C158.396 14.5361 158.576 14.9255 158.884 15.185C159.198 15.4446 159.553 15.5744 159.949 15.5744C160.305 15.5744 160.598 15.4959 160.831 15.3387C161.063 15.1748 161.248 14.9733 161.384 14.7342L162.296 15.1748C162.07 15.5846 161.763 15.9193 161.374 16.1789C160.984 16.4316 160.5 16.558 159.919 16.558ZM159.867 11.9473C159.499 11.9473 159.185 12.06 158.925 12.2854C158.666 12.5108 158.491 12.8114 158.402 13.1871H161.302C161.289 13.0095 161.23 12.825 161.128 12.6338C161.025 12.4425 160.868 12.282 160.656 12.1522C160.451 12.0156 160.189 11.9473 159.867 11.9473ZM159.857 10.144C159.68 10.144 159.526 10.0791 159.396 9.94933C159.266 9.81956 159.201 9.66244 159.201 9.47801C159.201 9.29358 159.266 9.13989 159.396 9.01694C159.526 8.88717 159.68 8.82227 159.857 8.82227C160.049 8.82227 160.206 8.88717 160.328 9.01694C160.451 9.13989 160.513 9.29358 160.513 9.47801C160.513 9.66244 160.451 9.81956 160.328 9.94933C160.206 10.0791 160.049 10.144 159.857 10.144Z" fill="white"/>
<path d="M160.864 0.255859H12.8092C5.87725 0.255859 0.257812 5.8753 0.257812 12.8072C0.257812 19.7392 5.87725 25.3586 12.8092 25.3586H160.864C167.796 25.3586 173.416 19.7392 173.416 12.8072C173.416 5.8753 167.796 0.255859 160.864 0.255859Z" stroke="#747775"/>
</g>
<defs>
<linearGradient id="paint0_linear_568_628" x1="17.7099" y1="15.7722" x2="9.59535" y2="25.0586" gradientUnits="userSpaceOnUse">
<stop stop-color="#4285F4"/>
<stop offset="1" stop-color="#1B74E8"/>
</linearGradient>
<clipPath id="clip0_568_628">
<rect width="173.67" height="25.615" fill="white"/>
</clipPath>
</defs>
</svg>
