<svg width="174" height="45" viewBox="0 0 174 45" fill="none" xmlns="http://www.w3.org/2000/svg">
<g clip-path="url(#clip0_568_798)">
<path d="M151.246 0.407227H22.4208C10.2625 0.407227 0.40625 10.2635 0.40625 22.4217C0.40625 34.58 10.2625 44.4362 22.4208 44.4362H151.246C163.405 44.4362 173.261 34.58 173.261 22.4217C173.261 10.2635 163.405 0.407227 151.246 0.407227Z" fill="#1F1F1F"/>
<path d="M46.4738 19.3984H17.1211V14.7955C17.1211 12.2966 19.2754 10.1924 21.8337 10.1924H41.7612C44.3194 10.1924 46.4738 12.2966 46.4738 14.7955V19.3984Z" fill="#34A853"/>
<path d="M46.4738 23.6456H17.1211V18.7534C17.1211 16.0978 19.2754 13.8613 21.8337 13.8613H41.7612C44.3194 13.8613 46.4738 16.0978 46.4738 18.7534V23.6456Z" fill="#FBBC04"/>
<path d="M46.4738 27.7217H17.1211V22.8296C17.1211 20.1739 19.2754 17.9375 21.8337 17.9375H41.7612C44.3194 17.9375 46.4738 20.1739 46.4738 22.8296V27.7217Z" fill="#EA4335"/>
<path d="M17.1211 20.5804L35.7513 24.7889C37.8959 25.315 40.3084 24.7889 42.0507 23.4738L46.4738 20.3174V30.181C46.4738 32.6798 44.3293 34.6526 41.7827 34.6526H21.8121C19.2656 34.6526 17.1211 32.6798 17.1211 30.181V20.5804Z" fill="url(#paint0_linear_568_798)"/>
<path d="M56.418 17.5298L59.2799 9.94051H60.6048L63.4773 17.5298H62.1947L61.4952 15.5795H58.4001L57.7005 17.5298H56.418ZM59.6296 12.177L58.7923 14.4983H61.103L60.2656 12.177L59.9794 11.3079H59.9158L59.6296 12.177ZM66.4625 17.6994C65.975 17.6994 65.5334 17.5793 65.1376 17.339C64.749 17.0917 64.438 16.7525 64.2048 16.3215C63.9787 15.8834 63.8656 15.3852 63.8656 14.8269C63.8656 14.2686 63.9787 13.774 64.2048 13.343C64.438 12.9119 64.749 12.5727 65.1376 12.3254C65.5334 12.0781 65.975 11.9544 66.4625 11.9544C66.8795 11.9544 67.2363 12.0463 67.5331 12.23C67.837 12.4137 68.0596 12.6222 68.2009 12.8554H68.2645L68.2009 12.1028V9.94051H69.335V17.5298H68.2645V16.809H68.2009C68.0596 17.0422 67.837 17.2507 67.5331 17.4344C67.2363 17.6111 66.8795 17.6994 66.4625 17.6994ZM66.6321 16.65C66.9148 16.65 67.1798 16.5758 67.4271 16.4274C67.6815 16.2791 67.8829 16.0706 68.0313 15.8021C68.1868 15.5265 68.2645 15.2014 68.2645 14.8269C68.2645 14.4524 68.1868 14.1308 68.0313 13.8624C67.8829 13.5868 67.6815 13.3748 67.4271 13.2264C67.1798 13.078 66.9148 13.0038 66.6321 13.0038C66.3495 13.0038 66.0845 13.078 65.8372 13.2264C65.5899 13.3748 65.3885 13.5868 65.233 13.8624C65.0776 14.1308 64.9998 14.4524 64.9998 14.8269C64.9998 15.2014 65.0776 15.5265 65.233 15.8021C65.3885 16.0706 65.5899 16.2791 65.8372 16.4274C66.0845 16.5758 66.3495 16.65 66.6321 16.65ZM72.3276 17.6994C71.9389 17.6994 71.5927 17.6252 71.2889 17.4768C70.985 17.3213 70.7483 17.1058 70.5787 16.8302C70.4091 16.5546 70.3243 16.2402 70.3243 15.8869C70.3243 15.5053 70.4232 15.1802 70.6211 14.9117C70.826 14.6361 71.0981 14.4276 71.4372 14.2863C71.7764 14.145 72.1509 14.0743 72.5608 14.0743C72.9 14.0743 73.1968 14.1061 73.4512 14.1697C73.7126 14.2333 73.9104 14.3004 74.0447 14.3711V14.0849C74.0447 13.7316 73.9175 13.449 73.6632 13.237C73.4088 13.025 73.0802 12.919 72.6774 12.919C72.4018 12.919 72.1403 12.9826 71.893 13.1098C71.6457 13.2299 71.4478 13.396 71.2995 13.608L70.5151 13.0038C70.7483 12.6787 71.0557 12.4243 71.4372 12.2406C71.8259 12.0498 72.2499 11.9544 72.7092 11.9544C73.4936 11.9544 74.0977 12.1487 74.5217 12.5374C74.9457 12.919 75.1577 13.4561 75.1577 14.1485V17.5298H74.0447V16.862H73.9811C73.8398 17.0811 73.6278 17.2754 73.3452 17.445C73.0625 17.6146 72.7233 17.6994 72.3276 17.6994ZM72.529 16.7666C72.8258 16.7666 73.0873 16.6959 73.3134 16.5546C73.5395 16.4133 73.7162 16.2296 73.8433 16.0035C73.9776 15.7703 74.0447 15.5194 74.0447 15.2509C73.8822 15.159 73.6914 15.0848 73.4724 15.0283C73.2533 14.9647 73.0201 14.9329 72.7728 14.9329C72.3064 14.9329 71.9743 15.0283 71.7764 15.2191C71.5785 15.4028 71.4796 15.629 71.4796 15.8975C71.4796 16.1519 71.575 16.3603 71.7658 16.5228C71.9566 16.6853 72.211 16.7666 72.529 16.7666ZM72.7622 11.1065C72.5149 11.1065 72.2852 11.0464 72.0732 10.9263C71.8612 10.8062 71.6881 10.6436 71.5538 10.4387C71.4266 10.2267 71.363 9.99 71.363 9.72852H72.211C72.211 9.87691 72.2605 10.0076 72.3594 10.1207C72.4583 10.2338 72.5926 10.2903 72.7622 10.2903C72.9247 10.2903 73.0519 10.2338 73.1438 10.1207C73.2427 10.0076 73.2922 9.87691 73.2922 9.72852H74.1401C74.1401 9.99 74.073 10.2267 73.9387 10.4387C73.8115 10.6436 73.642 10.8062 73.43 10.9263C73.2251 11.0464 73.0025 11.1065 72.7622 11.1065ZM78.3789 17.6994C77.7146 17.6994 77.213 17.5015 76.8738 17.1058C76.5416 16.703 76.3756 16.159 76.3756 15.4735V12.124H77.5203V15.3145C77.5203 15.7738 77.6263 16.113 77.8383 16.3321C78.0573 16.544 78.3294 16.65 78.6545 16.65C78.9442 16.65 79.1951 16.5758 79.4071 16.4274C79.6261 16.272 79.7922 16.0742 79.9052 15.8339C80.0253 15.5866 80.0854 15.318 80.0854 15.0283V12.124H81.2196V17.5298H80.149V16.7984H80.0854C79.9299 17.0528 79.6968 17.2683 79.3859 17.445C79.082 17.6146 78.7463 17.6994 78.3789 17.6994ZM84.9528 19.9889C84.4791 19.9889 84.069 19.9112 83.7233 19.7557C83.3841 19.6073 83.1085 19.413 82.8965 19.1727C82.6845 18.9395 82.5321 18.6993 82.4407 18.452L83.5007 18.0068C83.6132 18.2895 83.7934 18.5191 84.0413 18.6958C84.2957 18.8795 84.599 18.9713 84.9528 18.9713C85.447 18.9713 85.8359 18.823 86.1188 18.5262C86.4083 18.2294 86.5534 17.8089 86.5534 17.2648V16.7454H86.4898C86.3202 16.9998 86.0829 17.2047 85.7796 17.3602C85.4828 17.5086 85.1436 17.5828 84.7621 17.5828C84.3022 17.5828 83.8823 17.4662 83.5007 17.233C83.1191 16.9998 82.8117 16.6747 82.5785 16.2579C82.3453 15.8339 82.2288 15.3392 82.2288 14.7739C82.2288 14.2015 82.3453 13.7069 82.5785 13.29C82.8117 12.866 83.1191 12.5374 83.5007 12.3042C83.8823 12.071 84.3022 11.9544 84.7621 11.9544C85.1436 11.9544 85.4828 12.0321 85.7796 12.1876C86.0829 12.3431 86.3202 12.548 86.4898 12.8024H86.5534V12.124H87.6451V17.2436C87.6451 17.8301 87.5285 18.3283 87.2954 18.7382C87.0687 19.148 86.7548 19.4589 86.352 19.6709C85.9492 19.8829 85.4828 19.9889 84.9528 19.9889ZM84.9634 16.544C85.2456 16.544 85.5073 16.4769 85.7478 16.3427C85.9875 16.2014 86.1824 16 86.3308 15.7385C86.4792 15.47 86.5534 15.1484 86.5534 14.7739C86.5534 14.3852 86.4792 14.0602 86.3308 13.7988C86.1824 13.5303 85.9875 13.3289 85.7478 13.1946C85.5073 13.0603 85.2456 12.9932 84.9634 12.9932C84.6805 12.9932 84.4155 13.0639 84.1685 13.2052C83.928 13.3395 83.7339 13.5373 83.5855 13.7988C83.4371 14.0602 83.3629 14.3852 83.3629 14.7739C83.3629 15.1555 83.4371 15.4806 83.5855 15.7491C83.7339 16.0106 83.928 16.2084 84.1685 16.3427C84.4155 16.4769 84.6805 16.544 84.9634 16.544ZM90.6285 17.6994C90.2396 17.6994 89.8939 17.6252 89.5898 17.4768C89.2856 17.3213 89.0492 17.1058 88.8796 16.8302C88.71 16.5546 88.6252 16.2402 88.6252 15.8869C88.6252 15.5053 88.7238 15.1802 88.922 14.9117C89.1266 14.6361 89.399 14.4276 89.7381 14.2863C90.0773 14.145 90.4516 14.0743 90.8617 14.0743C91.2009 14.0743 91.4977 14.1061 91.7521 14.1697C92.0138 14.2333 92.2111 14.3004 92.3456 14.3711V14.0849C92.3456 13.7316 92.2184 13.449 91.9641 13.237C91.7097 13.025 91.3811 12.919 90.9783 12.919C90.7027 12.919 90.441 12.9826 90.1939 13.1098C89.9469 13.2299 89.7487 13.396 89.6004 13.608L88.816 13.0038C89.0492 12.6787 89.3566 12.4243 89.7381 12.2406C90.1271 12.0498 90.5511 11.9544 91.0101 11.9544C91.7945 11.9544 92.3986 12.1487 92.8226 12.5374C93.2466 12.919 93.4586 13.4561 93.4586 14.1485V17.5298H92.3456V16.862H92.282C92.141 17.0811 91.929 17.2754 91.6461 17.445C91.3631 17.6146 91.024 17.6994 90.6285 17.6994ZM90.8299 16.7666C91.1267 16.7666 91.3884 16.6959 91.6143 16.5546C91.8401 16.4133 92.0171 16.2296 92.1443 16.0035C92.2788 15.7703 92.3456 15.5194 92.3456 15.2509C92.1834 15.159 91.9926 15.0848 91.7733 15.0283C91.5539 14.9647 91.3207 14.9329 91.0737 14.9329C90.6073 14.9329 90.2755 15.0283 90.0773 15.2191C89.8792 15.4028 89.7805 15.629 89.7805 15.8975C89.7805 16.1519 89.8759 16.3603 90.0667 16.5228C90.2575 16.6853 90.5119 16.7666 90.8299 16.7666ZM95.188 15.9611V13.1204H94.2446V12.124H95.188V10.5977H96.3327V12.124H97.6577V13.1204H96.3327V15.7173C96.3327 15.9858 96.3857 16.1908 96.4917 16.3321C96.6042 16.4734 96.7918 16.544 97.0535 16.544C97.1872 16.544 97.3005 16.5264 97.3927 16.491C97.4913 16.4557 97.59 16.4062 97.6895 16.3427V17.4556C97.5688 17.5051 97.4416 17.5439 97.3079 17.5722C97.1733 17.6005 97.0144 17.6146 96.8309 17.6146C96.3286 17.6146 95.9299 17.4697 95.6331 17.18C95.3364 16.8832 95.188 16.4769 95.188 15.9611ZM96.1843 20.2963L95.7285 19.9889L96.1737 19.3211C96.0392 19.2787 95.9299 19.201 95.8451 19.0879C95.7669 18.9749 95.7285 18.8477 95.7285 18.7064C95.7285 18.5368 95.7921 18.3813 95.9193 18.24C96.0465 18.1057 96.2055 18.0386 96.3963 18.0386C96.5936 18.0386 96.7567 18.1057 96.8839 18.24C97.0111 18.3743 97.0747 18.5368 97.0747 18.7276C97.0747 18.8971 97.0111 19.0738 96.8839 19.2575L96.1843 20.2963ZM99.4751 11.3291C99.2631 11.3291 99.0796 11.2549 98.9239 11.1065C98.7755 10.951 98.7013 10.7673 98.7013 10.5553C98.7013 10.3433 98.7755 10.1631 98.9239 10.0147C99.0796 9.86631 99.2631 9.79211 99.4751 9.79211C99.6871 9.79211 99.8673 9.86631 100.016 10.0147C100.171 10.1631 100.249 10.3433 100.249 10.5553C100.249 10.7673 100.171 10.951 100.016 11.1065C99.8673 11.2549 99.6871 11.3291 99.4751 11.3291ZM98.9027 17.5298V12.124H100.047V17.5298H98.9027ZM103.952 17.5298V9.94051H105.097V17.5298H103.952ZM108.091 17.6994C107.702 17.6994 107.356 17.6252 107.052 17.4768C106.748 17.3213 106.512 17.1058 106.342 16.8302C106.172 16.5546 106.088 16.2402 106.088 15.8869C106.088 15.5053 106.186 15.1802 106.384 14.9117C106.589 14.6361 106.861 14.4276 107.201 14.2863C107.54 14.145 107.914 14.0743 108.324 14.0743C108.663 14.0743 108.96 14.1061 109.214 14.1697C109.476 14.2333 109.674 14.3004 109.808 14.3711V14.0849C109.808 13.7316 109.681 13.449 109.426 13.237C109.172 13.025 108.843 12.919 108.441 12.919C108.165 12.919 107.903 12.9826 107.656 13.1098C107.409 13.2299 107.211 13.396 107.063 13.608L106.278 13.0038C106.512 12.6787 106.819 12.4243 107.201 12.2406C107.589 12.0498 108.013 11.9544 108.472 11.9544C109.257 11.9544 109.861 12.1487 110.285 12.5374C110.709 12.919 110.921 13.4561 110.921 14.1485V17.5298H109.808V16.862H109.744C109.603 17.0811 109.391 17.2754 109.108 17.445C108.826 17.6146 108.486 17.6994 108.091 17.6994ZM108.292 16.7666C108.589 16.7666 108.851 16.6959 109.077 16.5546C109.303 16.4133 109.479 16.2296 109.607 16.0035C109.741 15.7703 109.808 15.5194 109.808 15.2509C109.646 15.159 109.455 15.0848 109.236 15.0283C109.016 14.9647 108.783 14.9329 108.536 14.9329C108.07 14.9329 107.738 15.0283 107.54 15.2191C107.342 15.4028 107.243 15.629 107.243 15.8975C107.243 16.1519 107.338 16.3603 107.529 16.5228C107.72 16.6853 107.974 16.7666 108.292 16.7666Z" fill="white"/>
<path d="M57.3828 33.8367V23.9122H60.7926C61.3933 23.9122 61.9384 24.0416 62.4282 24.3003C62.918 24.559 63.3061 24.9148 63.5925 25.3676C63.8883 25.8204 64.0361 26.3471 64.0361 26.9478C64.0361 27.5484 63.8883 28.0797 63.5925 28.5418C63.3061 28.9945 62.918 29.3504 62.4282 29.6091C61.9384 29.8586 61.3933 29.9833 60.7926 29.9833H58.9075V33.8367H57.3828ZM60.8342 25.3537H58.9075V28.5418H60.8342C61.1946 28.5418 61.4995 28.4678 61.749 28.32C61.9985 28.1629 62.1879 27.9643 62.3173 27.724C62.4559 27.4745 62.5252 27.2158 62.5252 26.9478C62.5252 26.6798 62.4559 26.4257 62.3173 26.1854C62.1879 25.9451 61.9985 25.7465 61.749 25.5894C61.4995 25.4323 61.1946 25.3537 60.8342 25.3537ZM68.1891 34.0584C67.4591 34.0584 66.8168 33.8921 66.2624 33.5595C65.708 33.2268 65.2736 32.7786 64.9595 32.2149C64.6453 31.6513 64.4882 31.0137 64.4882 30.3021C64.4882 29.5999 64.6453 28.9668 64.9595 28.4032C65.2736 27.8302 65.708 27.3775 66.2624 27.0448C66.8168 26.7121 67.4591 26.5458 68.1891 26.5458C68.9099 26.5458 69.5475 26.7121 70.1019 27.0448C70.6563 27.3775 71.0907 27.8302 71.4048 28.4032C71.719 28.9668 71.8761 29.5999 71.8761 30.3021C71.8761 31.0137 71.719 31.6513 71.4048 32.2149C71.0907 32.7786 70.6563 33.2268 70.1019 33.5595C69.5475 33.8921 68.9099 34.0584 68.1891 34.0584ZM68.1891 32.6862C68.5772 32.6862 68.9376 32.5938 69.2702 32.409C69.6029 32.2149 69.8709 31.9424 70.0742 31.5912C70.2867 31.2308 70.393 30.8011 70.393 30.3021C70.393 29.8031 70.2867 29.3781 70.0742 29.0269C69.8709 28.6665 69.6029 28.394 69.2702 28.2091C68.9376 28.0151 68.5772 27.918 68.1891 27.918C67.801 27.918 67.4359 28.0151 67.0941 28.2091C66.7614 28.394 66.4888 28.6665 66.2763 29.0269C66.073 29.3781 65.9713 29.8031 65.9713 30.3021C65.9713 30.8011 66.073 31.2308 66.2763 31.5912C66.4888 31.9424 66.7614 32.2149 67.0941 32.409C67.4359 32.5938 67.801 32.6862 68.1891 32.6862ZM79.4816 31.7852V28.0705H78.248V26.7676H79.4816V24.7716H80.9786V26.7676H82.7109V28.0705H80.9786V31.4664C80.9786 31.8176 81.0479 32.0855 81.1865 32.2704C81.3344 32.4552 81.5792 32.5476 81.9208 32.5476C82.097 32.5476 82.2445 32.5245 82.3644 32.4783C82.494 32.4321 82.6237 32.3674 82.7525 32.2842V33.7396C82.5959 33.8043 82.4296 33.8552 82.2535 33.8921C82.0782 33.9291 81.8752 33.9476 81.6436 33.9476C80.9786 33.9476 80.4519 33.7582 80.0638 33.3793C79.6757 32.9912 79.4816 32.4598 79.4816 31.7852ZM73.1194 33.8367V26.7676H74.5333V27.8071H74.6164C74.8013 27.419 75.0877 27.1187 75.4758 26.9062C75.8639 26.6844 76.2844 26.5735 76.7372 26.5735C76.9959 26.5735 77.19 26.592 77.3193 26.629V28.1259C77.116 28.0613 76.8665 28.0289 76.5708 28.0289C75.9794 28.0289 75.5035 28.2183 75.1431 28.5972C74.792 28.9761 74.6164 29.489 74.6164 30.1358V33.8367H73.1194ZM87.2206 34.0584C86.4909 34.0584 85.8484 33.8921 85.2939 33.5595C84.7395 33.2268 84.3057 32.7786 83.991 32.2149C83.6771 31.6513 83.5197 31.0137 83.5197 30.3021C83.5197 29.5999 83.6771 28.9668 83.991 28.4032C84.3057 27.8302 84.7395 27.3775 85.2939 27.0448C85.8484 26.7121 86.4909 26.5458 87.2206 26.5458C87.9414 26.5458 88.579 26.7121 89.1334 27.0448C89.6879 27.3775 90.1225 27.8302 90.4364 28.4032C90.7511 28.9668 90.9076 29.5999 90.9076 30.3021C90.9076 31.0137 90.7511 31.6513 90.4364 32.2149C90.1225 32.7786 89.6879 33.2268 89.1334 33.5595C88.579 33.8921 87.9414 34.0584 87.2206 34.0584ZM87.2206 32.6862C87.6087 32.6862 87.9691 32.5938 88.3018 32.409C88.6344 32.2149 88.9027 31.9424 89.1057 31.5912C89.3185 31.2308 89.4245 30.8011 89.4245 30.3021C89.4245 29.8031 89.3185 29.3781 89.1057 29.0269C88.9027 28.6665 88.6344 28.394 88.3018 28.2091C87.9691 28.0151 87.6087 27.918 87.2206 27.918C86.8325 27.918 86.4681 28.0151 86.1256 28.2091C85.7929 28.394 85.5206 28.6665 85.3078 29.0269C85.1048 29.3781 85.0029 29.8031 85.0029 30.3021C85.0029 30.8011 85.1048 31.2308 85.3078 31.5912C85.5206 31.9424 85.7929 32.2149 86.1256 32.409C86.4681 32.5938 86.8325 32.6862 87.2206 32.6862ZM92.8873 33.8367V28.0705H91.5983V26.7676H92.8873V26.1854C92.8873 25.6864 92.9941 25.2614 93.2061 24.9102C93.4189 24.5498 93.7051 24.2772 94.0655 24.0924C94.4357 23.8983 94.8515 23.8013 95.313 23.8013C95.5625 23.8013 95.7753 23.8198 95.9506 23.8568C96.1357 23.8845 96.2882 23.9214 96.408 23.9676V25.4231C96.2882 25.3768 96.1495 25.3307 95.9922 25.2844C95.8446 25.229 95.6595 25.2013 95.4377 25.2013C95.1516 25.2013 94.9021 25.2983 94.6893 25.4924C94.4773 25.6772 94.3704 25.9498 94.3704 26.3102V26.7676H96.1447V28.0705H94.3704V33.8367H92.8873ZM100.376 34.0584C99.6825 34.0584 99.0636 33.8968 98.5181 33.5733C97.9735 33.2499 97.5438 32.8063 97.2291 32.2427C96.9241 31.679 96.7717 31.0368 96.7717 30.316C96.7717 29.6414 96.9201 29.0177 97.2152 28.4447C97.5112 27.8718 97.9221 27.4144 98.4488 27.0725C98.9853 26.7213 99.5993 26.5458 100.292 26.5458C101.023 26.5458 101.642 26.7029 102.15 27.0171C102.667 27.3312 103.06 27.7609 103.328 28.3061C103.596 28.8514 103.73 29.4658 103.73 30.1497C103.73 30.2513 103.726 30.3437 103.716 30.4269C103.716 30.51 103.712 30.5747 103.702 30.6209H98.2409C98.3151 31.3232 98.5597 31.8499 98.9756 32.2011C99.4012 32.5522 99.8814 32.7278 100.417 32.7278C100.898 32.7278 101.295 32.6216 101.609 32.409C101.924 32.1872 102.173 31.9146 102.358 31.5912L103.591 32.1872C103.286 32.7417 102.87 33.1944 102.344 33.5456C101.817 33.8875 101.162 34.0584 100.376 34.0584ZM100.306 27.821C99.8072 27.821 99.3824 27.9735 99.031 28.2784C98.6804 28.5834 98.4448 28.99 98.3241 29.4982H102.247C102.229 29.2579 102.15 29.0084 102.011 28.7497C101.872 28.491 101.661 28.2738 101.374 28.0982C101.096 27.9134 100.741 27.821 100.306 27.821ZM105.133 33.8367V23.9122H106.63V33.8367H105.133ZM116.307 34.0584C115.596 34.0584 114.926 33.9291 114.298 33.6703C113.679 33.4116 113.128 33.0512 112.648 32.5892C112.168 32.1179 111.789 31.5681 111.512 30.9397C111.243 30.3021 111.11 29.6137 111.11 28.8744C111.11 28.1352 111.243 27.4514 111.512 26.823C111.789 26.1854 112.163 25.6356 112.634 25.1736C113.115 24.7023 113.669 24.3372 114.298 24.0785C114.926 23.8198 115.596 23.6904 116.307 23.6904C117.065 23.6904 117.763 23.8244 118.4 24.0924C119.047 24.3604 119.588 24.7347 120.022 25.2151L118.969 26.2547C118.645 25.8943 118.257 25.6171 117.804 25.4231C117.361 25.229 116.862 25.132 116.307 25.132C115.651 25.132 115.046 25.2891 114.492 25.6032C113.937 25.9082 113.489 26.3425 113.147 26.9062C112.815 27.4606 112.648 28.1167 112.648 28.8744C112.648 29.6321 112.819 30.2929 113.161 30.8566C113.503 31.411 113.951 31.8453 114.506 32.1595C115.06 32.4644 115.665 32.6169 116.321 32.6169C116.922 32.6169 117.467 32.506 117.957 32.2842C118.447 32.0533 118.839 31.7298 119.135 31.314C119.44 30.8981 119.625 30.3991 119.69 29.817H116.294V28.4725H121.117C121.173 28.722 121.2 28.9853 121.2 29.2625V29.2764C121.2 30.2375 120.988 31.0783 120.563 31.7991C120.147 32.5107 119.57 33.0651 118.83 33.4624C118.091 33.8597 117.25 34.0584 116.307 34.0584ZM125.664 34.0584C124.933 34.0584 124.291 33.8921 123.737 33.5595C123.183 33.2268 122.748 32.7786 122.434 32.2149C122.119 31.6513 121.963 31.0137 121.963 30.3021C121.963 29.5999 122.119 28.9668 122.434 28.4032C122.748 27.8302 123.183 27.3775 123.737 27.0448C124.291 26.7121 124.933 26.5458 125.664 26.5458C126.384 26.5458 127.022 26.7121 127.576 27.0448C128.131 27.3775 128.565 27.8302 128.879 28.4032C129.193 28.9668 129.351 29.5999 129.351 30.3021C129.351 31.0137 129.193 31.6513 128.879 32.2149C128.565 32.7786 128.131 33.2268 127.576 33.5595C127.022 33.8921 126.384 34.0584 125.664 34.0584ZM125.664 32.6862C126.052 32.6862 126.412 32.5938 126.745 32.409C127.077 32.2149 127.345 31.9424 127.549 31.5912C127.761 31.2308 127.868 30.8011 127.868 30.3021C127.868 29.8031 127.761 29.3781 127.549 29.0269C127.345 28.6665 127.077 28.394 126.745 28.2091C126.412 28.0151 126.052 27.918 125.664 27.918C125.276 27.918 124.91 28.0151 124.569 28.2091C124.236 28.394 123.963 28.6665 123.751 29.0269C123.547 29.3781 123.446 29.8031 123.446 30.3021C123.446 30.8011 123.547 31.2308 123.751 31.5912C123.963 31.9424 124.236 32.2149 124.569 32.409C124.91 32.5938 125.276 32.6862 125.664 32.6862ZM134.056 34.0584C133.326 34.0584 132.684 33.8921 132.129 33.5595C131.575 33.2268 131.14 32.7786 130.826 32.2149C130.512 31.6513 130.355 31.0137 130.355 30.3021C130.355 29.5999 130.512 28.9668 130.826 28.4032C131.14 27.8302 131.575 27.3775 132.129 27.0448C132.684 26.7121 133.326 26.5458 134.056 26.5458C134.777 26.5458 135.414 26.7121 135.969 27.0448C136.523 27.3775 136.957 27.8302 137.272 28.4032C137.586 28.9668 137.743 29.5999 137.743 30.3021C137.743 31.0137 137.586 31.6513 137.272 32.2149C136.957 32.7786 136.523 33.2268 135.969 33.5595C135.414 33.8921 134.777 34.0584 134.056 34.0584ZM134.056 32.6862C134.444 32.6862 134.805 32.5938 135.137 32.409C135.47 32.2149 135.737 31.9424 135.941 31.5912C136.153 31.2308 136.26 30.8011 136.26 30.3021C136.26 29.8031 136.153 29.3781 135.941 29.0269C135.737 28.6665 135.47 28.394 135.137 28.2091C134.805 28.0151 134.444 27.918 134.056 27.918C133.668 27.918 133.303 28.0151 132.961 28.2091C132.628 28.394 132.355 28.6665 132.143 29.0269C131.939 29.3781 131.838 29.8031 131.838 30.3021C131.838 30.8011 131.939 31.2308 132.143 31.5912C132.355 31.9424 132.628 32.2149 132.961 32.409C133.303 32.5938 133.668 32.6862 134.056 32.6862ZM142.31 37.0524C141.69 37.0524 141.155 36.9507 140.702 36.7475C140.258 36.5534 139.898 36.2993 139.621 35.9851C139.344 35.6802 139.145 35.366 139.025 35.0426L140.411 34.4604C140.559 34.83 140.794 35.1304 141.118 35.3614C141.451 35.6017 141.848 35.7218 142.31 35.7218C142.956 35.7218 143.464 35.5277 143.835 35.1396C144.213 34.7515 144.403 34.2017 144.403 33.4901V32.811H144.32C144.098 33.1436 143.788 33.4116 143.391 33.6149C143.003 33.809 142.559 33.906 142.06 33.906C141.459 33.906 140.91 33.7535 140.411 33.4486C139.912 33.1436 139.51 32.7186 139.205 32.1734C138.9 31.6189 138.748 30.9721 138.748 30.2328C138.748 29.4843 138.9 28.8375 139.205 28.2923C139.51 27.7378 139.912 27.3081 140.411 27.0032C140.91 26.6983 141.459 26.5458 142.06 26.5458C142.559 26.5458 143.003 26.6475 143.391 26.8507C143.788 27.054 144.098 27.322 144.32 27.6547H144.403V26.7676H145.831V33.4624C145.831 34.2294 145.678 34.8809 145.373 35.4168C145.077 35.9528 144.666 36.3594 144.14 36.6366C143.613 36.9138 143.003 37.0524 142.31 37.0524ZM142.324 32.5476C142.693 32.5476 143.035 32.4598 143.349 32.2842C143.663 32.0994 143.918 31.836 144.112 31.4942C144.306 31.143 144.403 30.7226 144.403 30.2328C144.403 29.7246 144.306 29.2995 144.112 28.9576C143.918 28.6064 143.663 28.3431 143.349 28.1675C143.035 27.992 142.693 27.9042 142.324 27.9042C141.954 27.9042 141.607 27.9965 141.284 28.1814C140.969 28.3569 140.716 28.6157 140.522 28.9576C140.328 29.2995 140.231 29.7246 140.231 30.2328C140.231 30.7318 140.328 31.1569 140.522 31.508C140.716 31.8499 140.969 32.1087 141.284 32.2842C141.607 32.4598 141.954 32.5476 142.324 32.5476ZM147.596 33.8367V23.9122H149.093V33.8367H147.596ZM154.019 34.0584C153.326 34.0584 152.707 33.8968 152.162 33.5733C151.617 33.2499 151.187 32.8063 150.873 32.2427C150.568 31.679 150.415 31.0368 150.415 30.316C150.415 29.6414 150.564 29.0177 150.859 28.4447C151.155 27.8718 151.566 27.4144 152.092 27.0725C152.629 26.7213 153.243 26.5458 153.936 26.5458C154.667 26.5458 155.285 26.7029 155.793 27.0171C156.311 27.3312 156.704 27.7609 156.972 28.3061C157.24 28.8514 157.374 29.4658 157.374 30.1497C157.374 30.2513 157.369 30.3437 157.36 30.4269C157.36 30.51 157.356 30.5747 157.346 30.6209H151.885C151.959 31.3232 152.203 31.8499 152.619 32.2011C153.045 32.5522 153.525 32.7278 154.061 32.7278C154.542 32.7278 154.939 32.6216 155.253 32.409C155.568 32.1872 155.817 31.9146 156.001 31.5912L157.235 32.1872C156.93 32.7417 156.514 33.1944 155.987 33.5456C155.461 33.8875 154.805 34.0584 154.019 34.0584ZM153.95 27.821C153.451 27.821 153.026 27.9735 152.675 28.2784C152.324 28.5834 152.088 28.99 151.968 29.4982H155.89C155.872 29.2579 155.793 29.0084 155.655 28.7497C155.516 28.491 155.304 28.2738 155.017 28.0982C154.74 27.9134 154.384 27.821 153.95 27.821Z" fill="white"/>
<path d="M151.246 0.407227H22.4208C10.2625 0.407227 0.40625 10.2635 0.40625 22.4217C0.40625 34.58 10.2625 44.4362 22.4208 44.4362H151.246C163.405 44.4362 173.261 34.58 173.261 22.4217C173.261 10.2635 163.405 0.407227 151.246 0.407227Z" stroke="#747775"/>
</g>
<defs>
<linearGradient id="paint0_linear_568_798" x1="30.3985" y1="27.7587" x2="15.3129" y2="45.4338" gradientUnits="userSpaceOnUse">
<stop stop-color="#4285F4"/>
<stop offset="1" stop-color="#1B74E8"/>
</linearGradient>
<clipPath id="clip0_568_798">
<rect width="173.67" height="44.8444" fill="white"/>
</clipPath>
</defs>
</svg>
