<svg width="174" height="43" viewBox="0 0 174 43" fill="none" xmlns="http://www.w3.org/2000/svg">
<g clip-path="url(#clip0_568_132)">
<path d="M152.348 0.387695H21.3202C9.75894 0.387695 0.386719 9.75991 0.386719 21.3211C0.386719 32.8824 9.75894 42.2546 21.3202 42.2546H152.348C163.909 42.2546 173.281 32.8824 173.281 21.3211C173.281 9.75991 163.909 0.387695 152.348 0.387695Z" fill="#1F1F1F"/>
<path d="M44.1925 18.4454H16.2812V14.0684C16.2812 11.6923 18.3298 9.69141 20.7624 9.69141H39.7113C42.144 9.69141 44.1925 11.6923 44.1925 14.0684V18.4454Z" fill="#34A853"/>
<path d="M44.1925 22.4844H16.2812V17.8325C16.2812 15.3073 18.3298 13.1807 20.7624 13.1807H39.7113C42.144 13.1807 44.1925 15.3073 44.1925 17.8325V22.4844Z" fill="#FBBC04"/>
<path d="M44.1925 26.3604H16.2812V21.7085C16.2812 19.1832 18.3298 17.0566 20.7624 17.0566H39.7113C42.144 17.0566 44.1925 19.1832 44.1925 21.7085V26.3604Z" fill="#EA4335"/>
<path d="M16.2812 19.5695L33.9966 23.5713C36.0358 24.0715 38.3299 23.5713 39.9867 22.3207L44.1925 19.3193V28.6986C44.1925 31.0747 42.1534 32.9506 39.7318 32.9506H20.7419C18.3204 32.9506 16.2812 31.0747 16.2812 28.6986V19.5695Z" fill="url(#paint0_linear_568_132)"/>
<path d="M54.3125 16.6692V9.45263H56.6206C57.3799 9.45263 58.0317 9.60715 58.5759 9.91627C59.127 10.2186 59.5503 10.642 59.8459 11.1862C60.1483 11.7305 60.2995 12.3554 60.2995 13.0609C60.2995 13.7732 60.1483 14.4015 59.8459 14.9457C59.5503 15.4832 59.127 15.9066 58.5759 16.2157C58.0317 16.5181 57.3799 16.6692 56.6206 16.6692H54.3125ZM55.4212 15.621H56.5904C57.4101 15.621 58.0451 15.3925 58.4953 14.9356C58.9522 14.4787 59.1807 13.8538 59.1807 13.0609C59.1807 12.268 58.9522 11.6431 58.4953 11.1862C58.0451 10.7293 57.4101 10.5009 56.5904 10.5009H55.4212V15.621ZM63.6566 16.8305C63.1257 16.8305 62.6587 16.7096 62.2556 16.4677C61.8524 16.2258 61.5366 15.8999 61.3081 15.49C61.0797 15.0801 60.9655 14.6164 60.9655 14.0991C60.9655 13.5884 61.0797 13.1282 61.3081 12.7182C61.5366 12.3017 61.8524 11.9724 62.2556 11.7305C62.6587 11.4886 63.1257 11.3677 63.6566 11.3677C64.1807 11.3677 64.6443 11.4886 65.0475 11.7305C65.4506 11.9724 65.7664 12.3017 65.9949 12.7182C66.2234 13.1282 66.3376 13.5884 66.3376 14.0991C66.3376 14.6164 66.2234 15.0801 65.9949 15.49C65.7664 15.8999 65.4506 16.2258 65.0475 16.4677C64.6443 16.7096 64.1807 16.8305 63.6566 16.8305ZM63.6566 15.8327C63.9388 15.8327 64.2008 15.7655 64.4427 15.6311C64.6846 15.49 64.8795 15.2917 65.0273 15.0364C65.1818 14.7744 65.2591 14.4619 65.2591 14.0991C65.2591 13.7362 65.1818 13.4271 65.0273 13.1718C64.8795 12.9097 64.6846 12.7115 64.4427 12.5771C64.2008 12.436 63.9388 12.3655 63.6566 12.3655C63.3744 12.3655 63.109 12.436 62.8603 12.5771C62.6184 12.7115 62.4202 12.9097 62.2657 13.1718C62.1178 13.4271 62.0439 13.7362 62.0439 14.0991C62.0439 14.4619 62.1178 14.7744 62.2657 15.0364C62.4202 15.2917 62.6184 15.49 62.8603 15.6311C63.109 15.7655 63.3744 15.8327 63.6566 15.8327ZM69.5374 16.8305C69.0738 16.8305 68.6538 16.7163 68.2775 16.4878C67.9079 16.2527 67.6123 15.9301 67.3905 15.5202C67.1756 15.1036 67.068 14.6299 67.068 14.0991C67.068 13.5682 67.1756 13.0979 67.3905 12.688C67.6123 12.2781 67.9079 11.9556 68.2775 11.7204C68.6538 11.4853 69.0738 11.3677 69.5374 11.3677C69.9338 11.3677 70.2732 11.455 70.5554 11.6297C70.8443 11.8044 71.056 12.0026 71.1904 12.2244H71.2508L71.1904 11.5088V9.45263H72.2688V16.6692H71.2508V15.9839H71.1904C71.056 16.2056 70.8443 16.4038 70.5554 16.5785C70.2732 16.7465 69.9338 16.8305 69.5374 16.8305ZM69.6987 15.8327C69.9675 15.8327 70.2194 15.7621 70.4546 15.621C70.6965 15.4799 70.888 15.2817 71.0291 15.0264C71.1769 14.7643 71.2508 14.4552 71.2508 14.0991C71.2508 13.743 71.1769 13.4372 71.0291 13.1819C70.888 12.9198 70.6965 12.7182 70.4546 12.5771C70.2194 12.436 69.9675 12.3655 69.6987 12.3655C69.4299 12.3655 69.1779 12.436 68.9427 12.5771C68.7076 12.7182 68.5161 12.9198 68.3682 13.1819C68.2204 13.4372 68.1465 13.743 68.1465 14.0991C68.1465 14.4552 68.2204 14.7643 68.3682 15.0264C68.5161 15.2817 68.7076 15.4799 68.9427 15.621C69.1779 15.7621 69.4299 15.8327 69.6987 15.8327ZM75.1144 16.8305C74.7449 16.8305 74.4156 16.7599 74.1267 16.6188C73.8377 16.471 73.6127 16.2661 73.4514 16.004C73.2901 15.742 73.2095 15.4429 73.2095 15.107C73.2095 14.7441 73.3035 14.435 73.4917 14.1797C73.6865 13.9177 73.9453 13.7194 74.2678 13.585C74.5903 13.4507 74.9464 13.3835 75.3362 13.3835C75.6587 13.3835 75.9409 13.4137 76.1828 13.4742C76.4314 13.5347 76.6196 13.5985 76.7473 13.6657V13.3935C76.7473 13.0576 76.6263 12.7888 76.3844 12.5872C76.1425 12.3856 75.8301 12.2848 75.4471 12.2848C75.185 12.2848 74.9364 12.3453 74.7012 12.4663C74.466 12.5805 74.2779 12.7384 74.1368 12.94L73.3909 12.3655C73.6127 12.0564 73.905 11.8145 74.2678 11.6398C74.6373 11.4584 75.0405 11.3677 75.4773 11.3677C76.2231 11.3677 76.7976 11.5524 77.2008 11.922C77.6037 12.2848 77.8052 12.7955 77.8052 13.454V16.6692H76.7473V16.0343H76.6868C76.5523 16.2426 76.3508 16.4273 76.082 16.5886C75.8132 16.7499 75.4907 16.8305 75.1144 16.8305ZM75.3059 15.9435C75.5882 15.9435 75.8367 15.8763 76.0518 15.742C76.2668 15.6076 76.4348 15.4328 76.5557 15.2179C76.6834 14.9961 76.7473 14.7576 76.7473 14.5022C76.5927 14.4149 76.4112 14.3443 76.203 14.2906C75.9947 14.2301 75.7729 14.1999 75.5378 14.1999C75.0943 14.1999 74.7784 14.2906 74.5903 14.472C74.4022 14.6467 74.3081 14.8618 74.3081 15.1171C74.3081 15.359 74.3988 15.5572 74.5803 15.7117C74.7617 15.8662 75.0036 15.9435 75.3059 15.9435ZM79.6288 10.773C79.4272 10.773 79.2527 10.7024 79.1047 10.5613C78.9636 10.4135 78.893 10.2388 78.893 10.0372C78.893 9.83563 78.9636 9.66429 79.1047 9.52318C79.2527 9.38208 79.4272 9.31152 79.6288 9.31152C79.8304 9.31152 80.0017 9.38208 80.1428 9.52318C80.2909 9.66429 80.3645 9.83563 80.3645 10.0372C80.3645 10.2388 80.2909 10.4135 80.1428 10.5613C80.0017 10.7024 79.8304 10.773 79.6288 10.773ZM78.6511 18.9471C78.4425 18.9471 78.2549 18.9236 78.0867 18.8766V17.8283C78.1541 17.8686 78.2309 17.8989 78.3185 17.919C78.3991 17.9459 78.4798 17.9594 78.5604 17.9594C78.755 17.9594 78.8899 17.8989 78.9636 17.7779C79.0442 17.6637 79.0845 17.4957 79.0845 17.274V11.5289H80.173V17.2841C80.173 17.8754 80.0288 18.2987 79.7396 18.554C79.4505 18.8161 79.0876 18.9471 78.6511 18.9471ZM82.0679 15.1775V12.4763H81.1709V11.5289H82.0679V10.0775H83.1564V11.5289H84.4163V12.4763H83.1564V14.9457C83.1564 15.201 83.2068 15.3959 83.3076 15.5303C83.4154 15.6647 83.5929 15.7319 83.8418 15.7319C83.9698 15.7319 84.0767 15.7151 84.1644 15.6815C84.2582 15.6479 84.3528 15.6009 84.4466 15.5404V16.5987C84.3326 16.6457 84.2117 16.6827 84.0837 16.7096C83.9558 16.7365 83.8046 16.7499 83.6302 16.7499C83.1533 16.7499 82.7734 16.6121 82.4912 16.3366C82.209 16.0544 82.0679 15.6681 82.0679 15.1775ZM87.6122 16.8305C87.1082 16.8305 86.6585 16.7129 86.2616 16.4777C85.8654 16.2426 85.5529 15.9201 85.3242 15.5101C85.1025 15.1002 84.9916 14.6333 84.9916 14.1092C84.9916 13.6186 85.0994 13.1651 85.3141 12.7485C85.5297 12.3319 85.8282 11.9993 86.2112 11.7507C86.6012 11.4953 87.0477 11.3677 87.5517 11.3677C88.0828 11.3677 88.5332 11.4819 88.9023 11.7103C89.2791 11.9388 89.5644 12.2513 89.759 12.6477C89.9544 13.0441 90.0513 13.491 90.0513 13.9882C90.0513 14.0621 90.0482 14.1293 90.0412 14.1898C90.0412 14.2503 90.0381 14.2973 90.0311 14.3309H86.06C86.1143 14.8416 86.2918 15.2246 86.5942 15.4799C86.9035 15.7352 87.2532 15.8629 87.6424 15.8629C87.9921 15.8629 88.2813 15.7856 88.5092 15.6311C88.7379 15.4698 88.9193 15.2716 89.0535 15.0364L89.9505 15.4698C89.7288 15.873 89.4264 16.2023 89.0434 16.4576C88.6604 16.7062 88.1836 16.8305 87.6122 16.8305ZM87.5618 12.2949C87.1989 12.2949 86.8904 12.4058 86.6345 12.6275C86.3794 12.8493 86.2081 13.1449 86.1205 13.5145H88.9728C88.9597 13.3398 88.9023 13.1584 88.8015 12.9702C88.7007 12.7821 88.5464 12.6242 88.3379 12.4965C88.1363 12.3621 87.8781 12.2949 87.5618 12.2949ZM95.2785 16.8305C94.6466 16.8305 94.1698 16.6423 93.8472 16.2661C93.5317 15.8831 93.3735 15.3657 93.3735 14.7139V11.5289H94.4621V14.5627C94.4621 14.9994 94.5628 15.322 94.7644 15.5303C94.973 15.7319 95.2312 15.8327 95.5405 15.8327C95.8157 15.8327 96.0545 15.7621 96.2561 15.621C96.4647 15.4732 96.6221 15.2851 96.7298 15.0566C96.8438 14.8214 96.9012 14.566 96.9012 14.2906V11.5289H97.9796V16.6692H96.9617V15.9738H96.9012C96.7531 16.2157 96.5314 16.4206 96.236 16.5886C95.9468 16.7499 95.6281 16.8305 95.2785 16.8305Z" fill="white"/>
<path d="M59.0325 32.3862C58.3558 32.3862 57.7189 32.2632 57.1213 32.0172C56.5326 31.7711 56.0098 31.4285 55.5529 30.9891C55.096 30.541 54.7357 30.0182 54.4721 29.4206C54.2172 28.8143 54.0898 28.1597 54.0898 27.4568C54.0898 26.7538 54.2172 26.1036 54.4721 25.5061C54.7357 24.8998 55.0915 24.377 55.5397 23.9376C55.9966 23.4895 56.5238 23.1424 57.1213 22.8964C57.7189 22.6504 58.3558 22.5273 59.0325 22.5273C59.753 22.5273 60.4164 22.6547 61.0227 22.9096C61.6377 23.1644 62.1518 23.5203 62.5648 23.9772L61.5631 24.9657C61.2555 24.623 60.8865 24.3594 60.4559 24.1749C60.0342 23.9903 59.5597 23.8981 59.0325 23.8981C58.4086 23.8981 57.8331 24.0475 57.3058 24.3462C56.7786 24.6362 56.3524 25.0492 56.0274 25.5852C55.711 26.1124 55.5529 26.7363 55.5529 27.4568C55.5529 28.1773 55.7154 28.8056 56.0405 29.3416C56.3656 29.8688 56.7918 30.2818 57.319 30.5805C57.8462 30.8705 58.4217 31.0155 59.0456 31.0155C59.6168 31.0155 60.1352 30.91 60.6009 30.6991C61.0667 30.4795 61.44 30.1719 61.7212 29.7765C62.0112 29.3811 62.187 28.9066 62.2485 28.353H59.0193V27.0745H63.606C63.6588 27.3118 63.6851 27.5622 63.6851 27.8258V27.839C63.6851 28.7529 63.483 29.5524 63.0788 30.2378C62.6834 30.9144 62.1343 31.4416 61.4313 31.8194C60.7283 32.1973 59.9287 32.3862 59.0325 32.3862ZM67.9291 32.3862C67.2349 32.3862 66.6242 32.228 66.097 31.9117C65.5698 31.5954 65.1568 31.1692 64.8581 30.6332C64.5593 30.0972 64.4099 29.491 64.4099 28.8143C64.4099 28.1466 64.5593 27.5446 64.8581 27.0086C65.1568 26.4638 65.5698 26.0333 66.097 25.717C66.6242 25.4006 67.2349 25.2425 67.9291 25.2425C68.6145 25.2425 69.2208 25.4006 69.748 25.717C70.2752 26.0333 70.6881 26.4638 70.9869 27.0086C71.2857 27.5446 71.4351 28.1466 71.4351 28.8143C71.4351 29.491 71.2857 30.0972 70.9869 30.6332C70.6881 31.1692 70.2752 31.5954 69.748 31.9117C69.2208 32.228 68.6145 32.3862 67.9291 32.3862ZM67.9291 31.0814C68.2981 31.0814 68.6408 30.9935 68.9572 30.8177C69.2735 30.6332 69.5283 30.374 69.7216 30.0401C69.9237 29.6974 70.0248 29.2888 70.0248 28.8143C70.0248 28.3398 69.9237 27.9357 69.7216 27.6018C69.5283 27.2591 69.2735 26.9999 68.9572 26.8241C68.6408 26.6396 68.2981 26.5473 67.9291 26.5473C67.56 26.5473 67.2129 26.6396 66.8878 26.8241C66.5715 26.9999 66.3123 27.2591 66.1102 27.6018C65.9168 27.9357 65.8202 28.3398 65.8202 28.8143C65.8202 29.2888 65.9168 29.6974 66.1102 30.0401C66.3123 30.374 66.5715 30.6332 66.8878 30.8177C67.2129 30.9935 67.56 31.0814 67.9291 31.0814ZM75.9093 32.3862C75.2152 32.3862 74.6045 32.228 74.0772 31.9117C73.55 31.5954 73.1371 31.1692 72.8383 30.6332C72.5396 30.0972 72.3902 29.491 72.3902 28.8143C72.3902 28.1466 72.5396 27.5446 72.8383 27.0086C73.1371 26.4638 73.55 26.0333 74.0772 25.717C74.6045 25.4006 75.2152 25.2425 75.9093 25.2425C76.5947 25.2425 77.201 25.4006 77.7283 25.717C78.2556 26.0333 78.6688 26.4638 78.9673 27.0086C79.2658 27.5446 79.4154 28.1466 79.4154 28.8143C79.4154 29.491 79.2658 30.0972 78.9673 30.6332C78.6688 31.1692 78.2556 31.5954 77.7283 31.9117C77.201 32.228 76.5947 32.3862 75.9093 32.3862ZM75.9093 31.0814C76.2784 31.0814 76.621 30.9935 76.9374 30.8177C77.2537 30.6332 77.5085 30.374 77.702 30.0401C77.9043 29.6974 78.0051 29.2888 78.0051 28.8143C78.0051 28.3398 77.9043 27.9357 77.702 27.6018C77.5085 27.2591 77.2537 26.9999 76.9374 26.8241C76.621 26.6396 76.2784 26.5473 75.9093 26.5473C75.5403 26.5473 75.1932 26.6396 74.8681 26.8241C74.5517 26.9999 74.2925 27.2591 74.0904 27.6018C73.8971 27.9357 73.8005 28.3398 73.8005 28.8143C73.8005 29.2888 73.8971 29.6974 74.0904 30.0401C74.2925 30.374 74.5517 30.6332 74.8681 30.8177C75.1932 30.9935 75.5403 31.0814 75.9093 31.0814ZM83.758 35.2332C83.1687 35.2332 82.6593 35.1365 82.229 34.9432C81.8073 34.7587 81.4646 34.517 81.201 34.2183C80.9374 33.9283 80.7482 33.6296 80.6342 33.322L81.9523 32.7684C82.0926 33.1199 82.3166 33.4055 82.6244 33.6252C82.9408 33.8536 83.3183 33.9678 83.758 33.9678C84.3728 33.9678 84.8558 33.7833 85.2078 33.4143C85.5675 33.0452 85.7482 32.5224 85.7482 31.8458V31.2H85.6691C85.4582 31.5163 85.1636 31.7711 84.786 31.9644C84.417 32.149 83.9952 32.2412 83.5207 32.2412C82.9493 32.2412 82.4267 32.0962 81.9523 31.8063C81.4778 31.5163 81.0955 31.1121 80.8056 30.5937C80.5156 30.0665 80.3706 29.4514 80.3706 28.7484C80.3706 28.0367 80.5156 27.4216 80.8056 26.9032C81.0955 26.376 81.4778 25.9674 81.9523 25.6774C82.4267 25.3875 82.9493 25.2425 83.5207 25.2425C83.9952 25.2425 84.417 25.3392 84.786 25.5324C85.1636 25.7257 85.4582 25.9806 85.6691 26.2969H85.7482V25.4534H87.1058V31.8194C87.1058 32.5488 86.9608 33.1683 86.6708 33.6779C86.3894 34.1875 85.9986 34.5741 85.4978 34.8377C84.9969 35.1013 84.417 35.2332 83.758 35.2332ZM83.7711 30.9495C84.1223 30.9495 84.4472 30.866 84.7465 30.6991C85.045 30.5234 85.2869 30.2729 85.4714 29.9478C85.6559 29.6139 85.7482 29.2142 85.7482 28.7484C85.7482 28.2652 85.6559 27.8609 85.4714 27.5358C85.2869 27.2019 85.045 26.9515 84.7465 26.7846C84.4472 26.6176 84.1223 26.5341 83.7711 26.5341C83.4191 26.5341 83.0896 26.622 82.7826 26.7978C82.4833 26.9647 82.2422 27.2108 82.0577 27.5358C81.8732 27.8609 81.7809 28.2652 81.7809 28.7484C81.7809 29.2229 81.8732 29.6271 82.0577 29.961C82.2422 30.2861 82.4833 30.5322 82.7826 30.6991C83.0896 30.866 83.4191 30.9495 83.7711 30.9495ZM88.7843 32.1753V22.7382H90.2078V32.1753H88.7843ZM94.8922 32.3862C94.2332 32.3862 93.6447 32.2325 93.1261 31.9249C92.6081 31.6173 92.1996 31.1956 91.9003 30.6596C91.6103 30.1236 91.4653 29.5129 91.4653 28.8275C91.4653 28.1861 91.6064 27.593 91.8871 27.0482C92.1685 26.5034 92.5593 26.0684 93.0602 25.7433C93.5703 25.4094 94.1541 25.2425 94.8131 25.2425C95.5078 25.2425 96.0963 25.3919 96.5793 25.6906C97.0716 25.9893 97.4453 26.3979 97.6996 26.9164C97.9547 27.4348 98.0818 28.0191 98.0818 28.6694C98.0818 28.766 98.078 28.8539 98.0687 28.933C98.0687 29.012 98.0648 29.0735 98.0555 29.1175H92.8624C92.933 29.7853 93.1656 30.2861 93.561 30.62C93.9657 30.954 94.4224 31.1209 94.9318 31.1209C95.3892 31.1209 95.7668 31.0199 96.0653 30.8177C96.3645 30.6069 96.6018 30.3477 96.777 30.0401L97.95 30.6069C97.6601 31.1341 97.2647 31.5646 96.7638 31.8985C96.263 32.2236 95.6396 32.3862 94.8922 32.3862ZM94.8263 26.4551C94.3518 26.4551 93.9479 26.6 93.6137 26.89C93.2803 27.18 93.0563 27.5666 92.9415 28.0499H96.6716C96.6545 27.8214 96.5793 27.5842 96.4475 27.3381C96.3157 27.0921 96.1141 26.8856 95.8412 26.7187C95.5776 26.5429 95.2396 26.4551 94.8263 26.4551ZM102.716 32.1753V22.7382H104.429L108.7 29.6711H108.779L108.7 27.8522V22.7382H110.136V32.1753H108.634L104.153 24.8866H104.073L104.153 26.7055V32.1753H102.716ZM115.064 32.3862C114.37 32.3862 113.759 32.228 113.232 31.9117C112.705 31.5954 112.292 31.1692 111.993 30.6332C111.694 30.0972 111.545 29.491 111.545 28.8143C111.545 28.1466 111.694 27.5446 111.993 27.0086C112.292 26.4638 112.705 26.0333 113.232 25.717C113.759 25.4006 114.37 25.2425 115.064 25.2425C115.75 25.2425 116.356 25.4006 116.883 25.717C117.41 26.0333 117.823 26.4638 118.122 27.0086C118.421 27.5446 118.57 28.1466 118.57 28.8143C118.57 29.491 118.421 30.0972 118.122 30.6332C117.823 31.1692 117.41 31.5954 116.883 31.9117C116.356 32.228 115.75 32.3862 115.064 32.3862ZM115.064 31.0814C115.433 31.0814 115.776 30.9935 116.092 30.8177C116.409 30.6332 116.663 30.374 116.857 30.0401C117.058 29.6974 117.16 29.2888 117.16 28.8143C117.16 28.3398 117.058 27.9357 116.857 27.6018C116.663 27.2591 116.409 26.9999 116.092 26.8241C115.776 26.6396 115.433 26.5473 115.064 26.5473C114.695 26.5473 114.348 26.6396 114.023 26.8241C113.707 26.9999 113.447 27.2591 113.245 27.6018C113.052 27.9357 112.955 28.3398 112.955 28.8143C112.955 29.2888 113.052 29.6974 113.245 30.0401C113.447 30.374 113.707 30.6332 114.023 30.8177C114.348 30.9935 114.695 31.0814 115.064 31.0814ZM121.731 32.1753L118.95 25.4534H120.532L122.417 30.3433H122.482L124.407 25.4534H125.962L123.155 32.1753H121.731ZM129.801 32.3862C129.124 32.3862 128.527 32.2325 128.008 31.9249C127.489 31.6173 127.081 31.1956 126.782 30.6596C126.484 30.1148 126.334 29.4997 126.334 28.8143C126.334 28.129 126.484 27.5182 126.782 26.9823C127.081 26.4375 127.489 26.0114 128.008 25.7038C128.527 25.3962 129.124 25.2425 129.801 25.2425C130.547 25.2425 131.176 25.4094 131.685 25.7433C132.204 26.0773 132.573 26.5297 132.793 27.1009L131.501 27.6281C131.193 26.9076 130.618 26.5473 129.774 26.5473C129.405 26.5473 129.067 26.644 128.759 26.8373C128.452 27.0218 128.206 27.2854 128.021 27.6281C127.837 27.962 127.745 28.3574 127.745 28.8143C127.745 29.2712 127.837 29.6711 128.021 30.0137C128.206 30.3564 128.452 30.62 128.759 30.8046C129.067 30.9891 129.405 31.0814 129.774 31.0814C130.205 31.0814 130.57 30.9847 130.868 30.7914C131.167 30.5893 131.4 30.3169 131.567 29.9742L132.832 30.5278C132.595 31.0638 132.217 31.5075 131.699 31.859C131.18 32.2104 130.547 32.3862 129.801 32.3862ZM129.181 24.1617L127.771 22.5669V22.4746H129.128L129.735 23.2918H129.867L130.486 22.4746H131.857V22.5669L130.433 24.1617H129.181ZM136.097 32.3862C135.614 32.3862 135.183 32.2939 134.805 32.1094C134.428 31.9161 134.133 31.6481 133.922 31.3054C133.711 30.9627 133.606 30.5717 133.606 30.1324C133.606 29.6579 133.729 29.2537 133.975 28.9198C134.23 28.5771 134.568 28.3179 134.99 28.1421C135.412 27.9664 135.878 27.8785 136.387 27.8785C136.809 27.8785 137.178 27.9181 137.494 27.9972C137.819 28.0762 138.065 28.1597 138.232 28.2476V27.8917C138.232 27.4523 138.074 27.1009 137.758 26.8373C137.441 26.5737 137.033 26.4419 136.532 26.4419C136.189 26.4419 135.864 26.521 135.557 26.6791C135.249 26.8285 135.003 27.035 134.818 27.2986L133.843 26.5473C134.133 26.1432 134.515 25.8268 134.99 25.5983C135.473 25.3611 136 25.2425 136.571 25.2425C137.547 25.2425 138.298 25.4841 138.825 25.9674C139.353 26.4419 139.616 27.1097 139.616 27.9708V32.1753H138.232V31.345H138.153C137.977 31.6173 137.713 31.859 137.362 32.0699C137.011 32.2808 136.589 32.3862 136.097 32.3862ZM136.347 31.2263C136.716 31.2263 137.041 31.1385 137.323 30.9627C137.604 30.787 137.824 30.5586 137.982 30.2774C138.148 29.9874 138.232 29.6755 138.232 29.3416C138.03 29.2273 137.793 29.1351 137.52 29.0648C137.248 28.9857 136.958 28.9461 136.651 28.9461C136.071 28.9461 135.657 29.0648 135.412 29.302C135.166 29.5305 135.043 29.8116 135.043 30.1455C135.043 30.4619 135.161 30.7211 135.398 30.9232C135.636 31.1253 135.952 31.2263 136.347 31.2263ZM141.183 32.1753V25.4534H142.527V26.376H142.606C142.8 26.0509 143.086 25.7829 143.463 25.572C143.85 25.3523 144.272 25.2425 144.729 25.2425C145.555 25.2425 146.174 25.4885 146.587 25.9806C147 26.4727 147.206 27.1228 147.206 27.9313V32.1753H145.796V28.1158C145.796 27.571 145.66 27.1756 145.388 26.9296C145.115 26.6747 144.76 26.5473 144.32 26.5473C143.977 26.5473 143.679 26.644 143.424 26.8373C143.169 27.0218 142.967 27.2678 142.817 27.5754C142.677 27.883 142.606 28.2125 142.606 28.5639V32.1753H141.183ZM149.646 24.4648C149.383 24.4648 149.154 24.3726 148.961 24.188C148.776 23.9948 148.684 23.7663 148.684 23.5027C148.684 23.2391 148.776 23.015 148.961 22.8305C149.154 22.646 149.383 22.5537 149.646 22.5537C149.91 22.5537 150.134 22.646 150.319 22.8305C150.512 23.015 150.608 23.2391 150.608 23.5027C150.608 23.7663 150.512 23.9948 150.319 24.188C150.134 24.3726 149.91 24.4648 149.646 24.4648ZM148.935 32.1753V25.4534H150.358V32.1753H148.935ZM152.124 32.1753V22.7382H153.548V28.3003L156.395 25.4534H158.161V25.5324L155.564 28.1026L158.253 32.0962V32.1753H156.566L154.563 29.0911L153.548 30.0928V32.1753H152.124Z" fill="white"/>
<path d="M152.348 0.387695H21.3202C9.75894 0.387695 0.386719 9.75991 0.386719 21.3211C0.386719 32.8824 9.75894 42.2546 21.3202 42.2546H152.348C163.909 42.2546 173.281 32.8824 173.281 21.3211C173.281 9.75991 163.909 0.387695 152.348 0.387695Z" stroke="#747775"/>
</g>
<defs>
<linearGradient id="paint0_linear_568_132" x1="28.9067" y1="26.3952" x2="14.5618" y2="43.2024" gradientUnits="userSpaceOnUse">
<stop stop-color="#4285F4"/>
<stop offset="1" stop-color="#1B74E8"/>
</linearGradient>
<clipPath id="clip0_568_132">
<rect width="173.67" height="42.6422" fill="white"/>
</clipPath>
</defs>
</svg>
