<svg width="174" height="29" viewBox="0 0 174 29" fill="none" xmlns="http://www.w3.org/2000/svg">
<g clip-path="url(#clip0_568_664)">
<path d="M159.339 0.286133H14.3278C6.57225 0.286133 0.285156 6.57323 0.285156 14.3288C0.285156 22.0843 6.57225 28.3714 14.3278 28.3714H159.339C167.095 28.3714 173.382 22.0843 173.382 14.3288C173.382 6.57323 167.095 0.286133 159.339 0.286133Z" fill="#1F1F1F"/>
<path d="M29.2302 12.6096H12.0352V9.74377C12.0352 8.18802 13.2972 6.87793 14.7958 6.87793H26.4695C27.9682 6.87793 29.2302 8.18802 29.2302 9.74377V12.6096Z" fill="#34A853"/>
<path d="M29.2302 14.9329H12.0352V12.067C12.0352 10.5113 13.2972 9.20117 14.7958 9.20117H26.4695C27.9682 9.20117 29.2302 10.5113 29.2302 12.067V14.9329Z" fill="#FBBC04"/>
<path d="M29.2302 17.3362H12.0352V14.4703C12.0352 12.9146 13.2972 11.6045 14.7958 11.6045H26.4695C27.9682 11.6045 29.2302 12.9146 29.2302 14.4703V17.3362Z" fill="#EA4335"/>
<path d="M12.0352 13.3404L22.9489 15.8644C24.2052 16.1799 25.6184 15.8644 26.6392 15.0757L29.2302 13.1826V19.0983C29.2302 20.597 27.9739 21.7801 26.4822 21.7801H14.7832C13.2914 21.7801 12.0352 20.597 12.0352 19.0983V13.3404Z" fill="url(#paint0_linear_568_664)"/>
<path d="M36.5352 20.0833V17.1487H37.2573C37.4331 16.8583 37.5745 16.4838 37.6815 16.0253C37.7961 15.5592 37.8764 15.0471 37.9222 14.4892C37.9757 13.9314 38.0025 13.3697 38.0025 12.8041V10.1331H43.2642V17.1487H44.2271V20.0833H43.0005V18.3409H37.7617V20.0833H36.5352ZM38.633 17.1487H42.0032V11.3253H39.229V12.9875C39.229 13.8205 39.1756 14.5886 39.0686 15.2917C38.9692 15.9948 38.824 16.5909 38.633 17.0799V17.1487ZM48.0028 18.5243C47.3991 18.5243 46.8679 18.3868 46.4094 18.1116C45.9509 17.8365 45.5917 17.4659 45.3319 16.9997C45.072 16.5335 44.9421 16.0062 44.9421 15.4178C44.9421 14.837 45.072 14.3134 45.3319 13.8473C45.5917 13.3734 45.9509 12.999 46.4094 12.7239C46.8679 12.4487 47.3991 12.3112 48.0028 12.3112C48.5989 12.3112 49.1262 12.4487 49.5848 12.7239C50.0433 12.999 50.4025 13.3734 50.6623 13.8473C50.9221 14.3134 51.0521 14.837 51.0521 15.4178C51.0521 16.0062 50.9221 16.5335 50.6623 16.9997C50.4025 17.4659 50.0433 17.8365 49.5848 18.1116C49.1262 18.3868 48.5989 18.5243 48.0028 18.5243ZM48.0028 17.3895C48.3238 17.3895 48.6218 17.3131 48.897 17.1602C49.1721 16.9997 49.3937 16.7743 49.5618 16.4838C49.7376 16.1858 49.8255 15.8304 49.8255 15.4178C49.8255 15.0051 49.7376 14.6536 49.5618 14.3631C49.3937 14.0651 49.1721 13.8397 48.897 13.6868C48.6218 13.5263 48.3238 13.4461 48.0028 13.4461C47.6818 13.4461 47.38 13.5263 47.0972 13.6868C46.8221 13.8397 46.5967 14.0651 46.4209 14.3631C46.2528 14.6536 46.1687 15.0051 46.1687 15.4178C46.1687 15.8304 46.2528 16.1858 46.4209 16.4838C46.5967 16.7743 46.8221 16.9997 47.0972 17.1602C47.38 17.3131 47.6818 17.3895 48.0028 17.3895ZM51.4878 20.0833V17.2634H52.1297C52.252 17.1182 52.359 16.9118 52.4507 16.6443C52.5501 16.3692 52.6265 16.0597 52.68 15.7158C52.7411 15.3719 52.7717 15.0242 52.7717 14.6726V12.4946H57.1507V17.2634H57.9992V20.0833H56.8641V18.3409H52.6341V20.0833H51.4878ZM53.4595 17.2634H55.9241V13.5722H53.941V14.7758C53.941 15.3107 53.9027 15.7731 53.8263 16.1629C53.7499 16.545 53.6276 16.8889 53.4595 17.1946V17.2634ZM60.9338 18.5243C60.5131 18.5243 60.1388 18.4441 59.8104 18.2836C59.4814 18.1155 59.2257 17.8824 59.0423 17.5843C58.8589 17.2863 58.7672 16.9462 58.7672 16.5641C58.7672 16.1514 58.8738 15.7999 59.0882 15.5095C59.3094 15.2114 59.604 14.986 59.9709 14.8331C60.3377 14.6803 60.7423 14.6039 61.186 14.6039C61.5528 14.6039 61.8738 14.6382 62.1489 14.707C62.4315 14.7758 62.6453 14.8484 62.7908 14.9248V14.6153C62.7908 14.2332 62.6533 13.9275 62.3782 13.6983C62.1031 13.469 61.7477 13.3543 61.3121 13.3543C61.014 13.3543 60.7309 13.4231 60.4638 13.5607C60.1961 13.6906 59.9823 13.8702 59.8218 14.0995L58.9735 13.4461C59.2257 13.0945 59.5582 12.8194 59.9709 12.6207C60.391 12.4144 60.8495 12.3112 61.3465 12.3112C62.1948 12.3112 62.8482 12.5214 63.3067 12.9417C63.7652 13.3543 63.9945 13.9351 63.9945 14.6841V18.3409H62.7908V17.6187H62.7221C62.569 17.8556 62.3398 18.0658 62.0343 18.2492C61.7282 18.4326 61.3614 18.5243 60.9338 18.5243ZM61.1516 17.5156C61.4726 17.5156 61.7551 17.4391 61.9999 17.2863C62.244 17.1334 62.4355 16.9348 62.573 16.6902C62.7181 16.438 62.7908 16.1667 62.7908 15.8763C62.6149 15.777 62.4085 15.6967 62.1718 15.6356C61.9345 15.5668 61.6823 15.5324 61.4152 15.5324C60.9109 15.5324 60.5515 15.6356 60.3377 15.8419C60.1233 16.0406 60.0167 16.2851 60.0167 16.5756C60.0167 16.8507 60.1199 17.0761 60.3262 17.2519C60.5326 17.4277 60.8077 17.5156 61.1516 17.5156ZM66.0682 11.6348C65.839 11.6348 65.6401 11.5546 65.4721 11.3941C65.3116 11.226 65.2314 11.0273 65.2314 10.798C65.2314 10.5688 65.3116 10.3739 65.4721 10.2134C65.6401 10.0529 65.839 9.97266 66.0682 9.97266C66.2975 9.97266 66.4924 10.0529 66.6529 10.2134C66.8208 10.3739 66.9051 10.5688 66.9051 10.798C66.9051 11.0273 66.8208 11.226 66.6529 11.3941C66.4924 11.5546 66.2975 11.6348 66.0682 11.6348ZM64.9563 20.9316C64.719 20.9316 64.5052 20.9049 64.3143 20.8514V19.6592C64.3906 19.7051 64.4783 19.7394 64.578 19.7624C64.6697 19.7929 64.7614 19.8082 64.8531 19.8082C65.0744 19.8082 65.2274 19.7394 65.3116 19.6019C65.4034 19.4719 65.4492 19.2809 65.4492 19.0287V12.4946H66.6872V19.0402C66.6872 19.7127 66.5227 20.1941 66.1943 20.4846C65.8653 20.7826 65.4526 20.9316 64.9563 20.9316ZM70.8989 18.3409V12.4946H73.7991C74.143 12.4946 74.4485 12.5634 74.7162 12.7009C74.9913 12.8309 75.2051 13.0104 75.3581 13.2397C75.5186 13.469 75.5989 13.725 75.5989 14.0078C75.5989 14.3134 75.5301 14.5771 75.3925 14.7987C75.2624 15.0204 75.0905 15.1846 74.8767 15.2917V15.3604C75.1667 15.4751 75.396 15.647 75.5645 15.8763C75.7399 16.1056 75.8281 16.3692 75.8281 16.6673C75.8281 17.0112 75.7364 17.3092 75.553 17.5614C75.377 17.8136 75.1478 18.0085 74.8652 18.146C74.5821 18.276 74.2806 18.3409 73.9596 18.3409H70.8989ZM72.1369 13.5034V14.879H73.6501C73.8564 14.879 74.0284 14.814 74.1659 14.6841C74.3035 14.5542 74.3723 14.3899 74.3723 14.1912C74.3723 13.9848 74.3035 13.8205 74.1659 13.6983C74.0284 13.5683 73.8564 13.5034 73.6501 13.5034H72.1369ZM72.1369 17.3092H73.8335C74.0547 17.3092 74.2382 17.2404 74.3838 17.1029C74.5362 16.9577 74.613 16.7743 74.613 16.5526C74.613 16.3387 74.5362 16.159 74.3838 16.0139C74.2382 15.8687 74.0547 15.796 73.8335 15.796H72.1369V17.3092ZM79.7285 18.5243C79.125 18.5243 78.5937 18.3868 78.1351 18.1116C77.6766 17.8365 77.3172 17.4659 77.0576 16.9997C76.7979 16.5335 76.6678 16.0062 76.6678 15.4178C76.6678 14.837 76.7979 14.3134 77.0576 13.8473C77.3172 13.3734 77.6766 12.999 78.1351 12.7239C78.5937 12.4487 79.125 12.3112 79.7285 12.3112C80.3246 12.3112 80.852 12.4487 81.3105 12.7239C81.769 12.999 82.1284 13.3734 82.388 13.8473C82.6477 14.3134 82.7778 14.837 82.7778 15.4178C82.7778 16.0062 82.6477 16.5335 82.388 16.9997C82.1284 17.4659 81.769 17.8365 81.3105 18.1116C80.852 18.3868 80.3246 18.5243 79.7285 18.5243ZM79.7285 17.3895C80.0495 17.3895 80.3476 17.3131 80.6227 17.1602C80.8978 16.9997 81.1196 16.7743 81.2876 16.4838C81.4635 16.1858 81.5512 15.8304 81.5512 15.4178C81.5512 15.0051 81.4635 14.6536 81.2876 14.3631C81.1196 14.0651 80.8978 13.8397 80.6227 13.6868C80.3476 13.5263 80.0495 13.4461 79.7285 13.4461C79.4076 13.4461 79.1055 13.5263 78.8229 13.6868C78.5478 13.8397 78.3226 14.0651 78.1466 14.3631C77.9787 14.6536 77.8944 15.0051 77.8944 15.4178C77.8944 15.8304 77.9787 16.1858 78.1466 16.4838C78.3226 16.7743 78.5478 16.9997 78.8229 17.1602C79.1055 17.3131 79.4076 17.3895 79.7285 17.3895Z" fill="white"/>
<path d="M91.3613 18.5248C90.7726 18.5248 90.2189 18.4178 89.6991 18.2038C89.1872 17.9899 88.7321 17.6918 88.3349 17.3097C87.9377 16.9199 87.6242 16.4652 87.3949 15.9455C87.1731 15.4182 87.0625 14.8489 87.0625 14.2375C87.0625 13.6261 87.1731 13.0606 87.3949 12.5409C87.6242 12.0136 87.9337 11.5589 88.3235 11.1768C88.7207 10.787 89.1792 10.4851 89.6991 10.2712C90.2189 10.0572 90.7726 9.9502 91.3613 9.9502C91.9877 9.9502 92.5649 10.061 93.0922 10.2826C93.627 10.5043 94.0741 10.8138 94.4334 11.2112L93.5622 12.0709C93.2946 11.7729 92.9736 11.5436 92.5993 11.3831C92.2325 11.2226 91.8198 11.1424 91.3613 11.1424C90.8185 11.1424 90.3181 11.2723 89.8596 11.5321C89.401 11.7843 89.0302 12.1435 88.7476 12.6097C88.4725 13.0682 88.3349 13.6108 88.3349 14.2375C88.3349 14.8641 88.4765 15.4106 88.7591 15.8768C89.0417 16.3353 89.4125 16.6945 89.871 16.9543C90.3296 17.2065 90.8299 17.3326 91.3727 17.3326C91.8697 17.3326 92.3202 17.2409 92.7254 17.0575C93.1306 16.8664 93.455 16.5989 93.6998 16.255C93.952 15.9111 94.105 15.4985 94.1583 15.017H91.3498V13.9051H95.3391C95.3849 14.1114 95.4078 14.3292 95.4078 14.5585V14.5699C95.4078 15.3647 95.2319 16.0602 94.8805 16.6563C94.5366 17.2447 94.0592 17.7033 93.4476 18.0319C92.836 18.3605 92.1408 18.5248 91.3613 18.5248ZM99.099 18.5248C98.4955 18.5248 97.9642 18.3872 97.5056 18.1121C97.0471 17.837 96.6877 17.4663 96.4281 17.0002C96.1684 16.534 96.0383 16.0067 96.0383 15.4182C96.0383 14.8374 96.1684 14.3139 96.4281 13.8477C96.6877 13.3739 97.0471 12.9995 97.5056 12.7243C97.9642 12.4492 98.4955 12.3116 99.099 12.3116C99.6951 12.3116 100.222 12.4492 100.681 12.7243C101.14 12.9995 101.499 13.3739 101.759 13.8477C102.018 14.3139 102.148 14.8374 102.148 15.4182C102.148 16.0067 102.018 16.534 101.759 17.0002C101.499 17.4663 101.14 17.837 100.681 18.1121C100.222 18.3872 99.6951 18.5248 99.099 18.5248ZM99.099 17.3899C99.42 17.3899 99.7181 17.3135 99.9932 17.1607C100.268 17.0002 100.49 16.7747 100.658 16.4843C100.834 16.1863 100.922 15.8309 100.922 15.4182C100.922 15.0055 100.834 14.654 100.658 14.3636C100.49 14.0655 100.268 13.8401 99.9932 13.6873C99.7181 13.5268 99.42 13.4465 99.099 13.4465C98.7781 13.4465 98.476 13.5268 98.1934 13.6873C97.9183 13.8401 97.6931 14.0655 97.5171 14.3636C97.3492 14.654 97.2649 15.0055 97.2649 15.4182C97.2649 15.8309 97.3492 16.1863 97.5171 16.4843C97.6931 16.7747 97.9183 17.0002 98.1934 17.1607C98.476 17.3135 98.7781 17.3899 99.099 17.3899ZM106.04 18.5248C105.436 18.5248 104.905 18.3872 104.446 18.1121C103.988 17.837 103.629 17.4663 103.369 17.0002C103.109 16.534 102.979 16.0067 102.979 15.4182C102.979 14.8374 103.109 14.3139 103.369 13.8477C103.629 13.3739 103.988 12.9995 104.446 12.7243C104.905 12.4492 105.436 12.3116 106.04 12.3116C106.636 12.3116 107.163 12.4492 107.621 12.7243C108.08 12.9995 108.439 13.3739 108.699 13.8477C108.959 14.3139 109.089 14.8374 109.089 15.4182C109.089 16.0067 108.959 16.534 108.699 17.0002C108.439 17.4663 108.08 17.837 107.621 18.1121C107.163 18.3872 106.636 18.5248 106.04 18.5248ZM106.04 17.3899C106.361 17.3899 106.659 17.3135 106.934 17.1607C107.209 17.0002 107.431 16.7747 107.599 16.4843C107.775 16.1863 107.862 15.8309 107.862 15.4182C107.862 15.0055 107.775 14.654 107.599 14.3636C107.431 14.0655 107.209 13.8401 106.934 13.6873C106.659 13.5268 106.361 13.4465 106.04 13.4465C105.719 13.4465 105.417 13.5268 105.134 13.6873C104.859 13.8401 104.634 14.0655 104.458 14.3636C104.29 14.654 104.205 15.0055 104.205 15.4182C104.205 15.8309 104.29 16.1863 104.458 16.4843C104.634 16.7747 104.859 17.0002 105.134 17.1607C105.417 17.3135 105.719 17.3899 106.04 17.3899ZM112.866 21.0009C112.354 21.0009 111.91 20.9168 111.536 20.7487C111.169 20.5882 110.871 20.378 110.642 20.1182C110.413 19.866 110.248 19.6062 110.149 19.3387L111.295 18.8572C111.418 19.1629 111.612 19.4113 111.88 19.6024C112.155 19.8011 112.484 19.9004 112.866 19.9004C113.401 19.9004 113.821 19.7399 114.127 19.4189C114.44 19.098 114.597 18.6433 114.597 18.0548V17.4931H114.528C114.345 17.7682 114.089 17.9899 113.76 18.158C113.439 18.3185 113.072 18.3987 112.66 18.3987C112.163 18.3987 111.708 18.2726 111.295 18.0204C110.883 17.7682 110.55 17.4167 110.298 16.9658C110.046 16.5072 109.92 15.9723 109.92 15.3609C109.92 14.7419 110.046 14.2069 110.298 13.756C110.55 13.2975 110.883 12.9421 111.295 12.6899C111.708 12.4377 112.163 12.3116 112.66 12.3116C113.072 12.3116 113.439 12.3957 113.76 12.5638C114.089 12.732 114.345 12.9536 114.528 13.2287H114.597V12.4951H115.778V18.0319C115.778 18.6662 115.652 19.205 115.399 19.6482C115.155 20.0914 114.815 20.4277 114.379 20.657C113.944 20.8862 113.439 21.0009 112.866 21.0009ZM112.877 17.2753C113.183 17.2753 113.466 17.2027 113.726 17.0575C113.985 16.9046 114.196 16.6868 114.356 16.4041C114.517 16.1136 114.597 15.766 114.597 15.3609C114.597 14.9406 114.517 14.589 114.356 14.3063C114.196 14.0158 113.985 13.798 113.726 13.6529C113.466 13.5077 113.183 13.4351 112.877 13.4351C112.571 13.4351 112.285 13.5115 112.018 13.6643C111.757 13.8095 111.548 14.0235 111.387 14.3063C111.227 14.589 111.146 14.9406 111.146 15.3609C111.146 15.7736 111.227 16.1251 111.387 16.4155C111.548 16.6983 111.757 16.9123 112.018 17.0575C112.285 17.2027 112.571 17.2753 112.877 17.2753ZM117.238 18.3414V10.1336H118.476V18.3414H117.238ZM122.55 18.5248C121.977 18.5248 121.465 18.3911 121.014 18.1236C120.563 17.8561 120.208 17.4893 119.948 17.0231C119.696 16.5569 119.57 16.0258 119.57 15.4297C119.57 14.8718 119.692 14.356 119.937 13.8821C120.181 13.4083 120.521 13.03 120.957 12.7473C121.4 12.4568 121.908 12.3116 122.481 12.3116C123.085 12.3116 123.597 12.4416 124.018 12.7014C124.445 12.9612 124.77 13.3166 124.992 13.7675C125.213 14.2184 125.324 14.7266 125.324 15.2921C125.324 15.3762 125.32 15.4526 125.313 15.5214C125.313 15.5902 125.309 15.6436 125.301 15.6819H120.785C120.846 16.2627 121.049 16.6983 121.392 16.9887C121.744 17.2791 122.141 17.4243 122.585 17.4243C122.982 17.4243 123.31 17.3364 123.57 17.1607C123.83 16.9772 124.036 16.7518 124.189 16.4843L125.21 16.9772C124.958 17.4358 124.614 17.8102 124.178 18.1006C123.742 18.3834 123.2 18.5248 122.55 18.5248ZM122.493 13.3663C122.08 13.3663 121.728 13.4924 121.438 13.7446C121.148 13.9968 120.953 14.333 120.854 14.7533H124.098C124.082 14.5546 124.018 14.3483 123.903 14.1343C123.788 13.9204 123.612 13.7407 123.376 13.5955C123.146 13.4427 122.852 13.3663 122.493 13.3663ZM130.363 18.3414L128.162 10.1336H129.561L130.867 15.4641L131.005 16.1748H131.074L131.246 15.4641L132.896 10.1336H134.157L135.739 15.4641L135.911 16.1633H135.98L136.118 15.4641L137.425 10.1336H138.812L136.645 18.3414H135.315L133.745 12.8963L133.561 12.1282H133.493L133.298 12.8963L131.658 18.3414H130.363ZM141.113 18.5248C140.693 18.5248 140.319 18.4445 139.99 18.2841C139.662 18.116 139.405 17.8828 139.222 17.5848C139.039 17.2867 138.947 16.9467 138.947 16.5646C138.947 16.1519 139.054 15.8004 139.268 15.5099C139.49 15.2119 139.784 14.9865 140.151 14.8336C140.517 14.6807 140.923 14.6043 141.366 14.6043C141.732 14.6043 142.053 14.6387 142.329 14.7075C142.612 14.7763 142.825 14.8489 142.97 14.9253V14.6158C142.97 14.2337 142.833 13.928 142.558 13.6987C142.283 13.4694 141.927 13.3548 141.492 13.3548C141.194 13.3548 140.911 13.4236 140.643 13.5612C140.376 13.6911 140.162 13.8707 140.001 14.0999L139.153 13.4465C139.405 13.095 139.738 12.8199 140.151 12.6212C140.571 12.4148 141.03 12.3116 141.526 12.3116C142.374 12.3116 143.028 12.5218 143.486 12.9421C143.945 13.3548 144.174 13.9356 144.174 14.6846V18.3414H142.97V17.6192H142.902C142.749 17.8561 142.52 18.0663 142.214 18.2497C141.908 18.4331 141.542 18.5248 141.113 18.5248ZM141.331 17.516C141.652 17.516 141.935 17.4396 142.18 17.2867C142.424 17.1339 142.615 16.9352 142.753 16.6907C142.898 16.4385 142.97 16.1672 142.97 15.8768C142.795 15.7774 142.589 15.6972 142.351 15.636C142.115 15.5672 141.863 15.5329 141.595 15.5329C141.091 15.5329 140.732 15.636 140.517 15.8424C140.304 16.0411 140.196 16.2856 140.196 16.576C140.196 16.8511 140.3 17.0766 140.506 17.2524C140.712 17.4282 140.987 17.516 141.331 17.516ZM145.549 18.3414V10.1336H146.787V18.3414H145.549ZM148.258 18.3414V10.1336H149.496V18.3414H148.258ZM153.571 18.5248C152.997 18.5248 152.485 18.3911 152.035 18.1236C151.583 17.8561 151.228 17.4893 150.968 17.0231C150.716 16.5569 150.59 16.0258 150.59 15.4297C150.59 14.8718 150.712 14.356 150.957 13.8821C151.201 13.4083 151.542 13.03 151.977 12.7473C152.42 12.4568 152.929 12.3116 153.502 12.3116C154.105 12.3116 154.617 12.4416 155.038 12.7014C155.466 12.9612 155.791 13.3166 156.012 13.7675C156.234 14.2184 156.345 14.7266 156.345 15.2921C156.345 15.3762 156.341 15.4526 156.333 15.5214C156.333 15.5902 156.329 15.6436 156.322 15.6819H151.805C151.866 16.2627 152.069 16.6983 152.413 16.9887C152.764 17.2791 153.161 17.4243 153.605 17.4243C154.002 17.4243 154.331 17.3364 154.591 17.1607C154.851 16.9772 155.057 16.7518 155.21 16.4843L156.23 16.9772C155.978 17.4358 155.634 17.8102 155.198 18.1006C154.763 18.3834 154.22 18.5248 153.571 18.5248ZM153.513 13.3663C153.101 13.3663 152.749 13.4924 152.459 13.7446C152.168 13.9968 151.973 14.333 151.874 14.7533H155.118C155.103 14.5546 155.038 14.3483 154.923 14.1343C154.809 13.9204 154.633 13.7407 154.396 13.5955C154.167 13.4427 153.872 13.3663 153.513 13.3663ZM157.945 16.6448V13.5726H156.924V12.4951H157.945V10.8443H159.183V12.4951H160.615V13.5726H159.183V16.3811C159.183 16.6716 159.24 16.8932 159.355 17.046C159.477 17.1989 159.679 17.2753 159.962 17.2753C160.107 17.2753 160.229 17.2562 160.329 17.218C160.435 17.1797 160.543 17.1263 160.65 17.0575V18.2611C160.52 18.3146 160.382 18.3567 160.237 18.3872C160.092 18.4178 159.92 18.4331 159.721 18.4331C159.179 18.4331 158.747 18.2764 158.426 17.9631C158.105 17.6421 157.945 17.2027 157.945 16.6448Z" fill="white"/>
<path d="M159.339 0.286133H14.3278C6.57225 0.286133 0.285156 6.57323 0.285156 14.3288C0.285156 22.0843 6.57225 28.3714 14.3278 28.3714H159.339C167.095 28.3714 173.382 22.0843 173.382 14.3288C173.382 6.57323 167.095 0.286133 159.339 0.286133Z" stroke="#747775"/>
</g>
<defs>
<linearGradient id="paint0_linear_568_664" x1="19.8132" y1="17.6455" x2="10.7346" y2="28.0353" gradientUnits="userSpaceOnUse">
<stop stop-color="#4285F4"/>
<stop offset="1" stop-color="#1B74E8"/>
</linearGradient>
<clipPath id="clip0_568_664">
<rect width="173.67" height="28.6584" fill="white"/>
</clipPath>
</defs>
</svg>
