<svg width="174" height="45" viewBox="0 0 174 45" fill="none" xmlns="http://www.w3.org/2000/svg">
<g clip-path="url(#clip0_568_294)">
<path d="M151.246 0.407227H22.4208C10.2625 0.407227 0.40625 10.2635 0.40625 22.4217C0.40625 34.58 10.2625 44.4362 22.4208 44.4362H151.246C163.405 44.4362 173.261 34.58 173.261 22.4217C173.261 10.2635 163.405 0.407227 151.246 0.407227Z" fill="#1F1F1F"/>
<path d="M151.246 0.407227H22.4208C10.2625 0.407227 0.40625 10.2635 0.40625 22.4217C0.40625 34.58 10.2625 44.4362 22.4208 44.4362H151.246C163.405 44.4362 173.261 34.58 173.261 22.4217C173.261 10.2635 163.405 0.407227 151.246 0.407227Z" stroke="#747775"/>
<path d="M46.4738 19.3985H17.1211V14.7955C17.1211 12.2966 19.2754 10.1924 21.8337 10.1924H41.7612C44.3194 10.1924 46.4738 12.2966 46.4738 14.7955V19.3985Z" fill="#34A853"/>
<path d="M46.4738 23.6456H17.1211V18.7534C17.1211 16.0978 19.2754 13.8613 21.8337 13.8613H41.7612C44.3194 13.8613 46.4738 16.0978 46.4738 18.7534V23.6456Z" fill="#FBBC04"/>
<path d="M46.4738 27.7217H17.1211V22.8296C17.1211 20.1739 19.2754 17.9375 21.8337 17.9375H41.7612C44.3194 17.9375 46.4738 20.1739 46.4738 22.8296V27.7217Z" fill="#EA4335"/>
<path d="M17.1211 20.5804L35.7513 24.7889C37.8959 25.3149 40.3084 24.7889 42.0507 23.4738L46.4738 20.3174V30.181C46.4738 32.6798 44.3293 34.6526 41.7827 34.6526H21.8121C19.2656 34.6526 17.1211 32.6798 17.1211 30.181V20.5804Z" fill="#4285F4"/>
<path d="M62.0807 21.0135C61.3691 21.0135 60.6992 20.8841 60.0708 20.6254C59.4425 20.3667 58.888 20.0063 58.4075 19.5443C57.9362 19.073 57.562 18.5232 57.2848 17.8948C57.0168 17.2572 56.8828 16.5688 56.8828 15.8295C56.8828 15.0902 57.0168 14.4065 57.2848 13.7781C57.562 13.1405 57.9362 12.5907 58.4075 12.1286C58.888 11.6574 59.4425 11.2923 60.0708 11.0336C60.6992 10.7749 61.3691 10.6455 62.0807 10.6455C62.8384 10.6455 63.5361 10.7795 64.1737 11.0475C64.8205 11.3155 65.3611 11.6897 65.7954 12.1702L64.742 13.2098C64.5294 12.9695 64.2846 12.7662 64.0074 12.5999C63.7394 12.4336 63.4437 12.3088 63.1203 12.2257C62.7968 12.1333 62.4503 12.0871 62.0807 12.0871C61.5909 12.0871 61.1243 12.1749 60.6807 12.3504C60.2372 12.526 59.8444 12.7801 59.5025 13.1128C59.1699 13.4362 58.9065 13.8289 58.7125 14.2909C58.5184 14.7437 58.4214 15.2566 58.4214 15.8295C58.4214 16.4025 58.5184 16.9199 58.7125 17.3819C58.9157 17.8347 59.1837 18.2275 59.5164 18.5601C59.8583 18.8836 60.251 19.1331 60.6946 19.3086C61.1381 19.4842 61.6048 19.572 62.0945 19.572C62.5473 19.572 62.9678 19.5073 63.3559 19.3779C63.7532 19.2485 64.0997 19.0638 64.3955 18.8235C64.6912 18.5832 64.9314 18.2921 65.1162 17.9502C65.3011 17.5991 65.4165 17.2064 65.4628 16.7721H62.0668V15.4275H66.8904C66.909 15.5384 66.9274 15.6678 66.9459 15.8157C66.9644 15.9543 66.9736 16.0882 66.9736 16.2176V16.2315C66.9736 16.943 66.8489 17.5945 66.5994 18.1859C66.3591 18.7773 66.0219 19.2855 65.5875 19.7106C65.1532 20.1264 64.6358 20.4499 64.0351 20.6809C63.4437 20.9026 62.7922 21.0135 62.0807 21.0135ZM71.4368 21.0135C70.7067 21.0135 70.0645 20.8472 69.5101 20.5145C68.9557 20.1819 68.5213 19.7337 68.2072 19.17C67.8929 18.5971 67.7359 17.9595 67.7359 17.2572C67.7359 16.5549 67.8929 15.9219 68.2072 15.3582C68.5213 14.7853 68.9557 14.3325 69.5101 13.9999C70.0645 13.6672 70.7067 13.5009 71.4368 13.5009C72.1575 13.5009 72.7951 13.6719 73.3496 14.0137C73.904 14.3464 74.3383 14.7946 74.6525 15.3582C74.9667 15.9219 75.1238 16.5549 75.1238 17.2572C75.1238 17.9595 74.9667 18.5971 74.6525 19.17C74.3383 19.7337 73.904 20.1819 73.3496 20.5145C72.7951 20.8472 72.1575 21.0135 71.4368 21.0135ZM71.4368 19.6413C71.8249 19.6413 72.1853 19.5489 72.5179 19.3641C72.8506 19.17 73.1185 18.8974 73.3219 18.5463C73.5343 18.1859 73.6407 17.7562 73.6407 17.2572C73.6407 16.7582 73.5343 16.3332 73.3219 15.982C73.1185 15.6216 72.8506 15.349 72.5179 15.1642C72.1853 14.9701 71.8249 14.8731 71.4368 14.8731C71.0487 14.8731 70.6836 14.9701 70.3417 15.1642C70.0091 15.349 69.7364 15.6216 69.5239 15.982C69.3206 16.3332 69.219 16.7582 69.219 17.2572C69.219 17.7562 69.3206 18.1859 69.5239 18.5463C69.7364 18.8974 70.0137 19.17 70.3556 19.3641C70.6975 19.5489 71.0579 19.6413 71.4368 19.6413ZM79.8291 21.0135C79.0991 21.0135 78.4569 20.8472 77.9024 20.5145C77.348 20.1819 76.9137 19.7337 76.5995 19.17C76.2853 18.5971 76.1282 17.9595 76.1282 17.2572C76.1282 16.5549 76.2853 15.9219 76.5995 15.3582C76.9137 14.7853 77.348 14.3325 77.9024 13.9999C78.4569 13.6672 79.0991 13.5009 79.8291 13.5009C80.5499 13.5009 81.1875 13.6719 81.7421 14.0137C82.2965 14.3464 82.7311 14.7946 83.045 15.3582C83.3589 15.9219 83.5163 16.5549 83.5163 17.2572C83.5163 17.9595 83.3589 18.5971 83.045 19.17C82.7311 19.7337 82.2965 20.1819 81.7421 20.5145C81.1875 20.8472 80.5499 21.0135 79.8291 21.0135ZM79.8291 19.6413C80.2172 19.6413 80.5776 19.5489 80.9103 19.3641C81.2429 19.17 81.5109 18.8974 81.7144 18.5463C81.9272 18.1859 82.0332 17.7562 82.0332 17.2572C82.0332 16.7582 81.9272 16.3332 81.7144 15.982C81.5109 15.6216 81.2429 15.349 80.9103 15.1642C80.5776 14.9701 80.2172 14.8731 79.8291 14.8731C79.441 14.8731 79.076 14.9701 78.7341 15.1642C78.4014 15.349 78.1288 15.6216 77.9163 15.982C77.713 16.3332 77.6113 16.7582 77.6113 17.2572C77.6113 17.7562 77.713 18.1859 77.9163 18.5463C78.1288 18.8974 78.4061 19.17 78.748 19.3641C79.0899 19.5489 79.4503 19.6413 79.8291 19.6413ZM88.0831 24.0075C87.4634 24.0075 86.9277 23.9058 86.4752 23.7026C86.0317 23.5085 85.6713 23.2544 85.394 22.9402C85.1168 22.6353 84.9179 22.3211 84.798 21.9977L86.1841 21.4155C86.3317 21.7851 86.5673 22.0855 86.891 22.3165C87.2237 22.5567 87.6208 22.6768 88.0831 22.6768C88.7386 22.6768 89.2515 22.4828 89.6216 22.0947C89.991 21.7066 90.1761 21.1568 90.1761 20.4452V19.766H90.0929C89.8711 20.0895 89.5662 20.3528 89.1781 20.5561C88.79 20.7594 88.3415 20.8611 87.8336 20.8611C87.2327 20.8611 86.6782 20.7086 86.1703 20.4036C85.6713 20.0987 85.2693 19.6737 84.9644 19.1284C84.6684 18.574 84.5208 17.9272 84.5208 17.1879C84.5208 16.4394 84.6684 15.7926 84.9644 15.2474C85.2693 14.6929 85.6713 14.2632 86.1703 13.9583C86.6782 13.6533 87.2327 13.5009 87.8336 13.5009C88.3415 13.5009 88.79 13.6025 89.1781 13.8058C89.5662 13.9999 89.8711 14.2679 90.0929 14.6097H90.1761V13.7226H91.6038V20.4175C91.6038 21.1845 91.4513 21.836 91.1464 22.3719C90.8504 22.9078 90.4394 23.3144 89.9127 23.5917C89.386 23.8689 88.7761 24.0075 88.0831 24.0075ZM88.0969 19.5027C88.4663 19.5027 88.8079 19.4149 89.1227 19.2393C89.4455 19.0545 89.6999 18.7911 89.885 18.4492C90.0791 18.0981 90.1761 17.6777 90.1761 17.1879C90.1761 16.6704 90.0791 16.2407 89.885 15.8988C89.6999 15.5569 89.4455 15.2982 89.1227 15.1226C88.8079 14.9471 88.4663 14.8592 88.0969 14.8592C87.7268 14.8592 87.3802 14.9471 87.0574 15.1226C86.7426 15.2982 86.4891 15.5615 86.295 15.9127C86.101 16.2546 86.0039 16.6797 86.0039 17.1879C86.0039 17.6869 86.101 18.1119 86.295 18.4631C86.4891 18.805 86.7426 19.0638 87.0574 19.2393C87.3802 19.4149 87.7268 19.5027 88.0969 19.5027ZM93.369 20.7918V10.8673H94.866V20.7918H93.369ZM99.7923 21.0135C99.0993 21.0135 98.4804 20.8518 97.935 20.5284C97.3903 20.2049 96.9606 19.7614 96.6459 19.1977C96.341 18.6341 96.1885 17.9918 96.1885 17.2711C96.1885 16.5965 96.3369 15.9728 96.632 15.3998C96.928 14.8269 97.339 14.3695 97.8657 14.0276C98.4022 13.6764 99.0161 13.5009 99.7092 13.5009C100.44 13.5009 101.059 13.658 101.567 13.9721C102.084 14.2863 102.477 14.716 102.745 15.2612C103.013 15.8064 103.147 16.4209 103.147 17.1047C103.147 17.2064 103.143 17.2988 103.133 17.3819C103.133 17.4651 103.129 17.5298 103.119 17.576H97.6578C97.6953 17.9641 97.7923 18.3014 97.9488 18.5879C98.1527 18.9482 98.4201 19.2208 98.7528 19.4057C99.0854 19.5905 99.4458 19.6829 99.8339 19.6829C100.305 19.6829 100.698 19.5766 101.012 19.3641C101.336 19.1423 101.59 18.8697 101.774 18.5463L103.008 19.1423C102.703 19.6967 102.287 20.1495 101.761 20.5007C101.234 20.8425 100.578 21.0135 99.7923 21.0135ZM97.7409 16.4533H101.664C101.655 16.2777 101.608 16.0929 101.525 15.8988C101.442 15.6956 101.322 15.5107 101.165 15.3444C101.008 15.1781 100.809 15.0441 100.569 14.9424C100.329 14.8315 100.047 14.7761 99.723 14.7761C99.317 14.7761 98.9566 14.8823 98.6419 15.0949C98.328 15.2982 98.0834 15.5847 97.9073 15.9543C97.8339 16.1114 97.7784 16.2777 97.7409 16.4533Z" fill="white"/>
<path d="M108.859 20.8051C108.859 20.4725 108.906 20.1029 108.998 19.6963C109.09 19.2896 109.239 18.8415 109.442 18.3517L110.44 18.7398C110.292 19.128 110.181 19.4837 110.107 19.8071C110.033 20.1306 109.996 20.4309 109.996 20.7081C109.996 21.3826 110.25 21.9094 110.758 22.2883C111.276 22.6764 111.95 22.8704 112.782 22.8704C113.678 22.8704 114.371 22.6949 114.861 22.3437C115.351 22.0018 115.684 21.4751 115.859 20.7636C116.034 20.0428 116.1 19.1233 116.053 18.0052L115.79 10.8945H116.94L117.176 18.2963C117.204 19.0725 117.153 19.8071 117.023 20.5002C116.904 21.184 116.677 21.7893 116.344 22.316C116.021 22.8427 115.563 23.2539 114.972 23.5496C114.39 23.8546 113.646 24.007 112.74 24.007C112.25 24.007 111.775 23.9424 111.313 23.813C110.85 23.6836 110.435 23.4895 110.065 23.2308C109.696 22.9721 109.4 22.6394 109.178 22.2328C108.965 21.8355 108.859 21.3596 108.859 20.8051ZM118.885 23.9793L118.635 22.8427C119.209 22.7687 119.73 22.6579 120.202 22.51C120.683 22.3714 121.094 22.1727 121.435 21.914C121.778 21.6553 122.031 21.3041 122.198 20.8606H121.311C120.895 20.8606 120.507 20.8051 120.146 20.6942C119.796 20.5741 119.509 20.3847 119.287 20.1259C119.075 19.8672 118.968 19.5299 118.968 19.1141C118.968 18.6059 119.07 18.1253 119.273 17.6726C119.477 17.2105 119.754 16.8362 120.105 16.5498C120.456 16.2634 120.853 16.1201 121.297 16.1201C121.934 16.1201 122.461 16.402 122.877 16.9656C123.303 17.5201 123.515 18.3748 123.515 19.5299C123.515 19.5946 123.515 19.6593 123.515 19.724H124.762C124.956 19.724 125.095 19.7794 125.178 19.8903C125.271 19.992 125.316 20.1167 125.316 20.2646C125.316 20.4124 125.252 20.551 125.122 20.6804C124.994 20.8005 124.827 20.8606 124.623 20.8606H123.348C122.877 22.6533 121.39 23.6929 118.885 23.9793ZM121.837 19.724H122.42C122.429 19.6316 122.433 19.5391 122.433 19.4468C122.433 18.8184 122.318 18.2963 122.087 17.8805C121.856 17.4646 121.556 17.2567 121.186 17.2567C120.992 17.2567 120.808 17.3307 120.631 17.4785C120.465 17.6263 120.331 17.825 120.229 18.0745C120.128 18.324 120.077 18.5966 120.077 18.8923C120.077 19.2158 120.22 19.4375 120.507 19.5576C120.803 19.6685 121.246 19.724 121.837 19.724ZM124.619 20.8606L124.758 19.724C125.294 19.724 125.714 19.7055 126.019 19.6685C126.333 19.6223 126.555 19.5161 126.685 19.3497C126.814 19.1834 126.879 18.9108 126.879 18.5319C126.879 18.1901 126.795 17.7511 126.629 17.2151C126.472 16.6792 126.292 16.1478 126.089 15.6211L127.211 15.2053C127.331 15.5102 127.442 15.8521 127.544 16.231C127.655 16.6006 127.747 16.9703 127.821 17.3399C127.895 17.7095 127.932 18.0329 127.932 18.3102C127.932 19.2435 127.674 19.9042 127.156 20.2923C126.638 20.6712 125.793 20.8606 124.619 20.8606ZM125.243 23.4803C125.049 23.4803 124.883 23.411 124.744 23.2724C124.614 23.143 124.55 22.986 124.55 22.8011C124.55 22.6163 124.614 22.4546 124.744 22.316C124.883 22.1774 125.049 22.1081 125.243 22.1081C125.428 22.1081 125.585 22.1774 125.714 22.316C125.853 22.4546 125.922 22.6163 125.922 22.8011C125.922 22.986 125.853 23.143 125.714 23.2724C125.585 23.411 125.428 23.4803 125.243 23.4803ZM127.128 23.4803C126.934 23.4803 126.768 23.411 126.629 23.2724C126.5 23.143 126.435 22.986 126.435 22.8011C126.435 22.6163 126.5 22.4546 126.629 22.316C126.768 22.1774 126.934 22.1081 127.128 22.1081C127.313 22.1081 127.47 22.1774 127.599 22.316C127.738 22.4546 127.807 22.6163 127.807 22.8011C127.807 22.986 127.738 23.143 127.599 23.2724C127.47 23.411 127.313 23.4803 127.128 23.4803ZM126.186 25.005C125.992 25.005 125.825 24.9357 125.687 24.7971C125.557 24.6677 125.493 24.5107 125.493 24.3258C125.493 24.141 125.557 23.9793 125.687 23.8407C125.825 23.7021 125.992 23.6328 126.186 23.6328C126.371 23.6328 126.527 23.7021 126.657 23.8407C126.795 23.9793 126.865 24.141 126.865 24.3258C126.865 24.5107 126.795 24.6677 126.657 24.7971C126.527 24.9357 126.371 25.005 126.186 25.005ZM137.402 21.0824C135.757 21.0824 134.514 20.8698 133.674 20.4447C132.832 20.0104 132.412 19.2851 132.412 18.2686C132.412 17.9267 132.454 17.5663 132.537 17.1874C132.62 16.7993 132.708 16.4343 132.801 16.0924L133.84 16.3558C133.785 16.559 133.719 16.8178 133.646 17.132C133.581 17.4461 133.549 17.7188 133.549 17.9498C133.549 18.4303 133.669 18.8184 133.909 19.1141C134.159 19.4005 134.589 19.6131 135.199 19.7517C135.808 19.8811 136.663 19.9458 137.763 19.9458C138.779 19.9458 139.689 19.918 140.493 19.8626C141.297 19.7979 141.949 19.724 142.448 19.6408C142.226 19.456 142.008 19.2065 141.796 18.8923C141.584 18.5689 141.478 18.1762 141.478 17.7141C141.478 17.2151 141.588 16.7669 141.81 16.3696C142.041 15.963 142.341 15.6396 142.711 15.3994C143.081 15.1591 143.478 15.039 143.903 15.039C144.356 15.039 144.753 15.1684 145.095 15.4271C145.437 15.6766 145.7 16 145.885 16.3973C146.079 16.7947 146.176 17.1966 146.176 17.6032C146.176 18.0376 146.088 18.4257 145.913 18.7676C145.737 19.1002 145.497 19.3913 145.192 19.6408C145.571 19.6685 145.955 19.6916 146.343 19.7101C146.731 19.7193 147.068 19.724 147.355 19.724C147.549 19.724 147.687 19.7794 147.77 19.8903C147.863 19.992 147.909 20.1167 147.909 20.2646C147.909 20.4124 147.844 20.551 147.715 20.6804C147.585 20.8005 147.419 20.8606 147.216 20.8606C146.024 20.8606 144.905 20.7081 143.862 20.4032C143.713 20.4586 143.557 20.5094 143.39 20.5556C143.113 20.6388 142.67 20.722 142.06 20.8051C141.459 20.8883 140.752 20.953 139.939 20.9992C139.135 21.0546 138.29 21.0824 137.402 21.0824ZM142.614 17.7419C142.614 18.1115 142.729 18.4257 142.961 18.6844C143.2 18.9339 143.464 19.1372 143.751 19.2943C144.111 19.128 144.416 18.9154 144.666 18.6567C144.915 18.3887 145.04 18.0653 145.04 17.6864C145.04 17.4831 144.988 17.2659 144.887 17.0349C144.785 16.7947 144.642 16.5914 144.458 16.4251C144.282 16.2587 144.083 16.1756 143.862 16.1756C143.64 16.1756 143.432 16.2541 143.238 16.4112C143.053 16.5683 142.9 16.7669 142.78 17.0072C142.67 17.2475 142.614 17.4924 142.614 17.7419ZM143.778 13.6113C143.584 13.6113 143.418 13.5466 143.279 13.4172C143.15 13.2786 143.085 13.1169 143.085 12.9321C143.085 12.7473 143.15 12.5856 143.279 12.447C143.418 12.3084 143.584 12.239 143.778 12.239C143.963 12.239 144.12 12.3084 144.25 12.447C144.388 12.5856 144.458 12.7473 144.458 12.9321C144.458 13.1169 144.388 13.2786 144.25 13.4172C144.12 13.5466 143.963 13.6113 143.778 13.6113ZM147.211 20.8606L147.35 19.724C147.812 19.724 148.172 19.6916 148.431 19.627C148.689 19.553 148.883 19.419 149.013 19.225C149.152 19.0217 149.263 18.7306 149.346 18.3517C149.429 17.9728 149.531 17.4785 149.651 16.8686L150.732 17.0765C150.676 17.326 150.612 17.6125 150.538 17.9359C150.473 18.2594 150.441 18.5319 150.441 18.7537C150.441 18.8923 150.45 19.0217 150.468 19.1418C150.487 19.2619 150.556 19.3636 150.676 19.4468C150.796 19.5299 151 19.5992 151.286 19.6547C151.572 19.7009 151.984 19.724 152.52 19.724C152.714 19.724 152.853 19.7794 152.936 19.8903C153.028 19.992 153.074 20.1167 153.074 20.2646C153.074 20.4124 153.01 20.551 152.88 20.6804C152.751 20.8005 152.584 20.8606 152.381 20.8606C151.78 20.8606 151.309 20.8282 150.967 20.7636C150.635 20.6896 150.385 20.588 150.219 20.4586C150.062 20.32 149.947 20.149 149.872 19.9458C149.604 20.3246 149.271 20.5741 148.874 20.6942C148.486 20.8051 147.932 20.8606 147.211 20.8606ZM150.704 23.4803C150.51 23.4803 150.344 23.411 150.205 23.2724C150.075 23.143 150.011 22.986 150.011 22.8011C150.011 22.6163 150.075 22.4546 150.205 22.316C150.344 22.1774 150.51 22.1081 150.704 22.1081C150.889 22.1081 151.046 22.1774 151.175 22.316C151.314 22.4546 151.383 22.6163 151.383 22.8011C151.383 22.986 151.314 23.143 151.175 23.2724C151.046 23.411 150.889 23.4803 150.704 23.4803ZM148.805 23.4803C148.611 23.4803 148.445 23.411 148.306 23.2724C148.176 23.143 148.112 22.986 148.112 22.8011C148.112 22.6163 148.176 22.4546 148.306 22.316C148.445 22.1774 148.611 22.1081 148.805 22.1081C148.99 22.1081 149.147 22.1774 149.276 22.316C149.415 22.4546 149.484 22.6163 149.484 22.8011C149.484 22.986 149.415 23.143 149.276 23.2724C149.147 23.411 148.99 23.4803 148.805 23.4803ZM152.382 20.8606L152.521 19.724H153.824C154.359 19.724 154.789 19.6963 155.113 19.6408C155.436 19.5762 155.671 19.4976 155.82 19.4052C155.976 19.3035 156.078 19.1973 156.125 19.0864C156.18 18.9663 156.208 18.8461 156.208 18.726C156.208 18.5134 156.125 18.2501 155.958 17.9359C155.801 17.6218 155.473 17.2151 154.974 16.7161C154.632 16.365 154.29 16.0555 153.948 15.7875C153.606 15.5195 153.325 15.2931 153.103 15.1083C152.881 14.9234 152.77 14.7895 152.77 14.7063C152.77 14.4937 152.793 14.2951 152.839 14.1103C152.885 13.9254 152.959 13.7823 153.061 13.6806C153.431 13.2833 154.008 12.8859 154.794 12.4885C155.588 12.0912 156.577 11.5922 157.76 10.9916L158.231 12.0173C157.39 12.4239 156.702 12.7611 156.166 13.0291C155.639 13.2878 155.2 13.5189 154.849 13.7222C154.507 13.9162 154.188 14.1149 153.893 14.3182C154.974 15.1961 155.801 15.9862 156.374 16.6884C156.956 17.3815 157.247 18.0837 157.247 18.7953C157.247 18.9986 157.21 19.2203 157.136 19.4606C157.062 19.7009 156.905 19.9272 156.665 20.1398C156.425 20.3524 156.064 20.5279 155.584 20.6665C155.103 20.7959 154.456 20.8606 153.643 20.8606H152.382Z" fill="white"/>
<path d="M61.4115 33.8897C60.9522 33.8897 60.5565 33.8119 60.2244 33.6565C59.8993 33.501 59.6697 33.2148 59.5354 32.7979C59.1538 32.8898 58.7863 32.9286 58.4331 32.9145C58.0868 32.8933 57.7724 32.8262 57.4897 32.7131C57.207 32.593 56.9844 32.4304 56.8219 32.2255C56.6594 32.0135 56.5781 31.7626 56.5781 31.4729C56.5781 31.0914 56.6982 30.7451 56.9385 30.4342C57.1788 30.1162 57.5038 29.8477 57.9137 29.6286C58.3235 29.4095 58.7757 29.2576 59.2704 29.1728L59.2386 28.3673H60.0972L60.2668 31.8651C60.2809 32.1972 60.3375 32.4481 60.4364 32.6177C60.5424 32.7802 60.6837 32.8898 60.8604 32.9463C61.0441 32.9958 61.2631 33.0205 61.5175 33.0205C61.6659 33.0205 61.7719 33.0629 61.8355 33.1477C61.9062 33.2254 61.9415 33.3208 61.9415 33.4339C61.9415 33.547 61.892 33.653 61.7931 33.7519C61.6942 33.8437 61.567 33.8897 61.4115 33.8897ZM57.4155 31.3352C57.4155 31.4977 57.4791 31.6319 57.6063 31.7379C57.7406 31.8439 57.9102 31.9216 58.1151 31.9711C58.32 32.0206 58.5355 32.0453 58.7616 32.0453C58.9948 32.0453 59.2103 32.0276 59.4082 31.9923L59.3128 30.0526C58.91 30.095 58.5673 30.1869 58.2847 30.3282C58.002 30.4625 57.7865 30.6215 57.6381 30.8052C57.4897 30.9819 57.4155 31.1585 57.4155 31.3352ZM61.415 33.8897L61.521 33.0205C61.8602 33.0205 62.1322 32.9993 62.3372 32.9569C62.5492 32.9145 62.7011 32.8297 62.793 32.7025C62.8848 32.5682 62.9308 32.3704 62.9308 32.1089C62.9308 31.8474 62.8672 31.5118 62.74 31.102C62.6198 30.6921 62.482 30.2858 62.3266 29.883L63.1852 29.565C63.277 29.7982 63.3618 30.0597 63.4396 30.3494C63.5244 30.6321 63.595 30.9147 63.6515 31.1974C63.7081 31.48 63.7363 31.7273 63.7363 31.9393C63.7363 32.653 63.5456 33.1583 63.164 33.4551C62.7894 33.7448 62.2064 33.8897 61.415 33.8897ZM62.5492 35.8612C62.4008 35.8612 62.2736 35.8082 62.1676 35.7022C62.0686 35.6033 62.0192 35.4831 62.0192 35.3418C62.0192 35.2005 62.0686 35.0768 62.1676 34.9708C62.2736 34.8648 62.4008 34.8118 62.5492 34.8118C62.6905 34.8118 62.8106 34.8648 62.9096 34.9708C63.0156 35.0768 63.0686 35.2005 63.0686 35.3418C63.0686 35.4831 63.0156 35.6033 62.9096 35.7022C62.8106 35.8082 62.6905 35.8612 62.5492 35.8612ZM67.0535 33.8473C67.0535 33.5929 67.0888 33.3102 67.1595 32.9993C67.2301 32.6884 67.3432 32.3456 67.4987 31.9711L68.2619 32.2679C68.1488 32.5647 68.064 32.8368 68.0075 33.0841C67.9509 33.3314 67.9227 33.5611 67.9227 33.7731C67.9227 34.1405 68.0181 34.4443 68.2089 34.6846C68.3997 34.9249 68.6611 35.1051 68.9932 35.2252C69.3253 35.3453 69.6998 35.4054 70.1168 35.4054C70.5902 35.4054 70.986 35.3418 71.304 35.2146C71.629 35.0874 71.8869 34.9178 72.0777 34.7058C72.2685 34.5009 72.4027 34.2712 72.4805 34.0168C72.5653 33.7625 72.6077 33.5116 72.6077 33.2643C72.6077 32.9958 72.5547 32.6707 72.4487 32.2891C72.3497 31.9075 72.1625 31.4341 71.8869 30.8688L72.6819 30.466C72.8868 30.8759 73.067 31.3069 73.2225 31.7591C73.385 32.2114 73.4663 32.6742 73.4663 33.1477C73.4663 33.4869 73.4133 33.8402 73.3073 34.2076C73.2013 34.5751 73.0211 34.9143 72.7667 35.2252C72.5123 35.5361 72.166 35.787 71.7279 35.9778C71.2969 36.1757 70.7563 36.2746 70.1062 36.2746C69.555 36.2746 69.0462 36.1898 68.5799 36.0202C68.1205 35.8506 67.7495 35.5856 67.4669 35.2252C67.1913 34.8648 67.0535 34.4055 67.0535 33.8473ZM70.2546 29.618C70.1062 29.618 69.979 29.5685 69.873 29.4696C69.774 29.3636 69.7246 29.2399 69.7246 29.0986C69.7246 28.9573 69.774 28.8337 69.873 28.7277C69.979 28.6217 70.1062 28.5687 70.2546 28.5687C70.3959 28.5687 70.516 28.6217 70.615 28.7277C70.721 28.8337 70.774 28.9573 70.774 29.0986C70.774 29.2399 70.721 29.3636 70.615 29.4696C70.516 29.5685 70.3959 29.618 70.2546 29.618ZM74.3627 33.3597L74.7866 32.6283C74.9279 32.7272 75.1258 32.8191 75.3802 32.9039C75.6346 32.9816 75.9314 33.0205 76.2706 33.0205C76.7935 33.0205 77.1645 32.9428 77.3835 32.7873C77.6025 32.6248 77.7121 32.4022 77.7121 32.1195C77.7121 31.9782 77.6803 31.805 77.6167 31.6001C77.5602 31.3882 77.433 31.1055 77.2352 30.7522C77.0373 30.3918 76.7334 29.9219 76.3236 29.3424L77.055 28.8655C77.6131 29.6427 78.0053 30.3035 78.2315 30.8476C78.4576 31.3917 78.5707 31.8333 78.5707 32.1725C78.5707 32.4622 78.5 32.7378 78.3587 32.9993C78.2173 33.2608 77.9806 33.4763 77.6485 33.6459C77.3164 33.8155 76.8571 33.9003 76.2706 33.9003C75.8819 33.9003 75.5215 33.8543 75.1894 33.7625C74.8573 33.6636 74.5817 33.5293 74.3627 33.3597ZM79.6578 36.2746L79.467 35.4054C79.9192 35.3489 80.3291 35.2641 80.6966 35.151C81.064 35.0379 81.3784 34.8754 81.6396 34.6634C81.9013 34.4514 82.0954 34.1687 82.2226 33.8155C82.0954 33.8508 81.9617 33.8755 81.8198 33.8897C81.6787 33.9108 81.5409 33.9215 81.4067 33.9215C80.8626 33.9215 80.4457 33.8119 80.156 33.5929C79.8662 33.3738 79.7214 33.0346 79.7214 32.5753C79.7214 32.3068 79.7638 32.0382 79.8486 31.7697C79.9334 31.4941 80.0535 31.2433 80.209 31.0172C80.3644 30.7911 80.5517 30.6109 80.7708 30.4766C80.9898 30.3353 81.2336 30.2646 81.5021 30.2646C81.8834 30.2646 82.1981 30.3918 82.4452 30.6462C82.6996 30.8935 82.8871 31.2151 83.0069 31.6107C83.1341 32.0064 83.1977 32.4269 83.1977 32.8721C83.1977 33.8614 82.8977 34.6422 82.2968 35.2146C81.7032 35.787 80.8238 36.1403 79.6578 36.2746ZM80.5588 32.3633C80.5588 32.5824 80.6294 32.759 80.7708 32.8933C80.9121 33.0205 81.1559 33.0841 81.5021 33.0841C81.8059 33.0841 82.0954 33.0417 82.371 32.9569C82.371 32.9145 82.371 32.865 82.371 32.8085C82.371 32.5188 82.3326 32.2467 82.2544 31.9923C82.1769 31.7308 82.0677 31.5224 81.9258 31.367C81.7847 31.2115 81.6151 31.1338 81.4173 31.1338C81.2477 31.1338 81.0994 31.1974 80.9722 31.3246C80.845 31.4447 80.7425 31.6001 80.6648 31.7909C80.5941 31.9817 80.5588 32.1725 80.5588 32.3633ZM83.8264 36.2958L83.519 35.4902C84.2047 35.2641 84.7379 34.9955 85.1195 34.6846C85.5084 34.3737 85.78 34.0486 85.9357 33.7095C86.098 33.3632 86.1795 33.0276 86.1795 32.7025C86.1795 32.3562 86.102 32.0064 85.9463 31.6531C85.7979 31.2928 85.6316 30.9536 85.4481 30.6356L86.2219 30.2434C86.42 30.6179 86.5855 30.9783 86.7201 31.3246C86.8611 31.6708 86.9712 31.9746 87.0486 32.2361C87.1473 32.54 87.2745 32.7484 87.4302 32.8615C87.5925 32.9675 87.8118 33.0205 88.0874 33.0205C88.2358 33.0205 88.3418 33.0629 88.4054 33.1477C88.4763 33.2254 88.5114 33.3208 88.5114 33.4339C88.5114 33.547 88.4617 33.653 88.363 33.7519C88.2643 33.8437 88.1371 33.8897 87.9814 33.8897C87.7132 33.8897 87.4865 33.8473 87.303 33.7625C87.1261 33.6777 86.9818 33.5646 86.8685 33.4233C86.7975 33.819 86.6491 34.1793 86.4233 34.5044C86.1974 34.8295 85.9324 35.1121 85.6283 35.3524C85.3242 35.5997 85.0135 35.8011 84.6955 35.9566C84.3776 36.1121 84.0881 36.2251 83.8264 36.2958ZM85.5117 29.0244C85.3633 29.0244 85.2361 28.975 85.1301 28.8761C85.0315 28.7701 84.9817 28.6464 84.9817 28.5051C84.9817 28.3638 85.0315 28.2401 85.1301 28.1341C85.2361 28.0281 85.3633 27.9751 85.5117 27.9751C85.6528 27.9751 85.7734 28.0281 85.8721 28.1341C85.9781 28.2401 86.0311 28.3638 86.0311 28.5051C86.0311 28.6464 85.9781 28.7701 85.8721 28.8761C85.7734 28.975 85.6528 29.0244 85.5117 29.0244ZM87.9863 33.8897L88.0923 33.0205C88.3255 33.0205 88.5905 33.0205 88.8873 33.0205C89.1914 33.0134 89.4841 32.9993 89.767 32.9781C90.05 32.9498 90.2726 32.9074 90.4348 32.8509C90.6607 32.7732 90.8409 32.6742 90.9754 32.5541C91.1164 32.4269 91.2224 32.2644 91.2934 32.0665C91.1662 32.1089 91.0284 32.1407 90.88 32.1619C90.7389 32.176 90.5971 32.1831 90.456 32.1831C89.9122 32.1831 89.4947 32.0559 89.2053 31.8015C88.9158 31.5471 88.7707 31.2257 88.7707 30.837C88.7707 30.5685 88.8131 30.2999 88.8979 30.0314C88.9827 29.7558 89.1025 29.5049 89.2583 29.2788C89.414 29.0527 89.6007 28.8725 89.82 28.7383C90.0394 28.597 90.2831 28.5263 90.5514 28.5263C90.933 28.5263 91.2477 28.6535 91.4948 28.9079C91.7492 29.1551 91.9367 29.4767 92.0565 29.8724C92.1837 30.2681 92.2473 30.6886 92.2473 31.1338C92.2473 31.6637 92.1552 32.1195 91.9717 32.5011C91.7948 32.8756 91.498 33.1866 91.0814 33.4339C90.8621 33.5611 90.5865 33.66 90.2546 33.7307C89.9293 33.7943 89.573 33.8367 89.1841 33.8579C88.7951 33.8791 88.3964 33.8897 87.9863 33.8897ZM89.608 30.625C89.608 30.8441 89.679 31.0207 89.82 31.155C89.9611 31.2822 90.2049 31.3458 90.5514 31.3458C90.8555 31.3458 91.145 31.3034 91.4206 31.2186C91.4206 31.1762 91.4206 31.1267 91.4206 31.0702C91.4206 30.7805 91.3814 30.5084 91.304 30.254C91.2265 29.9925 91.1164 29.7841 90.9754 29.6286C90.8343 29.4731 90.6647 29.3954 90.4666 29.3954C90.297 29.3954 90.1486 29.459 90.0214 29.5862C89.8942 29.7063 89.7915 29.8618 89.714 30.0526C89.6431 30.2434 89.608 30.4342 89.608 30.625ZM90.35 27.4345C90.2016 27.4345 90.0744 27.385 89.9684 27.2861C89.8698 27.1801 89.82 27.0564 89.82 26.9151C89.82 26.7738 89.8698 26.6501 89.9684 26.5441C90.0744 26.4381 90.2016 26.3852 90.35 26.3852C90.4911 26.3852 90.6117 26.4381 90.7104 26.5441C90.8164 26.6501 90.8694 26.7738 90.8694 26.9151C90.8694 27.0564 90.8164 27.1801 90.7104 27.2861C90.6117 27.385 90.4911 27.4345 90.35 27.4345ZM93.7027 33.8367L93.4907 26.2686H94.3493L94.5613 33.8367H93.7027Z" fill="white"/>
</g>
<defs>
<clipPath id="clip0_568_294">
<rect width="173.67" height="44.8444" fill="white"/>
</clipPath>
</defs>
</svg>
