<svg width="174" height="22" viewBox="0 0 174 22" fill="none" xmlns="http://www.w3.org/2000/svg">
<g clip-path="url(#clip0_568_376)">
<path d="M162.923 0.214844H10.7468C4.93017 0.214844 0.214844 4.93017 0.214844 10.7468C0.214844 16.5635 4.93017 21.2788 10.7468 21.2788H162.923C168.74 21.2788 173.455 16.5635 173.455 10.7468C173.455 4.93017 168.74 0.214844 162.923 0.214844Z" fill="#1F1F1F"/>
<path d="M21.9236 9.45697H9.02734V7.30758C9.02734 6.14077 9.97385 5.1582 11.0978 5.1582H19.8531C20.9771 5.1582 21.9236 6.14077 21.9236 7.30758V9.45697Z" fill="#34A853"/>
<path d="M21.9236 11.2001H9.02734V9.05075C9.02734 7.88394 9.97385 6.90137 11.0978 6.90137H19.8531C20.9771 6.90137 21.9236 7.88394 21.9236 9.05075V11.2001Z" fill="#FBBC04"/>
<path d="M21.9236 13.0029H9.02734V10.8535C9.02734 9.68667 9.97385 8.7041 11.0978 8.7041H19.8531C20.9771 8.7041 21.9236 9.68667 21.9236 10.8535V13.0029Z" fill="#EA4335"/>
<path d="M9.02734 10.005L17.2127 11.8981C18.1549 12.1347 19.2148 11.8981 19.9804 11.3065L21.9236 9.88672V14.3235C21.9236 15.4475 20.9814 16.3349 19.8626 16.3349H11.0884C9.96955 16.3349 9.02734 15.4475 9.02734 14.3235V10.005Z" fill="url(#paint0_linear_568_376)"/>
<path d="M27.7773 13.756V7.60018H32.42V13.756H31.4743V8.49432H28.7231V13.756H27.7773ZM33.541 15.6131V11.6324C33.541 11.1452 33.6356 10.724 33.8247 10.3686C34.0196 10.0075 34.2832 9.72949 34.6157 9.53462C34.9538 9.334 35.335 9.23371 35.7592 9.23371C36.2406 9.23371 36.6447 9.3426 36.9714 9.56042C37.3038 9.77247 37.556 10.0591 37.728 10.4202C37.8999 10.7755 37.9859 11.1596 37.9859 11.5722C37.9859 12.025 37.8913 12.4263 37.7022 12.7759C37.5188 13.1255 37.2694 13.4006 36.9542 13.6013C36.6389 13.7961 36.2893 13.8936 35.9053 13.8936C35.5614 13.8936 35.2662 13.8219 35.0198 13.6786C34.779 13.5354 34.5956 13.3662 34.4695 13.1714H34.4179L34.4695 13.7732V15.6131H33.541ZM35.7334 13.0424C35.9683 13.0424 36.1862 12.9822 36.3868 12.8619C36.5874 12.7358 36.7507 12.5638 36.8768 12.346C37.0029 12.1282 37.066 11.8732 37.066 11.5808C37.066 11.2656 37 10.9962 36.8682 10.7727C36.7421 10.5491 36.5788 10.3801 36.3782 10.2654C36.1776 10.145 35.9626 10.0849 35.7334 10.0849C35.5213 10.0849 35.3149 10.1422 35.1143 10.2568C34.9137 10.3715 34.7475 10.5405 34.6157 10.7641C34.4838 10.9876 34.4179 11.2656 34.4179 11.598C34.4179 11.8732 34.4781 12.1225 34.5985 12.346C34.7189 12.5638 34.8793 12.7358 35.0799 12.8619C35.2805 12.9822 35.4984 13.0424 35.7334 13.0424ZM40.9031 13.8936C40.4503 13.8936 40.0519 13.7904 39.708 13.5841C39.3641 13.3777 39.0947 13.0997 38.8999 12.7501C38.705 12.4005 38.6076 12.005 38.6076 11.5636C38.6076 11.128 38.705 10.7354 38.8999 10.3858C39.0947 10.0304 39.3641 9.74956 39.708 9.54322C40.0519 9.33688 40.4503 9.23371 40.9031 9.23371C41.3502 9.23371 41.7457 9.33688 42.0896 9.54322C42.4335 9.74956 42.7028 10.0304 42.8977 10.3858C43.0925 10.7354 43.1901 11.128 43.1901 11.5636C43.1901 12.005 43.0925 12.4005 42.8977 12.7501C42.7028 13.0997 42.4335 13.3777 42.0896 13.5841C41.7457 13.7904 41.3502 13.8936 40.9031 13.8936ZM40.9031 13.0424C41.1438 13.0424 41.3674 12.9851 41.5737 12.8705C41.78 12.7501 41.9462 12.581 42.0724 12.3632C42.2042 12.1397 42.2701 11.8732 42.2701 11.5636C42.2701 11.2541 42.2042 10.9905 42.0724 10.7727C41.9462 10.5491 41.78 10.3801 41.5737 10.2654C41.3674 10.145 41.1438 10.0849 40.9031 10.0849C40.6624 10.0849 40.436 10.145 40.2239 10.2654C40.0176 10.3801 39.8484 10.5491 39.7166 10.7727C39.5905 10.9905 39.5275 11.2541 39.5275 11.5636C39.5275 11.8732 39.5905 12.1397 39.7166 12.3632C39.8484 12.581 40.0176 12.7501 40.2239 12.8705C40.436 12.9851 40.6624 13.0424 40.9031 13.0424ZM46.0484 13.8936C45.6069 13.8936 45.2174 13.7961 44.8791 13.6013C44.5408 13.4006 44.2773 13.1313 44.0881 12.7931C43.9046 12.4492 43.813 12.0623 43.813 11.6324C43.813 11.1968 43.9076 10.8099 44.0967 10.4718C44.2859 10.1336 44.5554 9.86705 44.9049 9.67218C45.2604 9.47156 45.6787 9.37127 46.1601 9.37127H48.834V10.1794H48.3267L47.6475 10.1193V10.1708C47.8483 10.3256 48.0086 10.5233 48.129 10.7641C48.2493 11.0048 48.3095 11.2856 48.3095 11.6066C48.3095 12.0365 48.2149 12.4234 48.0258 12.7673C47.8367 13.1112 47.5701 13.3863 47.2262 13.5927C46.8879 13.7933 46.4954 13.8936 46.0484 13.8936ZM46.057 13.0424C46.2921 13.0424 46.5096 12.9879 46.7104 12.8791C46.9111 12.7644 47.0745 12.6011 47.2004 12.389C47.3264 12.1769 47.3896 11.9219 47.3896 11.6238C47.3896 11.3143 47.3264 11.0535 47.2004 10.8414C47.0745 10.6236 46.9111 10.4574 46.7104 10.3428C46.5096 10.2281 46.2921 10.1708 46.057 10.1708C45.8278 10.1708 45.6099 10.2281 45.4036 10.3428C45.2028 10.4574 45.0395 10.6236 44.9135 10.8414C44.7931 11.0535 44.733 11.3143 44.733 11.6238C44.733 11.9219 44.7931 12.1769 44.9135 12.389C45.0395 12.6011 45.2028 12.7644 45.4036 12.8791C45.6099 12.9879 45.8278 13.0424 46.057 13.0424ZM51.6746 13.8936C51.2275 13.8936 50.835 13.7789 50.4967 13.5497C50.1644 13.3147 49.9035 12.9622 49.7144 12.4922C49.5312 12.0164 49.4392 11.4204 49.4392 10.7039C49.4392 9.99317 49.5312 9.40278 49.7144 8.9328C49.9035 8.46281 50.1644 8.11315 50.4967 7.8839C50.835 7.64889 51.2275 7.5314 51.6746 7.5314C52.1217 7.5314 52.5116 7.64889 52.8439 7.8839C53.1822 8.11315 53.4457 8.46281 53.6348 8.9328C53.824 9.40278 53.9185 9.99317 53.9185 10.7039C53.9185 11.4204 53.824 12.0164 53.6348 12.4922C53.4457 12.9622 53.1822 13.3147 52.8439 13.5497C52.5116 13.7789 52.1217 13.8936 51.6746 13.8936ZM51.6746 8.38256C51.4571 8.38256 51.2533 8.43702 51.0642 8.54591C50.881 8.6548 50.7263 8.84682 50.5999 9.12194C50.4739 9.39706 50.3966 9.78395 50.3678 10.2826H52.9814C52.9586 9.78395 52.8843 9.39706 52.7579 9.12194C52.6319 8.84682 52.4742 8.6548 52.285 8.54591C52.0959 8.43702 51.8925 8.38256 51.6746 8.38256ZM51.6746 13.0424C51.8925 13.0424 52.0933 12.9822 52.2764 12.8619C52.4656 12.7415 52.6203 12.5409 52.7407 12.26C52.8671 11.9734 52.947 11.5837 52.9814 11.0908H50.3764C50.4052 11.5837 50.4795 11.9734 50.5999 12.26C50.7263 12.5466 50.881 12.7501 51.0642 12.8705C51.2533 12.9851 51.4571 13.0424 51.6746 13.0424ZM54.8088 13.756V9.37127H55.6858V9.9731H55.7374C55.8637 9.76104 56.0499 9.58621 56.2962 9.44865C56.5485 9.30537 56.8237 9.23371 57.1216 9.23371C57.6606 9.23371 58.0647 9.39418 58.3338 9.71517C58.6033 10.0362 58.7379 10.4603 58.7379 10.9876V15.6131H57.818V11.108C57.818 10.7526 57.7294 10.4947 57.5514 10.3342C57.3739 10.168 57.1418 10.0849 56.855 10.0849C56.6315 10.0849 56.4368 10.1479 56.2704 10.274C56.1045 10.3944 55.9725 10.5549 55.8749 10.7555C55.7833 10.9561 55.7374 11.171 55.7374 11.4003V13.756H54.8088ZM56.2618 8.52871L56.5799 7.1875H57.6804L57.0442 8.52871H56.2618ZM59.7962 13.756V9.37127H60.7248V11.2369L62.5818 9.37127H63.7339V9.42286L62.0402 11.0994L63.7941 13.7044V13.756H62.6936L61.3954 11.7442L60.7248 12.3976V13.756H59.7962ZM64.3718 13.756V9.37127H65.2488V9.9731H65.3004C65.4268 9.76104 65.6129 9.58621 65.8592 9.44865C66.1116 9.30537 66.3867 9.23371 66.6846 9.23371C67.2236 9.23371 67.6277 9.39418 67.8968 9.71517C68.1664 10.0362 68.3009 10.4603 68.3009 10.9876V15.6131H67.381V11.108C67.381 10.7526 67.2924 10.4947 67.1145 10.3342C66.9369 10.168 66.7048 10.0849 66.4181 10.0849C66.1945 10.0849 65.9998 10.1479 65.8334 10.274C65.6675 10.3944 65.5355 10.5549 65.4379 10.7555C65.3464 10.9561 65.3004 11.171 65.3004 11.4003V13.756H64.3718ZM73.3692 13.8936C72.9277 13.8936 72.5378 13.7961 72.1999 13.6013C71.8616 13.4006 71.5981 13.1313 71.4089 12.7931C71.2254 12.4492 71.1338 12.0623 71.1338 11.6324C71.1338 11.1968 71.2284 10.8099 71.4175 10.4718C71.6067 10.1336 71.8758 9.86705 72.2257 9.67218C72.5808 9.47156 72.9995 9.37127 73.4809 9.37127H76.1548V10.1794H75.6475L74.9683 10.1193V10.1708C75.1686 10.3256 75.3294 10.5233 75.4498 10.7641C75.5701 11.0048 75.6303 11.2856 75.6303 11.6066C75.6303 12.0365 75.5357 12.4234 75.3466 12.7673C75.1574 13.1112 74.8909 13.3863 74.547 13.5927C74.2087 13.7933 73.8162 13.8936 73.3692 13.8936ZM73.3778 13.0424C73.6125 13.0424 73.8304 12.9879 74.0312 12.8791C74.2315 12.7644 74.3948 12.6011 74.5212 12.389C74.6472 12.1769 74.7104 11.9219 74.7104 11.6238C74.7104 11.3143 74.6472 11.0535 74.5212 10.8414C74.3948 10.6236 74.2315 10.4574 74.0312 10.3428C73.8304 10.2281 73.6125 10.1708 73.3778 10.1708C73.1482 10.1708 72.9307 10.2281 72.7243 10.3428C72.5236 10.4574 72.3602 10.6236 72.2343 10.8414C72.1139 11.0535 72.0537 11.3143 72.0537 11.6238C72.0537 11.9219 72.1139 12.1769 72.2343 12.389C72.3602 12.6011 72.5236 12.7644 72.7243 12.8791C72.9307 12.9879 73.1482 13.0424 73.3778 13.0424ZM79.3909 13.8248C78.9898 13.8248 78.6657 13.7101 78.4193 13.4809C78.173 13.2516 78.0496 12.922 78.0496 12.4922V10.1794H76.6483V9.37127H80.6203V10.1794H78.9696V12.2944C78.9696 12.518 79.0156 12.6842 79.1071 12.7931C79.2047 12.902 79.3565 12.9564 79.5628 12.9564C79.6716 12.9564 79.7636 12.9421 79.8379 12.9135C79.9183 12.8791 79.9957 12.839 80.0701 12.7931V13.6958C79.8637 13.7818 79.6372 13.8248 79.3909 13.8248ZM83.4794 13.8936C83.0263 13.8936 82.6283 13.7904 82.2844 13.5841C81.9405 13.3777 81.6709 13.0997 81.4762 12.7501C81.281 12.4005 81.1839 12.005 81.1839 11.5636C81.1839 11.128 81.281 10.7354 81.4762 10.3858C81.6709 10.0304 81.9405 9.74956 82.2844 9.54322C82.6283 9.33688 83.0263 9.23371 83.4794 9.23371C83.9265 9.23371 84.322 9.33688 84.6659 9.54322C85.0098 9.74956 85.2789 10.0304 85.474 10.3858C85.6688 10.7354 85.7664 11.128 85.7664 11.5636C85.7664 12.005 85.6688 12.4005 85.474 12.7501C85.2789 13.0997 85.0098 13.3777 84.6659 13.5841C84.322 13.7904 83.9265 13.8936 83.4794 13.8936ZM83.4794 13.0424C83.7201 13.0424 83.9437 12.9851 84.15 12.8705C84.3564 12.7501 84.5223 12.581 84.6487 12.3632C84.7802 12.1397 84.8464 11.8732 84.8464 11.5636C84.8464 11.2541 84.7802 10.9905 84.6487 10.7727C84.5223 10.5491 84.3564 10.3801 84.15 10.2654C83.9437 10.145 83.7201 10.0849 83.4794 10.0849C83.2387 10.0849 83.0121 10.145 82.8002 10.2654C82.5939 10.3801 82.4245 10.5491 82.293 10.7727C82.1666 10.9905 82.1038 11.2541 82.1038 11.5636C82.1038 11.8732 82.1666 12.1397 82.293 12.3632C82.4245 12.581 82.5939 12.7501 82.8002 12.8705C83.0121 12.9851 83.2387 13.0424 83.4794 13.0424Z" fill="white"/>
<path d="M89.25 13.756V7.60018H93.8927V13.756H92.9469V8.49432H90.1957V13.756H89.25ZM97.1116 13.8936C96.6585 13.8936 96.2604 13.7904 95.9165 13.5841C95.5726 13.3777 95.3031 13.0997 95.1084 12.7501C94.9132 12.4005 94.816 12.005 94.816 11.5636C94.816 11.128 94.9132 10.7354 95.1084 10.3858C95.3031 10.0304 95.5726 9.74956 95.9165 9.54322C96.2604 9.33688 96.6585 9.23371 97.1116 9.23371C97.5587 9.23371 97.9541 9.33688 98.298 9.54322C98.6419 9.74956 98.911 10.0304 99.1062 10.3858C99.3009 10.7354 99.3985 11.128 99.3985 11.5636C99.3985 12.005 99.3009 12.4005 99.1062 12.7501C98.911 13.0997 98.6419 13.3777 98.298 13.5841C97.9541 13.7904 97.5587 13.8936 97.1116 13.8936ZM97.1116 13.0424C97.3523 13.0424 97.5758 12.9851 97.7822 12.8705C97.9885 12.7501 98.1545 12.581 98.2808 12.3632C98.4124 12.1397 98.4786 11.8732 98.4786 11.5636C98.4786 11.2541 98.4124 10.9905 98.2808 10.7727C98.1545 10.5491 97.9885 10.3801 97.7822 10.2654C97.5758 10.145 97.3523 10.0849 97.1116 10.0849C96.8708 10.0849 96.6443 10.145 96.4324 10.2654C96.226 10.3801 96.0567 10.5491 95.9251 10.7727C95.7987 10.9905 95.736 11.2541 95.736 11.5636C95.736 11.8732 95.7987 12.1397 95.9251 12.3632C96.0567 12.581 96.226 12.7501 96.4324 12.8705C96.6443 12.9851 96.8708 13.0424 97.1116 13.0424ZM100.135 15.6131V11.6324C100.135 11.1452 100.23 10.724 100.419 10.3686C100.614 10.0075 100.877 9.72949 101.21 9.53462C101.548 9.334 101.929 9.23371 102.353 9.23371C102.835 9.23371 103.239 9.3426 103.566 9.56042C103.898 9.77248 104.15 10.0591 104.322 10.4202C104.494 10.7755 104.58 11.1596 104.58 11.5722C104.58 12.025 104.486 12.4263 104.297 12.7759C104.113 13.1255 103.864 13.4006 103.549 13.6013C103.233 13.7961 102.884 13.8936 102.5 13.8936C102.156 13.8936 101.86 13.8219 101.614 13.6786C101.373 13.5354 101.19 13.3662 101.064 13.1714H101.012L101.064 13.7732V15.6131H100.135ZM102.328 13.0424C102.562 13.0424 102.78 12.9822 102.981 12.8619C103.181 12.7358 103.345 12.5638 103.471 12.346C103.597 12.1282 103.66 11.8732 103.66 11.5808C103.66 11.2656 103.594 10.9962 103.463 10.7727C103.336 10.5491 103.173 10.3801 102.973 10.2654C102.772 10.145 102.557 10.0849 102.328 10.0849C102.115 10.0849 101.909 10.1422 101.709 10.2568C101.508 10.3715 101.342 10.5405 101.21 10.7641C101.078 10.9876 101.012 11.2656 101.012 11.598C101.012 11.8732 101.072 12.1225 101.193 12.346C101.313 12.5638 101.474 12.7358 101.674 12.8619C101.875 12.9822 102.093 13.0424 102.328 13.0424ZM107.792 13.8248C107.39 13.8248 107.067 13.7101 106.82 13.4809C106.574 13.2516 106.451 12.922 106.451 12.4922V10.1794H105.049V9.37127H109.021V10.1794H107.371V12.2944C107.371 12.518 107.416 12.6842 107.508 12.7931C107.605 12.902 107.757 12.9564 107.964 12.9564C108.073 12.9564 108.164 12.9421 108.239 12.9135C108.319 12.8791 108.396 12.839 108.471 12.7931V13.6958C108.265 13.7818 108.038 13.8248 107.792 13.8248ZM111.88 13.8936C111.427 13.8936 111.029 13.7904 110.685 13.5841C110.341 13.3777 110.071 13.0997 109.877 12.7501C109.682 12.4005 109.584 12.005 109.584 11.5636C109.584 11.128 109.682 10.7354 109.877 10.3858C110.071 10.0304 110.341 9.74956 110.685 9.54322C111.029 9.33688 111.427 9.23371 111.88 9.23371C112.327 9.23371 112.723 9.33688 113.066 9.54322C113.41 9.74956 113.68 10.0304 113.875 10.3858C114.069 10.7354 114.167 11.128 114.167 11.5636C114.167 12.005 114.069 12.4005 113.875 12.7501C113.68 13.0997 113.41 13.3777 113.066 13.5841C112.723 13.7904 112.327 13.8936 111.88 13.8936ZM111.88 13.0424C112.121 13.0424 112.344 12.9851 112.551 12.8705C112.757 12.7501 112.923 12.581 113.049 12.3632C113.181 12.1397 113.247 11.8732 113.247 11.5636C113.247 11.2541 113.181 10.9905 113.049 10.7727C112.923 10.5491 112.757 10.3801 112.551 10.2654C112.344 10.145 112.121 10.0849 111.88 10.0849C111.639 10.0849 111.413 10.145 111.201 10.2654C110.994 10.3801 110.825 10.5491 110.694 10.7727C110.568 10.9905 110.504 11.2541 110.504 11.5636C110.504 11.8732 110.568 12.1397 110.694 12.3632C110.825 12.581 110.994 12.7501 111.201 12.8705C111.413 12.9851 111.639 13.0424 111.88 13.0424ZM114.79 11.5636C114.79 11.151 114.873 10.7755 115.04 10.4374C115.212 10.0992 115.475 9.82406 115.831 9.612C116.186 9.39418 116.641 9.2595 117.198 9.20792V8.13323H118.126V9.20792C118.682 9.2595 119.135 9.39418 119.484 9.612C119.84 9.82406 120.101 10.0992 120.267 10.4374C120.439 10.7755 120.525 11.151 120.525 11.5636C120.525 11.9591 120.439 12.3259 120.267 12.6641C120.101 13.0023 119.84 13.2831 119.484 13.5067C119.129 13.7302 118.676 13.8678 118.126 13.9194V15.6131H117.198V13.9194C116.641 13.8678 116.186 13.7302 115.831 13.5067C115.475 13.2831 115.212 13.0023 115.04 12.6641C114.873 12.3259 114.79 11.9591 114.79 11.5636ZM119.605 11.5636C119.605 11.128 119.487 10.7755 119.252 10.5061C119.023 10.231 118.648 10.0648 118.126 10.0075V13.1198C118.642 13.0567 119.017 12.8848 119.252 12.6039C119.487 12.3173 119.605 11.9706 119.605 11.5636ZM115.719 11.5636C115.719 11.9648 115.833 12.3087 116.063 12.5953C116.292 12.8762 116.67 13.051 117.198 13.1198V10.0075C116.676 10.0706 116.297 10.2396 116.063 10.5147C115.833 10.7841 115.719 11.1338 115.719 11.5636ZM123.441 13.8936C122.988 13.8936 122.59 13.7904 122.246 13.5841C121.903 13.3777 121.633 13.0997 121.438 12.7501C121.243 12.4005 121.146 12.005 121.146 11.5636C121.146 11.128 121.243 10.7354 121.438 10.3858C121.633 10.0304 121.903 9.74956 122.246 9.54322C122.59 9.33688 122.988 9.23371 123.441 9.23371C123.889 9.23371 124.284 9.33688 124.628 9.54322C124.972 9.74956 125.241 10.0304 125.436 10.3858C125.631 10.7354 125.728 11.128 125.728 11.5636C125.728 12.005 125.631 12.4005 125.436 12.7501C125.241 13.0997 124.972 13.3777 124.628 13.5841C124.284 13.7904 123.889 13.8936 123.441 13.8936ZM123.441 13.0424C123.682 13.0424 123.906 12.9851 124.112 12.8705C124.318 12.7501 124.484 12.581 124.611 12.3632C124.742 12.1397 124.809 11.8732 124.809 11.5636C124.809 11.2541 124.742 10.9905 124.611 10.7727C124.484 10.5491 124.318 10.3801 124.112 10.2654C123.906 10.145 123.682 10.0849 123.441 10.0849C123.201 10.0849 122.974 10.145 122.762 10.2654C122.556 10.3801 122.387 10.5491 122.255 10.7727C122.129 10.9905 122.066 11.2541 122.066 11.5636C122.066 11.8732 122.129 12.1397 122.255 12.3632C122.387 12.581 122.556 12.7501 122.762 12.8705C122.974 12.9851 123.201 13.0424 123.441 13.0424ZM123.046 8.52871L123.364 7.1875H124.465L123.828 8.52871H123.046ZM125.943 13.756L127.765 9.64639L127.447 8.96719C127.344 8.74365 127.244 8.59461 127.146 8.52012C127.049 8.43986 126.926 8.39975 126.776 8.39975C126.639 8.39975 126.507 8.43702 126.381 8.51152V7.60878C126.461 7.58587 126.547 7.56867 126.639 7.55719C126.731 7.54 126.837 7.5314 126.957 7.5314C127.192 7.5314 127.384 7.56579 127.533 7.63457C127.688 7.70335 127.82 7.82084 127.929 7.98707C128.043 8.14754 128.158 8.36248 128.272 8.63188L130.499 13.756H129.485L128.272 10.7641H128.229L126.974 13.756H125.943ZM132.332 13.8248C131.919 13.8248 131.592 13.7073 131.352 13.4723C131.111 13.2316 130.991 12.902 130.991 12.4836V9.37127H131.919V12.2858C131.919 12.5037 131.965 12.6698 132.057 12.7845C132.148 12.8991 132.297 12.9564 132.504 12.9564C132.612 12.9564 132.704 12.9421 132.779 12.9135C132.859 12.8848 132.939 12.8447 133.02 12.7931V13.6958C132.922 13.7359 132.819 13.7675 132.71 13.7904C132.601 13.8133 132.475 13.8248 132.332 13.8248ZM138.721 13.8936C138.279 13.8936 137.863 13.8133 137.474 13.6528C137.09 13.4924 136.749 13.2688 136.451 12.9822C136.153 12.6899 135.918 12.3489 135.746 11.9591C135.579 11.5636 135.497 11.1366 135.497 10.6781C135.497 10.2195 135.579 9.79543 135.746 9.40566C135.918 9.01018 136.15 8.66915 136.442 8.38256C136.74 8.09024 137.084 7.86382 137.474 7.70335C137.863 7.54288 138.279 7.46262 138.721 7.46262C139.19 7.46262 139.623 7.54572 140.019 7.71195C140.42 7.87818 140.755 8.11032 141.025 8.40835L140.371 9.05316C140.171 8.82963 139.93 8.65768 139.649 8.53731C139.374 8.41695 139.064 8.35676 138.721 8.35676C138.313 8.35676 137.938 8.45422 137.594 8.64908C137.25 8.83823 136.972 9.10763 136.76 9.45725C136.554 9.80115 136.451 10.2081 136.451 10.6781C136.451 11.1481 136.557 11.5579 136.769 11.9075C136.981 12.2514 137.259 12.5208 137.603 12.7157C137.947 12.9049 138.322 12.9994 138.729 12.9994C139.101 12.9994 139.44 12.9306 139.744 12.7931C140.047 12.6498 140.291 12.4492 140.474 12.1913C140.664 11.9333 140.778 11.6238 140.818 11.2627H138.712V10.4288H141.704C141.738 10.5835 141.756 10.7469 141.756 10.9188V10.9274C141.756 11.5235 141.624 12.0451 141.36 12.4922C141.102 12.9335 140.744 13.2774 140.285 13.5239C139.827 13.7703 139.305 13.8936 138.721 13.8936ZM144.524 13.8936C144.071 13.8936 143.673 13.7904 143.329 13.5841C142.985 13.3777 142.715 13.0997 142.521 12.7501C142.326 12.4005 142.228 12.005 142.228 11.5636C142.228 11.128 142.326 10.7354 142.521 10.3858C142.715 10.0304 142.985 9.74956 143.329 9.54322C143.673 9.33688 144.071 9.23371 144.524 9.23371C144.971 9.23371 145.366 9.33688 145.71 9.54322C146.054 9.74956 146.323 10.0304 146.519 10.3858C146.713 10.7354 146.811 11.128 146.811 11.5636C146.811 12.005 146.713 12.4005 146.519 12.7501C146.323 13.0997 146.054 13.3777 145.71 13.5841C145.366 13.7904 144.971 13.8936 144.524 13.8936ZM144.524 13.0424C144.765 13.0424 144.988 12.9851 145.195 12.8705C145.401 12.7501 145.567 12.581 145.693 12.3632C145.825 12.1397 145.891 11.8732 145.891 11.5636C145.891 11.2541 145.825 10.9905 145.693 10.7727C145.567 10.5491 145.401 10.3801 145.195 10.2654C144.988 10.145 144.765 10.0849 144.524 10.0849C144.283 10.0849 144.057 10.145 143.845 10.2654C143.638 10.3801 143.469 10.5491 143.337 10.7727C143.211 10.9905 143.148 11.2541 143.148 11.5636C143.148 11.8732 143.211 12.1397 143.337 12.3632C143.469 12.581 143.638 12.7501 143.845 12.8705C144.057 12.9851 144.283 13.0424 144.524 13.0424ZM149.729 13.8936C149.277 13.8936 148.878 13.7904 148.534 13.5841C148.19 13.3777 147.921 13.0997 147.726 12.7501C147.531 12.4005 147.434 12.005 147.434 11.5636C147.434 11.128 147.531 10.7354 147.726 10.3858C147.921 10.0304 148.19 9.74956 148.534 9.54322C148.878 9.33688 149.277 9.23371 149.729 9.23371C150.176 9.23371 150.572 9.33688 150.916 9.54322C151.26 9.74956 151.529 10.0304 151.724 10.3858C151.919 10.7354 152.016 11.128 152.016 11.5636C152.016 12.005 151.919 12.4005 151.724 12.7501C151.529 13.0997 151.26 13.3777 150.916 13.5841C150.572 13.7904 150.176 13.8936 149.729 13.8936ZM149.729 13.0424C149.97 13.0424 150.194 12.9851 150.4 12.8705C150.606 12.7501 150.773 12.581 150.899 12.3632C151.031 12.1397 151.096 11.8732 151.096 11.5636C151.096 11.2541 151.031 10.9905 150.899 10.7727C150.773 10.5491 150.606 10.3801 150.4 10.2654C150.194 10.145 149.97 10.0849 149.729 10.0849C149.489 10.0849 149.262 10.145 149.05 10.2654C148.844 10.3801 148.675 10.5491 148.543 10.7727C148.417 10.9905 148.354 11.2541 148.354 11.5636C148.354 11.8732 148.417 12.1397 148.543 12.3632C148.675 12.581 148.844 12.7501 149.05 12.8705C149.262 12.9851 149.489 13.0424 149.729 13.0424ZM154.849 15.7506C154.465 15.7506 154.133 15.6876 153.851 15.5615C153.576 15.4411 153.353 15.2835 153.181 15.0886C153.009 14.8995 152.886 14.7046 152.811 14.504L153.671 14.1429C153.763 14.3722 153.909 14.5585 154.109 14.7017C154.316 14.8508 154.562 14.9253 154.849 14.9253C155.25 14.9253 155.565 14.8049 155.794 14.5642C156.03 14.3234 156.147 13.9824 156.147 13.5411V13.1198H156.095C155.958 13.3261 155.766 13.4924 155.519 13.6184C155.279 13.7388 155.003 13.799 154.694 13.799C154.322 13.799 153.98 13.7044 153.671 13.5153C153.361 13.3261 153.112 13.0625 152.923 12.7243C152.734 12.3804 152.639 11.9792 152.639 11.5207C152.639 11.0564 152.734 10.6552 152.923 10.317C153.112 9.9731 153.361 9.70657 153.671 9.51743C153.98 9.32828 154.322 9.23371 154.694 9.23371C155.003 9.23371 155.279 9.29677 155.519 9.42286C155.766 9.54894 155.958 9.71517 156.095 9.92151H156.147V9.37127H157.032V13.5239C157.032 13.9996 156.938 14.4037 156.749 14.7361C156.566 15.0686 156.31 15.3208 155.984 15.4927C155.657 15.6647 155.279 15.7506 154.849 15.7506ZM154.857 12.9564C155.087 12.9564 155.299 12.902 155.493 12.7931C155.689 12.6784 155.846 12.5151 155.966 12.303C156.087 12.0852 156.147 11.8244 156.147 11.5207C156.147 11.2054 156.087 10.9417 155.966 10.7297C155.846 10.5119 155.689 10.3485 155.493 10.2396C155.299 10.1307 155.087 10.0763 154.857 10.0763C154.628 10.0763 154.413 10.1336 154.212 10.2482C154.018 10.3571 153.86 10.5176 153.74 10.7297C153.619 10.9417 153.559 11.2054 153.559 11.5207C153.559 11.8302 153.619 12.0938 153.74 12.3116C153.86 12.5237 154.018 12.6842 154.212 12.7931C154.413 12.902 154.628 12.9564 154.857 12.9564ZM158.127 13.756V7.60018H159.056V13.756H158.127ZM162.112 13.8936C161.682 13.8936 161.298 13.7933 160.96 13.5927C160.622 13.392 160.355 13.1169 160.16 12.7673C159.971 12.4177 159.877 12.0193 159.877 11.5722C159.877 11.1538 159.969 10.767 160.152 10.4116C160.335 10.0562 160.59 9.77248 160.917 9.56042C161.25 9.3426 161.63 9.23371 162.06 9.23371C162.513 9.23371 162.897 9.33116 163.212 9.52603C163.533 9.72089 163.777 9.98741 163.943 10.3256C164.11 10.6638 164.192 11.0449 164.192 11.4691C164.192 11.5321 164.19 11.5894 164.184 11.641C164.184 11.6926 164.181 11.7327 164.175 11.7614H160.788C160.834 12.197 160.986 12.5237 161.244 12.7415C161.507 12.9593 161.805 13.0682 162.138 13.0682C162.436 13.0682 162.682 13.0023 162.877 12.8705C163.072 12.7329 163.227 12.5638 163.341 12.3632L164.106 12.7329C163.917 13.0768 163.659 13.3576 163.333 13.5755C163.006 13.7875 162.599 13.8936 162.112 13.8936ZM162.069 10.0247C161.759 10.0247 161.496 10.1193 161.278 10.3084C161.06 10.4975 160.914 10.7498 160.839 11.065H163.273C163.261 10.9159 163.212 10.7612 163.126 10.6007C163.04 10.4402 162.909 10.3055 162.731 10.1966C162.559 10.082 162.338 10.0247 162.069 10.0247Z" fill="white"/>
<path d="M162.923 0.214844H10.7468C4.93017 0.214844 0.214844 4.93017 0.214844 10.7468C0.214844 16.5635 4.93017 21.2788 10.7468 21.2788H162.923C168.74 21.2788 173.455 16.5635 173.455 10.7468C173.455 4.93017 168.74 0.214844 162.923 0.214844Z" stroke="#747775"/>
</g>
<defs>
<linearGradient id="paint0_linear_568_376" x1="14.8609" y1="13.2339" x2="8.05191" y2="21.0262" gradientUnits="userSpaceOnUse">
<stop stop-color="#4285F4"/>
<stop offset="1" stop-color="#1B74E8"/>
</linearGradient>
<clipPath id="clip0_568_376">
<rect width="173.67" height="21.4938" fill="white"/>
</clipPath>
</defs>
</svg>
