<svg width="174" height="25" viewBox="0 0 174 25" fill="none" xmlns="http://www.w3.org/2000/svg">
<g clip-path="url(#clip0_568_735)">
<path d="M161.645 0.240234H12.0287C5.51917 0.240234 0.242188 5.51722 0.242188 12.0267C0.242188 18.5362 5.51917 23.8132 12.0287 23.8132H161.645C168.154 23.8132 173.431 18.5362 173.431 12.0267C173.431 5.51722 168.154 0.240234 161.645 0.240234Z" fill="#1F1F1F"/>
<path d="M24.534 10.5842H10.1016V8.17884C10.1016 6.87304 11.1608 5.77344 12.4187 5.77344H22.2168C23.4747 5.77344 24.534 6.87304 24.534 8.17884V10.5842Z" fill="#34A853"/>
<path d="M24.534 12.5335H10.1016V10.1281C10.1016 8.82226 11.1608 7.72266 12.4187 7.72266H22.2168C23.4747 7.72266 24.534 8.82226 24.534 10.1281V12.5335Z" fill="#FBBC04"/>
<path d="M24.534 14.551H10.1016V12.1456C10.1016 10.8398 11.1608 9.74023 12.4187 9.74023H22.2168C23.4747 9.74023 24.534 10.8398 24.534 12.1456V14.551Z" fill="#EA4335"/>
<path d="M10.1016 11.1968L19.2619 13.3154C20.3163 13.5802 21.5025 13.3154 22.3592 12.6534L24.534 11.0645V16.0297C24.534 17.2876 23.4795 18.2807 22.2274 18.2807H12.4081C11.156 18.2807 10.1016 17.2876 10.1016 16.0297V11.1968Z" fill="url(#paint0_linear_568_735)"/>
<path d="M32.4925 15.3949V9.50651H30.5586V8.50586H35.4656V9.50651H33.5413V15.3949H32.4925ZM37.8561 15.5489C37.3493 15.5489 36.9035 15.4334 36.5186 15.2025C36.1338 14.9716 35.8323 14.6605 35.6142 14.2692C35.3961 13.8779 35.2871 13.4353 35.2871 12.9414C35.2871 12.4539 35.3961 12.0145 35.6142 11.6233C35.8323 11.2256 36.1338 10.9113 36.5186 10.6803C36.9035 10.4494 37.3493 10.334 37.8561 10.334C38.3564 10.334 38.799 10.4494 39.1838 10.6803C39.5687 10.9113 39.8702 11.2256 40.0883 11.6233C40.3063 12.0145 40.4154 12.4539 40.4154 12.9414C40.4154 13.4353 40.3063 13.8779 40.0883 14.2692C39.8702 14.6605 39.5687 14.9716 39.1838 15.2025C38.799 15.4334 38.3564 15.5489 37.8561 15.5489ZM37.8561 14.5963C38.1255 14.5963 38.3756 14.5322 38.6065 14.4039C38.8375 14.2692 39.0235 14.08 39.1646 13.8362C39.3121 13.5861 39.3859 13.2878 39.3859 12.9414C39.3859 12.595 39.3121 12.3 39.1646 12.0562C39.0235 11.8061 38.8375 11.6169 38.6065 11.4886C38.3756 11.3539 38.1255 11.2865 37.8561 11.2865C37.5866 11.2865 37.3333 11.3539 37.0959 11.4886C36.865 11.6169 36.6758 11.8061 36.5283 12.0562C36.3872 12.3 36.3166 12.595 36.3166 12.9414C36.3166 13.2878 36.3872 13.5861 36.5283 13.8362C36.6758 14.08 36.865 14.2692 37.0959 14.4039C37.3333 14.5322 37.5866 14.5963 37.8561 14.5963ZM43.6143 15.5489C43.1332 15.5489 42.7034 15.4366 42.325 15.2121C41.9465 14.9876 41.6483 14.6797 41.4302 14.2884C41.2185 13.8972 41.1127 13.4514 41.1127 12.951C41.1127 12.4828 41.2153 12.0498 41.4206 11.6521C41.6258 11.2544 41.9113 10.9369 42.2769 10.6996C42.6489 10.4558 43.0755 10.334 43.5566 10.334C44.0633 10.334 44.493 10.443 44.8459 10.6611C45.205 10.8792 45.4777 11.1774 45.6637 11.5559C45.8497 11.9344 45.9427 12.3609 45.9427 12.8356C45.9427 12.9062 45.9395 12.9703 45.9331 13.028C45.9331 13.0857 45.9299 13.1306 45.9235 13.1627H42.1326C42.1839 13.6502 42.3539 14.0158 42.6425 14.2596C42.9376 14.5033 43.2711 14.6252 43.6432 14.6252C43.9767 14.6252 44.2525 14.5515 44.4706 14.4039C44.6887 14.25 44.8619 14.0607 44.9902 13.8362L45.8465 14.25C45.6348 14.6348 45.3462 14.9491 44.9806 15.1929C44.6149 15.4302 44.1595 15.5489 43.6143 15.5489ZM43.5662 11.2192C43.2198 11.2192 42.9247 11.325 42.681 11.5367C42.4372 11.7483 42.2737 12.0306 42.1903 12.3834H44.9132C44.9004 12.2166 44.8459 12.0434 44.7496 11.8638C44.6534 11.6842 44.5059 11.5334 44.307 11.4116C44.1146 11.2833 43.8676 11.2192 43.5662 11.2192ZM48.3042 15.3949L46.274 10.4879H47.4286L48.8045 14.0575H48.8526L50.2574 10.4879H51.3927L49.3433 15.3949H48.3042ZM54.2335 15.5489C53.7269 15.5489 53.281 15.4334 52.8961 15.2025C52.5113 14.9716 52.2096 14.6605 51.9917 14.2692C51.7738 13.8779 51.6645 13.4353 51.6645 12.9414C51.6645 12.4539 51.7738 12.0145 51.9917 11.6233C52.2096 11.2256 52.5113 10.9113 52.8961 10.6803C53.281 10.4494 53.7269 10.334 54.2335 10.334C54.7338 10.334 55.1764 10.4494 55.5613 10.6803C55.9462 10.9113 56.2478 11.2256 56.4657 11.6233C56.6837 12.0145 56.7929 12.4539 56.7929 12.9414C56.7929 13.4353 56.6837 13.8779 56.4657 14.2692C56.2478 14.6605 55.9462 14.9716 55.5613 15.2025C55.1764 15.4334 54.7338 15.5489 54.2335 15.5489ZM54.2335 14.5963C54.5029 14.5963 54.7531 14.5322 54.984 14.4039C55.2149 14.2692 55.4011 14.08 55.5421 13.8362C55.6898 13.5861 55.7634 13.2878 55.7634 12.9414C55.7634 12.595 55.6898 12.3 55.5421 12.0562C55.4011 11.8061 55.2149 11.6169 54.984 11.4886C54.7531 11.3539 54.5029 11.2865 54.2335 11.2865C53.9641 11.2865 53.7106 11.3539 53.4734 11.4886C53.2425 11.6169 53.0534 11.8061 52.9057 12.0562C52.7648 12.3 52.6941 12.595 52.6941 12.9414C52.6941 13.2878 52.7648 13.5861 52.9057 13.8362C53.0534 14.08 53.2425 14.2692 53.4734 14.4039C53.7106 14.5322 53.9641 14.5963 54.2335 14.5963ZM59.9916 15.5489C59.5105 15.5489 59.0809 15.4366 58.7023 15.2121C58.3241 14.9876 58.0259 14.6797 57.8075 14.2884C57.5958 13.8972 57.49 13.4514 57.49 12.951C57.49 12.4828 57.5929 12.0498 57.7978 11.6521C58.0033 11.2544 58.2885 10.9369 58.6542 10.6996C59.0265 10.4558 59.4528 10.334 59.9338 10.334C60.4409 10.334 60.8705 10.443 61.2231 10.6611C61.5825 10.8792 61.8553 11.1774 62.041 11.5559C62.2271 11.9344 62.32 12.3609 62.32 12.8356C62.32 12.9062 62.3171 12.9703 62.3104 13.028C62.3104 13.0857 62.3075 13.1306 62.3008 13.1627H58.5098C58.5613 13.6502 58.7311 14.0158 59.0198 14.2596C59.3152 14.5033 59.6486 14.6252 60.0204 14.6252C60.3543 14.6252 60.63 14.5515 60.8479 14.4039C61.0663 14.25 61.2395 14.0607 61.3675 13.8362L62.2238 14.25C62.0121 14.6348 61.7235 14.9491 61.3578 15.1929C60.9922 15.4302 60.5371 15.5489 59.9916 15.5489ZM59.9435 11.2192C59.5971 11.2192 59.3022 11.325 59.0583 11.5367C58.8148 11.7483 58.6513 12.0306 58.5676 12.3834H61.2905C61.278 12.2166 61.2231 12.0434 61.1269 11.8638C61.0307 11.6842 60.8835 11.5334 60.6843 11.4116C60.4919 11.2833 60.2451 11.2192 59.9435 11.2192ZM65.5442 17.6271C65.1141 17.6271 64.7422 17.5566 64.4281 17.4155C64.1202 17.2808 63.87 17.1044 63.6776 16.8863C63.4852 16.6746 63.3471 16.4565 63.2639 16.232L64.226 15.8279C64.3285 16.0845 64.4921 16.293 64.7167 16.4533C64.9477 16.6201 65.2233 16.7035 65.5442 16.7035C65.993 16.7035 66.3457 16.5688 66.6026 16.2994C66.8652 16.03 66.9971 15.6483 66.9971 15.1544V14.6829H66.9393C66.7854 14.9138 66.5703 15.0999 66.2947 15.241C66.0253 15.3757 65.7174 15.443 65.371 15.443C64.9539 15.443 64.5724 15.3372 64.226 15.1255C63.8797 14.9138 63.6006 14.6188 63.389 14.2403C63.1773 13.8555 63.0714 13.4065 63.0714 12.8933C63.0714 12.3737 63.1773 11.9248 63.389 11.5463C63.6006 11.1614 63.8797 10.8632 64.226 10.6515C64.5724 10.4398 64.9539 10.334 65.371 10.334C65.7174 10.334 66.0253 10.4045 66.2947 10.5456C66.5703 10.6867 66.7854 10.8728 66.9393 11.1037H66.9971V10.4879H67.9881V15.1351C67.9881 15.6676 67.8822 16.1198 67.6706 16.4918C67.4651 16.8638 67.1799 17.1461 66.8142 17.3385C66.4486 17.5309 66.0253 17.6271 65.5442 17.6271ZM65.5538 14.5001C65.8102 14.5001 66.0474 14.4392 66.2658 14.3173C66.4837 14.189 66.6603 14.0062 66.795 13.7689C66.9297 13.5251 66.9971 13.2333 66.9971 12.8933C66.9971 12.5405 66.9297 12.2454 66.795 12.0081C66.6603 11.7644 66.4837 11.5815 66.2658 11.4597C66.0474 11.3378 65.8102 11.2769 65.5538 11.2769C65.2969 11.2769 65.0564 11.341 64.8322 11.4693C64.6138 11.5912 64.4377 11.7708 64.303 12.0081C64.1683 12.2454 64.101 12.5405 64.101 12.8933C64.101 13.2397 64.1683 13.5347 64.303 13.7785C64.4377 14.0158 64.6138 14.1955 64.8322 14.3173C65.0564 14.4392 65.2969 14.5001 65.5538 14.5001ZM71.3985 15.5489C70.9174 15.5489 70.4878 15.4366 70.1092 15.2121C69.731 14.9876 69.4328 14.6797 69.2144 14.2884C69.0027 13.8972 68.8968 13.4514 68.8968 12.951C68.8968 12.4828 68.9998 12.0498 69.2047 11.6521C69.4102 11.2544 69.6954 10.9369 70.0611 10.6996C70.4334 10.4558 70.8597 10.334 71.3407 10.334C71.8478 10.334 72.2774 10.443 72.63 10.6611C72.9894 10.8792 73.2622 11.1774 73.4479 11.5559C73.634 11.9344 73.7269 12.3609 73.7269 12.8356C73.7269 12.9062 73.724 12.9703 73.7173 13.028C73.7173 13.0857 73.7144 13.1306 73.7077 13.1627H69.9167C69.9682 13.6502 70.138 14.0158 70.4267 14.2596C70.7221 14.5033 71.0555 14.6252 71.4273 14.6252C71.7612 14.6252 72.0369 14.5515 72.2548 14.4039C72.4732 14.25 72.6464 14.0607 72.7744 13.8362L73.6307 14.25C73.419 14.6348 73.1304 14.9491 72.7647 15.1929C72.3991 15.4302 71.944 15.5489 71.3985 15.5489ZM71.3504 11.2192C71.004 11.2192 70.7091 11.325 70.4652 11.5367C70.2217 11.7483 70.0582 12.0306 69.9745 12.3834H72.6974C72.6849 12.2166 72.63 12.0434 72.5338 11.8638C72.4376 11.6842 72.2904 11.5334 72.0912 11.4116C71.8988 11.2833 71.652 11.2192 71.3504 11.2192ZM74.691 15.3949V10.4879H75.6724V11.1614H75.7301C75.8711 10.9241 76.0799 10.7284 76.3555 10.5745C76.6379 10.4142 76.9458 10.334 77.2792 10.334C77.882 10.334 78.3342 10.5136 78.6358 10.8728C78.9375 11.232 79.088 11.7066 79.088 12.2968V15.3949H78.0585V12.4315C78.0585 12.0338 77.959 11.7451 77.7603 11.5655C77.5616 11.3795 77.3018 11.2865 76.9809 11.2865C76.7308 11.2865 76.5128 11.3571 76.3267 11.4982C76.1405 11.6329 75.9933 11.8125 75.8841 12.037C75.7816 12.2615 75.7301 12.502 75.7301 12.7586V15.3949H74.691ZM84.0576 15.5489C83.7045 15.5489 83.3904 15.4815 83.1147 15.3468C82.8386 15.2057 82.624 15.0101 82.47 14.7599C82.3161 14.5097 82.2391 14.2243 82.2391 13.9036C82.2391 13.5572 82.3286 13.2622 82.5085 13.0184C82.6942 12.7682 82.9415 12.579 83.2494 12.4507C83.5573 12.3224 83.8969 12.2583 84.2693 12.2583C84.5772 12.2583 84.8466 12.2872 85.0775 12.3449C85.3147 12.4026 85.4941 12.4636 85.6163 12.5277V12.2679C85.6163 11.9472 85.5009 11.6906 85.2699 11.4982C85.039 11.3057 84.7407 11.2095 84.3751 11.2095C84.125 11.2095 83.8873 11.2673 83.6631 11.3827C83.4385 11.4918 83.259 11.6425 83.1243 11.8349L82.4123 11.2865C82.624 10.9915 82.903 10.7605 83.2494 10.5937C83.602 10.4206 83.9869 10.334 84.404 10.334C85.116 10.334 85.6644 10.5104 86.0493 10.8632C86.4341 11.2095 86.6266 11.697 86.6266 12.3256V15.3949H85.6163V14.7888H85.5586C85.4301 14.9876 85.2377 15.164 84.9813 15.318C84.7244 15.4719 84.4165 15.5489 84.0576 15.5489ZM84.2404 14.7022C84.5098 14.7022 84.747 14.638 84.9524 14.5097C85.1574 14.3814 85.318 14.2147 85.4335 14.0094C85.5552 13.7977 85.6163 13.57 85.6163 13.3263C85.4686 13.2429 85.2954 13.1756 85.0967 13.1242C84.8976 13.0665 84.6859 13.0376 84.4617 13.0376C84.0384 13.0376 83.7367 13.1242 83.5573 13.2974C83.3774 13.4642 83.2879 13.6694 83.2879 13.9132C83.2879 14.1441 83.3745 14.3333 83.5477 14.4809C83.7209 14.6284 83.9518 14.7022 84.2404 14.7022ZM89.2629 15.5489C88.9103 15.5489 88.5956 15.4815 88.32 15.3468C88.0443 15.2057 87.8293 15.0101 87.6753 14.7599C87.5214 14.5097 87.4444 14.2243 87.4444 13.9036C87.4444 13.5572 87.5344 13.2622 87.7138 13.0184C87.9 12.7682 88.1468 12.579 88.4547 12.4507C88.7626 12.3224 89.1027 12.2583 89.4746 12.2583C89.7825 12.2583 90.0519 12.2872 90.2828 12.3449C90.52 12.4026 90.6999 12.4636 90.8216 12.5277V12.2679C90.8216 11.9472 90.7061 11.6906 90.4752 11.4982C90.2443 11.3057 89.946 11.2095 89.5804 11.2095C89.3302 11.2095 89.0931 11.2673 88.8684 11.3827C88.6437 11.4918 88.4643 11.6425 88.3296 11.8349L87.6176 11.2865C87.8293 10.9915 88.1083 10.7605 88.4547 10.5937C88.8073 10.4206 89.1922 10.334 89.6093 10.334C90.3213 10.334 90.8697 10.5104 91.2546 10.8632C91.6394 11.2095 91.8319 11.697 91.8319 12.3256V15.3949H90.8216V14.7888H90.7639C90.6354 14.9876 90.443 15.164 90.1866 15.318C89.9302 15.4719 89.6223 15.5489 89.2629 15.5489ZM89.4457 14.7022C89.7151 14.7022 89.9523 14.638 90.1577 14.5097C90.3631 14.3814 90.5233 14.2147 90.6388 14.0094C90.7605 13.7977 90.8216 13.57 90.8216 13.3263C90.6739 13.2429 90.5007 13.1756 90.302 13.1242C90.1033 13.0665 89.8917 13.0376 89.667 13.0376C89.2437 13.0376 88.942 13.1242 88.7626 13.2974C88.5831 13.4642 88.4932 13.6694 88.4932 13.9132C88.4932 14.1441 88.5798 14.3333 88.753 14.4809C88.9261 14.6284 89.1571 14.7022 89.4457 14.7022ZM92.9759 15.3949V10.4879H93.9573V11.1614H94.015C94.156 10.9241 94.3648 10.7284 94.6404 10.5745C94.9228 10.4142 95.2307 10.334 95.5641 10.334C96.1669 10.334 96.6191 10.5136 96.9207 10.8728C97.2224 11.232 97.373 11.7066 97.373 12.2968V15.3949H96.3434V12.4315C96.3434 12.0338 96.2439 11.7451 96.0452 11.5655C95.8465 11.3795 95.5867 11.2865 95.2658 11.2865C95.0157 11.2865 94.7977 11.3571 94.6116 11.4982C94.4254 11.6329 94.2782 11.8125 94.169 12.037C94.0665 12.2615 94.015 12.502 94.015 12.7586V15.3949H92.9759Z" fill="white"/>
<path d="M104.589 15.5485C104.095 15.5485 103.63 15.4587 103.193 15.2791C102.764 15.0995 102.382 14.8494 102.048 14.5286C101.715 14.2015 101.452 13.8199 101.259 13.3837C101.073 12.9411 100.98 12.4632 100.98 11.95C100.98 11.4369 101.073 10.9622 101.259 10.526C101.452 10.0835 101.712 9.70181 102.039 9.38107C102.372 9.05394 102.757 8.80055 103.193 8.62097C103.63 8.44138 104.095 8.35156 104.589 8.35156C105.114 8.35156 105.599 8.44456 106.041 8.63059C106.49 8.81662 106.866 9.07641 107.167 9.40994L106.436 10.1316C106.211 9.8814 105.942 9.68897 105.628 9.55426C105.32 9.41956 104.973 9.35221 104.589 9.35221C104.133 9.35221 103.713 9.46127 103.328 9.67934C102.943 9.89102 102.632 10.1925 102.395 10.5838C102.164 10.9686 102.048 11.4241 102.048 11.95C102.048 12.476 102.167 12.9347 102.404 13.3259C102.642 13.7108 102.953 14.0123 103.338 14.2304C103.723 14.442 104.143 14.5479 104.598 14.5479C105.015 14.5479 105.393 14.4709 105.734 14.317C106.074 14.1566 106.346 13.9321 106.551 13.6434C106.763 13.3548 106.892 13.0084 106.936 12.6043H104.579V11.671H107.927C107.966 11.8442 107.985 12.027 107.985 12.2194V12.2291C107.985 12.8962 107.837 13.4799 107.542 13.9802C107.254 14.4741 106.853 14.859 106.34 15.1348C105.826 15.4106 105.243 15.5485 104.589 15.5485ZM111.083 15.5485C110.577 15.5485 110.131 15.4331 109.746 15.2021C109.361 14.9712 109.059 14.6601 108.841 14.2688C108.623 13.8776 108.514 13.435 108.514 12.9411C108.514 12.4536 108.623 12.0142 108.841 11.6229C109.059 11.2252 109.361 10.9109 109.746 10.68C110.131 10.4491 110.577 10.3336 111.083 10.3336C111.583 10.3336 112.026 10.4491 112.411 10.68C112.796 10.9109 113.097 11.2252 113.315 11.6229C113.533 12.0142 113.643 12.4536 113.643 12.9411C113.643 13.435 113.533 13.8776 113.315 14.2688C113.097 14.6601 112.796 14.9712 112.411 15.2021C112.026 15.4331 111.583 15.5485 111.083 15.5485ZM111.083 14.596C111.353 14.596 111.603 14.5319 111.834 14.4036C112.065 14.2688 112.251 14.0796 112.392 13.8359C112.539 13.5857 112.613 13.2874 112.613 12.9411C112.613 12.5947 112.539 12.2996 112.392 12.0559C112.251 11.8057 112.065 11.6165 111.834 11.4882C111.603 11.3535 111.353 11.2862 111.083 11.2862C110.814 11.2862 110.56 11.3535 110.323 11.4882C110.092 11.6165 109.903 11.8057 109.755 12.0559C109.614 12.2996 109.544 12.5947 109.544 12.9411C109.544 13.2874 109.614 13.5857 109.755 13.8359C109.903 14.0796 110.092 14.2688 110.323 14.4036C110.56 14.5319 110.814 14.596 111.083 14.596ZM116.909 15.5485C116.402 15.5485 115.956 15.4331 115.571 15.2021C115.186 14.9712 114.885 14.6601 114.667 14.2688C114.449 13.8776 114.34 13.435 114.34 12.9411C114.34 12.4536 114.449 12.0142 114.667 11.6229C114.885 11.2252 115.186 10.9109 115.571 10.68C115.956 10.4491 116.402 10.3336 116.909 10.3336C117.409 10.3336 117.851 10.4491 118.236 10.68C118.621 10.9109 118.923 11.2252 119.141 11.6229C119.359 12.0142 119.468 12.4536 119.468 12.9411C119.468 13.435 119.359 13.8776 119.141 14.2688C118.923 14.6601 118.621 14.9712 118.236 15.2021C117.851 15.4331 117.409 15.5485 116.909 15.5485ZM116.909 14.596C117.178 14.596 117.428 14.5319 117.659 14.4036C117.89 14.2688 118.076 14.0796 118.217 13.8359C118.365 13.5857 118.438 13.2874 118.438 12.9411C118.438 12.5947 118.365 12.2996 118.217 12.0559C118.076 11.8057 117.89 11.6165 117.659 11.4882C117.428 11.3535 117.178 11.2862 116.909 11.2862C116.639 11.2862 116.386 11.3535 116.148 11.4882C115.918 11.6165 115.728 11.8057 115.581 12.0559C115.44 12.2996 115.369 12.5947 115.369 12.9411C115.369 13.2874 115.44 13.5857 115.581 13.8359C115.728 14.0796 115.918 14.2688 116.148 14.4036C116.386 14.5319 116.639 14.596 116.909 14.596ZM122.638 17.6268C122.208 17.6268 121.836 17.5562 121.522 17.4151C121.214 17.2804 120.964 17.104 120.772 16.8859C120.579 16.6742 120.441 16.4562 120.358 16.2317L121.32 15.8275C121.423 16.0841 121.586 16.2926 121.811 16.453C122.042 16.6197 122.317 16.7031 122.638 16.7031C123.087 16.7031 123.44 16.5684 123.697 16.299C123.959 16.0296 124.091 15.648 124.091 15.154V14.6826H124.033C123.879 14.9135 123.664 15.0995 123.389 15.2406C123.119 15.3753 122.811 15.4427 122.465 15.4427C122.048 15.4427 121.666 15.3368 121.32 15.1252C120.974 14.9135 120.695 14.6185 120.483 14.24C120.271 13.8551 120.165 13.4061 120.165 12.893C120.165 12.3734 120.271 11.9244 120.483 11.5459C120.695 11.1611 120.974 10.8628 121.32 10.6511C121.666 10.4395 122.048 10.3336 122.465 10.3336C122.811 10.3336 123.119 10.4042 123.389 10.5453C123.664 10.6864 123.879 10.8724 124.033 11.1033H124.091V10.4876H125.082V15.1348C125.082 15.6672 124.976 16.1194 124.765 16.4914C124.559 16.8635 124.274 17.1457 123.908 17.3381C123.543 17.5306 123.119 17.6268 122.638 17.6268ZM122.648 14.4998C122.904 14.4998 123.141 14.4388 123.36 14.317C123.578 14.1887 123.754 14.0058 123.889 13.7685C124.024 13.5248 124.091 13.2329 124.091 12.893C124.091 12.5402 124.024 12.2451 123.889 12.0078C123.754 11.764 123.578 11.5812 123.36 11.4593C123.141 11.3375 122.904 11.2765 122.648 11.2765C122.391 11.2765 122.15 11.3407 121.926 11.469C121.708 11.5908 121.532 11.7705 121.397 12.0078C121.262 12.2451 121.195 12.5402 121.195 12.893C121.195 13.2393 121.262 13.5344 121.397 13.7781C121.532 14.0155 121.708 14.1951 121.926 14.317C122.15 14.4388 122.391 14.4998 122.648 14.4998ZM126.307 15.3946V8.50551H127.347V15.3946H126.307ZM130.767 15.5485C130.285 15.5485 129.855 15.4363 129.477 15.2118C129.099 14.9872 128.8 14.6794 128.582 14.2881C128.371 13.8968 128.265 13.451 128.265 12.9507C128.265 12.4825 128.367 12.0495 128.573 11.6518C128.778 11.2541 129.064 10.9366 129.429 10.6992C129.801 10.4555 130.228 10.3336 130.709 10.3336C131.215 10.3336 131.645 10.4427 131.998 10.6607C132.357 10.8788 132.63 11.1771 132.816 11.5556C133.002 11.934 133.095 12.3605 133.095 12.8352C133.095 12.9058 133.092 12.9699 133.085 13.0277C133.085 13.0854 133.082 13.1303 133.076 13.1624H129.285C129.336 13.6498 129.506 14.0155 129.795 14.2592C130.09 14.503 130.423 14.6248 130.795 14.6248C131.129 14.6248 131.404 14.5511 131.623 14.4036C131.841 14.2496 132.014 14.0604 132.142 13.8359L132.999 14.2496C132.787 14.6345 132.498 14.9488 132.133 15.1925C131.767 15.4298 131.312 15.5485 130.767 15.5485ZM130.718 11.2188C130.372 11.2188 130.077 11.3246 129.833 11.5363C129.589 11.748 129.426 12.0302 129.343 12.383H132.065C132.052 12.2162 131.998 12.043 131.902 11.8634C131.806 11.6839 131.658 11.5331 131.459 11.4112C131.267 11.2829 131.02 11.2188 130.718 11.2188ZM137.324 15.3946L135.477 8.50551H136.651L137.748 12.9796L137.863 13.5761H137.921L138.065 12.9796L139.451 8.50551H140.509L141.837 12.9796L141.981 13.5665H142.039L142.154 12.9796L143.251 8.50551H144.415L142.597 15.3946H141.481L140.163 10.8243L140.009 10.1797H139.951L139.787 10.8243L138.411 15.3946H137.324ZM146.347 15.5485C145.995 15.5485 145.681 15.4812 145.404 15.3465C145.129 15.2054 144.914 15.0097 144.76 14.7596C144.606 14.5094 144.529 14.224 144.529 13.9032C144.529 13.5569 144.619 13.2618 144.798 13.018C144.984 12.7679 145.231 12.5787 145.539 12.4504C145.847 12.3221 146.187 12.2579 146.559 12.2579C146.867 12.2579 147.136 12.2868 147.367 12.3445C147.605 12.4023 147.784 12.4632 147.906 12.5273V12.2676C147.906 11.9468 147.791 11.6903 147.56 11.4978C147.329 11.3054 147.03 11.2092 146.665 11.2092C146.415 11.2092 146.177 11.2669 145.953 11.3824C145.729 11.4914 145.549 11.6422 145.414 11.8346L144.702 11.2862C144.914 10.9911 145.193 10.7602 145.539 10.5934C145.892 10.4202 146.277 10.3336 146.694 10.3336C147.406 10.3336 147.954 10.51 148.339 10.8628C148.724 11.2092 148.916 11.6967 148.916 12.3253V15.3946H147.906V14.7884H147.848C147.72 14.9872 147.528 15.1637 147.271 15.3176C147.015 15.4715 146.707 15.5485 146.347 15.5485ZM146.53 14.7018C146.8 14.7018 147.037 14.6377 147.242 14.5094C147.448 14.3811 147.608 14.2143 147.723 14.0091C147.845 13.7974 147.906 13.5697 147.906 13.3259C147.759 13.2426 147.586 13.1752 147.386 13.1239C147.188 13.0661 146.976 13.0373 146.751 13.0373C146.328 13.0373 146.027 13.1239 145.847 13.2971C145.668 13.4639 145.578 13.6691 145.578 13.9128C145.578 14.1438 145.664 14.333 145.837 14.4805C146.011 14.6281 146.241 14.7018 146.53 14.7018ZM150.07 15.3946V8.50551H151.109V15.3946H150.07ZM152.344 15.3946V8.50551H153.383V15.3946H152.344ZM156.803 15.5485C156.322 15.5485 155.892 15.4363 155.514 15.2118C155.135 14.9872 154.837 14.6794 154.619 14.2881C154.407 13.8968 154.301 13.451 154.301 12.9507C154.301 12.4825 154.404 12.0495 154.609 11.6518C154.814 11.2541 155.1 10.9366 155.466 10.6992C155.838 10.4555 156.264 10.3336 156.745 10.3336C157.252 10.3336 157.682 10.4427 158.035 10.6607C158.394 10.8788 158.666 11.1771 158.853 11.5556C159.038 11.934 159.132 12.3605 159.132 12.8352C159.132 12.9058 159.128 12.9699 159.122 13.0277C159.122 13.0854 159.119 13.1303 159.112 13.1624H155.321C155.372 13.6498 155.543 14.0155 155.831 14.2592C156.126 14.503 156.46 14.6248 156.832 14.6248C157.165 14.6248 157.441 14.5511 157.659 14.4036C157.877 14.2496 158.051 14.0604 158.179 13.8359L159.035 14.2496C158.824 14.6345 158.535 14.9488 158.169 15.1925C157.804 15.4298 157.348 15.5485 156.803 15.5485ZM156.755 11.2188C156.409 11.2188 156.113 11.3246 155.87 11.5363C155.626 11.748 155.462 12.0302 155.379 12.383H158.102C158.089 12.2162 158.035 12.043 157.938 11.8634C157.842 11.6839 157.695 11.5331 157.496 11.4112C157.303 11.2829 157.056 11.2188 156.755 11.2188ZM160.474 13.9706V11.392H159.618V10.4876H160.474V9.10205H161.513V10.4876H162.716V11.392H161.513V13.7493C161.513 13.993 161.561 14.179 161.658 14.3073C161.76 14.4356 161.93 14.4998 162.168 14.4998C162.289 14.4998 162.392 14.4837 162.476 14.4517C162.565 14.4196 162.655 14.3747 162.745 14.317V15.3272C162.636 15.3721 162.52 15.4074 162.399 15.4331C162.276 15.4587 162.132 15.4715 161.966 15.4715C161.51 15.4715 161.148 15.3401 160.878 15.0771C160.609 14.8077 160.474 14.4388 160.474 13.9706Z" fill="white"/>
<path d="M161.645 0.240234H12.0287C5.51917 0.240234 0.242188 5.51722 0.242188 12.0267C0.242188 18.5362 5.51917 23.8132 12.0287 23.8132H161.645C168.154 23.8132 173.431 18.5362 173.431 12.0267C173.431 5.51722 168.154 0.240234 161.645 0.240234Z" stroke="#747775"/>
</g>
<defs>
<linearGradient id="paint0_linear_568_735" x1="16.63" y1="14.8103" x2="9.00994" y2="23.5308" gradientUnits="userSpaceOnUse">
<stop stop-color="#4285F4"/>
<stop offset="1" stop-color="#1B74E8"/>
</linearGradient>
<clipPath id="clip0_568_735">
<rect width="173.67" height="24.054" fill="white"/>
</clipPath>
</defs>
</svg>
