<svg width="174" height="26" viewBox="0 0 174 26" fill="none" xmlns="http://www.w3.org/2000/svg">
<g clip-path="url(#clip0_568_987)">
<path d="M160.864 0.255859H12.8092C5.87725 0.255859 0.257812 5.8753 0.257812 12.8072C0.257812 19.7392 5.87725 25.3586 12.8092 25.3586H160.864C167.796 25.3586 173.416 19.7392 173.416 12.8072C173.416 5.8753 167.796 0.255859 160.864 0.255859Z" fill="#1F1F1F"/>
<path d="M26.1268 11.2705H10.7578V8.70897C10.7578 7.31843 11.8858 6.14746 13.2253 6.14746H23.6593C24.9989 6.14746 26.1268 7.31843 26.1268 8.70897V11.2705Z" fill="#34A853"/>
<path d="M26.1268 13.3476H10.7578V10.7861C10.7578 9.39558 11.8858 8.22461 13.2253 8.22461H23.6593C24.9989 8.22461 26.1268 9.39558 26.1268 10.7861V13.3476Z" fill="#FBBC04"/>
<path d="M26.1268 15.4951H10.7578V12.9336C10.7578 11.543 11.8858 10.3721 13.2253 10.3721H23.6593C24.9989 10.3721 26.1268 11.543 26.1268 12.9336V15.4951Z" fill="#EA4335"/>
<path d="M10.7578 11.9242L20.5126 14.1802C21.6354 14.4622 22.8986 14.1802 23.811 13.4752L26.1268 11.7832V17.0707C26.1268 18.4102 25.004 19.4677 23.6706 19.4677H13.214C11.8807 19.4677 10.7578 18.4102 10.7578 17.0707V11.9242Z" fill="url(#paint0_linear_568_987)"/>
<path d="M32.6523 17.9512V15.3282H33.2978C33.455 15.0686 33.5813 14.7339 33.6769 14.3241C33.7794 13.9074 33.8511 13.4497 33.8921 12.9511C33.9399 12.4525 33.9638 11.9504 33.9638 11.4449V9.05762H38.6668V15.3282H39.5274V17.9512H38.4311V16.3938H33.7487V17.9512H32.6523ZM34.5274 15.3282H37.5397V10.1232H35.0602V11.6089C35.0602 12.3534 35.0124 13.0399 34.9167 13.6683C34.8279 14.2968 34.6981 14.8296 34.5274 15.2667V15.3282ZM42.9022 16.5577C42.3626 16.5577 41.8878 16.4347 41.478 16.1888C41.0682 15.9429 40.7471 15.6116 40.5149 15.195C40.2827 14.7783 40.1665 14.307 40.1665 13.781C40.1665 13.2619 40.2827 12.794 40.5149 12.3773C40.7471 11.9538 41.0682 11.6191 41.478 11.3732C41.8878 11.1273 42.3626 11.0044 42.9022 11.0044C43.435 11.0044 43.9063 11.1273 44.3162 11.3732C44.726 11.6191 45.0471 11.9538 45.2793 12.3773C45.5115 12.794 45.6276 13.2619 45.6276 13.781C45.6276 14.307 45.5115 14.7783 45.2793 15.195C45.0471 15.6116 44.726 15.9429 44.3162 16.1888C43.9063 16.4347 43.435 16.5577 42.9022 16.5577ZM42.9022 15.5433C43.1891 15.5433 43.4555 15.4751 43.7014 15.3384C43.9473 15.195 44.1454 14.9935 44.2957 14.7339C44.4528 14.4675 44.5313 14.1499 44.5313 13.781C44.5313 13.4122 44.4528 13.098 44.2957 12.8384C44.1454 12.572 43.9473 12.3705 43.7014 12.2339C43.4555 12.0904 43.1891 12.0187 42.9022 12.0187C42.6153 12.0187 42.3455 12.0904 42.0928 12.2339C41.8469 12.3705 41.6454 12.572 41.4883 12.8384C41.338 13.098 41.2628 13.4122 41.2628 13.781C41.2628 14.1499 41.338 14.4675 41.4883 14.7339C41.6454 14.9935 41.8469 15.195 42.0928 15.3384C42.3455 15.4751 42.6153 15.5433 42.9022 15.5433ZM46.0171 17.9512V15.4306H46.5909C46.7001 15.3009 46.7958 15.1164 46.8778 14.8774C46.9665 14.6315 47.0348 14.3548 47.0827 14.0474C47.1373 13.74 47.1647 13.4292 47.1647 13.115V11.1683H51.0786V15.4306H51.837V17.9512H50.8225V16.3938H47.0417V17.9512H46.0171ZM47.7794 15.4306H49.9823V12.1314H48.2097V13.2073C48.2097 13.6854 48.1756 14.0987 48.1073 14.447C48.0389 14.7886 47.9297 15.096 47.7794 15.3692V15.4306ZM54.46 16.5577C54.0839 16.5577 53.7494 16.486 53.4559 16.3425C53.1618 16.1923 52.9333 15.9839 52.7694 15.7175C52.6054 15.4511 52.5235 15.1472 52.5235 14.8056C52.5235 14.4368 52.6188 14.1226 52.8104 13.863C53.0081 13.5966 53.2714 13.3951 53.5993 13.2585C53.9272 13.1219 54.2889 13.0536 54.6854 13.0536C55.0133 13.0536 55.3001 13.0843 55.546 13.1458C55.7986 13.2073 55.9897 13.2722 56.1198 13.3405V13.0638C56.1198 12.7223 55.9969 12.449 55.751 12.2441C55.5051 12.0392 55.1874 11.9367 54.7981 11.9367C54.5317 11.9367 54.2786 11.9982 54.0399 12.1212C53.8006 12.2373 53.6095 12.3978 53.4661 12.6027L52.7079 12.0187C52.9333 11.7045 53.2304 11.4586 53.5993 11.281C53.9748 11.0966 54.3847 11.0044 54.8288 11.0044C55.587 11.0044 56.1711 11.1922 56.5809 11.5679C56.9907 11.9367 57.1957 12.4559 57.1957 13.1253V16.3938H56.1198V15.7483H56.0583C55.9216 15.96 55.7166 16.1479 55.4436 16.3118C55.17 16.4757 54.8421 16.5577 54.46 16.5577ZM54.6546 15.6561C54.9415 15.6561 55.1941 15.5878 55.4128 15.4511C55.6311 15.3145 55.8022 15.1369 55.9251 14.9183C56.0548 14.6929 56.1198 14.4505 56.1198 14.1909C55.9625 14.1021 55.7781 14.0304 55.5665 13.9757C55.3544 13.9142 55.129 13.8835 54.8903 13.8835C54.4395 13.8835 54.1183 13.9757 53.9272 14.1601C53.7356 14.3377 53.6403 14.5563 53.6403 14.8159C53.6403 15.0618 53.7325 15.2633 53.9169 15.4204C54.1014 15.5775 54.3473 15.6561 54.6546 15.6561ZM59.5656 16.3938V12.1314H57.8442V11.1683H62.3832V12.1314H60.6619V16.3938H59.5656ZM63.2864 16.3938V11.1683H64.393V13.8425L64.3315 14.8261H64.393L67.0057 11.1683H68.102V16.3938H67.0057V13.7298L67.0672 12.7462H67.0057L64.393 16.3938H63.2864ZM71.7916 16.3938V11.1683H74.3839C74.6912 11.1683 74.9643 11.2298 75.2035 11.3527C75.4494 11.4689 75.6405 11.6294 75.7773 11.8343C75.9208 12.0392 75.9925 12.2681 75.9925 12.5208C75.9925 12.794 75.931 13.0296 75.8081 13.2277C75.6918 13.4259 75.5381 13.5727 75.347 13.6683V13.7298C75.6067 13.8323 75.8116 13.986 75.9618 14.1909C76.119 14.3958 76.1974 14.6315 76.1974 14.8978C76.1974 15.2052 76.1154 15.4716 75.9515 15.697C75.7942 15.9224 75.5893 16.0966 75.3367 16.2196C75.0842 16.3357 74.8142 16.3938 74.5273 16.3938H71.7916ZM72.8982 12.0699V13.2995H74.2507C74.4351 13.2995 74.5888 13.2414 74.7117 13.1253C74.8347 13.0091 74.8962 12.8623 74.8962 12.6847C74.8962 12.5003 74.8347 12.3534 74.7117 12.2441C74.5888 12.128 74.4351 12.0699 74.2507 12.0699H72.8982ZM72.8982 15.4716H74.4146C74.6129 15.4716 74.7768 15.4101 74.9064 15.2872C75.0432 15.1574 75.1113 14.9935 75.1113 14.7954C75.1113 14.6041 75.0432 14.4436 74.9064 14.3138C74.7768 14.1841 74.6129 14.1191 74.4146 14.1191H72.8982V15.4716Z" fill="white"/>
<path d="M83.7094 16.5576C83.1833 16.5576 82.6884 16.4619 82.2238 16.2707C81.7663 16.0794 81.3595 15.813 81.0045 15.4715C80.6495 15.1231 80.3692 14.7167 80.1643 14.2522C79.9661 13.7809 79.8672 13.272 79.8672 12.7256C79.8672 12.1791 79.9661 11.6737 80.1643 11.2092C80.3692 10.7378 80.6459 10.3314 80.9943 9.98988C81.3493 9.64151 81.7591 9.37168 82.2238 9.18044C82.6884 8.9892 83.1833 8.89355 83.7094 8.89355C84.2694 8.89355 84.7853 8.99258 85.2566 9.19069C85.7346 9.3888 86.1342 9.66544 86.4554 10.0206L85.6767 10.7891C85.4374 10.5227 85.1505 10.3178 84.816 10.1743C84.4881 10.0309 84.1193 9.95914 83.7094 9.95914C83.2243 9.95914 82.7771 10.0753 82.3672 10.3075C81.9574 10.5329 81.6259 10.854 81.3734 11.2706C81.1274 11.6805 81.0045 12.1655 81.0045 12.7256C81.0045 13.2857 81.131 13.7741 81.3836 14.1907C81.6362 14.6006 81.9676 14.9216 82.3775 15.1539C82.7873 15.3793 83.2345 15.492 83.7197 15.492C84.1639 15.492 84.5665 15.41 84.9287 15.2461C85.2909 15.0753 85.5809 14.8362 85.7996 14.5289C86.025 14.2215 86.1618 13.8526 86.2095 13.4223H83.6992V12.4284H87.2648C87.3058 12.6129 87.3263 12.8075 87.3263 13.0125V13.0227C87.3263 13.7331 87.169 14.3547 86.855 14.8875C86.5476 15.4135 86.1208 15.8233 85.5742 16.117C85.0276 16.4107 84.4062 16.5576 83.7094 16.5576ZM90.6255 16.5576C90.0861 16.5576 89.6112 16.4346 89.2013 16.1887C88.7915 15.9428 88.4703 15.6115 88.2382 15.1949C88.0061 14.7782 87.8898 14.3069 87.8898 13.7809C87.8898 13.2618 88.0061 12.7939 88.2382 12.3772C88.4703 11.9537 88.7915 11.619 89.2013 11.3731C89.6112 11.1272 90.0861 11.0042 90.6255 11.0042C91.1583 11.0042 91.6296 11.1272 92.0395 11.3731C92.4493 11.619 92.7705 11.9537 93.0026 12.3772C93.2347 12.7939 93.3509 13.2618 93.3509 13.7809C93.3509 14.3069 93.2347 14.7782 93.0026 15.1949C92.7705 15.6115 92.4493 15.9428 92.0395 16.1887C91.6296 16.4346 91.1583 16.5576 90.6255 16.5576ZM90.6255 15.5432C90.9124 15.5432 91.1788 15.4749 91.4247 15.3383C91.6706 15.1949 91.8689 14.9934 92.019 14.7338C92.1762 14.4674 92.2546 14.1498 92.2546 13.7809C92.2546 13.412 92.1762 13.0979 92.019 12.8383C91.8689 12.5719 91.6706 12.3704 91.4247 12.2338C91.1788 12.0903 90.9124 12.0186 90.6255 12.0186C90.3386 12.0186 90.0686 12.0903 89.8161 12.2338C89.5702 12.3704 89.3688 12.5719 89.2116 12.8383C89.0615 13.0979 88.9861 13.412 88.9861 13.7809C88.9861 14.1498 89.0615 14.4674 89.2116 14.7338C89.3688 14.9934 89.5702 15.1949 89.8161 15.3383C90.0686 15.4749 90.3386 15.5432 90.6255 15.5432ZM96.829 16.5576C96.2895 16.5576 95.8146 16.4346 95.4048 16.1887C94.9949 15.9428 94.6742 15.6115 94.4416 15.1949C94.2096 14.7782 94.0933 14.3069 94.0933 13.7809C94.0933 13.2618 94.2096 12.7939 94.4416 12.3772C94.6742 11.9537 94.9949 11.619 95.4048 11.3731C95.8146 11.1272 96.2895 11.0042 96.829 11.0042C97.3618 11.0042 97.8331 11.1272 98.2429 11.3731C98.6527 11.619 98.974 11.9537 99.206 12.3772C99.4386 12.7939 99.5544 13.2618 99.5544 13.7809C99.5544 14.3069 99.4386 14.7782 99.206 15.1949C98.974 15.6115 98.6527 15.9428 98.2429 16.1887C97.8331 16.4346 97.3618 16.5576 96.829 16.5576ZM96.829 15.5432C97.1158 15.5432 97.3822 15.4749 97.6281 15.3383C97.8741 15.1949 98.0723 14.9934 98.2224 14.7338C98.3797 14.4674 98.4581 14.1498 98.4581 13.7809C98.4581 13.412 98.3797 13.0979 98.2224 12.8383C98.0723 12.5719 97.8741 12.3704 97.6281 12.2338C97.3822 12.0903 97.1158 12.0186 96.829 12.0186C96.5421 12.0186 96.2726 12.0903 96.0195 12.2338C95.7736 12.3704 95.5723 12.5719 95.415 12.8383C95.2649 13.0979 95.1896 13.412 95.1896 13.7809C95.1896 14.1498 95.2649 14.4674 95.415 14.7338C95.5723 14.9934 95.7736 15.1949 96.0195 15.3383C96.2726 15.4749 96.5421 15.5432 96.829 15.5432ZM102.93 18.7707C102.472 18.7707 102.076 18.6956 101.742 18.5453C101.414 18.4019 101.148 18.214 100.943 17.9818C100.738 17.7564 100.591 17.5241 100.502 17.285L101.527 16.8547C101.636 17.1279 101.81 17.35 102.049 17.5207C102.295 17.6983 102.589 17.7871 102.93 17.7871C103.408 17.7871 103.784 17.6437 104.058 17.3568C104.337 17.0699 104.478 16.6635 104.478 16.1375V15.6354H104.416C104.252 15.8813 104.023 16.0794 103.73 16.2297C103.443 16.3731 103.115 16.4449 102.746 16.4449C102.302 16.4449 101.896 16.3322 101.527 16.1068C101.158 15.8813 100.861 15.5671 100.635 15.1641C100.41 14.7543 100.297 14.2761 100.297 13.7297C100.297 13.1764 100.41 12.6983 100.635 12.2952C100.861 11.8854 101.158 11.5678 101.527 11.3424C101.896 11.1169 102.302 11.0042 102.746 11.0042C103.115 11.0042 103.443 11.0794 103.73 11.2296C104.023 11.3799 104.252 11.578 104.416 11.8239H104.478V11.1682H105.533V16.117C105.533 16.684 105.42 17.1655 105.195 17.5617C104.976 17.9578 104.672 18.2584 104.283 18.4633C103.894 18.6683 103.443 18.7707 102.93 18.7707ZM102.941 15.4408C103.214 15.4408 103.466 15.3759 103.699 15.2461C103.931 15.1095 104.119 14.9148 104.262 14.6621C104.406 14.4025 104.478 14.0917 104.478 13.7297C104.478 13.354 104.406 13.0398 104.262 12.787C104.119 12.5275 103.931 12.3328 103.699 12.203C103.466 12.0733 103.214 12.0083 102.941 12.0083C102.667 12.0083 102.411 12.0766 102.172 12.2133C101.94 12.343 101.752 12.5343 101.609 12.787C101.465 13.0398 101.394 13.354 101.394 13.7297C101.394 14.0985 101.465 14.4127 101.609 14.6723C101.752 14.925 101.94 15.1163 102.172 15.2461C102.411 15.3759 102.667 15.4408 102.941 15.4408ZM106.838 16.3936V9.05749H107.944V16.3936H106.838ZM111.586 16.5576C111.074 16.5576 110.616 16.4381 110.213 16.199C109.81 15.9599 109.493 15.632 109.26 15.2153C109.035 14.7987 108.922 14.3239 108.922 13.7912C108.922 13.2925 109.031 12.8315 109.25 12.4079C109.468 11.9844 109.773 11.6463 110.162 11.3936C110.558 11.134 111.013 11.0042 111.525 11.0042C112.064 11.0042 112.522 11.1204 112.898 11.3526C113.28 11.5848 113.57 11.9025 113.769 12.3055C113.966 12.7085 114.066 13.1627 114.066 13.6682C114.066 13.7434 114.062 13.8116 114.056 13.8731C114.056 13.9346 114.052 13.9824 114.045 14.0166H110.008C110.063 14.5357 110.244 14.925 110.551 15.1846C110.865 15.4442 111.221 15.574 111.617 15.574C111.972 15.574 112.266 15.4954 112.498 15.3383C112.73 15.1744 112.915 14.9729 113.051 14.7338L113.963 15.1744C113.738 15.5842 113.431 15.9189 113.041 16.1785C112.652 16.4312 112.167 16.5576 111.586 16.5576ZM111.535 11.9469C111.166 11.9469 110.852 12.0596 110.592 12.285C110.333 12.5104 110.159 12.811 110.07 13.1866H112.97C112.956 13.009 112.898 12.8246 112.795 12.6334C112.693 12.4421 112.536 12.2816 112.324 12.1518C112.119 12.0152 111.856 11.9469 111.535 11.9469ZM117.668 16.3936V9.05749H121.951V10.1231H118.795V16.3936H117.668ZM123.565 16.5576C123.19 16.5576 122.855 16.4859 122.561 16.3424C122.268 16.1922 122.039 15.9838 121.875 15.7174C121.711 15.451 121.629 15.1471 121.629 14.8055C121.629 14.4366 121.725 14.1225 121.916 13.8629C122.114 13.5965 122.377 13.395 122.705 13.2584C123.033 13.1217 123.395 13.0534 123.791 13.0534C124.119 13.0534 124.406 13.0842 124.652 13.1457C124.905 13.2071 125.096 13.272 125.225 13.3403V13.0637C125.225 12.7221 125.102 12.4489 124.856 12.244C124.611 12.0391 124.293 11.9366 123.904 11.9366C123.637 11.9366 123.385 11.9981 123.145 12.121C122.907 12.2372 122.715 12.3977 122.572 12.6026L121.813 12.0186C122.039 11.7044 122.336 11.4585 122.705 11.2809C123.081 11.0964 123.491 11.0042 123.934 11.0042C124.692 11.0042 125.277 11.1921 125.686 11.5678C126.096 11.9366 126.301 12.4557 126.301 13.1252V16.3936H125.225V15.7481H125.164C125.028 15.9599 124.823 16.1477 124.549 16.3117C124.276 16.4756 123.948 16.5576 123.565 16.5576ZM123.76 15.6559C124.047 15.6559 124.3 15.5876 124.518 15.451C124.737 15.3144 124.908 15.1368 125.031 14.9182C125.161 14.6928 125.225 14.4503 125.225 14.1907C125.069 14.102 124.884 14.0302 124.672 13.9756C124.46 13.9141 124.235 13.8834 123.996 13.8834C123.545 13.8834 123.224 13.9756 123.033 14.16C122.842 14.3376 122.746 14.5562 122.746 14.8158C122.746 15.0617 122.838 15.2631 123.022 15.4203C123.207 15.5774 123.453 15.6559 123.76 15.6559ZM127.519 16.3936V11.1682H128.831L130.439 14.3649H130.491L132.11 11.1682H133.39V16.3936H132.335V13.8526L132.386 12.8485H132.325L130.819 15.7276H130.091L128.585 12.8485H128.523L128.575 13.8526V16.3936H127.519ZM136.273 16.5576C135.898 16.5576 135.562 16.4859 135.269 16.3424C134.975 16.1922 134.746 15.9838 134.582 15.7174C134.419 15.451 134.337 15.1471 134.337 14.8055C134.337 14.4366 134.432 14.1225 134.623 13.8629C134.822 13.5965 135.085 13.395 135.412 13.2584C135.74 13.1217 136.102 13.0534 136.498 13.0534C136.826 13.0534 137.113 13.0842 137.359 13.1457C137.612 13.2071 137.803 13.272 137.933 13.3403V13.0637C137.933 12.7221 137.81 12.4489 137.564 12.244C137.318 12.0391 137.001 11.9366 136.611 11.9366C136.345 11.9366 136.092 11.9981 135.853 12.121C135.614 12.2372 135.423 12.3977 135.279 12.6026L134.521 12.0186C134.746 11.7044 135.044 11.4585 135.412 11.2809C135.788 11.0964 136.198 11.0042 136.642 11.0042C137.4 11.0042 137.984 11.1921 138.394 11.5678C138.804 11.9366 139.009 12.4557 139.009 13.1252V16.3936H137.933V15.7481H137.871C137.735 15.9599 137.53 16.1477 137.257 16.3117C136.984 16.4756 136.656 16.5576 136.273 16.5576ZM136.468 15.6559C136.755 15.6559 137.007 15.5876 137.226 15.451C137.445 15.3144 137.615 15.1368 137.738 14.9182C137.868 14.6928 137.933 14.4503 137.933 14.1907C137.776 14.102 137.591 14.0302 137.38 13.9756C137.168 13.9141 136.943 13.8834 136.703 13.8834C136.253 13.8834 135.931 13.9756 135.74 14.16C135.549 14.3376 135.453 14.5562 135.453 14.8158C135.453 15.0617 135.546 15.2631 135.73 15.4203C135.914 15.5774 136.16 15.6559 136.468 15.6559ZM140.227 16.3936V11.1682H141.334V13.2686H143.813V11.1682H144.92V16.3936H143.813V14.2317H141.334V16.3936H140.227ZM148.548 16.5576C148.035 16.5576 147.578 16.4381 147.175 16.199C146.772 15.9599 146.454 15.632 146.222 15.2153C145.997 14.7987 145.884 14.3239 145.884 13.7912C145.884 13.2925 145.993 12.8315 146.212 12.4079C146.43 11.9844 146.734 11.6463 147.124 11.3936C147.52 11.134 147.974 11.0042 148.486 11.0042C149.026 11.0042 149.484 11.1204 149.859 11.3526C150.242 11.5848 150.532 11.9025 150.73 12.3055C150.928 12.7085 151.027 13.1627 151.027 13.6682C151.027 13.7434 151.024 13.8116 151.017 13.8731C151.017 13.9346 151.013 13.9824 151.007 14.0166H146.97C147.025 14.5357 147.206 14.925 147.513 15.1846C147.827 15.4442 148.183 15.574 148.579 15.574C148.934 15.574 149.228 15.4954 149.46 15.3383C149.692 15.1744 149.876 14.9729 150.013 14.7338L150.925 15.1744C150.699 15.5842 150.392 15.9189 150.003 16.1785C149.613 16.4312 149.128 16.5576 148.548 16.5576ZM148.497 11.9469C148.128 11.9469 147.814 12.0596 147.554 12.285C147.294 12.5104 147.12 12.811 147.031 13.1866H149.931C149.917 13.009 149.859 12.8246 149.757 12.6334C149.654 12.4421 149.497 12.2816 149.286 12.1518C149.081 12.0152 148.818 11.9469 148.497 11.9469ZM156.286 17.951V16.3936H152.054V11.1682H153.161V15.4305H155.435V11.1682H156.542V15.4305H157.3V17.951H156.286ZM159.394 11.1682V12.91H160.593C160.948 12.91 161.266 12.9851 161.546 13.1354C161.833 13.2857 162.058 13.494 162.222 13.7604C162.386 14.02 162.468 14.3171 162.468 14.6518C162.468 14.9865 162.386 15.2836 162.222 15.5432C162.058 15.8028 161.833 16.0111 161.546 16.1682C161.266 16.3185 160.948 16.3936 160.593 16.3936H158.288V11.1682H159.394ZM159.394 15.4715H160.501C160.747 15.4715 160.952 15.393 161.116 15.2358C161.279 15.0787 161.361 14.884 161.361 14.6518C161.361 14.4196 161.279 14.2249 161.116 14.0678C160.952 13.9039 160.747 13.8219 160.501 13.8219H159.394V15.4715Z" fill="white"/>
<path d="M160.864 0.255859H12.8092C5.87725 0.255859 0.257812 5.8753 0.257812 12.8072C0.257812 19.7392 5.87725 25.3586 12.8092 25.3586H160.864C167.796 25.3586 173.416 19.7392 173.416 12.8072C173.416 5.8753 167.796 0.255859 160.864 0.255859Z" stroke="#747775"/>
</g>
<defs>
<linearGradient id="paint0_linear_568_987" x1="17.7099" y1="15.7722" x2="9.59535" y2="25.0586" gradientUnits="userSpaceOnUse">
<stop stop-color="#4285F4"/>
<stop offset="1" stop-color="#1B74E8"/>
</linearGradient>
<clipPath id="clip0_568_987">
<rect width="173.67" height="25.615" fill="white"/>
</clipPath>
</defs>
</svg>
