<svg width="174" height="19" viewBox="0 0 174 19" fill="none" xmlns="http://www.w3.org/2000/svg">
<g clip-path="url(#clip0_568_430)">
<path d="M164.431 0.18457H9.2366C4.23676 0.18457 0.183594 4.23774 0.183594 9.23758C0.183594 14.2374 4.23676 18.2906 9.2366 18.2906H164.431C169.431 18.2906 173.484 14.2374 173.484 9.23758C173.484 4.23774 169.431 0.18457 164.431 0.18457Z" fill="#1F1F1F"/>
<path d="M18.8431 8.12968H7.75781V6.28212C7.75781 5.27916 8.5714 4.43457 9.53756 4.43457H17.0634C18.0295 4.43457 18.8431 5.27916 18.8431 6.28212V8.12968Z" fill="#34A853"/>
<path d="M18.8431 9.62675H7.75781V7.77919C7.75781 6.77623 8.5714 5.93164 9.53756 5.93164H17.0634C18.0295 5.93164 18.8431 6.77623 18.8431 7.77919V9.62675Z" fill="#FBBC04"/>
<path d="M18.8431 11.1766H7.75781V9.329C7.75781 8.32604 8.5714 7.48145 9.53756 7.48145H17.0634C18.0295 7.48145 18.8431 8.32604 18.8431 9.329V11.1766Z" fill="#EA4335"/>
<path d="M7.75781 8.60071L14.7937 10.2279C15.6036 10.4313 16.5147 10.2279 17.1728 9.71944L18.8431 8.49902V12.3128C18.8431 13.2789 18.0332 14.0417 17.0715 14.0417H9.52943C8.56771 14.0417 7.75781 13.2789 7.75781 12.3128V8.60071Z" fill="url(#paint0_linear_568_430)"/>
<path d="M23.8789 11.8241V6.5327H24.6918V8.73499H27.1675V6.5327H27.9731V11.8241H27.1675V9.50357H24.6918V11.8241H23.8789ZM30.7374 11.9423C30.3482 11.9423 30.0058 11.8537 29.7102 11.6763C29.4146 11.4989 29.183 11.26 29.0155 10.9594C28.848 10.6589 28.7642 10.319 28.7642 9.93959C28.7642 9.56516 28.848 9.22765 29.0155 8.92713C29.183 8.62166 29.4146 8.38026 29.7102 8.20289C30.0058 8.02553 30.3482 7.93684 30.7374 7.93684C31.1217 7.93684 31.4617 8.02553 31.7573 8.20289C32.0529 8.38026 32.2845 8.62166 32.452 8.92713C32.6195 9.22765 32.7032 9.56516 32.7032 9.93959C32.7032 10.319 32.6195 10.6589 32.452 10.9594C32.2845 11.26 32.0529 11.4989 31.7573 11.6763C31.4617 11.8537 31.1217 11.9423 30.7374 11.9423ZM30.7374 11.2107C30.9444 11.2107 31.1365 11.1615 31.3139 11.0629C31.4912 10.9594 31.6341 10.8141 31.7425 10.6269C31.8558 10.4347 31.9125 10.2056 31.9125 9.93959C31.9125 9.67354 31.8558 9.44692 31.7425 9.25969C31.6341 9.06754 31.4912 8.92222 31.3139 8.82367C31.1365 8.7202 30.9444 8.66847 30.7374 8.66847C30.5305 8.66847 30.3359 8.7202 30.1536 8.82367C29.9762 8.92222 29.8309 9.06754 29.7176 9.25969C29.6092 9.44692 29.555 9.67354 29.555 9.93959C29.555 10.2056 29.6092 10.4347 29.7176 10.6269C29.8309 10.8141 29.9762 10.9594 30.1536 11.0629C30.3359 11.1615 30.5305 11.2107 30.7374 11.2107ZM33.174 11.8241V11.159L35.2728 8.74977H33.2405V8.05509H36.2483V8.72021L34.1569 11.1294H36.3075V11.8241H33.174ZM36.8619 11.8241V11.159L38.9608 8.74977H36.9284V8.05509H39.9364V8.72021L37.8449 11.1294H39.9955V11.8241H36.8619ZM41.8523 11.9423C41.5811 11.9423 41.3398 11.8906 41.128 11.7871C40.9159 11.6788 40.7511 11.5285 40.6329 11.3363C40.5146 11.1442 40.4555 10.925 40.4555 10.6786C40.4555 10.4126 40.5243 10.1859 40.6624 9.99871C40.8051 9.80657 40.995 9.66124 41.2315 9.56269C41.468 9.46414 41.7289 9.41488 42.0149 9.41488C42.2513 9.41488 42.4583 9.43706 42.6356 9.4814C42.8178 9.52574 42.9556 9.57256 43.0495 9.62181V9.42228C43.0495 9.17592 42.9608 8.97886 42.7834 8.83106C42.6061 8.68325 42.377 8.60935 42.0961 8.60935C41.904 8.60935 41.7215 8.65369 41.5493 8.74238C41.3767 8.82614 41.2389 8.94191 41.1354 9.08972L40.5885 8.66847C40.7511 8.44185 40.9654 8.26449 41.2315 8.13638C41.5023 8.00335 41.798 7.93684 42.1183 7.93684C42.6652 7.93684 43.0864 8.07234 43.382 8.3433C43.6777 8.60935 43.8255 8.98378 43.8255 9.46662V11.8241H43.0495V11.3585H43.0051C42.9065 11.5112 42.7587 11.6467 42.5617 11.765C42.3644 11.8832 42.1279 11.9423 41.8523 11.9423ZM41.9927 11.292C42.1996 11.292 42.3818 11.2427 42.5396 11.1442C42.697 11.0456 42.8204 10.9176 42.9091 10.7599C43.0026 10.5973 43.0495 10.4224 43.0495 10.2352C42.936 10.1712 42.803 10.1194 42.6504 10.08C42.4974 10.0357 42.3349 10.0135 42.1627 10.0135C41.8375 10.0135 41.6058 10.08 41.468 10.213C41.3298 10.3411 41.2611 10.4988 41.2611 10.686C41.2611 10.8634 41.3276 11.0087 41.4606 11.122C41.5936 11.2354 41.771 11.292 41.9927 11.292ZM41.8227 7.33085L42.1701 6.3849H43.0717L42.4804 7.33085H41.8227ZM45.8504 11.9423C45.5795 11.9423 45.3379 11.8906 45.1261 11.7871C44.9144 11.6788 44.7492 11.5285 44.631 11.3363C44.5127 11.1442 44.4536 10.925 44.4536 10.6786C44.4536 10.4126 44.5227 10.1859 44.6606 9.99871C44.8036 9.80657 44.9931 9.66124 45.2296 9.56269C45.4661 9.46414 45.7273 9.41488 46.013 9.41488C46.2494 9.41488 46.4564 9.43706 46.6337 9.4814C46.8159 9.52574 46.9541 9.57256 47.0476 9.62181V9.42228C47.0476 9.17592 46.9589 8.97886 46.7815 8.83106C46.6042 8.68325 46.3751 8.60935 46.0943 8.60935C45.9021 8.60935 45.7199 8.65369 45.5474 8.74238C45.3748 8.82614 45.237 8.94191 45.1335 9.08972L44.5867 8.66847C44.7492 8.44185 44.9636 8.26449 45.2296 8.13638C45.5005 8.00335 45.7961 7.93684 46.1164 7.93684C46.6633 7.93684 47.0845 8.07234 47.3801 8.3433C47.6758 8.60935 47.8236 8.98378 47.8236 9.46662V11.8241H47.0476V11.3585H47.0032C46.9046 11.5112 46.7568 11.6467 46.5598 11.765C46.3629 11.8832 46.1264 11.9423 45.8504 11.9423ZM45.9908 11.292C46.1977 11.292 46.3799 11.2427 46.5377 11.1442C46.6954 11.0456 46.8185 10.9176 46.9072 10.7599C47.0007 10.5973 47.0476 10.4224 47.0476 10.2352C46.9342 10.1712 46.8011 10.1194 46.6485 10.08C46.4959 10.0357 46.3333 10.0135 46.1608 10.0135C45.8356 10.0135 45.6039 10.08 45.4661 10.213C45.3283 10.3411 45.2592 10.4988 45.2592 10.686C45.2592 10.8634 45.3257 11.0087 45.4587 11.122C45.5917 11.2354 45.7691 11.292 45.9908 11.292ZM50.2771 11.9423C49.9372 11.9423 49.6294 11.8586 49.3533 11.6911C49.0825 11.5186 48.8656 11.2821 48.703 10.9816C48.5456 10.6761 48.4665 10.3288 48.4665 9.93959C48.4665 9.55038 48.5456 9.20548 48.703 8.90496C48.8656 8.60444 49.0825 8.36795 49.3533 8.1955C49.6294 8.02305 49.9372 7.93684 50.2771 7.93684C50.5679 7.93684 50.8166 8.00088 51.0235 8.12899C51.2356 8.2571 51.3908 8.40243 51.4891 8.56501H51.5334L51.4891 8.04031V6.5327H52.2799V11.8241H51.5334V11.3216H51.4891C51.3908 11.4841 51.2356 11.6295 51.0235 11.7576C50.8166 11.8807 50.5679 11.9423 50.2771 11.9423ZM50.3954 11.2107C50.5927 11.2107 50.7774 11.159 50.9496 11.0555C51.127 10.952 51.2674 10.8067 51.3709 10.6195C51.4795 10.4273 51.5334 10.2007 51.5334 9.93959C51.5334 9.67846 51.4795 9.45431 51.3709 9.26708C51.2674 9.07494 51.127 8.92713 50.9496 8.82367C50.7774 8.7202 50.5927 8.66847 50.3954 8.66847C50.1984 8.66847 50.0137 8.7202 49.8411 8.82367C49.6689 8.92713 49.5285 9.07494 49.4198 9.26708C49.3116 9.45431 49.2573 9.67846 49.2573 9.93959C49.2573 10.2007 49.3116 10.4273 49.4198 10.6195C49.5285 10.8067 49.6689 10.952 49.8411 11.0555C50.0137 11.159 50.1984 11.2107 50.3954 11.2107ZM54.3665 11.9423C54.0956 11.9423 53.854 11.8906 53.6422 11.7871C53.4305 11.6788 53.2653 11.5285 53.1471 11.3363C53.0289 11.1442 52.9697 10.925 52.9697 10.6786C52.9697 10.4126 53.0388 10.1859 53.1767 9.99871C53.3197 9.80657 53.5092 9.66124 53.7457 9.56269C53.9822 9.46414 54.2434 9.41488 54.5291 9.41488C54.7656 9.41488 54.9725 9.43706 55.1499 9.4814C55.332 9.52574 55.4702 9.57256 55.5637 9.62181V9.42228C55.5637 9.17592 55.475 8.97886 55.2977 8.83106C55.1203 8.68325 54.8912 8.60935 54.6104 8.60935C54.4182 8.60935 54.236 8.65369 54.0635 8.74238C53.8909 8.82614 53.7531 8.94191 53.6496 9.08972L53.1028 8.66847C53.2653 8.44185 53.4797 8.26449 53.7457 8.13638C54.0166 8.00335 54.3122 7.93684 54.6325 7.93684C55.1794 7.93684 55.6007 8.07234 55.8963 8.3433C56.1919 8.60935 56.3397 8.98378 56.3397 9.46662V11.8241H55.5637V11.3585H55.5194C55.4207 11.5112 55.2729 11.6467 55.0759 11.765C54.879 11.8832 54.6425 11.9423 54.3665 11.9423ZM54.5069 11.292C54.7138 11.292 54.896 11.2427 55.0538 11.1442C55.2116 11.0456 55.3346 10.9176 55.4233 10.7599C55.5168 10.5973 55.5637 10.4224 55.5637 10.2352C55.4503 10.1712 55.3172 10.1194 55.1646 10.08C55.012 10.0357 54.8494 10.0135 54.6769 10.0135C54.3517 10.0135 54.12 10.08 53.9822 10.213C53.8444 10.3411 53.7753 10.4988 53.7753 10.686C53.7753 10.8634 53.8418 11.0087 53.9748 11.122C54.1078 11.2354 54.2852 11.292 54.5069 11.292ZM54.3369 7.33085L54.6843 6.3849H55.5859L54.9947 7.33085H54.3369ZM58.5567 11.9423C58.1037 11.9423 57.7416 11.8438 57.4704 11.6467C57.1995 11.4447 57.0122 11.2058 56.9087 10.9299L57.6256 10.6195C57.7143 10.8215 57.8425 10.9767 58.0099 11.0851C58.1776 11.1885 58.3672 11.2403 58.5789 11.2403C58.7762 11.2403 58.9462 11.2058 59.0888 11.1368C59.2318 11.0629 59.3032 10.9447 59.3032 10.7821C59.3032 10.6244 59.2318 10.5086 59.0888 10.4347C58.9462 10.3608 58.7688 10.2968 58.5567 10.2426L58.1059 10.1391C57.9238 10.0948 57.7538 10.0258 57.596 9.9322C57.4386 9.8386 57.3104 9.71788 57.2117 9.57008C57.1134 9.41736 57.0639 9.24 57.0639 9.03798C57.0639 8.81628 57.1304 8.62413 57.2635 8.46155C57.3965 8.29405 57.5716 8.16594 57.7882 8.07726C58.0099 7.98366 58.2489 7.93684 58.505 7.93684C58.8549 7.93684 59.1605 8.00583 59.4214 8.14377C59.6874 8.27679 59.8822 8.4788 60.0052 8.74977L59.3179 9.06015C59.2292 8.89266 59.1136 8.77685 58.9706 8.71281C58.8328 8.64383 58.6802 8.60935 58.5124 8.60935C58.3254 8.60935 58.1676 8.64878 58.0394 8.7276C57.9164 8.80641 57.8547 8.90496 57.8547 9.0232C57.8547 9.15131 57.909 9.2523 58.0173 9.3262C58.1307 9.4001 58.2685 9.45923 58.4311 9.50357L58.978 9.63659C59.3527 9.73019 59.6335 9.87308 59.8205 10.0652C60.0078 10.2525 60.1013 10.4816 60.1013 10.7525C60.1013 10.9939 60.0326 11.2058 59.8944 11.3881C59.7565 11.5654 59.5692 11.7034 59.3327 11.8019C59.1014 11.8955 58.8427 11.9423 58.5567 11.9423ZM63.7051 11.9423C63.4343 11.9423 63.193 11.8906 62.9809 11.7871C62.7692 11.6788 62.604 11.5285 62.4857 11.3363C62.3675 11.1442 62.3084 10.925 62.3084 10.6786C62.3084 10.4126 62.3775 10.1859 62.5153 9.99871C62.6583 9.80657 62.8479 9.66124 63.0843 9.56269C63.3208 9.46414 63.5821 9.41488 63.8677 9.41488C64.1042 9.41488 64.3111 9.43706 64.4885 9.4814C64.671 9.52574 64.8089 9.57256 64.9023 9.62181V9.42228C64.9023 9.17592 64.8137 8.97886 64.6363 8.83106C64.4589 8.68325 64.2298 8.60935 63.949 8.60935C63.7569 8.60935 63.5747 8.65369 63.4021 8.74238C63.2299 8.82614 63.0917 8.94191 62.9883 9.08972L62.4414 8.66847C62.604 8.44185 62.8183 8.26449 63.0843 8.13638C63.3556 8.00335 63.6512 7.93684 63.9712 7.93684C64.5181 7.93684 64.9393 8.07234 65.2349 8.3433C65.5305 8.60935 65.6783 8.98378 65.6783 9.46662V11.8241H64.9023V11.3585H64.858C64.7597 11.5112 64.6119 11.6467 64.4146 11.765C64.2176 11.8832 63.9812 11.9423 63.7051 11.9423ZM63.8455 11.292C64.0525 11.292 64.235 11.2427 64.3924 11.1442C64.5502 11.0456 64.6732 10.9176 64.7619 10.7599C64.8558 10.5973 64.9023 10.4224 64.9023 10.2352C64.7893 10.1712 64.6563 10.1194 64.5033 10.08C64.3507 10.0357 64.1881 10.0135 64.0155 10.0135C63.6903 10.0135 63.459 10.08 63.3208 10.213C63.183 10.3411 63.1139 10.4988 63.1139 10.686C63.1139 10.8634 63.1804 11.0087 63.3134 11.122C63.4465 11.2354 63.6238 11.292 63.8455 11.292ZM68.2819 11.8241V6.5327H69.08V9.65137L70.6763 8.05509H71.6666V8.09943L70.2107 9.54052L71.7183 11.7798V11.8241H70.7724L69.6491 10.0948L69.08 10.6564V11.8241H68.2819ZM73.8807 11.9423C73.4916 11.9423 73.1491 11.8537 72.8535 11.6763C72.5579 11.4989 72.3262 11.26 72.1588 10.9594C71.9914 10.6589 71.9075 10.319 71.9075 9.93959C71.9075 9.56516 71.9914 9.22765 72.1588 8.92713C72.3262 8.62166 72.5579 8.38026 72.8535 8.20289C73.1491 8.02553 73.4916 7.93684 73.8807 7.93684C74.265 7.93684 74.605 8.02553 74.9006 8.20289C75.1962 8.38026 75.4278 8.62166 75.5952 8.92713C75.7626 9.22765 75.8465 9.56516 75.8465 9.93959C75.8465 10.319 75.7626 10.6589 75.5952 10.9594C75.4278 11.26 75.1962 11.4989 74.9006 11.6763C74.605 11.8537 74.265 11.9423 73.8807 11.9423ZM73.8807 11.2107C74.0876 11.2107 74.2798 11.1615 74.4571 11.0629C74.6345 10.9594 74.7775 10.8141 74.8858 10.6269C74.9992 10.4347 75.0558 10.2056 75.0558 9.93959C75.0558 9.67354 74.9992 9.44692 74.8858 9.25969C74.7775 9.06754 74.6345 8.92222 74.4571 8.82367C74.2798 8.7202 74.0876 8.66847 73.8807 8.66847C73.6738 8.66847 73.479 8.7202 73.2969 8.82367C73.1195 8.92222 72.9743 9.06754 72.8609 9.25969C72.7526 9.44692 72.6983 9.67354 72.6983 9.93959C72.6983 10.2056 72.7526 10.4347 72.8609 10.6269C72.9743 10.8141 73.1195 10.9594 73.2969 11.0629C73.479 11.1615 73.6738 11.2107 73.8807 11.2107ZM74.5311 7.2865C74.408 7.2865 74.2994 7.24216 74.2059 7.15348C74.1172 7.05988 74.0729 6.94903 74.0729 6.82092C74.0729 6.69281 74.1172 6.58691 74.2059 6.50314C74.2994 6.41446 74.408 6.37012 74.5311 6.37012C74.6641 6.37012 74.7749 6.41446 74.8636 6.50314C74.9523 6.58691 74.9966 6.69281 74.9966 6.82092C74.9966 6.94903 74.9523 7.05988 74.8636 7.15348C74.7749 7.24216 74.6641 7.2865 74.5311 7.2865ZM73.223 7.2865C73.0999 7.2865 72.9913 7.24216 72.8978 7.15348C72.8091 7.05988 72.7648 6.94903 72.7648 6.82092C72.7648 6.69281 72.8091 6.58691 72.8978 6.50314C72.9913 6.41446 73.0999 6.37012 73.223 6.37012C73.356 6.37012 73.4643 6.41446 73.5482 6.50314C73.6368 6.58691 73.6812 6.69281 73.6812 6.82092C73.6812 6.94903 73.6368 7.05988 73.5482 7.15348C73.4643 7.24216 73.356 7.2865 73.223 7.2865ZM77.6187 11.8241L76.0593 8.05509H76.9462L78.003 10.7969H78.0399L79.1189 8.05509H79.9909L78.4168 11.8241H77.6187ZM82.1212 11.9423C81.7517 11.9423 81.4217 11.8561 81.1309 11.6837C80.8404 11.5112 80.6113 11.2747 80.4436 10.9742C80.281 10.6737 80.1997 10.3313 80.1997 9.94698C80.1997 9.58734 80.2788 9.25478 80.4362 8.9493C80.594 8.64383 80.8131 8.39995 81.0939 8.21767C81.3799 8.03044 81.7073 7.93684 82.0768 7.93684C82.4663 7.93684 82.7963 8.02061 83.0671 8.18811C83.3431 8.35561 83.5527 8.58471 83.6953 8.8754C83.8383 9.16609 83.9096 9.4937 83.9096 9.8583C83.9096 9.91251 83.9074 9.96176 83.9022 10.0061C83.9022 10.0504 83.9 10.0849 83.8948 10.1096H80.9831C81.0226 10.484 81.1531 10.7648 81.3748 10.952C81.6016 11.1393 81.8577 11.2329 82.1433 11.2329C82.3998 11.2329 82.6115 11.1762 82.7789 11.0629C82.9467 10.9447 83.0797 10.7993 83.178 10.6269L83.8357 10.9447C83.6731 11.2403 83.4514 11.4817 83.1706 11.6689C82.8897 11.8512 82.5402 11.9423 82.1212 11.9423ZM82.0842 8.61674C81.8182 8.61674 81.5917 8.69803 81.4043 8.86062C81.2173 9.0232 81.0917 9.24 81.0274 9.51096H83.1189C83.1092 9.38285 83.0671 9.24982 82.9932 9.11189C82.9193 8.97395 82.8062 8.85814 82.6533 8.76455C82.5055 8.666 82.3159 8.61674 82.0842 8.61674ZM84.9409 10.7303V8.74977H84.2832V8.05509H84.9409V6.9909H85.7391V8.05509H86.6628V8.74977H85.7391V10.5604C85.7391 10.7476 85.776 10.8905 85.8499 10.989C85.929 11.0875 86.0594 11.1368 86.2416 11.1368C86.3354 11.1368 86.4141 11.1245 86.4781 11.0999C86.5472 11.0752 86.6163 11.0407 86.685 10.9964V11.7724C86.6015 11.8068 86.5128 11.834 86.419 11.8537C86.3255 11.8734 86.2146 11.8832 86.0864 11.8832C85.7368 11.8832 85.4582 11.7822 85.2513 11.5802C85.0444 11.3733 84.9409 11.09 84.9409 10.7303ZM87.4647 11.8241V6.5327H88.2628V9.65137L89.8591 8.05509H90.8494V8.09943L89.3935 9.54052L90.9011 11.7798V11.8241H89.9552L88.8319 10.0948L88.2628 10.6564V11.8241H87.4647ZM93.0118 11.9423C92.6422 11.9423 92.3123 11.8561 92.0215 11.6837C91.7307 11.5112 91.5016 11.2747 91.3342 10.9742C91.1716 10.6737 91.0903 10.3313 91.0903 9.94698C91.0903 9.58734 91.169 9.25478 91.3268 8.9493C91.4846 8.64383 91.7037 8.39995 91.9845 8.21767C92.2701 8.03044 92.5979 7.93684 92.9674 7.93684C93.3565 7.93684 93.6868 8.02061 93.9577 8.18811C94.2337 8.35561 94.4429 8.58471 94.5859 8.8754C94.7289 9.16609 94.8002 9.4937 94.8002 9.8583C94.8002 9.91251 94.7976 9.96176 94.7928 10.0061C94.7928 10.0504 94.7902 10.0849 94.7854 10.1096H91.8737C91.9132 10.484 92.0436 10.7648 92.2653 10.952C92.4919 11.1393 92.7483 11.2329 93.0339 11.2329C93.29 11.2329 93.5021 11.1762 93.6695 11.0629C93.8369 10.9447 93.9699 10.7993 94.0686 10.6269L94.7263 10.9447C94.5637 11.2403 94.342 11.4817 94.0612 11.6689C93.7803 11.8512 93.4304 11.9423 93.0118 11.9423ZM92.9748 8.61674C92.7088 8.61674 92.4822 8.69803 92.2949 8.86062C92.1076 9.0232 91.9819 9.24 91.918 9.51096H94.0094C93.9995 9.38285 93.9577 9.24982 93.8838 9.11189C93.8099 8.97395 93.6965 8.85814 93.5438 8.76455C93.396 8.666 93.2065 8.61674 92.9748 8.61674ZM95.3123 11.8241V11.159L97.4111 8.74977H95.3788V8.05509H98.3867V8.72021L96.2952 11.1294H98.4458V11.8241H95.3123ZM100.894 11.9423C100.505 11.9423 100.162 11.8537 99.8666 11.6763C99.5709 11.4989 99.3396 11.26 99.1719 10.9594C99.0045 10.6589 98.9206 10.319 98.9206 9.93959C98.9206 9.56516 99.0045 9.22765 99.1719 8.92713C99.3396 8.62166 99.5709 8.38026 99.8666 8.20289C100.162 8.02553 100.505 7.93684 100.894 7.93684C101.278 7.93684 101.618 8.02553 101.914 8.20289C102.209 8.38026 102.441 8.62166 102.608 8.92713C102.776 9.22765 102.86 9.56516 102.86 9.93959C102.86 10.319 102.776 10.6589 102.608 10.9594C102.441 11.26 102.209 11.4989 101.914 11.6763C101.618 11.8537 101.278 11.9423 100.894 11.9423ZM100.894 11.2107C101.101 11.2107 101.293 11.1615 101.47 11.0629C101.648 10.9594 101.791 10.8141 101.899 10.6269C102.012 10.4347 102.069 10.2056 102.069 9.93959C102.069 9.67354 102.012 9.44692 101.899 9.25969C101.791 9.06754 101.648 8.92222 101.47 8.82367C101.293 8.7202 101.101 8.66847 100.894 8.66847C100.687 8.66847 100.492 8.7202 100.31 8.82367C100.133 8.92222 99.9874 9.06754 99.8739 9.25969C99.7657 9.44692 99.7114 9.67354 99.7114 9.93959C99.7114 10.2056 99.7657 10.4347 99.8739 10.6269C99.9874 10.8141 100.133 10.9594 100.31 11.0629C100.492 11.1615 100.687 11.2107 100.894 11.2107ZM99.9109 7.33085L100.258 6.3849H101.16L100.569 7.33085H99.9109ZM101.226 7.33085L101.574 6.3849H102.475L101.884 7.33085H101.226ZM103.559 11.8241V6.5327H104.357V7.98118L104.312 8.5724H104.357C104.46 8.39012 104.618 8.23984 104.83 8.1216C105.047 7.99844 105.285 7.93684 105.547 7.93684C106.015 7.93684 106.367 8.07726 106.603 8.35808C106.84 8.634 106.958 8.99612 106.958 9.44445V11.8241H106.167V9.54791C106.167 9.24243 106.086 9.02073 105.924 8.88279C105.766 8.7399 105.571 8.66847 105.34 8.66847C105.148 8.66847 104.978 8.72268 104.83 8.83106C104.682 8.93944 104.566 9.08233 104.482 9.25969C104.399 9.43214 104.357 9.6169 104.357 9.81396V11.8241H103.559ZM109.641 11.9423C109.252 11.9423 108.909 11.8537 108.614 11.6763C108.318 11.4989 108.087 11.26 107.919 10.9594C107.752 10.6589 107.668 10.319 107.668 9.93959C107.668 9.56516 107.752 9.22765 107.919 8.92713C108.087 8.62166 108.318 8.38026 108.614 8.20289C108.909 8.02553 109.252 7.93684 109.641 7.93684C110.025 7.93684 110.365 8.02553 110.661 8.20289C110.956 8.38026 111.188 8.62166 111.355 8.92713C111.523 9.22765 111.607 9.56516 111.607 9.93959C111.607 10.319 111.523 10.6589 111.355 10.9594C111.188 11.26 110.956 11.4989 110.661 11.6763C110.365 11.8537 110.025 11.9423 109.641 11.9423ZM109.641 11.2107C109.848 11.2107 110.04 11.1615 110.217 11.0629C110.395 10.9594 110.538 10.8141 110.646 10.6269C110.759 10.4347 110.816 10.2056 110.816 9.93959C110.816 9.67354 110.759 9.44692 110.646 9.25969C110.538 9.06754 110.395 8.92222 110.217 8.82367C110.04 8.7202 109.848 8.66847 109.641 8.66847C109.434 8.66847 109.24 8.7202 109.057 8.82367C108.88 8.92222 108.734 9.06754 108.621 9.25969C108.513 9.44692 108.458 9.67354 108.458 9.93959C108.458 10.2056 108.513 10.4347 108.621 10.6269C108.734 10.8141 108.88 10.9594 109.057 11.0629C109.24 11.1615 109.434 11.2107 109.641 11.2107ZM110.291 7.2865C110.168 7.2865 110.06 7.24216 109.966 7.15348C109.877 7.05988 109.833 6.94903 109.833 6.82092C109.833 6.69281 109.877 6.58691 109.966 6.50314C110.06 6.41446 110.168 6.37012 110.291 6.37012C110.424 6.37012 110.535 6.41446 110.624 6.50314C110.712 6.58691 110.757 6.69281 110.757 6.82092C110.757 6.94903 110.712 7.05988 110.624 7.15348C110.535 7.24216 110.424 7.2865 110.291 7.2865ZM108.983 7.2865C108.86 7.2865 108.752 7.24216 108.658 7.15348C108.569 7.05988 108.525 6.94903 108.525 6.82092C108.525 6.69281 108.569 6.58691 108.658 6.50314C108.752 6.41446 108.86 6.37012 108.983 6.37012C109.116 6.37012 109.225 6.41446 109.308 6.50314C109.397 6.58691 109.441 6.69281 109.441 6.82092C109.441 6.94903 109.397 7.05988 109.308 7.15348C109.225 7.24216 109.116 7.2865 108.983 7.2865ZM112.077 11.8241V11.159L114.176 8.74977H112.144V8.05509H115.152V8.72021L113.06 11.1294H115.211V11.8241H112.077Z" fill="white"/>
<path d="M120.607 11.9429C120.228 11.9429 119.871 11.8739 119.536 11.736C119.206 11.5981 118.912 11.4059 118.656 11.1596C118.4 10.9083 118.198 10.6152 118.05 10.2801C117.907 9.94017 117.836 9.57314 117.836 9.17898C117.836 8.78482 117.907 8.42026 118.05 8.08523C118.198 7.74528 118.398 7.45214 118.649 7.20579C118.905 6.95452 119.201 6.7599 119.536 6.62196C119.871 6.48403 120.228 6.41504 120.607 6.41504C121.011 6.41504 121.383 6.48647 121.723 6.62936C122.068 6.77224 122.356 6.97178 122.588 7.22796L122.026 7.78223C121.854 7.59008 121.647 7.44228 121.405 7.33882C121.169 7.23535 120.903 7.18362 120.607 7.18362C120.257 7.18362 119.935 7.26739 119.639 7.43489C119.344 7.59747 119.104 7.82905 118.922 8.12957C118.745 8.42518 118.656 8.77499 118.656 9.17898C118.656 9.58296 118.748 9.93526 118.93 10.2358C119.112 10.5314 119.351 10.763 119.647 10.9305C119.942 11.093 120.265 11.1743 120.615 11.1743C120.935 11.1743 121.225 11.1152 121.487 10.997C121.748 10.8738 121.957 10.7014 122.115 10.4797C122.277 10.2579 122.376 9.9919 122.41 9.68151H120.6V8.96466H123.172C123.201 9.09769 123.216 9.2381 123.216 9.3859V9.39329C123.216 9.9057 123.103 10.354 122.876 10.7383C122.654 11.1177 122.347 11.4133 121.952 11.6251C121.558 11.837 121.11 11.9429 120.607 11.9429ZM125.596 11.9429C125.207 11.9429 124.864 11.8542 124.568 11.6769C124.273 11.4995 124.041 11.2605 123.874 10.96C123.706 10.6595 123.622 10.3195 123.622 9.94017C123.622 9.56575 123.706 9.22823 123.874 8.92771C124.041 8.62224 124.273 8.38084 124.568 8.20347C124.864 8.02611 125.207 7.93742 125.596 7.93742C125.98 7.93742 126.32 8.02611 126.616 8.20347C126.911 8.38084 127.143 8.62224 127.31 8.92771C127.478 9.22823 127.561 9.56575 127.561 9.94017C127.561 10.3195 127.478 10.6595 127.31 10.96C127.143 11.2605 126.911 11.4995 126.616 11.6769C126.32 11.8542 125.98 11.9429 125.596 11.9429ZM125.596 11.2113C125.803 11.2113 125.995 11.162 126.172 11.0635C126.349 10.96 126.492 10.8147 126.601 10.6275C126.714 10.4353 126.771 10.2062 126.771 9.94017C126.771 9.67412 126.714 9.4475 126.601 9.26027C126.492 9.06813 126.349 8.9228 126.172 8.82425C125.995 8.72078 125.803 8.66905 125.596 8.66905C125.389 8.66905 125.194 8.72078 125.012 8.82425C124.834 8.9228 124.689 9.06813 124.576 9.26027C124.468 9.4475 124.413 9.67412 124.413 9.94017C124.413 10.2062 124.468 10.4353 124.576 10.6275C124.689 10.8147 124.834 10.96 125.012 11.0635C125.194 11.162 125.389 11.2113 125.596 11.2113ZM130.07 11.9429C129.681 11.9429 129.338 11.8542 129.043 11.6769C128.747 11.4995 128.516 11.2605 128.348 10.96C128.181 10.6595 128.097 10.3195 128.097 9.94017C128.097 9.56575 128.181 9.22823 128.348 8.92771C128.516 8.62224 128.747 8.38084 129.043 8.20347C129.338 8.02611 129.681 7.93742 130.07 7.93742C130.454 7.93742 130.794 8.02611 131.09 8.20347C131.386 8.38084 131.617 8.62224 131.785 8.92771C131.952 9.22823 132.036 9.56575 132.036 9.94017C132.036 10.3195 131.952 10.6595 131.785 10.96C131.617 11.2605 131.386 11.4995 131.09 11.6769C130.794 11.8542 130.454 11.9429 130.07 11.9429ZM130.07 11.2113C130.277 11.2113 130.469 11.162 130.647 11.0635C130.824 10.96 130.967 10.8147 131.075 10.6275C131.189 10.4353 131.245 10.2062 131.245 9.94017C131.245 9.67412 131.189 9.4475 131.075 9.26027C130.967 9.06813 130.824 8.9228 130.647 8.82425C130.469 8.72078 130.277 8.66905 130.07 8.66905C129.863 8.66905 129.669 8.72078 129.486 8.82425C129.309 8.9228 129.164 9.06813 129.05 9.26027C128.942 9.4475 128.888 9.67412 128.888 9.94017C128.888 10.2062 128.942 10.4353 129.05 10.6275C129.164 10.8147 129.309 10.96 129.486 11.0635C129.669 11.162 129.863 11.2113 130.07 11.2113ZM134.471 13.5392C134.141 13.5392 133.855 13.485 133.614 13.3766C133.377 13.2732 133.185 13.1377 133.037 12.9702C132.889 12.8076 132.783 12.6401 132.719 12.4676L133.458 12.1572C133.537 12.3543 133.663 12.5144 133.835 12.6376C134.013 12.7657 134.224 12.8297 134.471 12.8297C134.816 12.8297 135.087 12.7263 135.284 12.5194C135.486 12.3124 135.587 12.0193 135.587 11.6399V11.2778H135.543C135.424 11.4552 135.259 11.5981 135.047 11.7064C134.84 11.8099 134.604 11.8616 134.338 11.8616C134.018 11.8616 133.725 11.7803 133.458 11.6177C133.192 11.4552 132.978 11.2285 132.816 10.9378C132.653 10.6422 132.572 10.2974 132.572 9.90322C132.572 9.50415 132.653 9.15928 132.816 8.86859C132.978 8.57298 133.192 8.34388 133.458 8.1813C133.725 8.01871 134.018 7.93742 134.338 7.93742C134.604 7.93742 134.84 7.99163 135.047 8.10001C135.259 8.20838 135.424 8.35127 135.543 8.52864H135.587V8.05567H136.348V11.6251C136.348 12.0341 136.267 12.3814 136.104 12.6672C135.946 12.9529 135.727 13.1697 135.446 13.3175C135.166 13.4653 134.84 13.5392 134.471 13.5392ZM134.478 11.1374C134.675 11.1374 134.857 11.0906 135.025 10.997C135.193 10.8984 135.328 10.758 135.432 10.5757C135.535 10.3885 135.587 10.1644 135.587 9.90322C135.587 9.63226 135.535 9.4056 135.432 9.22332C135.328 9.03609 135.193 8.89567 135.025 8.80208C134.857 8.70848 134.675 8.66166 134.478 8.66166C134.281 8.66166 134.096 8.71092 133.924 8.80947C133.756 8.90306 133.621 9.04104 133.518 9.22332C133.414 9.4056 133.362 9.63226 133.362 9.90322C133.362 10.1693 133.414 10.3959 133.518 10.5831C133.621 10.7654 133.756 10.9034 133.924 10.997C134.096 11.0906 134.281 11.1374 134.478 11.1374ZM137.289 11.8247V6.53328H138.087V11.8247H137.289ZM140.714 11.9429C140.345 11.9429 140.014 11.8567 139.724 11.6843C139.433 11.5118 139.204 11.2753 139.037 10.9748C138.874 10.6743 138.793 10.3319 138.793 9.94756C138.793 9.58792 138.871 9.25536 139.029 8.94988C139.187 8.64441 139.406 8.40053 139.687 8.21825C139.973 8.03102 140.3 7.93742 140.67 7.93742C141.059 7.93742 141.389 8.02119 141.66 8.18869C141.936 8.35619 142.145 8.58529 142.288 8.87598C142.431 9.16667 142.503 9.49428 142.503 9.85888C142.503 9.91309 142.5 9.96234 142.495 10.0067C142.495 10.051 142.493 10.0855 142.488 10.1101H139.576C139.615 10.4846 139.746 10.7654 139.968 10.9526C140.194 11.1399 140.45 11.2335 140.736 11.2335C140.992 11.2335 141.204 11.1768 141.372 11.0635C141.539 10.9452 141.672 10.7999 141.771 10.6275L142.429 10.9452C142.266 11.2408 142.044 11.4822 141.764 11.6695C141.483 11.8518 141.133 11.9429 140.714 11.9429ZM140.677 8.61732C140.411 8.61732 140.184 8.69861 139.997 8.8612C139.81 9.02378 139.684 9.24058 139.62 9.51154H141.712C141.702 9.38343 141.66 9.2504 141.586 9.11247C141.512 8.97453 141.399 8.85872 141.246 8.76513C141.098 8.66658 140.909 8.61732 140.677 8.61732ZM145.751 11.8247L144.332 6.53328H145.234L146.076 9.96973L146.165 10.4279H146.209L146.32 9.96973L147.384 6.53328H148.197L149.217 9.96973L149.328 10.4205H149.372L149.461 9.96973L150.303 6.53328H151.198L149.801 11.8247H148.944L147.931 8.31432L147.813 7.81918H147.769L147.643 8.31432L146.586 11.8247H145.751ZM152.682 11.9429C152.411 11.9429 152.169 11.8912 151.957 11.7877C151.746 11.6793 151.58 11.5291 151.462 11.3369C151.344 11.1448 151.285 10.9255 151.285 10.6792C151.285 10.4131 151.354 10.1865 151.492 9.99929C151.635 9.80715 151.824 9.66182 152.061 9.56327C152.297 9.46472 152.558 9.41547 152.844 9.41547C153.081 9.41547 153.288 9.43764 153.465 9.48198C153.647 9.52632 153.785 9.57314 153.879 9.62239V9.42286C153.879 9.1765 153.79 8.97944 153.613 8.83164C153.435 8.68383 153.206 8.60993 152.925 8.60993C152.733 8.60993 152.551 8.65427 152.379 8.74296C152.206 8.82672 152.068 8.94249 151.965 9.0903L151.418 8.66905C151.58 8.44243 151.795 8.26507 152.061 8.13696C152.332 8.00393 152.628 7.93742 152.948 7.93742C153.494 7.93742 153.916 8.07292 154.211 8.34388C154.507 8.60993 154.655 8.98436 154.655 9.4672V11.8247H153.879V11.3591H153.834C153.736 11.5118 153.588 11.6473 153.391 11.7656C153.194 11.8838 152.958 11.9429 152.682 11.9429ZM152.822 11.2926C153.029 11.2926 153.211 11.2433 153.369 11.1448C153.527 11.0462 153.65 10.9182 153.738 10.7605C153.832 10.5979 153.879 10.423 153.879 10.2358C153.766 10.1717 153.633 10.12 153.48 10.0806C153.327 10.0362 153.164 10.0141 152.992 10.0141C152.667 10.0141 152.435 10.0806 152.297 10.2136C152.159 10.3417 152.09 10.4994 152.09 10.6866C152.09 10.8639 152.157 11.0093 152.29 11.1226C152.423 11.2359 152.6 11.2926 152.822 11.2926ZM155.541 11.8247V6.53328H156.339V11.8247H155.541ZM157.287 11.8247V6.53328H158.086V11.8247H157.287ZM160.712 11.9429C160.343 11.9429 160.013 11.8567 159.722 11.6843C159.431 11.5118 159.202 11.2753 159.035 10.9748C158.872 10.6743 158.791 10.3319 158.791 9.94756C158.791 9.58792 158.87 9.25536 159.028 8.94988C159.185 8.64441 159.404 8.40053 159.685 8.21825C159.971 8.03102 160.299 7.93742 160.668 7.93742C161.057 7.93742 161.387 8.02119 161.658 8.18869C161.934 8.35619 162.144 8.58529 162.287 8.87598C162.429 9.16667 162.501 9.49428 162.501 9.85888C162.501 9.91309 162.498 9.96234 162.494 10.0067C162.494 10.051 162.491 10.0855 162.486 10.1101H159.574C159.614 10.4846 159.744 10.7654 159.966 10.9526C160.193 11.1399 160.449 11.2335 160.735 11.2335C160.991 11.2335 161.202 11.1768 161.37 11.0635C161.538 10.9452 161.671 10.7999 161.769 10.6275L162.427 10.9452C162.264 11.2408 162.043 11.4822 161.762 11.6695C161.481 11.8518 161.131 11.9429 160.712 11.9429ZM160.676 8.61732C160.409 8.61732 160.183 8.69861 159.996 8.8612C159.808 9.02378 159.683 9.24058 159.619 9.51154H161.71C161.7 9.38343 161.658 9.2504 161.585 9.11247C161.511 8.97453 161.397 8.85872 161.245 8.76513C161.097 8.66658 160.907 8.61732 160.676 8.61732ZM163.532 10.7309V8.75035H162.874V8.05567H163.532V6.99148H164.33V8.05567H165.254V8.75035H164.33V10.5609C164.33 10.7482 164.367 10.891 164.441 10.9896C164.52 11.0881 164.65 11.1374 164.833 11.1374C164.926 11.1374 165.005 11.1251 165.069 11.1004C165.138 11.0758 165.207 11.0413 165.276 10.997V11.7729C165.192 11.8074 165.104 11.8345 165.01 11.8542C164.916 11.8739 164.806 11.8838 164.678 11.8838C164.328 11.8838 164.05 11.7828 163.843 11.5808C163.636 11.3739 163.532 11.0906 163.532 10.7309Z" fill="white"/>
<path d="M164.431 0.18457H9.2366C4.23676 0.18457 0.183594 4.23774 0.183594 9.23758C0.183594 14.2374 4.23676 18.2906 9.2366 18.2906H164.431C169.431 18.2906 173.484 14.2374 173.484 9.23758C173.484 4.23774 169.431 0.18457 164.431 0.18457Z" stroke="#747775"/>
</g>
<defs>
<linearGradient id="paint0_linear_568_430" x1="12.7722" y1="11.3762" x2="6.91936" y2="18.0743" gradientUnits="userSpaceOnUse">
<stop stop-color="#4285F4"/>
<stop offset="1" stop-color="#1B74E8"/>
</linearGradient>
<clipPath id="clip0_568_430">
<rect width="173.67" height="18.4755" fill="white"/>
</clipPath>
</defs>
</svg>
