<svg width="174" height="48" viewBox="0 0 174 48" fill="none" xmlns="http://www.w3.org/2000/svg">
<g clip-path="url(#clip0_568_493)">
<path d="M149.672 0.436523H24.0008C10.9871 0.436523 0.4375 10.9862 0.4375 23.9998C0.4375 37.0134 10.9871 47.563 24.0008 47.563H149.672C162.685 47.563 173.235 37.0134 173.235 23.9998C173.235 10.9862 162.685 0.436523 149.672 0.436523Z" fill="#1F1F1F"/>
<path d="M49.7458 20.7629H18.3281V15.8361C18.3281 13.1615 20.634 10.9092 23.3722 10.9092H44.7017C47.4399 10.9092 49.7458 13.1615 49.7458 15.8361V20.7629Z" fill="#34A853"/>
<path d="M49.7458 25.3085H18.3281V20.0722C18.3281 17.2297 20.634 14.8359 23.3722 14.8359H44.7017C47.4399 14.8359 49.7458 17.2297 49.7458 20.0722V25.3085Z" fill="#FBBC04"/>
<path d="M49.7458 29.6718H18.3281V24.4355C18.3281 21.593 20.634 19.1992 23.3722 19.1992H44.7017C47.4399 19.1992 49.7458 21.593 49.7458 24.4355V29.6718Z" fill="#EA4335"/>
<path d="M18.3281 22.0276L38.269 26.5322C40.5644 27.0953 43.1467 26.5322 45.0116 25.1245L49.7458 21.7461V32.3037C49.7458 34.9783 47.4505 37.0898 44.7247 37.0898H23.3492C20.6234 37.0898 18.3281 34.9783 18.3281 32.3037V22.0276Z" fill="url(#paint0_linear_568_493)"/>
<path d="M60.3867 18.7635L63.4499 10.6403H64.8681L67.9427 18.7635H66.5699L65.8211 16.676H62.5083L61.7595 18.7635H60.3867ZM63.8243 13.0341L62.9281 15.5187H65.4013L64.5051 13.0341L64.1987 12.1038H64.1307L63.8243 13.0341ZM71.3295 21.3956C70.8227 21.3956 70.3841 21.3124 70.0134 21.146C69.6504 20.9872 69.3554 20.7792 69.1285 20.522C68.9016 20.2724 68.739 20.0152 68.6407 19.7505L69.7752 19.274C69.8962 19.5766 70.0891 19.8224 70.3538 20.0115C70.6261 20.2081 70.9514 20.3065 71.3295 20.3065C71.859 20.3065 72.2749 20.1476 72.5775 19.83C72.8876 19.5123 73.0426 19.0622 73.0426 18.4799V17.9239H72.9746C72.793 18.1962 72.5397 18.4155 72.2144 18.582C71.8968 18.7408 71.5337 18.8202 71.1253 18.8202C70.6337 18.8202 70.1836 18.6954 69.7752 18.4458C69.3668 18.1962 69.0378 17.8483 68.7882 17.4021C68.5386 16.9483 68.4138 16.4188 68.4138 15.8137C68.4138 15.2011 68.5386 14.6716 68.7882 14.2254C69.0378 13.7716 69.3668 13.4199 69.7752 13.1703C70.1836 12.9207 70.6337 12.7959 71.1253 12.7959C71.5337 12.7959 71.8968 12.8791 72.2144 13.0455C72.5397 13.2119 72.793 13.4312 72.9746 13.7035H73.0426V12.9774H74.2112V18.4572C74.2112 19.0849 74.0864 19.6181 73.8368 20.0569C73.5948 20.4956 73.2582 20.8283 72.8271 21.0552C72.396 21.2821 71.8968 21.3956 71.3295 21.3956ZM71.3408 17.7084C71.6434 17.7084 71.9232 17.6366 72.1804 17.4928C72.4376 17.3416 72.6455 17.126 72.8044 16.8461C72.9632 16.5588 73.0426 16.2146 73.0426 15.8137C73.0426 15.3977 72.9632 15.0498 72.8044 14.77C72.6455 14.4826 72.4376 14.267 72.1804 14.1233C71.9232 13.9795 71.6434 13.9077 71.3408 13.9077C71.0383 13.9077 70.7546 13.9834 70.4899 14.1346C70.2328 14.2784 70.0248 14.4901 69.866 14.77C69.7071 15.0498 69.6277 15.3977 69.6277 15.8137C69.6277 16.2222 69.7071 16.5701 69.866 16.8575C70.0248 17.1374 70.2328 17.3491 70.4899 17.4928C70.7546 17.6366 71.0383 17.7084 71.3408 17.7084ZM78.1987 21.3956C77.6919 21.3956 77.2533 21.3124 76.8827 21.146C76.5196 20.9872 76.2246 20.7792 75.9977 20.522C75.7708 20.2724 75.6082 20.0152 75.5099 19.7505L76.6444 19.274C76.7655 19.5766 76.9583 19.8224 77.223 20.0115C77.4953 20.2081 77.8206 20.3065 78.1987 20.3065C78.7282 20.3065 79.1441 20.1476 79.4467 19.83C79.7568 19.5123 79.9119 19.0622 79.9119 18.4799V17.9239H79.8438C79.6623 18.1962 79.4089 18.4155 79.0836 18.582C78.766 18.7408 78.4029 18.8202 77.9945 18.8202C77.5029 18.8202 77.0528 18.6954 76.6444 18.4458C76.236 18.1962 75.907 17.8483 75.6574 17.4021C75.4078 16.9483 75.283 16.4188 75.283 15.8137C75.283 15.2011 75.4078 14.6716 75.6574 14.2254C75.907 13.7716 76.236 13.4199 76.6444 13.1703C77.0528 12.9207 77.5029 12.7959 77.9945 12.7959C78.4029 12.7959 78.766 12.8791 79.0836 13.0455C79.4089 13.2119 79.6623 13.4312 79.8438 13.7035H79.9119V12.9774H81.0804V18.4572C81.0804 19.0849 80.9556 19.6181 80.706 20.0569C80.464 20.4956 80.1274 20.8283 79.6963 21.0552C79.2652 21.2821 78.766 21.3956 78.1987 21.3956ZM78.2101 17.7084C78.5126 17.7084 78.7924 17.6366 79.0496 17.4928C79.3068 17.3416 79.5148 17.126 79.6736 16.8461C79.8324 16.5588 79.9119 16.2146 79.9119 15.8137C79.9119 15.3977 79.8324 15.0498 79.6736 14.77C79.5148 14.4826 79.3068 14.267 79.0496 14.1233C78.7924 13.9795 78.5126 13.9077 78.2101 13.9077C77.9075 13.9077 77.6239 13.9834 77.3592 14.1346C77.102 14.2784 76.894 14.4901 76.7352 14.77C76.5763 15.0498 76.4969 15.3977 76.4969 15.8137C76.4969 16.2222 76.5763 16.5701 76.7352 16.8575C76.894 17.1374 77.102 17.3491 77.3592 17.4928C77.6239 17.6366 77.9075 17.7084 78.2101 17.7084ZM83.2173 12.1265C82.9904 12.1265 82.7937 12.0471 82.6274 11.8883C82.4686 11.7218 82.3891 11.5252 82.3891 11.2983C82.3891 11.0714 82.4686 10.8785 82.6274 10.7197C82.7937 10.5609 82.9904 10.4814 83.2173 10.4814C83.4442 10.4814 83.6371 10.5609 83.796 10.7197C83.9623 10.8785 84.0455 11.0714 84.0455 11.2983C84.0455 11.5252 83.9623 11.7218 83.796 11.8883C83.6371 12.0471 83.4442 12.1265 83.2173 12.1265ZM82.6047 18.7635V12.9774H83.83V18.7635H82.6047ZM87.4487 18.945C86.7381 18.945 86.2011 18.7332 85.8381 18.3097C85.4826 17.8786 85.3049 17.2962 85.3049 16.5625V12.9774H86.5302V16.3923C86.5302 16.8839 86.6436 17.247 86.8705 17.4815C87.1049 17.7084 87.3963 17.8218 87.7437 17.8218C88.0544 17.8218 88.3223 17.7424 88.5492 17.5836C88.7839 17.4172 88.962 17.2054 89.0824 16.9483C89.2116 16.6836 89.2753 16.3961 89.2753 16.086V12.9774H90.4892V18.7635H89.3434V17.9807H89.2753C89.1095 18.253 88.8599 18.4836 88.5265 18.6727C88.2018 18.8543 87.8423 18.945 87.4487 18.945ZM91.9309 18.7635V12.9774H93.0882V13.7716H93.1562C93.3229 13.4917 93.569 13.261 93.8937 13.0795C94.2271 12.8904 94.5901 12.7959 94.9828 12.7959C95.6941 12.7959 96.2273 13.0077 96.5825 13.4312C96.9386 13.8547 97.1157 14.4145 97.1157 15.1103V18.7635H95.9018V15.2692C95.9018 14.8002 95.7849 14.4599 95.5501 14.2481C95.3162 14.0288 95.0099 13.9191 94.6311 13.9191C94.3361 13.9191 94.0796 14.0022 93.8597 14.1687C93.6406 14.3275 93.4669 14.5393 93.3378 14.804C93.2173 15.0687 93.1562 15.3523 93.1562 15.6549V18.7635H91.9309ZM101.067 21.3956C100.559 21.3956 100.121 21.3124 99.7505 21.146C99.3874 20.9872 99.0924 20.7792 98.8655 20.522C98.6386 20.2724 98.4763 20.0152 98.3777 19.7505L99.5122 19.274C99.6335 19.5766 99.8264 19.8224 100.091 20.0115C100.363 20.2081 100.689 20.3065 101.067 20.3065C101.596 20.3065 102.012 20.1476 102.314 19.83C102.624 19.5123 102.78 19.0622 102.78 18.4799V17.9239H102.712C102.53 18.1962 102.277 18.4155 101.951 18.582C101.634 18.7408 101.271 18.8202 100.862 18.8202C100.371 18.8202 99.9206 18.6954 99.5122 18.4458C99.1038 18.1962 98.7748 17.8483 98.5252 17.4021C98.2756 16.9483 98.1508 16.4188 98.1508 15.8137C98.1508 15.2011 98.2756 14.6716 98.5252 14.2254C98.7748 13.7716 99.1038 13.4199 99.5122 13.1703C99.9206 12.9207 100.371 12.7959 100.862 12.7959C101.271 12.7959 101.634 12.8791 101.951 13.0455C102.277 13.2119 102.53 13.4312 102.712 13.7035H102.78V12.9774H103.948V18.4572C103.948 19.0849 103.823 19.6181 103.574 20.0569C103.332 20.4956 102.995 20.8283 102.564 21.0552C102.133 21.2821 101.634 21.3956 101.067 21.3956ZM101.078 17.7084C101.381 17.7084 101.66 17.6366 101.917 17.4928C102.175 17.3416 102.383 17.126 102.541 16.8461C102.7 16.5588 102.78 16.2146 102.78 15.8137C102.78 15.3977 102.7 15.0498 102.541 14.77C102.383 14.4826 102.175 14.267 101.917 14.1233C101.66 13.9795 101.381 13.9077 101.078 13.9077C100.775 13.9077 100.491 13.9834 100.227 14.1346C99.9695 14.2784 99.7618 14.4901 99.603 14.77C99.4441 15.0498 99.3647 15.3977 99.3647 15.8137C99.3647 16.2222 99.4441 16.5701 99.603 16.8575C99.7618 17.1374 99.9695 17.3491 100.227 17.4928C100.491 17.6366 100.775 17.7084 101.078 17.7084ZM106.085 12.1265C105.859 12.1265 105.661 12.0471 105.496 11.8883C105.337 11.7218 105.257 11.5252 105.257 11.2983C105.257 11.0714 105.337 10.8785 105.496 10.7197C105.661 10.5609 105.859 10.4814 106.085 10.4814C106.312 10.4814 106.505 10.5609 106.664 10.7197C106.83 10.8785 106.914 11.0714 106.914 11.2983C106.914 11.5252 106.83 11.7218 106.664 11.8883C106.505 12.0471 106.312 12.1265 106.085 12.1265ZM105.473 18.7635V12.9774H106.698V18.7635H105.473ZM112.681 18.945C112.265 18.945 111.894 18.8656 111.57 18.7068C111.244 18.5403 110.991 18.3097 110.809 18.0147C110.628 17.7197 110.537 17.3831 110.537 17.005C110.537 16.5965 110.643 16.2486 110.855 15.9612C111.074 15.6662 111.365 15.4431 111.728 15.2918C112.092 15.1406 112.492 15.0649 112.931 15.0649C113.294 15.0649 113.612 15.099 113.884 15.167C114.163 15.2351 114.375 15.3069 114.519 15.3826V15.0763C114.519 14.6981 114.383 14.3956 114.111 14.1687C113.839 13.9418 113.487 13.8283 113.056 13.8283C112.761 13.8283 112.481 13.8964 112.216 14.0325C111.951 14.1611 111.74 14.3388 111.581 14.5657L110.741 13.9191C110.991 13.5711 111.32 13.2988 111.728 13.1022C112.144 12.898 112.598 12.7959 113.09 12.7959C113.929 12.7959 114.576 13.0038 115.03 13.4199C115.484 13.8283 115.711 14.4032 115.711 15.1444V18.7635H114.519V18.0487H114.451C114.299 18.2832 114.073 18.4912 113.771 18.6727C113.468 18.8543 113.105 18.945 112.681 18.945ZM112.897 17.9466C113.215 17.9466 113.494 17.871 113.737 17.7197C113.978 17.5685 114.168 17.3718 114.304 17.1298C114.447 16.8802 114.519 16.6116 114.519 16.3243C114.345 16.2259 114.141 16.1465 113.907 16.086C113.672 16.0179 113.422 15.9839 113.158 15.9839C112.659 15.9839 112.303 16.086 112.092 16.2902C111.879 16.4868 111.774 16.7289 111.774 17.0163C111.774 17.2886 111.876 17.5118 112.08 17.6857C112.284 17.8596 112.557 17.9466 112.897 17.9466Z" fill="white"/>
<path d="M66.4503 36.4548C65.6887 36.4548 64.9716 36.3163 64.299 36.0394C63.6364 35.7625 63.0478 35.3768 62.5335 34.8822C62.0192 34.3778 61.6137 33.7893 61.317 33.1167C61.0301 32.4343 60.8867 31.6974 60.8867 30.9061C60.8867 30.1148 61.0301 29.383 61.317 28.7104C61.6137 28.0279 62.0143 27.4395 62.5187 26.9449C63.033 26.4405 63.6264 26.0497 64.299 25.7728C64.9716 25.4959 65.6887 25.3574 66.4503 25.3574C67.2613 25.3574 68.0081 25.5008 68.6905 25.7877C69.3828 26.0745 69.9615 26.4751 70.4264 26.9894L69.2988 28.1021C68.9526 27.7164 68.5372 27.4196 68.0526 27.2119C67.5778 27.0042 67.0437 26.9004 66.4503 26.9004C65.748 26.9004 65.1002 27.0686 64.5067 27.4048C63.9133 27.7312 63.4336 28.1961 63.0676 28.7994C62.7116 29.3928 62.5335 30.0951 62.5335 30.9061C62.5335 31.7171 62.7165 32.4244 63.0825 33.0277C63.4484 33.6211 63.9281 34.086 64.5216 34.4223C65.115 34.7487 65.7628 34.9119 66.4651 34.9119C67.108 34.9119 67.6915 34.7932 68.2158 34.5558C68.74 34.3086 69.1603 33.9624 69.4768 33.5173C69.8032 33.0722 70.0011 32.5381 70.0703 31.915H66.4354V30.4759H71.5984C71.6578 30.7429 71.6874 31.0248 71.6874 31.3215V31.3364C71.6874 32.3651 71.4599 33.2651 71.005 34.0366C70.5599 34.7982 69.9417 35.3916 69.1504 35.8169C68.3592 36.2422 67.4591 36.4548 66.4503 36.4548ZM76.4646 36.4548C75.6831 36.4548 74.9958 36.2768 74.4023 35.9207C73.8089 35.5647 73.344 35.0849 73.0078 34.4816C72.6714 33.8783 72.5033 33.1959 72.5033 32.4343C72.5033 31.6826 72.6714 31.005 73.0078 30.4017C73.344 29.7884 73.8089 29.3038 74.4023 28.9478C74.9958 28.5917 75.6831 28.4137 76.4646 28.4137C77.236 28.4137 77.9185 28.5917 78.512 28.9478C79.1054 29.3038 79.5702 29.7884 79.9066 30.4017C80.2428 31.005 80.411 31.6826 80.411 32.4343C80.411 33.1959 80.2428 33.8783 79.9066 34.4816C79.5702 35.0849 79.1054 35.5647 78.512 35.9207C77.9185 36.2768 77.236 36.4548 76.4646 36.4548ZM76.4646 34.9861C76.88 34.9861 77.2657 34.8872 77.6218 34.6893C77.9779 34.4816 78.2646 34.1899 78.4823 33.814C78.7097 33.4283 78.8235 32.9684 78.8235 32.4343C78.8235 31.9002 78.7097 31.4452 78.4823 31.0693C78.2646 30.6836 77.9779 30.3918 77.6218 30.194C77.2657 29.9863 76.88 29.8824 76.4646 29.8824C76.0492 29.8824 75.6584 29.9863 75.2925 30.194C74.9364 30.3918 74.6446 30.6836 74.4172 31.0693C74.1995 31.4452 74.0908 31.9002 74.0908 32.4343C74.0908 32.9684 74.1995 33.4283 74.4172 33.814C74.6446 34.1899 74.9364 34.4816 75.2925 34.6893C75.6584 34.8872 76.0492 34.9861 76.4646 34.9861ZM85.4473 36.4548C84.666 36.4548 83.9785 36.2768 83.3851 35.9207C82.7917 35.5647 82.3268 35.0849 81.9905 34.4816C81.6542 33.8783 81.4861 33.1959 81.4861 32.4343C81.4861 31.6826 81.6542 31.005 81.9905 30.4017C82.3268 29.7884 82.7917 29.3038 83.3851 28.9478C83.9785 28.5917 84.666 28.4137 85.4473 28.4137C86.2188 28.4137 86.9013 28.5917 87.4949 28.9478C88.0883 29.3038 88.5535 29.7884 88.8895 30.4017C89.2255 31.005 89.3939 31.6826 89.3939 32.4343C89.3939 33.1959 89.2255 33.8783 88.8895 34.4816C88.5535 35.0849 88.0883 35.5647 87.4949 35.9207C86.9013 36.2768 86.2188 36.4548 85.4473 36.4548ZM85.4473 34.9861C85.8627 34.9861 86.2485 34.8872 86.6045 34.6893C86.9606 34.4816 87.2475 34.1899 87.4652 33.814C87.693 33.4283 87.8064 32.9684 87.8064 32.4343C87.8064 31.9002 87.693 31.4452 87.4652 31.0693C87.2475 30.6836 86.9606 30.3918 86.6045 30.194C86.2485 29.9863 85.8627 29.8824 85.4473 29.8824C85.0319 29.8824 84.6413 29.9863 84.2753 30.194C83.9192 30.3918 83.6275 30.6836 83.3999 31.0693C83.1824 31.4452 83.0735 31.9002 83.0735 32.4343C83.0735 32.9684 83.1824 33.4283 83.3999 33.814C83.6275 34.1899 83.9192 34.4816 84.2753 34.6893C84.6413 34.8872 85.0319 34.9861 85.4473 34.9861ZM94.282 39.6595C93.6187 39.6595 93.0453 39.5506 92.561 39.3331C92.0862 39.1253 91.7005 38.8533 91.4038 38.5171C91.107 38.1907 90.8941 37.8544 90.7658 37.5082L92.2494 36.8851C92.4074 37.2807 92.6596 37.6022 93.0061 37.8494C93.3621 38.1066 93.7871 38.2352 94.282 38.2352C94.974 38.2352 95.5177 38.0275 95.914 37.6121C96.3189 37.1967 96.5222 36.6082 96.5222 35.8466V35.1196H96.4332C96.1958 35.4757 95.8642 35.7625 95.4392 35.9801C95.0238 36.1878 94.549 36.2916 94.0149 36.2916C93.3717 36.2916 92.7835 36.1284 92.2494 35.8021C91.7153 35.4757 91.2851 35.0207 90.9587 34.4371C90.6323 33.8437 90.4691 33.1514 90.4691 32.3601C90.4691 31.5589 90.6323 30.8666 90.9587 30.283C91.2851 29.6896 91.7153 29.2297 92.2494 28.9033C92.7835 28.5769 93.3717 28.4137 94.0149 28.4137C94.549 28.4137 95.0238 28.5225 95.4392 28.7401C95.8642 28.9576 96.1958 29.2445 96.4332 29.6006H96.5222V28.651H98.0504V35.8169C98.0504 36.6379 97.8872 37.3352 97.5608 37.9088C97.244 38.4824 96.8041 38.9176 96.2403 39.2144C95.6766 39.5111 95.0238 39.6595 94.282 39.6595ZM94.2968 34.8377C94.6921 34.8377 95.0578 34.7437 95.3947 34.5558C95.7307 34.358 96.003 34.0761 96.2107 33.7102C96.4184 33.3343 96.5222 32.8843 96.5222 32.3601C96.5222 31.8161 96.4184 31.3611 96.2107 30.9951C96.003 30.6193 95.7307 30.3374 95.3947 30.1495C95.0578 29.9616 94.6921 29.8676 94.2968 29.8676C93.9006 29.8676 93.5297 29.9665 93.1841 30.1643C92.8472 30.3522 92.5758 30.6292 92.3681 30.9951C92.1604 31.3611 92.0566 31.8161 92.0566 32.3601C92.0566 32.8942 92.1604 33.3491 92.3681 33.725C92.5758 34.0909 92.8472 34.3679 93.1841 34.5558C93.5297 34.7437 93.9006 34.8377 94.2968 34.8377ZM99.9398 36.2175V25.5948H101.542V36.2175H99.9398ZM106.815 36.4548C106.073 36.4548 105.411 36.2818 104.827 35.9356C104.244 35.5894 103.784 35.1146 103.447 34.5113C103.121 33.908 102.958 33.2206 102.958 32.4491C102.958 31.7271 103.116 31.0595 103.432 30.4462C103.749 29.833 104.189 29.3434 104.753 28.9774C105.327 28.6016 105.984 28.4137 106.726 28.4137C107.508 28.4137 108.17 28.5818 108.714 28.9181C109.268 29.2544 109.689 29.7143 109.975 30.2979C110.262 30.8814 110.405 31.5391 110.405 32.2711C110.405 32.3799 110.401 32.4788 110.391 32.5678C110.391 32.6568 110.386 32.726 110.376 32.7755H104.53C104.61 33.5272 104.871 34.0909 105.317 34.4668C105.772 34.8427 106.286 35.0306 106.86 35.0306C107.374 35.0306 107.799 34.9169 108.135 34.6893C108.472 34.452 108.739 34.1602 108.937 33.814L110.257 34.452C109.931 35.0454 109.486 35.53 108.922 35.9059C108.358 36.2718 107.656 36.4548 106.815 36.4548ZM106.741 29.7786C106.207 29.7786 105.752 29.9418 105.376 30.2682C105.001 30.5946 104.748 31.0298 104.619 31.5738H108.818C108.799 31.3166 108.714 31.0495 108.566 30.7726C108.417 30.4957 108.19 30.2632 107.883 30.0753C107.586 29.8775 107.206 29.7786 106.741 29.7786ZM116.927 36.2175L114.079 25.5948H115.889L117.58 32.4936L117.758 33.4134H117.847L118.07 32.4936L120.206 25.5948H121.838L123.885 32.4936L124.108 33.3986H124.197L124.375 32.4936L126.066 25.5948H127.861L125.057 36.2175H123.336L121.304 29.1703L121.066 28.1763H120.977L120.725 29.1703L118.604 36.2175H116.927ZM130.841 36.4548C130.297 36.4548 129.812 36.351 129.387 36.1433C128.962 35.9257 128.63 35.624 128.393 35.2383C128.155 34.8525 128.037 34.4124 128.037 33.9179C128.037 33.3838 128.176 32.9288 128.452 32.5529C128.739 32.1672 129.12 31.8755 129.595 31.6776C130.069 31.4798 130.594 31.3809 131.167 31.3809C131.642 31.3809 132.057 31.4254 132.413 31.5144C132.779 31.6034 133.057 31.6974 133.244 31.7963V31.3957C133.244 30.9012 133.066 30.5056 132.71 30.2088C132.354 29.9121 131.894 29.7638 131.33 29.7638C130.945 29.7638 130.579 29.8528 130.233 30.0308C129.886 30.199 129.609 30.4314 129.402 30.7281L128.304 29.8824C128.63 29.4275 129.06 29.0714 129.595 28.8142C130.138 28.5472 130.732 28.4137 131.375 28.4137C132.473 28.4137 133.318 28.6857 133.912 29.2297C134.505 29.7638 134.802 30.5154 134.802 31.4847V36.2175H133.244V35.2828H133.155C132.957 35.5894 132.66 35.8614 132.265 36.0988C131.87 36.3362 131.395 36.4548 130.841 36.4548ZM131.123 35.1493C131.538 35.1493 131.904 35.0504 132.221 34.8525C132.537 34.6547 132.784 34.3976 132.962 34.0811C133.15 33.7547 133.244 33.4036 133.244 33.0277C133.016 32.8992 132.749 32.7953 132.443 32.7161C132.137 32.6271 131.81 32.5826 131.464 32.5826C130.811 32.5826 130.346 32.7161 130.069 32.9832C129.793 33.2404 129.654 33.5568 129.654 33.9327C129.654 34.2888 129.787 34.5805 130.055 34.808C130.322 35.0356 130.678 35.1493 131.123 35.1493ZM136.581 36.2175V25.5948H138.183V36.2175H136.581ZM140.087 36.2175V25.5948H141.69V36.2175H140.087ZM146.962 36.4548C146.221 36.4548 145.558 36.2818 144.974 35.9356C144.391 35.5894 143.932 35.1146 143.595 34.5113C143.268 33.908 143.105 33.2206 143.105 32.4491C143.105 31.7271 143.264 31.0595 143.58 30.4462C143.897 29.833 144.336 29.3434 144.9 28.9774C145.474 28.6016 146.132 28.4137 146.873 28.4137C147.655 28.4137 148.318 28.5818 148.861 28.9181C149.416 29.2544 149.836 29.7143 150.123 30.2979C150.41 30.8814 150.553 31.5391 150.553 32.2711C150.553 32.3799 150.548 32.4788 150.538 32.5678C150.538 32.6568 150.534 32.726 150.523 32.7755H144.678C144.757 33.5272 145.019 34.0909 145.464 34.4668C145.92 34.8427 146.434 35.0306 147.007 35.0306C147.522 35.0306 147.947 34.9169 148.283 34.6893C148.62 34.452 148.887 34.1602 149.084 33.814L150.404 34.452C150.078 35.0454 149.633 35.53 149.069 35.9059C148.505 36.2718 147.804 36.4548 146.962 36.4548ZM146.888 29.7786C146.354 29.7786 145.899 29.9418 145.523 30.2682C145.148 30.5946 144.896 31.0298 144.767 31.5738H148.965C148.946 31.3166 148.861 31.0495 148.713 30.7726C148.565 30.4957 148.338 30.2632 148.031 30.0753C147.734 29.8775 147.353 29.7786 146.888 29.7786ZM152.624 34.0217V30.0456H151.303V28.651H152.624V26.5146H154.226V28.651H156.081V30.0456H154.226V33.6805C154.226 34.0564 154.3 34.3431 154.449 34.541C154.607 34.7388 154.868 34.8377 155.235 34.8377C155.423 34.8377 155.581 34.813 155.71 34.7635C155.848 34.714 155.986 34.6448 156.125 34.5558V36.1136C155.957 36.1828 155.779 36.2373 155.591 36.2768C155.402 36.3163 155.18 36.3362 154.923 36.3362C154.221 36.3362 153.662 36.1334 153.247 35.7279C152.831 35.3125 152.624 34.7437 152.624 34.0217Z" fill="white"/>
<path d="M149.672 0.436523H24.0008C10.9871 0.436523 0.4375 10.9862 0.4375 23.9998C0.4375 37.0134 10.9871 47.563 24.0008 47.563H149.672C162.685 47.563 173.235 37.0134 173.235 23.9998C173.235 10.9862 162.685 0.436523 149.672 0.436523Z" stroke="#747775"/>
</g>
<defs>
<linearGradient id="paint0_linear_568_493" x1="32.5397" y1="29.7109" x2="16.3927" y2="48.6295" gradientUnits="userSpaceOnUse">
<stop stop-color="#4285F4"/>
<stop offset="1" stop-color="#1B74E8"/>
</linearGradient>
<clipPath id="clip0_568_493">
<rect width="173.67" height="47.9992" fill="white"/>
</clipPath>
</defs>
</svg>
