<svg width="174" height="44" viewBox="0 0 174 44" fill="none" xmlns="http://www.w3.org/2000/svg">
<g clip-path="url(#clip0_568_1088)">
<path d="M151.864 0.396484H21.8098C9.98463 0.396484 0.398438 9.98268 0.398438 21.8079C0.398438 33.633 9.98463 43.2192 21.8098 43.2192H151.864C163.689 43.2192 173.275 33.633 173.275 21.8079C173.275 9.98268 163.689 0.396484 151.864 0.396484Z" fill="#1F1F1F"/>
<path d="M151.864 0.396484H21.8098C9.98463 0.396484 0.398438 9.98268 0.398438 21.8079C0.398438 33.633 9.98463 43.2192 21.8098 43.2192H151.864C163.689 43.2192 173.275 33.633 173.275 21.8079C173.275 9.98268 163.689 0.396484 151.864 0.396484Z" stroke="#747775"/>
<path d="M45.2008 18.866H16.6523V14.3891C16.6523 11.9587 18.7476 9.91211 21.2358 9.91211H40.6174C43.1055 9.91211 45.2008 11.9587 45.2008 14.3891V18.866Z" fill="#34A853"/>
<path d="M45.2008 22.9966H16.6523V18.2386C16.6523 15.6556 18.7476 13.4805 21.2358 13.4805H40.6174C43.1055 13.4805 45.2008 15.6556 45.2008 18.2386V22.9966Z" fill="#FBBC04"/>
<path d="M45.2008 26.9634H16.6523V22.2053C16.6523 19.6224 18.7476 17.4473 21.2358 17.4473H40.6174C43.1055 17.4473 45.2008 19.6224 45.2008 22.2053V26.9634Z" fill="#EA4335"/>
<path d="M16.6523 20.0156L34.7722 24.1088C36.8579 24.6204 39.2044 24.1088 40.899 22.8297L45.2008 19.7598V29.3532C45.2008 31.7835 43.1151 33.7022 40.6383 33.7022H21.2149C18.738 33.7022 16.6523 31.7835 16.6523 29.3532V20.0156Z" fill="#4285F4"/>
<path d="M60.3797 20.4375C59.6876 20.4375 59.0361 20.3116 58.4249 20.06C57.8137 19.8084 57.2745 19.4579 56.8072 19.0085C56.3488 18.5501 55.9848 18.0154 55.7152 17.4042C55.4545 16.7841 55.3242 16.1145 55.3242 15.3955C55.3242 14.6765 55.4545 14.0115 55.7152 13.4003C55.9848 12.7801 56.3488 12.2454 56.8072 11.796C57.2745 11.3376 57.8137 10.9826 58.4249 10.731C59.0361 10.4794 59.6876 10.3535 60.3797 10.3535C61.1166 10.3535 61.7952 10.4838 62.4153 10.7445C63.0444 11.0051 63.5702 11.3691 63.9927 11.8365L62.9681 12.8475C62.7613 12.6138 62.5232 12.4161 62.2536 12.2544C61.9929 12.0926 61.7054 11.9713 61.3908 11.8904C61.0762 11.8005 60.7392 11.7556 60.3797 11.7556C59.9033 11.7556 59.4495 11.841 59.0181 12.0117C58.5867 12.1824 58.2047 12.4296 57.8722 12.7532C57.5486 13.0678 57.2925 13.4497 57.1037 13.8991C56.915 14.3394 56.8206 14.8382 56.8206 15.3955C56.8206 15.9527 56.915 16.456 57.1037 16.9054C57.3014 17.3458 57.5621 17.7278 57.8857 18.0513C58.2182 18.3659 58.6002 18.6086 59.0316 18.7793C59.463 18.95 59.9168 19.0354 60.3932 19.0354C60.8335 19.0354 61.2425 18.9725 61.62 18.8467C62.0064 18.7208 62.3434 18.5411 62.631 18.3074C62.9187 18.0737 63.1523 17.7906 63.3321 17.4581C63.5118 17.1166 63.6241 16.7347 63.6691 16.3122H60.3662V15.0045H65.0577C65.0757 15.1124 65.0936 15.2382 65.1116 15.382C65.1296 15.5168 65.1386 15.6471 65.1386 15.773V15.7865C65.1386 16.4785 65.0172 17.1121 64.7746 17.6873C64.5409 18.2625 64.2129 18.7568 63.7904 19.1702C63.368 19.5747 62.8648 19.8893 62.2805 20.1139C61.7054 20.3296 61.0717 20.4375 60.3797 20.4375ZM69.4794 20.4375C68.7694 20.4375 68.1448 20.2757 67.6055 19.9522C67.0663 19.6286 66.6439 19.1927 66.3383 18.6445C66.0327 18.0872 65.8799 17.4671 65.8799 16.7841C65.8799 16.101 66.0327 15.4853 66.3383 14.9371C66.6439 14.3799 67.0663 13.9395 67.6055 13.616C68.1448 13.2924 68.7694 13.1307 69.4794 13.1307C70.1805 13.1307 70.8006 13.2969 71.3398 13.6295C71.8791 13.953 72.3015 14.3889 72.6071 14.9371C72.9126 15.4853 73.0654 16.101 73.0654 16.7841C73.0654 17.4671 72.9126 18.0872 72.6071 18.6445C72.3015 19.1927 71.8791 19.6286 71.3398 19.9522C70.8006 20.2757 70.1805 20.4375 69.4794 20.4375ZM69.4794 19.1028C69.8569 19.1028 70.2074 19.013 70.531 18.8332C70.8545 18.6445 71.1151 18.3794 71.3129 18.0378C71.5195 17.6873 71.623 17.2694 71.623 16.7841C71.623 16.2987 71.5195 15.8853 71.3129 15.5438C71.1151 15.1933 70.8545 14.9282 70.531 14.7484C70.2074 14.5597 69.8569 14.4653 69.4794 14.4653C69.102 14.4653 68.7469 14.5597 68.4144 14.7484C68.0909 14.9282 67.8257 15.1933 67.619 15.5438C67.4212 15.8853 67.3224 16.2987 67.3224 16.7841C67.3224 17.2694 67.4212 17.6873 67.619 18.0378C67.8257 18.3794 68.0953 18.6445 68.4279 18.8332C68.7604 19.013 69.1109 19.1028 69.4794 19.1028ZM77.6418 20.4375C76.9319 20.4375 76.3072 20.2757 75.768 19.9522C75.2287 19.6286 74.8063 19.1927 74.5007 18.6445C74.1952 18.0872 74.0424 17.4671 74.0424 16.7841C74.0424 16.101 74.1952 15.4853 74.5007 14.9371C74.8063 14.3799 75.2287 13.9395 75.768 13.616C76.3072 13.2924 76.9319 13.1307 77.6418 13.1307C78.3429 13.1307 78.963 13.2969 79.5024 13.6295C80.0417 13.953 80.4643 14.3889 80.7696 14.9371C81.075 15.4853 81.228 16.101 81.228 16.7841C81.228 17.4671 81.075 18.0872 80.7696 18.6445C80.4643 19.1927 80.0417 19.6286 79.5024 19.9522C78.963 20.2757 78.3429 20.4375 77.6418 20.4375ZM77.6418 19.1028C78.0193 19.1028 78.3698 19.013 78.6934 18.8332C79.0169 18.6445 79.2776 18.3794 79.4755 18.0378C79.6824 17.6873 79.7855 17.2694 79.7855 16.7841C79.7855 16.2987 79.6824 15.8853 79.4755 15.5438C79.2776 15.1933 79.0169 14.9282 78.6934 14.7484C78.3698 14.5597 78.0193 14.4653 77.6418 14.4653C77.2644 14.4653 76.9094 14.5597 76.5768 14.7484C76.2533 14.9282 75.9882 15.1933 75.7814 15.5438C75.5837 15.8853 75.4848 16.2987 75.4848 16.7841C75.4848 17.2694 75.5837 17.6873 75.7814 18.0378C75.9882 18.3794 76.2578 18.6445 76.5903 18.8332C76.9229 19.013 77.2734 19.1028 77.6418 19.1028ZM85.6697 23.3494C85.067 23.3494 84.546 23.2505 84.1059 23.0528C83.6745 22.8641 83.324 22.6169 83.0543 22.3114C82.7847 22.0148 82.5912 21.7092 82.4746 21.3946L83.8228 20.8284C83.9663 21.1879 84.1955 21.4801 84.5103 21.7047C84.8338 21.9384 85.22 22.0552 85.6697 22.0552C86.3073 22.0552 86.8061 21.8665 87.1661 21.489C87.5253 21.1115 87.7053 20.5768 87.7053 19.8847V19.2242H87.6245C87.4088 19.5388 87.1122 19.7949 86.7347 19.9926C86.3572 20.1903 85.9211 20.2892 85.427 20.2892C84.8426 20.2892 84.3033 20.1409 83.8093 19.8443C83.3239 19.5477 82.933 19.1343 82.6364 18.604C82.3485 18.0648 82.205 17.4357 82.205 16.7167C82.205 15.9887 82.3485 15.3596 82.6364 14.8293C82.933 14.29 83.3239 13.8721 83.8093 13.5755C84.3033 13.2789 84.8426 13.1307 85.427 13.1307C85.9211 13.1307 86.3572 13.2295 86.7347 13.4272C87.1122 13.616 87.4088 13.8766 87.6245 14.2091H87.7053V13.3463H89.0939V19.8578C89.0939 20.6038 88.9456 21.2374 88.649 21.7586C88.3612 22.2799 87.9615 22.6754 87.4492 22.945C86.9369 23.2146 86.3437 23.3494 85.6697 23.3494ZM85.6832 18.968C86.0424 18.968 86.3747 18.8826 86.6808 18.7119C86.9948 18.5321 87.2422 18.276 87.4222 17.9435C87.611 17.6019 87.7053 17.193 87.7053 16.7167C87.7053 16.2133 87.611 15.7954 87.4222 15.4629C87.2422 15.1304 86.9948 14.8787 86.6808 14.708C86.3747 14.5372 86.0424 14.4518 85.6832 14.4518C85.3231 14.4518 84.9861 14.5372 84.6721 14.708C84.366 14.8787 84.1193 15.1348 83.9306 15.4764C83.7419 15.8089 83.6475 16.2224 83.6475 16.7167C83.6475 17.202 83.7419 17.6154 83.9306 17.9569C84.1193 18.2894 84.366 18.5411 84.6721 18.7119C84.9861 18.8826 85.3231 18.968 85.6832 18.968ZM90.8108 20.2218V10.5692H92.2668V20.2218H90.8108ZM97.0582 20.4375C96.3841 20.4375 95.7822 20.2802 95.2517 19.9656C94.7219 19.651 94.304 19.2196 93.9979 18.6714C93.7013 18.1232 93.553 17.4986 93.553 16.7975C93.553 16.1415 93.6974 15.5348 93.9844 14.9776C94.2723 14.4203 94.672 13.9754 95.1843 13.6429C95.7061 13.3014 96.3032 13.1307 96.9773 13.1307C97.6878 13.1307 98.2897 13.2835 98.7838 13.589C99.2873 13.8946 99.6695 14.3125 99.9297 14.8428C100.191 15.3731 100.321 15.9707 100.321 16.6358C100.321 16.7347 100.317 16.8245 100.307 16.9054C100.307 16.9863 100.303 17.0492 100.294 17.0941H94.982C95.0185 17.4716 95.1129 17.7997 95.2651 18.0783C95.4634 18.4288 95.7235 18.6939 96.0471 18.8737C96.3706 19.0534 96.7211 19.1433 97.0986 19.1433C97.557 19.1433 97.9392 19.04 98.2445 18.8332C98.5593 18.6175 98.8067 18.3524 98.986 18.0378L100.186 18.6175C99.8892 19.1568 99.4848 19.5971 98.9725 19.9387C98.4602 20.2712 97.8226 20.4375 97.0582 20.4375ZM95.0629 16.0022H98.8781C98.8694 15.8314 98.8242 15.6516 98.7433 15.4629C98.6624 15.2652 98.5458 15.0854 98.3928 14.9237C98.2405 14.7619 98.047 14.6316 97.8131 14.5327C97.58 14.4248 97.3056 14.3709 96.9907 14.3709C96.5958 14.3709 96.2453 14.4743 95.9392 14.681C95.6339 14.8787 95.396 15.1574 95.2247 15.5168C95.1533 15.6696 95.0994 15.8314 95.0629 16.0022ZM106.247 20.2218L103.658 10.5692H105.303L106.84 16.838L107.002 17.6738H107.083L107.285 16.838L109.226 10.5692H110.709L112.569 16.838L112.772 17.6603H112.853L113.014 16.838L114.551 10.5692H116.182L113.635 20.2218H112.071L110.224 13.8182L110.008 12.9149H109.927L109.698 13.8182L107.77 20.2218H106.247ZM118.89 20.4375C118.396 20.4375 117.955 20.3386 117.569 20.1409C117.191 19.9432 116.89 19.6736 116.665 19.332C116.45 18.9815 116.342 18.5816 116.342 18.1322C116.342 17.6379 116.468 17.22 116.719 16.8784C116.98 16.5369 117.326 16.2763 117.757 16.0965C118.189 15.9167 118.665 15.8269 119.186 15.8269C119.474 15.8269 119.739 15.8493 119.982 15.8943C120.233 15.9302 120.449 15.9752 120.629 16.0291C120.818 16.083 120.966 16.1415 121.074 16.2044V15.8404C121.074 15.391 120.912 15.0315 120.588 14.7619C120.265 14.4923 119.847 14.3574 119.335 14.3574C118.984 14.3574 118.652 14.4383 118.337 14.6001C118.022 14.7529 117.771 14.9641 117.582 15.2337L116.585 14.4653C116.782 14.1867 117.021 13.9485 117.299 13.7508C117.587 13.5531 117.906 13.4003 118.256 13.2924C118.615 13.1846 118.989 13.1307 119.375 13.1307C120.373 13.1307 121.141 13.3778 121.68 13.8721C122.22 14.3574 122.489 15.0405 122.489 15.9213V20.2218H121.074V19.3725H120.993C120.876 19.5522 120.715 19.723 120.508 19.8847C120.31 20.0465 120.071 20.1768 119.793 20.2757C119.523 20.3836 119.222 20.4375 118.89 20.4375ZM119.146 19.2511C119.523 19.2511 119.856 19.1613 120.144 18.9815C120.44 18.8017 120.669 18.5681 120.831 18.2805C120.993 17.9839 121.074 17.6649 121.074 17.3233C120.876 17.2065 120.634 17.1121 120.346 17.0402C120.067 16.9593 119.771 16.9189 119.456 16.9189C118.863 16.9189 118.44 17.0357 118.189 17.2694C117.937 17.5031 117.811 17.7952 117.811 18.1457C117.811 18.4692 117.933 18.7343 118.175 18.9411C118.418 19.1478 118.742 19.2511 119.146 19.2511ZM124.105 20.2218V10.5692H125.561V20.2218H124.105ZM127.292 20.2218V10.5692H128.748V20.2218H127.292ZM133.539 20.4375C132.865 20.4375 132.263 20.2802 131.733 19.9656C131.203 19.651 130.785 19.2196 130.479 18.6714C130.182 18.1232 130.034 17.4986 130.034 16.7975C130.034 16.1415 130.178 15.5348 130.465 14.9776C130.753 14.4203 131.153 13.9754 131.665 13.6429C132.187 13.3014 132.784 13.1307 133.458 13.1307C134.169 13.1307 134.771 13.2835 135.265 13.589C135.768 13.8946 136.151 14.3125 136.411 14.8428C136.672 15.3731 136.802 15.9707 136.802 16.6358C136.802 16.7347 136.798 16.8245 136.788 16.9054C136.788 16.9863 136.784 17.0492 136.775 17.0941H131.463C131.5 17.4716 131.594 17.7997 131.746 18.0783C131.944 18.4288 132.205 18.6939 132.528 18.8737C132.852 19.0534 133.202 19.1433 133.58 19.1433C134.038 19.1433 134.42 19.04 134.726 18.8332C135.04 18.6175 135.288 18.3524 135.467 18.0378L136.667 18.6175C136.37 19.1568 135.966 19.5971 135.454 19.9387C134.941 20.2712 134.304 20.4375 133.539 20.4375ZM131.544 16.0022H135.359C135.35 15.8314 135.305 15.6516 135.224 15.4629C135.143 15.2652 135.027 15.0854 134.874 14.9237C134.722 14.7619 134.528 14.6316 134.294 14.5327C134.061 14.4248 133.787 14.3709 133.472 14.3709C133.077 14.3709 132.726 14.4743 132.42 14.681C132.115 14.8787 131.877 15.1574 131.706 15.5168C131.634 15.6696 131.58 15.8314 131.544 16.0022ZM137.484 13.3463H138.683V11.4051H140.139V13.3463H141.825V14.6136H140.139V17.9165C140.139 18.258 140.207 18.5186 140.342 18.6984C140.485 18.8782 140.723 18.968 141.056 18.968C141.218 18.968 141.361 18.9456 141.488 18.9006C141.613 18.8467 141.739 18.7838 141.865 18.7119V20.1274C141.712 20.1903 141.55 20.2398 141.38 20.2757C141.208 20.3116 141.006 20.3296 140.773 20.3296C140.135 20.3296 139.627 20.1454 139.25 19.7769C138.872 19.3994 138.683 18.8826 138.683 18.2266V14.6136H137.484V13.3463ZM143.208 16.6627V15.4225H147.629V16.6627H143.208ZM155.868 20.2218C155.778 20.0241 155.621 19.8398 155.396 19.669C155.181 19.4893 154.934 19.35 154.655 19.2511C154.385 19.1433 154.12 19.0894 153.859 19.0894H151.972C151.424 19.0894 150.934 18.977 150.503 18.7523C150.081 18.5186 149.748 18.2041 149.505 17.8086C149.262 17.4132 149.141 16.9638 149.141 16.4605C149.141 16.2179 149.177 15.9752 149.249 15.7325C149.33 15.4899 149.429 15.2831 149.545 15.1124L150.651 15.7056C150.472 15.9482 150.381 16.2403 150.381 16.5818C150.381 16.9863 150.529 17.3053 150.826 17.539C151.132 17.7727 151.545 17.8895 152.066 17.8895H153.819C154.196 17.8895 154.538 17.9524 154.843 18.0783C155.158 18.1951 155.428 18.3794 155.652 18.631H155.72L155.652 17.6064V13.6295C155.652 13.1531 155.571 12.8116 155.41 12.6049C155.248 12.3892 154.978 12.2813 154.601 12.2813C154.269 12.2813 153.954 12.3757 153.657 12.5644C153.37 12.7532 153.136 13.0004 152.956 13.3059C152.777 13.6025 152.686 13.9171 152.686 14.2496C152.686 14.2676 152.686 14.2855 152.686 14.3035C152.705 14.2855 152.723 14.272 152.74 14.2631C152.875 14.1911 153.037 14.1552 153.226 14.1552C153.559 14.1552 153.828 14.2676 154.035 14.4923C154.242 14.708 154.345 14.9865 154.345 15.3281C154.345 15.6606 154.223 15.9437 153.981 16.1774C153.748 16.4021 153.455 16.5144 153.104 16.5144C152.592 16.5144 152.179 16.3212 151.864 15.9347C151.559 15.5393 151.406 15.0315 151.406 14.4114C151.406 13.7823 151.55 13.2161 151.837 12.7127C152.134 12.2094 152.525 11.814 153.01 11.5264C153.505 11.2298 154.044 11.0815 154.628 11.0815C155.356 11.0815 155.918 11.3017 156.313 11.7421C156.717 12.1824 156.92 12.8071 156.92 13.616V20.2218H155.868Z" fill="white"/>
<path d="M57.9025 33.0753C57.6069 33.0753 57.3114 32.986 57.0159 32.8073C56.7272 32.6286 56.4626 32.3777 56.2221 32.0547C55.9816 31.7317 55.7857 31.3571 55.6345 30.931C55.4901 30.498 55.418 30.0272 55.418 29.5187C55.418 28.7901 55.5451 28.1647 55.7994 27.6424C56.0537 27.12 56.4111 26.7215 56.8716 26.4465C57.3389 26.1716 57.8785 26.0342 58.4901 26.0342H58.8406V26.8692H58.6551C58.2083 26.8692 57.8166 26.9723 57.4798 27.1785C57.143 27.3847 56.8819 27.6836 56.6963 28.0754C56.5107 28.4671 56.418 28.9379 56.418 29.4877C56.418 30.1338 56.5314 30.6767 56.7582 31.1166C56.8956 31.3709 57.0571 31.5942 57.2427 31.7867C57.2839 31.6973 57.3458 31.6148 57.4283 31.5393C57.5932 31.3812 57.7994 31.3022 58.0468 31.3022C58.2873 31.3022 58.4901 31.388 58.6551 31.5599C58.82 31.7248 58.9025 31.931 58.9025 32.1784C58.9025 32.4396 58.8097 32.6561 58.6241 32.8279C58.4455 32.9929 58.2049 33.0753 57.9025 33.0753ZM63.1803 32.9104C62.8023 32.4774 62.3865 32.0925 61.9329 31.7558C61.4793 31.419 61.012 31.1338 60.5308 30.9001C60.0497 30.6596 59.5755 30.474 59.1082 30.3434V29.5496C59.4656 29.2678 59.847 29.0169 60.2525 28.797C60.5481 28.639 60.8229 28.5153 61.0772 28.4259C60.7542 28.206 60.4415 28.0135 60.1391 27.8486C59.7749 27.6561 59.3865 27.4843 58.9742 27.3331L59.1391 26.8692H58.3968V26.0342H65.0153V26.8692H64.005V32.9104H63.1803ZM63.0463 31.5393H63.0978L63.0463 30.7351V26.8692H60.8607L60.1597 26.8177V26.8692C60.414 26.9929 60.6649 27.1303 60.9123 27.2816C61.1666 27.4328 61.4002 27.5839 61.6133 27.7352C61.8264 27.8795 61.9982 28.0135 62.1288 28.1372V29.0444C61.8332 29.1269 61.5377 29.2334 61.2422 29.364C60.9466 29.4946 60.6477 29.6527 60.3453 29.8382C60.7989 29.9963 61.2628 30.2266 61.737 30.529C62.2112 30.8245 62.6476 31.1612 63.0463 31.5393ZM65.6088 32.9104V27.5805C65.6088 27.4156 65.5847 27.2816 65.5366 27.1785C65.4953 27.0754 65.4266 26.9998 65.3304 26.9517C65.241 26.8967 65.1242 26.8692 64.9799 26.8692H64.5984V26.0342H64.9799C65.1311 26.0342 65.2548 26.0514 65.351 26.0857C65.4541 26.1132 65.54 26.1613 65.6088 26.23H65.6603L65.6088 25.4878V25.127H66.5675V26.0342H67.5778V26.8692H66.5675V32.9104H65.6088ZM72.4646 32.9104V29.1785C72.4646 28.7661 72.3924 28.3847 72.2481 28.0341C72.1038 27.6836 71.877 27.4019 71.5677 27.1888C71.2584 26.9689 70.8529 26.8589 70.3512 26.8589C70.035 26.8589 69.7464 26.9277 69.4852 27.0651C69.2241 27.2025 69.0213 27.3847 68.877 27.6115L68.9079 27.663C68.9629 27.6424 69.0247 27.6287 69.0935 27.6218C69.1691 27.6149 69.2515 27.6115 69.3409 27.6115C69.6571 27.6115 69.9319 27.6836 70.1656 27.828C70.4062 27.9654 70.5952 28.1579 70.7326 28.4053C70.8701 28.6458 70.9388 28.9173 70.9388 29.2197C70.9388 29.6527 70.8254 30.0272 70.5986 30.3434C70.3787 30.6596 70.0488 30.9276 69.6089 31.1475L69.0213 30.3434C69.3649 30.1509 69.6089 29.9723 69.7533 29.8073C69.8976 29.6424 69.9698 29.4431 69.9698 29.2094C69.9698 28.9757 69.8907 28.7901 69.7327 28.6527C69.5814 28.5153 69.3684 28.4465 69.0935 28.4465C68.9285 28.4465 68.7567 28.4705 68.578 28.5187C68.4062 28.5668 68.2412 28.639 68.0832 28.7352L67.578 28.1475C67.6742 27.7077 67.8495 27.3194 68.1038 26.9826C68.3649 26.6458 68.6845 26.3847 69.0626 26.1991C69.4406 26.0066 69.8633 25.9105 70.3306 25.9105C70.7636 25.9105 71.1587 25.9963 71.5161 26.1682C71.8804 26.34 72.1862 26.584 72.4337 26.9001H72.4852L72.4337 26.1476V25.127H73.4336V26.0342H74.4336V26.8692H73.4336V32.9104H72.4646ZM80.727 32.9104C80.4653 32.5186 80.1354 32.1544 79.7373 31.8176C79.3456 31.4808 78.9227 31.1819 78.469 30.9207C78.0223 30.6527 77.579 30.4328 77.1392 30.2609V29.5084C77.6271 28.986 78.1907 28.5565 78.8299 28.2197C79.3931 27.9173 79.9847 27.7146 80.6033 27.6115V26.8692H76.4278V26.0342H85.294V26.8692H81.5414V27.5393C82.16 27.5462 82.696 27.6458 83.1497 27.8383C83.6033 28.0376 83.9538 28.3091 84.2012 28.6527C84.455 28.9963 84.5826 29.395 84.5826 29.8486C84.5826 30.1509 84.5168 30.4225 84.3868 30.663C84.263 30.8967 84.091 31.0822 83.8713 31.2197C83.658 31.3503 83.4106 31.4156 83.129 31.4156C82.8467 31.4156 82.6168 31.3365 82.4383 31.1784C82.2591 31.0204 82.1703 30.8313 82.1703 30.6114C82.1703 30.4053 82.2385 30.2369 82.3765 30.1063C82.5137 29.9689 82.6921 29.9001 82.9125 29.9001C83.1116 29.9001 83.2765 29.9654 83.4074 30.096C83.4415 30.1303 83.4692 30.1681 83.4899 30.2094C83.5652 30.0994 83.6033 29.9654 83.6033 29.8073C83.6033 29.553 83.524 29.3262 83.3661 29.1269C83.2075 28.9207 82.9807 28.7592 82.6857 28.6424C82.3971 28.5187 82.0426 28.4568 81.6239 28.4568C81.6033 28.4568 81.5787 28.4568 81.5517 28.4568V32.9104H80.727ZM80.593 28.6011C80.1045 28.7111 79.6612 28.8726 79.2629 29.0857C78.8986 29.2781 78.5652 29.5118 78.2629 29.7867C78.5997 29.9379 78.9433 30.1235 79.2938 30.3434C79.7334 30.6321 80.1663 30.9963 80.593 31.4362H80.6445L80.593 30.6321V28.6011ZM89.6064 32.9104C89.3724 32.608 89.1076 32.3228 88.8126 32.0547C88.5168 31.7867 88.1972 31.5393 87.8538 31.3125C87.5096 31.0857 87.1456 30.8795 86.761 30.6939C86.3828 30.5083 85.9942 30.3503 85.5961 30.2197V29.4671C86.1869 28.931 86.8261 28.505 87.5136 28.1888C88.1528 27.8932 88.7983 27.6973 89.4517 27.6012V26.8692H84.8848V26.0342H94.0599V26.8692H90.4208V28.6836C90.4208 29.0547 90.4827 29.364 90.6064 29.6114C90.7364 29.8589 90.9053 30.041 91.1115 30.1578C91.3177 30.2746 91.5374 30.3331 91.7713 30.3331C92.0187 30.3331 92.2209 30.2712 92.3795 30.1475C92.5373 30.0169 92.6167 29.8245 92.6167 29.5702C92.6167 29.3709 92.5651 29.2128 92.462 29.096C92.4271 29.0547 92.3827 29.0204 92.328 28.9929C92.3343 29.0272 92.3383 29.0651 92.3383 29.1063C92.3383 29.2575 92.2828 29.3846 92.1734 29.4877C92.0631 29.5908 91.9156 29.6424 91.7301 29.6424C91.5508 29.6424 91.3827 29.5839 91.2249 29.4671C91.0735 29.3503 90.9981 29.1613 90.9981 28.9001C90.9981 28.6733 91.0838 28.4808 91.2558 28.3228C91.4343 28.1648 91.6785 28.0857 91.9878 28.0857C92.2971 28.0857 92.5651 28.1579 92.7919 28.3022C93.0251 28.4396 93.2043 28.6287 93.328 28.8692C93.458 29.1029 93.5239 29.3606 93.5239 29.6424C93.5239 29.9929 93.4477 30.285 93.2971 30.5187C93.1527 30.7524 92.96 30.9276 92.7197 31.0444C92.4787 31.1612 92.2075 31.2197 91.9053 31.2197C91.596 31.2197 91.3003 31.1509 91.0187 31.0135C90.7919 30.9035 90.5921 30.742 90.4208 30.529V32.9104H89.6064ZM89.4517 28.5908C88.9363 28.687 88.4414 28.8452 87.9672 29.0651C87.5755 29.2369 87.1972 29.4602 86.8332 29.7352C87.06 29.8245 87.2868 29.9276 87.5136 30.0444C87.8776 30.2369 88.2249 30.4534 88.5548 30.6939C88.8847 30.9276 89.1837 31.1853 89.4517 31.4671H89.5033L89.4517 30.663V28.5908ZM86.7817 33.0753C86.5683 33.0753 86.3899 33.0066 86.2456 32.8691C86.1076 32.7317 86.0394 32.553 86.0394 32.3331C86.0394 32.12 86.1076 31.9447 86.2456 31.8073C86.3899 31.6699 86.5683 31.6011 86.7817 31.6011C86.9942 31.6011 87.1694 31.6699 87.3074 31.8073C87.4518 31.9447 87.5239 32.12 87.5239 32.3331C87.5239 32.553 87.4518 32.7317 87.3074 32.8691C87.1694 33.0066 86.9942 33.0753 86.7817 33.0753ZM98.2415 32.9104C98.1313 32.388 97.9798 31.907 97.7879 31.4671C97.6023 31.0272 97.3922 30.6458 97.159 30.3228C96.9251 29.9998 96.6808 29.7489 96.4271 29.5702C96.324 29.4946 96.2209 29.4362 96.1178 29.395C96.1519 29.4911 96.1694 29.5977 96.1694 29.7145C96.1694 29.9689 96.0797 30.1785 95.9013 30.3434C95.7292 30.5083 95.5096 30.5908 95.2415 30.5908C94.9529 30.5908 94.7158 30.4946 94.5302 30.3022C94.3446 30.1097 94.2518 29.8658 94.2518 29.5702C94.2518 29.206 94.3819 28.907 94.6436 28.6733C94.9116 28.4396 95.2725 28.3228 95.7261 28.3228C96.1931 28.3228 96.6436 28.4946 97.0766 28.8383C97.5095 29.1751 97.8735 29.6561 98.1693 30.2815H98.2209L98.1693 29.4877V26.8692H93.6436V26.0342H100.138V26.8692H99.1281V32.9104H98.2415Z" fill="white"/>
</g>
<defs>
<clipPath id="clip0_568_1088">
<rect width="173.67" height="43.6158" fill="white"/>
</clipPath>
</defs>
</svg>
