<svg width="174" height="34" viewBox="0 0 174 34" fill="none" xmlns="http://www.w3.org/2000/svg">
<g clip-path="url(#clip0_568_1079)">
<path d="M157.163 0.330078H16.5104C7.57534 0.330078 0.332031 7.57339 0.332031 16.5085C0.332031 25.4435 7.57534 32.6868 16.5104 32.6868H157.163C166.098 32.6868 173.342 25.4435 173.342 16.5085C173.342 7.57339 166.098 0.330078 157.163 0.330078Z" fill="#1F1F1F"/>
<path d="M33.6775 14.5272H13.8672V11.2255C13.8672 9.43317 15.3211 7.92383 17.0477 7.92383H30.4969C32.2235 7.92383 33.6775 9.43317 33.6775 11.2255V14.5272Z" fill="#34A853"/>
<path d="M33.6775 17.205H13.8672V13.9033C13.8672 12.1109 15.3211 10.6016 17.0477 10.6016H30.4969C32.2235 10.6016 33.6775 12.1109 33.6775 13.9033V17.205Z" fill="#FBBC04"/>
<path d="M33.6775 19.9726H13.8672V16.6709C13.8672 14.8785 15.3211 13.3691 17.0477 13.3691H30.4969C32.2235 13.3691 33.6775 14.8785 33.6775 16.6709V19.9726Z" fill="#EA4335"/>
<path d="M13.8672 15.3692L26.4408 18.2772C27.8882 18.6407 29.5164 18.2772 30.6924 17.3685L33.6775 15.1875V22.003C33.6775 23.7296 32.2301 25.0926 30.5114 25.0926H17.0332C15.3145 25.0926 13.8672 23.7296 13.8672 22.003V15.3692Z" fill="url(#paint0_linear_568_1079)"/>
<path d="M49.3529 14.5009V15.4254H54.2658V14.5009H49.3529ZM42.4061 11.4237V12.269H48.2303V11.4237H42.4061ZM42.2608 16.6669V17.5253H48.2963V16.6669H42.2608ZM42.2212 14.4481V15.2933H48.3888V14.4481H42.2212ZM51.8093 14.8707V22.1213H52.7734V14.8707H51.8093ZM44.8493 10.0898V11.8596H45.8134V10.0898H44.8493ZM44.8493 15.1349V22.1741H45.8134V15.1349H44.8493ZM48.8774 11.12V15.7424C48.8774 17.6177 48.6925 19.9025 47.002 21.5666C47.2398 21.6987 47.5964 22.0288 47.7152 22.2533C49.5774 20.4176 49.8151 17.7366 49.8151 15.7556V11.6747C50 11.6483 50.0792 11.5954 50.0924 11.4898L48.8774 11.12ZM53.3017 10.1955C52.3376 10.6709 50.5943 11.1332 49.1151 11.4501C49.234 11.6483 49.3661 11.9916 49.4189 12.2029C51.0037 11.9256 52.8527 11.4766 54.0941 10.9219L53.3017 10.1955ZM45.721 17.7762L45.1795 18.2253C45.6682 18.6347 46.9096 19.7969 47.3322 20.2855L47.9133 19.5459C47.5831 19.2422 46.1436 18.0668 45.721 17.7762ZM43.1985 12.5067C43.4626 13.1142 43.6739 13.9066 43.7135 14.4217L44.5456 14.1972C44.4795 13.6953 44.255 12.9161 43.9777 12.335L43.1985 12.5067ZM46.5794 12.3086C46.4342 12.8633 46.1568 13.6821 45.9191 14.2104L46.7115 14.3953C46.9492 13.9066 47.2266 13.167 47.4775 12.5067L46.5794 12.3086ZM44.8625 17.1027C44.2286 18.3969 43.0268 19.8233 41.957 20.5233C42.1815 20.6817 42.4721 20.9987 42.6306 21.2232C43.6871 20.4044 44.9022 18.846 45.5757 17.38L44.8625 17.1027ZM55.3752 13.2727V14.2104H58.9146V13.2727H55.3752ZM56.7883 10.2351V18.8724H57.7524V10.2351H56.7883ZM55.1771 19.0969L55.5205 20.0874C56.643 19.612 58.0694 18.978 59.4165 18.3705L59.1788 17.4725C57.7128 18.0932 56.1808 18.7271 55.1771 19.0969ZM60.3145 17.38V22.2005H61.2654V18.1328H65.1879V22.1609H66.1652V17.38H60.3145ZM60.8164 20.9195V21.6987H65.8086V20.9195H60.8164ZM60.79 19.1629V19.8761H65.7426V19.1629H60.79ZM62.7974 13.2463V16.231H63.5502V13.2463H62.7974ZM60.4862 13.6425H65.9275V15.8744H60.4862V13.6425ZM59.6806 12.8765V16.6272H66.7859V12.8765H59.6806ZM60.9749 14.1047C61.2126 14.5934 61.4503 15.2405 61.5296 15.6367L62.1635 15.4254C62.0843 15.0424 61.8465 14.4085 61.5956 13.933L60.9749 14.1047ZM64.6464 13.9198C64.5275 14.3557 64.2634 15.0028 64.0521 15.4386L64.5936 15.6367C64.8313 15.2537 65.0954 14.6858 65.3464 14.1443L64.6464 13.9198ZM62.1107 10.3936V11.252H64.7917V10.3936H62.1107ZM60.9881 10.7502C60.473 11.7803 59.575 12.7708 58.6637 13.4444C58.875 13.6029 59.2052 13.9594 59.3372 14.1311C60.2749 13.3783 61.2654 12.2029 61.8729 11.0143L60.9881 10.7502ZM63.986 10.3936V10.8955H64.2502C64.9237 12.0709 66.0463 13.2595 67.0764 13.9991C67.2349 13.7481 67.5255 13.4048 67.7368 13.2331C66.7463 12.6256 65.6105 11.503 64.9766 10.3936H63.986ZM69.0179 10.869V11.7935H80.3229V10.869H69.0179ZM69.8895 17.314V18.2385H79.4248V17.314H69.8895ZM68.7273 20.7214V21.6458H80.5342V20.7214H68.7273ZM74.0497 15.6763V21.3685H75.0798V15.6763H74.0497ZM69.2556 14.4349L69.2952 15.4386C71.6328 15.3594 75.3043 15.2009 78.7513 15.0424L78.8041 14.1443C75.2515 14.2764 71.5404 14.3953 69.2556 14.4349ZM72.861 11.2917C72.4648 12.335 71.712 13.7878 71.1177 14.699L72.029 15.0292C72.6365 14.1708 73.4025 12.8105 73.9968 11.6483L72.861 11.2917ZM75.8194 12.7312C77.1533 13.7085 78.7381 15.1084 79.4777 16.0461L80.3625 15.4122C79.5833 14.4613 77.9325 13.101 76.625 12.1897L75.8194 12.7312Z" fill="white"/>
<path d="M90.0698 21.3418C89.3916 21.3418 88.7537 21.2185 88.1548 20.972C87.5651 20.7255 87.0408 20.3821 86.5831 19.9419C86.1255 19.4928 85.7643 18.969 85.5002 18.3703C85.2446 17.7627 85.1172 17.1068 85.1172 16.4024C85.1172 15.698 85.2446 15.0466 85.5002 14.4478C85.7643 13.8403 86.1209 13.3165 86.5699 12.8762C87.0276 12.4272 87.5558 12.0794 88.1548 11.8329C88.7537 11.5864 89.3916 11.4631 90.0698 11.4631C90.7915 11.4631 91.4565 11.5907 92.064 11.8461C92.6801 12.1014 93.1952 12.458 93.6092 12.9158L92.6055 13.9063C92.2971 13.563 91.9273 13.2988 91.4961 13.1139C91.0735 12.929 90.598 12.8366 90.0698 12.8366C89.4444 12.8366 88.8679 12.9863 88.3397 13.2856C87.8114 13.5762 87.3841 13.99 87.0586 14.5271C86.7416 15.0553 86.5831 15.6805 86.5831 16.4024C86.5831 17.1244 86.7463 17.754 87.0718 18.291C87.3974 18.8193 87.8246 19.2331 88.3529 19.5325C88.8811 19.823 89.4576 19.9683 90.083 19.9683C90.6555 19.9683 91.1745 19.8626 91.6414 19.6513C92.1082 19.4312 92.482 19.123 92.764 18.7268C93.0545 18.3306 93.2308 17.8552 93.2922 17.3005H90.0566V16.0194H94.6525C94.7054 16.2572 94.7318 16.5081 94.7318 16.7722V16.7854C94.7318 17.7011 94.529 18.5023 94.1243 19.1891C93.728 19.8671 93.178 20.3953 92.4734 20.7739C91.7688 21.1525 90.9678 21.3418 90.0698 21.3418ZM98.9844 21.3418C98.289 21.3418 97.6769 21.1833 97.1486 20.8663C96.6203 20.5494 96.2063 20.1223 95.9072 19.5853C95.6081 19.0482 95.4581 18.4407 95.4581 17.7627C95.4581 17.0936 95.6081 16.4905 95.9072 15.9534C96.2063 15.4075 96.6203 14.9761 97.1486 14.6591C97.6769 14.3422 98.289 14.1837 98.9844 14.1837C99.6711 14.1837 100.279 14.3422 100.807 14.6591C101.335 14.9761 101.749 15.4075 102.048 15.9534C102.347 16.4905 102.497 17.0936 102.497 17.7627C102.497 18.4407 102.347 19.0482 102.048 19.5853C101.749 20.1223 101.335 20.5494 100.807 20.8663C100.279 21.1833 99.6711 21.3418 98.9844 21.3418ZM98.9844 20.0343C99.3542 20.0343 99.6976 19.9463 100.015 19.7702C100.331 19.5853 100.587 19.3256 100.781 18.991C100.983 18.6476 101.084 18.2382 101.084 17.7627C101.084 17.2873 100.983 16.8823 100.781 16.5477C100.587 16.2043 100.331 15.9446 100.015 15.7685C99.6976 15.5836 99.3542 15.4912 98.9844 15.4912C98.6146 15.4912 98.2666 15.5836 97.941 15.7685C97.6241 15.9446 97.3646 16.2043 97.1618 16.5477C96.9684 16.8823 96.8713 17.2873 96.8713 17.7627C96.8713 18.2382 96.9684 18.6476 97.1618 18.991C97.3646 19.3256 97.6241 19.5853 97.941 19.7702C98.2666 19.9463 98.6146 20.0343 98.9844 20.0343ZM106.98 21.3418C106.285 21.3418 105.673 21.1833 105.145 20.8663C104.616 20.5494 104.203 20.1223 103.903 19.5853C103.604 19.0482 103.454 18.4407 103.454 17.7627C103.454 17.0936 103.604 16.4905 103.903 15.9534C104.203 15.4075 104.616 14.9761 105.145 14.6591C105.673 14.3422 106.285 14.1837 106.98 14.1837C107.667 14.1837 108.275 14.3422 108.803 14.6591C109.331 14.9761 109.745 15.4075 110.044 15.9534C110.344 16.4905 110.493 17.0936 110.493 17.7627C110.493 18.4407 110.344 19.0482 110.044 19.5853C109.745 20.1223 109.331 20.5494 108.803 20.8663C108.275 21.1833 107.667 21.3418 106.98 21.3418ZM106.98 20.0343C107.35 20.0343 107.694 19.9463 108.011 19.7702C108.328 19.5853 108.583 19.3256 108.777 18.991C108.979 18.6476 109.08 18.2382 109.08 17.7627C109.08 17.2873 108.979 16.8823 108.777 16.5477C108.583 16.2043 108.328 15.9446 108.011 15.7685C107.694 15.5836 107.35 15.4912 106.98 15.4912C106.611 15.4912 106.263 15.5836 105.937 15.7685C105.62 15.9446 105.361 16.2043 105.158 16.5477C104.964 16.8823 104.867 17.2873 104.867 17.7627C104.867 18.2382 104.964 18.6476 105.158 18.991C105.361 19.3256 105.62 19.5853 105.937 19.7702C106.263 19.9463 106.611 20.0343 106.98 20.0343ZM114.845 24.1945C114.255 24.1945 113.744 24.0976 113.313 23.9039C112.891 23.719 112.547 23.4769 112.283 23.1775C112.019 22.887 111.829 22.5877 111.715 22.2795L113.036 21.7248C113.176 22.077 113.401 22.3631 113.709 22.5832C114.026 22.8122 114.405 22.9266 114.845 22.9266C115.461 22.9266 115.945 22.7417 116.298 22.3719C116.658 22.0021 116.839 21.4783 116.839 20.8003V20.1532H116.76C116.549 20.4701 116.254 20.7255 115.875 20.9192C115.505 21.1041 115.083 21.1965 114.607 21.1965C114.035 21.1965 113.511 21.0512 113.036 20.7607C112.56 20.4701 112.177 20.0652 111.887 19.5457C111.596 19.0174 111.451 18.4011 111.451 17.6967C111.451 16.9835 111.596 16.3672 111.887 15.8477C112.177 15.3195 112.56 14.9101 113.036 14.6195C113.511 14.329 114.035 14.1837 114.607 14.1837C115.083 14.1837 115.505 14.2806 115.875 14.4742C116.254 14.6679 116.549 14.9233 116.76 15.2402H116.839V14.395H118.2V20.7739C118.2 21.5047 118.054 22.1254 117.764 22.6361C117.482 23.1467 117.09 23.5341 116.588 23.7983C116.087 24.0624 115.505 24.1945 114.845 24.1945ZM114.858 19.9022C115.21 19.9022 115.536 19.8186 115.836 19.6513C116.135 19.4752 116.377 19.2243 116.562 18.8985C116.747 18.5639 116.839 18.1634 116.839 17.6967C116.839 17.2125 116.747 16.8074 116.562 16.4817C116.377 16.1471 116.135 15.8962 115.836 15.7289C115.536 15.5616 115.21 15.478 114.858 15.478C114.506 15.478 114.176 15.566 113.868 15.7421C113.568 15.9094 113.326 16.1559 113.141 16.4817C112.957 16.8074 112.864 17.2125 112.864 17.6967C112.864 18.1722 112.957 18.5771 113.141 18.9117C113.326 19.2375 113.568 19.4841 113.868 19.6513C114.176 19.8186 114.506 19.9022 114.858 19.9022ZM119.882 21.1305V11.6744H121.308V21.1305H119.882ZM126.002 21.3418C125.342 21.3418 124.752 21.1877 124.233 20.8796C123.713 20.5714 123.303 20.1488 123.004 19.6117C122.714 19.0746 122.569 18.4627 122.569 17.7759C122.569 17.1332 122.709 16.5389 122.991 15.993C123.272 15.4471 123.665 15.0113 124.167 14.6855C124.677 14.351 125.263 14.1837 125.923 14.1837C126.618 14.1837 127.208 14.3334 127.693 14.6327C128.185 14.9321 128.56 15.3415 128.815 15.861C129.07 16.3804 129.198 16.9659 129.198 17.6175C129.198 17.7143 129.194 17.8024 129.185 17.8816C129.185 17.9608 129.181 18.0225 129.172 18.0665H123.968C124.038 18.7356 124.272 19.2375 124.668 19.5721C125.073 19.9067 125.531 20.0739 126.042 20.0739C126.5 20.0739 126.878 19.9727 127.178 19.7702C127.477 19.5589 127.715 19.2992 127.891 18.991L129.066 19.5589C128.776 20.0871 128.38 20.5185 127.878 20.8531C127.376 21.1789 126.75 21.3418 126.002 21.3418ZM125.936 15.3987C125.461 15.3987 125.055 15.544 124.721 15.8345C124.386 16.1251 124.162 16.5125 124.048 16.9967H127.785C127.767 16.7678 127.693 16.5301 127.561 16.2836C127.429 16.0371 127.226 15.8301 126.953 15.6629C126.689 15.4867 126.35 15.3987 125.936 15.3987ZM138.635 11.9253L138.728 12.7309L145.212 12.097L145.133 11.2914L138.635 11.9253ZM138.477 17.8024L138.543 18.6212L145.397 17.9608L145.305 17.1552L138.477 17.8024ZM140.022 10.0367C140.286 13.3517 142.36 15.9798 144.195 15.9798C144.935 15.9798 145.265 15.6364 145.424 14.3818C145.186 14.3025 144.909 14.1573 144.71 13.9856C144.658 14.8176 144.565 15.1082 144.248 15.1082C142.98 15.1214 141.145 12.8894 140.92 10.0367H140.022ZM140.075 15.9006C140.299 19.4268 142.162 22.187 144.209 22.187C145.001 22.187 145.331 21.8304 145.49 20.4966C145.252 20.4173 144.961 20.2588 144.763 20.0739C144.697 20.9852 144.605 21.3022 144.261 21.3022C142.835 21.3286 141.171 18.9778 140.986 15.9006H140.075ZM143.522 12.4932C142.492 13.7347 140.392 14.6063 138.371 15.0818C138.556 15.2534 138.847 15.6364 138.965 15.8213C140.986 15.227 143.192 14.2497 144.354 12.8102L143.522 12.4932ZM143.72 18.3438C142.611 19.823 140.286 20.7871 137.962 21.3022C138.147 21.4871 138.437 21.9097 138.543 22.1078C140.88 21.4607 143.324 20.3645 144.605 18.6608L143.72 18.3438ZM142.095 10.5914C142.69 10.8159 143.443 11.1725 143.812 11.4763L144.275 10.882C143.892 10.6046 143.139 10.2613 142.558 10.0764L142.095 10.5914ZM141.897 16.244C142.505 16.4949 143.244 16.9175 143.614 17.2345L144.169 16.6666C143.786 16.3496 143.033 15.9666 142.426 15.7289L141.897 16.244ZM134.198 13.312V14.1705H137.909V13.312H134.198ZM133.485 15.5704V16.4421H138.318V15.5704H133.485ZM133.788 17.3137C134.039 18.1193 134.251 19.1495 134.264 19.8362L135.003 19.6513C134.951 18.9646 134.739 17.9476 134.475 17.142L133.788 17.3137ZM133.366 20.8663L133.564 21.7908C134.937 21.5003 136.76 21.1041 138.503 20.7211L138.437 19.889C136.575 20.272 134.647 20.655 133.366 20.8663ZM137.46 17.0232C137.341 17.7231 137.103 18.7665 136.905 19.4136L137.552 19.5985C137.777 18.9778 138.001 18.0269 138.226 17.2213L137.46 17.0232ZM135.558 13.629V20.972L136.43 20.8267V13.629H135.558ZM135.518 10.0499C135.069 11.1065 134.224 12.4536 133.022 13.4573C133.207 13.5894 133.498 13.8799 133.643 14.078C134.951 12.929 135.809 11.5291 136.324 10.5122V10.2613H136.034V10.0499H135.518ZM135.677 10.0499V10.7499H135.862C136.628 11.4102 137.526 12.5064 137.975 13.18L138.635 12.4272C138.173 11.7668 137.196 10.7499 136.417 10.0499H135.677ZM149.703 9.9707C148.963 11.8593 147.748 13.695 146.374 14.844C146.639 15.0025 147.061 15.3591 147.259 15.544C148.606 14.2761 149.901 12.3215 150.733 10.2613L149.703 9.9707ZM149.544 11.5555L149.069 12.4932H156.993V11.5555H149.544ZM156.676 11.5555V11.7536C156.557 16.0723 156.425 17.5911 156.121 17.9344C156.015 18.0797 155.87 18.1193 155.659 18.1193C155.408 18.1193 154.774 18.1061 154.1 18.0401C154.259 18.3042 154.365 18.7004 154.378 18.991C155.091 19.0174 155.751 19.0306 156.121 18.991C156.517 18.9514 156.781 18.8457 157.019 18.5419C157.402 18.0533 157.534 16.4817 157.666 12.031C157.666 11.8857 157.666 11.5555 157.666 11.5555H156.676ZM148.844 17.0496V17.9344H153.942V13.9063H148.567V14.7912H152.952V17.0496H148.844ZM148.369 17.0496V20.4437C148.369 21.7512 148.989 22.0418 151.103 22.0418C151.565 22.0418 155.553 22.0418 156.042 22.0418C157.917 22.0418 158.3 21.5795 158.498 19.6777C158.221 19.6249 157.798 19.4664 157.547 19.3211C157.429 20.8399 157.231 21.1041 156.029 21.1041C155.144 21.1041 151.723 21.1041 151.05 21.1041C149.623 21.1041 149.359 20.9852 149.359 20.4437V17.0496H148.369Z" fill="white"/>
<path d="M157.163 0.330078H16.5104C7.57534 0.330078 0.332031 7.57339 0.332031 16.5085C0.332031 25.4435 7.57534 32.6868 16.5104 32.6868H157.163C166.098 32.6868 173.342 25.4435 173.342 16.5085C173.342 7.57339 166.098 0.330078 157.163 0.330078Z" stroke="#747775"/>
</g>
<defs>
<linearGradient id="paint0_linear_568_1079" x1="22.8282" y1="20.3292" x2="12.3688" y2="32.2991" gradientUnits="userSpaceOnUse">
<stop stop-color="#4285F4"/>
<stop offset="1" stop-color="#1B74E8"/>
</linearGradient>
<clipPath id="clip0_568_1079">
<rect width="173.67" height="33.0171" fill="white"/>
</clipPath>
</defs>
</svg>
