<svg width="174" height="23" viewBox="0 0 174 23" fill="none" xmlns="http://www.w3.org/2000/svg">
<g clip-path="url(#clip0_568_285)">
<path d="M162.595 0.22168H11.077C5.08233 0.22168 0.222656 5.08135 0.222656 11.0761C0.222656 17.0708 5.08233 21.9304 11.077 21.9304H162.595C168.59 21.9304 173.45 17.0708 173.45 11.0761C173.45 5.08135 168.59 0.22168 162.595 0.22168Z" fill="#1F1F1F"/>
<path d="M22.5958 9.74676H9.30469V7.53158C9.30469 6.32905 10.2802 5.31641 11.4386 5.31641H20.4619C21.6203 5.31641 22.5958 6.32905 22.5958 7.53158V9.74676Z" fill="#34A853"/>
<path d="M22.5958 11.5427H9.30469V9.32748C9.30469 8.12495 10.2802 7.1123 11.4386 7.1123H20.4619C21.6203 7.1123 22.5958 8.12495 22.5958 9.32748V11.5427Z" fill="#FBBC04"/>
<path d="M22.5958 13.4001H9.30469V11.1849C9.30469 9.98237 10.2802 8.96973 11.4386 8.96973H20.4619C21.6203 8.96973 22.5958 9.98237 22.5958 11.1849V13.4001Z" fill="#EA4335"/>
<path d="M9.30469 10.3114L17.7406 12.2624C18.7116 12.5063 19.804 12.2624 20.593 11.6527L22.5958 10.1895V14.7621C22.5958 15.9205 21.6247 16.835 20.4716 16.835H11.4288C10.2757 16.835 9.30469 15.9205 9.30469 14.7621V10.3114Z" fill="url(#paint0_linear_568_285)"/>
<path d="M28.6289 14.1773V7.83303H29.6036V13.2558H32.3327V14.1773H28.6289ZM33.7174 8.99379C33.5402 8.99379 33.3866 8.93176 33.2566 8.80771C33.1326 8.67777 33.0706 8.52417 33.0706 8.34696C33.0706 8.16974 33.1326 8.01911 33.2566 7.89506C33.3866 7.77101 33.5402 7.70898 33.7174 7.70898C33.8946 7.70898 34.0452 7.77101 34.1693 7.89506C34.2992 8.01911 34.3642 8.16974 34.3642 8.34696C34.3642 8.52417 34.2992 8.67777 34.1693 8.80771C34.0452 8.93176 33.8946 8.99379 33.7174 8.99379ZM33.2389 14.1773V9.65834H34.1959V14.1773H33.2389ZM37.0313 14.3191C36.4878 14.3191 36.0537 14.2009 35.7288 13.9646C35.4039 13.7224 35.1794 13.436 35.0554 13.1052L35.9148 12.733C36.0212 12.9752 36.1747 13.1613 36.3756 13.2912C36.5764 13.4153 36.8038 13.4773 37.0579 13.4773C37.2942 13.4773 37.4979 13.436 37.6693 13.3533C37.8405 13.2647 37.9262 13.1229 37.9262 12.9279C37.9262 12.7389 37.8405 12.6001 37.6693 12.5115C37.4979 12.4229 37.2853 12.3461 37.0313 12.2811L36.4908 12.1571C36.2722 12.1039 36.0684 12.0212 35.8794 11.909C35.6904 11.7967 35.5368 11.652 35.4187 11.4748C35.3005 11.2917 35.2414 11.079 35.2414 10.8368C35.2414 10.571 35.3212 10.3406 35.4807 10.1457C35.6402 9.94485 35.8499 9.79125 36.1098 9.68492C36.3756 9.5727 36.6621 9.51657 36.9693 9.51657C37.3887 9.51657 37.7549 9.59929 38.068 9.76467C38.387 9.92416 38.6203 10.1664 38.768 10.4912L37.944 10.8634C37.8376 10.6626 37.6988 10.5237 37.5275 10.4469C37.3621 10.3642 37.179 10.3229 36.9781 10.3229C36.7536 10.3229 36.5646 10.3702 36.411 10.4647C36.2633 10.5592 36.1895 10.6773 36.1895 10.8191C36.1895 10.9727 36.2545 11.0938 36.3845 11.1824C36.5203 11.271 36.6857 11.3419 36.8807 11.395L37.5364 11.5545C37.9853 11.6668 38.322 11.8381 38.5465 12.0685C38.7709 12.2929 38.8832 12.5676 38.8832 12.8925C38.8832 13.1819 38.8005 13.436 38.6351 13.6545C38.4697 13.8672 38.2452 14.0326 37.9617 14.1507C37.684 14.2629 37.3739 14.3191 37.0313 14.3191ZM41.1794 14.3191C40.8544 14.3191 40.565 14.2571 40.311 14.133C40.057 14.0031 39.8591 13.8229 39.7173 13.5925C39.5756 13.3621 39.5047 13.0993 39.5047 12.8039C39.5047 12.4849 39.5874 12.2132 39.7528 11.9887C39.9241 11.7583 40.1515 11.5841 40.4351 11.4659C40.7186 11.3478 41.0316 11.2887 41.3743 11.2887C41.6578 11.2887 41.9059 11.3153 42.1186 11.3685C42.3371 11.4216 42.5025 11.4778 42.6148 11.5368V11.2976C42.6148 11.0022 42.5085 10.7659 42.2958 10.5887C42.0831 10.4115 41.8085 10.3229 41.4718 10.3229C41.2414 10.3229 41.0228 10.3761 40.8161 10.4824C40.6093 10.5828 40.4439 10.7216 40.3199 10.8988L39.6642 10.3938C39.8591 10.1221 40.1161 9.90941 40.4351 9.75581C40.7599 9.59632 41.1144 9.51657 41.4983 9.51657C42.154 9.51657 42.6591 9.67903 43.0135 10.0039C43.368 10.3229 43.5452 10.7718 43.5452 11.3507V14.1773H42.6148V13.6191H42.5616C42.4435 13.8022 42.2663 13.9646 42.03 14.1064C41.7937 14.2482 41.5101 14.3191 41.1794 14.3191ZM41.3477 13.5393C41.5958 13.5393 41.8144 13.4803 42.0034 13.3621C42.1924 13.244 42.3401 13.0904 42.4464 12.9014C42.5587 12.7064 42.6148 12.4967 42.6148 12.2723C42.4789 12.1955 42.3194 12.1334 42.1363 12.0862C41.9532 12.033 41.7582 12.0064 41.5515 12.0064C41.1616 12.0064 40.884 12.0862 40.7186 12.2457C40.5532 12.3993 40.4705 12.5883 40.4705 12.8128C40.4705 13.0254 40.5502 13.1997 40.7097 13.3355C40.8692 13.4714 41.0819 13.5393 41.3477 13.5393ZM44.5986 14.1773V9.65834H45.5024V10.2786H45.5555C45.6858 10.06 45.8745 9.87986 46.1226 9.73809C46.3707 9.59042 46.6454 9.51657 46.9467 9.51657C47.2834 9.51657 47.57 9.59632 47.8061 9.75581C48.0427 9.9153 48.2111 10.1161 48.3112 10.3583C48.4592 10.1221 48.6599 9.92416 48.9137 9.76467C49.168 9.59929 49.4782 9.51657 49.8441 9.51657C50.3758 9.51657 50.7718 9.67903 51.0314 10.0039C51.2915 10.3229 51.4213 10.7482 51.4213 11.2799V14.1773H50.4732V11.4393C50.4732 11.079 50.3935 10.8161 50.234 10.6507C50.0807 10.4794 49.8649 10.3938 49.5872 10.3938C49.3687 10.3938 49.1769 10.4558 49.0112 10.5799C48.846 10.698 48.7161 10.8604 48.6213 11.0672C48.5327 11.274 48.4884 11.5043 48.4884 11.7583V14.1773H47.5403V11.4393C47.5403 11.079 47.4606 10.8161 47.3011 10.6507C47.1416 10.4794 46.9174 10.3938 46.6277 10.3938C46.415 10.3938 46.2289 10.4558 46.0694 10.5799C45.91 10.7039 45.7832 10.8693 45.6884 11.0761C45.5998 11.2828 45.5555 11.5132 45.5555 11.7672V14.1773H44.5986ZM53.0481 8.99379C52.8709 8.99379 52.7176 8.93176 52.5874 8.80771C52.4633 8.67777 52.4013 8.52417 52.4013 8.34696C52.4013 8.16974 52.4633 8.01911 52.5874 7.89506C52.7176 7.77101 52.8709 7.70898 53.0481 7.70898C53.2254 7.70898 53.376 7.77101 53.5 7.89506C53.6303 8.01911 53.695 8.16974 53.695 8.34696C53.695 8.52417 53.6303 8.67777 53.5 8.80771C53.376 8.93176 53.2254 8.99379 53.0481 8.99379ZM52.5697 14.1773V9.65834H53.5266V14.1773H52.5697ZM54.714 14.1773V9.65834H55.6178V10.2786H55.6709C55.8012 10.06 55.993 9.87986 56.2469 9.73809C56.5069 9.59042 56.7905 9.51657 57.0975 9.51657C57.6531 9.51657 58.0695 9.68196 58.3469 10.0128C58.6246 10.3436 58.7633 10.7807 58.7633 11.3242V14.1773H57.8152V11.4482C57.8152 11.0819 57.7239 10.8161 57.5405 10.6507C57.3576 10.4794 57.1183 10.3938 56.8228 10.3938C56.5924 10.3938 56.3917 10.4588 56.2203 10.5887C56.0493 10.7128 55.9133 10.8782 55.8127 11.0849C55.7183 11.2917 55.6709 11.5132 55.6709 11.7495V14.1773H54.714ZM61.9186 14.3191C61.4756 14.3191 61.0799 14.2157 60.7313 14.009C60.3826 13.8022 60.1079 13.5186 59.9072 13.1583C59.7123 12.798 59.6148 12.3874 59.6148 11.9267C59.6148 11.4955 59.7092 11.0967 59.8984 10.7305C60.0875 10.3642 60.3503 10.0718 60.687 9.85328C61.0294 9.62879 61.4224 9.51657 61.8654 9.51657C62.332 9.51657 62.728 9.61701 63.0528 9.81783C63.3837 10.0187 63.6345 10.2933 63.8059 10.6419C63.9774 10.9904 64.0629 11.3832 64.0629 11.8204C64.0629 11.8853 64.0598 11.9444 64.054 11.9976C64.054 12.0507 64.0509 12.0921 64.0452 12.1216H60.5541C60.6015 12.5705 60.7579 12.9073 61.0237 13.1317C61.2953 13.3562 61.6027 13.4684 61.9452 13.4684C62.2522 13.4684 62.5065 13.4005 62.7072 13.2647C62.9079 13.1229 63.0674 12.9486 63.1857 12.7419L63.9743 13.1229C63.7794 13.4773 63.5135 13.7667 63.1768 13.9912C62.8401 14.2098 62.4206 14.3191 61.9186 14.3191ZM61.8743 10.3318C61.5553 10.3318 61.2837 10.4292 61.0591 10.6242C60.8345 10.8191 60.6839 11.079 60.6072 11.4039H63.1148C63.1028 11.2503 63.0528 11.0908 62.9642 10.9254C62.8756 10.76 62.7396 10.6212 62.5566 10.509C62.3794 10.3908 62.1521 10.3318 61.8743 10.3318ZM68.4366 14.3191C68.1114 14.3191 67.8221 14.2571 67.5682 14.133C67.3139 14.0031 67.1163 13.8229 66.9745 13.5925C66.8328 13.3621 66.7619 13.0993 66.7619 12.8039C66.7619 12.4849 66.8443 12.2132 67.01 11.9887C67.181 11.7583 67.4087 11.5841 67.6923 11.4659C67.9758 11.3478 68.2886 11.2887 68.6315 11.2887C68.915 11.2887 69.1631 11.3153 69.3758 11.3685C69.5942 11.4216 69.7595 11.4778 69.872 11.5368V11.2976C69.872 11.0022 69.7657 10.7659 69.553 10.5887C69.3403 10.4115 69.0657 10.3229 68.729 10.3229C68.4986 10.3229 68.2797 10.3761 68.0733 10.4824C67.8664 10.5828 67.7011 10.7216 67.5771 10.8988L66.9214 10.3938C67.1163 10.1221 67.3733 9.90941 67.6923 9.75581C68.017 9.59632 68.3714 9.51657 68.7555 9.51657C69.4112 9.51657 69.9163 9.67903 70.2707 10.0039C70.6251 10.3229 70.8024 10.7718 70.8024 11.3507V14.1773H69.872V13.6191H69.8188C69.7005 13.8022 69.5233 13.9646 69.2872 14.1064C69.0506 14.2482 68.7671 14.3191 68.4366 14.3191ZM68.6049 13.5393C68.853 13.5393 69.0714 13.4803 69.2606 13.3621C69.4493 13.244 69.5973 13.0904 69.7036 12.9014C69.8157 12.7064 69.872 12.4967 69.872 12.2723C69.736 12.1955 69.5765 12.1334 69.3935 12.0862C69.2101 12.033 69.0152 12.0064 68.8087 12.0064C68.4188 12.0064 68.141 12.0862 67.9758 12.2457C67.8101 12.3993 67.7277 12.5883 67.7277 12.8128C67.7277 13.0254 67.8074 13.1997 67.9669 13.3355C68.1264 13.4714 68.3391 13.5393 68.6049 13.5393ZM73.4606 14.3191C72.917 14.3191 72.4828 14.2009 72.158 13.9646C71.8333 13.7224 71.6087 13.436 71.4846 13.1052L72.3441 12.733C72.4505 12.9752 72.6042 13.1613 72.8049 13.2912C73.0056 13.4153 73.2333 13.4773 73.4872 13.4773C73.7233 13.4773 73.9271 13.436 74.0985 13.3533C74.27 13.2647 74.3555 13.1229 74.3555 12.9279C74.3555 12.7389 74.27 12.6001 74.0985 12.5115C73.9271 12.4229 73.7144 12.3461 73.4606 12.2811L72.9201 12.1571C72.7017 12.1039 72.4979 12.0212 72.3087 11.909C72.1195 11.7967 71.9662 11.652 71.8479 11.4748C71.7296 11.2917 71.6707 11.079 71.6707 10.8368C71.6707 10.571 71.7505 10.3406 71.9099 10.1457C72.0694 9.94485 72.279 9.79125 72.5391 9.68492C72.8049 9.5727 73.0915 9.51657 73.3985 9.51657C73.8181 9.51657 74.184 9.59929 74.4973 9.76467C74.8163 9.92416 75.0497 10.1664 75.1973 10.4912L74.3732 10.8634C74.2669 10.6626 74.1282 10.5237 73.9568 10.4469C73.7915 10.3642 73.6081 10.3229 73.4074 10.3229C73.1828 10.3229 72.9941 10.3702 72.8403 10.4647C72.6928 10.5592 72.6188 10.6773 72.6188 10.8191C72.6188 10.9727 72.6839 11.0938 72.8137 11.1824C72.9498 11.271 73.115 11.3419 73.3099 11.395L73.9656 11.5545C74.4144 11.6668 74.7511 11.8381 74.9758 12.0685C75.2004 12.2929 75.3125 12.5676 75.3125 12.8925C75.3125 13.1819 75.2296 13.436 75.0644 13.6545C74.8991 13.8672 74.6745 14.0326 74.391 14.1507C74.1132 14.2629 73.803 14.3191 73.4606 14.3191ZM77.7868 14.3191C77.2317 14.3191 76.8121 14.1537 76.5286 13.8229C76.2513 13.4862 76.1121 13.0313 76.1121 12.4583V9.65834H77.0691V12.3254C77.0691 12.7094 77.1577 12.9929 77.3349 13.176C77.5183 13.3533 77.7456 13.4419 78.0172 13.4419C78.2595 13.4419 78.4691 13.3798 78.6463 13.2558C78.8297 13.1258 78.9684 12.9604 79.0628 12.7596C79.1633 12.5528 79.2134 12.3284 79.2134 12.0862V9.65834H80.1615V14.1773H79.2666V13.5659H79.2134C79.0836 13.7786 78.8887 13.9588 78.6286 14.1064C78.3747 14.2482 78.0943 14.3191 77.7868 14.3191ZM81.2877 14.1773V7.83303H82.2446V11.5723L84.1586 9.65834H85.3459V9.71151L83.6003 11.4393L85.4079 14.1241V14.1773H84.2737L82.9269 12.1039L82.2446 12.7773V14.1773H81.2877ZM88.0001 14.3191C87.5336 14.3191 87.1229 14.2127 86.7685 14.0001C86.4141 13.7874 86.1367 13.5009 85.9356 13.1406C85.7349 12.7803 85.6343 12.3727 85.6343 11.9178C85.6343 11.4689 85.7349 11.0642 85.9356 10.7039C86.1367 10.3376 86.4141 10.0482 86.7685 9.83556C87.1229 9.6229 87.5336 9.51657 88.0001 9.51657C88.4609 9.51657 88.8685 9.6229 89.2229 9.83556C89.5773 10.0482 89.8551 10.3376 90.0558 10.7039C90.2569 11.0642 90.3571 11.4689 90.3571 11.9178C90.3571 12.3727 90.2569 12.7803 90.0558 13.1406C89.8551 13.5009 89.5773 13.7874 89.2229 14.0001C88.8685 14.2127 88.4609 14.3191 88.0001 14.3191ZM88.0001 13.4419C88.2482 13.4419 88.4786 13.3828 88.6913 13.2647C88.9039 13.1406 89.0754 12.9664 89.2052 12.7419C89.3412 12.5115 89.409 12.2368 89.409 11.9178C89.409 11.5988 89.3412 11.3271 89.2052 11.1026C89.0754 10.8723 88.9039 10.698 88.6913 10.5799C88.4786 10.4558 88.2482 10.3938 88.0001 10.3938C87.752 10.3938 87.519 10.4558 87.3001 10.5799C87.0875 10.698 86.9134 10.8723 86.7773 11.1026C86.6475 11.3271 86.5824 11.5988 86.5824 11.9178C86.5824 12.2368 86.6475 12.5115 86.7773 12.7419C86.9134 12.9664 87.0875 13.1406 87.3001 13.2647C87.519 13.3828 87.752 13.4419 88.0001 13.4419ZM91.1953 14.1773V7.83303H92.1522V9.56973L92.0991 10.2786H92.1522C92.2763 10.06 92.4655 9.87986 92.7193 9.73809C92.9794 9.59042 93.2656 9.51657 93.5788 9.51657C94.1402 9.51657 94.5624 9.68492 94.8459 10.0216C95.1295 10.3524 95.2712 10.7866 95.2712 11.3242V14.1773H94.3231V11.4482C94.3231 11.0819 94.2257 10.8161 94.0307 10.6507C93.8416 10.4794 93.6085 10.3938 93.3307 10.3938C93.1003 10.3938 92.8965 10.4588 92.7193 10.5887C92.5421 10.7187 92.4034 10.89 92.3029 11.1026C92.2023 11.3094 92.1522 11.5309 92.1522 11.7672V14.1773H91.1953ZM96.6145 12.8659V10.4912H95.8259V9.65834H96.6145V8.3824H97.5715V9.65834H98.679V10.4912H97.5715V12.6621C97.5715 12.8866 97.6158 13.0579 97.7044 13.176C97.7992 13.2942 97.9556 13.3533 98.174 13.3533C98.2865 13.3533 98.3809 13.3385 98.4575 13.309C98.5404 13.2794 98.6232 13.2381 98.7056 13.1849V14.1153C98.6055 14.1566 98.4992 14.1891 98.3867 14.2127C98.2746 14.2364 98.1416 14.2482 97.9879 14.2482C97.5688 14.2482 97.2348 14.1271 96.9867 13.8849C96.7386 13.6368 96.6145 13.2971 96.6145 12.8659ZM100.929 14.3191C100.604 14.3191 100.314 14.2571 100.06 14.133C99.8061 14.0031 99.6085 13.8229 99.4668 13.5925C99.325 13.3621 99.2541 13.0993 99.2541 12.8039C99.2541 12.4849 99.3365 12.2132 99.5022 11.9887C99.6732 11.7583 99.9009 11.5841 100.184 11.4659C100.468 11.3478 100.781 11.2887 101.124 11.2887C101.407 11.2887 101.655 11.3153 101.868 11.3685C102.086 11.4216 102.252 11.4778 102.364 11.5368V11.2976C102.364 11.0022 102.258 10.7659 102.045 10.5887C101.833 10.4115 101.558 10.3229 101.221 10.3229C100.991 10.3229 100.772 10.3761 100.566 10.4824C100.359 10.5828 100.193 10.7216 100.069 10.8988L99.4136 10.3938C99.6085 10.1221 99.8655 9.90941 100.184 9.75581C100.509 9.59632 100.864 9.51657 101.248 9.51657C101.903 9.51657 102.409 9.67903 102.763 10.0039C103.117 10.3229 103.295 10.7718 103.295 11.3507V14.1773H102.364V13.6191H102.311C102.193 13.8022 102.016 13.9646 101.779 14.1064C101.543 14.2482 101.259 14.3191 100.929 14.3191ZM101.097 13.5393C101.345 13.5393 101.564 13.4803 101.753 13.3621C101.942 13.244 102.09 13.0904 102.196 12.9014C102.308 12.7064 102.364 12.4967 102.364 12.2723C102.228 12.1955 102.069 12.1334 101.886 12.0862C101.702 12.033 101.507 12.0064 101.301 12.0064C100.911 12.0064 100.633 12.0862 100.468 12.2457C100.302 12.3993 100.22 12.5883 100.22 12.8128C100.22 13.0254 100.3 13.1997 100.459 13.3355C100.619 13.4714 100.831 13.5393 101.097 13.5393Z" fill="white"/>
<path d="M110.049 14.3192C109.594 14.3192 109.166 14.2365 108.765 14.0711C108.369 13.9057 108.017 13.6754 107.71 13.38C107.403 13.0787 107.161 12.7273 106.984 12.3256C106.812 11.918 106.727 11.4779 106.727 11.0053C106.727 10.5327 106.812 10.0956 106.984 9.69393C107.161 9.28633 107.4 8.93487 107.701 8.6395C108.008 8.33824 108.363 8.10489 108.765 7.93951C109.166 7.77412 109.594 7.69141 110.049 7.69141C110.534 7.69141 110.98 7.77705 111.387 7.94837C111.801 8.11969 112.146 8.35893 112.424 8.66608L111.751 9.33064C111.544 9.10026 111.296 8.92305 111.006 8.799C110.723 8.67495 110.404 8.61292 110.049 8.61292C109.63 8.61292 109.243 8.71336 108.889 8.91418C108.534 9.10912 108.248 9.38677 108.029 9.74709C107.816 10.1015 107.71 10.5209 107.71 11.0053C107.71 11.4897 107.82 11.9121 108.038 12.2724C108.256 12.6268 108.543 12.9045 108.897 13.1053C109.252 13.3002 109.639 13.3977 110.058 13.3977C110.442 13.3977 110.791 13.3268 111.104 13.185C111.417 13.0374 111.668 12.8306 111.857 12.5648C112.052 12.299 112.17 11.98 112.211 11.6078H110.04V10.7484H113.124C113.159 10.9078 113.177 11.0762 113.177 11.2534V11.2623C113.177 11.8766 113.041 12.4142 112.77 12.8749C112.504 13.3298 112.135 13.6842 111.662 13.9382C111.189 14.1922 110.652 14.3192 110.049 14.3192ZM116.03 14.3192C115.564 14.3192 115.153 14.2129 114.799 14.0002C114.444 13.7876 114.166 13.5011 113.966 13.1407C113.765 12.7804 113.665 12.3728 113.665 11.918C113.665 11.469 113.765 11.0644 113.966 10.704C114.166 10.3378 114.444 10.0484 114.799 9.8357C115.153 9.62304 115.564 9.51671 116.03 9.51671C116.491 9.51671 116.899 9.62304 117.253 9.8357C117.608 10.0484 117.885 10.3378 118.086 10.704C118.287 11.0644 118.387 11.469 118.387 11.918C118.387 12.3728 118.287 12.7804 118.086 13.1407C117.885 13.5011 117.608 13.7876 117.253 14.0002C116.899 14.2129 116.491 14.3192 116.03 14.3192ZM116.03 13.442C116.278 13.442 116.509 13.383 116.721 13.2648C116.934 13.1407 117.106 12.9665 117.235 12.742C117.371 12.5116 117.439 12.237 117.439 11.918C117.439 11.599 117.371 11.3273 117.235 11.1028C117.106 10.8724 116.934 10.6982 116.721 10.58C116.509 10.4559 116.278 10.3939 116.03 10.3939C115.782 10.3939 115.549 10.4559 115.33 10.58C115.118 10.6982 114.944 10.8724 114.808 11.1028C114.678 11.3273 114.613 11.599 114.613 11.918C114.613 12.237 114.678 12.5116 114.808 12.742C114.944 12.9665 115.118 13.1407 115.33 13.2648C115.549 13.383 115.782 13.442 116.03 13.442ZM121.395 14.3192C120.929 14.3192 120.518 14.2129 120.163 14.0002C119.809 13.7876 119.532 13.5011 119.33 13.1407C119.13 12.7804 119.029 12.3728 119.029 11.918C119.029 11.469 119.13 11.0644 119.33 10.704C119.532 10.3378 119.809 10.0484 120.163 9.8357C120.518 9.62304 120.929 9.51671 121.395 9.51671C121.856 9.51671 122.263 9.62304 122.618 9.8357C122.972 10.0484 123.25 10.3378 123.451 10.704C123.652 11.0644 123.752 11.469 123.752 11.918C123.752 12.3728 123.652 12.7804 123.451 13.1407C123.25 13.5011 122.972 13.7876 122.618 14.0002C122.263 14.2129 121.856 14.3192 121.395 14.3192ZM121.395 13.442C121.643 13.442 121.874 13.383 122.086 13.2648C122.299 13.1407 122.47 12.9665 122.6 12.742C122.736 12.5116 122.804 12.237 122.804 11.918C122.804 11.599 122.736 11.3273 122.6 11.1028C122.47 10.8724 122.299 10.6982 122.086 10.58C121.874 10.4559 121.643 10.3939 121.395 10.3939C121.147 10.3939 120.914 10.4559 120.695 10.58C120.482 10.6982 120.308 10.8724 120.172 11.1028C120.042 11.3273 119.977 11.599 119.977 11.918C119.977 12.237 120.042 12.5116 120.172 12.742C120.308 12.9665 120.482 13.1407 120.695 13.2648C120.914 13.383 121.147 13.442 121.395 13.442ZM126.672 16.2331C126.276 16.2331 125.933 16.1681 125.644 16.0382C125.36 15.9141 125.13 15.7517 124.953 15.5509C124.775 15.3559 124.648 15.1551 124.572 14.9483L125.458 14.5762C125.552 14.8125 125.703 15.0045 125.91 15.1521C126.122 15.3057 126.376 15.3825 126.672 15.3825C127.085 15.3825 127.41 15.2585 127.646 15.0104C127.888 14.7623 128.01 14.4108 128.01 13.9559V13.5218H127.956C127.815 13.7344 127.617 13.9057 127.363 14.0357C127.115 14.1597 126.831 14.2218 126.512 14.2218C126.128 14.2218 125.777 14.1243 125.458 13.9293C125.139 13.7344 124.882 13.4627 124.687 13.1142C124.492 12.7597 124.394 12.3462 124.394 11.8737C124.394 11.3952 124.492 10.9817 124.687 10.6332C124.882 10.2787 125.139 10.0041 125.458 9.80912C125.777 9.61418 126.128 9.51671 126.512 9.51671C126.831 9.51671 127.115 9.58171 127.363 9.71165C127.617 9.84159 127.815 10.0129 127.956 10.2256H128.01V9.65848H128.922V13.9382C128.922 14.4285 128.825 14.845 128.63 15.1876C128.441 15.5302 128.178 15.7901 127.841 15.9673C127.504 16.1445 127.115 16.2331 126.672 16.2331ZM126.68 13.3534C126.917 13.3534 127.135 13.2973 127.336 13.185C127.537 13.0669 127.699 12.8985 127.823 12.68C127.948 12.4555 128.01 12.1868 128.01 11.8737C128.01 11.5488 127.948 11.277 127.823 11.0585C127.699 10.834 127.537 10.6656 127.336 10.5534C127.135 10.4412 126.917 10.3851 126.68 10.3851C126.444 10.3851 126.222 10.4441 126.016 10.5623C125.815 10.6745 125.653 10.8399 125.529 11.0585C125.405 11.277 125.342 11.5488 125.342 11.8737C125.342 12.1926 125.405 12.4644 125.529 12.6888C125.653 12.9074 125.815 13.0728 126.016 13.185C126.222 13.2973 126.444 13.3534 126.68 13.3534ZM130.051 14.1774V7.83318H131.008V14.1774H130.051ZM134.157 14.3192C133.714 14.3192 133.318 14.2159 132.97 14.0091C132.621 13.8023 132.346 13.5188 132.146 13.1585C131.951 12.7981 131.853 12.3876 131.853 11.9268C131.853 11.4956 131.948 11.0969 132.137 10.7306C132.326 10.3644 132.589 10.072 132.925 9.85342C133.268 9.62893 133.661 9.51671 134.104 9.51671C134.57 9.51671 134.966 9.61715 135.291 9.81798C135.622 10.0188 135.873 10.2935 136.044 10.642C136.215 10.9906 136.301 11.3834 136.301 11.8205C136.301 11.8855 136.298 11.9445 136.293 11.9977C136.293 12.0509 136.289 12.0922 136.284 12.1218H132.793C132.84 12.5707 132.996 12.9074 133.262 13.1319C133.534 13.3564 133.841 13.4686 134.184 13.4686C134.491 13.4686 134.745 13.4007 134.946 13.2648C135.146 13.123 135.306 12.9488 135.424 12.742L136.213 13.123C136.018 13.4775 135.752 13.7669 135.415 13.9914C135.079 14.2099 134.659 14.3192 134.157 14.3192ZM134.113 10.3319C133.794 10.3319 133.522 10.4294 133.298 10.6243C133.073 10.8192 132.922 11.0792 132.846 11.404H135.353C135.341 11.2504 135.291 11.091 135.203 10.9256C135.114 10.7602 134.978 10.6213 134.795 10.5091C134.618 10.391 134.39 10.3319 134.113 10.3319ZM140.196 14.1774L138.495 7.83318H139.576L140.586 11.9534L140.692 12.5028H140.746L140.878 11.9534L142.154 7.83318H143.129L144.352 11.9534L144.485 12.4939H144.538L144.644 11.9534L145.654 7.83318H146.726L145.052 14.1774H144.024L142.81 9.96861L142.668 9.37494H142.615L142.464 9.96861L141.197 14.1774H140.196ZM148.506 14.3192C148.181 14.3192 147.892 14.2572 147.637 14.1331C147.384 14.0032 147.185 13.823 147.044 13.5926C146.902 13.3623 146.831 13.0994 146.831 12.804C146.831 12.4851 146.914 12.2133 147.079 11.9889C147.251 11.7585 147.478 11.5842 147.761 11.4661C148.045 11.3479 148.358 11.2889 148.701 11.2889C148.984 11.2889 149.232 11.3154 149.445 11.3686C149.664 11.4218 149.829 11.4779 149.941 11.537V11.2977C149.941 11.0023 149.835 10.7661 149.622 10.5889C149.41 10.4116 149.135 10.323 148.798 10.323C148.568 10.323 148.349 10.3762 148.142 10.4825C147.936 10.583 147.77 10.7218 147.646 10.899L146.991 10.3939C147.185 10.1222 147.442 9.90955 147.761 9.75595C148.087 9.59646 148.441 9.51671 148.825 9.51671C149.48 9.51671 149.985 9.67917 150.34 10.0041C150.694 10.323 150.872 10.772 150.872 11.3509V14.1774H149.941V13.6192H149.888C149.77 13.8023 149.593 13.9648 149.356 14.1066C149.12 14.2483 148.837 14.3192 148.506 14.3192ZM148.674 13.5395C148.922 13.5395 149.141 13.4804 149.33 13.3623C149.519 13.2441 149.666 13.0905 149.773 12.9015C149.885 12.7066 149.941 12.4969 149.941 12.2724C149.806 12.1956 149.646 12.1336 149.463 12.0863C149.28 12.0332 149.085 12.0066 148.878 12.0066C148.488 12.0066 148.211 12.0863 148.045 12.2458C147.88 12.3994 147.797 12.5884 147.797 12.8129C147.797 13.0256 147.877 13.1998 148.036 13.3357C148.196 13.4716 148.408 13.5395 148.674 13.5395ZM151.934 14.1774V7.83318H152.891V14.1774H151.934ZM154.028 14.1774V7.83318H154.985V14.1774H154.028ZM158.135 14.3192C157.692 14.3192 157.296 14.2159 156.947 14.0091C156.599 13.8023 156.324 13.5188 156.123 13.1585C155.928 12.7981 155.831 12.3876 155.831 11.9268C155.831 11.4956 155.925 11.0969 156.114 10.7306C156.303 10.3644 156.566 10.072 156.903 9.85342C157.245 9.62893 157.638 9.51671 158.081 9.51671C158.548 9.51671 158.944 9.61715 159.269 9.81798C159.599 10.0188 159.851 10.2935 160.022 10.642C160.193 10.9906 160.279 11.3834 160.279 11.8205C160.279 11.8855 160.276 11.9445 160.27 11.9977C160.27 12.0509 160.267 12.0922 160.261 12.1218H156.77C156.817 12.5707 156.974 12.9074 157.24 13.1319C157.511 13.3564 157.818 13.4686 158.161 13.4686C158.468 13.4686 158.722 13.4007 158.923 13.2648C159.124 13.123 159.283 12.9488 159.402 12.742L160.19 13.123C159.995 13.4775 159.73 13.7669 159.393 13.9914C159.056 14.2099 158.637 14.3192 158.135 14.3192ZM158.09 10.3319C157.771 10.3319 157.499 10.4294 157.275 10.6243C157.051 10.8192 156.9 11.0792 156.823 11.404H159.331C159.319 11.2504 159.269 11.091 159.18 10.9256C159.092 10.7602 158.956 10.6213 158.773 10.5091C158.595 10.391 158.368 10.3319 158.09 10.3319ZM161.515 12.8661V10.4914H160.727V9.65848H161.515V8.38254H162.472V9.65848H163.58V10.4914H162.472V12.6623C162.472 12.8868 162.517 13.058 162.605 13.1762C162.7 13.2943 162.856 13.3534 163.075 13.3534C163.187 13.3534 163.281 13.3386 163.358 13.3091C163.441 13.2795 163.524 13.2382 163.607 13.185V14.1154C163.506 14.1568 163.4 14.1893 163.288 14.2129C163.175 14.2365 163.042 14.2483 162.889 14.2483C162.469 14.2483 162.136 14.1273 161.888 13.885C161.64 13.6369 161.515 13.2973 161.515 12.8661Z" fill="white"/>
<path d="M162.595 0.22168H11.077C5.08233 0.22168 0.222656 5.08135 0.222656 11.0761C0.222656 17.0708 5.08233 21.9304 11.077 21.9304H162.595C168.59 21.9304 173.45 17.0708 173.45 11.0761C173.45 5.08135 168.59 0.22168 162.595 0.22168Z" stroke="#747775"/>
</g>
<defs>
<linearGradient id="paint0_linear_568_285" x1="15.3168" y1="13.6391" x2="8.2994" y2="21.67" gradientUnits="userSpaceOnUse">
<stop stop-color="#4285F4"/>
<stop offset="1" stop-color="#1B74E8"/>
</linearGradient>
<clipPath id="clip0_568_285">
<rect width="173.67" height="22.1518" fill="white"/>
</clipPath>
</defs>
</svg>
