<svg width="174" height="30" viewBox="0 0 174 30" fill="none" xmlns="http://www.w3.org/2000/svg">
<g clip-path="url(#clip0_568_484)">
<path d="M158.8 0.297852H14.8685C6.82081 0.297852 0.296875 6.82179 0.296875 14.8695C0.296875 22.9172 6.82081 29.4411 14.8685 29.4411H158.8C166.848 29.4411 173.372 22.9172 173.372 14.8695C173.372 6.82179 166.848 0.297852 158.8 0.297852Z" fill="#1F1F1F"/>
<path d="M30.3311 13.0843H12.4883V10.1105C12.4883 8.49616 13.7978 7.13672 15.3529 7.13672H27.4664C29.0215 7.13672 30.3311 8.49616 30.3311 10.1105V13.0843Z" fill="#34A853"/>
<path d="M30.3311 15.4955H12.4883V12.5217C12.4883 10.9073 13.7978 9.54785 15.3529 9.54785H27.4664C29.0215 9.54785 30.3311 10.9073 30.3311 12.5217V15.4955Z" fill="#FBBC04"/>
<path d="M30.3311 17.9896H12.4883V15.0158C12.4883 13.4014 13.7978 12.042 15.3529 12.042H27.4664C29.0215 12.042 30.3311 13.4014 30.3311 15.0158V17.9896Z" fill="#EA4335"/>
<path d="M12.4883 13.8434L23.8132 16.4625C25.1168 16.7899 26.5833 16.4625 27.6425 15.6441L30.3311 13.6797V19.8183C30.3311 21.3734 29.0275 22.6011 27.4795 22.6011H15.3399C13.7919 22.6011 12.4883 21.3734 12.4883 19.8183V13.8434Z" fill="url(#paint0_linear_568_484)"/>
<path d="M38.4336 19.0321V10.5152H41.6215C42.0814 10.5152 42.5018 10.6143 42.8824 10.8125C43.271 11.0108 43.5763 11.2804 43.7983 11.6214C44.0283 11.9624 44.1433 12.347 44.1433 12.7753C44.1433 13.2114 44.0323 13.5841 43.8102 13.8934C43.5961 14.2027 43.3225 14.4366 42.9895 14.5952V14.6547C43.4177 14.8053 43.7666 15.0551 44.0362 15.4041C44.3058 15.7451 44.4407 16.1575 44.4407 16.6412C44.4407 17.117 44.3177 17.5373 44.0719 17.9021C43.834 18.2589 43.5089 18.5365 43.0965 18.7348C42.6921 18.933 42.248 19.0321 41.7643 19.0321H38.4336ZM41.6096 11.7166H39.7421V14.0956H41.562C41.9744 14.0956 42.2955 13.9727 42.5255 13.7269C42.7555 13.4731 42.8705 13.1956 42.8705 12.8942C42.8705 12.6008 42.7595 12.3311 42.5374 12.0853C42.3154 11.8395 42.0061 11.7166 41.6096 11.7166ZM39.7421 17.8188H41.7643C42.1925 17.8188 42.5255 17.692 42.7634 17.4382C43.0093 17.1765 43.1322 16.8791 43.1322 16.546C43.1322 16.213 43.0093 15.9156 42.7634 15.6539C42.5176 15.3922 42.1687 15.2614 41.7167 15.2614H39.7421V17.8188ZM47.6283 19.2225C47.1684 19.2225 46.7639 19.1392 46.415 18.9727C46.074 18.7982 45.8044 18.5563 45.6061 18.247C45.4158 17.9378 45.3206 17.5849 45.3206 17.1884C45.3206 16.7601 45.4317 16.3954 45.6537 16.094C45.8837 15.7847 46.189 15.5508 46.5696 15.3922C46.9503 15.2336 47.3706 15.1543 47.8305 15.1543C48.2112 15.1543 48.5403 15.19 48.8178 15.2614C49.1033 15.3327 49.3254 15.412 49.4839 15.4993V15.2019C49.4839 14.7895 49.3492 14.4644 49.0795 14.2265C48.8178 13.9807 48.461 13.8577 48.0089 13.8577C47.6997 13.8577 47.434 13.9291 47.212 14.0718C46.9899 14.2146 46.8234 14.4009 46.7124 14.6309L45.7013 14.1551C45.9075 13.711 46.2207 13.37 46.641 13.1321C47.0613 12.8942 47.5212 12.7753 48.0208 12.7753C48.568 12.7753 49.028 12.8704 49.4007 13.0607C49.7813 13.2432 50.0827 13.5048 50.3047 13.8458C50.5506 13.5128 50.8559 13.255 51.2206 13.0726C51.5934 12.8823 52.0097 12.7872 52.4696 12.7872C53.0962 12.7872 53.6275 12.922 54.0636 13.1916C54.5077 13.4612 54.8448 13.8299 55.0747 14.2978C55.3047 14.7578 55.4196 15.2812 55.4196 15.868C55.4196 15.9553 55.4157 16.0345 55.4078 16.1059C55.4078 16.1773 55.4038 16.2328 55.3959 16.2724H50.721C50.7686 16.7166 50.8836 17.0694 51.066 17.3311C51.2563 17.5928 51.4863 17.7831 51.7559 17.9021C52.0256 18.021 52.3031 18.0805 52.5886 18.0805C52.993 18.0805 53.3301 17.9893 53.5997 17.8069C53.8693 17.6166 54.0835 17.3827 54.242 17.1051L55.3007 17.6166C55.039 18.0924 54.6821 18.481 54.2301 18.7823C53.7781 19.0757 53.219 19.2225 52.5529 19.2225C51.9819 19.2225 51.4823 19.0916 51.0541 18.8299C50.6259 18.5682 50.2889 18.2312 50.043 17.8188C49.7179 18.3105 49.3571 18.6674 48.9606 18.8894C48.572 19.1114 48.1279 19.2225 47.6283 19.2225ZM52.4815 13.8815C52.1089 13.8815 51.7559 13.9926 51.4229 14.2146C51.0898 14.4366 50.8678 14.8014 50.7567 15.3089H54.135C54.1191 15.1027 54.0517 14.8886 53.9327 14.6666C53.8218 14.4446 53.6433 14.2582 53.3975 14.1075C53.1596 13.9569 52.8543 13.8815 52.4815 13.8815ZM47.7948 18.1757C48.1279 18.1757 48.4213 18.0964 48.6751 17.9378C48.9289 17.7792 49.1271 17.573 49.2698 17.3192C49.4126 17.0575 49.4839 16.776 49.4839 16.4747C49.0716 16.2368 48.5998 16.1178 48.0684 16.1178C47.545 16.1178 47.1723 16.2249 46.9503 16.439C46.7282 16.6452 46.6172 16.8989 46.6172 17.2003C46.6172 17.4858 46.7243 17.7197 46.9384 17.9021C47.1525 18.0845 47.438 18.1757 47.7948 18.1757ZM57.0764 17.2716V14.0837H56.0177V12.9656H57.0764V11.2527H58.361V12.9656H59.8479V14.0837H58.361V16.9981C58.361 17.2994 58.4205 17.5294 58.5395 17.688C58.6663 17.8466 58.8765 17.9259 59.1699 17.9259C59.3206 17.9259 59.4475 17.9061 59.5506 17.8664C59.6618 17.8267 59.7724 17.7712 59.8836 17.6999V18.9489C59.7486 19.0044 59.6059 19.048 59.4554 19.0797C59.3047 19.1114 59.1263 19.1273 58.9201 19.1273C58.3571 19.1273 57.909 18.9647 57.576 18.6396C57.2429 18.3065 57.0764 17.8505 57.0764 17.2716ZM62.8675 19.2225C62.4316 19.2225 62.0432 19.1392 61.7018 18.9727C61.361 18.7982 61.0951 18.5563 60.9048 18.247C60.7145 17.9378 60.6193 17.5849 60.6193 17.1884C60.6193 16.7601 60.7306 16.3954 60.9524 16.094C61.1826 15.7847 61.4877 15.5508 61.8683 15.3922C62.249 15.2336 62.6695 15.1543 63.1292 15.1543C63.5099 15.1543 63.8429 15.19 64.1284 15.2614C64.4222 15.3327 64.6441 15.4081 64.7946 15.4874V15.1662C64.7946 14.7697 64.6518 14.4525 64.3663 14.2146C64.0808 13.9767 63.7121 13.8577 63.2601 13.8577C62.9508 13.8577 62.6576 13.9291 62.3798 14.0718C62.1027 14.2067 61.8802 14.393 61.7137 14.6309L60.8335 13.9529C61.0951 13.5881 61.4401 13.3026 61.8683 13.0964C62.3049 12.8823 62.7807 12.7753 63.2958 12.7753C64.176 12.7753 64.854 12.9934 65.3298 13.4295C65.8057 13.8577 66.0436 14.4604 66.0436 15.2376V19.0321H64.7946V18.2827H64.7232C64.565 18.5285 64.3271 18.7466 64.0095 18.937C63.6925 19.1273 63.3118 19.2225 62.8675 19.2225ZM63.0935 18.1757C63.4266 18.1757 63.7204 18.0964 63.9738 17.9378C64.2277 17.7792 64.4258 17.573 64.5685 17.3192C64.7196 17.0575 64.7946 16.776 64.7946 16.4747C64.6126 16.3716 64.3984 16.2883 64.1522 16.2249C63.9066 16.1535 63.6449 16.1178 63.3671 16.1178C62.8437 16.1178 62.4714 16.2249 62.249 16.439C62.0271 16.6452 61.9159 16.8989 61.9159 17.2003C61.9159 17.4858 62.023 17.7197 62.2371 17.9021C62.4512 18.0845 62.7367 18.1757 63.0935 18.1757ZM72.078 19.0321L69.5681 12.9656H70.9955L72.6965 17.3787H72.756L74.4927 12.9656H75.8964L73.3627 19.0321H72.078ZM77.4653 12.0734C77.2274 12.0734 77.021 11.9902 76.8468 11.8236C76.6802 11.6492 76.597 11.443 76.597 11.2051C76.597 10.9672 76.6802 10.765 76.8468 10.5984C77.021 10.4319 77.2274 10.3486 77.4653 10.3486C77.7032 10.3486 77.9055 10.4319 78.072 10.5984C78.2463 10.765 78.3337 10.9672 78.3337 11.2051C78.3337 11.443 78.2463 11.6492 78.072 11.8236C77.9055 11.9902 77.7032 12.0734 77.4653 12.0734ZM76.823 19.0321V12.9656H78.1077V19.0321H76.823ZM82.4494 19.2225C81.9022 19.2225 81.4068 19.0876 80.9625 18.818C80.5182 18.5404 80.1614 18.1717 79.892 17.7118C79.6303 17.2518 79.4994 16.7443 79.4994 16.1892C79.4994 15.6103 79.6344 15.0948 79.9038 14.6428C80.1733 14.1908 80.5224 13.8379 80.9506 13.5841C81.3789 13.3224 81.8386 13.1916 82.3305 13.1916C82.6796 13.1916 82.9805 13.255 83.2345 13.3819C83.4885 13.5009 83.6788 13.6238 83.8055 13.7507L83.8768 13.7031C83.7894 13.4573 83.6467 13.2233 83.4486 13.0013C83.2583 12.7713 83.0323 12.5611 82.7706 12.3708L81.3313 13.0132L80.9744 12.1686L81.8309 11.788C81.4026 11.5738 80.994 11.4311 80.6057 11.3597L81.0101 10.3486C81.367 10.4279 81.7196 10.5429 82.0688 10.6936C82.4256 10.8363 82.7629 11.0187 83.0799 11.2408L84.2813 10.7055L84.6381 11.5382L83.8768 11.8831C84.3449 12.343 84.7256 12.9101 85.0188 13.5841C85.312 14.2582 85.4589 15.0472 85.4589 15.9513C85.4589 16.6095 85.3281 17.1844 85.0664 17.6761C84.8124 18.1598 84.4597 18.5404 84.0077 18.818C83.5557 19.0876 83.0365 19.2225 82.4494 19.2225ZM82.4613 18.0448C82.7866 18.0448 83.0757 17.9695 83.3297 17.8188C83.5836 17.6602 83.7859 17.4422 83.9363 17.1646C84.0951 16.887 84.1742 16.5619 84.1742 16.1892C84.1742 15.8323 84.0951 15.5151 83.9363 15.2376C83.7859 14.96 83.5836 14.7419 83.3297 14.5833C83.0757 14.4247 82.7902 14.3454 82.4732 14.3454C82.1562 14.3454 81.8666 14.4247 81.6049 14.5833C81.3509 14.734 81.1451 14.9481 80.9863 15.2257C80.8358 15.5032 80.7603 15.8244 80.7603 16.1892C80.7603 16.5619 80.8358 16.887 80.9863 17.1646C81.1451 17.4422 81.3509 17.6602 81.6049 17.8188C81.8666 17.9695 82.152 18.0448 82.4613 18.0448Z" fill="white"/>
<path d="M94.2107 19.2228C93.5999 19.2228 93.0253 19.1118 92.4859 18.8897C91.9548 18.6677 91.4825 18.3584 91.0704 17.9619C90.6582 17.5575 90.3329 17.0857 90.095 16.5464C89.8648 15.9992 89.75 15.4084 89.75 14.774C89.75 14.1396 89.8648 13.5528 90.095 13.0135C90.3329 12.4663 90.654 11.9945 91.0585 11.598C91.4706 11.1935 91.9465 10.8803 92.4859 10.6583C93.0253 10.4362 93.5999 10.3252 94.2107 10.3252C94.8608 10.3252 95.4597 10.4402 96.0069 10.6702C96.5618 10.9002 97.0257 11.2213 97.3986 11.6337L96.4946 12.5258C96.2168 12.2165 95.8838 11.9786 95.4954 11.8121C95.1147 11.6456 94.6865 11.5623 94.2107 11.5623C93.6475 11.5623 93.1282 11.6971 92.6524 11.9667C92.1766 12.2284 91.7918 12.6012 91.4986 13.0849C91.2131 13.5607 91.0704 14.1238 91.0704 14.774C91.0704 15.4243 91.2173 15.9913 91.5105 16.475C91.8037 16.9508 92.1885 17.3236 92.6643 17.5932C93.1401 17.8549 93.6594 17.9857 94.2226 17.9857C94.7383 17.9857 95.2057 17.8905 95.6262 17.7002C96.0467 17.502 96.3834 17.2244 96.6373 16.8676C96.899 16.5107 97.0578 16.0825 97.1131 15.5829H94.1988V14.429H98.3383C98.3859 14.6432 98.4097 14.8692 98.4097 15.1071V15.119C98.4097 15.9437 98.2271 16.6653 97.8625 17.2839C97.5057 17.8945 97.0102 18.3703 96.3756 18.7113C95.741 19.0523 95.0196 19.2228 94.2107 19.2228ZM102.24 19.2228C101.614 19.2228 101.062 19.0801 100.587 18.7946C100.111 18.5091 99.7378 18.1245 99.4684 17.6407C99.199 17.157 99.0639 16.6098 99.0639 15.9992C99.0639 15.3965 99.199 14.8533 99.4684 14.3696C99.7378 13.8779 100.111 13.4893 100.587 13.2038C101.062 12.9184 101.614 12.7756 102.24 12.7756C102.859 12.7756 103.406 12.9184 103.882 13.2038C104.357 13.4893 104.73 13.8779 105 14.3696C105.269 14.8533 105.404 15.3965 105.404 15.9992C105.404 16.6098 105.269 17.157 105 17.6407C104.73 18.1245 104.357 18.5091 103.882 18.7946C103.406 19.0801 102.859 19.2228 102.24 19.2228ZM102.24 18.0452C102.573 18.0452 102.882 17.9659 103.168 17.8073C103.453 17.6407 103.683 17.4068 103.858 17.1055C104.04 16.7962 104.131 16.4274 104.131 15.9992C104.131 15.571 104.04 15.2062 103.858 14.9048C103.683 14.5956 103.453 14.3617 103.168 14.203C102.882 14.0365 102.573 13.9532 102.24 13.9532C101.907 13.9532 101.593 14.0365 101.3 14.203C101.015 14.3617 100.781 14.5956 100.598 14.9048C100.424 15.2062 100.337 15.571 100.337 15.9992C100.337 16.4274 100.424 16.7962 100.598 17.1055C100.781 17.4068 101.015 17.6407 101.3 17.8073C101.593 17.9659 101.907 18.0452 102.24 18.0452ZM109.442 19.2228C108.816 19.2228 108.264 19.0801 107.788 18.7946C107.313 18.5091 106.94 18.1245 106.67 17.6407C106.401 17.157 106.266 16.6098 106.266 15.9992C106.266 15.3965 106.401 14.8533 106.67 14.3696C106.94 13.8779 107.313 13.4893 107.788 13.2038C108.264 12.9184 108.816 12.7756 109.442 12.7756C110.06 12.7756 110.608 12.9184 111.083 13.2038C111.559 13.4893 111.932 13.8779 112.202 14.3696C112.472 14.8533 112.606 15.3965 112.606 15.9992C112.606 16.6098 112.472 17.157 112.202 17.6407C111.932 18.1245 111.559 18.5091 111.083 18.7946C110.608 19.0801 110.06 19.2228 109.442 19.2228ZM109.442 18.0452C109.775 18.0452 110.084 17.9659 110.37 17.8073C110.655 17.6407 110.885 17.4068 111.06 17.1055C111.242 16.7962 111.333 16.4274 111.333 15.9992C111.333 15.571 111.242 15.2062 111.06 14.9048C110.885 14.5956 110.655 14.3617 110.37 14.203C110.084 14.0365 109.775 13.9532 109.442 13.9532C109.109 13.9532 108.796 14.0365 108.502 14.203C108.217 14.3617 107.983 14.5956 107.8 14.9048C107.626 15.2062 107.539 15.571 107.539 15.9992C107.539 16.4274 107.626 16.7962 107.8 17.1055C107.983 17.4068 108.217 17.6407 108.502 17.8073C108.796 17.9659 109.109 18.0452 109.442 18.0452ZM116.526 21.7922C115.994 21.7922 115.534 21.7049 115.146 21.5305C114.765 21.3639 114.456 21.1458 114.218 20.8762C113.98 20.6145 113.809 20.3449 113.706 20.0674L114.896 19.5678C115.023 19.885 115.225 20.1427 115.503 20.341C115.788 20.5472 116.129 20.6502 116.526 20.6502C117.08 20.6502 117.516 20.4837 117.834 20.1506C118.159 19.8176 118.322 19.3457 118.322 18.7351V18.1522H118.25C118.06 18.4377 117.794 18.6677 117.453 18.8422C117.12 19.0087 116.74 19.092 116.311 19.092C115.796 19.092 115.324 18.9611 114.896 18.6994C114.468 18.4377 114.123 18.073 113.861 17.6051C113.599 17.1293 113.468 16.5742 113.468 15.9397C113.468 15.2974 113.599 14.7423 113.861 14.2744C114.123 13.7986 114.468 13.4298 114.896 13.1681C115.324 12.9065 115.796 12.7756 116.311 12.7756C116.74 12.7756 117.12 12.8629 117.453 13.0373C117.794 13.2117 118.06 13.4417 118.25 13.7272H118.322V12.9659H119.547V18.7113C119.547 19.3695 119.416 19.9286 119.154 20.3885C118.9 20.8485 118.548 21.1974 118.096 21.4353C117.644 21.6732 117.12 21.7922 116.526 21.7922ZM116.537 17.9262C116.854 17.9262 117.148 17.8509 117.418 17.7002C117.687 17.5416 117.905 17.3156 118.072 17.0222C118.238 16.7208 118.322 16.36 118.322 15.9397C118.322 15.5036 118.238 15.1388 118.072 14.8454C117.905 14.544 117.687 14.318 117.418 14.1673C117.148 14.0167 116.854 13.9413 116.537 13.9413C116.22 13.9413 115.922 14.0206 115.645 14.1792C115.375 14.3299 115.158 14.552 114.991 14.8454C114.825 15.1388 114.741 15.5036 114.741 15.9397C114.741 16.368 114.825 16.7327 114.991 17.0341C115.158 17.3275 115.375 17.5496 115.645 17.7002C115.922 17.8509 116.22 17.9262 116.537 17.9262ZM121.062 19.0325V10.5155H122.346V19.0325H121.062ZM126.575 19.2228C125.98 19.2228 125.448 19.0841 124.981 18.8065C124.513 18.5289 124.144 18.1483 123.874 17.6645C123.613 17.1808 123.482 16.6297 123.482 16.0111C123.482 15.4322 123.609 14.8969 123.862 14.4053C124.116 13.9136 124.469 13.521 124.921 13.2276C125.381 12.9263 125.908 12.7756 126.503 12.7756C127.13 12.7756 127.661 12.9104 128.097 13.18C128.541 13.4496 128.878 13.8184 129.108 14.2863C129.338 14.7542 129.453 15.2815 129.453 15.8684C129.453 15.9556 129.449 16.0349 129.441 16.1063C129.441 16.1776 129.437 16.2331 129.429 16.2728H124.743C124.806 16.8755 125.016 17.3275 125.373 17.6289C125.738 17.9302 126.15 18.0809 126.61 18.0809C127.022 18.0809 127.363 17.9897 127.633 17.8073C127.903 17.617 128.117 17.383 128.276 17.1055L129.334 17.617C129.073 18.0928 128.716 18.4813 128.264 18.7827C127.812 19.0761 127.248 19.2228 126.575 19.2228ZM126.515 13.87C126.087 13.87 125.722 14.0008 125.421 14.2625C125.119 14.5242 124.917 14.8731 124.814 15.3093H128.18C128.164 15.1031 128.097 14.889 127.978 14.6669C127.859 14.4449 127.677 14.2585 127.431 14.1079C127.193 13.9492 126.887 13.87 126.515 13.87ZM135.265 19.0325L132.755 12.9659H134.182L135.883 17.3791H135.943L137.679 12.9659H139.083L136.549 19.0325H135.265ZM142.512 19.2228C141.917 19.2228 141.386 19.0841 140.918 18.8065C140.45 18.5289 140.082 18.1483 139.812 17.6645C139.55 17.1808 139.419 16.6297 139.419 16.0111C139.419 15.4322 139.546 14.8969 139.8 14.4053C140.054 13.9136 140.406 13.521 140.858 13.2276C141.319 12.9263 141.846 12.7756 142.44 12.7756C143.067 12.7756 143.598 12.9104 144.034 13.18C144.479 13.4496 144.816 13.8184 145.045 14.2863C145.276 14.7542 145.39 15.2815 145.39 15.8684C145.39 15.9556 145.387 16.0349 145.379 16.1063C145.379 16.1776 145.375 16.2331 145.367 16.2728H140.68C140.744 16.8755 140.954 17.3275 141.31 17.6289C141.676 17.9302 142.088 18.0809 142.547 18.0809C142.96 18.0809 143.301 17.9897 143.57 17.8073C143.84 17.617 144.055 17.383 144.213 17.1055L145.271 17.617C145.01 18.0928 144.653 18.4813 144.201 18.7827C143.749 19.0761 143.186 19.2228 142.512 19.2228ZM142.452 13.87C142.024 13.87 141.659 14.0008 141.358 14.2625C141.057 14.5242 140.855 14.8731 140.751 15.3093H144.118C144.102 15.1031 144.034 14.889 143.915 14.6669C143.796 14.4449 143.614 14.2585 143.368 14.1079C143.13 13.9492 142.825 13.87 142.452 13.87ZM148.853 19.2228C148.123 19.2228 147.54 19.0642 147.105 18.747C146.669 18.4218 146.367 18.0373 146.2 17.5932L147.354 17.0936C147.497 17.4187 147.703 17.6685 147.973 17.843C148.242 18.0095 148.548 18.0928 148.889 18.0928C149.206 18.0928 149.479 18.0373 149.71 17.9262C149.94 17.8073 150.055 17.617 150.055 17.3553C150.055 17.1015 149.94 16.9151 149.71 16.7962C149.479 16.6772 149.194 16.5742 148.853 16.4869L148.128 16.3204C147.834 16.249 147.561 16.138 147.307 15.9873C147.053 15.8367 146.847 15.6424 146.688 15.4044C146.529 15.1586 146.45 14.8731 146.45 14.548C146.45 14.1911 146.557 13.8819 146.771 13.6202C146.986 13.3506 147.267 13.1444 147.616 13.0016C147.973 12.851 148.358 12.7756 148.77 12.7756C149.333 12.7756 149.824 12.8866 150.245 13.1087C150.673 13.3228 150.987 13.6479 151.185 14.0841L150.078 14.5837C149.936 14.3141 149.749 14.1277 149.519 14.0246C149.297 13.9136 149.051 13.8581 148.782 13.8581C148.48 13.8581 148.227 13.9215 148.02 14.0484C147.822 14.1753 147.723 14.3339 147.723 14.5242C147.723 14.7304 147.811 14.893 147.985 15.0119C148.167 15.1309 148.389 15.226 148.651 15.2974L149.531 15.5115C150.134 15.6622 150.586 15.8922 150.887 16.2014C151.189 16.5028 151.339 16.8715 151.339 17.3077C151.339 17.6962 151.228 18.0373 151.006 18.3307C150.784 18.6162 150.483 18.8382 150.102 18.9968C149.729 19.1475 149.313 19.2228 148.853 19.2228ZM152.46 19.0325V10.5155H153.745V15.5353L156.314 12.9659H157.908V13.0373L155.565 15.3569L157.992 18.9611V19.0325H156.469L154.661 16.249L153.745 17.153V19.0325H152.46ZM159.529 12.0738C159.291 12.0738 159.085 11.9905 158.911 11.824C158.744 11.6495 158.661 11.4433 158.661 11.2054C158.661 10.9675 158.744 10.7653 158.911 10.5988C159.085 10.4323 159.291 10.349 159.529 10.349C159.767 10.349 159.969 10.4323 160.136 10.5988C160.31 10.7653 160.397 10.9675 160.397 11.2054C160.397 11.4433 160.31 11.6495 160.136 11.824C159.969 11.9905 159.767 12.0738 159.529 12.0738ZM158.887 19.0325V12.9659H160.171V19.0325H158.887Z" fill="white"/>
<path d="M158.8 0.297852H14.8685C6.82081 0.297852 0.296875 6.82179 0.296875 14.8695C0.296875 22.9172 6.82081 29.4411 14.8685 29.4411H158.8C166.848 29.4411 173.372 22.9172 173.372 14.8695C173.372 6.82179 166.848 0.297852 158.8 0.297852Z" stroke="#747775"/>
</g>
<defs>
<linearGradient id="paint0_linear_568_484" x1="20.5594" y1="18.3107" x2="11.1387" y2="29.0919" gradientUnits="userSpaceOnUse">
<stop stop-color="#4285F4"/>
<stop offset="1" stop-color="#1B74E8"/>
</linearGradient>
<clipPath id="clip0_568_484">
<rect width="173.67" height="29.738" fill="white"/>
</clipPath>
</defs>
</svg>
