<svg width="174" height="25" viewBox="0 0 174 25" fill="none" xmlns="http://www.w3.org/2000/svg">
<g clip-path="url(#clip0_568_105)">
<path d="M161.441 0.244141H12.2318C5.61226 0.244141 0.246094 5.61031 0.246094 12.2298C0.246094 18.8493 5.61226 24.2155 12.2318 24.2155H161.441C168.061 24.2155 173.427 18.8493 173.427 12.2298C173.427 5.61031 168.061 0.244141 161.441 0.244141Z" fill="#1F1F1F"/>
<path d="M24.9498 10.7622H10.2734V8.31617C10.2734 6.98831 11.3506 5.87012 12.6297 5.87012H22.5935C23.8726 5.87012 24.9498 6.98831 24.9498 8.31617V10.7622Z" fill="#34A853"/>
<path d="M24.9498 12.7456H10.2734V10.2996C10.2734 8.97171 11.3506 7.85352 12.6297 7.85352H22.5935C23.8726 7.85352 24.9498 8.97171 24.9498 10.2996V12.7456Z" fill="#FBBC04"/>
<path d="M24.9498 14.7974H10.2734V12.3513C10.2734 11.0235 11.3506 9.90527 12.6297 9.90527H22.5935C23.8726 9.90527 24.9498 11.0235 24.9498 12.3513V14.7974Z" fill="#EA4335"/>
<path d="M10.2734 11.3866L19.5886 13.5409C20.6608 13.8102 21.8671 13.5409 22.7383 12.8677L24.9498 11.252V16.3012C24.9498 17.5803 23.8775 18.5901 22.6043 18.5901H12.619C11.3457 18.5901 10.2734 17.5803 10.2734 16.3012V11.3866Z" fill="url(#paint0_linear_568_105)"/>
<path d="M31.1836 17.1421V14.6374H31.8C31.95 14.3895 32.0707 14.0699 32.162 13.6785C32.2599 13.2806 32.3283 12.8436 32.3675 12.3674C32.4131 11.8913 32.436 11.4118 32.436 10.9291V8.64941H36.9269V14.6374H37.7488V17.1421H36.7019V15.6549H32.2305V17.1421H31.1836ZM32.9741 14.6374H35.8507V9.66697H33.4829V11.0857C33.4829 11.7967 33.4372 12.4522 33.3459 13.0523C33.2611 13.6524 33.1372 14.1612 32.9741 14.5787V14.6374ZM40.9715 15.8115C40.4562 15.8115 40.0028 15.6941 39.6115 15.4592C39.2201 15.2244 38.9135 14.908 38.6918 14.5102C38.47 14.1123 38.3591 13.6622 38.3591 13.1599C38.3591 12.6642 38.47 12.2174 38.6918 11.8195C38.9135 11.4151 39.2201 11.0955 39.6115 10.8606C40.0028 10.6258 40.4562 10.5084 40.9715 10.5084C41.4803 10.5084 41.9303 10.6258 42.3217 10.8606C42.7131 11.0955 43.0197 11.4151 43.2414 11.8195C43.4632 12.2174 43.5741 12.6642 43.5741 13.1599C43.5741 13.6622 43.4632 14.1123 43.2414 14.5102C43.0197 14.908 42.7131 15.2244 42.3217 15.4592C41.9303 15.6941 41.4803 15.8115 40.9715 15.8115ZM40.9715 14.8428C41.2454 14.8428 41.4998 14.7776 41.7347 14.6471C41.9695 14.5102 42.1587 14.3178 42.3021 14.0699C42.4522 13.8155 42.5272 13.5122 42.5272 13.1599C42.5272 12.8077 42.4522 12.5077 42.3021 12.2598C42.1587 12.0054 41.9695 11.813 41.7347 11.6825C41.4998 11.5455 41.2454 11.4771 40.9715 11.4771C40.6975 11.4771 40.4399 11.5455 40.1985 11.6825C39.9637 11.813 39.7713 12.0054 39.6213 12.2598C39.4778 12.5077 39.406 12.8077 39.406 13.1599C39.406 13.5122 39.4778 13.8155 39.6213 14.0699C39.7713 14.3178 39.9637 14.5102 40.1985 14.6471C40.4399 14.7776 40.6975 14.8428 40.9715 14.8428ZM46.9151 15.8115C46.4259 15.8115 45.9921 15.7006 45.6138 15.4788C45.242 15.2505 44.9485 14.908 44.7332 14.4515C44.518 13.9883 44.4103 13.4078 44.4103 12.7099C44.4103 11.9989 44.4821 11.4118 44.6256 10.9487C44.7691 10.4791 45.0072 10.1008 45.3399 9.81374C45.5485 9.63762 45.8062 9.49086 46.1128 9.37345C46.4259 9.25604 46.814 9.16147 47.2771 9.0897C47.5185 9.05057 47.6946 9.01143 47.8055 8.97229C47.9163 8.93316 47.9848 8.88751 48.0109 8.83531C48.0435 8.78312 48.0599 8.72118 48.0599 8.64941H49.0188C49.0188 8.94294 48.9733 9.17776 48.8817 9.35388C48.7969 9.52349 48.6404 9.65391 48.4121 9.74525C48.1903 9.83658 47.874 9.91158 47.463 9.97028C47.0325 10.0355 46.7031 10.1138 46.4748 10.2051C46.253 10.2964 46.0704 10.4008 45.9269 10.5182C45.6073 10.7791 45.4116 11.1509 45.3399 11.6336H45.3986C45.5485 11.4053 45.7704 11.2162 46.0639 11.0661C46.3639 10.9096 46.7096 10.8313 47.101 10.8313C47.5641 10.8313 47.9718 10.9389 48.324 11.1542C48.6763 11.3629 48.9503 11.6499 49.146 12.0152C49.348 12.3805 49.4493 12.7946 49.4493 13.2578C49.4493 13.7405 49.3416 14.1775 49.1264 14.5689C48.9176 14.9537 48.6208 15.257 48.236 15.4788C47.8576 15.7006 47.4173 15.8115 46.9151 15.8115ZM46.9249 14.8624C47.3423 14.8624 47.6913 14.7189 47.9718 14.4319C48.2523 14.1449 48.3925 13.747 48.3925 13.2382C48.3925 12.7751 48.2523 12.4131 47.9718 12.1522C47.6913 11.8913 47.3423 11.7608 46.9249 11.7608C46.5205 11.7608 46.1747 11.8913 45.8878 12.1522C45.6073 12.4131 45.467 12.7751 45.467 13.2382C45.467 13.747 45.604 14.1449 45.878 14.4319C46.1584 14.7189 46.5074 14.8624 46.9249 14.8624ZM51.9795 15.8115C51.6209 15.8115 51.3009 15.743 51.0206 15.606C50.7403 15.4625 50.5216 15.2635 50.3651 15.0092C50.2085 14.7548 50.1303 14.4645 50.1303 14.1384C50.1303 13.7861 50.2217 13.4861 50.4042 13.2382C50.5935 12.9838 50.8445 12.7914 51.1576 12.6609C51.4707 12.5305 51.8166 12.4653 52.1947 12.4653C52.5078 12.4653 52.7818 12.4946 53.0166 12.5533C53.2578 12.612 53.4407 12.674 53.5645 12.7392V12.475C53.5645 12.1489 53.4471 11.888 53.2123 11.6923C52.9775 11.4966 52.6742 11.3988 52.3024 11.3988C52.048 11.3988 51.8068 11.4575 51.5783 11.5749C51.3499 11.6858 51.1674 11.8391 51.0304 12.0348L50.3064 11.4771C50.5216 11.177 50.8054 10.9422 51.1576 10.7726C51.5162 10.5965 51.9076 10.5084 52.3317 10.5084C53.0557 10.5084 53.6134 10.6878 54.0048 11.0465C54.3962 11.3988 54.5919 11.8945 54.5919 12.5338V15.6549H53.5645V15.0385H53.5058C53.3752 15.2407 53.1795 15.4201 52.9188 15.5766C52.658 15.7332 52.3449 15.8115 51.9795 15.8115ZM52.1654 14.9505C52.4393 14.9505 52.6805 14.8852 52.8894 14.7548C53.0983 14.6243 53.2612 14.4547 53.3786 14.246C53.5024 14.0307 53.5645 13.7992 53.5645 13.5513C53.4143 13.4665 53.2382 13.398 53.0362 13.3458C52.8341 13.2871 52.6189 13.2578 52.3904 13.2578C51.9599 13.2578 51.6532 13.3458 51.4707 13.522C51.2882 13.6916 51.1967 13.9003 51.1967 14.1481C51.1967 14.383 51.2848 14.5754 51.4609 14.7254C51.637 14.8755 51.8718 14.9505 52.1654 14.9505ZM55.7552 15.6549V10.665H58.2306C58.5241 10.665 58.7849 10.7237 59.0134 10.8411C59.2482 10.952 59.4307 11.1053 59.5613 11.3009C59.6983 11.4966 59.7667 11.7152 59.7667 11.9565C59.7667 12.2174 59.708 12.4424 59.5906 12.6316C59.4796 12.8208 59.3328 12.961 59.1503 13.0523V13.111C59.3984 13.2089 59.594 13.3556 59.7374 13.5513C59.8876 13.747 59.9624 13.972 59.9624 14.2264C59.9624 14.5199 59.8841 14.7743 59.7276 14.9896C59.5774 15.2048 59.3817 15.3712 59.1405 15.4886C58.8994 15.5995 58.6416 15.6549 58.3676 15.6549H55.7552ZM56.8119 11.526V12.7001H58.1034C58.2795 12.7001 58.4263 12.6447 58.5437 12.5338C58.6611 12.4228 58.7198 12.2826 58.7198 12.113C58.7198 11.9369 58.6611 11.7967 58.5437 11.6923C58.4263 11.5814 58.2795 11.526 58.1034 11.526H56.8119ZM56.8119 14.7743H58.26C58.4493 14.7743 58.6058 14.7156 58.7296 14.5982C58.8602 14.4743 58.9253 14.3178 58.9253 14.1286C58.9253 13.946 58.8602 13.7926 58.7296 13.6687C58.6058 13.5448 58.4493 13.4828 58.26 13.4828H56.8119V14.7743ZM60.592 15.6549V15.5962L61.9227 13.8644L61.9031 13.8057C61.59 13.6818 61.3356 13.4893 61.14 13.2284C60.9443 12.9675 60.8464 12.6675 60.8464 12.3283C60.8464 12.0087 60.9247 11.7249 61.0812 11.4771C61.2378 11.2292 61.4496 11.0335 61.7172 10.89C61.9912 10.74 62.2979 10.665 62.6369 10.665H64.7797V15.6549H63.723V13.9622H63.0283L61.7759 15.6549H60.592ZM62.7152 13.1208H63.723V11.5455H62.7152C62.4868 11.5455 62.2911 11.6205 62.1282 11.7706C61.9716 11.9206 61.8933 12.1065 61.8933 12.3283C61.8933 12.5566 61.9716 12.7457 62.1282 12.8958C62.2911 13.0458 62.4868 13.1208 62.7152 13.1208ZM66.0174 15.6549V10.665H67.0741V12.6707H69.4419V10.665H70.4986V15.6549H69.4419V13.5904H67.0741V15.6549H66.0174ZM73.9632 15.8115C73.474 15.8115 73.0366 15.6973 72.6521 15.469C72.2671 15.2407 71.9638 14.9276 71.7421 14.5297C71.5269 14.1319 71.4193 13.6785 71.4193 13.1697C71.4193 12.6936 71.5235 12.2533 71.7324 11.8489C71.9408 11.4444 72.2314 11.1215 72.6032 10.8802C72.9813 10.6323 73.4152 10.5084 73.9045 10.5084C74.4196 10.5084 74.8565 10.6193 75.2155 10.8411C75.5805 11.0628 75.8579 11.3662 76.0472 11.751C76.236 12.1359 76.3309 12.5696 76.3309 13.0523C76.3309 13.1241 76.3275 13.1893 76.3212 13.248C76.3212 13.3067 76.3177 13.3523 76.3114 13.385H72.4564C72.5082 13.8807 72.6814 14.2525 72.975 14.5004C73.2748 14.7483 73.6139 14.8722 73.9925 14.8722C74.3315 14.8722 74.6119 14.7972 74.834 14.6471C75.0556 14.4906 75.2317 14.2982 75.3623 14.0699L76.2331 14.4906C76.0178 14.882 75.7243 15.2016 75.3525 15.4494C74.9807 15.6908 74.5174 15.8115 73.9632 15.8115ZM73.9142 11.4086C73.562 11.4086 73.2616 11.5162 73.0141 11.7314C72.7661 11.9467 72.5997 12.2337 72.5151 12.5925H75.284C75.2708 12.4228 75.2155 12.2467 75.1177 12.0641C75.0199 11.8815 74.8697 11.7282 74.6676 11.6042C74.4719 11.4738 74.2205 11.4086 73.9142 11.4086ZM79.595 15.6549V10.665H80.6517V12.8762H80.7104L82.6672 10.665H83.8804V10.7237L81.7964 13.0034L83.9587 15.5962V15.6549H82.7063L80.7104 13.1991H80.6517V15.6549H79.595ZM86.6362 10.665V12.3283H87.6929C88.0324 12.3283 88.3357 12.4 88.6028 12.5435C88.8704 12.687 89.0822 12.886 89.2388 13.1404C89.3953 13.3883 89.4736 13.672 89.4736 13.9916C89.4736 14.3112 89.3953 14.5949 89.2388 14.8428C89.0822 15.0907 88.8704 15.2896 88.6028 15.4397C88.3357 15.5832 88.0324 15.6549 87.6929 15.6549H85.5893V11.5847H84.239V10.665H86.6362ZM86.6362 14.7743H87.6048C87.8396 14.7743 88.0353 14.6993 88.1919 14.5493C88.3484 14.3993 88.4267 14.2134 88.4267 13.9916C88.4267 13.7698 88.3484 13.5839 88.1919 13.4339C88.0353 13.2774 87.8396 13.1991 87.6048 13.1991H86.6362V14.7743ZM90.3537 15.6549V10.665H91.6061L93.1422 13.7176H93.1911L94.737 10.665H95.9601V15.6549H94.9523V13.2284L95.0012 12.2696H94.9425L93.5042 15.0189H92.8095L91.3713 12.2696H91.3125L91.3615 13.2284V15.6549H90.3537Z" fill="white"/>
<path d="M103.419 15.8118C102.917 15.8118 102.444 15.7204 102 15.5378C101.564 15.3552 101.175 15.1008 100.836 14.7746C100.497 14.442 100.229 14.0539 100.034 13.6103C99.8444 13.1602 99.75 12.6743 99.75 12.1525C99.75 11.6306 99.8444 11.148 100.034 10.7044C100.229 10.2543 100.494 9.86623 100.826 9.54008C101.165 9.20741 101.557 8.94974 102 8.76712C102.444 8.5845 102.917 8.49316 103.419 8.49316C103.954 8.49316 104.446 8.58773 104.897 8.77691C105.353 8.96608 105.735 9.23026 106.041 9.56943L105.298 10.3032C105.069 10.0489 104.795 9.85317 104.476 9.71619C104.163 9.57921 103.81 9.51072 103.419 9.51072C102.956 9.51072 102.529 9.62163 102.137 9.84339C101.746 10.0586 101.429 10.3652 101.188 10.7631C100.953 11.1545 100.836 11.6176 100.836 12.1525C100.836 12.6873 100.957 13.1537 101.198 13.5516C101.439 13.943 101.756 14.2496 102.147 14.4713C102.539 14.6866 102.966 14.7942 103.429 14.7942C103.853 14.7942 104.238 14.7159 104.583 14.5594C104.929 14.3963 105.206 14.168 105.415 13.8745C105.63 13.581 105.761 13.2287 105.806 12.8178H103.409V11.8687H106.814C106.853 12.0448 106.873 12.2307 106.873 12.4264V12.4362C106.873 13.1146 106.723 13.7082 106.423 14.2169C106.129 14.7192 105.722 15.1106 105.2 15.391C104.678 15.6715 104.084 15.8118 103.419 15.8118ZM110.023 15.8118C109.508 15.8118 109.055 15.6944 108.663 15.4595C108.272 15.2247 107.965 14.9083 107.744 14.5105C107.522 14.1126 107.411 13.6625 107.411 13.1602C107.411 12.6645 107.522 12.2177 107.744 11.8198C107.965 11.4154 108.272 11.0958 108.663 10.8609C109.055 10.6261 109.508 10.5087 110.023 10.5087C110.532 10.5087 110.982 10.6261 111.374 10.8609C111.765 11.0958 112.072 11.4154 112.293 11.8198C112.515 12.2177 112.626 12.6645 112.626 13.1602C112.626 13.6625 112.515 14.1126 112.293 14.5105C112.072 14.9083 111.765 15.2247 111.374 15.4595C110.982 15.6944 110.532 15.8118 110.023 15.8118ZM110.023 14.8431C110.297 14.8431 110.552 14.7779 110.787 14.6474C111.021 14.5105 111.211 14.3181 111.354 14.0702C111.504 13.8158 111.579 13.5125 111.579 13.1602C111.579 12.808 111.504 12.508 111.354 12.2601C111.211 12.0057 111.021 11.8133 110.787 11.6828C110.552 11.5458 110.297 11.4774 110.023 11.4774C109.749 11.4774 109.492 11.5458 109.25 11.6828C109.016 11.8133 108.823 12.0057 108.673 12.2601C108.53 12.508 108.458 12.808 108.458 13.1602C108.458 13.5125 108.53 13.8158 108.673 14.0702C108.823 14.3181 109.016 14.5105 109.25 14.6474C109.492 14.7779 109.749 14.8431 110.023 14.8431ZM115.947 15.8118C115.432 15.8118 114.979 15.6944 114.587 15.4595C114.196 15.2247 113.89 14.9083 113.668 14.5105C113.446 14.1126 113.335 13.6625 113.335 13.1602C113.335 12.6645 113.446 12.2177 113.668 11.8198C113.89 11.4154 114.196 11.0958 114.587 10.8609C114.979 10.6261 115.432 10.5087 115.947 10.5087C116.456 10.5087 116.906 10.6261 117.298 10.8609C117.689 11.0958 117.996 11.4154 118.217 11.8198C118.439 12.2177 118.55 12.6645 118.55 13.1602C118.55 13.6625 118.439 14.1126 118.217 14.5105C117.996 14.9083 117.689 15.2247 117.298 15.4595C116.906 15.6944 116.456 15.8118 115.947 15.8118ZM115.947 14.8431C116.221 14.8431 116.476 14.7779 116.71 14.6474C116.945 14.5105 117.135 14.3181 117.278 14.0702C117.428 13.8158 117.503 13.5125 117.503 13.1602C117.503 12.808 117.428 12.508 117.278 12.2601C117.135 12.0057 116.945 11.8133 116.71 11.6828C116.476 11.5458 116.221 11.4774 115.947 11.4774C115.673 11.4774 115.416 11.5458 115.174 11.6828C114.94 11.8133 114.747 12.0057 114.597 12.2601C114.454 12.508 114.382 12.808 114.382 13.1602C114.382 13.5125 114.454 13.8158 114.597 14.0702C114.747 14.3181 114.94 14.5105 115.174 14.6474C115.416 14.7779 115.673 14.8431 115.947 14.8431ZM121.774 17.9252C121.336 17.9252 120.958 17.8534 120.639 17.7099C120.326 17.5729 120.071 17.3935 119.876 17.1718C119.68 16.9565 119.54 16.7348 119.455 16.5064L120.433 16.0955C120.538 16.3564 120.704 16.5684 120.932 16.7315C121.167 16.9011 121.448 16.9859 121.774 16.9859C122.23 16.9859 122.589 16.8489 122.85 16.5749C123.117 16.301 123.251 15.9129 123.251 15.4106V14.9312H123.193C123.036 15.166 122.817 15.3552 122.537 15.4987C122.263 15.6356 121.95 15.7041 121.598 15.7041C121.174 15.7041 120.786 15.5965 120.433 15.3813C120.081 15.166 119.797 14.866 119.582 14.4811C119.367 14.0897 119.259 13.6332 119.259 13.1113C119.259 12.583 119.367 12.1264 119.582 11.7415C119.797 11.3502 120.081 11.0468 120.433 10.8316C120.786 10.6163 121.174 10.5087 121.598 10.5087C121.95 10.5087 122.263 10.5805 122.537 10.724C122.817 10.8675 123.036 11.0566 123.193 11.2915H123.251V10.6653H124.259V15.391C124.259 15.9325 124.151 16.3923 123.936 16.7706C123.727 17.1489 123.437 17.4359 123.065 17.6316C122.694 17.8273 122.263 17.9252 121.774 17.9252ZM121.784 14.7453C122.044 14.7453 122.286 14.6833 122.508 14.5594C122.729 14.4289 122.909 14.243 123.046 14.0017C123.183 13.7538 123.251 13.457 123.251 13.1113C123.251 12.7526 123.183 12.4525 123.046 12.2112C122.909 11.9633 122.729 11.7774 122.508 11.6535C122.286 11.5296 122.044 11.4676 121.784 11.4676C121.522 11.4676 121.278 11.5328 121.05 11.6633C120.828 11.7872 120.649 11.9698 120.512 12.2112C120.375 12.4525 120.306 12.7526 120.306 13.1113C120.306 13.4635 120.375 13.7636 120.512 14.0115C120.649 14.2528 120.828 14.4355 121.05 14.5594C121.278 14.6833 121.522 14.7453 121.784 14.7453ZM125.505 15.6552V8.64971H126.562V15.6552H125.505ZM130.04 15.8118C129.55 15.8118 129.113 15.6976 128.728 15.4693C128.343 15.241 128.04 14.9279 127.818 14.53C127.603 14.1322 127.496 13.6788 127.496 13.17C127.496 12.6939 127.6 12.2536 127.809 11.8492C128.017 11.4447 128.308 11.1218 128.68 10.8805C129.058 10.6326 129.492 10.5087 129.981 10.5087C130.496 10.5087 130.933 10.6196 131.292 10.8414C131.657 11.0631 131.934 11.3664 132.124 11.7513C132.312 12.1362 132.407 12.5699 132.407 13.0526C132.407 13.1244 132.404 13.1896 132.398 13.2483C132.398 13.307 132.394 13.3526 132.388 13.3853H128.533C128.585 13.881 128.758 14.2528 129.051 14.5007C129.351 14.7486 129.69 14.8725 130.069 14.8725C130.408 14.8725 130.688 14.7975 130.91 14.6474C131.132 14.4909 131.308 14.2985 131.439 14.0702L132.309 14.4909C132.094 14.8823 131.801 15.2019 131.429 15.4497C131.057 15.6911 130.594 15.8118 130.04 15.8118ZM129.991 11.4089C129.638 11.4089 129.338 11.5165 129.09 11.7317C128.842 11.947 128.676 12.234 128.591 12.5928H131.36C131.347 12.4231 131.292 12.247 131.194 12.0644C131.096 11.8818 130.946 11.7285 130.744 11.6045C130.548 11.4741 130.297 11.4089 129.991 11.4089ZM136.708 15.6552L134.829 8.64971H136.023L137.138 13.1994L137.256 13.806H137.315L137.461 13.1994L138.87 8.64971H139.947L141.297 13.1994L141.444 13.7962H141.502L141.62 13.1994L142.735 8.64971H143.919L142.07 15.6552H140.935L139.594 11.0077L139.438 10.3522H139.379L139.213 11.0077L137.814 15.6552H136.708ZM145.884 15.8118C145.525 15.8118 145.206 15.7433 144.925 15.6063C144.644 15.4628 144.426 15.2638 144.269 15.0095C144.113 14.7551 144.034 14.4648 144.034 14.1387C144.034 13.7864 144.126 13.4864 144.308 13.2385C144.498 12.9841 144.749 12.7917 145.062 12.6612C145.375 12.5308 145.721 12.4656 146.099 12.4656C146.412 12.4656 146.686 12.4949 146.921 12.5536C147.162 12.6123 147.345 12.6743 147.469 12.7395V12.4753C147.469 12.1492 147.351 11.8883 147.116 11.6926C146.882 11.4969 146.578 11.3991 146.206 11.3991C145.952 11.3991 145.711 11.4578 145.482 11.5752C145.254 11.6861 145.072 11.8394 144.935 12.0351L144.211 11.4774C144.426 11.1773 144.709 10.9425 145.062 10.7729C145.421 10.5968 145.812 10.5087 146.236 10.5087C146.96 10.5087 147.518 10.6881 147.909 11.0468C148.3 11.3991 148.496 11.8948 148.496 12.534V15.6552H147.469V15.0388H147.41C147.28 15.241 147.084 15.4204 146.823 15.5769C146.562 15.7335 146.249 15.8118 145.884 15.8118ZM146.07 14.9508C146.343 14.9508 146.585 14.8855 146.794 14.7551C147.002 14.6246 147.165 14.455 147.283 14.2463C147.407 14.031 147.469 13.7995 147.469 13.5516C147.319 13.4668 147.143 13.3983 146.94 13.3461C146.738 13.2874 146.523 13.2581 146.295 13.2581C145.864 13.2581 145.558 13.3461 145.375 13.5223C145.192 13.6919 145.101 13.9006 145.101 14.1484C145.101 14.3833 145.189 14.5757 145.365 14.7257C145.541 14.8758 145.776 14.9508 146.07 14.9508ZM149.669 15.6552V8.64971H150.726V15.6552H149.669ZM151.982 15.6552V8.64971H153.038V15.6552H151.982ZM156.516 15.8118C156.027 15.8118 155.59 15.6976 155.205 15.4693C154.82 15.241 154.517 14.9279 154.295 14.53C154.08 14.1322 153.972 13.6788 153.972 13.17C153.972 12.6939 154.076 12.2536 154.285 11.8492C154.494 11.4447 154.784 11.1218 155.156 10.8805C155.534 10.6326 155.968 10.5087 156.457 10.5087C156.973 10.5087 157.409 10.6196 157.768 10.8414C158.133 11.0631 158.411 11.3664 158.6 11.7513C158.789 12.1362 158.884 12.5699 158.884 13.0526C158.884 13.1244 158.88 13.1896 158.874 13.2483C158.874 13.307 158.871 13.3526 158.864 13.3853H155.009C155.061 13.881 155.234 14.2528 155.528 14.5007C155.828 14.7486 156.167 14.8725 156.545 14.8725C156.884 14.8725 157.165 14.7975 157.387 14.6474C157.609 14.4909 157.785 14.2985 157.915 14.0702L158.786 14.4909C158.571 14.8823 158.277 15.2019 157.905 15.4497C157.534 15.6911 157.07 15.8118 156.516 15.8118ZM156.467 11.4089C156.115 11.4089 155.815 11.5165 155.567 11.7317C155.319 11.947 155.153 12.234 155.068 12.5928H157.837C157.824 12.4231 157.768 12.247 157.671 12.0644C157.573 11.8818 157.423 11.7285 157.221 11.6045C157.025 11.4741 156.773 11.4089 156.467 11.4089ZM160.249 14.2072V11.585H159.378V10.6653H160.249V9.25633H161.306V10.6653H162.529V11.585H161.306V13.9821C161.306 14.23 161.355 14.4191 161.453 14.5496C161.557 14.6801 161.73 14.7453 161.971 14.7453C162.095 14.7453 162.199 14.729 162.284 14.6964C162.375 14.6637 162.467 14.6181 162.558 14.5594V15.5867C162.447 15.6324 162.33 15.6683 162.206 15.6944C162.082 15.7204 161.935 15.7335 161.766 15.7335C161.303 15.7335 160.934 15.5998 160.66 15.3323C160.386 15.0584 160.249 14.6833 160.249 14.2072Z" fill="white"/>
<path d="M161.441 0.244141H12.2318C5.61226 0.244141 0.246094 5.61031 0.246094 12.2298C0.246094 18.8493 5.61226 24.2155 12.2318 24.2155H161.441C168.061 24.2155 173.427 18.8493 173.427 12.2298C173.427 5.61031 168.061 0.244141 161.441 0.244141Z" stroke="#747775"/>
</g>
<defs>
<linearGradient id="paint0_linear_568_105" x1="16.9122" y1="15.0611" x2="9.16337" y2="23.929" gradientUnits="userSpaceOnUse">
<stop stop-color="#4285F4"/>
<stop offset="1" stop-color="#1B74E8"/>
</linearGradient>
<clipPath id="clip0_568_105">
<rect width="173.67" height="24.4606" fill="white"/>
</clipPath>
</defs>
</svg>
