<svg width="174" height="48" viewBox="0 0 174 48" fill="none" xmlns="http://www.w3.org/2000/svg">
<g clip-path="url(#clip0_568_439)">
<path d="M149.672 0.436523H24.0008C10.9871 0.436523 0.4375 10.9862 0.4375 23.9998C0.4375 37.0134 10.9871 47.563 24.0008 47.563H149.672C162.685 47.563 173.235 37.0134 173.235 23.9998C173.235 10.9862 162.685 0.436523 149.672 0.436523Z" fill="#1F1F1F"/>
<path d="M49.7458 20.7629H18.3281V15.8361C18.3281 13.1615 20.634 10.9092 23.3722 10.9092H44.7017C47.4399 10.9092 49.7458 13.1615 49.7458 15.8361V20.7629Z" fill="#34A853"/>
<path d="M49.7458 25.3085H18.3281V20.0722C18.3281 17.2297 20.634 14.8359 23.3722 14.8359H44.7017C47.4399 14.8359 49.7458 17.2297 49.7458 20.0722V25.3085Z" fill="#FBBC04"/>
<path d="M49.7458 29.6718H18.3281V24.4355C18.3281 21.593 20.634 19.1992 23.3722 19.1992H44.7017C47.4399 19.1992 49.7458 21.593 49.7458 24.4355V29.6718Z" fill="#EA4335"/>
<path d="M18.3281 22.0276L38.269 26.5322C40.5644 27.0953 43.1467 26.5322 45.0116 25.1245L49.7458 21.7461V32.3037C49.7458 34.9783 47.4505 37.0898 44.7247 37.0898H23.3492C20.6234 37.0898 18.3281 34.9783 18.3281 32.3037V22.0276Z" fill="url(#paint0_linear_568_439)"/>
<path d="M64.0402 18.9444C63.4351 18.9444 62.9019 18.8082 62.4405 18.536C61.9867 18.2637 61.6312 17.8817 61.374 17.3901C61.1168 16.8985 60.9883 16.316 60.9883 15.6429V10.6396H62.2249V15.711C62.2249 16.3009 62.38 16.7925 62.6901 17.1859C63.0001 17.5716 63.4578 17.7645 64.0628 17.7645C64.6301 17.7645 65.0763 17.5867 65.4016 17.2313C65.7269 16.8758 65.8894 16.369 65.8894 15.711V10.6396H67.1261L67.1374 15.6089C67.1374 16.1459 67.0467 16.6337 66.8651 17.0724L68.2606 17.9687L67.648 18.9217L66.2638 18.0368C65.9915 18.3242 65.6663 18.5473 65.2881 18.7061C64.91 18.865 64.494 18.9444 64.0402 18.9444ZM72.7758 21.4517V18.7969L72.8439 18.0141H72.7758C72.6094 18.2788 72.3674 18.5019 72.0497 18.6834C71.7321 18.8574 71.3841 18.9444 71.006 18.9444C70.3177 18.9444 69.7996 18.7364 69.4517 18.3204C69.1037 17.8969 68.9298 17.3296 68.9298 16.6186V13.1583H70.1551V16.4484C70.1551 16.9173 70.2648 17.2653 70.4841 17.4922C70.7034 17.7115 70.9757 17.8212 71.301 17.8212C71.6035 17.8212 71.8645 17.7455 72.0838 17.5943C72.3031 17.4355 72.4733 17.2313 72.5943 16.9817C72.7154 16.7245 72.7758 16.4447 72.7758 16.1421V10.6396H73.9898V20.3852H75.8618V21.4517H72.7758ZM77.4752 18.9444C76.8097 18.9444 76.3029 18.7364 75.955 18.3204C75.6146 17.8969 75.4444 17.3296 75.4444 16.6186V10.6396H76.6697V13.1583H80.425V14.2248H76.6697V16.4484C76.6697 16.9173 76.7757 17.2653 76.9874 17.4922C77.1992 17.7115 77.4601 17.8212 77.7702 17.8212C78.0652 17.8212 78.3186 17.7455 78.5303 17.5943C78.7421 17.4355 78.9047 17.2313 79.0182 16.9817C79.1392 16.7245 79.1997 16.4447 79.1997 16.1421V15.5068H80.4137V18.7629H79.2678V18.0141H79.1997C79.0409 18.2788 78.8065 18.5019 78.4963 18.6834C78.1862 18.8574 77.8459 18.9444 77.4752 18.9444ZM81.8495 21.4517V13.1583H83.0747V20.3852H85.4572V21.4517H81.8495ZM86.405 18.9444C85.7243 18.9444 85.2175 18.7402 84.8847 18.3317C84.5519 17.9157 84.3856 17.3674 84.3856 16.6867V13.1583H85.5995V16.4825C85.5995 16.9439 85.6978 17.2842 85.8945 17.5035C86.0987 17.7153 86.3785 17.8212 86.734 17.8212C87.0138 17.8212 87.2597 17.7455 87.4716 17.5943C87.6828 17.4355 87.846 17.2237 87.9595 16.959C88.0799 16.6943 88.141 16.3993 88.141 16.074V13.1583H89.3663V16.4825C89.3663 16.9439 89.464 17.2842 89.6613 17.5035C89.8655 17.7153 90.1526 17.8212 90.5235 17.8212C90.7958 17.8212 91.0341 17.7418 91.2383 17.583C91.4495 17.4241 91.6127 17.2123 91.7261 16.9476C91.8396 16.6829 91.8963 16.3879 91.8963 16.0627V13.1583H93.1216V18.7629H91.9644V17.9687H91.8963C91.7296 18.2486 91.4879 18.483 91.1702 18.6721C90.8525 18.8536 90.5008 18.9444 90.1151 18.9444C89.684 18.9444 89.3166 18.8423 89.0146 18.6381C88.7118 18.4339 88.4962 18.1767 88.3679 17.8666C88.1864 18.1692 87.9289 18.4263 87.5964 18.6381C87.2709 18.8423 86.8739 18.9444 86.405 18.9444ZM97.0209 21.6332C96.5295 21.6332 96.1019 21.5538 95.7389 21.395C95.3837 21.2361 95.0922 21.0319 94.8653 20.7823C94.6462 20.5403 94.4909 20.2907 94.4001 20.0335L95.5346 19.557C95.6481 19.8444 95.8331 20.0827 96.0906 20.2718C96.355 20.4609 96.6657 20.5554 97.0209 20.5554C97.5201 20.5554 97.9172 20.4003 98.2121 20.0903C98.515 19.7877 98.6659 19.3566 98.6659 18.7969V18.0595H98.5979C98.4163 18.3242 98.1702 18.536 97.8604 18.6948C97.5576 18.8536 97.2103 18.933 96.8167 18.933C96.348 18.933 95.9125 18.812 95.512 18.57C95.1114 18.3204 94.7893 17.9724 94.5476 17.5262C94.3059 17.08 94.1846 16.5581 94.1846 15.9606C94.1846 15.363 94.3059 14.8412 94.5476 14.3949C94.7893 13.9411 95.1114 13.5932 95.512 13.3512C95.9125 13.1016 96.348 12.9768 96.8167 12.9768C97.2103 12.9768 97.5576 13.0599 97.8604 13.2264C98.1702 13.3928 98.4129 13.6084 98.5865 13.8731H98.6546V13.147H99.8232V18.7742C99.8232 19.3793 99.7062 19.8936 99.4715 20.3172C99.2367 20.7483 98.9077 21.0735 98.4844 21.2929C98.0612 21.5198 97.5733 21.6332 97.0209 21.6332ZM97.0322 17.8326C97.3193 17.8326 97.5847 17.7607 97.8264 17.617C98.076 17.4658 98.2767 17.2502 98.4277 16.9703C98.5865 16.6904 98.6659 16.3539 98.6659 15.9606C98.6659 15.5522 98.5865 15.208 98.4277 14.9282C98.2767 14.6483 98.076 14.4366 97.8264 14.2928C97.5847 14.1491 97.3193 14.0773 97.0322 14.0773C96.7451 14.0773 96.4763 14.1529 96.2267 14.3042C95.9771 14.4479 95.7764 14.6596 95.6254 14.9395C95.4744 15.2194 95.3985 15.5597 95.3985 15.9606C95.3985 16.3614 95.4744 16.7018 95.6254 16.9817C95.7764 17.2539 95.9771 17.4658 96.2267 17.617C96.4763 17.7607 96.7451 17.8326 97.0322 17.8326ZM103.28 18.9444C102.592 18.9444 102.074 18.7364 101.726 18.3204C101.378 17.8969 101.204 17.3296 101.204 16.6186V11.7061H100.069V10.6396H102.429V16.4484C102.429 16.9173 102.539 17.2653 102.758 17.4922C102.978 17.7115 103.25 17.8212 103.575 17.8212C103.878 17.8212 104.139 17.7455 104.358 17.5943C104.578 17.4355 104.748 17.2313 104.868 16.9817C104.99 16.7245 105.05 16.4447 105.05 16.1421V13.1583H106.264V18.7629H105.118V18.0141H105.05C104.884 18.2788 104.641 18.5019 104.324 18.6834C104.006 18.8574 103.659 18.9444 103.28 18.9444ZM109.694 18.9444C109.029 18.9444 108.521 18.7364 108.174 18.3204C107.834 17.8969 107.664 17.3296 107.664 16.6186V10.6396H108.889V13.1583H112.644V14.2248H108.889V16.4484C108.889 16.9173 108.995 17.2653 109.207 17.4922C109.418 17.7115 109.679 17.8212 109.989 17.8212C110.284 17.8212 110.537 17.7455 110.75 17.5943C110.961 17.4355 111.124 17.2313 111.237 16.9817C111.358 16.7245 111.419 16.4447 111.419 16.1421V15.5068H112.633V18.7629H111.487V18.0141H111.419C111.26 18.2788 111.025 18.5019 110.715 18.6834C110.405 18.8574 110.064 18.9444 109.694 18.9444ZM114.068 21.4517V13.1583H115.294V20.3852H116.882V21.4517H114.068Z" fill="white"/>
<path d="M66.4503 36.4548C65.6887 36.4548 64.9716 36.3163 64.299 36.0394C63.6364 35.7625 63.0478 35.3768 62.5335 34.8822C62.0192 34.3778 61.6137 33.7893 61.317 33.1167C61.0301 32.4343 60.8867 31.6974 60.8867 30.9061C60.8867 30.1148 61.0301 29.383 61.317 28.7104C61.6137 28.0279 62.0143 27.4395 62.5187 26.9449C63.033 26.4405 63.6264 26.0497 64.299 25.7728C64.9716 25.4959 65.6887 25.3574 66.4503 25.3574C67.2613 25.3574 68.0081 25.5008 68.6905 25.7877C69.3828 26.0745 69.9615 26.4751 70.4264 26.9894L69.2988 28.1021C68.9526 27.7164 68.5372 27.4196 68.0526 27.2119C67.5778 27.0042 67.0437 26.9004 66.4503 26.9004C65.748 26.9004 65.1002 27.0686 64.5067 27.4048C63.9133 27.7312 63.4336 28.1961 63.0676 28.7994C62.7116 29.3928 62.5335 30.0951 62.5335 30.9061C62.5335 31.7171 62.7165 32.4244 63.0825 33.0277C63.4484 33.6211 63.9281 34.086 64.5216 34.4223C65.115 34.7487 65.7628 34.9119 66.4651 34.9119C67.108 34.9119 67.6915 34.7932 68.2158 34.5558C68.74 34.3086 69.1603 33.9624 69.4768 33.5173C69.8032 33.0722 70.0011 32.5381 70.0703 31.915H66.4354V30.4759H71.5984C71.6578 30.7429 71.6874 31.0248 71.6874 31.3215V31.3364C71.6874 32.3651 71.4599 33.2651 71.005 34.0366C70.5599 34.7982 69.9417 35.3916 69.1504 35.8169C68.3592 36.2422 67.4591 36.4548 66.4503 36.4548ZM76.4646 36.4548C75.6831 36.4548 74.9958 36.2768 74.4023 35.9207C73.8089 35.5647 73.344 35.0849 73.0078 34.4816C72.6714 33.8783 72.5033 33.1959 72.5033 32.4343C72.5033 31.6826 72.6714 31.005 73.0078 30.4017C73.344 29.7884 73.8089 29.3038 74.4023 28.9478C74.9958 28.5917 75.6831 28.4137 76.4646 28.4137C77.236 28.4137 77.9185 28.5917 78.512 28.9478C79.1054 29.3038 79.5702 29.7884 79.9066 30.4017C80.2428 31.005 80.411 31.6826 80.411 32.4343C80.411 33.1959 80.2428 33.8783 79.9066 34.4816C79.5702 35.0849 79.1054 35.5647 78.512 35.9207C77.9185 36.2768 77.236 36.4548 76.4646 36.4548ZM76.4646 34.9861C76.88 34.9861 77.2657 34.8872 77.6218 34.6893C77.9779 34.4816 78.2646 34.1899 78.4823 33.814C78.7097 33.4283 78.8235 32.9684 78.8235 32.4343C78.8235 31.9002 78.7097 31.4452 78.4823 31.0693C78.2646 30.6836 77.9779 30.3918 77.6218 30.194C77.2657 29.9863 76.88 29.8824 76.4646 29.8824C76.0492 29.8824 75.6584 29.9863 75.2925 30.194C74.9364 30.3918 74.6446 30.6836 74.4172 31.0693C74.1995 31.4452 74.0908 31.9002 74.0908 32.4343C74.0908 32.9684 74.1995 33.4283 74.4172 33.814C74.6446 34.1899 74.9364 34.4816 75.2925 34.6893C75.6584 34.8872 76.0492 34.9861 76.4646 34.9861ZM85.4473 36.4548C84.666 36.4548 83.9785 36.2768 83.3851 35.9207C82.7917 35.5647 82.3268 35.0849 81.9905 34.4816C81.6542 33.8783 81.4861 33.1959 81.4861 32.4343C81.4861 31.6826 81.6542 31.005 81.9905 30.4017C82.3268 29.7884 82.7917 29.3038 83.3851 28.9478C83.9785 28.5917 84.666 28.4137 85.4473 28.4137C86.2188 28.4137 86.9013 28.5917 87.4949 28.9478C88.0883 29.3038 88.5535 29.7884 88.8895 30.4017C89.2255 31.005 89.3939 31.6826 89.3939 32.4343C89.3939 33.1959 89.2255 33.8783 88.8895 34.4816C88.5535 35.0849 88.0883 35.5647 87.4949 35.9207C86.9013 36.2768 86.2188 36.4548 85.4473 36.4548ZM85.4473 34.9861C85.8627 34.9861 86.2485 34.8872 86.6045 34.6893C86.9606 34.4816 87.2475 34.1899 87.4652 33.814C87.693 33.4283 87.8064 32.9684 87.8064 32.4343C87.8064 31.9002 87.693 31.4452 87.4652 31.0693C87.2475 30.6836 86.9606 30.3918 86.6045 30.194C86.2485 29.9863 85.8627 29.8824 85.4473 29.8824C85.0319 29.8824 84.6413 29.9863 84.2753 30.194C83.9192 30.3918 83.6275 30.6836 83.3999 31.0693C83.1824 31.4452 83.0735 31.9002 83.0735 32.4343C83.0735 32.9684 83.1824 33.4283 83.3999 33.814C83.6275 34.1899 83.9192 34.4816 84.2753 34.6893C84.6413 34.8872 85.0319 34.9861 85.4473 34.9861ZM94.282 39.6595C93.6187 39.6595 93.0453 39.5506 92.561 39.3331C92.0862 39.1253 91.7005 38.8533 91.4038 38.5171C91.107 38.1907 90.8941 37.8544 90.7658 37.5082L92.2494 36.8851C92.4074 37.2807 92.6596 37.6022 93.0061 37.8494C93.3621 38.1066 93.7871 38.2352 94.282 38.2352C94.974 38.2352 95.5177 38.0275 95.914 37.6121C96.3189 37.1967 96.5222 36.6082 96.5222 35.8466V35.1196H96.4332C96.1958 35.4757 95.8642 35.7625 95.4392 35.9801C95.0238 36.1878 94.549 36.2916 94.0149 36.2916C93.3717 36.2916 92.7835 36.1284 92.2494 35.8021C91.7153 35.4757 91.2851 35.0207 90.9587 34.4371C90.6323 33.8437 90.4691 33.1514 90.4691 32.3601C90.4691 31.5589 90.6323 30.8666 90.9587 30.283C91.2851 29.6896 91.7153 29.2297 92.2494 28.9033C92.7835 28.5769 93.3717 28.4137 94.0149 28.4137C94.549 28.4137 95.0238 28.5225 95.4392 28.7401C95.8642 28.9576 96.1958 29.2445 96.4332 29.6006H96.5222V28.651H98.0504V35.8169C98.0504 36.6379 97.8872 37.3352 97.5608 37.9088C97.244 38.4824 96.8041 38.9176 96.2403 39.2144C95.6766 39.5111 95.0238 39.6595 94.282 39.6595ZM94.2968 34.8377C94.6921 34.8377 95.0578 34.7437 95.3947 34.5558C95.7307 34.358 96.003 34.0761 96.2107 33.7102C96.4184 33.3343 96.5222 32.8843 96.5222 32.3601C96.5222 31.8161 96.4184 31.3611 96.2107 30.9951C96.003 30.6193 95.7307 30.3374 95.3947 30.1495C95.0578 29.9616 94.6921 29.8676 94.2968 29.8676C93.9006 29.8676 93.5297 29.9665 93.1841 30.1643C92.8472 30.3522 92.5758 30.6292 92.3681 30.9951C92.1604 31.3611 92.0566 31.8161 92.0566 32.3601C92.0566 32.8942 92.1604 33.3491 92.3681 33.725C92.5758 34.0909 92.8472 34.3679 93.1841 34.5558C93.5297 34.7437 93.9006 34.8377 94.2968 34.8377ZM99.9398 36.2175V25.5948H101.542V36.2175H99.9398ZM106.815 36.4548C106.073 36.4548 105.411 36.2818 104.827 35.9356C104.244 35.5894 103.784 35.1146 103.447 34.5113C103.121 33.908 102.958 33.2206 102.958 32.4491C102.958 31.7271 103.116 31.0595 103.432 30.4462C103.749 29.833 104.189 29.3434 104.753 28.9774C105.327 28.6016 105.984 28.4137 106.726 28.4137C107.508 28.4137 108.17 28.5818 108.714 28.9181C109.268 29.2544 109.689 29.7143 109.975 30.2979C110.262 30.8814 110.405 31.5391 110.405 32.2711C110.405 32.3799 110.401 32.4788 110.391 32.5678C110.391 32.6568 110.386 32.726 110.376 32.7755H104.53C104.61 33.5272 104.871 34.0909 105.317 34.4668C105.772 34.8427 106.286 35.0306 106.86 35.0306C107.374 35.0306 107.799 34.9169 108.135 34.6893C108.472 34.452 108.739 34.1602 108.937 33.814L110.257 34.452C109.931 35.0454 109.486 35.53 108.922 35.9059C108.358 36.2718 107.656 36.4548 106.815 36.4548ZM106.741 29.7786C106.207 29.7786 105.752 29.9418 105.376 30.2682C105.001 30.5946 104.748 31.0298 104.619 31.5738H108.818C108.799 31.3166 108.714 31.0495 108.566 30.7726C108.417 30.4957 108.19 30.2632 107.883 30.0753C107.586 29.8775 107.206 29.7786 106.741 29.7786ZM116.927 36.2175L114.079 25.5948H115.889L117.58 32.4936L117.758 33.4134H117.847L118.07 32.4936L120.206 25.5948H121.838L123.885 32.4936L124.108 33.3986H124.197L124.375 32.4936L126.066 25.5948H127.861L125.057 36.2175H123.336L121.304 29.1703L121.066 28.1763H120.977L120.725 29.1703L118.604 36.2175H116.927ZM130.841 36.4548C130.297 36.4548 129.812 36.351 129.387 36.1433C128.962 35.9257 128.63 35.624 128.393 35.2383C128.155 34.8525 128.037 34.4124 128.037 33.9179C128.037 33.3838 128.176 32.9288 128.452 32.5529C128.739 32.1672 129.12 31.8755 129.595 31.6776C130.069 31.4798 130.594 31.3809 131.167 31.3809C131.642 31.3809 132.057 31.4254 132.413 31.5144C132.779 31.6034 133.057 31.6974 133.244 31.7963V31.3957C133.244 30.9012 133.066 30.5056 132.71 30.2088C132.354 29.9121 131.894 29.7638 131.33 29.7638C130.945 29.7638 130.579 29.8528 130.233 30.0308C129.886 30.199 129.609 30.4314 129.402 30.7281L128.304 29.8824C128.63 29.4275 129.06 29.0714 129.595 28.8142C130.138 28.5472 130.732 28.4137 131.375 28.4137C132.473 28.4137 133.318 28.6857 133.912 29.2297C134.505 29.7638 134.802 30.5154 134.802 31.4847V36.2175H133.244V35.2828H133.155C132.957 35.5894 132.66 35.8614 132.265 36.0988C131.87 36.3362 131.395 36.4548 130.841 36.4548ZM131.123 35.1493C131.538 35.1493 131.904 35.0504 132.221 34.8525C132.537 34.6547 132.784 34.3976 132.962 34.0811C133.15 33.7547 133.244 33.4036 133.244 33.0277C133.016 32.8992 132.749 32.7953 132.443 32.7161C132.137 32.6271 131.81 32.5826 131.464 32.5826C130.811 32.5826 130.346 32.7161 130.069 32.9832C129.793 33.2404 129.654 33.5568 129.654 33.9327C129.654 34.2888 129.787 34.5805 130.055 34.808C130.322 35.0356 130.678 35.1493 131.123 35.1493ZM136.581 36.2175V25.5948H138.183V36.2175H136.581ZM140.087 36.2175V25.5948H141.69V36.2175H140.087ZM146.962 36.4548C146.221 36.4548 145.558 36.2818 144.974 35.9356C144.391 35.5894 143.932 35.1146 143.595 34.5113C143.268 33.908 143.105 33.2206 143.105 32.4491C143.105 31.7271 143.264 31.0595 143.58 30.4462C143.897 29.833 144.336 29.3434 144.9 28.9774C145.474 28.6016 146.132 28.4137 146.873 28.4137C147.655 28.4137 148.318 28.5818 148.861 28.9181C149.416 29.2544 149.836 29.7143 150.123 30.2979C150.41 30.8814 150.553 31.5391 150.553 32.2711C150.553 32.3799 150.548 32.4788 150.538 32.5678C150.538 32.6568 150.534 32.726 150.523 32.7755H144.678C144.757 33.5272 145.019 34.0909 145.464 34.4668C145.92 34.8427 146.434 35.0306 147.007 35.0306C147.522 35.0306 147.947 34.9169 148.283 34.6893C148.62 34.452 148.887 34.1602 149.084 33.814L150.404 34.452C150.078 35.0454 149.633 35.53 149.069 35.9059C148.505 36.2718 147.804 36.4548 146.962 36.4548ZM146.888 29.7786C146.354 29.7786 145.899 29.9418 145.523 30.2682C145.148 30.5946 144.896 31.0298 144.767 31.5738H148.965C148.946 31.3166 148.861 31.0495 148.713 30.7726C148.565 30.4957 148.338 30.2632 148.031 30.0753C147.734 29.8775 147.353 29.7786 146.888 29.7786ZM152.624 34.0217V30.0456H151.303V28.651H152.624V26.5146H154.226V28.651H156.081V30.0456H154.226V33.6805C154.226 34.0564 154.3 34.3431 154.449 34.541C154.607 34.7388 154.868 34.8377 155.235 34.8377C155.423 34.8377 155.581 34.813 155.71 34.7635C155.848 34.714 155.986 34.6448 156.125 34.5558V36.1136C155.957 36.1828 155.779 36.2373 155.591 36.2768C155.402 36.3163 155.18 36.3362 154.923 36.3362C154.221 36.3362 153.662 36.1334 153.247 35.7279C152.831 35.3125 152.624 34.7437 152.624 34.0217Z" fill="white"/>
<path d="M149.672 0.436523H24.0008C10.9871 0.436523 0.4375 10.9862 0.4375 23.9998C0.4375 37.0134 10.9871 47.563 24.0008 47.563H149.672C162.685 47.563 173.235 37.0134 173.235 23.9998C173.235 10.9862 162.685 0.436523 149.672 0.436523Z" stroke="#747775"/>
</g>
<defs>
<linearGradient id="paint0_linear_568_439" x1="32.5397" y1="29.7109" x2="16.3927" y2="48.6295" gradientUnits="userSpaceOnUse">
<stop stop-color="#4285F4"/>
<stop offset="1" stop-color="#1B74E8"/>
</linearGradient>
<clipPath id="clip0_568_439">
<rect width="173.67" height="47.9992" fill="white"/>
</clipPath>
</defs>
</svg>
