<svg width="174" height="39" viewBox="0 0 174 39" fill="none" xmlns="http://www.w3.org/2000/svg">
<g clip-path="url(#clip0_568_421)">
<path d="M154.644 0.345703H19.0293C8.71171 0.345703 0.347656 8.70976 0.347656 19.0273C0.347656 29.3449 8.71171 37.709 19.0293 37.709H154.644C164.962 37.709 173.326 29.3449 173.326 19.0273C173.326 8.70976 164.962 0.345703 154.644 0.345703Z" fill="#1F1F1F"/>
<path d="M39.4401 16.4617H14.5312V12.5556C14.5312 10.4351 16.3594 8.64941 18.5304 8.64941H35.441C37.6119 8.64941 39.4401 10.4351 39.4401 12.5556V16.4617Z" fill="#34A853"/>
<path d="M39.4401 20.0656H14.5312V15.9142C14.5312 13.6605 16.3594 11.7627 18.5304 11.7627H35.441C37.6119 11.7627 39.4401 13.6605 39.4401 15.9142V20.0656Z" fill="#FBBC04"/>
<path d="M39.4401 23.5246H14.5312V19.3732C14.5312 17.1195 16.3594 15.2217 18.5304 15.2217H35.441C37.6119 15.2217 39.4401 17.1195 39.4401 19.3732V23.5246Z" fill="#EA4335"/>
<path d="M14.5312 17.4644L30.341 21.0358C32.1608 21.4822 34.2081 21.0358 35.6867 19.9197L39.4401 17.2412V25.6116C39.4401 27.7321 37.6203 29.4061 35.4592 29.4061H18.5121C16.351 29.4061 14.5312 27.7321 14.5312 25.6116V17.4644Z" fill="url(#paint0_linear_568_421)"/>
<path d="M48.4688 14.8765V8.43617H49.4582V11.1166H52.4715V8.43617H53.4519V14.8765H52.4715V12.0521H49.4582V14.8765H48.4688ZM56.8165 15.0204C56.3427 15.0204 55.926 14.9125 55.5662 14.6966C55.2064 14.4807 54.9246 14.1899 54.7207 13.8241C54.5168 13.4583 54.4148 13.0445 54.4148 12.5828C54.4148 12.127 54.5168 11.7163 54.7207 11.3505C54.9246 10.9787 55.2064 10.6849 55.5662 10.469C55.926 10.2531 56.3427 10.1452 56.8165 10.1452C57.2842 10.1452 57.698 10.2531 58.0578 10.469C58.4175 10.6849 58.6994 10.9787 58.9033 11.3505C59.1072 11.7163 59.2091 12.127 59.2091 12.5828C59.2091 13.0445 59.1072 13.4583 58.9033 13.8241C58.6994 14.1899 58.4175 14.4807 58.0578 14.6966C57.698 14.9125 57.2842 15.0204 56.8165 15.0204ZM56.8165 14.1299C57.0683 14.1299 57.3022 14.0699 57.5181 13.95C57.7339 13.8241 57.9078 13.6472 58.0398 13.4193C58.1777 13.1855 58.2466 12.9066 58.2466 12.5828C58.2466 12.259 58.1777 11.9831 58.0398 11.7553C57.9078 11.5214 57.7339 11.3445 57.5181 11.2246C57.3022 11.0986 57.0683 11.0357 56.8165 11.0357C56.5646 11.0357 56.3278 11.0986 56.1059 11.2246C55.89 11.3445 55.7131 11.5214 55.5752 11.7553C55.4432 11.9831 55.3773 12.259 55.3773 12.5828C55.3773 12.9066 55.4432 13.1855 55.5752 13.4193C55.7131 13.6472 55.89 13.8241 56.1059 13.95C56.3278 14.0699 56.5646 14.1299 56.8165 14.1299ZM59.7821 14.8765V14.067L62.3367 11.1346H59.8631V10.2891H63.524V11.0986L60.9785 14.031H63.596V14.8765H59.7821ZM64.2708 14.8765V14.067L66.8253 11.1346H64.3517V10.2891H68.0126V11.0986L65.4671 14.031H68.0846V14.8765H64.2708ZM70.3449 15.0204C70.0149 15.0204 69.7208 14.9574 69.4634 14.8315C69.2054 14.6996 69.0044 14.5167 68.8604 14.2828C68.7165 14.049 68.6446 13.7821 68.6446 13.4823C68.6446 13.1585 68.7285 12.8826 68.8964 12.6548C69.0703 12.4209 69.3015 12.244 69.5894 12.1241C69.8772 12.0042 70.1948 11.9442 70.5428 11.9442C70.8307 11.9442 71.0825 11.9711 71.2984 12.0251C71.5198 12.0791 71.6879 12.136 71.8021 12.196V11.9532C71.8021 11.6534 71.6942 11.4135 71.4783 11.2336C71.2624 11.0537 70.9836 10.9637 70.6418 10.9637C70.4079 10.9637 70.1858 11.0177 69.9762 11.1256C69.7658 11.2276 69.5984 11.3685 69.4724 11.5484L68.8065 11.0357C69.0044 10.7598 69.2656 10.5439 69.5894 10.3881C69.9187 10.2261 70.2785 10.1452 70.6688 10.1452C71.3344 10.1452 71.8471 10.3101 72.2069 10.6399C72.5667 10.9637 72.7466 11.4195 72.7466 12.0071V14.8765H71.8021V14.3098H71.7481C71.6277 14.4957 71.4478 14.6606 71.2084 14.8045C70.9684 14.9484 70.6805 15.0204 70.3449 15.0204ZM70.5158 14.2289C70.7677 14.2289 70.9891 14.1689 71.1815 14.049C71.3731 13.9291 71.5233 13.7731 71.6312 13.5812C71.7447 13.3833 71.8021 13.1704 71.8021 12.9426C71.6637 12.8646 71.5018 12.8017 71.3164 12.7537C71.1303 12.6997 70.9324 12.6727 70.7227 12.6727C70.327 12.6727 70.0447 12.7537 69.8772 12.9156C69.7091 13.0715 69.6254 13.2634 69.6254 13.4913C69.6254 13.7072 69.7063 13.8841 69.8682 14.022C70.0301 14.1599 70.246 14.2289 70.5158 14.2289ZM70.309 9.40761L70.7317 8.25627H71.8291L71.1095 9.40761H70.309ZM75.2112 15.0204C74.8811 15.0204 74.5871 14.9574 74.3297 14.8315C74.0716 14.6996 73.8709 14.5167 73.727 14.2828C73.5831 14.049 73.5111 13.7821 73.5111 13.4823C73.5111 13.1585 73.5949 12.8826 73.763 12.6548C73.9367 12.4209 74.1678 12.244 74.4556 12.1241C74.7434 12.0042 75.061 11.9442 75.409 11.9442C75.6969 11.9442 75.9487 11.9711 76.1646 12.0251C76.386 12.0791 76.5542 12.136 76.6683 12.196V11.9532C76.6683 11.6534 76.5604 11.4135 76.3445 11.2336C76.1286 11.0537 75.8498 10.9637 75.508 10.9637C75.2741 10.9637 75.052 11.0177 74.8424 11.1256C74.632 11.2276 74.4646 11.3685 74.3387 11.5484L73.673 11.0357C73.8709 10.7598 74.1318 10.5439 74.4556 10.3881C74.7849 10.2261 75.1447 10.1452 75.535 10.1452C76.2006 10.1452 76.7133 10.3101 77.0731 10.6399C77.4329 10.9637 77.6128 11.4195 77.6128 12.0071V14.8765H76.6683V14.3098H76.6144C76.494 14.4957 76.3141 14.6606 76.0747 14.8045C75.8346 14.9484 75.5467 15.0204 75.2112 15.0204ZM75.3821 14.2289C75.6339 14.2289 75.8553 14.1689 76.0477 14.049C76.2393 13.9291 76.3895 13.7731 76.4974 13.5812C76.6109 13.3833 76.6683 13.1704 76.6683 12.9426C76.5299 12.8646 76.368 12.8017 76.1826 12.7537C75.9965 12.6997 75.7986 12.6727 75.5889 12.6727C75.1932 12.6727 74.9109 12.7537 74.7434 12.9156C74.5753 13.0715 74.4916 13.2634 74.4916 13.4913C74.4916 13.7072 74.5725 13.8841 74.7344 14.022C74.8963 14.1599 75.1122 14.2289 75.3821 14.2289ZM80.5991 15.0204C80.1853 15.0204 79.8103 14.9185 79.4747 14.7146C79.1447 14.5047 78.8811 14.2169 78.6832 13.8511C78.4915 13.4793 78.3953 13.0566 78.3953 12.5828C78.3953 12.109 78.4915 11.6893 78.6832 11.3235C78.8811 10.9577 79.1447 10.6699 79.4747 10.46C79.8103 10.2502 80.1853 10.1452 80.5991 10.1452C80.9526 10.1452 81.2557 10.2232 81.5076 10.3791C81.7656 10.5349 81.9545 10.7119 82.0742 10.9098H82.1282L82.0742 10.2711V8.43617H83.0367V14.8765H82.1282V14.2648H82.0742C81.9545 14.4627 81.7656 14.6396 81.5076 14.7955C81.2557 14.9455 80.9526 15.0204 80.5991 15.0204ZM80.743 14.1299C80.9831 14.1299 81.208 14.067 81.4176 13.941C81.6335 13.8151 81.8044 13.6382 81.9303 13.4103C82.0625 13.1765 82.1282 12.9006 82.1282 12.5828C82.1282 12.265 82.0625 11.9921 81.9303 11.7643C81.8044 11.5304 81.6335 11.3505 81.4176 11.2246C81.208 11.0986 80.9831 11.0357 80.743 11.0357C80.5029 11.0357 80.278 11.0986 80.0684 11.2246C79.8587 11.3505 79.6878 11.5304 79.5557 11.7643C79.4235 11.9921 79.3578 12.265 79.3578 12.5828C79.3578 12.9006 79.4235 13.1765 79.5557 13.4103C79.6878 13.6382 79.8587 13.8151 80.0684 13.941C80.278 14.067 80.5029 14.1299 80.743 14.1299ZM85.576 15.0204C85.2467 15.0204 84.9526 14.9574 84.6945 14.8315C84.4371 14.6996 84.2358 14.5167 84.0919 14.2828C83.9479 14.049 83.876 13.7821 83.876 13.4823C83.876 13.1585 83.9604 12.8826 84.1278 12.6548C84.3022 12.4209 84.5326 12.244 84.8204 12.1241C85.1083 12.0042 85.4266 11.9442 85.7739 11.9442C86.0617 11.9442 86.3136 11.9711 86.5295 12.0251C86.7516 12.0791 86.9197 12.136 87.0332 12.196V11.9532C87.0332 11.6534 86.9252 11.4135 86.7094 11.2336C86.4935 11.0537 86.2146 10.9637 85.8728 10.9637C85.639 10.9637 85.4176 11.0177 85.2072 11.1256C84.9976 11.2276 84.8294 11.3685 84.7035 11.5484L84.0379 11.0357C84.2358 10.7598 84.4966 10.5439 84.8204 10.3881C85.1505 10.2261 85.5103 10.1452 85.8998 10.1452C86.5654 10.1452 87.0782 10.3101 87.4379 10.6399C87.7977 10.9637 87.9776 11.4195 87.9776 12.0071V14.8765H87.0332V14.3098H86.9792C86.8595 14.4957 86.6796 14.6606 86.4395 14.8045C86.2001 14.9484 85.9123 15.0204 85.576 15.0204ZM85.7469 14.2289C85.9988 14.2289 86.2209 14.1689 86.4125 14.049C86.6049 13.9291 86.7543 13.7731 86.8623 13.5812C86.9764 13.3833 87.0332 13.1704 87.0332 12.9426C86.8955 12.8646 86.7336 12.8017 86.5475 12.7537C86.362 12.6997 86.1641 12.6727 85.9538 12.6727C85.558 12.6727 85.2764 12.7537 85.1083 12.9156C84.9408 13.0715 84.8564 13.2634 84.8564 13.4913C84.8564 13.7072 84.9374 13.8841 85.0993 14.022C85.2612 14.1599 85.4771 14.2289 85.7469 14.2289ZM85.54 9.40761L85.9628 8.25627H87.0602L86.3406 9.40761H85.54ZM90.6761 15.0204C90.1246 15.0204 89.6839 14.9005 89.3539 14.6606C89.0245 14.4148 88.7962 14.1239 88.6702 13.7881L89.5427 13.4103C89.6507 13.6562 89.807 13.8451 90.0105 13.977C90.2146 14.1029 90.4457 14.1659 90.7031 14.1659C90.9432 14.1659 91.1501 14.1239 91.3237 14.04C91.4981 13.95 91.5846 13.8061 91.5846 13.6082C91.5846 13.4163 91.4981 13.2754 91.3237 13.1855C91.1501 13.0955 90.9342 13.0175 90.6761 12.9516L90.1274 12.8257C89.906 12.7717 89.6991 12.6878 89.5068 12.5738C89.3151 12.4598 89.1594 12.313 89.039 12.1331C88.9193 11.9471 88.8591 11.7313 88.8591 11.4854C88.8591 11.2156 88.9401 10.9817 89.102 10.7838C89.2639 10.5799 89.477 10.424 89.7406 10.3161C90.0105 10.2021 90.3018 10.1452 90.6131 10.1452C91.0393 10.1452 91.4109 10.2291 91.7285 10.397C92.0523 10.559 92.2896 10.8048 92.4391 11.1346L91.6026 11.5124C91.4946 11.3085 91.3542 11.1676 91.1798 11.0897C91.0124 11.0057 90.8262 10.9637 90.6221 10.9637C90.3945 10.9637 90.2028 11.0117 90.0465 11.1076C89.897 11.2036 89.8216 11.3235 89.8216 11.4674C89.8216 11.6233 89.888 11.7463 90.0195 11.8362C90.1578 11.9262 90.3253 11.9981 90.5232 12.0521L91.1888 12.214C91.6448 12.328 91.9866 12.5018 92.2142 12.7357C92.4425 12.9636 92.556 13.2424 92.556 13.5722C92.556 13.8661 92.4723 14.1239 92.3042 14.3458C92.1367 14.5617 91.9084 14.7296 91.6206 14.8495C91.339 14.9635 91.0241 15.0204 90.6761 15.0204ZM96.9427 15.0204C96.6127 15.0204 96.3193 14.9574 96.0613 14.8315C95.8032 14.6996 95.6025 14.5167 95.4586 14.2828C95.3147 14.049 95.2427 13.7821 95.2427 13.4823C95.2427 13.1585 95.3264 12.8826 95.4946 12.6548C95.6682 12.4209 95.8993 12.244 96.1872 12.1241C96.475 12.0042 96.7926 11.9442 97.1406 11.9442C97.4285 11.9442 97.6803 11.9711 97.8962 12.0251C98.1183 12.0791 98.2857 12.136 98.3999 12.196V11.9532C98.3999 11.6534 98.292 11.4135 98.0761 11.2336C97.8602 11.0537 97.5814 10.9637 97.2396 10.9637C97.0057 10.9637 96.7836 11.0177 96.574 11.1256C96.3643 11.2276 96.1962 11.3685 96.0702 11.5484L95.4046 11.0357C95.6025 10.7598 95.8634 10.5439 96.1872 10.3881C96.5172 10.2261 96.877 10.1452 97.2666 10.1452C97.9322 10.1452 98.4449 10.3101 98.8047 10.6399C99.1645 10.9637 99.3444 11.4195 99.3444 12.0071V14.8765H98.3999V14.3098H98.3459C98.2262 14.4957 98.0463 14.6606 97.8062 14.8045C97.5662 14.9484 97.2783 15.0204 96.9427 15.0204ZM97.1136 14.2289C97.3655 14.2289 97.5876 14.1689 97.7793 14.049C97.9709 13.9291 98.1211 13.7731 98.229 13.5812C98.3432 13.3833 98.3999 13.1704 98.3999 12.9426C98.2622 12.8646 98.1003 12.8017 97.9142 12.7537C97.7281 12.6997 97.5302 12.6727 97.3205 12.6727C96.9248 12.6727 96.6431 12.7537 96.475 12.9156C96.3069 13.0715 96.2232 13.2634 96.2232 13.4913C96.2232 13.7072 96.3041 13.8841 96.466 14.022C96.6279 14.1599 96.8438 14.2289 97.1136 14.2289ZM102.513 14.8765V8.43617H103.485V12.232L105.428 10.2891H106.633V10.3431L104.861 12.0971L106.696 14.8225V14.8765H105.545L104.177 12.7717L103.485 13.4553V14.8765H102.513ZM109.327 15.0204C108.854 15.0204 108.437 14.9125 108.077 14.6966C107.717 14.4807 107.436 14.1899 107.231 13.8241C107.028 13.4583 106.926 13.0445 106.926 12.5828C106.926 12.127 107.028 11.7163 107.231 11.3505C107.436 10.9787 107.717 10.6849 108.077 10.469C108.437 10.2531 108.854 10.1452 109.327 10.1452C109.795 10.1452 110.209 10.2531 110.569 10.469C110.928 10.6849 111.211 10.9787 111.414 11.3505C111.618 11.7163 111.72 12.127 111.72 12.5828C111.72 13.0445 111.618 13.4583 111.414 13.8241C111.211 14.1899 110.928 14.4807 110.569 14.6966C110.209 14.9125 109.795 15.0204 109.327 15.0204ZM109.327 14.1299C109.579 14.1299 109.813 14.0699 110.029 13.95C110.245 13.8241 110.419 13.6472 110.551 13.4193C110.689 13.1855 110.757 12.9066 110.757 12.5828C110.757 12.259 110.689 11.9831 110.551 11.7553C110.419 11.5214 110.245 11.3445 110.029 11.2246C109.813 11.0986 109.579 11.0357 109.327 11.0357C109.075 11.0357 108.839 11.0986 108.617 11.2246C108.401 11.3445 108.224 11.5214 108.086 11.7553C107.955 11.9831 107.888 12.259 107.888 12.5828C107.888 12.9066 107.955 13.1855 108.086 13.4193C108.224 13.6472 108.401 13.8241 108.617 13.95C108.839 14.0699 109.075 14.1299 109.327 14.1299ZM110.119 9.35364C109.969 9.35364 109.837 9.29967 109.723 9.19174C109.615 9.07778 109.561 8.94286 109.561 8.78697C109.561 8.63108 109.615 8.50211 109.723 8.40019C109.837 8.29225 109.969 8.23828 110.119 8.23828C110.281 8.23828 110.416 8.29225 110.524 8.40019C110.632 8.50211 110.686 8.63108 110.686 8.78697C110.686 8.94286 110.632 9.07778 110.524 9.19174C110.416 9.29967 110.281 9.35364 110.119 9.35364ZM108.527 9.35364C108.377 9.35364 108.245 9.29967 108.131 9.19174C108.023 9.07778 107.969 8.94286 107.969 8.78697C107.969 8.63108 108.023 8.50211 108.131 8.40019C108.245 8.29225 108.377 8.23828 108.527 8.23828C108.689 8.23828 108.821 8.29225 108.923 8.40019C109.03 8.50211 109.084 8.63108 109.084 8.78697C109.084 8.94286 109.03 9.07778 108.923 9.19174C108.821 9.29967 108.689 9.35364 108.527 9.35364ZM113.877 14.8765L111.979 10.2891H113.059L114.345 13.6262H114.39L115.703 10.2891H116.765L114.849 14.8765H113.877ZM119.357 15.0204C118.908 15.0204 118.506 14.9154 118.152 14.7056C117.798 14.4957 117.52 14.2079 117.315 13.8421C117.118 13.4763 117.019 13.0595 117.019 12.5918C117.019 12.154 117.115 11.7493 117.306 11.3775C117.499 11.0057 117.765 10.7089 118.107 10.487C118.455 10.2591 118.854 10.1452 119.303 10.1452C119.777 10.1452 120.179 10.2471 120.509 10.451C120.845 10.6549 121.099 10.9338 121.273 11.2875C121.448 11.6413 121.534 12.0401 121.534 12.4839C121.534 12.5498 121.531 12.6098 121.525 12.6638C121.525 12.7177 121.522 12.7597 121.516 12.7897H117.972C118.02 13.2454 118.179 13.5872 118.449 13.8151C118.725 14.0429 119.037 14.1569 119.384 14.1569C119.696 14.1569 119.954 14.0879 120.158 13.95C120.362 13.8061 120.524 13.6292 120.644 13.4193L121.444 13.8061C121.246 14.1659 120.976 14.4597 120.635 14.6876C120.293 14.9095 119.867 15.0204 119.357 15.0204ZM119.312 10.9727C118.988 10.9727 118.713 11.0717 118.485 11.2695C118.257 11.4674 118.104 11.7313 118.026 12.0611H120.572C120.56 11.9052 120.509 11.7433 120.419 11.5754C120.329 11.4074 120.191 11.2666 120.005 11.1526C119.825 11.0327 119.595 10.9727 119.312 10.9727ZM122.789 13.5452V11.1346H121.989V10.2891H122.789V8.99385H123.761V10.2891H124.885V11.1346H123.761V13.3384C123.761 13.5662 123.806 13.7402 123.896 13.8601C123.992 13.98 124.151 14.04 124.372 14.04C124.486 14.04 124.583 14.025 124.66 13.995C124.744 13.965 124.828 13.923 124.912 13.8691V14.8135C124.81 14.8555 124.702 14.8885 124.588 14.9125C124.475 14.9365 124.34 14.9484 124.183 14.9484C123.758 14.9484 123.419 14.8255 123.167 14.5797C122.915 14.3278 122.789 13.983 122.789 13.5452ZM125.861 14.8765V8.43617H126.833V12.232L128.776 10.2891H129.981V10.3431L128.209 12.0971L130.044 14.8225V14.8765H128.892L127.525 12.7717L126.833 13.4553V14.8765H125.861ZM132.612 15.0204C132.162 15.0204 131.761 14.9154 131.407 14.7056C131.053 14.4957 130.774 14.2079 130.57 13.8421C130.372 13.4763 130.274 13.0595 130.274 12.5918C130.274 12.154 130.37 11.7493 130.561 11.3775C130.754 11.0057 131.02 10.7089 131.362 10.487C131.71 10.2591 132.109 10.1452 132.558 10.1452C133.032 10.1452 133.434 10.2471 133.764 10.451C134.1 10.6549 134.354 10.9338 134.528 11.2875C134.702 11.6413 134.789 12.0401 134.789 12.4839C134.789 12.5498 134.786 12.6098 134.78 12.6638C134.78 12.7177 134.777 12.7597 134.771 12.7897H131.227C131.275 13.2454 131.434 13.5872 131.704 13.8151C131.98 14.0429 132.292 14.1569 132.639 14.1569C132.951 14.1569 133.209 14.0879 133.413 13.95C133.617 13.8061 133.779 13.6292 133.898 13.4193L134.699 13.8061C134.501 14.1659 134.231 14.4597 133.889 14.6876C133.548 14.9095 133.122 15.0204 132.612 15.0204ZM132.567 10.9727C132.243 10.9727 131.968 11.0717 131.74 11.2695C131.512 11.4674 131.359 11.7313 131.281 12.0611H133.827C133.815 11.9052 133.764 11.7433 133.674 11.5754C133.584 11.4074 133.446 11.2666 133.26 11.1526C133.08 11.0327 132.85 10.9727 132.567 10.9727ZM135.412 14.8765V14.067L137.967 11.1346H135.493V10.2891H139.154V11.0986L136.609 14.031H139.226V14.8765H135.412ZM142.206 15.0204C141.732 15.0204 141.316 14.9125 140.956 14.6966C140.596 14.4807 140.315 14.1899 140.11 13.8241C139.906 13.4583 139.805 13.0445 139.805 12.5828C139.805 12.127 139.906 11.7163 140.11 11.3505C140.315 10.9787 140.596 10.6849 140.956 10.469C141.316 10.2531 141.732 10.1452 142.206 10.1452C142.674 10.1452 143.088 10.2531 143.448 10.469C143.807 10.6849 144.089 10.9787 144.293 11.3505C144.497 11.7163 144.599 12.127 144.599 12.5828C144.599 13.0445 144.497 13.4583 144.293 13.8241C144.089 14.1899 143.807 14.4807 143.448 14.6966C143.088 14.9125 142.674 15.0204 142.206 15.0204ZM142.206 14.1299C142.458 14.1299 142.692 14.0699 142.908 13.95C143.124 13.8241 143.297 13.6472 143.43 13.4193C143.567 13.1855 143.636 12.9066 143.636 12.5828C143.636 12.259 143.567 11.9831 143.43 11.7553C143.297 11.5214 143.124 11.3445 142.908 11.2246C142.692 11.0986 142.458 11.0357 142.206 11.0357C141.954 11.0357 141.718 11.0986 141.496 11.2246C141.28 11.3445 141.103 11.5214 140.965 11.7553C140.833 11.9831 140.767 12.259 140.767 12.5828C140.767 12.9066 140.833 13.1855 140.965 13.4193C141.103 13.6472 141.28 13.8241 141.496 13.95C141.718 14.0699 141.954 14.1299 142.206 14.1299ZM141.01 9.40761L141.433 8.25627H142.53L141.81 9.40761H141.01ZM142.611 9.40761L143.034 8.25627H144.131L143.412 9.40761H142.611ZM145.449 14.8765V8.43617H146.421V10.1992L146.367 10.9187H146.421C146.547 10.6969 146.739 10.514 146.996 10.3701C147.261 10.2201 147.551 10.1452 147.869 10.1452C148.439 10.1452 148.867 10.3161 149.155 10.6579C149.443 10.9937 149.587 11.4344 149.587 11.9801V14.8765H148.624V12.1061C148.624 11.7343 148.526 11.4645 148.328 11.2965C148.136 11.1227 147.899 11.0357 147.617 11.0357C147.383 11.0357 147.176 11.1016 146.996 11.2336C146.816 11.3655 146.676 11.5394 146.574 11.7553C146.472 11.9651 146.421 12.19 146.421 12.4299V14.8765H145.449ZM152.853 15.0204C152.379 15.0204 151.962 14.9125 151.602 14.6966C151.243 14.4807 150.96 14.1899 150.757 13.8241C150.553 13.4583 150.451 13.0445 150.451 12.5828C150.451 12.127 150.553 11.7163 150.757 11.3505C150.96 10.9787 151.243 10.6849 151.602 10.469C151.962 10.2531 152.379 10.1452 152.853 10.1452C153.32 10.1452 153.734 10.2531 154.094 10.469C154.454 10.6849 154.735 10.9787 154.94 11.3505C155.143 11.7163 155.245 12.127 155.245 12.5828C155.245 13.0445 155.143 13.4583 154.94 13.8241C154.735 14.1899 154.454 14.4807 154.094 14.6966C153.734 14.9125 153.32 15.0204 152.853 15.0204ZM152.853 14.1299C153.105 14.1299 153.338 14.0699 153.554 13.95C153.77 13.8241 153.944 13.6472 154.076 13.4193C154.214 13.1855 154.283 12.9066 154.283 12.5828C154.283 12.259 154.214 11.9831 154.076 11.7553C153.944 11.5214 153.77 11.3445 153.554 11.2246C153.338 11.0986 153.105 11.0357 152.853 11.0357C152.601 11.0357 152.364 11.0986 152.142 11.2246C151.926 11.3445 151.749 11.5214 151.611 11.7553C151.479 11.9831 151.414 12.259 151.414 12.5828C151.414 12.9066 151.479 13.1855 151.611 13.4193C151.749 13.6472 151.926 13.8241 152.142 13.95C152.364 14.0699 152.601 14.1299 152.853 14.1299ZM153.644 9.35364C153.494 9.35364 153.362 9.29967 153.248 9.19174C153.141 9.07778 153.087 8.94286 153.087 8.78697C153.087 8.63108 153.141 8.50211 153.248 8.40019C153.362 8.29225 153.494 8.23828 153.644 8.23828C153.806 8.23828 153.941 8.29225 154.049 8.40019C154.157 8.50211 154.211 8.63108 154.211 8.78697C154.211 8.94286 154.157 9.07778 154.049 9.19174C153.941 9.29967 153.806 9.35364 153.644 9.35364ZM152.052 9.35364C151.902 9.35364 151.77 9.29967 151.656 9.19174C151.548 9.07778 151.494 8.94286 151.494 8.78697C151.494 8.63108 151.548 8.50211 151.656 8.40019C151.77 8.29225 151.902 8.23828 152.052 8.23828C152.214 8.23828 152.346 8.29225 152.448 8.40019C152.556 8.50211 152.61 8.63108 152.61 8.78697C152.61 8.94286 152.556 9.07778 152.448 9.19174C152.346 9.29967 152.214 9.35364 152.052 9.35364ZM155.818 14.8765V14.067L158.373 11.1346H155.899V10.2891H159.56V11.0986L157.015 14.031H159.632V14.8765H155.818Z" fill="white"/>
<path d="M52.6805 28.9029C52.0766 28.9029 51.5082 28.793 50.9749 28.5735C50.4495 28.354 49.9829 28.0481 49.5752 27.656C49.1674 27.2561 48.8459 26.7895 48.6106 26.2563C48.3832 25.7152 48.2695 25.131 48.2695 24.5037C48.2695 23.8763 48.3832 23.2961 48.6106 22.7628C48.8459 22.2217 49.1635 21.7552 49.5634 21.3631C49.9712 20.9632 50.4417 20.6534 50.9749 20.4338C51.5082 20.2143 52.0766 20.1045 52.6805 20.1045C53.3235 20.1045 53.9155 20.2182 54.4566 20.4456C55.0055 20.673 55.4642 20.9906 55.8328 21.3984L54.9389 22.2806C54.6644 21.9747 54.335 21.7395 53.9508 21.5748C53.5744 21.4101 53.151 21.3278 52.6805 21.3278C52.1237 21.3278 51.6101 21.4611 51.1396 21.7277C50.6691 21.9865 50.2887 22.3551 49.9986 22.8334C49.7163 23.3039 49.5752 23.8607 49.5752 24.5037C49.5752 25.1467 49.7203 25.7074 50.0104 26.1857C50.3005 26.6562 50.6808 27.0248 51.1513 27.2914C51.6218 27.5502 52.1355 27.6796 52.6922 27.6796C53.202 27.6796 53.6646 27.5854 54.0802 27.3972C54.4958 27.2012 54.8291 26.9267 55.08 26.5739C55.3388 26.221 55.4957 25.7975 55.5505 25.3035H52.6687V24.1626H56.7621C56.8091 24.3743 56.8326 24.5978 56.8326 24.833V24.8448C56.8326 25.6603 56.6523 26.3739 56.2916 26.9856C55.9387 27.5894 55.4486 28.0599 54.8213 28.3971C54.1939 28.7342 53.4803 28.9029 52.6805 28.9029ZM60.6201 28.9029C60.0006 28.9029 59.4556 28.7617 58.9851 28.4794C58.5146 28.1971 58.146 27.8168 57.8794 27.3384C57.6128 26.8601 57.4795 26.319 57.4795 25.7152C57.4795 25.1193 57.6128 24.5821 57.8794 24.1037C58.146 23.6175 58.5146 23.2333 58.9851 22.951C59.4556 22.6687 60.0006 22.5276 60.6201 22.5276C61.2317 22.5276 61.7728 22.6687 62.2433 22.951C62.7138 23.2333 63.0823 23.6175 63.349 24.1037C63.6156 24.5821 63.7489 25.1193 63.7489 25.7152C63.7489 26.319 63.6156 26.8601 63.349 27.3384C63.0823 27.8168 62.7138 28.1971 62.2433 28.4794C61.7728 28.7617 61.2317 28.9029 60.6201 28.9029ZM60.6201 27.7384C60.9494 27.7384 61.2553 27.66 61.5376 27.5031C61.8199 27.3384 62.0472 27.1071 62.2198 26.8091C62.4001 26.5033 62.4903 26.1387 62.4903 25.7152C62.4903 25.2918 62.4001 24.9311 62.2198 24.6331C62.0472 24.3272 61.8199 24.0959 61.5376 23.9391C61.2553 23.7744 60.9494 23.6921 60.6201 23.6921C60.2907 23.6921 59.981 23.7744 59.6909 23.9391C59.4086 24.0959 59.1772 24.3272 58.9969 24.6331C58.8243 24.9311 58.7381 25.2918 58.7381 25.7152C58.7381 26.1387 58.8243 26.5033 58.9969 26.8091C59.1772 27.1071 59.4086 27.3384 59.6909 27.5031C59.981 27.66 60.2907 27.7384 60.6201 27.7384ZM67.7419 28.9029C67.1224 28.9029 66.5774 28.7617 66.1069 28.4794C65.6364 28.1971 65.2679 27.8168 65.0012 27.3384C64.7346 26.8601 64.6013 26.319 64.6013 25.7152C64.6013 25.1193 64.7346 24.5821 65.0012 24.1037C65.2679 23.6175 65.6364 23.2333 66.1069 22.951C66.5774 22.6687 67.1224 22.5276 67.7419 22.5276C68.3535 22.5276 68.8946 22.6687 69.3652 22.951C69.8357 23.2333 70.2045 23.6175 70.4709 24.1037C70.7373 24.5821 70.8709 25.1193 70.8709 25.7152C70.8709 26.319 70.7373 26.8601 70.4709 27.3384C70.2045 27.8168 69.8357 28.1971 69.3652 28.4794C68.8946 28.7617 68.3535 28.9029 67.7419 28.9029ZM67.7419 27.7384C68.0712 27.7384 68.3771 27.66 68.6594 27.5031C68.9417 27.3384 69.1691 27.1071 69.3417 26.8091C69.5223 26.5033 69.6123 26.1387 69.6123 25.7152C69.6123 25.2918 69.5223 24.9311 69.3417 24.6331C69.1691 24.3272 68.9417 24.0959 68.6594 23.9391C68.3771 23.7744 68.0712 23.6921 67.7419 23.6921C67.4125 23.6921 67.1028 23.7744 66.8126 23.9391C66.5303 24.0959 66.299 24.3272 66.1187 24.6331C65.9462 24.9311 65.8599 25.2918 65.8599 25.7152C65.8599 26.1387 65.9462 26.5033 66.1187 26.8091C66.299 27.1071 66.5303 27.3384 66.8126 27.5031C67.1028 27.66 67.4125 27.7384 67.7419 27.7384ZM74.7463 31.4436C74.2204 31.4436 73.7658 31.3573 73.3818 31.1848C73.0054 31.0201 72.6996 30.8044 72.4643 30.5378C72.2291 30.2791 72.0602 30.0125 71.9585 29.738L73.1348 29.244C73.26 29.5576 73.46 29.8125 73.7347 30.0085C74.017 30.2124 74.3539 30.3144 74.7463 30.3144C75.2949 30.3144 75.726 30.1497 76.0401 29.8203C76.3612 29.491 76.5224 29.0244 76.5224 28.4206V27.8442H76.4518C76.2636 28.1265 76.0007 28.354 75.6637 28.5265C75.3344 28.6911 74.958 28.7735 74.5345 28.7735C74.0246 28.7735 73.5582 28.6441 73.1348 28.3853C72.7113 28.1265 72.3702 27.7658 72.1114 27.3031C71.8527 26.8326 71.7233 26.2838 71.7233 25.6564C71.7233 25.0212 71.8527 24.4723 72.1114 24.0096C72.3702 23.5391 72.7113 23.1745 73.1348 22.9157C73.5582 22.657 74.0246 22.5276 74.5345 22.5276C74.958 22.5276 75.3344 22.6139 75.6637 22.7863C76.0007 22.9588 76.2636 23.1863 76.4518 23.4686H76.5224V22.7158H77.7339V28.3971C77.7339 29.0479 77.6045 29.6008 77.3458 30.0556C77.0946 30.5104 76.7459 30.8554 76.2989 31.0907C75.8519 31.3259 75.3344 31.4436 74.7463 31.4436ZM74.758 27.6207C75.0714 27.6207 75.3614 27.5462 75.6284 27.3972C75.8948 27.2404 76.1107 27.0169 76.2754 26.7268C76.4401 26.4288 76.5224 26.072 76.5224 25.6564C76.5224 25.2251 76.4401 24.8644 76.2754 24.5742C76.1107 24.2762 75.8948 24.0528 75.6284 23.9038C75.3614 23.7548 75.0714 23.6803 74.758 23.6803C74.4439 23.6803 74.1498 23.7587 73.8758 23.9155C73.6087 24.0645 73.3936 24.2841 73.2289 24.5742C73.0642 24.8644 72.9819 25.2251 72.9819 25.6564C72.9819 26.0798 73.0642 26.4405 73.2289 26.7385C73.3936 27.0287 73.6087 27.2483 73.8758 27.3972C74.1498 27.5462 74.4439 27.6207 74.758 27.6207ZM79.2319 28.7147V20.2927H80.5023V28.7147H79.2319ZM84.6828 28.9029C84.0947 28.9029 83.5695 28.7656 83.1066 28.4912C82.6444 28.2167 82.2798 27.8403 82.0127 27.362C81.7539 26.8836 81.6246 26.3386 81.6246 25.727C81.6246 25.1546 81.7505 24.6252 82.001 24.139C82.2521 23.6528 82.6008 23.2647 83.0478 22.9745C83.5031 22.6765 84.0241 22.5276 84.6122 22.5276C85.2322 22.5276 85.7573 22.6609 86.1884 22.9275C86.6278 23.1941 86.9613 23.5587 87.1882 24.0214C87.4159 24.4841 87.5293 25.0055 87.5293 25.5858C87.5293 25.6721 87.5259 25.7505 87.5176 25.8211C87.5176 25.8916 87.5141 25.9465 87.5058 25.9857H82.8714C82.9343 26.5817 83.1419 27.0287 83.4948 27.3267C83.856 27.6247 84.2635 27.7736 84.7181 27.7736C85.1263 27.7736 85.4633 27.6835 85.7297 27.5031C85.9967 27.3149 86.2085 27.0836 86.3648 26.8091L87.4117 27.3149C87.1529 27.7854 86.8001 28.1696 86.3531 28.4676C85.9061 28.7578 85.3498 28.9029 84.6828 28.9029ZM84.624 23.6097C84.2005 23.6097 83.8401 23.7391 83.5418 23.9979C83.2443 24.2567 83.0444 24.6017 82.942 25.033H86.2707C86.2555 24.8291 86.1884 24.6174 86.0708 24.3978C85.9532 24.1783 85.7733 23.9939 85.5297 23.845C85.2945 23.6881 84.9928 23.6097 84.624 23.6097ZM92.7 28.7147L90.4416 20.2927H91.8766L93.2175 25.7623L93.3587 26.4915H93.4293L93.6057 25.7623L95.2995 20.2927H96.5934L98.2166 25.7623L98.3931 26.4798H98.4636L98.6048 25.7623L99.9457 20.2927H101.369L99.1459 28.7147H97.7814L96.1699 23.1275L95.9817 22.3394H95.9112L95.7112 23.1275L94.0292 28.7147H92.7ZM103.731 28.9029C103.3 28.9029 102.915 28.8205 102.578 28.6558C102.241 28.4833 101.979 28.2441 101.79 27.9383C101.602 27.6325 101.508 27.2836 101.508 26.8915C101.508 26.468 101.618 26.1073 101.837 25.8093C102.065 25.5035 102.367 25.2722 102.743 25.1153C103.12 24.9585 103.535 24.8801 103.99 24.8801C104.366 24.8801 104.696 24.9154 104.978 24.9859C105.268 25.0565 105.488 25.131 105.637 25.2094V24.8918C105.637 24.4997 105.496 24.1861 105.213 23.9508C104.931 23.7156 104.566 23.598 104.119 23.598C103.813 23.598 103.524 23.6685 103.249 23.8097C102.974 23.943 102.755 24.1273 102.59 24.3625L101.72 23.6921C101.979 23.3314 102.32 23.0491 102.743 22.8452C103.174 22.6334 103.645 22.5276 104.155 22.5276C105.025 22.5276 105.695 22.7432 106.166 23.1745C106.636 23.598 106.872 24.1939 106.872 24.9624V28.7147H105.637V27.9736H105.566C105.409 28.2167 105.174 28.4323 104.86 28.6205C104.547 28.8087 104.171 28.9029 103.731 28.9029ZM103.955 27.8678C104.284 27.8678 104.574 27.7894 104.825 27.6325C105.076 27.4756 105.272 27.2718 105.413 27.0208C105.562 26.7621 105.637 26.4837 105.637 26.1857C105.456 26.0838 105.244 26.0015 105.002 25.9387C104.759 25.8681 104.5 25.8328 104.225 25.8328C103.708 25.8328 103.339 25.9387 103.12 26.1504C102.9 26.3543 102.79 26.6052 102.79 26.9032C102.79 27.1855 102.896 27.4168 103.108 27.5972C103.319 27.7776 103.602 27.8678 103.955 27.8678ZM108.282 28.7147V20.2927H109.552V28.7147H108.282ZM111.062 28.7147V20.2927H112.332V28.7147H111.062ZM116.513 28.9029C115.925 28.9029 115.4 28.7656 114.937 28.4912C114.474 28.2167 114.11 27.8403 113.843 27.362C113.584 26.8836 113.455 26.3386 113.455 25.727C113.455 25.1546 113.581 24.6252 113.831 24.139C114.082 23.6528 114.431 23.2647 114.878 22.9745C115.333 22.6765 115.854 22.5276 116.442 22.5276C117.062 22.5276 117.587 22.6609 118.018 22.9275C118.458 23.1941 118.791 23.5587 119.018 24.0214C119.246 24.4841 119.359 25.0055 119.359 25.5858C119.359 25.6721 119.356 25.7505 119.348 25.8211C119.348 25.8916 119.344 25.9465 119.336 25.9857H114.701C114.764 26.5817 114.972 27.0287 115.325 27.3267C115.686 27.6247 116.094 27.7736 116.548 27.7736C116.956 27.7736 117.293 27.6835 117.56 27.5031C117.827 27.3149 118.039 27.0836 118.195 26.8091L119.242 27.3149C118.983 27.7854 118.63 28.1696 118.183 28.4676C117.736 28.7578 117.18 28.9029 116.513 28.9029ZM116.454 23.6097C116.031 23.6097 115.67 23.7391 115.372 23.9979C115.074 24.2567 114.874 24.6017 114.772 25.033H118.101C118.086 24.8291 118.018 24.6174 117.901 24.3978C117.783 24.1783 117.603 23.9939 117.36 23.845C117.125 23.6881 116.823 23.6097 116.454 23.6097ZM121.001 26.9738V23.8214H119.954V22.7158H121.001V21.022H122.272V22.7158H123.742V23.8214H122.272V26.7033C122.272 27.0013 122.33 27.2286 122.448 27.3855C122.573 27.5423 122.781 27.6207 123.071 27.6207C123.22 27.6207 123.345 27.6012 123.448 27.5619C123.557 27.5227 123.667 27.4678 123.777 27.3972V28.6323C123.644 28.6872 123.503 28.7304 123.354 28.7617C123.204 28.793 123.028 28.8088 122.824 28.8088C122.267 28.8088 121.825 28.648 121.495 28.3265C121.166 27.9971 121.001 27.5462 121.001 26.9738Z" fill="white"/>
<path d="M154.644 0.345703H19.0293C8.71171 0.345703 0.347656 8.70976 0.347656 19.0273C0.347656 29.3449 8.71171 37.709 19.0293 37.709H154.644C164.962 37.709 173.326 29.3449 173.326 19.0273C173.326 8.70976 164.962 0.345703 154.644 0.345703Z" stroke="#747775"/>
</g>
<defs>
<linearGradient id="paint0_linear_568_421" x1="25.7986" y1="23.5559" x2="12.9968" y2="38.5552" gradientUnits="userSpaceOnUse">
<stop stop-color="#4285F4"/>
<stop offset="1" stop-color="#1B74E8"/>
</linearGradient>
<clipPath id="clip0_568_421">
<rect width="173.67" height="38.0552" fill="white"/>
</clipPath>
</defs>
</svg>
