<svg width="174" height="48" viewBox="0 0 174 48" fill="none" xmlns="http://www.w3.org/2000/svg">
<g clip-path="url(#clip0_568_942)">
<path d="M149.672 0.436523H24.0008C10.9871 0.436523 0.4375 10.9862 0.4375 23.9998C0.4375 37.0134 10.9871 47.563 24.0008 47.563H149.672C162.685 47.563 173.235 37.0134 173.235 23.9998C173.235 10.9862 162.685 0.436523 149.672 0.436523Z" fill="#1F1F1F"/>
<path d="M49.7458 20.7629H18.3281V15.8361C18.3281 13.1615 20.634 10.9092 23.3722 10.9092H44.7017C47.4399 10.9092 49.7458 13.1615 49.7458 15.8361V20.7629Z" fill="#34A853"/>
<path d="M49.7458 25.3085H18.3281V20.0722C18.3281 17.2297 20.634 14.8359 23.3722 14.8359H44.7017C47.4399 14.8359 49.7458 17.2297 49.7458 20.0722V25.3085Z" fill="#FBBC04"/>
<path d="M49.7458 29.6718H18.3281V24.4355C18.3281 21.593 20.634 19.1992 23.3722 19.1992H44.7017C47.4399 19.1992 49.7458 21.593 49.7458 24.4355V29.6718Z" fill="#EA4335"/>
<path d="M18.3281 22.0276L38.269 26.5322C40.5644 27.0953 43.1467 26.5322 45.0116 25.1245L49.7458 21.7461V32.3037C49.7458 34.9783 47.4505 37.0898 44.7247 37.0898H23.3492C20.6234 37.0898 18.3281 34.9783 18.3281 32.3037V22.0276Z" fill="url(#paint0_linear_568_942)"/>
<path d="M62.3488 18.8993C61.9631 18.8993 61.653 18.7821 61.4185 18.5476C61.1916 18.3131 61.0781 18.003 61.0781 17.6173V12.6367H62.2694V16.5395C62.3299 16.5244 62.3942 16.5168 62.4622 16.5168C62.8026 16.5168 63.0825 16.6302 63.3018 16.8571C63.5211 17.0765 63.6308 17.3563 63.6308 17.6967C63.6308 18.0521 63.5098 18.3434 63.2678 18.5703C63.0258 18.7896 62.7194 18.8993 62.3488 18.8993ZM62.3601 18.1618C62.5039 18.1618 62.6173 18.1202 62.7005 18.037C62.7913 17.9463 62.8366 17.8328 62.8366 17.6967C62.8366 17.553 62.7913 17.4395 62.7005 17.3563C62.6173 17.2656 62.5039 17.2202 62.3601 17.2202C62.224 17.2202 62.1105 17.2656 62.0198 17.3563C61.9366 17.4395 61.895 17.553 61.895 17.6967C61.895 17.8328 61.9366 17.9463 62.0198 18.037C62.1105 18.1202 62.224 18.1618 62.3601 18.1618ZM65.1259 18.7631V14.8831C65.073 14.8907 65.0162 14.8944 64.9558 14.8944C64.6078 14.8944 64.3204 14.7847 64.0935 14.5654C63.8666 14.3385 63.7532 14.0549 63.7532 13.7145C63.7532 13.3665 63.8704 13.0792 64.1049 12.8523C64.3469 12.6254 64.6532 12.5119 65.0238 12.5119C65.402 12.5119 65.7046 12.6291 65.9315 12.8636C66.1659 13.0905 66.2832 13.3968 66.2832 13.7826V15.6659L66.2491 16.8798L66.5781 15.9722L67.5765 13.5103H68.2005L69.1989 15.9722L69.5166 16.8458L69.4939 15.6659V12.6367H70.6511V18.7631H69.3918L68.1551 15.734L67.8942 15.0192L67.6333 15.734L66.3966 18.7631H65.1259ZM65.0011 14.191C65.1373 14.191 65.2469 14.1494 65.3302 14.0662C65.4209 13.9754 65.4663 13.8582 65.4663 13.7145C65.4663 13.5784 65.4209 13.4687 65.3302 13.3855C65.2469 13.2947 65.1373 13.2493 65.0011 13.2493C64.865 13.2493 64.7516 13.2947 64.6608 13.3855C64.5775 13.4687 64.536 13.5784 64.536 13.7145C64.536 13.8582 64.5775 13.9754 64.6608 14.0662C64.7516 14.1494 64.865 14.191 65.0011 14.191ZM65.4382 11.8652V11.7858C65.5441 11.1807 65.8353 10.7004 66.3118 10.345C66.7807 9.9819 67.3556 9.80038 68.0363 9.80038C68.7245 9.80038 69.3069 9.9819 69.7834 10.345C70.2523 10.7004 70.5397 11.1807 70.6457 11.7858V11.8652H65.4382ZM66.6862 11.2072H69.3977C69.322 10.9954 69.1632 10.8252 68.9212 10.6967C68.6716 10.5681 68.3766 10.5038 68.0363 10.5038C67.7034 10.5038 67.416 10.5681 67.174 10.6967C66.9244 10.8252 66.7618 10.9954 66.6862 11.2072ZM69.5222 9.86758L69.4088 8.18848H70.5774L70.4639 9.86758H69.5222ZM73.2664 18.8879C72.8807 18.8879 72.563 18.7669 72.3134 18.5249C72.0638 18.2829 71.939 17.969 71.939 17.5832C71.939 17.2051 72.06 16.8949 72.3021 16.6529C72.5517 16.4109 72.8655 16.2899 73.2438 16.2899C73.2664 16.2899 73.2853 16.2899 73.3005 16.2899V14.8831C73.2399 14.8907 73.1794 14.8944 73.119 14.8944C72.771 14.8944 72.4836 14.7847 72.2567 14.5654C72.0298 14.3385 71.9164 14.0549 71.9164 13.7145C71.9164 13.3665 72.0373 13.0792 72.2794 12.8523C72.5214 12.6254 72.8277 12.5119 73.1984 12.5119C73.5841 12.5119 73.8904 12.6291 74.1173 12.8636C74.3442 13.0981 74.4577 13.4082 74.4577 13.7939V16.4941L76.4318 17.6286V12.6367H77.623V18.7631H76.5225L74.5938 17.6513C74.5787 18.0144 74.4463 18.3131 74.1968 18.5476C73.9547 18.7745 73.6446 18.8879 73.2664 18.8879ZM73.1757 14.191C73.3118 14.191 73.4214 14.1494 73.5047 14.0662C73.5955 13.9754 73.6408 13.8582 73.6408 13.7145C73.6408 13.5784 73.5955 13.4687 73.5047 13.3855C73.4214 13.2947 73.3118 13.2493 73.1757 13.2493C73.0395 13.2493 72.9261 13.2947 72.8353 13.3855C72.7521 13.4687 72.7105 13.5784 72.7105 13.7145C72.7105 13.8582 72.7521 13.9754 72.8353 14.0662C72.9261 14.1494 73.0395 14.191 73.1757 14.191ZM73.2664 18.1165C73.4101 18.1165 73.5311 18.0673 73.6295 17.969C73.7278 17.8706 73.777 17.7421 73.777 17.5832C73.777 17.4244 73.7278 17.2959 73.6295 17.1975C73.5311 17.0991 73.4101 17.05 73.2664 17.05C73.1151 17.05 72.9903 17.0991 72.892 17.1975C72.8013 17.2959 72.7559 17.4244 72.7559 17.5832C72.7559 17.7421 72.8013 17.8706 72.892 17.969C72.9903 18.0673 73.1151 18.1165 73.2664 18.1165ZM81.0406 18.8993C80.6548 18.8993 80.3448 18.7821 80.1103 18.5476C79.8758 18.3131 79.7586 18.003 79.7586 17.6173V13.1359C79.7586 12.8182 79.8077 12.527 79.906 12.2623C80.0119 11.99 80.1405 11.7367 80.2918 11.5022C80.443 11.2677 80.5944 11.0446 80.7456 10.8328C80.8968 10.621 81.0216 10.4206 81.12 10.2315C81.2259 10.0349 81.2788 9.84201 81.2788 9.65289C81.2788 9.48646 81.2372 9.35791 81.154 9.26715C81.0784 9.17639 80.9838 9.12725 80.8704 9.11966L79.7586 10.5492H78.953L77.7618 8.32549V8.21204H78.8623L79.4749 9.49406L80.4166 8.21204H80.8364C81.3129 8.21204 81.6759 8.35196 81.9255 8.63181C82.1827 8.9041 82.3112 9.24446 82.3112 9.65289C82.3112 9.98566 82.2432 10.292 82.107 10.5719C81.9709 10.8441 81.8121 11.1127 81.6305 11.3774C81.449 11.6421 81.2902 11.9182 81.154 12.2056C81.0179 12.4855 80.9498 12.7993 80.9498 13.1472V16.5395C81.0179 16.5244 81.086 16.5168 81.154 16.5168C81.4944 16.5168 81.7704 16.6302 81.9822 16.8571C82.2015 17.0765 82.3112 17.3563 82.3112 17.6967C82.3112 18.0521 82.1902 18.3434 81.9482 18.5703C81.7137 18.7896 81.4112 18.8993 81.0406 18.8993ZM81.0519 18.1618C81.1881 18.1618 81.3015 18.1202 81.3923 18.037C81.483 17.9463 81.5284 17.8328 81.5284 17.6967C81.5284 17.553 81.483 17.4395 81.3923 17.3563C81.3015 17.2656 81.1881 17.2202 81.0519 17.2202C80.9158 17.2202 80.8023 17.2656 80.7116 17.3563C80.6284 17.4395 80.5868 17.553 80.5868 17.6967C80.5868 17.8328 80.6284 17.9463 80.7116 18.037C80.8023 18.1202 80.9158 18.1618 81.0519 18.1618ZM83.8165 18.7631V14.8831C83.7636 14.8907 83.7106 14.8944 83.6577 14.8944C83.3098 14.8944 83.0223 14.7847 82.7954 14.5654C82.5685 14.3385 82.4551 14.0549 82.4551 13.7145C82.4551 13.3665 82.5761 13.0792 82.8181 12.8523C83.0602 12.6254 83.3665 12.5119 83.7371 12.5119C84.1228 12.5119 84.4291 12.6291 84.6561 12.8636C84.883 13.0981 84.9964 13.4082 84.9964 13.7939V17.7648H87.5039V10.5945H88.6951V18.7631H83.8165ZM83.7144 14.191C83.8505 14.191 83.9602 14.1494 84.0434 14.0662C84.1342 13.9754 84.1796 13.8582 84.1796 13.7145C84.1796 13.5784 84.1342 13.4687 84.0434 13.3855C83.9602 13.2947 83.8505 13.2493 83.7144 13.2493C83.5782 13.2493 83.4648 13.2947 83.374 13.3855C83.2909 13.4687 83.2492 13.5784 83.2492 13.7145C83.2492 13.8582 83.2909 13.9754 83.374 14.0662C83.4648 14.1494 83.5782 14.191 83.7144 14.191ZM90.4074 18.7631V17.016C90.4074 16.4411 90.6413 16.0781 91.1108 15.9268V15.8814C90.7931 15.7756 90.5322 15.5562 90.328 15.2234C90.1238 14.8907 90.0217 14.5238 90.0217 14.1229C90.0217 13.6464 90.1613 13.2607 90.4414 12.9657C90.7286 12.6707 91.0951 12.5232 91.5419 12.5232C91.9277 12.5232 92.2375 12.6329 92.4722 12.8523C92.714 13.0716 92.8353 13.3514 92.8353 13.6918C92.8353 14.0171 92.7332 14.2855 92.529 14.4973C92.3248 14.7015 92.056 14.8036 91.7235 14.8036C91.5192 14.8036 91.3447 14.7545 91.2016 14.6562C91.2696 14.8982 91.3866 15.0722 91.5533 15.178C91.7269 15.2764 91.9731 15.3255 92.2907 15.3255H93.1303V16.1991H92.4722C91.8823 16.1991 91.5873 16.4903 91.5873 17.0727V17.7648H94.2535V12.6367H95.4447V18.7631H90.4074ZM91.576 14.1683C91.7121 14.1683 91.8212 14.1267 91.905 14.0435C91.9957 13.9527 92.0411 13.8355 92.0411 13.6918C92.0411 13.5557 91.9957 13.446 91.905 13.3628C91.8212 13.272 91.7121 13.2267 91.576 13.2267C91.4398 13.2267 91.3264 13.272 91.2356 13.3628C91.1518 13.446 91.1108 13.5557 91.1108 13.6918C91.1108 13.8355 91.1518 13.9527 91.2356 14.0435C91.3264 14.1267 91.4398 14.1683 91.576 14.1683ZM94.4088 11.9446C93.7962 11.9446 93.3048 11.8236 92.9339 11.5816C92.563 11.3396 92.378 11.0143 92.378 10.6059C92.378 10.3033 92.4766 10.0576 92.673 9.86845C92.8693 9.67933 93.1233 9.58482 93.4331 9.58482C93.7359 9.58482 93.9855 9.67558 94.1819 9.8571C94.3783 10.031 94.4769 10.2542 94.4769 10.5265C94.4769 10.7761 94.394 10.9727 94.2273 11.1164C94.2805 11.124 94.3372 11.1278 94.3975 11.1278C95.1916 11.1278 95.7397 10.6816 96.0425 9.78903L97.0296 10.1861C96.8332 10.7534 96.5112 11.1883 96.0652 11.4908C95.6193 11.7934 95.0668 11.9446 94.4088 11.9446ZM93.4331 10.9689C93.5387 10.9689 93.6295 10.9312 93.7054 10.8555C93.7813 10.7798 93.8188 10.6853 93.8188 10.5719C93.8188 10.4584 93.7813 10.3676 93.7054 10.2996C93.6295 10.2239 93.5387 10.1861 93.4331 10.1861C93.3197 10.1861 93.2254 10.2239 93.1495 10.2996C93.0735 10.3676 93.036 10.4584 93.036 10.5719C93.036 10.6853 93.0735 10.7798 93.1495 10.8555C93.2254 10.9312 93.3197 10.9689 93.4331 10.9689ZM98.1641 18.7631L96.3942 14.815L97.5061 14.3839L98.9583 17.7648H99.934V14.8831C99.8816 14.8907 99.8284 14.8944 99.7751 14.8944C99.4199 14.8944 99.1284 14.7847 98.9015 14.5654C98.6746 14.3385 98.5612 14.0549 98.5612 13.7145C98.5612 13.3665 98.6825 13.0792 98.9242 12.8523C99.1668 12.6254 99.4732 12.5119 99.8432 12.5119C100.229 12.5119 100.535 12.6291 100.762 12.8636C100.989 13.0905 101.103 13.3968 101.103 13.7826V18.7631H98.1641ZM99.8205 14.191C99.9566 14.191 100.067 14.1494 100.15 14.0662C100.24 13.9754 100.286 13.8582 100.286 13.7145C100.286 13.5784 100.24 13.4687 100.15 13.3855C100.067 13.2947 99.9566 13.2493 99.8205 13.2493C99.6844 13.2493 99.5709 13.2947 99.4801 13.3855C99.3972 13.4687 99.3553 13.5784 99.3553 13.7145C99.3553 13.8582 99.3972 13.9754 99.4801 14.0662C99.5709 14.1494 99.6844 14.191 99.8205 14.191Z" fill="white"/>
<path d="M66.4503 36.4548C65.6887 36.4548 64.9716 36.3163 64.299 36.0394C63.6364 35.7625 63.0478 35.3768 62.5335 34.8822C62.0192 34.3778 61.6137 33.7893 61.317 33.1167C61.0301 32.4343 60.8867 31.6974 60.8867 30.9061C60.8867 30.1148 61.0301 29.383 61.317 28.7104C61.6137 28.0279 62.0143 27.4395 62.5187 26.9449C63.033 26.4405 63.6264 26.0497 64.299 25.7728C64.9716 25.4959 65.6887 25.3574 66.4503 25.3574C67.2613 25.3574 68.0081 25.5008 68.6905 25.7877C69.3828 26.0745 69.9615 26.4751 70.4264 26.9894L69.2988 28.1021C68.9526 27.7164 68.5372 27.4196 68.0526 27.2119C67.5778 27.0042 67.0437 26.9004 66.4503 26.9004C65.748 26.9004 65.1002 27.0686 64.5067 27.4048C63.9133 27.7312 63.4336 28.1961 63.0676 28.7994C62.7116 29.3928 62.5335 30.0951 62.5335 30.9061C62.5335 31.7171 62.7165 32.4244 63.0825 33.0277C63.4484 33.6211 63.9281 34.086 64.5216 34.4223C65.115 34.7487 65.7628 34.9119 66.4651 34.9119C67.108 34.9119 67.6915 34.7932 68.2158 34.5558C68.74 34.3086 69.1603 33.9624 69.4768 33.5173C69.8032 33.0722 70.0011 32.5381 70.0703 31.915H66.4354V30.4759H71.5984C71.6578 30.7429 71.6874 31.0248 71.6874 31.3215V31.3364C71.6874 32.3651 71.4599 33.2651 71.005 34.0366C70.5599 34.7982 69.9417 35.3916 69.1504 35.8169C68.3592 36.2422 67.4591 36.4548 66.4503 36.4548ZM76.4646 36.4548C75.6831 36.4548 74.9958 36.2768 74.4023 35.9207C73.8089 35.5647 73.344 35.0849 73.0078 34.4816C72.6714 33.8783 72.5033 33.1959 72.5033 32.4343C72.5033 31.6826 72.6714 31.005 73.0078 30.4017C73.344 29.7884 73.8089 29.3038 74.4023 28.9478C74.9958 28.5917 75.6831 28.4137 76.4646 28.4137C77.236 28.4137 77.9185 28.5917 78.512 28.9478C79.1054 29.3038 79.5702 29.7884 79.9066 30.4017C80.2428 31.005 80.411 31.6826 80.411 32.4343C80.411 33.1959 80.2428 33.8783 79.9066 34.4816C79.5702 35.0849 79.1054 35.5647 78.512 35.9207C77.9185 36.2768 77.236 36.4548 76.4646 36.4548ZM76.4646 34.9861C76.88 34.9861 77.2657 34.8872 77.6218 34.6893C77.9779 34.4816 78.2646 34.1899 78.4823 33.814C78.7097 33.4283 78.8235 32.9684 78.8235 32.4343C78.8235 31.9002 78.7097 31.4452 78.4823 31.0693C78.2646 30.6836 77.9779 30.3918 77.6218 30.194C77.2657 29.9863 76.88 29.8824 76.4646 29.8824C76.0492 29.8824 75.6584 29.9863 75.2925 30.194C74.9364 30.3918 74.6446 30.6836 74.4172 31.0693C74.1995 31.4452 74.0908 31.9002 74.0908 32.4343C74.0908 32.9684 74.1995 33.4283 74.4172 33.814C74.6446 34.1899 74.9364 34.4816 75.2925 34.6893C75.6584 34.8872 76.0492 34.9861 76.4646 34.9861ZM85.4473 36.4548C84.666 36.4548 83.9785 36.2768 83.3851 35.9207C82.7917 35.5647 82.3268 35.0849 81.9905 34.4816C81.6542 33.8783 81.4861 33.1959 81.4861 32.4343C81.4861 31.6826 81.6542 31.005 81.9905 30.4017C82.3268 29.7884 82.7917 29.3038 83.3851 28.9478C83.9785 28.5917 84.666 28.4137 85.4473 28.4137C86.2188 28.4137 86.9013 28.5917 87.4949 28.9478C88.0883 29.3038 88.5535 29.7884 88.8895 30.4017C89.2255 31.005 89.3939 31.6826 89.3939 32.4343C89.3939 33.1959 89.2255 33.8783 88.8895 34.4816C88.5535 35.0849 88.0883 35.5647 87.4949 35.9207C86.9013 36.2768 86.2188 36.4548 85.4473 36.4548ZM85.4473 34.9861C85.8627 34.9861 86.2485 34.8872 86.6045 34.6893C86.9606 34.4816 87.2475 34.1899 87.4652 33.814C87.693 33.4283 87.8064 32.9684 87.8064 32.4343C87.8064 31.9002 87.693 31.4452 87.4652 31.0693C87.2475 30.6836 86.9606 30.3918 86.6045 30.194C86.2485 29.9863 85.8627 29.8824 85.4473 29.8824C85.0319 29.8824 84.6413 29.9863 84.2753 30.194C83.9192 30.3918 83.6275 30.6836 83.3999 31.0693C83.1824 31.4452 83.0735 31.9002 83.0735 32.4343C83.0735 32.9684 83.1824 33.4283 83.3999 33.814C83.6275 34.1899 83.9192 34.4816 84.2753 34.6893C84.6413 34.8872 85.0319 34.9861 85.4473 34.9861ZM94.282 39.6595C93.6187 39.6595 93.0453 39.5506 92.561 39.3331C92.0862 39.1253 91.7005 38.8533 91.4038 38.5171C91.107 38.1907 90.8941 37.8544 90.7658 37.5082L92.2494 36.8851C92.4074 37.2807 92.6596 37.6022 93.0061 37.8494C93.3621 38.1066 93.7871 38.2352 94.282 38.2352C94.974 38.2352 95.5177 38.0275 95.914 37.6121C96.3189 37.1967 96.5222 36.6082 96.5222 35.8466V35.1196H96.4332C96.1958 35.4757 95.8642 35.7625 95.4392 35.9801C95.0238 36.1878 94.549 36.2916 94.0149 36.2916C93.3717 36.2916 92.7835 36.1284 92.2494 35.8021C91.7153 35.4757 91.2851 35.0207 90.9587 34.4371C90.6323 33.8437 90.4691 33.1514 90.4691 32.3601C90.4691 31.5589 90.6323 30.8666 90.9587 30.283C91.2851 29.6896 91.7153 29.2297 92.2494 28.9033C92.7835 28.5769 93.3717 28.4137 94.0149 28.4137C94.549 28.4137 95.0238 28.5225 95.4392 28.7401C95.8642 28.9576 96.1958 29.2445 96.4332 29.6006H96.5222V28.651H98.0504V35.8169C98.0504 36.6379 97.8872 37.3352 97.5608 37.9088C97.244 38.4824 96.8041 38.9176 96.2403 39.2144C95.6766 39.5111 95.0238 39.6595 94.282 39.6595ZM94.2968 34.8377C94.6921 34.8377 95.0578 34.7437 95.3947 34.5558C95.7307 34.358 96.003 34.0761 96.2107 33.7102C96.4184 33.3343 96.5222 32.8843 96.5222 32.3601C96.5222 31.8161 96.4184 31.3611 96.2107 30.9951C96.003 30.6193 95.7307 30.3374 95.3947 30.1495C95.0578 29.9616 94.6921 29.8676 94.2968 29.8676C93.9006 29.8676 93.5297 29.9665 93.1841 30.1643C92.8472 30.3522 92.5758 30.6292 92.3681 30.9951C92.1604 31.3611 92.0566 31.8161 92.0566 32.3601C92.0566 32.8942 92.1604 33.3491 92.3681 33.725C92.5758 34.0909 92.8472 34.3679 93.1841 34.5558C93.5297 34.7437 93.9006 34.8377 94.2968 34.8377ZM99.9398 36.2175V25.5948H101.542V36.2175H99.9398ZM106.815 36.4548C106.073 36.4548 105.411 36.2818 104.827 35.9356C104.244 35.5894 103.784 35.1146 103.447 34.5113C103.121 33.908 102.958 33.2206 102.958 32.4491C102.958 31.7271 103.116 31.0595 103.432 30.4462C103.749 29.833 104.189 29.3434 104.753 28.9774C105.327 28.6016 105.984 28.4137 106.726 28.4137C107.508 28.4137 108.17 28.5818 108.714 28.9181C109.268 29.2544 109.689 29.7143 109.975 30.2979C110.262 30.8814 110.405 31.5391 110.405 32.2711C110.405 32.3799 110.401 32.4788 110.391 32.5678C110.391 32.6568 110.386 32.726 110.376 32.7755H104.53C104.61 33.5272 104.871 34.0909 105.317 34.4668C105.772 34.8427 106.286 35.0306 106.86 35.0306C107.374 35.0306 107.799 34.9169 108.135 34.6893C108.472 34.452 108.739 34.1602 108.937 33.814L110.257 34.452C109.931 35.0454 109.486 35.53 108.922 35.9059C108.358 36.2718 107.656 36.4548 106.815 36.4548ZM106.741 29.7786C106.207 29.7786 105.752 29.9418 105.376 30.2682C105.001 30.5946 104.748 31.0298 104.619 31.5738H108.818C108.799 31.3166 108.714 31.0495 108.566 30.7726C108.417 30.4957 108.19 30.2632 107.883 30.0753C107.586 29.8775 107.206 29.7786 106.741 29.7786ZM116.927 36.2175L114.079 25.5948H115.889L117.58 32.4936L117.758 33.4134H117.847L118.07 32.4936L120.206 25.5948H121.838L123.885 32.4936L124.108 33.3986H124.197L124.375 32.4936L126.066 25.5948H127.861L125.057 36.2175H123.336L121.304 29.1703L121.066 28.1763H120.977L120.725 29.1703L118.604 36.2175H116.927ZM130.841 36.4548C130.297 36.4548 129.812 36.351 129.387 36.1433C128.962 35.9257 128.63 35.624 128.393 35.2383C128.155 34.8525 128.037 34.4124 128.037 33.9179C128.037 33.3838 128.176 32.9288 128.452 32.5529C128.739 32.1672 129.12 31.8755 129.595 31.6776C130.069 31.4798 130.594 31.3809 131.167 31.3809C131.642 31.3809 132.057 31.4254 132.413 31.5144C132.779 31.6034 133.057 31.6974 133.244 31.7963V31.3957C133.244 30.9012 133.066 30.5056 132.71 30.2088C132.354 29.9121 131.894 29.7638 131.33 29.7638C130.945 29.7638 130.579 29.8528 130.233 30.0308C129.886 30.199 129.609 30.4314 129.402 30.7281L128.304 29.8824C128.63 29.4275 129.06 29.0714 129.595 28.8142C130.138 28.5472 130.732 28.4137 131.375 28.4137C132.473 28.4137 133.318 28.6857 133.912 29.2297C134.505 29.7638 134.802 30.5154 134.802 31.4847V36.2175H133.244V35.2828H133.155C132.957 35.5894 132.66 35.8614 132.265 36.0988C131.87 36.3362 131.395 36.4548 130.841 36.4548ZM131.123 35.1493C131.538 35.1493 131.904 35.0504 132.221 34.8525C132.537 34.6547 132.784 34.3976 132.962 34.0811C133.15 33.7547 133.244 33.4036 133.244 33.0277C133.016 32.8992 132.749 32.7953 132.443 32.7161C132.137 32.6271 131.81 32.5826 131.464 32.5826C130.811 32.5826 130.346 32.7161 130.069 32.9832C129.793 33.2404 129.654 33.5568 129.654 33.9327C129.654 34.2888 129.787 34.5805 130.055 34.808C130.322 35.0356 130.678 35.1493 131.123 35.1493ZM136.581 36.2175V25.5948H138.183V36.2175H136.581ZM140.087 36.2175V25.5948H141.69V36.2175H140.087ZM146.962 36.4548C146.221 36.4548 145.558 36.2818 144.974 35.9356C144.391 35.5894 143.932 35.1146 143.595 34.5113C143.268 33.908 143.105 33.2206 143.105 32.4491C143.105 31.7271 143.264 31.0595 143.58 30.4462C143.897 29.833 144.336 29.3434 144.9 28.9774C145.474 28.6016 146.132 28.4137 146.873 28.4137C147.655 28.4137 148.318 28.5818 148.861 28.9181C149.416 29.2544 149.836 29.7143 150.123 30.2979C150.41 30.8814 150.553 31.5391 150.553 32.2711C150.553 32.3799 150.548 32.4788 150.538 32.5678C150.538 32.6568 150.534 32.726 150.523 32.7755H144.678C144.757 33.5272 145.019 34.0909 145.464 34.4668C145.92 34.8427 146.434 35.0306 147.007 35.0306C147.522 35.0306 147.947 34.9169 148.283 34.6893C148.62 34.452 148.887 34.1602 149.084 33.814L150.404 34.452C150.078 35.0454 149.633 35.53 149.069 35.9059C148.505 36.2718 147.804 36.4548 146.962 36.4548ZM146.888 29.7786C146.354 29.7786 145.899 29.9418 145.523 30.2682C145.148 30.5946 144.896 31.0298 144.767 31.5738H148.965C148.946 31.3166 148.861 31.0495 148.713 30.7726C148.565 30.4957 148.338 30.2632 148.031 30.0753C147.734 29.8775 147.353 29.7786 146.888 29.7786ZM152.624 34.0217V30.0456H151.303V28.651H152.624V26.5146H154.226V28.651H156.081V30.0456H154.226V33.6805C154.226 34.0564 154.3 34.3431 154.449 34.541C154.607 34.7388 154.868 34.8377 155.235 34.8377C155.423 34.8377 155.581 34.813 155.71 34.7635C155.848 34.714 155.986 34.6448 156.125 34.5558V36.1136C155.957 36.1828 155.779 36.2373 155.591 36.2768C155.402 36.3163 155.18 36.3362 154.923 36.3362C154.221 36.3362 153.662 36.1334 153.247 35.7279C152.831 35.3125 152.624 34.7437 152.624 34.0217Z" fill="white"/>
<path d="M149.672 0.436523H24.0008C10.9871 0.436523 0.4375 10.9862 0.4375 23.9998C0.4375 37.0134 10.9871 47.563 24.0008 47.563H149.672C162.685 47.563 173.235 37.0134 173.235 23.9998C173.235 10.9862 162.685 0.436523 149.672 0.436523Z" stroke="#747775"/>
</g>
<defs>
<linearGradient id="paint0_linear_568_942" x1="32.5397" y1="29.7109" x2="16.3927" y2="48.6295" gradientUnits="userSpaceOnUse">
<stop stop-color="#4285F4"/>
<stop offset="1" stop-color="#1B74E8"/>
</linearGradient>
<clipPath id="clip0_568_942">
<rect width="173.67" height="47.9992" fill="white"/>
</clipPath>
</defs>
</svg>
