<svg width="174" height="43" viewBox="0 0 174 43" fill="none" xmlns="http://www.w3.org/2000/svg">
<g clip-path="url(#clip0_568_888)">
<path d="M152.536 0.383789H21.131C9.67209 0.383789 0.382812 9.67307 0.382812 21.132C0.382812 32.5909 9.67209 41.8802 21.131 41.8802H152.536C163.995 41.8802 173.284 32.5909 173.284 21.132C173.284 9.67307 163.995 0.383789 152.536 0.383789Z" fill="#1F1F1F"/>
<path d="M43.801 18.282H16.1367V13.9438C16.1367 11.5887 18.1671 9.60547 20.5782 9.60547H39.3595C41.7706 9.60547 43.801 11.5887 43.801 13.9438V18.282Z" fill="#34A853"/>
<path d="M43.801 22.2849H16.1367V17.6742C16.1367 15.1713 18.1671 13.0635 20.5782 13.0635H39.3595C41.7706 13.0635 43.801 15.1713 43.801 17.6742V22.2849Z" fill="#FBBC04"/>
<path d="M43.801 26.1277H16.1367V21.517C16.1367 19.014 18.1671 16.9062 20.5782 16.9062H39.3595C41.7706 16.9062 43.801 19.014 43.801 21.517V26.1277Z" fill="#EA4335"/>
<path d="M16.1367 19.3963L33.6953 23.3628C35.7165 23.8586 37.9902 23.3628 39.6323 22.1233L43.801 19.1484V28.4447C43.801 30.7998 41.7799 32.659 39.3798 32.659H20.5579C18.1578 32.659 16.1367 30.7998 16.1367 28.4447V19.3963Z" fill="url(#paint0_linear_568_888)"/>
<path d="M55.9116 16.6814C55.532 16.6814 55.169 16.6082 54.8227 16.4616C54.4764 16.3085 54.1701 16.0853 53.9036 15.7923C53.6439 15.4993 53.4508 15.1363 53.3242 14.7034L54.3632 14.2838C54.4697 14.6701 54.6562 14.9931 54.9226 15.2529C55.189 15.5126 55.522 15.6425 55.9216 15.6425C56.148 15.6425 56.3578 15.6025 56.5509 15.5226C56.7507 15.4427 56.9106 15.3261 57.0305 15.1729C57.1503 15.0131 57.2103 14.82 57.2103 14.5935C57.2103 14.2805 57.0937 14.0308 56.8606 13.8443C56.6276 13.6512 56.2546 13.4614 55.7418 13.2749L55.2922 13.115C55.0325 13.0218 54.7694 12.8952 54.503 12.7354C54.2433 12.5689 54.0268 12.3591 53.8537 12.106C53.6806 11.8463 53.5939 11.5299 53.5939 11.157C53.5939 10.8041 53.6872 10.481 53.8737 10.188C54.0668 9.8883 54.3299 9.65184 54.6629 9.47871C55.0025 9.29889 55.3954 9.20898 55.8417 9.20898C56.3012 9.20898 56.6841 9.29221 56.9905 9.45873C57.3035 9.61857 57.5466 9.81506 57.7198 10.0481C57.8996 10.2746 58.0228 10.4877 58.0894 10.6875L57.1004 11.1071C57.0604 10.9739 56.9872 10.8406 56.8806 10.7075C56.7807 10.5676 56.6442 10.4544 56.471 10.3678C56.3045 10.2746 56.0981 10.228 55.8517 10.228C55.532 10.228 55.2556 10.3146 55.0225 10.4877C54.796 10.6542 54.6828 10.874 54.6828 11.147C54.6828 11.4068 54.7894 11.6165 55.0025 11.7764C55.2156 11.9362 55.5253 12.0861 55.9316 12.2259L56.3911 12.3858C56.6975 12.4857 56.9972 12.6222 57.2902 12.7953C57.5899 12.9685 57.833 13.1982 58.0195 13.4846C58.2126 13.7644 58.3092 14.1273 58.3092 14.5735C58.3092 14.9399 58.2359 15.2562 58.0894 15.5226C57.9495 15.789 57.7597 16.0088 57.52 16.1819C57.2869 16.3484 57.0272 16.4716 56.7408 16.5515C56.461 16.6381 56.1846 16.6814 55.9116 16.6814ZM59.4 16.5216V9.36882H60.4789V11.3268L60.4189 12.126H60.4789C60.6187 11.8796 60.8319 11.6765 61.1182 11.5166C61.4113 11.3501 61.7343 11.2669 62.0873 11.2669C62.72 11.2669 63.1961 11.4567 63.5158 11.8363C63.8355 12.2092 63.9953 12.6988 63.9953 13.3048V16.5216H62.9264V13.4447C62.9264 13.0318 62.8165 12.7321 62.5967 12.5456C62.3836 12.3525 62.1206 12.2559 61.8075 12.2559C61.5478 12.2559 61.318 12.3291 61.1182 12.4757C60.9184 12.6222 60.762 12.8153 60.6487 13.0551C60.5355 13.2882 60.4789 13.5379 60.4789 13.8043V16.5216H59.4ZM65.51 15.0431V12.3658H64.6209V11.4267H65.51V9.98819H66.5889V11.4267H67.8377V12.3658H66.5889V14.8133C66.5889 15.0664 66.6389 15.2595 66.7388 15.3927C66.8453 15.5259 67.0218 15.5925 67.2682 15.5925C67.3947 15.5925 67.5013 15.5758 67.5879 15.5426C67.6811 15.5093 67.7743 15.4626 67.8676 15.4027V16.4516C67.7544 16.4983 67.6345 16.5349 67.508 16.5615C67.3814 16.5882 67.2316 16.6015 67.0584 16.6015C66.5855 16.6015 66.2093 16.4649 65.9296 16.1919C65.6499 15.9122 65.51 15.5293 65.51 15.0431ZM71.0753 16.6814C70.5491 16.6814 70.0863 16.5615 69.6867 16.3218C69.2871 16.082 68.974 15.759 68.7477 15.3528C68.5212 14.9465 68.408 14.4869 68.408 13.9742C68.408 13.468 68.5212 13.0118 68.7477 12.6055C68.974 12.1926 69.2871 11.8663 69.6867 11.6265C70.0863 11.3868 70.5491 11.2669 71.0753 11.2669C71.5948 11.2669 72.0543 11.3868 72.4539 11.6265C72.8535 11.8663 73.1665 12.1926 73.3929 12.6055C73.6193 13.0118 73.7326 13.468 73.7326 13.9742C73.7326 14.4869 73.6193 14.9465 73.3929 15.3528C73.1665 15.759 72.8535 16.082 72.4539 16.3218C72.0543 16.5615 71.5948 16.6814 71.0753 16.6814ZM71.0753 15.6924C71.355 15.6924 71.6147 15.6258 71.8545 15.4926C72.0943 15.3528 72.2874 15.1563 72.4339 14.9032C72.5871 14.6435 72.6637 14.3338 72.6637 13.9742C72.6637 13.6145 72.5871 13.3081 72.4339 13.0551C72.2874 12.7953 72.0943 12.5989 71.8545 12.4657C71.6147 12.3258 71.355 12.2559 71.0753 12.2559C70.7956 12.2559 70.5325 12.3258 70.2861 12.4657C70.0463 12.5989 69.8498 12.7953 69.6967 13.0551C69.5501 13.3081 69.4769 13.6145 69.4769 13.9742C69.4769 14.3338 69.5501 14.6435 69.6967 14.9032C69.8498 15.1563 70.0463 15.3528 70.2861 15.4926C70.5325 15.6258 70.7956 15.6924 71.0753 15.6924ZM77.5973 15.0431V12.3658H76.7083V11.4267H77.5973V9.98819H78.6762V11.4267H79.9249V12.3658H78.6762V14.8133C78.6762 15.0664 78.7261 15.2595 78.826 15.3927C78.9329 15.5259 79.1088 15.5925 79.3555 15.5925C79.4823 15.5925 79.5883 15.5758 79.6752 15.5426C79.7682 15.5093 79.8619 15.4626 79.9549 15.4027V16.4516C79.8419 16.4983 79.7221 16.5349 79.5953 16.5615C79.4685 16.5882 79.3186 16.6015 79.1457 16.6015C78.6731 16.6015 78.2966 16.4649 78.0169 16.1919C77.7372 15.9122 77.5973 15.5293 77.5973 15.0431ZM83.0925 16.6814C82.593 16.6814 82.1473 16.5648 81.7538 16.3318C81.3612 16.0987 81.0515 15.779 80.8248 15.3727C80.605 14.9665 80.4951 14.5036 80.4951 13.9841C80.4951 13.4979 80.6019 13.0484 80.8148 12.6355C81.0284 12.2226 81.3243 11.893 81.7039 11.6465C82.0904 11.3935 82.5331 11.2669 83.0326 11.2669C83.5589 11.2669 84.0054 11.3801 84.3712 11.6066C84.7447 11.833 85.0274 12.1427 85.2203 12.5356C85.414 12.9285 85.51 13.3715 85.51 13.8643C85.51 13.9375 85.507 14.0041 85.5 14.0641C85.5 14.124 85.497 14.1706 85.4901 14.2039H81.554C81.6078 14.7101 81.7838 15.0897 82.0835 15.3428C82.3901 15.5958 82.7367 15.7224 83.1225 15.7224C83.469 15.7224 83.7557 15.6458 83.9816 15.4926C84.2083 15.3328 84.3881 15.1363 84.521 14.9032L85.4101 15.3328C85.1904 15.7324 84.8907 16.0587 84.511 16.3118C84.1314 16.5582 83.6588 16.6814 83.0925 16.6814ZM83.0425 12.186C82.6829 12.186 82.3771 12.2959 82.1235 12.5156C81.8706 12.7354 81.7008 13.0284 81.614 13.3947H84.4411C84.4281 13.2216 84.3712 13.0418 84.2713 12.8553C84.1714 12.6688 84.0185 12.5123 83.8118 12.3858C83.612 12.2526 83.3561 12.186 83.0425 12.186Z" fill="white"/>
<path d="M54.082 31.8907V22.5371H57.2957C57.8618 22.5371 58.3756 22.6591 58.8372 22.9029C59.2988 23.1468 59.6646 23.4821 59.9346 23.9088C60.2133 24.3356 60.3526 24.832 60.3526 25.3981C60.3526 25.9642 60.2133 26.4649 59.9346 26.9004C59.6646 27.3271 59.2988 27.6625 58.8372 27.9063C58.3756 28.1415 57.8618 28.259 57.2957 28.259H55.519V31.8907H54.082ZM57.3349 23.8958H55.519V26.9004H57.3349C57.6745 26.9004 57.9619 26.8307 58.1971 26.6914C58.4322 26.5433 58.6107 26.3561 58.7327 26.1297C58.8633 25.8945 58.9287 25.6507 58.9287 25.3981C58.9287 25.1455 58.8633 24.906 58.7327 24.6796C58.6107 24.4531 58.4322 24.2659 58.1971 24.1178C57.9619 23.9698 57.6745 23.8958 57.3349 23.8958ZM64.2667 32.0998C63.5787 32.0998 62.9734 31.943 62.4509 31.6295C61.9283 31.3159 61.519 30.8935 61.2229 30.3623C60.9268 29.8311 60.7787 29.2301 60.7787 28.5595C60.7787 27.8976 60.9268 27.301 61.2229 26.7698C61.519 26.2298 61.9283 25.8031 62.4509 25.4895C62.9734 25.176 63.5787 25.0192 64.2667 25.0192C64.946 25.0192 65.5469 25.176 66.0695 25.4895C66.592 25.8031 67.0014 26.2298 67.2975 26.7698C67.5936 27.301 67.7416 27.8976 67.7416 28.5595C67.7416 29.2301 67.5936 29.8311 67.2975 30.3623C67.0014 30.8935 66.592 31.3159 66.0695 31.6295C65.5469 31.943 64.946 32.0998 64.2667 32.0998ZM64.2667 30.8064C64.6325 30.8064 64.9721 30.7194 65.2857 30.5452C65.5992 30.3623 65.8518 30.1054 66.0434 29.7744C66.2437 29.4348 66.3438 29.0298 66.3438 28.5595C66.3438 28.0892 66.2437 27.6886 66.0434 27.3576C65.8518 27.018 65.5992 26.7611 65.2857 26.5869C64.9721 26.404 64.6325 26.3125 64.2667 26.3125C63.9009 26.3125 63.5569 26.404 63.2347 26.5869C62.9211 26.7611 62.6643 27.018 62.4639 27.3576C62.2723 27.6886 62.1765 28.0892 62.1765 28.5595C62.1765 29.0298 62.2723 29.4348 62.4639 29.7744C62.6643 30.1054 62.9211 30.3623 63.2347 30.5452C63.5569 30.7194 63.9009 30.8064 64.2667 30.8064ZM74.9097 29.9573V26.4562H73.747V25.2283H74.9097V23.3471H76.3206V25.2283H77.9532V26.4562H76.3206V29.6568C76.3206 29.9878 76.3859 30.2403 76.5165 30.4145C76.6559 30.5887 76.8866 30.6758 77.2086 30.6758C77.3746 30.6758 77.5136 30.6541 77.6266 30.6105C77.7488 30.5669 77.871 30.506 77.9924 30.4276V31.7993C77.8449 31.8602 77.6881 31.9082 77.5221 31.943C77.3569 31.9778 77.1655 31.9952 76.9473 31.9952C76.3206 31.9952 75.8241 31.8167 75.4583 31.4596C75.0926 31.0938 74.9097 30.5931 74.9097 29.9573ZM68.9134 31.8907V25.2283H70.2459V26.208H70.3243C70.4985 25.8423 70.7685 25.5592 71.1343 25.3589C71.5001 25.1499 71.8963 25.0454 72.3231 25.0454C72.567 25.0454 72.7499 25.0628 72.8717 25.0976V26.5085C72.6802 26.4476 72.445 26.4171 72.1663 26.4171C71.6089 26.4171 71.1604 26.5956 70.8207 26.9527C70.4899 27.3098 70.3243 27.7931 70.3243 28.4027V31.8907H68.9134ZM82.2035 32.0998C81.5157 32.0998 80.9102 31.943 80.3877 31.6295C79.8651 31.3159 79.4563 30.8935 79.1597 30.3623C78.8638 29.8311 78.7155 29.2301 78.7155 28.5595C78.7155 27.8976 78.8638 27.301 79.1597 26.7698C79.4563 26.2298 79.8651 25.8031 80.3877 25.4895C80.9102 25.176 81.5157 25.0192 82.2035 25.0192C82.8828 25.0192 83.4837 25.176 84.0063 25.4895C84.5288 25.8031 84.9384 26.2298 85.2343 26.7698C85.5309 27.301 85.6784 27.8976 85.6784 28.5595C85.6784 29.2301 85.5309 29.8311 85.2343 30.3623C84.9384 30.8935 84.5288 31.3159 84.0063 31.6295C83.4837 31.943 82.8828 32.0998 82.2035 32.0998ZM82.2035 30.8064C82.5693 30.8064 82.9089 30.7194 83.2225 30.5452C83.536 30.3623 83.7888 30.1054 83.9802 29.7744C84.1807 29.4348 84.2806 29.0298 84.2806 28.5595C84.2806 28.0892 84.1807 27.6886 83.9802 27.3576C83.7888 27.018 83.536 26.7611 83.2225 26.5869C82.9089 26.404 82.5693 26.3125 82.2035 26.3125C81.8377 26.3125 81.4942 26.404 81.1715 26.5869C80.8579 26.7611 80.6013 27.018 80.4007 27.3576C80.2094 27.6886 80.1133 28.0892 80.1133 28.5595C80.1133 29.0298 80.2094 29.4348 80.4007 29.7744C80.6013 30.1054 80.8579 30.3623 81.1715 30.5452C81.4942 30.7194 81.8377 30.8064 82.2035 30.8064ZM87.5442 31.8907V26.4562H86.3293V25.2283H87.5442V24.6796C87.5442 24.2093 87.6449 23.8087 87.8447 23.4777C88.0453 23.1381 88.315 22.8812 88.6547 22.707C89.0035 22.5241 89.3954 22.4326 89.8304 22.4326C90.0655 22.4326 90.2661 22.4501 90.4313 22.4849C90.6058 22.511 90.7495 22.5458 90.8624 22.5894V23.9611C90.7495 23.9175 90.6188 23.874 90.4705 23.8304C90.3314 23.7782 90.157 23.7521 89.948 23.7521C89.6782 23.7521 89.4431 23.8435 89.2425 24.0264C89.0427 24.2006 88.9421 24.4575 88.9421 24.7972V25.2283H90.6142V26.4562H88.9421V31.8907H87.5442ZM94.6931 32.0998C94.0054 32.0998 93.3998 31.943 92.8773 31.6295C92.3548 31.3159 91.9459 30.8935 91.6493 30.3623C91.3535 29.8311 91.2051 29.2301 91.2051 28.5595C91.2051 27.8976 91.3535 27.301 91.6493 26.7698C91.9459 26.2298 92.3548 25.8031 92.8773 25.4895C93.3998 25.176 94.0054 25.0192 94.6931 25.0192C95.3725 25.0192 95.9734 25.176 96.4959 25.4895C97.0185 25.8031 97.4281 26.2298 97.7239 26.7698C98.0205 27.301 98.1681 27.8976 98.1681 28.5595C98.1681 29.2301 98.0205 29.8311 97.7239 30.3623C97.4281 30.8935 97.0185 31.3159 96.4959 31.6295C95.9734 31.943 95.3725 32.0998 94.6931 32.0998ZM94.6931 30.8064C95.0589 30.8064 95.3986 30.7194 95.7121 30.5452C96.0256 30.3623 96.2785 30.1054 96.4698 29.7744C96.6704 29.4348 96.7703 29.0298 96.7703 28.5595C96.7703 28.0892 96.6704 27.6886 96.4698 27.3576C96.2785 27.018 96.0256 26.7611 95.7121 26.5869C95.3986 26.404 95.0589 26.3125 94.6931 26.3125C94.3274 26.3125 93.9839 26.404 93.6611 26.5869C93.3476 26.7611 93.0909 27.018 92.8904 27.3576C92.699 27.6886 92.603 28.0892 92.603 28.5595C92.603 29.0298 92.699 29.4348 92.8904 29.7744C93.0909 30.1054 93.3476 30.3623 93.6611 30.5452C93.9839 30.7194 94.3274 30.8064 94.6931 30.8064ZM99.4168 31.8907V22.5371H100.828V31.8907H99.4168ZM103.301 24.2485C103.04 24.2485 102.813 24.157 102.622 23.9741C102.439 23.7826 102.348 23.5561 102.348 23.2948C102.348 23.0336 102.439 22.8115 102.622 22.6286C102.813 22.4457 103.04 22.3543 103.301 22.3543C103.563 22.3543 103.785 22.4457 103.968 22.6286C104.159 22.8115 104.255 23.0336 104.255 23.2948C104.255 23.5561 104.159 23.7826 103.968 23.9741C103.785 24.157 103.563 24.2485 103.301 24.2485ZM102.596 31.8907V25.2283H104.007V31.8907H102.596ZM109.616 24.2485C109.355 24.2485 109.129 24.157 108.937 23.9741C108.754 23.7826 108.663 23.5561 108.663 23.2948C108.663 23.0336 108.754 22.8115 108.937 22.6286C109.129 22.4457 109.355 22.3543 109.616 22.3543C109.878 22.3543 110.1 22.4457 110.283 22.6286C110.474 22.8115 110.57 23.0336 110.57 23.2948C110.57 23.5561 110.474 23.7826 110.283 23.9741C110.1 24.157 109.878 24.2485 109.616 24.2485ZM108.911 31.8907V25.2283H110.322V31.8907H108.911ZM119.529 32.0998C118.859 32.0998 118.228 31.9778 117.635 31.734C117.052 31.4901 116.534 31.1505 116.081 30.715C115.628 30.2708 115.271 29.7527 115.009 29.1604C114.757 28.5595 114.631 27.9107 114.631 27.2139C114.631 26.5172 114.757 25.8728 115.009 25.2805C115.271 24.6796 115.623 24.1614 116.068 23.7259C116.521 23.2818 117.044 22.9377 117.635 22.6939C118.228 22.4501 118.859 22.3281 119.529 22.3281C120.244 22.3281 120.901 22.4544 121.502 22.707C122.112 22.9596 122.622 23.3123 123.031 23.7651L122.038 24.7449C121.733 24.4052 121.368 24.144 120.94 23.9611C120.522 23.7782 120.052 23.6867 119.529 23.6867C118.912 23.6867 118.341 23.8348 117.818 24.1309C117.296 24.4183 116.874 24.8277 116.551 25.3589C116.237 25.8814 116.081 26.4998 116.081 27.2139C116.081 27.9281 116.242 28.5508 116.564 29.082C116.887 29.6046 117.309 30.0139 117.831 30.31C118.354 30.5974 118.925 30.7411 119.543 30.7411C120.109 30.7411 120.623 30.6366 121.084 30.4276C121.546 30.2099 121.916 29.9051 122.194 29.5131C122.482 29.1212 122.656 28.6509 122.717 28.1023H119.516V26.8351H124.063C124.115 27.0702 124.141 27.3184 124.141 27.5797V27.5928C124.141 28.4986 123.941 29.2911 123.54 29.9704C123.148 30.641 122.604 31.1635 121.907 31.538C121.211 31.9125 120.418 32.0998 119.529 32.0998ZM128.347 32.0998C127.66 32.0998 127.054 31.943 126.532 31.6295C126.009 31.3159 125.599 30.8935 125.304 30.3623C125.008 29.8311 124.859 29.2301 124.859 28.5595C124.859 27.8976 125.008 27.301 125.304 26.7698C125.599 26.2298 126.009 25.8031 126.532 25.4895C127.054 25.176 127.66 25.0192 128.347 25.0192C129.027 25.0192 129.628 25.176 130.15 25.4895C130.673 25.8031 131.082 26.2298 131.378 26.7698C131.674 27.301 131.822 27.8976 131.822 28.5595C131.822 29.2301 131.674 29.8311 131.378 30.3623C131.082 30.8935 130.673 31.3159 130.15 31.6295C129.628 31.943 129.027 32.0998 128.347 32.0998ZM128.347 30.8064C128.713 30.8064 129.053 30.7194 129.366 30.5452C129.68 30.3623 129.933 30.1054 130.124 29.7744C130.325 29.4348 130.425 29.0298 130.425 28.5595C130.425 28.0892 130.325 27.6886 130.124 27.3576C129.933 27.018 129.68 26.7611 129.366 26.5869C129.053 26.404 128.713 26.3125 128.347 26.3125C127.982 26.3125 127.637 26.404 127.315 26.5869C127.002 26.7611 126.745 27.018 126.545 27.3576C126.353 27.6886 126.257 28.0892 126.257 28.5595C126.257 29.0298 126.353 29.4348 126.545 29.7744C126.745 30.1054 127.002 30.3623 127.315 30.5452C127.637 30.7194 127.982 30.8064 128.347 30.8064ZM136.257 32.0998C135.569 32.0998 134.964 31.943 134.441 31.6295C133.919 31.3159 133.509 30.8935 133.213 30.3623C132.917 29.8311 132.769 29.2301 132.769 28.5595C132.769 27.8976 132.917 27.301 133.213 26.7698C133.509 26.2298 133.919 25.8031 134.441 25.4895C134.964 25.176 135.569 25.0192 136.257 25.0192C136.936 25.0192 137.537 25.176 138.06 25.4895C138.582 25.8031 138.992 26.2298 139.288 26.7698C139.584 27.301 139.732 27.8976 139.732 28.5595C139.732 29.2301 139.584 29.8311 139.288 30.3623C138.992 30.8935 138.582 31.3159 138.06 31.6295C137.537 31.943 136.936 32.0998 136.257 32.0998ZM136.257 30.8064C136.623 30.8064 136.963 30.7194 137.276 30.5452C137.59 30.3623 137.842 30.1054 138.034 29.7744C138.234 29.4348 138.334 29.0298 138.334 28.5595C138.334 28.0892 138.234 27.6886 138.034 27.3576C137.842 27.018 137.59 26.7611 137.276 26.5869C136.963 26.404 136.623 26.3125 136.257 26.3125C135.891 26.3125 135.547 26.404 135.225 26.5869C134.912 26.7611 134.655 27.018 134.454 27.3576C134.263 27.6886 134.167 28.0892 134.167 28.5595C134.167 29.0298 134.263 29.4348 134.454 29.7744C134.655 30.1054 134.912 30.3623 135.225 30.5452C135.547 30.7194 135.891 30.8064 136.257 30.8064ZM144.036 34.9215C143.453 34.9215 142.947 34.8257 142.521 34.6341C142.103 34.4512 141.763 34.2117 141.502 33.9156C141.241 33.6282 141.053 33.3321 140.94 33.0273L142.246 32.4786C142.386 32.8269 142.608 33.11 142.913 33.3277C143.226 33.5542 143.6 33.6674 144.036 33.6674C144.646 33.6674 145.125 33.4845 145.473 33.1187C145.831 32.7529 146.009 32.2348 146.009 31.5641V30.924H145.93C145.721 31.2376 145.429 31.4901 145.055 31.6817C144.689 31.8646 144.271 31.9561 143.801 31.9561C143.235 31.9561 142.717 31.8124 142.246 31.5249C141.776 31.2375 141.397 30.837 141.11 30.3231C140.823 29.8005 140.679 29.1909 140.679 28.4942C140.679 27.7887 140.823 27.1791 141.11 26.6653C141.397 26.1427 141.776 25.7377 142.246 25.4503C142.717 25.1629 143.235 25.0192 143.801 25.0192C144.271 25.0192 144.689 25.1151 145.055 25.3066C145.429 25.4982 145.721 25.7508 145.93 26.0643H146.009V25.2283H147.354V31.538C147.354 32.2609 147.211 32.8749 146.923 33.38C146.644 33.8851 146.257 34.2683 145.761 34.5296C145.264 34.7909 144.689 34.9215 144.036 34.9215ZM144.049 30.6758C144.397 30.6758 144.72 30.5931 145.016 30.4276C145.312 30.2534 145.552 30.0052 145.734 29.683C145.917 29.352 146.009 28.9558 146.009 28.4942C146.009 28.0152 145.917 27.6145 145.734 27.2923C145.552 26.9613 145.312 26.7131 145.016 26.5477C144.72 26.3822 144.397 26.2995 144.049 26.2995C143.701 26.2995 143.375 26.3865 143.069 26.5608C142.774 26.7262 142.534 26.9701 142.351 27.2923C142.168 27.6145 142.077 28.0152 142.077 28.4942C142.077 28.9645 142.168 29.3651 142.351 29.696C142.534 30.0182 142.774 30.2622 143.069 30.4276C143.375 30.5931 143.701 30.6758 144.049 30.6758ZM149.018 31.8907V22.5371H150.429V31.8907H149.018ZM155.073 32.0998C154.419 32.0998 153.835 31.9474 153.322 31.6425C152.808 31.3377 152.403 30.9196 152.107 30.3884C151.82 29.8572 151.676 29.2519 151.676 28.5726C151.676 27.9368 151.815 27.349 152.094 26.809C152.372 26.269 152.76 25.8379 153.257 25.5157C153.762 25.1847 154.341 25.0192 154.994 25.0192C155.682 25.0192 156.265 25.1673 156.745 25.4634C157.232 25.7595 157.602 26.1645 157.855 26.6783C158.107 27.1922 158.234 27.7713 158.234 28.4158C158.234 28.5116 158.229 28.5987 158.221 28.6771C158.221 28.7555 158.216 28.8164 158.208 28.86H153.061C153.13 29.5218 153.361 30.0182 153.753 30.3492C154.154 30.6802 154.606 30.8456 155.112 30.8456C155.564 30.8456 155.939 30.7455 156.235 30.5452C156.531 30.3362 156.766 30.0793 156.941 29.7744L158.103 30.3362C157.816 30.8587 157.424 31.2854 156.928 31.6164C156.431 31.9386 155.813 32.0998 155.073 32.0998ZM155.007 26.2211C154.537 26.2211 154.136 26.3648 153.806 26.6522C153.474 26.9396 153.252 27.3228 153.139 27.8018H156.836C156.819 27.5753 156.745 27.3402 156.614 27.0964C156.484 26.8525 156.283 26.6478 156.013 26.4824C155.752 26.3082 155.416 26.2211 155.007 26.2211Z" fill="white"/>
<path d="M152.536 0.383789H21.131C9.67209 0.383789 0.382812 9.67307 0.382812 21.132C0.382812 32.5909 9.67209 41.8802 21.131 41.8802H152.536C163.995 41.8802 173.284 32.5909 173.284 21.132C173.284 9.67307 163.995 0.383789 152.536 0.383789Z" stroke="#747775"/>
</g>
<defs>
<linearGradient id="paint0_linear_568_888" x1="28.6504" y1="26.1617" x2="14.4325" y2="42.8201" gradientUnits="userSpaceOnUse">
<stop stop-color="#4285F4"/>
<stop offset="1" stop-color="#1B74E8"/>
</linearGradient>
<clipPath id="clip0_568_888">
<rect width="173.67" height="42.2648" fill="white"/>
</clipPath>
</defs>
</svg>
