<svg width="174" height="41" viewBox="0 0 174 41" fill="none" xmlns="http://www.w3.org/2000/svg">
<g clip-path="url(#clip0_568_852)">
<path d="M153.348 0.369141H20.3247C9.30461 0.369141 0.371094 9.30266 0.371094 20.3227C0.371094 31.3428 9.30461 40.2763 20.3247 40.2763H153.348C164.369 40.2763 173.302 31.3428 173.302 20.3227C173.302 9.30266 164.369 0.369141 153.348 0.369141Z" fill="#1F1F1F"/>
<path d="M42.1243 17.5825H15.5195V13.4104C15.5195 11.1455 17.4722 9.23828 19.7909 9.23828H37.8529C40.1717 9.23828 42.1243 11.1455 42.1243 13.4104V17.5825Z" fill="#34A853"/>
<path d="M42.1243 21.4317H15.5195V16.9976C15.5195 14.5905 17.4722 12.5635 19.7909 12.5635H37.8529C40.1717 12.5635 42.1243 14.5905 42.1243 16.9976V21.4317Z" fill="#FBBC04"/>
<path d="M42.1243 25.127H15.5195V20.6929C15.5195 18.2859 17.4722 16.2588 19.7909 16.2588H37.8529C40.1717 16.2588 42.1243 18.2859 42.1243 20.6929V25.127Z" fill="#EA4335"/>
<path d="M15.5195 18.6534L32.4057 22.468C34.3494 22.9448 36.5361 22.468 38.1153 21.2759L42.1243 18.415V27.3553C42.1243 29.6202 40.1806 31.4082 37.8724 31.4082H19.7714C17.4632 31.4082 15.5195 29.6202 15.5195 27.3553V18.6534Z" fill="url(#paint0_linear_568_852)"/>
<path d="M51.7695 15.8893V9.01051H54.1329C54.5492 9.01051 54.9271 9.10015 55.2666 9.27951C55.606 9.45887 55.875 9.70541 56.0736 10.0193C56.2785 10.3331 56.381 10.6982 56.381 11.1145C56.381 11.5308 56.2785 11.8991 56.0736 12.2193C55.875 12.5332 55.606 12.7797 55.2666 12.9591C54.9271 13.132 54.5492 13.2185 54.1329 13.2185H52.8263V15.8893H51.7695ZM54.1617 10.0097H52.8263V12.2193H54.1617C54.4115 12.2193 54.6229 12.1681 54.7958 12.0656C54.9688 11.9568 55.1001 11.819 55.1897 11.6525C55.2858 11.4796 55.3338 11.3002 55.3338 11.1145C55.3338 10.9288 55.2858 10.7526 55.1897 10.5861C55.1001 10.4196 54.9688 10.2818 54.7958 10.173C54.6229 10.0641 54.4115 10.0097 54.1617 10.0097ZM57.2916 15.8893V10.9896H58.2715V11.7101H58.3292C58.438 11.4604 58.6237 11.2554 58.8864 11.0953C59.1554 10.9288 59.4436 10.8455 59.751 10.8455C59.8855 10.8455 59.9976 10.8551 60.0873 10.8743C60.1834 10.8935 60.2698 10.9159 60.3467 10.9416V12.0176C60.225 11.9664 60.1001 11.9247 59.972 11.8927C59.8503 11.8607 59.7222 11.8447 59.5877 11.8447C59.3443 11.8447 59.1266 11.9119 58.9344 12.0464C58.7486 12.1745 58.6013 12.3507 58.4925 12.5748C58.3835 12.7926 58.3292 13.0328 58.3292 13.2953V15.8893H57.2916ZM61.7432 10.2691C61.5511 10.2691 61.3846 10.2018 61.2436 10.0673C61.1091 9.92637 61.0419 9.75987 61.0419 9.56773C61.0419 9.37558 61.1091 9.21226 61.2436 9.07776C61.3846 8.94325 61.5511 8.876 61.7432 8.876C61.9354 8.876 62.0987 8.94325 62.2332 9.07776C62.3741 9.21226 62.4445 9.37558 62.4445 9.56773C62.4445 9.75987 62.3741 9.92637 62.2332 10.0673C62.0987 10.2018 61.9354 10.2691 61.7432 10.2691ZM61.2244 15.8893V10.9896H62.262V15.8893H61.2244ZM65.5969 16.043C65.155 16.043 64.7546 15.9342 64.396 15.7164C64.0437 15.4922 63.7619 15.1848 63.5506 14.7941C63.3456 14.397 63.2431 13.9455 63.2431 13.4395C63.2431 12.9335 63.3456 12.4852 63.5506 12.0944C63.7619 11.7037 64.0437 11.3963 64.396 11.1721C64.7546 10.948 65.155 10.8359 65.5969 10.8359C65.9748 10.8359 66.2982 10.9192 66.5672 11.0857C66.8426 11.2522 67.0444 11.4411 67.1725 11.6525H67.2301L67.1725 10.9704V9.01051H68.2005V15.8893H67.2301V15.236H67.1725C67.0444 15.4474 66.8426 15.6363 66.5672 15.8028C66.2982 15.963 65.9748 16.043 65.5969 16.043ZM65.7506 15.0919C66.0068 15.0919 66.247 15.0247 66.4712 14.8902C66.7018 14.7557 66.8843 14.5667 67.0188 14.3233C67.1596 14.0735 67.2301 13.7789 67.2301 13.4395C67.2301 13.1 67.1596 12.8086 67.0188 12.5652C66.8843 12.3154 66.7018 12.1233 66.4712 11.9888C66.247 11.8543 66.0068 11.787 65.7506 11.787C65.4944 11.787 65.2542 11.8543 65.0301 11.9888C64.8059 12.1233 64.6233 12.3154 64.4825 12.5652C64.3415 12.8086 64.2711 13.1 64.2711 13.4395C64.2711 13.7789 64.3415 14.0735 64.4825 14.3233C64.6233 14.5667 64.8059 14.7557 65.0301 14.8902C65.2542 15.0247 65.4944 15.0919 65.7506 15.0919ZM70.9128 16.043C70.5606 16.043 70.2468 15.9758 69.9713 15.8413C69.696 15.7003 69.4814 15.505 69.3276 15.2552C69.1739 15.0054 69.0971 14.7204 69.0971 14.4002C69.0971 14.0543 69.1868 13.7597 69.3661 13.5163C69.5519 13.2665 69.7984 13.0776 70.1058 12.9495C70.4133 12.8214 70.7528 12.7573 71.1242 12.7573C71.4316 12.7573 71.7006 12.7862 71.9312 12.8438C72.1682 12.9015 72.3476 12.9623 72.4692 13.0263V12.7669C72.4692 12.4467 72.3539 12.1905 72.1234 11.9984C71.8928 11.8062 71.595 11.7101 71.2299 11.7101C70.9801 11.7101 70.7432 11.7678 70.5189 11.8831C70.2948 11.9919 70.1154 12.1425 69.9809 12.3346L69.27 11.787C69.4814 11.4924 69.76 11.2618 70.1058 11.0953C70.4581 10.9224 70.8424 10.8359 71.2587 10.8359C71.9696 10.8359 72.5173 11.012 72.9015 11.3643C73.2858 11.7101 73.478 12.1969 73.478 12.8246V15.8893H72.4692V15.2841H72.4116C72.2835 15.4826 72.0914 15.6587 71.8351 15.8125C71.579 15.9662 71.2716 16.043 70.9128 16.043ZM71.0954 15.1976C71.3644 15.1976 71.6014 15.1335 71.8063 15.0054C72.0113 14.8774 72.1714 14.7108 72.2867 14.5059C72.4084 14.2945 72.4692 14.0671 72.4692 13.8237C72.3219 13.7405 72.149 13.6732 71.9504 13.622C71.7519 13.5644 71.5406 13.5355 71.3163 13.5355C70.8936 13.5355 70.5926 13.622 70.4133 13.7949C70.234 13.9614 70.1443 14.1664 70.1443 14.4098C70.1443 14.6404 70.2307 14.8293 70.4037 14.9766C70.5766 15.1239 70.8072 15.1976 71.0954 15.1976ZM75.045 14.4674V11.8927H74.19V10.9896H75.045V9.60616H76.0826V10.9896H77.2835V11.8927H76.0826V14.2465C76.0826 14.4898 76.1306 14.6756 76.2267 14.8037C76.3294 14.9318 76.4994 14.9958 76.7359 14.9958C76.8578 14.9958 76.9605 14.9798 77.0433 14.9478C77.1335 14.9158 77.2229 14.8709 77.3123 14.8133V15.8221C77.2037 15.8669 77.0884 15.9021 76.9665 15.9277C76.8453 15.9534 76.7012 15.9662 76.5341 15.9662C76.0796 15.9662 75.7175 15.8348 75.4485 15.5723C75.1795 15.3033 75.045 14.935 75.045 14.4674ZM76.6206 10.4228V9.01051H77.5909L77.3507 10.4228H76.6206ZM82.5505 16.043C82.1086 16.043 81.708 15.9342 81.3496 15.7164C80.9971 15.4922 80.7155 15.1848 80.5042 14.7941C80.2987 14.397 80.1967 13.9455 80.1967 13.4395C80.1967 12.9335 80.2987 12.4852 80.5042 12.0944C80.7155 11.7037 80.9971 11.3963 81.3496 11.1721C81.708 10.948 82.1086 10.8359 82.5505 10.8359C82.9281 10.8359 83.2518 10.9192 83.5208 11.0857C83.7958 11.2522 83.9975 11.4411 84.1261 11.6525H84.1837L84.1261 10.9704V9.01051H85.1541V15.8893H84.1837V15.236H84.1261C83.9975 15.4474 83.7958 15.6363 83.5208 15.8028C83.2518 15.963 82.9281 16.043 82.5505 16.043ZM82.7042 15.0919C82.9599 15.0919 83.2001 15.0247 83.4248 14.8902C83.6553 14.7557 83.8379 14.5667 83.9724 14.3233C84.1128 14.0735 84.1837 13.7789 84.1837 13.4395C84.1837 13.1 84.1128 12.8086 83.9724 12.5652C83.8379 12.3154 83.6553 12.1233 83.4248 11.9888C83.2001 11.8543 82.9599 11.787 82.7042 11.787C82.4478 11.787 82.2076 11.8543 81.9837 11.9888C81.759 12.1233 81.5765 12.3154 81.4361 12.5652C81.2949 12.8086 81.2247 13.1 81.2247 13.4395C81.2247 13.7789 81.2949 14.0735 81.4361 14.3233C81.5765 14.5667 81.759 14.7557 81.9837 14.8902C82.2076 15.0247 82.4478 15.0919 82.7042 15.0919ZM88.6349 16.043C88.1286 16.043 87.6837 15.9277 87.2995 15.6972C86.9152 15.4666 86.6144 15.156 86.3964 14.7653C86.1784 14.3745 86.0697 13.9326 86.0697 13.4395C86.0697 12.9527 86.1784 12.514 86.3964 12.1233C86.6144 11.7262 86.9152 11.4123 87.2995 11.1817C87.6837 10.9512 88.1286 10.8359 88.6349 10.8359C89.1344 10.8359 89.5764 10.9512 89.9607 11.1817C90.345 11.4123 90.6457 11.7262 90.8638 12.1233C91.0818 12.514 91.1904 12.9527 91.1904 13.4395C91.1904 13.9326 91.0818 14.3745 90.8638 14.7653C90.6457 15.156 90.345 15.4666 89.9607 15.6972C89.5764 15.9277 89.1344 16.043 88.6349 16.043ZM88.6349 15.0919C88.9039 15.0919 89.1537 15.0278 89.3842 14.8998C89.6148 14.7653 89.8003 14.5763 89.9415 14.3329C90.0885 14.0831 90.1624 13.7853 90.1624 13.4395C90.1624 13.0936 90.0885 12.7989 89.9415 12.5556C89.8003 12.3058 89.6148 12.1168 89.3842 11.9888C89.1537 11.8543 88.9039 11.787 88.6349 11.787C88.3659 11.787 88.1131 11.8543 87.8759 11.9888C87.6453 12.1168 87.4561 12.3058 87.3091 12.5556C87.1679 12.7989 87.0977 13.0936 87.0977 13.4395C87.0977 13.7853 87.1679 14.0831 87.3091 14.3329C87.4561 14.5763 87.6453 14.7653 87.8759 14.8998C88.1131 15.0278 88.3659 15.0919 88.6349 15.0919ZM96.1751 16.043C95.5861 16.043 95.1153 15.915 94.7628 15.6587C94.4111 15.3962 94.1672 15.0855 94.0327 14.7268L94.9646 14.3233C95.0799 14.5859 95.2469 14.7877 95.4642 14.9286C95.6822 15.0631 95.929 15.1303 96.2039 15.1303C96.4604 15.1303 96.6813 15.0855 96.8668 14.9958C97.0531 14.8998 97.1454 14.746 97.1454 14.5347C97.1454 14.3298 97.0531 14.1792 96.8668 14.0831C96.6813 13.9871 96.4508 13.9038 96.1751 13.8334L95.5891 13.6989C95.3526 13.6412 95.1316 13.5516 94.9262 13.4299C94.7214 13.3081 94.5552 13.1512 94.4266 12.9591C94.2987 12.7605 94.2344 12.5299 94.2344 12.2674C94.2344 11.9792 94.3209 11.7294 94.4938 11.518C94.6668 11.3002 94.8944 11.1337 95.1759 11.0184C95.4642 10.8967 95.7753 10.8359 96.1078 10.8359C96.5631 10.8359 96.9599 10.9255 97.2991 11.1049C97.645 11.2778 97.8985 11.5404 98.0581 11.8927L97.1647 12.2962C97.0494 12.0784 96.8993 11.9279 96.7131 11.8447C96.5343 11.755 96.3355 11.7101 96.1175 11.7101C95.8743 11.7101 95.6696 11.7614 95.5026 11.8639C95.343 11.9664 95.2624 12.0944 95.2624 12.2482C95.2624 12.4147 95.3334 12.546 95.4738 12.6421C95.6216 12.7381 95.8004 12.815 96.0118 12.8726L96.7227 13.0456C97.2097 13.1673 97.5748 13.353 97.8179 13.6028C98.0618 13.8461 98.183 14.144 98.183 14.4963C98.183 14.8101 98.0936 15.0855 97.914 15.3225C97.7352 15.5531 97.4913 15.7324 97.1839 15.8605C96.8831 15.9822 96.5468 16.043 96.1751 16.043ZM99.0987 15.8893V9.01051H100.136V15.8893H99.0987ZM103.137 16.043C102.534 16.043 102.08 15.8637 101.772 15.505C101.472 15.1399 101.321 14.6468 101.321 14.0255V10.9896H102.358V13.8814C102.358 14.2977 102.455 14.6051 102.647 14.8037C102.846 14.9958 103.092 15.0919 103.386 15.0919C103.649 15.0919 103.876 15.0247 104.069 14.8902C104.267 14.7492 104.417 14.5699 104.52 14.3521C104.629 14.128 104.683 13.8846 104.683 13.622V10.9896H105.711V15.8893H104.741V15.2264H104.683C104.542 15.457 104.331 15.6523 104.049 15.8125C103.774 15.9662 103.47 16.043 103.137 16.043ZM106.823 15.8893V15.0247L109.551 11.8927H106.909V10.9896H110.82V11.8543L108.101 14.9862H110.896V15.8893H106.823ZM108.418 10.0481L107.39 8.88561V8.81836H108.379L108.821 9.41401H108.917L109.369 8.81836H110.368V8.88561L109.33 10.0481H108.418ZM114.575 16.043C114.196 16.043 113.869 15.963 113.595 15.8028C113.326 15.6363 113.127 15.4474 112.999 15.236H112.941V15.8893H111.961V9.01051H112.999V10.9704L112.941 11.6525H112.999C113.127 11.4411 113.326 11.2522 113.595 11.0857C113.869 10.9192 114.196 10.8359 114.575 10.8359C115.022 10.8359 115.423 10.948 115.775 11.1721C116.127 11.3963 116.406 11.7037 116.611 12.0944C116.823 12.4852 116.928 12.9335 116.928 13.4395C116.928 13.9455 116.823 14.397 116.611 14.7941C116.406 15.1848 116.127 15.4922 115.775 15.7164C115.423 15.9342 115.022 16.043 114.575 16.043ZM114.421 15.0919C114.676 15.0919 114.917 15.0247 115.141 14.8902C115.365 14.7557 115.548 14.5667 115.689 14.3233C115.829 14.0735 115.9 13.7789 115.9 13.4395C115.9 13.1 115.829 12.8086 115.689 12.5652C115.548 12.3154 115.365 12.1233 115.141 11.9888C114.917 11.8543 114.676 11.787 114.421 11.787C114.164 11.787 113.924 11.8543 113.7 11.9888C113.476 12.1233 113.293 12.3154 113.153 12.5652C113.011 12.8086 112.941 13.1 112.941 13.4395C112.941 13.7789 113.011 14.0735 113.153 14.3233C113.293 14.5667 113.476 14.7557 113.7 14.8902C113.924 15.0247 114.164 15.0919 114.421 15.0919ZM119.365 17.7243C119.346 17.7755 119.323 17.8236 119.298 17.8684C119.278 17.9133 119.266 17.9453 119.259 17.9645H118.154C118.187 17.8941 118.231 17.7916 118.289 17.6571C118.353 17.529 118.414 17.4041 118.471 17.2824C118.529 17.1607 118.59 17.023 118.654 16.8693C118.725 16.7155 118.795 16.565 118.865 16.4177L119.23 15.6203L117.184 10.9896H118.337L119.74 14.3329H119.788L121.142 10.9896H122.285L119.749 16.8308C119.679 16.9973 119.602 17.1703 119.519 17.3496C119.442 17.5353 119.391 17.6602 119.365 17.7243Z" fill="white"/>
<path d="M56.2699 30.8705C55.6249 30.8705 55.0177 30.7532 54.4482 30.5187C53.887 30.2842 53.3886 29.9576 52.9531 29.5388C52.5176 29.1116 52.1742 28.6133 51.9229 28.0437C51.68 27.4658 51.5586 26.8419 51.5586 26.1718C51.5586 25.5017 51.68 24.882 51.9229 24.3124C52.1742 23.7345 52.5134 23.2362 52.9406 22.8174C53.3761 22.3902 53.8786 22.0594 54.4482 21.8249C55.0177 21.5904 55.6249 21.4731 56.2699 21.4731C56.9566 21.4731 57.589 21.5945 58.1669 21.8374C58.7532 22.0804 59.2432 22.4196 59.6368 22.8551L58.682 23.7973C58.3889 23.4707 58.0371 23.2194 57.6267 23.0435C57.2247 22.8676 56.7724 22.7797 56.2699 22.7797C55.6752 22.7797 55.1266 22.9221 54.6241 23.2068C54.1215 23.4832 53.7153 23.8769 53.4054 24.3878C53.1039 24.8903 52.9531 25.485 52.9531 26.1718C52.9531 26.8586 53.1081 27.4575 53.418 27.9684C53.7278 28.4709 54.1341 28.8646 54.6366 29.1493C55.1392 29.4257 55.6877 29.5639 56.2824 29.5639C56.8269 29.5639 57.321 29.4634 57.7649 29.2624C58.2088 29.053 58.5647 28.7599 58.8328 28.383C59.1092 28.0061 59.2767 27.5538 59.3353 27.0261H56.2573V25.8075H60.6293C60.6796 26.0336 60.7047 26.2723 60.7047 26.5236V26.5361C60.7047 27.4072 60.5121 28.1694 60.1268 28.8227C59.7499 29.4676 59.2265 29.9701 58.5564 30.3303C57.8863 30.6904 57.1242 30.8705 56.2699 30.8705ZM64.75 30.8705C64.0883 30.8705 63.5063 30.7197 63.0037 30.4182C62.5012 30.1167 62.1075 29.7105 61.8228 29.1996C61.538 28.6887 61.3956 28.1108 61.3956 27.4658C61.3956 26.8293 61.538 26.2555 61.8228 25.7446C62.1075 25.2253 62.5012 24.815 63.0037 24.5134C63.5063 24.2119 64.0883 24.0612 64.75 24.0612C65.4033 24.0612 65.9813 24.2119 66.4838 24.5134C66.9863 24.815 67.3799 25.2253 67.6647 25.7446C67.9495 26.2555 68.0919 26.8293 68.0919 27.4658C68.0919 28.1108 67.9495 28.6887 67.6647 29.1996C67.3799 29.7105 66.9863 30.1167 66.4838 30.4182C65.9813 30.7197 65.4033 30.8705 64.75 30.8705ZM64.75 29.6267C65.1018 29.6267 65.4285 29.543 65.73 29.3755C66.0315 29.1996 66.2744 28.9525 66.4587 28.6342C66.6513 28.3076 66.7476 27.9181 66.7476 27.4658C66.7476 27.0135 66.6513 26.6283 66.4587 26.31C66.2744 25.9834 66.0315 25.7363 65.73 25.5688C65.4285 25.3929 65.1018 25.3049 64.75 25.3049C64.3983 25.3049 64.0674 25.3929 63.7575 25.5688C63.456 25.7363 63.2089 25.9834 63.0163 26.31C62.832 26.6283 62.7399 27.0135 62.7399 27.4658C62.7399 27.9181 62.832 28.3076 63.0163 28.6342C63.2089 28.9525 63.456 29.1996 63.7575 29.3755C64.0674 29.543 64.3983 29.6267 64.75 29.6267ZM72.3567 30.8705C71.6951 30.8705 71.1129 30.7197 70.6104 30.4182C70.1079 30.1167 69.7143 29.7105 69.4295 29.1996C69.1447 28.6887 69.0023 28.1108 69.0023 27.4658C69.0023 26.8293 69.1447 26.2555 69.4295 25.7446C69.7143 25.2253 70.1079 24.815 70.6104 24.5134C71.1129 24.2119 71.6951 24.0612 72.3567 24.0612C73.01 24.0612 73.5879 24.2119 74.0906 24.5134C74.5931 24.815 74.987 25.2253 75.2716 25.7446C75.5561 26.2555 75.6987 26.8293 75.6987 27.4658C75.6987 28.1108 75.5561 28.6887 75.2716 29.1996C74.987 29.7105 74.5931 30.1167 74.0906 30.4182C73.5879 30.7197 73.01 30.8705 72.3567 30.8705ZM72.3567 29.6267C72.7085 29.6267 73.0351 29.543 73.3367 29.3755C73.6382 29.1996 73.8811 28.9525 74.0655 28.6342C74.2584 28.3076 74.3544 27.9181 74.3544 27.4658C74.3544 27.0135 74.2584 26.6283 74.0655 26.31C73.8811 25.9834 73.6382 25.7363 73.3367 25.5688C73.0351 25.3929 72.7085 25.3049 72.3567 25.3049C72.0049 25.3049 71.6742 25.3929 71.3642 25.5688C71.0627 25.7363 70.8156 25.9834 70.623 26.31C70.4387 26.6283 70.3466 27.0135 70.3466 27.4658C70.3466 27.9181 70.4387 28.3076 70.623 28.6342C70.8156 28.9525 71.0627 29.1996 71.3642 29.3755C71.6742 29.543 72.0049 29.6267 72.3567 29.6267ZM79.838 33.5842C79.2763 33.5842 78.7908 33.492 78.3806 33.3078C77.9786 33.1319 77.652 32.9015 77.4007 32.6168C77.1494 32.3404 76.9691 32.0557 76.8605 31.7625L78.1168 31.2348C78.2506 31.5698 78.4641 31.8421 78.7575 32.0515C79.0591 32.2692 79.419 32.3781 79.838 32.3781C80.424 32.3781 80.8844 32.2022 81.22 31.8504C81.5629 31.4987 81.7351 31.0003 81.7351 30.3554V29.7398H81.6597C81.4587 30.0413 81.1778 30.2842 80.8179 30.4685C80.4662 30.6444 80.0641 30.7323 79.6118 30.7323C79.0672 30.7323 78.5691 30.5941 78.1168 30.3177C77.6645 30.0413 77.3002 29.6561 77.0238 29.1619C76.7474 28.6593 76.6092 28.0731 76.6092 27.403C76.6092 26.7246 76.7474 26.1383 77.0238 25.6441C77.3002 25.1416 77.6645 24.7521 78.1168 24.4757C78.5691 24.1994 79.0672 24.0612 79.6118 24.0612C80.0641 24.0612 80.4662 24.1533 80.8179 24.3375C81.1778 24.5218 81.4587 24.7647 81.6597 25.0662H81.7351V24.2622H83.0291V30.3303C83.0291 31.0255 82.8909 31.6159 82.6145 32.1017C82.3462 32.5875 81.9738 32.956 81.4963 33.2073C81.0189 33.4585 80.4662 33.5842 79.838 33.5842ZM79.8505 29.5011C80.1853 29.5011 80.495 29.4215 80.7802 29.2624C81.0648 29.0949 81.2953 28.8561 81.4712 28.5463C81.6471 28.228 81.7351 27.8469 81.7351 27.403C81.7351 26.9424 81.6471 26.5571 81.4712 26.2472C81.2953 25.9289 81.0648 25.6902 80.7802 25.5311C80.495 25.372 80.1853 25.2924 79.8505 25.2924C79.515 25.2924 79.2009 25.3761 78.9083 25.5436C78.623 25.7027 78.3932 25.9373 78.2173 26.2472C78.0414 26.5571 77.9535 26.9424 77.9535 27.403C77.9535 27.8553 78.0414 28.2405 78.2173 28.5588C78.3932 28.8687 78.623 29.1033 78.9083 29.2624C79.2009 29.4215 79.515 29.5011 79.8505 29.5011ZM84.6291 30.6695V21.6741H85.9859V30.6695H84.6291ZM90.4511 30.8705C89.8229 30.8705 89.262 30.7239 88.7676 30.4308C88.2739 30.1376 87.8844 29.7356 87.5992 29.2247C87.3228 28.7138 87.1846 28.1317 87.1846 27.4784C87.1846 26.867 87.3191 26.3016 87.5866 25.7823C87.8549 25.263 88.2274 24.8484 88.7048 24.5386C89.191 24.2203 89.7475 24.0612 90.3757 24.0612C91.0379 24.0612 91.5988 24.2036 92.0592 24.4883C92.5285 24.7731 92.8847 25.1625 93.1271 25.6567C93.3702 26.1509 93.4914 26.7078 93.4914 27.3276C93.4914 27.4198 93.4877 27.5035 93.4788 27.5789C93.4788 27.6543 93.4751 27.7129 93.4663 27.7548H88.5163C88.5836 28.3913 88.8053 28.8687 89.1822 29.187C89.5679 29.5053 90.0032 29.6644 90.4888 29.6644C90.9248 29.6644 91.2847 29.5681 91.5692 29.3755C91.8545 29.1744 92.0806 28.9274 92.2476 28.6342L93.3658 29.1744C93.0894 29.677 92.7125 30.0874 92.2351 30.4057C91.7577 30.7155 91.1635 30.8705 90.4511 30.8705ZM90.3883 25.217C89.936 25.217 89.5509 25.3552 89.2324 25.6316C88.9146 25.908 88.7011 26.2765 88.5917 26.7372H92.1471C92.1309 26.5194 92.0592 26.2932 91.9335 26.0587C91.8079 25.8242 91.6158 25.6274 91.3556 25.4683C91.1044 25.3007 90.7821 25.217 90.3883 25.217ZM97.9085 30.6695V21.6741H100.999C101.544 21.6741 102.038 21.7914 102.482 22.0259C102.926 22.2604 103.278 22.5829 103.537 22.9933C103.805 23.4037 103.939 23.8811 103.939 24.4255C103.939 24.9699 103.805 25.4515 103.537 25.8703C103.278 26.2807 102.926 26.6032 102.482 26.8377C102.038 27.0638 101.544 27.1769 100.999 27.1769H99.2905V30.6695H97.9085ZM101.037 22.9807H99.2905V25.8703H101.037C101.363 25.8703 101.64 25.8033 101.866 25.6693C102.092 25.5269 102.264 25.3468 102.381 25.129C102.507 24.9029 102.57 24.6684 102.57 24.4255C102.57 24.1826 102.507 23.9523 102.381 23.7345C102.264 23.5167 102.092 23.3367 101.866 23.1943C101.64 23.0519 101.363 22.9807 101.037 22.9807ZM107.616 30.8705C106.987 30.8705 106.426 30.7239 105.932 30.4308C105.438 30.1376 105.048 29.7356 104.764 29.2247C104.487 28.7138 104.349 28.1317 104.349 27.4784C104.349 26.867 104.483 26.3016 104.751 25.7823C105.019 25.263 105.392 24.8484 105.869 24.5386C106.355 24.2203 106.912 24.0612 107.54 24.0612C108.202 24.0612 108.763 24.2036 109.224 24.4883C109.693 24.7731 110.048 25.1625 110.292 25.6567C110.535 26.1509 110.656 26.7078 110.656 27.3276C110.656 27.4198 110.651 27.5035 110.643 27.5789C110.643 27.6543 110.639 27.7129 110.631 27.7548H105.681C105.748 28.3913 105.97 28.8687 106.347 29.187C106.732 29.5053 107.168 29.6644 107.653 29.6644C108.089 29.6644 108.449 29.5681 108.734 29.3755C109.018 29.1744 109.244 28.9274 109.412 28.6342L110.53 29.1744C110.254 29.677 109.877 30.0874 109.4 30.4057C108.922 30.7155 108.327 30.8705 107.616 30.8705ZM107.553 25.217C107.1 25.217 106.715 25.3552 106.397 25.6316C106.078 25.908 105.865 26.2765 105.756 26.7372H109.312C109.295 26.5194 109.224 26.2932 109.098 26.0587C108.972 25.8242 108.78 25.6274 108.52 25.4683C108.269 25.3007 107.947 25.217 107.553 25.217ZM111.914 30.6695V24.2622H113.196V25.1416H113.271C113.456 24.8317 113.728 24.5763 114.088 24.3752C114.457 24.1659 114.859 24.0612 115.294 24.0612C116.082 24.0612 116.672 24.2956 117.065 24.7647C117.459 25.2338 117.656 25.8535 117.656 26.6241V30.6695H116.312V26.8C116.312 26.2807 116.182 25.9038 115.922 25.6693C115.663 25.4264 115.324 25.3049 114.905 25.3049C114.578 25.3049 114.293 25.3971 114.05 25.5813C113.808 25.7572 113.615 25.9917 113.472 26.2849C113.339 26.578 113.271 26.8921 113.271 27.2271V30.6695H111.914ZM114.339 23.031L112.995 21.5108V21.4229H114.289L114.867 22.2018H114.992L115.583 21.4229H116.89V21.5108L115.533 23.031H114.339ZM121.151 30.8705C120.69 30.8705 120.28 30.7826 119.92 30.6067C119.56 30.4224 119.28 30.1669 119.079 29.8403C118.878 29.5137 118.777 29.141 118.777 28.7222C118.777 28.2699 118.894 27.8846 119.129 27.5663C119.371 27.2397 119.694 26.9926 120.096 26.8251C120.498 26.6576 120.942 26.5738 121.428 26.5738C121.83 26.5738 122.182 26.6115 122.483 26.6869C122.793 26.7623 123.027 26.8419 123.187 26.9256V26.5864C123.187 26.1676 123.036 25.8326 122.734 25.5813C122.433 25.3301 122.043 25.2044 121.566 25.2044C121.239 25.2044 120.929 25.2798 120.636 25.4306C120.343 25.573 120.109 25.7698 119.933 26.021L119.003 25.3049C119.28 24.9197 119.644 24.6182 120.096 24.4004C120.557 24.1742 121.059 24.0612 121.604 24.0612C122.533 24.0612 123.25 24.2915 123.752 24.7521C124.255 25.2044 124.506 25.8409 124.506 26.6618V30.6695H123.187V29.878H123.111C122.944 30.1376 122.692 30.368 122.358 30.569C122.022 30.77 121.62 30.8705 121.151 30.8705ZM121.39 29.7649C121.742 29.7649 122.052 29.6812 122.32 29.5137C122.587 29.3461 122.797 29.1284 122.948 28.8604C123.107 28.584 123.187 28.2867 123.187 27.9684C122.994 27.8595 122.768 27.7716 122.508 27.7045C122.248 27.6292 121.972 27.5915 121.679 27.5915C121.126 27.5915 120.732 27.7045 120.498 27.9307C120.263 28.1485 120.146 28.4164 120.146 28.7347C120.146 29.0362 120.259 29.2833 120.486 29.476C120.712 29.6686 121.013 29.7649 121.39 29.7649ZM125.66 30.6695V29.5388L129.228 25.4431H125.773V24.2622H130.887V25.3929L127.331 29.4885H130.987V30.6695H125.66ZM127.746 23.031L126.401 21.5108V21.4229H127.696L128.273 22.2018H128.399L128.99 21.4229H130.296V21.5108L128.939 23.031H127.746ZM135.061 30.8705C134.433 30.8705 133.872 30.7239 133.378 30.4308C132.883 30.1376 132.494 29.7356 132.209 29.2247C131.933 28.7138 131.795 28.1317 131.795 27.4784C131.795 26.867 131.929 26.3016 132.197 25.7823C132.464 25.263 132.838 24.8484 133.315 24.5386C133.801 24.2203 134.358 24.0612 134.986 24.0612C135.647 24.0612 136.208 24.2036 136.669 24.4883C137.138 24.7731 137.494 25.1625 137.737 25.6567C137.98 26.1509 138.102 26.7078 138.102 27.3276C138.102 27.4198 138.097 27.5035 138.089 27.5789C138.089 27.6543 138.085 27.7129 138.077 27.7548H133.127C133.193 28.3913 133.416 28.8687 133.792 29.187C134.177 29.5053 134.613 29.6644 135.099 29.6644C135.534 29.6644 135.894 29.5681 136.179 29.3755C136.464 29.1744 136.69 28.9274 136.858 28.6342L137.976 29.1744C137.7 29.677 137.323 30.0874 136.845 30.4057C136.368 30.7155 135.773 30.8705 135.061 30.8705ZM134.999 25.217C134.546 25.217 134.16 25.3552 133.843 25.6316C133.524 25.908 133.311 26.2765 133.202 26.7372H136.757C136.74 26.5194 136.669 26.2932 136.544 26.0587C136.418 25.8242 136.225 25.6274 135.966 25.4683C135.715 25.3007 135.392 25.217 134.999 25.217ZM139.36 30.6695V24.2622H140.642V25.1416H140.717C140.901 24.8317 141.174 24.5763 141.534 24.3752C141.902 24.1659 142.304 24.0612 142.74 24.0612C143.527 24.0612 144.117 24.2956 144.511 24.7647C144.905 25.2338 145.102 25.8535 145.102 26.6241V30.6695H143.757V26.8C143.757 26.2807 143.627 25.9038 143.368 25.6693C143.109 25.4264 142.769 25.3049 142.35 25.3049C142.024 25.3049 141.739 25.3971 141.496 25.5813C141.253 25.7572 141.061 25.9917 140.918 26.2849C140.784 26.578 140.717 26.8921 140.717 27.2271V30.6695H139.36ZM146.648 30.6695V21.6741H148.005V26.9759L150.718 24.2622H152.402V24.3375L149.927 26.7874L152.49 30.5941V30.6695H150.882L148.972 27.7297L148.005 28.6845V30.6695H146.648ZM155.222 30.8705C154.761 30.8705 154.351 30.7826 153.991 30.6067C153.631 30.4224 153.35 30.1669 153.149 29.8403C152.948 29.5137 152.847 29.141 152.847 28.7222C152.847 28.2699 152.965 27.8846 153.199 27.5663C153.442 27.2397 153.765 26.9926 154.167 26.8251C154.569 26.6576 155.013 26.5738 155.498 26.5738C155.9 26.5738 156.252 26.6115 156.554 26.6869C156.863 26.7623 157.098 26.8419 157.257 26.9256V26.5864C157.257 26.1676 157.106 25.8326 156.805 25.5813C156.503 25.3301 156.114 25.2044 155.636 25.2044C155.31 25.2044 155 25.2798 154.707 25.4306C154.413 25.573 154.179 25.7698 154.003 26.021L153.074 25.3049C153.35 24.9197 153.714 24.6182 154.167 24.4004C154.627 24.1742 155.129 24.0612 155.674 24.0612C156.604 24.0612 157.32 24.2915 157.822 24.7521C158.325 25.2044 158.576 25.8409 158.576 26.6618V30.6695H157.257V29.878H157.182C157.014 30.1376 156.763 30.368 156.428 30.569C156.093 30.77 155.691 30.8705 155.222 30.8705ZM155.461 29.7649C155.812 29.7649 156.122 29.6812 156.39 29.5137C156.659 29.3461 156.868 29.1284 157.018 28.8604C157.177 28.584 157.257 28.2867 157.257 27.9684C157.064 27.8595 156.838 27.7716 156.579 27.7045C156.319 27.6292 156.043 27.5915 155.75 27.5915C155.197 27.5915 154.803 27.7045 154.569 27.9307C154.334 28.1485 154.217 28.4164 154.217 28.7347C154.217 29.0362 154.33 29.2833 154.556 29.476C154.782 29.6686 155.084 29.7649 155.461 29.7649Z" fill="white"/>
<path d="M153.348 0.369141H20.3247C9.30461 0.369141 0.371094 9.30266 0.371094 20.3227C0.371094 31.3428 9.30461 40.2763 20.3247 40.2763H153.348C164.369 40.2763 173.302 31.3428 173.302 20.3227C173.302 9.30266 164.369 0.369141 153.348 0.369141Z" stroke="#747775"/>
</g>
<defs>
<linearGradient id="paint0_linear_568_852" x1="27.554" y1="25.1597" x2="13.8806" y2="41.1801" gradientUnits="userSpaceOnUse">
<stop stop-color="#4285F4"/>
<stop offset="1" stop-color="#1B74E8"/>
</linearGradient>
<clipPath id="clip0_568_852">
<rect width="173.67" height="40.6462" fill="white"/>
</clipPath>
</defs>
</svg>
