<svg width="174" height="24" viewBox="0 0 174 24" fill="none" xmlns="http://www.w3.org/2000/svg">
<g clip-path="url(#clip0_568_322)">
<path d="M161.675 0.240234H11.9922C5.50069 0.240234 0.238281 5.50264 0.238281 11.9941C0.238281 18.4856 5.50069 23.7481 11.9922 23.7481H161.675C168.166 23.7481 173.429 18.4856 173.429 11.9941C173.429 5.50264 168.166 0.240234 161.675 0.240234Z" fill="#1F1F1F"/>
<path d="M24.4668 10.5543H10.0742V8.15559C10.0742 6.8534 11.1305 5.75684 12.3849 5.75684H22.156C23.4104 5.75684 24.4668 6.8534 24.4668 8.15559V10.5543Z" fill="#34A853"/>
<path d="M24.4668 12.4997H10.0742V10.1009C10.0742 8.79872 11.1305 7.70215 12.3849 7.70215H22.156C23.4104 7.70215 24.4668 8.79872 24.4668 10.1009V12.4997Z" fill="#FBBC04"/>
<path d="M24.4668 14.5114H10.0742V12.1126C10.0742 10.8104 11.1305 9.71387 12.3849 9.71387H22.156C23.4104 9.71387 24.4668 10.8104 24.4668 12.1126V14.5114Z" fill="#EA4335"/>
<path d="M10.0742 11.1662L19.2092 13.2789C20.2607 13.543 21.4437 13.2789 22.298 12.6187L24.4668 11.0342V15.9857C24.4668 17.2401 23.4152 18.2305 22.1666 18.2305H12.3744C11.1257 18.2305 10.0742 17.2401 10.0742 15.9857V11.1662Z" fill="url(#paint0_linear_568_322)"/>
<path d="M31 15.3516V8.4816H32.0555V14.3538H35.0107V15.3516H31ZM36.5102 9.73855C36.3183 9.73855 36.152 9.67138 36.0112 9.53705C35.8769 9.39634 35.8097 9.23001 35.8097 9.03811C35.8097 8.84621 35.8769 8.68309 36.0112 8.54876C36.152 8.41443 36.3183 8.34727 36.5102 8.34727C36.7021 8.34727 36.8652 8.41443 36.9995 8.54876C37.1402 8.68309 37.2106 8.84621 37.2106 9.03811C37.2106 9.23001 37.1402 9.39634 36.9995 9.53705C36.8652 9.67138 36.7021 9.73855 36.5102 9.73855ZM35.9921 15.3516V10.4582H37.0283V15.3516H35.9921ZM40.0987 15.5052C39.5102 15.5052 39.0401 15.3772 38.6883 15.1214C38.3364 14.8591 38.0934 14.5489 37.959 14.1906L38.8897 13.7876C39.0049 14.0499 39.1712 14.2514 39.3887 14.3921C39.6062 14.5265 39.8524 14.5936 40.1275 14.5936C40.3834 14.5936 40.604 14.5489 40.7896 14.4593C40.975 14.3634 41.0678 14.2098 41.0678 13.9987C41.0678 13.794 40.975 13.6437 40.7896 13.5478C40.604 13.4518 40.3738 13.3687 40.0987 13.2983L39.5134 13.164C39.2767 13.1064 39.056 13.0168 38.8514 12.8953C38.6467 12.7738 38.4803 12.6171 38.3524 12.4252C38.2245 12.2269 38.1605 11.9966 38.1605 11.7343C38.1605 11.4465 38.2469 11.197 38.4196 10.9859C38.5923 10.7684 38.8194 10.6021 39.1008 10.487C39.3887 10.3654 39.6989 10.3047 40.0316 10.3047C40.4857 10.3047 40.8823 10.3942 41.2213 10.5733C41.5668 10.746 41.8194 11.0083 41.9793 11.3601L41.087 11.7631C40.9719 11.5456 40.8215 11.3953 40.636 11.3121C40.4569 11.2226 40.2586 11.1778 40.0412 11.1778C39.7981 11.1778 39.5934 11.229 39.4271 11.3313C39.2671 11.4337 39.1872 11.5616 39.1872 11.7151C39.1872 11.8815 39.2575 12.0126 39.3983 12.1085C39.5454 12.2045 39.7245 12.2812 39.9356 12.3388L40.6456 12.5115C41.1318 12.633 41.4964 12.8186 41.7395 13.068C41.9825 13.3111 42.1041 13.6086 42.1041 13.9604C42.1041 14.2738 42.0145 14.5489 41.8354 14.7855C41.6563 15.0158 41.4132 15.1949 41.1062 15.3229C40.8055 15.4444 40.4697 15.5052 40.0987 15.5052ZM44.5905 15.5052C44.2387 15.5052 43.9253 15.438 43.6502 15.3037C43.3751 15.163 43.1609 14.9678 43.0074 14.7184C42.8538 14.4689 42.7771 14.1843 42.7771 13.8644C42.7771 13.519 42.8666 13.2248 43.0457 12.9817C43.2312 12.7322 43.4775 12.5435 43.7846 12.4156C44.0916 12.2876 44.4306 12.2237 44.8016 12.2237C45.1087 12.2237 45.3773 12.2524 45.6076 12.31C45.8443 12.3676 46.0234 12.4284 46.1449 12.4923V12.2333C46.1449 11.9134 46.0298 11.6576 45.7995 11.4657C45.5692 11.2738 45.2718 11.1778 44.9072 11.1778C44.6577 11.1778 44.421 11.2354 44.1971 11.3505C43.9732 11.4593 43.7942 11.6096 43.6598 11.8015L42.9498 11.2546C43.1609 10.9603 43.4391 10.73 43.7846 10.5637C44.1364 10.391 44.5202 10.3047 44.936 10.3047C45.646 10.3047 46.1929 10.4806 46.5767 10.8324C46.9605 11.1778 47.1524 11.6639 47.1524 12.2908V15.3516H46.1449V14.7472H46.0874C45.9594 14.9454 45.7675 15.1214 45.5117 15.2749C45.2558 15.4284 44.9487 15.5052 44.5905 15.5052ZM44.7728 14.6608C45.0415 14.6608 45.2782 14.5968 45.4829 14.4689C45.6875 14.3409 45.8475 14.1747 45.9626 13.97C46.0841 13.7589 46.1449 13.5318 46.1449 13.2887C45.9978 13.2056 45.8251 13.1384 45.6268 13.0872C45.4285 13.0296 45.2174 13.0009 44.9935 13.0009C44.5714 13.0009 44.2707 13.0872 44.0916 13.2599C43.9125 13.4263 43.8229 13.6309 43.8229 13.874C43.8229 14.1043 43.9093 14.293 44.082 14.4401C44.2547 14.5873 44.485 14.6608 44.7728 14.6608ZM45.8283 9.46029C45.6683 9.46029 45.5276 9.40272 45.4061 9.28758C45.291 9.16606 45.2334 9.02213 45.2334 8.8558C45.2334 8.68947 45.291 8.55198 45.4061 8.44322C45.5276 8.32808 45.6683 8.27051 45.8283 8.27051C46.001 8.27051 46.1449 8.32808 46.2601 8.44322C46.3752 8.55198 46.4328 8.68947 46.4328 8.8558C46.4328 9.02213 46.3752 9.16606 46.2601 9.28758C46.1449 9.40272 46.001 9.46029 45.8283 9.46029ZM44.13 9.46029C43.97 9.46029 43.8293 9.40272 43.7078 9.28758C43.5927 9.16606 43.5351 9.02213 43.5351 8.8558C43.5351 8.68947 43.5927 8.55198 43.7078 8.44322C43.8293 8.32808 43.97 8.27051 44.13 8.27051C44.3027 8.27051 44.4434 8.32808 44.5522 8.44322C44.6673 8.55198 44.7249 8.68947 44.7249 8.8558C44.7249 9.02213 44.6673 9.16606 44.5522 9.28758C44.4434 9.40272 44.3027 9.46029 44.13 9.46029ZM49.7818 15.5052C49.4296 15.5052 49.1164 15.438 48.8415 15.3037C48.5661 15.163 48.3521 14.9678 48.1986 14.7184C48.0451 14.4689 47.9681 14.1843 47.9681 13.8644C47.9681 13.519 48.0576 13.2248 48.237 12.9817C48.4222 12.7322 48.6688 12.5435 48.9758 12.4156C49.2828 12.2876 49.6215 12.2237 49.9929 12.2237C50.2999 12.2237 50.5686 12.2524 50.7989 12.31C51.0354 12.3676 51.2143 12.4284 51.3362 12.4923V12.2333C51.3362 11.9134 51.221 11.6576 50.9908 11.4657C50.7605 11.2738 50.463 11.1778 50.0984 11.1778C49.849 11.1778 49.612 11.2354 49.3884 11.3505C49.1643 11.4593 48.9854 11.6096 48.8511 11.8015L48.141 11.2546C48.3521 10.9603 48.6304 10.73 48.9758 10.5637C49.3275 10.391 49.7113 10.3047 50.1272 10.3047C50.8372 10.3047 51.3842 10.4806 51.768 10.8324C52.1518 11.1778 52.3437 11.6639 52.3437 12.2908V15.3516H51.3362V14.7472H51.2786C51.1505 14.9454 50.9586 15.1214 50.7029 15.2749C50.4467 15.4284 50.1397 15.5052 49.7818 15.5052ZM49.9641 14.6608C50.2328 14.6608 50.4693 14.5968 50.6741 14.4689C50.8785 14.3409 51.0387 14.1747 51.1539 13.97C51.2753 13.7589 51.3362 13.5318 51.3362 13.2887C51.1889 13.2056 51.0162 13.1384 50.8181 13.0872C50.6194 13.0296 50.4083 13.0009 50.1848 13.0009C49.7626 13.0009 49.4618 13.0872 49.2828 13.2599C49.1034 13.4263 49.0142 13.6309 49.0142 13.874C49.0142 14.1043 49.1005 14.293 49.2732 14.4401C49.446 14.5873 49.6762 14.6608 49.9641 14.6608ZM51.0195 9.46029C50.8593 9.46029 50.7187 9.40272 50.5974 9.28758C50.4822 9.16606 50.4247 9.02213 50.4247 8.8558C50.4247 8.68947 50.4822 8.55198 50.5974 8.44322C50.7187 8.32808 50.8593 8.27051 51.0195 8.27051C51.1923 8.27051 51.3362 8.32808 51.4513 8.44322C51.5665 8.55198 51.624 8.68947 51.624 8.8558C51.624 9.02213 51.5665 9.16606 51.4513 9.28758C51.3362 9.40272 51.1923 9.46029 51.0195 9.46029ZM49.3212 9.46029C49.161 9.46029 49.0204 9.40272 48.899 9.28758C48.7839 9.16606 48.7263 9.02213 48.7263 8.8558C48.7263 8.68947 48.7839 8.55198 48.899 8.44322C49.0204 8.32808 49.161 8.27051 49.3212 8.27051C49.4939 8.27051 49.6345 8.32808 49.7434 8.44322C49.8585 8.55198 49.9161 8.68947 49.9161 8.8558C49.9161 9.02213 49.8585 9.16606 49.7434 9.28758C49.6345 9.40272 49.4939 9.46029 49.3212 9.46029ZM55.7144 17.4242V10.4582H56.6835V11.1202H56.7411C56.8687 10.9091 57.0673 10.7205 57.336 10.5541C57.6108 10.3878 57.9371 10.3047 58.3146 10.3047C58.7623 10.3047 59.1619 10.4166 59.514 10.6405C59.8657 10.8644 60.1439 11.1714 60.3488 11.5616C60.5599 11.9518 60.6654 12.3996 60.6654 12.9049C60.6654 13.4102 60.5599 13.8612 60.3488 14.2578C60.1439 14.648 59.8657 14.955 59.514 15.1789C59.1619 15.3964 58.7623 15.5052 58.3146 15.5052C57.9371 15.5052 57.6108 15.4252 57.336 15.2653C57.0673 15.099 56.8687 14.9103 56.7411 14.6992H56.6835L56.7411 15.3804V17.4242H55.7144ZM58.1611 14.5553C58.4168 14.5553 58.6567 14.4881 58.8808 14.3538C59.1043 14.2194 59.2866 14.0307 59.4277 13.7876C59.5682 13.5382 59.6388 13.2439 59.6388 12.9049C59.6388 12.5659 59.5682 12.2748 59.4277 12.0318C59.2866 11.7823 59.1043 11.5904 58.8808 11.4561C58.6567 11.3217 58.4168 11.2546 58.1611 11.2546C57.9049 11.2546 57.6651 11.3217 57.4415 11.4561C57.2175 11.5904 57.0351 11.7823 56.8946 12.0318C56.7535 12.2748 56.6835 12.5659 56.6835 12.9049C56.6835 13.2439 56.7535 13.5382 56.8946 13.7876C57.0351 14.0307 57.2175 14.2194 57.4415 14.3538C57.6651 14.4881 57.9049 14.5553 58.1611 14.5553ZM63.1529 15.5052C62.8008 15.5052 62.4875 15.438 62.2126 15.3037C61.9372 15.163 61.7233 14.9678 61.5698 14.7184C61.4162 14.4689 61.3395 14.1843 61.3395 13.8644C61.3395 13.519 61.4287 13.2248 61.6081 12.9817C61.7933 12.7322 62.0399 12.5435 62.347 12.4156C62.654 12.2876 62.9927 12.2237 63.364 12.2237C63.6711 12.2237 63.9397 12.2524 64.17 12.31C64.4065 12.3676 64.5855 12.4284 64.7073 12.4923V12.2333C64.7073 11.9134 64.5922 11.6576 64.3619 11.4657C64.1316 11.2738 63.8342 11.1778 63.4696 11.1778C63.2201 11.1778 62.9831 11.2354 62.7595 11.3505C62.5355 11.4593 62.3565 11.6096 62.2222 11.8015L61.5122 11.2546C61.7233 10.9603 62.0015 10.73 62.347 10.5637C62.6986 10.391 63.0824 10.3047 63.4984 10.3047C64.2084 10.3047 64.7553 10.4806 65.1391 10.8324C65.5229 11.1778 65.7148 11.6639 65.7148 12.2908V15.3516H64.7073V14.7472H64.6498C64.5217 14.9454 64.3298 15.1214 64.0741 15.2749C63.8179 15.4284 63.5108 15.5052 63.1529 15.5052ZM63.3352 14.6608C63.6039 14.6608 63.8404 14.5968 64.0453 14.4689C64.2496 14.3409 64.4099 14.1747 64.525 13.97C64.6464 13.7589 64.7073 13.5318 64.7073 13.2887C64.5601 13.2056 64.3873 13.1384 64.1892 13.0872C63.9906 13.0296 63.7795 13.0009 63.5559 13.0009C63.1337 13.0009 62.8329 13.0872 62.654 13.2599C62.4746 13.4263 62.3853 13.6309 62.3853 13.874C62.3853 14.1043 62.4717 14.293 62.6444 14.4401C62.8171 14.5873 63.0474 14.6608 63.3352 14.6608ZM66.8653 15.3516V8.4816H67.9015V15.3516H66.8653ZM70.6102 15.3516L68.5856 10.4582H69.737L71.1091 14.0179H71.1571L72.558 10.4582H73.6902L71.6465 15.3516H70.6102ZM76.456 15.5052C75.9762 15.5052 75.5478 15.3932 75.1702 15.1693C74.7931 14.9454 74.4957 14.6384 74.2779 14.2482C74.0668 13.858 73.9613 13.4134 73.9613 12.9145C73.9613 12.4476 74.0639 12.0158 74.2683 11.6192C74.4732 11.2226 74.7576 10.9059 75.1223 10.6693C75.4936 10.4262 75.9186 10.3047 76.3984 10.3047C76.904 10.3047 77.3325 10.4134 77.6841 10.6309C78.0425 10.8484 78.3145 11.1458 78.4997 11.5232C78.6854 11.9006 78.778 12.326 78.778 12.7994C78.778 12.8697 78.7751 12.9337 78.7684 12.9913C78.7684 13.0488 78.7655 13.0936 78.7588 13.1256H74.9783C75.0297 13.6117 75.199 13.9763 75.4869 14.2194C75.7814 14.4625 76.1139 14.584 76.4848 14.584C76.8177 14.584 77.0926 14.5105 77.3099 14.3634C77.5277 14.2098 77.7004 14.0211 77.8281 13.7972L78.682 14.2098C78.4709 14.5936 78.1831 14.9071 77.8185 15.1501C77.4538 15.3868 77 15.5052 76.456 15.5052ZM76.408 11.1874C76.0626 11.1874 75.7685 11.2929 75.5252 11.504C75.2825 11.7151 75.1194 11.9966 75.0359 12.3484H77.7513C77.7388 12.1821 77.6841 12.0094 77.5882 11.8303C77.4922 11.6512 77.3454 11.5008 77.1468 11.3793C76.9549 11.2513 76.7088 11.1874 76.408 11.1874ZM79.749 15.3516V8.4816H80.7852V15.3516H79.749ZM83.7822 15.5052C83.1806 15.5052 82.7268 15.3261 82.4198 14.9678C82.119 14.6032 81.9688 14.1107 81.9688 13.4902V10.4582H83.0051V13.3463C83.0051 13.7621 83.101 14.0691 83.2929 14.2674C83.491 14.4593 83.7372 14.5553 84.0317 14.5553C84.2937 14.5553 84.5211 14.4881 84.713 14.3538C84.9111 14.213 85.0613 14.0339 85.1639 13.8164C85.2724 13.5925 85.327 13.3495 85.327 13.0872V10.4582H86.3537V15.3516H85.3846V14.6896H85.327C85.186 14.9199 84.9749 15.115 84.6938 15.2749C84.4184 15.4284 84.1147 15.5052 83.7822 15.5052ZM89.3478 15.5052C88.7467 15.5052 88.2924 15.3261 87.9854 14.9678C87.685 14.6032 87.5344 14.1107 87.5344 13.4902V10.4582H88.5706V13.3463C88.5706 13.7621 88.6666 14.0691 88.8585 14.2674C89.0571 14.4593 89.3032 14.5553 89.5973 14.5553C89.8597 14.5553 90.0867 14.4881 90.2786 14.3538C90.4772 14.213 90.6273 14.0339 90.7295 13.8164C90.8384 13.5925 90.8926 13.3495 90.8926 13.0872V10.4582H91.9193V15.3516H90.9502V14.6896H90.8926C90.7521 14.9199 90.541 15.115 90.2594 15.2749C89.9845 15.4284 89.6808 15.5052 89.3478 15.5052ZM93.1388 15.3516V10.4582H94.1175V11.1298H94.1751C94.3157 10.8932 94.5234 10.698 94.7988 10.5445C95.0799 10.3846 95.3869 10.3047 95.7199 10.3047C96.321 10.3047 96.772 10.4837 97.0728 10.842C97.3731 11.2002 97.5238 11.6735 97.5238 12.262V15.3516H96.4971V12.3964C96.4971 11.9998 96.3978 11.7119 96.1996 11.5328C96.001 11.3473 95.742 11.2546 95.4225 11.2546C95.173 11.2546 94.9552 11.3249 94.77 11.4657C94.5843 11.6 94.437 11.7791 94.3286 12.003C94.226 12.2269 94.1751 12.4667 94.1751 12.7226V15.3516H93.1388Z" fill="white"/>
<path d="M104.778 15.5052C104.285 15.5052 103.822 15.4156 103.387 15.2365C102.958 15.0575 102.577 14.808 102.245 14.4881C101.912 14.1619 101.65 13.7813 101.458 13.3463C101.272 12.905 101.18 12.4284 101.18 11.9167C101.18 11.4049 101.272 10.9316 101.458 10.4966C101.65 10.0552 101.909 9.67464 102.235 9.35479C102.568 9.02856 102.951 8.77588 103.387 8.59679C103.822 8.41769 104.285 8.32812 104.778 8.32812C105.302 8.32812 105.785 8.42086 106.227 8.60638C106.674 8.7919 107.048 9.05097 107.349 9.38358L106.62 10.1032C106.396 9.85373 106.127 9.66183 105.814 9.5275C105.507 9.39317 105.162 9.32601 104.778 9.32601C104.323 9.32601 103.905 9.43477 103.521 9.65224C103.137 9.86333 102.827 10.164 102.59 10.5542C102.36 10.938 102.245 11.3922 102.245 11.9167C102.245 12.4412 102.363 12.8986 102.6 13.2888C102.836 13.6726 103.147 13.9732 103.53 14.1907C103.914 14.4018 104.333 14.5073 104.787 14.5073C105.203 14.5073 105.58 14.4306 105.92 14.277C106.259 14.1171 106.53 13.8932 106.735 13.6054C106.946 13.3175 107.074 12.9721 107.119 12.5691H104.768V11.6384H108.107C108.146 11.8111 108.165 11.9934 108.165 12.1853V12.1949C108.165 12.8602 108.018 13.4423 107.723 13.9412C107.436 14.4338 107.036 14.8176 106.524 15.0926C106.012 15.3677 105.43 15.5052 104.778 15.5052ZM111.254 15.5052C110.749 15.5052 110.305 15.3901 109.921 15.1598C109.537 14.9295 109.236 14.6192 109.019 14.2291C108.802 13.8389 108.693 13.3975 108.693 12.905C108.693 12.4188 108.802 11.9806 109.019 11.5904C109.236 11.1938 109.537 10.8804 109.921 10.6501C110.305 10.4198 110.749 10.3047 111.254 10.3047C111.753 10.3047 112.195 10.4198 112.579 10.6501C112.962 10.8804 113.263 11.1938 113.481 11.5904C113.698 11.9806 113.807 12.4188 113.807 12.905C113.807 13.3975 113.698 13.8389 113.481 14.2291C113.263 14.6192 112.962 14.9295 112.579 15.1598C112.195 15.3901 111.753 15.5052 111.254 15.5052ZM111.254 14.5553C111.523 14.5553 111.773 14.4913 112.003 14.3634C112.233 14.2291 112.419 14.0404 112.559 13.7973C112.707 13.5478 112.78 13.2504 112.78 12.905C112.78 12.5595 112.707 12.2653 112.559 12.0222C112.419 11.7727 112.233 11.5841 112.003 11.4561C111.773 11.3218 111.523 11.2546 111.254 11.2546C110.986 11.2546 110.733 11.3218 110.496 11.4561C110.266 11.5841 110.078 11.7727 109.93 12.0222C109.79 12.2653 109.719 12.5595 109.719 12.905C109.719 13.2504 109.79 13.5478 109.93 13.7973C110.078 14.0404 110.266 14.2291 110.496 14.3634C110.733 14.4913 110.986 14.5553 111.254 14.5553ZM117.064 15.5052C116.559 15.5052 116.114 15.3901 115.73 15.1598C115.346 14.9295 115.046 14.6192 114.828 14.2291C114.611 13.8389 114.502 13.3975 114.502 12.905C114.502 12.4188 114.611 11.9806 114.828 11.5904C115.046 11.1938 115.346 10.8804 115.73 10.6501C116.114 10.4198 116.559 10.3047 117.064 10.3047C117.563 10.3047 118.004 10.4198 118.388 10.6501C118.772 10.8804 119.072 11.1938 119.29 11.5904C119.508 11.9806 119.616 12.4188 119.616 12.905C119.616 13.3975 119.508 13.8389 119.29 14.2291C119.072 14.6192 118.772 14.9295 118.388 15.1598C118.004 15.3901 117.563 15.5052 117.064 15.5052ZM117.064 14.5553C117.332 14.5553 117.582 14.4913 117.812 14.3634C118.042 14.2291 118.228 14.0404 118.369 13.7973C118.516 13.5478 118.589 13.2504 118.589 12.905C118.589 12.5595 118.516 12.2653 118.369 12.0222C118.228 11.7727 118.042 11.5841 117.812 11.4561C117.582 11.3218 117.332 11.2546 117.064 11.2546C116.795 11.2546 116.543 11.3218 116.306 11.4561C116.075 11.5841 115.887 11.7727 115.74 12.0222C115.599 12.2653 115.529 12.5595 115.529 12.905C115.529 13.2504 115.599 13.5478 115.74 13.7973C115.887 14.0404 116.075 14.2291 116.306 14.3634C116.543 14.4913 116.795 14.5553 117.064 14.5553ZM122.778 17.5777C122.349 17.5777 121.978 17.5074 121.665 17.3666C121.358 17.2323 121.108 17.0564 120.916 16.8389C120.724 16.6278 120.587 16.4104 120.504 16.1865L121.463 15.7835C121.565 16.0393 121.728 16.2472 121.952 16.4071C122.183 16.5735 122.458 16.6566 122.778 16.6566C123.225 16.6566 123.577 16.5223 123.833 16.2536C124.095 15.985 124.226 15.6044 124.226 15.1118V14.6417H124.169C124.015 14.8719 123.801 15.0575 123.526 15.1982C123.257 15.3325 122.95 15.3997 122.605 15.3997C122.189 15.3997 121.809 15.2941 121.463 15.083C121.118 14.8719 120.839 14.5777 120.628 14.2003C120.417 13.8165 120.312 13.3687 120.312 12.857C120.312 12.3388 120.417 11.8911 120.628 11.5137C120.839 11.1299 121.118 10.8324 121.463 10.6213C121.809 10.4102 122.189 10.3047 122.605 10.3047C122.95 10.3047 123.257 10.3751 123.526 10.5158C123.801 10.6565 124.015 10.842 124.169 11.0723H124.226V10.4582H125.215V15.0926C125.215 15.6236 125.109 16.0745 124.898 16.4455C124.693 16.8165 124.409 17.098 124.044 17.2899C123.68 17.4818 123.257 17.5777 122.778 17.5777ZM122.787 14.4593C123.043 14.4593 123.279 14.3986 123.497 14.277C123.715 14.1491 123.891 13.9668 124.025 13.7301C124.159 13.487 124.226 13.196 124.226 12.857C124.226 12.5052 124.159 12.2109 124.025 11.9742C123.891 11.7311 123.715 11.5488 123.497 11.4273C123.279 11.3058 123.043 11.245 122.787 11.245C122.531 11.245 122.291 11.309 122.068 11.4369C121.85 11.5584 121.674 11.7376 121.54 11.9742C121.406 12.2109 121.338 12.5052 121.338 12.857C121.338 13.2024 121.406 13.4966 121.54 13.7397C121.674 13.9764 121.85 14.1555 122.068 14.277C122.291 14.3986 122.531 14.4593 122.787 14.4593ZM126.437 15.3517V8.48165H127.473V15.3517H126.437ZM130.883 15.5052C130.404 15.5052 129.975 15.3933 129.598 15.1694C129.22 14.9455 128.923 14.6384 128.705 14.2483C128.494 13.8581 128.389 13.4135 128.389 12.9145C128.389 12.4476 128.491 12.0158 128.696 11.6192C128.9 11.2226 129.185 10.906 129.55 10.6693C129.921 10.4262 130.346 10.3047 130.826 10.3047C131.331 10.3047 131.76 10.4135 132.112 10.6309C132.47 10.8484 132.742 11.1458 132.927 11.5233C133.112 11.9007 133.205 12.326 133.205 12.7994C133.205 12.8698 133.202 12.9337 133.196 12.9913C133.196 13.0489 133.193 13.0936 133.186 13.1256H129.406C129.457 13.6118 129.627 13.9764 129.914 14.2195C130.208 14.4626 130.541 14.5841 130.912 14.5841C131.245 14.5841 131.52 14.5105 131.737 14.3634C131.955 14.2099 132.127 14.0212 132.256 13.7973L133.11 14.2099C132.898 14.5937 132.611 14.9071 132.246 15.1502C131.881 15.3869 131.427 15.5052 130.883 15.5052ZM130.836 11.1874C130.49 11.1874 130.196 11.293 129.953 11.5041C129.71 11.7152 129.546 11.9966 129.463 12.3484H132.179C132.166 12.1821 132.112 12.0094 132.016 11.8303C131.92 11.6512 131.772 11.5009 131.574 11.3793C131.382 11.2514 131.136 11.1874 130.836 11.1874ZM137.423 15.3517L135.581 8.48165H136.751L137.845 12.9433L137.96 13.5382H138.018L138.162 12.9433L139.543 8.48165H140.599L141.923 12.9433L142.067 13.5286H142.125L142.24 12.9433L143.334 8.48165H144.495L142.681 15.3517H141.568L140.254 10.794L140.1 10.1512H140.042L139.879 10.794L138.507 15.3517H137.423ZM146.421 15.5052C146.07 15.5052 145.756 15.438 145.481 15.3037C145.206 15.163 144.992 14.9679 144.838 14.7184C144.685 14.4689 144.608 14.1843 144.608 13.8645C144.608 13.519 144.697 13.2248 144.876 12.9817C145.062 12.7322 145.308 12.5436 145.615 12.4156C145.922 12.2877 146.261 12.2237 146.632 12.2237C146.939 12.2237 147.208 12.2525 147.438 12.3101C147.675 12.3676 147.854 12.4284 147.976 12.4924V12.2333C147.976 11.9135 147.86 11.6576 147.63 11.4657C147.4 11.2738 147.102 11.1778 146.738 11.1778C146.488 11.1778 146.252 11.2354 146.028 11.3506C145.804 11.4593 145.625 11.6096 145.49 11.8015L144.78 11.2546C144.992 10.9604 145.27 10.7301 145.615 10.5638C145.967 10.3911 146.351 10.3047 146.767 10.3047C147.477 10.3047 148.024 10.4806 148.407 10.8324C148.791 11.1778 148.983 11.664 148.983 12.2909V15.3517H147.976V14.7472H147.918C147.79 14.9455 147.599 15.1214 147.342 15.2749C147.087 15.4284 146.78 15.5052 146.421 15.5052ZM146.604 14.6608C146.872 14.6608 147.109 14.5969 147.314 14.4689C147.518 14.341 147.678 14.1747 147.793 13.97C147.915 13.7589 147.976 13.5318 147.976 13.2888C147.829 13.2056 147.656 13.1384 147.457 13.0873C147.259 13.0297 147.048 13.0009 146.824 13.0009C146.402 13.0009 146.102 13.0873 145.922 13.26C145.743 13.4263 145.654 13.631 145.654 13.8741C145.654 14.1043 145.74 14.293 145.913 14.4402C146.085 14.5873 146.316 14.6608 146.604 14.6608ZM150.134 15.3517V8.48165H151.17V15.3517H150.134ZM152.401 15.3517V8.48165H153.438V15.3517H152.401ZM156.848 15.5052C156.368 15.5052 155.939 15.3933 155.562 15.1694C155.185 14.9455 154.887 14.6384 154.67 14.2483C154.459 13.8581 154.353 13.4135 154.353 12.9145C154.353 12.4476 154.456 12.0158 154.66 11.6192C154.865 11.2226 155.15 10.906 155.514 10.6693C155.885 10.4262 156.311 10.3047 156.791 10.3047C157.296 10.3047 157.724 10.4135 158.076 10.6309C158.434 10.8484 158.706 11.1458 158.892 11.5233C159.077 11.9007 159.17 12.326 159.17 12.7994C159.17 12.8698 159.167 12.9337 159.161 12.9913C159.161 13.0489 159.157 13.0936 159.151 13.1256H155.37C155.421 13.6118 155.591 13.9764 155.879 14.2195C156.173 14.4626 156.506 14.5841 156.877 14.5841C157.209 14.5841 157.484 14.5105 157.702 14.3634C157.919 14.2099 158.092 14.0212 158.22 13.7973L159.074 14.2099C158.863 14.5937 158.575 14.9071 158.211 15.1502C157.846 15.3869 157.392 15.5052 156.848 15.5052ZM156.8 11.1874C156.455 11.1874 156.16 11.293 155.917 11.5041C155.674 11.7152 155.511 11.9966 155.428 12.3484H158.143C158.13 12.1821 158.076 12.0094 157.98 11.8303C157.884 11.6512 157.737 11.5009 157.539 11.3793C157.347 11.2514 157.1 11.1874 156.8 11.1874ZM160.509 13.9316V11.3602H159.655V10.4582H160.509V9.07654H161.545V10.4582H162.745V11.3602H161.545V13.7109C161.545 13.954 161.593 14.1395 161.689 14.2674C161.791 14.3954 161.961 14.4593 162.198 14.4593C162.319 14.4593 162.421 14.4434 162.505 14.4114C162.594 14.3794 162.684 14.3346 162.774 14.277V15.2845C162.665 15.3293 162.549 15.3645 162.428 15.3901C162.306 15.4156 162.162 15.4284 161.996 15.4284C161.542 15.4284 161.181 15.2973 160.912 15.035C160.643 14.7664 160.509 14.3986 160.509 13.9316Z" fill="white"/>
<path d="M161.675 0.240234H11.9922C5.50069 0.240234 0.238281 5.50264 0.238281 11.9941C0.238281 18.4856 5.50069 23.7481 11.9922 23.7481H161.675C168.166 23.7481 173.429 18.4856 173.429 11.9941C173.429 5.50264 168.166 0.240234 161.675 0.240234Z" stroke="#747775"/>
</g>
<defs>
<linearGradient id="paint0_linear_568_322" x1="16.5846" y1="14.7697" x2="8.98561" y2="23.4661" gradientUnits="userSpaceOnUse">
<stop stop-color="#4285F4"/>
<stop offset="1" stop-color="#1B74E8"/>
</linearGradient>
<clipPath id="clip0_568_322">
<rect width="173.67" height="23.9876" fill="white"/>
</clipPath>
</defs>
</svg>
