<svg width="174" height="48" viewBox="0 0 174 48" fill="none" xmlns="http://www.w3.org/2000/svg">
<g clip-path="url(#clip0_568_60)">
<path d="M149.672 0.436523H24.0008C10.9871 0.436523 0.4375 10.9862 0.4375 23.9998C0.4375 37.0134 10.9871 47.563 24.0008 47.563H149.672C162.685 47.563 173.235 37.0134 173.235 23.9998C173.235 10.9862 162.685 0.436523 149.672 0.436523Z" fill="#1F1F1F"/>
<path d="M49.7458 20.7629H18.3281V15.8361C18.3281 13.1615 20.634 10.9092 23.3722 10.9092H44.7017C47.4399 10.9092 49.7458 13.1615 49.7458 15.8361V20.7629Z" fill="#34A853"/>
<path d="M49.7458 25.3085H18.3281V20.0722C18.3281 17.2297 20.634 14.8359 23.3722 14.8359H44.7017C47.4399 14.8359 49.7458 17.2297 49.7458 20.0722V25.3085Z" fill="#FBBC04"/>
<path d="M49.7458 29.6718H18.3281V24.4355C18.3281 21.593 20.634 19.1992 23.3722 19.1992H44.7017C47.4399 19.1992 49.7458 21.593 49.7458 24.4355V29.6718Z" fill="#EA4335"/>
<path d="M18.3281 22.0276L38.269 26.5322C40.5644 27.0953 43.1467 26.5322 45.0116 25.1245L49.7458 21.7461V32.3037C49.7458 34.9783 47.4505 37.0898 44.7247 37.0898H23.3492C20.6234 37.0898 18.3281 34.9783 18.3281 32.3037V22.0276Z" fill="url(#paint0_linear_568_60)"/>
<path d="M68.5684 18.8202L68.6705 17.8899C69.1016 17.8899 69.4042 17.8483 69.5781 17.7651C69.752 17.6819 69.8504 17.5382 69.8731 17.334C69.9034 17.1222 69.9109 16.8235 69.8958 16.4377L69.6802 10.663H70.5992L70.8261 16.3356C70.8488 16.8726 70.811 17.3264 70.7126 17.697C70.6219 18.0677 70.41 18.3475 70.0773 18.5366C69.752 18.7257 69.2491 18.8202 68.5684 18.8202ZM60.5586 18.7748C60.5586 18.5026 60.5964 18.2 60.672 17.8672C60.7477 17.5345 60.8687 17.1676 61.0351 16.7667L61.852 17.0844C61.7309 17.4021 61.6401 17.6933 61.5797 17.958C61.5192 18.2227 61.4889 18.4685 61.4889 18.6954C61.4889 19.119 61.61 19.4593 61.852 19.7165C62.1016 19.9812 62.4268 20.1741 62.8276 20.2951C63.2361 20.4162 63.6823 20.4766 64.1664 20.4766C64.7488 20.4766 65.2782 20.4086 65.7547 20.2724C66.2388 20.1439 66.6246 19.9661 66.9119 19.7392C67.1993 19.5123 67.3431 19.2627 67.3431 18.9904C67.3431 18.7938 67.1918 18.6236 66.8893 18.4799C66.5867 18.3361 66.1632 18.1886 65.6186 18.0374L65.8341 17.0957C66.6132 17.4058 67.222 17.6176 67.6607 17.7311C68.107 17.8369 68.4473 17.8899 68.6818 17.8899C68.8406 17.8899 68.9541 17.9353 69.0222 18.0261C69.0978 18.1092 69.1356 18.2113 69.1356 18.3324C69.1356 18.4534 69.0827 18.5669 68.9768 18.6727C68.8709 18.7711 68.7348 18.8202 68.5684 18.8202H68.1486C68.1562 18.8883 68.1637 18.9413 68.1713 18.9791C68.1864 19.0244 68.194 19.0812 68.194 19.1492C68.194 19.5199 68.0238 19.8753 67.6834 20.2157C67.3431 20.5636 66.8515 20.8473 66.2085 21.0666C65.5732 21.2859 64.8093 21.3956 63.9168 21.3956C63.3117 21.3956 62.7558 21.3011 62.249 21.112C61.7423 20.9228 61.3338 20.6317 61.0237 20.2384C60.7137 19.8526 60.5586 19.3648 60.5586 18.7748ZM72.5629 18.7635L72.336 10.663H73.255L73.4819 18.7635H72.5629ZM72.2566 22.2011L72.1205 21.5885C72.2339 21.5658 72.3323 21.5431 72.4155 21.5204C72.4987 21.4977 72.5781 21.4788 72.6537 21.4637C72.5101 21.3653 72.3853 21.2368 72.2793 21.0779C72.1735 20.9191 72.1205 20.7452 72.1205 20.556C72.1205 20.2157 72.2378 19.9585 72.4722 19.7846C72.7143 19.6106 72.9866 19.5236 73.289 19.5236C73.4631 19.5236 73.6407 19.5539 73.8223 19.6144L73.7315 20.1817C73.6559 20.1666 73.5803 20.1514 73.5046 20.1363C73.4365 20.1212 73.3647 20.1136 73.289 20.1136C72.9185 20.1136 72.7331 20.2497 72.7331 20.522C72.7331 20.7186 72.805 20.8813 72.9487 21.0099C73.1 21.1384 73.2475 21.2217 73.3911 21.2595C73.6786 21.1763 73.932 21.093 74.1513 21.0099L74.3328 21.5885C74.1513 21.6565 73.9357 21.7284 73.6861 21.804C73.4441 21.8797 73.1945 21.9515 72.9373 22.0196C72.6877 22.0953 72.4608 22.1557 72.2566 22.2011ZM82.3844 18.8202C81.8927 18.8202 81.4692 18.7371 81.1137 18.5706C80.7658 18.4042 80.5199 18.0979 80.3763 17.6517C79.9678 17.75 79.5745 17.7916 79.1964 17.7765C78.8257 17.7538 78.4891 17.6819 78.1866 17.5609C77.8841 17.4323 77.6458 17.2583 77.4719 17.039C77.2979 16.8121 77.2109 16.5436 77.2109 16.2335C77.2109 15.8251 77.3395 15.4544 77.5967 15.1217C77.8538 14.7813 78.2017 14.4939 78.6404 14.2594C79.0791 14.0249 79.5632 13.8623 80.0926 13.7716L80.0586 12.9093H80.9776L81.1591 16.6533C81.1742 17.0087 81.2347 17.2773 81.3406 17.4588C81.4541 17.6327 81.6053 17.75 81.7944 17.8105C81.991 17.8635 82.2255 17.8899 82.4978 17.8899C82.6567 17.8899 82.7701 17.9353 82.8382 18.0261C82.9138 18.1092 82.9516 18.2113 82.9516 18.3324C82.9516 18.4534 82.8987 18.5669 82.7928 18.6727C82.6869 18.7711 82.5507 18.8202 82.3844 18.8202ZM78.1072 16.086C78.1072 16.2599 78.1753 16.4037 78.3114 16.5171C78.4551 16.6306 78.6366 16.7138 78.856 16.7667C79.0753 16.8197 79.306 16.8461 79.5481 16.8461C79.7977 16.8461 80.0283 16.8272 80.2401 16.7894L80.138 14.7132C79.7069 14.7586 79.34 14.857 79.0375 15.0082C78.735 15.1519 78.5043 15.3221 78.3455 15.5187C78.1866 15.7079 78.1072 15.8969 78.1072 16.086ZM80.433 11.6046C80.2742 11.6046 80.138 11.5517 80.0246 11.4458C79.9186 11.3323 79.8657 11.1999 79.8657 11.0487C79.8657 10.8975 79.9186 10.7651 80.0246 10.6516C80.138 10.5382 80.2742 10.4814 80.433 10.4814C80.5842 10.4814 80.7128 10.5382 80.8187 10.6516C80.9322 10.7651 80.9889 10.8975 80.9889 11.0487C80.9889 11.1999 80.9322 11.3323 80.8187 11.4458C80.7128 11.5517 80.5842 11.6046 80.433 11.6046ZM78.8787 11.6046C78.7199 11.6046 78.5837 11.5517 78.4703 11.4458C78.3643 11.3323 78.3114 11.1999 78.3114 11.0487C78.3114 10.8975 78.3643 10.7651 78.4703 10.6516C78.5837 10.5382 78.7199 10.4814 78.8787 10.4814C79.0299 10.4814 79.1585 10.5382 79.2644 10.6516C79.3779 10.7651 79.4346 10.8975 79.4346 11.0487C79.4346 11.1999 79.3779 11.3323 79.2644 11.4458C79.1585 11.5517 79.0299 11.6046 78.8787 11.6046ZM82.388 18.8202L82.5015 17.8899C82.7511 17.8899 83.0347 17.8899 83.3524 17.8899C83.6777 17.8823 83.9916 17.8672 84.294 17.8445C84.5966 17.8142 84.8349 17.7689 85.0088 17.7084C85.2509 17.6252 85.4438 17.5193 85.5874 17.3907C85.7387 17.2546 85.8522 17.0806 85.9278 16.8688C85.7916 16.9142 85.6441 16.9483 85.4853 16.9709C85.3341 16.986 85.1828 16.9936 85.0315 16.9936C84.4491 16.9936 84.0029 16.8575 83.6927 16.5852C83.3827 16.3129 83.2276 15.9688 83.2276 15.5528C83.2276 15.2654 83.273 14.9779 83.3637 14.6905C83.4545 14.3956 83.5831 14.127 83.7495 13.885C83.9159 13.643 84.1164 13.4502 84.3508 13.3064C84.5853 13.1552 84.8462 13.0795 85.1336 13.0795C85.542 13.0795 85.8786 13.2157 86.1433 13.4879C86.4156 13.7526 86.6161 14.0968 86.7446 14.5204C86.8808 14.9439 86.9488 15.3939 86.9488 15.8704C86.9488 16.4377 86.8506 16.9256 86.6539 17.334C86.4648 17.7348 86.1472 18.0677 85.7009 18.3324C85.4665 18.4685 85.1715 18.5744 84.8159 18.65C84.4681 18.7181 84.0861 18.7635 83.6701 18.7862C83.2541 18.8089 82.8268 18.8202 82.388 18.8202ZM84.1239 15.3259C84.1239 15.5604 84.1995 15.7494 84.3508 15.8931C84.5021 16.0293 84.763 16.0974 85.1336 16.0974C85.4589 16.0974 85.7689 16.052 86.0639 15.9612C86.0639 15.9158 86.0639 15.8629 86.0639 15.8024C86.0639 15.4923 86.0224 15.2011 85.9391 14.9288C85.8559 14.6489 85.7387 14.4258 85.5874 14.2594C85.4362 14.093 85.2546 14.0098 85.0428 14.0098C84.8613 14.0098 84.7025 14.0779 84.5663 14.214C84.4302 14.3426 84.3206 14.509 84.2373 14.7132C84.1617 14.9174 84.1239 15.1217 84.1239 15.3259ZM84.918 11.9109C84.7592 11.9109 84.6231 11.858 84.5096 11.7521C84.4037 11.6387 84.3508 11.5063 84.3508 11.355C84.3508 11.2038 84.4037 11.0714 84.5096 10.9579C84.6231 10.8445 84.7592 10.7878 84.918 10.7878C85.0694 10.7878 85.1979 10.8445 85.3038 10.9579C85.4172 11.0714 85.474 11.2038 85.474 11.355C85.474 11.5063 85.4172 11.6387 85.3038 11.7521C85.1979 11.858 85.0694 11.9109 84.918 11.9109ZM90.7641 18.8202C90.1514 18.8202 89.6863 18.7521 89.3686 18.616C89.0509 18.4799 88.831 18.2681 88.7106 17.9807C88.5893 17.6933 88.5212 17.3226 88.5064 16.8688L88.2795 10.663H89.2098L89.4367 16.5058C89.4515 16.8764 89.4856 17.1638 89.5388 17.368C89.599 17.5646 89.7273 17.7008 89.9245 17.7765C90.1287 17.8521 90.4464 17.8899 90.8775 17.8899C91.0364 17.8899 91.1498 17.9353 91.2179 18.0261C91.293 18.1092 91.3313 18.2113 91.3313 18.3324C91.3313 18.4534 91.2781 18.5669 91.1725 18.6727C91.066 18.7711 90.9299 18.8202 90.7641 18.8202ZM96.2552 18.9677C95.4462 18.9677 94.7917 18.9299 94.2925 18.8543C93.8011 18.7862 93.4267 18.6803 93.1693 18.5366C92.9118 18.3853 92.7347 18.1962 92.6361 17.9693C92.4545 18.234 92.2617 18.4269 92.0574 18.5479C91.8611 18.6614 91.6525 18.7332 91.4335 18.7635C91.2214 18.8013 90.9988 18.8202 90.7641 18.8202L90.8775 17.8899C91.2327 17.8899 91.505 17.8218 91.6944 17.6857C91.8838 17.542 92.0313 17.3075 92.1369 16.9823C92.2503 16.657 92.3751 16.2108 92.5113 15.6435L93.3395 15.8591C93.2635 16.1238 93.2033 16.3659 93.1579 16.5852C93.1204 16.797 93.1012 16.952 93.1012 17.0504C93.1012 17.2622 93.1579 17.4399 93.2714 17.5836C93.3927 17.7197 93.6379 17.8218 94.0088 17.8899C94.2506 17.5118 94.5386 17.1298 94.8711 16.744C95.2036 16.3507 95.5666 15.9915 95.9602 15.6662C96.3538 15.341 96.7622 15.08 97.1855 14.8834C97.6166 14.6792 98.0512 14.5771 98.4902 14.5771C98.9065 14.5771 99.2617 14.6641 99.5567 14.838C99.8595 15.0045 100.09 15.2314 100.249 15.5187C100.415 15.8061 100.498 16.1314 100.498 16.4944C100.498 16.9407 100.366 17.3529 100.101 17.7311C99.8368 18.1017 99.3943 18.4004 98.7738 18.6274C98.1612 18.8543 97.3217 18.9677 96.2552 18.9677ZM98.4221 15.5074C98.0818 15.5074 97.7379 15.5944 97.3897 15.7683C97.0494 15.9348 96.7238 16.1503 96.414 16.415C96.1042 16.6797 95.8241 16.9558 95.5745 17.2432C95.3249 17.5231 95.1172 17.7765 94.9505 18.0034C95.3511 18.0261 95.8546 18.0374 96.4594 18.0374C97.4578 18.0374 98.2328 17.9164 98.7852 17.6743C99.3446 17.4248 99.6247 17.0617 99.6247 16.5852C99.6247 16.4188 99.5829 16.2562 99.4999 16.0974C99.417 15.9309 99.2844 15.791 99.1029 15.6776C98.9292 15.5641 98.7023 15.5074 98.4221 15.5074ZM98.1612 13.4085C98.0024 13.4085 97.8662 13.3556 97.7528 13.2497C97.6472 13.1362 97.5939 13.0038 97.5939 12.8526C97.5939 12.7014 97.6472 12.569 97.7528 12.4555C97.8662 12.3421 98.0024 12.2853 98.1612 12.2853C98.3122 12.2853 98.4413 12.3421 98.5469 12.4555C98.6604 12.569 98.7171 12.7014 98.7171 12.8526C98.7171 13.0038 98.6604 13.1362 98.5469 13.2497C98.4413 13.3556 98.3122 13.4085 98.1612 13.4085ZM105.471 12.6824C105.471 12.516 105.46 12.3156 105.437 12.0811C105.414 11.8466 105.388 11.6122 105.358 11.3777C105.327 11.1432 105.297 10.9428 105.267 10.7764L106.243 10.663C106.265 10.8142 106.288 11.0147 106.311 11.2643C106.333 11.5063 106.352 11.7521 106.367 12.0017C106.39 12.2437 106.401 12.4404 106.401 12.5917C106.401 13.0682 106.356 13.5333 106.265 13.9871C106.182 14.4334 106.042 14.8683 105.845 15.2918C106.201 15.6625 106.462 16.0028 106.628 16.3129C106.795 16.623 106.878 16.9293 106.878 17.2319C106.878 17.4512 106.825 17.6819 106.719 17.9239C106.613 18.1584 106.421 18.3588 106.14 18.5252C105.86 18.6841 105.456 18.7635 104.926 18.7635H102.317V17.8445C103.452 17.0353 104.261 16.2297 104.745 15.428C104.322 15.0498 103.822 14.6452 103.247 14.214C102.68 13.7829 102.087 13.3442 101.466 12.898L101.999 12.1492C102.672 12.6484 103.27 13.1022 103.792 13.5106C104.314 13.9115 104.764 14.2821 105.142 14.6225C105.255 14.3199 105.338 14.0098 105.392 13.6922C105.445 13.3669 105.471 13.0304 105.471 12.6824ZM103.667 17.8332H105.097C105.482 17.8332 105.735 17.7651 105.857 17.629C105.978 17.4852 106.038 17.3226 106.038 17.1411C106.038 17.005 105.982 16.8461 105.868 16.6646C105.763 16.4831 105.611 16.2865 105.414 16.0747C105.202 16.3923 104.949 16.6987 104.654 16.9936C104.367 17.2886 104.038 17.5685 103.667 17.8332ZM102.113 22.2011L101.977 21.5885C102.09 21.5658 102.189 21.5431 102.272 21.5204C102.355 21.4977 102.434 21.4788 102.51 21.4637C102.366 21.3653 102.241 21.2368 102.136 21.0779C102.03 20.9191 101.977 20.7452 101.977 20.556C101.977 20.2157 102.094 19.9585 102.328 19.7846C102.57 19.6106 102.842 19.5236 103.145 19.5236C103.319 19.5236 103.497 19.5539 103.679 19.6144L103.588 20.1817C103.512 20.1666 103.437 20.1514 103.361 20.1363C103.293 20.1212 103.221 20.1136 103.145 20.1136C102.774 20.1136 102.589 20.2497 102.589 20.522C102.589 20.7186 102.661 20.8813 102.805 21.0099C102.956 21.1384 103.103 21.2217 103.247 21.2595C103.535 21.1763 103.788 21.093 104.008 21.0099L104.189 21.5885C104.008 21.6565 103.792 21.7284 103.542 21.804C103.301 21.8797 103.051 21.9515 102.794 22.0196C102.544 22.0953 102.317 22.1557 102.113 22.2011ZM108.66 18.7635L108.433 10.663H109.352L109.579 18.7635H108.66Z" fill="white"/>
<path d="M66.4503 36.4548C65.6887 36.4548 64.9716 36.3163 64.299 36.0394C63.6364 35.7625 63.0478 35.3768 62.5335 34.8822C62.0192 34.3778 61.6137 33.7893 61.317 33.1167C61.0301 32.4343 60.8867 31.6974 60.8867 30.9061C60.8867 30.1148 61.0301 29.383 61.317 28.7104C61.6137 28.0279 62.0143 27.4395 62.5187 26.9449C63.033 26.4405 63.6264 26.0497 64.299 25.7728C64.9716 25.4959 65.6887 25.3574 66.4503 25.3574C67.2613 25.3574 68.0081 25.5008 68.6905 25.7877C69.3828 26.0745 69.9615 26.4751 70.4263 26.9894L69.2988 28.1021C68.9526 27.7164 68.5372 27.4196 68.0526 27.2119C67.5778 27.0042 67.0437 26.9004 66.4503 26.9004C65.748 26.9004 65.1002 27.0686 64.5067 27.4048C63.9133 27.7312 63.4336 28.1961 63.0676 28.7994C62.7116 29.3928 62.5335 30.0951 62.5335 30.9061C62.5335 31.7171 62.7165 32.4244 63.0825 33.0277C63.4484 33.6211 63.9281 34.086 64.5216 34.4223C65.115 34.7487 65.7628 34.9119 66.4651 34.9119C67.108 34.9119 67.6915 34.7932 68.2158 34.5558C68.74 34.3086 69.1603 33.9624 69.4768 33.5173C69.8032 33.0722 70.0011 32.5381 70.0703 31.915H66.4354V30.4759H71.5984C71.6578 30.7429 71.6874 31.0248 71.6874 31.3215V31.3364C71.6874 32.3651 71.4599 33.2651 71.005 34.0366C70.5599 34.7982 69.9417 35.3916 69.1504 35.8169C68.3592 36.2422 67.4591 36.4548 66.4503 36.4548ZM76.4646 36.4548C75.6831 36.4548 74.9958 36.2768 74.4023 35.9207C73.8089 35.5647 73.344 35.0849 73.0078 34.4816C72.6714 33.8783 72.5033 33.1959 72.5033 32.4343C72.5033 31.6826 72.6714 31.005 73.0078 30.4017C73.344 29.7884 73.8089 29.3038 74.4023 28.9478C74.9958 28.5917 75.6831 28.4137 76.4646 28.4137C77.236 28.4137 77.9185 28.5917 78.512 28.9478C79.1054 29.3038 79.5702 29.7884 79.9065 30.4017C80.2428 31.005 80.411 31.6826 80.411 32.4343C80.411 33.1959 80.2428 33.8783 79.9065 34.4816C79.5702 35.0849 79.1054 35.5647 78.512 35.9207C77.9185 36.2768 77.236 36.4548 76.4646 36.4548ZM76.4646 34.9861C76.88 34.9861 77.2657 34.8872 77.6218 34.6893C77.9779 34.4816 78.2646 34.1899 78.4823 33.814C78.7097 33.4283 78.8235 32.9684 78.8235 32.4343C78.8235 31.9002 78.7097 31.4452 78.4823 31.0693C78.2646 30.6836 77.9779 30.3918 77.6218 30.194C77.2657 29.9863 76.88 29.8824 76.4646 29.8824C76.0492 29.8824 75.6584 29.9863 75.2925 30.194C74.9364 30.3918 74.6446 30.6836 74.4172 31.0693C74.1995 31.4452 74.0908 31.9002 74.0908 32.4343C74.0908 32.9684 74.1995 33.4283 74.4172 33.814C74.6446 34.1899 74.9364 34.4816 75.2925 34.6893C75.6584 34.8872 76.0492 34.9861 76.4646 34.9861ZM85.4473 36.4548C84.666 36.4548 83.9785 36.2768 83.3851 35.9207C82.7917 35.5647 82.3268 35.0849 81.9905 34.4816C81.6542 33.8783 81.4861 33.1959 81.4861 32.4343C81.4861 31.6826 81.6542 31.005 81.9905 30.4017C82.3268 29.7884 82.7917 29.3038 83.3851 28.9478C83.9785 28.5917 84.666 28.4137 85.4473 28.4137C86.2188 28.4137 86.9013 28.5917 87.4949 28.9478C88.0883 29.3038 88.5535 29.7884 88.8895 30.4017C89.2255 31.005 89.3939 31.6826 89.3939 32.4343C89.3939 33.1959 89.2255 33.8783 88.8895 34.4816C88.5535 35.0849 88.0883 35.5647 87.4949 35.9207C86.9013 36.2768 86.2188 36.4548 85.4473 36.4548ZM85.4473 34.9861C85.8627 34.9861 86.2485 34.8872 86.6045 34.6893C86.9606 34.4816 87.2475 34.1899 87.4652 33.814C87.693 33.4283 87.8064 32.9684 87.8064 32.4343C87.8064 31.9002 87.693 31.4452 87.4652 31.0693C87.2475 30.6836 86.9606 30.3918 86.6045 30.194C86.2485 29.9863 85.8627 29.8824 85.4473 29.8824C85.0319 29.8824 84.6413 29.9863 84.2753 30.194C83.9192 30.3918 83.6274 30.6836 83.3999 31.0693C83.1824 31.4452 83.0735 31.9002 83.0735 32.4343C83.0735 32.9684 83.1824 33.4283 83.3999 33.814C83.6274 34.1899 83.9192 34.4816 84.2753 34.6893C84.6413 34.8872 85.0319 34.9861 85.4473 34.9861ZM94.282 39.6595C93.6187 39.6595 93.0453 39.5506 92.561 39.3331C92.0862 39.1253 91.7005 38.8533 91.4038 38.5171C91.107 38.1907 90.8941 37.8544 90.7658 37.5082L92.2494 36.8851C92.4074 37.2807 92.6596 37.6022 93.0061 37.8494C93.3621 38.1066 93.7871 38.2352 94.282 38.2352C94.974 38.2352 95.5177 38.0275 95.9139 37.6121C96.3189 37.1967 96.5222 36.6082 96.5222 35.8466V35.1196H96.4332C96.1958 35.4757 95.8642 35.7625 95.4392 35.9801C95.0238 36.1878 94.549 36.2916 94.0149 36.2916C93.3717 36.2916 92.7835 36.1284 92.2494 35.8021C91.7153 35.4757 91.2851 35.0207 90.9587 34.4371C90.6323 33.8437 90.4691 33.1514 90.4691 32.3601C90.4691 31.5589 90.6323 30.8666 90.9587 30.283C91.2851 29.6896 91.7153 29.2297 92.2494 28.9033C92.7835 28.5769 93.3717 28.4137 94.0149 28.4137C94.549 28.4137 95.0238 28.5225 95.4392 28.7401C95.8642 28.9576 96.1958 29.2445 96.4332 29.6006H96.5222V28.651H98.0504V35.8169C98.0504 36.6379 97.8872 37.3352 97.5608 37.9088C97.244 38.4824 96.8041 38.9176 96.2403 39.2144C95.6766 39.5111 95.0238 39.6595 94.282 39.6595ZM94.2968 34.8377C94.6921 34.8377 95.0578 34.7437 95.3947 34.5558C95.7307 34.358 96.003 34.0761 96.2107 33.7102C96.4184 33.3343 96.5222 32.8843 96.5222 32.3601C96.5222 31.8161 96.4184 31.3611 96.2107 30.9951C96.003 30.6193 95.7307 30.3374 95.3947 30.1495C95.0578 29.9616 94.6921 29.8676 94.2968 29.8676C93.9006 29.8676 93.5297 29.9665 93.1841 30.1643C92.8472 30.3522 92.5758 30.6292 92.3681 30.9951C92.1604 31.3611 92.0566 31.8161 92.0566 32.3601C92.0566 32.8942 92.1604 33.3491 92.3681 33.725C92.5758 34.0909 92.8472 34.3679 93.1841 34.5558C93.5297 34.7437 93.9006 34.8377 94.2968 34.8377ZM99.9398 36.2175V25.5948H101.542V36.2175H99.9398ZM106.815 36.4548C106.073 36.4548 105.411 36.2818 104.827 35.9356C104.244 35.5894 103.784 35.1146 103.447 34.5113C103.121 33.908 102.958 33.2206 102.958 32.4491C102.958 31.7271 103.116 31.0595 103.432 30.4462C103.749 29.833 104.189 29.3434 104.753 28.9774C105.327 28.6016 105.984 28.4137 106.726 28.4137C107.508 28.4137 108.17 28.5818 108.714 28.9181C109.268 29.2544 109.689 29.7143 109.975 30.2979C110.262 30.8814 110.405 31.5391 110.405 32.2711C110.405 32.3799 110.401 32.4788 110.391 32.5678C110.391 32.6568 110.386 32.726 110.376 32.7755H104.53C104.61 33.5272 104.871 34.0909 105.317 34.4668C105.772 34.8427 106.286 35.0306 106.86 35.0306C107.374 35.0306 107.799 34.9169 108.135 34.6893C108.472 34.452 108.739 34.1602 108.937 33.814L110.257 34.452C109.931 35.0454 109.486 35.53 108.922 35.9059C108.358 36.2718 107.656 36.4548 106.815 36.4548ZM106.741 29.7786C106.207 29.7786 105.752 29.9418 105.376 30.2682C105.001 30.5946 104.748 31.0298 104.619 31.5738H108.818C108.799 31.3166 108.714 31.0495 108.566 30.7726C108.417 30.4957 108.19 30.2632 107.883 30.0753C107.586 29.8775 107.206 29.7786 106.741 29.7786ZM121.63 36.2916C120.988 36.2916 120.434 36.1828 119.969 35.9653C119.514 35.7477 119.193 35.3471 119.004 34.7635C118.47 34.8921 117.956 34.9465 117.461 34.9267C116.977 34.8971 116.537 34.8031 116.141 34.6448C115.745 34.4767 115.434 34.2492 115.206 33.9624C114.979 33.6657 114.865 33.3146 114.865 32.909C114.865 32.3749 115.033 31.8903 115.369 31.4551C115.706 31.01 116.161 30.6341 116.734 30.3275C117.309 30.0209 117.941 29.8083 118.633 29.6896L118.589 28.562H119.791L120.028 33.4579C120.048 33.9228 120.127 34.2739 120.265 34.5113C120.414 34.7388 120.612 34.8921 120.859 34.9712C121.116 35.0404 121.422 35.0751 121.779 35.0751C121.986 35.0751 122.135 35.1344 122.224 35.2531C122.323 35.3619 122.372 35.4955 122.372 35.6537C122.372 35.8119 122.303 35.9603 122.164 36.0988C122.026 36.2273 121.848 36.2916 121.63 36.2916ZM116.037 32.7161C116.037 32.9437 116.126 33.1316 116.304 33.2799C116.493 33.4283 116.73 33.5371 117.016 33.6063C117.303 33.6755 117.605 33.7102 117.921 33.7102C118.248 33.7102 118.55 33.6855 118.826 33.636L118.693 30.921C118.129 30.9803 117.65 31.1089 117.254 31.3067C116.858 31.4946 116.556 31.7171 116.349 31.9743C116.141 32.2216 116.037 32.4689 116.037 32.7161ZM119.078 26.8559C118.871 26.8559 118.693 26.7867 118.544 26.6482C118.406 26.4998 118.337 26.3267 118.337 26.1289C118.337 25.9311 118.406 25.758 118.544 25.6096C118.693 25.4613 118.871 25.3871 119.078 25.3871C119.276 25.3871 119.445 25.4613 119.583 25.6096C119.731 25.758 119.805 25.9311 119.805 26.1289C119.805 26.3267 119.731 26.4998 119.583 26.6482C119.445 26.7867 119.276 26.8559 119.078 26.8559ZM117.046 26.8559C116.838 26.8559 116.66 26.7867 116.512 26.6482C116.374 26.4998 116.304 26.3267 116.304 26.1289C116.304 25.9311 116.374 25.758 116.512 25.6096C116.66 25.4613 116.838 25.3871 117.046 25.3871C117.244 25.3871 117.412 25.4613 117.55 25.6096C117.699 25.758 117.773 25.9311 117.773 26.1289C117.773 26.3267 117.699 26.4998 117.55 26.6482C117.412 26.7867 117.244 26.8559 117.046 26.8559ZM121.635 36.2916L121.784 35.0751H122.526C122.684 34.8278 122.852 34.5855 123.03 34.3481L122.748 25.6245H123.95L124.217 32.9535C124.82 32.3403 125.478 31.821 126.19 31.3957C126.912 30.9605 127.644 30.7429 128.386 30.7429C128.93 30.7429 129.395 30.8567 129.78 31.0842C130.176 31.3017 130.478 31.5985 130.685 31.9743C130.903 32.3502 131.012 32.7755 131.012 33.2502C131.012 33.7151 130.843 34.1849 130.507 34.6597C130.171 35.1246 129.593 35.4905 128.772 35.7575C128.139 35.9653 127.377 36.1086 126.487 36.1878C125.597 36.257 124.499 36.2916 123.193 36.2916H121.635ZM128.297 31.9595C127.872 31.9595 127.442 32.0634 127.006 32.2711C126.581 32.4788 126.17 32.7458 125.775 33.0722C125.379 33.3887 125.018 33.73 124.692 34.0959C124.365 34.452 124.093 34.7784 123.876 35.0751H124.885C126.606 35.0751 127.867 34.9267 128.668 34.63C129.469 34.3333 129.869 33.8684 129.869 33.2354C129.869 33.0672 129.815 32.8843 129.706 32.6865C129.597 32.4886 129.424 32.3205 129.187 32.182C128.959 32.0337 128.663 31.9595 128.297 31.9595ZM132.169 36.2916C131.912 36.2916 131.585 36.267 131.19 36.2175C130.804 36.1581 130.409 36.0592 130.003 35.9207C129.608 35.7822 129.271 35.5894 128.994 35.3421L130.211 34.7339C130.557 34.8724 130.913 34.9663 131.279 35.0157C131.655 35.0553 132.001 35.0751 132.317 35.0751C132.525 35.0751 132.674 35.1344 132.763 35.2531C132.861 35.3619 132.911 35.4955 132.911 35.6537C132.911 35.8119 132.842 35.9603 132.703 36.0988C132.564 36.2273 132.386 36.2916 132.169 36.2916ZM127.659 29.2148C127.451 29.2148 127.273 29.1456 127.125 29.0071C126.986 28.8587 126.917 28.6857 126.917 28.4878C126.917 28.29 126.986 28.1169 127.125 27.9686C127.273 27.8202 127.451 27.746 127.659 27.746C127.857 27.746 128.025 27.8202 128.163 27.9686C128.312 28.1169 128.386 28.29 128.386 28.4878C128.386 28.6857 128.312 28.8587 128.163 29.0071C128.025 29.1456 127.857 29.2148 127.659 29.2148ZM132.168 36.2916L132.317 35.0751C132.654 35.0751 132.999 35.0701 133.355 35.0603C133.722 35.0504 134.072 35.0256 134.408 34.9861C134.171 34.7685 133.939 34.4866 133.711 34.1404C133.484 33.7942 133.37 33.3739 133.37 32.8793C133.37 32.3551 133.494 31.8803 133.741 31.4551C133.989 31.0198 134.305 30.6786 134.69 30.4314C135.087 30.1841 135.512 30.0605 135.966 30.0605C136.451 30.0605 136.877 30.194 137.242 30.461C137.609 30.7281 137.891 31.0693 138.088 31.4847C138.296 31.8903 138.399 32.3156 138.399 32.7607C138.399 33.2255 138.306 33.641 138.117 34.0069C137.93 34.3728 137.678 34.6943 137.361 34.9712C137.757 35.0009 138.162 35.0256 138.577 35.0454C138.993 35.0652 139.354 35.0751 139.66 35.0751C139.868 35.0751 140.017 35.1344 140.106 35.2531C140.205 35.3619 140.254 35.4955 140.254 35.6537C140.254 35.8119 140.185 35.9603 140.046 36.0988C139.908 36.2273 139.73 36.2916 139.512 36.2916C138.909 36.2916 138.281 36.2471 137.628 36.1581C136.975 36.0592 136.402 35.9406 135.907 35.8021C135.749 35.8614 135.586 35.9158 135.417 35.9653C134.963 36.0938 134.443 36.1779 133.86 36.2175C133.277 36.267 132.713 36.2916 132.168 36.2916ZM134.587 32.909C134.587 33.2948 134.705 33.636 134.943 33.9327C135.18 34.2196 135.447 34.452 135.744 34.63C136.15 34.452 136.491 34.2146 136.767 33.9179C137.045 33.6211 137.183 33.2651 137.183 32.8497C137.183 32.6221 137.129 32.3897 137.02 32.1524C136.911 31.9051 136.763 31.6974 136.575 31.5293C136.387 31.3611 136.17 31.277 135.922 31.277C135.684 31.277 135.462 31.3611 135.254 31.5293C135.057 31.6875 134.894 31.8903 134.765 32.1375C134.646 32.3848 134.587 32.642 134.587 32.909ZM135.833 28.5324C135.625 28.5324 135.447 28.4631 135.299 28.3246C135.161 28.1763 135.091 28.0032 135.091 27.8054C135.091 27.6075 135.161 27.4345 135.299 27.2861C135.447 27.1378 135.625 27.0636 135.833 27.0636C136.031 27.0636 136.199 27.1378 136.337 27.2861C136.486 27.4345 136.56 27.6075 136.56 27.8054C136.56 28.0032 136.486 28.1763 136.337 28.3246C136.199 28.4631 136.031 28.5324 135.833 28.5324ZM139.514 36.2916L139.647 35.0751C140.667 35.0751 141.655 34.9267 142.615 34.63C143.575 34.3234 144.45 33.8932 145.241 33.3393C144.855 33.003 144.38 32.731 143.816 32.5233C143.263 32.3156 142.65 32.2117 141.977 32.2117C141.73 32.2117 141.512 32.2265 141.324 32.2562C141.136 32.276 140.908 32.3156 140.641 32.3749L140.404 31.2474C140.958 31.0792 141.483 30.9951 141.977 30.9951C142.492 30.9951 142.956 31.0595 143.371 31.188C143.787 31.3067 144.163 31.4551 144.499 31.6331C144.845 31.8111 145.166 31.9892 145.463 32.1672C145.77 32.3452 146.067 32.4986 146.353 32.6271C146.64 32.7458 146.937 32.8052 147.243 32.8052H147.555L147.659 33.8734C147.353 33.8734 147.056 33.908 146.769 33.9772C146.957 34.4223 147.224 34.719 147.57 34.8674C147.916 35.0059 148.43 35.0751 149.113 35.0751C149.321 35.0751 149.469 35.1344 149.558 35.2531C149.657 35.3619 149.706 35.4955 149.706 35.6537C149.706 35.8119 149.637 35.9603 149.499 36.0988C149.361 36.2273 149.183 36.2916 148.964 36.2916C148.43 36.2916 147.951 36.2471 147.525 36.1581C147.11 36.0592 146.754 35.8713 146.457 35.5944C146.16 35.3075 145.943 34.8822 145.804 34.3184C145.429 34.4965 145.043 34.6992 144.647 34.9267C144.261 35.1443 143.831 35.357 143.356 35.5647C142.882 35.7724 142.333 35.9454 141.71 36.0839C141.086 36.2224 140.355 36.2916 139.514 36.2916ZM148.961 36.2916L149.109 35.0751C149.386 35.0751 149.618 35.0157 149.807 34.8971C149.994 34.7784 150.178 34.5855 150.356 34.3184C150.534 34.0415 150.726 33.6657 150.934 33.1909C151.22 32.5579 151.502 32.0782 151.78 31.7518C152.066 31.4254 152.348 31.2029 152.625 31.0842C152.912 30.9655 153.194 30.9061 153.471 30.9061C153.807 30.9061 154.119 30.9952 154.406 31.1732C154.692 31.3414 154.944 31.5688 155.162 31.8556C155.38 32.1425 155.548 32.459 155.667 32.8052C155.795 33.1414 155.86 33.4778 155.86 33.814C155.86 34.4075 155.756 34.8822 155.548 35.2383C155.341 35.5845 155.073 35.8367 154.747 35.9949C154.43 36.1433 154.099 36.2175 153.753 36.2175C153.466 36.2175 153.1 36.168 152.655 36.0691C152.22 35.9702 151.671 35.713 151.008 35.2976C150.692 35.7526 150.375 36.0345 150.059 36.1433C149.742 36.2422 149.376 36.2916 148.961 36.2916ZM151.735 33.9772C151.676 34.1058 151.621 34.2294 151.572 34.3481C151.997 34.5954 152.383 34.7685 152.729 34.8674C153.085 34.9564 153.382 35.0009 153.62 35.0009C154.045 35.0009 154.346 34.9069 154.525 34.719C154.703 34.5311 154.792 34.2838 154.792 33.9772C154.792 33.6904 154.722 33.4036 154.584 33.1167C154.445 32.8299 154.267 32.5925 154.05 32.4046C153.842 32.2167 153.62 32.1227 153.382 32.1227C153.204 32.1227 153.03 32.1722 152.863 32.2711C152.694 32.3699 152.522 32.5529 152.344 32.82C152.166 33.087 151.962 33.4728 151.735 33.9772Z" fill="white"/>
<path d="M149.672 0.436523H24.0008C10.9871 0.436523 0.4375 10.9862 0.4375 23.9998C0.4375 37.0134 10.9871 47.563 24.0008 47.563H149.672C162.685 47.563 173.235 37.0134 173.235 23.9998C173.235 10.9862 162.685 0.436523 149.672 0.436523Z" stroke="#747775"/>
</g>
<defs>
<linearGradient id="paint0_linear_568_60" x1="32.5397" y1="29.7109" x2="16.3927" y2="48.6295" gradientUnits="userSpaceOnUse">
<stop stop-color="#4285F4"/>
<stop offset="1" stop-color="#1B74E8"/>
</linearGradient>
<clipPath id="clip0_568_60">
<rect width="173.67" height="47.9992" fill="white"/>
</clipPath>
</defs>
</svg>
