<svg width="174" height="28" viewBox="0 0 174 28" fill="none" xmlns="http://www.w3.org/2000/svg">
<g clip-path="url(#clip0_568_574)">
<path d="M160.061 0.272461H13.6117C6.24519 0.272461 0.273438 6.24422 0.273438 13.6108C0.273438 20.9773 6.24519 26.949 13.6117 26.949H160.061C167.427 26.949 173.399 20.9773 173.399 13.6108C173.399 6.24422 167.427 0.272461 160.061 0.272461Z" fill="#1F1F1F"/>
<path d="M27.7662 11.9774H11.4336V9.2553C11.4336 7.77758 12.6323 6.5332 14.0558 6.5332H25.144C26.5675 6.5332 27.7662 7.77758 27.7662 9.2553V11.9774Z" fill="#34A853"/>
<path d="M27.7662 14.1844H11.4336V11.4623C11.4336 9.98462 12.6323 8.74023 14.0558 8.74023H25.144C26.5675 8.74023 27.7662 9.98462 27.7662 11.4623V14.1844Z" fill="#FBBC04"/>
<path d="M27.7662 16.4667H11.4336V13.7446C11.4336 12.2668 12.6323 11.0225 14.0558 11.0225H25.144C26.5675 11.0225 27.7662 12.2668 27.7662 13.7446V16.4667Z" fill="#EA4335"/>
<path d="M11.4336 12.6713L21.8 15.0688C22.9932 15.3685 24.3356 15.0688 25.3051 14.3196L27.7662 12.5215V18.1405C27.7662 19.564 26.5729 20.6878 25.156 20.6878H14.0438C12.6269 20.6878 11.4336 19.564 11.4336 18.1405V12.6713Z" fill="url(#paint0_linear_568_574)"/>
<path d="M38.8722 17.5957C38.3133 17.5957 37.787 17.4941 37.2934 17.2908C36.8071 17.0876 36.3751 16.8045 35.9977 16.4415C35.6202 16.0713 35.3226 15.6394 35.1048 15.1458C34.8943 14.6449 34.7891 14.1042 34.7891 13.5234C34.7891 12.9427 34.8943 12.4056 35.1048 11.9119C35.3226 11.4111 35.6166 10.9792 35.9868 10.6162C36.3642 10.246 36.7998 9.95928 37.2934 9.75605C37.787 9.55281 38.3133 9.45117 38.8722 9.45117C39.4674 9.45117 40.0155 9.55641 40.5164 9.76694C41.0245 9.97746 41.4491 10.2714 41.7903 10.6489L40.9628 11.4655C40.7087 11.1824 40.4038 10.9647 40.0482 10.8122C39.6997 10.6598 39.3077 10.5836 38.8722 10.5836C38.3568 10.5836 37.8814 10.707 37.4458 10.9538C37.0103 11.1933 36.6582 11.5345 36.3897 11.9773C36.1283 12.4128 35.9977 12.9282 35.9977 13.5234C35.9977 14.1186 36.132 14.6377 36.4005 15.0805C36.6691 15.516 37.0212 15.8572 37.4567 16.104C37.8923 16.3435 38.3677 16.4633 38.8831 16.4633C39.3549 16.4633 39.7832 16.3762 40.1679 16.202C40.5527 16.0205 40.8611 15.7664 41.0934 15.4398C41.333 15.1131 41.4782 14.7212 41.529 14.2638H38.8613V13.2077H42.6505C42.694 13.4037 42.7158 13.6105 42.7158 13.8283V13.8392C42.7158 14.5941 42.5488 15.2547 42.215 15.8209C41.8883 16.3798 41.4346 16.8154 40.8539 17.1275C40.2732 17.4396 39.6126 17.5957 38.8722 17.5957ZM46.2218 17.5957C45.6483 17.5957 45.1438 17.465 44.7083 17.2037C44.2727 16.9424 43.9316 16.5903 43.6848 16.1475C43.438 15.7048 43.3146 15.2039 43.3146 14.6449C43.3146 14.0933 43.438 13.596 43.6848 13.1532C43.9316 12.7032 44.2727 12.3475 44.7083 12.0862C45.1438 11.8248 45.6483 11.6942 46.2218 11.6942C46.788 11.6942 47.2888 11.8248 47.7244 12.0862C48.1599 12.3475 48.5011 12.7032 48.7479 13.1532C48.9947 13.596 49.1181 14.0933 49.1181 14.6449C49.1181 15.2039 48.9947 15.7048 48.7479 16.1475C48.5011 16.5903 48.1599 16.9424 47.7244 17.2037C47.2888 17.465 46.788 17.5957 46.2218 17.5957ZM46.2218 16.5177C46.5267 16.5177 46.8097 16.4452 47.0711 16.3C47.3324 16.1475 47.5429 15.9334 47.7026 15.6576C47.8696 15.3745 47.953 15.0369 47.953 14.6449C47.953 14.253 47.8696 13.9191 47.7026 13.6432C47.5429 13.3601 47.3324 13.146 47.0711 13.0008C46.8097 12.8484 46.5267 12.7721 46.2218 12.7721C45.9169 12.7721 45.6302 12.8484 45.3616 13.0008C45.1003 13.146 44.8861 13.3601 44.7192 13.6432C44.5595 13.9191 44.4796 14.253 44.4796 14.6449C44.4796 15.0369 44.5595 15.3745 44.7192 15.6576C44.8861 15.9334 45.1003 16.1475 45.3616 16.3C45.6302 16.4452 45.9169 16.5177 46.2218 16.5177ZM52.8144 17.5957C52.2409 17.5957 51.7364 17.465 51.3009 17.2037C50.8654 16.9424 50.5242 16.5903 50.2774 16.1475C50.0306 15.7048 49.9072 15.2039 49.9072 14.6449C49.9072 14.0933 50.0306 13.596 50.2774 13.1532C50.5242 12.7032 50.8654 12.3475 51.3009 12.0862C51.7364 11.8248 52.2409 11.6942 52.8144 11.6942C53.3806 11.6942 53.8814 11.8248 54.317 12.0862C54.7524 12.3475 55.0938 12.7032 55.3404 13.1532C55.5875 13.596 55.7106 14.0933 55.7106 14.6449C55.7106 15.2039 55.5875 15.7048 55.3404 16.1475C55.0938 16.5903 54.7524 16.9424 54.317 17.2037C53.8814 17.465 53.3806 17.5957 52.8144 17.5957ZM52.8144 16.5177C53.1193 16.5177 53.4023 16.4452 53.6637 16.3C53.925 16.1475 54.1355 15.9334 54.2952 15.6576C54.4622 15.3745 54.5455 15.0369 54.5455 14.6449C54.5455 14.253 54.4622 13.9191 54.2952 13.6432C54.1355 13.3601 53.925 13.146 53.6637 13.0008C53.4023 12.8484 53.1193 12.7721 52.8144 12.7721C52.5095 12.7721 52.2228 12.8484 51.9542 13.0008C51.6929 13.146 51.4787 13.3601 51.3118 13.6432C51.1521 13.9191 51.0722 14.253 51.0722 14.6449C51.0722 15.0369 51.1521 15.3745 51.3118 15.6576C51.4787 15.9334 51.6929 16.1475 51.9542 16.3C52.2228 16.4452 52.5095 16.5177 52.8144 16.5177ZM59.2983 19.9476C58.8116 19.9476 58.3908 19.8677 58.0353 19.708C57.6868 19.5556 57.4037 19.356 57.186 19.1092C56.9682 18.8696 56.8119 18.6229 56.7178 18.3688L57.8066 17.9115C57.9226 18.2018 58.1077 18.4378 58.3619 18.6192C58.6232 18.808 58.9352 18.9023 59.2983 18.9023C59.8063 18.9023 60.2053 18.7499 60.496 18.445C60.7933 18.1401 60.9425 17.7082 60.9425 17.1493V16.6157H60.8771C60.7029 16.8771 60.4596 17.0876 60.1476 17.2473C59.8427 17.3997 59.4943 17.4759 59.1023 17.4759C58.6303 17.4759 58.1986 17.3562 57.8066 17.1166C57.4146 16.8771 57.0989 16.5432 56.8593 16.1149C56.6198 15.6793 56.5 15.1712 56.5 14.5905C56.5 14.0025 56.6198 13.4944 56.8593 13.0661C57.0989 12.6306 57.4146 12.293 57.8066 12.0535C58.1986 11.814 58.6303 11.6942 59.1023 11.6942C59.4943 11.6942 59.8427 11.774 60.1476 11.9337C60.4596 12.0934 60.7029 12.3039 60.8771 12.5653H60.9425V11.8684H62.064V17.1275C62.064 17.73 61.9442 18.2418 61.7046 18.6628C61.4722 19.0838 61.1493 19.4032 60.7356 19.6209C60.3218 19.8387 59.8427 19.9476 59.2983 19.9476ZM59.3092 16.4089C59.5994 16.4089 59.8678 16.3399 60.1149 16.202C60.3616 16.0568 60.5614 15.8499 60.7138 15.5813C60.8662 15.3055 60.9425 14.9752 60.9425 14.5905C60.9425 14.1913 60.8662 13.8573 60.7138 13.5888C60.5614 13.3129 60.3616 13.106 60.1149 12.9681C59.8678 12.8302 59.5994 12.7612 59.3092 12.7612C59.0185 12.7612 58.7463 12.8338 58.4926 12.979C58.2454 13.1169 58.0461 13.3202 57.8937 13.5888C57.7413 13.8573 57.665 14.1913 57.665 14.5905C57.665 14.9825 57.7413 15.3164 57.8937 15.5922C58.0461 15.8608 58.2454 16.0641 58.4926 16.202C58.7463 16.3399 59.0185 16.4089 59.3092 16.4089ZM63.4506 17.4215V9.62539H64.6265V17.4215H63.4506ZM68.4968 17.5957C67.9524 17.5957 67.4657 17.4687 67.0378 17.2146C66.6093 16.9605 66.2718 16.6121 66.0252 16.1693C65.7856 15.7265 65.6658 15.222 65.6658 14.6558C65.6658 14.1259 65.7818 13.636 66.0143 13.1859C66.2462 12.7358 66.5696 12.3765 66.9833 12.1079C67.4042 11.8321 67.8871 11.6942 68.4315 11.6942C69.0048 11.6942 69.4909 11.8176 69.8905 12.0644C70.2967 12.3112 70.6054 12.6487 70.8161 13.077C71.0262 13.5053 71.1318 13.988 71.1318 14.5252C71.1318 14.605 71.128 14.6776 71.1209 14.7429C71.1209 14.8083 71.1171 14.8591 71.11 14.8954H66.82C66.8777 15.447 67.0704 15.8608 67.3971 16.1366C67.7308 16.4125 68.1081 16.5504 68.5295 16.5504C68.9068 16.5504 69.2187 16.4669 69.4659 16.3C69.7125 16.1258 69.9085 15.9116 70.0539 15.6576L71.0229 16.1258C70.7834 16.5613 70.4567 16.917 70.043 17.1928C69.6292 17.4614 69.1137 17.5957 68.4968 17.5957ZM68.4424 12.6959C68.0504 12.6959 67.7161 12.8157 67.4407 13.0552C67.1646 13.2948 66.9795 13.6142 66.8853 14.0134H69.9668C69.9521 13.8247 69.8905 13.6287 69.7817 13.4254C69.6728 13.2222 69.5056 13.0516 69.2808 12.9137C69.063 12.7685 68.7832 12.6959 68.4424 12.6959ZM75.9178 17.4215L73.8272 9.62539H75.1556L76.3969 14.6885L76.5276 15.3636H76.5929L76.7562 14.6885L78.3242 9.62539H79.5219L81.0245 14.6885L81.1878 15.3527H81.2531L81.3838 14.6885L82.6251 9.62539H83.9426L81.8847 17.4215H80.6216L79.1299 12.2495L78.9557 11.52H78.8904L78.7052 12.2495L77.1482 17.4215H75.9178ZM86.129 17.5957C85.7299 17.5957 85.3744 17.5195 85.0619 17.367C84.7499 17.2074 84.5066 16.9859 84.3324 16.7028C84.1582 16.4197 84.0711 16.0967 84.0711 15.7338C84.0711 15.3418 84.1729 15.0079 84.3759 14.732C84.5866 14.4489 84.8659 14.2348 85.2143 14.0896C85.5628 13.9444 85.9477 13.8719 86.3685 13.8719C86.7169 13.8719 87.0218 13.9045 87.2831 13.9699C87.5521 14.0352 87.7551 14.1042 87.8929 14.1767V13.8828C87.8929 13.5198 87.7622 13.2294 87.5009 13.0117C87.2396 12.7939 86.902 12.685 86.4883 12.685C86.2052 12.685 85.9368 12.7504 85.6825 12.881C85.4288 13.0044 85.2252 13.175 85.0728 13.3928L84.267 12.7721C84.5066 12.4382 84.8224 12.1769 85.2143 11.9882C85.6139 11.7922 86.0495 11.6942 86.5209 11.6942C87.3267 11.6942 87.9473 11.8938 88.3829 12.293C88.8184 12.685 89.0362 13.2367 89.0362 13.9481V17.4215H87.8929V16.7355H87.8276C87.6827 16.9605 87.465 17.1602 87.1742 17.3344C86.8841 17.5086 86.5356 17.5957 86.129 17.5957ZM86.3358 16.6375C86.6407 16.6375 86.9097 16.5649 87.1416 16.4197C87.374 16.2746 87.5553 16.0859 87.686 15.8536C87.8243 15.614 87.8929 15.3563 87.8929 15.0805C87.7263 14.9861 87.5303 14.9099 87.3049 14.8518C87.0801 14.7865 86.8405 14.7538 86.5863 14.7538C86.1072 14.7538 85.7664 14.8518 85.5628 15.0478C85.3597 15.2366 85.2579 15.4688 85.2579 15.7447C85.2579 16.006 85.3559 16.2201 85.5519 16.3871C85.7479 16.5541 86.0092 16.6375 86.3358 16.6375ZM90.3417 17.4215V9.62539H91.5176V17.4215H90.3417ZM92.9152 17.4215V9.62539H94.0911V17.4215H92.9152ZM97.9614 17.5957C97.417 17.5957 96.9303 17.4687 96.5023 17.2146C96.0739 16.9605 95.7363 16.6121 95.4897 16.1693C95.2502 15.7265 95.1304 15.222 95.1304 14.6558C95.1304 14.1259 95.2464 13.636 95.4788 13.1859C95.7108 12.7358 96.0341 12.3765 96.4479 12.1079C96.8687 11.8321 97.3516 11.6942 97.8961 11.6942C98.4693 11.6942 98.9555 11.8176 99.3551 12.0644C99.7612 12.3112 100.07 12.6487 100.281 13.077C100.491 13.5053 100.596 13.988 100.596 14.5252C100.596 14.605 100.593 14.6776 100.585 14.7429C100.585 14.8083 100.582 14.8591 100.575 14.8954H96.2846C96.3423 15.447 96.535 15.8608 96.8617 16.1366C97.1954 16.4125 97.5727 16.5504 97.9941 16.5504C98.3713 16.5504 98.6833 16.4669 98.9305 16.3C99.1771 16.1258 99.3731 15.9116 99.5184 15.6576L100.487 16.1258C100.248 16.5613 99.9213 16.917 99.5075 17.1928C99.0938 17.4614 98.5782 17.5957 97.9614 17.5957ZM97.9069 12.6959C97.515 12.6959 97.1807 12.8157 96.9052 13.0552C96.6292 13.2948 96.4441 13.6142 96.3499 14.0134H99.4313C99.4166 13.8247 99.3551 13.6287 99.2462 13.4254C99.1373 13.2222 98.9702 13.0516 98.7454 12.9137C98.5276 12.7685 98.2478 12.6959 97.9069 12.6959ZM102.116 15.81V12.8919H101.147V11.8684H102.116V10.3005H103.292V11.8684H104.653V12.8919H103.292V15.5596C103.292 15.8354 103.346 16.0459 103.455 16.1911C103.571 16.3363 103.763 16.4089 104.032 16.4089C104.17 16.4089 104.286 16.3907 104.381 16.3544C104.482 16.3181 104.584 16.2673 104.686 16.202V17.3453C104.562 17.3961 104.431 17.436 104.294 17.465C104.155 17.4941 103.992 17.5086 103.804 17.5086C103.288 17.5086 102.878 17.3598 102.573 17.0622C102.268 16.7573 102.116 16.3399 102.116 15.81Z" fill="white"/>
<path d="M109.701 11.0515C109.483 11.0515 109.294 10.9753 109.135 10.8228C108.982 10.6631 108.906 10.4744 108.906 10.2566C108.906 10.0389 108.982 9.85375 109.135 9.70131C109.294 9.54888 109.483 9.47266 109.701 9.47266C109.919 9.47266 110.104 9.54888 110.256 9.70131C110.416 9.85375 110.496 10.0389 110.496 10.2566C110.496 10.4744 110.416 10.6631 110.256 10.8228C110.104 10.9753 109.919 11.0515 109.701 11.0515ZM109.113 17.4212V11.8681H110.289V17.4212H109.113ZM111.748 17.4212V11.8681H112.913V16.3977H114.742V11.8681H115.907V16.3977H117.737V11.8681H118.902V17.4212H111.748ZM120.962 11.0515C120.744 11.0515 120.555 10.9753 120.396 10.8228C120.243 10.6631 120.167 10.4744 120.167 10.2566C120.167 10.0389 120.243 9.85375 120.396 9.70131C120.555 9.54888 120.744 9.47266 120.962 9.47266C121.18 9.47266 121.365 9.54888 121.517 9.70131C121.677 9.85375 121.757 10.0389 121.757 10.2566C121.757 10.4744 121.677 10.6631 121.517 10.8228C121.365 10.9753 121.18 11.0515 120.962 11.0515ZM120.374 17.4212V11.8681H121.55V17.4212H120.374ZM123.009 17.4212V11.8681H124.185V14.1002H126.82V11.8681H127.996V17.4212H126.82V15.1237H124.185V17.4212H123.009ZM131.851 17.5954C131.307 17.5954 130.82 17.4684 130.392 17.2143C129.964 16.9602 129.626 16.6118 129.38 16.169C129.14 15.7262 129.02 15.2217 129.02 14.6555C129.02 14.1257 129.136 13.6357 129.369 13.1856C129.601 12.7355 129.924 12.3762 130.338 12.1076C130.759 11.8318 131.242 11.6939 131.786 11.6939C132.359 11.6939 132.845 11.8173 133.245 12.0641C133.651 12.3109 133.96 12.6484 134.171 13.0767C134.381 13.505 134.486 13.9877 134.486 14.5249C134.486 14.6047 134.483 14.6773 134.475 14.7426C134.475 14.808 134.472 14.8588 134.465 14.8951H130.175C130.232 15.4467 130.425 15.8605 130.752 16.1364C131.085 16.4122 131.463 16.5501 131.884 16.5501C132.261 16.5501 132.573 16.4667 132.82 16.2997C133.067 16.1255 133.263 15.9113 133.408 15.6573L134.377 16.1255C134.138 16.561 133.811 16.9167 133.398 17.1925C132.984 17.4611 132.468 17.5954 131.851 17.5954ZM131.797 12.6956C131.405 12.6956 131.071 12.8154 130.795 13.0549C130.519 13.2945 130.334 13.6139 130.24 14.0131H133.321C133.307 13.8244 133.245 13.6284 133.136 13.4251C133.027 13.2219 132.86 13.0513 132.635 12.9134C132.418 12.7682 132.138 12.6956 131.797 12.6956ZM138.119 17.4212V11.8681H139.295V14.3289H139.36L141.538 11.8681H142.888V11.9334L140.569 14.4704L142.975 17.3559V17.4212H141.581L139.36 14.6882H139.295V17.4212H138.119ZM142.06 19.0762V17.4212H141.69V16.365H143.149V19.0762H142.06ZM146.442 17.5954C145.868 17.5954 145.364 17.4647 144.928 17.2034C144.493 16.9421 144.151 16.59 143.905 16.1472C143.658 15.7045 143.535 15.2036 143.535 14.6446C143.535 14.093 143.658 13.5957 143.905 13.1529C144.151 12.7029 144.493 12.3472 144.928 12.0859C145.364 11.8246 145.868 11.6939 146.442 11.6939C147.008 11.6939 147.509 11.8246 147.944 12.0859C148.38 12.3472 148.721 12.7029 148.968 13.1529C149.215 13.5957 149.338 14.093 149.338 14.6446C149.338 15.2036 149.215 15.7045 148.968 16.1472C148.721 16.59 148.38 16.9421 147.944 17.2034C147.509 17.4647 147.008 17.5954 146.442 17.5954ZM146.442 16.5175C146.747 16.5175 147.03 16.4449 147.291 16.2997C147.552 16.1472 147.763 15.9331 147.923 15.6573C148.089 15.3742 148.173 15.0366 148.173 14.6446C148.173 14.2527 148.089 13.9188 147.923 13.6429C147.763 13.3598 147.552 13.1457 147.291 13.0005C147.03 12.8481 146.747 12.7718 146.442 12.7718C146.137 12.7718 145.85 12.8481 145.582 13.0005C145.32 13.1457 145.106 13.3598 144.939 13.6429C144.779 13.9188 144.7 14.2527 144.7 14.6446C144.7 15.0366 144.779 15.3742 144.939 15.6573C145.106 15.9331 145.32 16.1472 145.582 16.2997C145.85 16.4449 146.137 16.5175 146.442 16.5175ZM152.991 17.5954C152.432 17.5954 151.938 17.4684 151.51 17.2143C151.081 16.9602 150.744 16.6118 150.497 16.169C150.251 15.719 150.127 15.2108 150.127 14.6446C150.127 14.0785 150.251 13.5739 150.497 13.1312C150.744 12.6811 151.081 12.3291 151.51 12.075C151.938 11.8209 152.432 11.6939 152.991 11.6939C153.608 11.6939 154.127 11.8318 154.548 12.1076C154.976 12.3835 155.281 12.7573 155.462 13.2292L154.395 13.6647C154.141 13.0695 153.666 12.7718 152.969 12.7718C152.664 12.7718 152.385 12.8517 152.13 13.0114C151.876 13.1638 151.673 13.3816 151.521 13.6647C151.368 13.9405 151.292 14.2672 151.292 14.6446C151.292 15.0221 151.368 15.3524 151.521 15.6355C151.673 15.9186 151.876 16.1364 152.13 16.2888C152.385 16.4412 152.664 16.5175 152.969 16.5175C153.324 16.5175 153.626 16.4376 153.873 16.2779C154.119 16.1109 154.312 15.8859 154.45 15.6028L155.495 16.0601C155.299 16.5029 154.987 16.8695 154.559 17.1599C154.13 17.4502 153.608 17.5954 152.991 17.5954ZM158.398 19.5009C158.376 19.559 158.35 19.6134 158.322 19.6642C158.3 19.715 158.285 19.7513 158.278 19.7731H157.026C157.062 19.6932 157.113 19.5771 157.178 19.4247C157.251 19.2795 157.32 19.1379 157.385 19C157.451 18.8621 157.52 18.706 157.592 18.5318C157.672 18.3576 157.752 18.187 157.832 18.0201L158.245 17.1163L155.926 11.8681H157.233L158.822 15.6573H158.877L160.412 11.8681H161.708L158.833 18.4883C158.753 18.677 158.666 18.873 158.572 19.0762C158.485 19.2868 158.427 19.4283 158.398 19.5009Z" fill="white"/>
<path d="M160.061 0.272461H13.6117C6.24519 0.272461 0.273438 6.24422 0.273438 13.6108C0.273438 20.9773 6.24519 26.949 13.6117 26.949H160.061C167.427 26.949 173.399 20.9773 173.399 13.6108C173.399 6.24422 167.427 0.272461 160.061 0.272461Z" stroke="#747775"/>
</g>
<defs>
<linearGradient id="paint0_linear_568_574" x1="18.8215" y1="16.7606" x2="10.1983" y2="26.6292" gradientUnits="userSpaceOnUse">
<stop stop-color="#4285F4"/>
<stop offset="1" stop-color="#1B74E8"/>
</linearGradient>
<clipPath id="clip0_568_574">
<rect width="173.67" height="27.221" fill="white"/>
</clipPath>
</defs>
</svg>
