<svg width="174" height="28" viewBox="0 0 174 28" fill="none" xmlns="http://www.w3.org/2000/svg">
<g clip-path="url(#clip0_568_358)">
<path d="M159.973 0.274414H13.6959C6.28287 0.274414 0.273438 6.28385 0.273438 13.6969C0.273438 21.1099 6.28287 27.1193 13.6959 27.1193H159.973C167.386 27.1193 173.396 21.1099 173.396 13.6969C173.396 6.28385 167.386 0.274414 159.973 0.274414Z" fill="#1F1F1F"/>
<path d="M27.9396 12.0528H11.5039V9.31349C11.5039 7.82645 12.7102 6.57422 14.1426 6.57422H25.3008C26.7333 6.57422 27.9396 7.82645 27.9396 9.31349V12.0528Z" fill="#34A853"/>
<path d="M27.9396 14.2735H11.5039V11.5342C11.5039 10.0472 12.7102 8.79492 14.1426 8.79492H25.3008C26.7333 8.79492 27.9396 10.0472 27.9396 11.5342V14.2735Z" fill="#FBBC04"/>
<path d="M27.9396 16.5713H11.5039V13.832C11.5039 12.345 12.7102 11.0928 14.1426 11.0928H25.3008C26.7333 11.0928 27.9396 12.345 27.9396 13.832V16.5713Z" fill="#EA4335"/>
<path d="M11.5039 12.7514L21.9357 15.1639C23.1365 15.4655 24.4873 15.1639 25.463 14.41L27.9396 12.6006V18.255C27.9396 19.6875 26.7388 20.8184 25.3129 20.8184H14.1306C12.7047 20.8184 11.5039 19.6875 11.5039 18.255V12.7514Z" fill="url(#paint0_linear_568_358)"/>
<path d="M34.6797 17.5309L37.6381 9.68563H39.0077L41.9771 17.5309H40.6513L39.9281 15.5148H36.7287L36.0055 17.5309H34.6797ZM37.9997 11.9976L37.1341 14.3972H39.5227L38.6571 11.9976L38.3613 11.0991H38.2955L37.9997 11.9976ZM43.5143 11.121C43.2951 11.121 43.1052 11.0443 42.9445 10.8909C42.7911 10.7302 42.7144 10.5403 42.7144 10.3211C42.7144 10.102 42.7911 9.91573 42.9445 9.76233C43.1052 9.60893 43.2951 9.53223 43.5143 9.53223C43.7334 9.53223 43.9197 9.60893 44.0731 9.76233C44.2338 9.91573 44.3142 10.102 44.3142 10.3211C44.3142 10.5403 44.2338 10.7302 44.0731 10.8909C43.9197 11.0443 43.7334 11.121 43.5143 11.121ZM42.4514 20.0072C42.225 20.0072 42.0204 19.9816 41.8378 19.9305V18.791C41.9109 18.8348 41.9949 18.8677 42.0899 18.8896C42.1775 18.9188 42.2652 18.9334 42.3528 18.9334C42.5646 18.9334 42.7107 18.8677 42.7911 18.7362C42.8788 18.612 42.9226 18.4294 42.9226 18.1883V11.9428H44.106V18.1993C44.106 18.8421 43.9489 19.3023 43.6348 19.5799C43.3207 19.8648 42.9262 20.0072 42.4514 20.0072ZM48.1504 17.7062C47.5733 17.7062 47.0656 17.5747 46.6274 17.3118C46.1891 17.0488 45.8458 16.6945 45.5974 16.2489C45.3491 15.8034 45.2249 15.2993 45.2249 14.7368C45.2249 14.1817 45.3491 13.6813 45.5974 13.2357C45.8458 12.7828 46.1891 12.4249 46.6274 12.1619C47.0656 11.899 47.5733 11.7675 48.1504 11.7675C48.7202 11.7675 49.2242 11.899 49.6625 12.1619C50.1008 12.4249 50.4441 12.7828 50.6924 13.2357C50.9408 13.6813 51.065 14.1817 51.065 14.7368C51.065 15.2993 50.9408 15.8034 50.6924 16.2489C50.4441 16.6945 50.1008 17.0488 49.6625 17.3118C49.2242 17.5747 48.7202 17.7062 48.1504 17.7062ZM48.1504 16.6215C48.4572 16.6215 48.7421 16.5484 49.0051 16.4023C49.268 16.2489 49.4799 16.0335 49.6406 15.7559C49.8086 15.471 49.8926 15.1313 49.8926 14.7368C49.8926 14.3424 49.8086 14.0064 49.6406 13.7288C49.4799 13.4439 49.268 13.2284 49.0051 13.0823C48.7421 12.9289 48.4572 12.8522 48.1504 12.8522C47.8436 12.8522 47.5551 12.9289 47.2848 13.0823C47.0218 13.2284 46.8063 13.4439 46.6383 13.7288C46.4776 14.0064 46.3973 14.3424 46.3973 14.7368C46.3973 15.1313 46.4776 15.471 46.6383 15.7559C46.8063 16.0335 47.0218 16.2489 47.2848 16.4023C47.5551 16.5484 47.8436 16.6215 48.1504 16.6215ZM54.1284 17.7062C53.4418 17.7062 52.9231 17.5017 52.5725 17.0926C52.2292 16.6763 52.0575 16.1138 52.0575 15.4052V11.9428H53.2409V15.2409C53.2409 15.7157 53.3505 16.0663 53.5696 16.2928C53.7961 16.5119 54.0773 16.6215 54.4133 16.6215C54.7128 16.6215 54.9722 16.5448 55.1914 16.3914C55.4176 16.2307 55.5897 16.0261 55.7064 15.7778C55.8307 15.5221 55.8926 15.2445 55.8926 14.945V11.9428H57.065V17.5309H55.9584V16.7749H55.8926C55.7321 17.0378 55.4911 17.2607 55.1695 17.4433C54.8555 17.6186 54.5083 17.7062 54.1284 17.7062ZM59.1025 15.9093V12.9728H58.1273V11.9428H59.1025V10.365H60.2859V11.9428H61.6555V12.9728H60.2859V15.6572C60.2859 15.9348 60.3407 16.1466 60.4502 16.2928C60.5669 16.4389 60.7609 16.5119 61.031 16.5119C61.1696 16.5119 61.2868 16.4937 61.3816 16.4571C61.484 16.4206 61.5859 16.3695 61.6884 16.3037V17.4542C61.564 17.5053 61.4325 17.5455 61.2939 17.5747C61.1553 17.6039 60.991 17.6186 60.8009 17.6186C60.282 17.6186 59.8695 17.4688 59.5627 17.1693C59.2559 16.8625 59.1025 16.4425 59.1025 15.9093ZM65.13 17.7062C64.5822 17.7062 64.0929 17.5784 63.6618 17.3227C63.2306 17.067 62.8909 16.7164 62.6428 16.2708C62.4017 15.8253 62.2812 15.3176 62.2812 14.7478C62.2812 14.2146 62.3979 13.7215 62.6318 13.2686C62.8657 12.8157 63.1906 12.4541 63.607 12.1838C64.0305 11.9062 64.5164 11.7675 65.0643 11.7675C65.6412 11.7675 66.1309 11.8917 66.5325 12.14C66.9418 12.3884 67.2519 12.728 67.4639 13.159C67.6759 13.59 67.7816 14.0758 67.7816 14.6163C67.7816 14.6967 67.7778 14.7697 67.7707 14.8355C67.7707 14.9012 67.7668 14.9523 67.7597 14.9889H63.4426C63.5012 15.544 63.6946 15.9604 64.0233 16.238C64.3592 16.5156 64.7394 16.6543 65.1629 16.6543C65.5425 16.6543 65.857 16.5704 66.1052 16.4023C66.3534 16.227 66.5506 16.0115 66.6969 15.7559L67.6721 16.227C67.431 16.6653 67.1023 17.0232 66.6859 17.3008C66.2695 17.5711 65.7507 17.7062 65.13 17.7062ZM65.0752 12.7755C64.6808 12.7755 64.3449 12.8961 64.0672 13.1371C63.7894 13.3782 63.6031 13.6996 63.5084 14.1013H66.6092C66.5944 13.9114 66.5325 13.7142 66.4229 13.5097C66.3134 13.3051 66.1452 13.1334 65.9189 12.9947C65.6998 12.8486 65.4187 12.7755 65.0752 12.7755ZM68.8795 17.5309V11.9428H69.9972V12.7646H70.0629C70.1873 12.4797 70.3987 12.2459 70.6984 12.0633C71.0052 11.8734 71.3339 11.7784 71.6845 11.7784C71.8379 11.7784 71.9656 11.7894 72.068 11.8113C72.1776 11.8332 72.2762 11.8588 72.3639 11.888V13.1152C72.2253 13.0567 72.0828 13.0093 71.9366 12.9728C71.7979 12.9362 71.6517 12.918 71.4983 12.918C71.2205 12.918 70.9723 12.9947 70.7532 13.1481C70.5412 13.2942 70.3735 13.495 70.2492 13.7507C70.1248 13.9991 70.0629 14.273 70.0629 14.5725V17.5309H68.8795ZM77.5877 17.7062C77.1861 17.7062 76.8278 17.6295 76.5139 17.4761C76.2 17.3154 75.9551 17.0926 75.7798 16.8077C75.6045 16.5229 75.5168 16.1978 75.5168 15.8326C75.5168 15.4381 75.6192 15.1021 75.8236 14.8245C76.0356 14.5396 76.3167 14.3241 76.6673 14.178C77.0179 14.0319 77.4052 13.9589 77.8287 13.9589C78.1794 13.9589 78.4862 13.9918 78.7491 14.0575C79.0192 14.1233 79.2241 14.1927 79.3627 14.2657V13.9699C79.3627 13.6046 79.2312 13.3124 78.9683 13.0933C78.7053 12.8741 78.3656 12.7646 77.9493 12.7646C77.6644 12.7646 77.3943 12.8303 77.1384 12.9618C76.8826 13.086 76.6782 13.2576 76.5248 13.4768L75.714 12.8522C75.9551 12.5162 76.2728 12.2533 76.6673 12.0633C77.0689 11.8661 77.5071 11.7675 77.9821 11.7675C78.793 11.7675 79.4175 11.9684 79.8558 12.3701C80.2941 12.7646 80.5132 13.3197 80.5132 14.0356V17.5309H79.3627V16.8406H79.297C79.1507 17.067 78.9316 17.2679 78.6396 17.4433C78.3476 17.6186 77.9969 17.7062 77.5877 17.7062ZM77.7959 16.742C78.1027 16.742 78.3728 16.669 78.6067 16.5229C78.8406 16.3767 79.0231 16.1869 79.1545 15.9531C79.2932 15.712 79.3627 15.4527 79.3627 15.1751C79.1945 15.0802 78.9973 15.0035 78.771 14.945C78.5448 14.8793 78.3037 14.8464 78.0479 14.8464C77.5658 14.8464 77.2223 14.945 77.0179 15.1423C76.8136 15.3322 76.7111 15.5659 76.7111 15.8435C76.7111 16.1065 76.8097 16.322 77.007 16.49C77.2042 16.658 77.4672 16.742 77.7959 16.742ZM83.8431 17.7062C83.1566 17.7062 82.6378 17.5017 82.2872 17.0926C81.9437 16.6763 81.7722 16.1138 81.7722 15.4052V11.9428H82.9556V15.2409C82.9556 15.7157 83.0651 16.0663 83.2843 16.2928C83.5105 16.5119 83.7921 16.6215 84.128 16.6215C84.4276 16.6215 84.6868 16.5448 84.9059 16.3914C85.1322 16.2307 85.3042 16.0261 85.4209 15.7778C85.5453 15.5221 85.6072 15.2445 85.6072 14.945V11.9428H86.7796V17.5309H85.6729V16.7749H85.6072C85.4467 17.0378 85.2056 17.2607 84.884 17.4433C84.5701 17.6186 84.2227 17.7062 83.8431 17.7062Z" fill="white"/>
<path d="M94.9995 17.7067C94.4369 17.7067 93.9077 17.6044 93.4108 17.3999C92.9215 17.1953 92.4865 16.9105 92.1069 16.5452C91.7272 16.1727 91.4275 15.738 91.2084 15.2413C90.9964 14.7373 90.8906 14.1931 90.8906 13.6087C90.8906 13.0243 90.9964 12.4838 91.2084 11.987C91.4275 11.483 91.7234 11.0484 92.0959 10.6832C92.4756 10.3106 92.9139 10.0221 93.4108 9.81754C93.9077 9.61303 94.4369 9.51074 94.9995 9.51074C95.5983 9.51074 96.15 9.61664 96.6541 9.8285C97.1652 10.0404 97.5925 10.3362 97.936 10.716L97.1033 11.5378C96.8475 11.2529 96.5407 11.0338 96.1829 10.8804C95.8323 10.727 95.4378 10.6503 94.9995 10.6503C94.4807 10.6503 94.0024 10.7745 93.5642 11.0228C93.1259 11.2639 92.7714 11.6072 92.5013 12.0528C92.2383 12.4911 92.1069 13.0097 92.1069 13.6087C92.1069 14.2077 92.2422 14.73 92.5123 15.1756C92.7824 15.6138 93.1368 15.9572 93.5751 16.2055C94.0134 16.4466 94.4917 16.5671 95.0105 16.5671C95.4855 16.5671 95.9161 16.4795 96.3034 16.3041C96.6908 16.1215 97.0009 15.8659 97.2348 15.5371C97.4758 15.2084 97.6221 14.814 97.6731 14.3538H94.9886V13.2909H98.8017C98.8455 13.4882 98.8674 13.6964 98.8674 13.9155V13.9265C98.8674 14.6862 98.6992 15.3509 98.3634 15.9206C98.0347 16.4831 97.5783 16.9214 96.9937 17.2355C96.4092 17.5496 95.7446 17.7067 94.9995 17.7067ZM102.396 17.7067C101.819 17.7067 101.311 17.5752 100.873 17.3122C100.434 17.0492 100.091 16.6949 99.8426 16.2494C99.5944 15.8038 99.47 15.2998 99.47 14.7373C99.47 14.1821 99.5944 13.6817 99.8426 13.2362C100.091 12.7832 100.434 12.4253 100.873 12.1624C101.311 11.8994 101.819 11.7679 102.396 11.7679C102.965 11.7679 103.469 11.8994 103.908 12.1624C104.346 12.4253 104.689 12.7832 104.938 13.2362C105.186 13.6817 105.31 14.1821 105.31 14.7373C105.31 15.2998 105.186 15.8038 104.938 16.2494C104.689 16.6949 104.346 17.0492 103.908 17.3122C103.469 17.5752 102.965 17.7067 102.396 17.7067ZM102.396 16.6219C102.702 16.6219 102.987 16.5489 103.25 16.4028C103.513 16.2494 103.725 16.0339 103.886 15.7563C104.054 15.4714 104.138 15.1317 104.138 14.7373C104.138 14.3428 104.054 14.0068 103.886 13.7292C103.725 13.4443 103.513 13.2289 103.25 13.0828C102.987 12.9294 102.702 12.8527 102.396 12.8527C102.089 12.8527 101.8 12.9294 101.53 13.0828C101.267 13.2289 101.052 13.4443 100.884 13.7292C100.723 14.0068 100.642 14.3428 100.642 14.7373C100.642 15.1317 100.723 15.4714 100.884 15.7563C101.052 16.0339 101.267 16.2494 101.53 16.4028C101.8 16.5489 102.089 16.6219 102.396 16.6219ZM109.03 17.7067C108.453 17.7067 107.945 17.5752 107.507 17.3122C107.068 17.0492 106.725 16.6949 106.477 16.2494C106.228 15.8038 106.104 15.2998 106.104 14.7373C106.104 14.1821 106.228 13.6817 106.477 13.2362C106.725 12.7832 107.068 12.4253 107.507 12.1624C107.945 11.8994 108.453 11.7679 109.03 11.7679C109.599 11.7679 110.103 11.8994 110.542 12.1624C110.98 12.4253 111.323 12.7832 111.572 13.2362C111.82 13.6817 111.944 14.1821 111.944 14.7373C111.944 15.2998 111.82 15.8038 111.572 16.2494C111.323 16.6949 110.98 17.0492 110.542 17.3122C110.103 17.5752 109.599 17.7067 109.03 17.7067ZM109.03 16.6219C109.336 16.6219 109.621 16.5489 109.884 16.4028C110.147 16.2494 110.359 16.0339 110.52 15.7563C110.688 15.4714 110.772 15.1317 110.772 14.7373C110.772 14.3428 110.688 14.0068 110.52 13.7292C110.359 13.4443 110.147 13.2289 109.884 13.0828C109.621 12.9294 109.336 12.8527 109.03 12.8527C108.723 12.8527 108.435 12.9294 108.164 13.0828C107.901 13.2289 107.686 13.4443 107.517 13.7292C107.357 14.0068 107.276 14.3428 107.276 14.7373C107.276 15.1317 107.357 15.4714 107.517 15.7563C107.686 16.0339 107.901 16.2494 108.164 16.4028C108.435 16.5489 108.723 16.6219 109.03 16.6219ZM115.555 20.0734C115.065 20.0734 114.641 19.993 114.283 19.8323C113.933 19.6789 113.648 19.478 113.429 19.2297C113.21 18.9886 113.052 18.7403 112.958 18.4846L114.053 18.0244C114.17 18.3166 114.356 18.554 114.612 18.7366C114.875 18.9266 115.189 19.0215 115.555 19.0215C116.066 19.0215 116.467 18.8681 116.76 18.5613C117.059 18.2545 117.209 17.8199 117.209 17.2574V16.7205H117.143C116.968 16.9835 116.723 17.1953 116.409 17.356C116.102 17.5094 115.752 17.5861 115.357 17.5861C114.882 17.5861 114.448 17.4656 114.053 17.2245C113.659 16.9835 113.341 16.6475 113.1 16.2165C112.859 15.7782 112.739 15.2669 112.739 14.6825C112.739 14.0908 112.859 13.5795 113.1 13.1485C113.341 12.7102 113.659 12.3705 114.053 12.1295C114.448 11.8884 114.882 11.7679 115.357 11.7679C115.752 11.7679 116.102 11.8483 116.409 12.009C116.723 12.1696 116.968 12.3815 117.143 12.6445H117.209V11.9432H118.338V17.2355C118.338 17.8418 118.217 18.3568 117.976 18.7804C117.742 19.2041 117.417 19.5255 117.001 19.7447C116.584 19.9638 116.102 20.0734 115.555 20.0734ZM115.565 16.5123C115.857 16.5123 116.128 16.4429 116.376 16.3041C116.624 16.158 116.826 15.9498 116.979 15.6796C117.132 15.402 117.209 15.0697 117.209 14.6825C117.209 14.2807 117.132 13.9447 116.979 13.6744C116.826 13.3968 116.624 13.1887 116.376 13.0499C116.128 12.9111 115.857 12.8417 115.565 12.8417C115.273 12.8417 114.999 12.9147 114.744 13.0608C114.495 13.1996 114.294 13.4042 114.141 13.6744C113.988 13.9447 113.911 14.2807 113.911 14.6825C113.911 15.0769 113.988 15.4129 114.141 15.6905C114.294 15.9608 114.495 16.1654 114.744 16.3041C114.999 16.4429 115.273 16.5123 115.565 16.5123ZM119.733 17.5313V9.68606H120.916V17.5313H119.733ZM124.811 17.7067C124.263 17.7067 123.773 17.5788 123.343 17.3232C122.912 17.0675 122.572 16.7168 122.324 16.2713C122.083 15.8257 121.962 15.318 121.962 14.7482C121.962 14.215 122.079 13.7219 122.313 13.269C122.546 12.8161 122.872 12.4545 123.288 12.1843C123.712 11.9067 124.197 11.7679 124.745 11.7679C125.322 11.7679 125.811 11.8921 126.214 12.1404C126.622 12.3888 126.933 12.7285 127.145 13.1595C127.356 13.5905 127.463 14.0762 127.463 14.6167C127.463 14.6971 127.459 14.7701 127.452 14.8359C127.452 14.9016 127.448 14.9527 127.441 14.9893H123.124C123.182 15.5444 123.376 15.9608 123.704 16.2384C124.04 16.516 124.42 16.6548 124.844 16.6548C125.224 16.6548 125.538 16.5708 125.786 16.4028C126.034 16.2274 126.232 16.012 126.378 15.7563L127.353 16.2274C127.112 16.6657 126.783 17.0236 126.367 17.3012C125.951 17.5715 125.432 17.7067 124.811 17.7067ZM124.756 12.776C124.362 12.776 124.025 12.8965 123.748 13.1375C123.47 13.3786 123.284 13.7 123.189 14.1018H126.29C126.275 13.9118 126.214 13.7146 126.104 13.5101C125.994 13.3056 125.826 13.1339 125.6 12.9951C125.381 12.849 125.099 12.776 124.756 12.776ZM132.279 17.5313L130.175 9.68606H131.512L132.761 14.7811L132.892 15.4604H132.958L133.123 14.7811L134.7 9.68606H135.906L137.418 14.7811L137.582 15.4495H137.648L137.779 14.7811L139.028 9.68606H140.354L138.283 17.5313H137.012L135.511 12.3267L135.336 11.5926H135.27L135.084 12.3267L133.517 17.5313H132.279ZM142.554 17.7067C142.153 17.7067 141.795 17.63 141.481 17.4766C141.167 17.3159 140.922 17.0931 140.747 16.8082C140.571 16.5233 140.484 16.1982 140.484 15.833C140.484 15.4385 140.586 15.1025 140.79 14.8249C141.002 14.54 141.283 14.3246 141.634 14.1785C141.985 14.0324 142.372 13.9593 142.795 13.9593C143.146 13.9593 143.453 13.9922 143.716 14.0579C143.987 14.1237 144.191 14.1931 144.329 14.2661V13.9703C144.329 13.605 144.198 13.3129 143.935 13.0937C143.672 12.8746 143.332 12.765 142.916 12.765C142.631 12.765 142.361 12.8307 142.105 12.9622C141.85 13.0864 141.645 13.2581 141.492 13.4772L140.681 12.8527C140.922 12.5167 141.24 12.2537 141.634 12.0637C142.036 11.8665 142.474 11.7679 142.949 11.7679C143.76 11.7679 144.384 11.9688 144.823 12.3705C145.261 12.765 145.48 13.3201 145.48 14.036V17.5313H144.329V16.841H144.264C144.118 17.0675 143.899 17.2684 143.606 17.4437C143.314 17.619 142.964 17.7067 142.554 17.7067ZM142.763 16.7424C143.069 16.7424 143.34 16.6694 143.573 16.5233C143.807 16.3772 143.99 16.1873 144.121 15.9535C144.26 15.7125 144.329 15.4532 144.329 15.1756C144.162 15.0806 143.965 15.0039 143.738 14.9455C143.512 14.8797 143.27 14.8468 143.015 14.8468C142.533 14.8468 142.19 14.9455 141.985 15.1427C141.78 15.3326 141.678 15.5663 141.678 15.8439C141.678 16.1069 141.776 16.3224 141.974 16.4904C142.171 16.6584 142.434 16.7424 142.763 16.7424ZM146.794 17.5313V9.68606H147.977V17.5313H146.794ZM149.383 17.5313V9.68606H150.567V17.5313H149.383ZM154.462 17.7067C153.914 17.7067 153.424 17.5788 152.993 17.3232C152.562 17.0675 152.222 16.7168 151.974 16.2713C151.733 15.8257 151.613 15.318 151.613 14.7482C151.613 14.215 151.729 13.7219 151.963 13.269C152.197 12.8161 152.522 12.4545 152.938 12.1843C153.362 11.9067 153.848 11.7679 154.396 11.7679C154.973 11.7679 155.462 11.8921 155.864 12.1404C156.273 12.3888 156.583 12.7285 156.795 13.1595C157.007 13.5905 157.113 14.0762 157.113 14.6167C157.113 14.6971 157.109 14.7701 157.102 14.8359C157.102 14.9016 157.098 14.9527 157.091 14.9893H152.774C152.832 15.5444 153.026 15.9608 153.355 16.2384C153.691 16.516 154.07 16.6548 154.494 16.6548C154.874 16.6548 155.188 16.5708 155.437 16.4028C155.685 16.2274 155.882 16.012 156.028 15.7563L157.004 16.2274C156.763 16.6657 156.434 17.0236 156.017 17.3012C155.601 17.5715 155.082 17.7067 154.462 17.7067ZM154.407 12.776C154.012 12.776 153.676 12.8965 153.399 13.1375C153.121 13.3786 152.935 13.7 152.84 14.1018H155.941C155.926 13.9118 155.864 13.7146 155.754 13.5101C155.645 13.3056 155.477 13.1339 155.25 12.9951C155.031 12.849 154.75 12.776 154.407 12.776ZM158.642 15.9097V12.9732H157.667V11.9432H158.642V10.3654H159.826V11.9432H161.195V12.9732H159.826V15.6577C159.826 15.9353 159.88 16.1471 159.99 16.2932C160.107 16.4393 160.3 16.5123 160.571 16.5123C160.709 16.5123 160.826 16.4941 160.921 16.4575C161.023 16.421 161.126 16.3699 161.228 16.3041V17.4546C161.104 17.5058 160.972 17.546 160.834 17.5752C160.694 17.6044 160.53 17.619 160.341 17.619C159.822 17.619 159.409 17.4693 159.102 17.1698C158.796 16.863 158.642 16.4429 158.642 15.9097Z" fill="white"/>
<path d="M159.973 0.274414H13.6959C6.28287 0.274414 0.273438 6.28385 0.273438 13.6969C0.273438 21.1099 6.28287 27.1193 13.6959 27.1193H159.973C167.386 27.1193 173.396 21.1099 173.396 13.6969C173.396 6.28385 167.386 0.274414 159.973 0.274414Z" stroke="#747775"/>
</g>
<defs>
<linearGradient id="paint0_linear_568_358" x1="18.9385" y1="16.8664" x2="10.2608" y2="26.7973" gradientUnits="userSpaceOnUse">
<stop stop-color="#4285F4"/>
<stop offset="1" stop-color="#1B74E8"/>
</linearGradient>
<clipPath id="clip0_568_358">
<rect width="173.67" height="27.3927" fill="white"/>
</clipPath>
</defs>
</svg>
