<svg width="174" height="56" viewBox="0 0 174 56" fill="none" xmlns="http://www.w3.org/2000/svg">
<g clip-path="url(#clip0_568_565)">
<path d="M146.062 0.501953H27.6046C12.6351 0.501953 0.5 12.6371 0.5 27.6065C0.5 42.576 12.6351 54.7111 27.6046 54.7111H146.062C161.031 54.7111 173.166 42.576 173.166 27.6065C173.166 12.6371 161.031 0.501953 146.062 0.501953Z" fill="#1F1F1F"/>
<path d="M57.2215 23.8835H21.082V18.2162C21.082 15.1396 23.7345 12.5488 26.8842 12.5488H51.4193C54.569 12.5488 57.2215 15.1396 57.2215 18.2162V23.8835Z" fill="#34A853"/>
<path d="M57.2215 29.1119H21.082V23.0887C21.082 19.819 23.7345 17.0654 26.8842 17.0654H51.4193C54.569 17.0654 57.2215 19.819 57.2215 23.0887V29.1119Z" fill="#FBBC04"/>
<path d="M57.2215 34.1314H21.082V28.1082C21.082 24.8385 23.7345 22.085 26.8842 22.085H51.4193C54.569 22.085 57.2215 24.8385 57.2215 28.1082V34.1314Z" fill="#EA4335"/>
<path d="M21.082 25.3385L44.0198 30.5201C46.6602 31.1678 49.6306 30.5201 51.7757 28.9008L57.2215 25.0146V37.1589C57.2215 40.2355 54.5812 42.6643 51.4458 42.6643H26.8577C23.7223 42.6643 21.082 40.2355 21.082 37.1589V25.3385Z" fill="url(#paint0_linear_568_565)"/>
<path d="M74.7493 21.7919C74.0795 21.7919 73.4486 21.6702 72.857 21.4265C72.2741 21.1829 71.7565 20.8436 71.3041 20.4086C70.8516 19.9649 70.4949 19.4472 70.2339 18.8556C69.9817 18.2553 69.8555 17.6071 69.8555 16.9111C69.8555 16.2151 69.9817 15.5712 70.2339 14.9797C70.4949 14.3793 70.8473 13.8616 71.291 13.4267C71.7435 12.9829 72.2655 12.6393 72.857 12.3957C73.4486 12.152 74.0795 12.0303 74.7493 12.0303C75.4628 12.0303 76.1196 12.1565 76.7199 12.4087C77.329 12.661 77.838 13.0134 78.2468 13.4658L77.255 14.4446C76.9505 14.1053 76.5851 13.8443 76.1588 13.6616C75.7412 13.4789 75.2714 13.3875 74.7493 13.3875C74.1317 13.3875 73.5618 13.5354 73.0398 13.8312C72.5177 14.1183 72.0958 14.5272 71.7739 15.058C71.4607 15.58 71.3041 16.1977 71.3041 16.9111C71.3041 17.6246 71.465 18.2466 71.7869 18.7773C72.1089 19.2993 72.5308 19.7082 73.0528 20.004C73.5748 20.2911 74.1447 20.4347 74.7624 20.4347C75.3279 20.4347 75.8413 20.3303 76.3023 20.1215C76.7634 19.9039 77.1332 19.5995 77.4116 19.208C77.6987 18.8165 77.8727 18.3466 77.9336 17.7985H74.7363V16.5326H79.2778C79.33 16.7675 79.3561 17.0155 79.3561 17.2765V17.2896C79.3561 18.1944 79.156 18.9861 78.7558 19.6647C78.3643 20.3346 77.8205 20.8566 77.1245 21.2308C76.4285 21.6049 75.6368 21.7919 74.7493 21.7919ZM83.5582 21.7919C82.8709 21.7919 82.2663 21.6353 81.7442 21.3221C81.2222 21.0089 80.8133 20.587 80.5175 20.0562C80.2217 19.5255 80.0738 18.9252 80.0738 18.2553C80.0738 17.594 80.2217 16.9981 80.5175 16.4674C80.8133 15.928 81.2222 15.5017 81.7442 15.1885C82.2663 14.8752 82.8709 14.7186 83.5582 14.7186C84.2369 14.7186 84.8372 14.8752 85.3592 15.1885C85.8812 15.5017 86.2901 15.928 86.5859 16.4674C86.8818 16.9981 87.0296 17.594 87.0296 18.2553C87.0296 18.9252 86.8818 19.5255 86.5859 20.0562C86.2901 20.587 85.8812 21.0089 85.3592 21.3221C84.8372 21.6353 84.2369 21.7919 83.5582 21.7919ZM83.5582 20.4999C83.9236 20.4999 84.263 20.4129 84.5762 20.2389C84.8894 20.0562 85.1416 19.7995 85.3331 19.469C85.5332 19.1297 85.6332 18.7251 85.6332 18.2553C85.6332 17.7855 85.5332 17.3852 85.3331 17.0547C85.1416 16.7153 84.8894 16.4587 84.5762 16.2847C84.263 16.102 83.9236 16.0106 83.5582 16.0106C83.1928 16.0106 82.8492 16.102 82.5273 16.2847C82.214 16.4587 81.9574 16.7153 81.7573 17.0547C81.5658 17.3852 81.4702 17.7855 81.4702 18.2553C81.4702 18.7251 81.5658 19.1297 81.7573 19.469C81.9574 19.7995 82.214 20.0562 82.5273 20.2389C82.8492 20.4129 83.1928 20.4999 83.5582 20.4999ZM91.4598 21.7919C90.7725 21.7919 90.1678 21.6353 89.6458 21.3221C89.1238 21.0089 88.7149 20.587 88.4191 20.0562C88.1232 19.5255 87.9754 18.9252 87.9754 18.2553C87.9754 17.594 88.1232 16.9981 88.4191 16.4674C88.7149 15.928 89.1238 15.5017 89.6458 15.1885C90.1678 14.8752 90.7725 14.7186 91.4598 14.7186C92.1384 14.7186 92.7388 14.8752 93.2608 15.1885C93.7828 15.5017 94.1917 15.928 94.4875 16.4674C94.7833 16.9981 94.9312 17.594 94.9312 18.2553C94.9312 18.9252 94.7833 19.5255 94.4875 20.0562C94.1917 20.587 93.7828 21.0089 93.2608 21.3221C92.7388 21.6353 92.1384 21.7919 91.4598 21.7919ZM91.4598 20.4999C91.8252 20.4999 92.1645 20.4129 92.4777 20.2389C92.791 20.0562 93.0432 19.7995 93.2347 19.469C93.4347 19.1297 93.5348 18.7251 93.5348 18.2553C93.5348 17.7855 93.4347 17.3852 93.2347 17.0547C93.0432 16.7153 92.791 16.4587 92.4777 16.2847C92.1645 16.102 91.8252 16.0106 91.4598 16.0106C91.0944 16.0106 90.7508 16.102 90.4288 16.2847C90.1156 16.4587 89.8589 16.7153 89.6589 17.0547C89.4674 17.3852 89.3718 17.7855 89.3718 18.2553C89.3718 18.7251 89.4674 19.1297 89.6589 19.469C89.8589 19.7995 90.1156 20.0562 90.4288 20.2389C90.7508 20.4129 91.0944 20.4999 91.4598 20.4999ZM99.2309 24.6108C98.6479 24.6108 98.1434 24.5151 97.7171 24.3237C97.2994 24.141 96.9601 23.9018 96.6991 23.6059C96.4381 23.3188 96.2511 23.023 96.138 22.7185L97.443 22.1704C97.5822 22.5184 97.8041 22.8011 98.1086 23.0187C98.4218 23.2448 98.7959 23.358 99.2309 23.358C99.8399 23.358 100.318 23.1753 100.666 22.8099C101.023 22.4445 101.201 21.9268 101.201 21.2569V20.6174H101.123C100.914 20.9306 100.623 21.1829 100.249 21.3743C99.8834 21.557 99.4658 21.6484 98.996 21.6484C98.4305 21.6484 97.9128 21.5048 97.443 21.2177C96.9732 20.9306 96.5947 20.5304 96.3076 20.0171C96.0205 19.4951 95.877 18.886 95.877 18.19C95.877 17.4853 96.0205 16.8763 96.3076 16.363C96.5947 15.841 96.9732 15.4364 97.443 15.1493C97.9128 14.8622 98.4305 14.7186 98.996 14.7186C99.4658 14.7186 99.8834 14.8143 100.249 15.0058C100.623 15.1972 100.914 15.4495 101.123 15.7627H101.201V14.9275H102.546V21.2308C102.546 21.9529 102.402 22.5662 102.115 23.0709C101.837 23.5755 101.449 23.9583 100.953 24.2193C100.458 24.4803 99.8834 24.6108 99.2309 24.6108ZM99.2439 20.3694C99.592 20.3694 99.9138 20.2868 100.21 20.1215C100.506 19.9475 100.745 19.6996 100.927 19.3776C101.11 19.047 101.201 18.6511 101.201 18.19C101.201 17.7115 101.11 17.3113 100.927 16.9894C100.745 16.6588 100.506 16.4109 100.21 16.2455C99.9138 16.0802 99.592 15.9976 99.2439 15.9976C98.8959 15.9976 98.5696 16.0846 98.2652 16.2586C97.9693 16.4239 97.7301 16.6675 97.5474 16.9894C97.3647 17.3113 97.2733 17.7115 97.2733 18.19C97.2733 18.6599 97.3647 19.0601 97.5474 19.3907C97.7301 19.7126 97.9693 19.9562 98.2652 20.1215C98.5696 20.2868 98.8959 20.3694 99.2439 20.3694ZM104.208 21.5831V12.2391H105.617V21.5831H104.208ZM110.255 21.7919C109.603 21.7919 109.021 21.6396 108.507 21.3352C107.994 21.0307 107.589 20.6131 107.293 20.0823C107.006 19.5516 106.862 18.947 106.862 18.2683C106.862 17.6332 107.002 17.0459 107.28 16.5065C107.559 15.9672 107.945 15.5365 108.441 15.2146C108.946 14.884 109.525 14.7186 110.177 14.7186C110.865 14.7186 111.448 14.8665 111.926 15.1624C112.414 15.4582 112.783 15.8628 113.035 16.376C113.288 16.8893 113.414 17.468 113.414 18.1117C113.414 18.2074 113.409 18.2944 113.4 18.3727C113.4 18.451 113.396 18.512 113.387 18.5554H108.246C108.316 19.2167 108.546 19.7126 108.937 20.0432C109.338 20.3738 109.791 20.5391 110.294 20.5391C110.747 20.5391 111.122 20.439 111.417 20.2389C111.713 20.0301 111.948 19.7734 112.122 19.469L113.283 20.0301C112.996 20.5521 112.604 20.9785 112.108 21.3091C111.613 21.631 110.995 21.7919 110.255 21.7919ZM110.19 15.9193C109.72 15.9193 109.321 16.0628 108.989 16.3499C108.659 16.637 108.437 17.0198 108.324 17.4984H112.017C112 17.2722 111.926 17.0373 111.795 16.7937C111.665 16.55 111.465 16.3456 111.195 16.1803C110.934 16.0063 110.6 15.9193 110.19 15.9193ZM119.151 21.5831L116.645 12.2391H118.237L119.725 18.3075L119.881 19.1166H119.96L120.156 18.3075L122.035 12.2391H123.47L125.271 18.3075L125.467 19.1036H125.545L125.702 18.3075L127.19 12.2391H128.769L126.302 21.5831H124.788L123 15.3842L122.792 14.5098H122.713L122.492 15.3842L120.625 21.5831H119.151ZM131.389 21.7919C130.911 21.7919 130.484 21.7006 130.11 21.5179C129.736 21.3264 129.444 21.0611 129.236 20.7218C129.027 20.3825 128.922 19.9953 128.922 19.5603C128.922 19.0905 129.045 18.6903 129.288 18.3597C129.541 18.0204 129.875 17.7637 130.293 17.5897C130.71 17.4157 131.172 17.3287 131.676 17.3287C132.094 17.3287 132.459 17.3679 132.772 17.4462C133.094 17.5245 133.338 17.6071 133.503 17.6941V17.3418C133.503 16.9068 133.346 16.5587 133.033 16.2977C132.72 16.0367 132.315 15.9062 131.82 15.9062C131.48 15.9062 131.159 15.9845 130.854 16.1411C130.55 16.289 130.306 16.4935 130.123 16.7545L129.157 16.0106C129.444 15.6104 129.823 15.2972 130.293 15.071C130.771 14.8361 131.293 14.7186 131.859 14.7186C132.824 14.7186 133.568 14.9579 134.09 15.4364C134.612 15.9062 134.873 16.5675 134.873 17.4201V21.5831H133.503V20.761H133.425C133.251 21.0307 132.99 21.2699 132.642 21.4787C132.294 21.6875 131.877 21.7919 131.389 21.7919ZM131.637 20.6435C132.002 20.6435 132.324 20.5565 132.603 20.3825C132.882 20.2085 133.098 19.9823 133.255 19.7039C133.421 19.4168 133.503 19.1079 133.503 18.7773C133.303 18.6642 133.068 18.5728 132.798 18.5032C132.529 18.4249 132.242 18.3858 131.937 18.3858C131.363 18.3858 130.954 18.5032 130.71 18.7382C130.467 18.9643 130.345 19.2428 130.345 19.5734C130.345 19.8866 130.462 20.1433 130.697 20.3433C130.932 20.5434 131.245 20.6435 131.637 20.6435ZM136.438 21.5831V12.2391H137.848V21.5831H136.438ZM139.522 21.5831V12.2391H140.932V21.5831H139.522ZM145.571 21.7919C144.918 21.7919 144.335 21.6396 143.822 21.3352C143.309 21.0307 142.904 20.6131 142.608 20.0823C142.321 19.5516 142.177 18.947 142.177 18.2683C142.177 17.6332 142.317 17.0459 142.595 16.5065C142.873 15.9672 143.261 15.5365 143.757 15.2146C144.262 14.884 144.84 14.7186 145.492 14.7186C146.18 14.7186 146.762 14.8665 147.241 15.1624C147.728 15.4582 148.098 15.8628 148.35 16.376C148.602 16.8893 148.729 17.468 148.729 18.1117C148.729 18.2074 148.725 18.2944 148.716 18.3727C148.716 18.451 148.712 18.512 148.703 18.5554H143.561C143.63 19.2167 143.861 19.7126 144.252 20.0432C144.653 20.3738 145.105 20.5391 145.61 20.5391C146.062 20.5391 146.436 20.439 146.732 20.2389C147.028 20.0301 147.263 19.7734 147.437 19.469L148.598 20.0301C148.311 20.5521 147.92 20.9785 147.424 21.3091C146.928 21.631 146.31 21.7919 145.571 21.7919ZM145.505 15.9193C145.035 15.9193 144.635 16.0628 144.305 16.3499C143.974 16.637 143.753 17.0198 143.639 17.4984H147.332C147.315 17.2722 147.241 17.0373 147.111 16.7937C146.98 16.55 146.78 16.3456 146.51 16.1803C146.249 16.0063 145.914 15.9193 145.505 15.9193ZM150.55 19.6517V16.1542H149.388V14.9275H150.55V13.0482H151.959V14.9275H153.59V16.1542H151.959V19.3515C151.959 19.6821 152.024 19.9345 152.155 20.1084C152.295 20.2824 152.525 20.3694 152.847 20.3694C153.012 20.3694 153.152 20.3477 153.264 20.3042C153.387 20.2607 153.508 20.1998 153.63 20.1215V21.4918C153.482 21.5527 153.325 21.6005 153.16 21.6353C152.995 21.6702 152.799 21.6875 152.573 21.6875C151.955 21.6875 151.463 21.5091 151.098 21.1525C150.732 20.7871 150.55 20.2868 150.55 19.6517Z" fill="white"/>
<path d="M71.4021 31.6777C71.0607 31.6777 70.7649 31.5582 70.5146 31.3193C70.2757 31.069 70.1562 30.7732 70.1562 30.4319C70.1562 30.0905 70.2757 29.8004 70.5146 29.5615C70.7649 29.3226 71.0607 29.2031 71.4021 29.2031C71.7434 29.2031 72.0335 29.3226 72.2724 29.5615C72.5227 29.8004 72.6479 30.0905 72.6479 30.4319C72.6479 30.7732 72.5227 31.069 72.2724 31.3193C72.0335 31.5582 71.7434 31.6777 71.4021 31.6777ZM70.4805 41.6612V32.9576H72.3236V41.6612H70.4805ZM74.6104 41.6612V32.9576H76.4365V40.057H79.3035V32.9576H81.1296V40.057H83.9966V32.9576H85.8227V41.6612H74.6104ZM89.0512 31.6777C88.7099 31.6777 88.4141 31.5582 88.1638 31.3193C87.9249 31.069 87.8054 30.7732 87.8054 30.4319C87.8054 30.0905 87.9249 29.8004 88.1638 29.5615C88.4141 29.3226 88.7099 29.2031 89.0512 29.2031C89.3926 29.2031 89.6827 29.3226 89.9216 29.5615C90.1719 29.8004 90.297 30.0905 90.297 30.4319C90.297 30.7732 90.1719 31.069 89.9216 31.3193C89.6827 31.5582 89.3926 31.6777 89.0512 31.6777ZM88.1297 41.6612V32.9576H89.9728V41.6612H88.1297ZM92.2596 41.6612V32.9576H94.1027V36.4561H98.2327V32.9576H100.076V41.6612H98.2327V38.0603H94.1027V41.6612H92.2596ZM106.119 41.9342C105.266 41.9342 104.503 41.7352 103.832 41.3369C103.161 40.9387 102.632 40.3926 102.245 39.6986C101.87 39.0046 101.682 38.2139 101.682 37.3265C101.682 36.496 101.864 35.728 102.228 35.0226C102.591 34.3172 103.098 33.754 103.747 33.3331C104.406 32.9007 105.163 32.6846 106.017 32.6846C106.915 32.6846 107.677 32.878 108.303 33.2648C108.94 33.6516 109.424 34.1806 109.754 34.8519C110.083 35.5232 110.249 36.2797 110.249 37.1217C110.249 37.2469 110.243 37.3606 110.232 37.463C110.232 37.5654 110.226 37.645 110.215 37.7019H103.491C103.581 38.5665 103.883 39.215 104.395 39.6474C104.918 40.0798 105.51 40.2959 106.17 40.2959C106.761 40.2959 107.25 40.1651 107.638 39.9034C108.024 39.6304 108.332 39.2948 108.559 38.8965L110.078 39.6304C109.703 40.313 109.191 40.8704 108.542 41.3028C107.894 41.7237 107.086 41.9342 106.119 41.9342ZM106.034 34.2546C105.419 34.2546 104.895 34.4423 104.464 34.8178C104.031 35.1932 103.741 35.6939 103.593 36.3196H108.423C108.4 36.0237 108.303 35.7166 108.133 35.398C107.962 35.0795 107.7 34.8121 107.348 34.5959C107.006 34.3684 106.568 34.2546 106.034 34.2546ZM115.942 41.6612V32.9576H117.785V36.8145H117.887L121.301 32.9576H123.417V33.06L119.782 37.0363L123.553 41.5588V41.6612H121.369L117.887 37.3777H117.785V41.6612H115.942ZM122.12 44.2552V41.6612H121.539V40.0058H123.826V44.2552H122.12ZM128.987 41.9342C128.089 41.9342 127.298 41.7295 126.615 41.3199C125.932 40.9103 125.397 40.3585 125.011 39.6645C124.624 38.9705 124.431 38.1855 124.431 37.3094C124.431 36.4448 124.624 35.6654 125.011 34.9714C125.397 34.266 125.932 33.7085 126.615 33.2989C127.298 32.8893 128.089 32.6846 128.987 32.6846C129.875 32.6846 130.66 32.8893 131.342 33.2989C132.025 33.7085 132.56 34.266 132.946 34.9714C133.333 35.6654 133.527 36.4448 133.527 37.3094C133.527 38.1855 133.333 38.9705 132.946 39.6645C132.56 40.3585 132.025 40.9103 131.342 41.3199C130.66 41.7295 129.875 41.9342 128.987 41.9342ZM128.987 40.2447C129.465 40.2447 129.909 40.131 130.318 39.9034C130.728 39.6645 131.058 39.3289 131.308 38.8965C131.57 38.4528 131.701 37.9238 131.701 37.3094C131.701 36.695 131.57 36.1717 131.308 35.7393C131.058 35.2956 130.728 34.96 130.318 34.7325C129.909 34.4935 129.465 34.3741 128.987 34.3741C128.509 34.3741 128.06 34.4935 127.639 34.7325C127.229 34.96 126.894 35.2956 126.632 35.7393C126.382 36.1717 126.257 36.695 126.257 37.3094C126.257 37.9238 126.382 38.4528 126.632 38.8965C126.894 39.3289 127.229 39.6645 127.639 39.9034C128.06 40.131 128.509 40.2447 128.987 40.2447ZM139.252 41.9342C138.375 41.9342 137.602 41.7352 136.931 41.3369C136.259 40.9387 135.73 40.3926 135.344 39.6986C134.957 38.9932 134.764 38.1968 134.764 37.3094C134.764 36.422 134.957 35.6312 135.344 34.9372C135.73 34.2318 136.259 33.6801 136.931 33.2819C137.602 32.8836 138.375 32.6846 139.252 32.6846C140.219 32.6846 141.033 32.9007 141.692 33.3331C142.364 33.7654 142.842 34.3513 143.126 35.0908L141.453 35.7735C141.055 34.8406 140.31 34.3741 139.218 34.3741C138.74 34.3741 138.302 34.4993 137.904 34.7495C137.505 34.9884 137.187 35.3298 136.948 35.7735C136.709 36.2058 136.59 36.7178 136.59 37.3094C136.59 37.901 136.709 38.4187 136.948 38.8624C137.187 39.3061 137.505 39.6474 137.904 39.8863C138.302 40.1253 138.74 40.2447 139.218 40.2447C139.775 40.2447 140.248 40.1195 140.634 39.8693C141.021 39.6076 141.323 39.2549 141.539 38.8112L143.177 39.528C142.87 40.2219 142.381 40.7966 141.709 41.2516C141.038 41.7067 140.219 41.9342 139.252 41.9342ZM147.727 44.9208C147.692 45.0118 147.652 45.0971 147.607 45.1767C147.573 45.2564 147.55 45.3133 147.539 45.3474H145.576C145.633 45.2222 145.713 45.0402 145.815 44.8013C145.929 44.5737 146.037 44.3519 146.139 44.1357C146.242 43.9196 146.35 43.675 146.464 43.4019C146.589 43.1289 146.714 42.8615 146.839 42.5998L147.488 41.1833L143.853 32.9576H145.9L148.392 38.8965H148.477L150.884 32.9576H152.915L148.409 43.3336C148.284 43.6295 148.147 43.9367 148 44.2552C147.863 44.5852 147.772 44.807 147.727 44.9208Z" fill="white"/>
<path d="M146.062 0.501953H27.6046C12.6351 0.501953 0.5 12.6371 0.5 27.6065C0.5 42.576 12.6351 54.7111 27.6046 54.7111H146.062C161.031 54.7111 173.166 42.576 173.166 27.6065C173.166 12.6371 161.031 0.501953 146.062 0.501953Z" stroke="#747775"/>
</g>
<defs>
<linearGradient id="paint0_linear_568_565" x1="37.4294" y1="34.1765" x2="18.8557" y2="55.9383" gradientUnits="userSpaceOnUse">
<stop stop-color="#4285F4"/>
<stop offset="1" stop-color="#1B74E8"/>
</linearGradient>
<clipPath id="clip0_568_565">
<rect width="173.67" height="55.213" fill="white"/>
</clipPath>
</defs>
</svg>
