<svg width="174" height="23" viewBox="0 0 174 23" fill="none" xmlns="http://www.w3.org/2000/svg">
<g clip-path="url(#clip0_568_646)">
<path d="M162.479 0.223633H11.1889C5.13243 0.223633 0.222656 5.1334 0.222656 11.1899C0.222656 17.2464 5.13243 22.1562 11.1889 22.1562H162.479C168.535 22.1562 173.445 17.2464 173.445 11.1899C173.445 5.1334 168.535 0.223633 162.479 0.223633Z" fill="#1F1F1F"/>
<path d="M22.8265 9.84712H9.39844V7.60911C9.39844 6.39418 10.384 5.37109 11.5543 5.37109H20.6706C21.841 5.37109 22.8265 6.39418 22.8265 7.60911V9.84712Z" fill="#34A853"/>
<path d="M22.8265 11.6616H9.39844V9.42356C9.39844 8.20863 10.384 7.18555 11.5543 7.18555H20.6706C21.841 7.18555 22.8265 8.20863 22.8265 9.42356V11.6616Z" fill="#FBBC04"/>
<path d="M22.8265 13.5385H9.39844V11.3005C9.39844 10.0856 10.384 9.0625 11.5543 9.0625H20.6706C21.841 9.0625 22.8265 10.0856 22.8265 11.3005V13.5385Z" fill="#EA4335"/>
<path d="M9.39844 10.4181L17.9213 12.3892C18.9023 12.6356 20.006 12.3892 20.8031 11.7733L22.8265 10.2949V14.9147C22.8265 16.085 21.8455 17.009 20.6805 17.009H11.5445C10.3795 17.009 9.39844 16.085 9.39844 14.9147V10.4181Z" fill="url(#paint0_linear_568_646)"/>
<path d="M28.9258 14.3231V7.91342H31.128C31.5159 7.91342 31.868 7.99698 32.1843 8.16407C32.5007 8.33116 32.7513 8.56096 32.9363 8.85338C33.1273 9.1458 33.2228 9.48598 33.2228 9.87392C33.2228 10.2619 33.1273 10.605 32.9363 10.9034C32.7513 11.1958 32.5007 11.4256 32.1843 11.5927C31.868 11.7538 31.5159 11.8344 31.128 11.8344H29.9105V14.3231H28.9258ZM31.1548 8.84443H29.9105V10.9034H31.1548C31.3876 10.9034 31.5845 10.8556 31.7457 10.7602C31.9068 10.6587 32.0291 10.5304 32.1127 10.3752C32.2022 10.2141 32.247 10.047 32.247 9.87392C32.247 9.70083 32.2022 9.53674 32.1127 9.38155C32.0291 9.22637 31.9068 9.09809 31.7457 8.99661C31.5845 8.89514 31.3876 8.84443 31.1548 8.84443ZM34.6262 9.08613C34.4472 9.08613 34.292 9.02347 34.1607 8.89814C34.0354 8.76686 33.9727 8.61168 33.9727 8.43263C33.9727 8.25359 34.0354 8.10141 34.1607 7.97608C34.292 7.85075 34.4472 7.78809 34.6262 7.78809C34.8053 7.78809 34.9575 7.85075 35.0828 7.97608C35.2141 8.10141 35.2797 8.25359 35.2797 8.43263C35.2797 8.61168 35.2141 8.76686 35.0828 8.89814C34.9575 9.02347 34.8053 9.08613 34.6262 9.08613ZM34.1428 14.3231V9.75754H35.1096V14.3231H34.1428ZM38.3513 14.4663C37.9037 14.4663 37.5039 14.3619 37.1517 14.153C36.7996 13.9441 36.5221 13.6576 36.3192 13.2936C36.1223 12.9296 36.0238 12.5148 36.0238 12.0493C36.0238 11.6136 36.1193 11.2108 36.3102 10.8407C36.5012 10.4707 36.7668 10.1753 37.107 9.95448C37.4531 9.72768 37.85 9.61431 38.2976 9.61431C38.7691 9.61431 39.169 9.71578 39.4972 9.91868C39.8314 10.1216 40.085 10.3991 40.2581 10.7512C40.4312 11.1033 40.5177 11.5002 40.5177 11.9418C40.5177 12.0075 40.5147 12.0672 40.5088 12.1209C40.5088 12.1746 40.5058 12.2164 40.4998 12.2462H36.9727C37.0205 12.6998 37.1786 13.0399 37.4472 13.2667C37.7217 13.4935 38.032 13.6069 38.3782 13.6069C38.6885 13.6069 38.9452 13.5383 39.1481 13.401C39.3509 13.2578 39.5121 13.0818 39.6315 12.8729L40.4282 13.2578C40.2313 13.6159 39.9627 13.9083 39.6225 14.1351C39.2823 14.3559 38.8586 14.4663 38.3513 14.4663ZM38.3066 10.4379C37.9843 10.4379 37.7098 10.5364 37.483 10.7333C37.2562 10.9303 37.104 11.1929 37.0264 11.5211H39.5598C39.5479 11.3659 39.4972 11.2048 39.4077 11.0377C39.3181 10.8706 39.1809 10.7303 38.9959 10.6169C38.8168 10.4976 38.5871 10.4379 38.3066 10.4379ZM42.7148 14.3231L40.8259 9.75754H41.9002L43.1803 13.0788H43.2251L44.5321 9.75754H45.5883L43.6816 14.3231H42.7148ZM46.769 9.08613C46.59 9.08613 46.4351 9.02347 46.3035 8.89814C46.1782 8.76686 46.1155 8.61168 46.1155 8.43263C46.1155 8.25359 46.1782 8.10141 46.3035 7.97608C46.4351 7.85075 46.59 7.78809 46.769 7.78809C46.9481 7.78809 47.1003 7.85075 47.2256 7.97608C47.3572 8.10141 47.4225 8.25359 47.4225 8.43263C47.4225 8.61168 47.3572 8.76686 47.2256 8.89814C47.1003 9.02347 46.9481 9.08613 46.769 9.08613ZM46.2856 14.3231V9.75754H47.2524V14.3231H46.2856ZM50.4944 14.4663C50.0468 14.4663 49.6467 14.3619 49.2949 14.153C48.9426 13.9441 48.6651 13.6576 48.4623 13.2936C48.2654 12.9296 48.1669 12.5148 48.1669 12.0493C48.1669 11.6136 48.2622 11.2108 48.4534 10.8407C48.644 10.4707 48.9099 10.1753 49.2501 9.95448C49.5961 9.72768 49.9931 9.61431 50.4407 9.61431C50.912 9.61431 51.3118 9.71578 51.6403 9.91868C51.9742 10.1216 52.228 10.3991 52.4012 10.7512C52.574 11.1033 52.6608 11.5002 52.6608 11.9418C52.6608 12.0075 52.6577 12.0672 52.6519 12.1209C52.6519 12.1746 52.6487 12.2164 52.6429 12.2462H49.1158C49.1633 12.6998 49.3217 13.0399 49.5903 13.2667C49.8647 13.4935 50.1748 13.6069 50.5213 13.6069C50.8315 13.6069 51.088 13.5383 51.2912 13.401C51.4939 13.2578 51.6551 13.0818 51.7746 12.8729L52.5713 13.2578C52.3744 13.6159 52.1058 13.9083 51.7656 14.1351C51.4254 14.3559 51.0016 14.4663 50.4944 14.4663ZM50.4497 10.4379C50.1274 10.4379 49.8526 10.5364 49.6261 10.7333C49.3991 10.9303 49.247 11.1929 49.1695 11.5211H51.703C51.6909 11.3659 51.6403 11.2048 51.5508 11.0377C51.4613 10.8706 51.3238 10.7303 51.139 10.6169C50.9599 10.4976 50.7299 10.4379 50.4497 10.4379ZM53.5578 14.3231V9.75754H54.4709V10.3842H54.5246C54.6558 10.1634 54.8496 9.98134 55.1065 9.83811C55.3688 9.68892 55.6553 9.61431 55.9659 9.61431C56.5268 9.61431 56.9475 9.7814 57.2282 10.1156C57.5084 10.4498 57.6489 10.8915 57.6489 11.4405V14.3231H56.691V11.5659C56.691 11.1958 56.5984 10.9273 56.4135 10.7602C56.2282 10.5871 55.9865 10.5006 55.6884 10.5006C55.4557 10.5006 55.2525 10.5662 55.0797 10.6975C54.9065 10.8228 54.769 10.9899 54.6679 11.1988C54.5721 11.4077 54.5246 11.6315 54.5246 11.8702V14.3231H53.5578ZM60.899 14.4663C60.4276 14.4663 60.0127 14.3589 59.6546 14.144C59.2965 13.9292 59.0163 13.6397 58.8131 13.2757C58.6104 12.9117 58.5088 12.4999 58.5088 12.0403C58.5088 11.5868 58.6104 11.1779 58.8131 10.8139C59.0163 10.4438 59.2965 10.1514 59.6546 9.93658C60.0127 9.72173 60.4276 9.61431 60.899 9.61431C61.3645 9.61431 61.7763 9.72173 62.1343 9.93658C62.4924 10.1514 62.7731 10.4438 62.9758 10.8139C63.1791 11.1779 63.2802 11.5868 63.2802 12.0403C63.2802 12.4999 63.1791 12.9117 62.9758 13.2757C62.7731 13.6397 62.4924 13.9292 62.1343 14.144C61.7763 14.3589 61.3645 14.4663 60.899 14.4663ZM60.899 13.5801C61.1496 13.5801 61.3824 13.5204 61.5972 13.401C61.8121 13.2757 61.9853 13.0997 62.1164 12.8729C62.2539 12.6401 62.3223 12.3626 62.3223 12.0403C62.3223 11.718 62.2539 11.4435 62.1164 11.2167C61.9853 10.984 61.8121 10.8079 61.5972 10.6886C61.3824 10.5632 61.1496 10.5006 60.899 10.5006C60.6483 10.5006 60.4129 10.5632 60.1918 10.6886C59.9769 10.8079 59.801 10.984 59.6636 11.2167C59.5324 11.4435 59.4666 11.718 59.4666 12.0403C59.4666 12.3626 59.5324 12.6401 59.6636 12.8729C59.801 13.0997 59.9769 13.2757 60.1918 13.401C60.4129 13.5204 60.6483 13.5801 60.899 13.5801ZM64.5232 12.9982V10.599H63.7265V9.75754H64.5232V8.46844H65.49V9.75754H66.609V10.599H65.49V12.7923C65.49 13.0191 65.5348 13.1921 65.6243 13.3115C65.7196 13.4309 65.8777 13.4905 66.0988 13.4905C66.212 13.4905 66.3074 13.4756 66.3852 13.4458C66.4685 13.4159 66.5522 13.3742 66.6359 13.3205V14.2604C66.5343 14.3022 66.4269 14.335 66.3136 14.3589C66.1999 14.3828 66.0656 14.3947 65.9108 14.3947C65.4869 14.3947 65.1499 14.2724 64.8992 14.0277C64.6485 13.777 64.5232 13.4338 64.5232 12.9982ZM69.6348 14.3231V7.91342H70.6017V14.3231H69.6348ZM72.2967 9.08613C72.1177 9.08613 71.9624 9.02347 71.8312 8.89814C71.7059 8.76686 71.6432 8.61168 71.6432 8.43263C71.6432 8.25359 71.7059 8.10141 71.8312 7.97608C71.9624 7.85075 72.1177 7.78809 72.2967 7.78809C72.4758 7.78809 72.628 7.85075 72.7533 7.97608C72.8844 8.10141 72.9502 8.25359 72.9502 8.43263C72.9502 8.61168 72.8844 8.76686 72.7533 8.89814C72.628 9.02347 72.4758 9.08613 72.2967 9.08613ZM71.8133 14.3231V9.75754H72.7801V14.3231H71.8133ZM76.0217 14.4663C75.5741 14.4663 75.1744 14.3619 74.8221 14.153C74.4698 13.9441 74.1923 13.6576 73.9896 13.2936C73.7926 12.9296 73.6941 12.5148 73.6941 12.0493C73.6941 11.6136 73.7895 11.2108 73.9806 10.8407C74.1717 10.4707 74.4372 10.1753 74.7773 9.95448C75.1233 9.72768 75.5204 9.61431 75.968 9.61431C76.4393 9.61431 76.8395 9.71578 77.1675 9.91868C77.5019 10.1216 77.7553 10.3991 77.9285 10.7512C78.1017 11.1033 78.1881 11.5002 78.1881 11.9418C78.1881 12.0075 78.185 12.0672 78.1791 12.1209C78.1791 12.1746 78.176 12.2164 78.1702 12.2462H74.6431C74.691 12.6998 74.849 13.0399 75.1175 13.2667C75.3919 13.4935 75.7025 13.6069 76.0485 13.6069C76.3587 13.6069 76.6157 13.5383 76.8184 13.401C77.0212 13.2578 77.1823 13.0818 77.3018 12.8729L78.0986 13.2578C77.9016 13.6159 77.6331 13.9083 77.2929 14.1351C76.9527 14.3559 76.5288 14.4663 76.0217 14.4663ZM75.9769 10.4379C75.6547 10.4379 75.3803 10.5364 75.1533 10.7333C74.9264 10.9303 74.7742 11.1929 74.6968 11.5211H77.2302C77.2181 11.3659 77.1675 11.2048 77.078 11.0377C76.9885 10.8706 76.8511 10.7303 76.6662 10.6169C76.4872 10.4976 76.2576 10.4379 75.9769 10.4379ZM79.4373 12.9982V10.599H78.6406V9.75754H79.4373V8.46844H80.4042V9.75754H81.5232V10.599H80.4042V12.7923C80.4042 13.0191 80.4489 13.1921 80.5384 13.3115C80.6338 13.4309 80.7922 13.4905 81.0129 13.4905C81.1261 13.4905 81.2219 13.4756 81.2994 13.4458C81.3831 13.4159 81.4663 13.3742 81.55 13.3205V14.2604C81.4484 14.3022 81.341 14.335 81.2278 14.3589C81.1145 14.3828 80.9802 14.3947 80.8249 14.3947C80.401 14.3947 80.064 14.2724 79.8133 14.0277C79.5627 13.777 79.4373 13.4338 79.4373 12.9982ZM84.4245 14.4663C83.9528 14.4663 83.5383 14.3589 83.1802 14.144C82.8221 13.9292 82.5415 13.6397 82.3387 13.2757C82.1355 12.9117 82.0343 12.4999 82.0343 12.0403C82.0343 11.5868 82.1355 11.1779 82.3387 10.8139C82.5415 10.4438 82.8221 10.1514 83.1802 9.93658C83.5383 9.72173 83.9528 9.61431 84.4245 9.61431C84.89 9.61431 85.3018 9.72173 85.6599 9.93658C86.018 10.1514 86.2982 10.4438 86.5014 10.8139C86.7042 11.1779 86.8058 11.5868 86.8058 12.0403C86.8058 12.4999 86.7042 12.9117 86.5014 13.2757C86.2982 13.6397 86.018 13.9292 85.6599 14.144C85.3018 14.3589 84.89 14.4663 84.4245 14.4663ZM84.4245 13.5801C84.6752 13.5801 84.908 13.5204 85.1228 13.401C85.3376 13.2757 85.5104 13.0997 85.642 12.8729C85.779 12.6401 85.8479 12.3626 85.8479 12.0403C85.8479 11.718 85.779 11.4435 85.642 11.2167C85.5104 10.984 85.3376 10.8079 85.1228 10.6886C84.908 10.5632 84.6752 10.5006 84.4245 10.5006C84.1739 10.5006 83.938 10.5632 83.7173 10.6886C83.5025 10.8079 83.3261 10.984 83.1892 11.2167C83.0576 11.4435 82.9922 11.718 82.9922 12.0403C82.9922 12.3626 83.0576 12.6401 83.1892 12.8729C83.3261 13.0997 83.5025 13.2757 83.7173 13.401C83.938 13.5204 84.1739 13.5801 84.4245 13.5801ZM88.0483 12.9982V10.599H87.2516V9.75754H88.0483V8.46844H89.0152V9.75754H90.1342V10.599H89.0152V12.7923C89.0152 13.0191 89.0599 13.1921 89.1494 13.3115C89.2452 13.4309 89.4032 13.4905 89.6239 13.4905C89.7376 13.4905 89.8329 13.4756 89.9104 13.4458C89.9941 13.4159 90.0778 13.3742 90.161 13.3205V14.2604C90.0599 14.3022 89.9524 14.335 89.8387 14.3589C89.7255 14.3828 89.5912 14.3947 89.4359 14.3947C89.0125 14.3947 88.675 14.2724 88.4243 14.0277C88.1737 13.777 88.0483 13.4338 88.0483 12.9982ZM91.1055 14.3231V9.75754H92.0186V10.3842H92.0723C92.2039 10.1634 92.3977 9.98134 92.6542 9.83811C92.9169 9.68892 93.2034 9.61431 93.5136 9.61431C94.0749 9.61431 94.4956 9.7814 94.7758 10.1156C95.0565 10.4498 95.1966 10.8915 95.1966 11.4405V14.3231H94.2387V11.5659C94.2387 11.1958 94.1465 10.9273 93.9612 10.7602C93.7763 10.5871 93.5346 10.5006 93.2361 10.5006C93.0033 10.5006 92.8005 10.5662 92.6273 10.6975C92.4545 10.8228 92.3171 10.9899 92.2155 11.1988C92.1202 11.4077 92.0723 11.6315 92.0723 11.8702V14.3231H91.1055ZM98.3844 14.4663C97.9368 14.4663 97.5371 14.3619 97.1848 14.153C96.8325 13.9441 96.555 13.6576 96.3523 13.2936C96.1553 12.9296 96.0568 12.5148 96.0568 12.0493C96.0568 11.6136 96.1522 11.2108 96.3433 10.8407C96.5344 10.4707 96.7999 10.1753 97.14 9.95448C97.486 9.72768 97.8831 9.61431 98.3307 9.61431C98.802 9.61431 99.2021 9.71578 99.5302 9.91868C99.8646 10.1216 100.118 10.3991 100.291 10.7512C100.464 11.1033 100.551 11.5002 100.551 11.9418C100.551 12.0075 100.548 12.0672 100.542 12.1209C100.542 12.1746 100.539 12.2164 100.533 12.2462H97.0058C97.0537 12.6998 97.2117 13.0399 97.4802 13.2667C97.7546 13.4935 98.0652 13.6069 98.4112 13.6069C98.7214 13.6069 98.9783 13.5383 99.1811 13.401C99.3839 13.2578 99.545 13.0818 99.6645 12.8729L100.461 13.2578C100.264 13.6159 99.9958 13.9083 99.6556 14.1351C99.3154 14.3559 98.8915 14.4663 98.3844 14.4663ZM98.3396 10.4379C98.0174 10.4379 97.743 10.5364 97.516 10.7333C97.2891 10.9303 97.1369 11.1929 97.0595 11.5211H99.5929C99.5808 11.3659 99.5302 11.2048 99.4407 11.0377C99.3512 10.8706 99.2138 10.7303 99.0289 10.6169C98.8499 10.4976 98.6203 10.4379 98.3396 10.4379ZM102.003 9.08613C101.824 9.08613 101.668 9.02347 101.537 8.89814C101.412 8.76686 101.349 8.61168 101.349 8.43263C101.349 8.25359 101.412 8.10141 101.537 7.97608C101.668 7.85075 101.824 7.78809 102.003 7.78809C102.182 7.78809 102.334 7.85075 102.459 7.97608C102.591 8.10141 102.656 8.25359 102.656 8.43263C102.656 8.61168 102.591 8.76686 102.459 8.89814C102.334 9.02347 102.182 9.08613 102.003 9.08613ZM101.519 14.3231V9.75754H102.486V14.3231H101.519Z" fill="white"/>
<path d="M109.396 14.4666C108.936 14.4666 108.504 14.3831 108.098 14.216C107.698 14.0489 107.343 13.8161 107.033 13.5177C106.723 13.2134 106.478 12.8583 106.299 12.4524C106.125 12.0406 106.039 11.596 106.039 11.1186C106.039 10.6411 106.125 10.1995 106.299 9.79367C106.478 9.38188 106.719 9.0268 107.024 8.72838C107.334 8.42401 107.692 8.18826 108.098 8.02117C108.504 7.85408 108.936 7.77051 109.396 7.77051C109.885 7.77051 110.336 7.85703 110.748 8.03012C111.165 8.20321 111.515 8.44491 111.795 8.75523L111.115 9.42664C110.906 9.19389 110.655 9.01484 110.363 8.88952C110.076 8.76419 109.754 8.70152 109.396 8.70152C108.972 8.70152 108.581 8.80299 108.223 9.00589C107.865 9.20284 107.576 9.48335 107.355 9.84739C107.14 10.2055 107.033 10.6292 107.033 11.1186C107.033 11.6079 107.143 12.0347 107.364 12.3987C107.585 12.7568 107.874 13.0373 108.232 13.2402C108.59 13.4372 108.981 13.5356 109.405 13.5356C109.793 13.5356 110.145 13.464 110.461 13.3208C110.778 13.1716 111.031 12.9627 111.222 12.6941C111.419 12.4256 111.539 12.1033 111.58 11.7273H109.387V10.859H112.502C112.538 11.0201 112.556 11.1902 112.556 11.3692V11.3782C112.556 11.9989 112.419 12.542 112.144 13.0075C111.876 13.467 111.503 13.8251 111.025 14.0817C110.548 14.3383 110.005 14.4666 109.396 14.4666ZM115.439 14.4666C114.967 14.4666 114.552 14.3592 114.194 14.1444C113.836 13.9295 113.556 13.6401 113.353 13.276C113.15 12.912 113.049 12.5002 113.049 12.0406C113.049 11.5871 113.15 11.1782 113.353 10.8142C113.556 10.4442 113.836 10.1518 114.194 9.93691C114.552 9.72206 114.967 9.61463 115.439 9.61463C115.904 9.61463 116.316 9.72206 116.674 9.93691C117.032 10.1518 117.313 10.4442 117.516 10.8142C117.718 11.1782 117.82 11.5871 117.82 12.0406C117.82 12.5002 117.718 12.912 117.516 13.276C117.313 13.6401 117.032 13.9295 116.674 14.1444C116.316 14.3592 115.904 14.4666 115.439 14.4666ZM115.439 13.5804C115.689 13.5804 115.922 13.5207 116.137 13.4014C116.352 13.276 116.525 13.1 116.656 12.8732C116.794 12.6404 116.862 12.3629 116.862 12.0406C116.862 11.7184 116.794 11.4439 116.656 11.2171C116.525 10.9843 116.352 10.8083 116.137 10.6889C115.922 10.5636 115.689 10.5009 115.439 10.5009C115.188 10.5009 114.952 10.5636 114.732 10.6889C114.517 10.8083 114.341 10.9843 114.203 11.2171C114.072 11.4439 114.006 11.7184 114.006 12.0406C114.006 12.3629 114.072 12.6404 114.203 12.8732C114.341 13.1 114.517 13.276 114.732 13.4014C114.952 13.5207 115.188 13.5804 115.439 13.5804ZM120.859 14.4666C120.387 14.4666 119.973 14.3592 119.614 14.1444C119.256 13.9295 118.976 13.6401 118.773 13.276C118.57 12.912 118.469 12.5002 118.469 12.0406C118.469 11.5871 118.57 11.1782 118.773 10.8142C118.976 10.4442 119.256 10.1518 119.614 9.93691C119.973 9.72206 120.387 9.61463 120.859 9.61463C121.324 9.61463 121.736 9.72206 122.094 9.93691C122.452 10.1518 122.733 10.4442 122.936 10.8142C123.139 11.1782 123.24 11.5871 123.24 12.0406C123.24 12.5002 123.139 12.912 122.936 13.276C122.733 13.6401 122.452 13.9295 122.094 14.1444C121.736 14.3592 121.324 14.4666 120.859 14.4666ZM120.859 13.5804C121.109 13.5804 121.342 13.5207 121.557 13.4014C121.772 13.276 121.945 13.1 122.076 12.8732C122.214 12.6404 122.282 12.3629 122.282 12.0406C122.282 11.7184 122.214 11.4439 122.076 11.2171C121.945 10.9843 121.772 10.8083 121.557 10.6889C121.342 10.5636 121.109 10.5009 120.859 10.5009C120.608 10.5009 120.373 10.5636 120.152 10.6889C119.937 10.8083 119.761 10.9843 119.623 11.2171C119.492 11.4439 119.426 11.7184 119.426 12.0406C119.426 12.3629 119.492 12.6404 119.623 12.8732C119.761 13.1 119.937 13.276 120.152 13.4014C120.373 13.5207 120.608 13.5804 120.859 13.5804ZM126.19 16.4003C125.79 16.4003 125.444 16.3346 125.151 16.2033C124.865 16.078 124.632 15.9139 124.453 15.711C124.274 15.514 124.145 15.3111 124.068 15.1022L124.963 14.7263C125.059 14.965 125.211 15.159 125.42 15.3081C125.635 15.4633 125.891 15.5409 126.19 15.5409C126.607 15.5409 126.935 15.4156 127.174 15.1649C127.419 14.9143 127.541 14.5592 127.541 14.0996V13.661H127.488C127.345 13.8758 127.144 14.0489 126.888 14.1802C126.637 14.3055 126.351 14.3682 126.029 14.3682C125.64 14.3682 125.286 14.2697 124.963 14.0728C124.641 13.8758 124.381 13.6013 124.184 13.2492C123.988 12.8911 123.889 12.4733 123.889 11.9959C123.889 11.5125 123.988 11.0947 124.184 10.7426C124.381 10.3845 124.641 10.107 124.963 9.91005C125.286 9.7131 125.64 9.61463 126.029 9.61463C126.351 9.61463 126.637 9.6803 126.888 9.81158C127.144 9.94286 127.345 10.1159 127.488 10.3308H127.541V9.75786H128.464V14.0817C128.464 14.5771 128.365 14.9978 128.168 15.344C127.977 15.6901 127.712 15.9527 127.371 16.1317C127.031 16.3108 126.637 16.4003 126.19 16.4003ZM126.199 13.4909C126.437 13.4909 126.658 13.4342 126.861 13.3208C127.064 13.2014 127.228 13.0313 127.353 12.8105C127.479 12.5837 127.541 12.3122 127.541 11.9959C127.541 11.6677 127.479 11.3931 127.353 11.1723C127.228 10.9455 127.064 10.7754 126.861 10.662C126.658 10.5486 126.437 10.4919 126.199 10.4919C125.96 10.4919 125.736 10.5516 125.527 10.671C125.324 10.7844 125.16 10.9515 125.035 11.1723C124.91 11.3931 124.847 11.6677 124.847 11.9959C124.847 12.3182 124.91 12.5927 125.035 12.8195C125.16 13.0403 125.324 13.2074 125.527 13.3208C125.736 13.4342 125.96 13.4909 126.199 13.4909ZM129.604 14.3234V7.91374H130.57V14.3234H129.604ZM133.752 14.4666C133.305 14.4666 132.905 14.3622 132.553 14.1533C132.201 13.9444 131.923 13.658 131.72 13.2939C131.523 12.9299 131.425 12.5151 131.425 12.0496C131.425 11.6139 131.52 11.2111 131.711 10.8411C131.902 10.471 132.168 10.1756 132.508 9.95481C132.854 9.72801 133.251 9.61463 133.699 9.61463C134.17 9.61463 134.57 9.7161 134.898 9.919C135.232 10.1219 135.486 10.3994 135.659 10.7515C135.832 11.1037 135.919 11.5005 135.919 11.9422C135.919 12.0078 135.916 12.0675 135.91 12.1212C135.91 12.1749 135.907 12.2167 135.901 12.2465H132.374C132.421 12.7001 132.58 13.0403 132.848 13.2671C133.123 13.4939 133.433 13.6073 133.779 13.6073C134.089 13.6073 134.346 13.5386 134.549 13.4014C134.752 13.2581 134.913 13.0821 135.033 12.8732L135.829 13.2581C135.632 13.6162 135.364 13.9086 135.024 14.1354C134.683 14.3562 134.26 14.4666 133.752 14.4666ZM133.708 10.4382C133.385 10.4382 133.111 10.5367 132.884 10.7336C132.657 10.9306 132.505 11.1932 132.428 11.5214H134.961C134.949 11.3662 134.898 11.2051 134.809 11.038C134.719 10.8709 134.582 10.7306 134.397 10.6173C134.218 10.4979 133.988 10.4382 133.708 10.4382ZM139.854 14.3234L138.135 7.91374H139.227L140.248 12.0764L140.355 12.6315H140.409L140.543 12.0764L141.832 7.91374H142.817L144.052 12.0764L144.186 12.6225H144.24L144.348 12.0764L145.368 7.91374H146.451L144.759 14.3234H143.721L142.495 10.0712L142.351 9.4714H142.298L142.145 10.0712L140.865 14.3234H139.854ZM148.249 14.4666C147.921 14.4666 147.629 14.404 147.372 14.2787C147.115 14.1474 146.915 13.9653 146.772 13.7326C146.629 13.4998 146.557 13.2343 146.557 12.9358C146.557 12.6136 146.641 12.3391 146.808 12.1123C146.981 11.8795 147.21 11.7035 147.497 11.5841C147.783 11.4647 148.1 11.405 148.446 11.405C148.732 11.405 148.983 11.4319 149.198 11.4856C149.419 11.5393 149.586 11.596 149.699 11.6557V11.414C149.699 11.1156 149.592 10.8769 149.377 10.6978C149.162 10.5188 148.885 10.4293 148.544 10.4293C148.312 10.4293 148.091 10.483 147.882 10.5904C147.673 10.6919 147.506 10.8321 147.381 11.0112L146.718 10.5009C146.915 10.2264 147.175 10.0115 147.497 9.85634C147.826 9.6952 148.184 9.61463 148.571 9.61463C149.234 9.61463 149.744 9.77877 150.102 10.107C150.46 10.4293 150.639 10.8828 150.639 11.4677V14.3234H149.699V13.7594H149.645C149.526 13.9444 149.347 14.1086 149.108 14.2518C148.87 14.395 148.583 14.4666 148.249 14.4666ZM148.419 13.6789C148.67 13.6789 148.891 13.6192 149.081 13.4998C149.273 13.3805 149.422 13.2253 149.529 13.0343C149.643 12.8374 149.699 12.6255 149.699 12.3987C149.562 12.3212 149.401 12.2585 149.216 12.2107C149.031 12.157 148.834 12.1302 148.625 12.1302C148.231 12.1302 147.951 12.2107 147.783 12.3719C147.616 12.5271 147.533 12.718 147.533 12.9448C147.533 13.1596 147.613 13.3357 147.774 13.473C147.936 13.6103 148.15 13.6789 148.419 13.6789ZM151.712 14.3234V7.91374H152.679V14.3234H151.712ZM153.828 14.3234V7.91374H154.795V14.3234H153.828ZM157.977 14.4666C157.53 14.4666 157.129 14.3622 156.778 14.1533C156.425 13.9444 156.148 13.658 155.945 13.2939C155.748 12.9299 155.65 12.5151 155.65 12.0496C155.65 11.6139 155.745 11.2111 155.936 10.8411C156.127 10.471 156.393 10.1756 156.733 9.95481C157.079 9.72801 157.476 9.61463 157.923 9.61463C158.395 9.61463 158.794 9.7161 159.123 9.919C159.457 10.1219 159.711 10.3994 159.884 10.7515C160.057 11.1037 160.144 11.5005 160.144 11.9422C160.144 12.0078 160.14 12.0675 160.135 12.1212C160.135 12.1749 160.131 12.2167 160.126 12.2465H156.599C156.646 12.7001 156.804 13.0403 157.073 13.2671C157.347 13.4939 157.658 13.6073 158.004 13.6073C158.314 13.6073 158.571 13.5386 158.774 13.4014C158.977 13.2581 159.138 13.0821 159.257 12.8732L160.054 13.2581C159.857 13.6162 159.589 13.9086 159.248 14.1354C158.908 14.3562 158.484 14.4666 157.977 14.4666ZM157.932 10.4382C157.61 10.4382 157.335 10.5367 157.109 10.7336C156.882 10.9306 156.73 11.1932 156.652 11.5214H159.186C159.174 11.3662 159.123 11.2051 159.033 11.038C158.944 10.8709 158.807 10.7306 158.622 10.6173C158.443 10.4979 158.213 10.4382 157.932 10.4382ZM161.393 12.9985V10.5994H160.596V9.75786H161.393V8.46877H162.36V9.75786H163.479V10.5994H162.36V12.7926C162.36 13.0194 162.404 13.1925 162.494 13.3118C162.589 13.4312 162.747 13.4909 162.968 13.4909C163.082 13.4909 163.177 13.476 163.255 13.4461C163.338 13.4163 163.422 13.3745 163.505 13.3208V14.2608C163.404 14.3025 163.296 14.3354 163.183 14.3592C163.07 14.3831 162.935 14.395 162.78 14.395C162.356 14.395 162.019 14.2727 161.769 14.028C161.518 13.7773 161.393 13.4342 161.393 12.9985Z" fill="white"/>
<path d="M162.479 0.223633H11.1889C5.13243 0.223633 0.222656 5.1334 0.222656 11.1899C0.222656 17.2464 5.13243 22.1562 11.1889 22.1562H162.479C168.535 22.1562 173.445 17.2464 173.445 11.1899C173.445 5.1334 168.535 0.223633 162.479 0.223633Z" stroke="#747775"/>
</g>
<defs>
<linearGradient id="paint0_linear_568_646" x1="15.4725" y1="13.7801" x2="8.38278" y2="21.8938" gradientUnits="userSpaceOnUse">
<stop stop-color="#4285F4"/>
<stop offset="1" stop-color="#1B74E8"/>
</linearGradient>
<clipPath id="clip0_568_646">
<rect width="173.67" height="22.3802" fill="white"/>
</clipPath>
</defs>
</svg>
