<svg width="174" height="48" viewBox="0 0 174 48" fill="none" xmlns="http://www.w3.org/2000/svg">
<g clip-path="url(#clip0_568_816)">
<path d="M149.672 0.436523H24.0008C10.9871 0.436523 0.4375 10.9862 0.4375 23.9998C0.4375 37.0134 10.9871 47.563 24.0008 47.563H149.672C162.685 47.563 173.235 37.0134 173.235 23.9998C173.235 10.9862 162.685 0.436523 149.672 0.436523Z" fill="#1F1F1F"/>
<path d="M49.7458 20.7629H18.3281V15.8361C18.3281 13.1615 20.634 10.9092 23.3722 10.9092H44.7017C47.4399 10.9092 49.7458 13.1615 49.7458 15.8361V20.7629Z" fill="#34A853"/>
<path d="M49.7458 25.3085H18.3281V20.0722C18.3281 17.2297 20.634 14.8359 23.3722 14.8359H44.7017C47.4399 14.8359 49.7458 17.2297 49.7458 20.0722V25.3085Z" fill="#FBBC04"/>
<path d="M49.7458 29.6718H18.3281V24.4355C18.3281 21.593 20.634 19.1992 23.3722 19.1992H44.7017C47.4399 19.1992 49.7458 21.593 49.7458 24.4355V29.6718Z" fill="#EA4335"/>
<path d="M18.3281 22.0276L38.269 26.5322C40.5644 27.0953 43.1467 26.5322 45.0116 25.1245L49.7458 21.7461V32.3037C49.7458 34.9783 47.4505 37.0898 44.7247 37.0898H23.3492C20.6234 37.0898 18.3281 34.9783 18.3281 32.3037V22.0276Z" fill="url(#paint0_linear_568_816)"/>
<path d="M61.1367 18.7634V10.6402H62.3847V17.5835H65.879V18.7634H61.1367ZM68.7639 18.945C68.3479 18.945 67.9772 18.8655 67.652 18.7067C67.3268 18.5403 67.0734 18.3096 66.8919 18.0146C66.7104 17.7197 66.6196 17.3831 66.6196 17.0049C66.6196 16.5965 66.7255 16.2485 66.9373 15.9612C67.1566 15.6662 67.4478 15.443 67.8109 15.2918C68.1739 15.1405 68.5748 15.0649 69.0135 15.0649C69.3765 15.0649 69.6942 15.0989 69.9665 15.167C70.2463 15.2351 70.4581 15.3069 70.6018 15.3825V15.0762C70.6018 14.6981 70.4657 14.3955 70.1934 14.1686C69.9211 13.9417 69.5694 13.8282 69.1383 13.8282C68.8433 13.8282 68.5634 13.8963 68.2987 14.0325C68.0339 14.161 67.8222 14.3388 67.6634 14.5657L66.8238 13.919C67.0734 13.5711 67.4025 13.2988 67.8109 13.1021C68.2268 12.8979 68.6806 12.7958 69.1723 12.7958C70.0119 12.7958 70.6585 13.0038 71.1124 13.4198C71.5662 13.8282 71.7931 14.4031 71.7931 15.1443V18.7634H70.6018V18.0487H70.5338C70.3824 18.2832 70.1555 18.4912 69.853 18.6727C69.5505 18.8542 69.1874 18.945 68.7639 18.945ZM68.9794 17.9466C69.2971 17.9466 69.5769 17.8709 69.819 17.7197C70.061 17.5684 70.2501 17.3717 70.3863 17.1297C70.5299 16.8801 70.6018 16.6116 70.6018 16.3242C70.4278 16.2258 70.2236 16.1464 69.9892 16.086C69.7547 16.0179 69.5051 15.9838 69.2404 15.9838C68.7412 15.9838 68.3857 16.086 68.1739 16.2902C67.9621 16.4868 67.8563 16.7289 67.8563 17.0163C67.8563 17.2886 67.9584 17.5117 68.1626 17.6856C68.3668 17.8596 68.6391 17.9466 68.9794 17.9466ZM70.2274 11.7974C70.0383 11.7974 69.8719 11.7294 69.7282 11.5932C69.5921 11.4495 69.524 11.2793 69.524 11.0827C69.524 10.8861 69.5921 10.7234 69.7282 10.5948C69.8719 10.4587 70.0383 10.3906 70.2274 10.3906C70.4316 10.3906 70.6018 10.4587 70.738 10.5948C70.8741 10.7234 70.9422 10.8861 70.9422 11.0827C70.9422 11.2793 70.8741 11.4495 70.738 11.5932C70.6018 11.7294 70.4316 11.7974 70.2274 11.7974ZM68.2193 11.7974C68.0302 11.7974 67.8638 11.7294 67.7201 11.5932C67.584 11.4495 67.5159 11.2793 67.5159 11.0827C67.5159 10.8861 67.584 10.7234 67.7201 10.5948C67.8638 10.4587 68.0302 10.3906 68.2193 10.3906C68.4235 10.3906 68.5899 10.4587 68.7185 10.5948C68.8546 10.7234 68.9227 10.8861 68.9227 11.0827C68.9227 11.2793 68.8546 11.4495 68.7185 11.5932C68.5899 11.7294 68.4235 11.7974 68.2193 11.7974ZM75.696 21.3955C75.1892 21.3955 74.7505 21.3124 74.38 21.1459C74.0169 20.9871 73.7219 20.7791 73.495 20.522C73.2681 20.2724 73.1055 20.0152 73.0072 19.7505L74.1417 19.274C74.2627 19.5765 74.4555 19.8223 74.7203 20.0114C74.9926 20.208 75.3178 20.3064 75.696 20.3064C76.2254 20.3064 76.6414 20.1476 76.944 19.8299C77.2541 19.5122 77.4092 19.0622 77.4092 18.4798V17.9239H77.3411C77.1596 18.1962 76.9061 18.4155 76.581 18.5819C76.2633 18.7407 75.9002 18.8202 75.4918 18.8202C75.0001 18.8202 74.5502 18.6954 74.1417 18.4458C73.7333 18.1962 73.4043 17.8482 73.1547 17.402C72.9051 16.9482 72.7803 16.4187 72.7803 15.8137C72.7803 15.201 72.9051 14.6715 73.1547 14.2253C73.4043 13.7715 73.7333 13.4198 74.1417 13.1702C74.5502 12.9206 75.0001 12.7958 75.4918 12.7958C75.9002 12.7958 76.2633 12.879 76.581 13.0454C76.9061 13.2118 77.1596 13.4312 77.3411 13.7034H77.4092V12.9773H78.5777V18.4571C78.5777 19.0849 78.4529 19.6181 78.2033 20.0568C77.9612 20.4955 77.6247 20.8283 77.1936 21.0552C76.7625 21.2821 76.2633 21.3955 75.696 21.3955ZM75.7074 17.7083C76.0099 17.7083 76.2897 17.6365 76.5469 17.4928C76.804 17.3415 77.0121 17.126 77.1709 16.8461C77.3297 16.5587 77.4092 16.2145 77.4092 15.8137C77.4092 15.3976 77.3297 15.0498 77.1709 14.7699C77.0121 14.4825 76.804 14.267 76.5469 14.1232C76.2897 13.9795 76.0099 13.9077 75.7074 13.9077C75.4048 13.9077 75.1212 13.9833 74.8565 14.1346C74.5993 14.2783 74.3913 14.49 74.2325 14.7699C74.0736 15.0498 73.9942 15.3976 73.9942 15.8137C73.9942 16.2221 74.0736 16.57 74.2325 16.8574C74.3913 17.1373 74.5993 17.349 74.8565 17.4928C75.1212 17.6365 75.4048 17.7083 75.7074 17.7083ZM82.5652 21.3955C82.0585 21.3955 81.6197 21.3124 81.2492 21.1459C80.8861 20.9871 80.5912 20.7791 80.3643 20.522C80.1373 20.2724 79.9747 20.0152 79.8764 19.7505L81.0109 19.274C81.1319 19.5765 81.3248 19.8223 81.5895 20.0114C81.8618 20.208 82.187 20.3064 82.5652 20.3064C83.0946 20.3064 83.5107 20.1476 83.8132 19.8299C84.1233 19.5122 84.2784 19.0622 84.2784 18.4798V17.9239H84.2103C84.0288 18.1962 83.7753 18.4155 83.4502 18.5819C83.1325 18.7407 82.7695 18.8202 82.361 18.8202C81.8693 18.8202 81.4194 18.6954 81.0109 18.4458C80.6025 18.1962 80.2735 17.8482 80.0239 17.402C79.7743 16.9482 79.6495 16.4187 79.6495 15.8137C79.6495 15.201 79.7743 14.6715 80.0239 14.2253C80.2735 13.7715 80.6025 13.4198 81.0109 13.1702C81.4194 12.9206 81.8693 12.7958 82.361 12.7958C82.7695 12.7958 83.1325 12.879 83.4502 13.0454C83.7753 13.2118 84.0288 13.4312 84.2103 13.7034H84.2784V12.9773H85.4469V18.4571C85.4469 19.0849 85.3221 19.6181 85.0725 20.0568C84.8305 20.4955 84.4939 20.8283 84.0628 21.0552C83.6317 21.2821 83.1325 21.3955 82.5652 21.3955ZM82.5766 17.7083C82.8791 17.7083 83.1589 17.6365 83.4161 17.4928C83.6732 17.3415 83.8813 17.126 84.0401 16.8461C84.199 16.5587 84.2784 16.2145 84.2784 15.8137C84.2784 15.3976 84.199 15.0498 84.0401 14.7699C83.8813 14.4825 83.6732 14.267 83.4161 14.1232C83.1589 13.9795 82.8791 13.9077 82.5766 13.9077C82.274 13.9077 81.9904 13.9833 81.7257 14.1346C81.4685 14.2783 81.2605 14.49 81.1017 14.7699C80.9429 15.0498 80.8634 15.3976 80.8634 15.8137C80.8634 16.2221 80.9429 16.57 81.1017 16.8574C81.2605 17.1373 81.4685 17.349 81.7257 17.4928C81.9904 17.6365 82.274 17.7083 82.5766 17.7083ZM90.1414 17.0843V14.0438H89.1316V12.9773H90.1414V11.3436H91.3666V12.9773H92.7848V14.0438H91.3666V16.8234C91.3666 17.1108 91.4234 17.3302 91.5368 17.4814C91.6573 17.6327 91.858 17.7083 92.1381 17.7083C92.2812 17.7083 92.4026 17.6894 92.5012 17.6516C92.6068 17.6138 92.7124 17.5608 92.8188 17.4928V18.684C92.6897 18.737 92.5535 18.7785 92.4104 18.8088C92.2664 18.8391 92.0962 18.8542 91.8999 18.8542C91.3623 18.8542 90.9355 18.6991 90.6179 18.389C90.3002 18.0714 90.1414 17.6365 90.1414 17.0843ZM94.7187 12.1265C94.4918 12.1265 94.2955 12.047 94.1288 11.8882C93.9699 11.7218 93.8905 11.5252 93.8905 11.2982C93.8905 11.0713 93.9699 10.8785 94.1288 10.7196C94.2955 10.5608 94.4918 10.4814 94.7187 10.4814C94.9456 10.4814 95.1385 10.5608 95.2973 10.7196C95.464 10.8785 95.5469 11.0713 95.5469 11.2982C95.5469 11.5252 95.464 11.7218 95.2973 11.8882C95.1385 12.047 94.9456 12.1265 94.7187 12.1265ZM94.1061 18.7634V12.9773H95.3314V18.7634H94.1061ZM96.863 18.7634V10.6402H98.0883V18.7634H96.863ZM99.544 18.7634V10.6402H100.769V18.7634H99.544ZM105.566 12.1265C105.339 12.1265 105.142 12.047 104.976 11.8882C104.817 11.7218 104.737 11.5252 104.737 11.2982C104.737 11.0713 104.817 10.8785 104.976 10.7196C105.142 10.5608 105.339 10.4814 105.566 10.4814C105.793 10.4814 105.985 10.5608 106.144 10.7196C106.311 10.8785 106.394 11.0713 106.394 11.2982C106.394 11.5252 106.311 11.7218 106.144 11.8882C105.985 12.047 105.793 12.1265 105.566 12.1265ZM104.953 18.7634V12.9773H106.178V18.7634H104.953Z" fill="white"/>
<path d="M66.4503 36.4548C65.6887 36.4548 64.9716 36.3163 64.299 36.0394C63.6364 35.7625 63.0478 35.3768 62.5335 34.8822C62.0192 34.3778 61.6137 33.7893 61.317 33.1167C61.0301 32.4343 60.8867 31.6974 60.8867 30.9061C60.8867 30.1148 61.0301 29.383 61.317 28.7104C61.6137 28.0279 62.0143 27.4395 62.5187 26.9449C63.033 26.4405 63.6264 26.0497 64.299 25.7728C64.9716 25.4959 65.6887 25.3574 66.4503 25.3574C67.2613 25.3574 68.0081 25.5008 68.6905 25.7877C69.3828 26.0745 69.9615 26.4751 70.4264 26.9894L69.2988 28.1021C68.9526 27.7164 68.5372 27.4196 68.0526 27.2119C67.5778 27.0042 67.0437 26.9004 66.4503 26.9004C65.748 26.9004 65.1002 27.0686 64.5067 27.4048C63.9133 27.7312 63.4336 28.1961 63.0676 28.7994C62.7116 29.3928 62.5335 30.0951 62.5335 30.9061C62.5335 31.7171 62.7165 32.4244 63.0825 33.0277C63.4484 33.6211 63.9281 34.086 64.5216 34.4223C65.115 34.7487 65.7628 34.9119 66.4651 34.9119C67.108 34.9119 67.6915 34.7932 68.2158 34.5558C68.74 34.3086 69.1603 33.9624 69.4768 33.5173C69.8032 33.0722 70.0011 32.5381 70.0703 31.915H66.4354V30.4759H71.5984C71.6578 30.7429 71.6874 31.0248 71.6874 31.3215V31.3364C71.6874 32.3651 71.4599 33.2651 71.005 34.0366C70.5599 34.7982 69.9417 35.3916 69.1504 35.8169C68.3592 36.2422 67.4591 36.4548 66.4503 36.4548ZM76.4646 36.4548C75.6831 36.4548 74.9958 36.2768 74.4023 35.9207C73.8089 35.5647 73.344 35.0849 73.0078 34.4816C72.6714 33.8783 72.5033 33.1959 72.5033 32.4343C72.5033 31.6826 72.6714 31.005 73.0078 30.4017C73.344 29.7884 73.8089 29.3038 74.4023 28.9478C74.9958 28.5917 75.6831 28.4137 76.4646 28.4137C77.236 28.4137 77.9185 28.5917 78.512 28.9478C79.1054 29.3038 79.5702 29.7884 79.9066 30.4017C80.2428 31.005 80.411 31.6826 80.411 32.4343C80.411 33.1959 80.2428 33.8783 79.9066 34.4816C79.5702 35.0849 79.1054 35.5647 78.512 35.9207C77.9185 36.2768 77.236 36.4548 76.4646 36.4548ZM76.4646 34.9861C76.88 34.9861 77.2657 34.8872 77.6218 34.6893C77.9779 34.4816 78.2646 34.1899 78.4823 33.814C78.7097 33.4283 78.8235 32.9684 78.8235 32.4343C78.8235 31.9002 78.7097 31.4452 78.4823 31.0693C78.2646 30.6836 77.9779 30.3918 77.6218 30.194C77.2657 29.9863 76.88 29.8824 76.4646 29.8824C76.0492 29.8824 75.6584 29.9863 75.2925 30.194C74.9364 30.3918 74.6446 30.6836 74.4172 31.0693C74.1995 31.4452 74.0908 31.9002 74.0908 32.4343C74.0908 32.9684 74.1995 33.4283 74.4172 33.814C74.6446 34.1899 74.9364 34.4816 75.2925 34.6893C75.6584 34.8872 76.0492 34.9861 76.4646 34.9861ZM85.4473 36.4548C84.666 36.4548 83.9785 36.2768 83.3851 35.9207C82.7917 35.5647 82.3268 35.0849 81.9905 34.4816C81.6542 33.8783 81.4861 33.1959 81.4861 32.4343C81.4861 31.6826 81.6542 31.005 81.9905 30.4017C82.3268 29.7884 82.7917 29.3038 83.3851 28.9478C83.9785 28.5917 84.666 28.4137 85.4473 28.4137C86.2188 28.4137 86.9013 28.5917 87.4949 28.9478C88.0883 29.3038 88.5535 29.7884 88.8895 30.4017C89.2255 31.005 89.3939 31.6826 89.3939 32.4343C89.3939 33.1959 89.2255 33.8783 88.8895 34.4816C88.5535 35.0849 88.0883 35.5647 87.4949 35.9207C86.9013 36.2768 86.2188 36.4548 85.4473 36.4548ZM85.4473 34.9861C85.8627 34.9861 86.2485 34.8872 86.6045 34.6893C86.9606 34.4816 87.2475 34.1899 87.4652 33.814C87.693 33.4283 87.8064 32.9684 87.8064 32.4343C87.8064 31.9002 87.693 31.4452 87.4652 31.0693C87.2475 30.6836 86.9606 30.3918 86.6045 30.194C86.2485 29.9863 85.8627 29.8824 85.4473 29.8824C85.0319 29.8824 84.6413 29.9863 84.2753 30.194C83.9192 30.3918 83.6275 30.6836 83.3999 31.0693C83.1824 31.4452 83.0735 31.9002 83.0735 32.4343C83.0735 32.9684 83.1824 33.4283 83.3999 33.814C83.6275 34.1899 83.9192 34.4816 84.2753 34.6893C84.6413 34.8872 85.0319 34.9861 85.4473 34.9861ZM94.282 39.6595C93.6187 39.6595 93.0453 39.5506 92.561 39.3331C92.0862 39.1253 91.7005 38.8533 91.4038 38.5171C91.107 38.1907 90.8941 37.8544 90.7658 37.5082L92.2494 36.8851C92.4074 37.2807 92.6596 37.6022 93.0061 37.8494C93.3621 38.1066 93.7871 38.2352 94.282 38.2352C94.974 38.2352 95.5177 38.0275 95.914 37.6121C96.3189 37.1967 96.5222 36.6082 96.5222 35.8466V35.1196H96.4332C96.1958 35.4757 95.8642 35.7625 95.4392 35.9801C95.0238 36.1878 94.549 36.2916 94.0149 36.2916C93.3717 36.2916 92.7835 36.1284 92.2494 35.8021C91.7153 35.4757 91.2851 35.0207 90.9587 34.4371C90.6323 33.8437 90.4691 33.1514 90.4691 32.3601C90.4691 31.5589 90.6323 30.8666 90.9587 30.283C91.2851 29.6896 91.7153 29.2297 92.2494 28.9033C92.7835 28.5769 93.3717 28.4137 94.0149 28.4137C94.549 28.4137 95.0238 28.5225 95.4392 28.7401C95.8642 28.9576 96.1958 29.2445 96.4332 29.6006H96.5222V28.651H98.0504V35.8169C98.0504 36.6379 97.8872 37.3352 97.5608 37.9088C97.244 38.4824 96.8041 38.9176 96.2403 39.2144C95.6766 39.5111 95.0238 39.6595 94.282 39.6595ZM94.2968 34.8377C94.6921 34.8377 95.0578 34.7437 95.3947 34.5558C95.7307 34.358 96.003 34.0761 96.2107 33.7102C96.4184 33.3343 96.5222 32.8843 96.5222 32.3601C96.5222 31.8161 96.4184 31.3611 96.2107 30.9951C96.003 30.6193 95.7307 30.3374 95.3947 30.1495C95.0578 29.9616 94.6921 29.8676 94.2968 29.8676C93.9006 29.8676 93.5297 29.9665 93.1841 30.1643C92.8472 30.3522 92.5758 30.6292 92.3681 30.9951C92.1604 31.3611 92.0566 31.8161 92.0566 32.3601C92.0566 32.8942 92.1604 33.3491 92.3681 33.725C92.5758 34.0909 92.8472 34.3679 93.1841 34.5558C93.5297 34.7437 93.9006 34.8377 94.2968 34.8377ZM99.9398 36.2175V25.5948H101.542V36.2175H99.9398ZM106.815 36.4548C106.073 36.4548 105.411 36.2818 104.827 35.9356C104.244 35.5894 103.784 35.1146 103.447 34.5113C103.121 33.908 102.958 33.2206 102.958 32.4491C102.958 31.7271 103.116 31.0595 103.432 30.4462C103.749 29.833 104.189 29.3434 104.753 28.9774C105.327 28.6016 105.984 28.4137 106.726 28.4137C107.508 28.4137 108.17 28.5818 108.714 28.9181C109.268 29.2544 109.689 29.7143 109.975 30.2979C110.262 30.8814 110.405 31.5391 110.405 32.2711C110.405 32.3799 110.401 32.4788 110.391 32.5678C110.391 32.6568 110.386 32.726 110.376 32.7755H104.53C104.61 33.5272 104.871 34.0909 105.317 34.4668C105.772 34.8427 106.286 35.0306 106.86 35.0306C107.374 35.0306 107.799 34.9169 108.135 34.6893C108.472 34.452 108.739 34.1602 108.937 33.814L110.257 34.452C109.931 35.0454 109.486 35.53 108.922 35.9059C108.358 36.2718 107.656 36.4548 106.815 36.4548ZM106.741 29.7786C106.207 29.7786 105.752 29.9418 105.376 30.2682C105.001 30.5946 104.748 31.0298 104.619 31.5738H108.818C108.799 31.3166 108.714 31.0495 108.566 30.7726C108.417 30.4957 108.19 30.2632 107.883 30.0753C107.586 29.8775 107.206 29.7786 106.741 29.7786ZM116.927 36.2175L114.079 25.5948H115.889L117.58 32.4936L117.758 33.4134H117.847L118.07 32.4936L120.206 25.5948H121.838L123.885 32.4936L124.108 33.3986H124.197L124.375 32.4936L126.066 25.5948H127.861L125.057 36.2175H123.336L121.304 29.1703L121.066 28.1763H120.977L120.725 29.1703L118.604 36.2175H116.927ZM130.841 36.4548C130.297 36.4548 129.812 36.351 129.387 36.1433C128.962 35.9257 128.63 35.624 128.393 35.2383C128.155 34.8525 128.037 34.4124 128.037 33.9179C128.037 33.3838 128.176 32.9288 128.452 32.5529C128.739 32.1672 129.12 31.8755 129.595 31.6776C130.069 31.4798 130.594 31.3809 131.167 31.3809C131.642 31.3809 132.057 31.4254 132.413 31.5144C132.779 31.6034 133.057 31.6974 133.244 31.7963V31.3957C133.244 30.9012 133.066 30.5056 132.71 30.2088C132.354 29.9121 131.894 29.7638 131.33 29.7638C130.945 29.7638 130.579 29.8528 130.233 30.0308C129.886 30.199 129.609 30.4314 129.402 30.7281L128.304 29.8824C128.63 29.4275 129.06 29.0714 129.595 28.8142C130.138 28.5472 130.732 28.4137 131.375 28.4137C132.473 28.4137 133.318 28.6857 133.912 29.2297C134.505 29.7638 134.802 30.5154 134.802 31.4847V36.2175H133.244V35.2828H133.155C132.957 35.5894 132.66 35.8614 132.265 36.0988C131.87 36.3362 131.395 36.4548 130.841 36.4548ZM131.123 35.1493C131.538 35.1493 131.904 35.0504 132.221 34.8525C132.537 34.6547 132.784 34.3976 132.962 34.0811C133.15 33.7547 133.244 33.4036 133.244 33.0277C133.016 32.8992 132.749 32.7953 132.443 32.7161C132.137 32.6271 131.81 32.5826 131.464 32.5826C130.811 32.5826 130.346 32.7161 130.069 32.9832C129.793 33.2404 129.654 33.5568 129.654 33.9327C129.654 34.2888 129.787 34.5805 130.055 34.808C130.322 35.0356 130.678 35.1493 131.123 35.1493ZM136.581 36.2175V25.5948H138.183V36.2175H136.581ZM140.087 36.2175V25.5948H141.69V36.2175H140.087ZM146.962 36.4548C146.221 36.4548 145.558 36.2818 144.974 35.9356C144.391 35.5894 143.932 35.1146 143.595 34.5113C143.268 33.908 143.105 33.2206 143.105 32.4491C143.105 31.7271 143.264 31.0595 143.58 30.4462C143.897 29.833 144.336 29.3434 144.9 28.9774C145.474 28.6016 146.132 28.4137 146.873 28.4137C147.655 28.4137 148.318 28.5818 148.861 28.9181C149.416 29.2544 149.836 29.7143 150.123 30.2979C150.41 30.8814 150.553 31.5391 150.553 32.2711C150.553 32.3799 150.548 32.4788 150.538 32.5678C150.538 32.6568 150.534 32.726 150.523 32.7755H144.678C144.757 33.5272 145.019 34.0909 145.464 34.4668C145.92 34.8427 146.434 35.0306 147.007 35.0306C147.522 35.0306 147.947 34.9169 148.283 34.6893C148.62 34.452 148.887 34.1602 149.084 33.814L150.404 34.452C150.078 35.0454 149.633 35.53 149.069 35.9059C148.505 36.2718 147.804 36.4548 146.962 36.4548ZM146.888 29.7786C146.354 29.7786 145.899 29.9418 145.523 30.2682C145.148 30.5946 144.896 31.0298 144.767 31.5738H148.965C148.946 31.3166 148.861 31.0495 148.713 30.7726C148.565 30.4957 148.338 30.2632 148.031 30.0753C147.734 29.8775 147.353 29.7786 146.888 29.7786ZM152.624 34.0217V30.0456H151.303V28.651H152.624V26.5146H154.226V28.651H156.081V30.0456H154.226V33.6805C154.226 34.0564 154.3 34.3431 154.449 34.541C154.607 34.7388 154.868 34.8377 155.235 34.8377C155.423 34.8377 155.581 34.813 155.71 34.7635C155.848 34.714 155.986 34.6448 156.125 34.5558V36.1136C155.957 36.1828 155.779 36.2373 155.591 36.2768C155.402 36.3163 155.18 36.3362 154.923 36.3362C154.221 36.3362 153.662 36.1334 153.247 35.7279C152.831 35.3125 152.624 34.7437 152.624 34.0217Z" fill="white"/>
<path d="M149.672 0.436523H24.0008C10.9871 0.436523 0.4375 10.9862 0.4375 23.9998C0.4375 37.0134 10.9871 47.563 24.0008 47.563H149.672C162.685 47.563 173.235 37.0134 173.235 23.9998C173.235 10.9862 162.685 0.436523 149.672 0.436523Z" stroke="#747775"/>
</g>
<defs>
<linearGradient id="paint0_linear_568_816" x1="32.5397" y1="29.7109" x2="16.3927" y2="48.6295" gradientUnits="userSpaceOnUse">
<stop stop-color="#4285F4"/>
<stop offset="1" stop-color="#1B74E8"/>
</linearGradient>
<clipPath id="clip0_568_816">
<rect width="173.67" height="47.9992" fill="white"/>
</clipPath>
</defs>
</svg>
