<svg width="174" height="29" viewBox="0 0 174 29" fill="none" xmlns="http://www.w3.org/2000/svg">
<g clip-path="url(#clip0_568_69)">
<path d="M159.619 0.28125H14.0512C6.44627 0.28125 0.28125 6.44627 0.28125 14.0512C0.28125 21.6561 6.44627 27.8212 14.0512 27.8212H159.619C167.224 27.8212 173.389 21.6561 173.389 14.0512C173.389 6.44627 167.224 0.28125 159.619 0.28125Z" fill="#1F1F1F"/>
<path d="M28.6659 12.3645H11.8047V9.55433C11.8047 8.02879 13.0422 6.74414 14.5117 6.74414H25.9588C27.4284 6.74414 28.6659 8.02879 28.6659 9.55433V12.3645Z" fill="#34A853"/>
<path d="M28.6659 14.6428H11.8047V11.8327C11.8047 10.3071 13.0422 9.02246 14.5117 9.02246H25.9588C27.4284 9.02246 28.6659 10.3071 28.6659 11.8327V14.6428Z" fill="#FBBC04"/>
<path d="M28.6659 17.0003H11.8047V14.1901C11.8047 12.6645 13.0422 11.3799 14.5117 11.3799H25.9588C27.4284 11.3799 28.6659 12.6645 28.6659 14.1901V17.0003Z" fill="#EA4335"/>
<path d="M11.8047 13.0814L22.5065 15.5565C23.7384 15.8659 25.1242 15.5565 26.1252 14.7831L28.6659 12.9268V18.7276C28.6659 20.1972 27.434 21.3573 25.9712 21.3573H14.4994C13.0366 21.3573 11.8047 20.1972 11.8047 18.7276V13.0814Z" fill="url(#paint0_linear_568_69)"/>
<path d="M43.6821 18.0413L43.7833 17.1195C44.2104 17.1195 44.5101 17.0783 44.6825 16.9959C44.8549 16.9134 44.9523 16.7711 44.9748 16.5687C45.0047 16.3589 45.0123 16.0629 44.9973 15.6807L44.7837 9.95915H45.6942L45.919 15.5795C45.9415 16.1116 45.904 16.5613 45.8066 16.9284C45.7167 17.2956 45.5069 17.5729 45.1771 17.7602C44.8549 17.9476 44.3565 18.0413 43.6821 18.0413ZM35.7461 17.9963C35.7461 17.7265 35.7836 17.4268 35.8585 17.097C35.9334 16.7673 36.0534 16.4039 36.2182 16.0067L37.0275 16.3214C36.9077 16.6362 36.8177 16.9247 36.7578 17.187C36.6978 17.4493 36.6678 17.6928 36.6678 17.9176C36.6678 18.3373 36.7877 18.6745 37.0275 18.9293C37.2748 19.1916 37.5971 19.3827 37.9942 19.5026C38.3989 19.6225 38.8411 19.6824 39.3207 19.6824C39.8977 19.6824 40.4223 19.615 40.8944 19.4801C41.374 19.3527 41.7561 19.1766 42.0409 18.9518C42.3257 18.727 42.4681 18.4797 42.4681 18.2099C42.4681 18.015 42.3182 17.8464 42.0184 17.704C41.7187 17.5617 41.299 17.4155 40.7595 17.2657L40.9731 16.3327C41.7449 16.6399 42.3482 16.8497 42.7828 16.9622C43.225 17.0671 43.5622 17.1195 43.7945 17.1195C43.9519 17.1195 44.0643 17.1645 44.1317 17.2544C44.2066 17.3369 44.2441 17.438 44.2441 17.5579C44.2441 17.6778 44.1917 17.7902 44.0868 17.8951C43.9818 17.9925 43.8469 18.0413 43.6821 18.0413H43.2662C43.2737 18.1087 43.2812 18.1612 43.2887 18.1986C43.3037 18.2436 43.3111 18.2998 43.3111 18.3673C43.3111 18.7344 43.1425 19.0867 42.8053 19.4239C42.4681 19.7686 41.981 20.0496 41.344 20.2669C40.7145 20.4843 39.9576 20.5929 39.0734 20.5929C38.4738 20.5929 37.923 20.4992 37.421 20.3119C36.9189 20.1246 36.5142 19.836 36.207 19.4464C35.8997 19.0642 35.7461 18.5808 35.7461 17.9963ZM47.6399 17.9851L47.4151 9.95915H48.3256L48.5504 17.9851H47.6399ZM47.3364 21.391L47.2015 20.784C47.3139 20.7615 47.4113 20.7391 47.4938 20.7166C47.5762 20.6941 47.6549 20.6754 47.7298 20.6604C47.5874 20.563 47.4638 20.4356 47.3589 20.2782C47.254 20.1208 47.2015 19.9484 47.2015 19.7611C47.2015 19.4239 47.3176 19.1691 47.55 18.9967C47.7897 18.8244 48.0595 18.7382 48.3593 18.7382C48.5316 18.7382 48.7078 18.7682 48.8876 18.8281L48.7977 19.3902C48.7227 19.3752 48.6478 19.3602 48.5729 19.3452C48.5054 19.3302 48.4342 19.3227 48.3593 19.3227C47.9921 19.3227 47.8085 19.4576 47.8085 19.7274C47.8085 19.9222 47.8797 20.0833 48.0221 20.2107C48.1719 20.3382 48.3181 20.4205 48.4605 20.458C48.7452 20.3756 48.9963 20.2932 49.2136 20.2107L49.3935 20.784C49.2136 20.8515 49 20.9227 48.7527 20.9976C48.5129 21.0725 48.2656 21.1437 48.0108 21.2112C47.7636 21.2861 47.5387 21.3461 47.3364 21.391ZM57.3705 18.0413C56.8838 18.0413 56.464 17.9588 56.1119 17.794C55.7671 17.6291 55.5236 17.3256 55.3812 16.8835C54.9765 16.9809 54.5868 17.0221 54.2122 17.0071C53.8449 16.9846 53.5115 16.9134 53.2117 16.7935C52.9119 16.6661 52.6759 16.4938 52.5036 16.2765C52.3312 16.0517 52.245 15.7856 52.245 15.4784C52.245 15.0737 52.3724 14.7065 52.6272 14.3768C52.882 14.0396 53.2267 13.7548 53.6614 13.5225C54.096 13.2902 54.5756 13.129 55.1002 13.0391L55.0665 12.1848H55.977L56.1568 15.8943C56.1718 16.2465 56.2318 16.5125 56.3364 16.6924C56.4488 16.8648 56.5989 16.9809 56.786 17.0408C56.981 17.0933 57.2132 17.1195 57.4829 17.1195C57.6403 17.1195 57.7527 17.1645 57.8202 17.2544C57.8955 17.3369 57.9326 17.438 57.9326 17.5579C57.9326 17.6778 57.8803 17.7902 57.7752 17.8951C57.6707 17.9925 57.5358 18.0413 57.3705 18.0413ZM53.133 15.3322C53.133 15.5046 53.2005 15.647 53.3354 15.7594C53.4777 15.8718 53.6576 15.9542 53.8749 16.0067C54.0922 16.0591 54.3208 16.0854 54.5606 16.0854C54.8079 16.0854 55.0364 16.0667 55.2463 16.0292L55.1451 13.9721C54.718 14.0171 54.3545 14.1145 54.0548 14.2644C53.755 14.4067 53.5265 14.5753 53.3691 14.7702C53.2117 14.9575 53.133 15.1449 53.133 15.3322ZM55.4374 10.8921C55.28 10.8921 55.1451 10.8397 55.0327 10.7348C54.9278 10.6224 54.8754 10.4912 54.8754 10.3413C54.8754 10.1914 54.9278 10.0603 55.0327 9.94791C55.1451 9.8355 55.28 9.7793 55.4374 9.7793C55.5872 9.7793 55.7147 9.8355 55.8196 9.94791C55.932 10.0603 55.9882 10.1914 55.9882 10.3413C55.9882 10.4912 55.932 10.6224 55.8196 10.7348C55.7147 10.8397 55.5872 10.8921 55.4374 10.8921ZM53.8974 10.8921C53.74 10.8921 53.6052 10.8397 53.4928 10.7348C53.3878 10.6224 53.3354 10.4912 53.3354 10.3413C53.3354 10.1914 53.3878 10.0603 53.4928 9.94791C53.6052 9.8355 53.74 9.7793 53.8974 9.7793C54.0473 9.7793 54.1747 9.8355 54.2796 9.94791C54.392 10.0603 54.4482 10.1914 54.4482 10.3413C54.4482 10.4912 54.392 10.6224 54.2796 10.7348C54.1747 10.8397 54.0473 10.8921 53.8974 10.8921ZM57.3745 18.0413L57.4869 17.1195C57.7342 17.1195 58.0152 17.1195 58.3299 17.1195C58.652 17.112 58.9634 17.097 59.2629 17.0746C59.5625 17.0446 59.7985 16.9996 59.9711 16.9397C60.2111 16.8572 60.4022 16.7523 60.5444 16.6249C60.6944 16.49 60.8068 16.3177 60.8816 16.1079C60.7467 16.1528 60.6006 16.1865 60.4432 16.209C60.2931 16.224 60.1436 16.2315 59.9936 16.2315C59.4164 16.2315 58.9746 16.0966 58.6672 15.8268C58.3597 15.5571 58.2063 15.2161 58.2063 14.8039C58.2063 14.5191 58.2513 14.2344 58.3412 13.9496C58.4311 13.6574 58.5587 13.3914 58.7234 13.1515C58.888 12.9117 59.087 12.7206 59.3191 12.5783C59.5512 12.4284 59.8098 12.3534 60.0947 12.3534C60.4994 12.3534 60.8327 12.4883 61.0952 12.7581C61.365 13.0204 61.5633 13.3613 61.6909 13.781C61.8258 14.2007 61.8933 14.6466 61.8933 15.1187C61.8933 15.6807 61.796 16.1641 61.601 16.5687C61.4138 16.9659 61.0991 17.2956 60.6568 17.5579C60.4247 17.6928 60.1324 17.7977 59.78 17.8727C59.4355 17.9401 59.0567 17.9851 58.6447 18.0075C58.2327 18.03 57.8089 18.0413 57.3745 18.0413ZM59.0943 14.5791C59.0943 14.8114 59.1691 14.9988 59.3191 15.1411C59.4692 15.276 59.7277 15.3435 60.0947 15.3435C60.4168 15.3435 60.7242 15.2985 61.0165 15.2086C61.0165 15.1636 61.0165 15.1112 61.0165 15.0512C61.0165 14.744 60.9755 14.4555 60.8928 14.1857C60.8102 13.9084 60.6944 13.6873 60.5444 13.5225C60.3943 13.3576 60.2145 13.2752 60.0048 13.2752C59.825 13.2752 59.6676 13.3426 59.5327 13.4775C59.3978 13.6049 59.2893 13.7698 59.2067 13.9721C59.132 14.1744 59.0943 14.3768 59.0943 14.5791ZM59.8812 11.1956C59.7238 11.1956 59.5889 11.1432 59.4765 11.0383C59.3714 10.9259 59.3191 10.7947 59.3191 10.6448C59.3191 10.4949 59.3714 10.3638 59.4765 10.2514C59.5889 10.139 59.7238 10.0828 59.8812 10.0828C60.0312 10.0828 60.1583 10.139 60.2634 10.2514C60.3758 10.3638 60.432 10.4949 60.432 10.6448C60.432 10.7947 60.3758 10.9259 60.2634 11.0383C60.1583 11.1432 60.0312 11.1956 59.8812 11.1956ZM65.673 18.0413C65.066 18.0413 64.6051 17.9738 64.2904 17.8389C63.9756 17.704 63.7587 17.4942 63.6384 17.2095C63.5187 16.9247 63.4512 16.5575 63.4361 16.1079L63.2112 9.95915H64.133L64.3578 15.7481C64.373 16.1153 64.4067 16.4001 64.459 16.6024C64.5191 16.7973 64.6467 16.9322 64.8412 17.0071C65.0435 17.082 65.3582 17.1195 65.7854 17.1195C65.9428 17.1195 66.0552 17.1645 66.1226 17.2544C66.1979 17.3369 66.235 17.438 66.235 17.5579C66.235 17.6778 66.1827 17.7902 66.0776 17.8951C65.9731 17.9925 65.8382 18.0413 65.673 18.0413ZM71.1141 18.1874C70.312 18.1874 69.664 18.1499 69.1694 18.075C68.6821 18.0075 68.3112 17.9026 68.0566 17.7602C67.8014 17.6104 67.6255 17.423 67.5283 17.1982C67.3484 17.4605 67.1573 17.6516 66.955 17.7715C66.76 17.8839 66.5537 17.9551 66.3367 17.9851C66.1265 18.0226 65.9051 18.0413 65.673 18.0413L65.7854 17.1195C66.1372 17.1195 66.4076 17.0521 66.5953 16.9172C66.7824 16.7748 66.9286 16.5425 67.0337 16.2203C67.1461 15.898 67.2697 15.4559 67.4046 14.8939L68.2252 15.1074C68.1499 15.3697 68.0903 15.6095 68.0453 15.8268C68.0077 16.0366 67.9891 16.1903 67.9891 16.2877C67.9891 16.4975 68.0453 16.6737 68.1577 16.816C68.2775 16.9509 68.5208 17.0521 68.8884 17.1195C69.1278 16.7448 69.4128 16.3664 69.7427 15.9842C70.0721 15.5945 70.4318 15.2385 70.8218 14.9163C71.2113 14.5941 71.616 14.3356 72.0358 14.1407C72.463 13.9384 72.8935 13.8372 73.3285 13.8372C73.7405 13.8372 74.0929 13.9234 74.3851 14.0958C74.6847 14.2606 74.9135 14.4854 75.0708 14.7702C75.2355 15.055 75.3181 15.3772 75.3181 15.7369C75.3181 16.1791 75.1866 16.5874 74.9247 16.9622C74.6622 17.3293 74.2238 17.6254 73.6095 17.8502C73.0025 18.075 72.1707 18.1874 71.1141 18.1874ZM73.2611 14.759C72.9238 14.759 72.5827 14.8451 72.2382 15.0175C71.9009 15.1823 71.5783 15.3959 71.2714 15.6582C70.964 15.9205 70.6869 16.194 70.4396 16.4788C70.1923 16.7561 69.9861 17.0071 69.8214 17.2319C70.2182 17.2544 70.7167 17.2657 71.3164 17.2657C72.3056 17.2657 73.0733 17.1458 73.6208 16.9059C74.1749 16.6587 74.4526 16.2989 74.4526 15.8268C74.4526 15.662 74.411 15.5009 74.3289 15.3435C74.2463 15.1786 74.1154 15.04 73.9355 14.9276C73.763 14.8152 73.5382 14.759 73.2611 14.759ZM73.0025 12.6794C72.8452 12.6794 72.7103 12.627 72.5979 12.522C72.4928 12.4096 72.4405 12.2785 72.4405 12.1286C72.4405 11.9787 72.4928 11.8476 72.5979 11.7352C72.7103 11.6228 72.8452 11.5666 73.0025 11.5666C73.152 11.5666 73.2796 11.6228 73.3847 11.7352C73.4971 11.8476 73.5533 11.9787 73.5533 12.1286C73.5533 12.2785 73.4971 12.4096 73.3847 12.522C73.2796 12.627 73.152 12.6794 73.0025 12.6794ZM80.245 11.96C80.245 11.7952 80.2337 11.5965 80.2112 11.3642C80.1888 11.132 80.1623 10.8996 80.1326 10.6673C80.1028 10.435 80.0724 10.2364 80.0426 10.0716L81.0093 9.95915C81.0318 10.109 81.0543 10.3076 81.0768 10.5549C81.0993 10.7947 81.1178 11.0383 81.133 11.2856C81.1555 11.5254 81.1667 11.7202 81.1667 11.8701C81.1667 12.3422 81.1217 12.8031 81.0318 13.2527C80.9492 13.6949 80.8109 14.1257 80.6159 14.5454C80.9683 14.9126 81.2268 15.2498 81.3915 15.5571C81.5562 15.8643 81.6388 16.1678 81.6388 16.4676C81.6388 16.6849 81.5865 16.9134 81.4814 17.1532C81.3763 17.3855 81.1852 17.5842 80.9082 17.749C80.6311 17.9064 80.2298 17.9851 79.7054 17.9851H77.12V17.0746C78.2441 16.2727 79.0461 15.4746 79.5255 14.6803C79.1057 14.3056 78.6111 13.9047 78.0418 13.4775C77.4797 13.0504 76.8913 12.6157 76.277 12.1736L76.8053 11.4317C77.4724 11.9263 78.0642 12.3759 78.5813 12.7806C79.0984 13.1778 79.5441 13.545 79.919 13.8822C80.0314 13.5824 80.114 13.2752 80.1663 12.9604C80.2185 12.6382 80.245 12.3047 80.245 11.96ZM78.4577 17.0633H79.874C80.2562 17.0633 80.5074 16.9959 80.6271 16.861C80.7469 16.7186 80.807 16.5575 80.807 16.3776C80.807 16.2427 80.7508 16.0854 80.6384 15.9055C80.5333 15.7257 80.3838 15.5308 80.1888 15.321C79.9791 15.6357 79.7279 15.9392 79.4356 16.2315C79.1507 16.5238 78.8247 16.801 78.4577 17.0633ZM76.9177 21.391L76.7828 20.784C76.8952 20.7615 76.9924 20.7391 77.0751 20.7166C77.1577 20.6941 77.2364 20.6754 77.3111 20.6604C77.1689 20.563 77.0453 20.4356 76.9402 20.2782C76.8351 20.1208 76.7828 19.9484 76.7828 19.7611C76.7828 19.4239 76.8991 19.1691 77.1313 18.9967C77.3712 18.8244 77.641 18.7382 77.9406 18.7382C78.1131 18.7382 78.2891 18.7682 78.4689 18.8281L78.379 19.3902C78.3042 19.3752 78.2289 19.3602 78.1542 19.3452C78.0867 19.3302 78.0153 19.3227 77.9406 19.3227C77.5736 19.3227 77.3898 19.4576 77.3898 19.7274C77.3898 19.9222 77.4612 20.0833 77.6034 20.2107C77.7534 20.3382 77.8996 20.4205 78.0418 20.458C78.3267 20.3756 78.5774 20.2932 78.7949 20.2107L78.9748 20.784C78.7949 20.8515 78.5813 20.9227 78.334 20.9976C78.094 21.0725 77.8467 21.1437 77.5921 21.2112C77.3448 21.2861 77.12 21.3461 76.9177 21.391ZM83.4042 17.9851L83.1794 9.95915H84.0899L84.3147 17.9851H83.4042Z" fill="white"/>
<path d="M92.9614 18.1649C92.3842 18.1649 91.8412 18.06 91.3315 17.8502C90.8296 17.6404 90.3833 17.3481 89.9938 16.9734C89.6043 16.5912 89.2969 16.1454 89.0721 15.6358C88.8546 15.1187 88.7461 14.5604 88.7461 13.9609C88.7461 13.3614 88.8546 12.8069 89.0721 12.2973C89.2969 11.7802 89.6004 11.3343 89.9826 10.9596C90.3721 10.5774 90.8217 10.2814 91.3315 10.0716C91.8412 9.86177 92.3842 9.75684 92.9614 9.75684C93.5757 9.75684 94.1417 9.86548 94.6587 10.0828C95.1831 10.3002 95.6215 10.6037 95.9739 10.9933L95.1196 11.8364C94.8571 11.5441 94.5424 11.3193 94.1754 11.1619C93.8157 11.0046 93.411 10.9259 92.9614 10.9259C92.4291 10.9259 91.9385 11.0533 91.4888 11.3081C91.0392 11.5554 90.6756 11.9076 90.3985 12.3647C90.1287 12.8143 89.9938 13.3464 89.9938 13.9609C89.9938 14.5754 90.1326 15.1112 90.4097 15.5683C90.6868 16.0179 91.0505 16.3702 91.5001 16.625C91.9497 16.8722 92.4404 16.9959 92.9726 16.9959C93.4599 16.9959 93.9017 16.906 94.299 16.7261C94.6964 16.5388 95.0145 16.2765 95.2545 15.9393C95.5018 15.602 95.6519 15.1974 95.7041 14.7253H92.9502V13.6349H96.8619C96.9069 13.8372 96.9294 14.0508 96.9294 14.2756V14.2869C96.9294 15.0662 96.7568 15.7482 96.4123 16.3327C96.0751 16.9097 95.6069 17.3594 95.0072 17.6816C94.4075 18.0038 93.7258 18.1649 92.9614 18.1649ZM100.549 18.1649C99.9571 18.1649 99.4361 18.03 98.9864 17.7603C98.5368 17.4905 98.1844 17.127 97.9298 16.6699C97.6752 16.2128 97.5476 15.6957 97.5476 15.1187C97.5476 14.5492 97.6752 14.0358 97.9298 13.5787C98.1844 13.1141 98.5368 12.7469 98.9864 12.4771C99.4361 12.2073 99.9571 12.0724 100.549 12.0724C101.133 12.0724 101.651 12.2073 102.1 12.4771C102.55 12.7469 102.902 13.1141 103.157 13.5787C103.411 14.0358 103.539 14.5492 103.539 15.1187C103.539 15.6957 103.411 16.2128 103.157 16.6699C102.902 17.127 102.55 17.4905 102.1 17.7603C101.651 18.03 101.133 18.1649 100.549 18.1649ZM100.549 17.0521C100.864 17.0521 101.156 16.9772 101.426 16.8273C101.695 16.6699 101.913 16.4489 102.078 16.1641C102.25 15.8718 102.336 15.5234 102.336 15.1187C102.336 14.714 102.25 14.3693 102.078 14.0845C101.913 13.7923 101.695 13.5712 101.426 13.4213C101.156 13.264 100.864 13.1853 100.549 13.1853C100.234 13.1853 99.938 13.264 99.6609 13.4213C99.3911 13.5712 99.1702 13.7923 98.9977 14.0845C98.833 14.3693 98.7504 14.714 98.7504 15.1187C98.7504 15.5234 98.833 15.8718 98.9977 16.1641C99.1702 16.4489 99.3911 16.6699 99.6609 16.8273C99.938 16.9772 100.234 17.0521 100.549 17.0521ZM107.355 18.1649C106.763 18.1649 106.242 18.03 105.792 17.7603C105.343 17.4905 104.991 17.127 104.736 16.6699C104.481 16.2128 104.353 15.6957 104.353 15.1187C104.353 14.5492 104.481 14.0358 104.736 13.5787C104.991 13.1141 105.343 12.7469 105.792 12.4771C106.242 12.2073 106.763 12.0724 107.355 12.0724C107.939 12.0724 108.456 12.2073 108.906 12.4771C109.355 12.7469 109.708 13.1141 109.963 13.5787C110.218 14.0358 110.345 14.5492 110.345 15.1187C110.345 15.6957 110.218 16.2128 109.963 16.6699C109.708 17.127 109.355 17.4905 108.906 17.7603C108.456 18.03 107.939 18.1649 107.355 18.1649ZM107.355 17.0521C107.669 17.0521 107.962 16.9772 108.231 16.8273C108.501 16.6699 108.719 16.4489 108.883 16.1641C109.056 15.8718 109.142 15.5234 109.142 15.1187C109.142 14.714 109.056 14.3693 108.883 14.0845C108.719 13.7923 108.501 13.5712 108.231 13.4213C107.962 13.264 107.669 13.1853 107.355 13.1853C107.04 13.1853 106.744 13.264 106.467 13.4213C106.197 13.5712 105.976 13.7923 105.803 14.0845C105.639 14.3693 105.556 14.714 105.556 15.1187C105.556 15.5234 105.639 15.8718 105.803 16.1641C105.976 16.4489 106.197 16.6699 106.467 16.8273C106.744 16.9772 107.04 17.0521 107.355 17.0521ZM114.049 20.5929C113.546 20.5929 113.112 20.5105 112.745 20.3456C112.385 20.1883 112.093 19.9822 111.868 19.7274C111.643 19.4801 111.482 19.2253 111.384 18.963L112.509 18.4909C112.628 18.7907 112.819 19.0342 113.082 19.2216C113.352 19.4164 113.674 19.5138 114.049 19.5138C114.573 19.5138 114.985 19.3565 115.285 19.0417C115.592 18.727 115.746 18.2811 115.746 17.7041V17.1533H115.678C115.499 17.423 115.247 17.6404 114.925 17.8052C114.611 17.9626 114.251 18.0413 113.846 18.0413C113.359 18.0413 112.913 17.9176 112.509 17.6703C112.104 17.423 111.778 17.0783 111.531 16.6362C111.283 16.1866 111.16 15.662 111.16 15.0625C111.16 14.4555 111.283 13.9309 111.531 13.4888C111.778 13.0391 112.104 12.6907 112.509 12.4434C112.913 12.1961 113.359 12.0724 113.846 12.0724C114.251 12.0724 114.611 12.1549 114.925 12.3197C115.247 12.4846 115.499 12.7019 115.678 12.9717H115.746V12.2523H116.904V17.6816C116.904 18.3036 116.78 18.8319 116.533 19.2665C116.293 19.7012 115.959 20.0309 115.532 20.2557C115.105 20.4805 114.611 20.5929 114.049 20.5929ZM114.06 16.9397C114.359 16.9397 114.636 16.8685 114.892 16.7261C115.146 16.5762 115.352 16.3626 115.51 16.0854C115.667 15.8006 115.746 15.4597 115.746 15.0625C115.746 14.6503 115.667 14.3056 115.51 14.0283C115.352 13.7435 115.146 13.53 114.892 13.3876C114.636 13.2452 114.359 13.174 114.06 13.174C113.76 13.174 113.479 13.249 113.217 13.3988C112.962 13.5412 112.756 13.7511 112.598 14.0283C112.441 14.3056 112.362 14.6503 112.362 15.0625C112.362 15.4671 112.441 15.8118 112.598 16.0966C112.756 16.3739 112.962 16.5838 113.217 16.7261C113.479 16.8685 113.76 16.9397 114.06 16.9397ZM118.335 17.9851V9.93669H119.549V17.9851H118.335ZM123.545 18.1649C122.983 18.1649 122.48 18.0338 122.038 17.7715C121.596 17.5092 121.248 17.1495 120.993 16.6924C120.746 16.2353 120.622 15.7144 120.622 15.1299C120.622 14.5829 120.742 14.0771 120.982 13.6124C121.221 13.1478 121.555 12.7768 121.982 12.4996C122.417 12.2148 122.915 12.0724 123.477 12.0724C124.069 12.0724 124.571 12.1998 124.984 12.4546C125.403 12.7094 125.722 13.0579 125.939 13.5C126.156 13.9422 126.265 14.4405 126.265 14.995C126.265 15.0775 126.261 15.1524 126.254 15.2199C126.254 15.2873 126.25 15.3397 126.243 15.3772H121.814C121.873 15.9467 122.072 16.3739 122.409 16.6587C122.754 16.9435 123.143 17.0858 123.578 17.0858C123.968 17.0858 124.29 16.9997 124.545 16.8273C124.8 16.6474 125.002 16.4264 125.152 16.1641L126.153 16.6474C125.905 17.0971 125.568 17.4642 125.141 17.749C124.714 18.0263 124.182 18.1649 123.545 18.1649ZM123.489 13.1066C123.084 13.1066 122.739 13.2302 122.454 13.4775C122.169 13.7248 121.978 14.0546 121.881 14.4667H125.062C125.047 14.2719 124.984 14.0695 124.871 13.8597C124.759 13.6499 124.586 13.4738 124.354 13.3314C124.129 13.1815 123.84 13.1066 123.489 13.1066ZM134.769 18.0413C134.282 18.0413 133.863 17.9588 133.51 17.794C133.166 17.6291 132.922 17.3256 132.78 16.8835C132.375 16.9809 131.985 17.0221 131.611 17.0071C131.244 16.9847 130.91 16.9134 130.61 16.7936C130.311 16.6661 130.075 16.4938 129.902 16.2765C129.73 16.0517 129.643 15.7857 129.643 15.4784C129.643 15.0737 129.771 14.7065 130.026 14.3768C130.281 14.0396 130.625 13.7548 131.06 13.5225C131.495 13.2902 131.974 13.1291 132.499 13.0391L132.465 12.1848H133.375L133.555 15.8943C133.57 16.2465 133.631 16.5125 133.735 16.6924C133.847 16.8648 133.998 16.9809 134.185 17.0409C134.38 17.0933 134.612 17.1195 134.882 17.1195C135.039 17.1195 135.151 17.1645 135.219 17.2544C135.294 17.3369 135.331 17.4381 135.331 17.5579C135.331 17.6778 135.279 17.7902 135.174 17.8952C135.069 17.9926 134.934 18.0413 134.769 18.0413ZM130.531 15.3323C130.531 15.5046 130.599 15.647 130.734 15.7594C130.877 15.8718 131.056 15.9543 131.273 16.0067C131.491 16.0591 131.72 16.0854 131.959 16.0854C132.206 16.0854 132.435 16.0667 132.645 16.0292L132.544 13.9721C132.116 14.0171 131.753 14.1145 131.453 14.2644C131.154 14.4068 130.925 14.5754 130.767 14.7702C130.61 14.9575 130.531 15.1449 130.531 15.3323ZM132.836 10.8922C132.678 10.8922 132.544 10.8397 132.431 10.7348C132.327 10.6224 132.274 10.4913 132.274 10.3414C132.274 10.1915 132.327 10.0603 132.431 9.94793C132.544 9.83552 132.678 9.77932 132.836 9.77932C132.986 9.77932 133.113 9.83552 133.218 9.94793C133.33 10.0603 133.387 10.1915 133.387 10.3414C133.387 10.4913 133.33 10.6224 133.218 10.7348C133.113 10.8397 132.986 10.8922 132.836 10.8922ZM131.296 10.8922C131.138 10.8922 131.004 10.8397 130.891 10.7348C130.787 10.6224 130.734 10.4913 130.734 10.3414C130.734 10.1915 130.787 10.0603 130.891 9.94793C131.004 9.83552 131.138 9.77932 131.296 9.77932C131.446 9.77932 131.573 9.83552 131.678 9.94793C131.79 10.0603 131.847 10.1915 131.847 10.3414C131.847 10.4913 131.79 10.6224 131.678 10.7348C131.573 10.8397 131.446 10.8922 131.296 10.8922ZM134.773 18.0413L134.886 17.1195H135.448C135.567 16.9322 135.695 16.7486 135.83 16.5687L135.616 9.95917H136.527L136.729 15.5121C137.186 15.0475 137.685 14.654 138.224 14.3318C138.771 14.0021 139.326 13.8372 139.888 13.8372C140.3 13.8372 140.652 13.9234 140.944 14.0958C141.244 14.2606 141.473 14.4854 141.63 14.7702C141.795 15.055 141.877 15.3772 141.877 15.7369C141.877 16.0892 141.75 16.4451 141.495 16.8048C141.241 17.157 140.802 17.4343 140.18 17.6366C139.701 17.794 139.123 17.9026 138.449 17.9626C137.774 18.015 136.943 18.0413 135.953 18.0413H134.773ZM139.82 14.759C139.498 14.759 139.172 14.8377 138.842 14.995C138.52 15.1524 138.209 15.3547 137.909 15.602C137.61 15.8419 137.336 16.1004 137.089 16.3777C136.841 16.6474 136.635 16.8947 136.471 17.1195H137.235C138.539 17.1195 139.494 17.0071 140.101 16.7823C140.708 16.5575 141.012 16.2053 141.012 15.7257C141.012 15.5983 140.971 15.4597 140.888 15.3098C140.806 15.1599 140.675 15.0325 140.495 14.9276C140.322 14.8152 140.097 14.759 139.82 14.759ZM142.754 18.0413C142.559 18.0413 142.312 18.0226 142.012 17.9851C141.72 17.9401 141.42 17.8652 141.113 17.7603C140.813 17.6553 140.558 17.5092 140.349 17.3219L141.27 16.861C141.533 16.9659 141.803 17.0371 142.08 17.0746C142.365 17.1045 142.627 17.1195 142.866 17.1195C143.024 17.1195 143.136 17.1645 143.204 17.2544C143.278 17.3369 143.316 17.4381 143.316 17.5579C143.316 17.6778 143.264 17.7902 143.159 17.8952C143.054 17.9926 142.919 18.0413 142.754 18.0413ZM139.337 12.6794C139.18 12.6794 139.045 12.627 138.932 12.5221C138.827 12.4097 138.775 12.2785 138.775 12.1286C138.775 11.9787 138.827 11.8476 138.932 11.7352C139.045 11.6228 139.18 11.5666 139.337 11.5666C139.487 11.5666 139.614 11.6228 139.719 11.7352C139.831 11.8476 139.888 11.9787 139.888 12.1286C139.888 12.2785 139.831 12.4097 139.719 12.5221C139.614 12.627 139.487 12.6794 139.337 12.6794ZM142.754 18.0413L142.866 17.1195C143.122 17.1195 143.383 17.1158 143.653 17.1083C143.93 17.1008 144.196 17.0821 144.451 17.0521C144.271 16.8873 144.095 16.6737 143.923 16.4114C143.751 16.1491 143.664 15.8306 143.664 15.4559C143.664 15.0587 143.758 14.699 143.945 14.3768C144.133 14.047 144.372 13.7885 144.664 13.6012C144.965 13.4139 145.287 13.3202 145.631 13.3202C145.999 13.3202 146.321 13.4213 146.598 13.6237C146.876 13.826 147.089 14.0845 147.239 14.3993C147.396 14.7065 147.475 15.0288 147.475 15.366C147.475 15.7182 147.404 16.033 147.261 16.3102C147.119 16.5875 146.928 16.831 146.688 17.0409C146.988 17.0633 147.295 17.0821 147.61 17.0971C147.924 17.1121 148.198 17.1195 148.43 17.1195C148.588 17.1195 148.7 17.1645 148.767 17.2544C148.843 17.3369 148.88 17.4381 148.88 17.5579C148.88 17.6778 148.827 17.7902 148.722 17.8952C148.618 17.9926 148.483 18.0413 148.318 18.0413C147.861 18.0413 147.385 18.0076 146.89 17.9401C146.396 17.8652 145.961 17.7753 145.586 17.6703C145.467 17.7153 145.343 17.7565 145.215 17.794C144.871 17.8914 144.477 17.9551 144.035 17.9851C143.593 18.0226 143.167 18.0413 142.754 18.0413ZM144.586 15.4784C144.586 15.7707 144.676 16.0292 144.856 16.254C145.035 16.4713 145.238 16.6474 145.463 16.7823C145.77 16.6474 146.029 16.4676 146.238 16.2428C146.448 16.0179 146.553 15.7482 146.553 15.4334C146.553 15.2611 146.512 15.085 146.429 14.9051C146.347 14.7178 146.235 14.5604 146.092 14.433C145.95 14.3056 145.785 14.2419 145.597 14.2419C145.418 14.2419 145.249 14.3056 145.092 14.433C144.942 14.5529 144.818 14.7065 144.721 14.8939C144.631 15.0812 144.586 15.2761 144.586 15.4784ZM145.53 12.1624C145.373 12.1624 145.238 12.1099 145.125 12.005C145.021 11.8926 144.968 11.7615 144.968 11.6116C144.968 11.4617 145.021 11.3305 145.125 11.2181C145.238 11.1057 145.373 11.0495 145.53 11.0495C145.68 11.0495 145.808 11.1057 145.912 11.2181C146.025 11.3305 146.081 11.4617 146.081 11.6116C146.081 11.7615 146.025 11.8926 145.912 12.005C145.808 12.1099 145.68 12.1624 145.53 12.1624ZM148.319 18.0413L148.421 17.1195C149.192 17.1195 149.941 17.0071 150.669 16.7823C151.395 16.55 152.059 16.224 152.658 15.8044C152.366 15.5496 152.006 15.3435 151.579 15.1861C151.159 15.0288 150.695 14.9501 150.185 14.9501C149.998 14.9501 149.833 14.9613 149.691 14.9838C149.548 14.9988 149.376 15.0288 149.174 15.0737L148.994 14.2194C149.413 14.092 149.81 14.0283 150.185 14.0283C150.575 14.0283 150.927 14.0771 151.242 14.1745C151.557 14.2644 151.841 14.3768 152.096 14.5117C152.358 14.6466 152.602 14.7815 152.827 14.9164C153.059 15.0512 153.284 15.1674 153.501 15.2648C153.718 15.3547 153.943 15.3997 154.176 15.3997H154.412L154.491 16.209C154.258 16.209 154.033 16.2353 153.816 16.2877C153.958 16.6249 154.161 16.8498 154.423 16.9622C154.685 17.0671 155.075 17.1195 155.592 17.1195C155.75 17.1195 155.862 17.1645 155.929 17.2544C156.004 17.3369 156.042 17.4381 156.042 17.5579C156.042 17.6778 155.989 17.7902 155.884 17.8952C155.779 17.9926 155.644 18.0413 155.48 18.0413C155.075 18.0413 154.711 18.0076 154.389 17.9401C154.075 17.8652 153.805 17.7228 153.58 17.513C153.355 17.2956 153.19 16.9734 153.085 16.5463C152.801 16.6812 152.508 16.8348 152.209 17.0071C151.916 17.172 151.59 17.3331 151.231 17.4905C150.871 17.6479 150.455 17.779 149.983 17.8839C149.511 17.9888 148.956 18.0413 148.319 18.0413ZM155.476 18.0413L155.589 17.1195C155.798 17.1195 155.975 17.0746 156.117 16.9847C156.259 16.8947 156.398 16.7486 156.533 16.5463C156.668 16.3365 156.814 16.0517 156.971 15.692C157.189 15.2124 157.403 14.8489 157.612 14.6016C157.83 14.3543 158.043 14.1857 158.253 14.0958C158.47 14.0058 158.684 13.9609 158.894 13.9609C159.148 13.9609 159.384 14.0283 159.602 14.1632C159.819 14.2906 160.01 14.463 160.175 14.6803C160.34 14.8976 160.467 15.1374 160.557 15.3997C160.654 15.6545 160.703 15.9093 160.703 16.1641C160.703 16.6137 160.625 16.9734 160.467 17.2432C160.31 17.5055 160.108 17.6966 159.86 17.8165C159.62 17.9289 159.37 17.9851 159.107 17.9851C158.89 17.9851 158.613 17.9476 158.275 17.8727C157.945 17.7978 157.53 17.6029 157.028 17.2882C156.788 17.6329 156.548 17.8464 156.308 17.9289C156.068 18.0038 155.791 18.0413 155.476 18.0413ZM157.578 16.2877C157.533 16.3851 157.492 16.4788 157.455 16.5687C157.777 16.7561 158.069 16.8873 158.332 16.9622C158.601 17.0296 158.826 17.0633 159.006 17.0633C159.328 17.0633 159.557 16.9921 159.692 16.8498C159.827 16.7074 159.894 16.52 159.894 16.2877C159.894 16.0704 159.842 15.8531 159.737 15.6358C159.632 15.4184 159.497 15.2386 159.332 15.0962C159.175 14.9538 159.006 14.8826 158.826 14.8826C158.691 14.8826 158.56 14.9201 158.433 14.995C158.305 15.07 158.174 15.2086 158.039 15.4109C157.904 15.6133 157.751 15.9055 157.578 16.2877Z" fill="white"/>
<path d="M159.619 0.28125H14.0512C6.44627 0.28125 0.28125 6.44627 0.28125 14.0512C0.28125 21.6561 6.44627 27.8212 14.0512 27.8212H159.619C167.224 27.8212 173.389 21.6561 173.389 14.0512C173.389 6.44627 167.224 0.28125 159.619 0.28125Z" stroke="#747775"/>
</g>
<defs>
<linearGradient id="paint0_linear_568_69" x1="19.4317" y1="17.303" x2="10.5294" y2="27.491" gradientUnits="userSpaceOnUse">
<stop stop-color="#4285F4"/>
<stop offset="1" stop-color="#1B74E8"/>
</linearGradient>
<clipPath id="clip0_568_69">
<rect width="173.67" height="28.1019" fill="white"/>
</clipPath>
</defs>
</svg>
