<svg width="174" height="45" viewBox="0 0 174 45" fill="none" xmlns="http://www.w3.org/2000/svg">
<g clip-path="url(#clip0_568_673)">
<path d="M151.659 0.400391H22.0071C10.073 0.400391 0.398438 10.0749 0.398438 22.0091C0.398438 33.9433 10.073 43.6178 22.0071 43.6178H151.659C163.594 43.6178 173.268 33.9433 173.268 22.0091C173.268 10.0749 163.594 0.400391 151.659 0.400391Z" fill="#1F1F1F"/>
<path d="M151.659 0.400391H22.0071C10.073 0.400391 0.398438 10.0749 0.398438 22.0091C0.398438 33.9433 10.073 43.6178 22.0071 43.6178H151.659C163.594 43.6178 173.268 33.9433 173.268 22.0091C173.268 10.0749 163.594 0.400391 151.659 0.400391Z" stroke="#747775"/>
<path d="M45.6202 19.0403H16.8086V14.5221C16.8086 12.0694 18.9232 10.0039 21.4343 10.0039H40.9945C43.5056 10.0039 45.6202 12.0694 45.6202 14.5221V19.0403Z" fill="#34A853"/>
<path d="M45.6202 23.2093H16.8086V18.4074C16.8086 15.8007 18.9232 13.6055 21.4343 13.6055H40.9945C43.5056 13.6055 45.6202 15.8007 45.6202 18.4074V23.2093Z" fill="#FBBC04"/>
<path d="M45.6202 27.2113H16.8086V22.4094C16.8086 19.8026 18.9232 17.6074 21.4343 17.6074H40.9945C43.5056 17.6074 45.6202 19.8026 45.6202 22.4094V27.2113Z" fill="#EA4335"/>
<path d="M16.8086 20.2006L35.0954 24.3315C37.2004 24.8478 39.5685 24.3315 41.2787 23.0406L45.6202 19.9424V29.6242C45.6202 32.077 43.5153 34.0133 41.0156 34.0133H21.4132C18.9135 34.0133 16.8086 32.077 16.8086 29.6242V20.2006Z" fill="#4285F4"/>
<path d="M60.938 20.6261C60.2396 20.6261 59.582 20.4991 58.9652 20.2452C58.3484 19.9912 57.8042 19.6375 57.3325 19.1839C56.87 18.7214 56.5026 18.1817 56.2305 17.5649C55.9674 16.939 55.8359 16.2633 55.8359 15.5377C55.8359 14.812 55.9674 14.1409 56.2305 13.5241C56.5026 12.8982 56.87 12.3585 57.3325 11.905C57.8042 11.4424 58.3484 11.0841 58.9652 10.8302C59.582 10.5762 60.2396 10.4492 60.938 10.4492C61.6817 10.4492 62.3666 10.5807 62.9924 10.8438C63.6273 11.1068 64.1579 11.4742 64.5843 11.9458L63.5502 12.9662C63.3416 12.7304 63.1013 12.5309 62.8292 12.3676C62.5661 12.2043 62.2759 12.0819 61.9584 12.0002C61.6409 11.9096 61.3008 11.8642 60.938 11.8642C60.4572 11.8642 59.9992 11.9504 59.5638 12.1227C59.1285 12.295 58.7429 12.5445 58.4074 12.871C58.0808 13.1885 57.8223 13.5739 57.6319 14.0275C57.4414 14.4719 57.3461 14.9753 57.3461 15.5377C57.3461 16.1001 57.4414 16.6079 57.6319 17.0615C57.8314 17.5059 58.0945 17.8914 58.421 18.218C58.7566 18.5354 59.1421 18.7803 59.5774 18.9526C60.0128 19.125 60.4708 19.2111 60.9516 19.2111C61.396 19.2111 61.8087 19.1477 62.1897 19.0207C62.5797 18.8937 62.9198 18.7123 63.2101 18.4765C63.5004 18.2406 63.7362 17.9549 63.9176 17.6193C64.099 17.2746 64.2124 16.8892 64.2577 16.4628H60.9244V15.1431H65.6591C65.6773 15.252 65.6954 15.379 65.7135 15.5241C65.7317 15.6601 65.7407 15.7916 65.7407 15.9186V15.9322C65.7407 16.6307 65.6183 17.2701 65.3734 17.8506C65.1375 18.4311 64.8065 18.93 64.3802 19.3472C63.9539 19.7554 63.446 20.0729 62.8564 20.2996C62.2759 20.5173 61.6364 20.6261 60.938 20.6261ZM70.1216 20.6261C69.405 20.6261 68.7747 20.4629 68.2305 20.1363C67.6862 19.8098 67.2599 19.3699 66.9515 18.8166C66.6431 18.2542 66.4889 17.6284 66.4889 16.939C66.4889 16.2497 66.6431 15.6283 66.9515 15.0751C67.2599 14.5127 67.6862 14.0683 68.2305 13.7417C68.7747 13.4152 69.405 13.2519 70.1216 13.2519C70.8291 13.2519 71.455 13.4198 71.9992 13.7554C72.5434 14.0819 72.9696 14.5218 73.2781 15.0751C73.5865 15.6283 73.7407 16.2497 73.7407 16.939C73.7407 17.6284 73.5865 18.2542 73.2781 18.8166C72.9696 19.3699 72.5434 19.8098 71.9992 20.1363C71.455 20.4629 70.8291 20.6261 70.1216 20.6261ZM70.1216 19.2792C70.5026 19.2792 70.8563 19.1885 71.1828 19.0071C71.5094 18.8166 71.7724 18.549 71.972 18.2043C72.1805 17.8506 72.2849 17.4288 72.2849 16.939C72.2849 16.4492 72.1805 16.032 71.972 15.6873C71.7724 15.3336 71.5094 15.066 71.1828 14.8846C70.8563 14.6941 70.5026 14.5989 70.1216 14.5989C69.7407 14.5989 69.3824 14.6941 69.0468 14.8846C68.7202 15.066 68.4526 15.3336 68.2441 15.6873C68.0445 16.032 67.9447 16.4492 67.9447 16.939C67.9447 17.4288 68.0445 17.8506 68.2441 18.2043C68.4526 18.549 68.7247 18.8166 69.0604 19.0071C69.396 19.1885 69.7497 19.2792 70.1216 19.2792ZM78.3593 20.6261C77.6427 20.6261 77.0123 20.4629 76.4681 20.1363C75.9239 19.8098 75.4976 19.3699 75.1892 18.8166C74.8808 18.2542 74.7266 17.6284 74.7266 16.939C74.7266 16.2497 74.8808 15.6283 75.1892 15.0751C75.4976 14.5127 75.9239 14.0683 76.4681 13.7417C77.0123 13.4152 77.6427 13.2519 78.3593 13.2519C79.0667 13.2519 79.6926 13.4198 80.237 13.7554C80.7812 14.0819 81.2078 14.5218 81.5159 15.0751C81.824 15.6283 81.9785 16.2497 81.9785 16.939C81.9785 17.6284 81.824 18.2542 81.5159 18.8166C81.2078 19.3699 80.7812 19.8098 80.237 20.1363C79.6926 20.4629 79.0667 20.6261 78.3593 20.6261ZM78.3593 19.2792C78.7402 19.2792 79.094 19.1885 79.4205 19.0071C79.747 18.8166 80.0101 18.549 80.2098 18.2043C80.4186 17.8506 80.5227 17.4288 80.5227 16.939C80.5227 16.4492 80.4186 16.032 80.2098 15.6873C80.0101 15.3336 79.747 15.066 79.4205 14.8846C79.094 14.6941 78.7402 14.5989 78.3593 14.5989C77.9783 14.5989 77.6201 14.6941 77.2844 14.8846C76.9579 15.066 76.6903 15.3336 76.4817 15.6873C76.2822 16.032 76.1824 16.4492 76.1824 16.939C76.1824 17.4288 76.2822 17.8506 76.4817 18.2043C76.6903 18.549 76.9625 18.8166 77.298 19.0071C77.6337 19.1885 77.9874 19.2792 78.3593 19.2792ZM86.4611 23.5649C85.8528 23.5649 85.327 23.4651 84.8828 23.2656C84.4475 23.0751 84.0937 22.8256 83.8216 22.5173C83.5495 22.218 83.3542 21.9096 83.2366 21.5921L84.5971 21.0207C84.742 21.3835 84.9733 21.6783 85.291 21.905C85.6175 22.1409 86.0073 22.2588 86.4611 22.2588C87.1045 22.2588 87.6079 22.0683 87.9713 21.6873C88.3338 21.3064 88.5155 20.7667 88.5155 20.0683V19.4016H88.4339C88.2162 19.7191 87.9169 19.9776 87.5359 20.1771C87.155 20.3767 86.7148 20.4765 86.2162 20.4765C85.6263 20.4765 85.0821 20.3268 84.5835 20.0275C84.0937 19.7282 83.6992 19.3109 83.3998 18.7758C83.1093 18.2316 82.9645 17.5967 82.9645 16.871C82.9645 16.1363 83.1093 15.5014 83.3998 14.9662C83.6992 14.422 84.0937 14.0002 84.5835 13.7009C85.0821 13.4016 85.6263 13.2519 86.2162 13.2519C86.7148 13.2519 87.155 13.3517 87.5359 13.5513C87.9169 13.7417 88.2162 14.0048 88.4339 14.3404H88.5155V13.4696H89.9169V20.0411C89.9169 20.7939 89.7672 21.4334 89.4679 21.9595C89.1774 22.4855 88.774 22.8846 88.257 23.1567C87.74 23.4288 87.1414 23.5649 86.4611 23.5649ZM86.4747 19.1431C86.8372 19.1431 87.1726 19.0569 87.4815 18.8846C87.7984 18.7032 88.0481 18.4447 88.2298 18.1091C88.4203 17.7644 88.5155 17.3518 88.5155 16.871C88.5155 16.363 88.4203 15.9413 88.2298 15.6057C88.0481 15.2701 87.7984 15.0161 87.4815 14.8438C87.1726 14.6715 86.8372 14.5853 86.4747 14.5853C86.1113 14.5853 85.7712 14.6715 85.4543 14.8438C85.1454 15.0161 84.8964 15.2746 84.706 15.6193C84.5155 15.9549 84.4203 16.3722 84.4203 16.871C84.4203 17.3608 84.5155 17.778 84.706 18.1227C84.8964 18.4583 85.1454 18.7123 85.4543 18.8846C85.7712 19.0569 86.1113 19.1431 86.4747 19.1431ZM91.6496 20.4084V10.6669H93.119V20.4084H91.6496ZM97.9545 20.6261C97.2742 20.6261 96.6668 20.4674 96.1314 20.1499C95.5968 19.8324 95.175 19.3971 94.8661 18.8438C94.5667 18.2905 94.4171 17.6601 94.4171 16.9526C94.4171 16.2905 94.5627 15.6783 94.8525 15.1159C95.143 14.5535 95.5463 14.1045 96.0633 13.769C96.59 13.4243 97.1926 13.2519 97.8729 13.2519C98.59 13.2519 99.1974 13.4062 99.696 13.7145C100.204 14.0229 100.59 14.4447 100.852 14.9798C101.116 15.515 101.247 16.1181 101.247 16.7894C101.247 16.8892 101.243 16.9799 101.233 17.0615C101.233 17.1431 101.229 17.2066 101.22 17.252H95.8593C95.8961 17.6329 95.9913 17.964 96.145 18.2452C96.3451 18.5989 96.6076 18.8665 96.9341 19.0479C97.2606 19.2293 97.6144 19.32 97.9953 19.32C98.4579 19.32 98.8437 19.2157 99.1518 19.0071C99.4695 18.7894 99.7192 18.5218 99.9001 18.2043L101.111 18.7894C100.812 19.3336 100.403 19.778 99.8865 20.1227C99.3695 20.4583 98.726 20.6261 97.9545 20.6261ZM95.9409 16.1499H99.7912C99.7824 15.9776 99.7368 15.7962 99.6552 15.6057C99.5736 15.4062 99.4559 15.2247 99.3015 15.0615C99.1478 14.8982 98.9525 14.7667 98.7164 14.6669C98.4811 14.5581 98.2042 14.5037 97.8865 14.5037C97.4879 14.5037 97.1342 14.6079 96.8253 14.8166C96.5171 15.0161 96.277 15.2973 96.1042 15.6601C96.0321 15.8143 95.9777 15.9776 95.9409 16.1499ZM107.228 20.4084L104.616 10.6669H106.275L107.826 16.9935L107.99 17.837H108.071L108.275 16.9935L110.235 10.6669H111.731L113.609 16.9935L113.813 17.8234H113.895L114.058 16.9935L115.609 10.6669H117.255L114.684 20.4084H113.105L111.241 13.9458L111.024 13.0343H110.942L110.711 13.9458L108.765 20.4084H107.228ZM119.987 20.6261C119.489 20.6261 119.044 20.5263 118.654 20.3268C118.273 20.1273 117.969 19.8552 117.742 19.5105C117.525 19.1567 117.416 18.7531 117.416 18.2996C117.416 17.8007 117.543 17.379 117.797 17.0343C118.06 16.6896 118.409 16.4266 118.845 16.2452C119.28 16.0637 119.761 15.973 120.287 15.973C120.577 15.973 120.845 15.9957 121.089 16.0411C121.343 16.0773 121.561 16.1227 121.743 16.1771C121.933 16.2315 122.083 16.2905 122.191 16.354V15.9867C122.191 15.5331 122.028 15.1703 121.702 14.8982C121.375 14.6261 120.953 14.49 120.436 14.49C120.083 14.49 119.747 14.5717 119.43 14.7349C119.112 14.8892 118.858 15.1023 118.668 15.3744L117.661 14.5989C117.86 14.3177 118.101 14.0773 118.382 13.8778C118.672 13.6783 118.994 13.5241 119.348 13.4152C119.71 13.3064 120.087 13.2519 120.477 13.2519C121.484 13.2519 122.26 13.5014 122.804 14.0003C123.348 14.49 123.62 15.1794 123.62 16.0683V20.4084H122.191V19.5513H122.11C121.992 19.7327 121.829 19.905 121.62 20.0683C121.421 20.2316 121.18 20.3631 120.899 20.4629C120.627 20.5717 120.323 20.6261 119.987 20.6261ZM120.246 19.4288C120.627 19.4288 120.962 19.3382 121.253 19.1567C121.552 18.9753 121.783 18.7395 121.947 18.4492C122.11 18.1499 122.191 17.828 122.191 17.4833C121.992 17.3654 121.747 17.2701 121.457 17.1975C121.176 17.1159 120.877 17.0751 120.559 17.0751C119.96 17.0751 119.534 17.193 119.28 17.4288C119.026 17.6647 118.899 17.9594 118.899 18.3132C118.899 18.6397 119.021 18.9073 119.266 19.1159C119.511 19.3246 119.838 19.4288 120.246 19.4288ZM125.251 20.4084V10.6669H126.721V20.4084H125.251ZM128.467 20.4084V10.6669H129.936V20.4084H128.467ZM134.772 20.6261C134.091 20.6261 133.484 20.4674 132.949 20.1499C132.414 19.8324 131.992 19.3971 131.683 18.8438C131.384 18.2905 131.234 17.6601 131.234 16.9526C131.234 16.2905 131.38 15.6783 131.67 15.1159C131.96 14.5535 132.364 14.1045 132.881 13.769C133.407 13.4243 134.01 13.2519 134.69 13.2519C135.407 13.2519 136.015 13.4062 136.513 13.7145C137.021 14.0229 137.407 14.4447 137.67 14.9798C137.933 15.515 138.064 16.1181 138.064 16.7894C138.064 16.8892 138.06 16.9799 138.051 17.0615C138.051 17.1431 138.047 17.2066 138.037 17.252H132.676C132.713 17.6329 132.809 17.964 132.962 18.2452C133.162 18.5989 133.425 18.8665 133.751 19.0479C134.078 19.2293 134.432 19.32 134.813 19.32C135.275 19.32 135.661 19.2157 135.969 19.0071C136.287 18.7894 136.536 18.5218 136.717 18.2043L137.928 18.7894C137.629 19.3336 137.221 19.778 136.704 20.1227C136.187 20.4583 135.543 20.6261 134.772 20.6261ZM132.758 16.1499H136.608C136.6 15.9776 136.554 15.7962 136.472 15.6057C136.391 15.4062 136.273 15.2247 136.119 15.0615C135.965 14.8982 135.77 14.7667 135.534 14.6669C135.298 14.5581 135.021 14.5037 134.704 14.5037C134.305 14.5037 133.951 14.6079 133.642 14.8166C133.334 15.0161 133.094 15.2973 132.921 15.6601C132.849 15.8143 132.795 15.9776 132.758 16.1499ZM138.753 13.4696H139.963V11.5104H141.433V13.4696H143.134V14.7486H141.433V18.0819C141.433 18.4266 141.501 18.6896 141.637 18.871C141.782 19.0524 142.022 19.1431 142.358 19.1431C142.521 19.1431 142.666 19.1205 142.793 19.0751C142.92 19.0207 143.047 18.9572 143.174 18.8846V20.3132C143.02 20.3767 142.857 20.4266 142.685 20.4629C142.512 20.4991 142.308 20.5173 142.072 20.5173C141.428 20.5173 140.916 20.3314 140.535 19.9595C140.154 19.5785 139.963 19.0569 139.963 18.3948V14.7486H138.753V13.4696ZM144.529 16.8166V15.5649H148.992V16.8166H144.529ZM150.177 22.4765V19.1295H150.939C151.085 18.9481 151.216 18.6987 151.334 18.3812C151.452 18.0637 151.543 17.7009 151.606 17.2928C151.67 16.8846 151.701 16.4719 151.701 16.0547V13.4696H156.898V19.1295H157.905V22.4765H156.558V20.4084H151.538V22.4765H150.177ZM152.517 19.1295H155.442V14.7486H153.089V16.1771C153.089 16.5943 153.066 16.9753 153.021 17.32C152.985 17.6647 152.921 17.9776 152.83 18.2588C152.749 18.5399 152.645 18.803 152.517 19.0479V19.1295Z" fill="white"/>
<path d="M55.8789 33.2138V27.9077H57.0026V30.0405H59.5204V27.9077H60.644V33.2138H59.5204V31.0185H57.0026V33.2138H55.8789ZM66.7719 30.5607C66.7719 31.1018 66.654 31.5873 66.4182 32.0173C66.1893 32.4405 65.8702 32.7734 65.461 33.0161C65.0518 33.2589 64.5801 33.3803 64.046 33.3803C63.4288 33.3803 62.9154 33.2416 62.5062 32.9641C62.1039 32.6866 61.8057 32.3364 61.6115 31.9133L62.6103 31.4763C62.7351 31.7676 62.9189 31.9931 63.1617 32.1526C63.4114 32.3121 63.7165 32.3919 64.0772 32.3919C64.3339 32.3919 64.5871 32.3295 64.8368 32.2046C65.0865 32.0728 65.2945 31.8682 65.461 31.5908C65.5651 31.4105 65.6344 31.1988 65.6691 30.9561H63.4114V30.1134H65.6691C65.6344 29.8775 65.5651 29.6764 65.461 29.5099C65.3015 29.2464 65.0969 29.0556 64.8472 28.9377C64.6044 28.8128 64.3547 28.7504 64.0981 28.7504C63.7582 28.7504 63.4634 28.8267 63.2137 28.9793C62.971 29.125 62.7802 29.3365 62.6415 29.614L61.6323 29.1978C61.8542 28.7539 62.1594 28.4001 62.5478 28.1366C62.9432 27.873 63.4496 27.7412 64.0668 27.7412C64.594 27.7412 65.0622 27.8661 65.4714 28.1158C65.8806 28.3585 66.1997 28.6914 66.4286 29.1146C66.6575 29.5377 66.7719 30.0197 66.7719 30.5607ZM67.6954 33.2138V27.9077H69.0271L70.6605 31.1538H70.7126L72.3564 27.9077H73.657V33.2138H72.5853V30.6336L72.6373 29.614H72.5749L71.0455 32.5375H70.3068L68.7774 29.614H68.715L68.767 30.6336V33.2138H67.6954ZM79.7873 30.5607C79.7873 31.1018 79.6695 31.5873 79.4336 32.0173C79.2047 32.4405 78.8856 32.7734 78.4764 33.0161C78.0672 33.2589 77.5955 33.3803 77.0614 33.3803C76.4442 33.3803 75.9308 33.2416 75.5216 32.9641C75.1193 32.6866 74.8211 32.3364 74.6269 31.9133L75.6257 31.4763C75.7505 31.7676 75.9344 31.9931 76.1771 32.1526C76.4268 32.3121 76.732 32.3919 77.0927 32.3919C77.3493 32.3919 77.6025 32.3295 77.8522 32.2046C78.1019 32.0728 78.3099 31.8682 78.4764 31.5908C78.5805 31.4105 78.6498 31.1988 78.6845 30.9561H76.4268V30.1134H78.6845C78.6498 29.8775 78.5805 29.6764 78.4764 29.5099C78.3169 29.2464 78.1123 29.0556 77.8626 28.9377C77.6198 28.8128 77.3701 28.7504 77.1135 28.7504C76.7736 28.7504 76.4788 28.8267 76.2291 28.9793C75.9864 29.125 75.7956 29.3365 75.6569 29.614L74.6477 29.1978C74.8696 28.7539 75.1748 28.4001 75.5632 28.1366C75.9586 27.873 76.465 27.7412 77.0823 27.7412C77.6094 27.7412 78.0776 27.8661 78.4868 28.1158C78.896 28.3585 79.2151 28.6914 79.444 29.1146C79.6729 29.5377 79.7873 30.0197 79.7873 30.5607ZM80.1399 33.2138L82.0022 30.5191L80.1711 27.9077H81.4716L82.6785 29.6764L83.823 27.9077H85.1755L83.3132 30.5191L85.1859 33.2138H83.875L82.6577 31.3931L81.4612 33.2138H80.1399Z" fill="white"/>
</g>
<defs>
<clipPath id="clip0_568_673">
<rect width="173.67" height="44.0177" fill="white"/>
</clipPath>
</defs>
</svg>
