<svg width="174" height="28" viewBox="0 0 174 28" fill="none" xmlns="http://www.w3.org/2000/svg">
<g clip-path="url(#clip0_568_700)">
<path d="M160.017 0.273438H13.6537C6.26397 0.273438 0.273438 6.26397 0.273438 13.6537C0.273438 21.0434 6.26397 27.0339 13.6537 27.0339H160.017C167.407 27.0339 173.397 21.0434 173.397 13.6537C173.397 6.26397 167.407 0.273438 160.017 0.273438Z" fill="#1F1F1F"/>
<path d="M160.017 0.273438H13.6537C6.26397 0.273438 0.273438 6.26397 0.273438 13.6537C0.273438 21.0434 6.26397 27.0339 13.6537 27.0339H160.017C167.407 27.0339 173.397 21.0434 173.397 13.6537C173.397 6.26397 167.407 0.273438 160.017 0.273438Z" stroke="#747775"/>
<path d="M27.8527 12.015H11.4688V9.28437C11.4688 7.80201 12.6712 6.55371 14.0992 6.55371H25.2223C26.6502 6.55371 27.8527 7.80201 27.8527 9.28437V12.015Z" fill="#34A853"/>
<path d="M27.8527 14.2289H11.4688V11.4982C11.4688 10.0159 12.6712 8.76758 14.0992 8.76758H25.2223C26.6502 8.76758 27.8527 10.0159 27.8527 11.4982V14.2289Z" fill="#FBBC04"/>
<path d="M27.8527 16.518H11.4688V13.7873C11.4688 12.3049 12.6712 11.0566 14.0992 11.0566H25.2223C26.6502 11.0566 27.8527 12.3049 27.8527 13.7873V16.518Z" fill="#EA4335"/>
<path d="M11.4688 12.7118L21.8677 15.1168C23.0647 15.4175 24.4113 15.1168 25.3839 14.3653L27.8527 12.5615V18.1982C27.8527 19.6262 26.6557 20.7535 25.2343 20.7535H14.0872C12.6658 20.7535 11.4688 19.6262 11.4688 18.1982V12.7118Z" fill="#4285F4"/>
<path d="M38.9944 17.6506C38.4337 17.6506 37.9058 17.5486 37.4106 17.3448C36.9155 17.1409 36.4786 16.8569 36.0999 16.4928C35.7286 16.1214 35.4336 15.6882 35.2152 15.193C35.004 14.6906 34.8984 14.1481 34.8984 13.5655C34.8984 12.983 35.004 12.4442 35.2152 11.949C35.4336 11.4465 35.7286 11.0133 36.0999 10.6492C36.4786 10.2778 36.9155 9.99017 37.4106 9.7863C37.9058 9.58243 38.4337 9.48047 38.9944 9.48047C39.5915 9.48047 40.1413 9.58604 40.6437 9.79723C41.1535 10.0084 41.5794 10.3033 41.9217 10.682L41.0916 11.5012C40.9241 11.3118 40.7311 11.1516 40.5127 11.0206C40.3015 10.8895 40.0685 10.7912 39.8136 10.7256C39.5587 10.6528 39.2857 10.6164 38.9944 10.6164C38.6085 10.6164 38.2408 10.6856 37.8912 10.824C37.5417 10.9623 37.2322 11.1626 36.9628 11.4247C36.7007 11.6796 36.4931 11.989 36.3402 12.3531C36.1873 12.7099 36.1109 13.114 36.1109 13.5655C36.1109 14.017 36.1873 14.4248 36.3402 14.7889C36.5004 15.1457 36.7116 15.4552 36.9737 15.7173C37.2431 15.9722 37.5526 16.1688 37.9022 16.3071C38.2517 16.4455 38.6194 16.5146 39.0053 16.5146C39.3621 16.5146 39.6935 16.4637 39.9993 16.3617C40.3124 16.2598 40.5855 16.1142 40.8185 15.9248C41.0515 15.7355 41.2408 15.5061 41.3865 15.2367C41.5321 14.96 41.6231 14.6505 41.6596 14.3083H38.9835V13.2488H42.7846C42.7992 13.3362 42.8137 13.4381 42.8283 13.5546C42.8429 13.6638 42.8501 13.7694 42.8501 13.8714V13.8823C42.8501 14.443 42.7518 14.9564 42.5552 15.4224C42.3659 15.8884 42.1001 16.2889 41.7579 16.6239C41.4156 16.9516 41.0079 17.2064 40.5345 17.3885C40.0685 17.5632 39.5551 17.6506 38.9944 17.6506ZM46.3671 17.6506C45.7919 17.6506 45.2858 17.5195 44.8489 17.2574C44.4119 16.9952 44.0697 16.6421 43.8221 16.1979C43.5746 15.7464 43.4508 15.244 43.4508 14.6906C43.4508 14.1372 43.5746 13.6383 43.8221 13.1942C44.0697 12.7427 44.4119 12.3859 44.8489 12.1237C45.2858 11.8616 45.7919 11.7305 46.3671 11.7305C46.9351 11.7305 47.4375 11.8653 47.8744 12.1347C48.3113 12.3968 48.6536 12.75 48.9012 13.1942C49.1488 13.6383 49.2725 14.1372 49.2725 14.6906C49.2725 15.244 49.1488 15.7464 48.9012 16.1979C48.6536 16.6421 48.3113 16.9952 47.8744 17.2574C47.4375 17.5195 46.9351 17.6506 46.3671 17.6506ZM46.3671 16.5693C46.6729 16.5693 46.9569 16.4965 47.2191 16.3508C47.4812 16.1979 47.6924 15.9831 47.8526 15.7064C48.0201 15.4224 48.1038 15.0838 48.1038 14.6906C48.1038 14.2974 48.0201 13.9624 47.8526 13.6857C47.6924 13.4017 47.4812 13.1869 47.2191 13.0412C46.9569 12.8883 46.6729 12.8119 46.3671 12.8119C46.0613 12.8119 45.7737 12.8883 45.5042 13.0412C45.2421 13.1869 45.0273 13.4017 44.8598 13.6857C44.6996 13.9624 44.6195 14.2974 44.6195 14.6906C44.6195 15.0838 44.6996 15.4224 44.8598 15.7064C45.0273 15.9831 45.2457 16.1979 45.5151 16.3508C45.7846 16.4965 46.0686 16.5693 46.3671 16.5693ZM52.9804 17.6506C52.4052 17.6506 51.8991 17.5195 51.4622 17.2574C51.0253 16.9952 50.6831 16.6421 50.4355 16.1979C50.1879 15.7464 50.0641 15.244 50.0641 14.6906C50.0641 14.1372 50.1879 13.6383 50.4355 13.1942C50.6831 12.7427 51.0253 12.3859 51.4622 12.1237C51.8991 11.8616 52.4052 11.7305 52.9804 11.7305C53.5484 11.7305 54.0509 11.8653 54.4878 12.1347C54.9246 12.3968 55.267 12.75 55.5144 13.1942C55.7623 13.6383 55.8857 14.1372 55.8857 14.6906C55.8857 15.244 55.7623 15.7464 55.5144 16.1979C55.267 16.6421 54.9246 16.9952 54.4878 17.2574C54.0509 17.5195 53.5484 17.6506 52.9804 17.6506ZM52.9804 16.5693C53.2863 16.5693 53.5703 16.4965 53.8324 16.3508C54.0945 16.1979 54.3057 15.9831 54.4659 15.7064C54.6335 15.4224 54.717 15.0838 54.717 14.6906C54.717 14.2974 54.6335 13.9624 54.4659 13.6857C54.3057 13.4017 54.0945 13.1869 53.8324 13.0412C53.5703 12.8883 53.2863 12.8119 52.9804 12.8119C52.6746 12.8119 52.387 12.8883 52.1175 13.0412C51.8554 13.1869 51.6406 13.4017 51.4731 13.6857C51.3129 13.9624 51.2328 14.2974 51.2328 14.6906C51.2328 15.0838 51.3129 15.4224 51.4731 15.7064C51.6406 15.9831 51.8591 16.1979 52.1285 16.3508C52.3979 16.4965 52.6819 16.5693 52.9804 16.5693ZM59.4848 20.0099C58.9965 20.0099 58.5744 19.9298 58.2177 19.7696C57.8682 19.6167 57.5842 19.4164 57.3658 19.1689C57.1473 18.9286 56.9906 18.681 56.8961 18.4261L57.9884 17.9674C58.1047 18.2586 58.2904 18.4953 58.5454 18.6773C58.8076 18.8667 59.1205 18.9613 59.4848 18.9613C60.0014 18.9613 60.4055 18.8084 60.6972 18.5026C60.9883 18.1967 61.1341 17.7635 61.1341 17.2028V16.6676H61.0685C60.8938 16.9224 60.6535 17.13 60.3476 17.2902C60.0418 17.4503 59.6885 17.5305 59.2881 17.5305C58.8147 17.5305 58.3777 17.4103 57.9774 17.17C57.5842 16.9297 57.2675 16.5948 57.0272 16.1651C56.794 15.7282 56.6776 15.2185 56.6776 14.636C56.6776 14.0461 56.794 13.5364 57.0272 13.1068C57.2675 12.6699 57.5842 12.3313 57.9774 12.091C58.3777 11.8507 58.8147 11.7305 59.2881 11.7305C59.6885 11.7305 60.0418 11.8107 60.3476 11.9708C60.6535 12.1237 60.8938 12.3349 61.0685 12.6043H61.1341V11.9053H62.2591V17.1809C62.2591 17.7853 62.139 18.2987 61.8987 18.721C61.6655 19.1433 61.3416 19.4638 60.9265 19.6822C60.5115 19.9007 60.0309 20.0099 59.4848 20.0099ZM59.4957 16.46C59.7868 16.46 60.056 16.3908 60.304 16.2525C60.5585 16.1069 60.7589 15.8993 60.9047 15.6299C61.0576 15.3532 61.1341 15.0219 61.1341 14.636C61.1341 14.2282 61.0576 13.8896 60.9047 13.6201C60.7589 13.3507 60.5585 13.1468 60.304 13.0085C60.056 12.8701 59.7868 12.801 59.4957 12.801C59.204 12.801 58.931 12.8701 58.6765 13.0085C58.4285 13.1468 58.2287 13.3543 58.0757 13.6311C57.9228 13.9005 57.8464 14.2355 57.8464 14.636C57.8464 15.0292 57.9228 15.3641 58.0757 15.6408C58.2287 15.9102 58.4285 16.1142 58.6765 16.2525C58.931 16.3908 59.204 16.46 59.4957 16.46ZM63.6501 17.4758V9.65523H64.8298V17.4758H63.6501ZM68.7122 17.6506C68.1661 17.6506 67.6778 17.5232 67.2486 17.2683C66.8188 17.0134 66.4802 16.6639 66.2328 16.2197C65.9925 15.7756 65.8723 15.2695 65.8723 14.7015C65.8723 14.1699 65.9886 13.6784 66.2218 13.2269C66.4545 12.7754 66.7789 12.415 67.194 12.1456C67.6161 11.8689 68.1005 11.7305 68.6467 11.7305C69.2217 11.7305 69.7094 11.8543 70.1103 12.1019C70.5177 12.3495 70.8274 12.6881 71.0387 13.1177C71.2495 13.5474 71.3555 14.0316 71.3555 14.5704C71.3555 14.6505 71.3517 14.7233 71.3446 14.7889C71.3446 14.8544 71.3407 14.9054 71.3336 14.9418H67.0301C67.0591 15.2476 67.1355 15.5134 67.2595 15.7391C67.4195 16.0231 67.6309 16.2379 67.893 16.3836C68.1552 16.5292 68.4391 16.602 68.745 16.602C69.1163 16.602 69.4255 16.5183 69.6734 16.3508C69.9279 16.176 70.1283 15.9613 70.2741 15.7064L71.2463 16.176C71.006 16.613 70.6783 16.9697 70.2632 17.2465C69.8482 17.5159 69.331 17.6506 68.7122 17.6506ZM67.0957 14.0571H70.1868C70.1791 13.9187 70.1431 13.7731 70.0775 13.6201C70.012 13.46 69.917 13.3143 69.7935 13.1832C69.6696 13.0522 69.5128 12.9466 69.3239 12.8665C69.1344 12.7791 68.9121 12.7354 68.6576 12.7354C68.337 12.7354 68.053 12.8191 67.8056 12.9866C67.5577 13.1468 67.3649 13.3726 67.2267 13.6638C67.1683 13.7876 67.1246 13.9187 67.0957 14.0571ZM76.1565 17.4758L74.0594 9.65523H75.3919L76.6371 14.7343L76.7682 15.4115H76.8337L76.9976 14.7343L78.5704 9.65523H79.7719L81.2793 14.7343L81.4431 15.4005H81.5086L81.6397 14.7343L82.8849 9.65523H84.2065L82.1421 17.4758H80.8751L79.3787 12.2876L79.2039 11.5558H79.1384L78.9527 12.2876L77.3908 17.4758H76.1565ZM86.3998 17.6506C85.9995 17.6506 85.6428 17.5705 85.3294 17.4103C85.0235 17.2501 84.78 17.0317 84.5975 16.7549C84.4228 16.471 84.3354 16.1469 84.3354 15.7828C84.3354 15.3824 84.4375 15.0438 84.6412 14.767C84.8526 14.4903 85.1328 14.2792 85.4823 14.1335C85.8318 13.9879 86.2179 13.9151 86.6401 13.9151C86.8733 13.9151 87.0879 13.9332 87.2845 13.9697C87.4888 13.9988 87.6635 14.0352 87.8088 14.0789C87.9617 14.1226 88.0819 14.1699 88.1693 14.2209V13.926C88.1693 13.5619 88.0382 13.2706 87.776 13.0522C87.5139 12.8337 87.1753 12.7245 86.7602 12.7245C86.4762 12.7245 86.207 12.79 85.952 12.9211C85.6975 13.0449 85.4932 13.216 85.3403 13.4345L84.532 12.8119C84.6926 12.5862 84.8854 12.3932 85.1109 12.233C85.3441 12.0728 85.6024 11.949 85.8864 11.8616C86.1781 11.7742 86.4801 11.7305 86.793 11.7305C87.6013 11.7305 88.2239 11.9308 88.6608 12.3313C89.0977 12.7245 89.3161 13.2779 89.3161 13.9915V17.4758H88.1693V16.7877H88.1037C88.0092 16.9334 87.8782 17.0717 87.7105 17.2028C87.5505 17.3338 87.3577 17.4394 87.1316 17.5195C86.9132 17.6069 86.6696 17.6506 86.3998 17.6506ZM86.6073 16.6894C86.9131 16.6894 87.1829 16.6166 87.4156 16.471C87.6559 16.3253 87.8416 16.136 87.9726 15.903C88.1037 15.6627 88.1693 15.4042 88.1693 15.1275C88.0092 15.0328 87.8126 14.9564 87.5794 14.8981C87.3539 14.8326 87.1136 14.7998 86.8585 14.7998C86.3779 14.7998 86.0361 14.8944 85.8318 15.0838C85.6281 15.2731 85.526 15.5098 85.526 15.7938C85.526 16.0559 85.6243 16.2707 85.8209 16.4382C86.0175 16.6057 86.2796 16.6894 86.6073 16.6894ZM90.6258 17.4758V9.65523H91.8054V17.4758H90.6258ZM93.2073 17.4758V9.65523H94.387V17.4758H93.2073ZM98.2694 17.6506C97.7233 17.6506 97.235 17.5232 96.8058 17.2683C96.376 17.0134 96.0374 16.6639 95.79 16.2197C95.5497 15.7756 95.4295 15.2695 95.4295 14.7015C95.4295 14.1699 95.5459 13.6784 95.7791 13.2269C96.0117 12.7754 96.3361 12.415 96.7512 12.1456C97.1733 11.8689 97.6577 11.7305 98.2039 11.7305C98.779 11.7305 99.2667 11.8543 99.6675 12.1019C100.075 12.3495 100.385 12.6881 100.596 13.1177C100.807 13.5474 100.913 14.0316 100.913 14.5704C100.913 14.6505 100.909 14.7233 100.902 14.7889C100.902 14.8544 100.898 14.9054 100.891 14.9418H96.5873C96.6163 15.2476 96.6927 15.5134 96.8167 15.7391C96.9767 16.0231 97.1881 16.2379 97.4502 16.3836C97.7124 16.5292 97.9964 16.602 98.3022 16.602C98.6736 16.602 98.9827 16.5183 99.2306 16.3508C99.4851 16.176 99.6855 15.9613 99.8314 15.7064L100.803 16.176C100.563 16.613 100.235 16.9697 99.8204 17.2465C99.4054 17.5159 98.8882 17.6506 98.2694 17.6506ZM96.6529 14.0571H99.744C99.7363 13.9187 99.7003 13.7731 99.6348 13.6201C99.5692 13.46 99.4742 13.3143 99.3508 13.1832C99.2268 13.0522 99.07 12.9466 98.8811 12.8665C98.6916 12.7791 98.4693 12.7354 98.2148 12.7354C97.8942 12.7354 97.6102 12.8191 97.3628 12.9866C97.1149 13.1468 96.9221 13.3726 96.7839 13.6638C96.7255 13.7876 96.6818 13.9187 96.6529 14.0571ZM101.465 11.9053H102.437V10.3324H103.617V11.9053H104.982V12.932H103.617V15.6081C103.617 15.8848 103.671 16.0959 103.78 16.2416C103.897 16.3872 104.09 16.46 104.359 16.46C104.49 16.46 104.607 16.4419 104.709 16.4054C104.81 16.3617 104.913 16.3108 105.015 16.2525V17.3994C104.891 17.4503 104.76 17.4904 104.621 17.5195C104.483 17.5486 104.319 17.5632 104.13 17.5632C103.613 17.5632 103.202 17.414 102.896 17.1154C102.59 16.8096 102.437 16.3908 102.437 15.8593V12.932H101.465V11.9053Z" fill="white"/>
<path d="M112.012 17.5859C111.364 17.5859 110.789 17.4221 110.286 17.0944C109.784 16.7667 109.43 16.3371 109.227 15.8055L109.991 15.4123C110.188 15.8638 110.461 16.206 110.81 16.4391C111.16 16.6648 111.564 16.7777 112.023 16.7777C112.453 16.7777 112.824 16.6794 113.137 16.4828C113.45 16.2789 113.69 16.0094 113.858 15.6745C114.033 15.3322 114.12 14.9499 114.12 14.5276C114.12 14.0834 114.033 13.6975 113.858 13.3698C113.683 13.0421 113.439 12.7872 113.126 12.6052C112.813 12.4159 112.445 12.3212 112.023 12.3212C111.564 12.3212 111.16 12.4377 110.81 12.6708C110.461 12.8965 110.188 13.2351 109.991 13.6866L109.227 13.2933C109.43 12.7545 109.784 12.3249 110.286 12.0045C110.789 11.6768 111.36 11.513 112.001 11.513C112.642 11.513 113.191 11.644 113.65 11.9062C114.116 12.1683 114.477 12.5251 114.732 12.9766C114.987 13.4208 115.114 13.9269 115.114 14.4948C115.114 14.7861 115.081 15.0665 115.016 15.3359C115.271 15.7437 115.576 16.0859 115.933 16.3626C116.29 16.632 116.734 16.7667 117.266 16.7667C117.703 16.7667 118.081 16.6721 118.402 16.4828C118.722 16.2934 118.966 16.0313 119.133 15.6963C119.308 15.3541 119.396 14.9645 119.396 14.5276C119.396 13.8577 119.206 13.3225 118.828 12.922C118.449 12.5215 117.943 12.3212 117.309 12.3212C116.88 12.3212 116.516 12.3868 116.217 12.5178L115.868 11.7969C116.079 11.695 116.312 11.6222 116.567 11.5785C116.822 11.5348 117.12 11.513 117.462 11.513C118.03 11.513 118.533 11.6404 118.97 11.8952C119.414 12.1428 119.76 12.4923 120.007 12.9438C120.262 13.3953 120.39 13.9305 120.39 14.5494C120.39 15.1465 120.255 15.6745 119.985 16.1332C119.716 16.5847 119.345 16.9415 118.871 17.2036C118.398 17.4585 117.852 17.5859 117.233 17.5859C116.68 17.5859 116.177 17.4767 115.726 17.2583C115.274 17.0398 114.899 16.7158 114.601 16.2861C114.353 16.6721 114.011 16.9852 113.574 17.2255C113.137 17.4658 112.616 17.5859 112.012 17.5859ZM117.423 10.6391C117.03 10.6391 116.685 10.5481 116.386 10.3661C116.087 10.184 115.858 9.94009 115.698 9.63426C115.53 9.32116 115.446 8.97163 115.446 8.58568C115.446 8.20705 115.53 7.86479 115.698 7.55895C115.858 7.24586 116.087 6.99824 116.386 6.81621C116.685 6.62687 117.037 6.53223 117.445 6.53223C117.86 6.53223 118.221 6.62687 118.527 6.81621C118.825 7.00556 119.055 7.26038 119.215 7.5808C119.375 7.8939 119.455 8.24342 119.455 8.62937C119.455 9.00801 119.372 9.35027 119.204 9.6561C119.036 9.95467 118.804 10.195 118.505 10.377C118.199 10.5518 117.839 10.6391 117.423 10.6391ZM117.456 9.90732C117.784 9.90732 118.053 9.78717 118.265 9.54688C118.476 9.30658 118.581 9.00801 118.581 8.65122C118.581 8.258 118.483 7.93032 118.286 7.66818C118.083 7.39877 117.806 7.26404 117.456 7.26404C117.1 7.26404 116.823 7.39146 116.626 7.64634C116.422 7.90122 116.32 8.22158 116.32 8.60753C116.32 8.9789 116.422 9.28839 116.626 9.53595C116.83 9.78351 117.107 9.90732 117.456 9.90732ZM119.534 20.9938C119.177 20.9938 118.889 20.8918 118.671 20.688C118.452 20.4914 118.343 20.2074 118.343 19.836C118.343 19.4719 118.452 19.1879 118.671 18.984C118.889 18.7802 119.177 18.6782 119.534 18.6782C119.883 18.6782 120.171 18.7802 120.397 18.984C120.63 19.1879 120.746 19.4683 120.746 19.8251C120.746 20.1965 120.63 20.4841 120.397 20.688C120.171 20.8918 119.883 20.9938 119.534 20.9938ZM119.545 20.4149C119.712 20.4149 119.85 20.3639 119.96 20.262C120.069 20.16 120.124 20.018 120.124 19.836C120.124 19.654 120.069 19.512 119.96 19.41C119.85 19.3081 119.712 19.2571 119.545 19.2571C119.377 19.2571 119.239 19.3081 119.13 19.41C119.02 19.512 118.966 19.654 118.966 19.836C118.966 20.222 119.159 20.4149 119.545 20.4149ZM116.759 22.5776V18.0119H117.731V21.8348H119.097V22.5776H116.759ZM127.42 17.5859C126.823 17.5859 126.299 17.4549 125.848 17.1927C125.396 16.9233 125.047 16.5592 124.799 16.1005C124.552 15.6417 124.428 15.1247 124.428 14.5494C124.428 13.9742 124.552 13.4572 124.799 12.9984C125.054 12.5397 125.407 12.1792 125.858 11.9171C126.317 11.6477 126.849 11.513 127.453 11.513C127.992 11.513 128.466 11.6185 128.873 11.8297C129.288 12.0336 129.627 12.3103 129.889 12.6598C130.217 12.2812 130.581 11.9972 130.981 11.8079C131.389 11.6185 131.888 11.5239 132.478 11.5239C133.097 11.5239 133.632 11.6586 134.083 11.928C134.542 12.1902 134.895 12.5506 135.143 13.0094C135.391 13.4608 135.514 13.9742 135.514 14.5494C135.514 15.1393 135.387 15.6636 135.132 16.1223C134.884 16.5811 134.531 16.9415 134.072 17.2036C133.614 17.4585 133.064 17.5859 132.423 17.5859C131.855 17.5859 131.36 17.484 130.937 17.2801C130.522 17.0762 130.181 16.7886 129.911 16.4172C129.642 16.7813 129.292 17.0689 128.862 17.2801C128.44 17.484 127.959 17.5859 127.42 17.5859ZM127.453 16.7777C128.08 16.7777 128.571 16.5738 128.928 16.166C129.292 15.7582 129.474 15.2266 129.474 14.5713C129.474 13.9014 129.296 13.3589 128.939 12.9438C128.589 12.5288 128.098 12.3212 127.464 12.3212C126.852 12.3212 126.358 12.5251 125.979 12.9329C125.607 13.3407 125.422 13.8868 125.422 14.5713C125.422 15.0155 125.509 15.4051 125.684 15.74C125.866 16.0677 126.11 16.3226 126.416 16.5046C126.721 16.6866 127.068 16.7777 127.453 16.7777ZM130.479 14.5494C130.479 14.9062 130.432 15.2448 130.337 15.5653C130.519 15.9366 130.792 16.2352 131.156 16.4609C131.52 16.6794 131.946 16.7886 132.434 16.7886C133.082 16.7886 133.592 16.5847 133.963 16.1769C134.334 15.7619 134.52 15.2266 134.52 14.5713C134.52 13.8795 134.342 13.3334 133.985 12.9329C133.635 12.5251 133.141 12.3212 132.499 12.3212C132.055 12.3212 131.651 12.4049 131.287 12.5724C130.93 12.7326 130.61 13.0458 130.326 13.5118C130.428 13.8395 130.479 14.1853 130.479 14.5494ZM139.752 17.5859C139.446 17.5859 139.151 17.5386 138.867 17.4439C138.583 17.3493 138.321 17.2182 138.081 17.0507V20.4149C138.081 20.8518 138.179 21.1868 138.376 21.4198C138.572 21.6601 138.882 21.7802 139.304 21.7802H145.41C145.84 21.7802 146.149 21.6601 146.338 21.4198C146.535 21.1868 146.633 20.8518 146.633 20.4149V20.2401H147.605V20.2729C147.605 21.8093 146.859 22.5776 145.366 22.5776H139.348C137.855 22.5776 137.109 21.7984 137.109 20.2401V15.8055L137.873 15.4123C138.063 15.8638 138.329 16.206 138.671 16.4391C139.02 16.6648 139.388 16.7777 139.774 16.7777C140.167 16.7777 140.51 16.683 140.801 16.4937C141.092 16.2971 141.318 16.0277 141.478 15.6854C141.638 15.3431 141.718 14.9572 141.718 14.5276C141.718 13.8722 141.547 13.3407 141.205 12.9329C140.87 12.5251 140.393 12.3212 139.774 12.3212C139.388 12.3212 139.02 12.4377 138.671 12.6708C138.329 12.8965 138.063 13.2351 137.873 13.6866L137.109 13.2933C137.24 12.9366 137.436 12.6271 137.699 12.3649C137.968 12.0955 138.281 11.888 138.638 11.7423C138.995 11.5894 139.366 11.513 139.752 11.513C140.371 11.513 140.899 11.6477 141.336 11.9171C141.78 12.1792 142.119 12.5397 142.352 12.9984C142.592 13.4499 142.712 13.9633 142.712 14.5385C142.712 14.8298 142.683 15.1065 142.625 15.3686C142.851 15.8347 143.127 16.1878 143.455 16.4281C143.783 16.6612 144.19 16.7777 144.678 16.7777C145.283 16.7777 145.76 16.5701 146.109 16.1551C146.459 15.74 146.633 15.1975 146.633 14.5276C146.633 13.8504 146.455 13.3152 146.098 12.922C145.749 12.5215 145.283 12.3212 144.7 12.3212C144.307 12.3212 143.972 12.3868 143.695 12.5178L143.346 11.7969C143.55 11.695 143.768 11.6222 144.001 11.5785C144.241 11.5348 144.525 11.513 144.853 11.513C145.392 11.513 145.869 11.6368 146.284 11.8843C146.707 12.1319 147.034 12.4851 147.267 12.9438C147.507 13.3953 147.627 13.9305 147.627 14.5494C147.627 15.132 147.504 15.6526 147.256 16.1114C147.009 16.5701 146.663 16.9306 146.218 17.1927C145.781 17.4549 145.265 17.5859 144.667 17.5859C144.172 17.5859 143.714 17.484 143.291 17.2801C142.869 17.0689 142.519 16.7558 142.242 16.3408C141.995 16.7267 141.66 17.0325 141.238 17.2583C140.822 17.4767 140.328 17.5859 139.752 17.5859ZM144.683 20.9938C144.326 20.9938 144.038 20.8918 143.82 20.688C143.601 20.4914 143.492 20.2074 143.492 19.836C143.492 19.4719 143.601 19.1879 143.82 18.984C144.038 18.7802 144.326 18.6782 144.683 18.6782C145.032 18.6782 145.324 18.7802 145.556 18.984C145.782 19.1879 145.895 19.4683 145.895 19.8251C145.895 20.1965 145.782 20.4841 145.556 20.688C145.324 20.8918 145.032 20.9938 144.683 20.9938ZM144.693 20.4149C144.861 20.4149 144.999 20.3639 145.109 20.262C145.218 20.16 145.272 20.018 145.272 19.836C145.272 19.654 145.218 19.512 145.109 19.41C144.999 19.3081 144.861 19.2571 144.693 19.2571C144.526 19.2571 144.388 19.3081 144.278 19.41C144.169 19.512 144.115 19.654 144.115 19.836C144.115 20.222 144.308 20.4149 144.693 20.4149ZM144.095 10.6391C143.724 10.4353 143.421 10.1549 143.188 9.7981C142.955 9.43399 142.839 9.01167 142.839 8.53107C142.839 8.11601 142.926 7.75922 143.101 7.46065C143.276 7.16208 143.512 6.9327 143.811 6.77252C144.109 6.61234 144.448 6.53223 144.827 6.53223C145.198 6.53223 145.533 6.60869 145.832 6.7616C146.123 6.91452 146.352 7.13297 146.52 7.41696L145.897 7.89756C145.78 7.70095 145.631 7.54803 145.449 7.43881C145.267 7.32232 145.063 7.26404 144.838 7.26404C144.48 7.26404 144.204 7.38785 144.008 7.63541C143.811 7.88297 143.713 8.18155 143.713 8.53107C143.713 8.9097 143.803 9.22646 143.986 9.48134C144.16 9.7289 144.357 9.92551 144.576 10.0712L144.095 10.6391ZM153.792 22.5776V14.5713C153.792 14.1271 153.708 13.7375 153.541 13.4026C153.381 13.0676 153.151 12.8055 152.853 12.6161C152.562 12.4195 152.212 12.3212 151.804 12.3212C151.324 12.3212 150.919 12.4523 150.592 12.7144C150.264 12.9766 150.038 13.3407 149.915 13.8067C150.861 13.8941 151.604 14.2473 152.143 14.8662C152.682 15.4779 152.951 16.3153 152.951 17.3784C152.783 17.4294 152.598 17.4767 152.394 17.5204C152.19 17.5641 151.979 17.5859 151.76 17.5859C151.171 17.5859 150.657 17.4549 150.22 17.1927C149.783 16.9306 149.441 16.5701 149.194 16.1114C148.953 15.6526 148.833 15.132 148.833 14.5494C148.833 13.9596 148.957 13.439 149.205 12.9875C149.452 12.5288 149.798 12.1683 150.242 11.9062C150.686 11.644 151.203 11.513 151.793 11.513C152.405 11.513 152.929 11.6477 153.366 11.9171C153.81 12.1792 154.152 12.5397 154.393 12.9984C154.633 13.4499 154.753 13.9669 154.753 14.5494V21.8348H156.119V22.5776H153.792ZM151.793 16.7777C151.881 16.7777 151.968 16.774 152.055 16.7667C151.99 16.1041 151.76 15.5871 151.367 15.2157C150.974 14.8444 150.461 14.6332 149.827 14.5822C149.827 15.2303 149.998 15.7582 150.34 16.166C150.69 16.5738 151.174 16.7777 151.793 16.7777ZM158.679 22.5776V17.5859H158.308C157.543 17.5859 156.99 17.4403 156.648 17.149C156.305 16.8505 156.134 16.4791 156.134 16.0349C156.134 15.7364 156.207 15.4779 156.353 15.2594C156.506 15.0337 156.706 14.8589 156.954 14.7351C157.209 14.6113 157.485 14.5494 157.784 14.5494C158.381 14.5494 158.825 14.7351 159.116 15.1065C159.407 15.4706 159.579 16.0277 159.63 16.7777C159.964 16.7486 160.223 16.6612 160.405 16.5155C160.587 16.3699 160.678 16.1405 160.678 15.8274C160.678 15.5507 160.529 15.3177 160.23 15.1283C159.932 14.939 159.506 14.7497 158.952 14.5604C158.406 14.371 158.013 14.1562 157.773 13.9159C157.54 13.6756 157.423 13.3698 157.423 12.9984C157.423 12.7144 157.504 12.4632 157.664 12.2448C157.824 12.0191 158.035 11.8406 158.297 11.7096C158.559 11.5785 158.843 11.513 159.149 11.513C159.484 11.513 159.761 11.5457 159.979 11.6113C160.205 11.6695 160.405 11.7605 160.58 11.8843C160.762 12.0008 160.951 12.1537 161.148 12.3431L160.58 12.9547C160.34 12.7144 160.121 12.5469 159.925 12.4523C159.728 12.3503 159.484 12.2994 159.193 12.2994C158.96 12.2994 158.76 12.3613 158.592 12.4851C158.424 12.6089 158.341 12.7654 158.341 12.9547C158.341 13.1805 158.45 13.3625 158.668 13.5009C158.894 13.6319 159.236 13.7739 159.695 13.9269C160.11 14.0652 160.46 14.2145 160.744 14.3747C161.028 14.5276 161.242 14.7169 161.388 14.9427C161.534 15.1684 161.607 15.456 161.607 15.8055C161.607 16.3589 161.425 16.7777 161.061 17.0617C160.696 17.3456 160.227 17.5131 159.651 17.5641V22.5776H158.679ZM158.286 16.7886H158.679V16.7777C158.679 16.2752 158.585 15.9148 158.395 15.6963C158.214 15.4706 157.984 15.3577 157.707 15.3577C157.525 15.3577 157.358 15.4123 157.205 15.5216C157.059 15.6308 156.986 15.8055 156.986 16.0458C156.986 16.2716 157.096 16.4536 157.314 16.592C157.54 16.7231 157.864 16.7886 158.286 16.7886ZM158.41 10.6391C158.038 10.4353 157.736 10.1549 157.503 9.7981C157.27 9.43399 157.153 9.01167 157.153 8.53107C157.153 8.11601 157.241 7.75922 157.416 7.46065C157.59 7.16208 157.827 6.9327 158.126 6.77252C158.424 6.61234 158.762 6.53223 159.141 6.53223C159.513 6.53223 159.848 6.60869 160.146 6.7616C160.437 6.91452 160.667 7.13297 160.834 7.41696L160.212 7.89756C160.095 7.70095 159.946 7.54803 159.764 7.43881C159.582 7.32232 159.378 7.26404 159.152 7.26404C158.795 7.26404 158.519 7.38785 158.322 7.63541C158.126 7.88297 158.027 8.18155 158.027 8.53107C158.027 8.9097 158.118 9.22646 158.3 9.48134C158.475 9.7289 158.672 9.92551 158.89 10.0712L158.41 10.6391Z" fill="white"/>
</g>
<defs>
<clipPath id="clip0_568_700">
<rect width="173.67" height="27.3066" fill="white"/>
</clipPath>
</defs>
</svg>
