<svg width="174" height="48" viewBox="0 0 174 48" fill="none" xmlns="http://www.w3.org/2000/svg">
<g clip-path="url(#clip0_568_204)">
<path d="M149.672 0.436523H24.0008C10.9871 0.436523 0.4375 10.9862 0.4375 23.9998C0.4375 37.0134 10.9871 47.563 24.0008 47.563H149.672C162.685 47.563 173.235 37.0134 173.235 23.9998C173.235 10.9862 162.685 0.436523 149.672 0.436523Z" fill="#1F1F1F"/>
<path d="M49.7458 20.7629H18.3281V15.8361C18.3281 13.1615 20.634 10.9092 23.3722 10.9092H44.7017C47.4399 10.9092 49.7458 13.1615 49.7458 15.8361V20.7629Z" fill="#34A853"/>
<path d="M49.7458 25.3085H18.3281V20.0722C18.3281 17.2297 20.634 14.8359 23.3722 14.8359H44.7017C47.4399 14.8359 49.7458 17.2297 49.7458 20.0722V25.3085Z" fill="#FBBC04"/>
<path d="M49.7458 29.6718H18.3281V24.4355C18.3281 21.593 20.634 19.1992 23.3722 19.1992H44.7017C47.4399 19.1992 49.7458 21.593 49.7458 24.4355V29.6718Z" fill="#EA4335"/>
<path d="M18.3281 22.0276L38.269 26.5322C40.5644 27.0953 43.1467 26.5322 45.0116 25.1245L49.7458 21.7461V32.3037C49.7458 34.9783 47.4505 37.0898 44.7247 37.0898H23.3492C20.6234 37.0898 18.3281 34.9783 18.3281 32.3037V22.0276Z" fill="url(#paint0_linear_568_204)"/>
<path d="M61.1367 18.7634V10.6402H62.3847V14.0211H66.1854V10.6402H67.422V18.7634H66.1854V15.201H62.3847V18.7634H61.1367ZM69.7571 12.1265C69.5302 12.1265 69.3335 12.047 69.1672 11.8882C69.0083 11.7218 68.9289 11.5252 68.9289 11.2982C68.9289 11.0713 69.0083 10.8785 69.1672 10.7196C69.3335 10.5608 69.5302 10.4814 69.7571 10.4814C69.984 10.4814 70.1769 10.5608 70.3357 10.7196C70.5021 10.8785 70.5853 11.0713 70.5853 11.2982C70.5853 11.5252 70.5021 11.7218 70.3357 11.8882C70.1769 12.047 69.984 12.1265 69.7571 12.1265ZM69.1445 18.7634V12.9773H70.3698V18.7634H69.1445ZM71.89 18.7634V12.9773H73.0472V13.7715H73.1153C73.2817 13.4916 73.5275 13.261 73.8528 13.0795C74.1855 12.8903 74.5486 12.7958 74.9419 12.7958C75.6528 12.7958 76.186 13.0076 76.5416 13.4312C76.897 13.8547 77.0748 14.4144 77.0748 15.1103V18.7634H75.8609V15.2691C75.8609 14.8002 75.7436 14.4598 75.5092 14.248C75.2747 14.0287 74.9684 13.919 74.5902 13.919C74.2952 13.919 74.038 14.0022 73.8187 14.1686C73.5993 14.3274 73.4254 14.5392 73.2968 14.8039C73.1758 15.0686 73.1153 15.3523 73.1153 15.6548V18.7634H71.89ZM78.1762 18.7634V17.7424L81.3982 14.0438H78.2783V12.9773H82.8958V13.9984L79.6851 17.697H82.9866V18.7634H78.1762ZM86.2316 18.945C85.5206 18.945 84.9836 18.7332 84.6206 18.3096C84.2651 17.8785 84.0873 17.2961 84.0873 16.5625V12.9773H85.3126V16.3923C85.3126 16.8839 85.4261 17.2469 85.653 17.4814C85.8875 17.7083 86.1786 17.8218 86.5266 17.8218C86.8366 17.8218 87.1052 17.7424 87.3321 17.5835C87.5668 17.4171 87.744 17.2054 87.8653 16.9482C87.9936 16.6835 88.0582 16.396 88.0582 16.086V12.9773H89.2721V18.7634H88.1263V17.9806H88.0582C87.8915 18.2529 87.6419 18.4836 87.3094 18.6727C86.9841 18.8542 86.6249 18.945 86.2316 18.945ZM91.4269 18.7634V14.0438H90.3717V12.9773H91.4269V12.5008C91.4269 12.0924 91.5141 11.7445 91.6878 11.4571C91.8623 11.1621 92.0962 10.939 92.3912 10.7877C92.694 10.6289 93.0344 10.5495 93.4123 10.5495C93.6165 10.5495 93.791 10.5646 93.9342 10.5948C94.086 10.6175 94.2108 10.6478 94.3086 10.6856V11.8769C94.2108 11.8391 94.0974 11.8012 93.9682 11.7634C93.8478 11.718 93.6959 11.6953 93.5144 11.6953C93.2805 11.6953 93.0763 11.7747 92.9017 11.9336C92.7281 12.0848 92.6408 12.308 92.6408 12.603V12.9773H94.093V14.0438H92.6408V18.7634H91.4269ZM97.2557 18.945C96.5445 18.945 96.0077 18.7332 95.6447 18.3096C95.2886 17.8785 95.1115 17.2961 95.1115 16.5625V12.9773H96.3367V16.3923C96.3367 16.8839 96.4502 17.2469 96.6771 17.4814C96.911 17.7083 97.2025 17.8218 97.5507 17.8218C97.8605 17.8218 98.1293 17.7424 98.3562 17.5835C98.5901 17.4171 98.7681 17.2054 98.8894 16.9482C99.0177 16.6835 99.0823 16.396 99.0823 16.086V12.9773H100.296V18.7634H99.1504V17.9806H99.0823C98.9156 18.2529 98.666 18.4836 98.3335 18.6727C98.008 18.8542 97.6484 18.945 97.2557 18.945ZM98.7079 11.7974C98.5185 11.7974 98.3518 11.7294 98.2087 11.5932C98.0726 11.4495 98.0045 11.2793 98.0045 11.0827C98.0045 10.8861 98.0726 10.7234 98.2087 10.5948C98.3518 10.4587 98.5185 10.3906 98.7079 10.3906C98.9121 10.3906 99.0823 10.4587 99.2184 10.5948C99.3546 10.7234 99.4227 10.8861 99.4227 11.0827C99.4227 11.2793 99.3546 11.4495 99.2184 11.5932C99.0823 11.7294 98.9121 11.7974 98.7079 11.7974ZM96.6998 11.7974C96.5104 11.7974 96.3437 11.7294 96.2006 11.5932C96.0645 11.4495 95.9964 11.2793 95.9964 11.0827C95.9964 10.8861 96.0645 10.7234 96.2006 10.5948C96.3437 10.4587 96.5104 10.3906 96.6998 10.3906C96.904 10.3906 97.0698 10.4587 97.199 10.5948C97.3351 10.7234 97.4032 10.8861 97.4032 11.0827C97.4032 11.2793 97.3351 11.4495 97.199 11.5932C97.0698 11.7294 96.904 11.7974 96.6998 11.7974ZM104.292 21.3955C103.785 21.3955 103.346 21.3124 102.975 21.1459C102.612 20.9871 102.317 20.7791 102.091 20.522C101.864 20.2724 101.701 20.0152 101.603 19.7505L102.737 19.274C102.859 19.5765 103.051 19.8223 103.316 20.0114C103.588 20.208 103.914 20.3064 104.292 20.3064C104.821 20.3064 105.238 20.1476 105.54 19.8299C105.85 19.5122 106.005 19.0622 106.005 18.4798V17.9239H105.937C105.755 18.1962 105.502 18.4155 105.176 18.5819C104.859 18.7407 104.496 18.8202 104.087 18.8202C103.596 18.8202 103.146 18.6954 102.737 18.4458C102.329 18.1962 102 17.8482 101.75 17.402C101.501 16.9482 101.376 16.4187 101.376 15.8137C101.376 15.201 101.501 14.6715 101.75 14.2253C102 13.7715 102.329 13.4198 102.737 13.1702C103.146 12.9206 103.596 12.7958 104.087 12.7958C104.496 12.7958 104.859 12.879 105.176 13.0454C105.502 13.2118 105.755 13.4312 105.937 13.7034H106.005V12.9773H107.173V18.4571C107.173 19.0849 107.048 19.6181 106.799 20.0568C106.557 20.4955 106.22 20.8283 105.789 21.0552C105.358 21.2821 104.859 21.3955 104.292 21.3955ZM104.303 17.7083C104.606 17.7083 104.886 17.6365 105.142 17.4928C105.4 17.3415 105.608 17.126 105.766 16.8461C105.925 16.5587 106.005 16.2145 106.005 15.8137C106.005 15.3976 105.925 15.0498 105.766 14.7699C105.608 14.4825 105.4 14.267 105.142 14.1232C104.886 13.9795 104.606 13.9077 104.303 13.9077C104.001 13.9077 103.717 13.9833 103.452 14.1346C103.195 14.2783 102.987 14.49 102.828 14.7699C102.669 15.0498 102.59 15.3976 102.59 15.8137C102.59 16.2221 102.669 16.57 102.828 16.8574C102.987 17.1373 103.195 17.349 103.452 17.4928C103.717 17.6365 104.001 17.7083 104.303 17.7083ZM111.195 18.945C110.627 18.945 110.121 18.8126 109.674 18.5479C109.228 18.2832 108.877 17.9201 108.619 17.4587C108.37 16.9973 108.245 16.4717 108.245 15.8817C108.245 15.3296 108.366 14.819 108.608 14.3501C108.851 13.8812 109.187 13.5068 109.618 13.2269C110.057 12.9396 110.559 12.7958 111.127 12.7958C111.724 12.7958 112.231 12.9244 112.647 13.1816C113.071 13.4388 113.392 13.7905 113.611 14.2367C113.831 14.6829 113.94 15.1859 113.94 15.7456C113.94 15.8288 113.937 15.9044 113.929 15.9725C113.929 16.0406 113.925 16.0935 113.918 16.1313H109.448C109.509 16.7062 109.708 17.1373 110.049 17.4247C110.397 17.7121 110.791 17.8558 111.229 17.8558C111.622 17.8558 111.948 17.7688 112.204 17.5949C112.462 17.4133 112.666 17.1902 112.817 16.9255L113.827 17.4133C113.577 17.8672 113.237 18.2378 112.806 18.5252C112.375 18.8051 111.838 18.945 111.195 18.945ZM111.138 13.8396C110.73 13.8396 110.382 13.9644 110.094 14.214C109.807 14.4636 109.614 14.7963 109.516 15.2124H112.726C112.711 15.0157 112.647 14.8115 112.533 14.5997C112.42 14.3879 112.246 14.2102 112.012 14.0665C111.785 13.9153 111.494 13.8396 111.138 13.8396ZM115.077 18.7634V12.9773H116.235V13.7715H116.303C116.469 13.4916 116.715 13.261 117.04 13.0795C117.373 12.8903 117.736 12.7958 118.129 12.7958C118.841 12.7958 119.374 13.0076 119.729 13.4312C120.084 13.8547 120.262 14.4144 120.262 15.1103V18.7634H119.048V15.2691C119.048 14.8002 118.931 14.4598 118.697 14.248C118.462 14.0287 118.155 13.919 117.778 13.919C117.483 13.919 117.225 14.0022 117.006 14.1686C116.787 14.3274 116.613 14.5392 116.484 14.8039C116.363 15.0686 116.303 15.3523 116.303 15.6548V18.7634H115.077ZM124.011 18.7634V17.7424L127.233 14.0438H124.113V12.9773H128.731V13.9984L125.52 17.697H128.822V18.7634H124.011ZM132.067 18.945C131.356 18.945 130.819 18.7332 130.455 18.3096C130.1 17.8785 129.922 17.2961 129.922 16.5625V12.9773H131.148V16.3923C131.148 16.8839 131.261 17.2469 131.488 17.4814C131.723 17.7083 132.014 17.8218 132.361 17.8218C132.672 17.8218 132.94 17.7424 133.167 17.5835C133.402 17.4171 133.58 17.2054 133.7 16.9482C133.829 16.6835 133.893 16.396 133.893 16.086V12.9773H135.107V18.7634H133.961V17.9806H133.893C133.727 18.2529 133.478 18.4836 133.144 18.6727C132.82 18.8542 132.46 18.945 132.067 18.945Z" fill="white"/>
<path d="M66.4503 36.4548C65.6887 36.4548 64.9716 36.3163 64.299 36.0394C63.6364 35.7625 63.0478 35.3768 62.5335 34.8822C62.0192 34.3778 61.6137 33.7893 61.317 33.1167C61.0301 32.4343 60.8867 31.6974 60.8867 30.9061C60.8867 30.1148 61.0301 29.383 61.317 28.7104C61.6137 28.0279 62.0143 27.4395 62.5187 26.9449C63.033 26.4405 63.6264 26.0497 64.299 25.7728C64.9716 25.4959 65.6887 25.3574 66.4503 25.3574C67.2613 25.3574 68.0081 25.5008 68.6905 25.7877C69.3828 26.0745 69.9615 26.4751 70.4264 26.9894L69.2988 28.1021C68.9526 27.7164 68.5372 27.4196 68.0526 27.2119C67.5778 27.0042 67.0437 26.9004 66.4503 26.9004C65.748 26.9004 65.1002 27.0686 64.5067 27.4048C63.9133 27.7312 63.4336 28.1961 63.0676 28.7994C62.7116 29.3928 62.5335 30.0951 62.5335 30.9061C62.5335 31.7171 62.7165 32.4244 63.0825 33.0277C63.4484 33.6211 63.9281 34.086 64.5216 34.4223C65.115 34.7487 65.7628 34.9119 66.4651 34.9119C67.108 34.9119 67.6915 34.7932 68.2158 34.5558C68.74 34.3086 69.1603 33.9624 69.4768 33.5173C69.8032 33.0722 70.0011 32.5381 70.0703 31.915H66.4354V30.4759H71.5984C71.6578 30.7429 71.6874 31.0248 71.6874 31.3215V31.3364C71.6874 32.3651 71.4599 33.2651 71.005 34.0366C70.5599 34.7982 69.9417 35.3916 69.1504 35.8169C68.3592 36.2422 67.4591 36.4548 66.4503 36.4548ZM76.4646 36.4548C75.6831 36.4548 74.9958 36.2768 74.4023 35.9207C73.8089 35.5647 73.344 35.0849 73.0078 34.4816C72.6714 33.8783 72.5033 33.1959 72.5033 32.4343C72.5033 31.6826 72.6714 31.005 73.0078 30.4017C73.344 29.7884 73.8089 29.3038 74.4023 28.9478C74.9958 28.5917 75.6831 28.4137 76.4646 28.4137C77.236 28.4137 77.9185 28.5917 78.512 28.9478C79.1054 29.3038 79.5702 29.7884 79.9066 30.4017C80.2428 31.005 80.411 31.6826 80.411 32.4343C80.411 33.1959 80.2428 33.8783 79.9066 34.4816C79.5702 35.0849 79.1054 35.5647 78.512 35.9207C77.9185 36.2768 77.236 36.4548 76.4646 36.4548ZM76.4646 34.9861C76.88 34.9861 77.2657 34.8872 77.6218 34.6893C77.9779 34.4816 78.2646 34.1899 78.4823 33.814C78.7097 33.4283 78.8235 32.9684 78.8235 32.4343C78.8235 31.9002 78.7097 31.4452 78.4823 31.0693C78.2646 30.6836 77.9779 30.3918 77.6218 30.194C77.2657 29.9863 76.88 29.8824 76.4646 29.8824C76.0492 29.8824 75.6584 29.9863 75.2925 30.194C74.9364 30.3918 74.6446 30.6836 74.4172 31.0693C74.1995 31.4452 74.0908 31.9002 74.0908 32.4343C74.0908 32.9684 74.1995 33.4283 74.4172 33.814C74.6446 34.1899 74.9364 34.4816 75.2925 34.6893C75.6584 34.8872 76.0492 34.9861 76.4646 34.9861ZM85.4473 36.4548C84.666 36.4548 83.9785 36.2768 83.3851 35.9207C82.7917 35.5647 82.3268 35.0849 81.9905 34.4816C81.6542 33.8783 81.4861 33.1959 81.4861 32.4343C81.4861 31.6826 81.6542 31.005 81.9905 30.4017C82.3268 29.7884 82.7917 29.3038 83.3851 28.9478C83.9785 28.5917 84.666 28.4137 85.4473 28.4137C86.2188 28.4137 86.9013 28.5917 87.4949 28.9478C88.0883 29.3038 88.5535 29.7884 88.8895 30.4017C89.2255 31.005 89.3939 31.6826 89.3939 32.4343C89.3939 33.1959 89.2255 33.8783 88.8895 34.4816C88.5535 35.0849 88.0883 35.5647 87.4949 35.9207C86.9013 36.2768 86.2188 36.4548 85.4473 36.4548ZM85.4473 34.9861C85.8627 34.9861 86.2485 34.8872 86.6045 34.6893C86.9606 34.4816 87.2475 34.1899 87.4652 33.814C87.693 33.4283 87.8064 32.9684 87.8064 32.4343C87.8064 31.9002 87.693 31.4452 87.4652 31.0693C87.2475 30.6836 86.9606 30.3918 86.6045 30.194C86.2485 29.9863 85.8627 29.8824 85.4473 29.8824C85.0319 29.8824 84.6413 29.9863 84.2753 30.194C83.9192 30.3918 83.6275 30.6836 83.3999 31.0693C83.1824 31.4452 83.0735 31.9002 83.0735 32.4343C83.0735 32.9684 83.1824 33.4283 83.3999 33.814C83.6275 34.1899 83.9192 34.4816 84.2753 34.6893C84.6413 34.8872 85.0319 34.9861 85.4473 34.9861ZM94.282 39.6595C93.6187 39.6595 93.0453 39.5506 92.561 39.3331C92.0862 39.1253 91.7005 38.8533 91.4038 38.5171C91.107 38.1907 90.8941 37.8544 90.7658 37.5082L92.2494 36.8851C92.4074 37.2807 92.6596 37.6022 93.0061 37.8494C93.3621 38.1066 93.7871 38.2352 94.282 38.2352C94.974 38.2352 95.5177 38.0275 95.914 37.6121C96.3189 37.1967 96.5222 36.6082 96.5222 35.8466V35.1196H96.4332C96.1958 35.4757 95.8642 35.7625 95.4392 35.9801C95.0238 36.1878 94.549 36.2916 94.0149 36.2916C93.3717 36.2916 92.7835 36.1284 92.2494 35.8021C91.7153 35.4757 91.2851 35.0207 90.9587 34.4371C90.6323 33.8437 90.4691 33.1514 90.4691 32.3601C90.4691 31.5589 90.6323 30.8666 90.9587 30.283C91.2851 29.6896 91.7153 29.2297 92.2494 28.9033C92.7835 28.5769 93.3717 28.4137 94.0149 28.4137C94.549 28.4137 95.0238 28.5225 95.4392 28.7401C95.8642 28.9576 96.1958 29.2445 96.4332 29.6006H96.5222V28.651H98.0504V35.8169C98.0504 36.6379 97.8872 37.3352 97.5608 37.9088C97.244 38.4824 96.8041 38.9176 96.2403 39.2144C95.6766 39.5111 95.0238 39.6595 94.282 39.6595ZM94.2968 34.8377C94.6921 34.8377 95.0578 34.7437 95.3947 34.5558C95.7307 34.358 96.003 34.0761 96.2107 33.7102C96.4184 33.3343 96.5222 32.8843 96.5222 32.3601C96.5222 31.8161 96.4184 31.3611 96.2107 30.9951C96.003 30.6193 95.7307 30.3374 95.3947 30.1495C95.0578 29.9616 94.6921 29.8676 94.2968 29.8676C93.9006 29.8676 93.5297 29.9665 93.1841 30.1643C92.8472 30.3522 92.5758 30.6292 92.3681 30.9951C92.1604 31.3611 92.0566 31.8161 92.0566 32.3601C92.0566 32.8942 92.1604 33.3491 92.3681 33.725C92.5758 34.0909 92.8472 34.3679 93.1841 34.5558C93.5297 34.7437 93.9006 34.8377 94.2968 34.8377ZM99.9398 36.2175V25.5948H101.542V36.2175H99.9398ZM106.815 36.4548C106.073 36.4548 105.411 36.2818 104.827 35.9356C104.244 35.5894 103.784 35.1146 103.447 34.5113C103.121 33.908 102.958 33.2206 102.958 32.4491C102.958 31.7271 103.116 31.0595 103.432 30.4462C103.749 29.833 104.189 29.3434 104.753 28.9774C105.327 28.6016 105.984 28.4137 106.726 28.4137C107.508 28.4137 108.17 28.5818 108.714 28.9181C109.268 29.2544 109.689 29.7143 109.975 30.2979C110.262 30.8814 110.405 31.5391 110.405 32.2711C110.405 32.3799 110.401 32.4788 110.391 32.5678C110.391 32.6568 110.386 32.726 110.376 32.7755H104.53C104.61 33.5272 104.871 34.0909 105.317 34.4668C105.772 34.8427 106.286 35.0306 106.86 35.0306C107.374 35.0306 107.799 34.9169 108.135 34.6893C108.472 34.452 108.739 34.1602 108.937 33.814L110.257 34.452C109.931 35.0454 109.486 35.53 108.922 35.9059C108.358 36.2718 107.656 36.4548 106.815 36.4548ZM106.741 29.7786C106.207 29.7786 105.752 29.9418 105.376 30.2682C105.001 30.5946 104.748 31.0298 104.619 31.5738H108.818C108.799 31.3166 108.714 31.0495 108.566 30.7726C108.417 30.4957 108.19 30.2632 107.883 30.0753C107.586 29.8775 107.206 29.7786 106.741 29.7786ZM116.927 36.2175L114.079 25.5948H115.889L117.58 32.4936L117.758 33.4134H117.847L118.07 32.4936L120.206 25.5948H121.838L123.885 32.4936L124.108 33.3986H124.197L124.375 32.4936L126.066 25.5948H127.861L125.057 36.2175H123.336L121.304 29.1703L121.066 28.1763H120.977L120.725 29.1703L118.604 36.2175H116.927ZM130.841 36.4548C130.297 36.4548 129.812 36.351 129.387 36.1433C128.962 35.9257 128.63 35.624 128.393 35.2383C128.155 34.8525 128.037 34.4124 128.037 33.9179C128.037 33.3838 128.176 32.9288 128.452 32.5529C128.739 32.1672 129.12 31.8755 129.595 31.6776C130.069 31.4798 130.594 31.3809 131.167 31.3809C131.642 31.3809 132.057 31.4254 132.413 31.5144C132.779 31.6034 133.057 31.6974 133.244 31.7963V31.3957C133.244 30.9012 133.066 30.5056 132.71 30.2088C132.354 29.9121 131.894 29.7638 131.33 29.7638C130.945 29.7638 130.579 29.8528 130.233 30.0308C129.886 30.199 129.609 30.4314 129.402 30.7281L128.304 29.8824C128.63 29.4275 129.06 29.0714 129.595 28.8142C130.138 28.5472 130.732 28.4137 131.375 28.4137C132.473 28.4137 133.318 28.6857 133.912 29.2297C134.505 29.7638 134.802 30.5154 134.802 31.4847V36.2175H133.244V35.2828H133.155C132.957 35.5894 132.66 35.8614 132.265 36.0988C131.87 36.3362 131.395 36.4548 130.841 36.4548ZM131.123 35.1493C131.538 35.1493 131.904 35.0504 132.221 34.8525C132.537 34.6547 132.784 34.3976 132.962 34.0811C133.15 33.7547 133.244 33.4036 133.244 33.0277C133.016 32.8992 132.749 32.7953 132.443 32.7161C132.137 32.6271 131.81 32.5826 131.464 32.5826C130.811 32.5826 130.346 32.7161 130.069 32.9832C129.793 33.2404 129.654 33.5568 129.654 33.9327C129.654 34.2888 129.787 34.5805 130.055 34.808C130.322 35.0356 130.678 35.1493 131.123 35.1493ZM136.581 36.2175V25.5948H138.183V36.2175H136.581ZM140.087 36.2175V25.5948H141.69V36.2175H140.087ZM146.962 36.4548C146.221 36.4548 145.558 36.2818 144.974 35.9356C144.391 35.5894 143.932 35.1146 143.595 34.5113C143.268 33.908 143.105 33.2206 143.105 32.4491C143.105 31.7271 143.264 31.0595 143.58 30.4462C143.897 29.833 144.336 29.3434 144.9 28.9774C145.474 28.6016 146.132 28.4137 146.873 28.4137C147.655 28.4137 148.318 28.5818 148.861 28.9181C149.416 29.2544 149.836 29.7143 150.123 30.2979C150.41 30.8814 150.553 31.5391 150.553 32.2711C150.553 32.3799 150.548 32.4788 150.538 32.5678C150.538 32.6568 150.534 32.726 150.523 32.7755H144.678C144.757 33.5272 145.019 34.0909 145.464 34.4668C145.92 34.8427 146.434 35.0306 147.007 35.0306C147.522 35.0306 147.947 34.9169 148.283 34.6893C148.62 34.452 148.887 34.1602 149.084 33.814L150.404 34.452C150.078 35.0454 149.633 35.53 149.069 35.9059C148.505 36.2718 147.804 36.4548 146.962 36.4548ZM146.888 29.7786C146.354 29.7786 145.899 29.9418 145.523 30.2682C145.148 30.5946 144.896 31.0298 144.767 31.5738H148.965C148.946 31.3166 148.861 31.0495 148.713 30.7726C148.565 30.4957 148.338 30.2632 148.031 30.0753C147.734 29.8775 147.353 29.7786 146.888 29.7786ZM152.624 34.0217V30.0456H151.303V28.651H152.624V26.5146H154.226V28.651H156.081V30.0456H154.226V33.6805C154.226 34.0564 154.3 34.3431 154.449 34.541C154.607 34.7388 154.868 34.8377 155.235 34.8377C155.423 34.8377 155.581 34.813 155.71 34.7635C155.848 34.714 155.986 34.6448 156.125 34.5558V36.1136C155.957 36.1828 155.779 36.2373 155.591 36.2768C155.402 36.3163 155.18 36.3362 154.923 36.3362C154.221 36.3362 153.662 36.1334 153.247 35.7279C152.831 35.3125 152.624 34.7437 152.624 34.0217Z" fill="white"/>
<path d="M149.672 0.436523H24.0008C10.9871 0.436523 0.4375 10.9862 0.4375 23.9998C0.4375 37.0134 10.9871 47.563 24.0008 47.563H149.672C162.685 47.563 173.235 37.0134 173.235 23.9998C173.235 10.9862 162.685 0.436523 149.672 0.436523Z" stroke="#747775"/>
</g>
<defs>
<linearGradient id="paint0_linear_568_204" x1="32.5397" y1="29.7109" x2="16.3927" y2="48.6295" gradientUnits="userSpaceOnUse">
<stop stop-color="#4285F4"/>
<stop offset="1" stop-color="#1B74E8"/>
</linearGradient>
<clipPath id="clip0_568_204">
<rect width="173.67" height="47.9992" fill="white"/>
</clipPath>
</defs>
</svg>
