<svg width="174" height="24" viewBox="0 0 174 24" fill="none" xmlns="http://www.w3.org/2000/svg">
<g clip-path="url(#clip0_568_538)">
<path d="M161.841 0.236328H11.8321C5.42899 0.236328 0.238281 5.42704 0.238281 11.8301C0.238281 18.2332 5.42899 23.4239 11.8321 23.4239H161.841C168.244 23.4239 173.435 18.2332 173.435 11.8301C173.435 5.42704 168.244 0.236328 161.841 0.236328Z" fill="#1F1F1F"/>
<path d="M24.134 10.4109H9.9375V8.04479C9.9375 6.76034 10.9794 5.67871 12.2167 5.67871H21.8547C23.092 5.67871 24.134 6.76034 24.134 8.04479V10.4109Z" fill="#34A853"/>
<path d="M24.134 12.3288H9.9375V9.96276C9.9375 8.67831 10.9794 7.59668 12.2167 7.59668H21.8547C23.092 7.59668 24.134 8.67831 24.134 9.96276V12.3288Z" fill="#FBBC04"/>
<path d="M24.134 14.3132H9.9375V11.9471C9.9375 10.6627 10.9794 9.58105 12.2167 9.58105H21.8547C23.092 9.58105 24.134 10.6627 24.134 11.9471V14.3132Z" fill="#EA4335"/>
<path d="M9.9375 11.014L18.948 13.0979C19.9852 13.3584 21.152 13.0979 21.9948 12.4467L24.134 10.8838V15.7679C24.134 17.0052 23.0968 17.982 21.8651 17.982H12.2063C10.9747 17.982 9.9375 17.0052 9.9375 15.7679V11.014Z" fill="url(#paint0_linear_568_538)"/>
<path d="M33.7874 15.2941C33.3015 15.2941 32.8441 15.2058 32.4151 15.0291C31.9923 14.8525 31.6169 14.6064 31.2888 14.2909C30.9607 13.9691 30.702 13.5937 30.5127 13.1647C30.3298 12.7293 30.2383 12.2593 30.2383 11.7545C30.2383 11.2497 30.3298 10.7828 30.5127 10.3538C30.702 9.91842 30.9576 9.54302 31.2794 9.22752C31.6074 8.90574 31.986 8.6565 32.4151 8.47984C32.8441 8.30319 33.3015 8.21484 33.7874 8.21484C34.3048 8.21484 34.7811 8.30632 35.2165 8.48931C35.6582 8.6723 36.0273 8.92784 36.3238 9.25592L35.6045 9.96574C35.3837 9.71967 35.1187 9.53038 34.8095 9.39788C34.5067 9.26538 34.166 9.19913 33.7874 9.19913C33.3394 9.19913 32.9261 9.30641 32.5476 9.52092C32.169 9.72913 31.863 10.0257 31.6295 10.4106C31.4024 10.7891 31.2888 11.2371 31.2888 11.7545C31.2888 12.2719 31.4056 12.723 31.639 13.1079C31.8724 13.4865 32.1785 13.783 32.557 13.9975C32.9356 14.2057 33.3489 14.3099 33.7969 14.3099C34.207 14.3099 34.5792 14.2341 34.9136 14.0827C35.2481 13.925 35.5162 13.7041 35.7181 13.4202C35.9263 13.1363 36.0525 12.7956 36.0967 12.3981H33.7779V11.48H37.0715C37.1094 11.6504 37.1283 11.8302 37.1283 12.0195V12.029C37.1283 12.6852 36.9832 13.2593 36.6929 13.7515C36.409 14.2373 36.0147 14.6159 35.5099 14.8872C35.0051 15.1585 34.431 15.2941 33.7874 15.2941ZM40.1757 15.2941C39.6773 15.2941 39.2387 15.1806 38.8602 14.9534C38.4816 14.7263 38.1851 14.4203 37.9705 14.0354C37.756 13.6505 37.6487 13.2152 37.6487 12.7293C37.6487 12.2498 37.756 11.8176 37.9705 11.4327C38.1851 11.0415 38.4816 10.7323 38.8602 10.5052C39.2387 10.2781 39.6773 10.1645 40.1757 10.1645C40.6679 10.1645 41.1032 10.2781 41.4818 10.5052C41.8604 10.7323 42.1569 11.0415 42.3714 11.4327C42.586 11.8176 42.6932 12.2498 42.6932 12.7293C42.6932 13.2152 42.586 13.6505 42.3714 14.0354C42.1569 14.4203 41.8604 14.7263 41.4818 14.9534C41.1032 15.1806 40.6679 15.2941 40.1757 15.2941ZM40.1757 14.3572C40.4407 14.3572 40.6868 14.2941 40.9139 14.1679C41.1411 14.0354 41.3241 13.8493 41.4629 13.6095C41.608 13.3634 41.6805 13.07 41.6805 12.7293C41.6805 12.3886 41.608 12.0984 41.4629 11.8586C41.3241 11.6125 41.1411 11.4264 40.9139 11.3002C40.6868 11.1677 40.4407 11.1015 40.1757 11.1015C39.9107 11.1015 39.6615 11.1677 39.428 11.3002C39.2009 11.4264 39.0148 11.6125 38.8696 11.8586C38.7308 12.0984 38.6614 12.3886 38.6614 12.7293C38.6614 13.07 38.7308 13.3634 38.8696 13.6095C39.0148 13.8493 39.2009 14.0354 39.428 14.1679C39.6615 14.2941 39.9107 14.3572 40.1757 14.3572ZM45.9061 15.2941C45.4076 15.2941 44.9691 15.1806 44.5905 14.9534C44.2119 14.7263 43.9154 14.4203 43.7009 14.0354C43.4864 13.6505 43.3791 13.2152 43.3791 12.7293C43.3791 12.2498 43.4864 11.8176 43.7009 11.4327C43.9154 11.0415 44.2119 10.7323 44.5905 10.5052C44.9691 10.2781 45.4076 10.1645 45.9061 10.1645C46.3982 10.1645 46.8336 10.2781 47.2121 10.5052C47.5906 10.7323 47.8873 11.0415 48.1017 11.4327C48.3165 11.8176 48.4235 12.2498 48.4235 12.7293C48.4235 13.2152 48.3165 13.6505 48.1017 14.0354C47.8873 14.4203 47.5906 14.7263 47.2121 14.9534C46.8336 15.1806 46.3982 15.2941 45.9061 15.2941ZM45.9061 14.3572C46.1711 14.3572 46.4171 14.2941 46.6443 14.1679C46.8714 14.0354 47.0544 13.8493 47.1932 13.6095C47.3384 13.3634 47.4108 13.07 47.4108 12.7293C47.4108 12.3886 47.3384 12.0984 47.1932 11.8586C47.0544 11.6125 46.8714 11.4264 46.6443 11.3002C46.4171 11.1677 46.1711 11.1015 45.9061 11.1015C45.6411 11.1015 45.3919 11.1677 45.1584 11.3002C44.9312 11.4264 44.7451 11.6125 44.6 11.8586C44.4612 12.0984 44.3918 12.3886 44.3918 12.7293C44.3918 13.07 44.4612 13.3634 44.6 13.6095C44.7451 13.8493 44.9312 14.0354 45.1584 14.1679C45.3919 14.2941 45.6411 14.3572 45.9061 14.3572ZM51.542 17.3384C51.1189 17.3384 50.7531 17.269 50.4441 17.1302C50.1412 16.9977 49.8952 16.8242 49.7059 16.6097C49.5166 16.4015 49.3808 16.187 49.2989 15.9661L50.2453 15.5686C50.3461 15.821 50.507 16.0261 50.728 16.1838C50.9552 16.3479 51.2263 16.4299 51.542 16.4299C51.9835 16.4299 52.3303 16.2974 52.583 16.0324C52.8414 15.7674 52.9711 15.392 52.9711 14.9061V14.4424H52.9143C52.7629 14.6695 52.5513 14.8525 52.2802 14.9913C52.0152 15.1238 51.7123 15.19 51.3716 15.19C50.9613 15.19 50.5861 15.0859 50.2453 14.8777C49.9046 14.6695 49.6302 14.3793 49.422 14.007C49.2137 13.6284 49.1096 13.1868 49.1096 12.682C49.1096 12.1709 49.2137 11.7293 49.422 11.357C49.6302 10.9784 49.9046 10.685 50.2453 10.4768C50.5861 10.2686 50.9613 10.1645 51.3716 10.1645C51.7123 10.1645 52.0152 10.2339 52.2802 10.3727C52.5513 10.5115 52.7629 10.6945 52.9143 10.9216H52.9711V10.3159H53.9459V14.8872C53.9459 15.4109 53.8418 15.8557 53.6336 16.2216C53.4315 16.5876 53.1509 16.8652 52.7912 17.0545C52.4316 17.2438 52.0152 17.3384 51.542 17.3384ZM51.5514 14.2625C51.8036 14.2625 52.0369 14.2026 52.2518 14.0827C52.4661 13.9565 52.6398 13.7767 52.7723 13.5432C52.9048 13.3035 52.9711 13.0164 52.9711 12.682C52.9711 12.335 52.9048 12.0447 52.7723 11.8113C52.6398 11.5715 52.4661 11.3917 52.2518 11.2718C52.0369 11.1519 51.8036 11.092 51.5514 11.092C51.2987 11.092 51.0621 11.1551 50.8416 11.2813C50.6268 11.4011 50.4536 11.5778 50.3211 11.8113C50.1886 12.0447 50.1223 12.335 50.1223 12.682C50.1223 13.0227 50.1886 13.3129 50.3211 13.5527C50.4536 13.7861 50.6268 13.9628 50.8416 14.0827C51.0621 14.2026 51.2987 14.2625 51.5514 14.2625ZM55.1512 15.1427V8.36627H56.1733V15.1427H55.1512ZM59.5374 15.2941C59.0642 15.2941 58.6411 15.1837 58.2692 14.9629C57.8968 14.742 57.6034 14.4392 57.389 14.0543C57.1808 13.6695 57.0767 13.2309 57.0767 12.7388C57.0767 12.2782 57.1775 11.8523 57.3795 11.4611C57.5811 11.0699 57.8622 10.7576 58.2219 10.5241C58.5877 10.2844 59.0074 10.1645 59.4806 10.1645C59.9789 10.1645 60.4015 10.2718 60.7488 10.4863C61.1019 10.7008 61.3702 10.9942 61.5533 11.3665C61.736 11.7387 61.8278 12.1583 61.8278 12.6252C61.8278 12.6946 61.8244 12.7577 61.8183 12.8145C61.8183 12.8713 61.815 12.9154 61.8088 12.947H58.0799C58.1301 13.4265 58.2976 13.7861 58.5815 14.0259C58.8716 14.2657 59.1995 14.3856 59.5658 14.3856C59.8937 14.3856 60.1649 14.313 60.3797 14.1679C60.5941 14.0165 60.7645 13.8303 60.8908 13.6095L61.7331 14.0165C61.5249 14.395 61.241 14.7042 60.8813 14.944C60.5217 15.1774 60.0736 15.2941 59.5374 15.2941ZM59.4901 11.0352C59.1494 11.0352 58.8588 11.1393 58.6194 11.3475C58.3794 11.5557 58.2186 11.8334 58.1367 12.1804H60.8151C60.8023 12.0163 60.7488 11.846 60.6542 11.6693C60.5595 11.4927 60.4143 11.3444 60.2188 11.2245C60.0295 11.0983 59.7863 11.0352 59.4901 11.0352ZM67.256 15.2941C66.7894 15.2941 66.3825 15.19 66.0351 14.9818C65.6883 14.7736 65.4171 14.4865 65.2212 14.1206C65.0258 13.7483 64.9278 13.3224 64.9278 12.8429V8.36627H65.9499V12.8618C65.9499 13.3161 66.0763 13.682 66.3285 13.9597C66.5812 14.231 66.8869 14.3666 67.2466 14.3666C67.5116 14.3666 67.7453 14.3099 67.9469 14.1963C68.149 14.0827 68.3066 13.9313 68.4201 13.742C68.5337 13.5527 68.5905 13.3413 68.5905 13.1079C68.5905 12.8303 68.5053 12.5621 68.335 12.3034L68.0699 11.8965C67.9374 11.7009 67.8366 11.499 67.7671 11.2907C67.698 11.0825 67.6663 10.8365 67.6724 10.5525H68.6946C68.6884 10.7102 68.7074 10.8648 68.7514 11.0163C68.802 11.1677 68.8716 11.3097 68.9596 11.4422L69.2435 11.8681C69.3637 12.0384 69.4517 12.2277 69.5085 12.4359C69.5719 12.6378 69.6032 12.8555 69.6032 13.089C69.6032 13.4865 69.5057 13.8524 69.3098 14.1868C69.1205 14.5212 68.8493 14.7894 68.4958 14.9913C68.1428 15.1932 67.7292 15.2941 67.256 15.2941ZM72.3852 15.2941C71.9811 15.2941 71.612 15.2121 71.2779 15.0481C70.9495 14.884 70.6878 14.6569 70.4923 14.3666C70.303 14.0701 70.2084 13.7231 70.2084 13.3256C70.2084 13.2246 70.2146 13.1236 70.2273 13.0227C70.2463 12.9154 70.2713 12.8145 70.3031 12.7199L71.2684 12.8713C71.2429 13.0164 71.2305 13.1426 71.2305 13.2499C71.2305 13.6095 71.3408 13.8871 71.5618 14.0827C71.7823 14.2783 72.0539 14.3761 72.3757 14.3761C72.7098 14.3761 72.9843 14.2815 73.1991 14.0922C73.4196 13.8966 73.5304 13.6442 73.5304 13.335C73.5304 13.1584 73.4954 13.007 73.4263 12.8807C73.3629 12.7482 73.2843 12.6378 73.1897 12.5495C73.1012 12.4549 73.0255 12.3791 72.9625 12.3224L72.565 12.01C72.3819 11.8649 72.2177 11.6788 72.0729 11.4516C71.9337 11.2182 71.8647 10.9185 71.8647 10.5525H72.8868C72.8868 10.7544 72.937 10.9248 73.0382 11.0636C73.1452 11.2024 73.2654 11.3286 73.3979 11.4422L73.8048 11.7829C74.0003 11.947 74.1706 12.1488 74.3159 12.3886C74.4673 12.622 74.5431 12.9438 74.5431 13.354C74.5431 13.7325 74.4484 14.067 74.2591 14.3572C74.0698 14.6474 73.811 14.8777 73.4831 15.0481C73.1613 15.2121 72.795 15.2941 72.3852 15.2941ZM79.536 17.3384C79.0183 17.3384 78.5578 17.2627 78.1542 17.1113C77.7567 16.9599 77.4472 16.739 77.2267 16.4488C77.0118 16.1586 76.9205 15.8115 76.9522 15.4077L77.9933 15.455C77.9866 15.6695 78.0529 15.8494 78.192 15.9945C78.3307 16.1459 78.52 16.2595 78.7599 16.3352C78.9993 16.4109 79.2676 16.4488 79.5643 16.4488C80.0309 16.4488 80.4034 16.3415 80.6811 16.127C80.9584 15.9125 81.0976 15.6475 81.0976 15.332C81.0976 15.0544 81.0029 14.8241 80.8136 14.6411C80.6305 14.4581 80.3877 14.3635 80.0849 14.3572L79.9618 14.3477V13.4391H80.2363C80.5453 13.4391 80.7914 13.3508 80.9745 13.1741C81.1638 12.9911 81.2585 12.7325 81.2585 12.3981C81.2585 12.0511 81.1733 11.7861 81.0029 11.6031C80.8387 11.4201 80.621 11.3286 80.3499 11.3286C80.0849 11.3286 79.87 11.4169 79.7063 11.5936C79.5421 11.764 79.4602 12.0195 79.4602 12.3602V12.7293C79.4602 13.1079 79.3684 13.4518 79.1858 13.7609C79.0088 14.0638 78.7599 14.3067 78.4381 14.4897C78.1163 14.6663 77.7472 14.7547 77.3308 14.7547C76.9077 14.7547 76.5358 14.6632 76.214 14.4802C75.8922 14.2972 75.6395 14.0417 75.4568 13.7136C75.2799 13.3855 75.1918 13.0101 75.1918 12.5874C75.1918 12.1646 75.2799 11.7892 75.4568 11.4611C75.6395 11.1267 75.8889 10.868 76.2045 10.685C76.5263 10.4957 76.8954 10.4011 77.3118 10.4011C77.6587 10.4011 77.9743 10.4768 78.2583 10.6282C78.5484 10.7734 78.7627 10.9784 78.9018 11.2434H78.9302C79.0561 10.9784 79.2454 10.7734 79.4981 10.6282C79.7565 10.4768 80.0626 10.4011 80.4161 10.4011C80.7692 10.4011 81.0848 10.4768 81.3626 10.6282C81.6465 10.7734 81.8703 10.9879 82.0345 11.2718C82.1983 11.5494 82.2806 11.887 82.2806 12.2845C82.2806 12.7514 82.1765 13.1142 81.9683 13.3729C81.7601 13.6316 81.514 13.8082 81.2301 13.9029V13.9597C81.514 14.0606 81.7317 14.2373 81.8831 14.4897C82.0345 14.7358 82.1102 15.0228 82.1102 15.3509C82.1102 15.7358 82.0061 16.0765 81.7979 16.3731C81.5897 16.6759 81.293 16.9125 80.9083 17.0829C80.5231 17.2533 80.066 17.3384 79.536 17.3384ZM77.3308 13.8461C77.6587 13.8461 77.9299 13.7325 78.1447 13.5054C78.3591 13.2782 78.4665 12.9722 78.4665 12.5874C78.4665 12.1961 78.3591 11.887 78.1447 11.6599C77.9299 11.4327 77.6587 11.3191 77.3308 11.3191C76.9962 11.3191 76.7217 11.4327 76.5074 11.6599C76.2925 11.887 76.1856 12.1961 76.1856 12.5874C76.1856 12.9722 76.2925 13.2782 76.5074 13.5054C76.7279 13.7325 77.0024 13.8461 77.3308 13.8461ZM85.2552 17.3384C84.8133 17.3384 84.4191 17.2438 84.0722 17.0545C83.7249 16.8652 83.4537 16.6034 83.2583 16.269C83.0624 15.9409 82.9649 15.5654 82.9649 15.1427C82.9649 14.8462 83.0217 14.5465 83.1352 14.2436L84.0817 14.4518C84.0121 14.6727 83.9776 14.8872 83.9776 15.0954C83.9776 15.455 84.0878 15.7611 84.3088 16.0134C84.5359 16.2721 84.8511 16.4015 85.2552 16.4015C85.621 16.4015 85.93 16.2784 86.1827 16.0324C86.435 15.7863 86.5613 15.4424 86.5613 15.0008V12.0195C86.5613 11.805 86.5012 11.6346 86.3815 11.5084C86.2679 11.3759 86.1037 11.3097 85.8893 11.3097C85.6745 11.3097 85.5108 11.3759 85.3972 11.5084C85.2898 11.6346 85.2363 11.805 85.2363 12.0195V13.1836H84.2331V12.0763C84.2331 11.8491 84.1697 11.6819 84.0438 11.5747C83.9236 11.4674 83.7627 11.4138 83.5611 11.4138H82.9649V10.4579H83.6463C83.8857 10.4579 84.1006 10.5052 84.2899 10.5998C84.4792 10.6945 84.6211 10.8396 84.7158 11.0352H84.7726C84.8795 10.8396 85.0404 10.685 85.2552 10.5715C85.4696 10.4579 85.7284 10.4011 86.0313 10.4011C86.3214 10.4011 86.5802 10.4642 86.8074 10.5904C87.0407 10.7102 87.2238 10.8869 87.3563 11.1204C87.495 11.3538 87.5645 11.6315 87.5645 11.9532V14.9629C87.5645 15.4298 87.4666 15.8399 87.2711 16.1933C87.0818 16.5529 86.8135 16.8337 86.4667 17.0356C86.1193 17.2375 85.7157 17.3384 85.2552 17.3384ZM93.7272 17.187C93.7083 16.9409 93.6042 16.7327 93.4149 16.5624C93.2318 16.3983 92.989 16.2721 92.6861 16.1838C92.3894 16.0954 92.0582 16.0513 91.6924 16.0513C91.4023 16.0513 91.1056 16.086 90.8027 16.1554C90.4999 16.2311 90.2126 16.3384 89.9415 16.4772L89.5629 15.7958C89.8468 15.638 90.1152 15.5308 90.3674 15.474V15.4172C90.0016 15.3036 89.6703 15.1301 89.3736 14.8966C89.0835 14.6569 88.8531 14.354 88.6827 13.9881C88.5124 13.6158 88.4239 13.1804 88.4177 12.682C88.4116 12.1772 88.4901 11.7577 88.6543 11.4232C88.8247 11.0825 89.0457 10.827 89.3168 10.6566C89.5946 10.4863 89.8975 10.4011 90.2254 10.4011C90.4715 10.4011 90.7209 10.4673 90.9731 10.5998C91.2319 10.7261 91.4307 10.9469 91.5693 11.2623H91.6261C91.7459 10.9595 91.9195 10.7418 92.1467 10.6093C92.38 10.4705 92.6388 10.4011 92.9227 10.4011C93.2067 10.4011 93.4655 10.4705 93.6988 10.6093C93.9321 10.7418 94.1058 10.9595 94.2193 11.2623H94.2761C94.4086 10.9595 94.5946 10.7418 94.8345 10.6093C95.0745 10.4705 95.3361 10.4011 95.6201 10.4011C95.948 10.4011 96.248 10.4863 96.5192 10.6566C96.797 10.827 97.0175 11.0825 97.1817 11.4232C97.3459 11.7577 97.4277 12.1741 97.4277 12.6725C97.4277 13.089 97.3743 13.4865 97.2669 13.865C97.1661 14.2436 97.0364 14.578 96.8788 14.8682L95.9135 14.6506C96.071 14.3351 96.1941 14.0165 96.2826 13.6947C96.3711 13.3729 96.4151 13.0385 96.4151 12.6915C96.4151 12.2813 96.3332 11.9564 96.169 11.7166C96.0114 11.4706 95.8032 11.3475 95.5444 11.3475C95.2983 11.3475 95.0995 11.4359 94.9481 11.6125C94.8028 11.7892 94.7304 12.0668 94.7304 12.4454V13.7893H93.7272V12.3507C93.7272 12.0227 93.6482 11.7734 93.4906 11.6031C93.3392 11.4327 93.1499 11.3475 92.9227 11.3475C92.6828 11.3475 92.4841 11.4327 92.3265 11.6031C92.1751 11.7734 92.0993 12.0227 92.0993 12.3507V13.7893H91.0867V12.4454C91.0867 12.0795 91.011 11.805 90.8595 11.622C90.7142 11.439 90.5283 11.3475 90.3011 11.3475C90.03 11.3475 89.8151 11.4643 89.6576 11.6977C89.5061 11.9311 89.4304 12.2656 89.4304 12.7009C89.4366 13.9944 90.1719 14.7768 91.6356 15.0481L92.6483 15.2374C93.254 15.3509 93.74 15.5749 94.1058 15.9093C94.4716 16.2437 94.6831 16.6696 94.7399 17.187H93.7272ZM100.375 17.3384C99.9334 17.3384 99.5392 17.2438 99.1919 17.0545C98.845 16.8652 98.5739 16.6034 98.378 16.269C98.1825 15.9409 98.0846 15.5654 98.0846 15.1427C98.0846 14.8462 98.1414 14.5465 98.2549 14.2436L99.2014 14.4518C99.1323 14.6727 99.0973 14.8872 99.0973 15.0954C99.0973 15.455 99.208 15.7611 99.4285 16.0134C99.6557 16.2721 99.9713 16.4015 100.375 16.4015C100.741 16.4015 101.05 16.2784 101.302 16.0324C101.555 15.7863 101.681 15.4424 101.681 15.0008V12.559C101.681 12.1804 101.565 11.8838 101.331 11.6693C101.098 11.4485 100.801 11.3381 100.441 11.3381C100.233 11.3381 100.034 11.3822 99.8449 11.4706C99.6623 11.5589 99.5137 11.6851 99.4001 11.8491C99.2865 12.0132 99.2298 12.212 99.2298 12.4454C99.2298 12.5716 99.2458 12.7009 99.2771 12.8334L98.2928 12.9565C98.2488 12.7735 98.2265 12.5811 98.2265 12.3791C98.2265 11.9816 98.3245 11.6346 98.5199 11.3381C98.722 11.0415 98.9903 10.8112 99.3244 10.6472C99.659 10.4831 100.031 10.4011 100.441 10.4011C100.883 10.4011 101.271 10.4894 101.605 10.6661C101.946 10.8428 102.211 11.0983 102.4 11.4327C102.59 11.7608 102.684 12.152 102.684 12.6063V14.9629C102.684 15.4298 102.587 15.8399 102.391 16.1933C102.195 16.5529 101.924 16.8337 101.577 17.0356C101.236 17.2375 100.836 17.3384 100.375 17.3384ZM105.981 15.2941C105.495 15.2941 105.072 15.1869 104.712 14.9724C104.359 14.7515 104.084 14.4581 103.889 14.0922C103.693 13.7262 103.596 13.3256 103.596 12.8902C103.596 12.4422 103.69 12.0384 103.88 11.6788C104.069 11.3191 104.331 11.0352 104.665 10.827C104.999 10.6125 105.381 10.5052 105.81 10.5052C106.151 10.5052 106.441 10.5809 106.681 10.7323C106.927 10.8838 107.123 11.0573 107.268 11.2529H107.325L107.287 10.7418V9.8427C107.287 9.63449 107.23 9.46413 107.116 9.33163C107.003 9.19284 106.832 9.12342 106.605 9.12342C106.39 9.12342 106.227 9.1865 106.113 9.3127C106.006 9.43257 105.952 9.584 105.952 9.76699V10.0131H104.949V9.78592C104.949 9.56507 104.886 9.40418 104.76 9.30324C104.64 9.2023 104.479 9.15181 104.277 9.15181C104.126 9.15181 103.996 9.16757 103.889 9.19913C103.782 9.22435 103.687 9.25275 103.605 9.28431V8.31895C103.693 8.29373 103.801 8.27163 103.927 8.2527C104.053 8.22748 104.201 8.21484 104.372 8.21484C104.611 8.21484 104.823 8.26846 105.006 8.37574C105.195 8.47667 105.347 8.63127 105.46 8.83949H105.517C105.63 8.64391 105.791 8.49248 106 8.3852C106.214 8.27163 106.476 8.21484 106.785 8.21484C107.062 8.21484 107.315 8.27792 107.542 8.40413C107.769 8.53034 107.949 8.71016 108.082 8.94359C108.22 9.17703 108.29 9.45467 108.29 9.77645V12.8334C108.29 13.2877 108.192 13.701 107.997 14.0732C107.801 14.4455 107.529 14.742 107.183 14.9629C106.835 15.1837 106.435 15.2941 105.981 15.2941ZM105.971 14.3572C106.217 14.3572 106.444 14.2972 106.653 14.1774C106.861 14.0575 107.028 13.8871 107.154 13.6663C107.28 13.4454 107.343 13.1868 107.343 12.8902C107.343 12.5936 107.277 12.3381 107.145 12.1236C107.018 11.9028 106.851 11.7324 106.643 11.6125C106.441 11.4927 106.22 11.4327 105.981 11.4327C105.735 11.4327 105.507 11.4927 105.299 11.6125C105.091 11.7324 104.923 11.9028 104.798 12.1236C104.671 12.3381 104.608 12.5936 104.608 12.8902C104.608 13.1868 104.671 13.4454 104.798 13.6663C104.923 13.8808 105.091 14.0511 105.299 14.1774C105.507 14.2972 105.731 14.3572 105.971 14.3572ZM109.698 15.1427C109.552 14.8525 109.423 14.5086 109.31 14.1111C109.196 13.7073 109.139 13.2782 109.139 12.824C109.139 12.3381 109.234 11.9154 109.423 11.5557C109.619 11.1898 109.887 10.9059 110.228 10.704C110.575 10.502 110.982 10.4011 111.449 10.4011C111.909 10.4011 112.313 10.502 112.66 10.704C113.014 10.9059 113.288 11.1898 113.483 11.5557C113.679 11.9154 113.777 12.3381 113.777 12.824C113.777 13.2782 113.72 13.7073 113.607 14.1111C113.493 14.5086 113.364 14.8525 113.218 15.1427H112.168C112.363 14.7578 112.512 14.3793 112.613 14.007C112.72 13.6284 112.774 13.2372 112.774 12.8334C112.774 12.3476 112.644 11.9753 112.386 11.7166C112.127 11.4579 111.814 11.3286 111.449 11.3286C111.089 11.3286 110.786 11.4579 110.54 11.7166C110.294 11.969 110.168 12.3413 110.162 12.8334C110.155 13.2309 110.199 13.619 110.294 13.9975C110.395 14.3698 110.546 14.7515 110.748 15.1427H109.698Z" fill="white"/>
<path d="M121.634 17.187C121.602 16.8904 121.444 16.657 121.16 16.4866C120.876 16.3226 120.539 16.2406 120.148 16.2406C119.864 16.2406 119.599 16.2753 119.353 16.3447C119.107 16.4204 118.854 16.5277 118.596 16.6665L118.217 15.985C118.514 15.821 118.798 15.7137 119.069 15.6633V15.6065C118.728 15.474 118.419 15.272 118.141 15.0008C117.87 14.7295 117.652 14.4045 117.488 14.0259C117.324 13.6411 117.242 13.2246 117.242 12.7766C117.242 12.2719 117.327 11.8428 117.498 11.4895C117.674 11.1298 117.908 10.8586 118.198 10.6756C118.488 10.4926 118.81 10.4011 119.163 10.4011C119.485 10.4011 119.775 10.48 120.034 10.6377C120.293 10.7891 120.488 11.0131 120.621 11.3097H120.668C120.826 11.0131 121.05 10.7891 121.34 10.6377C121.637 10.48 121.974 10.4011 122.353 10.4011C122.782 10.4011 123.161 10.502 123.489 10.704C123.817 10.8995 124.072 11.1709 124.255 11.5179C124.438 11.8586 124.53 12.2529 124.53 12.7009C124.53 13.1489 124.438 13.5464 124.255 13.8934C124.072 14.2341 123.814 14.5054 123.479 14.7074C123.151 14.9029 122.769 15.0008 122.334 15.0008C121.899 15.0008 121.514 14.9029 121.179 14.7074C120.845 14.5118 120.583 14.2468 120.394 13.9124C120.205 13.5716 120.11 13.1868 120.11 12.7577V12.4927C120.11 12.1078 120.028 11.8207 119.864 11.6315C119.7 11.4359 119.491 11.3381 119.239 11.3381C118.942 11.3381 118.703 11.4611 118.52 11.7072C118.343 11.9532 118.255 12.3097 118.255 12.7766C118.255 13.4265 118.441 13.9723 118.813 14.414C119.192 14.8556 119.7 15.1585 120.337 15.3225L120.952 15.4834C121.476 15.6159 121.876 15.8273 122.154 16.1175C122.438 16.4078 122.602 16.7643 122.646 17.187H121.634ZM122.325 14.0732C122.659 14.0732 122.943 13.9534 123.176 13.7136C123.416 13.4675 123.536 13.13 123.536 12.7009C123.536 12.2719 123.416 11.9375 123.176 11.6977C122.943 11.4516 122.659 11.3286 122.325 11.3286C121.99 11.3286 121.703 11.4516 121.463 11.6977C121.223 11.9375 121.104 12.2719 121.104 12.7009C121.104 13.13 121.223 13.4675 121.463 13.7136C121.703 13.9534 121.99 14.0732 122.325 14.0732ZM127.31 15.2941C126.906 15.2941 126.537 15.2121 126.203 15.0481C125.875 14.884 125.612 14.6569 125.417 14.3666C125.228 14.0701 125.133 13.7231 125.133 13.3256C125.133 13.2246 125.139 13.1236 125.152 13.0227C125.171 12.9154 125.196 12.8145 125.228 12.7199L126.193 12.8713C126.168 13.0164 126.155 13.1426 126.155 13.2499C126.155 13.6095 126.265 13.8871 126.486 14.0827C126.707 14.2783 126.979 14.3761 127.3 14.3761C127.635 14.3761 127.909 14.2815 128.124 14.0922C128.345 13.8966 128.455 13.6442 128.455 13.335C128.455 13.1584 128.42 13.007 128.351 12.8807C128.288 12.7482 128.209 12.6378 128.114 12.5495C128.026 12.4549 127.95 12.3791 127.887 12.3224L127.49 12.01C127.307 11.8649 127.143 11.6788 126.998 11.4516C126.859 11.2182 126.789 10.9185 126.789 10.5525H127.811C127.811 10.7544 127.862 10.9248 127.963 11.0636C128.07 11.2024 128.19 11.3286 128.323 11.4422L128.729 11.7829C128.925 11.947 129.095 12.1488 129.241 12.3886C129.392 12.622 129.468 12.9438 129.468 13.354C129.468 13.7325 129.373 14.067 129.184 14.3572C128.994 14.6474 128.736 14.8777 128.408 15.0481C128.086 15.2121 127.72 15.2941 127.31 15.2941ZM132.539 15.2941C132.053 15.2941 131.631 15.1837 131.271 14.9629C130.918 14.742 130.643 14.4487 130.448 14.0827C130.252 13.7104 130.154 13.2972 130.154 12.8429C130.154 12.3823 130.249 11.969 130.438 11.6031C130.628 11.2308 130.889 10.9374 131.224 10.7229C131.558 10.5084 131.94 10.4011 132.369 10.4011C132.71 10.4011 133 10.4768 133.24 10.6282C133.48 10.7797 133.669 10.9532 133.808 11.1488H133.864L133.845 10.6472V10.3348C133.845 9.95628 133.716 9.65971 133.457 9.4452C133.205 9.23069 132.899 9.12342 132.539 9.12342C132.205 9.12342 131.921 9.20542 131.688 9.36949C131.46 9.52721 131.296 9.7323 131.195 9.98467L130.268 9.58717C130.344 9.36632 130.479 9.15181 130.675 8.94359C130.877 8.72909 131.132 8.55556 131.441 8.42306C131.75 8.28426 132.117 8.21484 132.539 8.21484C132.962 8.21484 133.347 8.30002 133.694 8.47038C134.047 8.63444 134.328 8.88051 134.536 9.2086C134.745 9.53668 134.849 9.93418 134.849 10.4011V12.7861C134.849 13.253 134.751 13.6789 134.555 14.0638C134.36 14.4424 134.088 14.742 133.741 14.9629C133.394 15.1837 132.994 15.2941 132.539 15.2941ZM132.53 14.3572C132.776 14.3572 133.003 14.2941 133.211 14.1679C133.42 14.0417 133.587 13.865 133.713 13.6379C133.839 13.4107 133.902 13.1457 133.902 12.8429C133.902 12.54 133.836 12.275 133.703 12.0479C133.577 11.8207 133.41 11.6472 133.202 11.5274C133 11.4011 132.779 11.3381 132.539 11.3381C132.293 11.3381 132.066 11.4011 131.858 11.5274C131.65 11.6472 131.483 11.8207 131.356 12.0479C131.23 12.275 131.167 12.54 131.167 12.8429C131.167 13.1457 131.23 13.4107 131.356 13.6379C131.483 13.865 131.65 14.0417 131.858 14.1679C132.066 14.2941 132.29 14.3572 132.53 14.3572ZM137.8 15.2941C137.396 15.2941 137.027 15.2121 136.693 15.0481C136.365 14.884 136.103 14.6569 135.907 14.3666C135.718 14.0701 135.623 13.7231 135.623 13.3256C135.623 13.2246 135.629 13.1236 135.642 13.0227C135.661 12.9154 135.686 12.8145 135.718 12.7199L136.683 12.8713C136.658 13.0164 136.645 13.1426 136.645 13.2499C136.645 13.6095 136.756 13.8871 136.977 14.0827C137.198 14.2783 137.469 14.3761 137.791 14.3761C138.125 14.3761 138.4 14.2815 138.614 14.0922C138.835 13.8966 138.945 13.6442 138.945 13.335C138.945 13.1584 138.911 13.007 138.841 12.8807C138.778 12.7482 138.699 12.6378 138.605 12.5495C138.516 12.4549 138.44 12.3791 138.377 12.3224L137.98 12.01C137.797 11.8649 137.633 11.6788 137.488 11.4516C137.349 11.2182 137.28 10.9185 137.28 10.5525H138.302C138.302 10.7544 138.352 10.9248 138.453 11.0636C138.561 11.2024 138.68 11.3286 138.813 11.4422L139.22 11.7829C139.415 11.947 139.586 12.1488 139.731 12.3886C139.882 12.622 139.958 12.9438 139.958 13.354C139.958 13.7325 139.863 14.067 139.674 14.3572C139.485 14.6474 139.226 14.8777 138.898 15.0481C138.576 15.2121 138.21 15.2941 137.8 15.2941ZM143.948 17.3384C143.468 17.3384 143.02 17.2501 142.604 17.0734C142.193 16.8968 141.834 16.6475 141.525 16.3258C141.216 16.0103 140.976 15.6443 140.805 15.2279C140.635 14.8115 140.55 14.3635 140.55 13.884C140.55 13.2972 140.673 12.764 140.919 12.2845C141.171 11.7986 141.515 11.398 141.951 11.0825C142.386 10.767 142.884 10.5683 143.446 10.4863V9.38842H144.449V10.4863C145.011 10.5683 145.509 10.767 145.945 11.0825C146.38 11.398 146.724 11.7986 146.976 12.2845C147.228 12.764 147.355 13.2972 147.355 13.884C147.355 14.3635 147.266 14.8115 147.09 15.2279C146.919 15.6443 146.679 16.0103 146.37 16.3258C146.068 16.6475 145.708 16.8968 145.292 17.0734C144.881 17.2501 144.434 17.3384 143.948 17.3384ZM143.446 13.9597V12.1236C143.446 11.8586 143.465 11.6157 143.503 11.3948C143.137 11.4643 142.806 11.6062 142.509 11.8207C142.219 12.0353 141.989 12.3192 141.818 12.6725C141.648 13.0195 141.563 13.4234 141.563 13.884C141.563 14.395 141.67 14.8367 141.884 15.209C142.099 15.5875 142.386 15.8809 142.746 16.0891C143.111 16.2974 143.512 16.4015 143.948 16.4015C144.383 16.4015 144.78 16.2974 145.14 16.0891C145.506 15.8809 145.796 15.5875 146.011 15.209C146.232 14.8367 146.342 14.395 146.342 13.884C146.342 13.4234 146.254 13.0195 146.077 12.6725C145.907 12.3192 145.673 12.0353 145.377 11.8207C145.087 11.6062 144.758 11.4643 144.392 11.3948C144.43 11.6094 144.449 11.8428 144.449 12.0952V13.9597H143.446ZM150.244 17.3384C149.803 17.3384 149.408 17.2438 149.061 17.0545C148.714 16.8652 148.443 16.6034 148.247 16.269C148.052 15.9409 147.954 15.5654 147.954 15.1427C147.954 14.8462 148.011 14.5465 148.124 14.2436L149.071 14.4518C149.001 14.6727 148.967 14.8872 148.967 15.0954C148.967 15.455 149.077 15.7611 149.298 16.0134C149.525 16.2721 149.841 16.4015 150.244 16.4015C150.61 16.4015 150.919 16.2784 151.172 16.0324C151.424 15.7863 151.55 15.4424 151.55 15.0008V12.559C151.55 12.1804 151.433 11.8838 151.2 11.6693C150.967 11.4485 150.67 11.3381 150.31 11.3381C150.102 11.3381 149.904 11.3822 149.714 11.4706C149.531 11.5589 149.383 11.6851 149.269 11.8491C149.156 12.0132 149.099 12.212 149.099 12.4454C149.099 12.5716 149.115 12.7009 149.146 12.8334L148.162 12.9565C148.118 12.7735 148.096 12.5811 148.096 12.3791C148.096 11.9816 148.194 11.6346 148.389 11.3381C148.591 11.0415 148.859 10.8112 149.194 10.6472C149.528 10.4831 149.9 10.4011 150.31 10.4011C150.752 10.4011 151.14 10.4894 151.475 10.6661C151.815 10.8428 152.08 11.0983 152.27 11.4327C152.459 11.7608 152.554 12.152 152.554 12.6063V14.9629C152.554 15.4298 152.456 15.8399 152.26 16.1933C152.065 16.5529 151.793 16.8337 151.446 17.0356C151.105 17.2375 150.705 17.3384 150.244 17.3384ZM155.821 15.2941C155.348 15.2941 154.929 15.1869 154.562 14.9724C154.197 14.7515 153.909 14.4581 153.701 14.0922C153.499 13.7199 153.398 13.3066 153.398 12.8524C153.398 12.4296 153.483 12.0479 153.654 11.7072C153.824 11.3602 154.064 11.0762 154.373 10.8554C154.683 10.6345 155.042 10.4957 155.452 10.439V10.174C155.452 10.0352 155.44 9.92159 155.414 9.83324C155.389 9.74489 155.313 9.65659 155.187 9.56824L154.931 9.39788C154.755 9.28431 154.638 9.14234 154.581 8.97199C154.531 8.79534 154.509 8.59342 154.515 8.36627H155.528C155.528 8.48614 155.544 8.58712 155.575 8.66913C155.613 8.74484 155.695 8.83002 155.821 8.92467L156.067 9.09502C156.231 9.2086 156.339 9.3411 156.389 9.49252C156.44 9.64395 156.465 9.82378 156.465 10.032V10.4957C156.824 10.5841 157.137 10.7418 157.402 10.969C157.673 11.1898 157.881 11.4611 158.026 11.7829C158.172 12.1047 158.244 12.4611 158.244 12.8524C158.244 13.3066 158.14 13.7199 157.932 14.0922C157.73 14.4581 157.446 14.7515 157.08 14.9724C156.72 15.1869 156.301 15.2941 155.821 15.2941ZM155.831 14.3572C156.077 14.3572 156.307 14.2972 156.521 14.1774C156.736 14.0575 156.907 13.8871 157.032 13.6663C157.165 13.4391 157.231 13.1678 157.231 12.8524C157.231 12.5306 157.165 12.2593 157.032 12.0384C156.907 11.8113 156.736 11.6378 156.521 11.5179C156.307 11.398 156.077 11.3381 155.831 11.3381C155.578 11.3381 155.345 11.398 155.13 11.5179C154.916 11.6315 154.742 11.8018 154.61 12.029C154.477 12.2561 154.411 12.5306 154.411 12.8524C154.411 13.1678 154.477 13.4391 154.61 13.6663C154.742 13.8871 154.916 14.0575 155.13 14.1774C155.345 14.2972 155.578 14.3572 155.831 14.3572ZM161.026 15.2941C160.623 15.2941 160.254 15.2121 159.919 15.0481C159.591 14.884 159.329 14.6569 159.134 14.3666C158.944 14.0701 158.85 13.7231 158.85 13.3256C158.85 13.2246 158.856 13.1236 158.869 13.0227C158.888 12.9154 158.913 12.8145 158.944 12.7199L159.91 12.8713C159.885 13.0164 159.872 13.1426 159.872 13.2499C159.872 13.6095 159.982 13.8871 160.203 14.0827C160.424 14.2783 160.695 14.3761 161.017 14.3761C161.352 14.3761 161.626 14.2815 161.84 14.0922C162.061 13.8966 162.172 13.6442 162.172 13.335C162.172 13.1584 162.137 13.007 162.068 12.8807C162.005 12.7482 161.926 12.6378 161.831 12.5495C161.742 12.4549 161.667 12.3791 161.604 12.3224L161.206 12.01C161.023 11.8649 160.859 11.6788 160.714 11.4516C160.575 11.2182 160.506 10.9185 160.506 10.5525H161.528C161.528 10.7544 161.579 10.9248 161.679 11.0636C161.787 11.2024 161.907 11.3286 162.039 11.4422L162.446 11.7829C162.642 11.947 162.812 12.1488 162.957 12.3886C163.109 12.622 163.184 12.9438 163.184 13.354C163.184 13.7325 163.09 14.067 162.9 14.3572C162.711 14.6474 162.452 14.8777 162.124 15.0481C161.803 15.2121 161.437 15.2941 161.026 15.2941Z" fill="white"/>
<path d="M161.841 0.236328H11.8321C5.42899 0.236328 0.238281 5.42704 0.238281 11.8301C0.238281 18.2332 5.42899 23.4239 11.8321 23.4239H161.841C168.244 23.4239 173.435 18.2332 173.435 11.8301C173.435 5.42704 168.244 0.236328 161.841 0.236328Z" stroke="#747775"/>
</g>
<defs>
<linearGradient id="paint0_linear_568_538" x1="16.3592" y1="14.5684" x2="8.86373" y2="23.1464" gradientUnits="userSpaceOnUse">
<stop stop-color="#4285F4"/>
<stop offset="1" stop-color="#1B74E8"/>
</linearGradient>
<clipPath id="clip0_568_538">
<rect width="173.67" height="23.6608" fill="white"/>
</clipPath>
</defs>
</svg>
