<svg width="174" height="40" viewBox="0 0 174 40" fill="none" xmlns="http://www.w3.org/2000/svg">
<g clip-path="url(#clip0_568_258)">
<path d="M153.687 0.363281H19.9829C9.14729 0.363281 0.363281 9.14728 0.363281 19.9829C0.363281 30.8185 9.14729 39.6025 19.9829 39.6025H153.687C164.523 39.6025 173.307 30.8185 173.307 19.9829C173.307 9.14728 164.523 0.363281 153.687 0.363281Z" fill="#1F1F1F"/>
<path d="M41.4173 17.2876H15.2578V13.1853C15.2578 10.9584 17.1778 9.08301 19.4577 9.08301H37.2174C39.4973 9.08301 41.4173 10.9584 41.4173 13.1853V17.2876Z" fill="#34A853"/>
<path d="M41.4173 21.0733H15.2578V16.7134C15.2578 14.3467 17.1778 12.3535 19.4577 12.3535H37.2174C39.4973 12.3535 41.4173 14.3467 41.4173 16.7134V21.0733Z" fill="#FBBC04"/>
<path d="M41.4173 24.7062H15.2578V20.3462C15.2578 17.9795 17.1778 15.9863 19.4577 15.9863H37.2174C39.4973 15.9863 41.4173 17.9795 41.4173 20.3462V24.7062Z" fill="#EA4335"/>
<path d="M15.2578 18.3418L31.8613 22.0925C33.7726 22.5614 35.9227 22.0925 37.4754 20.9204L41.4173 18.1074V26.898C41.4173 29.125 39.5061 30.8831 37.2366 30.8831H19.4385C17.169 30.8831 15.2578 29.125 15.2578 26.898V18.3418Z" fill="url(#paint0_linear_568_258)"/>
<path d="M50.2812 15.6231L52.8318 8.85938H54.0126L56.5726 15.6231H55.4296L54.8061 13.8849H52.0477L51.4243 15.6231H50.2812ZM53.1435 10.8526L52.3973 12.9214H54.4566L53.7103 10.8526L53.4553 10.078H53.3986L53.1435 10.8526ZM59.3926 17.8146C58.9706 17.8146 58.6054 17.7454 58.2968 17.6068C57.9945 17.4746 57.7489 17.3014 57.56 17.0873C57.3711 16.8794 57.2357 16.6653 57.1538 16.4449L58.0984 16.0481C58.1992 16.3001 58.3598 16.5047 58.5802 16.6622C58.8069 16.8259 59.0777 16.9078 59.3926 16.9078C59.8335 16.9078 60.1798 16.7755 60.4317 16.511C60.6899 16.2465 60.819 15.8718 60.819 15.3869V14.924H60.7623C60.6112 15.1507 60.4003 15.3333 60.1294 15.4719C59.8649 15.6042 59.5626 15.6703 59.2226 15.6703C58.8132 15.6703 58.4385 15.5664 58.0984 15.3586C57.7584 15.1507 57.4844 14.861 57.2766 14.4895C57.0688 14.1116 56.9649 13.6708 56.9649 13.167C56.9649 12.6569 57.0688 12.216 57.2766 11.8445C57.4844 11.4666 57.7584 11.1738 58.0984 10.9659C58.4385 10.7581 58.8132 10.6542 59.2226 10.6542C59.5626 10.6542 59.8649 10.7235 60.1294 10.862C60.4003 11.0006 60.6112 11.1832 60.7623 11.4099H60.819V10.8054H61.792V15.368C61.792 15.8907 61.6881 16.3347 61.4803 16.7C61.2788 17.0652 60.9985 17.3423 60.6395 17.5312C60.2806 17.7202 59.8649 17.8146 59.3926 17.8146ZM59.4021 14.7445C59.654 14.7445 59.8869 14.6847 60.1011 14.5651C60.3152 14.4391 60.4884 14.2596 60.6206 14.0266C60.7529 13.7873 60.819 13.5007 60.819 13.167C60.819 12.8206 60.7529 12.5309 60.6206 12.2979C60.4884 12.0586 60.3152 11.8791 60.1011 11.7594C59.8869 11.6398 59.654 11.58 59.4021 11.58C59.1501 11.58 58.914 11.643 58.6936 11.7689C58.4794 11.8886 58.3063 12.0649 58.174 12.2979C58.0418 12.5309 57.9756 12.8206 57.9756 13.167C57.9756 13.507 58.0418 13.7968 58.174 14.036C58.3063 14.2691 58.4794 14.4454 58.6936 14.5651C58.914 14.6847 59.1501 14.7445 59.4021 14.7445ZM62.9856 15.6231V10.8054H63.9492V11.5138H64.0058C64.1129 11.2682 64.2955 11.0667 64.5537 10.9093C64.8182 10.7455 65.1016 10.6637 65.4039 10.6637C65.5362 10.6637 65.6463 10.6731 65.7345 10.692C65.829 10.7109 65.914 10.7329 65.9896 10.7581V11.8161C65.8699 11.7658 65.7471 11.7248 65.6212 11.6933C65.5015 11.6619 65.3756 11.6461 65.2433 11.6461C65.004 11.6461 64.7899 11.7122 64.601 11.8445C64.4183 11.9704 64.2735 12.1436 64.1664 12.364C64.0593 12.5782 64.0058 12.8143 64.0058 13.0725V15.6231H62.9856ZM68.6922 15.7742C68.2198 15.7742 67.7979 15.664 67.4263 15.4436C67.0548 15.2232 66.7619 14.9209 66.5478 14.5367C66.34 14.1525 66.2361 13.7149 66.2361 13.2237C66.2361 12.7639 66.3369 12.3388 66.5384 11.9484C66.7399 11.5579 67.0201 11.2462 67.3791 11.0132C67.7444 10.7739 68.1632 10.6542 68.6355 10.6542C69.133 10.6542 69.5549 10.7612 69.9013 10.9754C70.254 11.1895 70.5217 11.4824 70.7043 11.8539C70.8869 12.2254 70.9782 12.6443 70.9782 13.1103C70.9782 13.1795 70.9751 13.2425 70.9688 13.2992C70.9688 13.3559 70.9656 13.4 70.9593 13.4315H67.2374C67.2878 13.9101 67.4547 14.2691 67.7381 14.5084C68.0278 14.7477 68.3552 14.8673 68.7205 14.8673C69.048 14.8673 69.3188 14.7949 69.5329 14.6501C69.747 14.4989 69.9171 14.3131 70.043 14.0927L70.8837 14.4989C70.6759 14.8768 70.3925 15.1854 70.0336 15.4247C69.6746 15.6577 69.2275 15.7742 68.6922 15.7742ZM68.6449 11.5233C68.3049 11.5233 68.0151 11.6272 67.7758 11.835C67.5366 12.0428 67.376 12.3199 67.2941 12.6663H69.9674C69.9549 12.5026 69.9013 12.3326 69.8068 12.1562C69.7124 11.9798 69.5676 11.8319 69.3723 11.7122C69.1834 11.5863 68.9409 11.5233 68.6449 11.5233ZM74.1438 17.8146C73.7216 17.8146 73.3561 17.7454 73.048 17.6068C72.7457 17.4746 72.4998 17.3014 72.3109 17.0873C72.122 16.8794 71.9866 16.6653 71.9047 16.4449L72.8496 16.0481C72.9499 16.3001 73.1105 16.5047 73.3314 16.6622C73.5581 16.8259 73.8284 16.9078 74.1438 16.9078C74.5841 16.9078 74.9308 16.7755 75.1829 16.511C75.4409 16.2465 75.5702 15.8718 75.5702 15.3869V14.924H75.5135C75.3624 15.1507 75.1509 15.3333 74.8806 15.4719C74.6161 15.6042 74.3138 15.6703 73.9738 15.6703C73.5639 15.6703 73.1897 15.5664 72.8496 15.3586C72.5093 15.1507 72.2353 14.861 72.0275 14.4895C71.8197 14.1116 71.7158 13.6708 71.7158 13.167C71.7158 12.6569 71.8197 12.216 72.0275 11.8445C72.2353 11.4666 72.5093 11.1738 72.8496 10.9659C73.1897 10.7581 73.5639 10.6542 73.9738 10.6542C74.3138 10.6542 74.6161 10.7235 74.8806 10.862C75.1509 11.0006 75.3624 11.1832 75.5135 11.4099H75.5702V10.8054H76.5432V15.368C76.5432 15.8907 76.4393 16.3347 76.2315 16.7C76.0295 17.0652 75.7497 17.3423 75.3907 17.5312C75.0318 17.7202 74.6161 17.8146 74.1438 17.8146ZM74.1532 14.7445C74.4047 14.7445 74.6379 14.6847 74.8523 14.5651C75.0659 14.4391 75.2396 14.2596 75.3718 14.0266C75.5041 13.7873 75.5702 13.5007 75.5702 13.167C75.5702 12.8206 75.5041 12.5309 75.3718 12.2979C75.2396 12.0586 75.0659 11.8791 74.8523 11.7594C74.6379 11.6398 74.4047 11.58 74.1532 11.58C73.9011 11.58 73.6649 11.643 73.4448 11.7689C73.2304 11.8886 73.0575 12.0649 72.9252 12.2979C72.793 12.5309 72.7268 12.8206 72.7268 13.167C72.7268 13.507 72.793 13.7968 72.9252 14.036C73.0575 14.2691 73.2304 14.4454 73.4448 14.5651C73.6649 14.6847 73.9011 14.7445 74.1532 14.7445ZM79.202 15.7742C78.8554 15.7742 78.5466 15.7081 78.2763 15.5758C78.0052 15.4373 77.7945 15.2452 77.6434 14.9996C77.4922 14.754 77.4166 14.4737 77.4166 14.1589C77.4166 13.8188 77.5046 13.5291 77.6811 13.2898C77.8635 13.0442 78.1062 12.8584 78.4085 12.7324C78.7108 12.6065 79.0443 12.5435 79.4098 12.5435C79.7121 12.5435 79.9766 12.5718 80.2034 12.6285C80.4359 12.6852 80.6125 12.745 80.7324 12.808V12.5529C80.7324 12.2381 80.619 11.9862 80.3923 11.7972C80.1656 11.6083 79.8727 11.5138 79.5138 11.5138C79.2682 11.5138 79.0349 11.5705 78.8147 11.6839C78.5938 11.7909 78.418 11.9389 78.2857 12.1279L77.5867 11.5894C77.7945 11.2997 78.0684 11.073 78.4085 10.9093C78.7544 10.7392 79.1323 10.6542 79.5421 10.6542C80.2411 10.6542 80.7796 10.8274 81.1574 11.1738C81.5353 11.5138 81.7242 11.9925 81.7242 12.6096V15.6231H80.7324V15.0279H80.6757C80.5492 15.2232 80.3603 15.3963 80.1089 15.5475C79.8567 15.6986 79.5545 15.7742 79.202 15.7742ZM79.3815 14.9429C79.646 14.9429 79.8785 14.8799 80.0806 14.754C80.2818 14.6281 80.4395 14.4643 80.5529 14.2628C80.672 14.0549 80.7324 13.8313 80.7324 13.5921C80.587 13.5102 80.417 13.444 80.2222 13.3937C80.0268 13.337 79.819 13.3087 79.5988 13.3087C79.1831 13.3087 78.8867 13.3937 78.7108 13.5637C78.5342 13.7274 78.4463 13.929 78.4463 14.1683C78.4463 14.395 78.5313 14.5808 78.7014 14.7256C78.8714 14.8705 79.0981 14.9429 79.3815 14.9429ZM82.8469 15.6231V10.8054H83.8105V11.5138H83.8671C83.9747 11.2682 84.1571 11.0667 84.415 10.9093C84.6795 10.7455 84.9629 10.6637 85.2652 10.6637C85.3975 10.6637 85.5079 10.6731 85.5958 10.692C85.6903 10.7109 85.7753 10.7329 85.8509 10.7581V11.8161C85.7317 11.7658 85.6089 11.7248 85.4825 11.6933C85.3633 11.6619 85.2369 11.6461 85.1046 11.6461C84.8656 11.6461 84.6512 11.7122 84.4623 11.8445C84.2799 11.9704 84.1353 12.1436 84.0277 12.364C83.9209 12.5782 83.8671 12.8143 83.8671 13.0725V15.6231H82.8469ZM90.3547 15.7742C90.0088 15.7742 89.7 15.7081 89.4289 15.5758C89.1586 15.4373 88.9472 15.2452 88.796 14.9996C88.6449 14.754 88.5693 14.4737 88.5693 14.1589C88.5693 13.8188 88.658 13.5291 88.8338 13.2898C89.0169 13.0442 89.2589 12.8584 89.5612 12.7324C89.8635 12.6065 90.1977 12.5435 90.5625 12.5435C90.8648 12.5435 91.1293 12.5718 91.356 12.6285C91.5893 12.6852 91.7659 12.745 91.885 12.808V12.5529C91.885 12.2381 91.7717 11.9862 91.545 11.7972C91.3182 11.6083 91.0254 11.5138 90.6664 11.5138C90.4208 11.5138 90.1883 11.5705 89.9674 11.6839C89.7472 11.7909 89.5706 11.9389 89.4384 12.1279L88.7393 11.5894C88.9472 11.2997 89.2211 11.073 89.5612 10.9093C89.9078 10.7392 90.2857 10.6542 90.6948 10.6542C91.3938 10.6542 91.9323 10.8274 92.3101 11.1738C92.688 11.5138 92.8769 11.9925 92.8769 12.6096V15.6231H91.885V15.0279H91.8283C91.7026 15.2232 91.5137 15.3963 91.2616 15.5475C91.0101 15.6986 90.7078 15.7742 90.3547 15.7742ZM90.5342 14.9429C90.7987 14.9429 91.0319 14.8799 91.2332 14.754C91.4352 14.6281 91.5922 14.4643 91.7055 14.2628C91.8254 14.0549 91.885 13.8313 91.885 13.5921C91.7404 13.5102 91.5704 13.444 91.3749 13.3937C91.1802 13.337 90.9723 13.3087 90.7514 13.3087C90.3358 13.3087 90.0401 13.3937 89.8635 13.5637C89.6876 13.7274 89.599 13.929 89.599 14.1683C89.599 14.395 89.684 14.5808 89.854 14.7256C90.0241 14.8705 90.2508 14.9429 90.5342 14.9429ZM96.2144 15.6231V8.85938H97.2346V15.6231H96.2144ZM99.9029 15.7742C99.5563 15.7742 99.2482 15.7081 98.9772 15.5758C98.7061 15.4373 98.4954 15.2452 98.3442 14.9996C98.1931 14.754 98.1175 14.4737 98.1175 14.1589C98.1175 13.8188 98.2054 13.5291 98.382 13.2898C98.5644 13.0442 98.8071 12.8584 99.1094 12.7324C99.4117 12.6065 99.7452 12.5435 100.111 12.5435C100.413 12.5435 100.678 12.5718 100.904 12.6285C101.137 12.6852 101.313 12.745 101.433 12.808V12.5529C101.433 12.2381 101.32 11.9862 101.093 11.7972C100.866 11.6083 100.574 11.5138 100.215 11.5138C99.969 11.5138 99.7358 11.5705 99.5156 11.6839C99.2954 11.7909 99.1189 11.9389 98.9866 12.1279L98.2876 11.5894C98.4954 11.2997 98.7693 11.073 99.1094 10.9093C99.456 10.7392 99.8339 10.6542 100.243 10.6542C100.942 10.6542 101.48 10.8274 101.858 11.1738C102.236 11.5138 102.425 11.9925 102.425 12.6096V15.6231H101.433V15.0279H101.377C101.251 15.2232 101.062 15.3963 100.81 15.5475C100.558 15.6986 100.255 15.7742 99.9029 15.7742ZM100.082 14.9429C100.347 14.9429 100.58 14.8799 100.781 14.754C100.983 14.6281 101.14 14.4643 101.254 14.2628C101.374 14.0549 101.433 13.8313 101.433 13.5921C101.289 13.5102 101.119 13.444 100.923 13.3937C100.728 13.337 100.52 13.3087 100.3 13.3087C99.884 13.3087 99.5883 13.3937 99.4117 13.5637C99.2351 13.7274 99.1472 13.929 99.1472 14.1683C99.1472 14.395 99.2322 14.5808 99.4022 14.7256C99.5723 14.8705 99.799 14.9429 100.082 14.9429Z" fill="white"/>
<path d="M51.1406 30.1557V21.3109H54.4513C54.9289 21.3109 55.3654 21.4139 55.7607 21.6198C56.1642 21.8256 56.4813 22.1057 56.7119 22.4598C56.9507 22.8139 57.0701 23.2133 57.0701 23.658C57.0701 24.1109 56.9548 24.498 56.7242 24.8192C56.5019 25.1404 56.2177 25.3833 55.8719 25.548V25.6098C56.3166 25.7663 56.679 26.0257 56.9589 26.3881C57.2389 26.7422 57.3789 27.1704 57.3789 27.6728C57.3789 28.1669 57.2513 28.6034 56.996 28.9822C56.7489 29.3528 56.4113 29.6411 55.983 29.8469C55.563 30.0528 55.1018 30.1557 54.5995 30.1557H51.1406ZM54.4389 22.5586H52.4995V25.0292H54.3895C54.8177 25.0292 55.1512 24.9015 55.3901 24.6463C55.6289 24.3827 55.7483 24.0945 55.7483 23.7816C55.7483 23.4769 55.633 23.1968 55.4024 22.9415C55.1719 22.6863 54.8507 22.5586 54.4389 22.5586ZM52.4995 28.8957H54.5995C55.0442 28.8957 55.3901 28.764 55.6372 28.5004C55.8924 28.2287 56.0201 27.9198 56.0201 27.5739C56.0201 27.2281 55.8924 26.9192 55.6372 26.6475C55.3819 26.3757 55.0195 26.2398 54.5501 26.2398H52.4995V28.8957ZM59.4169 22.9292C59.1698 22.9292 58.9557 22.8427 58.7745 22.6698C58.6016 22.4886 58.5151 22.2745 58.5151 22.0274C58.5151 21.7803 58.6016 21.5703 58.7745 21.3974C58.9557 21.2245 59.1698 21.138 59.4169 21.138C59.664 21.138 59.874 21.2245 60.0469 21.3974C60.2281 21.5703 60.3187 21.7803 60.3187 22.0274C60.3187 22.2745 60.2281 22.4886 60.0469 22.6698C59.874 22.8427 59.664 22.9292 59.4169 22.9292ZM58.7498 30.1557V23.8557H60.084V30.1557H58.7498ZM61.7516 30.1557V21.3109H63.0858V30.1557H61.7516ZM64.671 30.1557V21.3109H66.0052V30.1557H64.671ZM70.3961 30.3534C69.7784 30.3534 69.2266 30.2093 68.7407 29.921C68.2548 29.6328 67.8719 29.2375 67.5919 28.7351C67.3201 28.2328 67.1842 27.6604 67.1842 27.0181C67.1842 26.4169 67.316 25.861 67.5795 25.3504C67.843 24.8398 68.2096 24.4321 68.679 24.1274C69.1566 23.8145 69.7043 23.658 70.3219 23.658C70.9725 23.658 71.5243 23.798 71.9773 24.078C72.4384 24.358 72.7883 24.7409 73.0274 25.2269C73.2657 25.7128 73.3856 26.2604 73.3856 26.8698C73.3856 26.9604 73.3813 27.0428 73.3733 27.1169C73.3733 27.191 73.3689 27.2486 73.3609 27.2898H68.4937C68.5595 27.9157 68.7778 28.3851 69.1484 28.6981C69.5272 29.0111 69.9554 29.1675 70.4331 29.1675C70.8613 29.1675 71.2154 29.0728 71.4955 28.8834C71.7755 28.6857 71.9978 28.4428 72.1625 28.1545L73.2621 28.6857C72.9903 29.1799 72.6196 29.5834 72.1502 29.8963C71.6808 30.201 71.096 30.3534 70.3961 30.3534ZM70.3343 24.7945C69.8896 24.7945 69.5107 24.9304 69.1978 25.2022C68.8848 25.4739 68.6748 25.8363 68.5678 26.2892H72.0637C72.0472 26.0751 71.9772 25.8527 71.8537 25.6222C71.7302 25.3916 71.5407 25.198 71.2855 25.0416C71.0384 24.8768 70.7213 24.7945 70.3343 24.7945ZM75.1093 28.3275V25.0169H74.0098V23.8557H75.1093V22.0768H76.4434V23.8557H77.9875V25.0169H76.4434V28.0434C76.4434 28.3563 76.5052 28.5951 76.6287 28.7598C76.7602 28.9246 76.9789 29.0069 77.2834 29.0069C77.4396 29.0069 77.5719 28.9863 77.6787 28.9451C77.7943 28.9039 77.9091 28.8463 78.0246 28.7722V30.0693C77.8844 30.1269 77.7361 30.1722 77.5799 30.2052C77.4237 30.2381 77.2384 30.2546 77.024 30.2546C76.439 30.2546 75.974 30.0858 75.6281 29.7481C75.2822 29.4022 75.1093 28.9286 75.1093 28.3275ZM81.9049 30.3534C81.2873 30.3534 80.735 30.2093 80.2496 29.921C79.7635 29.6328 79.3805 29.2375 79.1008 28.7351C78.829 28.2328 78.6931 27.6604 78.6931 27.0181C78.6931 26.4169 78.8246 25.861 79.0884 25.3504C79.3515 24.8398 79.7184 24.4321 80.1878 24.1274C80.6653 23.8145 81.2131 23.658 81.8308 23.658C82.4812 23.658 83.0327 23.798 83.4861 24.078C83.9468 24.358 84.2971 24.7409 84.5361 25.2269C84.7745 25.7128 84.8944 26.2604 84.8944 26.8698C84.8944 26.9604 84.89 27.0428 84.882 27.1169C84.882 27.191 84.8777 27.2486 84.8697 27.2898H80.0025C80.0679 27.9157 80.2867 28.3851 80.6573 28.6981C81.0358 29.0111 81.4638 29.1675 81.942 29.1675C82.37 29.1675 82.7239 29.0728 83.0043 28.8834C83.2841 28.6857 83.5065 28.4428 83.6714 28.1545L84.7708 28.6857C84.4991 29.1799 84.1285 29.5834 83.6591 29.8963C83.1896 30.201 82.6047 30.3534 81.9049 30.3534ZM81.8432 24.7945C81.3984 24.7945 81.0191 24.9304 80.7067 25.2022C80.3935 25.4739 80.1835 25.8363 80.0767 26.2892H83.5726C83.5559 26.0751 83.4861 25.8527 83.3626 25.6222C83.2391 25.3916 83.0494 25.198 82.7943 25.0416C82.5473 24.8768 82.2297 24.7945 81.8432 24.7945ZM86.1319 30.1557V23.8557H87.3919V24.7822H87.466C87.6062 24.461 87.8446 24.1974 88.1825 23.9916C88.5284 23.7774 88.899 23.6704 89.2943 23.6704C89.4672 23.6704 89.6111 23.6827 89.7266 23.7074C89.8501 23.7321 89.9613 23.761 90.0601 23.7939V25.1774C89.9039 25.1115 89.7433 25.0581 89.5784 25.0169C89.4221 24.9757 89.2572 24.9551 89.0843 24.9551C88.7711 24.9551 88.4913 25.0416 88.2442 25.2145C88.0052 25.3792 87.8162 25.6057 87.676 25.8939C87.5358 26.1739 87.466 26.4827 87.466 26.8204V30.1557H86.1319ZM92.849 30.3534C92.3963 30.3534 91.993 30.2669 91.6384 30.094C91.2846 29.9128 91.0084 29.6616 90.8108 29.3404C90.6131 29.0193 90.5143 28.6528 90.5143 28.241C90.5143 27.7963 90.6298 27.4175 90.8602 27.1045C91.0993 26.7834 91.4161 26.5404 91.8114 26.3757C92.2067 26.211 92.6434 26.1286 93.1208 26.1286C93.5161 26.1286 93.862 26.1657 94.1585 26.2398C94.4637 26.3139 94.694 26.3922 94.8502 26.4745V26.141C94.8502 25.7292 94.702 25.3998 94.4055 25.1527C94.1091 24.9057 93.7261 24.7822 93.2567 24.7822C92.9355 24.7822 92.631 24.8563 92.3426 25.0045C92.0548 25.1445 91.8237 25.338 91.6508 25.5851L90.7367 24.881C91.0084 24.5022 91.3667 24.2057 91.8114 23.9916C92.2648 23.7692 92.7589 23.658 93.2937 23.658C94.2079 23.658 94.912 23.8845 95.4061 24.3374C95.9003 24.7822 96.1473 25.408 96.1473 26.2151V30.1557H94.8502V29.3775H94.7761C94.6119 29.6328 94.3648 29.8593 94.0349 30.0569C93.7058 30.2546 93.3105 30.3534 92.849 30.3534ZM93.0838 29.2663C93.4296 29.2663 93.7348 29.184 93.9979 29.0193C94.2617 28.8545 94.4673 28.6405 94.6155 28.3769C94.7725 28.1051 94.8502 27.8128 94.8502 27.4998C94.6613 27.3928 94.439 27.3063 94.1832 27.2404C93.9281 27.1663 93.6563 27.1292 93.3679 27.1292C92.8243 27.1292 92.4378 27.2404 92.2067 27.4628C91.9763 27.6769 91.8608 27.9404 91.8608 28.2534C91.8608 28.5498 91.972 28.7928 92.1943 28.9822C92.4167 29.1716 92.7132 29.2663 93.0838 29.2663ZM103.192 30.3534C102.624 30.3534 102.11 30.2134 101.648 29.9334C101.195 29.6451 100.833 29.2498 100.561 28.7475C100.298 28.2369 100.166 27.6563 100.166 27.0057C100.166 26.3551 100.298 25.7786 100.561 25.2763C100.833 24.7739 101.195 24.3786 101.648 24.0904C102.11 23.8021 102.624 23.658 103.192 23.658C103.678 23.658 104.094 23.7651 104.44 23.9792C104.794 24.1933 105.054 24.4363 105.218 24.708H105.292L105.218 23.831V21.3109H106.54V30.1557H105.292V29.3157H105.218C105.054 29.5875 104.794 29.8304 104.44 30.0446C104.094 30.2504 103.678 30.3534 103.192 30.3534ZM103.39 29.1304C103.72 29.1304 104.029 29.044 104.316 28.871C104.613 28.6981 104.848 28.4552 105.02 28.1422C105.202 27.821 105.292 27.4422 105.292 27.0057C105.292 26.5692 105.202 26.1945 105.02 25.8816C104.848 25.5604 104.613 25.3133 104.316 25.1404C104.029 24.9674 103.72 24.881 103.39 24.881C103.061 24.881 102.752 24.9674 102.463 25.1404C102.176 25.3133 101.941 25.5604 101.759 25.8816C101.578 26.1945 101.487 26.5692 101.487 27.0057C101.487 27.4422 101.578 27.821 101.759 28.1422C101.941 28.4552 102.176 28.6981 102.463 28.871C102.752 29.044 103.061 29.1304 103.39 29.1304ZM110.93 30.3534C110.312 30.3534 109.76 30.2093 109.274 29.921C108.788 29.6328 108.405 29.2375 108.125 28.7351C107.854 28.2328 107.718 27.6604 107.718 27.0181C107.718 26.4169 107.849 25.861 108.113 25.3504C108.377 24.8398 108.743 24.4321 109.213 24.1274C109.69 23.8145 110.238 23.658 110.855 23.658C111.506 23.658 112.058 23.798 112.511 24.078C112.972 24.358 113.322 24.7409 113.561 25.2269C113.8 25.7128 113.919 26.2604 113.919 26.8698C113.919 26.9604 113.915 27.0428 113.907 27.1169C113.907 27.191 113.902 27.2486 113.894 27.2898H109.027C109.093 27.9157 109.311 28.3851 109.682 28.6981C110.061 29.0111 110.489 29.1675 110.967 29.1675C111.395 29.1675 111.749 29.0728 112.029 28.8834C112.309 28.6857 112.531 28.4428 112.696 28.1545L113.796 28.6857C113.524 29.1799 113.153 29.5834 112.684 29.8963C112.214 30.201 111.629 30.3534 110.93 30.3534ZM110.868 24.7945C110.423 24.7945 110.045 24.9304 109.731 25.2022C109.418 25.4739 109.208 25.8363 109.101 26.2892H112.597C112.581 26.0751 112.511 25.8527 112.387 25.6222C112.264 25.3916 112.074 25.198 111.819 25.0416C111.572 24.8768 111.255 24.7945 110.868 24.7945ZM122.209 30.3534C121.574 30.3534 120.978 30.2381 120.418 30.0075C119.866 29.7769 119.375 29.4558 118.947 29.044C118.519 28.624 118.182 28.134 117.935 27.5739C117.695 27.0057 117.576 26.3922 117.576 25.7333C117.576 25.0745 117.695 24.4651 117.935 23.9051C118.182 23.3368 118.515 22.8469 118.935 22.4351C119.363 22.0151 119.857 21.6897 120.418 21.4592C120.978 21.2286 121.574 21.1133 122.209 21.1133C122.884 21.1133 123.506 21.2327 124.074 21.4715C124.65 21.7104 125.132 22.0439 125.519 22.4721L124.581 23.3986C124.292 23.0774 123.946 22.8304 123.543 22.6574C123.148 22.4845 122.703 22.398 122.209 22.398C121.624 22.398 121.085 22.538 120.59 22.818C120.096 23.0898 119.697 23.4769 119.392 23.9792C119.096 24.4733 118.947 25.0581 118.947 25.7333C118.947 26.4086 119.1 26.9975 119.405 27.4998C119.709 27.994 120.109 28.381 120.603 28.661C121.097 28.9328 121.636 29.0687 122.221 29.0687C122.757 29.0687 123.242 28.9699 123.679 28.7722C124.115 28.5663 124.465 28.2781 124.729 27.9075C125.001 27.5369 125.165 27.0922 125.223 26.5733H122.196V25.3751H126.495C126.545 25.5975 126.569 25.8322 126.569 26.0792V26.0916C126.569 26.9481 126.38 27.6975 126.001 28.3398C125.631 28.974 125.116 29.4681 124.457 29.8222C123.798 30.1763 123.049 30.3534 122.209 30.3534ZM130.547 30.3534C129.897 30.3534 129.324 30.2052 128.83 29.9087C128.336 29.6122 127.949 29.2128 127.669 28.7104C127.389 28.2081 127.249 27.6399 127.249 27.0057C127.249 26.3798 127.389 25.8157 127.669 25.3133C127.949 24.8027 128.336 24.3992 128.83 24.1027C129.324 23.8063 129.897 23.658 130.547 23.658C131.189 23.658 131.758 23.8063 132.252 24.1027C132.746 24.3992 133.133 24.8027 133.413 25.3133C133.693 25.8157 133.833 26.3798 133.833 27.0057C133.833 27.6399 133.693 28.2081 133.413 28.7104C133.133 29.2128 132.746 29.6122 132.252 29.9087C131.758 30.2052 131.189 30.3534 130.547 30.3534ZM130.547 29.1304C130.893 29.1304 131.214 29.0481 131.511 28.8834C131.807 28.7104 132.046 28.4675 132.227 28.1545C132.417 27.8334 132.511 27.4504 132.511 27.0057C132.511 26.561 132.417 26.1822 132.227 25.8692C132.046 25.548 131.807 25.3051 131.511 25.1404C131.214 24.9674 130.893 24.881 130.547 24.881C130.201 24.881 129.876 24.9674 129.571 25.1404C129.275 25.3051 129.032 25.548 128.842 25.8692C128.661 26.1822 128.571 26.561 128.571 27.0057C128.571 27.4504 128.661 27.8334 128.842 28.1545C129.032 28.4675 129.275 28.7104 129.571 28.8834C129.876 29.0481 130.201 29.1304 130.547 29.1304ZM138.026 30.3534C137.376 30.3534 136.804 30.2052 136.309 29.9087C135.815 29.6122 135.428 29.2128 135.148 28.7104C134.868 28.2081 134.728 27.6399 134.728 27.0057C134.728 26.3798 134.868 25.8157 135.148 25.3133C135.428 24.8027 135.815 24.3992 136.309 24.1027C136.804 23.8063 137.376 23.658 138.026 23.658C138.669 23.658 139.237 23.8063 139.731 24.1027C140.225 24.3992 140.613 24.8027 140.892 25.3133C141.172 25.8157 141.312 26.3798 141.312 27.0057C141.312 27.6399 141.172 28.2081 140.892 28.7104C140.613 29.2128 140.225 29.6122 139.731 29.9087C139.237 30.2052 138.669 30.3534 138.026 30.3534ZM138.026 29.1304C138.372 29.1304 138.694 29.0481 138.99 28.8834C139.287 28.7104 139.526 28.4675 139.707 28.1545C139.896 27.8334 139.991 27.4504 139.991 27.0057C139.991 26.561 139.896 26.1822 139.707 25.8692C139.526 25.548 139.287 25.3051 138.99 25.1404C138.694 24.9674 138.372 24.881 138.026 24.881C137.681 24.881 137.355 24.9674 137.051 25.1404C136.754 25.3051 136.511 25.548 136.322 25.8692C136.141 26.1822 136.05 26.561 136.05 27.0057C136.05 27.4504 136.141 27.8334 136.322 28.1545C136.511 28.4675 136.754 28.7104 137.051 28.8834C137.355 29.0481 137.681 29.1304 138.026 29.1304ZM145.382 33.0217C144.831 33.0217 144.353 32.9311 143.949 32.7499C143.554 32.577 143.233 32.3505 142.986 32.0705C142.739 31.7987 142.562 31.5187 142.455 31.2305L143.69 30.7116C143.822 31.041 144.032 31.3087 144.32 31.5146C144.617 31.7287 144.97 31.8358 145.382 31.8358C145.959 31.8358 146.412 31.6628 146.741 31.3169C147.079 30.9711 147.248 30.4811 147.248 29.8469V29.2416H147.174C146.976 29.5381 146.7 29.7769 146.346 29.9581C146 30.131 145.605 30.2175 145.16 30.2175C144.625 30.2175 144.135 30.0816 143.69 29.8099C143.245 29.5381 142.887 29.1593 142.615 28.6734C142.344 28.1793 142.208 27.6028 142.208 26.9439C142.208 26.2769 142.344 25.7004 142.615 25.2145C142.887 24.7204 143.245 24.3374 143.69 24.0657C144.135 23.7939 144.625 23.658 145.16 23.658C145.605 23.658 146 23.7486 146.346 23.9298C146.7 24.1109 146.976 24.3498 147.174 24.6463H147.248V23.8557H148.52V29.8222C148.52 30.5058 148.384 31.0864 148.112 31.564C147.849 32.0416 147.482 32.404 147.013 32.6511C146.544 32.8981 146 33.0217 145.382 33.0217ZM145.395 29.0069C145.724 29.0069 146.029 28.9286 146.309 28.7722C146.589 28.6075 146.815 28.3728 146.988 28.0681C147.161 27.7551 147.248 27.3804 147.248 26.9439C147.248 26.491 147.161 26.1121 146.988 25.8075C146.815 25.4945 146.589 25.2598 146.309 25.1033C146.029 24.9469 145.724 24.8686 145.395 24.8686C145.066 24.8686 144.757 24.951 144.468 25.1157C144.189 25.2721 143.962 25.5028 143.789 25.8075C143.616 26.1121 143.529 26.491 143.529 26.9439C143.529 27.3887 143.616 27.7675 143.789 28.0804C143.962 28.3851 144.189 28.6158 144.468 28.7722C144.757 28.9286 145.066 29.0069 145.395 29.0069ZM150.093 30.1557V21.3109H151.427V30.1557H150.093ZM155.818 30.3534C155.2 30.3534 154.649 30.2093 154.163 29.921C153.677 29.6328 153.294 29.2375 153.014 28.7351C152.742 28.2328 152.606 27.6604 152.606 27.0181C152.606 26.4169 152.738 25.861 153.001 25.3504C153.265 24.8398 153.631 24.4321 154.101 24.1274C154.579 23.8145 155.126 23.658 155.744 23.658C156.395 23.658 156.946 23.798 157.399 24.078C157.86 24.358 158.211 24.7409 158.449 25.2269C158.688 25.7128 158.807 26.2604 158.807 26.8698C158.807 26.9604 158.804 27.0428 158.795 27.1169C158.795 27.191 158.791 27.2486 158.783 27.2898H153.915C153.982 27.9157 154.2 28.3851 154.57 28.6981C154.95 29.0111 155.378 29.1675 155.855 29.1675C156.284 29.1675 156.638 29.0728 156.917 28.8834C157.198 28.6857 157.42 28.4428 157.584 28.1545L158.684 28.6857C158.412 29.1799 158.041 29.5834 157.572 29.8963C157.103 30.201 156.518 30.3534 155.818 30.3534ZM155.756 24.7945C155.311 24.7945 154.933 24.9304 154.62 25.2022C154.307 25.4739 154.097 25.8363 153.99 26.2892H157.486C157.47 26.0751 157.399 25.8527 157.276 25.6222C157.152 25.3916 156.963 25.198 156.707 25.0416C156.46 24.8768 156.143 24.7945 155.756 24.7945Z" fill="white"/>
<path d="M153.687 0.363281H19.9829C9.14729 0.363281 0.363281 9.14728 0.363281 19.9829C0.363281 30.8185 9.14729 39.6025 19.9829 39.6025H153.687C164.523 39.6025 173.307 30.8185 173.307 19.9829C173.307 9.14728 164.523 0.363281 153.687 0.363281Z" stroke="#747775"/>
</g>
<defs>
<linearGradient id="paint0_linear_568_258" x1="27.0908" y1="24.7392" x2="13.6463" y2="40.4915" gradientUnits="userSpaceOnUse">
<stop stop-color="#4285F4"/>
<stop offset="1" stop-color="#1B74E8"/>
</linearGradient>
<clipPath id="clip0_568_258">
<rect width="173.67" height="39.9659" fill="white"/>
</clipPath>
</defs>
</svg>
