<svg width="174" height="28" viewBox="0 0 174 28" fill="none" xmlns="http://www.w3.org/2000/svg">
<g clip-path="url(#clip0_568_502)">
<path d="M160.061 0.272461H13.6117C6.24519 0.272461 0.273438 6.24422 0.273438 13.6108C0.273438 20.9773 6.24519 26.949 13.6117 26.949H160.061C167.427 26.949 173.399 20.9773 173.399 13.6108C173.399 6.24422 167.427 0.272461 160.061 0.272461Z" fill="#1F1F1F"/>
<path d="M27.7662 11.9774H11.4336V9.2553C11.4336 7.77758 12.6323 6.5332 14.0558 6.5332H25.144C26.5675 6.5332 27.7662 7.77758 27.7662 9.2553V11.9774Z" fill="#34A853"/>
<path d="M27.7662 14.1844H11.4336V11.4623C11.4336 9.98462 12.6323 8.74023 14.0558 8.74023H25.144C26.5675 8.74023 27.7662 9.98462 27.7662 11.4623V14.1844Z" fill="#FBBC04"/>
<path d="M27.7662 16.4667H11.4336V13.7446C11.4336 12.2668 12.6323 11.0225 14.0558 11.0225H25.144C26.5675 11.0225 27.7662 12.2668 27.7662 13.7446V16.4667Z" fill="#EA4335"/>
<path d="M11.4336 12.6713L21.8 15.0688C22.9932 15.3685 24.3356 15.0688 25.3051 14.3196L27.7662 12.5215V18.1405C27.7662 19.564 26.5729 20.6878 25.156 20.6878H14.0438C12.6269 20.6878 11.4336 19.564 11.4336 18.1405V12.6713Z" fill="url(#paint0_linear_568_502)"/>
<path d="M34.4609 17.4212L37.4008 9.62509H38.7619L41.7126 17.4212H40.3951L39.6765 15.4177H36.4971L35.7784 17.4212H34.4609ZM37.7601 11.9225L36.8999 14.3071H39.2736L38.4134 11.9225L38.1194 11.0297H38.0541L37.7601 11.9225ZM44.9631 19.9473C44.4767 19.9473 44.0557 19.8674 43.7 19.7078C43.3516 19.5553 43.0685 19.3557 42.8507 19.1089C42.633 18.8693 42.4769 18.6226 42.3825 18.3685L43.4714 17.9112C43.5875 18.2015 43.7726 18.4375 44.0267 18.6189C44.288 18.8077 44.6001 18.902 44.9631 18.902C45.4712 18.902 45.8704 18.7496 46.1608 18.4447C46.4584 18.1398 46.6072 17.7079 46.6072 17.149V16.6154H46.5419C46.3677 16.8768 46.1245 17.0873 45.8124 17.247C45.5075 17.3994 45.1591 17.4756 44.7671 17.4756C44.2952 17.4756 43.8633 17.3559 43.4714 17.1163C43.0794 16.8768 42.7636 16.5429 42.5241 16.1146C42.2845 15.679 42.1648 15.1709 42.1648 14.5902C42.1648 14.0022 42.2845 13.4941 42.5241 13.0658C42.7636 12.6303 43.0794 12.2928 43.4714 12.0532C43.8633 11.8137 44.2952 11.6939 44.7671 11.6939C45.1591 11.6939 45.5075 11.7738 45.8124 11.9334C46.1245 12.0931 46.3677 12.3036 46.5419 12.565H46.6072V11.8681H47.7287V17.1272C47.7287 17.7297 47.609 18.2415 47.3694 18.6625C47.1371 19.0835 46.8141 19.4029 46.4003 19.6206C45.9866 19.8384 45.5075 19.9473 44.9631 19.9473ZM44.974 16.4086C45.2643 16.4086 45.5329 16.3396 45.7797 16.2017C46.0265 16.0565 46.2261 15.8496 46.3786 15.5811C46.531 15.3052 46.6072 14.9749 46.6072 14.5902C46.6072 14.191 46.531 13.857 46.3786 13.5885C46.2261 13.3126 46.0265 13.1057 45.7797 12.9678C45.5329 12.8299 45.2643 12.761 44.974 12.761C44.6836 12.761 44.4114 12.8335 44.1573 12.9787C43.9105 13.1166 43.7109 13.3199 43.5585 13.5885C43.406 13.857 43.3298 14.191 43.3298 14.5902C43.3298 14.9822 43.406 15.3161 43.5585 15.5919C43.7109 15.8605 43.9105 16.0638 44.1573 16.2017C44.4114 16.3396 44.6836 16.4086 44.974 16.4086ZM51.5556 19.9473C51.0693 19.9473 50.6483 19.8674 50.2926 19.7078C49.9441 19.5553 49.661 19.3557 49.4433 19.1089C49.2255 18.8693 49.0695 18.6226 48.9751 18.3685L50.0639 17.9112C50.1801 18.2015 50.3652 18.4375 50.6192 18.6189C50.8805 18.8077 51.1927 18.902 51.5556 18.902C52.0638 18.902 52.463 18.7496 52.7533 18.4447C53.051 18.1398 53.1998 17.7079 53.1998 17.149V16.6154H53.1344C52.9602 16.8768 52.7171 17.0873 52.4049 17.247C52.1 17.3994 51.7516 17.4756 51.3596 17.4756C50.8878 17.4756 50.4559 17.3559 50.0639 17.1163C49.6719 16.8768 49.3562 16.5429 49.1166 16.1146C48.8771 15.679 48.7573 15.1709 48.7573 14.5902C48.7573 14.0022 48.8771 13.4941 49.1166 13.0658C49.3562 12.6303 49.6719 12.2928 50.0639 12.0532C50.4559 11.8137 50.8878 11.6939 51.3596 11.6939C51.7516 11.6939 52.1 11.7738 52.4049 11.9334C52.7171 12.0931 52.9602 12.3036 53.1344 12.565H53.1998V11.8681H54.3213V17.1272C54.3213 17.7297 54.2015 18.2415 53.962 18.6625C53.7297 19.0835 53.4066 19.4029 52.9929 19.6206C52.5791 19.8384 52.1 19.9473 51.5556 19.9473ZM51.5665 16.4086C51.8569 16.4086 52.1255 16.3396 52.3722 16.2017C52.6191 16.0565 52.8187 15.8496 52.9711 15.5811C53.1235 15.3052 53.1998 14.9749 53.1998 14.5902C53.1998 14.191 53.1235 13.857 52.9711 13.5885C52.8187 13.3126 52.6191 13.1057 52.3722 12.9678C52.1255 12.8299 51.8569 12.761 51.5665 12.761C51.2762 12.761 51.004 12.8335 50.7499 12.9787C50.5031 13.1166 50.3035 13.3199 50.151 13.5885C49.9986 13.857 49.9224 14.191 49.9224 14.5902C49.9224 14.9822 49.9986 15.3161 50.151 15.5919C50.3035 15.8605 50.5031 16.0638 50.7499 16.2017C51.004 16.3396 51.2762 16.4086 51.5665 16.4086ZM56.3722 11.0515C56.1544 11.0515 55.9655 10.9753 55.806 10.8228C55.6536 10.6631 55.5774 10.4744 55.5774 10.2566C55.5774 10.0389 55.6536 9.85375 55.806 9.70131C55.9655 9.54888 56.1544 9.47266 56.3722 9.47266C56.59 9.47266 56.7751 9.54888 56.9275 9.70131C57.087 9.85375 57.1671 10.0389 57.1671 10.2566C57.1671 10.4744 57.087 10.6631 56.9275 10.8228C56.7751 10.9753 56.59 11.0515 56.3722 11.0515ZM55.7842 17.4212V11.8681H56.9602V17.4212H55.7842ZM60.4336 17.5954C59.7514 17.5954 59.2359 17.3922 58.8874 16.9857C58.5461 16.5719 58.3757 16.0129 58.3757 15.3088V11.8681H59.5516V15.1455C59.5516 15.6174 59.6605 15.9658 59.8783 16.1908C60.1031 16.4086 60.383 16.5175 60.7167 16.5175C61.0145 16.5175 61.272 16.4412 61.4898 16.2888C61.7146 16.1291 61.8856 15.9258 62.0015 15.679C62.1251 15.425 62.1866 15.1492 62.1866 14.8515V11.8681H63.3517V17.4212H62.2519V16.6699H62.1866C62.0271 16.9312 61.7876 17.1526 61.468 17.3341C61.156 17.5083 60.8109 17.5954 60.4336 17.5954ZM64.735 17.4212V11.8681H65.8457V12.6303H65.911C66.0711 12.3617 66.3068 12.1403 66.6187 11.9661C66.9383 11.7846 67.2867 11.6939 67.664 11.6939C68.3467 11.6939 68.8585 11.8971 69.1993 12.3036C69.5406 12.7102 69.711 13.2473 69.711 13.9151V17.4212H68.546V14.0676C68.546 13.6175 68.4338 13.2908 68.2084 13.0876C67.9836 12.8771 67.6896 12.7718 67.3265 12.7718C67.0434 12.7718 66.7968 12.8517 66.5861 13.0114C66.3759 13.1638 66.2088 13.3671 66.0852 13.6211C65.9692 13.8752 65.911 14.1474 65.911 14.4378V17.4212H64.735ZM73.5024 19.9473C73.0162 19.9473 72.5954 19.8674 72.2393 19.7078C71.8909 19.5553 71.6078 19.3557 71.39 19.1089C71.1723 18.8693 71.0166 18.6226 70.9218 18.3685L72.0107 17.9112C72.1272 18.2015 72.3123 18.4375 72.566 18.6189C72.8273 18.8077 73.1398 18.902 73.5024 18.902C74.0109 18.902 74.4099 18.7496 74.7001 18.4447C74.9979 18.1398 75.1465 17.7079 75.1465 17.149V16.6154H75.0812C74.907 16.8768 74.6642 17.0873 74.3517 17.247C74.0468 17.3994 73.6984 17.4756 73.3064 17.4756C72.8349 17.4756 72.4027 17.3559 72.0107 17.1163C71.6187 16.8768 71.3029 16.5429 71.0634 16.1146C70.8238 15.679 70.7041 15.1709 70.7041 14.5902C70.7041 14.0022 70.8238 13.4941 71.0634 13.0658C71.3029 12.6303 71.6187 12.2928 72.0107 12.0532C72.4027 11.8137 72.8349 11.6939 73.3064 11.6939C73.6984 11.6939 74.0468 11.7738 74.3517 11.9334C74.6642 12.0931 74.907 12.3036 75.0812 12.565H75.1465V11.8681H76.268V17.1272C76.268 17.7297 76.1483 18.2415 75.9087 18.6625C75.6768 19.0835 75.3534 19.4029 74.9397 19.6206C74.5259 19.8384 74.0468 19.9473 73.5024 19.9473ZM73.5133 16.4086C73.804 16.4086 74.0724 16.3396 74.319 16.2017C74.5662 16.0565 74.7654 15.8496 74.9179 15.5811C75.0703 15.3052 75.1465 14.9749 75.1465 14.5902C75.1465 14.191 75.0703 13.857 74.9179 13.5885C74.7654 13.3126 74.5662 13.1057 74.319 12.9678C74.0724 12.8299 73.804 12.761 73.5133 12.761C73.2231 12.761 72.9509 12.8335 72.6966 12.9787C72.45 13.1166 72.2502 13.3199 72.0978 13.5885C71.9453 13.857 71.8691 14.191 71.8691 14.5902C71.8691 14.9822 71.9453 15.3161 72.0978 15.5919C72.2502 15.8605 72.45 16.0638 72.6966 16.2017C72.9509 16.3396 73.2231 16.4086 73.5133 16.4086ZM78.3189 11.0515C78.1011 11.0515 77.9127 10.9753 77.7527 10.8228C77.6002 10.6631 77.524 10.4744 77.524 10.2566C77.524 10.0389 77.6002 9.85375 77.7527 9.70131C77.9127 9.54888 78.1011 9.47266 78.3189 9.47266C78.5366 9.47266 78.7217 9.54888 78.8742 9.70131C79.0342 9.85375 79.1137 10.0389 79.1137 10.2566C79.1137 10.4744 79.0342 10.6631 78.8742 10.8228C78.7217 10.9753 78.5366 11.0515 78.3189 11.0515ZM77.7309 17.4212V11.8681H78.9068V17.4212H77.7309ZM84.6494 17.5954C84.2503 17.5954 83.8948 17.5192 83.5823 17.3667C83.2704 17.2071 83.027 16.9857 82.8528 16.7026C82.6786 16.4195 82.5915 16.0965 82.5915 15.7335C82.5915 15.3415 82.6933 15.0076 82.8964 14.7318C83.107 14.4487 83.3863 14.2345 83.7348 14.0893C84.0832 13.9441 84.4681 13.8716 84.8889 13.8716C85.2374 13.8716 85.5422 13.9042 85.8036 13.9696C86.0725 14.0349 86.2756 14.1039 86.4133 14.1764V13.8825C86.4133 13.5195 86.2827 13.2292 86.0213 13.0114C85.76 12.7936 85.4225 12.6847 85.0087 12.6847C84.7256 12.6847 84.4572 12.7501 84.203 12.8807C83.9493 13.0041 83.7456 13.1747 83.5932 13.3925L82.7875 12.7718C83.027 12.4379 83.3428 12.1766 83.7348 11.9879C84.1344 11.7919 84.5699 11.6939 85.0414 11.6939C85.8471 11.6939 86.4678 11.8935 86.9033 12.2928C87.3388 12.6847 87.5566 13.2364 87.5566 13.9478V17.4212H86.4133V16.7352H86.348C86.2032 16.9602 85.9854 17.1599 85.6947 17.3341C85.4045 17.5083 85.0561 17.5954 84.6494 17.5954ZM84.8563 16.6372C85.1611 16.6372 85.4301 16.5647 85.662 16.4195C85.8945 16.2743 86.0758 16.0856 86.2064 15.8533C86.3447 15.6137 86.4133 15.356 86.4133 15.0802C86.2467 14.9858 86.0507 14.9096 85.8253 14.8515C85.6005 14.7862 85.3609 14.7535 85.1067 14.7535C84.6276 14.7535 84.2868 14.8515 84.0832 15.0475C83.8801 15.2363 83.7783 15.4685 83.7783 15.7444C83.7783 16.0057 83.8763 16.2198 84.0723 16.3868C84.2683 16.5538 84.5296 16.6372 84.8563 16.6372Z" fill="white"/>
<path d="M95.4894 17.5957C94.9303 17.5957 94.4044 17.4941 93.9106 17.2908C93.4244 17.0876 92.9921 16.8045 92.6149 16.4415C92.2376 16.0713 91.9398 15.6394 91.722 15.1458C91.5113 14.6449 91.4062 14.1042 91.4062 13.5234C91.4062 12.9427 91.5113 12.4056 91.722 11.9119C91.9398 11.4111 92.2338 10.9792 92.604 10.6162C92.9813 10.246 93.4168 9.95928 93.9106 9.75605C94.4044 9.55281 94.9303 9.45117 95.4894 9.45117C96.0845 9.45117 96.6327 9.55641 97.1336 9.76694C97.6415 9.97746 98.0661 10.2714 98.4075 10.6489L97.58 11.4655C97.3257 11.1824 97.0209 10.9647 96.6653 10.8122C96.3169 10.6598 95.9249 10.5836 95.4894 10.5836C94.9738 10.5836 94.4986 10.707 94.063 10.9538C93.6275 11.1933 93.2752 11.5345 93.0068 11.9773C92.7455 12.4128 92.6149 12.9282 92.6149 13.5234C92.6149 14.1186 92.7493 14.6377 93.0177 15.0805C93.2861 15.516 93.6384 15.8572 94.0739 16.104C94.5094 16.3435 94.9847 16.4633 95.5003 16.4633C95.9723 16.4633 96.4002 16.3762 96.7851 16.202C97.17 16.0205 97.4782 15.7664 97.7106 15.4398C97.9502 15.1131 98.0955 14.7212 98.1462 14.2638H95.4785V13.2077H99.2677C99.3112 13.4037 99.333 13.6105 99.333 13.8283V13.8392C99.333 14.5941 99.1659 15.2547 98.8321 15.8209C98.5055 16.3798 98.052 16.8154 97.4711 17.1275C96.8902 17.4396 96.2298 17.5957 95.4894 17.5957ZM102.839 17.5957C102.266 17.5957 101.761 17.465 101.326 17.2037C100.89 16.9424 100.549 16.5903 100.302 16.1475C100.055 15.7048 99.9319 15.2039 99.9319 14.6449C99.9319 14.0933 100.055 13.596 100.302 13.1532C100.549 12.7032 100.89 12.3475 101.326 12.0862C101.761 11.8248 102.266 11.6942 102.839 11.6942C103.405 11.6942 103.906 11.8248 104.342 12.0862C104.777 12.3475 105.119 12.7032 105.365 13.1532C105.612 13.596 105.735 14.0933 105.735 14.6449C105.735 15.2039 105.612 15.7048 105.365 16.1475C105.119 16.5903 104.777 16.9424 104.342 17.2037C103.906 17.465 103.405 17.5957 102.839 17.5957ZM102.839 16.5177C103.144 16.5177 103.427 16.4452 103.688 16.3C103.95 16.1475 104.16 15.9334 104.32 15.6576C104.487 15.3745 104.57 15.0369 104.57 14.6449C104.57 14.253 104.487 13.9191 104.32 13.6432C104.16 13.3601 103.95 13.146 103.688 13.0008C103.427 12.8484 103.144 12.7721 102.839 12.7721C102.534 12.7721 102.247 12.8484 101.979 13.0008C101.718 13.146 101.504 13.3601 101.336 13.6432C101.177 13.9191 101.097 14.253 101.097 14.6449C101.097 15.0369 101.177 15.3745 101.336 15.6576C101.504 15.9334 101.718 16.1475 101.979 16.3C102.247 16.4452 102.534 16.5177 102.839 16.5177ZM109.431 17.5957C108.858 17.5957 108.354 17.465 107.918 17.2037C107.482 16.9424 107.142 16.5903 106.894 16.1475C106.648 15.7048 106.524 15.2039 106.524 14.6449C106.524 14.0933 106.648 13.596 106.894 13.1532C107.142 12.7032 107.482 12.3475 107.918 12.0862C108.354 11.8248 108.858 11.6942 109.431 11.6942C109.998 11.6942 110.499 11.8248 110.934 12.0862C111.37 12.3475 111.711 12.7032 111.958 13.1532C112.205 13.596 112.328 14.0933 112.328 14.6449C112.328 15.2039 112.205 15.7048 111.958 16.1475C111.711 16.5903 111.37 16.9424 110.934 17.2037C110.499 17.465 109.998 17.5957 109.431 17.5957ZM109.431 16.5177C109.736 16.5177 110.019 16.4452 110.281 16.3C110.542 16.1475 110.753 15.9334 110.912 15.6576C111.079 15.3745 111.163 15.0369 111.163 14.6449C111.163 14.253 111.079 13.9191 110.912 13.6432C110.753 13.3601 110.542 13.146 110.281 13.0008C110.019 12.8484 109.736 12.7721 109.431 12.7721C109.127 12.7721 108.84 12.8484 108.571 13.0008C108.31 13.146 108.096 13.3601 107.929 13.6432C107.769 13.9191 107.689 14.253 107.689 14.6449C107.689 15.0369 107.769 15.3745 107.929 15.6576C108.096 15.9334 108.31 16.1475 108.571 16.3C108.84 16.4452 109.127 16.5177 109.431 16.5177ZM115.916 19.9476C115.429 19.9476 115.008 19.8677 114.652 19.708C114.304 19.5556 114.021 19.356 113.803 19.1092C113.585 18.8696 113.429 18.6229 113.335 18.3688L114.424 17.9115C114.54 18.2018 114.725 18.4378 114.979 18.6192C115.24 18.808 115.552 18.9023 115.916 18.9023C116.423 18.9023 116.823 18.7499 117.113 18.445C117.41 18.1401 117.56 17.7082 117.56 17.1493V16.6157H117.494C117.32 16.8771 117.077 17.0876 116.765 17.2473C116.46 17.3997 116.111 17.4759 115.72 17.4759C115.247 17.4759 114.816 17.3562 114.424 17.1166C114.032 16.8771 113.716 16.5432 113.476 16.1149C113.237 15.6793 113.117 15.1712 113.117 14.5905C113.117 14.0025 113.237 13.4944 113.476 13.0661C113.716 12.6306 114.032 12.293 114.424 12.0535C114.816 11.814 115.247 11.6942 115.72 11.6942C116.111 11.6942 116.46 11.774 116.765 11.9337C117.077 12.0934 117.32 12.3039 117.494 12.5653H117.56V11.8684H118.681V17.1275C118.681 17.73 118.561 18.2418 118.322 18.6628C118.089 19.0838 117.767 19.4032 117.353 19.6209C116.939 19.8387 116.46 19.9476 115.916 19.9476ZM115.926 16.4089C116.217 16.4089 116.485 16.3399 116.732 16.202C116.979 16.0568 117.179 15.8499 117.331 15.5813C117.483 15.3055 117.56 14.9752 117.56 14.5905C117.56 14.1913 117.483 13.8573 117.331 13.5888C117.179 13.3129 116.979 13.106 116.732 12.9681C116.485 12.8302 116.217 12.7612 115.926 12.7612C115.636 12.7612 115.363 12.8338 115.11 12.979C114.863 13.1169 114.663 13.3202 114.511 13.5888C114.358 13.8573 114.282 14.1913 114.282 14.5905C114.282 14.9825 114.358 15.3164 114.511 15.5922C114.663 15.8608 114.863 16.0641 115.11 16.202C115.363 16.3399 115.636 16.4089 115.926 16.4089ZM120.068 17.4215V9.62539H121.244V17.4215H120.068ZM125.114 17.5957C124.57 17.5957 124.083 17.4687 123.655 17.2146C123.227 16.9605 122.889 16.6121 122.642 16.1693C122.403 15.7265 122.283 15.222 122.283 14.6558C122.283 14.1259 122.399 13.636 122.631 13.1859C122.863 12.7358 123.187 12.3765 123.601 12.1079C124.021 11.8321 124.504 11.6942 125.049 11.6942C125.622 11.6942 126.108 11.8176 126.508 12.0644C126.914 12.3112 127.223 12.6487 127.433 13.077C127.643 13.5053 127.749 13.988 127.749 14.5252C127.749 14.605 127.745 14.6776 127.738 14.7429C127.738 14.8083 127.734 14.8591 127.727 14.8954H123.437C123.495 15.447 123.688 15.8608 124.014 16.1366C124.348 16.4125 124.725 16.5504 125.147 16.5504C125.524 16.5504 125.836 16.4669 126.083 16.3C126.33 16.1258 126.526 15.9116 126.671 15.6576L127.64 16.1258C127.401 16.5613 127.074 16.917 126.66 17.1928C126.246 17.4614 125.731 17.5957 125.114 17.5957ZM125.06 12.6959C124.668 12.6959 124.333 12.8157 124.058 13.0552C123.782 13.2948 123.597 13.6142 123.503 14.0134H126.584C126.569 13.8247 126.508 13.6287 126.399 13.4254C126.29 13.2222 126.123 13.0516 125.898 12.9137C125.68 12.7685 125.4 12.6959 125.06 12.6959ZM132.535 17.4215L130.444 9.62539H131.773L133.014 14.6885L133.145 15.3636H133.21L133.373 14.6885L134.941 9.62539H136.139L137.642 14.6885L137.805 15.3527H137.87L138.001 14.6885L139.242 9.62539H140.56L138.502 17.4215H137.239L135.747 12.2495L135.573 11.52H135.508L135.322 12.2495L133.765 17.4215H132.535ZM142.746 17.5957C142.347 17.5957 141.992 17.5195 141.679 17.367C141.367 17.2074 141.124 16.9859 140.95 16.7028C140.775 16.4197 140.688 16.0967 140.688 15.7338C140.688 15.3418 140.79 15.0079 140.993 14.732C141.204 14.4489 141.483 14.2348 141.832 14.0896C142.18 13.9444 142.565 13.8719 142.986 13.8719C143.334 13.8719 143.639 13.9045 143.9 13.9699C144.169 14.0352 144.372 14.1042 144.51 14.1767V13.8828C144.51 13.5198 144.379 13.2294 144.118 13.0117C143.857 12.7939 143.519 12.685 143.105 12.685C142.822 12.685 142.554 12.7504 142.3 12.881C142.046 13.0044 141.842 13.175 141.69 13.3928L140.884 12.7721C141.124 12.4382 141.44 12.1769 141.832 11.9882C142.231 11.7922 142.667 11.6942 143.138 11.6942C143.944 11.6942 144.565 11.8938 145 12.293C145.436 12.685 145.653 13.2367 145.653 13.9481V17.4215H144.51V16.7355H144.445C144.3 16.9605 144.082 17.1602 143.791 17.3344C143.501 17.5086 143.153 17.5957 142.746 17.5957ZM142.953 16.6375C143.258 16.6375 143.527 16.5649 143.759 16.4197C143.991 16.2746 144.173 16.0859 144.303 15.8536C144.441 15.614 144.51 15.3563 144.51 15.0805C144.343 14.9861 144.147 14.9099 143.922 14.8518C143.697 14.7865 143.458 14.7538 143.203 14.7538C142.724 14.7538 142.384 14.8518 142.18 15.0478C141.977 15.2366 141.875 15.4688 141.875 15.7447C141.875 16.006 141.973 16.2201 142.169 16.3871C142.365 16.5541 142.626 16.6375 142.953 16.6375ZM146.959 17.4215V9.62539H148.135V17.4215H146.959ZM149.532 17.4215V9.62539H150.708V17.4215H149.532ZM154.579 17.5957C154.034 17.5957 153.547 17.4687 153.12 17.2146C152.691 16.9605 152.354 16.6121 152.107 16.1693C151.867 15.7265 151.748 15.222 151.748 14.6558C151.748 14.1259 151.864 13.636 152.096 13.1859C152.328 12.7358 152.651 12.3765 153.065 12.1079C153.486 11.8321 153.969 11.6942 154.513 11.6942C155.087 11.6942 155.573 11.8176 155.972 12.0644C156.378 12.3112 156.687 12.6487 156.898 13.077C157.108 13.5053 157.214 13.988 157.214 14.5252C157.214 14.605 157.21 14.6776 157.203 14.7429C157.203 14.8083 157.199 14.8591 157.192 14.8954H152.902C152.959 15.447 153.152 15.8608 153.479 16.1366C153.813 16.4125 154.19 16.5504 154.611 16.5504C154.989 16.5504 155.3 16.4669 155.548 16.3C155.794 16.1258 155.99 15.9116 156.136 15.6576L157.105 16.1258C156.865 16.5613 156.538 16.917 156.125 17.1928C155.711 17.4614 155.195 17.5957 154.579 17.5957ZM154.524 12.6959C154.132 12.6959 153.798 12.8157 153.522 13.0552C153.246 13.2948 153.061 13.6142 152.967 14.0134H156.049C156.034 13.8247 155.972 13.6287 155.863 13.4254C155.755 13.2222 155.587 13.0516 155.363 12.9137C155.145 12.7685 154.865 12.6959 154.524 12.6959ZM158.733 15.81V12.8919H157.764V11.8684H158.733V10.3005H159.909V11.8684H161.27V12.8919H159.909V15.5596C159.909 15.8354 159.963 16.0459 160.072 16.1911C160.188 16.3363 160.38 16.4089 160.649 16.4089C160.787 16.4089 160.903 16.3907 160.998 16.3544C161.099 16.3181 161.201 16.2673 161.303 16.202V17.3453C161.179 17.3961 161.048 17.436 160.911 17.465C160.772 17.4941 160.609 17.5086 160.421 17.5086C159.905 17.5086 159.495 17.3598 159.19 17.0622C158.885 16.7573 158.733 16.3399 158.733 15.81Z" fill="white"/>
<path d="M160.061 0.272461H13.6117C6.24519 0.272461 0.273438 6.24422 0.273438 13.6108C0.273438 20.9773 6.24519 26.949 13.6117 26.949H160.061C167.427 26.949 173.399 20.9773 173.399 13.6108C173.399 6.24422 167.427 0.272461 160.061 0.272461Z" stroke="#747775"/>
</g>
<defs>
<linearGradient id="paint0_linear_568_502" x1="18.8215" y1="16.7606" x2="10.1983" y2="26.6292" gradientUnits="userSpaceOnUse">
<stop stop-color="#4285F4"/>
<stop offset="1" stop-color="#1B74E8"/>
</linearGradient>
<clipPath id="clip0_568_502">
<rect width="173.67" height="27.221" fill="white"/>
</clipPath>
</defs>
</svg>
